<?xml version="1.0" encoding="utf-8"?>
<!-- Generator: Adobe Illustrator 23.0.0, SVG Export Plug-In . SVG Version: 6.00 Build 0)  -->
<svg version="1.1" id="Layer_1" xmlns="http://www.w3.org/2000/svg" xmlns:xlink="http://www.w3.org/1999/xlink" x="0px" y="0px"
	 viewBox="0 0 27.4 17.3" style="enable-background:new 0 0 27.4 17.3;" xml:space="preserve">
<style type="text/css">
	.st0{fill:none;stroke:#FFFFFF;stroke-miterlimit:10;}
</style>
<g>
	<g>
		<path class="st0" d="M26.9,12.3c0-0.4-0.2-0.7-0.6-0.9V5.3c0.1,0,0.1-0.1,0.1-0.2c0-0.1-0.1-0.1-0.1-0.2L13.7,0.5
			c-0.2-0.1-0.3-0.1-0.5,0L0.6,5C0.6,5,0.5,5.1,0.5,5.2c0,0.1,0,0.1,0.1,0.2l12.6,4.9c0.2,0.1,0.4,0.1,0.5,0l11.7-4.6v5.8
			c-0.3,0.2-0.6,0.5-0.6,0.9c0,0.4,0.2,0.8,0.6,0.9c-0.4,0.7-0.6,2.1-0.6,2.6c0,0.5,0.4,1,1,1c0.5,0,1-0.4,1-1
			c0-0.4-0.2-1.9-0.6-2.6C26.6,13.1,26.9,12.7,26.9,12.3z"/>
		<path class="st0" d="M4.6,7.8c0,1.4,0,3.1,0,3.3c0,2.6,3.9,4.8,8.9,4.9c5-0.1,8.9-2.3,8.9-4.9c0-0.3,0-1.9,0-3.3l-8.6,3.4
			c-0.2,0.1-0.4,0.1-0.5,0L4.6,7.8z"/>
	</g>
</g>
</svg>
