<?xml version="1.0" encoding="utf-8"?>
<!-- Generator: Adobe Illustrator 23.0.0, SVG Export Plug-In . SVG Version: 6.00 Build 0)  -->
<svg version="1.1" id="Layer_1" xmlns="http://www.w3.org/2000/svg" xmlns:xlink="http://www.w3.org/1999/xlink" x="0px" y="0px"
	 viewBox="0 0 20 24" style="enable-background:new 0 0 20 24;" xml:space="preserve">
<style type="text/css">
	.st0{fill:#FFFFFF;}
</style>
<g>
	<path class="st0" d="M4.7,23.7h1.7c0.2,0,0.4-0.2,0.4-0.4c0-0.2-0.2-0.4-0.4-0.4H3.2v-1.4h14c0.2,0,0.4-0.2,0.4-0.4v-18h0.7V23H8
		c-0.2,0-0.4,0.2-0.4,0.4c0,0.2,0.2,0.4,0.4,0.4h10.7c0.2,0,0.4-0.2,0.4-0.4v-18V4.5V2.8c0-0.2-0.2-0.4-0.4-0.4h-1.1V0.7
		c0-0.2-0.2-0.4-0.4-0.4H1.3C1.1,0.3,1,0.5,1,0.7v1.2c0,0.2,0.2,0.4,0.4,0.4s0.4-0.2,0.4-0.4V1h15.1v19.8H1.7V3.5
		c0-0.2-0.2-0.4-0.4-0.4S1,3.3,1,3.5v17.7c0,0.2,0.2,0.4,0.4,0.4h1.1v1.7c0,0.2,0.2,0.4,0.4,0.4h1.1H4.7z"/>
	<path class="st0" d="M14.6,6.5v-3c0-0.2-0.2-0.4-0.4-0.4H4.3c-0.2,0-0.4,0.2-0.4,0.4v3c0,0.2,0.2,0.4,0.4,0.4h9.9
		C14.4,6.9,14.6,6.7,14.6,6.5L14.6,6.5z M13.8,6.1H4.7V3.9h9.1L13.8,6.1L13.8,6.1z"/>
	<path class="st0" d="M3.7,16c0,0.2,0.2,0.4,0.4,0.4h10.1c0.2,0,0.4-0.2,0.4-0.4c0-0.2-0.2-0.4-0.4-0.4H4.1
		C3.9,15.6,3.7,15.8,3.7,16z"/>
	<path class="st0" d="M4.1,18h10.1c0.2,0,0.4-0.2,0.4-0.4s-0.2-0.4-0.4-0.4H4.1c-0.2,0-0.4,0.2-0.4,0.4S3.9,18,4.1,18z"/>
	<path class="st0" d="M6.3,13.7c0,0.2,0.2,0.4,0.4,0.4c0.2,0,0.4-0.2,0.4-0.4c0-1.1,0.9-2.1,2.1-2.1s2.1,0.9,2.1,2.1
		c0,0.2,0.2,0.4,0.4,0.4c0.2,0,0.4-0.2,0.4-0.4c0-1.1-0.6-2.1-1.6-2.5c0.4-0.3,0.6-0.8,0.6-1.4c0-1-0.8-1.9-1.9-1.9S7.3,8.7,7.3,9.7
		c0,0.6,0.2,1.1,0.6,1.4C7,11.6,6.3,12.5,6.3,13.7z M8,9.7c0-0.6,0.5-1.1,1.1-1.1s1.1,0.5,1.1,1.1s-0.5,1.1-1.1,1.1S8,10.3,8,9.7z"
		/>
</g>
</svg>
