<?xml version="1.0" encoding="utf-8"?>
<!-- Generator: Adobe Illustrator 23.0.0, SVG Export Plug-In . SVG Version: 6.00 Build 0)  -->
<svg version="1.1" id="Layer_1" xmlns="http://www.w3.org/2000/svg" xmlns:xlink="http://www.w3.org/1999/xlink" x="0px" y="0px"
	 viewBox="0 0 20 24" style="enable-background:new 0 0 20 24;" xml:space="preserve">
<style type="text/css">
	.st0{fill:#F86A55;}
</style>
<g>
	<path class="st0" d="M6.9,7.3L6.5,7.5C6,7.7,5.6,8.2,5.5,8.7L5.3,9.4c-0.1,0.3,0,0.6,0.2,0.9c0.2,0.2,0.5,0.4,0.8,0.4h3.1
		c0.3,0,0.6-0.1,0.8-0.4c0.2-0.2,0.3-0.6,0.2-0.9l-0.1-0.6c-0.1-0.6-0.5-1.1-1.1-1.3L9,7.3V6.8c0,0,0,0,0,0c0.3-0.3,0.4-0.7,0.4-1.1
		V4.9c0-0.8-0.7-1.5-1.5-1.5S6.5,4.1,6.5,4.9v0.9c0,0.4,0.2,0.8,0.4,1c0,0,0,0,0,0L6.9,7.3z M9.8,8.9l0.1,0.6c0,0.1,0,0.3-0.1,0.4
		C9.8,10,9.6,10,9.5,10H6.4C6.3,10,6.1,10,6,9.8C6,9.7,5.9,9.6,5.9,9.5l0.1-0.6c0.1-0.4,0.3-0.7,0.7-0.8L7,8c0,0,0,0,0,0
		c0.3,0.2,0.6,0.3,0.9,0.3c0.3,0,0.7-0.1,0.9-0.3c0,0,0,0,0,0l0.2,0.1C9.5,8.2,9.8,8.5,9.8,8.9z M7.1,4.9C7.1,4.4,7.5,4,7.9,4
		c0.4,0,0.7,0.3,0.8,0.6c0,0-0.1,0-0.1,0.1C8.3,4.9,8,4.8,7.9,4.8C7.7,4.7,7.5,4.7,7.4,4.8C7.3,5,7.4,5.2,7.5,5.3
		c0.2,0.1,0.4,0.2,0.6,0.2c0.2,0,0.5,0,0.7-0.1v0.4c0,0.2-0.1,0.5-0.3,0.6C8.4,6.4,8.4,6.5,8.3,6.5c0,0,0,0,0,0
		C8.1,6.5,8,6.6,7.9,6.6c-0.5,0-0.8-0.4-0.8-0.8L7.1,4.9z M7.9,7.2C7.9,7.2,7.9,7.2,7.9,7.2c0.2,0,0.3,0,0.5-0.1v0.5
		c-0.3,0.2-0.6,0.2-0.8,0V7.1C7.6,7.1,7.8,7.2,7.9,7.2z"/>
	<path class="st0" d="M3.1,15.9h9.7c0.2,0,0.3-0.1,0.3-0.3c0-0.2-0.1-0.3-0.3-0.3H3.1c-0.2,0-0.3,0.1-0.3,0.3
		C2.7,15.8,2.9,15.9,3.1,15.9z"/>
	<path class="st0" d="M3.1,17.6h9.7c0.2,0,0.3-0.1,0.3-0.3s-0.1-0.3-0.3-0.3H3.1c-0.2,0-0.3,0.1-0.3,0.3S2.9,17.6,3.1,17.6z"/>
	<path class="st0" d="M3.1,19.2h9.7c0.2,0,0.3-0.1,0.3-0.3s-0.1-0.3-0.3-0.3H3.1c-0.2,0-0.3,0.1-0.3,0.3S2.9,19.2,3.1,19.2z"/>
	<path class="st0" d="M3.1,20.9h9.7c0.2,0,0.3-0.1,0.3-0.3c0-0.2-0.1-0.3-0.3-0.3H3.1c-0.2,0-0.3,0.1-0.3,0.3
		C2.7,20.7,2.9,20.9,3.1,20.9z"/>
	<path class="st0" d="M2.7,12.3c0,0.2,0.1,0.3,0.3,0.3h9.7c0.2,0,0.3-0.1,0.3-0.3c0-0.2-0.1-0.3-0.3-0.3H3.1
		C2.9,12,2.7,12.1,2.7,12.3z"/>
	<path class="st0" d="M3.1,14.2h9.7c0.2,0,0.3-0.1,0.3-0.3s-0.1-0.3-0.3-0.3H3.1c-0.2,0-0.3,0.1-0.3,0.3S2.9,14.2,3.1,14.2z"/>
	<path class="st0" d="M1.9,15.9c0.2,0,0.3-0.1,0.3-0.3c0-0.2-0.1-0.3-0.3-0.3s-0.3,0.1-0.3,0.3S1.7,15.9,1.9,15.9z"/>
	<path class="st0" d="M1.9,12.6c0.2,0,0.3-0.1,0.3-0.3c0-0.2-0.1-0.3-0.3-0.3s-0.3,0.1-0.3,0.3C1.6,12.4,1.7,12.6,1.9,12.6z"/>
	<path class="st0" d="M1.9,14.2c0.2,0,0.3-0.1,0.3-0.3s-0.1-0.3-0.3-0.3s-0.3,0.1-0.3,0.3S1.7,14.2,1.9,14.2z"/>
	<path class="st0" d="M1.9,17.6c0.2,0,0.3-0.1,0.3-0.3s-0.1-0.3-0.3-0.3s-0.3,0.1-0.3,0.3S1.7,17.6,1.9,17.6z"/>
	<path class="st0" d="M1.9,19.2c0.2,0,0.3-0.1,0.3-0.3s-0.1-0.3-0.3-0.3s-0.3,0.1-0.3,0.3C1.6,19.1,1.7,19.2,1.9,19.2z"/>
	<path class="st0" d="M1.9,20.9c0.2,0,0.3-0.1,0.3-0.3c0-0.2-0.1-0.3-0.3-0.3s-0.3,0.1-0.3,0.3C1.6,20.7,1.7,20.9,1.9,20.9z"/>
	<path class="st0" d="M19.5,6.3c-0.1-0.2-0.2-0.3-0.3-0.4c-0.1-0.1-0.1-0.3-0.1-0.5C19,5,19,4.6,18.7,4.3C18.4,4,18,4,17.6,3.9
		c-0.2,0-0.4,0-0.6-0.1c-0.1-0.1-0.3-0.2-0.4-0.3c-0.2-0.2-0.5-0.4-0.7-0.4V3c0-0.8-0.7-1.5-1.5-1.5H1.5C0.7,1.5,0,2.2,0,3v1.2
		c0,0.2,0.1,0.3,0.3,0.3s0.3-0.1,0.3-0.3V3c0-0.5,0.4-0.9,0.9-0.9h12.9c0.5,0,0.9,0.4,0.9,0.9v0.1c-0.3,0.1-0.5,0.3-0.7,0.4
		c-0.2,0.1-0.3,0.2-0.4,0.3c-0.1,0.1-0.3,0.1-0.6,0.1c-0.4,0-0.8,0.1-1.1,0.4c-0.3,0.3-0.3,0.7-0.4,1.1c0,0.2-0.1,0.4-0.1,0.5
		c-0.1,0.1-0.2,0.3-0.3,0.4c-0.2,0.3-0.5,0.6-0.5,1c0,0.4,0.3,0.8,0.5,1c0.1,0.2,0.2,0.3,0.3,0.4C12,9,12.1,9.2,12.1,9.4
		c0,0.4,0.1,0.8,0.4,1.1c0.3,0.3,0.7,0.3,1.1,0.4c0.1,0,0.2,0,0.3,0v4.6c0,0.2,0.1,0.3,0.3,0.4c0.2,0.1,0.4,0.1,0.5-0.1l0.7-0.5V21
		c0,0.5-0.4,0.9-0.9,0.9H1.5c-0.5,0-0.9-0.4-0.9-0.9V5.5c0-0.2-0.1-0.3-0.3-0.3S0,5.3,0,5.5V21c0,0.8,0.7,1.5,1.5,1.5h12.9
		c0.8,0,1.5-0.7,1.5-1.5v-5.6l0.7,0.5c0.1,0.1,0.2,0.1,0.3,0.1c0.1,0,0.1,0,0.2,0c0.2-0.1,0.3-0.2,0.3-0.4v-3.4
		c0-0.2-0.1-0.3-0.3-0.3s-0.3,0.1-0.3,0.3v3.1l-0.8-0.6c-0.1-0.1-0.2-0.1-0.3-0.1c-0.1,0-0.2,0-0.3,0.1l-0.8,0.6v-4c0,0,0,0,0.1,0.1
		c0.3,0.2,0.6,0.5,1.1,0.5c0.4,0,0.8-0.3,1.1-0.5c0.2-0.1,0.3-0.2,0.4-0.3c0.1-0.1,0.3-0.1,0.6-0.1c0.4,0,0.8-0.1,1.1-0.4
		c0.3-0.3,0.3-0.7,0.4-1.1c0-0.2,0.1-0.4,0.1-0.5c0.1-0.1,0.2-0.3,0.3-0.4c0.2-0.3,0.5-0.6,0.5-1C20,7,19.7,6.6,19.5,6.3L19.5,6.3z
		 M19,8c-0.1,0.2-0.3,0.4-0.4,0.6c-0.1,0.2-0.1,0.5-0.2,0.7c0,0.3-0.1,0.6-0.2,0.7c-0.1,0.1-0.4,0.2-0.7,0.2c-0.2,0-0.5,0.1-0.7,0.2
		c-0.2,0.1-0.4,0.2-0.6,0.4c-0.2,0.2-0.5,0.4-0.7,0.4c-0.2,0-0.4-0.2-0.7-0.4c-0.2-0.1-0.4-0.3-0.6-0.4c0,0-0.1,0-0.1,0
		c-0.2-0.1-0.4-0.1-0.6-0.1c-0.3,0-0.6-0.1-0.7-0.2c-0.1-0.1-0.2-0.4-0.2-0.7c0-0.2-0.1-0.5-0.2-0.7c-0.1-0.2-0.2-0.4-0.4-0.6
		c-0.2-0.2-0.4-0.5-0.4-0.7c0-0.2,0.2-0.4,0.4-0.7c0.1-0.2,0.3-0.4,0.4-0.6c0.1-0.2,0.1-0.5,0.2-0.7c0-0.3,0.1-0.6,0.2-0.7
		c0.1-0.1,0.4-0.2,0.7-0.2c0.2,0,0.5-0.1,0.7-0.2c0.2-0.1,0.4-0.2,0.6-0.4c0.2-0.2,0.5-0.4,0.7-0.4c0,0,0,0,0,0c0,0,0,0,0,0
		c0.2,0,0.4,0.2,0.7,0.4c0.2,0.1,0.4,0.3,0.6,0.4c0.2,0.1,0.5,0.1,0.7,0.2c0.3,0,0.6,0.1,0.7,0.2c0.1,0.1,0.2,0.4,0.2,0.7
		c0,0.2,0.1,0.5,0.2,0.7c0.1,0.2,0.2,0.4,0.4,0.6c0.2,0.2,0.4,0.5,0.4,0.7C19.4,7.6,19.2,7.8,19,8L19,8z"/>
	<path class="st0" d="M17.6,6.4l-1.1-0.3l-0.6-0.9C15.8,5.1,15.7,5,15.6,5c-0.1,0-0.3,0.1-0.3,0.2l-0.6,0.9l-1.1,0.3
		c-0.1,0-0.2,0.1-0.3,0.3c0,0.1,0,0.3,0.1,0.4l0.7,0.9L14,9c0,0.1,0.1,0.3,0.2,0.3c0.1,0,0.1,0.1,0.2,0.1c0,0,0.1,0,0.1,0l1-0.4
		l1,0.4c0.1,0,0.3,0,0.4-0.1s0.2-0.2,0.2-0.3l0-1.1L17.8,7c0.1-0.1,0.1-0.2,0.1-0.4C17.8,6.5,17.7,6.4,17.6,6.4L17.6,6.4z M16.6,7.6
		c-0.1,0.1-0.1,0.2-0.1,0.3l0,0.8l-0.8-0.3c-0.1,0-0.2,0-0.3,0l-0.8,0.3l0-0.8c0-0.1,0-0.2-0.1-0.3l-0.5-0.7l0.8-0.2
		c0.1,0,0.2-0.1,0.2-0.2l0.5-0.7l0.5,0.7c0.1,0.1,0.1,0.1,0.2,0.2l0.8,0.2L16.6,7.6z"/>
</g>
</svg>
