<?xml version="1.0" encoding="utf-8"?>
<!-- Generator: Adobe Illustrator 24.0.2, SVG Export Plug-In . SVG Version: 6.00 Build 0)  -->
<svg version="1.1" id="Layer_1" xmlns="http://www.w3.org/2000/svg" xmlns:xlink="http://www.w3.org/1999/xlink" x="0px" y="0px"
	 viewBox="0 0 42 42" style="enable-background:new 0 0 42 42;" xml:space="preserve">
<style type="text/css">
	.st0{fill:#FC6A55;}
	.st1{stroke:#FFFFFF;stroke-width:0.25;stroke-miterlimit:10;}
	.st2{fill:#656D7A;}
	.st3{fill:#FFFFFF;}
	.st4{filter:url(#Adobe_OpacityMaskFilter);}
	.st5{fill-rule:evenodd;clip-rule:evenodd;fill:#FFFFFF;}
	.st6{mask:url(#mask-2_8_);fill-rule:evenodd;clip-rule:evenodd;}
	.st7{filter:url(#Adobe_OpacityMaskFilter_1_);}
	.st8{mask:url(#mask-2_7_);fill-rule:evenodd;clip-rule:evenodd;}
	.st9{filter:url(#Adobe_OpacityMaskFilter_2_);}
	.st10{mask:url(#mask-2_6_);fill-rule:evenodd;clip-rule:evenodd;}
	.st11{filter:url(#Adobe_OpacityMaskFilter_3_);}
	.st12{mask:url(#mask-2_5_);fill-rule:evenodd;clip-rule:evenodd;}
	.st13{filter:url(#Adobe_OpacityMaskFilter_4_);}
	.st14{mask:url(#mask-2_2_);fill:none;stroke:#000000;stroke-width:2;}
	.st15{fill:#434343;}
	.st16{fill:#434343;stroke:#F9F9F9;stroke-width:0.25;stroke-miterlimit:10;}
	.st17{fill:none;stroke:#FC6A55;stroke-width:0.5;stroke-miterlimit:10;}
	.st18{fill:none;stroke:#FC6A55;stroke-width:0.75;stroke-miterlimit:10;}
	.st19{fill:#FC6A55;stroke:#FC6A55;stroke-width:0.5;stroke-miterlimit:10;}
	.st20{opacity:0.153;fill:url(#Path_146_);enable-background:new    ;}
	.st21{opacity:0.1;fill:#590BB2;enable-background:new    ;}
	.st22{fill:#8E8CA8;}
	.st23{fill:#F5F4F9;}
	.st24{fill:#FFD5B8;}
	.st25{fill:#FC8473;}
	.st26{fill:#1C3475;}
	.st27{fill:#DDD9E4;}
	.st28{fill:#828FB3;}
	.st29{opacity:7.584635e-02;fill:url(#Path_147_);enable-background:new    ;}
	.st30{fill:#FFBE92;}
	.st31{fill:#FB8E7F;}
	.st32{fill:#FDB1A6;}
	.st33{fill:#FC806F;}
	.st34{fill:#FFE783;}
	.st35{fill:#104478;}
	.st36{fill:none;stroke:#FFFFFF;stroke-miterlimit:10;}
	.st37{fill:none;stroke:#FC6A55;stroke-miterlimit:10;}
	.st38{fill:none;stroke:#000000;stroke-width:0.15;stroke-miterlimit:10;}
	.st39{opacity:0.1;fill:url(#Path_148_);enable-background:new    ;}
	.st40{opacity:0.1;fill:url(#Path_149_);enable-background:new    ;}
</style>
<g>
	<path class="st35" d="M23,33.5l0.2-1.6c0.6-0.2,1.3-0.4,1.8-0.8l1.2,1c0.2,0.2,0.6,0.2,0.8,0l1.9-1.9c0.2-0.2,0.2-0.6,0-0.8l-1-1.2
		c0.3-0.6,0.6-1.2,0.8-1.8l1.5-0.2c0.3,0,0.6-0.3,0.6-0.6v-2.7c0-0.3-0.2-0.6-0.6-0.6l-1.6-0.2c-0.2-0.6-0.4-1.3-0.8-1.8l1-1.2
		c0.2-0.2,0.2-0.6,0-0.8L27,16.5c-0.2-0.2-0.6-0.2-0.8,0l-1.2,1c-0.6-0.3-1.2-0.6-1.8-0.8L23,15.1c0-0.3-0.3-0.5-0.6-0.5h-2.7
		c-0.3,0-0.6,0.2-0.6,0.5l-0.2,1.6c-0.6,0.2-1.3,0.4-1.8,0.8l-1.2-1c-0.2-0.2-0.6-0.2-0.8,0l-1.9,1.9c-0.2,0.2-0.2,0.6,0,0.8l1,1.2
		c-0.3,0.6-0.6,1.2-0.8,1.8l-1.6,0.2c-0.3,0-0.5,0.3-0.5,0.6v2.7c0,0.3,0.2,0.6,0.5,0.6l1.6,0.2c0.2,0.6,0.4,1.3,0.8,1.8l-1,1.2
		c-0.2,0.2-0.2,0.6,0,0.8l1.9,1.9c0.2,0.2,0.6,0.2,0.8,0l1.2-1c0.6,0.3,1.2,0.6,1.8,0.8l0.2,1.6c0,0.3,0.3,0.6,0.6,0.6h2.7
		C22.7,34.1,22.9,33.8,23,33.5z M21.9,31.4l-0.1,1.4h-1.6l-0.1-1.4c0-0.3-0.2-0.5-0.5-0.5c-0.8-0.2-1.6-0.5-2.2-0.9
		c-0.2-0.1-0.5-0.1-0.7,0l-1.1,0.9l-1.1-1.1l0.9-1.1c0.2-0.2,0.2-0.5,0-0.7c-0.5-0.7-0.8-1.4-0.9-2.2c-0.1-0.3-0.3-0.5-0.5-0.5
		l-1.4-0.1v-1.6l1.4-0.1c0.3,0,0.5-0.2,0.5-0.5c0.2-0.8,0.5-1.6,0.9-2.2c0.1-0.2,0.1-0.5,0-0.7l-0.9-1.1l1.1-1.1l1.1,0.9
		c0.2,0.2,0.5,0.2,0.7,0c0.7-0.5,1.4-0.8,2.2-0.9c0.3-0.1,0.5-0.3,0.5-0.5l0.1-1.4h1.6l0.1,1.4c0,0.3,0.2,0.5,0.5,0.5
		c0.8,0.2,1.6,0.5,2.2,0.9c0.2,0.1,0.5,0.1,0.7,0l1.1-0.9l1.1,1.1l-0.9,1.1c-0.2,0.2-0.2,0.5,0,0.7c0.5,0.7,0.8,1.4,0.9,2.2
		c0.1,0.3,0.3,0.5,0.5,0.5l1.4,0.1v1.6l-1.4,0.1c-0.3,0-0.5,0.2-0.5,0.5c-0.2,0.8-0.5,1.6-0.9,2.2c-0.1,0.2-0.1,0.5,0,0.7l0.9,1.1
		l-1.1,1.1L25.4,30c-0.2-0.2-0.5-0.2-0.7,0c-0.7,0.5-1.4,0.8-2.2,0.9C22.2,30.9,22,31.1,21.9,31.4z"/>
	<path class="st35" d="M26.8,24.3c0-3.2-2.6-5.8-5.8-5.8c-3.2,0-5.8,2.6-5.8,5.8c0,3.2,2.6,5.8,5.8,5.8
		C24.2,30.1,26.8,27.5,26.8,24.3z M21,28.9c-2.5,0-4.6-2.1-4.6-4.6c0-2.5,2.1-4.6,4.6-4.6s4.6,2.1,4.6,4.6
		C25.6,26.8,23.5,28.9,21,28.9z"/>
	<path class="st35" d="M38.4,17.9h-1.9v-3.2c0-3.9-1.6-7.6-4.5-10.3C29.2,1.6,25.3,0,21.3,0C12.8,0,6,6.6,6,14.6v3.2H3.6
		c-1.3,0-2.4,1-2.4,2.3v9.5c0,1.3,1.1,2.3,2.4,2.3h6.1c0.3,0,0.6-0.3,0.6-0.6v-13c0-0.3-0.3-0.6-0.6-0.6H7.2v-3.2
		c0-7.4,6.3-13.4,14.1-13.4c3.8,0,7.3,1.4,9.9,4c2.7,2.5,4.1,5.9,4.1,9.4v3.2h-2.4c-0.2,0-0.3,0.1-0.4,0.2c-0.1,0.1-0.2,0.3-0.2,0.4
		v13c0,0.2,0,0.3,0.2,0.4c0.1,0.1,0.3,0.2,0.4,0.2h1.8v3.7c0,1.2-0.9,2.2-2.1,2.2h-5.2C27,36,25.3,34.8,23.5,35
		c-1.8,0.2-3.2,1.9-3.1,3.7c0.1,1.9,1.7,3.3,3.5,3.3c1.7,0,3.2-1.3,3.5-3h5.2c1.9,0,3.4-1.5,3.4-3.4V32h2.5c1.3,0,2.4-1,2.4-2.3
		v-9.5C40.8,18.9,39.7,17.9,38.4,17.9z M9.1,30.8H3.6c-0.6,0-1.1-0.5-1.2-1.1v-9.5c0-0.6,0.5-1.1,1.2-1.1h5.5V30.8z M23.9,40.8
		c-1.3,0-2.3-1-2.3-2.3s1-2.3,2.3-2.3c1.3,0,2.3,1,2.3,2.3C26.2,39.7,25.2,40.8,23.9,40.8z M39.6,29.6c0,0.6-0.5,1.1-1.2,1.1h-4.9
		V19.1h4.9c0.6,0,1.2,0.5,1.2,1.1V29.6z"/>
</g>
</svg>
