<?xml version="1.0" encoding="utf-8"?>
<!-- Generator: Adobe Illustrator 24.0.2, SVG Export Plug-In . SVG Version: 6.00 Build 0)  -->
<svg version="1.1" id="Layer_1" xmlns="http://www.w3.org/2000/svg" xmlns:xlink="http://www.w3.org/1999/xlink" x="0px" y="0px"
	 viewBox="0 0 42 42" style="enable-background:new 0 0 42 42;" xml:space="preserve">
<style type="text/css">
	.st0{fill:#FC6A55;}
	.st1{stroke:#FFFFFF;stroke-width:0.25;stroke-miterlimit:10;}
	.st2{fill:#656D7A;}
	.st3{fill:#FFFFFF;}
	.st4{filter:url(#Adobe_OpacityMaskFilter);}
	.st5{fill-rule:evenodd;clip-rule:evenodd;fill:#FFFFFF;}
	.st6{mask:url(#mask-2_8_);fill-rule:evenodd;clip-rule:evenodd;}
	.st7{filter:url(#Adobe_OpacityMaskFilter_1_);}
	.st8{mask:url(#mask-2_7_);fill-rule:evenodd;clip-rule:evenodd;}
	.st9{filter:url(#Adobe_OpacityMaskFilter_2_);}
	.st10{mask:url(#mask-2_6_);fill-rule:evenodd;clip-rule:evenodd;}
	.st11{filter:url(#Adobe_OpacityMaskFilter_3_);}
	.st12{mask:url(#mask-2_5_);fill-rule:evenodd;clip-rule:evenodd;}
	.st13{filter:url(#Adobe_OpacityMaskFilter_4_);}
	.st14{mask:url(#mask-2_2_);fill:none;stroke:#000000;stroke-width:2;}
	.st15{fill:#434343;}
	.st16{fill:#434343;stroke:#F9F9F9;stroke-width:0.25;stroke-miterlimit:10;}
	.st17{fill:none;stroke:#FC6A55;stroke-width:0.5;stroke-miterlimit:10;}
	.st18{fill:none;stroke:#FC6A55;stroke-width:0.75;stroke-miterlimit:10;}
	.st19{fill:#FC6A55;stroke:#FC6A55;stroke-width:0.5;stroke-miterlimit:10;}
	.st20{opacity:0.153;fill:url(#Path_146_);enable-background:new    ;}
	.st21{opacity:0.1;fill:#590BB2;enable-background:new    ;}
	.st22{fill:#8E8CA8;}
	.st23{fill:#F5F4F9;}
	.st24{fill:#FFD5B8;}
	.st25{fill:#FC8473;}
	.st26{fill:#1C3475;}
	.st27{fill:#DDD9E4;}
	.st28{fill:#828FB3;}
	.st29{opacity:7.584635e-02;fill:url(#Path_147_);enable-background:new    ;}
	.st30{fill:#FFBE92;}
	.st31{fill:#FB8E7F;}
	.st32{fill:#FDB1A6;}
	.st33{fill:#FC806F;}
	.st34{fill:#FFE783;}
	.st35{fill:#104478;}
	.st36{fill:none;stroke:#FFFFFF;stroke-miterlimit:10;}
	.st37{fill:none;stroke:#FC6A55;stroke-miterlimit:10;}
	.st38{fill:none;stroke:#000000;stroke-width:0.15;stroke-miterlimit:10;}
	.st39{opacity:0.1;fill:url(#Path_148_);enable-background:new    ;}
	.st40{opacity:0.1;fill:url(#Path_149_);enable-background:new    ;}
</style>
<g id="Businessman_1_">
	<rect x="6.3" y="25.2" class="st35" width="1.4" height="1.4"/>
	<rect x="10.5" y="25.2" class="st35" width="1.4" height="1.4"/>
	<path class="st35" d="M38.5,5.6h-2.1V2.1c0-1.2-0.9-2.1-2.1-2.1H17.5c-1.2,0-2.1,0.9-2.1,2.1v3.5H9.1c-1.9,0-3.5,1.6-3.5,3.5v7.7
		H1.4c-0.4,0-0.7,0.3-0.7,0.7c0,0.1,0,0.2,0.1,0.3L2,20.3l-0.5,1.1c-0.1,0.3-0.1,0.6,0.1,0.8l1.6,1.6c-1.1,0.1-2,1.2-1.8,2.3
		c0.1,1.1,1,1.8,2.1,1.8c0.1,0,0.1,0,0.2,0c0.2,1,0.8,1.9,1.5,2.6c0.3,0.3,0.7,0.6,1.2,0.9v1L2.9,34C1.1,34.7,0,36.5,0,38.4v2.9
		C0,41.7,0.3,42,0.7,42h29.4c1.2,0,2.1-0.9,2.1-2.1c0-1.2-0.9-2.1-2.1-2.1h-1.5l-0.5-4.2h10.4c1.9,0,3.5-1.6,3.5-3.5v-21
		C42,7.2,40.4,5.6,38.5,5.6z M16.8,2.1c0-0.4,0.3-0.7,0.7-0.7h16.8c0.4,0,0.7,0.3,0.7,0.7v11.2c0,0.4-0.3,0.7-0.7,0.7h-8.4
		c-0.2,0-0.3,0.1-0.4,0.2l-3.1,2.5v-2c0-0.4-0.3-0.7-0.7-0.7h-4.2c-0.4,0-0.7-0.3-0.7-0.7V2.1z M7,9.1C7,7.9,7.9,7,9.1,7h6.3v6.3
		c0,1.2,0.9,2.1,2.1,2.1H21v2.8c0,0.3,0.2,0.5,0.4,0.6c0.1,0,0.2,0.1,0.3,0.1c0.2,0,0.3-0.1,0.4-0.2l4-3.3h8.1
		c1.2,0,2.1-0.9,2.1-2.1V7h2.1c1.2,0,2.1,0.9,2.1,2.1v17.5H16.7c0.4-1.1-0.1-2.3-1.2-2.7c-0.2-0.1-0.3-0.1-0.5-0.1l0.9-0.9
		c0.1-0.1,0.2-0.3,0.2-0.5v-2.1c0-1.9-1.6-3.5-3.5-3.5H7V9.1z M14.7,25.2c0.4,0,0.7,0.3,0.7,0.7s-0.3,0.7-0.7,0.7V25.2z M3.4,20
		l-0.9-1.8h10.1c1.2,0,2.1,0.9,2.1,2.1v1.8l-1,1h-0.1c-0.3,0-0.6-0.2-0.7-0.5l-0.4-1.1c-0.1-0.2-0.2-0.4-0.5-0.4c-0.1,0-0.1,0-0.2,0
		c-0.2,0-0.3,0-0.4,0.1l-1.3,1c-0.8,0.6-1.9,1-2.9,1H4.5l-1.5-1.5l0.5-0.9C3.5,20.4,3.5,20.2,3.4,20z M2.8,25.9
		c0-0.4,0.3-0.7,0.7-0.7v1.4C3.1,26.6,2.8,26.3,2.8,25.9z M4.9,27c0-0.1,0-0.3,0-0.4v-2.1h2.3c1.4,0,2.7-0.4,3.8-1.3l0.5-0.4
		l0.1,0.2c0.3,0.7,0.9,1.3,1.7,1.4v2.1c0,0.1,0,0.3,0,0.4c-0.2,2.3-2.3,4-4.6,3.7c-0.5,0-0.9-0.2-1.4-0.4c-0.4-0.2-0.8-0.5-1.2-0.8
		C5.4,28.9,5,28,4.9,27z M9.1,32.2c0.5,0,0.9-0.1,1.4-0.2v0.5l-0.9,0.4H8.6l-0.9-0.4V32C8.2,32.1,8.6,32.2,9.1,32.2z M8.6,34.9
		l0.3-0.6h0.5l0.3,0.6l-0.5,0.6L8.6,34.9z M8.7,36.9c0.2,0.2,0.6,0.2,0.8,0l0.8,3.7H7.9L8.7,36.9z M11,34.4l-0.3-0.5l0.5-0.2
		l1.1,0.5l-0.2,0.7L11,34.4z M7,33.7l0.5,0.2l-0.3,0.5l-1.1,0.4l-0.2-0.7L7,33.7z M1.4,38.4c0-1.4,0.8-2.6,2.1-3.2l1.2-0.5l0.3,1.2
		c0.1,0.3,0.4,0.5,0.7,0.5c0.1,0,0.1,0,0.2,0l1.7-0.6l-1.1,4.8h-5V38.4z M16.8,40.6h-5l-1.1-4.8l1.7,0.6c0.1,0,0.1,0,0.2,0
		c0.3,0,0.6-0.2,0.7-0.5l0.3-1.2l1.2,0.5c1.3,0.6,2.1,1.8,2.1,3.2V40.6z M15.3,34l-0.8-0.4h5L19,37.8h-0.8
		C17.9,36.1,16.9,34.7,15.3,34z M30.8,39.9c0,0.2-0.1,0.4-0.2,0.5c-0.1,0.1-0.3,0.2-0.5,0.2H18.2v-1.4h11.9
		C30.5,39.2,30.8,39.5,30.8,39.9z M27.2,37.8h-6.8l0.5-4.2h5.8L27.2,37.8z M38.5,32.2H11.9v-0.8c1.3-0.7,2.2-2,2.6-3.4h26.1v2.1
		C40.6,31.3,39.7,32.2,38.5,32.2z"/>
	<rect x="36.4" y="29.4" class="st35" width="1.4" height="1.4"/>
	<path class="st35" d="M26.6,9.8h-1.4c-0.4,0-0.7-0.3-0.7-0.7h-1.4c0,1.2,0.9,2.1,2.1,2.1v0.7h1.4v-0.7c1.2,0,2.1-0.9,2.1-2.1
		S27.8,7,26.6,7h-1.4c-0.4,0-0.7-0.3-0.7-0.7c0-0.4,0.3-0.7,0.7-0.7h1.4c0.4,0,0.7,0.3,0.7,0.7h1.4c0-1.2-0.9-2.1-2.1-2.1V3.5h-1.4
		v0.7c-1.2,0-2.1,0.9-2.1,2.1s0.9,2.1,2.1,2.1h1.4c0.4,0,0.7,0.3,0.7,0.7C27.3,9.5,27,9.8,26.6,9.8z"/>
	<rect x="30.1" y="7" class="st35" width="1.4" height="1.4"/>
	<rect x="20.3" y="7" class="st35" width="1.4" height="1.4"/>
</g>
</svg>
