<?xml version="1.0" encoding="utf-8"?>
<!-- Generator: Adobe Illustrator 24.0.2, SVG Export Plug-In . SVG Version: 6.00 Build 0)  -->
<svg version="1.1" id="Layer_1" xmlns="http://www.w3.org/2000/svg" xmlns:xlink="http://www.w3.org/1999/xlink" x="0px" y="0px"
	 viewBox="0 0 42 42" style="enable-background:new 0 0 42 42;" xml:space="preserve">
<style type="text/css">
	.st0{fill:#FC6A55;}
	.st1{stroke:#FFFFFF;stroke-width:0.25;stroke-miterlimit:10;}
	.st2{fill:#656D7A;}
	.st3{fill:#FFFFFF;}
	.st4{filter:url(#Adobe_OpacityMaskFilter);}
	.st5{fill-rule:evenodd;clip-rule:evenodd;fill:#FFFFFF;}
	.st6{mask:url(#mask-2_8_);fill-rule:evenodd;clip-rule:evenodd;}
	.st7{filter:url(#Adobe_OpacityMaskFilter_1_);}
	.st8{mask:url(#mask-2_7_);fill-rule:evenodd;clip-rule:evenodd;}
	.st9{filter:url(#Adobe_OpacityMaskFilter_2_);}
	.st10{mask:url(#mask-2_6_);fill-rule:evenodd;clip-rule:evenodd;}
	.st11{filter:url(#Adobe_OpacityMaskFilter_3_);}
	.st12{mask:url(#mask-2_5_);fill-rule:evenodd;clip-rule:evenodd;}
	.st13{filter:url(#Adobe_OpacityMaskFilter_4_);}
	.st14{mask:url(#mask-2_2_);fill:none;stroke:#000000;stroke-width:2;}
	.st15{fill:#434343;}
	.st16{fill:#434343;stroke:#F9F9F9;stroke-width:0.25;stroke-miterlimit:10;}
	.st17{fill:none;stroke:#FC6A55;stroke-width:0.5;stroke-miterlimit:10;}
	.st18{fill:none;stroke:#FC6A55;stroke-width:0.75;stroke-miterlimit:10;}
	.st19{fill:#FC6A55;stroke:#FC6A55;stroke-width:0.5;stroke-miterlimit:10;}
	.st20{opacity:0.153;fill:url(#Path_146_);enable-background:new    ;}
	.st21{opacity:0.1;fill:#590BB2;enable-background:new    ;}
	.st22{fill:#8E8CA8;}
	.st23{fill:#F5F4F9;}
	.st24{fill:#FFD5B8;}
	.st25{fill:#FC8473;}
	.st26{fill:#1C3475;}
	.st27{fill:#DDD9E4;}
	.st28{fill:#828FB3;}
	.st29{opacity:7.584635e-02;fill:url(#Path_147_);enable-background:new    ;}
	.st30{fill:#FFBE92;}
	.st31{fill:#FB8E7F;}
	.st32{fill:#FDB1A6;}
	.st33{fill:#FC806F;}
	.st34{fill:#FFE783;}
	.st35{fill:#104478;}
	.st36{fill:none;stroke:#FFFFFF;stroke-miterlimit:10;}
	.st37{fill:none;stroke:#FC6A55;stroke-miterlimit:10;}
	.st38{fill:none;stroke:#000000;stroke-width:0.15;stroke-miterlimit:10;}
	.st39{opacity:0.1;fill:url(#Path_148_);enable-background:new    ;}
	.st40{opacity:0.1;fill:url(#Path_149_);enable-background:new    ;}
</style>
<g>
	<path class="st35" d="M37.6,9c0-0.3-0.3-0.6-0.6-0.6H5.1C4.8,8.4,4.5,8.7,4.5,9v20.3c0,0.3,0.3,0.6,0.6,0.6H37
		c0.3,0,0.6-0.3,0.6-0.6V9z M36.3,28.8H5.7V9.6h30.6V28.8z"/>
	<path class="st35" d="M41.4,31.1h-1.3V9.6c0-1.1-0.4-2.1-1.2-2.9c-0.8-0.8-1.8-1.2-2.9-1.2H5.9C4.9,5.5,3.8,6,3.1,6.7
		C2.3,7.5,1.9,8.5,1.9,9.6v21.5H0.6c-0.3,0-0.6,0.3-0.6,0.6v2.7c0,2.3,1.8,4.1,4.1,4.1h33.8c2.3,0,4.1-1.8,4.1-4.1v-2.7
		C42,31.4,41.7,31.1,41.4,31.1z M3,9.6c0-0.8,0.3-1.5,0.8-2.1C4.4,7,5.2,6.7,5.9,6.7h30.1c0.8,0,1.5,0.3,2.1,0.9
		C38.7,8.1,39,8.8,39,9.6v21.5H26.1c-0.2,0-0.3,0.1-0.4,0.2L25,32.1c-0.6,0.6-1.3,0.9-2.2,0.9h-3.7c-0.8,0-1.6-0.3-2.2-0.9l-0.7-0.8
		c-0.1-0.1-0.3-0.2-0.4-0.2H3V9.6z M40.8,34.4c0,1.6-1.3,2.9-2.9,2.9H4.1c-1.6,0-2.9-1.3-2.9-2.9v-2.1h14.5l0.5,0.6
		c0.8,0.8,1.9,1.3,3,1.3h3.7c1.1,0,2.2-0.5,3-1.3l0.5-0.6h14.5V34.4z"/>
	<path class="st35" d="M13.9,23.8h3c0.3,0,0.6-0.3,0.6-0.6v-5c0-0.3-0.3-0.6-0.6-0.6h-1v-0.9c0-2.7,2.3-4.9,5.1-4.9
		c2.8,0,5.1,2.2,5.1,4.9v0.9h-0.9c-0.2,0-0.3,0.1-0.4,0.2c-0.1,0.1-0.2,0.2-0.2,0.4v5c0,0.3,0.3,0.6,0.6,0.6h0.7v1
		c0,0.2-0.1,0.3-0.2,0.5c-0.1,0.1-0.3,0.2-0.5,0.2h-1.6c-0.2-0.7-0.9-1.2-1.6-1.2c-0.9,0-1.7,0.8-1.7,1.7s0.8,1.7,1.7,1.7
		c0.7,0,1.3-0.4,1.6-1.1h1.6c0.5,0,0.9-0.2,1.3-0.5c0.3-0.3,0.5-0.8,0.5-1.3v-1h1c0.3,0,0.6-0.3,0.6-0.6v-5c0-0.1-0.1-0.3-0.2-0.4
		c-0.1-0.1-0.3-0.2-0.4-0.2h-0.8v-0.9c0-3.3-2.8-6-6.3-6c-3.5,0-6.3,2.7-6.3,6v0.9h-0.9c-0.1,0-0.3,0.1-0.4,0.2
		c-0.1,0.1-0.2,0.2-0.2,0.4v5C13.3,23.5,13.6,23.8,13.9,23.8z M22.1,26.5c-0.3,0-0.6-0.2-0.6-0.6c0-0.3,0.2-0.6,0.6-0.6
		s0.6,0.2,0.6,0.6C22.7,26.3,22.4,26.5,22.1,26.5z M27.5,22.7h-1.6v-3.9h1.6V22.7z M14.5,18.8h1.9v3.9h-1.9V18.8z"/>
	<g>
		<g>
			<path class="st35" d="M24.4,15.6l-0.5,0c-0.1-0.2-0.1-0.4-0.2-0.6l0.3-0.4c0.1-0.1,0.1-0.3,0-0.4l-0.7-0.7
				c-0.1-0.1-0.3-0.1-0.4,0l-0.4,0.3c-0.2-0.1-0.4-0.2-0.6-0.2l0-0.5c0-0.2-0.2-0.3-0.3-0.3h-1c-0.2,0-0.3,0.1-0.3,0.3l0,0.5
				c-0.2,0.1-0.4,0.1-0.6,0.2l-0.4-0.3c-0.1-0.1-0.3-0.1-0.4,0l-0.7,0.7c-0.1,0.1-0.1,0.3,0,0.4l0.3,0.4c-0.1,0.2-0.2,0.4-0.2,0.6
				l-0.5,0c-0.2,0-0.3,0.1-0.3,0.3v1c0,0.2,0.1,0.3,0.3,0.3l0.5,0c0.1,0.2,0.1,0.4,0.2,0.6l-0.3,0.4c-0.1,0.1-0.1,0.3,0,0.4l0.7,0.7
				c0.1,0.1,0.3,0.1,0.4,0l0.4-0.3c0.2,0.1,0.4,0.2,0.6,0.2l0,0.5c0,0.2,0.1,0.3,0.3,0.3h1c0.2,0,0.3-0.1,0.3-0.3l0-0.5
				c0.2-0.1,0.4-0.1,0.6-0.2l0.4,0.3c0.1,0.1,0.3,0.1,0.4,0l0.7-0.7c0.1-0.1,0.1-0.3,0-0.4l-0.3-0.4c0.1-0.2,0.2-0.4,0.2-0.6l0.5,0
				c0.2,0,0.3-0.2,0.3-0.3v-1C24.7,15.8,24.5,15.6,24.4,15.6z M24,16.6l-0.4,0c-0.1,0-0.2,0.1-0.3,0.2c-0.1,0.3-0.2,0.5-0.3,0.8
				c-0.1,0.1-0.1,0.3,0,0.4l0.3,0.3L23,18.7l-0.3-0.3c-0.1-0.1-0.3-0.1-0.4,0c-0.2,0.2-0.5,0.3-0.8,0.3c-0.1,0-0.2,0.1-0.2,0.3
				l0,0.5h-0.4l0-0.5c0-0.1-0.1-0.2-0.2-0.3c-0.3-0.1-0.5-0.2-0.8-0.3c-0.1-0.1-0.3-0.1-0.4,0L19,18.7l-0.3-0.3l0.3-0.3
				c0.1-0.1,0.1-0.3,0-0.4c-0.2-0.2-0.3-0.5-0.3-0.8c0-0.1-0.1-0.2-0.3-0.2l-0.4,0v-0.4l0.4,0c0.1,0,0.2-0.1,0.3-0.2
				c0.1-0.3,0.2-0.5,0.3-0.8c0.1-0.1,0.1-0.3,0-0.4l-0.3-0.3l0.3-0.3l0.3,0.3c0.1,0.1,0.3,0.1,0.4,0c0.2-0.2,0.5-0.3,0.8-0.3
				c0.1,0,0.2-0.1,0.2-0.3l0-0.4h0.4l0,0.4c0,0.1,0.1,0.2,0.2,0.3c0.3,0.1,0.5,0.2,0.8,0.3c0.1,0.1,0.3,0.1,0.4,0l0.3-0.3l0.3,0.3
				L23,14.8c-0.1,0.1-0.1,0.3,0,0.4c0.2,0.2,0.3,0.5,0.3,0.8c0,0.1,0.1,0.2,0.3,0.2l0.4,0L24,16.6z"/>
		</g>
		<path class="st35" d="M21,14.6c-1,0-1.8,0.8-1.8,1.8c0,1,0.8,1.8,1.8,1.8c1,0,1.8-0.8,1.8-1.8C22.8,15.4,22,14.6,21,14.6z
			 M21,17.6c-0.6,0-1.2-0.5-1.2-1.2c0-0.6,0.5-1.2,1.2-1.2c0.6,0,1.2,0.5,1.2,1.2C22.2,17,21.6,17.6,21,17.6z"/>
	</g>
</g>
</svg>
