<?xml version="1.0" encoding="utf-8"?>
<!-- Generator: Adobe Illustrator 24.0.2, SVG Export Plug-In . SVG Version: 6.00 Build 0)  -->
<svg version="1.1" id="Layer_1" xmlns="http://www.w3.org/2000/svg" xmlns:xlink="http://www.w3.org/1999/xlink" x="0px" y="0px"
	 viewBox="0 0 42 42" style="enable-background:new 0 0 42 42;" xml:space="preserve">
<style type="text/css">
	.st0{fill:#FC6A55;}
	.st1{stroke:#FFFFFF;stroke-width:0.25;stroke-miterlimit:10;}
	.st2{fill:#656D7A;}
	.st3{fill:#FFFFFF;}
	.st4{filter:url(#Adobe_OpacityMaskFilter);}
	.st5{fill-rule:evenodd;clip-rule:evenodd;fill:#FFFFFF;}
	.st6{mask:url(#mask-2_8_);fill-rule:evenodd;clip-rule:evenodd;}
	.st7{filter:url(#Adobe_OpacityMaskFilter_1_);}
	.st8{mask:url(#mask-2_7_);fill-rule:evenodd;clip-rule:evenodd;}
	.st9{filter:url(#Adobe_OpacityMaskFilter_2_);}
	.st10{mask:url(#mask-2_6_);fill-rule:evenodd;clip-rule:evenodd;}
	.st11{filter:url(#Adobe_OpacityMaskFilter_3_);}
	.st12{mask:url(#mask-2_5_);fill-rule:evenodd;clip-rule:evenodd;}
	.st13{filter:url(#Adobe_OpacityMaskFilter_4_);}
	.st14{mask:url(#mask-2_2_);fill:none;stroke:#000000;stroke-width:2;}
	.st15{fill:#434343;}
	.st16{fill:#434343;stroke:#F9F9F9;stroke-width:0.25;stroke-miterlimit:10;}
	.st17{fill:none;stroke:#FC6A55;stroke-width:0.5;stroke-miterlimit:10;}
	.st18{fill:none;stroke:#FC6A55;stroke-width:0.75;stroke-miterlimit:10;}
	.st19{fill:#FC6A55;stroke:#FC6A55;stroke-width:0.5;stroke-miterlimit:10;}
	.st20{opacity:0.153;fill:url(#Path_146_);enable-background:new    ;}
	.st21{opacity:0.1;fill:#590BB2;enable-background:new    ;}
	.st22{fill:#8E8CA8;}
	.st23{fill:#F5F4F9;}
	.st24{fill:#FFD5B8;}
	.st25{fill:#FC8473;}
	.st26{fill:#1C3475;}
	.st27{fill:#DDD9E4;}
	.st28{fill:#828FB3;}
	.st29{opacity:7.584635e-02;fill:url(#Path_147_);enable-background:new    ;}
	.st30{fill:#FFBE92;}
	.st31{fill:#FB8E7F;}
	.st32{fill:#FDB1A6;}
	.st33{fill:#FC806F;}
	.st34{fill:#FFE783;}
	.st35{fill:#104478;}
	.st36{fill:none;stroke:#FFFFFF;stroke-miterlimit:10;}
	.st37{fill:none;stroke:#FC6A55;stroke-miterlimit:10;}
	.st38{fill:none;stroke:#000000;stroke-width:0.15;stroke-miterlimit:10;}
	.st39{opacity:0.1;fill:url(#Path_148_);enable-background:new    ;}
	.st40{opacity:0.1;fill:url(#Path_149_);enable-background:new    ;}
</style>
<g>
	<g>
		<path class="st0" d="M39.1,25.5c-0.6-0.4-1.3-0.7-2.1-0.7c-0.9,0-1.7,0.2-2.3,0.7l-4.2,3.4c-0.1-0.1-0.2-0.2-0.3-0.3
			c-0.5-0.5-1.3-0.8-2.1-0.8h-5.9c-1.1,0-2.2-0.1-3.2-0.3c-2.7-0.6-5.3-0.2-7.4,1.3c-0.9,0.6-1.5,1.2-1.9,1.7l-1.1-0.8
			c-0.1-0.1-0.3-0.2-0.5-0.2c0,0,0,0,0,0c-0.2,0-0.4,0.1-0.5,0.2L2.2,34C2,34.1,2,34.2,2,34.4c0,0.2,0.1,0.3,0.2,0.4l8.7,6.8
			c0.1,0.1,0.3,0.2,0.5,0.2c0.2,0,0.4-0.1,0.5-0.2l5.1-4.3c0.1-0.1,0.2-0.3,0.2-0.4c0-0.2-0.1-0.3-0.2-0.4l-0.4-0.4l1-0.1
			c0.6-0.1,1.2-0.1,1.9-0.1h9c1.5,0,2.7-0.3,3.7-0.8c0,0,0,0,0,0c0.4-0.2,0.7-0.4,1-0.7l6.1-5.8C40.3,27.6,40.3,26.4,39.1,25.5z
			 M11.4,40.3l-7.7-5.9l4.1-3.5l7.6,6L11.4,40.3z M38.1,27.8l-6.1,5.8c-0.2,0.2-0.4,0.3-0.7,0.5c-0.7,0.4-1.7,0.6-2.9,0.6h-9
			c-0.7,0-1.4,0-2,0.1L15.3,35l-4.7-3.7c0.3-0.4,0.9-1,1.8-1.6c1.8-1.2,3.9-1.6,6.1-1c1.2,0.3,2.4,0.4,3.6,0.4H28
			c1.1,0,1.3,0.7,1.3,1.2c0,0.3-0.1,0.6-0.4,0.8c-0.2,0.2-0.6,0.3-1,0.3h-5.2c-0.4,0-0.7,0.3-0.7,0.6c0,0.3,0.3,0.6,0.7,0.6H28
			c0.9,0,1.6-0.3,2.2-0.8c0.4-0.4,0.7-1,0.7-1.6l4.9-3.9c0.7-0.6,1.8-0.4,2.4,0C38.4,26.6,38.8,27.1,38.1,27.8z"/>
		<path class="st0" d="M20.5,31.9c-0.1-0.3-0.5-0.5-0.9-0.5c-0.4,0.1-0.7,0.4-0.6,0.7l0,0c0.1,0.3,0.4,0.5,0.7,0.5
			c0.1,0,0.1,0,0.2,0C20.3,32.5,20.6,32.2,20.5,31.9L20.5,31.9z"/>
	</g>
	<g>
		<path class="st0" d="M11.3,6.8L11.3,6.8c1.2,0,2.1-0.9,2.1-2V4.1c0-1.1-0.9-2-2.1-2h0c-1.1,0-2.1,0.9-2.1,2v0.7
			C9.2,5.9,10.1,6.8,11.3,6.8z M10.1,4.1c0-0.6,0.5-1.2,1.2-1.2h0c0.7,0,1.2,0.5,1.2,1.2v0.7c0,0.6-0.5,1.2-1.2,1.2h0
			c-0.7,0-1.2-0.5-1.2-1.2V4.1z"/>
		<path class="st0" d="M13.7,7.4h-0.9c-0.1,0-0.2,0-0.3,0.1l-1.2,1.1l-1.2-1.1C10.1,7.5,10,7.4,9.9,7.4H8.9c-0.6,0-1.2,0.3-1.6,0.7
			c-0.4,0.4-0.6,1-0.6,1.6v5c0,0.7,0.6,1.3,1.4,1.3h0c0.2,0,0.4,0,0.5-0.1l0.2,9c0,0.6,0.4,1,0.9,1.3c0.5,0.2,1.1,0.1,1.5-0.3
			c0.4,0.4,1,0.5,1.5,0.3c0.5-0.2,0.9-0.7,0.9-1.3l0.2-9c0.4,0.2,0.9,0.1,1.3-0.1c0.4-0.2,0.6-0.7,0.6-1.1v-5
			c0.1-0.6-0.1-1.2-0.6-1.6C14.9,7.7,14.3,7.4,13.7,7.4z M12.3,25.4c-0.3,0-0.5-0.2-0.5-0.5v-9h-0.9v9c0,0.3-0.2,0.5-0.5,0.5
			s-0.5-0.2-0.6-0.5L9.5,14.7h3.6l-0.3,10.2C12.9,25.2,12.6,25.4,12.3,25.4z M15,9.7C15,9.7,15,9.7,15,9.7l0,5
			c0,0.3-0.2,0.5-0.5,0.5c-0.3,0-0.5-0.2-0.5-0.5v-1.1l0-0.2h0v-2.1h-0.9v2.3l0,0.2H9.5l0-0.4h0v-2.1H8.6v3.3c0,0.3-0.2,0.5-0.5,0.5
			c-0.1,0-0.2,0-0.3-0.1c-0.1-0.1-0.1-0.2-0.1-0.3v-5c0,0,0,0,0,0c0-0.4,0.1-0.7,0.3-1c0.2-0.3,0.6-0.4,0.9-0.4h0.7L11,9.6
			c0,0,0,0,0,0c0,0,0,0,0,0c0,0,0,0,0,0c0,0,0,0,0.1,0c0,0,0,0,0,0c0,0,0,0,0,0c0,0,0,0,0,0c0,0,0,0,0.1,0c0,0,0,0,0,0
			c0,0,0,0,0.1,0c0,0,0,0,0,0c0,0,0,0,0.1,0c0,0,0,0,0,0c0,0,0,0,0.1,0l0,0c0,0,0,0,0.1,0c0,0,0,0,0,0c0,0,0,0,0,0
			c0,0,0.1,0,0.1-0.1c0,0,0,0,0,0c0,0,0,0,0,0L13,8.3h0.7c0.4,0,0.7,0.2,0.9,0.4C14.9,9,15,9.3,15,9.7z"/>
		<path class="st0" d="M30.8,6.8L30.8,6.8c1.2,0,2.1-0.9,2.1-2V4.1c0-1.1-0.9-2-2.1-2h0c-1.1,0-2.1,0.9-2.1,2v0.7
			C28.7,5.9,29.7,6.8,30.8,6.8z M29.6,4.1c0-0.6,0.5-1.2,1.2-1.2h0c0.7,0,1.2,0.5,1.2,1.2v0.7c0,0.6-0.5,1.2-1.2,1.2h0
			c-0.7,0-1.2-0.5-1.2-1.2V4.1z"/>
		<path class="st0" d="M33.3,7.4h-0.9c-0.1,0-0.2,0-0.3,0.1l-1.2,1.1l-1.2-1.1c-0.1-0.1-0.2-0.1-0.3-0.1h-0.9
			c-0.6,0-1.2,0.3-1.6,0.7c-0.4,0.4-0.6,1-0.6,1.6v5c0,0.7,0.6,1.3,1.4,1.3h0c0.2,0,0.4,0,0.5-0.1l0.2,9c0,0.6,0.4,1,0.9,1.3
			c0.5,0.2,1.1,0.1,1.5-0.3c0.4,0.4,1,0.5,1.5,0.3c0.5-0.2,0.9-0.7,0.9-1.3l0.2-9c0.4,0.2,0.9,0.1,1.3-0.1c0.4-0.2,0.6-0.7,0.6-1.1
			v-5c0.1-0.6-0.1-1.2-0.6-1.6C34.5,7.7,33.9,7.4,33.3,7.4z M31.9,25.4c-0.3,0-0.5-0.2-0.5-0.5v-9h-0.9v9c0,0.3-0.2,0.5-0.5,0.5
			c-0.3,0-0.5-0.2-0.6-0.5l-0.3-10.2h3.6l-0.3,10.2C32.4,25.2,32.2,25.4,31.9,25.4z M34.5,9.7C34.5,9.7,34.5,9.7,34.5,9.7l0,5
			c0,0.3-0.2,0.5-0.5,0.5s-0.5-0.2-0.5-0.5v-1.1l0-0.2h0v-2.1h-0.9v2.3l0,0.2h-3.6l0-0.4h0v-2.1h-0.9v3.3c0,0.3-0.2,0.5-0.5,0.5
			c-0.1,0-0.2,0-0.3-0.1c-0.1-0.1-0.1-0.2-0.1-0.3v-5c0,0,0,0,0,0c0-0.4,0.1-0.7,0.3-1c0.2-0.3,0.6-0.4,0.9-0.4h0.7l1.3,1.3
			c0,0,0,0,0,0c0,0,0,0,0,0c0,0,0,0,0,0c0,0,0,0,0.1,0c0,0,0,0,0,0c0,0,0,0,0,0l0,0c0,0,0,0,0.1,0c0,0,0,0,0,0c0,0,0,0,0.1,0
			c0,0,0,0,0,0c0,0,0,0,0.1,0c0,0,0,0,0,0c0,0,0,0,0.1,0c0,0,0,0,0,0c0,0,0,0,0.1,0c0,0,0,0,0,0c0,0,0,0,0,0c0,0,0.1,0,0.1-0.1
			c0,0,0,0,0,0c0,0,0,0,0,0l1.4-1.3h0.7c0.4,0,0.7,0.2,0.9,0.4C34.5,9,34.6,9.3,34.5,9.7L34.5,9.7z"/>
		<path class="st0" d="M21,6.8L21,6.8c1.2,0,2.1-0.9,2.1-2V4.1c0-1.1-0.9-2-2.1-2h0c-1.1,0-2.1,0.9-2.1,2v0.7
			C19,5.9,19.9,6.8,21,6.8z M19.8,4.1c0-0.6,0.5-1.2,1.2-1.2h0c0.7,0,1.2,0.5,1.2,1.2v0.7c0,0.6-0.5,1.2-1.2,1.2h0
			c-0.7,0-1.2-0.5-1.2-1.2V4.1L19.8,4.1z"/>
		<path class="st0" d="M23.5,7.4h-0.9c-0.1,0-0.2,0-0.3,0.1l-1.2,1.1L20,7.6c-0.1-0.1-0.2-0.1-0.3-0.1h-0.9c-0.6,0-1.2,0.3-1.6,0.7
			c-0.4,0.4-0.6,1-0.6,1.6v5c0,0.7,0.6,1.3,1.4,1.3h0c0.2,0,0.4,0,0.5-0.1l0.2,9c0,0.6,0.4,1,0.9,1.3c0.5,0.2,1.1,0.1,1.5-0.3
			c0.4,0.4,1,0.5,1.5,0.3c0.5-0.2,0.9-0.7,0.9-1.3l0.2-9c0.4,0.2,0.9,0.1,1.3-0.1s0.6-0.7,0.6-1.1v-5c0.1-0.6-0.1-1.2-0.6-1.6
			C24.7,7.7,24.1,7.4,23.5,7.4z M22.1,25.4c-0.3,0-0.5-0.2-0.5-0.5v-9h-0.9v9c0,0.3-0.2,0.5-0.5,0.5c-0.3,0-0.5-0.2-0.6-0.5
			l-0.3-10.2h3.6l-0.3,10.2C22.6,25.2,22.4,25.4,22.1,25.4z M24.8,9.7C24.8,9.7,24.8,9.7,24.8,9.7l0,5c0,0.3-0.2,0.5-0.5,0.5
			s-0.5-0.2-0.5-0.5v-1.1l0-0.2h0v-2.1h-0.9v2.3l0,0.2h-3.6l0-0.4h0v-2.1h-0.9v3.3c0,0.3-0.2,0.5-0.5,0.5c-0.1,0-0.2,0-0.3-0.1
			c-0.1-0.1-0.1-0.2-0.1-0.3v-5c0,0,0,0,0,0c0-0.4,0.1-0.7,0.3-1c0.2-0.3,0.6-0.4,0.9-0.4h0.7l1.3,1.3c0,0,0,0,0,0c0,0,0,0,0,0
			c0,0,0,0,0,0c0,0,0,0,0.1,0c0,0,0,0,0,0c0,0,0,0,0,0c0,0,0,0,0,0c0,0,0,0,0.1,0c0,0,0,0,0,0c0,0,0,0,0.1,0c0,0,0,0,0,0
			c0,0,0,0,0.1,0c0,0,0,0,0,0c0,0,0,0,0.1,0l0,0c0,0,0,0,0.1,0c0,0,0,0,0,0c0,0,0,0,0,0c0,0,0.1,0,0.1-0.1c0,0,0,0,0,0c0,0,0,0,0,0
			l1.4-1.3h0.7c0.4,0,0.7,0.2,0.9,0.4C24.7,9,24.8,9.3,24.8,9.7z"/>
		<path class="st0" d="M18.3,3V2.3c0-1.1-0.9-2-2.1-2h0c-1.1,0-2.1,0.9-2.1,2V3c0,1.1,0.9,2,2.1,2h0C17.4,5,18.3,4.1,18.3,3z
			 M17.4,3c0,0.6-0.5,1.2-1.2,1.2h0C15.5,4.1,15,3.6,15,3V2.3c0-0.6,0.5-1.2,1.2-1.2h0c0.7,0,1.2,0.5,1.2,1.2V3z"/>
		<path class="st0" d="M28.1,3V2.3c0-1.1-0.9-2-2.1-2h0c-1.1,0-2.1,0.9-2.1,2V3c0,1.1,0.9,2,2.1,2h0C27.2,5,28.1,4.1,28.1,3z
			 M27.2,3c0,0.6-0.5,1.2-1.2,1.2h0c-0.7,0-1.2-0.5-1.2-1.2V2.3c0-0.6,0.5-1.2,1.2-1.2h0c0.7,0,1.2,0.5,1.2,1.2V3z"/>
	</g>
</g>
</svg>
