<svg id="Layer_1" data-name="Layer 1" xmlns="http://www.w3.org/2000/svg" viewBox="0 0 91.66 50"><defs><style>.cls-1{fill:#010101;}</style></defs><title>Australian G</title><rect class="cls-1" x="0.12" y="39.46" width="91.32" height="0.64"/><polygon class="cls-1" points="45.76 8.97 45.65 8.96 45.7 9.06 45.62 9.15 45.72 9.17 45.72 9.29 45.82 9.21 45.92 9.29 45.92 9.17 46.02 9.15 45.94 9.06 45.99 8.96 45.89 8.97 45.82 8.85 45.76 8.97"/><polygon class="cls-1" points="45.28 9.63 45.17 9.61 45.22 9.71 45.14 9.79 45.24 9.82 45.24 9.94 45.34 9.87 45.44 9.94 45.44 9.82 45.54 9.79 45.46 9.71 45.51 9.61 45.4 9.62 45.34 9.5 45.28 9.63"/><polygon class="cls-1" points="46.09 9.54 45.99 9.53 46.04 9.63 45.96 9.71 46.06 9.73 46.06 9.86 46.16 9.78 46.26 9.86 46.26 9.73 46.36 9.71 46.28 9.63 46.33 9.53 46.22 9.54 46.16 9.42 46.09 9.54"/><polygon class="cls-1" points="46.18 10.16 46.11 10.15 46.15 10.21 46.1 10.26 46.16 10.27 46.16 10.35 46.21 10.29 46.26 10.35 46.26 10.27 46.33 10.26 46.28 10.21 46.31 10.15 46.25 10.16 46.21 10.1 46.18 10.16"/><polygon class="cls-1" points="45.4 10.9 45.4 10.69 45.22 10.65 45.36 10.5 45.27 10.33 45.45 10.35 45.57 10.15 45.67 10.35 45.86 10.33 45.77 10.5 45.91 10.65 45.73 10.69 45.73 10.9 45.57 10.77 45.4 10.9"/><polygon class="cls-1" points="45.79 0 46.17 0.99 47.15 0.69 46.65 1.63 47.49 2.25 46.48 2.42 46.54 3.5 45.79 2.78 45.03 3.5 45.09 2.42 44.08 2.25 44.91 1.63 44.42 0.69 45.4 0.99 45.79 0"/><path class="cls-1" d="M10.24,34.14l-.81-2-.84,2Zm.14.31H8.45L8.23,35a1.16,1.16,0,0,0-.12.45.37.37,0,0,0,.19.35,1.27,1.27,0,0,0,.53.11v.16H7v-.16a.77.77,0,0,0,.48-.26A3.18,3.18,0,0,0,8,34.8l2-4.55H10l2,4.68a2.73,2.73,0,0,0,.46.84.73.73,0,0,0,.39.15v.16H10.17v-.16h.11a.69.69,0,0,0,.44-.1.2.2,0,0,0,.09-.19.39.39,0,0,0,0-.15,1.52,1.52,0,0,0-.12-.32Z"/><path class="cls-1" d="M16.15,32.14v3.08a1.11,1.11,0,0,0,.08.56c.05.08.15.12.32.14v.16H15v-.53a1.84,1.84,0,0,1-.54.49,1.19,1.19,0,0,1-.6.15.86.86,0,0,1-.57-.2,1.1,1.1,0,0,1-.33-.48,4,4,0,0,1-.08-.95V33a1.06,1.06,0,0,0-.08-.55.46.46,0,0,0-.33-.14v-.16H14v2.69a2.21,2.21,0,0,0,0,.54.52.52,0,0,0,.12.19.31.31,0,0,0,.19.06.47.47,0,0,0,.26-.08A1.62,1.62,0,0,0,15,35.1V33a1.18,1.18,0,0,0-.08-.55.48.48,0,0,0-.33-.14v-.16Z"/><path class="cls-1" d="M19.19,32l0,1.34h-.13a2.17,2.17,0,0,0-.51-.81.81.81,0,0,0-.52-.22.42.42,0,0,0-.29.11.38.38,0,0,0,0,.49,4.05,4.05,0,0,0,.72.59,2.79,2.79,0,0,1,.78.72,1.17,1.17,0,0,1,.19.64,1.52,1.52,0,0,1-.16.65,1.08,1.08,0,0,1-.44.48,1.24,1.24,0,0,1-.63.17,2.26,2.26,0,0,1-.72-.17L17.33,36c-.09,0-.17.07-.22.21H17l-.06-1.41h.14a1.72,1.72,0,0,0,.49.83,1,1,0,0,0,.6.27.39.39,0,0,0,.31-.11.42.42,0,0,0,.13-.31.5.5,0,0,0-.12-.34,3.05,3.05,0,0,0-.54-.45,4.19,4.19,0,0,1-.79-.68,1.2,1.2,0,0,1-.28-.77,1.21,1.21,0,0,1,.3-.81A1.07,1.07,0,0,1,18,32a1.23,1.23,0,0,1,.6.16.3.3,0,0,0,.17,0,.22.22,0,0,0,.12,0,.91.91,0,0,0,.14-.18Z"/><path class="cls-1" d="M21.17,30.7v1.44h.89v.42h-.89V35a2,2,0,0,0,0,.45.36.36,0,0,0,.11.16.33.33,0,0,0,.14.06c.17,0,.34-.15.49-.42l.12.09a1.1,1.1,0,0,1-1.06.81.91.91,0,0,1-.6-.21.83.83,0,0,1-.31-.47,3.72,3.72,0,0,1,0-.77V32.56h-.49v-.15a5.43,5.43,0,0,0,.85-.79A5,5,0,0,0,21,30.7Z"/><path class="cls-1" d="M23.9,32.14V33a2.82,2.82,0,0,1,.65-.8A.93.93,0,0,1,25.1,32a.43.43,0,0,1,.35.15.58.58,0,0,1,.14.41.61.61,0,0,1-.14.44.37.37,0,0,1-.3.15.49.49,0,0,1-.37-.14l-.19-.16-.09,0a.33.33,0,0,0-.22.09.84.84,0,0,0-.25.41,2.9,2.9,0,0,0-.13.91v1.13a1.59,1.59,0,0,0,0,.31.34.34,0,0,0,.14.17.84.84,0,0,0,.33.06v.16h-2v-.16a.4.4,0,0,0,.33-.14,1.3,1.3,0,0,0,.09-.63V33a1.91,1.91,0,0,0,0-.43.35.35,0,0,0-.12-.17.64.64,0,0,0-.27-.07v-.16Z"/><path class="cls-1" d="M27.64,35.19V33.87a2.34,2.34,0,0,0-.73.64.74.74,0,0,0-.15.45.49.49,0,0,0,.13.35.36.36,0,0,0,.28.11.81.81,0,0,0,.47-.23m0,.3a1.93,1.93,0,0,1-1.23.64.76.76,0,0,1-.54-.22.77.77,0,0,1-.21-.55,1.06,1.06,0,0,1,.37-.81,6.63,6.63,0,0,1,1.61-1v-.4a1.64,1.64,0,0,0,0-.56.39.39,0,0,0-.17-.2.48.48,0,0,0-.29-.09.73.73,0,0,0-.43.12.21.21,0,0,0-.1.18.38.38,0,0,0,.11.22.56.56,0,0,1,.15.35.47.47,0,0,1-.15.35.48.48,0,0,1-.37.15.58.58,0,0,1-.43-.17.48.48,0,0,1-.17-.37A.87.87,0,0,1,26,32.6a1.54,1.54,0,0,1,.64-.43,2.51,2.51,0,0,1,.86-.15,1.38,1.38,0,0,1,.84.24,1.09,1.09,0,0,1,.41.52,3.38,3.38,0,0,1,.05.81v1.52a1.1,1.1,0,0,0,0,.34.24.24,0,0,0,.06.11.12.12,0,0,0,.09,0c.07,0,.14-.06.21-.15l.12.09a1.45,1.45,0,0,1-.41.46.93.93,0,0,1-.49.14.68.68,0,0,1-.5-.16.75.75,0,0,1-.23-.48"/><path class="cls-1" d="M30.92,30.37v4.89a1,1,0,0,0,.09.53.51.51,0,0,0,.37.13v.16h-2v-.16a.47.47,0,0,0,.37-.15,1,1,0,0,0,.09-.51V31.19a1.1,1.1,0,0,0-.09-.53.55.55,0,0,0-.37-.14v-.15Z"/><path class="cls-1" d="M33.2,32.14v3.12a1,1,0,0,0,.09.53.48.48,0,0,0,.36.13v.16h-2v-.16a.47.47,0,0,0,.37-.15,1,1,0,0,0,.08-.51V33a1,1,0,0,0-.09-.53.47.47,0,0,0-.36-.13v-.16Zm-.56-1.9a.6.6,0,0,1,.44.18.69.69,0,0,1,.18.46.63.63,0,0,1-.18.46.59.59,0,0,1-.44.19.58.58,0,0,1-.44-.19.63.63,0,0,1-.18-.46.69.69,0,0,1,.18-.46.6.6,0,0,1,.44-.18"/><path class="cls-1" d="M35.83,35.19V33.87a2.19,2.19,0,0,0-.72.64A.75.75,0,0,0,35,35a.46.46,0,0,0,.14.35.34.34,0,0,0,.27.11.79.79,0,0,0,.47-.23m0,.3a1.93,1.93,0,0,1-1.24.64.73.73,0,0,1-.53-.22.78.78,0,0,1-.22-.55,1.07,1.07,0,0,1,.38-.81,6.43,6.43,0,0,1,1.61-1v-.4a2,2,0,0,0-.05-.56.48.48,0,0,0-.18-.2.45.45,0,0,0-.28-.09.73.73,0,0,0-.43.12.22.22,0,0,0-.11.18.38.38,0,0,0,.11.22.53.53,0,0,1,.16.35.47.47,0,0,1-.15.35.5.5,0,0,1-.38.15.61.61,0,0,1-.43-.17.48.48,0,0,1-.17-.37.88.88,0,0,1,.23-.57,1.42,1.42,0,0,1,.64-.43,2.51,2.51,0,0,1,.86-.15,1.42,1.42,0,0,1,.84.24,1.16,1.16,0,0,1,.41.52,4.05,4.05,0,0,1,0,.81v1.52a1.93,1.93,0,0,0,0,.34l.06.11.09,0c.08,0,.15-.06.22-.15l.12.09a1.6,1.6,0,0,1-.42.46.88.88,0,0,1-.49.14.72.72,0,0,1-.5-.16.75.75,0,0,1-.22-.48"/><path class="cls-1" d="M39.1,32.14v.51a1.89,1.89,0,0,1,.55-.47,1,1,0,0,1,.57-.16.9.9,0,0,1,.61.21,1,1,0,0,1,.32.54,4.5,4.5,0,0,1,.06.92v1.53a1.24,1.24,0,0,0,.08.56.44.44,0,0,0,.33.14v.16h-1.9v-.16a.39.39,0,0,0,.3-.18,1.33,1.33,0,0,0,.07-.52V33.46a3.15,3.15,0,0,0,0-.6.34.34,0,0,0-.12-.2.31.31,0,0,0-.2-.07c-.22,0-.44.18-.63.52v2.11a1.35,1.35,0,0,0,.07.56.45.45,0,0,0,.3.14v.16h-1.9v-.16a.47.47,0,0,0,.33-.16,1.12,1.12,0,0,0,.07-.54V33a1.18,1.18,0,0,0-.08-.55.46.46,0,0,0-.32-.14v-.16Z"/><path class="cls-1" d="M49,30.24v2h-.15a2.67,2.67,0,0,0-.8-1.26,1.92,1.92,0,0,0-1.18-.42,1.43,1.43,0,0,0-1,.36,1.94,1.94,0,0,0-.58,1,5.31,5.31,0,0,0-.17,1.32,5.13,5.13,0,0,0,.19,1.44,1.56,1.56,0,0,0,.6.91,1.67,1.67,0,0,0,1,.29,1.9,1.9,0,0,0,.4,0,1.69,1.69,0,0,0,.42-.13V34.53a1.26,1.26,0,0,0,0-.43.43.43,0,0,0-.19-.19.67.67,0,0,0-.33-.07H47v-.16h2.65v.16a1.14,1.14,0,0,0-.42.08.37.37,0,0,0-.18.22,1.06,1.06,0,0,0,0,.39v1.18a4.25,4.25,0,0,1-1.09.37,5,5,0,0,1-1.17.13A3.4,3.4,0,0,1,45.47,36a3.44,3.44,0,0,1-.91-.58A3.14,3.14,0,0,1,44,34.6a3.05,3.05,0,0,1-.27-1.3,3,3,0,0,1,.85-2.17,2.92,2.92,0,0,1,2.18-.89,4.14,4.14,0,0,1,.74.07,4,4,0,0,1,.56.19,2.75,2.75,0,0,0,.47.15.32.32,0,0,0,.22-.08.83.83,0,0,0,.17-.33Z"/><path class="cls-1" d="M51.64,32.32a.46.46,0,0,0-.35.17,1.12,1.12,0,0,0-.19.64,11.54,11.54,0,0,0-.05,1.32,5.53,5.53,0,0,0,.06.84.85.85,0,0,0,.19.46.44.44,0,0,0,.33.15.46.46,0,0,0,.29-.1.75.75,0,0,0,.22-.4,10.76,10.76,0,0,0,.08-1.62,4.14,4.14,0,0,0-.08-1,.73.73,0,0,0-.22-.39.43.43,0,0,0-.28-.09m0-.3a1.67,1.67,0,0,1,.91.27,1.61,1.61,0,0,1,.64.76,2.45,2.45,0,0,1,.22,1.06,2.28,2.28,0,0,1-.41,1.4,1.54,1.54,0,0,1-1.35.68,1.52,1.52,0,0,1-1.31-.62,2.57,2.57,0,0,1,0-2.92A1.51,1.51,0,0,1,51.63,32"/><path class="cls-1" d="M55.17,36.19l-1.26-3a3.32,3.32,0,0,0-.36-.71.47.47,0,0,0-.28-.14v-.16h2v.16a.37.37,0,0,0-.26.07.3.3,0,0,0-.09.21,1.85,1.85,0,0,0,.18.59l.62,1.48.48-1.28a2.3,2.3,0,0,0,.22-.77.26.26,0,0,0-.09-.21A.44.44,0,0,0,56,32.3v-.16h1.22v.16a.46.46,0,0,0-.29.13,2.52,2.52,0,0,0-.34.67l-1.25,3.09Z"/><path class="cls-1" d="M59.21,33.69a3.9,3.9,0,0,0-.07-.93.82.82,0,0,0-.22-.39.32.32,0,0,0-.23-.07.4.4,0,0,0-.34.21,2,2,0,0,0-.24,1v.15Zm1,.28H58.14a2,2,0,0,0,.39,1.23.82.82,0,0,0,.67.35.84.84,0,0,0,.44-.13,1.71,1.71,0,0,0,.42-.52l.14.1a2.32,2.32,0,0,1-.68.92,1.39,1.39,0,0,1-.85.27,1.41,1.41,0,0,1-1.27-.67,2.45,2.45,0,0,1-.35-1.34,2.33,2.33,0,0,1,.51-1.58,1.61,1.61,0,0,1,1.2-.58,1.28,1.28,0,0,1,1,.49A2.31,2.31,0,0,1,60.2,34"/><path class="cls-1" d="M62,32.14V33a2.66,2.66,0,0,1,.65-.8.93.93,0,0,1,.55-.21.46.46,0,0,1,.36.15.58.58,0,0,1,.13.41.66.66,0,0,1-.13.44.41.41,0,0,1-.32.15.48.48,0,0,1-.36-.14l-.19-.16-.09,0a.31.31,0,0,0-.22.09.83.83,0,0,0-.25.42,2.84,2.84,0,0,0-.13.9v1.13a1.59,1.59,0,0,0,0,.31.4.4,0,0,0,.14.17.78.78,0,0,0,.32.06v.16h-2v-.16a.39.39,0,0,0,.32-.14,1.26,1.26,0,0,0,.1-.63V33a1.73,1.73,0,0,0,0-.43.34.34,0,0,0-.11-.17.69.69,0,0,0-.27-.07v-.16Z"/><path class="cls-1" d="M65.45,32.14v.51a1.89,1.89,0,0,1,.55-.47,1,1,0,0,1,.57-.16.9.9,0,0,1,.61.21,1.1,1.1,0,0,1,.32.54,4.5,4.5,0,0,1,.06.92v1.53a1.24,1.24,0,0,0,.08.56.44.44,0,0,0,.33.14v.16h-1.9v-.16a.41.41,0,0,0,.31-.18,1.39,1.39,0,0,0,.06-.52V33.46a2.46,2.46,0,0,0,0-.6.34.34,0,0,0-.12-.2.29.29,0,0,0-.2-.07c-.22,0-.44.18-.63.52v2.11a1.35,1.35,0,0,0,.07.56.42.42,0,0,0,.29.14v.16h-1.9v-.16a.48.48,0,0,0,.34-.16,1.27,1.27,0,0,0,.07-.54V33a1.18,1.18,0,0,0-.08-.55.46.46,0,0,0-.33-.14v-.16Z"/><path class="cls-1" d="M69.8,32.14v.52a2.23,2.23,0,0,1,.57-.5A1.38,1.38,0,0,1,71,32a1,1,0,0,1,.61.18,1.16,1.16,0,0,1,.37.54,2.5,2.5,0,0,1,.62-.55,1.37,1.37,0,0,1,.62-.17.91.91,0,0,1,.94.67,3.32,3.32,0,0,1,.09.92v1.61a1.24,1.24,0,0,0,.08.56.46.46,0,0,0,.32.14v.16H72.66v-.16a.43.43,0,0,0,.34-.18,1.12,1.12,0,0,0,.08-.52V33.53a3.8,3.8,0,0,0,0-.67.44.44,0,0,0-.14-.22.32.32,0,0,0-.19-.07.56.56,0,0,0-.35.14,1.38,1.38,0,0,0-.36.39v2.12a1.21,1.21,0,0,0,.07.53.4.4,0,0,0,.35.17v.16h-2v-.16a.37.37,0,0,0,.25-.08.36.36,0,0,0,.12-.18,1.9,1.9,0,0,0,0-.44V33.53a3.71,3.71,0,0,0,0-.67.42.42,0,0,0-.14-.22.35.35,0,0,0-.2-.07.5.5,0,0,0-.29.09,1.6,1.6,0,0,0-.4.44v2.12a1.19,1.19,0,0,0,.08.55.42.42,0,0,0,.32.15v.16H68.27v-.16a.45.45,0,0,0,.33-.16,1.12,1.12,0,0,0,.07-.54V33a1.18,1.18,0,0,0-.08-.55.46.46,0,0,0-.32-.14v-.16Z"/><path class="cls-1" d="M77,33.69a4.54,4.54,0,0,0-.07-.93.82.82,0,0,0-.22-.39.31.31,0,0,0-.22-.07.4.4,0,0,0-.35.21,1.9,1.9,0,0,0-.23,1v.15ZM78,34H75.88a2.12,2.12,0,0,0,.4,1.23.82.82,0,0,0,.67.35.81.81,0,0,0,.44-.13,1.87,1.87,0,0,0,.42-.52L78,35a2.42,2.42,0,0,1-.68.92,1.51,1.51,0,0,1-2.12-.4,2.45,2.45,0,0,1-.35-1.34,2.33,2.33,0,0,1,.51-1.58A1.6,1.6,0,0,1,76.5,32a1.29,1.29,0,0,1,1,.49A2.31,2.31,0,0,1,78,34"/><path class="cls-1" d="M79.63,32.14v.51a1.8,1.8,0,0,1,.56-.47,1,1,0,0,1,.56-.16.88.88,0,0,1,.6.21,1,1,0,0,1,.33.54,4.5,4.5,0,0,1,.06.92v1.53a1.24,1.24,0,0,0,.08.56c.05.08.16.12.33.14v.16h-1.9v-.16a.39.39,0,0,0,.31-.18,1.77,1.77,0,0,0,0-.52V33.46a3.52,3.52,0,0,0,0-.6.34.34,0,0,0-.12-.2.28.28,0,0,0-.19-.07c-.23,0-.44.18-.64.52v2.11a1.35,1.35,0,0,0,.07.56.45.45,0,0,0,.3.14v.16H78.1v-.16a.47.47,0,0,0,.33-.16,1.12,1.12,0,0,0,.07-.54V33a1.06,1.06,0,0,0-.08-.55.46.46,0,0,0-.32-.14v-.16Z"/><path class="cls-1" d="M83.74,30.7v1.44h.9v.42h-.9V35a1.79,1.79,0,0,0,0,.43.34.34,0,0,0,.11.17.33.33,0,0,0,.14.06c.18,0,.35-.14.5-.42l.12.09a1.1,1.1,0,0,1-1.06.81.94.94,0,0,1-.92-.68,3.72,3.72,0,0,1,0-.77V32.56h-.49v-.15a5.53,5.53,0,0,0,.86-.79,4.5,4.5,0,0,0,.62-.92Z"/><path class="cls-1" d="M1.75,48.19c0,.07.14.1.29.1a1.27,1.27,0,0,0,1-.45,2.73,2.73,0,0,0,.39-1.72,3.62,3.62,0,0,0-.21-1.3A1.19,1.19,0,0,0,2.07,44c-.18,0-.29,0-.35.11a.64.64,0,0,0-.05.3v3.52a.58.58,0,0,0,.08.31M0,48.35a1,1,0,0,0,.37-.08.41.41,0,0,0,.2-.39V44.36A.41.41,0,0,0,.38,44,.94.94,0,0,0,0,43.89v-.18H2.08a2.52,2.52,0,0,1,1.93.7,2.42,2.42,0,0,1,.6,1.72A2.35,2.35,0,0,1,4,47.77a2.38,2.38,0,0,1-1.86.76H0Z"/><path class="cls-1" d="M6.86,46.52a3.32,3.32,0,0,0-.1-.89.35.35,0,0,0-.35-.25.36.36,0,0,0-.36.29,2.91,2.91,0,0,0-.12.85ZM5.4,45.61a1.34,1.34,0,0,1,1-.45,1.16,1.16,0,0,1,.63.18,1.29,1.29,0,0,1,.46.52,1.9,1.9,0,0,1,.17.64c0,.12,0,.22,0,.28H6a2.56,2.56,0,0,0,.14.74.72.72,0,0,0,.7.59A.76.76,0,0,0,7.24,48a2.37,2.37,0,0,0,.32-.32l.16.1A2,2,0,0,1,7,48.5a1.38,1.38,0,0,1-.62.13,1.36,1.36,0,0,1-1-.41A1.77,1.77,0,0,1,5,46.89a1.83,1.83,0,0,1,.42-1.28"/><path class="cls-1" d="M10.36,47.72a3.41,3.41,0,0,0,.07-.81,3.68,3.68,0,0,0-.11-1,.43.43,0,0,0-.43-.36.47.47,0,0,0-.39.2.57.57,0,0,0-.18.29V47.8a.42.42,0,0,0,.17.27.51.51,0,0,0,.37.17c.24,0,.41-.18.5-.52M8,49.83a.47.47,0,0,0,.3-.11.41.41,0,0,0,.08-.31V45.83a.49.49,0,0,0-.07-.31A.53.53,0,0,0,8,45.41v-.17H9.31v.47a1.4,1.4,0,0,1,.27-.36.93.93,0,0,1,.61-.2,1.1,1.1,0,0,1,.89.42,1.93,1.93,0,0,1,.36,1.26,2.12,2.12,0,0,1-.38,1.29,1.15,1.15,0,0,1-.93.51.86.86,0,0,1-.53-.17,1.3,1.3,0,0,1-.28-.26v.6c0,.32,0,.5,0,.54a.54.54,0,0,0,.14.39.59.59,0,0,0,.38.12V50H8Z"/><path class="cls-1" d="M13.46,48a.93.93,0,0,0,.19-.2v-1a1.32,1.32,0,0,0-.48.22.78.78,0,0,0-.34.65.52.52,0,0,0,.1.35.29.29,0,0,0,.22.12.5.5,0,0,0,.31-.1m-1.18-.92a5.61,5.61,0,0,1,1.38-.57V46a.69.69,0,0,0-.13-.47.72.72,0,0,0-.75-.08.21.21,0,0,0-.12.18.14.14,0,0,0,0,.07l0,.06,0,0a.35.35,0,0,1,.08.13.37.37,0,0,1,0,.15.37.37,0,0,1-.13.31.4.4,0,0,1-.3.11.48.48,0,0,1-.33-.12.45.45,0,0,1-.14-.35.74.74,0,0,1,.37-.65,1.63,1.63,0,0,1,.9-.24,2,2,0,0,1,1,.23,1,1,0,0,1,.38.87V48a.17.17,0,0,0,0,.13s0,.06.09.06l.07,0,.1-.08.1.15a1.07,1.07,0,0,1-.44.34.92.92,0,0,1-.33.06.52.52,0,0,1-.44-.18.91.91,0,0,1-.12-.31,1.7,1.7,0,0,1-.63.42,1.33,1.33,0,0,1-.43.07.84.84,0,0,1-.52-.18.68.68,0,0,1-.25-.59.86.86,0,0,1,.45-.76"/><path class="cls-1" d="M15.19,48.36a.5.5,0,0,0,.28-.1.44.44,0,0,0,.08-.28V45.83a.48.48,0,0,0-.08-.31.5.5,0,0,0-.29-.11v-.17h1.3v.56a2.48,2.48,0,0,1,.43-.47.79.79,0,0,1,.49-.17.59.59,0,0,1,.38.14.51.51,0,0,1,.17.41.51.51,0,0,1-.12.35.4.4,0,0,1-.31.14.46.46,0,0,1-.37-.22c-.11-.14-.18-.21-.23-.21a.38.38,0,0,0-.27.17.84.84,0,0,0-.14.51V47.8c0,.24,0,.38.1.44a.68.68,0,0,0,.39.12v.17H15.19Z"/><path class="cls-1" d="M18.21,45.56v-.2l.23-.21.33-.35a7.09,7.09,0,0,0,.56-.76h.17v1.2h.65v.32H19.5v2.15a.62.62,0,0,0,0,.25.23.23,0,0,0,.22.15A.29.29,0,0,0,20,48a1,1,0,0,0,.18-.27l.16.08a1.4,1.4,0,0,1-.29.48.91.91,0,0,1-.71.33.82.82,0,0,1-.42-.1.7.7,0,0,1-.35-.66V45.56Z"/><path class="cls-1" d="M20.48,48.36a.57.57,0,0,0,.26-.08.47.47,0,0,0,.11-.35v-2.1a.43.43,0,0,0-.08-.31.53.53,0,0,0-.29-.11v-.17h1.29v.52a2.57,2.57,0,0,1,.33-.37,1.08,1.08,0,0,1,.66-.23.94.94,0,0,1,.64.2,1,1,0,0,1,.24.38h.05a1.92,1.92,0,0,1,.37-.38,1.06,1.06,0,0,1,.61-.2,1,1,0,0,1,.64.24,1,1,0,0,1,.26.76V48a.32.32,0,0,0,.35.4v.17H24.31v-.17a.6.6,0,0,0,.26-.09.52.52,0,0,0,.07-.31V46.22a1,1,0,0,0-.08-.43.3.3,0,0,0-.3-.15.61.61,0,0,0-.37.17c-.13.11-.19.19-.19.24V48a.52.52,0,0,0,.06.3.54.54,0,0,0,.25.1v.17H22.42v-.17a.49.49,0,0,0,.25-.09.44.44,0,0,0,.08-.31V46.22a1.18,1.18,0,0,0-.07-.42.31.31,0,0,0-.31-.16.54.54,0,0,0-.39.18c-.12.12-.18.19-.18.23V48a.52.52,0,0,0,.06.3.54.54,0,0,0,.25.1v.17H20.48Z"/><path class="cls-1" d="M28.08,46.52a3.32,3.32,0,0,0-.1-.89.35.35,0,0,0-.35-.25.36.36,0,0,0-.36.29,2.65,2.65,0,0,0-.11.85Zm-1.46-.91a1.35,1.35,0,0,1,1-.45,1.21,1.21,0,0,1,.64.18,1.29,1.29,0,0,1,.46.52,3.41,3.41,0,0,1,.19.92H27.17a2.56,2.56,0,0,0,.14.74.71.71,0,0,0,.7.59.81.81,0,0,0,.46-.15,3.15,3.15,0,0,0,.32-.32l.16.1a2,2,0,0,1-.74.76,1.38,1.38,0,0,1-.62.13,1.32,1.32,0,0,1-.94-.41,1.74,1.74,0,0,1-.44-1.33,1.87,1.87,0,0,1,.41-1.28"/><path class="cls-1" d="M29.2,48.36a.57.57,0,0,0,.27-.1.47.47,0,0,0,.09-.33v-2.1a.44.44,0,0,0-.07-.3.46.46,0,0,0-.29-.12v-.17h1.29v.52a1.33,1.33,0,0,1,.42-.43,1,1,0,0,1,.56-.17.92.92,0,0,1,.67.24,1.13,1.13,0,0,1,.24.83V48a.44.44,0,0,0,.08.31.6.6,0,0,0,.26.09v.17h-1.6v-.17a.54.54,0,0,0,.26-.1.52.52,0,0,0,.06-.3V46.22a.86.86,0,0,0-.05-.36.29.29,0,0,0-.31-.22.45.45,0,0,0-.33.14.8.8,0,0,0-.22.27V48a.52.52,0,0,0,.06.3.54.54,0,0,0,.25.1v.17H29.2Z"/><path class="cls-1" d="M33,45.56v-.2l.22-.21c.12-.11.23-.23.34-.35a7.09,7.09,0,0,0,.56-.76h.17v1.2h.65v.32h-.65v2.15a.62.62,0,0,0,0,.25.22.22,0,0,0,.22.15.27.27,0,0,0,.22-.1,1,1,0,0,0,.18-.27l.17.08a1.57,1.57,0,0,1-.29.48.94.94,0,0,1-.72.33.82.82,0,0,1-.42-.1.7.7,0,0,1-.35-.66V45.56Z"/><path class="cls-1" d="M38.09,48c.07.31.23.46.46.46a.43.43,0,0,0,.43-.36,4.49,4.49,0,0,0,.1-1.15,4.58,4.58,0,0,0-.1-1.16.43.43,0,0,0-.43-.36c-.23,0-.38.16-.46.47a4.88,4.88,0,0,0-.08,1A4.29,4.29,0,0,0,38.09,48m-.64-2.3a1.41,1.41,0,0,1,1.1-.5,1.39,1.39,0,0,1,1.11.51,1.89,1.89,0,0,1,.43,1.24,1.86,1.86,0,0,1-.43,1.23,1.37,1.37,0,0,1-1.11.51,1.38,1.38,0,0,1-1.1-.5,2,2,0,0,1,0-2.49"/><path class="cls-1" d="M40.37,48.36a.46.46,0,0,0,.3-.1.43.43,0,0,0,.09-.33V45.61h-.39v-.32h.39V45a1.91,1.91,0,0,1,.15-.82,1.06,1.06,0,0,1,1.05-.6,1.19,1.19,0,0,1,.69.19.59.59,0,0,1,.28.51.44.44,0,0,1-.12.32.42.42,0,0,1-.32.12.37.37,0,0,1-.28-.11.36.36,0,0,1-.11-.26.54.54,0,0,1,.07-.26.74.74,0,0,0,.08-.15.12.12,0,0,0-.06-.12l-.13,0a.33.33,0,0,0-.26.1.72.72,0,0,0-.09.44v.92h.59v.32h-.59V47.8c0,.25,0,.4.1.45a.89.89,0,0,0,.45.11v.17H40.37Z"/><path class="cls-1" d="M44.38,48.35a.94.94,0,0,0,.38-.08.44.44,0,0,0,.19-.42V44.39a.46.46,0,0,0-.17-.41,1.12,1.12,0,0,0-.4-.09v-.18h2.3v.18a.91.91,0,0,0-.41.08.44.44,0,0,0-.2.42v1.48H47.7V44.39a.45.45,0,0,0-.18-.42,1.14,1.14,0,0,0-.42-.08v-.18h2.32v.18A.85.85,0,0,0,49,44a.43.43,0,0,0-.19.41v3.46a.42.42,0,0,0,.21.42.88.88,0,0,0,.39.08v.18H47.1v-.18a.94.94,0,0,0,.41-.08.45.45,0,0,0,.19-.42V46.2H46.07v1.65a.45.45,0,0,0,.21.43,1.1,1.1,0,0,0,.4.07v.18h-2.3Z"/><path class="cls-1" d="M51,45.24v2.43A.89.89,0,0,0,51,48a.37.37,0,0,0,.35.17.52.52,0,0,0,.32-.11l.23-.19v-2a.45.45,0,0,0-.09-.32.53.53,0,0,0-.34-.1v-.17h1.36v2.58a.43.43,0,0,0,.08.3.5.5,0,0,0,.31.11v.16l-.8.09-.52.15v-.47a2.43,2.43,0,0,1-.41.31,1.13,1.13,0,0,1-.58.16,1,1,0,0,1-.62-.22.91.91,0,0,1-.28-.78v-1.8a.5.5,0,0,0-.07-.3.48.48,0,0,0-.27-.12v-.17Z"/><path class="cls-1" d="M53.47,48.36a.52.52,0,0,0,.25-.08.43.43,0,0,0,.12-.35v-2.1a.48.48,0,0,0-.08-.31.53.53,0,0,0-.29-.11v-.17h1.29v.52a2.08,2.08,0,0,1,.33-.37,1.08,1.08,0,0,1,.66-.23.93.93,0,0,1,.63.2,1,1,0,0,1,.24.38h.05a1.92,1.92,0,0,1,.37-.38,1.06,1.06,0,0,1,.61-.2.88.88,0,0,1,.91,1V48a.32.32,0,0,0,.35.4v.17H57.29v-.17a.6.6,0,0,0,.26-.09.45.45,0,0,0,.07-.31V46.22a1,1,0,0,0-.08-.43.3.3,0,0,0-.3-.15.61.61,0,0,0-.37.17c-.13.11-.19.19-.19.24V48a.52.52,0,0,0,.06.3.54.54,0,0,0,.25.1v.17H55.4v-.17a.49.49,0,0,0,.26-.09.45.45,0,0,0,.07-.31V46.22a1,1,0,0,0-.07-.42.29.29,0,0,0-.3-.16.54.54,0,0,0-.39.18c-.12.12-.18.19-.18.23V48a.52.52,0,0,0,.06.3.49.49,0,0,0,.25.1v.17H53.47Z"/><path class="cls-1" d="M60.85,48a2,2,0,0,0,.19-.2v-1a1.32,1.32,0,0,0-.48.22.76.76,0,0,0-.35.65.52.52,0,0,0,.1.35.29.29,0,0,0,.23.12.52.52,0,0,0,.31-.1m-1.19-.92a5.71,5.71,0,0,1,1.39-.57V46a.69.69,0,0,0-.13-.47.59.59,0,0,0-.46-.15.56.56,0,0,0-.3.07.21.21,0,0,0-.12.18.14.14,0,0,0,0,.07.21.21,0,0,0,0,.06l0,0a.54.54,0,0,1,.07.13.37.37,0,0,1,0,.15.36.36,0,0,1-.13.31.39.39,0,0,1-.29.11.49.49,0,0,1-.34-.12.45.45,0,0,1-.14-.35.74.74,0,0,1,.37-.65,1.65,1.65,0,0,1,.91-.24,1.91,1.91,0,0,1,1,.23.94.94,0,0,1,.39.87V48a.21.21,0,0,0,0,.14.1.1,0,0,0,.08,0,.08.08,0,0,0,.07,0l.1-.08.1.15a1,1,0,0,1-.44.34.87.87,0,0,1-.32.06.55.55,0,0,1-.45-.18.75.75,0,0,1-.11-.31,1.55,1.55,0,0,1-.64.42,1.33,1.33,0,0,1-.43.07.84.84,0,0,1-.52-.18.71.71,0,0,1-.25-.59.86.86,0,0,1,.45-.76"/><path class="cls-1" d="M62.56,48.36a.57.57,0,0,0,.28-.1.52.52,0,0,0,.09-.33v-2.1a.43.43,0,0,0-.08-.3.41.41,0,0,0-.29-.12v-.17h1.3v.52a1.21,1.21,0,0,1,.41-.43,1,1,0,0,1,.56-.17.92.92,0,0,1,.68.24,1.13,1.13,0,0,1,.24.83V48a.44.44,0,0,0,.08.31.6.6,0,0,0,.26.09v.17h-1.6v-.17a.54.54,0,0,0,.25-.1.5.5,0,0,0,.07-.3V46.22a1.06,1.06,0,0,0,0-.36.31.31,0,0,0-.32-.22.44.44,0,0,0-.32.14.83.83,0,0,0-.23.27V48a.44.44,0,0,0,.07.3.45.45,0,0,0,.25.1v.17H62.56Z"/><path class="cls-1" d="M68.2,46.86h.19A2.2,2.2,0,0,0,68.92,48a1.15,1.15,0,0,0,.83.36.77.77,0,0,0,.65-.25.88.88,0,0,0,.19-.52.74.74,0,0,0-.2-.53,2.88,2.88,0,0,0-.54-.34l-.43-.23a3,3,0,0,1-.92-.68,1.33,1.33,0,0,1-.26-.83,1.51,1.51,0,0,1,.35-1,1.27,1.27,0,0,1,1.08-.46,2.22,2.22,0,0,1,.72.12l.39.12a.18.18,0,0,0,.16-.07.54.54,0,0,0,.06-.18h.21v1.56H71a2.28,2.28,0,0,0-.47-.93,1.07,1.07,0,0,0-.82-.4.73.73,0,0,0-.54.2.67.67,0,0,0-.2.48.63.63,0,0,0,.19.51,4.45,4.45,0,0,0,.81.5l.51.27a2.08,2.08,0,0,1,.53.39,1.4,1.4,0,0,1,.38,1,1.55,1.55,0,0,1-.4,1,1.6,1.6,0,0,1-1.29.48,1.84,1.84,0,0,1-.41,0,1.66,1.66,0,0,1-.42-.12l-.13,0-.09,0H68.6a.15.15,0,0,0-.14.07.61.61,0,0,0-.07.18H68.2Z"/><path class="cls-1" d="M73.77,46.52a3,3,0,0,0-.09-.89.35.35,0,0,0-.35-.25.38.38,0,0,0-.37.29,3.37,3.37,0,0,0-.11.85Zm-1.45-.91a1.34,1.34,0,0,1,1-.45,1.16,1.16,0,0,1,.63.18,1.22,1.22,0,0,1,.46.52,2,2,0,0,1,.16.64,1.91,1.91,0,0,1,0,.28H72.87a2.58,2.58,0,0,0,.13.74.73.73,0,0,0,.71.59.76.76,0,0,0,.45-.15,1.91,1.91,0,0,0,.32-.32l.16.1a1.92,1.92,0,0,1-.73.76,1.38,1.38,0,0,1-.62.13,1.34,1.34,0,0,1-1-.41,1.77,1.77,0,0,1-.44-1.33,1.83,1.83,0,0,1,.42-1.28"/><path class="cls-1" d="M74.9,48.36a.57.57,0,0,0,.28-.1.44.44,0,0,0,.08-.28V45.83a.48.48,0,0,0-.08-.31.53.53,0,0,0-.29-.11v-.17h1.3v.56a2.48,2.48,0,0,1,.43-.47.77.77,0,0,1,.49-.17.59.59,0,0,1,.38.14.51.51,0,0,1,.17.41.51.51,0,0,1-.12.35.4.4,0,0,1-.31.14.46.46,0,0,1-.37-.22c-.11-.14-.19-.21-.23-.21a.36.36,0,0,0-.27.18.73.73,0,0,0-.14.5V47.8c0,.24,0,.39.1.44a.68.68,0,0,0,.39.12v.17H74.9Z"/><path class="cls-1" d="M79.63,45.24v.17a.94.94,0,0,0-.28.05.14.14,0,0,0-.09.15.43.43,0,0,0,0,.1.43.43,0,0,0,0,.11l.53,1.37h0L80.36,46a1.21,1.21,0,0,0,0-.18,1.15,1.15,0,0,0,0-.14c0-.1,0-.17-.09-.19a.94.94,0,0,0-.28-.05v-.17h1v.17a.35.35,0,0,0-.22.1.81.81,0,0,0-.17.29l-1.1,2.83h-.17l-.82-2.12c-.06-.14-.11-.28-.17-.41s-.11-.26-.17-.39a.74.74,0,0,0-.15-.23.34.34,0,0,0-.19-.07v-.17Z"/><path class="cls-1" d="M81.78,43.76a.51.51,0,0,1,.38-.16.49.49,0,0,1,.37.16.56.56,0,0,1,0,.78.5.5,0,0,1-.37.17.52.52,0,0,1-.38-.17.58.58,0,0,1,0-.78m-.45,4.6a.55.55,0,0,0,.25-.09.51.51,0,0,0,.1-.34v-2.1a.5.5,0,0,0-.07-.3.57.57,0,0,0-.28-.12v-.17h1.31V48a.44.44,0,0,0,.07.3.45.45,0,0,0,.25.1v.17H81.33Z"/><path class="cls-1" d="M85.62,45.37a.68.68,0,0,1,.32.57.47.47,0,0,1-.12.32.42.42,0,0,1-.32.13.41.41,0,0,1-.23-.06.44.44,0,0,1-.19-.4s0-.06,0-.09V45.7a.32.32,0,0,0-.08-.25.29.29,0,0,0-.2-.07.47.47,0,0,0-.45.36,2.39,2.39,0,0,0-.13.84,2.26,2.26,0,0,0,.25,1.12.77.77,0,0,0,.68.45.86.86,0,0,0,.47-.12,2.14,2.14,0,0,0,.28-.27l.12.12a1.83,1.83,0,0,1-.78.67,1.39,1.39,0,0,1-.5.09,1.35,1.35,0,0,1-1.08-.49,1.84,1.84,0,0,1-.41-1.2,1.87,1.87,0,0,1,.44-1.27,1.46,1.46,0,0,1,1.18-.53,1.32,1.32,0,0,1,.74.22"/><path class="cls-1" d="M88.17,46.52a3.32,3.32,0,0,0-.1-.89.35.35,0,0,0-.35-.25.36.36,0,0,0-.36.29,2.91,2.91,0,0,0-.12.85Zm-1.46-.91a1.34,1.34,0,0,1,1-.45,1.21,1.21,0,0,1,.64.18,1.2,1.2,0,0,1,.45.52,1.75,1.75,0,0,1,.17.64,1.63,1.63,0,0,1,0,.28H87.26a2.56,2.56,0,0,0,.14.74.71.71,0,0,0,.7.59.81.81,0,0,0,.46-.15,3.15,3.15,0,0,0,.32-.32l.15.1a1.85,1.85,0,0,1-.73.76,1.38,1.38,0,0,1-.62.13,1.36,1.36,0,0,1-1-.41,1.81,1.81,0,0,1-.43-1.33,1.87,1.87,0,0,1,.41-1.28"/><path class="cls-1" d="M89.35,47.45h.19a1.23,1.23,0,0,0,.37.73.92.92,0,0,0,.56.2.54.54,0,0,0,.39-.12.44.44,0,0,0,.12-.32.44.44,0,0,0-.13-.33,1.09,1.09,0,0,0-.24-.16l-.5-.26a1.55,1.55,0,0,1-.58-.44.92.92,0,0,1-.17-.57,1,1,0,0,1,.27-.72,1,1,0,0,1,.78-.3,1.35,1.35,0,0,1,.46.08l.3.07a.15.15,0,0,0,.12,0,.44.44,0,0,0,.06-.1h.15v1h-.18a1.29,1.29,0,0,0-.31-.58.7.7,0,0,0-.52-.22.42.42,0,0,0-.34.13.48.48,0,0,0-.11.29.38.38,0,0,0,.1.25,1.07,1.07,0,0,0,.37.26l.37.19a1.94,1.94,0,0,1,.51.34,1,1,0,0,1,.27.69,1.2,1.2,0,0,1-.28.74,1,1,0,0,1-.82.34.89.89,0,0,1-.28,0,2.37,2.37,0,0,1-.34-.1l-.12,0-.08,0h0a.1.1,0,0,0-.1,0,.76.76,0,0,0-.1.15h-.16Z"/><path class="cls-1" d="M40,21.89a.22.22,0,0,1-.09.1"/><path class="cls-1" d="M40.84,15.07a.18.18,0,0,0,.17-.18.18.18,0,1,0-.35,0,.18.18,0,0,0,.18.18"/><path class="cls-1" d="M48.74,11.07H46.83V7.54h1.91Zm0,1.67a1.11,1.11,0,0,1-.4.87l-1.51,1V11.25h1.91Zm-2.08-1.67H44.89V7.54h1.77Zm0,3.59-.7.44h0a.28.28,0,0,1-.18.06.39.39,0,0,1-.19-.06l-.69-.44V11.25h1.77Zm-1.93-3.59h-.55V9.78h.55Zm0,3.49-1.51-1a1.15,1.15,0,0,1-.41-.87V11.25h1.92Zm-1.92-7h.66V8.9h-.66Zm.83.51L43.72,8l-.06-.1h.11l.06-.11.05.11H44l-.05.1.08.08-.1,0v.12l-.09-.08-.09.08V8.07Zm.46,1.42s-.05,0-.06,0-.09.1-.13.11-.07,0-.07,0,.08-.06.1-.09c-.4,0-.4.19-.47.19s.09-.19.15-.26-.13-.12-.23-.17.07,0,.12,0,0-.1.13-.1.13.18.16.18,0-.18.12-.18.41.49.2.49,0-.08,0-.09m-.44,1h.11l.06-.11.05.11H44l-.05.1.08.08-.1,0v.11l-.09-.07-.09.07v-.11l-.1,0,.08-.08ZM42.92,9.2H43l.07-.11,0,.11h.11l0,.09.08.09-.1,0v.11l-.09-.07-.1.07V9.4l-.1,0L43,9.29Zm.55,1.87h-.66V9.78h.66Zm.86-1.69.07-.09,0-.09h.1l.06-.11.06.11h.1l0,.09.08.09-.1,0v.11l-.09-.07-.09.07V9.4Zm.4-.48h-.55V7.54h.55Zm4.19-1.54H42.64v5.32a1.24,1.24,0,0,0,.49,1.09l2.42,1.51a.27.27,0,0,0,.22.11A.23.23,0,0,0,46,15.3l2.46-1.53a1.22,1.22,0,0,0,.5-1.09Z"/><path class="cls-1" d="M44.62,12.46s-.24.08-.18.07a.7.7,0,0,1,.2-.26c0-.09-.12,0-.23,0,.36-.52.14-.31-.07-.27.33-.36.24-.35,0-.24.19-.15.23-.34.2-.39-.17.24-.33.21-.33.43a1,1,0,0,1-.12.47c-.1.1,0-.4-.28-.4-.07,0-.26,0-.31.09s.13.14.13.19,0,.2,0,.2-.18-.18-.18-.27v-.19a.69.69,0,0,0-.48-.51c0,.14.19.18.19.37-.08,0-.19-.16-.19-.06s.12.11.12.19-.14,0-.14.06.08.06.1.14-.11,0-.12,0,0,0,.06.08,0,.06,0,.19c0,.42.26.61.44.61s.11-.09.13-.14.07,0,.07.09-.13.07-.13.18.2,0,.2.17a2.46,2.46,0,0,1,0,.27c0,.05.2-.07.19-.1s.05.18.14.17.08-.15.13-.17.18.15.18.08-.07-.11-.07-.25.26-.1.22-.16-.06,0-.09-.11-.2-.32.05-.15.28-.41.27-.44"/><path class="cls-1" d="M51.33,13.85a.19.19,0,1,0,0-.38.19.19,0,1,0,0,.38"/><path class="cls-1" d="M50.49,14.37a.21.21,0,0,0,.21-.19.2.2,0,0,0-.21-.19.2.2,0,0,0-.21.19.2.2,0,0,0,.21.19"/><path class="cls-1" d="M40.55,15.57a.19.19,0,1,0,0-.38.19.19,0,1,0,0,.38"/><path class="cls-1" d="M41.2,15.63a.2.2,0,1,0,0-.39.2.2,0,1,0,0,.39"/><path class="cls-1" d="M59.09,6.56A1.39,1.39,0,0,1,59.23,8c-.11,0-.09-.17-.11-.26a1.79,1.79,0,0,1-.2-1.46c.14,0,.09.21.17.29"/><path class="cls-1" d="M32.84,7.08a2,2,0,0,0,0,.91c-.05.06,0,0-.1,0-.43-.33-.23-1-.33-1.41a.08.08,0,0,1,.1,0,.82.82,0,0,1,.33.57"/><path class="cls-1" d="M60,7.11c.06.13-.06.26-.15.31a.26.26,0,0,1-.27-.12.27.27,0,0,1,.13-.3.3.3,0,0,1,.29.11"/><path class="cls-1" d="M32.17,7.62a.34.34,0,0,1-.14.26c-.07,0-.17,0-.21-.06a.21.21,0,0,1,0-.24.22.22,0,0,1,.2-.11c.08,0,.16.06.19.15"/><path class="cls-1" d="M60.45,7.82a.28.28,0,0,1,0,.18.24.24,0,0,1-.29.11.3.3,0,0,1-.12-.2.36.36,0,0,1,.19-.21.32.32,0,0,1,.22.12"/><path class="cls-1" d="M59.83,7.83c.09,0,0,.16,0,.23s-.13.15-.23.12-.12-.06-.14-.14a.26.26,0,0,1,.15-.27c.09,0,.14,0,.21.06"/><path class="cls-1" d="M59,8c0,.13,0,.29-.13.32s-.22-.08-.26-.17a.27.27,0,0,1,.17-.27A.32.32,0,0,1,59,8"/><path class="cls-1" d="M33.37,8.06c0,.12-.08.18-.14.25A.25.25,0,0,1,33,8.18c-.07-.09,0-.16,0-.22a.2.2,0,0,1,.32.1"/><path class="cls-1" d="M32.71,8.09a.27.27,0,0,1-.12.23.2.2,0,0,1-.22-.11.18.18,0,0,1,.1-.26c.12,0,.19.06.24.14"/><path class="cls-1" d="M56.37,8.14a2.26,2.26,0,0,1,.22.84c0,.21,0,.5-.12.65-.15-.06-.16-.25-.26-.36a2.2,2.2,0,0,1,0-1.27c.09,0,.09.09.12.14"/><path class="cls-1" d="M32.19,8.28c0,.14-.06.21-.14.29s-.22-.07-.27-.16a.29.29,0,0,1,.14-.28.28.28,0,0,1,.27.15"/><path class="cls-1" d="M58.11,8.62a1.72,1.72,0,0,1,0,1.1l-.07.06a4.93,4.93,0,0,1-.44-.93,1.56,1.56,0,0,1,.13-.66c.08-.06.12,0,.15.08a.48.48,0,0,0,.18.35"/><path class="cls-1" d="M59.49,8.41c0,.11-.05.24-.16.27a.19.19,0,0,1-.26-.13.27.27,0,0,1,.12-.28c.12-.07.25.05.3.14"/><path class="cls-1" d="M32.72,8.76a.24.24,0,0,1-.16.22c-.09.07-.15,0-.24-.07a.32.32,0,0,1,0-.27c0-.07.12-.07.18-.09s.2.1.22.21"/><path class="cls-1" d="M33.21,8.71c0,.11-.08.17-.13.23s-.19-.06-.25-.14,0-.18.12-.25.2.06.26.16"/><path class="cls-1" d="M59.79,8.68c0,.15-.22.3-.25.45a1.13,1.13,0,0,1-.68.64.46.46,0,0,1-.25.15c0-.23.18-.44.3-.65a1.56,1.56,0,0,1,.88-.59"/><path class="cls-1" d="M32.5,9.16A3.31,3.31,0,0,0,33,9.7a.09.09,0,0,1-.08.12c-.53,0-.9-.61-1.16-1,0-.12.18,0,.25,0,.19.15.4.2.54.4"/><path class="cls-1" d="M60,9.32a1.48,1.48,0,0,1-.68,1.25c-.12,0-.25.17-.37.09a5.8,5.8,0,0,1,1-1.34Z"/><path class="cls-1" d="M57.85,9.66a.3.3,0,0,1-.19.33c-.12,0-.2-.09-.26-.18a.27.27,0,0,1,.16-.26.19.19,0,0,1,.13,0c.07,0,.1.07.16.14"/><path class="cls-1" d="M31.9,9.76c.2.15.39.36.59.54-.14.11-.32,0-.49,0-.37-.13-.61-.47-1-.59,0-.13.16-.07.23-.11a2,2,0,0,1,.67.15"/><path class="cls-1" d="M43.64,6.34c-.61-.25-1,.42-1.65.34-.07,0-.05.12-.09.18s-.09,0-.12,0c0-.28-.12-.53-.16-.8-.06-.12,0-.27-.08-.39-.36-1,.85-.24,1.09-.83s-.4-.57-.59-.92V3.75c-.17-.18-.36-.24-.47-.48a1.68,1.68,0,0,0,0-.89c0-.07-.06-.16-.16-.13-.2.31-.35.55-.55.84a6.65,6.65,0,0,0-.65-.51c-.16,0-.32-.2-.5-.13a.15.15,0,0,0,0,.17,1.67,1.67,0,0,0,.53,1.13l0,.18a5.23,5.23,0,0,0-.2,1.53A8.38,8.38,0,0,1,37.76,9a4.8,4.8,0,0,0-1.46,2.47c0,.17,0,.36-.1.48a3.66,3.66,0,0,1-1-.57c-.51-.37-1.23-.32-1.56-1a.76.76,0,0,1,.15-.73,1.37,1.37,0,0,0,.12-1.48s0,0-.08.06c0,.68-.55,1.15-.35,1.91,0,.21.15.35.2.56a1.84,1.84,0,0,1-.25-.05,2.58,2.58,0,0,0-.73-.11c-.51.24-1.19-.06-1.6.43-.06,0-.15,0-.13.13.24,0,.47.07.7,0,.39.07.64-.26.91-.41h.06c.11-.12.3,0,.44-.07a4.4,4.4,0,0,1,1.8.78v.05a6.86,6.86,0,0,0-.69.3,1.53,1.53,0,0,0-.61.77c-.18.29,0,.54.16.78s0,.26.12.3c.35-.39,0-.88.08-1.33a.92.92,0,0,1,.71-.59c.62-.28,1.07.26,1.58.55a8.12,8.12,0,0,1-.05,1.56,1.32,1.32,0,0,1-.52.08,9.39,9.39,0,0,0-2.33.84c-.34.13-.77.12-1.12.26a2.45,2.45,0,0,0,.85,0c1.07-.16,1.9-1,3.06-.87l0,0a2.62,2.62,0,0,1-.51.75c0-.13,0-.23-.16-.3a.21.21,0,0,0-.25.09.19.19,0,0,0,0,.18c0,.1.14.12.24.16s-.14.15-.21.24c-.3.55-.93.32-1.29.71-.06.07-.26.12-.17.25a1.61,1.61,0,0,0,1.14-.3c.4-.48.83-.92,1.23-1.37a1.39,1.39,0,0,1-.24,1.05,1,1,0,0,0-.29-.18.28.28,0,0,0-.2.23.63.63,0,0,0,.16.23,3.61,3.61,0,0,1-1.27.43,19.09,19.09,0,0,1-2.39.19,5.17,5.17,0,0,1-1.18,0c-.42.08-.87-.06-1.21.18,0,.06,0,.12,0,.17.51.35,1.2.07,1.77.18h4.32a1.87,1.87,0,0,0,.89-.18,3.3,3.3,0,0,0,1.14-1.52,2.31,2.31,0,0,0,.23-.7,1,1,0,0,1,.82-.7,5.41,5.41,0,0,1-.18,1.76c-.07.37-.3.73-.16,1.12,0,.18.22.18.36.21a39.35,39.35,0,0,1,4.06,0,3.78,3.78,0,0,0,.75.12s.1-.05.07-.12a.45.45,0,0,0-.27-.33c0-.06-.11,0-.15-.09a4.48,4.48,0,0,0-2.37-.18,1.65,1.65,0,0,1-1.22-.13c-.16-.21,0-.87,0-.87a16.1,16.1,0,0,1,.68-2.22,1.88,1.88,0,0,0,.07-.53,2.61,2.61,0,0,0,.06-.79,5.79,5.79,0,0,1,.34-1.07c.07-.18.12-.36.19-.53a1.66,1.66,0,0,1,.22-.6c.36.23.71.23.88.65l.15,1c0,.05,0,.17.12.1.29-.2.2-.64.2-.94s-.18-.53-.28-.85a1.43,1.43,0,0,1-.2-.33c0-.25-.58-.43-.45-.74a.9.9,0,0,1,.37-.65A.07.07,0,0,1,42,8l.13-.1v-1c.37,0,.9,0,1.25,0,.11,0,.18.12.29.13l.09-.13.88-.18c-.38,0-.6-.41-1-.41"/><path class="cls-1" d="M44.6,6.75h0Z"/><path class="cls-1" d="M35.06,10a.25.25,0,0,1-.17.26.32.32,0,0,1-.21-.13c0-.13.07-.22.16-.27s.2,0,.22.14"/><path class="cls-1" d="M34.34,10a.26.26,0,0,1,0,.26c-.08.07-.2.13-.26,0s-.14-.15-.08-.24.21-.15.29-.06"/><path class="cls-1" d="M49.61,10.1h0"/><path class="cls-1" d="M58,10.29c0,.13-.05.22-.14.27s-.25-.06-.25-.21a.21.21,0,0,1,.17-.17.2.2,0,0,1,.22.11"/><path class="cls-1" d="M58.53,10.27c0,.06.11.15,0,.21a.24.24,0,0,0-.11.09.21.21,0,0,1-.26-.14c0-.13.07-.18.16-.24s.13,0,.18.08"/><path class="cls-1" d="M31.59,10.41a.21.21,0,0,1-.29.15.36.36,0,0,1-.08-.15.2.2,0,0,1,.11-.2.26.26,0,0,1,.26.2"/><path class="cls-1" d="M35.29,10.61c0,.09-.11.17-.19.21s-.18-.08-.24-.16,0-.21.13-.23a.25.25,0,0,1,.3.18"/><path class="cls-1" d="M34.64,10.52a.18.18,0,0,1,0,.19c-.06.06-.16.16-.27.09s-.14-.1-.12-.22a.73.73,0,0,1,.16-.14c.09,0,.14,0,.2.08"/><path class="cls-1" d="M60.21,10.66a.29.29,0,0,1-.14.22.21.21,0,0,1-.24-.06c-.07,0,0-.11,0-.17a.36.36,0,0,1,.2-.15.37.37,0,0,1,.22.16"/><path class="cls-1" d="M60.92,10.77a.28.28,0,0,1-.21.2c-.07,0-.19,0-.17-.13a.21.21,0,0,1,.1-.19.19.19,0,0,1,.28.12"/><path class="cls-1" d="M32.84,10.93a.23.23,0,0,1-.13.28c-.08,0-.15,0-.21-.07a.21.21,0,0,1,0-.23c0-.1.12-.07.18-.12a.26.26,0,0,1,.21.14"/><path class="cls-1" d="M33.38,11c0,.1-.07.13-.09.2a.18.18,0,0,1-.2,0c-.07-.07-.16-.17-.09-.28s.33-.08.38.06"/><path class="cls-1" d="M59.57,11a.4.4,0,0,1-.16.27.2.2,0,0,1-.22-.13.25.25,0,0,1,.12-.23.25.25,0,0,1,.26.09"/><path class="cls-1" d="M60.47,11.16c0,.1,0,.22-.12.29a.32.32,0,0,1-.27,0,.23.23,0,0,1,0-.24A.26.26,0,0,1,60.3,11c.08.05.1.11.17.14"/><path class="cls-1" d="M32.42,11.4c0,.09-.05.12-.08.16a.19.19,0,0,1-.22,0c-.08,0,0-.16,0-.22s.3-.06.34.08"/><path class="cls-1" d="M59.77,11.62s0,.08,0,.1a.78.78,0,0,1-.88,0,3.91,3.91,0,0,0-.44-.26c0-.14.25-.14.39-.17.32.05.57.36.92.37"/><path class="cls-1" d="M33,11.52c0,.09,0,.13-.06.19a.16.16,0,0,1-.19,0,.22.22,0,0,1-.08-.29.19.19,0,0,1,.33.07"/><path class="cls-1" d="M33.92,11.59a.22.22,0,0,1-.11.25c-.08.05-.15,0-.21,0s-.16-.18-.06-.27.3-.08.38.05"/><path class="cls-1" d="M46.59,12.07c0,.23-.39,0-.34.27a2.17,2.17,0,0,0,.22.65,1,1,0,0,1,.05.58,1.09,1.09,0,0,1-.42.38c-.31,0-.77.16-.92-.24a1.84,1.84,0,0,1-.17-.55s.07,0,.1-.06S45,13,45,12.9c.35-.06-.15-.39.15-.41.25.27.66.19.88.48,0,0,.09.11.15.14,0-.27-.16-.55-.2-.84a.36.36,0,0,1,.12-.38c.19-.15.35.06.45.18"/><path class="cls-1" d="M34.88,12c0,.11-.06.18-.12.24s-.15-.07-.2-.13,0-.16.11-.22a.23.23,0,0,1,.21.11"/><path class="cls-1" d="M41.65,12.11a1.67,1.67,0,0,1-.14,1.3c0,.09,0,.24-.1.23-.29-.43-.07-1,.05-1.48,0-.12.16-.16.19-.05"/><path class="cls-1" d="M51,12.33a1.35,1.35,0,0,1,0,1.08L51,13.5a2.77,2.77,0,0,1-.25-.82,3.25,3.25,0,0,0,.13-.62c.15,0,.14.18.18.27"/><path class="cls-1" d="M35.74,12.46c-.07.14-.25.17-.38.27a1.22,1.22,0,0,1-1,.19,1.16,1.16,0,0,1,1.25-.54s.08,0,.1.08"/><path class="cls-1" d="M31.23,12.87A3.23,3.23,0,0,1,32,14c0,.05.15.06.1.15s-.17-.07-.29-.05a1.3,1.3,0,0,1-.67-1.19c0-.05.07-.05.11-.05"/><path class="cls-1" d="M50.6,13.23c0,.12,0,.24-.1.27a.2.2,0,0,1-.25-.14c0-.08,0-.13,0-.18a.19.19,0,0,1,.3.05"/><path class="cls-1" d="M55.23,13.85a6.27,6.27,0,0,1,.07-.64.4.4,0,0,0,.05-.25c.26-.36.79-.25,1.21-.21a2,2,0,0,0,.55.12.42.42,0,0,1,.27,0c.35-.2.12-.63.15-1l-.13-.34a.85.85,0,0,1-.09-.24c-.07-.07-.11-.22-.18-.31a4.59,4.59,0,0,0-.85-1.2A4.63,4.63,0,0,0,54,8.28a3.65,3.65,0,0,0-2.51.38A.66.66,0,0,1,51,8.18,2.5,2.5,0,0,1,51.22,7a6.47,6.47,0,0,1,.3-.77,8.64,8.64,0,0,0,.45-2,1,1,0,0,0-.59-.92.57.57,0,0,0-.6.13,1.71,1.71,0,0,1-.72.67c0,.2.21.07.29.14.24,0,.51,0,.71.13a2,2,0,0,1-.46,1.19,9.23,9.23,0,0,0-1,1.79l0,0,0,2.82a3.14,3.14,0,0,0,1.44,1.54c.35.3.79.65,1.26.38.25-.07.27.29.39.44.14.43-.16.73-.18,1.12l-.29.64a8.26,8.26,0,0,1-1.13,1.95c-.16,0-.26.19-.42.2s-.27,0-.38.08c-.34.15-.82.05-1,.39l.09.06c.66,0,1.41.05,2.12,0a.29.29,0,0,0,.18-.22c-.1-.2,0-.37.12-.52a6.51,6.51,0,0,1,.31-.72c.23-.47.49-.93.74-1.4l.35-.58a3.13,3.13,0,0,1,.34-.65,1.35,1.35,0,0,0,.19-.31c0-.12,0-.16-.11-.25s.2,0,.3-.07a1.25,1.25,0,0,1,.61.75l.1.31,0,.14,0,.38,0,.36a9.37,9.37,0,0,1-.1,1.67c-.19.67-.92.6-1.45.75-.13.09-.39.05-.39.28a8.92,8.92,0,0,0,2.07,0c.11,0,.13-.14.18-.25s.17-.27.13-.44,0-.41-.05-.63a.41.41,0,0,0,0-.22c.09-.33.07-.74.13-1.06Z"/><path class="cls-1" d="M60.62,13.39c-.35.52-.72,1.12-1.34,1.3-.05,0-.09,0-.11,0,.37-.41.57-1.06,1.15-1.21a.36.36,0,0,1,.3,0"/><path class="cls-1" d="M30.7,14c-.06,0,0,.15-.12.16a.16.16,0,0,1-.22-.1.21.21,0,0,1,.14-.26c.08.05.18.09.2.2"/><path class="cls-1" d="M33.85,14.12c0,.11-.08.11-.13.13a1.16,1.16,0,0,1-1.26-.34c0-.05,0-.09,0-.1.45.11,1,0,1.35.31"/><path class="cls-1" d="M31.3,14a.37.37,0,0,1,0,.18.22.22,0,0,1-.27.1.43.43,0,0,1-.15-.15.32.32,0,0,1,.19-.23.35.35,0,0,1,.21.1"/><path class="cls-1" d="M41.57,14a.23.23,0,0,1-.13.22.2.2,0,0,1-.23-.09.17.17,0,0,1,.07-.22c.1,0,.26,0,.29.09"/><path class="cls-1" d="M61,14.08c0,.11-.07.17-.15.24s-.14,0-.21,0-.07-.11,0-.19a.24.24,0,0,1,.26-.14s.09.06.15.12"/><path class="cls-1" d="M61.76,14c.07.11,0,.19,0,.27a.14.14,0,0,1-.2.06c-.07-.06-.15-.1-.17-.2s.1-.17.17-.2.15.07.24.07"/><path class="cls-1" d="M30.23,14.36c0,.09-.05.13-.08.2s-.1.07-.17,0a.34.34,0,0,1-.16-.19.31.31,0,0,1,.2-.23.3.3,0,0,1,.21.17"/><path class="cls-1" d="M53.31,14.36a.3.3,0,0,1,0,.16c-.07.09-.15.17-.26.11s-.15-.14-.11-.24.27-.17.35,0"/><path class="cls-1" d="M32,14.54c0,.08-.06.16-.16.17s-.13-.08-.19-.13,0-.2.09-.26a.21.21,0,0,1,.26.22"/><path class="cls-1" d="M31,14.56a.27.27,0,0,1-.11.26.28.28,0,0,1-.3-.16.32.32,0,0,1,.2-.27c.1,0,.16.12.21.17"/><path class="cls-1" d="M54,14.54a.24.24,0,0,1-.12.28c-.13,0-.24-.07-.29-.17s.06-.21.19-.24a.25.25,0,0,1,.22.13"/><path class="cls-1" d="M31.46,14.58c0,.09,0,.12-.05.18s-.09.07-.15.05-.14-.09-.15-.17.07-.17.15-.22a.19.19,0,0,1,.2.16"/><path class="cls-1" d="M60.43,14.68a.32.32,0,0,1-.18.18c-.09,0-.15,0-.21-.09s0-.15,0-.21a.22.22,0,0,1,.4.12"/><path class="cls-1" d="M61.26,14.72a.28.28,0,0,1-.26.2c-.09,0-.21-.13-.13-.26s.07-.1.13-.11a.21.21,0,0,1,.26.17"/><path class="cls-1" d="M56.06,14.81c0,.15-.08.19-.16.26a.5.5,0,0,1-.21-.09.26.26,0,0,1,.15-.3.24.24,0,0,1,.22.13"/><path class="cls-1" d="M53.05,14.94c.05,0,0,.11,0,.14s-.16.16-.26.09A.18.18,0,0,1,52.7,15a.21.21,0,0,1,.35,0"/><path class="cls-1" d="M53.66,15a.16.16,0,0,1-.09.19c-.07.08-.16,0-.24,0a.24.24,0,0,1,0-.17.34.34,0,0,1,.15-.09c.08,0,.17,0,.2.11"/><path class="cls-1" d="M35.06,15c.06.08,0,.16,0,.23a.22.22,0,0,1-.28.05c-.11,0-.1-.19-.08-.29s.07-.1.16-.1a.42.42,0,0,1,.22.11"/><path class="cls-1" d="M57.23,15.08c0,.12-.09.16-.16.19s-.2-.06-.26-.15.07-.12.09-.18.25.05.33.14"/><path class="cls-1" d="M56.64,15.08c0,.12-.08.18-.12.24a.22.22,0,0,1-.24-.05.18.18,0,0,1-.06-.17c.07-.07.1-.13.18-.16a.3.3,0,0,1,.24.14"/><path class="cls-1" d="M61.58,15.22c0,.16-.17.09-.25.13a1.7,1.7,0,0,1-1.49-.11c0-.14.2-.09.29-.14.46-.32.95.06,1.42.09Z"/><path class="cls-1" d="M31.58,15.08l0,.08a1.75,1.75,0,0,1-1.42.27l0-.07a1.89,1.89,0,0,1,1.47-.31Z"/><path class="cls-1" d="M58.35,15.16a.24.24,0,0,1-.11.22.23.23,0,0,1-.29-.12c0-.1.06-.19.14-.23s.22,0,.26.13"/><path class="cls-1" d="M33.54,15.21c0,.09,0,.19-.13.23a.24.24,0,0,1-.27-.15c0-.13,0-.16.11-.22s.23,0,.29.14"/><path class="cls-1" d="M32.76,15.27c0,.08,0,.13,0,.18a.18.18,0,0,1-.22,0,.26.26,0,0,1-.12-.27,1,1,0,0,1,.17-.13c.1,0,.2.07.22.19"/><path class="cls-1" d="M59.11,15.54a.21.21,0,0,1-.17.2.27.27,0,0,1-.21-.11.19.19,0,0,1,.05-.22s.09,0,.14-.06a.22.22,0,0,1,.19.19"/><path class="cls-1" d="M32,15.41c0,.09,0,.13-.05.19a1.8,1.8,0,0,1-.25.5c-.2.27-.49.27-.79.35l0-.1a2.91,2.91,0,0,1,1.1-1Z"/><path class="cls-1" d="M58.57,15.66c0,.14-.09.16-.17.22a.23.23,0,0,1-.21-.14c0-.13.07-.17.14-.23a.23.23,0,0,1,.24.15"/><path class="cls-1" d="M33.21,15.66a.08.08,0,0,0,0,.06c0,.12-.1.16-.17.22a.3.3,0,0,1-.24-.12.19.19,0,0,1,.11-.26c.1,0,.23,0,.26.1"/><path class="cls-1" d="M60.59,16c.11,0,.13-.14.25-.17a.26.26,0,0,1,.26.13c0,.14-.05.21-.14.27s-.24-.07-.23.08a.39.39,0,0,1,.15.23s-.1,0-.13,0a1.4,1.4,0,0,1-.79-.72c0-.1-.25-.18-.13-.27a1,1,0,0,1,.76.44"/><path class="cls-1" d="M61.64,15.65a.18.18,0,0,1,0,.22c-.05.11-.22.07-.32.06a.22.22,0,0,1-.09-.21.31.31,0,0,1,.17-.15.29.29,0,0,1,.25.08"/><path class="cls-1" d="M57.66,16.27a1.61,1.61,0,0,1,.24.47s-.08,0-.1,0c-.37-.22-.85-.47-1-.93,0,0-.12-.1-.11-.18a1,1,0,0,1,.76.32,1.48,1.48,0,0,1,.21.3"/><path class="cls-1" d="M32.6,15.83a.2.2,0,0,1-.1.23.25.25,0,0,1-.25-.09c-.08-.13.07-.23.16-.28s.13.09.19.14"/><path class="cls-1" d="M59,16.1c0,.07-.08.12-.11.16s-.18,0-.25,0-.08-.15,0-.21.29,0,.37.08"/><path class="cls-1" d="M61.76,16.26a.29.29,0,0,1-.15.29c-.11,0-.2-.05-.27-.1s0-.14,0-.22a.27.27,0,0,1,.29-.08.42.42,0,0,1,.13.11"/><path class="cls-1" d="M54.17,17.86c0,.13-.24.1-.33.21a2.47,2.47,0,0,1-1.16.16v-.07a1.59,1.59,0,0,1,1.49-.3"/><path class="cls-1" d="M38.18,18.35a.21.21,0,0,1-.16.19.22.22,0,0,1-.19-.11c0-.14.07-.2.14-.26a.26.26,0,0,1,.21.18"/><path class="cls-1" d="M54,18.47c0,.11-.06.22-.17.27s-.16,0-.24-.08,0-.13,0-.19a.24.24,0,0,1,.44,0"/><path class="cls-1" d="M56.16,18.52a1.72,1.72,0,0,1-.93.41l-.6,0-.05,0a1.71,1.71,0,0,1,1.58-.42Z"/><path class="cls-1" d="M35.18,18.8A.23.23,0,0,1,35,19a.22.22,0,0,1-.24-.11.21.21,0,0,1,.09-.26c.12-.09.24.05.29.15"/><path class="cls-1" d="M35.73,18.91c0,.06,0,.1,0,.15a.15.15,0,0,1-.2,0,.13.13,0,0,1-.07-.19c0-.07.1-.06.13-.11a.36.36,0,0,1,.19.15"/><path class="cls-1" d="M31.52,20.08c-.1.14-.27,0-.4-.1-.38-.24-.37-.68-.75-.95,0-.14.14,0,.22,0a1.67,1.67,0,0,0,.23.12c.37.22.46.59.7.94"/><path class="cls-1" d="M46.05,19.86a1,1,0,0,0-.12.41l0,0c0-.17-.14-.28-.09-.47s-.09-.31-.17-.46.09-.26.17-.39c.15.07.2.22.31.36s-.07.35-.06.53M63.48,15.6a.87.87,0,0,0-.82-.47.74.74,0,0,0-.61.47.59.59,0,0,0,.2.63.16.16,0,0,0,.22-.05c.05-.15-.1-.15-.12-.27a.37.37,0,0,1,.12-.4c.11-.11.29-.06.43-.06a.9.9,0,0,1,.33.34,1.06,1.06,0,0,1,0,.61,1,1,0,0,1-.69.58c-.9.14-10.89.09-10.89.09-1.17.11-2.51-.23-3.52.41a1.84,1.84,0,0,0-.81,1.24,8.11,8.11,0,0,0-.85.91l0,0c.05-.28.17-.53.22-.8A5,5,0,0,0,47,18a6.35,6.35,0,0,1,1.46-1.93c.27-.37.75-.3,1.17-.3A2.84,2.84,0,0,0,51.1,16a.1.1,0,0,0,0-.07c-.16-.15-.41-.21-.59-.36-.44-.22-.85.07-1.31,0,0,0,0,0,0-.06a6,6,0,0,1,1.35-.77,8.89,8.89,0,0,1,1.2-.49c.16,0,.32-.16.47,0l.58-.16s0,0,.09,0a5.54,5.54,0,0,1,1.68,0l.08.07.52.14c.2,0,.29.26.5.27.11-.16-.12-.23-.18-.33a1.15,1.15,0,0,1,.73.11l-.11.13c-.06.12,0,.22.13.26s.13,0,.19-.05,0-.21,0-.3a10,10,0,0,1,2.34.69,1.87,1.87,0,0,0,.64.22,2.86,2.86,0,0,0-.84-.46c-.19-.12-.45-.13-.59-.29,0-.06.11,0,.14-.08a1.65,1.65,0,0,0,1-.65c0-.07.15-.05.14-.14s-.26,0-.4,0c-.46.1-.66.67-1.12.77L56,14a3.27,3.27,0,0,1-.81-.18l-.62-.06H53.5s0,0,0-.07c.4-.11.74-.34,1.13-.45l2.94-1.41a6.89,6.89,0,0,0,.83-.95.2.2,0,0,0-.12-.21.17.17,0,0,0-.22,0c-.13.11,0,.23,0,.37a2.06,2.06,0,0,1-.5.44c-.05,0-3,1.41-3,1.41a7.23,7.23,0,0,1-1.33.53l-.64.1a.47.47,0,0,1-.28.27c-.17,0-.32.15-.5.15a11,11,0,0,0-4,2.37,1.6,1.6,0,0,0,.12-.49,1.23,1.23,0,0,0-.12-.51c0-.06-.11-.25-.08-.31l-.17.1a1.68,1.68,0,0,0-.08,1c0,.21.19.45,0,.63A11.14,11.14,0,0,0,46.23,19c-.13,0-.19-.15-.25-.28a3.87,3.87,0,0,0,.78-1.68c.08-.06,0-.21.1-.28s.1-.37,0-.52c.07-.25-.32-.48-.06-.64l-.22.1c-.47.65.25,1.62-.29,2.24V18c-.15.2-.23.41-.44.54-.26-.11-.36-.42-.51-.65a1.07,1.07,0,0,1-.1-1.07,2.07,2.07,0,0,0-.1-.93L45,15.84a1.4,1.4,0,0,0-.15,1.36c.11.21.12.5.29.67a3.39,3.39,0,0,0,.47.85c0,.11-.07.14-.13.19s-.1-.26-.21-.35a8.19,8.19,0,0,0-1.4-2.1c0-.11-.12-.2-.07-.31a.85.85,0,0,0,.15-.88c0-.06-.09-.13-.08-.19l-.16-.14c0,.41-.23.77-.12,1.19v0A20.58,20.58,0,0,0,40,13.85l-.1.29a7.86,7.86,0,0,1,1.17.63,7,7,0,0,1,1.1.61,7.84,7.84,0,0,1,3.14,3.89c0,.13.13.27.05.4a5.85,5.85,0,0,0-.84-.88,1.66,1.66,0,0,0-.82-1.28c-.17-.26-.52-.28-.79-.36l-4,0c-3.25-.05-6.22.1-9.43,0-.45,0-1-.21-1.13-.71a.77.77,0,0,1,0-.63.65.65,0,0,1,.56-.31c.17,0,.29.2.37.32s-.12.29-.17.42,0,.14.12.11a.52.52,0,0,0,.29-.38c0-.08,0-.19,0-.25a.72.72,0,0,0-.52-.47.83.83,0,0,0-.74.27,1,1,0,0,0-.18,1,1.47,1.47,0,0,0,1.18.92l10.67,0a22.38,22.38,0,0,1,3.27.1,1.28,1.28,0,0,1,.88.87s0,0-.07,0a4.62,4.62,0,0,0-3.12-.66,3.71,3.71,0,0,0-1.23.26.6.6,0,0,1-.53-.18,1.73,1.73,0,0,0-1.58-.21s0,.07,0,.08c.54,0,.85.43,1.34.49.11,0,.19-.1.3,0a10.5,10.5,0,0,1-1.52.72c-.17,0-.26-.2-.39-.29-.21-.25-.59-.14-.87-.16-.1,0-.19,0-.26,0a1,1,0,0,0,.47.38c.28.12.59,0,.85.16a1.19,1.19,0,0,1-.23.16c-.52.21-1,.69-1.52.66a1.93,1.93,0,0,1-1.62-.55A1.08,1.08,0,0,0,33,18.63s-.08,0-.06.07c.24.16.42.45.67.63s.45,0,.59.22a1.9,1.9,0,0,0,.71.32,2.19,2.19,0,0,0,.57.16l-.08,0a9,9,0,0,1-3.27.34c-.32,0-.64-.12-1-.11a.61.61,0,0,0,.27.16.53.53,0,0,1-.3.09,2.44,2.44,0,0,0-.42.12,1,1,0,0,0-.47.11,2.11,2.11,0,0,1-.63.54c0,.05,0,.11.05.11.21-.09.47,0,.68-.11.37,0,.57-.45.86-.63a1.42,1.42,0,0,1,1.11-.14c.22.06,0,.16,0,.31s.17.17.29.13l.07-.06a.26.26,0,0,0,0-.28c.15-.1.36,0,.53-.06.41,0,.83-.1,1.23-.12.07,0,.14-.08.21,0s-.14.11-.1.23a.27.27,0,0,0,.22.18c.11-.05.21-.13.17-.28s-.12-.09-.17-.13c.23-.11.5-.15.73-.26a2.27,2.27,0,0,0,.46-.16c.14,0,.26-.15.39-.09a2.38,2.38,0,0,1-.23.55,2.9,2.9,0,0,0,0,2s.05,0,.07,0a2.85,2.85,0,0,1,.1-1.89c.15-1,1.11-1.27,1.8-1.64l0,.05a3.65,3.65,0,0,0-.41,1.6c0,.11-.05.21,0,.28a1.08,1.08,0,0,0,.4-.53c.08-.52-.2-1.17.3-1.55A7.39,7.39,0,0,1,41.2,18s.1,0,.12,0a2.69,2.69,0,0,0-.83,2.8c.1.36-.19.56-.34.84-.06.1-.09.27-.15.38l.22,0a1.22,1.22,0,0,0,.37-.76.33.33,0,0,0,.21.23c.08-.12-.06-.22-.07-.35.17-.1.25.13.39.18a2.52,2.52,0,0,0,.67.16l.08-.08a1.32,1.32,0,0,0-1.14-.49,2.31,2.31,0,0,1-.21-1.31,2.25,2.25,0,0,1,.23-.72,1.63,1.63,0,0,1,.3-.44,1.4,1.4,0,0,1,.69-.38h0a0,0,0,0,0,0,0c-.3.24-.33.57-.51.87a1,1,0,0,0-.1,1c.07.15,0,.38.19.48a2.5,2.5,0,0,0,.23-.7c0-.38-.25-.74,0-1.11a.91.91,0,0,1,.59-.51,3.26,3.26,0,0,1,1.65.51c.11.08.3.15.32.31a1,1,0,0,1-.4.77.89.89,0,0,1-1,0,.77.77,0,0,1-.17-.7.43.43,0,0,1,.48-.19c.11.06.21.18.35.11a.17.17,0,0,0,0-.19c-.12-.07-.16-.24-.33-.26a.67.67,0,0,0-.6.12.83.83,0,0,0-.25.81,1,1,0,0,0,.68.75,1.25,1.25,0,0,0,1.34-.49,1.54,1.54,0,0,0,.24-.5,2.94,2.94,0,0,1,1.13,1.52,2.89,2.89,0,0,1,0,.58l.38,0a.45.45,0,0,1,0-.28,3.51,3.51,0,0,1,1.13-1.9c.18-.11.14.16.18.24a1.5,1.5,0,0,0,1,.87,1.18,1.18,0,0,0,1.19-.4c.14-.28.32-.69.07-1a.73.73,0,0,0-.6-.3.75.75,0,0,0-.6.43c0,.09,0,.19.07.24s.12,0,.16-.06.16-.25.29-.35a.37.37,0,0,1,.36.07.65.65,0,0,1-.21,1A1.11,1.11,0,0,1,48,19.8a2.29,2.29,0,0,1-.3-.5.83.83,0,0,1,0-.54,3.6,3.6,0,0,1,1.57-.58,1.23,1.23,0,0,1,.58.38c.5.55-.11,1.32.23,1.92.13,0,.13-.2.19-.31a2.17,2.17,0,0,0-.14-1.28,2.66,2.66,0,0,0-.42-.68.24.24,0,0,1,.14,0,3.13,3.13,0,0,1,.66.61,3.23,3.23,0,0,1,.43,1.89c-.09.34-.44.51-.71.64a1,1,0,0,0-.3.37.56.56,0,0,0,.45-.06c.21-.08.33-.36.47-.49s0,.05,0,.07,0,.3.06.34A4.89,4.89,0,0,0,51,21a1.08,1.08,0,0,1,.21.58c.1.2.27.48.53.52.06-.11,0-.21,0-.3,0-.29-.27-.44-.42-.65-.38-.55-.21-1.43-.5-2.05a2.54,2.54,0,0,0-.6-.85l0-.05a6.57,6.57,0,0,1,1.48.28c.6.31,1.48.24,1.76,1.06a3.15,3.15,0,0,0,.63,1.25l0,0a.54.54,0,0,0,0-.43c-.07-.58-.55-.72-.81-1.2l0-.05a6.41,6.41,0,0,1,.81.27,2.45,2.45,0,0,1,1.6,2.09,4.65,4.65,0,0,1-.41,2c0,.09-.19.19-.09.27.12-.09.15-.24.21-.34A3.36,3.36,0,0,0,55.87,21c0-.15-.17-.26-.09-.41a.3.3,0,0,0,.19.1c.06,0,.15,0,.19-.12s.06-.16,0-.21-.19-.11-.31-.08a.55.55,0,0,0-.13.25,2.44,2.44,0,0,0-.39-.61l0,0c.49.18.94.43,1.44.57a.69.69,0,0,0,.39.12,8.53,8.53,0,0,0,1.34.36c.33,0,.61.13.94,0v0c-.12-.16-.39,0-.53-.13a8.17,8.17,0,0,1-2.16-.56s.05,0,.09,0A.31.31,0,0,0,57,20a.27.27,0,0,0-.25-.14c-.07,0-.16.12-.16.2a.24.24,0,0,0,.16.22s-.07,0-.1,0l-1-.47c-.12,0-.22-.13-.34-.15l-.76-.36a17.18,17.18,0,0,0-2.23-.87l-.47-.13c-.27-.09-.55-.15-.82-.23a4.06,4.06,0,0,0-3,.26c-.13-.05-.21.17-.28,0a1.56,1.56,0,0,1,1.51-.87c4.39,0,8.51-.08,12.84-.15a1.35,1.35,0,0,0,1.26-.66,1.2,1.2,0,0,0,.08-1.06"/><path class="cls-1" d="M57.94,19.13s.07.05.05.11a2.22,2.22,0,0,1-1.47.48c-.05,0-.09.05-.15,0s0-.06,0-.08a1.62,1.62,0,0,1,1.59-.55"/><path class="cls-1" d="M56.18,19.32a.27.27,0,0,1-.17.31.3.3,0,0,1-.24-.18c0-.1,0-.14.07-.2a.2.2,0,0,1,.34.07"/><path class="cls-1" d="M35.34,19.34a.25.25,0,0,1-.05.24.22.22,0,0,1-.2.06c-.08,0-.12-.1-.14-.17a.24.24,0,0,1,.14-.22c.09,0,.19,0,.25.09"/><path class="cls-1" d="M33.38,20.09v.08a.79.79,0,0,1-.72-.18,1.51,1.51,0,0,0-.58-.57s-.06-.08,0-.1c.55,0,.89.46,1.3.77"/><path class="cls-1" d="M59.61,19.33c-.25.39-.47.88-.92,1.05-.08,0-.14.12-.21,0a2.08,2.08,0,0,1,1-1.1.38.38,0,0,1,.15,0"/><path class="cls-1" d="M36,19.47c0,.13-.08.15-.16.21s-.13-.05-.18-.12,0-.16.11-.22a.23.23,0,0,1,.23.13"/><path class="cls-1" d="M61,19.54c-.1.14-.05.37-.15.53s-.41.57-.76.62c0-.11.08-.23.13-.33a1.66,1.66,0,0,1,.73-.89Z"/><path class="cls-1" d="M30,19.64a.2.2,0,0,1-.25.3.22.22,0,0,1-.09-.27c.07-.11.27-.17.34,0"/><path class="cls-1" d="M29.36,19.78c0,.06,0,.1,0,.16s-.09.13-.15.14a.25.25,0,0,1-.26-.15.24.24,0,0,1,.12-.25.23.23,0,0,1,.26.1"/><path class="cls-1" d="M30.66,19.85c0,.09,0,.25-.1.28s-.24-.05-.33-.14a.25.25,0,0,1,.14-.23.29.29,0,0,1,.29.09"/><path class="cls-1" d="M32.45,20c0,.09,0,.21-.08.23s-.15,0-.21,0-.14-.12-.08-.21a.57.57,0,0,1,.15-.12c.07,0,.18,0,.22.08"/><path class="cls-1" d="M62.05,20.08c0,.09-.08.19-.17.19s-.2,0-.25-.13,0-.2.14-.23a.28.28,0,0,1,.28.17"/><path class="cls-1" d="M60,20.14c0,.09-.09.16-.13.19a.26.26,0,0,1-.34-.16.28.28,0,0,1,.18-.21c.15,0,.22.06.29.18"/><path class="cls-1" d="M61.4,20.12a.24.24,0,0,1-.1.19.25.25,0,0,1-.26,0c-.1-.1,0-.18,0-.25s.29,0,.32.1"/><path class="cls-1" d="M29.7,20.31a.25.25,0,0,1-.14.29.25.25,0,0,1-.23-.16c0-.11,0-.21.11-.24a.26.26,0,0,1,.26.11"/><path class="cls-1" d="M59.49,20.44a.26.26,0,0,1-.15.3.21.21,0,0,1-.21-.08c0-.06-.1-.19,0-.24a.21.21,0,0,1,.38,0"/><path class="cls-1" d="M35.59,20.56c0,.13-.08.16-.11.23s-.14,0-.17,0-.12-.13-.09-.24.08-.09.15-.11.16.08.22.14"/><path class="cls-1" d="M61.85,20.65c0,.08,0,.11-.06.17a.28.28,0,0,1-.25.05c-.1-.06-.1-.15-.1-.26s.08-.1.16-.13a.25.25,0,0,1,.25.17"/><path class="cls-1" d="M61.17,20.68c0,.14-.08.21-.17.24s-.11,0-.12,0a2.83,2.83,0,0,1,.68.61v.1a1.49,1.49,0,0,1-1.09-.45c-.07-.05-.2-.05-.29-.13.14-.16.41-.1.6-.11s-.16-.27,0-.41.11-.08.19-.06a.38.38,0,0,1,.17.16"/><path class="cls-1" d="M56.68,20.69c0,.06,0,.13,0,.19a.23.23,0,0,1-.25,0c-.05-.08-.14-.15-.1-.26a.22.22,0,0,1,.4,0"/><path class="cls-1" d="M32.17,21.1a.21.21,0,0,1-.19.18.21.21,0,0,1-.19-.14c0-.08,0-.13.05-.18a.19.19,0,0,1,.33.14"/><path class="cls-1" d="M33.06,20.94c0,.17-.16.26-.22.42a1.15,1.15,0,0,1-.88.77c0-.11.14-.23.19-.34a2.39,2.39,0,0,1,.85-.85Z"/><path class="cls-1" d="M56.42,21.11a.29.29,0,0,1-.19.26c-.09,0-.17,0-.22-.09s0-.18,0-.28.31,0,.4.11"/><path class="cls-1" d="M57.1,21.19a.27.27,0,0,1-.2.25s-.07,0-.11,0a.23.23,0,0,1-.14-.21c.05-.06.07-.15.15-.16s.26,0,.3.14"/><path class="cls-1" d="M34.76,21.18a.24.24,0,0,1-.16.24.22.22,0,0,1-.21-.14c0-.1.08-.17.13-.23s.16.06.24.13"/><path class="cls-1" d="M35.52,21.23a.26.26,0,0,1-.21.19c-.08,0-.17,0-.2-.14s.08-.17.16-.23a.24.24,0,0,1,.25.18"/><path class="cls-1" d="M59.46,22c.06,0,.15.11.13.19-.18.08-.32-.13-.48-.16a2.35,2.35,0,0,1-.58-.93c.1-.1.22,0,.3.06a2.19,2.19,0,0,1,.63.84"/><path class="cls-1" d="M59.86,21.23a.28.28,0,0,1,0,.25c-.07.12-.21.09-.31.07s-.15-.16-.08-.27.13-.11.21-.15.13.06.2.1"/><path class="cls-1" d="M36.53,21.52c0,.1,0,.24-.08.29a.2.2,0,0,1-.26-.13c-.06-.14.06-.17.13-.24s.14,0,.21.08"/><path class="cls-1" d="M57.06,22.28a1.65,1.65,0,0,1,.29.81c0,.09,0,.17,0,.23h0a2.54,2.54,0,0,1-.79-1.41.1.1,0,0,1,0-.12c.11-.1.19.11.3.14Z"/><path class="cls-1" d="M38,21.88s0,0,0,0a1.39,1.39,0,0,1-1.55.2.09.09,0,0,1,.05-.1,2.19,2.19,0,0,1,1-.22Z"/><path class="cls-1" d="M35.45,21.94c-.37.24-.71.72-1.17.83-.09,0-.15.17-.25.09a1.61,1.61,0,0,1,1.42-1Z"/><path class="cls-1" d="M56.42,22.46c0,.09,0,.22-.09.24a.14.14,0,0,1-.21,0c-.09,0-.09-.15-.09-.23s.11-.09.16-.13.17,0,.23.12"/><path class="cls-1" d="M55.51,22.52a.62.62,0,0,1-.39.3,1.61,1.61,0,0,1-1-.14c0-.09.12-.06.17-.11a2.13,2.13,0,0,1,1.12-.06.1.1,0,0,1,.14,0"/><path class="cls-1" d="M35.45,22.86s0,.14-.13.18a.25.25,0,0,1-.22,0c0-.08-.1-.14,0-.22s.11-.1.17-.12a.23.23,0,0,1,.22.2"/><path class="cls-1" d="M36.1,23c0,.07-.07.17-.16.22a.23.23,0,0,1-.21-.09.26.26,0,0,1,0-.23c0-.05.1-.06.16-.1s.2.1.25.2"/><path class="cls-1" d="M56.21,23.07a.32.32,0,0,1-.07.22.18.18,0,0,1-.24.05c-.08,0-.1-.1-.13-.16s0-.15.07-.23a.23.23,0,0,1,.37.12"/><path class="cls-1" d="M56.69,23.05c0,.06.05.12,0,.16s-.1.21-.24.15-.1-.07-.13-.09,0-.29.13-.31.17.06.22.09"/><path class="cls-1" d="M35.7,23.39a.3.3,0,0,1-.11.31c-.11,0-.27,0-.31-.13a.31.31,0,0,1,.13-.33.24.24,0,0,1,.29.15"/><path class="cls-1" d="M36.33,23.34a1.05,1.05,0,0,1-.39.89c-.18,0-.36.21-.53.1v-.06a10.08,10.08,0,0,1,.92-.93"/><path class="cls-1" d="M54.49,23.6c0,.07,0,.13-.06.18a.2.2,0,0,1-.26,0c-.08,0-.09-.15-.06-.23s.09-.1.14-.13a.29.29,0,0,1,.24.16"/><path class="cls-1" d="M37.43,24.14c.15.25.06.61.15.91-.18,0-.26-.2-.38-.32a3.8,3.8,0,0,1-.32-1.21.06.06,0,0,1,.08,0,3.72,3.72,0,0,1,.41.48c0,.09.07.09.06.16"/><path class="cls-1" d="M55,23.7c0,.08-.1.11-.15.17a.41.41,0,0,1-.21-.1c0-.12,0-.15.11-.21a.18.18,0,0,1,.25.14"/><path class="cls-1" d="M56.34,24.72s0,.1-.06.08h-.05a1.37,1.37,0,0,1-.58-1.09h.06a1.41,1.41,0,0,1,.63,1"/><path class="cls-1" d="M55.52,24.35a.27.27,0,0,1-.1.22c-.12,0-.3,0-.32-.15s.1-.18.16-.22a.2.2,0,0,1,.26.15"/><path class="cls-1" d="M54.8,24.59c-.15.43-.57.65-.86,1,0,0,0-.13,0-.17a1.57,1.57,0,0,1,.85-1c.17,0,0,.15,0,.24"/><path class="cls-1" d="M55.62,24.94c0,.11-.1.15-.15.2a.31.31,0,0,1-.24-.12c0-.11.07-.15.14-.21a.23.23,0,0,1,.25.13"/><path class="cls-1" d="M47.48,4.07h-.12c-.32,0,0,.41.12.41s.22-.41,0-.41m-1,.41c.31,0,0-.41-.16-.41H46c-.32,0,0,.41.15.41Zm-1.34,0c.32,0,0-.41-.15-.41h-.32c-.31,0,0,.41.16.41Zm2.3-.5a.27.27,0,0,1,.27.29.27.27,0,0,1-.27.28H44.21a.27.27,0,0,1-.27-.28A.28.28,0,0,1,44.21,4Z"/><path class="cls-1" d="M47.49,9.25c0,.15.19.05.33.05s.34.1.34-.05-.19-.13-.34-.13-.33-.08-.33.13m.61.36c.14,0,.15-.21.15-.38,0-.4-.3,0-.45-.37-.12.31-.42,0-.42.36s0,.39.22.39Zm-.92-1.73.62.25.61-.25-.24,1,.49-.1-.17.58.17.56-.44-.13.19,1-.61-.25-.62.25.25-1-.49.15.13-.58-.13-.56.47.08Z"/><path class="cls-1" d="M42.25,22.27c-.12,0-.16.08-.14.2l.15.61a.61.61,0,0,1,0,.4.78.78,0,0,1-.4.25.84.84,0,0,1-.47,0c-.11,0-.18-.1-.23-.31L41,22.77c0-.16-.1-.14-.22-.13v0l.73-.19v.05c-.14,0-.2.06-.17.23l.15.63c0,.11.08.38.4.3a.38.38,0,0,0,.29-.51L42,22.52c0-.11-.07-.17-.26-.13v-.05l.48-.12Z"/><path class="cls-1" d="M43.34,22.39a.47.47,0,0,0-.5-.25c-.12,0-.22.12-.2.24s.08.13.27.17l.35.07a.38.38,0,0,1,.32.3c0,.16,0,.43-.46.52a1.44,1.44,0,0,1-.39,0s0,.05,0,.08l-.06,0-.1-.48h.07a.46.46,0,0,0,.53.31c.26-.07.23-.26.22-.28s-.13-.15-.29-.18l-.16,0c-.4-.07-.44-.23-.46-.32s0-.39.4-.49a3.05,3.05,0,0,1,.36,0c.05,0,.05,0,.06-.08h.07l.08.42Z"/><path class="cls-1" d="M44.78,23.15l-.79.09v0c.16,0,.22,0,.2-.21l-.09-1c-.16,0-.38.06-.4.38h-.06l0-.39,1.33-.14,0,.4h-.06a.37.37,0,0,0-.46-.28l.1,1c0,.16.06.16.23.16Z"/><path class="cls-1" d="M45.67,22.46c.3,0,.41,0,.42-.3s-.09-.28-.27-.29-.13,0-.14.08Zm1,.69h-.46l-.45-.63h-.06v.38c0,.16.05.17.2.19v.05l-.76,0v-.05c.15,0,.2,0,.2-.17l0-.87c0-.17-.07-.18-.2-.19v-.05l.72,0c.15,0,.62,0,.62.36s-.24.29-.36.32l.44.57a.12.12,0,0,0,.09.05Z"/><path class="cls-1" d="M47.49,22.8l-.17-.5-.26.45Zm.62.55-.72-.1v0c.14,0,.17,0,.18-.06a.77.77,0,0,0-.07-.27l-.5-.06a1.59,1.59,0,0,0-.13.24c0,.07.1.09.18.1v.05l-.45-.06v0c.13,0,.17-.07.25-.21l.62-1h.06L47.91,23c.07.22.1.29.2.3Z"/><path class="cls-1" d="M49.41,23.63l-1.27-.24v-.06c.13,0,.19,0,.21-.09l.16-.94c0-.13-.06-.15-.16-.17v-.05l.76.15v0c-.16,0-.23,0-.25.14l-.17.91c0,.1,0,.12.19.15a.56.56,0,0,0,.62-.27h.06Z"/><path class="cls-1" d="M50.26,23.82l-.77-.16v-.05c.12,0,.2,0,.23-.09l.18-.94c0-.12-.07-.14-.17-.17v-.05l.76.17v0c-.11,0-.21,0-.24.09l-.18.92c0,.13.06.15.18.19Z"/><path class="cls-1" d="M51.17,23.5,51,23l-.26.45Zm.64.53L51.09,24v0c.14,0,.18,0,.18-.06a.72.72,0,0,0-.07-.27l-.5-.06a.79.79,0,0,0-.12.25c0,.07.1.09.17.1v.05l-.45-.05v-.05c.12,0,.16-.06.24-.2l.6-1h.06l.4,1.08c.07.22.1.29.21.3Z"/><path class="cls-1" d="M45.7,8.29c-.13,0-.31.09-.31-.07s.15-.18.29-.18S46,8,46,8.22s-.18.07-.31.07m.4-.09c0-.47-.26,0-.4-.44-.1.34-.41.06-.41.43a.32.32,0,0,0,.1.26v.14a.06.06,0,0,0,.06.06h.48s.07,0,.07-.06V8.44a.34.34,0,0,0,.1-.24"/><path class="cls-1" d="M50,14a.2.2,0,0,0,.21-.19A.2.2,0,0,0,50,13.6a.21.21,0,0,0-.2.19A.2.2,0,0,0,50,14"/><path class="cls-1" d="M49,7a1.29,1.29,0,0,0-.09.2c0,.07,0,.11.09.11a.1.1,0,0,0,.11-.11L49,7"/><path class="cls-1" d="M42.43,7a1.23,1.23,0,0,0-.1.2.1.1,0,0,0,.1.11s.09,0,.09-.11L42.43,7"/><path class="cls-1" d="M44.08,7a1.23,1.23,0,0,0-.1.2.1.1,0,1,0,.2,0l-.1-.2"/><path class="cls-1" d="M45.73,7a1.29,1.29,0,0,0-.09.2c0,.07,0,.11.09.11a.1.1,0,0,0,.1-.11l-.1-.2"/><path class="cls-1" d="M47.39,7a1.23,1.23,0,0,0-.1.2.1.1,0,1,0,.2,0l-.1-.2"/><path class="cls-1" d="M42.43,9.38a1.29,1.29,0,0,1,.09.2c0,.07,0,.11-.09.11a.1.1,0,0,1-.1-.11Z"/><path class="cls-1" d="M42.43,11.69a1.29,1.29,0,0,1,.09.2.1.1,0,1,1-.19,0Z"/><path class="cls-1" d="M42.69,13.51a1.86,1.86,0,0,1,.1.2c0,.07,0,.12-.1.12a.11.11,0,0,1-.1-.12Z"/><path class="cls-1" d="M44.08,14.48a1.86,1.86,0,0,1,.1.2.12.12,0,0,1-.1.13c-.06,0-.1-.06-.1-.13Z"/><path class="cls-1" d="M49.13,9.38a1.23,1.23,0,0,0-.1.2.1.1,0,1,0,.2,0Z"/><path class="cls-1" d="M49.13,11.69a1.23,1.23,0,0,0-.1.2.1.1,0,1,0,.2,0Z"/><path class="cls-1" d="M48.86,13.51a2,2,0,0,0-.09.2c0,.07,0,.12.1.12a.11.11,0,0,0,.1-.12Z"/><path class="cls-1" d="M47.47,14.48a2,2,0,0,0-.09.2c0,.07,0,.13.1.13s.09-.06.09-.13Z"/><path class="cls-1" d="M45.79,15.52a1.2,1.2,0,0,0-.11.2.11.11,0,0,0,.11.11.11.11,0,0,0,.1-.11Z"/><path class="cls-1" d="M48.48,12.07s.07,0,.14,0l.06-.18s-.07-.09-.12-.08-.36.07-.47.24a.36.36,0,0,0,.17.28c.06,0,.07.05.12.08s0,.1-.08.1-.34.05-.43-.12.12-.35,0-.5c0,0,.07-.07,0-.1s-.21,0-.31,0a.37.37,0,0,0-.37.19.33.33,0,0,0,.08.17s.06,0,.08,0l-.11.06a.28.28,0,0,1,0,.12c-.07,0-.15-.07-.17-.13s0-.24-.11-.26l-.09,0a.3.3,0,0,0,0,.19.81.81,0,0,0,0,.19,1.83,1.83,0,0,1,.39.4c-.09.2-.09.47-.31.58a.21.21,0,0,0-.06.18l0,0c.13-.08.4-.09.38-.33a.81.81,0,0,1,.19-.29.21.21,0,0,1,.24.12.41.41,0,0,1-.28.33s0,.06,0,.09.16,0,.22,0,.25-.34.41-.41c0,.11-.21.15-.06.25s.21,0,.28-.12.24-.27.05-.43c0-.17.16-.23.15-.41s-.26-.18-.31-.34a.24.24,0,0,1,.22,0"/><path class="cls-1" d="M40.87,14.07a.2.2,0,0,0,.21-.19.21.21,0,0,0-.42,0,.2.2,0,0,0,.21.19"/><path class="cls-1" d="M30.14,20.63a.2.2,0,0,0,.2-.21.2.2,0,0,0-.2-.2.21.21,0,1,0,0,.41"/><path class="cls-1" d="M36.94,22.2h0Zm0,0h0l0,0h0v0h0s0,0,0,0h0v0Z"/><path class="cls-1" d="M37,22.19h0v0a0,0,0,0,0,0,0h0s0,0,0,0h0Z"/><path class="cls-1" d="M37.07,22.18h0v0h0v0h0v0h0v0h0Z"/><path class="cls-1" d="M37.08,22.2h0s0,0,0,0h0m0,0,0,0h0a0,0,0,0,1,0,0s0,0,0,0,0,0,0,0"/><path class="cls-1" d="M37.11,22.19h0a0,0,0,0,1,0,0h0v0h0Z"/><path class="cls-1" d="M49.38,12.91a1.4,1.4,0,0,1-.5,1.07L46,15.89h0a.29.29,0,0,1-.22.09.31.31,0,0,1-.22-.09L42.67,14a1.4,1.4,0,0,1-.5-1.07v-6h7.21Zm.22-6.18H42v6.1a1.48,1.48,0,0,0,.6,1.33l2.94,2a.36.36,0,0,0,.26.12.32.32,0,0,0,.24-.09l3-2a1.46,1.46,0,0,0,.6-1.33V6.73Z"/><path class="cls-1" d="M46.81,15.63l.09-.05a.19.19,0,0,0-.09.05"/><path class="cls-1" d="M40.31,23.59,40,23.15l-.15.5ZM41,24l-.72.09v0c.13,0,.17,0,.16-.1a.82.82,0,0,0-.13-.24l-.49.06a1.43,1.43,0,0,0-.08.26c0,.07.12.07.19.06v.05l-.45.06v-.05c.11,0,.14-.1.19-.26l.37-1.13h.06l.61,1c.13.2.17.26.28.24Z"/><path class="cls-1" d="M53.41,21.55a.62.62,0,0,1-.48.39c0-.28.26-.47.17-.79a.67.67,0,0,0-.69-.23c-.1.07-.06.19-.09.29l0,.39c-.23,0-.23-.21-.3-.38a.65.65,0,0,1,.34-.59.69.69,0,0,1,.64,0c.14,0,.31.1.35.24s.13.45.1.66m-.89.11c.12-.12,0-.85.31-.38,0,.09,0,.23-.08.3s-.14.14-.23.08m.12.29c0,.19-.16.14-.24.21h-.26a.59.59,0,0,1,0-.32,2,2,0,0,1,.54.11M53,23.36c-.09.12,0,.3-.12.41s-.17.31-.31.39a9.84,9.84,0,0,1-3.85-.39,12.84,12.84,0,0,0-5.62-.1c-.84.17-1.67.37-2.48.61a3.48,3.48,0,0,1-1.54,0c-.39-.19-.23-.72-.35-1.09a7,7,0,0,0-.08-.8.63.63,0,0,1-.05-.3,4.12,4.12,0,0,1,.51.2,6.71,6.71,0,0,0,2.6-.29,17.42,17.42,0,0,1,2.52-.41,15.18,15.18,0,0,1,3,.11c.3,0,.57.09.86.11.62.08,1.19.26,1.81.3a1.91,1.91,0,0,0,.33.06,5.05,5.05,0,0,0,3,0,9.4,9.4,0,0,1-.21,1.2m-5.58.85a.76.76,0,0,1,.11.5c-.11.22-.33.22-.53.26a.29.29,0,0,1-.25-.08.11.11,0,0,0-.05-.11c0-.15-.25-.3,0-.43s.59-.57.77-.14m.25,0c.13,0,.14.18.15.3a.6.6,0,0,1-.37.56.54.54,0,0,1-.43.05.71.71,0,0,0,.66-.39Zm.29,1.53s0,0,0,0a1.21,1.21,0,0,1-.77-.36v0a1.89,1.89,0,0,1,.81.36m-.41,1.07s-.07,0-.09,0a6.21,6.21,0,0,1-.69-1.39h0c.27.45.47.94.74,1.39M47,26.57l-.05,0c-.06,0,0-.17,0-.24a.18.18,0,0,1,.08.22m-.31-.69c0,.11.12.16.06.26a.37.37,0,0,1-.06-.26m0-.74h0v0h0Zm-.66,1.67c-.21,0-.52.14-.72,0,0-.09-.09-.13-.08-.23.17-.07.33.16.49,0a3.94,3.94,0,0,1,.77,0c.12,0,.31-.21.33,0s-.53.12-.79.23m-.48-1.38,0-.08a5.38,5.38,0,0,1-.36.82c-.07-.27.21-.49.31-.74m.3-.21c.15-.16.28.09.34.21s.59.49.42.84c-.21.19-.54,0-.77.16-.12,0-.33,0-.39-.11a8,8,0,0,1,.4-1.1m0-.44h0l.06-.07s0,0,0,.07m.25,0c.05-.07.1-.17.18-.17s0,0,0,0a.52.52,0,0,1-.2.14m.16.17a.08.08,0,0,1,.09,0Zm.3.36s0,.06,0,.09l-.25-.21a.26.26,0,0,1,.28.12m0-.7h0v0h0Zm.47-.71c-.13,0-.23.21-.36.24a.44.44,0,0,1,.36-.24m-.55-.15c0-.11.1,0,.15-.07l.34,0c-.18,0-.4.41-.49.05m-.8.32a1.29,1.29,0,0,1,.17-.43.56.56,0,0,1,.29.05c0,.23.3.54,0,.73-.09,0-.24.15-.35,0a.34.34,0,0,1-.11-.4m-.16.71c0-.05,0-.1,0-.16s.11.05.13.08a.15.15,0,0,1-.16.08m0-.53h0v-.12h0Zm-.13-.35c-.15,0-.22-.2-.38-.2a.85.85,0,0,1,.42,0c.05.07,0,.15,0,.21m-.12.94a1.78,1.78,0,0,1,.17-.49,1.11,1.11,0,0,1-.17.49m-.25,0a2.83,2.83,0,0,1-.52-.14c-.11-.12,0-.24,0-.37a.55.55,0,0,1,.8-.14,1.23,1.23,0,0,1-.28.65m.11.31v0h0v-.06h0Zm-.28.67a10,10,0,0,1-.54,1.09c0,.05-.11.06-.17.08,0-.16.15-.29.21-.43.23-.31.3-.65.56-.95.07.07-.06.12-.06.21m-1-.12c.26-.11.54-.35.83-.25a1.34,1.34,0,0,1-.83.25m.39-.79a1.28,1.28,0,0,1,.36-1,.57.57,0,0,1,.46,0c-.28.07-.64.15-.71.52,0,.15,0,.23,0,.36s.39.13.55.3a.15.15,0,0,1-.11.14,5.58,5.58,0,0,1-.59-.31M38.9,21.22c0-.09,0-.23.11-.25s.2,0,.21.07a1.68,1.68,0,0,1-.06.4.24.24,0,0,1-.26-.22m0,.39c.16.13.39.07.59.11a.45.45,0,0,1-.06.39c-.18-.05-.43,0-.53-.21s0-.19,0-.29m-.52-.33a.89.89,0,0,1,.26-.58.92.92,0,0,1,.87,0,.43.43,0,0,1,.17.22.5.5,0,0,1-.16.51h-.11a1.22,1.22,0,0,1,.07-.51c0-.14-.12-.15-.21-.21a.63.63,0,0,0-.5.12.53.53,0,0,0-.14.5c.08.13,0,.31.06.44l0,.05a.7.7,0,0,1-.27-.58M48.7,26.19a5,5,0,0,0,1.17.29c0,.16-.3,0-.27.23a2.61,2.61,0,0,1-1-.48.1.1,0,0,1,.09,0m-6.85.18-.15-.14c.08-.11.24-.06.36-.12A1.74,1.74,0,0,1,43,26a2.48,2.48,0,0,1-1.14.4m11.84-5.26a1.18,1.18,0,0,0-.74-.72.94.94,0,0,0-1,.26c-.39.33-.12.89-.11,1.34,0,.09,0,.16-.08.2-1.59-.14-3.06-.56-4.64-.74-.36-.06-.73,0-1.07-.12l-.44,0a17.92,17.92,0,0,0-4,.48c-.27.09-.58.11-.85.22s-.36.11-.55.06l-.36.08a.17.17,0,0,1-.12,0c-.18-.47.35-.76.18-1.22a.78.78,0,0,0-.76-.47.89.89,0,0,0-.87.47c-.26.58.06,1.18.16,1.75,0,.18.18.39,0,.54a1.41,1.41,0,0,0-1.23-.27c-.14.07-.38,0-.44.14a3,3,0,0,0,1.59.21c.07,0,.12,0,.17,0,0,.3,0,.71.12,1a1.16,1.16,0,0,0,.85.38A13,13,0,0,0,42.33,24c.15,0,.26-.09.41-.09a7.33,7.33,0,0,1,1.55-.22,3.1,3.1,0,0,0-.46,1c-.12.32.24.36.35.54a7,7,0,0,0-.9.48,12.41,12.41,0,0,0-2,.34c0,.15.23.1.25.25s-.14.12-.21.17,0,.09.07.1.21,0,.27-.11c.22,0,.41-.07.61-.08a2,2,0,0,0,.57-.23c.22-.07.37-.23.6-.3a8.84,8.84,0,0,0,.92-.14v.07c-.25.43-.51.87-.77,1.27a.14.14,0,0,0,.08.19.55.55,0,0,0,.42-.07c.23-.42.44-.81.63-1.24a1.68,1.68,0,0,1,.62-.87s.11-.09.16,0a5.93,5.93,0,0,0-.53.81,1,1,0,0,0,.17,1c.12.11.32.07.5.09.42-.23,1,.13,1.3-.3.2,0,.23.21.34.32s.39.26.58.11c0-.12-.15-.24-.21-.35s-.3-.44-.42-.66a2.62,2.62,0,0,1-.18-.43,4,4,0,0,0,.6.25c.18.08.41.06.59.18a2.13,2.13,0,0,0,.55.44c.27.14.58.16.86.28.11,0,.27.1.35,0a.48.48,0,0,0-.16-.13c0-.15.19-.07.27-.19a.16.16,0,0,0-.13-.08c-.15-.09-.54-.12-.65-.18a1.9,1.9,0,0,1-.38-.13c-.66,0-1-.62-1.55-.85.12-.12.31-.21.39-.39a.66.66,0,0,0,0-.61c-.1-.35-.54-.31-.79-.51l0,0a4.17,4.17,0,0,1,1.19.16,24.54,24.54,0,0,0,3.12.58c.61,0,1.36,0,1.66-.58.05-.35.12-.71.17-1.06a5.3,5.3,0,0,0,.44-1.75"/></svg>