<?xml version="1.0" encoding="utf-8"?>
<!-- Generator: Adobe Illustrator 24.0.2, SVG Export Plug-In . SVG Version: 6.00 Build 0)  -->
<svg version="1.1" id="Layer_1" xmlns="http://www.w3.org/2000/svg" xmlns:xlink="http://www.w3.org/1999/xlink" x="0px" y="0px"
	 viewBox="0 0 217.1 50" style="enable-background:new 0 0 217.1 50;" xml:space="preserve">
<style type="text/css">
	.st0{fill-rule:evenodd;clip-rule:evenodd;fill:#204998;}
</style>
<g>
	<path class="st0" d="M116.8,12.6c0-1.3-1.1-2.4-2.4-2.4H98.6c-2.7,0-5.1,1.3-6.6,3.3l-8.1,10.8c-0.3,0.4-0.5,0.9-0.5,1.4
		c0,1.3,1.1,2.4,2.4,2.4l15.8,0c2.7,0,5.1-1.3,6.6-3.3l8.1-10.8C116.6,13.6,116.8,13.1,116.8,12.6L116.8,12.6L116.8,12.6z
		 M79.7,19.6c1.9-0.4,3.6-1.6,4.8-3.1l1.9-2.5c0.3-0.4,0.5-0.9,0.5-1.4c0-1.3-1.1-2.4-2.4-2.4l-10.1,0l0,0h-9.8L51.1,28.1h9.6
		l10.9,0c2.7,0,5.1-1.3,6.6-3.3l1.9-2.5c0.2-0.3,0.4-0.7,0.4-1.2C80.5,20.5,80.2,19.9,79.7,19.6L79.7,19.6L79.7,19.6z M70.6,21.9
		l-1.2,1.6c-0.4,0.5-1,0.9-1.7,0.9h-4l2.6-3.5h3.8c0.3,0,0.6,0.3,0.6,0.6C70.8,21.7,70.7,21.8,70.6,21.9L70.6,21.9L70.6,21.9z
		 M136.4,20.9l2.8-3.8l-9.8,0l2.4-3.2h9.8l2.8-3.8h-19.6l-13.5,17.9H131l2.8-3.8H124l2.6-3.5H136.4L136.4,20.9L136.4,20.9z
		 M75.9,14.9l-1,1.4c-0.4,0.5-1,0.9-1.7,0.9l-4,0l2.4-3.2h3.8c0.3,0,0.6,0.3,0.6,0.6C76,14.7,76,14.8,75.9,14.9L75.9,14.9L75.9,14.9
		z M105.8,14.9l-6.5,8.6c-0.4,0.5-1,0.9-1.7,0.9h-2.8c-0.3,0-0.6-0.3-0.6-0.6c0-0.1,0-0.3,0.1-0.4l6.5-8.6c0.4-0.5,1-0.9,1.7-0.9
		h2.8c0.3,0,0.6,0.3,0.6,0.6C106,14.7,105.9,14.8,105.8,14.9L105.8,14.9L105.8,14.9z M214.8,10.2l-15.8,0c-2.7,0-5.1,1.3-6.6,3.3
		l-8.1,10.8c-0.3,0.4-0.5,0.9-0.5,1.4c0,1.3,1.1,2.4,2.4,2.4h15.8c2.7,0,5.1-1.3,6.6-3.3l2-2.6h2.3l2.8-3.8h-12.1l-3.8,5.1
		c-0.4,0.5-1,0.9-1.7,0.9h-2.8c-0.3,0-0.6-0.3-0.6-0.6c0-0.1,0-0.3,0.1-0.4l6.5-8.6c0.4-0.5,1-0.9,1.7-0.9h2.8
		c0.3,0,0.6,0.3,0.6,0.6c0,0.1,0,0.3-0.1,0.4l-1.1,1.4h9.8l1.7-2.3c0.3-0.4,0.5-0.9,0.5-1.4C217.2,11.2,216.1,10.2,214.8,10.2
		L214.8,10.2L214.8,10.2z M182.7,10.2l-6.8,9.1l-2.1-9.1h-7.7l-13.5,17.9h6.5l6.8-9l2.1,9h7.7l13.5-17.9H182.7L182.7,10.2
		L182.7,10.2z M150,10.2l-13.5,17.9h9.8l13.5-17.9L150,10.2L150,10.2L150,10.2z"/>
	<path class="st0" d="M33.8,30.3c1-2.2,1.6-4.7,1.6-7.4c0-6.1-3.1-11.4-7.8-14.5c2.8-2.9,5.8-5.7,9-8.4C33,2.2,29.4,4.8,26.1,7.5
		c-2.4-1.3-5.2-2-8.1-2C8.4,5.5,0.6,13.3,0.6,23c0,4.4,1.6,8.3,4.2,11.4c-3.3,7.2-3.9,13-1,15c3.2,2.1,10-1.7,14.1-7.9
		c0,0-6.4,5.7-9.9,4.4c-2.2-0.8-2.2-4.1-0.4-8.8c2.9,2.1,6.5,3.4,10.3,3.4c4.8,0,9.1-1.9,12.3-5l0.6,1.2c7.6-0.6,30.3-1.2,30.3-1.2
		C61.2,34.3,46.2,35.2,33.8,30.3L33.8,30.3L33.8,30.3z M5.4,33.1C3.2,30.3,1.9,26.8,1.9,23C1.9,14.1,9.1,6.8,18,6.8
		c2.5,0,4.9,0.6,7,1.6C16.1,16.2,9.3,25.3,5.4,33.1L5.4,33.1L5.4,33.1z M24.6,24.8l5,9.4c-2.9,3-7.1,4.9-11.6,4.9
		c-3.7,0-7.1-1.2-9.8-3.3c3-7.1,9.5-16.9,18.5-26.4c4.5,2.9,7.4,7.9,7.4,13.6c0,2.5-0.5,4.8-1.5,6.9C29.7,28.5,26.9,26.9,24.6,24.8
		L24.6,24.8L24.6,24.8z"/>
</g>
</svg>
