<svg id="Layer_1" data-name="Layer 1" xmlns="http://www.w3.org/2000/svg" viewBox="0 0 34.82 50"><defs><style>.cls-1{fill:#807f83;}.cls-2{fill:#c1cc30;}.cls-3{fill:#78a23f;}.cls-4{fill:#b3c98b;}</style></defs><title>etisalat</title><path class="cls-1" d="M24.88,39.77H20v-.08s.3-2.79,4.26-2.93a.63.63,0,0,1,.48.17.81.81,0,0,1,.18.54v2.3Zm4.78-3.86v-.08s0-.06,0-.06l-.13.07-.37.21-.37.17s-.11.05-.11.33v3.28H25.88V36.94a1.29,1.29,0,0,0-.32-1,1.28,1.28,0,0,0-1-.26,7.16,7.16,0,0,0-4.43,1.53l-.36.41-.13.17-.07-.2a2.09,2.09,0,0,0-.37-.59l-.13-.14L19,36.81c0,.14,0,.46,0,.89v2.09H17.42V32.61c0-.12,0-.16,0-.16l-.14.07-.37.21-.36.17c-.06,0-.11.05-.11.39v6.44a1,1,0,0,0,.19.78.89.89,0,0,0,.82.38H19V41a6.92,6.92,0,0,1-.3,1.47l0,.05a2.59,2.59,0,0,0,.37-.29A4,4,0,0,0,19.76,41l0-.07h8.77a1.19,1.19,0,0,0,.71-.18c.29-.22.39-.39.39-1V37.08c0-.13,0-1.14,0-1.17" transform="translate(0)"/><path class="cls-1" d="M10.06,36.48ZM9,39.75V37.44c0-.33.07-.36.11-.39l.36-.17.49-.26a1.13,1.13,0,0,1,0,.14V40a1,1,0,0,1-.3.67A1,1,0,0,1,9,40.9H3.53A1.73,1.73,0,0,1,2.11,40a2.58,2.58,0,0,1-.32-1.25A4.06,4.06,0,0,1,2,37.72a1.13,1.13,0,0,1,.21-.46s0,.05,0,.11a5.86,5.86,0,0,0,.39,1.54,1.82,1.82,0,0,0,1.71.92H9v-.08Z" transform="translate(0)"/><path class="cls-1" d="M14.87,32.49Zm-1,1v0c0-.34.07-.36.12-.39l.36-.17.48-.26s0,.05,0,.14v3.72c0,3.35-1.56,4.31-1.68,4.38H11.64a5.35,5.35,0,0,0,1.28-1.16l0,0v-.05l-1.76-3.92a3.18,3.18,0,0,1-.25-1.17,1.65,1.65,0,0,1,.5-1.23v.08A4.71,4.71,0,0,0,11.82,35s1.09,2.07,1.5,3.1l.13.39.07.21.07-.21,0-.11a3.41,3.41,0,0,0,.16-1h0v-.11h0V33.51Z" transform="translate(0)"/><path class="cls-1" d="M4.66,46.62a1,1,0,0,0,.54-.16.46.46,0,0,0,0-.43,1.51,1.51,0,0,0-1.42-.81A1.65,1.65,0,0,0,2,46.91l2.63-.29m.59.73L2,47.68a1.56,1.56,0,0,0,1.7,1.4H5.8a.46.46,0,0,1,.48.49V50H3.71a2.57,2.57,0,0,1-2.64-2.84A2.63,2.63,0,0,1,3.84,44.4,2.34,2.34,0,0,1,6.2,46.18c.14.64-.21,1.08-1,1.17" transform="translate(0)"/><path class="cls-1" d="M16.49,44.39c.31,0,.53.14.53.44s-.22.45-.53.45H14.24c-.47,0-.53.51-.48.8a.35.35,0,0,0,.12.24,1.6,1.6,0,0,0,.67.21l1.71.3a1.29,1.29,0,0,1,1.23,1.43c0,1.27-.78,1.72-2,1.72H12.67v-.44c0-.31.21-.44.53-.44h2.24c.87,0,1.09-.27,1.09-.75s-.12-.6-.7-.7l-1.73-.29c-.87-.14-1.25-.6-1.3-1.2-.07-.86.29-1.77,1.47-1.77Z" transform="translate(0)"/><path class="cls-1" d="M21.7,48c0,1-.54,1.29-1.44,1.29S19,49,19,48.3a1,1,0,0,1,.91-.89c.5-.08,1.25-.12,1.82-.25V48Zm1-1.61c0-1-.26-2-1.7-2h-2c-.32,0-.53.14-.53.44s.21.45.53.45h1.89c.66,0,.89.15.89.62V46c0,.29-.37.36-.53.39-1.35.32-3.17,0-3.17,1.92,0,1,.89,1.65,2.1,1.65,0,0,1.22,0,1.67-.56v.06a.44.44,0,0,0,.48.47h.4Z" transform="translate(0)"/><path class="cls-1" d="M29,48c0,1-.54,1.29-1.44,1.29s-1.29-.29-1.29-1a1,1,0,0,1,.91-.89c.5-.08,1.25-.12,1.82-.25V48Zm1-1.61c0-1-.26-2-1.71-2h-2c-.31,0-.52.14-.52.44s.21.45.52.45h1.89c.67,0,.89.15.89.62V46c0,.29-.36.36-.52.39-1.35.32-3.17,0-3.17,1.92,0,1,.89,1.65,2.1,1.65,0,0,1.22,0,1.66-.56v.06a.45.45,0,0,0,.49.47H30Z" transform="translate(0)"/><path class="cls-1" d="M24.58,42.87H24a.38.38,0,0,0-.43.43V50h1Z" transform="translate(0)"/><path class="cls-1" d="M9.42,49.15c-.74,0-1,0-1-.57V45.29h.85c.3,0,.53-.14.53-.45s-.23-.44-.53-.44H8.42v-.92h0v-.55H7.81a.38.38,0,0,0-.35.42v1H7.2c-.31,0-.53.14-.53.45s.22.44.53.44h.26v3.48c0,1.18.82,1.19,2,1.19H10v-.39c0-.26-.23-.43-.58-.43" transform="translate(0)"/><path class="cls-1" d="M33.26,49.15c-.74,0-1,0-1-.57V45.29h.85c.3,0,.53-.14.53-.45s-.23-.44-.53-.44h-.85v-.92h0v-.55h-.61a.38.38,0,0,0-.35.42v1H31c-.3,0-.52.14-.52.45s.22.44.52.44h.27v3.48c0,1.18.82,1.19,2,1.19h.57v-.39c0-.26-.22-.43-.57-.43" transform="translate(0)"/><path class="cls-1" d="M11.78,50V44.4h-.54a.39.39,0,0,0-.43.43V50h1Z" transform="translate(0)"/><path class="cls-1" d="M11.19,44c.23,0,.36,0,.48-.11a.65.65,0,0,0,.1-.46v-.49h-.54a.38.38,0,0,0-.42.43V44h.38" transform="translate(0)"/><path class="cls-2" d="M1.15,3.51C-.26,5.36-.3,8.4.64,12.17,2,17.48,4.25,22.85,5.32,26.42,6.55,30.09,6.56,32,7,32.22a.39.39,0,0,0,.17,0c.62,0,2.21-1,5.54-2,3.54-1.21,9.24-2.44,14.34-4.43,3.58-1.4,6-3.18,6.75-5.39-1.14,1.54-3.22,2.83-6,3.92-5.1,2-10.8,3.23-14.34,4.43-3.33,1-4.92,2-5.54,2a.29.29,0,0,1-.17-.05c-.47-.25-.49-2.12-1.71-5.79C5,21.37,2.75,16,1.42,10.7.68,7.81.54,5.35,1.15,3.51m10,2.78A6.73,6.73,0,0,0,9,6.61C6.49,7.38,5.5,9.7,5.7,12.92a40.17,40.17,0,0,0,1.93,9C8.45,24.4,9,26,10,26.46a2.29,2.29,0,0,0,1.08.23,15.65,15.65,0,0,0,4-.92,40.85,40.85,0,0,0,8.46-3.64c2.73-1.71,4.07-3.85,3.25-6.32s-3.63-5.18-7.57-7.22a18.79,18.79,0,0,0-8.09-2.3m.71,19.61a3.31,3.31,0,0,1-1.43-.28c-1.79-.93-3.22-5.42-3.2-10,0-3,1.92-4.67,4.78-4.67a11.66,11.66,0,0,1,5.25,1.47c5.53,2.85,7,7.34,3.2,10-3,2.13-6.42,3.48-8.6,3.48" transform="translate(0)"/><path class="cls-3" d="M7.23,0A9.17,9.17,0,0,0,4.39.4,4.69,4.69,0,0,0,1.15,3.51,4.76,4.76,0,0,1,3.63,1.88a8.66,8.66,0,0,1,2.83-.41c3.71,0,8.88,1.56,14.23,4.31,6.9,3.57,12,8.07,13.07,11.65a4.76,4.76,0,0,1,.08,3,4.68,4.68,0,0,0,.7-4.49c-1.07-3.58-6.17-8.08-13.07-11.65C16.12,1.56,10.94,0,7.23,0" transform="translate(0)"/><path class="cls-4" d="M7.23,0A9.17,9.17,0,0,0,4.39.4,4.69,4.69,0,0,0,1.15,3.51,4.76,4.76,0,0,1,3.63,1.88a8.66,8.66,0,0,1,2.83-.41c3.71,0,8.88,1.56,14.23,4.31,6.9,3.57,12,8.07,13.07,11.65a4.76,4.76,0,0,1,.08,3,4.68,4.68,0,0,0,.7-4.49c-1.07-3.58-6.17-8.08-13.07-11.65C16.12,1.56,10.94,0,7.23,0" transform="translate(0)"/><path class="cls-3" d="M6.48,1.47a8.6,8.6,0,0,0-2.84.41A4.64,4.64,0,0,0,1.17,3.51c-.61,1.84-.47,4.3.25,7.2C2.75,16,5,21.39,6.1,25c1.24,3.67,1.24,5.55,1.71,5.8a.29.29,0,0,0,.17,0c.62,0,2.21-1,5.54-2,3.54-1.21,9.24-2.44,14.34-4.43,2.75-1.08,4.83-2.37,6-3.92a4.72,4.72,0,0,0-.08-3c-1.07-3.59-6.17-8.09-13.08-11.66C15.35,3,10.17,1.47,6.48,1.47M11.1,26.69A2.29,2.29,0,0,1,10,26.46c-1-.52-1.57-2.08-2.39-4.54a40.17,40.17,0,0,1-1.93-9C5.5,9.7,6.49,7.38,9,6.61a7,7,0,0,1,2.19-.32A18.56,18.56,0,0,1,19.24,8.6c4,2,6.82,4.79,7.57,7.22s-.51,4.62-3.25,6.32a39.66,39.66,0,0,1-8.46,3.64,15.69,15.69,0,0,1-4,.91" transform="translate(0)"/><path class="cls-1" d="M31.34,38.72V33.43c0-.34.07-.37.11-.39l.37-.17.51-.28s0,0,0,0V36h0v4.86h-1V38.72Z" transform="translate(0)"/><path class="cls-1" d="M5.25,36.59c.24,0,.36,0,.49-.11s.1-.26.1-.46v-.5H5.29a.39.39,0,0,0-.43.43v.64Z" transform="translate(0)"/><path class="cls-1" d="M6.52,36.59c.23,0,.36,0,.48-.11s.1-.26.1-.46v-.5H6.57a.39.39,0,0,0-.43.43v.64Z" transform="translate(0)"/><path class="cls-1" d="M27.83,34.87c.23,0,.36,0,.48-.11a.65.65,0,0,0,.1-.46v-.5h-.54a.39.39,0,0,0-.43.43v.64h.39" transform="translate(0)"/><path class="cls-1" d="M29.11,34.87c.23,0,.36,0,.48-.11a.65.65,0,0,0,.1-.46v-.5h-.54a.39.39,0,0,0-.43.43v.64h.39" transform="translate(0)"/></svg>