<svg id="Layer_1" data-name="Layer 1" xmlns="http://www.w3.org/2000/svg" viewBox="0 0 171.83 49.89"><defs><style>.cls-1,.cls-3{fill:#d82536;}.cls-2,.cls-4{fill:#111119;}.cls-3,.cls-4{fill-rule:evenodd;}.cls-5{fill:#221f1f;}</style></defs><title>Fire eyes</title><polygon class="cls-1" points="52.12 21.3 69.05 21.3 69.05 24.11 55.36 24.11 55.36 30.57 68.4 30.57 68.4 33.39 55.36 33.39 55.36 43.15 52.12 43.15 52.12 21.3"/><path class="cls-1" d="M72.38,27.11h3.06v16H72.38Zm0-6h3.06v3.37H72.38Z"/><path class="cls-1" d="M80.65,27.11h3.06v2.94h.06a6.18,6.18,0,0,1,5.51-3.49,5.69,5.69,0,0,1,1.74.19v3.3a8.55,8.55,0,0,0-2.17-.3c-3,0-5.14,1.77-5.14,5.26v8.15H80.65Z"/><path class="cls-1" d="M106.76,33.66a5.3,5.3,0,0,0-5.61-4.53,5.57,5.57,0,0,0-5.81,4.53ZM95.25,36.05a5.67,5.67,0,0,0,5.9,5.08c1.75,0,4.14-.58,5.18-2.84h3.24a8.66,8.66,0,0,1-8.26,5.41c-6.25,0-9.31-3.94-9.31-8.57s3.06-8.57,9.31-8.57c4.22,0,8.69,2.45,8.69,9.09v.4Z"/><polygon class="cls-2" points="113.77 21.3 131.34 21.3 131.34 24.11 117.01 24.11 117.01 30.45 130.91 30.45 130.91 33.27 117.01 33.27 117.01 40.34 131.64 40.34 131.64 43.15 113.77 43.15 113.77 21.3"/><path class="cls-2" d="M147.62,27.11h3.43l-8.39,18.8c-1.53,3.4-2.72,4-5.57,4-.77,0-1.53-.06-2.33-.13V47.19c.55,0,1,.13,1.78.13,1.9,0,2.35-.4,3.33-2.45l.71-1.47-7.41-16.29h3.52l5.51,12.68Z"/><path class="cls-2" d="M166.41,33.66a5.29,5.29,0,0,0-5.6-4.53A5.58,5.58,0,0,0,155,33.66ZM154.9,36.05a5.68,5.68,0,0,0,5.91,5.08c1.74,0,4.13-.58,5.17-2.84h3.25A8.66,8.66,0,0,1,161,43.7c-6.24,0-9.3-3.94-9.3-8.57s3.06-8.57,9.3-8.57c4.23,0,8.7,2.45,8.7,9.09v.4Z"/><path class="cls-3" d="M27.09,0C28.18,3.92,32,5.81,30.25,10.45c-.91,2.48-4.05,4.89-1.9,8.24-.6.31-1.29-1.05-1.42-1.74-.57-3,1.91-6.69,1.9-9.82,0-2.91-2.1-4.24-1.74-7.13"/><path class="cls-4" d="M33.9,26.77c-2.24-1.78-7.19-1.89-9.35,0-4.94,4.3-.53,13.29,7.92,11.4-6.88,4.09-16.57-1.83-13.78-11.09A69.64,69.64,0,0,0,5.23,32.31q7.4,9.22,22.65,10.61C14.76,43.89,8.11,37,0,32.47,6.89,29,15.42,21.84,26.13,22.65c3.12.23,6.7,1.44,7.77,4.12"/><path class="cls-3" d="M32.26,16.52a5.62,5.62,0,0,1-2.38,2.06c1.37-1.63.21-7.18,3-7.92-.46,5.58,4,7.47,7.13,10.78,2.52,2.68,5.22,5.77,4.59,11.56-.66,6.11-6.93,8.58-12.19,9.69,4.26-1.94,9.43-3.48,10.13-8.58,1.22-8.86-7.07-12.58-10.29-17.59"/><path class="cls-3" d="M36.72,25.15c2.55,2.56,3.88,7.65,0,10.42a5.93,5.93,0,0,1-7.23-.39,3.42,3.42,0,0,1-.93-3.07c.37-1.73,2.53-3.58,4-2.12-1.31-1.09-4,2.29-1.66,3.59a3.93,3.93,0,0,0,1,.24c3.47.09,6.5-3.65,4-7.77a13.93,13.93,0,0,0-1.26-1.77s-1-1.25-.44-1a6.9,6.9,0,0,1,.94.5c.16.12,1.24.93,1.66,1.35"/><path class="cls-5" d="M169.09,26a1.14,1.14,0,0,1,0-.37,1.79,1.79,0,0,1,.13-.32,1.24,1.24,0,0,1,.22-.28,1.18,1.18,0,0,1,.28-.22,1.83,1.83,0,0,1,.32-.14,1.5,1.5,0,0,1,.37-.05,1.36,1.36,0,0,1,.36.05,1.64,1.64,0,0,1,.33.14,1.18,1.18,0,0,1,.28.22,1.6,1.6,0,0,1,.22.28,1.79,1.79,0,0,1,.13.32,1.14,1.14,0,0,1,.05.37,1.08,1.08,0,0,1-.05.36,1.62,1.62,0,0,1-.13.33,2.09,2.09,0,0,1-.22.28,1.46,1.46,0,0,1-.28.21,1.22,1.22,0,0,1-.33.14,1.36,1.36,0,0,1-.36.05,1.5,1.5,0,0,1-.37-.05,1.3,1.3,0,0,1-.32-.14,1.46,1.46,0,0,1-.28-.21,1.51,1.51,0,0,1-.22-.28,1.62,1.62,0,0,1-.13-.33,1,1,0,0,1,0-.36m.18,0a1.13,1.13,0,0,0,0,.32.81.81,0,0,0,.12.29,1.08,1.08,0,0,0,.18.24,1.12,1.12,0,0,0,.24.19,1.39,1.39,0,0,0,.28.12,1.12,1.12,0,0,0,.32,0,1.18,1.18,0,0,0,.46-.09,1.12,1.12,0,0,0,.38-.26,1.28,1.28,0,0,0,.26-.38,1.23,1.23,0,0,0,.09-.47,1.65,1.65,0,0,0,0-.32,1.26,1.26,0,0,0-.12-.29,1.64,1.64,0,0,0-.19-.25,1.12,1.12,0,0,0-.24-.19,1.18,1.18,0,0,0-.28-.12,1.17,1.17,0,0,0-.32,0,1.23,1.23,0,0,0-.47.09,1.37,1.37,0,0,0-.37.26,1.14,1.14,0,0,0-.25.39,1.2,1.2,0,0,0-.1.47m.92.17v.66h-.3V25.15h.55a.81.81,0,0,1,.48.12.39.39,0,0,1,.15.34.44.44,0,0,1-.1.3.5.5,0,0,1-.3.17l.06.05a.43.43,0,0,1,0,.07l.43.62h-.28a.1.1,0,0,1-.09,0l-.38-.57a.08.08,0,0,0,0,0h-.22Zm0-.22h.22a.44.44,0,0,0,.17,0,.33.33,0,0,0,.12-.05.24.24,0,0,0,.06-.09.27.27,0,0,0,0-.13.22.22,0,0,0,0-.12.19.19,0,0,0,0-.09l-.11-.05-.16,0h-.25Z"/></svg>