<svg id="Layer_1" data-name="Layer 1" xmlns="http://www.w3.org/2000/svg" xmlns:xlink="http://www.w3.org/1999/xlink" viewBox="0 0 166.33 49.82"><defs><style>.cls-1{fill:none;}.cls-2{fill:#8bc750;}.cls-3{clip-path:url(#clip-path);}.cls-4{fill:#fcb715;}.cls-5{fill:#1c3b6a;}.cls-6{fill:#55317a;}.cls-7{fill:#069dc6;}.cls-8{fill:#f58256;}.cls-9{fill:#c92540;}.cls-10{fill:#6cc9c6;}.cls-11{fill:#38854c;}.cls-12{fill:#6e6f71;}</style><clipPath id="clip-path"><rect class="cls-1" width="166.33" height="49.82"/></clipPath></defs><title>Frontiers</title><path class="cls-2" d="M50.82,44.63c-.43-.52-.85-1.06-1.27-1.6,0,0,0-.07,0-.1l.16-.11a1.9,1.9,0,0,1,.43-.26.89.89,0,0,0,.32-.25c.09-.09.11-.23.18-.33s.26-.41.38-.62a.51.51,0,0,0,.07-.24c0-.16,0-.33,0-.49s.06-.13,0-.18c-.07-.23-.14-.45-.23-.67a1,1,0,0,0-.36-.52,1.81,1.81,0,0,0-.66-.38c-.23,0-.45-.13-.68-.19a2,2,0,0,0-.35-.06c-.1,0-.2,0-.3,0a4.58,4.58,0,0,0-.63-.1c-.24,0-.48,0-.71,0l-1.19,0-.61,0-.1,0-.27.13a.27.27,0,0,0-.11.1c-.13.18-.05.37-.05.57,0,.5,0,1,0,1.5,0,.09,0,.18,0,.27l0,.89,0,1.4c0,.24,0,.47,0,.7s.06.68.07,1a1.46,1.46,0,0,0,.18.82.92.92,0,0,1,.13.24.51.51,0,0,0,.6.25c.15-.06.2-.21.29-.3a.71.71,0,0,0,.21-.63c0-.51-.05-1-.06-1.52,0-.19,0-.38,0-.58l.27,0,.55-.06q.38,0,.75,0a.2.2,0,0,1,.13,0,6.69,6.69,0,0,1,.59.6c.23.27.32.64.58.89,0,0,0,0,0,.06.11.18.2.38.32.55a5.06,5.06,0,0,0,.39.43l-.11.06.1,0a2.29,2.29,0,0,0,.32.43.51.51,0,0,0,.39.15,2.79,2.79,0,0,0,.57-.29.22.22,0,0,0,0-.08l.18-.28a.28.28,0,0,0,.07-.13.59.59,0,0,0-.2-.48,5.76,5.76,0,0,1-.53-.57m-1.75-3.07c-.13.06-.23.19-.36.24A3.11,3.11,0,0,1,48,42c-.44,0-.89.06-1.34.09-.13,0-.24,0-.24-.17,0-.35,0-.7,0-1.05s0-.48.07-.72.08-.27.33-.26l1.25,0a4.21,4.21,0,0,1,1.32.18.42.42,0,0,1,.33.54,1.17,1.17,0,0,1-.61.93"/><path class="cls-2" d="M38.19,44.65a3.47,3.47,0,0,1,.28.76.07.07,0,0,0,0,.05c.07.09.13.18.21.27s.09.13.15.15l1,.32a2.73,2.73,0,0,0,1.06.14,2,2,0,0,0,1.15-.3c.15-.11.31-.2.45-.31a1.48,1.48,0,0,0,.29-.37,7,7,0,0,1,.57-.65.66.66,0,0,0,.15-.3c.08-.26.13-.53.19-.79s.17-.56.22-.84a5.79,5.79,0,0,0,0-.72,2.17,2.17,0,0,0,0-.51,8.67,8.67,0,0,0-.35-1.16,2,2,0,0,0-1-1.24.2.2,0,0,1-.09-.17.26.26,0,0,0-.18-.31,2,2,0,0,1-.26-.1,1.46,1.46,0,0,0-1.24,0c-.26.07-.52.16-.77.24a2.22,2.22,0,0,0-1,.59,1.52,1.52,0,0,1-.31.31,1.38,1.38,0,0,0-.49.65c-.11.25-.22.5-.32.76a1.62,1.62,0,0,0-.09.38c0,.11,0,.23,0,.34a1.86,1.86,0,0,0,0,1,2,2,0,0,1,.11.69,3.19,3.19,0,0,0,.28,1.15m1.06-3.35a2.45,2.45,0,0,1,.69-1.17,1.22,1.22,0,0,1,.59-.32,2,2,0,0,0,.41-.14.19.19,0,0,1,.26,0,1.25,1.25,0,0,0,.23.27,1.17,1.17,0,0,0,.32.15c.11,0,.21,0,.23.19a.13.13,0,0,0,0,.07c.34.25.36.66.48,1a1.55,1.55,0,0,1,0,.37h0c0,.37,0,.73,0,1.09a2.44,2.44,0,0,1-.13.44l-.21.76v0a2.37,2.37,0,0,1-.93.9A1.83,1.83,0,0,1,40,45a.93.93,0,0,0-.13,0,.26.26,0,0,1-.28-.17,4.87,4.87,0,0,1-.37-.93,6.31,6.31,0,0,1-.14-1.3,3.81,3.81,0,0,1,.13-1.22"/><path class="cls-2" d="M33.32,46.6a.29.29,0,0,0,.31,0c.09-.06.22-.11.26-.2a1.55,1.55,0,0,0,.18-.6c0-.57,0-1.14,0-1.71,0-.38,0-.75,0-1.13,0-.1,0-.15.11-.15a3,3,0,0,1,.52,0,6.68,6.68,0,0,1,1.18.15.65.65,0,0,0,.47-.07.93.93,0,0,0,.42-.51.47.47,0,0,0-.12-.53c-.09-.07-.22-.09-.28-.17a.29.29,0,0,0-.3-.09.63.63,0,0,1-.19,0l-.86,0h-.76a.2.2,0,0,1-.14-.08,2.06,2.06,0,0,1,0-.35c0-.23,0-.46,0-.69s0-.54.06-.81c0-.05.09-.11.13-.12.51,0,1,0,1.51,0s.71,0,1.07,0a.54.54,0,0,0,.45-.14c.07-.08.13-.17.21-.25a.55.55,0,0,0,.12-.46c0-.09-.29-.26-.38-.28a.48.48,0,0,1-.19-.09v0c-.14,0-.29,0-.44,0a7.85,7.85,0,0,0-.84,0,12.33,12.33,0,0,1-1.82.09l-.11,0a3.68,3.68,0,0,1-.58.08.51.51,0,0,0-.53.41c0,.07,0,.15,0,.2a1.37,1.37,0,0,0-.14.84c0,.42.09.84.11,1.26a1.91,1.91,0,0,1-.1.52.43.43,0,0,0,0,.16c0,.07,0,.14,0,.22,0,.38,0,.77,0,1.15,0,.1,0,.19,0,.28,0,.33,0,.66,0,1s0,.64,0,1a1,1,0,0,0,.65,1.1"/><path class="cls-2" d="M119.48,49l.47-.39a.62.62,0,0,0,.1-.16.84.84,0,0,0-.06-.56,7.23,7.23,0,0,1-.15-1.74c0-.35,0-.71,0-1.06,0-.52-.06-1-.08-1.57s0-1,0-1.52,0-.8,0-1.2,0-.66,0-1c0-.17.07-.17.2-.06.28.24.5.54.79.78A15,15,0,0,1,122,41.79l.29.34.39.41.4.37a.87.87,0,0,1,.25.37s.07.07.12.1l.24.14c.09,0,.15.15.24.17.35.07.69.24,1.07,0a4.32,4.32,0,0,0,.71-.63c.2-.21.34-.47.52-.69.46-.59.93-1.17,1.4-1.75.22-.28.45-.55.67-.82s.26-.29.38-.44h.05c0,.26,0,.53,0,.79a1.14,1.14,0,0,1,0,.42,1.09,1.09,0,0,0,0,.59c0,.46,0,.92,0,1.38a1.32,1.32,0,0,0,0,.28c0,.13.07.27.09.41s0,.46.05.7c0,.48.09,1,.13,1.45s.06,1,.1,1.54a4,4,0,0,1,0,1,.37.37,0,0,0,.08.31,8.84,8.84,0,0,0,.67.61l.59,0c.12-.07.23-.14.34-.19A.76.76,0,0,0,131,48a1.28,1.28,0,0,1-.06-.43,1.89,1.89,0,0,0-.06-.71,1.67,1.67,0,0,1-.08-.32c0-.25,0-.49-.05-.74l-.09-1.5a2.59,2.59,0,0,0-.07-.79c-.12-.31,0-.62-.1-.93a2,2,0,0,1,0-.55,5.92,5.92,0,0,1,0-1.19c0-.11,0-.22,0-.33,0-.49,0-1,0-1.48,0-.18,0-.36,0-.54s0-.15,0-.22c0-.23,0-.47-.09-.7s.09-.46-.07-.71a1,1,0,0,0-.92-.48l-.47.09a1.68,1.68,0,0,0-1.07.6c-.21.28-.4.57-.61.85s-.28.32-.4.5c-.25.34-.47.7-.73,1s-.68.85-1,1.27c-.21.27-.44.53-.65.8s-.19.26-.43.06l0,0c-.27-.17-.36-.51-.66-.68a3.24,3.24,0,0,1-.63-.6c-.32-.36-.62-.73-.95-1.07s-.54-.46-.79-.7-.65-.66-1-1a3.17,3.17,0,0,1-.5-.54c-.26-.43-.69-.48-1.11-.57,0,0,0,0-.08,0l-.65.41a.66.66,0,0,1,0,.24c0,.11,0,.17,0,.25a.18.18,0,0,1,0,.16.83.83,0,0,0-.17.65c.06.3.05.62.08.93,0,.13,0,.26,0,.39,0,.51,0,1,0,1.52s.09,1.22.08,1.83,0,1.1.06,1.66,0,1,.06,1.46c0,.22,0,.45,0,.68,0,.44.06.89.1,1.33a.84.84,0,0,0,.08.27,1.91,1.91,0,0,0,.72.72.74.74,0,0,0,.61,0"/><path class="cls-2" d="M139.06,48.17c0-.41,0-.8,0-1.21s0-1,0-1.46c0-.67.08-1.33.12-2a1.77,1.77,0,0,0,0-.23c0-.26,0-.52,0-.78,0-.6.05-1.2.07-1.81a1.17,1.17,0,0,1,.07-.25l.16.17.7.91c.1.14.21.27.32.4l.75,1c.12.15.23.31.35.47s.47.58.68.88.26.43.41.63c.25.36.51.71.76,1.06l.28.42.66.94c.11.16.17.37.32.48.3.22.5.62,1,.59l.07,0a.72.72,0,0,0,.89-.13l.12-.11a.78.78,0,0,0,.2-.74.71.71,0,0,1-.06-.24c0-.2,0-.41,0-.61s0-.7,0-1c0-.55,0-1.1,0-1.65,0-.2,0-.41,0-.62,0-.5,0-1,0-1.49,0-.27-.05-.55-.05-.82,0-.46.05-.9.06-1.35,0-.29,0-.59,0-.87s.11-.3.1-.45a2,2,0,0,0-.11-.64.84.84,0,0,0-.4-.62,1.5,1.5,0,0,0-.67-.21.7.7,0,0,0-.63.3c-.16.24-.48.39-.38.77a0,0,0,0,1,0,.06.19.19,0,0,0,0,.28s0,.1.05.16,0,.33,0,.5c0,.36.05.73.06,1.1s0,.89,0,1.33a1.24,1.24,0,0,0,0,.18c0,.41.06.82.08,1.23,0,.18,0,.37,0,.55,0,.37,0,.74,0,1.11a4.89,4.89,0,0,1,0,.54h0c-.12-.14-.25-.27-.36-.42-.26-.38-.52-.78-.77-1.17-.12-.18-.22-.37-.33-.55a3.57,3.57,0,0,0-.25-.38c-.18-.22-.39-.43-.57-.65a6,6,0,0,0-.38-.5c-.24-.26-.46-.55-.68-.83s-.33-.44-.5-.66-.43-.53-.62-.81-.48-.71-.72-1.06l-.24-.33c-.16-.24-.33-.48-.5-.71a.18.18,0,0,0-.08-.07c-.2,0-.41,0-.61-.11s-.46.07-.65.22a3.5,3.5,0,0,1-.3.24.46.46,0,0,0-.21.43,3,3,0,0,1,.15.94c0,.13.07.25,0,.37a9.31,9.31,0,0,0,0,1.67c0,.34,0,.69,0,1s-.06.68-.06,1,0,.83,0,1.24-.08.91-.08,1.36,0,.93,0,1.4c0,.16,0,.33,0,.5s0,.6,0,.9a.38.38,0,0,0,.09.37l.08.08a.92.92,0,0,0,1.07.51.84.84,0,0,0,.71-.78"/><path class="cls-2" d="M94.83,48.86A.88.88,0,0,0,95,48.2a2.36,2.36,0,0,1,0-.59c0-.23,0-.46,0-.7v-.85c0-.18,0-.37,0-.55,0-.51.1-1,.14-1.52,0-.3,0-.6,0-.91,0-.5,0-1,.07-1.51l0-.39h.06a5.14,5.14,0,0,1,.32.49c.21.38.4.78.61,1.17s.47.82.71,1.23c.09.15.17.31.27.46s.3.42.44.64.38.62.57.93a5.89,5.89,0,0,1,.32.54c.13.26.23.53.34.8a.27.27,0,0,0,.07.08.7.7,0,0,1,.34.66c0,.06.06.12.1.18l.13.14a1,1,0,0,0,.82.56.69.69,0,0,0,.54-.15.82.82,0,0,1,.2-.12.52.52,0,0,0,.29-.57c0-.24,0-.48,0-.72,0-.39,0-.77,0-1.16s0-.55.06-.83,0-.31,0-.46l.15-1.71c.06-.61.14-1.21.19-1.82,0-.23,0-.47,0-.7,0-.66,0-1.31.08-2a1.27,1.27,0,0,1,.09-.56c.16-.28,0-.51,0-.73a1.29,1.29,0,0,0-.42-.52.72.72,0,0,0-.43-.18.85.85,0,0,0-.81.37s-.06,0-.09.07-.14.11-.15.17c0,.43-.07.85-.08,1.27s0,.94,0,1.42,0,.67,0,1,0,.9-.08,1.35a2.51,2.51,0,0,1,0,.27c-.06.62-.11,1.23-.18,1.85,0,0,0,.07-.07.09s-.06,0-.08,0a3.9,3.9,0,0,1-.25-.36l-.38-.63c-.15-.25-.32-.47-.47-.72s-.39-.68-.58-1a1.62,1.62,0,0,0-.1-.18l-.51-.85c-.2-.36-.39-.72-.6-1.08s-.34-.55-.51-.84-.27-.51-.42-.76-.32-.38-.33-.65a.16.16,0,0,0,0-.1,1.42,1.42,0,0,0-1-.43,1.83,1.83,0,0,0-.71.45,4.15,4.15,0,0,1-.3.43c.16.06-.15.36.12.4,0,.39,0,.76,0,1.14s0,.84,0,1.26c0,.19,0,.38,0,.57,0,.34,0,.68,0,1,0,.56-.07,1.11-.1,1.67s-.09,1.25-.13,1.87c0,.31,0,.62,0,.92s0,.33,0,.49,0,.45,0,.68a.88.88,0,0,0,.21.73c.08.09.14.2.23.32a1.41,1.41,0,0,0,.35.2.57.57,0,0,0,.38.07.81.81,0,0,0,.56-.4"/><path class="cls-2" d="M84,48.53c.09,0,.18.09.27.13a4.66,4.66,0,0,0,.76.41,5.18,5.18,0,0,0,.79.11,4.34,4.34,0,0,0,.52.08,1.8,1.8,0,0,0,.44-.12c.24-.08.48-.18.71-.28a2.93,2.93,0,0,0,.72-.39,9,9,0,0,0,.76-.86c.15-.17.28-.34.45-.54a2.08,2.08,0,0,1,0,.57.71.71,0,0,0,.17.7,1.23,1.23,0,0,0,1,.52.58.58,0,0,0,.28-.09c.1-.08.15-.22.26-.28a.47.47,0,0,0,.23-.48,13,13,0,0,0-.12-1.4,2,2,0,0,1,.06-1c0-.08,0-.19,0-.23a.6.6,0,0,1-.06-.45s0-.1,0-.14a3,3,0,0,1-.07-.94,4.87,4.87,0,0,1,0-.54h0c0-.06,0-.12,0-.19,0-.48-.07-1-.1-1.44,0-.21,0-.42,0-.63s.08-.29.08-.43,0-.54-.08-.81a4.07,4.07,0,0,1-.06-.59,4,4,0,0,0-.13-1.33c0-.18-.14-.35-.18-.54a.61.61,0,0,0-.9-.36c-.28.21-.55.43-.82.66a.41.41,0,0,0-.14.2.73.73,0,0,0-.06.66s0,.08,0,.12a.26.26,0,0,0,0,.15c.11.16,0,.33,0,.5s0,.2,0,.3v1.28l0,.91c0,.25,0,.5,0,.74s-.1.44-.12.66a8.17,8.17,0,0,1-.37,2,10.59,10.59,0,0,1-.48,1.09,6.08,6.08,0,0,1-.47.66,1.5,1.5,0,0,1-1.1.63,1.48,1.48,0,0,1-1.43-.74,3.13,3.13,0,0,1-.19-.36,4.89,4.89,0,0,1-.26-.73c0-.22-.06-.45-.09-.67s-.13-.71-.16-1.07,0-.57,0-.85c0-.5-.09-1-.11-1.49A5,5,0,0,1,84,41c0-.42,0-.84,0-1.26s.07-.69.07-1a3.13,3.13,0,0,0-.13-1.17,1.76,1.76,0,0,0-.31-.43.4.4,0,0,0-.49-.13S83,37,83,37a.68.68,0,0,0-.66.28c-.07.11-.19.3-.15.35s0,.29,0,.42c0,.32,0,.63-.06.94,0,.61-.05,1.21-.08,1.81l0,.84c0,.23,0,.45,0,.68s0,.43,0,.65a4.36,4.36,0,0,1,.07.62,6.6,6.6,0,0,1,.07,1.33,1.24,1.24,0,0,0,.11.48,11,11,0,0,0,.33,1.22,5.57,5.57,0,0,0,.6,1.1,3.39,3.39,0,0,1,.34.5.66.66,0,0,0,.42.35"/><path class="cls-2" d="M151.21,48.91c.46,0,.92-.07,1.37-.15a10.1,10.1,0,0,0,1.07-.32,4.54,4.54,0,0,0,.65-.23,3.14,3.14,0,0,0,.9-.68l.84-.93a2.29,2.29,0,0,0,.18-.31,3.73,3.73,0,0,0,.63-1.54c0-.34.11-.68.15-1a4.91,4.91,0,0,0,0-1.53c0-.13,0-.26-.07-.4a5.67,5.67,0,0,0-.09-.72c-.1-.38-.24-.74-.37-1.11a2.26,2.26,0,0,0-.19-.42,3.14,3.14,0,0,0-.61-.89c-.21-.18-.39-.38-.58-.57a1.27,1.27,0,0,1-.17-.14,1.67,1.67,0,0,0-.68-.47c-.24-.13-.48-.25-.73-.36a4.8,4.8,0,0,0-.63-.24l-.9-.25a1.57,1.57,0,0,0-.3,0l-.8,0h-.11a1.06,1.06,0,0,0-.82,0,1.5,1.5,0,0,1-.54.12.57.57,0,0,0-.6.25.36.36,0,0,1-.15.12.68.68,0,0,0-.38.86,5.53,5.53,0,0,1,.16,1.72c0,.29,0,.57,0,.85s0,.61,0,.91-.06.69-.06,1,.07.44.06.66c0,.48-.05,1-.06,1.45s0,.67,0,1c0,.65,0,1.29-.07,2,0,.12,0,.32.07.52s.32.41.5.59a1.31,1.31,0,0,0,1,.27c.45,0,.89,0,1.33-.05m-.94-1.86c0-.12,0-.25,0-.37,0-.29,0-.58,0-.87s0-.73,0-1.09l0-1.52c0-.24,0-.47,0-.71s.05-.49.06-.74,0-.72,0-1.09,0-.92,0-1.38c0-.2,0-.4,0-.6s0-.33.29-.4a3.37,3.37,0,0,1,1.93.23,3.11,3.11,0,0,1,.64.3,5.48,5.48,0,0,1,1,.85,1.74,1.74,0,0,1,.49,1,1.66,1.66,0,0,0,.1.29c.08.28.15.57.22.86h0c0,.13,0,.27,0,.4a4,4,0,0,1-.08,1.76c-.12.41-.17.84-.31,1.25a2.17,2.17,0,0,1-.37.56,6.91,6.91,0,0,1-.61.71,1.52,1.52,0,0,1-.38.2,2.47,2.47,0,0,1-.49.24c-.34.09-.7.15-1,.21s-.44.09-.66.11-.5,0-.76,0-.18-.06-.15-.2"/><path class="cls-2" d="M70.93,40.94c-.14.51-.3,1-.42,1.53a4.23,4.23,0,0,0-.11.87c0,.3.06.61,0,.91a3.11,3.11,0,0,0,.36,1.64c0,.1,0,.23.09.33a3.73,3.73,0,0,1,.2.4,2.72,2.72,0,0,0,.45.86c.22.31.57.52.77.86,0,0,0,0,.06,0a1,1,0,0,1,.52.23,4,4,0,0,0,.92.34l.3.08a3.41,3.41,0,0,0,.69.15,5.46,5.46,0,0,0,.8,0,3.1,3.1,0,0,0,1.45-.35c.26-.14.55-.24.82-.38a2.3,2.3,0,0,0,.56-.35,5.08,5.08,0,0,0,1-1.09c.14-.26.35-.49.47-.76a6.29,6.29,0,0,0,.36-1c.1-.41.16-.82.24-1.24a8.15,8.15,0,0,0,.16-.86,7,7,0,0,0,0-1c0-.45-.08-.89-.12-1.33A7,7,0,0,0,80,39a4.22,4.22,0,0,0-.65-.95c0-.07-.14-.11-.19-.18a2.31,2.31,0,0,0-.9-.77c-.16-.09-.38-.11-.45-.34,0,0,0-.05-.06-.06a1.53,1.53,0,0,0-.66-.26,5.62,5.62,0,0,0-1.16,0,5.17,5.17,0,0,1-.55.07,2.18,2.18,0,0,0-.72.18,4.1,4.1,0,0,0-.87.42,3,3,0,0,0-.63.41A7.93,7.93,0,0,0,71.82,39a4.79,4.79,0,0,0-.77,1.53c0,.15-.08.29-.12.44m1.21,2.68c0-.32.08-.64.13-1a3,3,0,0,1,.06-.42c.11-.41.28-.82.36-1.24a2.53,2.53,0,0,1,.57-1.13c.15-.19.25-.41.4-.6a2.55,2.55,0,0,1,.44-.43c.29-.2.58-.38.88-.56a4.83,4.83,0,0,1,.52-.23.17.17,0,0,1,.14,0,2.9,2.9,0,0,0,1,.26,2.11,2.11,0,0,1,.63.2,1.72,1.72,0,0,1,.69.62,6.64,6.64,0,0,1,.47.92,5.28,5.28,0,0,1,.26,1c.07.37.11.75.15,1.12a11.5,11.5,0,0,1-.12,1.18c-.14.65-.31,1.3-.49,2a2.77,2.77,0,0,1-1,1.47,3.91,3.91,0,0,1-1.22.62,3.13,3.13,0,0,1-2,0,2.12,2.12,0,0,1-1.32-1c-.1-.19-.16-.39-.25-.58A5.8,5.8,0,0,1,72.12,44a1.79,1.79,0,0,1,0-.4"/><g class="cls-3"><path class="cls-2" d="M105.78,47.52c.35.14.74.2,1.09.38s.49.1.71.2a2.33,2.33,0,0,0,.89.14,3.35,3.35,0,0,0,1,0,5,5,0,0,0,.6-.1,2.77,2.77,0,0,0,.89-.53,2.47,2.47,0,0,1,.42-.37,2.59,2.59,0,0,0,.72-.68,1.3,1.3,0,0,0,.18-.23c.06-.14.08-.29.13-.43a4.3,4.3,0,0,0,.4-1,5.43,5.43,0,0,1,.13-.68c0-.06,0-.14,0-.18s.07-.25,0-.39a.27.27,0,0,1,.12-.23,1.68,1.68,0,0,1,.41-.07.81.81,0,0,0,.66-.17c.3-.2.51-.45.31-.84v0a.74.74,0,0,0-.69-.65.59.59,0,0,1-.14,0,.86.86,0,0,0-.63,0c-.37,0-.73.11-1.1.12a11.56,11.56,0,0,0-1.31.05h-.36l-1,.12a1.84,1.84,0,0,0-.41.06,1.92,1.92,0,0,0-.37.15c-.11.06-.2.15-.3.21a.27.27,0,0,0-.12.39,2.62,2.62,0,0,0,.57.58,1.53,1.53,0,0,0,1,.17c.35,0,.71-.07,1.07-.08,0,0,.15.07.16.11a6.28,6.28,0,0,1,0,1,4.71,4.71,0,0,1-.27.8s0,.11,0,.16a1.38,1.38,0,0,1-.16.37c-.28.35-.54.74-1.05.77-.18.18-.43.11-.63.11a3.62,3.62,0,0,1-1.45-.23c-.24-.1-.49-.19-.72-.31a5.81,5.81,0,0,1-.61-.4,1.09,1.09,0,0,1-.42-.62c0-.17,0-.35-.1-.52a5.35,5.35,0,0,1-.14-1.38,2.67,2.67,0,0,1,0-.56c0-.3.09-.6.14-.9s.09-.78.17-1.16a2.83,2.83,0,0,1,.59-1.32,7.28,7.28,0,0,1,.66-.7,5.27,5.27,0,0,1,.74-.49,4.26,4.26,0,0,1,.54-.17h.07a1.44,1.44,0,0,1,.67.11c.09,0,.16.15.26.17a.59.59,0,0,1,.48.54.71.71,0,0,0,.15.33,6.8,6.8,0,0,0,.57.5.61.61,0,0,0,.69,0,.91.91,0,0,0,.31-.5c0-.06.06-.12.06-.18a1.35,1.35,0,0,0,0-.28,1.82,1.82,0,0,0-.11-.4,1.55,1.55,0,0,0-.64-.82s0-.05-.07-.07a6.29,6.29,0,0,0-.67-.48,4.3,4.3,0,0,0-1.36-.42,1.75,1.75,0,0,0-.6,0,8.52,8.52,0,0,0-1,.33c-.09,0-.17.11-.26.15a2.72,2.72,0,0,0-.57.27c-.38.26-.73.56-1.08.85a1.5,1.5,0,0,0-.3.32c-.15.23-.28.46-.41.7a1.52,1.52,0,0,0-.31.85.44.44,0,0,1,0,.16c-.08.31-.18.62-.24.93s-.05.57-.12.84a3.82,3.82,0,0,0-.14,1.21c.06.6.1,1.19.15,1.79a1.14,1.14,0,0,0,.07.32c.07.23.14.47.22.69a1.28,1.28,0,0,0,.29.61l.6.52.37.33a2.51,2.51,0,0,0,.55.39"/><path class="cls-2" d="M160.83,49.46c.39.07.77.21,1.15.3a2.85,2.85,0,0,0,1.39-.08,2.39,2.39,0,0,0,.89-.4l1.08-.87s0,0,0,0c.24-.47.49-.94.7-1.42a2.41,2.41,0,0,0,.18-.65,6.2,6.2,0,0,0,.06-.62,2.75,2.75,0,0,0,0-.41c0-.22,0-.45-.05-.67s-.1-.71-.17-1.05a6.64,6.64,0,0,0-.28-.86,3.21,3.21,0,0,0-.33-.67,8,8,0,0,0-.68-.86,2.4,2.4,0,0,0-.53-.48c-.28-.17-.6-.28-.9-.43a6.93,6.93,0,0,0-.76-.41,3.9,3.9,0,0,1-1-.58,3.22,3.22,0,0,1-.28-.24.69.69,0,0,1-.28-.63c0-.25.12-.46.39-.52a3.09,3.09,0,0,1,.73-.12.81.81,0,0,1,.84.6c.13.35.36.68.8.64a2,2,0,0,0,.58-.25.54.54,0,0,0,.31-.54c0-.09,0-.19-.07-.29s-.05-.32-.08-.47a.5.5,0,0,0-.09-.21c-.18-.18-.37-.36-.57-.53a2.82,2.82,0,0,0-1.58-.61,3.58,3.58,0,0,0-1.49.14,1.58,1.58,0,0,1-.34.13.89.89,0,0,0-.59.37,1.89,1.89,0,0,1-.2.27,1.8,1.8,0,0,0-.5.84,1.65,1.65,0,0,0,0,1,2.31,2.31,0,0,0,.62,1,8.64,8.64,0,0,0,.69.66,2.53,2.53,0,0,0,.42.31c.29.16.6.29.89.45s.54.31.81.46.36.16.54.26a2.85,2.85,0,0,1,.49.34,3.11,3.11,0,0,1,.7,1.58c.08.34.12.68.17,1a.63.63,0,0,1,0,.19c0,.08,0,.15,0,.22-.06.31-.1.63-.19.93a4.83,4.83,0,0,1-.37.8,1.64,1.64,0,0,1-.29.4c-.19.17-.42.3-.62.47a.91.91,0,0,1-.69.2c-.2,0-.4-.07-.61-.08a2.2,2.2,0,0,1-1.19-.49c-.09-.08-.23-.12-.29-.21a2.42,2.42,0,0,1-.39-1,8.64,8.64,0,0,1,0-.88,1.94,1.94,0,0,1,.08-.64,6.82,6.82,0,0,1,.4-1,1.6,1.6,0,0,0,.08-.47.44.44,0,0,0-.45-.56,1.43,1.43,0,0,0-.41.09,1,1,0,0,0-.34.25c-.16.21-.29.43-.43.65l-.33.57a1.55,1.55,0,0,0-.13.36c0,.16,0,.33,0,.49a2.89,2.89,0,0,0,.06,1.37l.12.33a2.18,2.18,0,0,0,.61,1.11s0,0,0,0c.11.34.42.51.66.69a2.63,2.63,0,0,0,1.05.58"/></g><path class="cls-2" d="M56.33,39.73c.16.16.31.34.47.49l.7.58a2.69,2.69,0,0,0,.37.3c.27.19.55.36.82.54l.36.26c.2.15.39.32.6.46.47.34,1,.65,1.43,1s.54.63.94.79c0,0,.08.11.09.18a6.27,6.27,0,0,1,0,.75c0,.53,0,1-.07,1.58,0,.21,0,.42,0,.63s-.18.68,0,1a.17.17,0,0,1,0,.12.6.6,0,0,0,.14.6,3.79,3.79,0,0,0,.53.53.4.4,0,0,0,.27.05,1.67,1.67,0,0,0,.44-.11c.42-.16.6-.37.51-.76a2.56,2.56,0,0,1,0-.55c0-.33.06-.67.07-1s0-.88,0-1.32a6.94,6.94,0,0,0,0-1.44.42.42,0,0,1,.17-.48c.32-.21.62-.44.93-.66l.3-.25c.23-.2.44-.41.68-.59s.4-.22.58-.35.38-.33.57-.5l.93-.85,1.66-1.59c.18-.16.38-.3.57-.45s.51-.41.75-.62a6.52,6.52,0,0,0,.5-.55.24.24,0,0,0,0-.23,4,4,0,0,0-.31-.58.82.82,0,0,0-.28-.19,1.14,1.14,0,0,0-.92.08.47.47,0,0,0-.34.25c0,.07-.1.11-.16.16l-.7.59-1,.9-1.35,1.25c-.29.27-.58.55-.89.81s-.64.5-.95.75l-1,.86a2.74,2.74,0,0,1-.49.35c-.32.14-.55-.08-.77-.25s-.46-.39-.7-.57c-.46-.33-.94-.63-1.41-1s-.71-.52-1.07-.78c-.12-.08-.25-.13-.36-.22s-.45-.37-.67-.56-.49-.41-.72-.62-.47-.48-.7-.71-.5-.52-.76-.77-.61-.67-1.12-.62h-.14a4.81,4.81,0,0,0-.51.25.27.27,0,0,0-.09.2.93.93,0,0,0,.27.72c.28.33.57.66.86,1l.74.82c.1.11.23.19.33.29"/><path class="cls-2" d="M134.77,49.07a.21.21,0,0,1,.11-.12.7.7,0,0,0,.27-.77,1.32,1.32,0,0,1,0-.28c0-.65,0-1.3.05-1.95s0-1.34,0-2c0-.16,0-.33,0-.5,0-.41,0-.83,0-1.24s.07-.87.1-1.31,0-.71.05-1.07.08-.75.12-1.13a.28.28,0,0,0,0-.09c0-.18,0-.36.13-.47,0-.09-.09-.16-.12-.23s-.11-.26-.18-.38-.14-.18-.2-.28a.53.53,0,0,0-.56-.27,1.45,1.45,0,0,0-.82.3,1.13,1.13,0,0,0-.34,1c0,.18,0,.35,0,.53s0,.54,0,.82l0,1.22-.09,1.63c0,.56-.05,1.11-.07,1.67a4.47,4.47,0,0,0,0,.52c0,.34.08.69.08,1,0,.79,0,1.58-.11,2.36a1.18,1.18,0,0,0,.25.8,1.15,1.15,0,0,0,1.05.42.25.25,0,0,0,.27-.19"/><path class="cls-2" d="M133.46,34.89c.11.1.16.19.14.29l.17.09a2,2,0,0,0,.51.28,1.09,1.09,0,0,0,.72-.15,1,1,0,0,0,.52-1c0-.22-.16-.31-.29-.41a2,2,0,0,0-.57-.39,1.18,1.18,0,0,0-1.07.47,1,1,0,0,1-.16.24c-.09.08-.21.12-.12.27s.07.25.15.33"/><polygon class="cls-2" points="0 28.74 0.04 16.75 11.24 13.25 11.2 25.24 0 28.74"/><polygon class="cls-4" points="11.2 25.24 11.24 13.25 18.83 18.47 18.79 30.46 11.2 25.24"/><polygon class="cls-5" points="7.59 33.96 0 28.74 11.2 25.24 18.79 30.46 7.59 33.96"/><polygon class="cls-6" points="10.98 12.64 14.03 5.67 17.94 14.89 14.89 21.87 10.98 12.64"/><polygon class="cls-7" points="14.89 21.87 17.94 14.89 28.22 13.22 25.19 20.12 14.89 21.87"/><polygon class="cls-8" points="17.94 14.89 14.03 5.67 24.3 4 28.22 13.22 17.94 14.89"/><polygon class="cls-9" points="11.24 13.25 3.59 11.8 2.68 4.23 10.34 5.68 11.24 13.25"/><polygon class="cls-10" points="10.34 5.68 2.68 4.23 6.92 0 14.57 1.45 10.34 5.68"/><polygon class="cls-11" points="15.46 9.05 11.24 13.25 10.34 5.68 14.57 1.45 15.46 9.05"/><path class="cls-12" d="M33,20.14H31.12v-2.5H33c0-3.38,1.18-4.43,4.48-4.43.61,0,1.24,0,1.86.07V16a9.65,9.65,0,0,0-1-.06c-.88,0-1.43.11-1.43,1.18v.52h2.32v2.5H36.84v9.28H33Z"/><path class="cls-12" d="M39.9,17.64h3.75V19.7h.05a3.55,3.55,0,0,1,3.54-2.29,4.76,4.76,0,0,1,.91.09V21a5.71,5.71,0,0,0-1.48-.23,2.72,2.72,0,0,0-2.91,2.8v5.83H39.9Z"/><path class="cls-12" d="M54.38,17.3a6,6,0,0,1,6.22,6.24,6.21,6.21,0,1,1-12.42,0,6,6,0,0,1,6.2-6.24m0,9.51c1.79,0,2.36-1.77,2.36-3.27s-.57-3.29-2.36-3.29S52,22,52,23.54s.54,3.27,2.34,3.27"/><path class="cls-12" d="M61.37,17.64h3.74v1.61h0a4.45,4.45,0,0,1,3.7-1.95c3.92,0,4.24,2.86,4.24,4.56v7.56H69.24v-5.7c0-1.61.18-3.24-1.93-3.24-1.45,0-2.09,1.22-2.09,2.52v6.42H61.37Z"/><path class="cls-12" d="M81.77,20.14H79.39v5.35c0,.93.55,1.14,1.39,1.14.31,0,.65-.05,1-.05v2.84c-.7,0-1.4.11-2.11.11-3.29,0-4.13-1-4.13-4.15V20.14h-2v-2.5h2V14.08h3.86v3.56h2.38Z"/><path class="cls-12" d="M86.57,16.16H82.71V13.21h3.86Zm-3.86,1.48h3.86V29.42H82.71Z"/><path class="cls-12" d="M91.37,24.47A2.52,2.52,0,0,0,94,27.15a2.32,2.32,0,0,0,2.21-1.29h3.61c-.71,2.72-3.23,3.9-5.86,3.9-3.84,0-6.45-2.31-6.45-6.26a6.18,6.18,0,0,1,6.36-6.2c4.22,0,6.33,3.18,6.15,7.17Zm4.79-2.15a2.39,2.39,0,0,0-2.29-2.41,2.55,2.55,0,0,0-2.5,2.41Z"/><path class="cls-12" d="M101,17.64h3.74V19.7h.05a3.56,3.56,0,0,1,3.54-2.29,4.68,4.68,0,0,1,.91.09V21a5.64,5.64,0,0,0-1.48-.23,2.71,2.71,0,0,0-2.9,2.8v5.83H101Z"/><path class="cls-12" d="M113.51,25.54a1.61,1.61,0,0,0,.63,1.32,2.43,2.43,0,0,0,1.43.4c.75,0,1.82-.31,1.82-1.24s-1.21-1.09-1.89-1.25c-2.43-.62-5.47-.68-5.47-3.86,0-2.84,3.07-3.61,5.38-3.61,2.59,0,5.29.75,5.43,3.81h-3.57a1.11,1.11,0,0,0-.5-1,2.27,2.27,0,0,0-1.22-.29c-.64,0-1.66.06-1.66.88,0,1.11,2.59,1.32,4.36,1.7a3.36,3.36,0,0,1,3,3.18c0,3.16-3,4.2-5.66,4.2s-5.65-.93-5.76-4.22Z"/></svg>