<svg id="Layer_1" data-name="Layer 1" xmlns="http://www.w3.org/2000/svg" viewBox="0 0 211.14 39.05"><defs><style>.cls-1{fill:#234090;}.cls-2{fill:#bdd4ef;}.cls-3{fill:#1694d2;}.cls-4{fill:#7aba43;}</style></defs><title>FRONTEX</title><path class="cls-1" d="M46.42,14.35V19.5H58v4.88H46.42v9.41H41.09V9.47H59.73v4.88Zm31.5,3.46c0,2-1.51,3.46-4.08,3.46H68.43v-7h5.32c2.58,0,4.17,1.24,4.17,3.55Zm6.22,16-6-8.7a7.58,7.58,0,0,0,5.24-7.54v-.09c0-5-3.47-8-9.15-8H63.1V33.79h5.33V26H72.6l5.23,7.81Zm22.72-12.07a7.26,7.26,0,0,1-7.28,7.54,7.41,7.41,0,0,1-7.37-7.63v-.09A7.27,7.27,0,0,1,99.49,14a7.45,7.45,0,0,1,7.37,7.73ZM99.49,34.14c7.45,0,13-5.59,13-12.51v-.09c0-6.84-5.42-12.43-12.87-12.43a12.6,12.6,0,0,0-13,12.52v.09c0,6.83,5.41,12.42,12.87,12.42m39-.35V9.47h-5.24V24.38L121.77,9.47h-4.89V33.79h5.24V18.34l11.72,15.45Zm24.41-19.35v-5H142.71v5h7.37V33.79h5.32V14.44Zm22.72,19.35V29H172.35v-5H183.8v-4.8H172.35V14.26H185.4V9.47H167.12V33.79Zm25.38,0-8.43-12.43L210.6,9.47h-6l-4.79,7.81-5.42-7.81h-6.21l8.08,11.89L187.8,33.7h6l5.86-8.34,5.06,8.34H211Z" transform="translate(0 -5.47)"/><path class="cls-2" d="M0,9.47H0v5.06l6,2a20.33,20.33,0,0,1,8.07-2h1Z" transform="translate(0 -5.47)"/><path class="cls-2" d="M0,19.05H0v5.06H.09v.09l6,2a20.5,20.5,0,0,1,8.07-2h1Z" transform="translate(0 -5.47)"/><path class="cls-3" d="M28.22,9.47c-5.14-.89-8.78-4-14.11-4h0c-5.32,0-9,3.11-14.11,4v5.06c5.15-.89,8.79-4,14.11-4s9,3.11,14.11,4Z" transform="translate(0 -5.47)"/><path class="cls-1" d="M28.22,28.64c-5.14-.89-8.78-4-14.11-4h0c-5.32,0-9,3.1-14.11,4V33.7c5.15-.89,8.79-4,14.11-4s9,3.11,14.11,4Z" transform="translate(0 -5.47)"/><path class="cls-4" d="M28.22,19.05c-5.14-.88-8.78-4-14.11-4h0c-5.32,0-9,3.11-14.11,4v5.06c5.15-.89,8.79-4,14.11-4s9,3.1,14.11,4Z" transform="translate(0 -5.47)"/><path class="cls-1" d="M0,38H4.08V39.2H1.51v1.42h2.4v1.15H1.51v1.42H4.35v1.16H0Z" transform="translate(0 -5.47)"/><path class="cls-1" d="M5,41.77V38.05H6.48v3.72c0,1,.44,1.51,1.42,1.51s1.42-.53,1.42-1.68V38.05h1.51V41.6A2.67,2.67,0,0,1,8,44.53C6.48,44.44,5,43.82,5,41.77Z" transform="translate(0 -5.47)"/><path class="cls-1" d="M14.91,42.93l-.71-.8h-.8v2.22H11.89v-6.3h2.4c1.42,0,2.4.62,2.4,2a1.89,1.89,0,0,1-1,1.68l.62.71a2.66,2.66,0,0,0,1.42.8l-.35,1.16A3.35,3.35,0,0,1,14.91,42.93Zm-1-1.87c.89,0,1.25-.35,1.25-1s-.27-.89-1.07-.89H13.4v1.86Z" transform="translate(0 -5.47)"/><path class="cls-1" d="M17.84,41.15a3.12,3.12,0,0,1,3.46-3.28,3,3,0,0,1,3.28,3.28c0,2-1.15,3.29-3.46,3.29A3,3,0,0,1,17.84,41.15Zm5.15,0c0-1.15-.54-2-1.78-2s-1.86.89-1.86,2,.53,2.13,1.77,2.13C22.54,43.19,23,42.31,23,41.15Z" transform="translate(0 -5.47)"/><path class="cls-1" d="M25.29,38h2.4a2.15,2.15,0,0,1,2.4,2.22c0,1.24-1,2.3-2.84,2.3H26.8v1.78H25.29Zm1.51,3.37h.54c1,0,1.24-.53,1.24-1.06a.94.94,0,0,0-1.07-1.07H26.8Z" transform="translate(0 -5.47)"/><path class="cls-1" d="M30.8,38h4.08V39.2H32.3v1.42h2.4v1.15H32.3v1.42h2.85v1.16H30.8Z" transform="translate(0 -5.47)"/><path class="cls-1" d="M37.45,38h2l2.13,6.3h-1.6l-.62-1.87H37.19l-.71,1.87H35Zm1.6,3.37-.62-2.4-.71,2.4Z" transform="translate(0 -5.47)"/><path class="cls-1" d="M42,38h1.77l2.4,4.35h0V38h1.51v6.3H45.88l-2.39-4.17h0v4.17H42Z" transform="translate(0 -5.47)"/><path class="cls-1" d="M50.68,38H52.9c1.5,0,2.3.53,2.3,1.77a1.35,1.35,0,0,1-.71,1.16h0a1.55,1.55,0,0,1,1.16,1.5c0,1.16-.71,2-2.49,2H50.68Zm2,2.66c.62,0,1-.18,1-.71s-.35-.71-1.06-.71h-.45v1.42ZM53,43.11c.8,0,1.07-.18,1.07-.71s-.36-.8-1.24-.8H52.1v1.51Z" transform="translate(0 -5.47)"/><path class="cls-1" d="M56,41.15a3.12,3.12,0,0,1,3.46-3.28,3,3,0,0,1,3.29,3.28c0,2-1.16,3.29-3.47,3.29A3,3,0,0,1,56,41.15Zm5.15,0c0-1.15-.53-2-1.78-2s-1.86.89-1.86,2,.53,2.13,1.78,2.13C60.71,43.19,61.15,42.31,61.15,41.15Z" transform="translate(0 -5.47)"/><path class="cls-1" d="M66.56,42.93l-.71-.8h-.8v2.22h-1.5v-6.3h2.39c1.42,0,2.4.62,2.4,2a1.89,1.89,0,0,1-1,1.68l.62.71a2.66,2.66,0,0,0,1.42.8l-.35,1.16A3.35,3.35,0,0,1,66.56,42.93ZM65.5,41.06c.88,0,1.24-.35,1.24-1s-.27-.89-1.06-.89H65v1.86Z" transform="translate(0 -5.47)"/><path class="cls-1" d="M69.85,38h2.22c2.13,0,3.63,1,3.63,3.1s-1.33,3.2-3.63,3.2H69.76V38Zm2.39,5.15c1.42,0,2-.63,2-2s-.71-2-2.21-2h-.71v4Z" transform="translate(0 -5.47)"/><path class="cls-1" d="M76.59,38h4.08V39.2H78.1v1.42h2.4v1.15H78.1v1.42h2.84v1.16H76.59Z" transform="translate(0 -5.47)"/><path class="cls-1" d="M84.76,42.93l-.71-.8h-.8v2.22H81.74v-6.3h2.4c1.41,0,2.39.62,2.39,2a1.87,1.87,0,0,1-1,1.68l.63.71a2.63,2.63,0,0,0,1.42.8l-.36,1.16A3.19,3.19,0,0,1,84.76,42.93Zm-1.07-1.87c.89,0,1.24-.35,1.24-1s-.26-.89-1.06-.89h-.71v1.86Z" transform="translate(0 -5.47)"/><path class="cls-1" d="M91.32,38h2l2.13,6.3h-1.6l-.62-1.87H91.06l-.71,1.87H88.84Zm1.6,3.37-.62-2.4-.71,2.4Z" transform="translate(0 -5.47)"/><path class="cls-1" d="M95.94,38h1.77l2.4,4.35h0V38h1.51v6.3H99.84L97.45,40h0v4.17H95.94Z" transform="translate(0 -5.47)"/><path class="cls-1" d="M102.77,38H105c2.13,0,3.64,1,3.64,3.1s-1.33,3.2-3.64,3.2h-2.31V38Zm2.4,5.15c1.42,0,2-.63,2-2s-.71-2-2.22-2h-.71v4Z" transform="translate(0 -5.47)"/><path class="cls-1" d="M110.85,41.24A3.12,3.12,0,0,1,114.31,38a4.68,4.68,0,0,1,2,.35l-.35,1.07a4.1,4.1,0,0,0-1.51-.27,1.77,1.77,0,0,0-2,2,1.9,1.9,0,0,0,2.13,2,6.15,6.15,0,0,0,1.42-.18l.35,1.15a4.44,4.44,0,0,1-1.95.36C112,44.44,110.85,43.28,110.85,41.24Z" transform="translate(0 -5.47)"/><path class="cls-1" d="M116.53,41.15A3.12,3.12,0,0,1,120,37.87a3,3,0,0,1,3.28,3.28c0,2-1.15,3.29-3.46,3.29A3,3,0,0,1,116.53,41.15Zm5.15,0c0-1.15-.54-2-1.78-2s-1.86.89-1.86,2,.53,2.13,1.77,2.13C121.23,43.19,121.68,42.31,121.68,41.15Z" transform="translate(0 -5.47)"/><path class="cls-1" d="M125.58,38h2l2.13,6.3h-1.59l-.63-1.87h-2.13l-.71,1.87h-1.5Zm1.51,3.37-.62-2.4-.71,2.4Z" transform="translate(0 -5.47)"/><path class="cls-1" d="M129.57,43.9l.45-1.15a3.33,3.33,0,0,0,1.68.36c.8,0,1.07-.27,1.07-.71,0-1.07-3-.63-3-2.76A2,2,0,0,1,132,37.78a3.54,3.54,0,0,1,1.95.44l-.44,1.16A3.39,3.39,0,0,0,132,39a.72.72,0,0,0-.8.62c0,.8,3,.71,3,2.67,0,1.42-1.33,1.95-2.57,1.95A2.74,2.74,0,0,1,129.57,43.9Z" transform="translate(0 -5.47)"/><path class="cls-1" d="M136.32,39.2h-1.95V38.05h5.41V39.2h-1.95v5.15h-1.51Z" transform="translate(0 -5.47)"/><path class="cls-1" d="M141.73,41.24c0-2.31,1.25-3.28,3.55-3.28a4.61,4.61,0,0,1,1.87.35l-.36,1.07a4.42,4.42,0,0,0-1.51-.27,1.73,1.73,0,0,0-1.95,2,1.87,1.87,0,0,0,2,2h.36v-2h1.51V44a5.43,5.43,0,0,1-2,.36C143.07,44.44,141.73,43.37,141.73,41.24Z" transform="translate(0 -5.47)"/><path class="cls-1" d="M148,41.77V38.05h1.51v3.72c0,1,.44,1.51,1.42,1.51s1.42-.53,1.42-1.68V38.05h1.5V41.6A2.66,2.66,0,0,1,151,44.53C149.46,44.44,148,43.82,148,41.77Z" transform="translate(0 -5.47)"/><path class="cls-1" d="M156.29,38h2l2.13,6.3h-1.6l-.62-1.87H156l-.71,1.87H153.8Zm1.6,3.37-.62-2.4-.71,2.4Z" transform="translate(0 -5.47)"/><path class="cls-1" d="M163.92,42.93l-.71-.8h-.8v2.22H160.9v-6.3h2.4c1.42,0,2.4.62,2.4,2a1.89,1.89,0,0,1-1,1.68l.62.71a2.66,2.66,0,0,0,1.42.8l-.35,1.16A3.2,3.2,0,0,1,163.92,42.93Zm-1.06-1.87c.88,0,1.24-.35,1.24-1s-.27-.89-1.07-.89h-.71v1.86Z" transform="translate(0 -5.47)"/><path class="cls-1" d="M167.21,38h2.21c2.13,0,3.64,1,3.64,3.1s-1.33,3.2-3.64,3.2h-2.3V38Zm2.39,5.15c1.42,0,2-.63,2-2s-.71-2-2.22-2h-.71v4Z" transform="translate(0 -5.47)"/><path class="cls-1" d="M177.23,38h2l2.13,6.3h-1.6l-.62-1.87H177l-.71,1.87h-1.51Zm1.51,3.37-.62-2.4-.71,2.4Z" transform="translate(0 -5.47)"/><path class="cls-1" d="M181.41,41.24c0-2.31,1.24-3.28,3.55-3.28a4.56,4.56,0,0,1,1.86.35l-.36,1.07a4.4,4.4,0,0,0-1.5-.27,1.74,1.74,0,0,0-2,2,1.87,1.87,0,0,0,2,2h.36v-2h1.51V44a5.43,5.43,0,0,1-2,.36C182.74,44.44,181.41,43.37,181.41,41.24Z" transform="translate(0 -5.47)"/><path class="cls-1" d="M187.8,38h4.08V39.2H189.3v1.42h2.4v1.15h-2.4v1.42h2.84v1.16H187.8Z" transform="translate(0 -5.47)"/><path class="cls-1" d="M192.85,38h1.78l2.4,4.35h0V38h1.5v6.3h-1.77L194.36,40h0v4.17h-1.51Z" transform="translate(0 -5.47)"/><path class="cls-1" d="M199.33,41.24A3.12,3.12,0,0,1,202.79,38a4.77,4.77,0,0,1,2,.35l-.36,1.07a4.1,4.1,0,0,0-1.51-.27,1.77,1.77,0,0,0-1.95,2,1.9,1.9,0,0,0,2.13,2,6.08,6.08,0,0,0,1.42-.18l.36,1.15a4.51,4.51,0,0,1-2,.36C200.49,44.44,199.33,43.28,199.33,41.24Z" transform="translate(0 -5.47)"/><path class="cls-1" d="M207.05,42.31l-2.3-4.26h1.77l1.42,3,1.51-3h1.69l-2.49,4.26v2.13h-1.51V42.31Z" transform="translate(0 -5.47)"/></svg>