<svg id="Layer_1" data-name="Layer 1" xmlns="http://www.w3.org/2000/svg" viewBox="0 0 275.7 50"><defs><style>.cls-1{fill:#d42027;fill-rule:evenodd;}</style></defs><title>gohnson&amp;amp;gohnson</title><g id="_--Symbols" data-name="--Symbols"><g id="Footer-1440"><g id="Logo"><path id="Fill-1" class="cls-1" d="M100,18.1a.65.65,0,0,1,.69-.69c.66,0,1.65.69,2.21,2.09-.2,0-.5.06-.7.06-1.2,0-2.2-.57-2.2-1.46Zm-72.29,0a.65.65,0,0,1,.7-.69c.64,0,1.59.69,2.15,2.09-1.85,0-2.85-.4-2.85-1.4Zm14-7.19c0-7.46,1.45-8.6,1.9-8.6.8,0,.9.5.9,3.35a17.2,17.2,0,0,1-2.8,8.9Zm50.75,7.34a8.63,8.63,0,0,0-1.56,5.1c0,4.2,2.39,8.21,7,8.21,4.5,0,7.65-3.56,7.65-8.52a10.54,10.54,0,0,0-.15-2.23,12.12,12.12,0,0,0,2.65-1.71,2.75,2.75,0,0,1,1.4-.7c.45,0,.65.35.65,1v9.8c0,1.6.5,2.36,1.75,2.36a2.73,2.73,0,0,0,2.4-1.76c1.65-3.45,4-8,5.09-9.79.25-.4.46-.71.6-.71s.3.15.3.8v7.81c0,2.19,1,3.65,3.2,3.65s3.45-2.21,5.46-5.61a1.09,1.09,0,0,0,.14-.5.73.73,0,0,0-.79-.7c-.46,0-.71.45-2.2,2.1-.31.31-.6.74-1.16.74-.19,0-.35-.24-.35-.54V18.3c0-2.36-1-3.3-2.4-3.3a3.39,3.39,0,0,0-3,1.85,84.6,84.6,0,0,0-4.39,7.85c-.11.21-.25.5-.35.5s-.15-.15-.15-.5V18.3c0-1.85-.5-3.3-2.45-3.3s-3.1,1.4-4.6,2.45a14.73,14.73,0,0,1-2.45,1.5c-1-2.55-2.85-3.84-4.4-3.8a2.51,2.51,0,0,0-2.65,2.61,3.43,3.43,0,0,0,2.35,3.29,6.12,6.12,0,0,0,2.45.36,3.05,3.05,0,0,0,.79-.06,9.2,9.2,0,0,1,.06,1.75c0,2.46-1.45,4.9-4.15,4.9s-4.45-2.7-4.45-5.8a8.61,8.61,0,0,1,1.84-5.64c.46-.5.81-.81.81-1.27,0-.23-.35-.29-.65-.29a12.77,12.77,0,0,0-5.44,1.6,32.37,32.37,0,0,0-6,4.3c-.9-2-2-3.75-2.55-5.11-.2-.55-.35-1.18-.75-1.18s-.51.34-.75,1c-.9,2.66-5.7,10.41-6.75,11.46-.1.15-.24.3-.29.3s-.17,0-.17-.35V18.3c0-2.36-.95-3.3-2.24-3.3a3.33,3.33,0,0,0-3,1.85c-1.64,2.5-3.65,6.15-4.6,8-.15.31-.3.4-.35.4s-.09-.2-.09-.5V18.3c0-2.36-1-3.3-2.26-3.3a3.28,3.28,0,0,0-3,1.85c-2.09,3.55-5.59,9-6.24,9.9a.94.94,0,0,1-.3.3c-.1,0-.16-.1-.16-.35V18.3c0-2.36-.95-3.3-2.24-3.3-1.8,0-2.8,1.65-3.46,2.7-.9,1.45-2.09,3.4-3,5.21a8.65,8.65,0,0,1-1.41,2.29c-.09,0-.09-.45-.09-1.3V17.2A18.7,18.7,0,0,0,46.79,4.7c0-2.7-1.19-4.2-3-4.2-3.45,0-6.1,5.41-6.1,11.8v5.2a13.66,13.66,0,0,1-5,1.85c-.94-2.79-2.95-4.24-4.54-4.2a2.51,2.51,0,0,0-2.65,2.61c0,2.64,2.6,3.74,4.9,3.74h.65a9.31,9.31,0,0,1,.09,1.6c0,2.46-1.44,4.9-4.14,4.9s-4.45-2.7-4.45-5.8a8.56,8.56,0,0,1,1.84-5.64,2.6,2.6,0,0,0,.81-1.27c0-.23-.35-.29-.65-.29-1.9,0-6.1,2.56-11.1,7.56a109.19,109.19,0,0,1-.95-11.71,43.69,43.69,0,0,1,1-8.9A10.6,10.6,0,0,0,13.71.61c0-.4-.22-.61-.76-.61C8.9,0,0,6.45,0,16.1,0,23,2.51,26.25,6.85,30.5,4.21,34.75,2.1,39.8,2.1,44.3c0,3.24.75,5.7,3.15,5.7,5,0,8.74-10.39,8.74-18.1q0-3.45-.28-6.9c1.84-2,4.69-4.6,5.39-4.85a11.91,11.91,0,0,0-.5,3.2c0,4.2,2.4,8.21,7,8.21C30,31.56,33.3,28,33.3,23c0-.64-.06-1.19-.1-1.79a13,13,0,0,0,4.45-1.55V29.75a1.67,1.67,0,0,0,1.75,1.81c1.15,0,1.75-.81,2.59-2.65.71-1.51,2.6-4.95,3.75-7,.91-1.6,1.41-2.65,1.81-2.65.1,0,.2.25.2.85v8.55c0,2.3,1.2,2.91,2.24,2.91A2.78,2.78,0,0,0,52.3,30.1c2.6-3.7,5.35-8.1,6.44-10,.21-.34.45-.6.66-.6s.29.11.29.75v9c0,1.6.5,2.36,1.76,2.36a2.65,2.65,0,0,0,2.34-1.76c1.66-3.45,4.1-8,5.15-9.79.25-.4.5-.76.65-.76s.25.25.25.9v8.5c0,2.3,1.2,2.91,2.26,2.91,1.39,0,2.3-1,3.2-2.16,1.64-2.15,4-6,5.49-8.45a22.6,22.6,0,0,1,1.51,2.8c-1.21,1.45-2.41,3.1-2.41,4.85a2.76,2.76,0,0,0,2.65,3c2.3,0,4.4-2.21,4.4-5.26a10.61,10.61,0,0,0-.8-3.64c2-2,4.5-4,6.31-4.41ZM10.09,29.15a51.94,51.94,0,0,1,.76,7.3c0,4.79-1.6,10.4-4.35,10.35-1.06,0-1.95-1.06-2-2.9-.1-6,2.75-11.1,5.59-14.75Zm73-3.4A6.69,6.69,0,0,1,83.54,28c0,.8-.3,1.6-.85,1.6-.39,0-.79-.45-.79-1.15A5.84,5.84,0,0,1,83.09,25.75ZM11.9,1.9c0,.31-.7,1.7-1.6,4.2A31.56,31.56,0,0,0,8.45,16.85a71.38,71.38,0,0,0,1.21,9.7L8.05,28.71C5.5,25.6,3.9,22.11,3.9,16.1c0-8.49,5.15-14.39,7.8-14.39.16,0,.2.05.2.19Z"/><path id="Fill-4" class="cls-1" d="M246.66,18.1a.65.65,0,0,1,.7-.69c.65,0,1.65.69,2.2,2.09-.2,0-.5.06-.71.06C247.66,19.56,246.66,19,246.66,18.1Zm-72.29,0a.65.65,0,0,1,.7-.69c.65,0,1.61.69,2.15,2.09-1.85,0-2.85-.4-2.85-1.4Zm13.95-7.19c0-7.46,1.44-8.6,1.9-8.6.79,0,.9.5.9,3.35a17.2,17.2,0,0,1-2.8,8.9ZM156.73,29.15a56.68,56.68,0,0,1,.75,7.3c0,4.79-1.6,10.4-4.36,10.35-1,0-1.94-1.06-2-2.9-.11-6,2.75-11.1,5.6-14.75Zm73-3.4a6.66,6.66,0,0,1,.44,2.25c0,.8-.29,1.6-.84,1.6-.4,0-.81-.45-.81-1.15A5.79,5.79,0,0,1,229.72,25.75ZM158.52,1.9c0,.31-.7,1.7-1.6,4.2a31.56,31.56,0,0,0-1.85,10.75,74.72,74.72,0,0,0,1.21,9.7l-1.6,2.16c-2.55-3.11-4.16-6.6-4.16-12.61,0-8.49,5.16-14.39,7.81-14.39.14,0,.19.05.19.19Zm-8.34,25a29.6,29.6,0,0,0,3.3,3.6c-2.66,4.25-4.75,9.3-4.75,13.8,0,3.24.75,5.7,3.15,5.7,5,0,8.74-10.39,8.74-18.1,0-2.3-.09-4.6-.3-6.9,1.86-2,4.7-4.6,5.41-4.85a11.93,11.93,0,0,0-.51,3.2c0,4.2,2.4,8.21,7.05,8.21,4.35,0,7.65-3.56,7.65-8.52,0-.64,0-1.19-.1-1.79a12.89,12.89,0,0,0,4.45-1.55V29.75A1.67,1.67,0,0,0,186,31.56c1.16,0,1.76-.81,2.61-2.65.7-1.51,2.6-4.95,3.75-7,.9-1.6,1.4-2.65,1.81-2.65.09,0,.19.25.19.85v8.55c0,2.3,1.19,2.91,2.25,2.91a2.8,2.8,0,0,0,2.31-1.46c2.59-3.7,5.34-8.1,6.44-10,.2-.34.45-.6.64-.6s.31.11.31.75v9c0,1.6.49,2.36,1.74,2.36a2.68,2.68,0,0,0,2.36-1.76c1.65-3.45,4.1-8,5.14-9.79.26-.4.51-.76.66-.76s.25.25.25.9v8.5c0,2.3,1.19,2.91,2.24,2.91,1.41,0,2.31-1,3.2-2.16A100.75,100.75,0,0,0,227.42,21a22.62,22.62,0,0,1,1.5,2.8c-1.21,1.45-2.4,3.1-2.4,4.85a2.74,2.74,0,0,0,2.64,3c2.3,0,4.4-2.21,4.4-5.26a10.61,10.61,0,0,0-.8-3.64c2.05-2,4.5-4,6.3-4.41a8.7,8.7,0,0,0-1.55,5.1c0,4.2,2.4,8.21,7.05,8.21,4.5,0,7.64-3.56,7.64-8.52a10.1,10.1,0,0,0-.14-2.23,12.71,12.71,0,0,0,2.66-1.71,2.67,2.67,0,0,1,1.38-.7c.46,0,.67.35.67,1v9.8c0,1.6.49,2.36,1.74,2.36a2.72,2.72,0,0,0,2.4-1.76c1.64-3.45,4-8,5.09-9.79.25-.4.46-.71.61-.71s.3.15.3.8v7.81c0,2.19,1,3.65,3.2,3.65s3.45-2.21,5.45-5.61a1.09,1.09,0,0,0,.14-.5.74.74,0,0,0-.79-.7c-.45,0-.71.45-2.2,2.1-.3.31-.6.74-1.15.74-.21,0-.35-.24-.35-.54V18.3c0-2.36-1.06-3.3-2.41-3.3a3.38,3.38,0,0,0-2.94,1.85,82.33,82.33,0,0,0-4.39,7.85c-.11.21-.26.5-.36.5s-.15-.15-.15-.5V18.3c0-1.85-.5-3.3-2.45-3.3s-3.1,1.4-4.6,2.45a14.75,14.75,0,0,1-2.46,1.5c-1-2.55-2.84-3.84-4.38-3.8a2.5,2.5,0,0,0-2.65,2.61,3.44,3.44,0,0,0,2.33,3.29,6.28,6.28,0,0,0,2.47.36,3.3,3.3,0,0,0,.8-.06,11.25,11.25,0,0,1,0,1.75c0,2.46-1.45,4.9-4.15,4.9s-4.44-2.7-4.44-5.8a8.61,8.61,0,0,1,1.83-5.64c.46-.5.81-.81.81-1.27,0-.23-.35-.29-.65-.29A12.9,12.9,0,0,0,238,16.6a32.26,32.26,0,0,0-6,4.3c-.91-2-2-3.75-2.56-5.11-.2-.55-.34-1.18-.75-1.18s-.5.34-.75,1c-.9,2.66-5.7,10.41-6.74,11.46-.11.15-.25.3-.31.3s-.15,0-.15-.35V18.3c0-2.36-.94-3.3-2.25-3.3a3.34,3.34,0,0,0-2.95,1.85c-1.65,2.5-3.65,6.15-4.6,8-.14.31-.29.4-.34.4s-.11-.2-.11-.5V18.3c0-2.36-.94-3.3-2.24-3.3a3.26,3.26,0,0,0-3,1.85c-2.11,3.55-5.6,9-6.26,9.9a.67.67,0,0,1-.3.3c-.09,0-.14-.1-.14-.35V18.3c0-2.36-.95-3.3-2.26-3.3-1.8,0-2.79,1.65-3.45,2.7-.9,1.45-2.09,3.4-3,5.21a8.75,8.75,0,0,1-1.4,2.29c-.1,0-.1-.45-.1-1.3V17.2a18.66,18.66,0,0,0,5.1-12.5c0-2.7-1.2-4.2-3.06-4.2-3.44,0-6.09,5.41-6.09,11.8v5.2a13.66,13.66,0,0,1-5,1.85c-.94-2.79-2.94-4.24-4.53-4.2a2.51,2.51,0,0,0-2.66,2.61c0,2.64,2.59,3.74,4.9,3.74h.65a8.39,8.39,0,0,1,.1,1.6c0,2.46-1.45,4.9-4.15,4.9s-4.44-2.7-4.44-5.8A8.61,8.61,0,0,1,171,16.56a2.64,2.64,0,0,0,.8-1.27c0-.23-.35-.29-.65-.29-1.9,0-6.1,2.56-11.1,7.56a109.19,109.19,0,0,1-.95-11.71,43.44,43.44,0,0,1,1-8.9,9.64,9.64,0,0,0,.15-1.34c0-.4-.2-.61-.74-.61-4.05,0-13,6.45-13,16.1A16.7,16.7,0,0,0,149,25.3a7.44,7.44,0,0,0-1.41-.1,18.57,18.57,0,0,0-4,.6v-1c0-2.14-.51-5.1-1.41-6.1a.6.6,0,0,0-.4-.15,3.3,3.3,0,0,0-1.45.5c-.61.3-1.2.61-1.2.8a.74.74,0,0,0,.15.45,7.43,7.43,0,0,1,1.64,3.86,8.12,8.12,0,0,0-6.18-2.46c-3,0-3.91,1.34-3.91,2.7,0,2.6,3.45,3.9,7.81,3.9a12.43,12.43,0,0,0,2.59-.35c0,.8.1,1.51.1,2.1,0,.85.14,1.51.7,1.51.85,0,1.35-1.71,1.45-4.16a19.17,19.17,0,0,1,4.5-.74,12.7,12.7,0,0,1,2.25.24Zm-9.85-.5a16.42,16.42,0,0,1-2.24.1c-2,0-3.4-.75-3.4-1.84,0-.7.35-1.11,1.35-1.11,1.6,0,2.89,1.11,4.29,2.85Z"/></g></g></g></svg>