<svg id="Layer_1" data-name="Layer 1" xmlns="http://www.w3.org/2000/svg" viewBox="0 0 349.72 50"><defs><style>.cls-1{fill:#0272ba;}</style></defs><title>HCL</title><path class="cls-1" d="M173.57,2.8C191-.7,209-.64,226.54,1.46c7.27.94,14.83,1.89,21.24,5.73,3.74,2.17,6.63,6.11,6.77,10.53-12,.25-24,.12-36,.09-3.58-4.18-9.3-5.49-14.57-5.73-7.06-.24-14.4.29-20.87,3.37C177.69,18,173,22.84,171.56,28.83c-.71,2.72,1.05,5.55,3.45,6.78,4.63,2.36,9.94,2.64,15,2.83,6.68.27,13.63-1,19.29-4.68.57-.32,1.06-.93,1.77-.84q18.18-.06,36.37,0c-4.18,4.67-9.73,7.88-15.51,10.15a96.54,96.54,0,0,1-22.63,5.37A194,194,0,0,1,183.62,50c-11.63-.06-23.39-.82-34.6-4.07-5.18-1.61-10.39-4.08-13.77-8.48a12.28,12.28,0,0,1-1.36-12.58c2.39-5.29,7.07-9.12,12-12a92.68,92.68,0,0,1,27.71-10Z" transform="translate(0 0)"/><path class="cls-1" d="M21,1.67c12.6-.2,25.2.12,37.81.07-2.32,5.23-4.67,10.46-7,15.69,12.27,0,24.53-.05,36.79,0C91,12.25,93.28,7,95.68,1.73c12.95,0,25.9,0,38.85,0Q124,25,113.51,48.35c-10.85.23-21.7.09-32.55.12a40.76,40.76,0,0,1-6.15-.22c2.87-6.1,5.58-12.28,8.34-18.42H46.24c-2.66,6.17-5.42,12.3-8,18.5-12.75.27-25.49.17-38.24.09C6.91,32.78,14.09,17.28,21,1.67Z" transform="translate(0 0)"/><path class="cls-1" d="M272.72,1.59h39.07q-7.92,17.76-15.91,35.46,26.91,0,53.84.05-2.57,5.67-5.12,11.35-46.43,0-92.84,0c6.9-15.65,14-31.24,21-46.85Z" transform="translate(0 0)"/></svg>