<svg id="Layer_1" data-name="Layer 1" xmlns="http://www.w3.org/2000/svg" viewBox="0 0 119.63 49.96"><defs><style>.cls-1{fill:#03b188;}.cls-2{fill:#231f20;}</style></defs><title>HEWLETT</title><g id="layer1"><g id="g3646"><path id="path3346" class="cls-1" d="M38.38,9.2H2.56V2.56H38.38V9.2ZM40.94,0H0V11.76H40.94Z"/><g id="g3348"><path id="path3350" class="cls-2" d="M2.56,31.19H0V19.43H2.56v4.65H7.13V19.43H9.69V31.19H7.13V26.31H2.56v4.88"/></g><g id="g3352"><path id="path3354" class="cls-2" d="M13.56,26h3c-.05-.86-.41-1.47-1.41-1.47A1.55,1.55,0,0,0,13.56,26Zm1.94,5.34a4.06,4.06,0,0,1-4.36-4.32c0-2.62,1.73-4.42,4-4.42,2.51,0,3.75,1.67,3.75,4.17v.94H13.56a2.12,2.12,0,0,0,2.34,1.64,4,4,0,0,0,2.31-.68h.1v1.94a4.78,4.78,0,0,1-2.81.73"/></g><g id="g3356"><path id="path3358" class="cls-2" d="M25.59,26.26l-1.32,4.93H22l-2.56-8.28v-.1h2.45l1.39,5,1.32-5h2l1.34,5,1.41-5h2.35v.1l-2.56,8.28H26.92l-1.33-4.93"/></g><g id="g3360"><path id="path3362" class="cls-2" d="M35.88,31.37c-2,0-2.86-.81-2.86-2.7V19.43H35.5V28.5c0,.58.22.79.71.79a1.81,1.81,0,0,0,.57-.12h0v2a2.88,2.88,0,0,1-.94.15"/></g><g id="g3364"><path id="path3366" class="cls-2" d="M39.94,26H43c-.06-.86-.42-1.47-1.41-1.47A1.54,1.54,0,0,0,39.94,26Zm1.94,5.34a4.07,4.07,0,0,1-4.37-4.32c0-2.62,1.73-4.42,4-4.42,2.5,0,3.74,1.67,3.74,4.17v.94H39.94a2.11,2.11,0,0,0,2.33,1.64,4,4,0,0,0,2.32-.68h.09v1.94a4.77,4.77,0,0,1-2.8.73"/></g><g id="g3368"><path id="path3370" class="cls-2" d="M55.48,22.81h1.84v2H55.48v3.4c0,.74.28,1.08,1,1.08a2.28,2.28,0,0,0,.76-.12h0v2a4.54,4.54,0,0,1-1.52.24c-2,0-2.8-.92-2.8-3V24.81H49.82v3.4c0,.74.28,1.08,1,1.08a2.19,2.19,0,0,0,.75-.12h.06v2a4.54,4.54,0,0,1-1.52.24c-2,0-2.81-.92-2.81-3V24.81H46.05v-2h1.28V20.52h2.49v2.29H53V20.52h2.48v2.29"/></g><g id="g3372"><path id="path3374" class="cls-2" d="M65.69,25.2a1.69,1.69,0,0,0,1.92-1.78,1.7,1.7,0,0,0-1.92-1.83H64.07V25.2Zm4.51-1.78c0,2.56-1.71,3.95-4.3,3.95H64.07v3.82H61.51V19.43H65.9c2.59,0,4.3,1.39,4.3,4"/></g><g id="g3376"><path id="path3378" class="cls-2" d="M75.66,28.55v-.71a2.85,2.85,0,0,0-1.37-.28c-.81,0-1.3.3-1.3,1s.49,1,1.22,1A1.46,1.46,0,0,0,75.66,28.55Zm.08,1.81a2.84,2.84,0,0,1-2.23,1,2.74,2.74,0,0,1-3-2.77c0-1.64,1.34-2.73,3.26-2.73a6.53,6.53,0,0,1,1.86.29V26c0-.91-.51-1.3-1.84-1.3a4.77,4.77,0,0,0-2.36.64h-.09v-2a6.26,6.26,0,0,1,2.88-.69c2.52,0,3.89,1.2,3.89,3.31v5.25h-2.4v-.83"/></g><g id="g3380"><path id="path3382" class="cls-2" d="M79.4,27a4.19,4.19,0,0,1,4.39-4.38,4,4,0,0,1,2.33.64v2.12H86a3.16,3.16,0,0,0-1.92-.66A2.12,2.12,0,0,0,81.92,27a2.1,2.1,0,0,0,2.19,2.26A3.16,3.16,0,0,0,86,28.61h.09v2.12a3.89,3.89,0,0,1-2.33.64A4.17,4.17,0,0,1,79.4,27"/></g><g id="g3384"><path id="path3386" class="cls-2" d="M90.16,27.39v3.8H87.68V19.43h2.48v6.7l2.51-3.32h2.82v.1l-3,3.8,3,4.38v.1H92.65l-2.49-3.8"/></g><g id="g3388"><path id="path3390" class="cls-2" d="M101.06,28.55v-.71a2.89,2.89,0,0,0-1.38-.28c-.8,0-1.29.3-1.29,1s.49,1,1.22,1A1.47,1.47,0,0,0,101.06,28.55Zm.07,1.81a2.8,2.8,0,0,1-2.22,1,2.73,2.73,0,0,1-3-2.77c0-1.64,1.33-2.73,3.26-2.73a6.53,6.53,0,0,1,1.86.29V26c0-.91-.51-1.3-1.85-1.3a4.76,4.76,0,0,0-2.35.64h-.09v-2a6.26,6.26,0,0,1,2.88-.69c2.52,0,3.89,1.2,3.89,3.31v5.25h-2.41v-.83"/></g><g id="g3392"><path id="path3394" class="cls-2" d="M107.72,24.17a2.22,2.22,0,0,1,2-1.45,2.07,2.07,0,0,1,.81.15v2.37h-.1a2.88,2.88,0,0,0-1.09-.19,1.57,1.57,0,0,0-1.58,1.32v4.82h-2.48V22.81h2.41v1.36"/></g><g id="g3396"><path id="path3398" class="cls-2" d="M117.14,28.35v-2.7a1.83,1.83,0,0,0-1.58-.86c-1.09,0-1.82.79-1.82,2.22s.73,2.2,1.82,2.2A1.83,1.83,0,0,0,117.14,28.35Zm.08,2a3,3,0,0,1-2.49,1.05c-2.14,0-3.51-1.95-3.51-4.36s1.37-4.38,3.51-4.38a3,3,0,0,1,2.41,1V19.43h2.49V31.19h-2.41v-.87"/></g><g id="g3400"><path id="path3402" class="cls-2" d="M0,35H7.26v1.43H1.64v3.6H6.73v1.39H1.64v3.91H7.26v1.43H0V35"/></g><g id="g3404"><path id="path3406" class="cls-2" d="M13.26,38.33c1.86,0,2.9,1.23,2.9,3.24v5.21H14.6V41.61a1.64,1.64,0,0,0-1.73-1.85,2.17,2.17,0,0,0-2.09,1.51v5.51H9.22V38.5h1.56v1.21a2.87,2.87,0,0,1,2.48-1.38"/></g><g id="g3408"><path id="path3410" class="cls-2" d="M20.36,38.5h2.12v1.34H20.36V44.3c0,.94.48,1.26,1.37,1.26a1.85,1.85,0,0,0,.69-.12h.06v1.34a2.58,2.58,0,0,1-1,.17c-1.94,0-2.71-.89-2.71-2.5V39.84H17.36V38.5h1.43V36.3h1.57v2.2"/></g><g id="g3412"><path id="path3414" class="cls-2" d="M25.1,41.83h4.12c-.06-1.22-.66-2.16-1.94-2.16A2.27,2.27,0,0,0,25.1,41.83ZM27.56,47a3.89,3.89,0,0,1-4.08-4.21c0-2.6,1.54-4.41,3.78-4.41S30.72,40,30.72,42.4v.71H25a2.53,2.53,0,0,0,2.73,2.48,3.49,3.49,0,0,0,2.31-.75h.06v1.38a4.14,4.14,0,0,1-2.58.73"/></g><g id="g3416"><path id="path3418" class="cls-2" d="M34.13,39.78a2.17,2.17,0,0,1,2-1.41,2.14,2.14,0,0,1,.81.13v1.55h-.06a2.3,2.3,0,0,0-1-.17,1.89,1.89,0,0,0-1.82,1.5v5.4H32.56V38.5h1.57v1.28"/></g><g id="g3420"><path id="path3422" class="cls-2" d="M42,45.54c1.54,0,2.44-1.22,2.44-2.9s-.9-2.89-2.44-2.89A2.32,2.32,0,0,0,40,41.06v3.18A2.31,2.31,0,0,0,42,45.54Zm.26-7.21c2.46,0,3.78,2,3.78,4.31S44.75,47,42.29,47A3,3,0,0,1,40,45.86V50H38.41V38.5H40v.94a2.94,2.94,0,0,1,2.31-1.11"/></g><g id="g3424"><path id="path3426" class="cls-2" d="M49.48,39.78a2.17,2.17,0,0,1,2.05-1.41,2.14,2.14,0,0,1,.81.13v1.55h-.06a2.3,2.3,0,0,0-1-.17,1.89,1.89,0,0,0-1.82,1.5v5.4H47.92V38.5h1.56v1.28"/></g><g id="g3428"><path id="path3430" class="cls-2" d="M54.59,35.16a1,1,0,1,1,0,2,1,1,0,1,1,0-2"/></g><path id="path3432" class="cls-2" d="M53.82,46.78h1.56V38.5H53.82Z"/><g id="g3434"><path id="path3436" class="cls-2" d="M61,42c1.19.37,2.5.86,2.5,2.44S62.06,47,60.28,47a4.8,4.8,0,0,1-2.81-.75V44.71h.08a4,4,0,0,0,2.71.92c.88,0,1.67-.34,1.67-1.05s-.66-.9-2-1.34-2.46-.81-2.46-2.37,1.32-2.54,3-2.54A4.47,4.47,0,0,1,63,39v1.51H63a3.71,3.71,0,0,0-2.44-.87c-1,0-1.53.43-1.53,1s.61.84,1.94,1.28"/></g><g id="g3438"><path id="path3440" class="cls-2" d="M66.43,41.83h4.12c-.06-1.22-.66-2.16-1.94-2.16A2.27,2.27,0,0,0,66.43,41.83ZM68.89,47a3.89,3.89,0,0,1-4.08-4.21c0-2.6,1.54-4.41,3.78-4.41S72.05,40,72.05,42.4v.71H66.37a2.53,2.53,0,0,0,2.73,2.48,3.49,3.49,0,0,0,2.31-.75h.06v1.38a4.14,4.14,0,0,1-2.58.73"/></g></g></g></svg>