<svg id="Layer_1" data-name="Layer 1" xmlns="http://www.w3.org/2000/svg" viewBox="0 0 54.96 46"><defs><style>.cls-1{fill:#243f85;}</style></defs><title>INVESCO</title><polyline class="cls-1" points="36.18 30.22 34.17 32.25 32.21 30.23 31.16 27.1 28.16 26.06 28.15 24.11 26.2 24.12 25.17 29.07 26.23 32.27 21.64 34.31 20.23 32.29 21.2 30.27 21.2 28.11 18.2 28.12 14.24 32.31 11.24 31.35 11.23 27.17 6 26.34 2.25 28.38 0.01 27.41 0 23.16 2.02 22.18 10.02 18.18 11.2 19.15 14.19 16.15 14.18 14.2 18.14 10.21 20.15 5.96 23.13 1 28.07 0.01 30.09 0 30.1 1.95 34.08 5.91 34.1 10.16 40.32 16.06 46.32 20.08 49.32 21.05 50.38 24.04 54.35 25.98 52.34 28 50.39 28.01 50.38 25.99 47.38 25.02 42.35 20.1 38.37 18.09 34.1 12.11 32.15 10.16 33.11 6.96 30.11 3.97 28.09 5.93 28.11 10.18 26.16 12.14 30.14 16.09 28.13 18.12 32.18 22.08 32.19 24.1 34.16 28.06 36.18 28.06 38.4 26.03 37.35 25.06 36.16 22.07 38.38 22.06 40.35 26.02 42.38 28.04 36.18 30.22"/><polyline class="cls-1" points="0.07 45.94 0.04 35.35 2.27 34.37 2.3 45.94 0.07 45.94"/><path class="cls-1" d="M11.5,47.91H9.27v-4.6c0-1.39-.57-1.81-1.4-1.8-1,0-1.4.42-1.39,1.81v4.6H4.33l0-8.43H6.46v.63a2.57,2.57,0,0,1,2-.77c1.95,0,3,1.38,3,3.75" transform="translate(0 -2)"/><path class="cls-1" d="M20.46,39.45l-3,8.44H15.26l-3-8.42h2.44l1.19,3.83a12.45,12.45,0,0,0,.57,2,10.81,10.81,0,0,1,.41-2L18,39.45" transform="translate(0 -2)"/><path class="cls-1" d="M26.46,42.63a1.6,1.6,0,0,0-1.6-1.39,1.77,1.77,0,0,0-1.81,1.4m2,5.36a4.14,4.14,0,0,1-4.27-4.38,4.08,4.08,0,0,1,4-4.33c2.37,0,3.77,1.94,3.78,4.31v.83l-5.58,0a2,2,0,0,0,2,1.39,2.74,2.74,0,0,0,1.6-.63l1.54,1.25A4,4,0,0,1,25.09,48Z" transform="translate(0 -2)"/><path class="cls-1" d="M33.44,46c.77,0,1.18-.21,1.18-.63s-.76-.76-1.18-.76c-1.61-.41-3.63-.62-3.63-2.77,0-1.61,1.59-2.59,3.4-2.6a5.52,5.52,0,0,1,3.21,1l-1.18,1.61a3.8,3.8,0,0,0-2-.62c-1,0-1.19.21-1.19.63s1.19.55,1.82.76c1.6.41,3,.82,3,2.57S35.05,48,33.24,48a6.93,6.93,0,0,1-3.63-1.17l1.25-1.4a5.13,5.13,0,0,0,2.58.62" transform="translate(0 -2)"/><path class="cls-1" d="M42.2,41.39A2.2,2.2,0,1,0,44,44.8l1.81,1.39a5,5,0,0,1-3.62,1.75,4.36,4.36,0,1,1,0-8.71A5.05,5.05,0,0,1,45.83,41L44,42.36a2.2,2.2,0,0,0-1.82-1" transform="translate(0 -2)"/><path class="cls-1" d="M52.8,43.52a2.09,2.09,0,1,0-4.18,0,2.09,2.09,0,1,0,4.18,0m2.16,0a4.18,4.18,0,0,1-4.16,4.4,4.35,4.35,0,1,1,0-8.7A4.17,4.17,0,0,1,55,43.51Z" transform="translate(0 -2)"/></svg>