<?xml version="1.0" encoding="utf-8"?>
<!-- Generator: Adobe Illustrator 24.0.2, SVG Export Plug-In . SVG Version: 6.00 Build 0)  -->
<svg version="1.1" id="Layer_1" xmlns="http://www.w3.org/2000/svg" xmlns:xlink="http://www.w3.org/1999/xlink" x="0px" y="0px"
	 viewBox="0 0 73.9 50" style="enable-background:new 0 0 73.9 50;" xml:space="preserve">
<style type="text/css">
	.st0{fill:#F39120;}
	.st1{fill-rule:evenodd;clip-rule:evenodd;fill:#204998;}
	.st2{fill:#E26225;}
	.st3{fill:#221F1F;}
</style>
<g>
	<path class="st0" d="M18.8,49.8c0,0-2.5-0.9-4.2-6.7c-1.7-5.8-2.7-15.1-4.5-19.8c-1.1-2.8-3.9-5.6-6.1-5.4c0,0-3.3,0-3.9,3.6
		c-0.5,3.1,2.2,6.3,6,4.7c0,0,1.7,3.7,2.1,12.8C8.6,48.1,11.3,50.8,18.8,49.8 M64.8,22.1c0,0-1.8-3-4.8-3c-3,0-5.5,3.3-6.2,6.8
		c-0.8,3.5-0.7,6.3-0.9,7.7c-0.3,1.4-1.9,4.3-2.1,1c-0.2-3.3,0.4-8.8,0-10.8s-1.8-4.3-3.9-4.3c-2.1,0-4.1,2.5-4.9,5.6
		c0,0,0.4-6.6-5.6-0.9c0,0,0.4,5.8-0.1,9.4c-0.5,3.6-2.4,4-2.7,0.6c-0.3-3.4-0.5-8.1-0.5-8.1l-5.9,3c0,0,1.2,9.4-1.3,9.8
		c-2.5,0.4-6-8.8-6.3-9.8c0,0,23.4-4.4,22.5-22.8c0,0-0.3-6.1-5.6-6.4c-5.3-0.3-7.5,7.6-2.2,10.2c0,0,2.7,1.2,4.7,0l0.1,0.2
		c0,0-0.1,10.7-26.3,15.6c0,0,4.4,19.3,10.6,19.2c0,0,3.1,0.2,4.6-6c0,0,0.5,3.5,3.7,3.5c3.2,0,4.9-5.6,4.9-5.6s-0.9,5.4,5.4,3.9
		c0,0-0.2-9.5,0.2-12.3c0.4-2.9,3.8-5,3.4,2.4c-0.4,7.3-0.7,10,2.5,10s5.3-3.4,5.5-5.1c0.1-1.7-0.2,4.7,3.9,4.7c0,0,3.4,0,5-3.2
		c0,0,0.2,8-5.9,8s-18.8-4.8-30.3,2.8c0,0,3.3-1.5,12.3-1.4c9,0,17.3,3.3,21.1,3.3c3.7,0,7.1-1.6,7.3-12.8
		c0.2-11.2,1.4-12.6,1.4-12.6s5.1,1.5,5.5-3.8C74.2,16.8,67.8,13.2,64.8,22.1z M62.9,33.5c0,0-0.7,1.9-2.6,1.9
		c-1.9,0-2.8-1.9-2.2-6.9c0.7-5,3.5-7,5.7-3.5C63.8,25,63,30,62.9,33.5z"/>
</g>
<g>
	<path class="st1" d="M382.7,12.6c0-1.3-1.1-2.4-2.4-2.4h-15.8c-2.7,0-5.1,1.3-6.6,3.3l-8.1,10.8c-0.3,0.4-0.5,0.9-0.5,1.4
		c0,1.3,1.1,2.4,2.4,2.4l15.8,0c2.7,0,5.1-1.3,6.6-3.3l8.1-10.8C382.5,13.6,382.7,13.1,382.7,12.6L382.7,12.6L382.7,12.6z
		 M345.7,19.6c1.9-0.4,3.6-1.6,4.8-3.1l1.9-2.5c0.3-0.4,0.5-0.9,0.5-1.4c0-1.3-1.1-2.4-2.4-2.4l-10.1,0l0,0h-9.8L317,28.1h9.6
		l10.9,0c2.7,0,5.1-1.3,6.6-3.3l1.9-2.5c0.2-0.3,0.4-0.7,0.4-1.2C346.5,20.5,346.1,20,345.7,19.6L345.7,19.6L345.7,19.6z
		 M336.6,21.9l-1.2,1.6c-0.4,0.5-1,0.9-1.7,0.9h-4l2.6-3.5h3.8c0.3,0,0.6,0.3,0.6,0.6C336.7,21.7,336.6,21.8,336.6,21.9L336.6,21.9
		L336.6,21.9z M402.3,20.9l2.8-3.8l-9.8,0l2.4-3.2h9.8l2.8-3.8h-19.6l-13.5,17.9h19.6l2.8-3.8h-9.8l2.6-3.5H402.3L402.3,20.9
		L402.3,20.9z M341.8,14.9l-1,1.4c-0.4,0.5-1,0.9-1.7,0.9l-4,0l2.4-3.2h3.8c0.3,0,0.6,0.3,0.6,0.6C341.9,14.7,341.9,14.8,341.8,14.9
		L341.8,14.9L341.8,14.9z M371.8,14.9l-6.5,8.6c-0.4,0.5-1,0.9-1.7,0.9h-2.8c-0.3,0-0.6-0.3-0.6-0.6c0-0.1,0-0.3,0.1-0.4l6.5-8.6
		c0.4-0.5,1-0.9,1.7-0.9h2.8c0.3,0,0.6,0.3,0.6,0.6C371.9,14.7,371.8,14.8,371.8,14.9L371.8,14.9L371.8,14.9z M480.7,10.2l-15.8,0
		c-2.7,0-5.1,1.3-6.6,3.3l-8.1,10.8c-0.3,0.4-0.5,0.9-0.5,1.4c0,1.3,1.1,2.4,2.4,2.4h15.8c2.7,0,5.1-1.3,6.6-3.3l2-2.6h2.3l2.8-3.8
		h-12.1l-3.8,5.1c-0.4,0.5-1,0.9-1.7,0.9h-2.8c-0.3,0-0.6-0.3-0.6-0.6c0-0.1,0-0.3,0.1-0.4l6.5-8.6c0.4-0.5,1-0.9,1.7-0.9h2.8
		c0.3,0,0.6,0.3,0.6,0.6c0,0.1,0,0.3-0.1,0.4l-1.1,1.4h9.8l1.7-2.3c0.3-0.4,0.5-0.9,0.5-1.4C483.1,11.3,482,10.2,480.7,10.2
		L480.7,10.2L480.7,10.2z M448.6,10.2l-6.8,9.1l-2.1-9.1H432l-13.5,17.9h6.5l6.8-9l2.1,9h7.7l13.5-17.9H448.6L448.6,10.2L448.6,10.2
		z M416,10.2l-13.5,17.9h9.8l13.5-17.9L416,10.2L416,10.2L416,10.2z"/>
	<path class="st1" d="M299.8,30.4c1-2.2,1.6-4.7,1.6-7.4c0-6.1-3.1-11.4-7.8-14.5c2.8-2.9,5.8-5.7,9-8.4c-3.8,2.2-7.3,4.8-10.6,7.5
		c-2.4-1.3-5.2-2-8.1-2c-9.6,0-17.5,7.8-17.5,17.5c0,4.4,1.6,8.3,4.2,11.4c-3.3,7.2-3.9,13-1,15c3.2,2.1,10-1.7,14.1-7.9
		c0,0-6.4,5.7-9.9,4.4c-2.2-0.8-2.2-4.1-0.4-8.8c2.9,2.1,6.5,3.4,10.3,3.4c4.8,0,9.1-1.9,12.3-5l0.6,1.2c7.6-0.6,30.3-1.2,30.3-1.2
		C327.2,34.3,312.1,35.3,299.8,30.4L299.8,30.4L299.8,30.4z M271.4,33.1c-2.2-2.8-3.5-6.3-3.5-10.1c0-8.9,7.2-16.1,16.1-16.1
		c2.5,0,4.9,0.6,7,1.6C282,16.2,275.2,25.3,271.4,33.1L271.4,33.1L271.4,33.1z M290.5,24.8l5,9.4c-2.9,3-7.1,4.9-11.6,4.9
		c-3.7,0-7.1-1.2-9.8-3.3c3-7.1,9.5-16.9,18.5-26.4c4.5,2.9,7.4,7.9,7.4,13.6c0,2.5-0.5,4.8-1.5,6.9
		C295.6,28.6,292.9,26.9,290.5,24.8L290.5,24.8L290.5,24.8z"/>
</g>
<g>
	<path class="st2" d="M30.8,206.7c-42,1.9-25.9,47.9-25.9,47.9c3.7-4,15.4-13.4,32-13.5c0,0,0,0,0.1,0c8,0,12.7,6.8,10.8,13.5
		c0,0,12.4-14.5,5.5-31.1c-2.3-5.5-8.5-9.6-15.7-9.6c-2.5,0-5,0.5-7.6,1.5c-6.1,2.5-6.9,7.9-5.6,10.5c0.9,1.9,2.7,2.8,4.6,2.8
		c0.3,0,0.7,0,1-0.1c6.1-1,8.6-3.8,10-3.8c0.2,0,0.4,0.1,0.5,0.2c0.9,0.7,0,3.5-7.7,6.7c-1.9,0.8-5.3,1.6-8.7,1.6
		c-4,0-7.9-1.2-9.2-5.2c-2.4-7.4,6.3-16.4,19.5-17.4c0.7-0.1,1.6-0.1,2.2-0.1c6.7,0,11.5,3,13.9,5c-2.7-4.6-8.5-8.8-17.7-8.9
		C32.6,206.7,31.8,206.7,30.8,206.7"/>
	<path class="st3" d="M344.2,252.2c1.4,0,2.5-1.1,2.5-2.7v-3.1c0-1.3-0.7-2.6-2.3-2.6c-0.8,0-1.8,0.5-2.2,1.4h0V241h-1.7v11h1.5
		l0-1.2h0C342.4,251.7,343.4,252.2,344.2,252.2 M343.8,251c-0.8,0-1.7-0.8-1.7-1.9v-2c0-1.2,0.8-1.9,1.6-1.9c0.8,0,1.3,0.4,1.3,1.3
		v3.1C345,250.5,344.6,251,343.8,251 M350.2,252.2c1,0,2-0.6,2.3-1.5h0l0,1.3h1.6v-8h-1.7v5c0,1-0.8,1.9-1.7,1.9
		c-0.9,0-1.1-0.5-1.1-1.3V244H348v6C348,251.5,349.1,252.2,350.2,252.2 M355.9,252h1.7v-8h-1.7V252z M355.9,242.9h1.7V241h-1.7
		V242.9z M361.2,252.2c0.4,0,0.8-0.1,1.2-0.2v-1.3c-0.2,0-0.4,0.1-0.6,0.1c-0.6,0-0.8-0.3-0.8-0.8v-9h-1.7v9.3
		C359.3,251.5,360,252.2,361.2,252.2 M365.5,252.2c0.5,0,1-0.1,1.5-0.3v-1.4c-0.3,0.1-0.6,0.1-0.9,0.1c-0.6,0-0.9-0.3-0.9-0.8v-4.4
		h1.9v-1.3h-1.9V242h-1.7v2.1h-1.2v1.3h1.2v5C363.6,251.8,364.6,252.2,365.5,252.2 M372.6,252.2c0.6,0,1.7-0.2,2.3-1.3h0.1
		c0,0.6,0.1,1,0.1,1.1h1.6c0-0.3-0.1-1.3-0.1-1.9v-3.9c0-1.6-1.3-2.4-2.9-2.4c-1.7,0-3,0.8-3,2.2v0.5h1.5v-0.4
		c0-0.7,0.5-1.1,1.3-1.1c0.8,0,1.3,0.4,1.3,1.1v1.1h-1.2c-1.4,0-3.2,0.7-3.2,2.6C370.4,251.5,371.4,252.2,372.6,252.2 M373.3,250.9
		c-0.7,0-1.2-0.4-1.2-1.3c0-1,0.8-1.3,1.7-1.3h1v0.9C374.8,250.2,374.1,250.9,373.3,250.9 M380.4,252.2c1.6,0,3-0.9,3-2.5
		c0-1.1-0.7-2-2-2.4l-1-0.4c-0.7-0.2-1-0.5-1-1c0-0.5,0.4-0.8,1.1-0.8c0.6,0,1.2,0.3,1.8,0.7l0.8-1.1c-0.6-0.6-1.6-0.9-2.6-0.9
		c-1.8,0-2.7,1.2-2.7,2.4c0,1.1,0.6,1.9,1.9,2.3l0.8,0.2c0.7,0.2,1.3,0.5,1.3,1.2c0,0.6-0.5,1-1.3,1c-0.8,0-1.6-0.5-2.2-1l-0.9,1.1
		C378.1,251.8,379.2,252.2,380.4,252.2 M386.8,252.2c1.6,0,3-0.9,3-2.5c0-1.1-0.7-2-2-2.4l-1-0.4c-0.7-0.2-1-0.5-1-1
		c0-0.5,0.4-0.8,1.1-0.8c0.6,0,1.2,0.3,1.8,0.7l0.8-1.1c-0.6-0.6-1.6-0.9-2.6-0.9c-1.8,0-2.7,1.2-2.7,2.4c0,1.1,0.6,1.9,1.9,2.3
		l0.8,0.2c0.7,0.2,1.3,0.5,1.3,1.2c0,0.6-0.5,1-1.3,1c-0.8,0-1.6-0.5-2.2-1l-0.9,1.1C384.4,251.8,385.6,252.2,386.8,252.2
		 M393.7,252.2c1,0,1.9-0.2,2.7-0.8l-0.4-1.1c-0.4,0.2-1.2,0.5-2,0.5c-1.1,0-1.8-0.4-1.8-1.6v-0.8h4.4v-1.7c0-1.8-1.2-2.9-3-2.9
		c-1.7,0-3.1,1.1-3.1,3.2v2.2C390.6,251.4,391.9,252.2,393.7,252.2 M392.3,247.3v-0.7c0-0.8,0.4-1.5,1.4-1.5c1,0,1.4,0.8,1.4,1.5
		v0.7H392.3z M400.4,252.2c0.5,0,1-0.1,1.5-0.3v-1.4c-0.3,0.1-0.6,0.1-0.9,0.1c-0.6,0-0.9-0.3-0.9-0.8v-4.4h1.9v-1.3h-1.9V242h-1.7
		v2.1h-1.2v1.3h1.2v5C398.4,251.8,399.4,252.2,400.4,252.2 M405.6,252.2c1.6,0,3-0.9,3-2.5c0-1.1-0.7-2-2-2.4l-1-0.4
		c-0.7-0.2-1-0.5-1-1c0-0.5,0.4-0.8,1.1-0.8c0.6,0,1.2,0.3,1.8,0.7l0.8-1.1c-0.6-0.6-1.6-0.9-2.6-0.9c-1.8,0-2.7,1.2-2.7,2.4
		c0,1.1,0.6,1.9,1.9,2.3l0.8,0.2c0.7,0.2,1.3,0.5,1.3,1.2c0,0.6-0.5,1-1.3,1c-0.8,0-1.6-0.5-2.2-1l-0.9,1.1
		C403.2,251.8,404.4,252.2,405.6,252.2"/>
	<path class="st3" d="M340.9,237.6h1.7V231h1.5v-1.4h-1.5v-1c0-0.6,0.3-0.8,0.8-0.8c0.2,0,0.6,0,0.8,0.1v-1.3
		c-0.3-0.1-0.7-0.1-1.1-0.1c-1.3,0-2.2,0.7-2.2,2.2v1h-1.1v1.4h1.1V237.6z M347.9,237.7c1.7,0,3.1-0.9,3.1-3v-2.5
		c0-2-1.4-2.9-3.1-2.9c-1.7,0-3.1,1-3.1,3v2.5C344.8,236.8,346.2,237.7,347.9,237.7 M347.9,236.4c-1,0-1.4-0.6-1.4-1.6v-2.6
		c0-0.9,0.4-1.6,1.4-1.6c1,0,1.4,0.7,1.4,1.5v2.6C349.3,235.7,349,236.4,347.9,236.4 M352.4,237.6h1.7v-4.9c0-1.3,1-1.7,1.9-1.7
		c0.1,0,0.4,0,0.7,0v-1.5c-0.2,0-0.5-0.1-0.6-0.1c-0.9,0-1.5,0.4-2,1.4h0v-1.3h-1.6V237.6z M360,237.6h1.7v-5.1
		c0-1.1,0.9-1.8,1.6-1.8c0.8,0,1.1,0.4,1.1,1.2v5.7h1.7v-6c0-1.3-0.9-2.2-2.1-2.2c-1,0-1.9,0.4-2.4,1.5h0v-1.3H360V237.6z
		 M369.5,237.7c0.6,0,1.7-0.2,2.3-1.3h0.1c0,0.6,0.1,1,0.1,1.1h1.6c0-0.3-0.1-1.3-0.1-1.9v-3.9c0-1.6-1.3-2.4-2.9-2.4
		c-1.7,0-3,0.8-3,2.2v0.5h1.5v-0.4c0-0.7,0.5-1.1,1.3-1.1c0.8,0,1.3,0.4,1.3,1.1v1.1h-1.2c-1.4,0-3.2,0.7-3.2,2.6
		C367.3,237,368.3,237.7,369.5,237.7 M370.2,236.5c-0.7,0-1.2-0.4-1.2-1.3c0-1,0.9-1.3,1.7-1.3h1v0.9
		C371.7,235.8,371,236.5,370.2,236.5 M377.5,237.7c0.5,0,1-0.1,1.5-0.3v-1.4c-0.3,0.1-0.6,0.1-0.9,0.1c-0.6,0-0.9-0.3-0.9-0.8V231
		h1.9v-1.3h-1.9v-2.1h-1.7v2.1h-1.2v1.3h1.2v5C375.5,237.3,376.5,237.7,377.5,237.7 M382.4,237.7c1,0,2-0.6,2.3-1.5h0l0,1.3h1.6v-8
		h-1.7v5c0,1-0.8,1.9-1.7,1.9c-0.9,0-1.1-0.5-1.1-1.3v-5.6h-1.7v6C380.2,237,381.3,237.7,382.4,237.7 M388,237.6h1.7v-4.9
		c0-1.3,1-1.7,1.9-1.7c0.1,0,0.4,0,0.7,0v-1.5c-0.2,0-0.5-0.1-0.6-0.1c-0.9,0-1.5,0.4-2,1.4h0v-1.3H388V237.6z M394.9,237.7
		c0.6,0,1.7-0.2,2.3-1.3h0.1c0,0.6,0.1,1,0.1,1.1h1.6c0-0.3-0.1-1.3-0.1-1.9v-3.9c0-1.6-1.3-2.4-2.9-2.4c-1.7,0-3,0.8-3,2.2v0.5h1.5
		v-0.4c0-0.7,0.5-1.1,1.3-1.1c0.8,0,1.3,0.4,1.3,1.1v1.1h-1.2c-1.4,0-3.2,0.7-3.2,2.6C392.6,237,393.7,237.7,394.9,237.7
		 M395.5,236.5c-0.7,0-1.2-0.4-1.2-1.3c0-1,0.8-1.3,1.7-1.3h1v0.9C397,235.8,396.4,236.5,395.5,236.5 M402.1,237.7
		c0.4,0,0.8-0.1,1.2-0.2v-1.3c-0.2,0-0.4,0.1-0.6,0.1c-0.6,0-0.8-0.3-0.8-0.8v-9h-1.7v9.3C400.2,237,400.9,237.7,402.1,237.7
		 M408.5,237.7c0.6,0,1.7-0.2,2.3-1.3h0.1c0,0.6,0.1,1,0.1,1.1h1.6c0-0.3-0.1-1.3-0.1-1.9v-3.9c0-1.6-1.3-2.4-2.9-2.4
		c-1.7,0-3,0.8-3,2.2v0.5h1.5v-0.4c0-0.7,0.5-1.1,1.3-1.1c0.8,0,1.3,0.4,1.3,1.1v1.1h-1.2c-1.4,0-3.2,0.7-3.2,2.6
		C406.3,237,407.3,237.7,408.5,237.7 M409.2,236.5c-0.7,0-1.2-0.4-1.2-1.3c0-1,0.8-1.3,1.7-1.3h1v0.9
		C410.7,235.8,410,236.5,409.2,236.5 M413.9,237.6h1.7v-5.1c0-1.1,0.9-1.8,1.6-1.8c0.8,0,1.1,0.4,1.1,1.2v5.7h1.7v-6
		c0-1.3-0.9-2.2-2.1-2.2c-1,0-1.9,0.4-2.4,1.5h0v-1.3h-1.6V237.6z M423.6,237.7c0.9,0,1.7-0.5,2.3-1.5h0l0.1,1.3h1.5v-11h-1.7v3.9h0
		c-0.4-0.7-1.2-1.1-2-1.1c-1.4,0-2.5,1.1-2.5,2.6v3.2C421.4,236.6,422.1,237.7,423.6,237.7 M424.3,236.4c-0.8,0-1.2-0.5-1.2-1.3V232
		c0-1.1,0.5-1.5,1.2-1.5c0.7,0,1.7,0.8,1.7,1.9v2.1C425.9,235.6,425.1,236.4,424.3,236.4"/>
	<path class="st2" d="M340.5,223.1h3.9c2.1,0,3.6-1.1,3.6-3.3v-4.5c0-2.2-1.5-3.1-3.6-3.1h-3.9V223.1z M342.3,221.6v-8h1.8
		c1.3,0,1.9,0.8,1.9,1.9v4.3c0,0.9-0.6,1.9-1.9,1.9H342.3z M352.3,223.3c1,0,1.9-0.2,2.7-0.8l-0.4-1.1c-0.4,0.2-1.2,0.5-2,0.5
		c-1.1,0-1.8-0.4-1.8-1.6v-0.8h4.4v-1.7c0-1.8-1.2-2.9-3-2.9c-1.7,0-3.1,1.1-3.1,3.2v2.2C349.2,222.4,350.5,223.3,352.3,223.3
		 M350.9,218.3v-0.7c0-0.8,0.4-1.5,1.4-1.5c1,0,1.4,0.8,1.4,1.5v0.7H350.9z M358.7,223.3c1.6,0,3-0.9,3-2.5c0-1.1-0.7-2-2-2.4
		l-1-0.4c-0.7-0.2-1-0.5-1-1c0-0.5,0.4-0.8,1.1-0.8c0.6,0,1.2,0.3,1.8,0.7l0.8-1.1c-0.6-0.6-1.6-0.9-2.6-0.9c-1.8,0-2.7,1.2-2.7,2.4
		c0,1.1,0.6,1.9,1.9,2.3l0.8,0.2c0.7,0.2,1.3,0.5,1.3,1.2c0,0.6-0.5,1-1.3,1c-0.8,0-1.6-0.5-2.2-1l-0.9,1.1
		C356.4,222.9,357.5,223.3,358.7,223.3 M362.9,223.1h1.7v-8h-1.7V223.1z M362.9,214h1.7v-1.9h-1.7V214z M368.9,226
		c2.1,0,3.3-1.2,3.3-3.2v-7.7h-1.4l-0.1,1.1h0c-0.4-0.8-1.3-1.3-2.1-1.3c-1.3,0-2.5,0.9-2.5,2.5v3.1c0,1.4,0.8,2.3,2.3,2.3
		c0.8,0,1.7-0.4,2.1-1.4h0v1.7c0,1.1-0.6,1.5-1.7,1.5c-0.8,0-1.6-0.2-2.2-0.6l-0.5,1.3C366.7,225.8,367.8,226,368.9,226
		 M368.8,221.6c-0.9,0-1.2-0.6-1.2-1.4v-2.6c0-1,0.4-1.5,1.2-1.5c0.7,0,1.6,0.7,1.6,1.8v1.6C370.4,220.7,369.6,221.6,368.8,221.6
		 M373.6,223.1h1.7V218c0-1,0.9-1.8,1.6-1.8c0.8,0,1.1,0.4,1.1,1.2v5.6h1.7v-6c0-1.3-0.9-2.2-2.1-2.2c-1,0-1.9,0.4-2.4,1.5h0v-1.3
		h-1.6V223.1z M386.7,223.3c1.2,0,2.3-0.5,3.1-1.4l0.9,1.1h2.2l-1.7-2.1c0.5-0.7,1-1.8,1.2-2.9l-1.5-0.2c-0.2,0.8-0.4,1.6-0.6,2
		l-2-2.5c1.4-0.6,2.4-1.6,2.4-3.1c0-1.3-1.2-2.4-2.9-2.4c-2.2,0-3,1.5-3,2.7c0,0.8,0.4,1.7,1.1,2.5c-1.5,0.6-2.4,1.9-2.4,3.2
		C383.5,222,384.8,223.3,386.7,223.3 M387.1,221.8c-1.2,0-1.9-0.8-1.9-1.8c0-0.8,0.4-1.7,1.5-2.1l2.4,3.1
		C388.6,221.5,387.9,221.8,387.1,221.8 M387.6,216.4c-0.6-0.9-1.1-1.5-1.1-2c0-0.7,0.4-1.3,1.3-1.3c0.8,0,1.3,0.5,1.3,1.2
		C389.1,215.3,388.5,216,387.6,216.4 M400,223.3c2,0,3.6-1.1,3.6-3.1v-0.7h-1.6v0.6c0,1-0.7,1.7-1.9,1.7c-1.2,0-2.1-0.6-2.1-2v-4.4
		c0-1.2,0.7-2,2-2c1.3,0,2,0.7,2,1.8v0.5h1.6v-0.7c0-1.9-1.6-3-3.6-3c-2.2,0-3.8,1.2-3.8,3.4v4.6C396.1,222.2,397.9,223.3,400,223.3
		 M407.9,223.3c1.7,0,3.1-0.9,3.1-3v-2.5c0-2-1.4-2.9-3.1-2.9c-1.7,0-3.1,1-3.1,3v2.5C404.8,222.4,406.1,223.3,407.9,223.3
		 M407.9,221.9c-1,0-1.4-0.6-1.4-1.6v-2.6c0-0.9,0.4-1.6,1.4-1.6c1,0,1.4,0.7,1.4,1.5v2.6C409.3,221.3,408.9,221.9,407.9,221.9
		 M412.4,223.1h1.7V218c0-1,0.9-1.8,1.6-1.8c0.8,0,1.1,0.4,1.1,1.2v5.6h1.7v-6c0-1.3-0.9-2.2-2.1-2.2c-1,0-1.9,0.4-2.4,1.5h0v-1.3
		h-1.6V223.1z M422.6,223.3c1.6,0,3-0.9,3-2.5c0-1.1-0.7-2-2-2.4l-1-0.4c-0.7-0.2-1-0.5-1-1c0-0.5,0.4-0.8,1.1-0.8
		c0.6,0,1.2,0.3,1.8,0.7l0.8-1.1c-0.6-0.6-1.6-0.9-2.6-0.9c-1.8,0-2.7,1.2-2.7,2.4c0,1.1,0.6,1.9,1.9,2.3l0.8,0.2
		c0.7,0.2,1.3,0.5,1.3,1.2c0,0.6-0.5,1-1.3,1c-0.8,0-1.6-0.5-2.2-1l-0.9,1.1C420.3,222.9,421.4,223.3,422.6,223.3 M428.9,223.3
		c1,0,2-0.6,2.3-1.5h0l0,1.3h1.6v-8h-1.7v5c0,1-0.8,1.9-1.7,1.9c-0.8,0-1.1-0.5-1.1-1.3v-5.6h-1.7v6
		C426.7,222.5,427.7,223.3,428.9,223.3 M436.2,223.2c0.4,0,0.8-0.1,1.2-0.2v-1.3c-0.2,0-0.4,0.1-0.6,0.1c-0.6,0-0.8-0.3-0.8-0.8v-9
		h-1.7v9.3C434.3,222.6,435,223.2,436.2,223.2 M440.8,223.2c0.5,0,1-0.1,1.5-0.3v-1.4c-0.3,0.1-0.6,0.1-0.9,0.1
		c-0.6,0-0.9-0.3-0.9-0.8v-4.4h1.9v-1.3h-1.9V213h-1.7v2.1h-1.2v1.3h1.2v5C438.8,222.9,439.8,223.2,440.8,223.2 M445.5,223.3
		c0.7,0,1.7-0.2,2.3-1.3h0.1c0,0.6,0.1,1,0.1,1.1h1.6c0-0.3-0.1-1.3-0.1-1.9v-3.9c0-1.6-1.3-2.4-2.9-2.4c-1.7,0-3,0.8-3,2.2v0.5h1.5
		v-0.4c0-0.7,0.5-1.1,1.3-1.1c0.8,0,1.3,0.4,1.3,1.1v1.1h-1.2c-1.4,0-3.2,0.7-3.2,2.6C443.2,222.5,444.3,223.3,445.5,223.3
		 M446.1,222c-0.7,0-1.2-0.4-1.2-1.3c0-1,0.8-1.3,1.7-1.3h1v0.9C447.6,221.3,446.9,222,446.1,222 M450.8,223.1h1.7V218
		c0-1,0.9-1.8,1.6-1.8c0.8,0,1.1,0.4,1.1,1.2v5.6h1.7v-6c0-1.3-0.9-2.2-2.1-2.2c-1,0-1.9,0.4-2.4,1.5h0v-1.3h-1.6V223.1z
		 M461.3,223.3c1.8,0,2.9-1,2.9-2.4v-0.5h-1.6v0.3c0,0.5-0.2,1.3-1.3,1.3c-1,0-1.5-0.6-1.5-1.5v-2.7c0-0.9,0.4-1.5,1.4-1.5
		c1,0,1.3,0.7,1.3,1.2v0.4h1.6v-0.5c0-1.5-1.1-2.4-2.9-2.4c-1.7,0-3,1-3,3v2.5C458.3,222.4,459.6,223.3,461.3,223.3 M466.3,226
		c1,0,1.9-0.5,2.4-2.1l2.8-8.8H470l-1.7,5.7h0l-1.7-5.7h-1.8l2.6,7.8l-0.3,0.9c-0.2,0.6-0.6,0.8-1,0.8c-0.3,0-0.6,0-0.9-0.1v1.4
		C465.5,226,465.9,226,466.3,226"/>
	<path class="st3" d="M147,253.3h-8l-13-14.7h-9v14.7h-6.8v-42.7c6.6,0,13.2,0,19.9,0c9.9,0,15.1,6.8,15.1,14
		c0,6.1-3.2,12.1-11.6,13.3L147,253.3z M117,216.8v15.5h13c5.7,0,8.2-3.6,8.2-7.6c0-3.8-2.5-7.9-8.1-7.9H117z"/>
	<path class="st3" d="M242.1,210.6c14.6,0,21.2,10.4,21.4,21c0.2,10.8-6.5,21.7-21.4,21.7H226v-42.7H242.1z M232.7,246.7h9.4
		c10.4,0,14.8-7.7,14.6-15.2c-0.2-7.2-4.6-14.4-14.6-14.4h-9.4V246.7z"/>
	<rect x="268.8" y="210.6" class="st3" width="6.8" height="42.7"/>
	<path class="st3" d="M309.4,220.1c-2-2.9-6.1-4.7-10.5-4.8c-5.7,0-9.9,2.4-9.9,6.5c0,4.1,4.8,5.3,10.4,6.1
		c8.8,1.2,17.1,3.7,17.1,13.2c-0.1,9.6-8.8,13.2-17.7,13.2c-8.2,0-14.4-2.5-18.3-9.7l5.1-3.4c3,5.2,8.3,7,13.3,7
		c5.1,0,10.8-1.7,10.8-7.1c0-4.6-4.9-6.2-10.9-7c-8.5-1.2-16.5-3.3-16.5-12.4c-0.1-8.8,8.8-12.3,16.5-12.3c6.2,0,12.3,1.5,15.9,7.2
		L309.4,220.1z"/>
	<polygon class="st3" points="107.8,253.3 88.7,210.6 81.2,210.6 62.1,253.3 69.3,253.3 84.9,217.8 93.9,238.1 79.8,238.1 77,244.3 
		96.6,244.3 100.5,253.3 	"/>
	<path class="st3" d="M204.5,210.6h-7.4l-12.4,27.7c-1.3,2.6-2.8,4.3-3.3,4.9c-3,3-7.3,4.6-11.3,4.6c-11,0-15.7-7.7-15.7-15.5
		c-0.1-7.9,4.9-15.8,15.7-15.8c4,0,8,1.4,11,4.4l4.6-4.4c-4.3-4.3-9.9-6.5-15.6-6.5c-15.2,0-22.5,11.2-22.5,22.4
		c0.1,11.2,7,21.9,22.5,21.9c6,0,11.6-2,16-6.3c0,0,2.7-2.7,4.5-6.7l0.5-1.2l1.2-2.8l8.5-19.2l8.9,20.3h-14.1l-2.7,6.2h19.6l3.9,9
		h7.3L204.5,210.6z"/>
	<rect x="327.7" y="207.4" class="st2" width="1" height="49.2"/>
</g>
</svg>
