<svg id="Layer_1" data-name="Layer 1" xmlns="http://www.w3.org/2000/svg" viewBox="0 0 241.75 49.87"><defs><style>.cls-1{fill:#30303a;}.cls-2{fill:#048342;}.cls-3{fill:#76c044;}.cls-4{fill:#0c5740;}.cls-5{fill:#07b04c;}</style></defs><title>Lexmark</title><path class="cls-1" d="M241.75,19.79l-8.82,8,8.82,8.07v4.65h-.29L228.37,28.65V40h-3.79V5.75h3.79V27.11l13-11.86h.35ZM70.64,40H90V36.13H74.59V6.88h-4ZM103.39,15.3c-6,0-11.36,4.83-11.36,12.61,0,7.56,5,12.57,12.07,12.57a14.47,14.47,0,0,0,8.77-2.72V33.68A13.45,13.45,0,0,1,104.23,37c-4.28,0-8.06-2.65-8.41-7.62H113.9c0-.49.14-1.54.14-1.95,0-8-4.79-12.12-10.65-12.12m0,3.45c3.35,0,6.76,2.18,6.9,7.32H95.82a7.56,7.56,0,0,1,7.61-7.32M167.1,15.3a7.65,7.65,0,0,0-6.93,4.21c-1.17-2.69-3.31-4.21-6.76-4.21A7.19,7.19,0,0,0,147,19.37h-.09l-.44-3.57h-3V40h3.85V24.69c0-3,1.83-5.72,5.18-5.72s4.7,1.92,4.7,5.41V40H161V24.43A5.16,5.16,0,0,1,166.16,19c3.31,0,4.74,1.92,4.74,5.41V40h3.85V23.85c0-5.06-2.37-8.55-7.65-8.55m23.18,0c-5.77,0-11.14,4.88-11.14,12.61s5.37,12.57,11.14,12.57a9.85,9.85,0,0,0,8.86-5h0l.45,4.52h3.13V15.8h-3.13l-.45,4.51h0a9.89,9.89,0,0,0-8.86-5m.72,3.58c4.56,0,8,3.67,8,9s-3.44,9-8,9-8-3.62-8-8.95,3.53-9,8-9m28.16-3.35a7.89,7.89,0,0,0-6.94,4.11h0l-.4-3.84h-3.09V40h3.85V26c0-5.59,4.51-7.33,8.23-6.56V15.66a8.75,8.75,0,0,0-1.61-.13m-80.67-.28h-.31L128.09,25.32,118,15.25h-.31v4.88l7.76,7.77-7.76,7.72v4.91H118l10-10.11,10.13,10.11h.32v-5l-7.83-7.75,7.83-7.89Zm96.34-9.16V5.76h2.68v.33h-1.14V8.8H236V6.09Zm4-.33L240,8.31l1.17-2.55h.55v3h-.38V6.26h0L240.21,8.8h-.35l-1.15-2.54h0V8.8h-.38v-3Z"/><polygon class="cls-2" points="49.87 40.11 49.87 0 40.11 0 24.94 15.18 49.87 40.11"/><polygon class="cls-3" points="0 9.76 0 49.87 9.76 49.87 24.94 34.7 0 9.76"/><polygon class="cls-4" points="9.76 49.87 49.87 49.87 49.87 40.11 34.7 24.94 9.76 49.87"/><polygon class="cls-5" points="40.11 0 0 0 0 9.76 15.17 24.94 40.11 0"/></svg>