<svg id="Layer_1" data-name="Layer 1" xmlns="http://www.w3.org/2000/svg" viewBox="0 0 164.63 49.89"><defs><style>.cls-1{fill:#2c3e63;}.cls-2,.cls-3{fill:#fff;}.cls-3{fill-rule:evenodd;}</style></defs><title>Merrill Lynch</title><rect class="cls-1" width="164.63" height="49.89"/><path class="cls-2" d="M48.36,15.6c-2.59,0-3.87,1.89-3.87,4.46s1.23,4.53,3.87,4.53,3.87-1.87,3.87-4.53S51,15.6,48.36,15.6m0,7.25c-.69,0-1-.62-1-2.79,0-2,.2-2.72,1-2.72s1,.73,1,2.72c0,2.17-.3,2.79-1,2.79"/><path class="cls-2" d="M54,14.86v1H52.89v1.95H54v6.64h2.78V17.77h1.5V15.82h-1.5V15c0-.52.26-.81,1-.81a2.24,2.24,0,0,1,.51.07V12.09a11.65,11.65,0,0,0-1.4-.1c-1.84,0-2.88.77-2.88,2.87"/><path class="cls-2" d="M24.41,18.23c0-1.9-1.73-2.61-3.4-2.61s-3.12.68-3.43,2.38l2.42.49c0-.5.25-1.13.91-1.13.48,0,.72.34.72.85V19c-1.83.21-4.37.88-4.43,3.11a2.3,2.3,0,0,0,2.4,2.51,3.13,3.13,0,0,0,2.12-.95,6.79,6.79,0,0,0,.08.79h2.87c-.11-.12-.26-.42-.26-1.39Zm-2.78,4a1.22,1.22,0,0,1-.89.53c-.5,0-.81-.31-.81-.91,0-1.09.73-1.46,1.7-1.56Z"/><path class="cls-2" d="M31.22,15.61A3.27,3.27,0,0,0,28.8,16.7h0v-.88H26v8.59h2.78V18.27a1.22,1.22,0,0,1,.9-.54c.47,0,.65.27.65.77v5.91h2.78v-6.8a1.83,1.83,0,0,0-1.92-2"/><polygon class="cls-2" points="42.48 15.82 39.72 15.82 37.67 18.41 37.64 18.41 37.64 12.23 34.86 12.23 34.86 24.41 37.64 24.41 37.64 21.33 38.22 20.66 38.25 20.66 39.61 24.41 42.49 24.41 40.15 18.46 42.48 15.82"/><path class="cls-2" d="M14.24,18.07V18a2.93,2.93,0,0,0,2-2.78c0-1.68-1.42-3-3.58-3H7.83V24.41h4.7c2.32,0,4-1.18,4-3.26a3.15,3.15,0,0,0-2.29-3.08m-3.42-3.69H11.9c.71,0,1.49.19,1.49,1.35,0,.72-.44,1.32-1.55,1.32h-1ZM12,22.15H10.82v-3H12a1.42,1.42,0,0,1,1.56,1.51A1.42,1.42,0,0,1,12,22.15"/><path class="cls-2" d="M117.4,23V18.23c0-1.9-1.73-2.61-3.4-2.61s-3.12.68-3.42,2.38l2.41.49c0-.5.24-1.13.91-1.13.48,0,.72.34.72.85V19c-1.84.21-4.37.88-4.43,3.11a2.29,2.29,0,0,0,2.4,2.51,3.13,3.13,0,0,0,2.12-.95,6.79,6.79,0,0,0,.08.79h2.86c-.1-.12-.25-.42-.25-1.39m-2.78-.8a1.22,1.22,0,0,1-.89.53c-.5,0-.81-.31-.81-.91,0-1.09.73-1.46,1.7-1.56Z"/><path class="cls-2" d="M87.11,15.59c-2.55,0-3.83,2.06-3.83,4.49s1.2,4.51,3.86,4.51a3.54,3.54,0,0,0,3.45-2.34l-1.87-.69a1.42,1.42,0,0,1-1.37,1.18c-1.12,0-1.33-1.27-1.29-2h4.65v-.58c0-2.24-.93-4.54-3.6-4.54m1,3.47H86.06c0-.8.24-1.73,1-1.73,1,0,1.07.94,1,1.73"/><polygon class="cls-2" points="98.2 24.41 99.69 24.41 100.98 24.41 100.98 15.82 98.2 15.82 98.2 24.41"/><polygon class="cls-2" points="98.2 14.69 100.98 14.69 100.98 12.22 99.55 12.22 98.2 12.22 98.2 14.69"/><path class="cls-2" d="M106.2,17.34a.81.81,0,0,1,.81.58,3.24,3.24,0,0,1,.13,1.08h2.37a3.27,3.27,0,0,0-3.39-3.41c-2.63,0-3.93,2.35-3.93,4.69,0,2.12,1.3,4.31,3.81,4.31a3.16,3.16,0,0,0,3.43-3.18l-2.16-.31c0,.65-.1,1.64-1.07,1.64-.72,0-1-.63-1-2.57,0-1.7.1-2.83,1-2.83"/><path class="cls-2" d="M63.15,12.23,60.28,24.41H63l.53-2.47h2.83l.48,2.47h3L67.19,12.23Zm.77,7.56,1-5H65l.88,5Z"/><path class="cls-2" d="M94.62,17h-.05l0-1.16H91.85v8.59h2.78V18.85a1.9,1.9,0,0,1,1.52-.67,2.93,2.93,0,0,1,1.14.24V15.61A3.1,3.1,0,0,0,94.62,17"/><path class="cls-2" d="M80.14,15.61a3.41,3.41,0,0,0-2.48,1.15h0A1.72,1.72,0,0,0,76,15.61a3.71,3.71,0,0,0-2.49,1.08h0v-.87H70.7v8.59h2.73V18.28a1.37,1.37,0,0,1,.94-.53c.52,0,.66.31.66.77v5.89h2.72V18.28a1.36,1.36,0,0,1,1-.53c.51,0,.65.31.65.77v5.89h2.73V17.56a1.83,1.83,0,0,0-1.94-1.95"/><polygon class="cls-2" points="7.83 29.41 12.16 29.41 13.48 36.25 13.52 36.25 15.08 29.41 19.29 29.41 19.29 41.62 16.2 41.62 16.2 32.6 16.16 32.6 14.05 41.62 12.18 41.62 10.23 32.29 10.2 32.29 10.2 41.62 7.83 41.62 7.83 29.41"/><path class="cls-2" d="M23.13,37.93c0,.76.16,2,1.26,2a1.48,1.48,0,0,0,1.41-1.18l1.87.69a3.56,3.56,0,0,1-3.45,2.35c-2.67,0-3.87-2.15-3.87-4.53s1.27-4.49,3.83-4.49,3.61,2.29,3.61,4.54v.58Zm2.08-1.64c0-.81-.08-1.73-1.05-1.73-.79,0-1,.92-1,1.73Z"/><path class="cls-2" d="M28.79,33h2.74v1.31h0a2.64,2.64,0,0,1,2.68-1.51v2.81a3.23,3.23,0,0,0-1.13-.24,1.53,1.53,0,0,0-1.53.67v5.57H28.79Z"/><path class="cls-2" d="M35.19,33h2.73v1.31h0a2.64,2.64,0,0,1,2.68-1.51v2.81a3.23,3.23,0,0,0-1.14-.24c-.92,0-1.22.24-1.52.67v5.57H35.19Z"/><path class="cls-2" d="M41.86,29.41h2.79v2.47H41.86Zm0,3.6h2.79v8.61H41.86Z"/><polygon class="cls-2" points="46.34 37.44 46.34 29.41 49.12 29.41 49.12 41.62 46.34 41.62 46.34 37.44"/><polygon class="cls-2" points="50.46 29.41 53.25 29.41 53.25 33.7 53.25 41.62 50.46 41.62 50.46 29.41"/><polygon class="cls-2" points="59.32 29.41 62.41 29.41 62.41 39.46 66.61 39.46 66.61 41.62 59.32 41.62 59.32 29.41"/><path class="cls-2" d="M69.93,33l1,5h0l1.19-5h2.18l-2.91,8.88c-.58,1.79-1.85,2.3-3.5,2.3a5.81,5.81,0,0,1-.83-.07v-2a3.74,3.74,0,0,0,.74.09c.84,0,1.57-.24,1.57-1a2.9,2.9,0,0,0-.12-.77L67.06,33Z"/><path class="cls-2" d="M75.3,33h2.78v1.15h0a2.9,2.9,0,0,1,2.46-1.35,1.77,1.77,0,0,1,1.84,1.93v6.88H79.63V35.53c0-.46-.15-.77-.67-.77a.88.88,0,0,0-.72.36l-.16.21v6.29H75.3Z"/><path class="cls-2" d="M88.39,36.22a3.27,3.27,0,0,0-.14-1.08.8.8,0,0,0-.81-.58c-.93,0-1,1.13-1,2.84,0,1.94.31,2.57,1,2.57,1,0,1.07-1,1.07-1.64l2.16.31a3.17,3.17,0,0,1-3.44,3.19c-2.51,0-3.81-2.2-3.81-4.33,0-2.34,1.3-4.69,3.93-4.69a3.27,3.27,0,0,1,3.41,3.41Z"/><path class="cls-2" d="M91.86,29.41h2.79v4.75h0a2.91,2.91,0,0,1,2.46-1.35A1.76,1.76,0,0,1,99,34.74v6.88H96.19V35.53c0-.46-.15-.77-.67-.77a.88.88,0,0,0-.72.36l-.15.21v6.29H91.86Z"/><path class="cls-3" d="M134.19,10.28c1.09.44,2.18.9,3.25,1.38a73.4,73.4,0,0,0-9.85,4.89c-1.06-.55-2.14-1.08-3.23-1.56a66.71,66.71,0,0,1,9.83-4.71"/><path class="cls-3" d="M130.12,8.85a56.85,56.85,0,0,0-10.18,4.36c1,.37,2.06.76,3.08,1.19a55.72,55.72,0,0,1,9.86-4.61c-.91-.33-1.83-.65-2.76-.94"/><path class="cls-3" d="M141.58,10.14a58.06,58.06,0,0,0-8.65-3.37c-1,.3-2.07.62-3.1,1a61.71,61.71,0,0,1,8.9,3.42c.93-.35,1.88-.7,2.85-1"/><path class="cls-3" d="M146.11,8.79a65,65,0,0,0-8.79-3.1c-1,.2-1.92.42-2.86.65a60.25,60.25,0,0,1,8.69,3.3c1-.3,2-.59,3-.85"/><path class="cls-3" d="M153.4,11.23a76.57,76.57,0,0,0-19.87,10.1c1.49.93,3,1.91,4.41,3A80.9,80.9,0,0,1,156.8,13.15c-1.12-.68-2.25-1.32-3.4-1.92"/><path class="cls-3" d="M148.5,8.9a69.92,69.92,0,0,0-20.7,9.28c1.42.7,2.81,1.45,4.17,2.23a72.25,72.25,0,0,1,20.3-9.76c-1.23-.62-2.5-1.2-3.77-1.75"/><path class="cls-2" d="M141.07,23a.72.72,0,1,0,.74.71.73.73,0,0,0-.74-.71m0,1.29a.58.58,0,1,1,0-1.15.58.58,0,1,1,0,1.15"/><path class="cls-2" d="M141.45,23.47a.2.2,0,0,0-.09-.17.45.45,0,0,0-.2,0h-.36v.81h.12v-.38h.14l.24.38h.14l-.25-.38c.15,0,.26-.06.26-.22m-.39.12h-.14v-.24h.22c.1,0,.19,0,.19.12s-.16.12-.27.12"/></svg>