<svg id="Layer_1" data-name="Layer 1" xmlns="http://www.w3.org/2000/svg" viewBox="0 0 257.65 49.59"><defs><style>.cls-1{fill:#e21d38;}</style></defs><title>RAYTHEON</title><path class="cls-1" d="M53.7,31.5H50.47V24.8H53.7Zm154.46.89h-3.07V14.54h3.07ZM173.55,20.3h-3.08V14.54h3.08Zm-53.4-2.48V9.29h-5V.41H100.51V9.29H89L84.54,24.91,80.28,9.29H66.1l11.25,29.6L73.24,50H87.61l12.85-33.62V39h14.73V17.82ZM257.65,39v-22a8.18,8.18,0,0,0-3.12-6.39,9.62,9.62,0,0,0-6.6-2.48q-6,.08-8.93,3.22L239,8.64h-14V39H239.5V17.82h3V39ZM68,39V19.5a10.42,10.42,0,0,0-4.51-9c-2.78-2-6.35-3-10.76-2.93-5.16.05-9.18,1.09-12.1,3.08-2.53,1.68-3.77,3.72-3.77,6.15v1.34H50.62V14.54H53.7v5.65l-7,.15c-7.24.15-10.91,3-11,8.58-.1,7,3.12,10.57,9.62,10.57a10.17,10.17,0,0,0,8.92-4.37L54.3,39ZM188.87,23.52c-.1-5.11-1.19-8.88-3.22-11.26C183,9.14,178.51,7.6,172.06,7.6c-5.45,0-9.38.79-11.75,2.43-3.42,2.33-5.11,6.84-5.11,13.49q0,9.74,5.36,13.39c2.43,1.68,6.24,2.53,11.45,2.58,5,0,8.82-.75,11.45-2.49a12.11,12.11,0,0,0,4.87-7.23,15.41,15.41,0,0,0,.29-1.69h-15v4.31h-3.13V25.3h18.3c0-.64.1-1.24.1-1.78m34.56,0c0-6.59-1.69-11-5.06-13.39C216,8.49,212.12,7.6,206.62,7.6s-9.42.85-11.75,2.48c-3.32,2.38-5,6.85-5,13.44s1.69,11.16,5,13.48c2.33,1.64,6.25,2.49,11.75,2.49s9.37-.8,11.75-2.49c3.37-2.38,5.06-6.89,5.06-13.48m-189-12.79a10,10,0,0,0-2.63-7.29,9.37,9.37,0,0,0-7.39-3H0V39H15.47V24.66h3.42V39H34.41V26.84A7.57,7.57,0,0,0,33.17,22a8.57,8.57,0,0,0-3.67-2.88,10.5,10.5,0,0,0,3.52-3,10.89,10.89,0,0,0,1.44-5.45M154.26,39V16.38a7.59,7.59,0,0,0-2.63-5.85,9.1,9.1,0,0,0-6.25-2.33,15.84,15.84,0,0,0-5.2.89,10,10,0,0,0-3.87,2.18V.41H121.53V39h14.78V17.82h3.07V39ZM18.94,16.22H15.57V7.8h3.37v8.42Z" transform="translate(0 -0.41)"/></svg>