<svg id="Layer_1" data-name="Layer 1" xmlns="http://www.w3.org/2000/svg" viewBox="0 0 339.75 49.82"><defs><style>.cls-1{fill:#d42328;fill-rule:evenodd;}.cls-2{fill:#0a0808;}.cls-3{fill:#010101;}</style></defs><title>SABB</title><polygon class="cls-1" points="151.35 0.24 188.02 0.24 169.81 18.45 169.72 18.53 151.35 0.24 151.35 0.24"/><polygon class="cls-1" points="151.35 36.83 188.02 36.83 169.81 18.61 169.72 18.53 151.35 36.83 151.35 36.83"/><polygon class="cls-1" points="151.67 0.16 151.67 36.83 133.46 18.61 133.38 18.53 151.67 0.16 151.67 0.16"/><polygon class="cls-1" points="187.94 0.16 187.94 36.83 206.15 18.61 206.23 18.53 187.94 0.16 187.94 0.16"/><path class="cls-2" d="M339.74,28.72a17,17,0,0,1-2.17,8c-.14,0-7.53,1.46-10.9-.89-.48-.34-1.08-.73-1.06-.72-.15,0-2.24,1.53-2.24,1.53l-16.13.08L306,34.58s-1.73,2.34-3.93,2.09c0,0-33.38.16-33.38.16V5l3.85-5,.48,27.36s-.72,3.54,2.57,3.69c0,.28,29.05.05,29,0s2.41.44,1.77-5.3c0,.2,5.13-5.53,5.13-5.53s.16,7.75-2.46,10.47c0,.77,16.06.45,16.1.36a10.55,10.55,0,0,0,0-4.17c.16,0,.61-2.33,5.38-5.94.16,0-2.33,9.63-2.33,9.63a14.69,14.69,0,0,0,5,.8,18.13,18.13,0,0,0,3.21.08s-1.25-6.27-1.21-6.26c-.11-.13,4.44-5.1,4.5-5.13s0,4.17,0,8.66Zm-78.47,4.1c-.16.32-.88,3.93-.88,3.93H231.26S218,36.43,219.79,25.59c0,0,2.43-7.84,5.45-9.06a6.89,6.89,0,0,1-.48,1.68,14.6,14.6,0,0,0-1.77,5,6.67,6.67,0,0,0,.43,3.29,8.18,8.18,0,0,0,1.5,2.42c0,.08,2.63,2.45,5.46,2.25,0,.08,28.4,0,28.4,0s.48-3.37-3.93-10.27l3-5.86a32.09,32.09,0,0,1,4.25,11.32c0,.08-.16,5.05-.88,6.5Zm-18,17L237,46.05l2.73-4.49,6.17,3.69-2.72,4.57Z"/><path class="cls-3" d="M117.52,15a7.65,7.65,0,0,0,1.57-4.73,8.18,8.18,0,0,0-2-5.45,10.65,10.65,0,0,0-5.81-3.3A29.11,29.11,0,0,0,104.6.89H89.73v1H91A3.71,3.71,0,0,1,94,3c.49.57.73,1.94.73,4.11V29.79a8.26,8.26,0,0,1-.58,3.86A3.46,3.46,0,0,1,91,35H89.73v1H106a25.39,25.39,0,0,0,8.64-1.1,9.31,9.31,0,0,0,4.46-3.49,8.83,8.83,0,0,0,1.62-5,7.8,7.8,0,0,0-2.46-5.83,11,11,0,0,0-5.35-2.49A9.21,9.21,0,0,0,117.52,15ZM99.58,3.2a16.83,16.83,0,0,1,4.56-.57q4.73,0,7.19,2.17a6.77,6.77,0,0,1,2.46,5.26,7.09,7.09,0,0,1-1,3.67,5.93,5.93,0,0,1-2.86,2.5,14.42,14.42,0,0,1-5.57.82c-1,0-1.85,0-2.65-.09a18.85,18.85,0,0,1-2.14-.27V3.2Zm0,15.87a12,12,0,0,1,1.8-.18c.74,0,1.64-.06,2.69-.06a15.15,15.15,0,0,1,6.09,1.09,7.34,7.34,0,0,1,3.55,3,7.74,7.74,0,0,1,1.1,3.93,6.64,6.64,0,0,1-2.42,5.22c-1.6,1.41-3.94,2.11-7,2.11a24.86,24.86,0,0,1-5.81-.7V19.07Z"/><path class="cls-3" d="M87,15a7.66,7.66,0,0,0,1.58-4.73,8.19,8.19,0,0,0-2-5.45,10.65,10.65,0,0,0-5.81-3.3A29.11,29.11,0,0,0,74.11.89H59.24v1h1.29A3.69,3.69,0,0,1,63.48,3c.49.57.73,1.94.73,4.11V29.79a8.26,8.26,0,0,1-.58,3.86A3.46,3.46,0,0,1,60.53,35H59.24v1H75.48a25.5,25.5,0,0,0,8.65-1.1,9.33,9.33,0,0,0,4.45-3.49,8.84,8.84,0,0,0,1.63-5,7.81,7.81,0,0,0-2.47-5.83,11,11,0,0,0-5.35-2.49A9.21,9.21,0,0,0,87,15ZM69.09,3.2a16.86,16.86,0,0,1,4.57-.57c3.14,0,5.54.72,7.18,2.17a6.77,6.77,0,0,1,2.46,5.26,7.09,7.09,0,0,1-1,3.67,6,6,0,0,1-2.85,2.5,14.45,14.45,0,0,1-5.57.82c-1,0-1.85,0-2.66-.09a18.85,18.85,0,0,1-2.14-.27V3.2Zm0,15.87a12.17,12.17,0,0,1,1.8-.18c.74,0,1.64-.06,2.69-.06a15.15,15.15,0,0,1,6.09,1.09,7.42,7.42,0,0,1,3.56,3,7.83,7.83,0,0,1,1.09,3.93,6.67,6.67,0,0,1-2.41,5.22q-2.41,2.12-7,2.11a24.86,24.86,0,0,1-5.81-.7V19.07Z"/><path class="cls-3" d="M19.65.09A3.25,3.25,0,0,1,19,1.71a1.53,1.53,0,0,1-1.08.4,6,6,0,0,1-2-.65A14.38,14.38,0,0,0,10.08.09,10,10,0,0,0,2.84,2.82,8.73,8.73,0,0,0,0,9.33a8.4,8.4,0,0,0,1,4,10.9,10.9,0,0,0,2.83,3.31,52.3,52.3,0,0,0,6.29,4,61,61,0,0,1,5.4,3.3,7.71,7.71,0,0,1,2.17,2.46,5.51,5.51,0,0,1,.7,2.62,5.33,5.33,0,0,1-1.84,4,7.12,7.12,0,0,1-5,1.7,10.39,10.39,0,0,1-5-1.24,8.58,8.58,0,0,1-3.41-3.12,17.13,17.13,0,0,1-1.78-5.66H.33v12h.94a3.19,3.19,0,0,1,.54-1.6,1.33,1.33,0,0,1,1-.39A14.11,14.11,0,0,1,6,35.63a29.88,29.88,0,0,0,3.26.94A15.79,15.79,0,0,0,12,36.8a10.9,10.9,0,0,0,7.81-2.88,9.19,9.19,0,0,0,3-6.88,9,9,0,0,0-.95-4A9.85,9.85,0,0,0,19.2,19.7a50.93,50.93,0,0,0-6.59-4Q6.7,12.41,5.13,10.47A4.45,4.45,0,0,1,4,7.55,5.06,5.06,0,0,1,5.76,3.8a6.11,6.11,0,0,1,4.37-1.64,9.22,9.22,0,0,1,4.52,1.22A8.62,8.62,0,0,1,18,6.66a15.47,15.47,0,0,1,1.64,5.57h.94V.09Z"/><path class="cls-3" d="M49.11,29.3a10.74,10.74,0,0,1,1,3.59,1.81,1.81,0,0,1-.72,1.45,5,5,0,0,1-2.78.7v1H60.2V35a5.33,5.33,0,0,1-3.29-1.17,13.51,13.51,0,0,1-2.62-4.57L42.31.09h-.89L29.31,29A15.8,15.8,0,0,1,26.44,34a5.69,5.69,0,0,1-2.79,1v1H34.49V35a6.4,6.4,0,0,1-3.24-.79,1.77,1.77,0,0,1-.75-1.41,8.83,8.83,0,0,1,.87-3.05l2.33-5.54H47l2.08,5.05Zm-14.62-7,6-14.19,5.84,14.19Z"/></svg>