<svg id="Layer_1" data-name="Layer 1" xmlns="http://www.w3.org/2000/svg" viewBox="0 0 98.47 50"><defs><style>.cls-1{fill:#1e4997;}.cls-1,.cls-2{fill-rule:evenodd;}.cls-2{fill:#faa43b;}</style></defs><title>Sabic</title><path class="cls-1" d="M40.73,28l-.86.89c-1,1-1.93,1.09-2.73.29s-.71-1.75.27-2.73l.89-.89c1-1,1.92-1.09,2.73-.29s.71,1.72-.3,2.73ZM27.08.87c.86,1.1.86,1.4-.38,2.35L17.86,9.89c-.27.21-.36.57.23.57H30.67c3,0,3.56.68,3.56,3.56v3.61c0,.75.24,1.25,1.19,1.25h7.86c.95,0,1.19-.5,1.19-1.25V12.18c0-1.55.38-1.72,1.78-1.72S48,10.63,48,12.18v5.45c0,3.33-.84,4.16-4.16,4.16H0c.24-2.14,2.14-2.91,4.66-2.91H29.6c.78,0,1.07-.21,1.07-.95V14.31c0-.65-.18-1-1.07-1H15.75c-2.31,0-3-1.24-3-2.31a3.38,3.38,0,0,1,1.66-2.52L24.77.67c1.25-.95,1.45-.89,2.31.2ZM51.59,2.06C51.59.52,52,.34,53.36.34s1.78.18,1.78,1.72V17.63c0,.75.24,1.25,1.19,1.25H67.9c1,0,1.19-.5,1.19-1.25V12.18c0-1.55.38-1.72,1.78-1.72s1.78.17,1.78,1.72v5.45c0,.75.23,1.25,1.18,1.25h7.86c1,0,1.19-.5,1.19-1.25V12.18c0-1.55.39-1.72,1.78-1.72s1.78.17,1.78,1.72v5.45c0,.75.24,1.25,1.19,1.25h5.93c1,0,1.19-.5,1.19-1.25V12.18c0-1.55.38-1.72,1.78-1.72s1.78.17,1.78,1.72v5.45c0,3.33-.83,4.16-4.16,4.16H55.74c-3.32,0-4.15-.83-4.15-4.16V2.06Z" transform="translate(0 0)"/><path class="cls-2" d="M82,48.21c0-4.22,3.8-9.72,11.22-9.72.85,0,1.13.57,1.13,1.32v3.68c0,1-.09,1.35-1.29,1.35s-1.28-.31-1.28-1.35V41.57c0-.34-.07-.41-.19-.41-4,0-6.89,4.12-6.89,6,0,.28,0,.44.69.44H95c1.8,0,3.27.56,3.49,2.36H83.85c-1.07,0-1.85-.32-1.85-1.7Zm-4.31.41V41.26c0-.16-.07-.19-.29-.19h-.53c-1.07,0-1.38-.28-1.38-1.23s.31-1.22,1.38-1.22H79.1c.76,0,1.23.31,1.23,1.16v8.84C80.33,49.81,80,50,79,50s-1.32-.19-1.32-1.38Zm-13,1.29c-2.45,0-3.11-.66-3.11-3.09V30.54c0-1.2.34-1.36,1.41-1.36s1.42.16,1.42,1.36V46.82c0,.48.12.73.69.73h7.26c.66,0,.69-.16.69-.44,0-1.2-1.66-4.56-6.76-6.13-.88-.26-1-.76-.69-1.58s.91-.91,1.64-.72c6,1.76,8.55,5.69,8.55,9.53,0,1.38-.82,1.7-1.86,1.7Zm-17.52,0c-1,0-1.85-.32-1.85-1.7,0-5.85,6.41-9.72,8.87-9.72.85,0,1.13.57,1.13,1.32v3.68c0,1-.06,1.35-1.29,1.35s-1.29-.31-1.29-1.35V41.6c0-.06,0-.09-.06-.09-1,0-4.62,3.08-4.62,5.6,0,.28,0,.44.69.44h7.36c.56,0,.69-.25.69-.73v-10c0-1.2.34-1.39,1.41-1.39s1.42.19,1.42,1.39v10c0,2.43-.66,3.09-3.12,3.09ZM79.48,35.54l-.6.59c-.81.82-1.54.88-2.17.26s-.56-1.39.22-2.17l.6-.63c.82-.79,1.54-.88,2.17-.22s.57,1.35-.22,2.17ZM41.31,49.91c2.17,0,2.67-.54,2.67-2.68V46c0-2.14-.44-2.68-2.67-2.68H34.14c-.1,0-.16,0-.16-.12,0-.28,3.05-2.17,8.84-2.3.88,0,1.1-.41,1-1.26s-.28-1.16-1.35-1.16c-7.67,0-12,3.74-12,5.76,0,.88.51,1.44,2.5,1.44h7.59c.57,0,.63.13.63.54V47c0,.44-.13.54-.63.54H30.36c-1.79,0-3.27.56-3.46,2.36Z" transform="translate(0 0)"/></svg>