<svg id="Layer_1" data-name="Layer 1" xmlns="http://www.w3.org/2000/svg" viewBox="0 0 43.77 50"><defs><style>.cls-1{fill:#221f1f;}.cls-2{fill:#e9262a;}.cls-3{fill:#f9ed1f;}</style></defs><title>Shell</title><path class="cls-1" d="M0,47.26H3.72a1.06,1.06,0,0,0,.55,1.15,9.73,9.73,0,0,0,2.53,0c.3-.06.6-.17.6-1.12,0-.4-.1-.84-.56-.94-1.64-.13-3.24,0-4.87-.12-1.64-.36-1.88-.78-2-2.08.11-1.79.73-2.3,2.57-2.36s3.82-.05,5.71,0,2.54.75,2.54,2.38H7.4c0-.8-.15-1.11-.56-1.15a17.52,17.52,0,0,0-2.51,0c-.3,0-.71.16-.71.89s.18.86.65.92c1.41,0,2.82.07,4.21.16,2.3.15,2.39,1.16,2.47,2.25,0,1.52-.52,2.07-.93,2.31A12.81,12.81,0,0,1,7.4,50H3.7A10.24,10.24,0,0,1,.92,49.6C.09,49.38,0,48.24,0,47.26Z"/><rect class="cls-1" x="35.08" y="41.85" width="3.26" height="8.15"/><rect class="cls-1" x="40.53" y="41.85" width="3.24" height="8.15"/><path class="cls-2" d="M8.64,38.78l-1-8C5.05,29,3,27.48.64,25.71c-1.12-8.35,1-12.9,4.05-17.2A22.07,22.07,0,0,1,22,0,21.74,21.74,0,0,1,39.23,8.66,21.36,21.36,0,0,1,43.13,26L36.5,30.83l-1,8H25a4.57,4.57,0,0,1-2.94,1,4.89,4.89,0,0,1-3-1Z"/><path class="cls-3" d="M22,27.76c-.55-7.4-.71-16.54-1.17-23.87a7.65,7.65,0,0,0-2.82,0,10.48,10.48,0,0,0-2.39,1c1.43,7.05,3.11,16,4.53,23-1.93-6.78-4.53-15.3-6.47-22.06a6,6,0,0,0-2.48,1.24A6.87,6.87,0,0,0,9.51,9c2.8,6,6.15,13.56,9,19.48C15.22,23.06,11.26,16,8,10.62a7.16,7.16,0,0,0-1.74,2,7.08,7.08,0,0,0-.93,2.88c3.58,4.35,7.84,9.59,11.44,13.94C13,25.86,8.4,21.2,4.69,17.58A5.92,5.92,0,0,0,4,20.15a9.58,9.58,0,0,0,.33,3.41L11.58,29l.76,6,8,.06c.57.67.75,1,1.7,1.07A1.93,1.93,0,0,0,23.7,35h8l.8-6,7.19-5.36A9.73,9.73,0,0,0,40,20.21a7,7,0,0,0-.67-2.57C35.63,21.24,31,25.9,27.27,29.51c3.62-4.31,7.85-9.57,11.47-14a7.74,7.74,0,0,0-1-2.86,8.79,8.79,0,0,0-1.68-2C32.77,16,28.78,23.12,25.53,28.47c2.87-5.94,6.16-13.54,9-19.44a7.65,7.65,0,0,0-1.68-1.92,7.25,7.25,0,0,0-2.52-1.28c-2,6.74-4.51,15.33-6.47,22.06,1.37-7,3.07-15.88,4.44-22.9A7,7,0,0,0,26,4a8.18,8.18,0,0,0-2.85-.09C22.62,11.28,22.59,20.39,22,27.76Z"/><path class="cls-1" d="M33.15,45.72a3.64,3.64,0,0,0-.22-.74c-.56-.91-2.47-.91-4.34-.95-1.42,0-3.52,0-4.13.64a2.38,2.38,0,0,0-.46,1A6.78,6.78,0,0,0,23.92,47c0,.42,0,2,.83,2.48s2.94.54,3.8.54,3.41-.1,3.78-.52c.63-.24.8-1,.93-1.68H30.05c0,.64-.5,1-1.5,1s-1.42-.16-1.42-1.3l6.13,0A8.66,8.66,0,0,0,33.15,45.72Zm-3.1.57H27.13a1.48,1.48,0,0,1,.09-.57c.21-.5.75-.52,1.33-.56.87,0,1.27.21,1.42.56A1.18,1.18,0,0,1,30.05,46.29Z"/><path class="cls-1" d="M12.86,50h3.2V46.53c.08-.46.2-.86,1.36-.86s1.42.29,1.42.86V50H22V46.53c0-1.12,0-1.74-.74-2.07a4.66,4.66,0,0,0-2.48-.36,6.64,6.64,0,0,0-2.76.49V41.85h-3.2Z"/></svg>