<svg id="Layer_1" data-name="Layer 1" xmlns="http://www.w3.org/2000/svg" xmlns:xlink="http://www.w3.org/1999/xlink" viewBox="0 0 192.99 92.88"><defs><style>.cls-1{fill:none;}.cls-2{clip-path:url(#clip-path);}.cls-3{fill:url(#radial-gradient);}.cls-4{fill:#60646b;}.cls-5{fill:#fff;}</style><clipPath id="clip-path" transform="translate(0 21.53)"><polygon class="cls-1" points="123.23 1.59 123.23 1.59 123.23 48.23 169.87 48.23 169.87 1.59 123.23 1.59"/></clipPath><radialGradient id="radial-gradient" cx="-292.52" cy="352.15" r="1.13" gradientTransform="matrix(79.37, 0, 0, -79.37, 23305.93, 27972.48)" gradientUnits="userSpaceOnUse"><stop offset="0" stop-color="#7ebf42"/><stop offset="0.29" stop-color="#7ebf42"/><stop offset="0.44" stop-color="#5fb746"/><stop offset="0.47" stop-color="#51b246"/><stop offset="0.56" stop-color="#28a547"/><stop offset="0.64" stop-color="#0f9c48"/><stop offset="0.69" stop-color="#069948"/><stop offset="0.7" stop-color="#097788"/><stop offset="0.7" stop-color="#0b63af"/><stop offset="0.88" stop-color="#1e9ed9"/><stop offset="0.9" stop-color="#20a4dd"/><stop offset="1" stop-color="#28aae2"/></radialGradient></defs><title>SOUDI</title><g class="cls-2"><rect class="cls-3" x="113.64" y="-8" width="65.82" height="65.82" transform="translate(19.98 124.4) rotate(-41.28)"/></g><path class="cls-4" d="M6.25,21.29A1.23,1.23,0,1,0,5,20a1.23,1.23,0,0,0,1.24,1.25" transform="translate(0 21.53)"/><path class="cls-4" d="M9.8,33.31a1.22,1.22,0,1,0,0,2.43,1.22,1.22,0,0,0,0-2.43" transform="translate(0 21.53)"/><path class="cls-4" d="M11.62,28c0,1.08-.41,1.47-1.55,1.47H8.76V26.7c0-2.76-1.42-4.2-4-4.2A4.36,4.36,0,0,0,0,27,4.07,4.07,0,0,0,1.49,30.5c1.12.73,2.05.88,4.18.88H10.2c2.41,0,3.77-.91,3.77-3.34V22.5H11.62ZM6.45,29.44H5.11c-1.92,0-2.73-.76-2.73-2.54a2.16,2.16,0,0,1,2.15-2.45c1.32,0,1.92.81,1.92,2.5Z" transform="translate(0 21.53)"/><path class="cls-4" d="M3.42,21.29a1.23,1.23,0,0,0,0-2.46,1.23,1.23,0,0,0,0,2.46" transform="translate(0 21.53)"/><path class="cls-4" d="M23.21,27a4.33,4.33,0,0,0-4.68-4.48H16.68v1.95h2a2.16,2.16,0,0,1,2.15,2.45v2.54h-6v1.94h8.4Z" transform="translate(0 21.53)"/><path class="cls-4" d="M12.61,33.31a1.22,1.22,0,1,0,0,2.43,1.22,1.22,0,1,0,0-2.43" transform="translate(0 21.53)"/><rect class="cls-4" x="101.58" y="39.71" width="2.28" height="13.21"/><path class="cls-4" d="M102.34,33.31v2.2a9.78,9.78,0,0,0,1.77.18c3.16,0,4.71-1.44,4.71-4.43v-7.9h-2.38v7.92a2.13,2.13,0,0,1-2.16,2.41,5.34,5.34,0,0,1-1.67-.28Z" transform="translate(0 21.53)"/><rect class="cls-4" x="110.34" y="41.12" width="2.28" height="11.8"/><path class="cls-4" d="M73.71,30.5c1.11.73,2.05.89,4.17.89h.79c0,1.51-.89,2.27-2.51,2.27a7.93,7.93,0,0,1-2.58-.43l-.15,0v2.2a16,16,0,0,0,2.86.31c3.11,0,4.71-1.45,4.76-4.3H94.44c3.69,0,5.64-1,5.64-4.41A4.33,4.33,0,0,0,95.4,22.5c-2.63,0-4.05,1.44-4.05,4.2v2.74H89.27a4.57,4.57,0,0,0,.49-2.16c0-1.94-1.25-4.2-4.69-4.2h-.3l4.45-4.91H86.47c-1.68,1.88-4.18,4.61-4.49,4.89v2h3.24a2,2,0,0,1,2.18,2.15c0,1.65-.73,2.26-2.73,2.26H81V26.7c0-2.76-1.41-4.2-4-4.2A4.36,4.36,0,0,0,72.21,27a4.08,4.08,0,0,0,1.5,3.52M93.65,27c0-1.7.61-2.51,1.93-2.51a2.16,2.16,0,0,1,2.15,2.45c0,1.78-.81,2.54-2.71,2.54H93.65Zm-16.9-2.51c1.31,0,1.89.81,1.89,2.51v2.48H77.33c-1.93,0-2.74-.76-2.74-2.54a2.17,2.17,0,0,1,2.16-2.45" transform="translate(0 21.53)"/><path class="cls-4" d="M60.24,31.38a5.56,5.56,0,0,0,2.56-.55,2.35,2.35,0,0,0,1.11-1.55A4.65,4.65,0,0,0,64,28V18.2H61.66V28c0,1.09-.4,1.47-1.54,1.47h-.56a3.57,3.57,0,0,1-1.19-.23,6.38,6.38,0,0,0,.08-1V23.36H56.14V28c0,1-.45,1.44-1.49,1.44a3.79,3.79,0,0,1-1.17-.18,6,6,0,0,0,.08-1.13V23.36h-2.3V28c0,.91-.23,1.29-.89,1.42H49.18c-.18,0-.58,0-.58-.21V23.36H46.3v6.08H42.4a6.4,6.4,0,0,0,2-3.85c0-2.08-2.5-3.14-5-3.14s-5,1.06-5,3.14c0,1.47,1.32,3.06,2.07,3.85H33V26.7c0-2.76-1.42-4.2-4-4.2A4.33,4.33,0,0,0,24.25,27a4.06,4.06,0,0,0,1.47,3.52c1.11.73,2.05.88,4.17.88h.79c0,1.52-.86,2.28-2.51,2.28a7.93,7.93,0,0,1-2.58-.43l-.15,0v2.2a16,16,0,0,0,2.86.31c3.11,0,4.71-1.44,4.76-4.31H48.75a10.49,10.49,0,0,0,1.37.08A4.13,4.13,0,0,0,52.29,31a7.81,7.81,0,0,0,2.79.51,3.78,3.78,0,0,0,2.17-.56,7,7,0,0,0,2.76.48ZM30.68,29.44H29.34c-1.93,0-2.74-.76-2.74-2.54a2.16,2.16,0,0,1,2.15-2.45c1.32,0,1.93.81,1.93,2.5Zm8.76-.16c-.33,0-2.79-2.33-2.79-3.69,0-.76,1.47-1.17,2.86-1.17s2.74.41,2.74,1.17c0,1.34-2.36,3.69-2.81,3.69" transform="translate(0 21.53)"/><rect class="cls-4" x="65.81" y="39.71" width="2.28" height="13.21"/><path class="cls-4" d="M113.17,17.51H111.9c-.53,0-.65-.12-.65-.53s.15-.56.7-.56a1.48,1.48,0,0,1,1,.36V15.67l-.18-.08a1.83,1.83,0,0,0-.83-.18c-1.17,0-1.82.56-1.82,1.6a1.22,1.22,0,0,0,.1.5h-.43v1h3.39Z" transform="translate(0 21.53)"/><path class="cls-4" d="M109.76,39.39a4.51,4.51,0,1,0,4.48,4.51,4.52,4.52,0,0,0-4.48-4.51m0,7a2.44,2.44,0,1,1,0-4.88,2.44,2.44,0,0,1,0,4.88" transform="translate(0 21.53)"/><path class="cls-4" d="M93.27,39.29a7.68,7.68,0,0,0-2.81.53,4.09,4.09,0,0,0-2.21-.53,10.81,10.81,0,0,0-3.56.58l-.23.08v8.28h2.25V41.44a3.75,3.75,0,0,1,1.27-.2c1.11,0,1.44.36,1.44,1.52v5.47H91.7V42.61a4.89,4.89,0,0,0-.1-1.14,3.68,3.68,0,0,1,1.21-.23c1.06,0,1.54.48,1.54,1.52v5.47h2.26V42.58a3.13,3.13,0,0,0-.69-2.33,3.54,3.54,0,0,0-2.65-1" transform="translate(0 21.53)"/><path class="cls-4" d="M102.29,46.44a2.24,2.24,0,0,1-2.36-2.56c0-1.66.87-2.62,2.39-2.62a2.69,2.69,0,0,1,.83.11,2.85,2.85,0,0,1,.87.45l1-1.63a3.57,3.57,0,0,0-1.34-.67,6.78,6.78,0,0,0-1.44-.21A4.36,4.36,0,0,0,97.67,44a4.13,4.13,0,0,0,4.4,4.42,4.58,4.58,0,0,0,3-1l-1.12-1.44a2.78,2.78,0,0,1-1.65.51" transform="translate(0 21.53)"/><path class="cls-4" d="M72.93,39.37c-3.22,0-4.71,1.42-4.71,4.43v4.43h2.3V43.77a2.17,2.17,0,0,1,2.21-2.45,5.52,5.52,0,0,1,1.29.17l.53-2a12.51,12.51,0,0,0-1.62-.13" transform="translate(0 21.53)"/><path class="cls-4" d="M83.14,43.54v4.69H80.05c-2.12,0-3.06-.15-4.17-.89a4.08,4.08,0,0,1-1.5-3.52,4.36,4.36,0,0,1,4.71-4.48c2.63,0,4,1.47,4,4.2m-2.25.26c0-1.7-.66-2.53-2-2.53a2.2,2.2,0,0,0-2.2,2.48c0,1.79.86,2.58,2.79,2.58h1.39Z" transform="translate(0 21.53)"/><path class="cls-4" d="M67,43.54v4.69H63.9c-2.12,0-3.06-.15-4.17-.89a4.08,4.08,0,0,1-1.5-3.52,4.36,4.36,0,0,1,4.71-4.48c2.64,0,4,1.47,4,4.2m-2.33.26c0-1.72-.61-2.53-2-2.53a2.2,2.2,0,0,0-2.2,2.48c0,1.79.86,2.58,2.78,2.58h1.37Z" transform="translate(0 21.53)"/><path class="cls-4" d="M18.72,42.87c-1.38-.41-1.93-.64-1.93-1.08s.7-.72,1.56-.72a7.57,7.57,0,0,1,2.28.39l.52-2a13.51,13.51,0,0,0-2.76-.33c-2.43,0-3.76,1.11-3.76,2.75,0,.82.23,2,2.79,2.67,1.5.44,2,.49,2,1s-.94.95-2,.95a7.14,7.14,0,0,1-3-.83v2.14a7.86,7.86,0,0,0,2.91.59c2.66,0,4.23-1.12,4.23-2.87,0-1.31-.8-2-2.91-2.67" transform="translate(0 21.53)"/><path class="cls-4" d="M38,44.94c0,1.09-.42,1.49-1.59,1.49h-.13c-1.16,0-1.59-.4-1.59-1.49V39.47H32.42v5.62c0,2.61,1.47,3.31,3.72,3.31h.38c2.4,0,3.79-.68,3.79-3.31V39.47H38Z" transform="translate(0 21.53)"/><path class="cls-4" d="M52.49,36.28a1.22,1.22,0,1,0,1.21,1.21,1.23,1.23,0,0,0-1.21-1.21" transform="translate(0 21.53)"/><rect class="cls-4" x="51.38" y="61.26" width="2.23" height="8.51"/><path class="cls-4" d="M31.15,43.54v4.69H28.06c-2.12,0-3.06-.15-4.17-.89a4.08,4.08,0,0,1-1.5-3.52,4.36,4.36,0,0,1,4.71-4.48c2.63,0,4,1.47,4,4.2m-2.25.26c0-1.7-.66-2.53-2-2.53a2.2,2.2,0,0,0-2.2,2.48c0,1.79.86,2.58,2.79,2.58H28.9Z" transform="translate(0 21.53)"/><path class="cls-4" d="M49.93,36.1V48.23H47.12c-2.12,0-3.06-.16-4.17-.89a4.08,4.08,0,0,1-1.5-3.52,4.21,4.21,0,0,1,4.46-4.45h.23a3,3,0,0,1,1.62.48V36.1Zm-2.17,7.72c0-1.82-.51-2.55-1.78-2.55a2.2,2.2,0,0,0-2.2,2.48c0,1.79.84,2.58,2.76,2.58h1.22Z" transform="translate(0 21.53)"/><path class="cls-5" d="M149,21.16a1.39,1.39,0,0,1,.85,1.29c-.09.47-.59.62-1.16.34a1.39,1.39,0,0,1-.85-1.32c.1-.45.6-.58,1.16-.31" transform="translate(0 21.53)"/><path class="cls-5" d="M150.6,12.18c.45.24.77.64.73.93s-.44.33-.9.09-.79-.65-.74-.94.45-.31.91-.08" transform="translate(0 21.53)"/><path class="cls-5" d="M150.75,11.29c.38.2.64.53.61.76s-.36.26-.75.06-.65-.54-.61-.77.37-.25.75-.05" transform="translate(0 21.53)"/><path class="cls-5" d="M150.9,10.4c.34.19.59.49.57.7s-.34.22-.7,0-.6-.5-.57-.71.34-.21.7,0" transform="translate(0 21.53)"/><path class="cls-5" d="M151,9.54c.32.17.55.45.53.63s-.31.2-.64,0-.56-.46-.53-.64.31-.18.64,0" transform="translate(0 21.53)"/><path class="cls-5" d="M151.16,8.74c.3.17.51.42.49.58s-.28.17-.58,0-.52-.42-.5-.58.29-.16.59,0" transform="translate(0 21.53)"/><path class="cls-5" d="M151.28,8c.27.15.47.38.45.53s-.25.14-.54,0-.48-.39-.46-.54.27-.13.55,0" transform="translate(0 21.53)"/><path class="cls-5" d="M151.39,7.32c.25.15.44.33.42.48s-.24.12-.5,0-.45-.34-.42-.49.24-.12.5,0" transform="translate(0 21.53)"/><path class="cls-5" d="M151.5,6.62c.22.12.38.28.36.41s-.2.09-.43,0-.38-.28-.36-.41.2-.1.43,0" transform="translate(0 21.53)"/><path class="cls-5" d="M151.6,6c.21.12.35.26.34.38s-.18.08-.39,0-.35-.26-.34-.38.19-.08.39,0" transform="translate(0 21.53)"/><path class="cls-5" d="M151.7,5.3c.18.1.3.22.29.32s-.15.06-.33,0-.31-.22-.29-.32.16-.06.33,0" transform="translate(0 21.53)"/><path class="cls-5" d="M151.8,4.68c.16.09.27.2.26.28s-.14,0-.29,0-.27-.2-.26-.28.14-.05.29,0" transform="translate(0 21.53)"/><path class="cls-5" d="M148.38,24.3a1.17,1.17,0,0,1-.71-1.13c.09-.39.51-.52,1-.3a1.18,1.18,0,0,1,.7,1.11c-.08.41-.49.54-1,.32" transform="translate(0 21.53)"/><path class="cls-5" d="M148,26.21a1.14,1.14,0,0,1-.68-1.13c.09-.4.5-.54,1-.33a1.17,1.17,0,0,1,.68,1.11c-.08.41-.49.57-1,.35" transform="translate(0 21.53)"/><path class="cls-5" d="M147.62,28.2a1.11,1.11,0,0,1-.65-1.12c.09-.41.5-.56.94-.36a1.15,1.15,0,0,1,.66,1.11c-.09.42-.49.58-.95.37" transform="translate(0 21.53)"/><path class="cls-5" d="M147.19,30.39a1.09,1.09,0,0,1-.63-1.12.62.62,0,0,1,.93-.39,1.11,1.11,0,0,1,.63,1.11.61.61,0,0,1-.93.4" transform="translate(0 21.53)"/><path class="cls-5" d="M146.75,32.58a1,1,0,0,1-.54-1,.56.56,0,0,1,.82-.38,1,1,0,0,1,.54,1,.55.55,0,0,1-.82.38" transform="translate(0 21.53)"/><path class="cls-5" d="M146.21,35.24a1,1,0,0,1-.51-1,.55.55,0,0,1,.8-.4.93.93,0,0,1,.51,1,.56.56,0,0,1-.8.42" transform="translate(0 21.53)"/><path class="cls-5" d="M145.61,38.1a.86.86,0,0,1-.45-.93.52.52,0,0,1,.73-.4.83.83,0,0,1,.44.91.51.51,0,0,1-.72.42" transform="translate(0 21.53)"/><path class="cls-5" d="M145,41a.72.72,0,0,1-.36-.82.47.47,0,0,1,.63-.39.71.71,0,0,1,.36.8A.47.47,0,0,1,145,41" transform="translate(0 21.53)"/><path class="cls-5" d="M150.91,22.24a1.15,1.15,0,0,1,.69,1.05c0,.37-.43.49-.88.27a1.18,1.18,0,0,1-.7-1.07c.07-.36.45-.47.89-.25" transform="translate(0 21.53)"/><path class="cls-5" d="M152.85,23.05a1.54,1.54,0,0,1,.87,1.32c-.05.48-.5.63-1.06.36a1.55,1.55,0,0,1-.88-1.36c.07-.46.53-.59,1.07-.32" transform="translate(0 21.53)"/><path class="cls-5" d="M166.25,22.34c-.22-.14-.37-.1-.35.1a1,1,0,0,0,.44.61c.23.14.37.1.35-.11a1.05,1.05,0,0,0-.44-.6" transform="translate(0 21.53)"/><path class="cls-5" d="M164.69,21.27c-.3-.17-.5-.12-.48.13a1.37,1.37,0,0,0,.58.78c.3.17.5.12.47-.14a1.34,1.34,0,0,0-.57-.77" transform="translate(0 21.53)"/><path class="cls-5" d="M160.33,35.81c-.37-.23-.66-.07-.67.38a1.62,1.62,0,0,0,.67,1.24c.38.24.66.07.67-.39a1.63,1.63,0,0,0-.67-1.23" transform="translate(0 21.53)"/><path class="cls-5" d="M158.48,32.13c-.44-.25-.78-.08-.81.39a1.63,1.63,0,0,0,.77,1.32c.44.26.78.08.79-.41a1.67,1.67,0,0,0-.75-1.3" transform="translate(0 21.53)"/><path class="cls-5" d="M156.52,29c-.43-.24-.77-.09-.81.34a1.47,1.47,0,0,0,.74,1.22c.44.23.78.08.81-.37a1.47,1.47,0,0,0-.74-1.19" transform="translate(0 21.53)"/><path class="cls-5" d="M155.32,15.89c-.39-.2-.71-.16-.73.11a1.16,1.16,0,0,0,.68.87c.39.21.7.16.72-.12a1.18,1.18,0,0,0-.67-.86" transform="translate(0 21.53)"/><path class="cls-5" d="M163.3,21.68c-.31-.18-.52-.12-.51.14a1.31,1.31,0,0,0,.59.8c.31.18.52.12.5-.15a1.25,1.25,0,0,0-.58-.79" transform="translate(0 21.53)"/><path class="cls-5" d="M161.72,20.73c-.32-.18-.56-.12-.55.14a1.28,1.28,0,0,0,.62.83c.32.18.56.12.54-.15a1.25,1.25,0,0,0-.61-.82" transform="translate(0 21.53)"/><path class="cls-5" d="M158.58,20.2c-.38-.21-.67-.14-.67.16a1.27,1.27,0,0,0,.68.93c.39.21.67.14.67-.18a1.28,1.28,0,0,0-.68-.91" transform="translate(0 21.53)"/><path class="cls-5" d="M160.17,19.77c-.36-.19-.63-.13-.63.15a1.32,1.32,0,0,0,.67.9c.37.2.64.13.63-.16a1.32,1.32,0,0,0-.67-.89" transform="translate(0 21.53)"/><path class="cls-5" d="M158.51,18.82c-.41-.22-.72-.16-.73.15a1.4,1.4,0,0,0,.74,1c.41.22.72.15.72-.17a1.37,1.37,0,0,0-.73-1" transform="translate(0 21.53)"/><path class="cls-5" d="M156.91,19.22c-.43-.22-.76-.15-.78.18a1.37,1.37,0,0,0,.74,1c.44.23.77.15.78-.19a1.39,1.39,0,0,0-.74-1" transform="translate(0 21.53)"/><path class="cls-5" d="M154.66,25.9c-.44-.23-.81-.1-.86.31a1.36,1.36,0,0,0,.74,1.17c.46.23.82.09.85-.33a1.36,1.36,0,0,0-.73-1.15" transform="translate(0 21.53)"/><path class="cls-5" d="M154.79,24.14c-.48-.24-.87-.12-.92.31a1.47,1.47,0,0,0,.8,1.23c.49.25.89.11.92-.32a1.5,1.5,0,0,0-.8-1.22" transform="translate(0 21.53)"/><path class="cls-5" d="M154.91,22.49c-.52-.27-.94-.14-1,.29a1.57,1.57,0,0,0,.87,1.3c.53.28,1,.14,1-.32a1.59,1.59,0,0,0-.87-1.27" transform="translate(0 21.53)"/><path class="cls-5" d="M155,20.94c-.51-.25-.92-.15-1,.26a1.52,1.52,0,0,0,.85,1.23c.52.26.92.14,1-.28a1.57,1.57,0,0,0-.85-1.21" transform="translate(0 21.53)"/><path class="cls-5" d="M155.09,19.6c-.44-.23-.8-.15-.83.2a1.29,1.29,0,0,0,.75,1.05c.45.23.8.14.83-.21a1.37,1.37,0,0,0-.75-1" transform="translate(0 21.53)"/><path class="cls-5" d="M155.19,18.23c-.48-.24-.86-.17-.9.19a1.42,1.42,0,0,0,.82,1.11c.49.26.87.17.89-.2a1.45,1.45,0,0,0-.81-1.1" transform="translate(0 21.53)"/><path class="cls-5" d="M155.26,17c-.46-.24-.84-.18-.87.16a1.4,1.4,0,0,0,.8,1.06c.47.24.84.17.87-.18a1.43,1.43,0,0,0-.8-1" transform="translate(0 21.53)"/><path class="cls-5" d="M152.25,13.19c-.32-.17-.59-.14-.63.06s.21.51.54.69.6.14.63-.07-.21-.5-.54-.68" transform="translate(0 21.53)"/><path class="cls-5" d="M152.32,12.22c-.3-.15-.55-.14-.58,0s.19.46.5.62.55.13.57-.05-.2-.45-.49-.61" transform="translate(0 21.53)"/><path class="cls-5" d="M152.37,11.31c-.26-.14-.47-.13-.5,0s.17.39.43.53.47.12.5,0-.18-.38-.43-.52" transform="translate(0 21.53)"/><path class="cls-5" d="M152.41,10.42c-.24-.12-.43-.13-.45,0s.15.33.39.46.42.14.44,0-.15-.33-.38-.46" transform="translate(0 21.53)"/><path class="cls-5" d="M152.45,9.6c-.21-.12-.39-.14-.41,0s.15.31.36.43.4.13.42,0-.15-.3-.37-.42" transform="translate(0 21.53)"/><path class="cls-5" d="M152.49,8.77c-.19-.11-.34-.13-.36,0s.13.27.32.37.35.13.36,0-.13-.26-.32-.36" transform="translate(0 21.53)"/><path class="cls-5" d="M152.53,8c-.18-.09-.32-.12-.34,0s.12.24.3.34.32.12.33,0-.12-.24-.29-.34" transform="translate(0 21.53)"/><path class="cls-5" d="M152.56,7.28c-.16-.09-.28-.11-.3,0s.11.21.27.3.28.11.29,0-.11-.2-.26-.29" transform="translate(0 21.53)"/><path class="cls-5" d="M150.5,25.12c.34.16.64.06.69-.24a.91.91,0,0,0-.53-.83c-.34-.17-.64-.07-.69.22a.9.9,0,0,0,.53.85" transform="translate(0 21.53)"/><path class="cls-5" d="M150.21,27c.33.15.61,0,.66-.25a.88.88,0,0,0-.5-.82c-.33-.16-.62-.06-.67.24a.88.88,0,0,0,.51.83" transform="translate(0 21.53)"/><path class="cls-5" d="M149.75,29c.33.15.61,0,.66-.28a.87.87,0,0,0-.49-.82c-.32-.15-.61,0-.66.26a.85.85,0,0,0,.49.84" transform="translate(0 21.53)"/><path class="cls-5" d="M149.33,31.15a.4.4,0,0,0,.62-.28.81.81,0,0,0-.45-.79.41.41,0,0,0-.63.27.8.8,0,0,0,.46.8" transform="translate(0 21.53)"/><path class="cls-5" d="M148.82,33.3a.39.39,0,0,0,.59-.3.78.78,0,0,0-.42-.76.4.4,0,0,0-.59.29.78.78,0,0,0,.42.77" transform="translate(0 21.53)"/><path class="cls-5" d="M148.23,35.85a.38.38,0,0,0,.56-.3.74.74,0,0,0-.39-.74.37.37,0,0,0-.55.3.73.73,0,0,0,.38.74" transform="translate(0 21.53)"/><path class="cls-5" d="M156.87,18c-.39-.21-.69-.15-.71.14a1.23,1.23,0,0,0,.69.92c.4.21.7.14.71-.16a1.27,1.27,0,0,0-.69-.9" transform="translate(0 21.53)"/><path class="cls-5" d="M156.79,20.63c-.35-.18-.63-.12-.65.17a1.14,1.14,0,0,0,.62.86c.36.19.63.12.64-.18a1.14,1.14,0,0,0-.61-.85" transform="translate(0 21.53)"/><path class="cls-5" d="M156.76,22c-.4-.21-.72-.13-.74.21a1.29,1.29,0,0,0,.7,1c.4.22.72.12.74-.22a1.33,1.33,0,0,0-.7-1" transform="translate(0 21.53)"/><path class="cls-5" d="M156.56,27c-.39-.21-.71-.09-.74.28a1.32,1.32,0,0,0,.68,1.07c.4.22.71.09.73-.3a1.28,1.28,0,0,0-.67-1.05" transform="translate(0 21.53)"/><path class="cls-5" d="M163.17,20.32c-.34-.19-.57-.14-.55.13a1.41,1.41,0,0,0,.64.85c.34.19.57.13.54-.15a1.34,1.34,0,0,0-.63-.83" transform="translate(0 21.53)"/><path class="cls-5" d="M158.34,34.52c-.36-.21-.65-.06-.68.36A1.45,1.45,0,0,0,158.3,36c.37.21.65,0,.67-.38a1.4,1.4,0,0,0-.63-1.12" transform="translate(0 21.53)"/><path class="cls-5" d="M160.36,38.29c-.35-.22-.62-.06-.63.38a1.55,1.55,0,0,0,.62,1.19c.35.22.61.06.62-.39a1.57,1.57,0,0,0-.61-1.18" transform="translate(0 21.53)"/><path class="cls-5" d="M156.36,31c-.4-.21-.72-.06-.76.35a1.42,1.42,0,0,0,.68,1.17c.41.21.74.05.76-.37a1.39,1.39,0,0,0-.68-1.15" transform="translate(0 21.53)"/><path class="cls-5" d="M154.5,27.93c-.4-.21-.72-.08-.77.3a1.27,1.27,0,0,0,.65,1.08c.41.2.74.06.77-.33a1.24,1.24,0,0,0-.65-1.05" transform="translate(0 21.53)"/><path class="cls-5" d="M152.69,24.91c-.44-.22-.8-.1-.86.29a1.23,1.23,0,0,0,.7,1.11c.44.22.81.08.85-.32a1.23,1.23,0,0,0-.69-1.08" transform="translate(0 21.53)"/><path class="cls-5" d="M156.63,25.3c-.36-.19-.66-.09-.68.25a1.21,1.21,0,0,0,.63,1c.38.2.67.09.68-.25a1.2,1.2,0,0,0-.63-1" transform="translate(0 21.53)"/><path class="cls-5" d="M155.37,14.83c-.34-.18-.61-.15-.63.08a1,1,0,0,0,.59.75c.35.18.62.14.64-.09a1,1,0,0,0-.6-.74" transform="translate(0 21.53)"/><path class="cls-5" d="M161.64,19.51c-.28-.15-.47-.11-.46.11a1.09,1.09,0,0,0,.51.67c.28.15.47.1.46-.12a1,1,0,0,0-.51-.66" transform="translate(0 21.53)"/><path class="cls-5" d="M158.59,23.16c-.31-.17-.54-.09-.55.18a1.06,1.06,0,0,0,.55.79c.31.17.54.1.55-.18a1.12,1.12,0,0,0-.55-.79" transform="translate(0 21.53)"/><path class="cls-5" d="M158.44,30.09c-.38-.21-.68-.08-.7.32a1.43,1.43,0,0,0,.67,1.11c.39.22.69.08.7-.33a1.4,1.4,0,0,0-.67-1.1" transform="translate(0 21.53)"/><path class="cls-5" d="M156.7,23.69c-.36-.19-.64-.1-.67.21a1.19,1.19,0,0,0,.62.92c.37.2.65.1.67-.22a1.2,1.2,0,0,0-.62-.91" transform="translate(0 21.53)"/><path class="cls-5" d="M160.37,25.76c-.35-.2-.61-.1-.61.22a1.35,1.35,0,0,0,.63,1c.35.2.61.1.61-.23a1.32,1.32,0,0,0-.63-.95" transform="translate(0 21.53)"/><path class="cls-5" d="M161.86,42.52c-.28-.2-.49-.06-.49.34a1.5,1.5,0,0,0,.51,1.08c.28.2.48.05.48-.35a1.51,1.51,0,0,0-.5-1.07" transform="translate(0 21.53)"/><path class="cls-5" d="M160.22,21.17c-.32-.18-.56-.12-.55.15a1.16,1.16,0,0,0,.58.81c.33.18.57.11.56-.16a1.14,1.14,0,0,0-.59-.8" transform="translate(0 21.53)"/><path class="cls-5" d="M153.76,14c-.31-.17-.57-.14-.59.06s.21.5.52.67.58.14.6-.07a.89.89,0,0,0-.53-.66" transform="translate(0 21.53)"/><path class="cls-5" d="M156.92,14.67c-.3-.16-.53-.13-.54.06a1,1,0,0,0,.54.65c.3.16.53.14.53-.06a.92.92,0,0,0-.53-.65" transform="translate(0 21.53)"/><path class="cls-5" d="M160.12,18.67c-.25-.14-.43-.11-.43.09a.92.92,0,0,0,.46.59c.25.14.44.1.43-.1a.87.87,0,0,0-.46-.58" transform="translate(0 21.53)"/><path class="cls-5" d="M158.52,24.75c-.32-.17-.56-.09-.57.2a1.1,1.1,0,0,0,.56.84c.32.18.56.09.57-.2a1.13,1.13,0,0,0-.56-.84" transform="translate(0 21.53)"/><path class="cls-5" d="M160.27,24.17c-.27-.16-.48-.09-.48.15a1.07,1.07,0,0,0,.5.74c.28.15.48.08.48-.17a1,1,0,0,0-.5-.72" transform="translate(0 21.53)"/><path class="cls-5" d="M162.06,26.83c-.3-.18-.53-.1-.52.2a1.25,1.25,0,0,0,.57.89c.31.18.53.09.52-.22a1.28,1.28,0,0,0-.57-.87" transform="translate(0 21.53)"/><path class="cls-5" d="M164.8,22.69c-.23-.13-.39-.09-.37.12a1,1,0,0,0,.45.63c.23.14.39.09.37-.12a1,1,0,0,0-.45-.63" transform="translate(0 21.53)"/><path class="cls-5" d="M156.93,13.73c-.26-.14-.47-.12-.47,0s.2.41.46.56.48.12.48-.05a.89.89,0,0,0-.47-.56" transform="translate(0 21.53)"/><path class="cls-5" d="M156.91,15.74c-.27-.15-.49-.12-.5.07a.9.9,0,0,0,.49.61c.28.15.49.12.5-.08a.88.88,0,0,0-.49-.6" transform="translate(0 21.53)"/><path class="cls-5" d="M162.16,39.94c-.32-.21-.56-.06-.56.36a1.62,1.62,0,0,0,.58,1.17c.32.23.56.07.55-.36a1.65,1.65,0,0,0-.57-1.17" transform="translate(0 21.53)"/><path class="cls-5" d="M155.42,13.89c-.28-.15-.49-.13-.51,0a.83.83,0,0,0,.48.58c.27.15.49.12.49-.06s-.19-.42-.46-.57" transform="translate(0 21.53)"/><path class="cls-5" d="M158.51,21.69c-.27-.14-.47-.09-.48.14a.93.93,0,0,0,.48.68c.27.15.48.09.49-.14a1,1,0,0,0-.49-.68" transform="translate(0 21.53)"/><path class="cls-5" d="M158.5,17.82c-.23-.12-.4-.09-.4.07a.76.76,0,0,0,.4.53c.23.12.4.09.4-.08a.73.73,0,0,0-.4-.52" transform="translate(0 21.53)"/><path class="cls-5" d="M158.47,28.27c-.27-.15-.48-.07-.49.2a1,1,0,0,0,.48.77c.27.15.48.06.49-.21a1,1,0,0,0-.48-.76" transform="translate(0 21.53)"/><path class="cls-5" d="M160.38,33.55c-.31-.19-.55-.06-.55.29a1.29,1.29,0,0,0,.55,1c.32.19.56.06.56-.3a1.31,1.31,0,0,0-.56-1" transform="translate(0 21.53)"/><path class="cls-5" d="M156.89,17c-.2-.11-.36-.08-.37.06a.65.65,0,0,0,.36.47c.21.11.37.08.38-.07a.67.67,0,0,0-.37-.46" transform="translate(0 21.53)"/><path class="cls-5" d="M160.22,40.82c-.24-.16-.43,0-.44.3a1.14,1.14,0,0,0,.43.88c.25.16.44,0,.45-.3a1.15,1.15,0,0,0-.44-.88" transform="translate(0 21.53)"/><path class="cls-5" d="M161.82,22.2c-.26-.15-.45-.1-.44.13a1,1,0,0,0,.49.67c.26.15.44.09.43-.13a1,1,0,0,0-.48-.67" transform="translate(0 21.53)"/><path class="cls-5" d="M158.48,14.61c-.24-.13-.42-.11-.42,0a.85.85,0,0,0,.43.52c.24.13.42.1.42-.05a.85.85,0,0,0-.43-.51" transform="translate(0 21.53)"/><path class="cls-5" d="M167.77,23.38c-.18-.13-.3-.09-.28.09a1,1,0,0,0,.38.54c.19.12.31.08.29-.1a.94.94,0,0,0-.39-.53" transform="translate(0 21.53)"/><path class="cls-5" d="M163.79,28c-.27-.17-.47-.09-.46.19a1.24,1.24,0,0,0,.52.82c.27.18.46.1.45-.19a1.24,1.24,0,0,0-.51-.82" transform="translate(0 21.53)"/><path class="cls-5" d="M163,45.26c-.22-.19-.39-.06-.39.31a1.58,1.58,0,0,0,.42,1c.23.2.39.07.39-.31a1.59,1.59,0,0,0-.42-1" transform="translate(0 21.53)"/><path class="cls-5" d="M158.26,37c-.28-.16-.49,0-.51.29a1.12,1.12,0,0,0,.47.88c.28.16.49,0,.5-.3a1.07,1.07,0,0,0-.46-.87" transform="translate(0 21.53)"/><path class="cls-5" d="M162,25.3c-.19-.11-.34-.06-.33.12A.78.78,0,0,0,162,26c.2.12.34.06.33-.12a.78.78,0,0,0-.36-.54" transform="translate(0 21.53)"/><path class="cls-5" d="M158.39,13.65c-.2-.11-.35-.11-.35,0a.67.67,0,0,0,.37.43c.2.11.35.11.35,0a.66.66,0,0,0-.37-.42" transform="translate(0 21.53)"/><path class="cls-5" d="M159.82,14.51c-.17-.09-.29-.09-.28,0a.55.55,0,0,0,.3.35c.17.09.29.09.28,0a.55.55,0,0,0-.3-.35" transform="translate(0 21.53)"/><path class="cls-5" d="M156.26,33.59c-.25-.14-.45,0-.47.23a.87.87,0,0,0,.41.72c.25.14.45,0,.46-.24a.83.83,0,0,0-.4-.71" transform="translate(0 21.53)"/><path class="cls-5" d="M154.25,30.24c-.24-.12-.44,0-.46.21a.75.75,0,0,0,.39.66c.24.12.44,0,.47-.21a.77.77,0,0,0-.4-.66" transform="translate(0 21.53)"/><path class="cls-5" d="M152.4,27.13c-.24-.12-.44,0-.48.18a.69.69,0,0,0,.39.62c.24.12.44,0,.47-.19a.72.72,0,0,0-.38-.61" transform="translate(0 21.53)"/><path class="cls-5" d="M159.73,13.6c-.18-.09-.3-.1-.3,0s.16.28.33.38.31.1.3,0-.16-.27-.33-.37" transform="translate(0 21.53)"/><path class="cls-5" d="M160.85,13.63c-.15-.08-.26-.09-.26,0a.49.49,0,0,0,.29.32c.15.08.26.09.25,0a.5.5,0,0,0-.28-.32" transform="translate(0 21.53)"/><path class="cls-5" d="M165.48,29.26c-.17-.11-.29-.06-.27.13a.82.82,0,0,0,.33.55c.17.12.29.06.28-.13a.84.84,0,0,0-.34-.55" transform="translate(0 21.53)"/><path class="cls-5" d="M163.91,29.69c-.21-.14-.37-.07-.36.17a1,1,0,0,0,.42.69c.21.14.37.07.36-.17a1.08,1.08,0,0,0-.42-.69" transform="translate(0 21.53)"/><path class="cls-5" d="M162.15,28.6c-.2-.13-.35-.06-.34.15a.85.85,0,0,0,.37.6c.21.13.35.06.34-.15a.82.82,0,0,0-.37-.6" transform="translate(0 21.53)"/><path class="cls-5" d="M160.35,27.53c-.19-.1-.32-.05-.33.14a.7.7,0,0,0,.34.53c.19.11.33.05.33-.14a.72.72,0,0,0-.34-.53" transform="translate(0 21.53)"/><path class="cls-5" d="M158.51,26.47c-.19-.11-.34,0-.34.13a.67.67,0,0,0,.33.52c.2.11.34.05.35-.13a.67.67,0,0,0-.34-.52" transform="translate(0 21.53)"/><path class="cls-5" d="M165.58,30.91c-.18-.12-.3-.06-.28.14a.89.89,0,0,0,.33.58c.17.12.3.06.28-.14a.84.84,0,0,0-.33-.58" transform="translate(0 21.53)"/><path class="cls-5" d="M167.32,32.22c-.15-.11-.26-.06-.24.13a.87.87,0,0,0,.3.55c.15.12.26.06.24-.13a.91.91,0,0,0-.3-.55" transform="translate(0 21.53)"/><path class="cls-5" d="M158.45,15.63c-.19-.11-.34-.1-.34,0a.65.65,0,0,0,.35.43c.2.11.34.1.34-.05a.63.63,0,0,0-.35-.42" transform="translate(0 21.53)"/><path class="cls-5" d="M146.92,20.25c-.45-.21-.87-.11-1,.24a1,1,0,0,0,.66,1.05c.47.21.88.1,1-.27a1.07,1.07,0,0,0-.67-1" transform="translate(0 21.53)"/><path class="cls-5" d="M145,19.14c-.58-.26-1.12-.14-1.26.3a1.25,1.25,0,0,0,.82,1.29c.59.27,1.13.12,1.25-.32a1.26,1.26,0,0,0-.81-1.27" transform="translate(0 21.53)"/><path class="cls-5" d="M131.79,5.24c.31.1.46.3.35.44s-.44.18-.76.08-.47-.29-.35-.45a.79.79,0,0,1,.76-.07" transform="translate(0 21.53)"/><path class="cls-5" d="M134,5.91c.37.14.56.39.44.57s-.52.21-.9.08-.56-.39-.44-.57a.87.87,0,0,1,.9-.08" transform="translate(0 21.53)"/><path class="cls-5" d="M133.14,23.1a.57.57,0,0,1,.39.74.67.67,0,0,1-.87.27.57.57,0,0,1-.39-.75.69.69,0,0,1,.87-.26" transform="translate(0 21.53)"/><path class="cls-5" d="M136.25,21.54a.84.84,0,0,1,.57,1,.85.85,0,0,1-1.15.34.82.82,0,0,1-.56-1,.86.86,0,0,1,1.14-.32" transform="translate(0 21.53)"/><path class="cls-5" d="M139.37,20.64a.92.92,0,0,1,.63,1.08c-.14.39-.64.53-1.15.32a.94.94,0,0,1-.64-1.09.84.84,0,0,1,1.16-.31" transform="translate(0 21.53)"/><path class="cls-5" d="M145.21,10.67c.41.21.68.56.61.82s-.47.29-.9.08-.7-.57-.62-.82.48-.28.91-.08" transform="translate(0 21.53)"/><path class="cls-5" d="M135.33,7.68c.39.15.6.43.48.63s-.53.26-.93.11-.61-.42-.49-.64.54-.24.94-.1" transform="translate(0 21.53)"/><path class="cls-5" d="M137.34,8.45c.39.17.61.46.51.68s-.53.27-.94.1-.63-.46-.51-.68.53-.26.94-.1" transform="translate(0 21.53)"/><path class="cls-5" d="M140.68,11.15c.43.2.69.55.59.82s-.55.32-1,.13-.7-.56-.59-.83.56-.31,1-.12" transform="translate(0 21.53)"/><path class="cls-5" d="M139.28,9.21c.43.19.67.51.57.76s-.55.29-1,.11-.69-.53-.57-.78.56-.28,1-.09" transform="translate(0 21.53)"/><path class="cls-5" d="M141.22,10c.45.21.71.57.61.84s-.55.31-1,.11-.73-.58-.62-.85.57-.3,1-.1" transform="translate(0 21.53)"/><path class="cls-5" d="M142.6,12c.47.22.75.61.65.91s-.56.36-1.05.14-.77-.63-.66-.93.58-.34,1.06-.12" transform="translate(0 21.53)"/><path class="cls-5" d="M142.26,19.85a1,1,0,0,1,.67,1.07c-.13.39-.61.52-1.11.3a1,1,0,0,1-.66-1.09c.14-.37.61-.49,1.1-.28" transform="translate(0 21.53)"/><path class="cls-5" d="M142.76,18.23a1.09,1.09,0,0,1,.73,1.13c-.13.4-.64.53-1.18.29a1.08,1.08,0,0,1-.73-1.15c.15-.39.66-.5,1.18-.27" transform="translate(0 21.53)"/><path class="cls-5" d="M143.21,16.71c.56.27.9.78.79,1.19s-.67.54-1.26.28-.92-.8-.79-1.21.69-.51,1.26-.26" transform="translate(0 21.53)"/><path class="cls-5" d="M143.67,15.3c.54.26.87.74.77,1.13s-.64.48-1.21.23-.9-.77-.77-1.15.66-.46,1.21-.21" transform="translate(0 21.53)"/><path class="cls-5" d="M144.06,14.06c.47.23.77.65.68,1s-.56.4-1.05.18-.78-.66-.68-1,.57-.38,1.05-.16" transform="translate(0 21.53)"/><path class="cls-5" d="M144.5,12.82c.52.25.83.69.74,1s-.59.4-1.12.16-.85-.71-.74-1,.6-.38,1.12-.14" transform="translate(0 21.53)"/><path class="cls-5" d="M144.88,11.68c.5.25.82.67.73,1s-.56.37-1.08.12-.83-.68-.73-1,.58-.34,1.08-.11" transform="translate(0 21.53)"/><path class="cls-5" d="M148.86,11.42c.33.18.56.47.52.67s-.34.23-.68.06-.56-.47-.52-.67.35-.22.68-.06" transform="translate(0 21.53)"/><path class="cls-5" d="M149.13,10.51c.3.16.51.42.48.6s-.31.2-.62,0-.52-.43-.48-.61.31-.18.62,0" transform="translate(0 21.53)"/><path class="cls-5" d="M149.39,9.66c.26.14.44.36.42.51s-.27.16-.54,0-.44-.36-.41-.52.26-.15.53,0" transform="translate(0 21.53)"/><path class="cls-5" d="M149.63,8.84c.23.13.4.31.38.45s-.24.14-.48,0-.41-.31-.38-.46.24-.13.48,0" transform="translate(0 21.53)"/><path class="cls-5" d="M149.85,8.1c.22.11.38.28.35.41s-.21.12-.44,0-.38-.29-.35-.42.22-.11.44,0" transform="translate(0 21.53)"/><path class="cls-5" d="M150.06,7.39c.19.11.33.25.31.36s-.19.1-.39,0-.33-.25-.31-.36.19-.09.39,0" transform="translate(0 21.53)"/><path class="cls-5" d="M150.24,6.79c.18.1.31.23.29.34s-.18.08-.36,0-.31-.23-.29-.34.18-.08.36,0" transform="translate(0 21.53)"/><path class="cls-5" d="M150.42,6.19c.16.08.28.2.26.29s-.15.06-.31,0-.27-.21-.26-.3.15-.06.31,0" transform="translate(0 21.53)"/><path class="cls-5" d="M146.26,23a.81.81,0,0,1-.51-.83c.08-.28.4-.37.75-.21a.82.82,0,0,1,.51.81c-.07.29-.39.39-.75.23" transform="translate(0 21.53)"/><path class="cls-5" d="M145.88,24.91a.8.8,0,0,1-.49-.81c.08-.28.39-.38.73-.23a.8.8,0,0,1,.48.8c-.07.29-.38.4-.72.24" transform="translate(0 21.53)"/><path class="cls-5" d="M145.51,26.9a.78.78,0,0,1-.46-.82.48.48,0,0,1,.72-.26.79.79,0,0,1,.47.81.49.49,0,0,1-.73.27" transform="translate(0 21.53)"/><path class="cls-5" d="M145.18,29.05a.74.74,0,0,1-.43-.79.46.46,0,0,1,.69-.26.72.72,0,0,1,.43.77.46.46,0,0,1-.69.28" transform="translate(0 21.53)"/><path class="cls-5" d="M144.75,31.39a.7.7,0,0,1-.39-.76.43.43,0,0,1,.64-.28.69.69,0,0,1,.4.75.45.45,0,0,1-.65.29" transform="translate(0 21.53)"/><path class="cls-5" d="M144.3,34.05a.66.66,0,0,1-.37-.73.44.44,0,0,1,.62-.3.64.64,0,0,1,.36.72.43.43,0,0,1-.61.31" transform="translate(0 21.53)"/><path class="cls-5" d="M143.07,10.91c.44.21.7.57.62.83s-.52.31-1,.11-.72-.58-.62-.85.53-.29,1-.09" transform="translate(0 21.53)"/><path class="cls-5" d="M142.09,13.25c.4.18.63.52.55.77s-.48.32-.89.14-.63-.52-.54-.78.48-.31.88-.13" transform="translate(0 21.53)"/><path class="cls-5" d="M141.64,14.48c.45.22.72.6.62.91s-.56.39-1,.18-.73-.61-.62-.92.57-.36,1-.17" transform="translate(0 21.53)"/><path class="cls-5" d="M140,18.92a.86.86,0,0,1,.59,1c-.13.34-.58.45-1,.26a.85.85,0,0,1-.59-1,.76.76,0,0,1,1-.25" transform="translate(0 21.53)"/><path class="cls-5" d="M136,6.62c.41.17.63.46.51.68s-.57.24-1,.07-.65-.47-.52-.68.59-.24,1-.07" transform="translate(0 21.53)"/><path class="cls-5" d="M135.42,23.64a.78.78,0,0,1,.52,1,.8.8,0,0,1-1.07.35.79.79,0,0,1-.52-1,.81.81,0,0,1,1.07-.33" transform="translate(0 21.53)"/><path class="cls-5" d="M132.31,24.88a.74.74,0,0,1,.48,1,.88.88,0,0,1-1.13.39.74.74,0,0,1-.48-1,.91.91,0,0,1,1.13-.37" transform="translate(0 21.53)"/><path class="cls-5" d="M138.66,22.58a.88.88,0,0,1,.58,1,.78.78,0,0,1-1.09.34.88.88,0,0,1-.58-1.05.79.79,0,0,1,1.09-.32" transform="translate(0 21.53)"/><path class="cls-5" d="M141.66,21.72a.89.89,0,0,1,.58,1,.69.69,0,0,1-1,.3.89.89,0,0,1-.59-1,.7.7,0,0,1,1-.28" transform="translate(0 21.53)"/><path class="cls-5" d="M144.43,20.88a1,1,0,0,1,.65,1c-.11.37-.54.5-1,.29a1,1,0,0,1-.65-1.06c.11-.37.55-.48,1-.27" transform="translate(0 21.53)"/><path class="cls-5" d="M140.55,17.36c.41.19.65.56.55.87s-.53.4-1,.22-.66-.58-.55-.88.54-.39,1-.21" transform="translate(0 21.53)"/><path class="cls-5" d="M145.52,9.7c.36.19.6.49.54.71s-.41.23-.78.05-.61-.5-.55-.71.42-.23.79-.05" transform="translate(0 21.53)"/><path class="cls-5" d="M137.93,7.52c.33.15.51.39.42.57s-.44.19-.78.05-.51-.39-.42-.57.45-.19.78-.05" transform="translate(0 21.53)"/><path class="cls-5" d="M139.59,13.71c.35.16.56.45.47.69s-.46.3-.83.14-.57-.46-.47-.7.46-.29.83-.13" transform="translate(0 21.53)"/><path class="cls-5" d="M137,19.69c.45.2.7.61.56,1a.79.79,0,0,1-1.08.29c-.47-.2-.71-.61-.56-1a.82.82,0,0,1,1.08-.28" transform="translate(0 21.53)"/><path class="cls-5" d="M141.07,16c.4.19.64.54.54.83s-.5.36-.91.18-.65-.54-.55-.83.51-.35.92-.18" transform="translate(0 21.53)"/><path class="cls-5" d="M136.85,14.14c.42.18.65.52.53.8s-.57.35-1,.18-.66-.52-.53-.8.57-.35,1-.18" transform="translate(0 21.53)"/><path class="cls-5" d="M129.6,26.22a.49.49,0,0,1,.31.69.69.69,0,0,1-.82.29.5.5,0,0,1-.32-.7.7.7,0,0,1,.83-.28" transform="translate(0 21.53)"/><path class="cls-5" d="M138.68,10.35c.38.17.6.46.5.69s-.49.27-.89.11-.61-.47-.5-.69.5-.27.89-.11" transform="translate(0 21.53)"/><path class="cls-5" d="M147.22,10.6c.33.17.54.44.5.64s-.35.22-.68,0-.55-.45-.5-.65.35-.2.68,0" transform="translate(0 21.53)"/><path class="cls-5" d="M142.44,7.35c.25.09.41.27.38.41s-.26.16-.51.06-.42-.27-.38-.41.26-.16.51-.06" transform="translate(0 21.53)"/><path class="cls-5" d="M139.75,8.28c.29.13.46.35.39.52s-.37.18-.67,0-.46-.36-.39-.52.38-.18.67-.05" transform="translate(0 21.53)"/><path class="cls-5" d="M139,15.12c.37.16.57.47.48.73s-.48.32-.86.17-.59-.49-.48-.74.48-.32.86-.16" transform="translate(0 21.53)"/><path class="cls-5" d="M137.5,12.89c.33.14.52.41.42.62s-.43.26-.77.13-.52-.41-.42-.62.44-.26.77-.13" transform="translate(0 21.53)"/><path class="cls-5" d="M134.63,13.37c.4.15.6.45.47.7a.77.77,0,0,1-.94.17c-.39-.15-.6-.45-.47-.7a.78.78,0,0,1,.94-.17" transform="translate(0 21.53)"/><path class="cls-5" d="M133.29,7.05c.31.11.47.31.37.47a.71.71,0,0,1-.75.1c-.32-.12-.48-.32-.38-.48a.71.71,0,0,1,.76-.09" transform="translate(0 21.53)"/><path class="cls-5" d="M142.86,6.49c.27.11.45.3.42.44s-.28.16-.55.06-.46-.3-.42-.44.28-.16.55-.06" transform="translate(0 21.53)"/><path class="cls-5" d="M143.81,8.92c.33.16.54.42.48.61s-.38.21-.72.05S143,9.15,143.1,9s.38-.2.71,0" transform="translate(0 21.53)"/><path class="cls-5" d="M144.2,8c.29.15.48.38.44.55s-.32.17-.62,0-.48-.38-.43-.55.32-.17.61,0" transform="translate(0 21.53)"/><path class="cls-5" d="M140.09,12.51c.31.14.49.4.42.6s-.4.24-.72.11-.5-.4-.42-.6.4-.24.72-.11" transform="translate(0 21.53)"/><path class="cls-5" d="M141.63,9.16c.26.13.41.33.35.48s-.31.16-.57,0-.42-.32-.36-.47.32-.16.58-.05" transform="translate(0 21.53)"/><path class="cls-5" d="M137.68,18.14c.32.14.49.42.4.66a.57.57,0,0,1-.76.18c-.32-.14-.5-.43-.4-.66s.43-.31.76-.18" transform="translate(0 21.53)"/><path class="cls-5" d="M143.38,10c.23.11.36.3.32.43s-.26.15-.49,0-.38-.3-.33-.43.27-.15.5,0" transform="translate(0 21.53)"/><path class="cls-5" d="M145.77,8.84c.26.13.43.35.39.5s-.27.16-.53,0-.43-.36-.4-.51.28-.15.54,0" transform="translate(0 21.53)"/><path class="cls-5" d="M136.63,9.6c.33.13.5.37.41.55s-.43.22-.76.09-.5-.37-.4-.55.43-.22.75-.09" transform="translate(0 21.53)"/><path class="cls-5" d="M129.64,4.53c.26.09.38.24.28.36a.71.71,0,0,1-.65.06c-.27-.08-.39-.23-.28-.35a.75.75,0,0,1,.65-.07" transform="translate(0 21.53)"/><path class="cls-5" d="M132.36,12.58c.37.14.55.4.43.62a.8.8,0,0,1-.9.17c-.37-.13-.55-.4-.42-.62a.79.79,0,0,1,.89-.17" transform="translate(0 21.53)"/><path class="cls-5" d="M128.82,28.26a.45.45,0,0,1,.27.66.65.65,0,0,1-.78.29.46.46,0,0,1-.26-.67.64.64,0,0,1,.77-.28" transform="translate(0 21.53)"/><path class="cls-5" d="M126.54,29.44a.38.38,0,0,1,.23.57.64.64,0,0,1-.7.26.38.38,0,0,1-.23-.57.62.62,0,0,1,.7-.26" transform="translate(0 21.53)"/><path class="cls-5" d="M134.61,25.66a.6.6,0,0,1,.38.76.63.63,0,0,1-.82.29.59.59,0,0,1-.37-.77.61.61,0,0,1,.81-.28" transform="translate(0 21.53)"/><path class="cls-5" d="M131.49,27a.6.6,0,0,1,.38.76.62.62,0,0,1-.82.3.61.61,0,0,1-.38-.78.63.63,0,0,1,.82-.28" transform="translate(0 21.53)"/><path class="cls-5" d="M135.33,12.14c.25.1.38.29.3.43a.46.46,0,0,1-.58.1c-.25-.1-.39-.28-.31-.43a.49.49,0,0,1,.59-.1" transform="translate(0 21.53)"/><path class="cls-5" d="M141.75,5.22c.21.09.35.22.32.34s-.23.11-.44,0-.36-.23-.32-.34.23-.11.44,0" transform="translate(0 21.53)"/><path class="cls-5" d="M137.91,24.63a.53.53,0,0,1,.34.65.49.49,0,0,1-.67.23.55.55,0,0,1-.34-.66.49.49,0,0,1,.67-.22" transform="translate(0 21.53)"/><path class="cls-5" d="M141,23.59a.54.54,0,0,1,.34.61.42.42,0,0,1-.61.2.55.55,0,0,1-.35-.62.43.43,0,0,1,.62-.19" transform="translate(0 21.53)"/><path class="cls-5" d="M143.84,23a.56.56,0,0,1,.35.58c-.07.21-.31.29-.57.18a.55.55,0,0,1-.34-.59c.06-.21.3-.28.56-.17" transform="translate(0 21.53)"/><path class="cls-5" d="M129.91,12c.24.08.36.24.27.39a.58.58,0,0,1-.61.11c-.24-.07-.36-.24-.27-.38a.58.58,0,0,1,.61-.12" transform="translate(0 21.53)"/><path class="cls-5" d="M131.53,13.73c.29.1.44.32.33.51a.64.64,0,0,1-.73.15c-.3-.1-.44-.32-.34-.51a.66.66,0,0,1,.74-.15" transform="translate(0 21.53)"/><path class="cls-5" d="M133.85,14.76c.26.1.39.31.31.48a.54.54,0,0,1-.64.13c-.26-.1-.4-.31-.31-.48a.54.54,0,0,1,.64-.13" transform="translate(0 21.53)"/><path class="cls-5" d="M136.14,15.68c.23.09.35.28.28.44a.43.43,0,0,1-.55.12c-.24-.1-.36-.29-.28-.45s.31-.2.55-.11" transform="translate(0 21.53)"/><path class="cls-5" d="M138.32,16.6c.22.1.35.29.28.45s-.29.21-.52.12-.35-.3-.29-.46.3-.2.53-.11" transform="translate(0 21.53)"/><path class="cls-5" d="M143.25,5.79c.2.09.34.22.31.33s-.2.12-.41,0-.35-.22-.32-.33.21-.11.42,0" transform="translate(0 21.53)"/><path class="cls-5" d="M142.17,4.55c.18.07.31.19.28.29s-.19.1-.37,0-.31-.2-.28-.3.19-.1.37,0" transform="translate(0 21.53)"/><path class="cls-5" d="M141,3.46c.16.07.28.17.25.26s-.17.1-.33,0-.28-.17-.26-.26.17-.09.34,0" transform="translate(0 21.53)"/><path class="cls-5" d="M144.49,7.25c.22.12.36.28.33.41s-.24.12-.46,0-.36-.28-.32-.41.24-.11.45,0" transform="translate(0 21.53)"/><path class="cls-5" d="M129.11,13c.25.08.37.26.28.41a.58.58,0,0,1-.63.13c-.26-.08-.38-.25-.28-.4a.6.6,0,0,1,.63-.14" transform="translate(0 21.53)"/><path class="cls-5" d="M126.86,12.42c.24.06.34.21.25.35a.64.64,0,0,1-.61.13c-.24-.06-.35-.21-.25-.35a.63.63,0,0,1,.61-.13" transform="translate(0 21.53)"/><path class="cls-5" d="M146,11.59c-.07.25.16.6.54.86-.45-.15-.83-.08-.93.22a1,1,0,0,0,.44.87c-.39-.08-.7,0-.78.3s.16.73.6,1c-.49-.15-.89,0-1,.29a1,1,0,0,0,.4.92c-.39,0-.69.09-.78.39a1.11,1.11,0,0,0,.48,1c-.45-.08-.8.06-.91.41a1.32,1.32,0,0,0,.88,1.35,1,1,0,0,0,1.22-.08,1.58,1.58,0,0,0,.91,1.09,1,1,0,0,0,1.07,0,1.75,1.75,0,0,0,.87.94,1,1,0,0,0,1,0,1.85,1.85,0,0,0,.87.95.9.9,0,0,0,1,0,1.85,1.85,0,0,0,.89,1c.59.3,1.07.15,1.13-.34a1.54,1.54,0,0,0-.57-1.13c.39.07.66-.09.7-.43a1.34,1.34,0,0,0-.48-1c.34,0,.57-.1.6-.4a1.47,1.47,0,0,0-.68-1.12c.44.15.76,0,.8-.31a1.32,1.32,0,0,0-.52-.94c.35.07.59,0,.61-.32a1.37,1.37,0,0,0-.67-1c.38.14.66.06.69-.22a1.33,1.33,0,0,0-.77-1c-.4-.21-.73-.2-.84,0a1.44,1.44,0,0,0-.75-.85c-.38-.19-.71-.19-.85,0a1.56,1.56,0,0,0-.81-.9c-.44-.22-.82-.22-1,0a1.41,1.41,0,0,0-.73-.8c-.47-.23-.89-.22-1,.08h0c.07-.3-.26-.7-.74-.94s-.92-.2-1,.09m6.14,9a.65.65,0,0,1,.37.55c0,.18-.22.23-.45.12a.63.63,0,0,1-.37-.55c0-.18.22-.23.45-.12m-1.83-.88a.53.53,0,0,1,.33.47c0,.16-.21.21-.42.11a.55.55,0,0,1-.33-.48c0-.16.21-.2.42-.1m-1.85-.92a.5.5,0,0,1,.32.47c0,.16-.22.2-.44.1a.51.51,0,0,1-.32-.47c0-.16.23-.21.44-.1m-1.66-.5c-.05.18-.27.22-.51.11a.54.54,0,0,1-.36-.53c0-.17.27-.22.51-.11a.57.57,0,0,1,.36.53m5.57,1a.55.55,0,0,1,.33.46c0,.16-.19.2-.4.1a.55.55,0,0,1-.32-.47c0-.16.19-.2.39-.09m-5.61-2.81a.48.48,0,0,1,.31.45c0,.15-.23.18-.44.08s-.35-.3-.32-.45.24-.18.45-.08m5.77,1.45a.57.57,0,0,1,.33.44c0,.15-.19.19-.39.09a.55.55,0,0,1-.32-.45c0-.14.19-.18.38-.08m-5.45-2.75c.2.11.33.29.31.43s-.23.17-.43.07-.34-.29-.31-.43.22-.17.43-.07m5.6,1.49a.52.52,0,0,1,.32.42c0,.14-.18.16-.37.06a.5.5,0,0,1-.32-.42c0-.14.18-.16.37-.06m-5.3-2.7c.2.1.33.27.3.41s-.21.15-.42.06-.33-.28-.3-.42.22-.15.42-.05m5.39,1.39c.2.11.35.3.33.44s-.18.17-.39.06a.57.57,0,0,1-.35-.45c0-.13.2-.16.41-.05m-1.64-.82c.18.09.32.26.3.39s-.18.15-.37.05-.32-.26-.3-.4.18-.14.37,0m-1.65-.85c.18.1.31.25.29.39s-.19.14-.38,0-.32-.26-.3-.39.2-.14.39,0m-1.8-.94c.21.11.35.29.32.43s-.22.16-.44.05-.36-.3-.33-.44.23-.15.45,0" transform="translate(0 21.53)"/></svg>