<svg id="Layer_1" data-name="Layer 1" xmlns="http://www.w3.org/2000/svg" xmlns:xlink="http://www.w3.org/1999/xlink" viewBox="0 0 154.27 48.9"><defs><style>.cls-1{fill:none;}.cls-2{fill:#6ca242;}.cls-3{clip-path:url(#clip-path);}.cls-4{fill:url(#linear-gradient);}.cls-5{fill:#1891cb;}.cls-6{clip-path:url(#clip-path-2);}.cls-7{fill:#02738e;}</style><clipPath id="clip-path" transform="translate(-0.47 0.4)"><polygon class="cls-1" points="24.21 1.05 24.21 24.72 47.88 1.05 24.21 1.05"/></clipPath><linearGradient id="linear-gradient" x1="-262.38" y1="375.07" x2="-261.06" y2="375.07" gradientTransform="translate(9661 6724.34) rotate(90) scale(25.66)" gradientUnits="userSpaceOnUse"><stop offset="0" stop-color="#054962"/><stop offset="0.08" stop-color="#08526e"/><stop offset="0.36" stop-color="#137298"/><stop offset="0.62" stop-color="#1b88b5"/><stop offset="0.84" stop-color="#2096c8"/><stop offset="1" stop-color="#229bce"/></linearGradient><clipPath id="clip-path-2" transform="translate(-0.47 0.4)"><rect class="cls-1" width="153.69" height="48.42"/></clipPath></defs><title>Tadawal</title><polygon class="cls-2" points="23.74 24.61 0 24.61 23.74 0.87 23.74 24.61"/><g class="cls-3"><rect class="cls-4" x="23.74" y="1.45" width="23.16" height="23.16"/></g><polygon class="cls-5" points="22.69 24.69 22.69 48.9 46.9 24.69 46.9 0.47 22.69 24.69"/><g class="cls-6"><path class="cls-7" d="M70.53-.4V22.75a32.74,32.74,0,0,1-7,.82c-4.56,0-6.65-2.22-6.65-6.68V13.45L60,10.73v5.94S60.64,21,63.55,21a35.51,35.51,0,0,0,3.82-.31V2.36Z" transform="translate(-0.47 0.4)"/><path class="cls-7" d="M81.06,9.05a5.33,5.33,0,0,0-1.45-.21c-1.43,0-2.85.94-2.85,3.24s1.24,3.15,2.69,3.15A5.48,5.48,0,0,0,81.06,15Zm-5.4,11.59c.36,0,1.48-.06,1.78-.06,2.57,0,3.81-1.18,4-3.36a6.9,6.9,0,0,1-1.64.19c-3,0-5.33-1.85-5.33-5.76S77.11,5.82,80,5.82a13.64,13.64,0,0,1,4.23.69v10c0,4.37-2.11,6.64-6.62,6.64H74.17Z" transform="translate(-0.47 0.4)"/><path class="cls-7" d="M151.58,5.26h3.16V2.11h-3.16Zm0,8c0,2.33-3.29,3.58-3.29,3.58H104.68l-1-5.19c-.82-4.44-2.94-5.08-6.78-5.08L95.75,9.11c2.76.09,4.76.18,5.33,3.27l.88,4.46H94.24L92.91,20h55.52v-.6c4.09-.06,5.26-5.66,5.26-5.66v-7l-2.11,2.61ZM150.53,2.11h-3.16V5.26h3.16Z" transform="translate(-0.47 0.4)"/><polygon class="cls-7" points="90.06 19.34 86.9 19.34 86.9 2.6 90.06 0 90.06 19.34"/><polygon class="cls-7" points="62.69 29.87 56.37 29.87 56.37 27.77 68.39 27.77 70.58 29.87 65.85 29.87 65.85 47.77 62.69 47.77 62.69 29.87"/><path class="cls-7" d="M79,39.74c-2.94-.06-6.28.46-6.28,3.33a2.38,2.38,0,0,0,2.55,2.56,3.69,3.69,0,0,0,3.58-2.48A2.76,2.76,0,0,0,79,42.3Zm3.16,4a5.21,5.21,0,0,0-.49,3.62H79.17L79,45.26h-.09a5.25,5.25,0,0,1-4.54,2.35,4.21,4.21,0,0,1-4.52-4.24c0-3.56,3.18-5.52,9.14-5.49v-.3c-.24-1.23-.57-3.42-3.6-3.42a7.3,7.3,0,0,0-3.86,1.1l-.61-1.78a9.2,9.2,0,0,1,4.86-1.3c4.53,0,5.64,3.08,6.37,6Z" transform="translate(-0.47 0.4)"/><path class="cls-7" d="M94.74,38.19a4.44,4.44,0,0,0-.13-1.14,4,4,0,0,0-3.89-3.11c-2.78,0-4.43,2.44-4.43,5.71,0,3,1.47,5.46,4.38,5.46a4,4,0,0,0,3.94-3.2,4.37,4.37,0,0,0,.13-1.17Zm3.16-8.57V43.47a21.14,21.14,0,0,0-.48,3.9H95l-.12-2.11h-.07s-2.63,2.35-5,2.35c-3.59,0-6.34-3-6.34-7.5,0-4.91,3-7.93,6.64-7.93a4.58,4.58,0,0,1,4.47,2.56h.2V27Z" transform="translate(-0.47 0.4)"/><path class="cls-7" d="M108.42,39.74c-2.93-.06-6.27.46-6.27,3.33a2.38,2.38,0,0,0,2.55,2.56,3.69,3.69,0,0,0,3.58-2.48,2.75,2.75,0,0,0,.14-.85Zm3.16,4a5.67,5.67,0,0,0-.38,3.62h-2.45l-.22-2.11h-.09a5.23,5.23,0,0,1-4.53,2.35,4.22,4.22,0,0,1-4.53-4.24c0-3.56,3.18-5.52,9-5.49v-.3c-.13-1.23-.47-3.42-3.5-3.42a7.32,7.32,0,0,0-3.86,1.1l-.61-1.78a9.24,9.24,0,0,1,4.87-1.3c4.53,0,5.63,3.08,6.26,6Z" transform="translate(-0.47 0.4)"/><path class="cls-7" d="M114.62,32.63l2,7.77c.44,1.7.85,3.28,1.14,4.86h.09c.35-1.54.86-3.18,1.36-4.86l2.51-7.77h2.33l2.38,7.65c.58,1.82,1,3.44,1.37,5h.09a46.55,46.55,0,0,1,1.18-4.95l2.18-7.68h2.38L128.9,47.37h-2.55l-2.21-6.86a48.14,48.14,0,0,1-1.28-4.72h-.07a38.25,38.25,0,0,1-1.31,4.75l-2.32,6.83h-2.55l-4.46-14.74Z" transform="translate(-0.47 0.4)"/><path class="cls-7" d="M148.43,43.25c0,1.53.16,4.12.16,4.12H146.2l-.15-2.11h0a5.7,5.7,0,0,1-5,2.81c-2.39,0-5.24-1.31-5.24-6.61V32.63H139v8.18c0,2.81.89,4.69,3.43,4.69a4,4,0,0,0,3.68-2.44,3.78,3.78,0,0,0,.26-1.36V32.63h2.11Z" transform="translate(-0.47 0.4)"/><polygon class="cls-7" points="151.11 27.44 154.27 30.05 154.27 47.77 151.11 47.77 151.11 27.44"/></g></svg>