<svg id="Layer_1" data-name="Layer 1" xmlns="http://www.w3.org/2000/svg" viewBox="0 0 180.17 49.8"><defs><style>.cls-1{fill:#eb2227;}.cls-1,.cls-2{fill-rule:evenodd;}.cls-2{fill:#3f4243;}</style></defs><title>Tech M</title><path class="cls-1" d="M5.89,32.93c8.25-.07,7.31-.51,7.31,3.18V49.72h5.85V35.77c0-1.91-.38-2.85,1.71-2.85,4.47,0,5.62-.51,5.6,2.5V49.71c1.56,0,4.5.12,5.84-.05-.07-4.49,0-9,0-13.55,0-1.8.27-4.78-.48-6.2-.86-1.63-2.17-2.12-4.56-2.11H.09c-.16,2-.07,18.29,0,21.44v.48H5.88V32.93Z"/><path class="cls-1" d="M134.12,33.79l0,11.92c-2.58,0-5.14,0-7.68,0-1.83,0-1.81-.25-1.8-2.05,0-6.8-.56-5.71,5.76-5.83,2.32,0,2.39-2.71,3.7-4Zm0-.12c-1.68-.08-12-.16-13,.17-1.76.59-2.38,1.91-2.37,4.13v6.62c0,2.34-.25,4,1.64,4.86,1,.51,11.09.27,13,.27s4.82.18,6.59,0V27.82l-5.82,0-.05,5.87Z"/><path class="cls-1" d="M57,49.73c0-3.46,0-6.91,0-10.36s.08-5.72-4.57-5.71H42.25c-2,0-3.09-.33-4,1.1a27.66,27.66,0,0,0-2,3.07c3.86,0,7.75,0,11.61,0,2.34,0,3.47-.22,3.46,2.36,0,1.84.07,3.81,0,5.66H41.08c-.24-3,0-2.49,2.67-2.49,1.54,0,3.63.13,5.09,0,0-3.27.62-3.23-2.64-3.23-11.75,0-10.24-1-10.29,7.28,0,2.57,1.41,2.34,3.66,2.34Z"/><path class="cls-1" d="M180.15,49.73c0-3.45,0-6.91,0-10.36s.06-5.72-4.56-5.71H165.37c-2.06,0-3-.34-4,1.09a27.62,27.62,0,0,0-2,3.08c3.88,0,7.76,0,11.63,0,2.33,0,3.47-.25,3.46,2.35,0,1.83.06,3.82,0,5.67h-10.2l.08-2.15c.31-.7,5.94-.19,7.73-.38,0-3.25.62-3.22-2.66-3.22-11.75,0-10.26-1.06-10.28,7.28,0,2.49,1.3,2.34,3.54,2.34,5.77,0,11.91-.09,17.57,0Z"/><path class="cls-2" d="M28,22H40.61c1.64,0,1.91-.66,2.57-1.63a21.61,21.61,0,0,0,1.66-2.55c-3.78.12-7.74,0-11.55,0-2.21,0-3.47.25-3.47-2.23,0-1.92-.05-3.88,0-5.79H40c0,2.22.22,2.5-1.24,2.5H32.31L32.25,14c0,1.92.86,1.47,2.68,1.47h4.3c2.76,0,5.89.7,5.89-2.51,0-6.95.66-7.12-3.69-7.12H24.07v9.91c0,2.58-.48,6.16,3.89,6.16Z"/><path class="cls-1" d="M66.58,37.81c1.6.11,3.54,0,5.17,0s3.55-.28,3.73,1.54c.12,1.27,0,8.32,0,10.35l5.85,0c-.06-2.91,0-5.88,0-8.8s.5-5.6-1.84-6.82c-1.37-.73-6.42-.4-8.34-.4-2.17,0-1.91.28-2.85,1.58a28,28,0,0,0-1.71,2.52c-.18-.78-.09-8.52-.07-10H60.66V49.72h5.86l.06-11.91Z"/><path class="cls-1" d="M100.78,37.83c1.7,0,3.42,0,5.13,0s3.15-.12,3.21,1.77c.11,3.28,0,6.83,0,10.12H115c0-3,0-6.06,0-9.09,0-3.22.46-5.78-2.3-6.79-.92-.34-15.88-.32-17.8-.18v16h5.9V37.83Z"/><path class="cls-2" d="M.05,5.05H7.93V21.89a51.15,51.15,0,0,0,5.85.05V5.05h7.86l0-5L.06,0V5.05Z"/><path class="cls-2" d="M66.83,21.91v-4c-.7-.16-7.84-.06-9.13-.06-3.9,0-3.34-.23-3.33-5.91,0-1.73.51-2.26,2.27-2.25H61.3c3.66,0,4,.72,5.46-3.81-4.31-.12-8.8,0-13.14,0-5.9,0-5.07,2.47-5.07,8.05s-.82,8,5.07,8c2,0,12.16.13,13.21,0Z"/><path class="cls-1" d="M149.77,49.69c0-2.17,0-4.33,0-6.48s-.44-4.88,1.13-5.33,4.65.47,5.88-.49a32.56,32.56,0,0,0,2.68-3.73H147.61c-3.65,0-3.74.85-3.74,4.2V49.72l5.89,0Z"/><polygon class="cls-2" points="70.42 21.94 76.2 21.95 76.2 0 70.44 0 70.42 21.94 70.42 21.94"/><path class="cls-2" d="M76.25,10c1.6.14,3.62,0,5.25,0,4.53,0,3.77,0,3.77,6.65,0,1.74,0,3.46,0,5.19l5.79.05c0-2.89,0-5.82,0-8.71s.53-5.66-1.79-6.94c-1.41-.77-6.37-.42-8.34-.42-2.33,0-2,.23-4.2,3.38l-.47.76Z"/><path class="cls-1" d="M91.05,33.87c-.61.29-1.17.7-1.77,1.06-2,1.26-4,2-4.08,4-.17,3.48,0,7.32,0,10.83h5.86V33.87Z"/><path class="cls-1" d="M85.19,35.65c.25-.1,5.32-3.34,5.83-3.83l0-4h-5.8l-.06,7.85Z"/></svg>