<svg id="Layer_1" data-name="Layer 1" xmlns="http://www.w3.org/2000/svg" viewBox="0 0 223.17 49.75"><defs><style>.cls-1{fill:#eb8923;}</style></defs><title>Teradata</title><path class="cls-1" d="M192.17,10.94h-27.7l-1.14,3.7H174.7V41c0,2.22,1.32,3.36,3.89,3.36h2.23V14.64h10.27ZM139,24.92c0-9.37-4.79-14-14.46-14h-11.3v30c0,2.22,1.23,3.35,3.79,3.35h7.51l1.26,0c9-.33,13.2-4.31,13.2-13.7Zm-6.08,5.63c0,6.76-2.21,10.07-8.19,10.07H119.3v-26h5.23c6.17,0,8.38,3.61,8.38,10.36ZM95.49,10.46c-1.48,0-2.71.5-3,1.24L80.71,43,72,29.71c4.58-.79,7.3-3.26,7.3-7.4V19.4c0-6-5.57-8.49-13-8.49H55.91V40.62H42.55c-5.28,0-6.46-1.19-6.46-6.61V28.14H46l1.08-3.71h-11V14.61H50.65l1.13-3.7H30V34c0,7.75,1.82,10.26,12.38,10.26L62,44.17V14.61h4.29c4.69,0,7.06,1.63,7.06,4.84v2.86c0,3.26-3,4.29-6.57,4.29H64.05l9.18,15.7c1,1.82,1.53,2,4,2h5.33c2.47,0,3.55-.2,4.3-2.22l2.74-7.66h7.37l-1.08-3.66H90.73l4.56-12.86,8.24,24.18c.69,2,1.88,2.22,4.54,2.22h2.87L98.5,11.7c-.29-.74-1.63-1.24-3-1.24M203.56,11.7c-.3-.74-1.63-1.24-3-1.24s-2.72.5-3,1.24L185.3,44.27h2.27c2.46,0,3.55-.2,4.29-2.22l2.75-7.66H202l-1.08-3.66h-5.11l4.57-12.86,8.23,24.18c.69,2,1.88,2.22,4.54,2.22H216Zm-49.38-1.24c-1.47,0-2.71.5-3,1.24L138.94,44.27h2.27c2.47,0,3.55-.2,4.29-2.22l2.74-7.66h7.38l-1.09-3.66h-5.1L154,17.87l8.24,24.18c.69,2,1.88,2.22,4.54,2.22h2.86L157.2,11.7c-.3-.74-1.63-1.24-3-1.24M38.09,0H1.3L0,4.22H16.9V46.39c0,2.22,1.33,3.36,3.9,3.36H23V4.22H36.79Z"/><path class="cls-1" d="M222.34,43.54a2.84,2.84,0,0,1-4,0,2.86,2.86,0,0,1,0-4,2.85,2.85,0,0,1,4.86,2,2.78,2.78,0,0,1-.83,2m-3.75-3.75a2.38,2.38,0,0,0-.71,1.73,2.41,2.41,0,0,0,.71,1.75,2.33,2.33,0,0,0,1.73.72,2.37,2.37,0,0,0,1.74-.72,2.41,2.41,0,0,0,.71-1.75,2.45,2.45,0,0,0-4.18-1.73m1.68.15a2.25,2.25,0,0,1,.85.12.78.78,0,0,1,.49.79.7.7,0,0,1-.31.62,1.19,1.19,0,0,1-.45.15.78.78,0,0,1,.54.31,1,1,0,0,1,.17.48v.46a.62.62,0,0,0,0,.16l0,0h-.52a0,0,0,0,1,0,0s0,0,0,0v-.35a.74.74,0,0,0-.3-.71,1.19,1.19,0,0,0-.6-.11h-.43v1.23h-.56V39.94Zm.59.5a1.54,1.54,0,0,0-.67-.12h-.46v1.14h.49a1.25,1.25,0,0,0,.53-.08.47.47,0,0,0,.32-.48.48.48,0,0,0-.21-.46"/></svg>