<svg id="Layer_1" data-name="Layer 1" xmlns="http://www.w3.org/2000/svg" viewBox="0 0 159.1 50"><defs><style>.cls-1{fill:#e31e30;}.cls-2{fill:#f3971f;}.cls-3{fill:#1e4592;}.cls-4{fill:#4c96d1;}</style></defs><title>Total</title><path class="cls-1" d="M89.19,23c-6.54,0-10.29,2.82-10.29,7.72s3.75,7.65,10.29,7.65,10.27-2.81,10.27-7.65S95.73,23,89.19,23m0,11.81c-3.58,0-5.39-1.36-5.39-4.09s1.81-4.15,5.39-4.15,5.39,1.39,5.39,4.15-1.82,4.09-5.39,4.09M100.8,23.35v3.28H107V36.8c0,1,1.48,1.33,2.73,1.33s2.73-.34,2.73-1.33V26.63h6.19V23.35Zm50.81,11.23a5.13,5.13,0,0,1-3.12-.72,2.9,2.9,0,0,1-.84-2.27V24.41c0-1-1.41-1.27-2.61-1.27s-2.63.31-2.63,1.25v7c0,2.66.85,4.52,2.55,5.53,2.1,1.22,5.9,1.17,9.56,1.12h4.57V34.58ZM67,33.49c0,2.59,2.18,4.36,5.88,4.66V22.52h8.3V18.91H59.53v3.61H67ZM140.3,38l-.14-.59c-1.21-6-8-12.88-9.46-13.89a2.77,2.77,0,0,0-1.57-.41,2.86,2.86,0,0,0-1.61.41c-1.41,1-8.24,7.88-9.44,13.89l-.14.59h4.84l.09-.42a14.7,14.7,0,0,1,.93-2.73h10.63a14.63,14.63,0,0,1,.92,2.73l.1.42Zm-14.79-6.23a26.32,26.32,0,0,1,3.62-4.4,27.74,27.74,0,0,1,3.59,4.4Z" transform="translate(0)"/><path class="cls-2" d="M45.74,27.87l-.12-.31c-3.57,4.08-12.35,6.72-20.25,6.13-4.65-.34-13.27-2.75-17.61-5.41a39.41,39.41,0,0,0,16,9.55c7.23,2.14,14.94,2,19.29-.26,3.19-2.16,3.91-6,2.64-9.7" transform="translate(0)"/><path class="cls-3" d="M35.79,2.2C50,10.61,41.56,37.06,30.23,45.55,19.68,53.46,8.47,49.81,6,42.53a8.77,8.77,0,0,0,10.08,3C26.53,41.4,31.89,22.55,32.58,16c.47-5.64-.27-9.42-2.23-11.81C28.11,1.83,24.68.69,19.65,2.26,23.11-.57,30.51-.91,35.79,2.2" transform="translate(0)"/><path class="cls-1" d="M43.76,37.19l.17-.11,0,0a6.39,6.39,0,0,0,.85-.65,4.3,4.3,0,0,0,.37-.37C50.72,30.43,51.9,14.8,38.25,7.4,33.4,4.76,22.1,1.07,10.83,6.76a21.2,21.2,0,0,0-9.64,11.1c1.53-2.52,4.18-4.23,9.38-5s12.36.16,19.36,2.63a38,38,0,0,1,11,6.05,15.28,15.28,0,0,1,4.66,6l.12.31c1.27,3.71.55,7.54-2.64,9.7h0c.16-.08.31-.17.46-.26l.06,0a.7.7,0,0,0,.14-.08" transform="translate(0)"/><path class="cls-2" d="M3,26.85a17.45,17.45,0,0,0,1.23,1.57C6.93,22,21.92,17.81,26.34,17.86c-9.93-3.2-19.66-1.67-23.58,1.72-1.42,1.58-1.86,4,.2,7.27" transform="translate(0)"/><path class="cls-4" d="M32.18,41.44c-8-.44-19.6-3.52-27.83-12.85l-.15-.17A16,16,0,0,1,3,26.85c-2.06-3.31-1.62-5.69-.2-7.27a7.19,7.19,0,0,0-.93,1C-.28,23.3-.53,27.72.9,32.41c3.15,10.18,16.86,16.3,28,14.62a25.59,25.59,0,0,0,13.42-6.71,28.67,28.67,0,0,1-10.15,1.12" transform="translate(0)"/></svg>