<svg id="Layer_1" data-name="Layer 1" xmlns="http://www.w3.org/2000/svg" viewBox="0 0 58.91 50"><defs><style>.cls-1{fill:#4b8cca;}</style></defs><title>UN</title><path class="cls-1" d="M48.23,11.91a20.72,20.72,0,0,1,1.38,14.66,21.06,21.06,0,0,1-32,11.85A21,21,0,0,1,20,2.25,22,22,0,0,1,29.44,0,21,21,0,0,1,48.23,11.91ZM29.86,1a15.3,15.3,0,0,1,0,2.88A.45.45,0,0,1,30,3.65c.15-.08.27,0,.33.15s.08.39,0,.48c.13,0,.19-.08.3-.08a15.67,15.67,0,0,1,6.58,2v0c.41-.2.93-.46,1.35-.1.5-.19.59.43,1,.5A2.2,2.2,0,0,1,40.6,8c.09.18.38.32.42.52A8.14,8.14,0,0,1,42.6,6.65L43,6.51A19.46,19.46,0,0,0,31.89,1.27,14.82,14.82,0,0,1,29.86,1Zm-1.17.11a20.21,20.21,0,0,0-11.22,4c-.64.44-1.2,1.1-1.85,1.48h.1A17.84,17.84,0,0,1,18,8.8l.05-.14A16.55,16.55,0,0,1,28.73,4.17l-.09-.25,0-2.5ZM32.26,2.7l-1.5.65c-.12-.05-.36-.12-.45,0s0,.12,0,.18c.55.71,1.51.31,2.2.17a1.31,1.31,0,0,0,1.35-.35V3.33A2.08,2.08,0,0,0,32.26,2.7ZM29.83,5.28l.11.19c0,1,0,2-.05,2.91a3.47,3.47,0,0,1,1.2,0,12.22,12.22,0,0,1,5.61,2.25,1.48,1.48,0,0,1-.48-.75.11.11,0,0,1,.12,0c0-.33-.32-.49-.37-.79A.21.21,0,0,1,36.2,9a7,7,0,0,1,.91,1.07c.23-.09.42.06.59.18s.11.56.34.77c0,.62.79,1,.75,1.58,0,.14.19,0,.25.1l.63.77a.31.31,0,0,0,.1.43c.28.13.44-.23.72-.18.41.23-.06.5,0,.75.16,0,.36-.12.48,0s-.19.37-.28.52.19.17.35.23a.28.28,0,0,1,.25.37c.53.54-.15,1.13.1,1.7a1,1,0,0,1-.27,1c0,.46-.41.74-.58,1.13l-.53.1c-.28.29.24.63,0,.81l1.17,0L41,20.29a1.75,1.75,0,0,1,.16-1.48,3.58,3.58,0,0,1,.55-1.15c.07,0,.21-.15.27,0a2.18,2.18,0,0,1-.17,1.08,3.2,3.2,0,0,1,.32,1.7c1-.06,2-.09,3.05-.07l-.09-.2a14.87,14.87,0,0,0-1.36-5.4c-.21,0-.37.18-.62.12a.2.2,0,0,1-.13-.21,13.62,13.62,0,0,0-1.14-1.27c-.54.05-.77-.56-1.26-.63s-.13-.86-.75-.67a1,1,0,0,1-.65-.7,1.72,1.72,0,0,0-.6-1.48c-.37-.14-.53.36-.9.28-.21-.11-.12-.38-.18-.55s-.25-.28-.22-.48c.49-.65-.59-.64-.35-1.28-.07-.45-.54-.63-.78-1a16.89,16.89,0,0,0-5.05-1.45A3.7,3.7,0,0,1,29.83,5.28Zm9.44,0c-.22.21-.41-.19-.6,0a.44.44,0,0,0,.07.3c.44.16.49.79,1,.65.17-.19-.1-.39,0-.63A.6.6,0,0,0,39.27,5.3ZM20.55,8.1c-.64.45-1.24,1-1.9,1.43a16.63,16.63,0,0,1,2.1,2l.08.2a12.5,12.5,0,0,1,6.25-3.17,5.78,5.78,0,0,1,1.65-.13,20,20,0,0,1,0-3A16.11,16.11,0,0,0,20.55,8.1Zm23.17-.95a23.69,23.69,0,0,1-2.07,2.23l-.36.08c.22,0,.29.31.43.47.76.4,1,1.22,1.63,1.68.37.78,1.24,1.38,1.27,2.28a16.62,16.62,0,0,1,1.59,6.48l-.09.12a.42.42,0,0,0,.25-.09l3-.06c-.2-.29-.12-.72-.17-1.07A20.66,20.66,0,0,0,43.72,7.15Zm-28.67.08A20.49,20.49,0,0,0,9.71,18.61c-.11.63,0,1.28-.17,1.91a21.63,21.63,0,0,1,3.22,0l-.07-.41a16.94,16.94,0,0,1,3.13-8.93,8.6,8.6,0,0,1,1.4-1.6c-.68-.63-1.39-1.37-2.1-2.07ZM28.76,9.41l-.18.1a12.15,12.15,0,0,0-6.95,3,27.19,27.19,0,0,1,2.22,2.08l.16-.23a9.47,9.47,0,0,1,3.18-1.65,4.9,4.9,0,0,1,1.57-.18A14.32,14.32,0,0,1,28.76,9.41Zm1.1,0,.1.23,0,2.82.27-.05a9.1,9.1,0,0,1,4.68,1.91l.08.22a22.88,22.88,0,0,1,1.73-1.85l.52-.3L37,12.3a12.33,12.33,0,0,0-3.76-2.16A17.48,17.48,0,0,0,29.86,9.43Zm-12,.78,0,.2-1.12,1.43a16.56,16.56,0,0,0-3,8.65l2.85,0,.27.1c-.11-.07-.08-.2-.12-.3a12.55,12.55,0,0,1,3.33-7.83A19.87,19.87,0,0,1,17.9,10.21Zm19.94,2.9-.05.12c-1,1-2,2-2.93,3.06a.74.74,0,0,0,.28.3c0-.25.18-.47.2-.73.25-.34.63-.12.95,0a6.74,6.74,0,0,1,1.48.1c.38.19.41.67.75.86a.3.3,0,0,1-.1.39c.1.79.48-.2.87,0,.17.07.38,0,.5.22.07.33.46.26.48.58,0,.15-.2.19-.3.28.09.31-.32.51-.18.84.61.12.63-.58.91-.9a5.81,5.81,0,0,0-.58-1.57c-.35-.07-.56-.48-.9-.55-.67-.26.1-.68,0-1.08A12.32,12.32,0,0,0,37.84,13.11Zm-17,.1A12.32,12.32,0,0,0,18.07,19a8.79,8.79,0,0,1-.25,1.55,2.75,2.75,0,0,1,1.31-.05c-.24-.12-.05-.43-.18-.59s-.07-.59.18-.75c0-.43.42-.65.46-1s.62-.14.86-.37,0-.23,0-.35c.21-.28.53-.27.78-.42a2.13,2.13,0,0,1,.7-.73c.63,0,.64-.86,1.23-.88A26,26,0,0,1,20.88,13.21Zm9,.35A18.06,18.06,0,0,1,30,15.71l.75.25c.22-.36.7-.43.91-.78.14-.11.29,0,.4.13a2,2,0,0,1-.13.83c-.28.56-.95.64-1.32,1,.24.14.37-.11.57-.16a1.26,1.26,0,0,1,.7.47c.19.08.36,0,.53-.1.12-.86,1.2-.74,1.52-1.55l-.19.07c-.09-.11-.3-.06-.29-.25a2.28,2.28,0,0,1,.63-.5,10.75,10.75,0,0,0-3-1.35A12,12,0,0,1,29.89,13.56Zm-5.61,2.18h.23c.25.25.65.19.84.53.09.18-.18.16-.17.32s.13.05.17.13c.2.07.16-.12.23-.2.26-.26.3.25.55.25a.39.39,0,0,1,.56.07c.16-.15.52,0,.57-.28.32-.34.15-.88.62-1.1.17.1,0,.25.06.4.32.14.69-.27.95.05a6.58,6.58,0,0,1-.16-2.27A7.07,7.07,0,0,0,24.28,15.74Zm5,1.73c-.16-.19-.53-.08-.75,0,.21.2.13.58.25.84a2,2,0,0,1-1.32.78c-.14.17-.1.53-.43.5-.1.23-.46.37-.32.7a6.81,6.81,0,0,0-.18,1.2c-.61.39-.44-.51-.75-.7l-.1.18c-.13,0-.21,0-.3-.13s-.25-.06-.33,0-.34.41-.29.73-.38.12-.33.32a5.42,5.42,0,0,0,1.05-.15c.24.07.44-.11.68-.12a.22.22,0,0,1,.14.25h.09a.42.42,0,0,0,.16-.5c0-.22.26-.22.41-.28s0,.19.07.3c.47.18-.11.52-.18.77s0,.65-.39.58a.15.15,0,0,1-.11-.17h0a.57.57,0,0,0,.28.47c.3-.24.31-.65.72-.7.22-.23-.09-.59.23-.77.54,0,1.13-.24,1.56.19,0,.19-.11.27.05.43a2.17,2.17,0,0,1-.38.7.37.37,0,0,1-.1.4c-.15.63-.88.33-1.3.55a3.24,3.24,0,0,0,2.3.62c.45,0,.25-.57.48-.82.15-.73.81-.23,1.22-.43a2.75,2.75,0,0,0,.35-1,.69.69,0,0,1-.28-.78c-.18-.24-.15-.68-.54-.72a.21.21,0,0,1,0-.25c0-.23.22-.3.28-.48-.24-.15-.17-.5-.15-.7-.41.12-.45-.41-.75-.53-.08-.24-.34-.28-.55-.32-.5.24-.58-.38-1-.52,0-.12-.12-.28,0-.38s.44,0,.66,0ZM20.27,20c-.84.27.14.91-.07,1.43-.11.3-.43,0-.65.15l-.08.55c-.13.32-.53.08-.72.3s0,.43.13.6c-.3.66.65.87.64,1.48.29.37,0,.91.38,1.25.09.68-.1,1.59.5,2.12l.1.65c.13.45-.53.34-.45.73.13-.06.16.11.17.15v0a27.67,27.67,0,0,1,2.68-2.74l-.4-.39a10.48,10.48,0,0,1-1.6-3.58l-.3-.15c0,.33-.17.59-.15.92l-.1.13c-.22,0-.36-.19-.55-.3s-.15-.31,0-.4a.34.34,0,0,1,.25.07c.1-.11.06-.28.11-.42s-.19-.48,0-.7c.2,0,.34.22.43.35s.35-.1.52-.18c0-.17.25-.41,0-.52a2.44,2.44,0,0,0,0-1.23C20.94,20,20.55,20,20.27,20Zm19.52.36c-.08,0-.19,0-.3,0A.76.76,0,0,1,39.79,20.4Zm-.64,1,.32.32c.32.22.1.69.45.88s.55.68.73,1a1.14,1.14,0,0,0,.09-.3c.15-.58.13-1.22.3-1.79A4.26,4.26,0,0,1,39.15,21.42Zm7.13.14-.18-.12.11.28A16.84,16.84,0,0,1,42.9,31a7.24,7.24,0,0,1-1.23,1.35A21.84,21.84,0,0,1,44,34.61l.08-.16a20.08,20.08,0,0,0,5.2-12.73l.13-.25-.16.07Zm-4.18-.07A11.82,11.82,0,0,1,42,23.37l.35.37a.38.38,0,0,1-.08.48.39.39,0,0,1-.48,0,13.58,13.58,0,0,1-1.82,4c-.35.43-.68,1-1.13,1.27l1,.83c0-.05,0-.13,0-.21s.06-.27.22-.25c.46,0,.47.48.73.73,0,.4.29.71.18,1.08a15.49,15.49,0,0,0,4.18-9.94l.15-.17c-.94.1-1.93,0-2.9,0Zm-24.33,0,.16.25a8.3,8.3,0,0,1,.14,2.05c.12-.2.15-.47.4-.6,0-.19-.25-.24-.22-.43.2-.38,0-1,.52-1.17A1.2,1.2,0,0,1,17.77,21.52Zm-5,0-.28.11-2.9,0a21.32,21.32,0,0,0,2.56,9.15,33.33,33.33,0,0,0,2.77,3.9L17,32.55l.25-.1a6.14,6.14,0,0,1-1-1,1.41,1.41,0,0,1-.88-.67c-.1-.11,0-.32-.12-.4l-.13.15c-.36.18-.5-.2-.75-.35s-.17-.8-.6-.68c-.17,0-.22-.2-.33-.3-.4,0-.51-.41-.73-.63,0,.1,0,.22-.12.28-.42.1-.57-.41-.85-.62-.07,0-.12.11-.23.09a1.21,1.21,0,0,1-.42-.87c-.35-.39-.19-1-.13-1.48.06-.12.24-.19.21-.35s.32-.24.54-.25a.51.51,0,0,1,.21.2c.14-.09.44,0,.32-.29a1.34,1.34,0,0,1,.68-.25,5.22,5.22,0,0,0,.47.64l-.15-.23a17.05,17.05,0,0,1-.5-3.17c0-.06-.13-.09-.05-.15l0,0A3.45,3.45,0,0,1,12.74,21.56Zm4.08,0-.23.11a25.25,25.25,0,0,1-2.9-.07l.13.17.23,1.92a15.37,15.37,0,0,1,.39,2.18c.12-.16.05-.47.33-.5-.12-.23.22-.43,0-.63a2,2,0,0,1,.59-1.37c.53,0,.58-.72,1.11-.75.27,0,.44.35.55.48A2,2,0,0,1,16.82,21.56Zm5.36,1.29c.29.54.45,1.15.75,1.7s.61.85.79,1.32a7.56,7.56,0,0,1,.88-1,.57.57,0,0,0-.09-.41c-.1-.22,0-.53-.18-.72-.27.1.09.37,0,.52a.16.16,0,0,1-.25-.12.68.68,0,0,1-.5-.47c.2-.13,0-.18-.11-.28s-.11,0-.2.05a.25.25,0,0,1-.15,0C23.1,22.81,22.43,23.16,22.18,22.85Zm3.28.82a1.58,1.58,0,0,1-.43.68l0,0c.25-.18.43-.5.75-.52Zm8.23.86a.76.76,0,0,0,.17.5c.41-.07.23.5.6.44.21-.06,0-.24.08-.37-.06-.31-.37-.34-.58-.53,0-.07,0-.12.06-.17C33.86,24.32,33.79,24.41,33.69,24.53Zm5.91,0c-.31,0-.67.15-.93-.06-.1-.08-.16.05-.15.13s-.21.35-.45.28-.18-.28-.25-.43a1.2,1.2,0,0,1,0,.33,3.47,3.47,0,0,0-.45.7c-.22.24-.57.15-.8.35,0,.5-.6.4-.91.55,0,.07,0,.08.09.13a.39.39,0,0,0,.44-.11c.44.12.35-.43.6-.62.22,0,.43-.22.65-.08a1.46,1.46,0,0,1,.25,1.06c-.25.25-.12.65-.3.95,0,.34-.37.5-.32.84a.73.73,0,0,1-.57.18,10.23,10.23,0,0,0-2.61-.6.2.2,0,0,0-.13.2c.38.2.84.21,1.23.38s.6.53,1.05.39,1,.13,1.25-.27c0-.38.29-.66.46-1l.12,0c.21.22.2.54.29.78a12.1,12.1,0,0,0,.79-1,9.42,9.42,0,0,0,1.52-3.22A2.83,2.83,0,0,0,39.6,24.55Zm-13.14,0a16.87,16.87,0,0,1-1.93,2.07,7.88,7.88,0,0,0,3.75,1.73c.07-.28,0-.63.11-.87s.38-.22.59-.18A.17.17,0,0,0,29.1,27c-.3-.06-.16-.4-.27-.59s.19-.08.15-.21c-.21-.17.1-.36-.07-.54.07-.05.12-.16.23-.16-.66.34-1.37-.08-1.95-.34C26.92,25,26.52,24.88,26.46,24.55Zm6,1.82c0,.08-.14.23,0,.28.25-.26.79-.25.81-.62C33,26,32.76,26.17,32.51,26.37Zm1.18.78c-.32,0-.49.25-.73.45s-.43-.31-.67-.2c0,.06.06.08.1.1a.24.24,0,0,1,0,.3c-.35.32-.52-.16-.86-.13v.13c0,.07,0,.19-.12.15-.21-.35-.64-.22-.85-.53-.13-.07-.26,0-.35.11s-.41,0-.32.25c-.26.09-.3.37-.48.54-.33-.05-.47.31-.77.3,0,.07,0,.17.09.18a1,1,0,0,0,.6.07c.32-.5.84-.08,1.28-.27.27,0,.08.35.28.45.43-.13.75.37,1.09.05,0-.49.53-.45.84-.57.47-.28,1-.66,1-1.28Zm-10.06.3a14.84,14.84,0,0,1-2.07,2.12c.32,0,.5.38.77.53a12.91,12.91,0,0,0,5.33,2.38l-.51-.23c-.37-.43-.9-.93-.92-1.52.37-.13.33-.54.46-.82a2.06,2.06,0,0,1,1.09-.61c-1.05.44-2-.34-2.85-.75C24.49,28.22,23.9,28,23.63,27.45Zm14.48,2.9L38,30.16a1.66,1.66,0,0,1-.47.59c0,.17,0,.42.15.53.42.14,1,.41,1.05.9-.17.46-1,.88-.5,1.38.18.25-.25.34-.18.55l.15-.2a15.92,15.92,0,0,0,1.86-1.55h.07c-.13,0-.28.08-.43,0a.67.67,0,0,1-.34-.7Zm-16.76.4-.05-.07.05.12Zm.33.45a.45.45,0,0,1-.25-.32Zm.07.08c.07.25.4.41.31.72a.9.9,0,0,1-.84.28c-.59-.09-1,.36-1.59.42s-.69-.47-1.16-.42a16.37,16.37,0,0,0,10.09,4.33l.29.2-.12-.36V33.7l-.25.11A12.14,12.14,0,0,1,21.75,31.28ZM41,33.23,41,33c-.29.58-.94.94-1.43,1.38-.68.68-1.78.82-2.12,1.8-.37.34-.49.86-1,1.05-.18.5-.71.46-1,.83-.87.78-1.44-.5-2.23-.66l-1.59.28a5.26,5.26,0,0,1-1.63,0,25.49,25.49,0,0,1,0,3.27l.2-.13a20.23,20.23,0,0,0,13.08-5.5Zm-23.15,0,0,.13-2.15,2.15a21.2,21.2,0,0,0,11.12,5.21,16,16,0,0,1,2.08.25l-.16-.25V37.86l.1-.15-.32.08A16.46,16.46,0,0,1,17.87,33.2Zm11.91.73.16.23a22.21,22.21,0,0,1,0,2.58,16.72,16.72,0,0,1,2.5-.36.84.84,0,0,1-.46-.27c-.49,0-.72-.54-.87-.93s.11-.51.23-.75c-.21-.43-.86-.11-1.23-.27C30,34.08,29.93,34,29.78,33.93Z"/><path class="cls-1" d="M49,4a9.29,9.29,0,0,1,2.67,5l.25.58a22,22,0,0,1-5.65-6L44.5,1.75C46,2.4,47.66,2.78,49,4Z"/><path class="cls-1" d="M10.19,6.67A32.54,32.54,0,0,1,6.71,9.85c.62-1.29.64-2.83,1.53-4,1.26-2.2,3.6-3,5.68-3.79A26.38,26.38,0,0,0,10.19,6.67Z"/><path class="cls-1" d="M54.38,9c.49,2.19-.22,4.33.23,6.54l0,0c-1.19-2.35-3.72-3.45-5.46-5.33a7.42,7.42,0,0,1-1.7-3.91c1,2.41,3.69,2.94,5.23,5a6.53,6.53,0,0,1,1,1.65l0-.05a47.06,47.06,0,0,1-1.8-6.06,4.75,4.75,0,0,0-1.75-2.3A6.11,6.11,0,0,1,54.38,9Z"/><path class="cls-1" d="M8.29,4.88C6.23,6.3,6.36,8.84,5.71,11c-.21.78-.58,1.5-.76,2.3l.06.05a7.12,7.12,0,0,1,1.7-2.51c1.47-1.35,3.64-2.2,4.36-4.2,0,2.78-2.36,5-4.58,6.54a9.24,9.24,0,0,0-2.31,2.75c0-.7.11-1.41.06-2.16-.24-2.43-.42-5.2,1.3-7A5.18,5.18,0,0,1,8.29,4.88Z"/><path class="cls-1" d="M55.68,9.46a9.74,9.74,0,0,1,.91,9.35,16.54,16.54,0,0,0-1.05,3.86c-.09-.23-.12-.54-.2-.8-.73-2.81-3.39-4.81-4.48-7.46a13.59,13.59,0,0,1-.81-2.7c1.17,2.16,4.05,3.27,4.83,5.65a10.65,10.65,0,0,1,.5,2s.09,0,.09-.07a27.18,27.18,0,0,1,.09-7.43,6.14,6.14,0,0,0-.88-3.6C55.15,8.53,55.36,9.05,55.68,9.46Z"/><path class="cls-1" d="M3.88,8.68c-1.58,2.4-.27,5.44-.34,8.18l-.21,2.81s0,.1.1.07a7.89,7.89,0,0,0,.18-1C4,16.51,6,14.9,7.67,13.34A4.6,4.6,0,0,0,8.54,12a11.33,11.33,0,0,1-1,3.31C6.25,18,3.78,20.08,3.33,23.07c-.22-2.86-2.17-5-2-8a9.6,9.6,0,0,1,2.4-6.31S3.83,8.67,3.88,8.68Z"/><path class="cls-1" d="M57.42,25.69c-1.1,1.56-2.42,3-3.44,4.59a8.76,8.76,0,0,0-.22-4,34.3,34.3,0,0,1-1.83-8l0-1.07c.64,2.87,3.45,4.84,3.28,8.05a7,7,0,0,1-.33,2.13l.06.05.12-.15a33.18,33.18,0,0,1,1.27-4.7c.93-2.12,2.08-4.26,1.61-6.81A11.56,11.56,0,0,1,57.42,25.69Z"/><path class="cls-1" d="M3.08,24.69a25.06,25.06,0,0,0,.8,3.18s.07,0,.1-.05c-1.07-3,.47-5.79,2-8.13a8.26,8.26,0,0,0,.78-2.08,17.36,17.36,0,0,1-.38,4.33C6,23.73,5.48,25.43,5,27.17a8.22,8.22,0,0,0-.08,3.46l-.15-.13c-1.14-2.1-3.39-3.73-4.06-6a12.73,12.73,0,0,1-.54-5.93A11.57,11.57,0,0,1,.8,16.27C.17,19.52,2.36,21.87,3.08,24.69Z"/><path class="cls-1" d="M53.11,30.63a7.49,7.49,0,0,1-1.27,3.78H52c1-1.31,1.79-2.71,2.95-4,1.82-1.75,3.66-3.55,3.9-6,.62,4.06-1.65,7.62-5,9.91-1.39.91-2.8,1.75-4.13,2.78V37c2-3.4,1-8.06,2.3-11.8L52.43,24C52.17,26.32,53.18,28.29,53.11,30.63Z"/><path class="cls-1" d="M8.33,35.23c.22.78.67,1.46,1,2.21C6.18,35.32,2,33.31.58,29.43A9.67,9.67,0,0,1,.05,24.9C.3,28.35,4,30.18,5.74,33A9.11,9.11,0,0,0,7,34.76c-.08-.37-.43-.68-.55-1.06a7.36,7.36,0,0,1-.68-4.08c.17-1.76.91-3.39.63-5.25C8,27.63,7.49,31.7,8.33,35.23Z"/><path class="cls-1" d="M48.48,37.81a10.16,10.16,0,0,1-2.13,2.56c.27,0,.51-.26.75-.41,2.24-2.23,5.16-2.86,7.58-4.67A7.37,7.37,0,0,0,57,32.41c-.46,3.7-4.14,7.17-7.61,8.28-1.8.48-3.72.63-5.46,1.23,3-2.54,2.79-6.46,4.76-9.44A29.42,29.42,0,0,1,50.53,30C49.33,32.36,49.86,35.47,48.48,37.81Z"/><path class="cls-1" d="M11.24,34.68c1,2.57,1.44,5.47,3.85,7.41-2.61-.86-5.66-.62-8-2.23-2.51-1.54-4.75-4.16-5.22-7,1.73,3.92,6.07,4.24,9,6.63a7.32,7.32,0,0,0,1.7,1.16l0,0a9.88,9.88,0,0,1-1.91-2.07c-1.7-2.37-1.1-5.68-2.38-8.23A19.29,19.29,0,0,1,11.24,34.68Z"/><path class="cls-1" d="M42.17,42.32a16.76,16.76,0,0,1-2.1.8,21.16,21.16,0,0,0,2.73-.41c3.44-.54,7.38,0,9.79-2.92a9.25,9.25,0,0,1-5.18,4.48c-3.52,1.32-7-.31-10.42-.85l-.65-.08v0a9.45,9.45,0,0,0,4.45-2,46,46,0,0,1,5.67-5.11C44.9,38.2,44.74,41,42.17,42.32Z"/><path class="cls-1" d="M18.05,41.37a9.75,9.75,0,0,0,4.63,2.05c-.41.15-.94.1-1.38.22-3,.75-6.41,2-9.63.88a9.39,9.39,0,0,1-5.31-4.38c2.78,3.16,7.31,2.1,11,2.93a5.1,5.1,0,0,0,1.56.19c-.44-.28-1.06-.25-1.54-.5-2.89-1-3.32-4.16-4.9-6.27A42.71,42.71,0,0,1,18.05,41.37Z"/><path class="cls-1" d="M40.7,45.64a8,8,0,0,0,7.1-.77,8.41,8.41,0,0,1-3.75,2.63c-3.13,1.17-6.39,0-8.83-1.91-1-.63-1.87-1.53-3.15-1.45a4.29,4.29,0,0,0-1.31.13,23.93,23.93,0,0,1,6.6,4.57,9.66,9.66,0,0,1-1.2,1.09,23.36,23.36,0,0,0-6.5-5.29,4.19,4.19,0,0,0-1.35.57A20.13,20.13,0,0,0,23,50L21.7,49a22.82,22.82,0,0,1,6.63-4.73C26,43.49,24.4,45.48,22.6,46.5a8.41,8.41,0,0,1-11.36-1.38,8.18,8.18,0,0,0,7.26.63c3.06-1.33,6.23-3,9.91-2.2.57,0,1.13.58,1.68.09a11.75,11.75,0,0,1,8.18,1Z"/></svg>