<svg id="Layer_1" data-name="Layer 1" xmlns="http://www.w3.org/2000/svg" xmlns:xlink="http://www.w3.org/1999/xlink" viewBox="0 0 211.23 50"><defs><style>.cls-1{fill:#03592d;}.cls-2{fill:url(#linear-gradient);}.cls-3{fill:url(#linear-gradient-2);}.cls-4{fill:url(#linear-gradient-3);}.cls-5{fill:url(#linear-gradient-4);}.cls-6{fill:url(#linear-gradient-5);}.cls-7{fill:url(#linear-gradient-6);}</style><linearGradient id="linear-gradient" x1="-106.59" y1="-169.11" x2="-112.94" y2="-170.6" gradientTransform="translate(498.53 503.92) scale(2.74)" gradientUnits="userSpaceOnUse"><stop offset="0.12" stop-color="#05994f"/><stop offset="0.53" stop-color="#6bb552"/><stop offset="0.84" stop-color="#9cc853"/><stop offset="1" stop-color="#b1d355"/></linearGradient><linearGradient id="linear-gradient-2" x1="-108.98" y1="-182.86" x2="-108.98" y2="-168.5" gradientTransform="translate(498.53 503.92) scale(2.74)" gradientUnits="userSpaceOnUse"><stop offset="0" stop-color="#0fa94d"/><stop offset="0.15" stop-color="#5cb44e"/><stop offset="0.32" stop-color="#82c051"/><stop offset="0.48" stop-color="#9bca54"/><stop offset="0.63" stop-color="#aad156"/><stop offset="0.75" stop-color="#b1d355"/></linearGradient><linearGradient id="linear-gradient-3" x1="-120.51" y1="-182.86" x2="-120.51" y2="-168.5" xlink:href="#linear-gradient-2"/><linearGradient id="linear-gradient-4" x1="-116.97" y1="-176.16" x2="-116.97" y2="-169.17" gradientTransform="translate(498.53 503.92) scale(2.74)" gradientUnits="userSpaceOnUse"><stop offset="0.19" stop-color="#05994f"/><stop offset="0.54" stop-color="#75b752"/><stop offset="0.78" stop-color="#b1d355"/></linearGradient><linearGradient id="linear-gradient-5" x1="-119.7" y1="-166.49" x2="-114.42" y2="-186.41" gradientTransform="translate(498.53 503.92) scale(2.74)" gradientUnits="userSpaceOnUse"><stop offset="0.06" stop-color="#05994f"/><stop offset="0.13" stop-color="#35a44f"/><stop offset="0.25" stop-color="#6eb552"/><stop offset="0.36" stop-color="#93c453"/><stop offset="0.46" stop-color="#a9cd57"/><stop offset="0.52" stop-color="#b1d355"/></linearGradient><linearGradient id="linear-gradient-6" x1="-115.86" y1="-178.24" x2="-109.76" y2="-184.26" gradientTransform="translate(498.53 503.92) scale(2.74)" gradientUnits="userSpaceOnUse"><stop offset="0" stop-color="#5cb248"/><stop offset="0.48" stop-color="#89c14d"/><stop offset="1" stop-color="#b1d355"/></linearGradient></defs><title>Woolworths</title><path class="cls-1" d="M58.49,11.16h2v25h-2Zm-2.27,16.1c0,5.58-3,9.29-7.61,9.29s-7.71-3.67-7.71-9.29,3-9.32,7.75-9.32,7.57,3.63,7.57,9.32Zm-13.1,0c0,4.29,2.28,7.51,5.46,7.51S54,31.59,54,27.26s-2.21-7.58-5.39-7.58-5.49,3.14-5.49,7.62Zm56.34,0c0,5.58-3,9.29-7.61,9.29s-7.71-3.67-7.71-9.29,3-9.32,7.74-9.32,7.58,3.63,7.58,9.32Zm-13.1,0c0,4.29,2.28,7.51,5.46,7.51s5.42-3.22,5.42-7.55S95,19.68,91.85,19.68,86.36,22.82,86.36,27.3Zm-47,0c0,5.58-3,9.29-7.61,9.29s-7.71-3.67-7.71-9.29,3.05-9.32,7.75-9.32,7.57,3.63,7.57,9.32Zm-13.1,0c0,4.29,2.28,7.51,5.46,7.51s5.43-3.22,5.43-7.55-2.22-7.58-5.4-7.58-5.49,3.14-5.49,7.62Zm95.67-8.92v.84c0,.78,0,1.58-.1,2.35a6.15,6.15,0,0,1,5.59-3.45c3.93,0,5.34,2.9,5.55,6.61.07.84.1,2.28.1,3.12v8.29h-2V27.85c0-1,0-2.77-.11-3.61-.24-2.83-1.63-4.37-3.89-4.37A5.07,5.07,0,0,0,122.6,23a7,7,0,0,0-.59,2.9c0,.55-.07,1.67-.07,2v8.29h-2v-25h2Zm22.18,2.08a9.66,9.66,0,0,0-3.38-.66c-2-.09-3.48,1.22-3.48,2.73,0,3.67,8.32,3.26,8.32,8.92,0,3-2.47,5-6.09,5a10.7,10.7,0,0,1-4.34-.88l.15-2a7.88,7.88,0,0,0,4,1.16c2.31,0,4-1.53,4-3.29,0-4.26-8.13-3.53-8.13-8.89,0-2.75,2.17-4.56,5.55-4.51a9,9,0,0,1,3.51.61l-.16,1.8ZM74.19,18.31s2.47,10.09,3,12.45l.62,2.84s.39-1.69.69-2.84C79.13,28.39,82,18.31,82,18.31h2.19L79,36.13h-2.4s-2.72-11.77-3-13.22c-.16-.72-.38-1.83-.38-1.83s-.22,1.11-.38,1.83c-.32,1.45-3,13.22-3,13.22H67.35L62.2,18.31h2.18s2.83,10.08,3.47,12.45c.31,1.15.69,2.84.69,2.84l.62-2.84c.52-2.36,3-12.45,3-12.45ZM13.07,15.62S16.4,27.76,17,29.85c.32,1.17.81,3.24.81,3.24s.44-2.07.73-3.25c.51-2.08,3.63-14.22,3.63-14.22h2.12L19,36.14H16.65s-3.87-14.85-4.06-15.61-.47-2.22-.47-2.22-.28,1.46-.46,2.22S7.6,36.14,7.6,36.14H5.28L0,15.62H2.12S5.23,27.76,5.75,29.84c.29,1.18.73,3.25.73,3.25S7,31,7.28,29.85c.56-2.09,3.89-14.23,3.89-14.23Zm88.59,20.52V18.34h1.73v4.07s1-3.78,6.34-4.06c.75,0,1.72,0,1.72,0V13.86l2-.79v5.27h4.16v1.8h-4.16V31c0,2.55.8,3.44,2.54,3.44a4.83,4.83,0,0,0,1.76-.35L118,35.8a7.59,7.59,0,0,1-2.07.33,4.41,4.41,0,0,1-3.28-1c-.75-.75-1.19-2-1.19-4.23V20.07a13.78,13.78,0,0,0-3.44.23c-1.65.43-4.33,2.14-4.33,6.4v9.44Z" transform="translate(0 0)"/><path class="cls-2" d="M194.06,42.16a14.42,14.42,0,0,1-3.54-.44,21,21,0,0,1-6.92,6.18,16.67,16.67,0,0,0,8,2.1c11.08,0,18.63-11.54,19.52-21.34-.35,1.3-2.63,13.5-17.08,13.5Z" transform="translate(0 0)"/><path class="cls-3" d="M196.81,11.51a10.47,10.47,0,0,0-7.89,3.09c5.5.56,12.26,4.44,12.26,12.49,0,7.81-5.12,11.36-9.3,12.55a21.84,21.84,0,0,1-1.36,2.08,14.42,14.42,0,0,0,3.54.44c14.45,0,16.73-12.2,17.08-13.5.06-.64.09-1.29.09-1.94,0-11-8.39-15.21-14.42-15.21Z" transform="translate(0 0)"/><path class="cls-4" d="M173.15,42.16A13.66,13.66,0,0,0,181,39.72a9.15,9.15,0,0,1-2.55.4c-4.08,0-12.47-3-12.47-13,0-8,6.76-11.93,12.27-12.49a10.5,10.5,0,0,0-7.9-3.09c-6,0-14.42,4.21-14.42,15.21,0,.64,0,1.28.09,1.94.35,1.31,2.59,13.5,17.09,13.5Z" transform="translate(0 0)"/><path class="cls-5" d="M178.49,40.12a9.15,9.15,0,0,0,2.55-.4h0a13.59,13.59,0,0,0,2.61-2.4h0a13.78,13.78,0,0,1-2.88-8.12c0-4,2.15-5.72,2.86-6.17h0a7.18,7.18,0,0,0-4.07-1.42,7,7,0,0,0-6.6,5.74h0v0l-.09.56a20.45,20.45,0,0,0-.16,2.59,18.37,18.37,0,0,0,2.86,9.2,12,12,0,0,0,2.93.41Z" transform="translate(0 0)"/><path class="cls-6" d="M183.68,17.9c-6.7,0-9.88,4.92-10.73,9.45a7,7,0,0,1,6.6-5.74A7.18,7.18,0,0,1,183.62,23h0a7.62,7.62,0,0,1,3,6.44,12.42,12.42,0,0,1-3,7.84h0a13.51,13.51,0,0,1-10.51,4.84c-14.49,0-16.73-12.19-17.08-13.5C157,38.46,164.5,50,175.58,50c10.83,0,19.1-10.93,19.1-20.08,0-6.35-3.6-12-11-12Z" transform="translate(0 0)"/><path class="cls-7" d="M183.88,14.16a8.78,8.78,0,0,1-2.47-5.25,7.94,7.94,0,0,1,4.26-7.44c8.16-4.37,15.25,2,14.43,6.1,0,0-6.08-2.76-11.68.55A8.92,8.92,0,0,0,183.88,14.16Z" transform="translate(0 0)"/></svg>