<svg id="Layer_1" data-name="Layer 1" xmlns="http://www.w3.org/2000/svg" xmlns:xlink="http://www.w3.org/1999/xlink" viewBox="0 0 130 49.8"><defs><style>.cls-1{fill:#070707;}.cls-2{fill:url(#linear-gradient);}</style><linearGradient id="linear-gradient" x1="2.42" y1="22.92" x2="93.45" y2="22.92" gradientUnits="userSpaceOnUse"><stop offset="0" stop-color="#2eb6e7"/><stop offset="1" stop-color="#194e9a"/></linearGradient></defs><title>Yusen</title><path class="cls-1" d="M7.63,40.92c-1.62,1.71-3,3.39-4.24,4.92H8.48v-.05A3.32,3.32,0,0,1,7.63,43Z" transform="translate(0 0)"/><path class="cls-1" d="M11.71,33.1H7.61v.06a1,1,0,0,1,.6,1,3.56,3.56,0,0,1-.45,1.33L6.69,37.73,4.46,33.16V33.1H0v.06a3.37,3.37,0,0,1,1.21,1.49l2.86,5.43v3c0,.11,0,.23,0,.35a63.7,63.7,0,0,1,5.48-6.74l2.15-3.51Z" transform="translate(0 0)"/><path class="cls-1" d="M19.94,43.72V36.65h-.05a2.46,2.46,0,0,1-1.31.29H16V37c.71.59.67,1.15.67,2.07v3.14a2.46,2.46,0,0,1-.27,1.47,1.07,1.07,0,0,1-.9.42c-1.27,0-1.08-1.62-1.08-2.48v-5h-.06a2.29,2.29,0,0,1-1.28.29H11.89c-.33.28-.64.56-1,.84a4.22,4.22,0,0,1,.11,1.29v3.76a3,3,0,0,0,.77,2.53A3.32,3.32,0,0,0,14,46.1a3,3,0,0,0,2.63-1.28v1h4v-.06c-.71-.6-.64-1.17-.66-2.07" transform="translate(0 0)"/><path class="cls-1" d="M28.49,40.65a8.6,8.6,0,0,0-2.09-.83c-.46-.13-1.1-.29-1.1-.89s.75-.62,1.14-.62a4.46,4.46,0,0,1,2.46.76v-2a13.06,13.06,0,0,0-3-.36A5.66,5.66,0,0,0,23,37.3a2.61,2.61,0,0,0-1.42,2.35c0,2.61,4.59,2.69,4.59,4,0,.71-.83.85-1.36.85a6.74,6.74,0,0,1-3.41-1.06l.43,2.22a15.33,15.33,0,0,0,3.22.45c2,0,4.9-.58,4.9-3.18a2.78,2.78,0,0,0-1.46-2.27" transform="translate(0 0)"/><path class="cls-1" d="M34,41.43h6c-.05-3-1.51-4.74-4.55-4.74a4.77,4.77,0,0,0-3,8.46,6.52,6.52,0,0,0,3.84,1,7.57,7.57,0,0,0,3-.6L40,43.31a7.51,7.51,0,0,1-3.23,1A2.71,2.71,0,0,1,34,41.43m1.4-3.06a1.25,1.25,0,0,1,1.29,1.41H34a1.42,1.42,0,0,1,1.4-1.41" transform="translate(0 0)"/><path class="cls-1" d="M50.16,43.72v-3.2a3.7,3.7,0,0,0-.65-2.73,3.36,3.36,0,0,0-2.71-1.1,2.84,2.84,0,0,0-2.36,1V36.65h-.06a3.3,3.3,0,0,1-1.36.29H40.44V37c.73.61.67,1.17.67,2.07v4.65c0,.9.06,1.47-.67,2.07v.06h4.67v-.06c-.73-.6-.67-1.17-.67-2.07V40.44a2.14,2.14,0,0,1,.27-1.33,1.06,1.06,0,0,1,.86-.45,1.14,1.14,0,0,1,1,.54,2,2,0,0,1,.27,1.24v3.28c0,.9.06,1.47-.67,2.07v.06h4.67v-.06c-.73-.6-.68-1.17-.68-2.07" transform="translate(0 0)"/><path class="cls-1" d="M59.92,43.6V35.83c0-1-.14-2.13.8-2.73V33H55.56v.06c.94.6.8,1.71.8,2.71V43c0,1,.14,2.09-.8,2.69v.06h8.37l.73-2.71a4.16,4.16,0,0,1-2.73.85,4.68,4.68,0,0,1-2-.33" transform="translate(0 0)"/><path class="cls-1" d="M73.19,37.73a5,5,0,0,0-3.36-1.1c-2.88,0-5,1.82-5,4.78A4.52,4.52,0,0,0,69.68,46c2.92,0,5.1-1.76,5.1-4.82a4.61,4.61,0,0,0-1.59-3.49M69.9,44.24c-1.68,0-1.84-2-1.84-3.33,0-1.15.33-2.42,1.69-2.42,1.56,0,1.81,1.93,1.81,3.13s-.2,2.62-1.66,2.62" transform="translate(0 0)"/><path class="cls-1" d="M83.57,44.35a5.43,5.43,0,0,0-2.45-.52l-2,.12c-.14,0-.31-.08-.31-.23,0-.37.71-.43,1-.43a5,5,0,0,0,2.84-.87,2.76,2.76,0,0,0,1.21-2.21,2.31,2.31,0,0,0-.71-1.69H84l.87-1.8-4.07.12a6.31,6.31,0,0,0-1.5-.21c-2,0-4,1.16-4,3.41A3.06,3.06,0,0,0,77.57,43l-.54.21c-.21.08-.73.19-.73.53a2.56,2.56,0,0,0,.56,1.16,1.25,1.25,0,0,0,1.1.54c.51,0,1-.1,1.55-.1a1.65,1.65,0,0,1,1.86,1.42c.12,1.12-1.15,1.43-2.07,1.43-.73,0-1.79-.15-1.79-1.08a.78.78,0,0,1,.73-.82,2.88,2.88,0,0,0-1.44-.33,1.82,1.82,0,0,0-2,1.69c0,1,1,1.63,1.89,1.88a11.22,11.22,0,0,0,2.78.29A9.74,9.74,0,0,0,83,49.27,2.91,2.91,0,0,0,85,46.66a2.69,2.69,0,0,0-1.38-2.31m-4.1-6c.92,0,1.18,1.06,1.18,1.82s-.31,1.4-1.14,1.4-1.15-1-1.15-1.73.27-1.49,1.11-1.49" transform="translate(0 0)"/><path class="cls-1" d="M87.91,36.49a1.87,1.87,0,0,0,1.88-1.88A1.82,1.82,0,0,0,88,32.79a1.85,1.85,0,0,0-1.82,1.92,1.81,1.81,0,0,0,1.75,1.78" transform="translate(0 0)"/><path class="cls-1" d="M89.75,43.66V36.59h-.06a2.32,2.32,0,0,1-1.3.29H85.77v.06c.71.6.66,1.16.66,2.07v4.65c0,.89,0,1.45-.68,2.07v.06h4.67v-.06c-.73-.62-.67-1.18-.67-2.07" transform="translate(0 0)"/><path class="cls-1" d="M98,40.6a8.24,8.24,0,0,0-2.09-.84c-.46-.13-1.1-.29-1.1-.89s.75-.62,1.14-.62a4.4,4.4,0,0,1,2.45.76V37a12.39,12.39,0,0,0-3-.37,5.57,5.57,0,0,0-2.92.62,2.59,2.59,0,0,0-1.42,2.34c0,2.62,4.59,2.69,4.59,4,0,.72-.83.85-1.37.85a6.64,6.64,0,0,1-3.4-1.06l.42,2.22a15,15,0,0,0,3.23.45c2,0,4.9-.58,4.9-3.18A2.77,2.77,0,0,0,98,40.6" transform="translate(0 0)"/><path class="cls-1" d="M104.06,34.11h-1.32a3.59,3.59,0,0,1-3.15,3.21v1.34h1.15v4.13a3.06,3.06,0,0,0,.69,2.5,3.85,3.85,0,0,0,2.4.75c.5,0,1-.1,1.52-.13l.85-1.65a2.86,2.86,0,0,1-1.54-.35c-.62-.41-.6-.91-.6-1.61V38.68h.48c.81,0,1.08,0,1.6.56h.06V36.88h-2.14Z" transform="translate(0 0)"/><path class="cls-1" d="M109.23,36.49a1.87,1.87,0,0,0,1.89-1.88,1.82,1.82,0,0,0-1.81-1.82,1.85,1.85,0,0,0-1.83,1.92,1.82,1.82,0,0,0,1.75,1.78" transform="translate(0 0)"/><path class="cls-1" d="M111.08,43.66V36.59H111a2.36,2.36,0,0,1-1.31.29H107.1v.06c.71.6.65,1.16.65,2.07v4.65c0,.89.06,1.45-.67,2.07v.06h4.67v-.06c-.73-.62-.67-1.18-.67-2.07" transform="translate(0 0)"/><path class="cls-1" d="M118.36,44.1a2.25,2.25,0,0,1-1.75-.67A3.84,3.84,0,0,1,115.8,41a3.12,3.12,0,0,1,.5-1.92,1.85,1.85,0,0,1,1.46-.68,3.38,3.38,0,0,1,2,.64h.06V36.82c-.75-.06-1.52-.2-2.27-.2-3,0-5.41,1.65-5.41,4.85A4.63,4.63,0,0,0,117,46a7.42,7.42,0,0,0,3.31-.74l.61-2.1h-.06a4.34,4.34,0,0,1-2.53.9" transform="translate(0 0)"/><path class="cls-1" d="M128.54,40.6a8.24,8.24,0,0,0-2.09-.84c-.47-.13-1.1-.29-1.1-.89s.75-.62,1.13-.62a4.43,4.43,0,0,1,2.46.76V37a12.45,12.45,0,0,0-3-.37,5.57,5.57,0,0,0-2.92.62,2.6,2.6,0,0,0-1.43,2.34c0,2.62,4.59,2.69,4.59,4,0,.72-.82.85-1.36.85a6.64,6.64,0,0,1-3.4-1.06l.42,2.22a14.79,14.79,0,0,0,3.23.45c2,0,4.9-.58,4.9-3.18a2.77,2.77,0,0,0-1.46-2.26" transform="translate(0 0)"/><path class="cls-2" d="M67.17,25.5a37.6,37.6,0,0,0,6.14.38c.26.08-.61,1-1.64,1.79-5.55,4-13.89,3.07-19.13,2.66C48.92,30,43.71,30.25,40.82,32c7.26-6,20.3,0,27.84-4.87A40.45,40.45,0,0,1,57.07,24.7c10.92,0,19.9-2,23.29-5.19-6.13,1.33-15,1.33-21.15.77,11.89-.81,22.53-6.84,26.27-12.77-6.93,4.37-26.76,9.34-42.21,12.62C25.93,23.81,13.34,30,2.79,45.85H2.42C12,27.67,26,21.13,53.69,14.89,62,13,83,6.7,92.67.31c.73-.48,1-.52.59.76C90.94,8.3,83.47,15.36,74.78,18.36a42.22,42.22,0,0,0,11-2.26c.26-.1.26.1.22.25-1.51,5.16-9.72,8.9-18.86,9.09ZM19.24,31.44a59.78,59.78,0,0,1,21.05-4.7C36.67,29.66,31.77,31,24.7,31c6.34,1.09,16.79.42,20.86-6.52a47.17,47.17,0,0,0-26.39,7Zm7.42-.38c1.78.6-.5,2.12-2.45,2.57-.14,0-.1.12,0,.18,1.65,1,.56,1.86-1.75,2.41,2.54,0,3.36-.6,3.78-1.34a1.15,1.15,0,0,0-.68-.88c2.48-.5,3.8-1.67,3.81-2s-.23-.55-.76-.84Z" transform="translate(0 0)"/></svg>