<?xml version="1.0" encoding="utf-8"?>
<!-- Generator: Adobe Illustrator 24.1.1, SVG Export Plug-In . SVG Version: 6.00 Build 0)  -->
<svg version="1.1" id="Layer_1" xmlns="http://www.w3.org/2000/svg" xmlns:xlink="http://www.w3.org/1999/xlink" x="0px" y="0px"
	 viewBox="0 0 42 42" style="enable-background:new 0 0 42 42;" xml:space="preserve">
<style type="text/css">
	.st0{fill:#FC6A55;}
	.st1{fill:#EDEDED;}
	.st2{fill:none;stroke:#FC6A55;stroke-miterlimit:10;}
	.st3{fill:#222F3F;}
	.st4{fill:#383838;}
	.st5{fill:#FFFFFF;}
	.st6{stroke:#FFFFFF;stroke-width:0.25;stroke-miterlimit:10;}
	.st7{fill:#656D7A;}
	.st8{filter:url(#Adobe_OpacityMaskFilter);}
	.st9{fill-rule:evenodd;clip-rule:evenodd;fill:#FFFFFF;}
	.st10{mask:url(#mask-2_8_);fill-rule:evenodd;clip-rule:evenodd;}
	.st11{filter:url(#Adobe_OpacityMaskFilter_1_);}
	.st12{mask:url(#mask-2_7_);fill-rule:evenodd;clip-rule:evenodd;}
	.st13{filter:url(#Adobe_OpacityMaskFilter_2_);}
	.st14{mask:url(#mask-2_6_);fill-rule:evenodd;clip-rule:evenodd;}
	.st15{filter:url(#Adobe_OpacityMaskFilter_3_);}
	.st16{mask:url(#mask-2_5_);fill-rule:evenodd;clip-rule:evenodd;}
	.st17{filter:url(#Adobe_OpacityMaskFilter_4_);}
	.st18{mask:url(#mask-2_2_);fill:none;stroke:#000000;stroke-width:2;}
	.st19{fill:#B4A3EE;}
	.st20{fill:#434343;}
	.st21{fill:#434343;stroke:#F9F9F9;stroke-width:0.25;stroke-miterlimit:10;}
	.st22{fill:none;stroke:#FC6A55;stroke-width:0.5;stroke-miterlimit:10;}
	.st23{fill:none;stroke:#FC6A55;stroke-width:0.75;stroke-miterlimit:10;}
	.st24{fill:#FC6A55;stroke:#FC6A55;stroke-width:0.5;stroke-miterlimit:10;}
	.st25{opacity:0.153;fill:url(#Path_36_);enable-background:new    ;}
	.st26{opacity:0.1;fill:#590BB2;enable-background:new    ;}
	.st27{fill:#8E8CA8;}
	.st28{fill:#F5F4F9;}
	.st29{fill:#FFD5B8;}
	.st30{fill:#FC8473;}
	.st31{fill:#1C3475;}
	.st32{fill:#DDD9E4;}
	.st33{fill:#828FB3;}
	.st34{opacity:7.584635e-02;fill:url(#Path_37_);enable-background:new    ;}
	.st35{fill:#FFBE92;}
	.st36{fill:#FB8E7F;}
	.st37{fill:#FDB1A6;}
	.st38{fill:#FC806F;}
	.st39{fill:#FFE783;}
	.st40{fill:#104478;}
	.st41{fill:none;stroke:#FFFFFF;stroke-miterlimit:10;}
	.st42{fill:none;stroke:#000000;stroke-width:0.15;stroke-miterlimit:10;}
	.st43{opacity:0.1;fill:url(#Path_38_);enable-background:new    ;}
	.st44{opacity:0.1;fill:url(#Path_39_);enable-background:new    ;}
	.st45{fill-rule:evenodd;clip-rule:evenodd;fill:#FC6A55;}
	.st46{fill-rule:evenodd;clip-rule:evenodd;}
	.st47{fill:#FF6757;}
	.st48{fill:#666666;}
	.st49{fill:none;stroke:#FFFFFF;stroke-width:0.5;stroke-miterlimit:10;}
	.st50{fill:#F16A56;}
	.st51{fill:#515252;}
	.st52{fill:#F26A56;}
	.st53{fill:none;stroke:#F16A56;stroke-miterlimit:10;}
	.st54{fill:none;stroke:#929292;stroke-miterlimit:10;}
	.st55{fill:#929292;}
	.st56{fill:none;stroke:#000000;stroke-width:0.5;stroke-miterlimit:10;}
	.st57{fill:#A8A7A7;}
	.st58{fill:#F79F91;}
	.st59{fill:#9BDBD5;}
	.st60{fill:#222121;}
</style>
<g>
	<path class="st3" d="M0,20.4h4.4v1.2H0V20.4z"/>
	<path class="st3" d="M37.6,20.4H42v1.2h-4.4V20.4z"/>
	<path class="st3" d="M20.4,37.6h1.2V42h-1.2V37.6z"/>
	<path class="st3" d="M39,17.8l1.2-0.2c-0.7-4.2-2.9-8.1-6-10.9l-0.8,0.9C36.3,10.3,38.3,13.9,39,17.8z"/>
	<path class="st3" d="M33.2,5.8c-2.6-2.1-5.6-3.5-8.8-4L24.2,3c3,0.5,5.9,1.8,8.3,3.8L33.2,5.8z"/>
	<path class="st3" d="M17.8,3l-0.2-1.2C9.6,3.2,3.2,9.6,1.8,17.6L3,17.8C4.3,10.3,10.3,4.3,17.8,3z"/>
	<path class="st3" d="M24.2,39l0.2,1.2c8-1.4,14.4-7.8,15.8-15.8L39,24.2C37.7,31.7,31.7,37.7,24.2,39z"/>
	<path class="st3" d="M3,24.2l-1.2,0.2c1.4,8,7.8,14.4,15.8,15.8l0.2-1.2C10.3,37.7,4.3,31.7,3,24.2z"/>
	<path class="st3" d="M20.4,0h1.2v4.4h-1.2V0z"/>
	<path class="st3" d="M10.2,9.1l0.9-0.9l3.1,3.1l-0.9,0.9L10.2,9.1z"/>
	<path class="st3" d="M31,8.2l0.9,0.9l-3.1,3.1l-0.9-0.9L31,8.2z"/>
	<path class="st3" d="M13.4,30.2l0.9,0.9l-3.1,3.1l-0.9-0.9L13.4,30.2z"/>
	<path class="st3" d="M27.9,31.1l0.9-0.9l3.1,3.1L31,34.2L27.9,31.1z"/>
	<path class="st3" d="M17.5,16.9c0,0.7,0.2,1.4,0.6,2c-1,0.5-1.8,1.3-2.4,2.2c-0.3-0.3-0.7-0.5-1-0.7c0.3-0.4,0.4-1,0.4-1.5v-1.1
		c0-1.6-1.3-2.9-2.9-2.9s-2.9,1.3-2.9,2.9v1.1c0,0.5,0.2,1.1,0.4,1.5c-1.6,0.9-2.7,2.6-2.7,4.5v1.5H5.8v1.2H12v-1.2h-1.3v-1.8H9.5
		v1.8H8.3v-1.5c0-1.6,0.9-3,2.4-3.6c0.4,0.3,1,0.5,1.5,0.5c0.6,0,1.1-0.2,1.5-0.4c0.5,0.2,1,0.5,1.4,1c-0.3,0.7-0.5,1.6-0.5,2.4v1.7
		h-1.4v1.2h23v-1.2h-1.3v-1.5c0-0.7-0.1-1.3-0.4-2l-1.1,0.5c0.2,0.5,0.3,1,0.3,1.5v1.5h-1.1v-1.8h-1.2v1.8h-3.9v-1.7
		c0-0.8-0.2-1.6-0.5-2.4c0.4-0.4,0.8-0.7,1.4-1c0.4,0.3,1,0.4,1.5,0.4c0.6,0,1.1-0.2,1.5-0.5c0.6,0.3,1.1,0.7,1.5,1.2l1-0.8
		c-0.4-0.6-1-1-1.6-1.4c0.3-0.4,0.4-0.9,0.4-1.5v-1.1c0-1.6-1.3-2.9-2.9-2.9s-2.9,1.3-2.9,2.9v1.1c0,0.6,0.2,1.1,0.4,1.5
		c-0.4,0.2-0.7,0.5-1,0.8c-0.6-0.9-1.4-1.6-2.4-2.1c0.4-0.6,0.6-1.2,0.6-2v-0.2h-1.2v0.2c0,1.2-1,2.3-2.3,2.3s-2.3-1-2.3-2.3v-1.4
		c0-1.2,1-2.3,2.3-2.3s2.3,1,2.3,2.3v0h1.2v0c0-1.9-1.6-3.5-3.5-3.5s-3.5,1.6-3.5,3.5V16.9z M13.9,18.8c0,0.9-0.7,1.6-1.6,1.6
		s-1.6-0.7-1.6-1.6v-1.1c0-0.9,0.7-1.6,1.6-1.6s1.6,0.7,1.6,1.6V18.8z M28.1,17.7c0-0.9,0.7-1.6,1.6-1.6s1.6,0.7,1.6,1.6v1.1
		c0,0.9-0.7,1.6-1.6,1.6s-1.6-0.7-1.6-1.6V17.7z M19.1,19.8c0.6,0.4,1.2,0.6,1.9,0.6c0.7,0,1.4-0.2,1.9-0.6c1.9,0.8,3.2,2.7,3.2,4.8
		v1.7h-1.6v-2h-1.2v2h-4.5v-2h-1.2v2h-1.6v-1.7C15.9,22.5,17.1,20.6,19.1,19.8z"/>
	<path class="st3" d="M20.4,21.6h1.2v1.2h-1.2V21.6z"/>
	<path class="st3" d="M20.4,24h1.2v1.2h-1.2V24z"/>
</g>
</svg>
