<?xml version="1.0" encoding="utf-8"?>
<!-- Generator: Adobe Illustrator 24.1.1, SVG Export Plug-In . SVG Version: 6.00 Build 0)  -->
<svg version="1.1" id="Layer_1" xmlns="http://www.w3.org/2000/svg" xmlns:xlink="http://www.w3.org/1999/xlink" x="0px" y="0px"
	 viewBox="0 0 37 42" style="enable-background:new 0 0 37 42;" xml:space="preserve">
<style type="text/css">
	.st0{fill:#FC6A55;}
	.st1{fill:#EDEDED;}
	.st2{fill:none;stroke:#FC6A55;stroke-miterlimit:10;}
	.st3{fill:#383838;}
	.st4{stroke:#FFFFFF;stroke-width:0.25;stroke-miterlimit:10;}
	.st5{fill:#656D7A;}
	.st6{fill:#FFFFFF;}
	.st7{filter:url(#Adobe_OpacityMaskFilter);}
	.st8{fill-rule:evenodd;clip-rule:evenodd;fill:#FFFFFF;}
	.st9{mask:url(#mask-2_8_);fill-rule:evenodd;clip-rule:evenodd;}
	.st10{filter:url(#Adobe_OpacityMaskFilter_1_);}
	.st11{mask:url(#mask-2_7_);fill-rule:evenodd;clip-rule:evenodd;}
	.st12{filter:url(#Adobe_OpacityMaskFilter_2_);}
	.st13{mask:url(#mask-2_6_);fill-rule:evenodd;clip-rule:evenodd;}
	.st14{filter:url(#Adobe_OpacityMaskFilter_3_);}
	.st15{mask:url(#mask-2_5_);fill-rule:evenodd;clip-rule:evenodd;}
	.st16{filter:url(#Adobe_OpacityMaskFilter_4_);}
	.st17{mask:url(#mask-2_2_);fill:none;stroke:#000000;stroke-width:2;}
	.st18{fill:#B4A3EE;}
	.st19{fill:#434343;}
	.st20{fill:#434343;stroke:#F9F9F9;stroke-width:0.25;stroke-miterlimit:10;}
	.st21{fill:none;stroke:#FC6A55;stroke-width:0.5;stroke-miterlimit:10;}
	.st22{fill:none;stroke:#FC6A55;stroke-width:0.75;stroke-miterlimit:10;}
	.st23{fill:#FC6A55;stroke:#FC6A55;stroke-width:0.5;stroke-miterlimit:10;}
	.st24{opacity:0.153;fill:url(#Path_36_);enable-background:new    ;}
	.st25{opacity:0.1;fill:#590BB2;enable-background:new    ;}
	.st26{fill:#8E8CA8;}
	.st27{fill:#F5F4F9;}
	.st28{fill:#FFD5B8;}
	.st29{fill:#FC8473;}
	.st30{fill:#1C3475;}
	.st31{fill:#DDD9E4;}
	.st32{fill:#828FB3;}
	.st33{opacity:7.584635e-02;fill:url(#Path_37_);enable-background:new    ;}
	.st34{fill:#FFBE92;}
	.st35{fill:#FB8E7F;}
	.st36{fill:#FDB1A6;}
	.st37{fill:#FC806F;}
	.st38{fill:#FFE783;}
	.st39{fill:#104478;}
	.st40{fill:none;stroke:#FFFFFF;stroke-miterlimit:10;}
	.st41{fill:none;stroke:#000000;stroke-width:0.15;stroke-miterlimit:10;}
	.st42{opacity:0.1;fill:url(#Path_38_);enable-background:new    ;}
	.st43{opacity:0.1;fill:url(#Path_39_);enable-background:new    ;}
	.st44{fill-rule:evenodd;clip-rule:evenodd;fill:#FC6A55;}
	.st45{fill-rule:evenodd;clip-rule:evenodd;}
	.st46{fill:#FF6757;}
	.st47{fill:#666666;}
	.st48{fill:none;stroke:#FFFFFF;stroke-width:0.5;stroke-miterlimit:10;}
	.st49{fill:#F16A56;}
	.st50{fill:#515252;}
	.st51{fill:#F26A56;}
	.st52{fill:none;stroke:#F16A56;stroke-miterlimit:10;}
	.st53{fill:none;stroke:#929292;stroke-miterlimit:10;}
	.st54{fill:#929292;}
	.st55{fill:none;stroke:#000000;stroke-width:0.5;stroke-miterlimit:10;}
	.st56{fill:#A8A7A7;}
	.st57{fill:#F79F91;}
	.st58{fill:#9BDBD5;}
	.st59{fill:#222121;}
</style>
<g>
	<g>
		<path class="st3" d="M1.2,39.5h3.7c0.7,0,1.2-0.6,1.2-1.2V37h13.9c3.1,0,6.1-0.9,8.8-2.5c4-2.5,6.7-6.5,7.5-11.1l0.3-1.5
			c0.1-0.7-0.1-1.4-0.5-1.9c-0.4-0.5-1.1-0.8-1.8-0.8c-0.4,0-0.7,0.1-1.1,0.3v-2.7h0.6c0.2,0,0.5-0.2,0.6-0.4c0.1-0.2,0-0.5-0.1-0.7
			l-4.9-4.9c-0.2-0.2-0.6-0.2-0.9,0l-1.4,1.4V3.7c0-0.3-0.3-0.6-0.6-0.6h-6.2c-0.3,0-0.6,0.3-0.6,0.6v6.8h-2.5c-0.5-1-0.8-1.6-1.1-2
			l1.6-3.8c0.2-0.4,0.1-0.9-0.3-1.2c-0.3-0.3-0.8-0.4-1.2-0.2l-1.2,0.6l-0.7-1c-0.2-0.2-0.5-0.4-0.8-0.4c-0.3,0-0.6,0.1-0.8,0.3
			l-0.9,0.9L11.2,3c-0.2-0.2-0.5-0.4-0.8-0.4c-0.3,0-0.6,0.1-0.8,0.3L8.4,4L6.6,3.5c-0.4-0.1-0.9,0-1.1,0.4C5.2,4.2,5.2,4.7,5.4,5.1
			l1.9,3.4C5.9,9.7,4.3,13,4.3,16v1.9c0,2,1.7,3.7,3.7,3.7h6.8h5.6h4.9h6.4l-1.3,2.6L27,25.7c-0.4-1.3-1.5-2.2-2.9-2.2h-8.9
			c-3.2,0-6.3,0.9-9,2.6v-1.3c0-0.7-0.6-1.2-1.2-1.2H1.2C0.6,23.5,0,24,0,24.7v13.6C0,38.9,0.6,39.5,1.2,39.5L1.2,39.5z M8.1,5.2
			c0.4,0.1,0.8,0,1-0.3l1.1-1.1l0.6,0.8c0.2,0.2,0.5,0.4,0.8,0.4c0.3,0,0.6-0.1,0.8-0.3l0.9-0.9l0.7,0.9c0.3,0.4,0.9,0.5,1.3,0.3
			l0.9-0.4L15,8.1h-1.7l0.8-1.6L13,5.9L12,8.1h-1.1L10,6.3L8.9,6.8l0.6,1.3H8.4L6.6,4.8L8.1,5.2z M14.2,11.1v9.3H8
			c-1.4,0-2.5-1.1-2.5-2.5V16c0-3.3,2-6.4,2.6-6.7h7c0.1,0.1,0.3,0.4,0.7,1.2h-1.1C14.5,10.5,14.2,10.8,14.2,11.1L14.2,11.1z
			 M15.4,11.8h4.3v8.6h-4.3V11.8z M29,12l3.4,3.4h-6.9L29,12z M21,4.3h4.9v9l-2.3,2.3c-0.2,0.2-0.2,0.4-0.1,0.7
			c0.1,0.2,0.3,0.4,0.6,0.4h0.6v3.7H21V4.3z M25.9,16.7h6.2v3.7h-1.2v-2.5c0-0.3-0.3-0.6-0.6-0.6h-2.5c-0.3,0-0.6,0.3-0.6,0.6v2.5
			h-1.2V16.7z M29.6,20.4h-1.2v-1.9h1.2V20.4z M15.2,24.7H24c1,0,1.9,0.8,1.9,1.8s-0.8,1.9-1.9,1.9h-9.9v1.2H24c1.6,0,2.8-1.2,3-2.7
			l4-1.7c0.1-0.1,0.2-0.2,0.3-0.3l2-4c0.2-0.4,0.6-0.6,1-0.6c0.3,0,0.6,0.1,0.8,0.4c0.2,0.2,0.3,0.6,0.2,0.9l-0.3,1.5
			c-0.8,4.3-3.3,8-7,10.3c-2.4,1.5-5.2,2.3-8.1,2.3H6.2v-8.3C8.8,25.7,11.9,24.7,15.2,24.7L15.2,24.7z M1.2,24.7h3.7l0,13.6H1.2
			L1.2,24.7z"/>
		<path class="st3" d="M2.5,26.5h1.2v1.9H2.5V26.5z"/>
		<path class="st3" d="M22.2,5.6h0.6v1.2h-0.6V5.6z"/>
		<path class="st3" d="M24,5.6h0.6v1.2H24V5.6z"/>
		<path class="st3" d="M22.2,8.1h0.6v1.2h-0.6V8.1z"/>
		<path class="st3" d="M24,8.1h0.6v1.2H24V8.1z"/>
		<path class="st3" d="M22.2,10.5h0.6v1.2h-0.6V10.5z"/>
		<path class="st3" d="M24,10.5h0.6v1.2H24V10.5z"/>
		<path class="st3" d="M16.6,13h0.6v1.2h-0.6V13z"/>
		<path class="st3" d="M18.5,13h0.6v1.2h-0.6V13z"/>
		<path class="st3" d="M16.6,15.4h0.6v1.2h-0.6V15.4z"/>
		<path class="st3" d="M18.5,15.4h0.6v1.2h-0.6V15.4z"/>
		<path class="st3" d="M16.6,17.9h0.6v1.2h-0.6V17.9z"/>
		<path class="st3" d="M18.5,17.9h0.6v1.2h-0.6V17.9z"/>
		<path class="st3" d="M22.2,13h0.6v1.2h-0.6V13z"/>
		<path class="st3" d="M24,13h0.6v1.2H24V13z"/>
		<path class="st3" d="M12.3,12.4h-0.6v-0.6h-1.2v0.6H9.9c-0.3,0-0.6,0.3-0.6,0.6v1.8c0,0.3,0.3,0.6,0.6,0.6h1.8v0.6H9.3v0.6
			c0,0.3,0.3,0.6,0.6,0.6h0.6v0.6h1.2v-0.6h0.6c0.3,0,0.6-0.3,0.6-0.6v-1.8c0-0.3-0.3-0.6-0.6-0.6h-1.8v-0.6h2.5V13
			C12.9,12.6,12.7,12.4,12.3,12.4z"/>
		<path class="st3" d="M31.5,3.7h1.2V5h-1.2V3.7z"/>
		<path class="st3" d="M32.7,2.5h1.2v1.2h-1.2V2.5z"/>
		<path class="st3" d="M33.9,3.7h1.2V5h-1.2V3.7z"/>
		<path class="st3" d="M32.7,5h1.2v1.2h-1.2V5z"/>
		<path class="st3" d="M35.8,6.8H37v1.2h-1.2V6.8z"/>
		<path class="st3" d="M31.5,8.7h1.2v1.2h-1.2V8.7z"/>
		<path class="st3" d="M0,8.1h1.2v1.2H0V8.1z"/>
		<path class="st3" d="M1.2,6.8h1.2v1.2H1.2V6.8z"/>
		<path class="st3" d="M2.5,8.1h1.2v1.2H2.5V8.1z"/>
		<path class="st3" d="M1.2,9.3h1.2v1.2H1.2V9.3z"/>
		<path class="st3" d="M0,13h1.2v1.2H0V13z"/>
		<path class="st3" d="M2.5,2.5h1.2v1.2H2.5V2.5z"/>
	</g>
</g>
</svg>
