<?xml version="1.0" encoding="utf-8"?>
<!-- Generator: Adobe Illustrator 24.1.1, SVG Export Plug-In . SVG Version: 6.00 Build 0)  -->
<svg version="1.1" id="Layer_1" xmlns="http://www.w3.org/2000/svg" xmlns:xlink="http://www.w3.org/1999/xlink" x="0px" y="0px"
	 viewBox="0 0 37 42" style="enable-background:new 0 0 37 42;" xml:space="preserve">
<style type="text/css">
	.st0{fill:#FC6A55;}
	.st1{fill:#EDEDED;}
	.st2{fill:none;stroke:#FC6A55;stroke-miterlimit:10;}
	.st3{fill:#383838;}
	.st4{stroke:#FFFFFF;stroke-width:0.25;stroke-miterlimit:10;}
	.st5{fill:#656D7A;}
	.st6{fill:#FFFFFF;}
	.st7{filter:url(#Adobe_OpacityMaskFilter);}
	.st8{fill-rule:evenodd;clip-rule:evenodd;fill:#FFFFFF;}
	.st9{mask:url(#mask-2_8_);fill-rule:evenodd;clip-rule:evenodd;}
	.st10{filter:url(#Adobe_OpacityMaskFilter_1_);}
	.st11{mask:url(#mask-2_7_);fill-rule:evenodd;clip-rule:evenodd;}
	.st12{filter:url(#Adobe_OpacityMaskFilter_2_);}
	.st13{mask:url(#mask-2_6_);fill-rule:evenodd;clip-rule:evenodd;}
	.st14{filter:url(#Adobe_OpacityMaskFilter_3_);}
	.st15{mask:url(#mask-2_5_);fill-rule:evenodd;clip-rule:evenodd;}
	.st16{filter:url(#Adobe_OpacityMaskFilter_4_);}
	.st17{mask:url(#mask-2_2_);fill:none;stroke:#000000;stroke-width:2;}
	.st18{fill:#B4A3EE;}
	.st19{fill:#434343;}
	.st20{fill:#434343;stroke:#F9F9F9;stroke-width:0.25;stroke-miterlimit:10;}
	.st21{fill:none;stroke:#FC6A55;stroke-width:0.5;stroke-miterlimit:10;}
	.st22{fill:none;stroke:#FC6A55;stroke-width:0.75;stroke-miterlimit:10;}
	.st23{fill:#FC6A55;stroke:#FC6A55;stroke-width:0.5;stroke-miterlimit:10;}
	.st24{opacity:0.153;fill:url(#Path_36_);enable-background:new    ;}
	.st25{opacity:0.1;fill:#590BB2;enable-background:new    ;}
	.st26{fill:#8E8CA8;}
	.st27{fill:#F5F4F9;}
	.st28{fill:#FFD5B8;}
	.st29{fill:#FC8473;}
	.st30{fill:#1C3475;}
	.st31{fill:#DDD9E4;}
	.st32{fill:#828FB3;}
	.st33{opacity:7.584635e-02;fill:url(#Path_37_);enable-background:new    ;}
	.st34{fill:#FFBE92;}
	.st35{fill:#FB8E7F;}
	.st36{fill:#FDB1A6;}
	.st37{fill:#FC806F;}
	.st38{fill:#FFE783;}
	.st39{fill:#104478;}
	.st40{fill:none;stroke:#FFFFFF;stroke-miterlimit:10;}
	.st41{fill:none;stroke:#000000;stroke-width:0.15;stroke-miterlimit:10;}
	.st42{opacity:0.1;fill:url(#Path_38_);enable-background:new    ;}
	.st43{opacity:0.1;fill:url(#Path_39_);enable-background:new    ;}
	.st44{fill-rule:evenodd;clip-rule:evenodd;fill:#FC6A55;}
	.st45{fill-rule:evenodd;clip-rule:evenodd;}
	.st46{fill:#FF6757;}
	.st47{fill:#666666;}
	.st48{fill:none;stroke:#FFFFFF;stroke-width:0.5;stroke-miterlimit:10;}
	.st49{fill:#F16A56;}
	.st50{fill:#515252;}
	.st51{fill:#F26A56;}
	.st52{fill:none;stroke:#F16A56;stroke-miterlimit:10;}
	.st53{fill:none;stroke:#929292;stroke-miterlimit:10;}
	.st54{fill:#929292;}
	.st55{fill:none;stroke:#000000;stroke-width:0.5;stroke-miterlimit:10;}
	.st56{fill:#A8A7A7;}
	.st57{fill:#F79F91;}
	.st58{fill:#9BDBD5;}
	.st59{fill:#222121;}
</style>
<g>
	<g>
		<path class="st3" d="M9.5,7.6c0-2.1-1.6-3.8-3.6-3.8S2.4,5.5,2.4,7.6S4,11.4,6,11.4S9.5,9.7,9.5,7.6z M3.6,7.6C3.6,6.2,4.6,5,6,5
			s2.4,1.1,2.4,2.6S7.3,10.2,6,10.2S3.6,9,3.6,7.6z"/>
		<path class="st3" d="M32.1,5.5l0.8-0.9l0.8,0.9l-0.8,0.9L32.1,5.5z"/>
		<path class="st3" d="M30.4,7.3l0.8-0.9l0.8,0.9l-0.8,0.9L30.4,7.3z"/>
		<path class="st3" d="M28.7,9.1l0.8-0.9l0.8,0.9L29.6,10L28.7,9.1z"/>
		<path class="st3" d="M35.1,28.1h-3.3c1-2.2,1.5-4.6,1.5-7c0-3.3-0.9-6.4-2.6-9c0.4-0.3,0.9-0.7,1.3-1.1l3.7,3.9l1.3-1.4l-1.8-5.8
			l0.2-0.2c0.6-0.6,0.9-1.5,0.9-2.4c0-1.9-1.4-3.4-3.1-3.4c-0.8,0-1.6,0.3-2.2,1L30.8,3l-5.4-1.9l-1.3,1.4l3.7,3.9
			c-0.3,0.5-0.7,0.9-1,1.4C24.4,6,21.5,5,18.5,5c-2.3,0-4.6,0.6-6.6,1.7C11.4,3.6,9,1.2,6,1.2c-3.3,0-6,2.9-6,6.4v0.2
			c0,1.3,0.3,2.5,1,3.6l3.2,5.2c-0.4,1.5-0.6,3-0.6,4.6c0,2,0.3,3.9,1,5.8H4.2c-1,0-1.8,0.9-1.8,1.9c0,0.8,0.5,1.5,1.2,1.8v1.4H0
			v2.1c0,3.8,2.8,6.8,6.3,6.8h6.6c2.4,0,4.7-1.5,5.7-3.8c1.8,0,3.5-0.4,5.2-1.1v3c0,1.1,0.8,1.9,1.8,1.9h9.5c1,0,1.8-0.9,1.8-1.9v-9
			C36.9,29,36.1,28.1,35.1,28.1z M28.6,29.4h3.6v1.3h-3.6V29.4z M25.6,28.1h-1.8c0.3-1.9,0.5-4.1,0.6-6.4h7.7
			c-0.1,2.2-0.7,4.4-1.7,6.4H25.6z M19,35.6l0-1.2h-2.6l-1.9-4.1c0.4-0.2,0.7-0.6,0.8-1h7C21.5,32.8,20.3,35.1,19,35.6z M15.4,28.1
			c-0.2-0.6-0.7-1.1-1.3-1.2c-0.2-1.6-0.4-3.4-0.4-5.2h9.5c0,2.4-0.3,4.5-0.6,6.4H15.4z M4.8,20.4c0-0.9,0.1-1.9,0.4-2.8
			c0.2,0.1,0.5,0.2,0.8,0.2c0.6,0,1.1-0.3,1.4-0.8l1.9-3h3.8c-0.3,1.9-0.5,4.1-0.6,6.4H4.8z M14.3,14h8.3c0.4,2,0.6,4.1,0.6,6.4
			h-9.5C13.7,18,14,15.9,14.3,14L14.3,14z M18.5,6.3c1.1,0,2.1,1.3,3,3.5L21,10.3l0.8,0.4c0.2,0.6,0.4,1.3,0.5,2h-7.8
			C15.5,8.7,17,6.3,18.5,6.3z M25.1,11.1L23,10l0.4-0.4l2.1,0.6C25.3,10.5,25.2,10.8,25.1,11.1z M24.6,12.2
			C24.5,12.2,24.5,12.3,24.6,12.2c-0.1,0.2-0.1,0.3-0.1,0.5h-0.9c-0.1-0.4-0.2-0.8-0.3-1.2L24.6,12.2z M32.1,20.4h-7.7
			c0-2.3-0.2-4.4-0.6-6.4h0.9c0.3,0.4,0.7,0.6,1.2,0.6c0.2,0,0.4,0,0.6-0.1c0,0,0,0,0,0l1.8,3.8l2-2.2l-0.8-3.3c0,0,0.1,0,0.1-0.1
			C31.2,15,32,17.6,32.1,20.4L32.1,20.4z M28.6,13.5l0.5,2.3l-0.4,0.4l-1-2.2C28,13.8,28.3,13.6,28.6,13.5z M35.6,12.9L33,10.1
			c0.3-0.3,0.6-0.6,0.9-0.9l0.4-0.5L35.6,12.9z M33.2,3.1c1.1,0,1.9,0.9,1.9,2.1c0,0.6-0.2,1.1-0.6,1.5L33,8.3c-2,2.1-4.3,3.8-6.9,5
			c-0.3,0.1-0.5-0.1-0.5-0.4c0-0.1,0-0.1,0-0.2c1.1-2.8,2.7-5.2,4.6-7.4l1.6-1.7v0C32.2,3.3,32.7,3.1,33.2,3.1z M26,2.7L29.9,4
			l-0.4,0.5c-0.3,0.3-0.6,0.6-0.8,0.9L26,2.7z M26.1,9L23,8.2l-0.7,0.7C22,8,21.6,7.2,21.1,6.6c1.8,0.4,3.5,1.2,5.1,2.3
			C26.2,8.9,26.1,9,26.1,9L26.1,9z M11.9,8.1c1.2-0.7,2.6-1.3,4-1.5c-1.1,1.3-1.9,3.5-2.5,6.1H10l0.9-1.4
			C11.5,10.4,11.8,9.3,11.9,8.1z M1.2,7.8V7.6c0-2.8,2.1-5.1,4.8-5.1s4.8,2.3,4.8,5.1v0.2c0,1-0.3,2-0.8,2.8l-3.5,5.7
			c-0.2,0.3-0.7,0.3-0.9,0L2,10.6C1.5,9.8,1.2,8.8,1.2,7.8z M4.8,21.7h7.7c0,1.8,0.2,3.5,0.4,5.1h-7C5.2,25.2,4.8,23.5,4.8,21.7z
			 M4.2,28.1h9.5c0.3,0,0.6,0.3,0.6,0.6c0,0.4-0.3,0.6-0.6,0.6H4.2c-0.3,0-0.6-0.3-0.6-0.6C3.6,28.4,3.8,28.1,4.2,28.1z M4.8,30.7
			h8.6l1.8,3.8H6.9l-1.2-2.6h-1V30.7z M12.9,39.6H6.3c-2.8,0-5.2-2.5-5.2-5.5v-0.9H5l1.2,2.6h11.7C17.2,38.1,15.2,39.6,12.9,39.6z
			 M21.1,35.5c1.1-1.3,1.9-3.5,2.5-6.1h0.4c-0.1,0.2-0.1,0.4-0.1,0.6v4.6C22.9,35,22,35.3,21.1,35.5z M35.7,39
			c0,0.4-0.3,0.6-0.6,0.6h-9.5c-0.3,0-0.6-0.3-0.6-0.6v-9c0-0.4,0.3-0.6,0.6-0.6h1.8v2.6h6v-2.6h1.8c0.3,0,0.6,0.3,0.6,0.6V39z"/>
		<path class="st3" d="M33.3,37.1h1.2v1.3h-1.2V37.1z"/>
		<path class="st3" d="M31,37.1h1.2v1.3H31V37.1z"/>
		<path class="st3" d="M9.5,31.9h1.2v1.3H9.5V31.9z"/>
		<path class="st3" d="M11.9,31.9h1.2v1.3h-1.2V31.9z"/>
		<path class="st3" d="M7.1,31.9h1.2v1.3H7.1V31.9z"/>
		<path class="st3" d="M15.5,23h1.2v1.3h-1.2V23z"/>
		<path class="st3" d="M20.2,23h1.2v1.3h-1.2V23z"/>
		<path class="st3" d="M17.9,23h1.2v1.3h-1.2V23z"/>
		<path class="st3" d="M20.2,17.8h1.2v1.3h-1.2V17.8z"/>
		<path class="st3" d="M17.9,17.8h1.2v1.3h-1.2V17.8z"/>
		<path class="st3" d="M15.5,17.8h1.2v1.3h-1.2V17.8z"/>
	</g>
</g>
</svg>
