<?xml version="1.0" encoding="utf-8"?>
<!-- Generator: Adobe Illustrator 24.1.1, SVG Export Plug-In . SVG Version: 6.00 Build 0)  -->
<svg version="1.1" id="Layer_1" xmlns="http://www.w3.org/2000/svg" xmlns:xlink="http://www.w3.org/1999/xlink" x="0px" y="0px"
	 viewBox="0 0 37 42" style="enable-background:new 0 0 37 42;" xml:space="preserve">
<style type="text/css">
	.st0{fill:#FC6A55;}
	.st1{fill:#EDEDED;}
	.st2{fill:none;stroke:#FC6A55;stroke-miterlimit:10;}
	.st3{fill:#383838;}
	.st4{stroke:#FFFFFF;stroke-width:0.25;stroke-miterlimit:10;}
	.st5{fill:#656D7A;}
	.st6{fill:#FFFFFF;}
	.st7{filter:url(#Adobe_OpacityMaskFilter);}
	.st8{fill-rule:evenodd;clip-rule:evenodd;fill:#FFFFFF;}
	.st9{mask:url(#mask-2_8_);fill-rule:evenodd;clip-rule:evenodd;}
	.st10{filter:url(#Adobe_OpacityMaskFilter_1_);}
	.st11{mask:url(#mask-2_7_);fill-rule:evenodd;clip-rule:evenodd;}
	.st12{filter:url(#Adobe_OpacityMaskFilter_2_);}
	.st13{mask:url(#mask-2_6_);fill-rule:evenodd;clip-rule:evenodd;}
	.st14{filter:url(#Adobe_OpacityMaskFilter_3_);}
	.st15{mask:url(#mask-2_5_);fill-rule:evenodd;clip-rule:evenodd;}
	.st16{filter:url(#Adobe_OpacityMaskFilter_4_);}
	.st17{mask:url(#mask-2_2_);fill:none;stroke:#000000;stroke-width:2;}
	.st18{fill:#B4A3EE;}
	.st19{fill:#434343;}
	.st20{fill:#434343;stroke:#F9F9F9;stroke-width:0.25;stroke-miterlimit:10;}
	.st21{fill:none;stroke:#FC6A55;stroke-width:0.5;stroke-miterlimit:10;}
	.st22{fill:none;stroke:#FC6A55;stroke-width:0.75;stroke-miterlimit:10;}
	.st23{fill:#FC6A55;stroke:#FC6A55;stroke-width:0.5;stroke-miterlimit:10;}
	.st24{opacity:0.153;fill:url(#Path_36_);enable-background:new    ;}
	.st25{opacity:0.1;fill:#590BB2;enable-background:new    ;}
	.st26{fill:#8E8CA8;}
	.st27{fill:#F5F4F9;}
	.st28{fill:#FFD5B8;}
	.st29{fill:#FC8473;}
	.st30{fill:#1C3475;}
	.st31{fill:#DDD9E4;}
	.st32{fill:#828FB3;}
	.st33{opacity:7.584635e-02;fill:url(#Path_37_);enable-background:new    ;}
	.st34{fill:#FFBE92;}
	.st35{fill:#FB8E7F;}
	.st36{fill:#FDB1A6;}
	.st37{fill:#FC806F;}
	.st38{fill:#FFE783;}
	.st39{fill:#104478;}
	.st40{fill:none;stroke:#FFFFFF;stroke-miterlimit:10;}
	.st41{fill:none;stroke:#000000;stroke-width:0.15;stroke-miterlimit:10;}
	.st42{opacity:0.1;fill:url(#Path_38_);enable-background:new    ;}
	.st43{opacity:0.1;fill:url(#Path_39_);enable-background:new    ;}
	.st44{fill-rule:evenodd;clip-rule:evenodd;fill:#FC6A55;}
	.st45{fill-rule:evenodd;clip-rule:evenodd;}
	.st46{fill:#FF6757;}
	.st47{fill:#666666;}
	.st48{fill:none;stroke:#FFFFFF;stroke-width:0.5;stroke-miterlimit:10;}
	.st49{fill:#F16A56;}
	.st50{fill:#515252;}
	.st51{fill:#F26A56;}
	.st52{fill:none;stroke:#F16A56;stroke-miterlimit:10;}
	.st53{fill:none;stroke:#929292;stroke-miterlimit:10;}
	.st54{fill:#929292;}
	.st55{fill:none;stroke:#000000;stroke-width:0.5;stroke-miterlimit:10;}
	.st56{fill:#A8A7A7;}
	.st57{fill:#F79F91;}
	.st58{fill:#9BDBD5;}
	.st59{fill:#222121;}
</style>
<g>
	<g>
		<g>
			<g>
				<path class="st3" d="M11.3,20.9H5c-0.6,0-1,0.5-1,1v4.4c0,0.6,0.5,1,1,1h6.3c0.6,0,1-0.5,1-1v-4.4
					C12.4,21.4,11.9,20.9,11.3,20.9z M10.3,25.3H6v-2.4h4.3V25.3z"/>
			</g>
		</g>
		<g>
			<g>
				<path class="st3" d="M36,18.3l-2.2-0.2c-0.3-0.9-0.6-1.7-1.1-2.5l1.4-1.7c0.3-0.4,0.3-1-0.1-1.4l-2.7-2.7
					c-0.4-0.4-1-0.4-1.4-0.1l-1.7,1.4c-0.8-0.4-1.6-0.8-2.5-1.1l-0.2-2.2c-0.1-0.5-0.5-0.9-1-0.9h-3.5V3.9c0-0.6-0.5-1-1-1
					s-1,0.5-1,1v1.8H8.9c-1.6,0-2.9,1-3.5,2.4l-3.1,8.3c0,0,0,0,0,0l-0.8,0.7c-1,1-1.6,2.3-1.6,3.7v12.2c0,2,1.7,3.6,3.7,3.6H6
					c2,0,3.7-1.6,3.7-3.6v-1.6h9.4v6.5c0,0.6,0.5,1,1,1s1-0.5,1-1v-2.5h3.5c0.5,0,1-0.4,1-0.9l0.2-2.2c0.9-0.3,1.7-0.6,2.5-1.1
					l1.7,1.4c0.4,0.3,1,0.3,1.4-0.1l2.7-2.7c0.4-0.4,0.4-1,0.1-1.4L32.8,27c0.4-0.8,0.8-1.6,1.1-2.5l2.2-0.2c0.5-0.1,0.9-0.5,0.9-1
					v-3.9C37,18.8,36.6,18.4,36,18.3z M7.7,33.1c0,0.9-0.8,1.6-1.7,1.6H3.7C2.8,34.7,2,34,2,33.1v-1.9c0.5,0.2,1.1,0.4,1.7,0.4h3.9
					V33.1z M19.1,21.8h-3.2c-0.6,0-1,0.5-1,1s0.5,1,1,1h3.2v0.5h-3.2c-0.6,0-1,0.5-1,1s0.5,1,1,1h3.2v3.1H3.7
					c-0.9,0-1.7-0.7-1.7-1.6v-7c0-0.8,0.4-1.6,1-2.2l0.9-0.9h15.2L19.1,21.8L19.1,21.8z M8.5,15.8c0.4-1.6,2-2.9,3.8-2.9
					s3.3,1.3,3.8,2.9H8.5z M19.1,15.8h-1c-0.5-2.8-2.9-5-5.9-5s-5.4,2.2-5.9,5H4.8l2.6-6.9c0.2-0.7,0.9-1.1,1.6-1.1h10.2V15.8z
					 M21.1,17c2.4-0.8,5,0.4,5.8,2.8s-0.4,5-2.8,5.8c-1,0.3-2.1,0.3-3,0V17z M34.9,22.3L34.9,22.3l-2,0.2c-0.4,0-0.8,0.4-0.9,0.8
					c-0.3,1.1-0.7,2.2-1.4,3.2c-0.2,0.4-0.2,0.9,0.1,1.2l1.2,1.5l-1.4,1.4l-1.5-1.2c-0.3-0.3-0.8-0.3-1.2-0.1
					c-1,0.6-2.1,1.1-3.2,1.3c-0.4,0.1-0.8,0.5-0.8,0.9l-0.2,2h-2.6v-5.8c3.6,0.8,7.1-1.4,8-4.9c0.8-3.5-1.4-7.1-4.9-8
					c-1-0.2-2-0.2-3,0V9h2.5l0.2,2c0,0.4,0.4,0.8,0.8,0.9c1.1,0.3,2.2,0.7,3.2,1.3c0.4,0.2,0.9,0.2,1.2-0.1l1.5-1.2l1.4,1.4
					l-1.3,1.5c-0.3,0.3-0.3,0.8-0.1,1.2c0.6,1,1.1,2.1,1.3,3.2c0.1,0.4,0.5,0.8,0.9,0.8l2,0.2L34.9,22.3L34.9,22.3z"/>
			</g>
		</g>
	</g>
</g>
</svg>
