<?xml version="1.0" encoding="utf-8"?>
<!-- Generator: Adobe Illustrator 24.1.1, SVG Export Plug-In . SVG Version: 6.00 Build 0)  -->
<svg version="1.1" id="Layer_1" xmlns="http://www.w3.org/2000/svg" xmlns:xlink="http://www.w3.org/1999/xlink" x="0px" y="0px"
	 viewBox="0 0 37 42" style="enable-background:new 0 0 37 42;" xml:space="preserve">
<style type="text/css">
	.st0{fill:#FC6A55;}
	.st1{fill:#EDEDED;}
	.st2{fill:none;stroke:#FC6A55;stroke-miterlimit:10;}
	.st3{fill:#383838;}
	.st4{stroke:#FFFFFF;stroke-width:0.25;stroke-miterlimit:10;}
	.st5{fill:#656D7A;}
	.st6{fill:#FFFFFF;}
	.st7{filter:url(#Adobe_OpacityMaskFilter);}
	.st8{fill-rule:evenodd;clip-rule:evenodd;fill:#FFFFFF;}
	.st9{mask:url(#mask-2_8_);fill-rule:evenodd;clip-rule:evenodd;}
	.st10{filter:url(#Adobe_OpacityMaskFilter_1_);}
	.st11{mask:url(#mask-2_7_);fill-rule:evenodd;clip-rule:evenodd;}
	.st12{filter:url(#Adobe_OpacityMaskFilter_2_);}
	.st13{mask:url(#mask-2_6_);fill-rule:evenodd;clip-rule:evenodd;}
	.st14{filter:url(#Adobe_OpacityMaskFilter_3_);}
	.st15{mask:url(#mask-2_5_);fill-rule:evenodd;clip-rule:evenodd;}
	.st16{filter:url(#Adobe_OpacityMaskFilter_4_);}
	.st17{mask:url(#mask-2_2_);fill:none;stroke:#000000;stroke-width:2;}
	.st18{fill:#B4A3EE;}
	.st19{fill:#434343;}
	.st20{fill:#434343;stroke:#F9F9F9;stroke-width:0.25;stroke-miterlimit:10;}
	.st21{fill:none;stroke:#FC6A55;stroke-width:0.5;stroke-miterlimit:10;}
	.st22{fill:none;stroke:#FC6A55;stroke-width:0.75;stroke-miterlimit:10;}
	.st23{fill:#FC6A55;stroke:#FC6A55;stroke-width:0.5;stroke-miterlimit:10;}
	.st24{opacity:0.153;fill:url(#Path_36_);enable-background:new    ;}
	.st25{opacity:0.1;fill:#590BB2;enable-background:new    ;}
	.st26{fill:#8E8CA8;}
	.st27{fill:#F5F4F9;}
	.st28{fill:#FFD5B8;}
	.st29{fill:#FC8473;}
	.st30{fill:#1C3475;}
	.st31{fill:#DDD9E4;}
	.st32{fill:#828FB3;}
	.st33{opacity:7.584635e-02;fill:url(#Path_37_);enable-background:new    ;}
	.st34{fill:#FFBE92;}
	.st35{fill:#FB8E7F;}
	.st36{fill:#FDB1A6;}
	.st37{fill:#FC806F;}
	.st38{fill:#FFE783;}
	.st39{fill:#104478;}
	.st40{fill:none;stroke:#FFFFFF;stroke-miterlimit:10;}
	.st41{fill:none;stroke:#000000;stroke-width:0.15;stroke-miterlimit:10;}
	.st42{opacity:0.1;fill:url(#Path_38_);enable-background:new    ;}
	.st43{opacity:0.1;fill:url(#Path_39_);enable-background:new    ;}
	.st44{fill-rule:evenodd;clip-rule:evenodd;fill:#FC6A55;}
	.st45{fill-rule:evenodd;clip-rule:evenodd;}
	.st46{fill:#FF6757;}
	.st47{fill:#666666;}
	.st48{fill:none;stroke:#FFFFFF;stroke-width:0.5;stroke-miterlimit:10;}
	.st49{fill:#F16A56;}
	.st50{fill:#515252;}
	.st51{fill:#F26A56;}
	.st52{fill:none;stroke:#F16A56;stroke-miterlimit:10;}
	.st53{fill:none;stroke:#929292;stroke-miterlimit:10;}
	.st54{fill:#929292;}
	.st55{fill:none;stroke:#000000;stroke-width:0.5;stroke-miterlimit:10;}
	.st56{fill:#A8A7A7;}
	.st57{fill:#F79F91;}
	.st58{fill:#9BDBD5;}
	.st59{fill:#222121;}
</style>
<g>
	<g>
		<path class="st3" d="M18.8,0c-0.3,0-0.6,0.3-0.6,0.6v0.8c0,0.3,0.3,0.6,0.6,0.6c0.3,0,0.6-0.3,0.6-0.6V0.6C19.4,0.3,19.1,0,18.8,0
			z"/>
	</g>
</g>
<g>
	<g>
		<path class="st3" d="M15.7,2.5l-0.6-0.6c-0.2-0.2-0.6-0.2-0.9,0c-0.2,0.2-0.2,0.6,0,0.9l0.6,0.6c0.1,0.1,0.3,0.2,0.4,0.2
			s0.3-0.1,0.4-0.2C16,3.1,16,2.7,15.7,2.5z"/>
	</g>
</g>
<g>
	<g>
		<path class="st3" d="M13.8,5H13c-0.3,0-0.6,0.3-0.6,0.6c0,0.3,0.3,0.6,0.6,0.6h0.8c0.3,0,0.6-0.3,0.6-0.6S14.2,5,13.8,5z"/>
	</g>
</g>
<g>
	<g>
		<path class="st3" d="M24.6,5h-0.8c-0.3,0-0.6,0.3-0.6,0.6s0.3,0.6,0.6,0.6h0.8c0.3,0,0.6-0.3,0.6-0.6S24.9,5,24.6,5z"/>
	</g>
</g>
<g>
	<g>
		<path class="st3" d="M23.3,1.9c-0.2-0.2-0.6-0.2-0.9,0l-0.6,0.6c-0.2,0.2-0.2,0.6,0,0.9c0.1,0.1,0.3,0.2,0.4,0.2s0.3-0.1,0.4-0.2
			l0.6-0.6C23.6,2.5,23.6,2.1,23.3,1.9z"/>
	</g>
</g>
<g>
	<g>
		<path class="st3" d="M35.7,31.7C35.7,31.6,35.7,31.6,35.7,31.7C35.7,31.6,35.7,31.6,35.7,31.7C35.7,31.6,35.7,31.6,35.7,31.7
			l-1.1-5.3c0,0,0,0,0,0l-1.1-5.2c0,0,0,0,0,0l-1.1-5.2c-0.1-0.3-0.3-0.5-0.6-0.5H5.2c-0.3,0-0.5,0.2-0.6,0.5l-1.1,5.2c0,0,0,0,0,0
			l-1.1,5.2c0,0,0,0,0,0l-1.1,5.2c0,0,0,0,0,0.1c0,0,0,0,0,0c0,0,0,0,0,0v2.5c0,0.3,0.3,0.6,0.6,0.6h14.7v3.5h-4.8
			c-0.3,0-0.6,0.3-0.6,0.6v1.9h-6c-0.3,0-0.6,0.3-0.6,0.6c0,0.3,0.3,0.6,0.6,0.6h6.6h13.3h6.6c0.3,0,0.6-0.3,0.6-0.6
			c0-0.3-0.3-0.6-0.6-0.6h-6v-1.9c0-0.3-0.3-0.6-0.6-0.6h-4.8v-3.5h14.7c0.3,0,0.6-0.3,0.6-0.6L35.7,31.7
			C35.7,31.7,35.7,31.7,35.7,31.7L35.7,31.7C35.7,31.7,35.7,31.7,35.7,31.7z M34.3,31.1h-9.7l-0.3-4h9.1L34.3,31.1z M32.4,21.8
			l0.8,4h-9l-0.3-4H32.4z M31.3,16.6l0.8,4h-8.2l-0.3-4H31.3z M14.7,16.6h7.7l0.3,4h-8.2L14.7,16.6z M14.3,21.8h8.4l0.3,4h-9
			L14.3,21.8z M13.9,27.1h9.2l0.3,4h-9.7L13.9,27.1z M5.7,16.6h7.7l-0.3,4H4.9L5.7,16.6z M4.6,21.8H13l-0.3,4h-9L4.6,21.8z
			 M24.5,39.5v1.2h-12v-1.2h4.8h2.5H24.5z M17.9,38.3v-3.5h1.2v3.5H17.9z M19.8,33.5C19.7,33.5,19.7,33.5,19.8,33.5l-2.5,0
			c0,0,0,0,0,0H2.5v-1.2h3c0.3,0,0.6-0.3,0.6-0.6c0-0.3-0.3-0.6-0.6-0.6H2.7l0.8-4h9.1l-0.3,4H8.2h0c-0.3,0-0.6,0.3-0.6,0.6
			c0,0.3,0.3,0.6,0.6,0.6h0H13c0,0,0,0,0,0c0,0,0,0,0,0H24c0,0,0,0,0,0c0,0,0,0,0,0h10.4v1.2L19.8,33.5L19.8,33.5z"/>
	</g>
</g>
<path class="st6" d="M25.8,15.9c-0.2,0-0.3,0.2-0.3,0.3c-0.2,0.6-0.4,1.1-0.7,1.7c-0.1,0.1-0.1,0.3,0,0.4l1.1,1.8l-1.6,1.6l-1.8-1.1
	c-0.1-0.1-0.3-0.1-0.4,0c-0.5,0.3-1.1,0.5-1.7,0.7c-0.2,0-0.3,0.2-0.3,0.3l-0.5,2h-2.2l-0.5-2c0-0.2-0.2-0.3-0.3-0.3
	c-0.6-0.2-1.1-0.4-1.7-0.7c-0.1-0.1-0.3-0.1-0.4,0l-1.8,1.1l-1.6-1.6l1.1-1.8c0.1-0.1,0.1-0.3,0-0.4c-0.3-0.5-0.5-1.1-0.7-1.7
	c0-0.2-0.2-0.3-0.3-0.3l-2-0.5v-2.2l2-0.5c0.2,0,0.3-0.2,0.3-0.3c0.2-0.6,0.4-1.1,0.7-1.7c0.1-0.1,0.1-0.3,0-0.4l-1.1-1.8L12.8,7
	l0.9,0.5c0,0.2-0.1,0.4-0.1,0.7l0,0c0,0,0,0,0,0c0,0,0,0,0,0c0,0,0,0,0,0c0,0,0,0,0,0c0,0,0,0,0,0c0,0.5,11.2,7.5,11,7.5
	c-0.2-0.1-0.5,0.1-0.5,0.3c-0.8,2.4-3,4-5.5,4c-3.2,0-5.8-2.6-5.8-5.8c0-1.4,0.5-2.7,1.4-3.7c0.1,0.2,0.3,0.5,0.4,0.7
	c-0.7,0.9-1,1.9-1,3c0,1.2,0.4,2.3,1.2,3.2c0.6,0.7,1.3,1.2,2.2,1.5c0,0,1.4,0.3,1.6,0.3c0,0,0.1,0,0.1,0c0.5,0,1.5-0.3,1.5-0.3
	c0.8-0.3,3.4-9.6,3.4-10.7c0,0,0,0,0,0c0,0,0,0,0,0c0,0,0,0,0,0c0,0,0,0,0,0c0,0,0,0,0,0c0,0,0,0,0,0c0,0,0,0,0,0
	c0-0.2,0-0.5-0.1-0.7L24.3,7l1.6,1.6l-1.1,1.8c-0.1,0.1-0.1,0.3,0,0.4c0.3,0.5,0.5,1.1,0.7,1.7c0,0.2,0.2,0.3,0.3,0.3l2,0.5v2.2h0
	L25.8,15.9z"/>
<g>
	<polygon class="st3" points="16.5,4.2 18.8,2.9 21.1,4.2 21.1,6.9 18.8,8.2 16.5,6.9 16.5,4.2 	"/>
	<path class="st3" d="M14.7,7.8C14.7,7.8,14.7,7.8,14.7,7.8C14.7,7.8,14.7,7.8,14.7,7.8C14.7,7.8,14.7,7.8,14.7,7.8
		c0-0.3,0-0.6,0.1-0.9c0,0,0,0,0,0c0.1-0.6,0.4-1.2,0.8-1.6v1.9c0,0,0,0,0,0.1c0,0.1,0.1,0.2,0.2,0.3c0,0,0,0,0,0l2.7,1.6
		c0,0,0,0,0,0c0.1,0.1,0.2,0.1,0.4,0c0,0,0,0,0,0l2.7-1.6C21.9,7.5,22,7.3,22,7.2V5.3c0.4,0.5,0.7,1,0.8,1.6c0,0,0,0,0,0
		c0.1,0.3,0.1,0.6,0.1,0.8c0,0,0,0,0,0c0,0,0,0,0,0c0,0,0,0,0,0c0,0,0,0,0,0c0,1-0.4,1.9-1,2.7c-0.5,0.5-1.1,1-1.8,1.2
		c-0.2,0.1-0.3,0.2-0.3,0.4c0,0,0,0,0,0v5.6c-0.2,0-0.4,0.1-0.6,0.1v-4c0-0.2-0.2-0.4-0.4-0.4c-0.2,0-0.4,0.2-0.4,0.4v4
		c-0.2,0-0.4-0.1-0.6-0.1v-5.6c0,0,0,0,0,0c0,0,0,0,0,0c0,0,0,0,0,0c0,0,0,0,0,0c0,0,0-0.1,0-0.1c0,0,0,0,0,0c0,0,0,0,0-0.1
		c0-0.1-0.1-0.2-0.3-0.3c-0.3-0.1-0.5-0.2-0.8-0.4c0,0,0,0,0,0c0,0,0,0,0,0c-0.4-0.2-0.7-0.5-1-0.8C15.1,9.8,14.7,8.8,14.7,7.8
		C14.7,7.9,14.7,7.8,14.7,7.8z"/>
	<path class="st3" d="M22.2,11.5c0.5,0.7,0.7,1.5,0.7,2.4c0,1-0.4,1.9-1,2.7c-0.3,0.4-0.8,0.7-1.2,1v-5.1c0,0,0,0,0,0c0,0,0,0,0,0
		c0,0,0,0,0,0c0,0,0,0,0,0c0,0,0,0,0,0c0,0,0,0,0,0c0,0,0,0,0,0c0,0,0,0,0,0c0,0,0,0,0,0c0,0,0,0,0,0c0,0,0,0,0,0c0,0,0,0,0,0
		c0,0,0,0,0,0c0,0,0,0,0,0c0,0,0,0,0,0c0,0,0,0,0,0c0,0,0,0,0,0c0,0,0,0,0,0c0,0,0,0,0,0c0,0,0,0,0,0c0,0,0,0,0,0c0,0,0,0,0,0
		c0,0,0,0,0,0c0,0,0,0,0,0c0,0,0,0,0,0c0,0,0,0,0,0c0,0,0,0,0,0c0,0,0,0,0,0c0,0,0,0,0,0c0,0,0,0,0,0c0,0,0,0,0,0c0,0,0,0,0,0
		c0,0,0,0,0,0c0,0,0,0,0,0c0,0,0,0,0,0c0,0,0,0,0,0c0,0,0,0,0,0c0,0,0,0,0,0c0,0,0,0,0,0c0,0,0,0,0,0c0,0,0,0,0,0c0,0,0,0,0,0
		c0,0,0,0,0,0c0,0,0,0,0,0c0,0,0,0,0,0c0,0,0,0,0,0c0,0,0,0,0,0c0,0,0,0,0,0c0,0,0,0,0.1,0c0,0,0,0,0,0c0,0,0,0,0,0c0,0,0,0,0,0
		c0,0,0,0,0,0c0,0,0,0,0,0c0,0,0,0,0,0c0,0,0,0,0,0c0,0,0,0,0,0c0,0,0,0,0,0c0,0,0,0,0,0c0,0,0,0,0,0c0,0,0,0,0.1,0c0,0,0,0,0,0
		c0,0,0,0,0,0c0,0,0,0,0,0c0,0,0.1,0,0.1-0.1c0,0,0,0,0,0c0,0,0,0,0,0c0,0,0,0,0,0c0,0,0,0,0.1,0c0,0,0,0,0,0c0,0,0,0,0,0
		c0,0,0,0,0,0c0,0,0.1,0,0.1-0.1c0,0,0,0,0,0c0,0,0,0,0,0c0,0,0,0,0,0C22,11.6,22.1,11.6,22.2,11.5C22.1,11.6,22.1,11.6,22.2,11.5
		C22.1,11.5,22.1,11.5,22.2,11.5C22.1,11.5,22.1,11.5,22.2,11.5C22.1,11.5,22.1,11.5,22.2,11.5L22.2,11.5
		C22.1,11.5,22.1,11.5,22.2,11.5C22.2,11.5,22.2,11.5,22.2,11.5z"/>
	<path class="st3" d="M16.9,12.4v5.1c-0.5-0.2-0.9-0.6-1.2-1c-0.6-0.7-1-1.7-1-2.7c0-0.8,0.3-1.7,0.7-2.4c0,0,0,0,0,0c0,0,0,0,0,0
		c0,0,0,0,0,0c0,0,0,0,0,0c0,0,0,0,0,0c0,0,0,0,0,0c0,0,0,0,0,0c0,0,0,0,0,0c0,0,0,0,0,0c0,0,0,0,0,0c0,0,0,0,0,0c0,0,0,0,0,0
		c0,0,0,0,0,0c0,0,0,0,0,0c0,0,0,0,0,0c0,0,0,0,0,0c0,0,0,0,0,0c0,0,0,0,0,0c0,0,0,0,0,0c0,0,0,0,0,0c0,0,0,0,0,0c0,0,0,0,0,0
		c0,0,0,0,0,0c0,0,0,0,0,0c0,0,0,0,0,0c0,0,0,0,0,0c0,0,0,0,0,0c0,0,0,0,0,0c0,0,0,0,0,0c0,0,0,0,0,0c0,0,0,0,0,0c0,0,0,0,0,0
		c0,0,0,0,0,0c0,0,0,0,0,0c0,0,0,0,0,0c0,0,0,0,0,0c0,0,0,0,0,0c0,0,0,0,0,0c0,0,0,0,0,0c0,0,0,0,0,0c0,0,0,0,0,0c0,0,0,0,0,0
		c0,0,0,0,0,0c0,0,0,0,0,0c0,0,0,0,0,0c0,0,0,0,0,0c0,0,0,0,0,0c0,0,0,0,0,0c0,0,0,0,0,0c0,0,0,0,0,0c0,0,0,0,0,0c0,0,0,0,0,0
		c0,0,0,0,0,0c0,0,0,0,0,0c0,0,0,0,0,0c0,0,0,0,0,0c0,0,0,0,0,0c0,0,0,0,0,0c0,0,0,0,0,0c0,0,0,0,0,0c0,0,0,0,0,0c0,0,0,0,0,0
		c0,0,0,0,0,0c0,0,0,0,0,0c0,0,0,0,0,0c0,0,0,0,0,0c0,0,0,0,0,0c0,0,0,0,0,0c0,0,0,0,0,0c0,0,0,0,0,0c0,0,0,0,0,0c0,0,0,0,0,0
		c0,0,0,0,0,0c0,0,0,0,0,0c0,0,0,0,0,0c0,0,0,0,0,0c0,0,0,0,0,0c0,0,0,0,0,0c0,0,0,0,0,0c0,0,0,0,0,0c0,0,0,0,0,0c0,0,0,0,0,0
		c0,0,0,0,0,0c0,0,0,0,0,0c0,0,0,0,0,0c0,0,0,0,0,0c0,0,0,0,0,0c0,0,0,0,0,0c0,0,0,0,0,0c0,0,0,0,0,0c0,0,0,0,0,0
		C16.8,12.4,16.8,12.4,16.9,12.4C16.8,12.4,16.8,12.4,16.9,12.4C16.8,12.4,16.9,12.4,16.9,12.4C16.9,12.4,16.9,12.4,16.9,12.4
		C16.9,12.4,16.9,12.4,16.9,12.4C16.9,12.4,16.9,12.4,16.9,12.4z"/>
	<path class="st3" d="M26,15.4c-0.2,0-0.3,0.2-0.3,0.3c-0.2,0.6-0.4,1.1-0.7,1.7c-0.1,0.1-0.1,0.3,0,0.4l1.1,1.8l-1.6,1.6L22.8,20
		c-0.1-0.1-0.3-0.1-0.4,0c-0.5,0.3-1.1,0.5-1.7,0.7c-0.2,0-0.3,0.2-0.3,0.3l-0.5,2h-2.2l-0.5-2c0-0.2-0.2-0.3-0.3-0.3
		c-0.6-0.2-1.1-0.4-1.7-0.7C15.1,20,15,20,14.8,20l-1.8,1.1l-1.6-1.6l1.1-1.8c0.1-0.1,0.1-0.3,0-0.4c-0.3-0.5-0.5-1.1-0.7-1.7
		c0-0.2-0.2-0.3-0.3-0.3l-2-0.5v-2.2l2-0.5c0.2,0,0.3-0.2,0.3-0.3c0.2-0.6,0.4-1.1,0.7-1.7c0.1-0.1,0.1-0.3,0-0.4l-1.1-1.8l1.6-1.6
		l0.9,0.5c0,0.2-0.1,0.4-0.1,0.7l0,0c0,0,0,0,0,0c0,0,0,0,0,0c0,0,0,0,0,0c0,0,0,0,0,0c0,0,0,0,0,0c0,0,0,0,0,0
		c0,0.5,0.1,0.9,0.2,1.4c-1.2,1.2-1.9,2.9-1.9,4.6c0,3.6,3,6.6,6.6,6.6c1.4,0,2.8-0.4,3.9-1.3c1.1-0.8,1.9-2,2.4-3.3
		c0.1-0.2-0.1-0.5-0.3-0.5s-0.5,0.1-0.5,0.3c-0.8,2.4-3,4-5.5,4c-3.2,0-5.8-2.6-5.8-5.8c0-1.4,0.5-2.7,1.4-3.7
		c0.1,0.2,0.3,0.5,0.4,0.7c-0.7,0.9-1,1.9-1,3c0,1.2,0.4,2.3,1.2,3.2c0.6,0.7,1.3,1.2,2.2,1.5c0,0,0,0,0,0c0.4,0.1,0.7,0.2,1.1,0.2
		c0.2,0,0.3,0,0.5,0c0,0,0.1,0,0.1,0c0.5,0,1-0.1,1.5-0.3c0,0,0,0,0,0c0.8-0.3,1.6-0.8,2.2-1.5c0.8-0.9,1.2-2.1,1.2-3.2
		c0-1.1-0.4-2.1-1-3c0.6-0.9,1-1.9,1-3c0,0,0,0,0,0c0,0,0,0,0,0c0,0,0,0,0,0c0,0,0,0,0,0c0,0,0,0,0,0c0,0,0,0,0,0c0,0,0,0,0,0
		c0-0.2,0-0.5-0.1-0.7l0.9-0.5l1.6,1.6L25,9.9c-0.1,0.1-0.1,0.3,0,0.4c0.3,0.5,0.5,1.1,0.7,1.7c0,0.2,0.2,0.3,0.3,0.3l2,0.5v2.2h0
		L26,15.4z"/>
</g>
</svg>
