<?xml version="1.0" encoding="utf-8"?>
<!-- Generator: Adobe Illustrator 24.0.2, SVG Export Plug-In . SVG Version: 6.00 Build 0)  -->
<svg version="1.1" id="Layer_1" xmlns="http://www.w3.org/2000/svg" xmlns:xlink="http://www.w3.org/1999/xlink" x="0px" y="0px"
	 viewBox="0 0 42.3 42.3" style="enable-background:new 0 0 42.3 42.3;" xml:space="preserve">
<style type="text/css">
	.st0{fill:#FC6A55;}
	.st1{stroke:#FFFFFF;stroke-width:0.25;stroke-miterlimit:10;}
	.st2{fill:#656D7A;}
	.st3{fill:#FFFFFF;}
	.st4{filter:url(#Adobe_OpacityMaskFilter);}
	.st5{fill-rule:evenodd;clip-rule:evenodd;fill:#FFFFFF;}
	.st6{mask:url(#mask-2_8_);fill-rule:evenodd;clip-rule:evenodd;}
	.st7{filter:url(#Adobe_OpacityMaskFilter_1_);}
	.st8{mask:url(#mask-2_7_);fill-rule:evenodd;clip-rule:evenodd;}
	.st9{filter:url(#Adobe_OpacityMaskFilter_2_);}
	.st10{mask:url(#mask-2_6_);fill-rule:evenodd;clip-rule:evenodd;}
	.st11{filter:url(#Adobe_OpacityMaskFilter_3_);}
	.st12{mask:url(#mask-2_5_);fill-rule:evenodd;clip-rule:evenodd;}
	.st13{filter:url(#Adobe_OpacityMaskFilter_4_);}
	.st14{mask:url(#mask-2_2_);fill:none;stroke:#000000;stroke-width:2;}
</style>
<g id="Content_2_">
	<path d="M37.6,30.2c1.2,0,2.1-0.9,2.1-2.1V8.5c0-1.2-0.9-2.1-2.1-2.1h-8.4V3.6c0-1.9-1.6-3.5-3.5-3.5H6.1c-1.9,0-3.5,1.6-3.5,3.5
		v35c0,1.9,1.6,3.5,3.5,3.5h19.6c1.9,0,3.5-1.6,3.5-3.5v-2.8h10.5v-1.4H29.2v-4.2H37.6z M37.6,28.8H15.2c-0.4,0-0.7-0.3-0.7-0.7V12
		h23.8v16.1C38.3,28.5,38,28.8,37.6,28.8z M38.3,8.5v2.1H14.5V8.5c0-0.4,0.3-0.7,0.7-0.7h22.4C38,7.8,38.3,8.1,38.3,8.5z M11.7,1.5
		h8.4v1.4h-8.4V1.5z M27.8,34.4h-1.5c-0.4-1.1-1.6-1.7-2.7-1.3c-0.6,0.2-1.1,0.7-1.3,1.3H18v1.4h4.3c0.4,1.1,1.6,1.7,2.7,1.3
		c0.6-0.2,1.1-0.7,1.3-1.3h1.5v2.8c0,1.2-0.9,2.1-2.1,2.1H6.1c-1.2,0-2.1-0.9-2.1-2.1v-35c0-1.2,0.9-2.1,2.1-2.1h4.2v1.4
		c0,0.8,0.6,1.4,1.4,1.4h8.4c0.8,0,1.4-0.6,1.4-1.4V1.5h4.2c1.2,0,2.1,0.9,2.1,2.1v2.8H15.2c-1.2,0-2.1,0.9-2.1,2.1v19.6
		c0,1.2,0.9,2.1,2.1,2.1h12.6V34.4z M25,35.1c0,0.4-0.3,0.7-0.7,0.7s-0.7-0.3-0.7-0.7s0.3-0.7,0.7-0.7S25,34.7,25,35.1z"/>
	<path d="M15.9,8.5h1.4v1.4h-1.4V8.5z"/>
	<path d="M18.7,8.5h1.4v1.4h-1.4V8.5z"/>
	<path d="M21.5,8.5h1.4v1.4h-1.4V8.5z"/>
	<path d="M28.7,19.3l-2.2-1.5c-0.6-0.4-1.5-0.3-1.9,0.4c-0.2,0.2-0.2,0.5-0.2,0.8v3c0,0.8,0.6,1.4,1.4,1.4c0.3,0,0.5-0.1,0.8-0.2
		l2.2-1.5c0.6-0.4,0.8-1.3,0.4-1.9C29,19.5,28.8,19.4,28.7,19.3L28.7,19.3z M25.7,21.9v-3l2.2,1.5L25.7,21.9z"/>
	<path d="M26.4,14.1c-3.5,0-6.3,2.8-6.3,6.3s2.8,6.3,6.3,6.3s6.3-2.8,6.3-6.3C32.7,16.9,29.9,14.1,26.4,14.1z M26.4,25.3
		c-2.7,0-4.9-2.2-4.9-4.9s2.2-4.9,4.9-4.9s4.9,2.2,4.9,4.9C31.3,23.1,29.1,25.3,26.4,25.3z"/>
	<path d="M15.2,33.7h1.4v2.8h-1.4V33.7z"/>
	<path d="M13.1,33.7h1.4v2.8h-1.4V33.7z"/>
	<path d="M16.6,19.7H18v1.4h-1.4V19.7z"/>
	<path d="M16.6,16.9H18v1.4h-1.4V16.9z"/>
	<path d="M16.6,22.5H18v1.4h-1.4V22.5z"/>
</g>
</svg>
