<?xml version="1.0" encoding="utf-8"?>
<!-- Generator: Adobe Illustrator 24.0.2, SVG Export Plug-In . SVG Version: 6.00 Build 0)  -->
<svg version="1.1" id="Layer_1" xmlns="http://www.w3.org/2000/svg" xmlns:xlink="http://www.w3.org/1999/xlink" x="0px" y="0px"
	 viewBox="0 0 42.3 42.3" style="enable-background:new 0 0 42.3 42.3;" xml:space="preserve">
<style type="text/css">
	.st0{fill:#FC6A55;}
	.st1{stroke:#FFFFFF;stroke-width:0.25;stroke-miterlimit:10;}
	.st2{fill:#656D7A;}
	.st3{fill:#FFFFFF;}
	.st4{filter:url(#Adobe_OpacityMaskFilter);}
	.st5{fill-rule:evenodd;clip-rule:evenodd;fill:#FFFFFF;}
	.st6{mask:url(#mask-2_8_);fill-rule:evenodd;clip-rule:evenodd;}
	.st7{filter:url(#Adobe_OpacityMaskFilter_1_);}
	.st8{mask:url(#mask-2_7_);fill-rule:evenodd;clip-rule:evenodd;}
	.st9{filter:url(#Adobe_OpacityMaskFilter_2_);}
	.st10{mask:url(#mask-2_6_);fill-rule:evenodd;clip-rule:evenodd;}
	.st11{filter:url(#Adobe_OpacityMaskFilter_3_);}
	.st12{mask:url(#mask-2_5_);fill-rule:evenodd;clip-rule:evenodd;}
	.st13{filter:url(#Adobe_OpacityMaskFilter_4_);}
	.st14{mask:url(#mask-2_2_);fill:none;stroke:#000000;stroke-width:2;}
</style>
<g>
	<path d="M21.9,23.5c0.7-0.4,1.2-1.2,1.2-2.1c0-0.9-0.5-1.7-1.3-2.1l-7.1-3.6c-0.9-0.5-1.9-0.7-2.9-0.8c1.1-1,1.9-2.5,1.9-4.1
		c0-3-2.4-5.4-5.4-5.4S2.8,8,2.8,11c0,1.7,0.8,3.2,2,4.2c-2.7,0.6-4.7,3-4.7,5.9v6.8c0,1.9,1.5,3.4,3.4,3.4v8.1
		c0,1.5,1.2,2.7,2.7,2.7c0.8,0,1.5-0.4,2-0.9c0.5,0.6,1.2,0.9,2,0.9c1.5,0,2.7-1.2,2.7-2.7V20.5l6.8,3.1c0.2,0.1,0.5,0.2,0.8,0.2
		l3.1,10.4c-0.7,0.3-1.2,1-1.2,1.8c0,0.8,0.5,1.5,1.2,1.8c-0.3,0.4-0.5,1-0.5,1.6c0,1.5,1.2,2.7,2.7,2.7s2.7-1.2,2.7-2.7
		c0-0.5-0.1-1-0.4-1.4h7.5c-0.2,0.4-0.4,0.9-0.4,1.4c0,1.5,1.2,2.7,2.7,2.7c1.5,0,2.7-1.2,2.7-2.7s-1.2-2.7-2.7-2.7H24.5
		c-0.4,0-0.7-0.3-0.7-0.7s0.3-0.7,0.7-0.7h16.1l1.5-6.6l0-1.5H23L21.9,23.5z M4.2,11c0-2.2,1.8-4.1,4.1-4.1s4.1,1.8,4.1,4.1
		S10.5,15,8.3,15S4.2,13.2,4.2,11z M13.1,19.1h-1.5v20.3c0,0.7-0.6,1.4-1.4,1.4c-0.7,0-1.4-0.6-1.4-1.4V26.5H7.6v12.9
		c0,0.7-0.6,1.4-1.4,1.4s-1.4-0.6-1.4-1.4V19.8H3.5v10.2c-1.1,0-2-0.9-2-2v-6.8c0-2.6,2.1-4.7,4.7-4.7h5.2c0.9,0,1.9,0.2,2.7,0.6
		l7.1,3.6c0.3,0.2,0.5,0.5,0.5,0.9c0,0.5-0.4,1-1,1c-0.1,0-0.3,0-0.4-0.1L13.1,19.1z M27.2,39.4c0,0.7-0.6,1.4-1.4,1.4
		s-1.4-0.6-1.4-1.4c0-0.7,0.6-1.4,1.4-1.4S27.2,38.7,27.2,39.4z M39.4,39.4c0,0.7-0.6,1.4-1.4,1.4c-0.7,0-1.4-0.6-1.4-1.4
		c0-0.7,0.6-1.4,1.4-1.4C38.8,38.1,39.4,38.7,39.4,39.4z M40.8,28.6L39.6,34H25l-1.6-5.4H40.8z"/>
	<path d="M32,17.7c4.1,0,7.5-3.3,7.5-7.5S36.1,2.8,32,2.8s-7.5,3.3-7.5,7.5S27.9,17.7,32,17.7z M32,4.2c3.4,0,6.1,2.7,6.1,6.1
		s-2.7,6.1-6.1,6.1c-3.4,0-6.1-2.7-6.1-6.1S28.6,4.2,32,4.2z"/>
	<path d="M32,12.3c-0.4,0-0.7-0.3-0.7-0.7h-1.4c0,0.9,0.6,1.6,1.4,1.9V15h1.4v-1.4H34v-2c0-1.1-0.9-2-2-2c-0.4,0-0.7-0.3-0.7-0.7
		V8.3H32c0.4,0,0.7,0.3,0.7,0.7H34C34,8,33.4,7.3,32.6,7V5.5h-1.4v1.4h-1.4v2c0,1.1,0.9,2,2,2c0.4,0,0.7,0.3,0.7,0.7v0.7H32z"/>
	<path d="M35.4,9.6h1.4V11h-1.4V9.6z"/>
	<path d="M27.2,9.6h1.4V11h-1.4V9.6z"/>
	<path d="M27.2,19.3V27l4.7-2.4l4.7,2.4v-7.7c3.2-1.7,5.4-5.1,5.4-9c0-5.6-4.6-10.2-10.2-10.2S21.8,4.7,21.8,10.3
		C21.8,14.2,24,17.6,27.2,19.3z M28.6,19.9c0.9,0.3,1.8,0.5,2.7,0.6v3l-2.7,1.4V19.9z M35.4,24.8l-2.7-1.4v-3
		c0.9-0.1,1.9-0.3,2.7-0.6V24.8z M32,1.5c4.9,0,8.8,4,8.8,8.8s-4,8.8-8.8,8.8s-8.8-4-8.8-8.8S27.1,1.5,32,1.5z"/>
	<path d="M35.4,29.9h1.4v2.7h-1.4V29.9z"/>
	<path d="M31.3,29.9h1.4v2.7h-1.4V29.9z"/>
	<path d="M27.2,29.9h1.4v2.7h-1.4V29.9z"/>
</g>
</svg>
