<?xml version="1.0" encoding="utf-8"?>
<!-- Generator: Adobe Illustrator 24.0.2, SVG Export Plug-In . SVG Version: 6.00 Build 0)  -->
<svg version="1.1" id="Layer_1" xmlns="http://www.w3.org/2000/svg" xmlns:xlink="http://www.w3.org/1999/xlink" x="0px" y="0px"
	 viewBox="0 0 42.3 42.3" style="enable-background:new 0 0 42.3 42.3;" xml:space="preserve">
<style type="text/css">
	.st0{fill:#FC6A55;}
	.st1{stroke:#FFFFFF;stroke-width:0.25;stroke-miterlimit:10;}
	.st2{fill:#656D7A;}
	.st3{fill:#FFFFFF;}
	.st4{filter:url(#Adobe_OpacityMaskFilter);}
	.st5{fill-rule:evenodd;clip-rule:evenodd;fill:#FFFFFF;}
	.st6{mask:url(#mask-2_8_);fill-rule:evenodd;clip-rule:evenodd;}
	.st7{filter:url(#Adobe_OpacityMaskFilter_1_);}
	.st8{mask:url(#mask-2_7_);fill-rule:evenodd;clip-rule:evenodd;}
	.st9{filter:url(#Adobe_OpacityMaskFilter_2_);}
	.st10{mask:url(#mask-2_6_);fill-rule:evenodd;clip-rule:evenodd;}
	.st11{filter:url(#Adobe_OpacityMaskFilter_3_);}
	.st12{mask:url(#mask-2_5_);fill-rule:evenodd;clip-rule:evenodd;}
	.st13{filter:url(#Adobe_OpacityMaskFilter_4_);}
	.st14{mask:url(#mask-2_2_);fill:none;stroke:#000000;stroke-width:2;}
</style>
<g>
	<g>
		<g>
			<path d="M13,21H5.8c-0.6,0-1.2,0.5-1.2,1.2v5c0,0.6,0.5,1.2,1.2,1.2H13c0.6,0,1.2-0.5,1.2-1.2v-5C14.2,21.5,13.6,21,13,21z
				 M11.8,26H7v-2.7h4.9V26z"/>
		</g>
	</g>
	<g>
		<g>
			<path d="M41,18.1l-2.5-0.2c-0.3-1-0.7-2-1.2-2.9l1.6-1.9c0.4-0.5,0.3-1.1-0.1-1.6l-3.1-3.1C35.3,8,34.7,8,34.2,8.4l-1.9,1.6
				c-0.9-0.5-1.9-0.9-2.8-1.2l-0.2-2.5c-0.1-0.6-0.6-1-1.1-1h-3.9V1.7c0-0.6-0.5-1.2-1.2-1.2c-0.6,0-1.2,0.5-1.2,1.2v2.1H10.2
				c-1.8,0-3.3,1.1-3.9,2.8L2.8,16c0,0,0,0,0,0l-0.9,0.8c-1.1,1.1-1.8,2.6-1.8,4.2v13.9c0,2.3,1.9,4.1,4.2,4.1h2.5
				c2.3,0,4.2-1.8,4.2-4.1v-1.8h10.7v7.4c0,0.6,0.5,1.2,1.2,1.2s1.2-0.5,1.2-1.2v-2.8h3.9c0.6,0,1.1-0.5,1.2-1.1l0.2-2.5
				c1-0.3,1.9-0.7,2.9-1.2l1.9,1.6c0.5,0.4,1.1,0.3,1.6-0.1l3.1-3.1c0.4-0.4,0.5-1.1,0.1-1.6l-1.6-1.9c0.5-0.9,0.9-1.9,1.2-2.8
				l2.4-0.2c0.6-0.1,1.1-0.6,1.1-1.2v-4.4C42.1,18.7,41.6,18.2,41,18.1z M8.8,34.9c0,1-0.9,1.8-1.9,1.8H4.4c-1,0-1.9-0.8-1.9-1.8
				v-2.2C3,33,3.7,33.1,4.4,33.1h4.5V34.9z M21.8,22.1h-3.6c-0.6,0-1.2,0.5-1.2,1.2c0,0.6,0.5,1.2,1.2,1.2h3.6V25h-3.6
				c-0.6,0-1.2,0.5-1.2,1.2c0,0.6,0.5,1.2,1.2,1.2h3.6v3.5H4.4c-1,0-1.9-0.8-1.9-1.8V21c0-0.9,0.4-1.8,1.1-2.5l1-1h17.2L21.8,22.1
				L21.8,22.1z M9.7,15.2c0.5-1.9,2.3-3.3,4.3-3.3s3.8,1.5,4.3,3.3H9.7z M21.8,15.2h-1.1c-0.6-3.1-3.3-5.6-6.7-5.6s-6.1,2.5-6.7,5.6
				H5.6l2.9-7.8c0.3-0.7,1-1.2,1.8-1.2h11.6V15.2z M24.1,16.6c2.7-1,5.7,0.5,6.6,3.2c1,2.7-0.5,5.7-3.2,6.6c-1.1,0.4-2.3,0.4-3.5,0
				V16.6z M39.8,22.6L39.8,22.6l-2.2,0.2c-0.5,0-0.9,0.4-1,0.9c-0.3,1.3-0.8,2.5-1.5,3.6c-0.3,0.4-0.2,1,0.1,1.4l1.4,1.7l-1.6,1.6
				l-1.7-1.4c-0.4-0.3-1-0.4-1.4-0.1c-1.1,0.7-2.3,1.3-3.6,1.5c-0.5,0.1-0.9,0.5-0.9,1L27,35.4h-2.9v-6.6c4,1,8.1-1.6,9-5.6
				c1-4-1.6-8.1-5.6-9c-1.1-0.3-2.3-0.3-3.4,0V7.6H27l0.2,2.2c0,0.5,0.4,0.9,0.9,1c1.3,0.3,2.5,0.8,3.6,1.5c0.4,0.3,1,0.2,1.4-0.1
				l1.7-1.4l1.6,1.6L35,14.2c-0.3,0.4-0.4,1-0.1,1.4c0.7,1.1,1.3,2.3,1.5,3.6c0.1,0.5,0.5,0.9,1,0.9l2.3,0.2L39.8,22.6L39.8,22.6z"
				/>
		</g>
	</g>
</g>
</svg>
