<?xml version="1.0" encoding="utf-8"?>
<!-- Generator: Adobe Illustrator 24.0.2, SVG Export Plug-In . SVG Version: 6.00 Build 0)  -->
<svg version="1.1" id="Layer_1" xmlns="http://www.w3.org/2000/svg" xmlns:xlink="http://www.w3.org/1999/xlink" x="0px" y="0px"
	 viewBox="0 0 31 31" style="enable-background:new 0 0 31 31;" xml:space="preserve">
<style type="text/css">
	.st0{fill:#FC6A55;}
	.st1{stroke:#FFFFFF;stroke-width:0.25;stroke-miterlimit:10;}
	.st2{fill:#656D7A;}
	.st3{fill:#FFFFFF;}
</style>
<g>
	<path class="st0" d="M0,15h3.3V16H0V15z"/>
	<path class="st0" d="M27.7,15H31V16h-3.3V15z"/>
	<path class="st0" d="M15,27.7H16V31H15V27.7z"/>
	<path class="st0" d="M28.8,13.2l0.9-0.2c-0.5-3.1-2.1-5.9-4.4-8.1l-0.6,0.7C26.8,7.6,28.3,10.3,28.8,13.2z"/>
	<path class="st0" d="M24.5,4.3c-1.9-1.5-4.1-2.6-6.5-3l-0.2,0.9C20.1,2.6,22.2,3.6,24,5L24.5,4.3z"/>
	<path class="st0" d="M13.2,2.2L13,1.3C7.1,2.4,2.4,7.1,1.3,13l0.9,0.2C3.2,7.6,7.6,3.2,13.2,2.2z"/>
	<path class="st0" d="M17.8,28.8l0.2,0.9c5.9-1,10.6-5.7,11.7-11.7l-0.9-0.2C27.8,23.4,23.4,27.8,17.8,28.8z"/>
	<path class="st0" d="M2.2,17.8L1.3,18c1,5.9,5.7,10.6,11.7,11.7l0.2-0.9C7.6,27.8,3.2,23.4,2.2,17.8z"/>
	<path class="st0" d="M15,0H16v3.3H15V0z"/>
	<path class="st0" d="M7.5,6.7l0.6-0.6l2.3,2.3L9.9,9L7.5,6.7z"/>
	<path class="st0" d="M22.9,6.1l0.6,0.6L21.2,9l-0.6-0.6L22.9,6.1z"/>
	<path class="st0" d="M9.9,22.3l0.6,0.6l-2.3,2.3l-0.6-0.6L9.9,22.3z"/>
	<path class="st0" d="M20.6,22.9l0.6-0.6l2.3,2.3l-0.6,0.6L20.6,22.9z"/>
	<path class="st0" d="M12.9,12.5c0,0.5,0.2,1,0.4,1.4c-0.7,0.4-1.3,0.9-1.8,1.6c-0.2-0.2-0.5-0.4-0.8-0.6c0.2-0.3,0.3-0.7,0.3-1.1
		V13c0-1.2-1-2.1-2.1-2.1s-2.1,1-2.1,2.1v0.8c0,0.4,0.1,0.8,0.3,1.1c-1.2,0.7-2,1.9-2,3.3v1.1H4.3v0.9h4.5v-0.9H7.9v-1.3H7v1.3H6.1
		v-1.1c0-1.2,0.7-2.2,1.7-2.7C8.2,15.9,8.6,16,9,16c0.4,0,0.8-0.1,1.1-0.3c0.4,0.2,0.7,0.4,1,0.7c-0.2,0.6-0.3,1.1-0.3,1.8v1.3H9.7
		v0.9h17v-0.9h-0.9v-1.1c0-0.5-0.1-1-0.3-1.4l-0.8,0.3c0.1,0.4,0.2,0.7,0.2,1.1v1.1H24v-1.3h-0.9v1.3h-2.9v-1.3
		c0-0.6-0.1-1.2-0.3-1.8c0.3-0.3,0.6-0.6,1-0.7c0.3,0.2,0.7,0.3,1.1,0.3c0.4,0,0.8-0.1,1.1-0.3c0.4,0.2,0.8,0.5,1.1,0.9L25,16
		c-0.3-0.4-0.7-0.8-1.2-1c0.2-0.3,0.3-0.7,0.3-1.1V13c0-1.2-1-2.1-2.1-2.1s-2.1,1-2.1,2.1v0.8c0,0.4,0.1,0.8,0.3,1.1
		c-0.3,0.2-0.5,0.3-0.8,0.6c-0.4-0.7-1.1-1.2-1.8-1.6c0.3-0.4,0.5-0.9,0.5-1.5v-0.1h-0.9v0.1c0,0.9-0.7,1.7-1.7,1.7
		s-1.7-0.7-1.7-1.7v-1.1c0-0.9,0.7-1.7,1.7-1.7s1.7,0.7,1.7,1.7v0h0.9v0c0-1.4-1.2-2.6-2.6-2.6s-2.6,1.2-2.6,2.6V12.5z M10.2,13.9
		c0,0.7-0.5,1.2-1.2,1.2s-1.2-0.5-1.2-1.2V13c0-0.7,0.5-1.2,1.2-1.2s1.2,0.5,1.2,1.2V13.9z M20.8,13c0-0.7,0.5-1.2,1.2-1.2
		s1.2,0.5,1.2,1.2v0.8c0,0.7-0.5,1.2-1.2,1.2s-1.2-0.5-1.2-1.2V13z M14.1,14.6c0.4,0.3,0.9,0.4,1.4,0.4c0.5,0,1-0.2,1.4-0.4
		c1.4,0.6,2.4,2,2.4,3.5v1.3h-1.2v-1.5h-0.9v1.5h-3.3v-1.5h-0.9v1.5h-1.2v-1.3C11.7,16.6,12.7,15.2,14.1,14.6z"/>
	<path class="st0" d="M15,15.9H16v0.9H15V15.9z"/>
	<path class="st0" d="M15,17.7H16v0.9H15V17.7z"/>
</g>
</svg>
