<?xml version="1.0" encoding="utf-8"?>
<!-- Generator: Adobe Illustrator 24.0.2, SVG Export Plug-In . SVG Version: 6.00 Build 0)  -->
<svg version="1.1" id="Layer_1" xmlns="http://www.w3.org/2000/svg" xmlns:xlink="http://www.w3.org/1999/xlink" x="0px" y="0px"
	 viewBox="0 0 18 24" style="enable-background:new 0 0 18 24;" xml:space="preserve">
<style type="text/css">
	.st0{fill:#FC6A55;}
	.st1{stroke:#FFFFFF;stroke-width:0.25;stroke-miterlimit:10;}
	.st2{fill:#656D7A;}
	.st3{fill:#FFFFFF;}
	.st4{filter:url(#Adobe_OpacityMaskFilter);}
	.st5{fill-rule:evenodd;clip-rule:evenodd;fill:#FFFFFF;}
	.st6{mask:url(#mask-2_8_);fill-rule:evenodd;clip-rule:evenodd;}
	.st7{filter:url(#Adobe_OpacityMaskFilter_1_);}
	.st8{mask:url(#mask-2_7_);fill-rule:evenodd;clip-rule:evenodd;}
	.st9{filter:url(#Adobe_OpacityMaskFilter_2_);}
	.st10{mask:url(#mask-2_6_);fill-rule:evenodd;clip-rule:evenodd;}
	.st11{filter:url(#Adobe_OpacityMaskFilter_3_);}
	.st12{mask:url(#mask-2_5_);fill-rule:evenodd;clip-rule:evenodd;}
	.st13{filter:url(#Adobe_OpacityMaskFilter_4_);}
	.st14{mask:url(#mask-2_2_);fill:none;stroke:#000000;stroke-width:2;}
	.st15{fill:#434343;}
	.st16{fill:#434343;stroke:#F9F9F9;stroke-width:0.25;stroke-miterlimit:10;}
	.st17{fill:none;stroke:#FC6A55;stroke-width:0.5;stroke-miterlimit:10;}
	.st18{fill:none;stroke:#FC6A55;stroke-width:0.75;stroke-miterlimit:10;}
	.st19{fill:#FC6A55;stroke:#FC6A55;stroke-width:0.5;stroke-miterlimit:10;}
	.st20{opacity:0.153;fill:url(#Path_146_);enable-background:new    ;}
	.st21{opacity:0.1;fill:#590BB2;enable-background:new    ;}
	.st22{fill:#8E8CA8;}
	.st23{fill:#F5F4F9;}
	.st24{fill:#FFD5B8;}
	.st25{fill:#FC8473;}
	.st26{fill:#1C3475;}
	.st27{fill:#DDD9E4;}
	.st28{fill:#828FB3;}
	.st29{opacity:7.584635e-02;fill:url(#Path_147_);enable-background:new    ;}
	.st30{fill:#FFBE92;}
	.st31{fill:#FB8E7F;}
	.st32{fill:#FDB1A6;}
	.st33{fill:#FC806F;}
	.st34{fill:#FFE783;}
	.st35{fill:#104478;}
	.st36{fill:none;stroke:#FFFFFF;stroke-miterlimit:10;}
	.st37{fill:none;stroke:#FC6A55;stroke-miterlimit:10;}
	.st38{fill:none;stroke:#000000;stroke-width:0.15;stroke-miterlimit:10;}
	.st39{opacity:0.1;fill:url(#Path_148_);enable-background:new    ;}
	.st40{opacity:0.1;fill:url(#Path_149_);enable-background:new    ;}
</style>
<g>
	<path d="M17.6,12.4c-0.9-0.9-2-0.1-2-0.1V7.6c0-0.2-0.1-0.3-0.3-0.3c-0.2,0-0.3,0.1-0.3,0.3v5.2c0,0-1.4,1.1-2,1.4V5.5
		c0-0.4,0.3-0.7,0.7-0.7h0.5c0.4,0,0.7,0.3,0.7,0.7v0.9c0,0.2,0.1,0.3,0.3,0.3c0.2,0,0.3-0.1,0.3-0.3V5.5c0-0.7-0.6-1.3-1.3-1.3
		h-0.5c-0.7,0-1.3,0.6-1.3,1.3v8.9c-0.2,0-0.4,0.1-0.5,0.1V8.3c0-0.7-0.6-1.3-1.3-1.3h-0.5C9.4,7,8.8,7.6,8.8,8.3v3l-0.5,0.3v-1
		C8.2,10,7.7,9.4,7,9.4H6.3c-0.7,0-1.2,0.5-1.2,1.2v2.7l-1,0.5l-2.7,0.8C1,14.7,0.6,15,0.4,15.4c-0.2,0.4-0.3,0.9-0.2,1.4l0.3,1.2
		c0,0.2,0.2,0.2,0.4,0.2c0.2,0,0.2-0.2,0.2-0.4l-0.3-1.2C0.6,16,1,15.3,1.6,15.1l2.4-0.7l1.8,4.9C6,19.6,6,20.6,5,20.9l-1.8,0.4
		c-0.6,0.1-1.3-0.2-1.4-0.9L1.4,19c0-0.2-0.2-0.2-0.4-0.2c-0.2,0-0.2,0.2-0.2,0.4l0.4,1.4C1.4,21.4,2.1,22,2.9,22
		c0.6,0,2.3-0.5,2.3-0.5c0.5-0.1,0.9-0.4,1.2-0.9c0.2-0.4,0.3-0.8,0.2-1.2l6.4-1.6c0.5-0.1,1-0.4,1.5-0.7l3.1-2.6
		C18.4,13.7,17.9,12.7,17.6,12.4z M10.1,7.6h0.5c0.4,0,0.7,0.3,0.7,0.7v6.2l-1.8,0c-0.2,0-0.1-0.1,0-0.1L10,14c0.5-0.4,0.8-1,1-1.7
		c0.1-0.4-0.1-0.9-0.4-1.2c-0.3-0.3-0.8-0.3-1.2-0.1V8.3C9.4,7.9,9.7,7.6,10.1,7.6z M5.7,10.6c0-0.3,0.3-0.6,0.6-0.6H7
		c0.3,0,0.6,0.3,0.6,0.6v1.3l-2,1.1L5.7,10.6L5.7,10.6z M17.1,14.1L14,16.6c-0.4,0.3-0.8,0.5-1.2,0.6l-6.4,1.6l-1.7-4.6l4.9-2.6
		c0.2-0.1,0.4-0.1,0.6,0c0.2,0.1,0.3,0.4,0.2,0.6c-0.1,0.6-0.4,1-0.8,1.3l-0.5,0.4c-0.2,0.2-0.3,0.5-0.2,0.7
		c0.1,0.3,0.3,0.4,0.6,0.4l2.1,0h0c0.8,0,1.5-0.2,2.1-0.7l2.4-1.7c0.3-0.2,0.8-0.2,1.1,0.1C17.3,13,17.6,13.5,17.1,14.1z"/>
	<path d="M4.8,19.5c0-0.6-0.5-1.1-1.1-1.1s-1.1,0.5-1.1,1.1c0,0.6,0.5,1.1,1.1,1.1S4.8,20.1,4.8,19.5z M3.1,19.5
		c0-0.3,0.3-0.6,0.6-0.6c0.3,0,0.6,0.3,0.6,0.6c0,0.3-0.3,0.6-0.6,0.6S3.1,19.8,3.1,19.5z"/>
	<path d="M1.5,11.2l4.2-4.3l1,0.5c0.3,0.2,0.8,0.1,1-0.2l2.3-2.2c0,0-0.1,1.1,0.9,1.1c0.5,0,0.9-0.4,0.9-0.9V2.9c0,0,0,0,0,0
		C11.9,2.3,11.4,2,11,2H8.6C8.1,2,7.7,2.4,7.7,2.9c0,1,1,0.9,1,0.9L7,5.5L6,5C5.7,4.9,5.2,4.9,5,5.2L0.3,9.9c-0.3,0.4-0.3,0.9,0,1.3
		C0.4,11.4,1,11.7,1.5,11.2z M0.7,10.3l4.7-4.7c0.1-0.1,0.2-0.2,0.4-0.1l1.2,0.6c0.1,0.1,0.2,0,0.3,0l2.4-2.3
		c0.1-0.1,0.1-0.2,0.1-0.3c0-0.1-0.2-0.2-0.3-0.2H8.6c-0.2,0-0.3-0.1-0.3-0.3c0-0.2,0.1-0.3,0.3-0.3H11c0.1,0,0.3,0,0.3,0.3
		c0,0,0,0,0,0v2.3c0,0.2-0.1,0.3-0.3,0.3c-0.2,0-0.3-0.1-0.3-0.3V4.4c0-0.1-0.1-0.2-0.2-0.3c-0.1,0-0.2,0-0.3,0.1L7.4,6.9
		C7.3,6.9,7.1,7,7,6.9L5.9,6.3c-0.1-0.1-0.3,0-0.3,0.1l-4.4,4.4c-0.2,0.2-0.4,0.1-0.4,0C0.6,10.7,0.6,10.5,0.7,10.3z"/>
</g>
</svg>
