<?xml version="1.0" encoding="utf-8"?>
<!-- Generator: Adobe Illustrator 24.0.2, SVG Export Plug-In . SVG Version: 6.00 Build 0)  -->
<svg version="1.1" id="Layer_1" xmlns="http://www.w3.org/2000/svg" xmlns:xlink="http://www.w3.org/1999/xlink" x="0px" y="0px"
	 viewBox="0 0 18 24" style="enable-background:new 0 0 18 24;" xml:space="preserve">
<style type="text/css">
	.st0{fill:#FC6A55;}
	.st1{fill:#EDEDED;}
	.st2{fill:none;stroke:#FC6A55;stroke-miterlimit:10;}
	.st3{stroke:#FFFFFF;stroke-width:0.25;stroke-miterlimit:10;}
	.st4{fill:#656D7A;}
	.st5{fill:#FFFFFF;}
	.st6{filter:url(#Adobe_OpacityMaskFilter);}
	.st7{fill-rule:evenodd;clip-rule:evenodd;fill:#FFFFFF;}
	.st8{mask:url(#mask-2_8_);fill-rule:evenodd;clip-rule:evenodd;}
	.st9{filter:url(#Adobe_OpacityMaskFilter_1_);}
	.st10{mask:url(#mask-2_7_);fill-rule:evenodd;clip-rule:evenodd;}
	.st11{filter:url(#Adobe_OpacityMaskFilter_2_);}
	.st12{mask:url(#mask-2_6_);fill-rule:evenodd;clip-rule:evenodd;}
	.st13{filter:url(#Adobe_OpacityMaskFilter_3_);}
	.st14{mask:url(#mask-2_5_);fill-rule:evenodd;clip-rule:evenodd;}
	.st15{filter:url(#Adobe_OpacityMaskFilter_4_);}
	.st16{mask:url(#mask-2_2_);fill:none;stroke:#000000;stroke-width:2;}
	.st17{fill:#434343;}
	.st18{fill:#434343;stroke:#F9F9F9;stroke-width:0.25;stroke-miterlimit:10;}
	.st19{fill:none;stroke:#FC6A55;stroke-width:0.5;stroke-miterlimit:10;}
	.st20{fill:none;stroke:#FC6A55;stroke-width:0.75;stroke-miterlimit:10;}
	.st21{fill:#FC6A55;stroke:#FC6A55;stroke-width:0.5;stroke-miterlimit:10;}
	.st22{opacity:0.153;fill:url(#Path_146_);enable-background:new    ;}
	.st23{opacity:0.1;fill:#590BB2;enable-background:new    ;}
	.st24{fill:#8E8CA8;}
	.st25{fill:#F5F4F9;}
	.st26{fill:#FFD5B8;}
	.st27{fill:#FC8473;}
	.st28{fill:#1C3475;}
	.st29{fill:#DDD9E4;}
	.st30{fill:#828FB3;}
	.st31{opacity:7.584635e-02;fill:url(#Path_147_);enable-background:new    ;}
	.st32{fill:#FFBE92;}
	.st33{fill:#FB8E7F;}
	.st34{fill:#FDB1A6;}
	.st35{fill:#FC806F;}
	.st36{fill:#FFE783;}
	.st37{fill:#104478;}
	.st38{fill:none;stroke:#FFFFFF;stroke-miterlimit:10;}
	.st39{fill:none;stroke:#000000;stroke-width:0.15;stroke-miterlimit:10;}
	.st40{opacity:0.1;fill:url(#Path_148_);enable-background:new    ;}
	.st41{opacity:0.1;fill:url(#Path_149_);enable-background:new    ;}
	.st42{fill-rule:evenodd;clip-rule:evenodd;fill:#FC6A55;}
	.st43{fill-rule:evenodd;clip-rule:evenodd;}
</style>
<g>
	<g>
		<path d="M9.4,5c-0.5-0.4-1,0-1,0v-2c0-0.1-0.1-0.1-0.1-0.1c-0.1,0-0.1,0.1-0.1,0.1v2.2c0,0-0.7,0.5-1,0.6V2.1
			c0-0.2,0.2-0.3,0.4-0.3h0.3c0.2,0,0.4,0.1,0.4,0.3v0.4c0,0.1,0.1,0.1,0.1,0.1c0.1,0,0.1-0.1,0.1-0.1V2.1c0-0.3-0.3-0.6-0.7-0.6
			H7.5c-0.4,0-0.7,0.2-0.7,0.6v3.7c-0.1,0-0.2,0-0.3,0V3.2c0-0.3-0.3-0.6-0.7-0.6H5.6C5.3,2.7,5,2.9,5,3.2v1.2L4.7,4.6V4.2
			c0-0.3-0.3-0.5-0.6-0.5H3.7c-0.3,0-0.6,0.2-0.6,0.5v1.1L2.7,5.5L1.3,5.8C1.1,5.9,0.9,6,0.8,6.2C0.7,6.4,0.6,6.6,0.7,6.8l0.1,0.5
			C0.9,7.3,1,7.4,1,7.4c0.1,0,0.1-0.1,0.1-0.1L1,6.7C0.9,6.4,1.1,6.2,1.4,6.1l1.2-0.3l0.9,2.1C3.6,8,3.6,8.4,3.1,8.5L2.2,8.7
			C1.9,8.8,1.6,8.6,1.5,8.3L1.3,7.7c0-0.1-0.1-0.1-0.2-0.1C1,7.7,1,7.7,1,7.8l0.2,0.6C1.3,8.7,1.7,9,2.1,9c0.3,0,1.1-0.2,1.1-0.2
			c0.3,0,0.5-0.2,0.6-0.4C3.9,8.2,3.9,8,3.9,7.9l3.2-0.7c0.3-0.1,0.5-0.2,0.7-0.3l1.6-1.1C9.8,5.5,9.5,5.1,9.4,5z M5.6,2.9h0.3
			c0.2,0,0.4,0.1,0.4,0.3v2.6l-0.9,0c-0.1,0,0,0,0-0.1l0.3-0.2C5.8,5.4,6,5.2,6.1,4.9c0-0.2,0-0.4-0.2-0.5C5.7,4.3,5.5,4.3,5.3,4.4
			V3.2C5.3,3.1,5.4,2.9,5.6,2.9z M3.4,4.2c0-0.1,0.1-0.3,0.3-0.3h0.4c0.2,0,0.3,0.1,0.3,0.3v0.5l-1,0.4L3.4,4.2L3.4,4.2z M9.1,5.6
			L7.6,6.7C7.4,6.8,7.2,6.9,7,7L3.8,7.6L2.9,5.7l2.5-1.1c0.1,0,0.2,0,0.3,0c0.1,0.1,0.1,0.1,0.1,0.2C5.7,5.1,5.6,5.3,5.4,5.4
			L5.2,5.6C5,5.7,5,5.8,5,5.9c0,0.1,0.2,0.2,0.3,0.2l1.1,0h0c0.4,0,0.7-0.1,1-0.3l1.2-0.7C8.8,5,9,5,9.2,5.1
			C9.3,5.2,9.4,5.4,9.1,5.6z"/>
		<path d="M3,7.9c0-0.3-0.3-0.5-0.6-0.5S1.9,7.7,1.9,7.9c0,0.3,0.3,0.5,0.6,0.5S3,8.2,3,7.9z M2.1,7.9c0-0.1,0.1-0.2,0.3-0.2
			c0.2,0,0.3,0.1,0.3,0.2c0,0.1-0.1,0.2-0.3,0.2C2.3,8.2,2.1,8.1,2.1,7.9z"/>
		<path d="M1.4,4.4l2.1-1.8L4,2.8c0.2,0.1,0.4,0,0.5-0.1l1.2-0.9c0,0,0,0.5,0.4,0.5c0.2,0,0.4-0.2,0.4-0.4V1c0,0,0,0,0,0
			c0-0.3-0.2-0.4-0.4-0.4H4.9C4.7,0.6,4.5,0.8,4.5,1C4.5,1.4,5,1.3,5,1.3L4.1,2.1L3.6,1.8c-0.2-0.1-0.4,0-0.5,0.1l-2.3,2
			c-0.2,0.1-0.2,0.4,0,0.5C0.8,4.5,1.1,4.7,1.4,4.4z M1,4.1l2.3-2c0,0,0.1-0.1,0.2,0l0.6,0.3c0.1,0,0.1,0,0.2,0l1.2-1
			c0,0,0.1-0.1,0-0.1c0,0-0.1-0.1-0.1-0.1H4.9C4.8,1.1,4.8,1,4.8,1c0-0.1,0.1-0.1,0.2-0.1h1.2c0,0,0.2,0,0.2,0.1c0,0,0,0,0,0v1
			c0,0.1-0.1,0.1-0.2,0.1C6,2.1,5.9,2,5.9,2V1.6c0,0,0-0.1-0.1-0.1c-0.1,0-0.1,0-0.2,0L4.3,2.6c0,0-0.1,0-0.2,0L3.5,2.4
			c-0.1,0-0.1,0-0.2,0L1.2,4.3C1.1,4.3,1,4.3,1,4.3C0.9,4.2,0.9,4.1,1,4.1z"/>
	</g>
	<g>
		<path d="M13.4,7.1c-0.2,0-0.3-0.1-0.3-0.3h-0.6c0,0.5,0.4,0.9,0.9,0.9v0.6h0.6V7.6h0.9V6.8c0-0.5-0.4-0.9-0.9-0.9h-0.6
			c-0.2,0-0.3-0.1-0.3-0.3V5.3h0.9c0.2,0,0.3,0.1,0.3,0.3h0.6c0-0.5-0.4-0.9-0.9-0.9V4.2h-0.6v0.6h-0.9v0.9c0,0.5,0.4,0.9,0.9,0.9
			h0.6c0.2,0,0.3,0.1,0.3,0.3v0.3H13.4z"/>
		<path d="M16.8,11.1V10h-6.4v1.2H9.3V21H18v-9.9H16.8z M11,10.5h5.2v0.6H11V10.5z M15.1,17.5v2.9h-2.9v-2.9H15.1z M17.4,20.4h-1.7
			v-2.9h0.6v-0.6H11v0.6h0.6v2.9H9.9v-8.7h7.5V20.4z"/>
		<path d="M13.4,12.3h-2.9V14h2.9V12.3z M12.8,13.5H11v-0.6h1.7V13.5z"/>
		<path d="M16.8,12.3h-2.9V14h2.9V12.3z M16.3,13.5h-1.7v-0.6h1.7V13.5z"/>
		<path d="M13.4,14.6h-2.9v1.7h2.9V14.6z M12.8,15.8H11v-0.6h1.7V15.8z"/>
		<path d="M16.8,14.6h-2.9v1.7h2.9V14.6z M16.3,15.8h-1.7v-0.6h1.7V15.8z"/>
		<path d="M7.5,13.5H1.2v1.2H0V21h8.7v-6.4H7.5V13.5z M1.7,14H7v0.6H1.7V14z M5.8,18.7v1.7H2.9v-1.7H5.8z M8.1,20.4H6.4v-1.7H7v-0.6
			H1.7v0.6h0.6v1.7H0.6v-5.2h7.5V20.4z"/>
		<path d="M4.1,15.8H1.2v1.7h2.9V15.8z M3.5,16.9H1.7v-0.6h1.7V16.9z"/>
		<path d="M7.5,15.8H4.6v1.7h2.9V15.8z M7,16.9H5.2v-0.6H7V16.9z"/>
		<path d="M6.7,8.9l1.7,1.7L11,8c0.6,0.8,1.5,1.3,2.6,1.3c1.8,0,3.2-1.4,3.2-3.2S15.4,3,13.6,3s-3.2,1.4-3.2,3.2
			c0,0.5,0.1,0.9,0.3,1.3L8.4,9.8L6.7,8.1l-4.6,4.6l0.4,0.4L6.7,8.9z M13.6,3.6c1.4,0,2.6,1.2,2.6,2.6s-1.2,2.6-2.6,2.6
			S11,7.6,11,6.2S12.2,3.6,13.6,3.6z"/>
	</g>
</g>
</svg>
