<?xml version="1.0" encoding="utf-8"?>
<!-- Generator: Adobe Illustrator 24.0.2, SVG Export Plug-In . SVG Version: 6.00 Build 0)  -->
<svg version="1.1" id="Layer_1" xmlns="http://www.w3.org/2000/svg" xmlns:xlink="http://www.w3.org/1999/xlink" x="0px" y="0px"
	 viewBox="0 0 18 24" style="enable-background:new 0 0 18 24;" xml:space="preserve">
<style type="text/css">
	.st0{fill:#FC6A55;}
	.st1{fill:#EDEDED;}
	.st2{fill:none;stroke:#FC6A55;stroke-miterlimit:10;}
	.st3{stroke:#FFFFFF;stroke-width:0.25;stroke-miterlimit:10;}
	.st4{fill:#656D7A;}
	.st5{fill:#FFFFFF;}
	.st6{filter:url(#Adobe_OpacityMaskFilter);}
	.st7{fill-rule:evenodd;clip-rule:evenodd;fill:#FFFFFF;}
	.st8{mask:url(#mask-2_8_);fill-rule:evenodd;clip-rule:evenodd;}
	.st9{filter:url(#Adobe_OpacityMaskFilter_1_);}
	.st10{mask:url(#mask-2_7_);fill-rule:evenodd;clip-rule:evenodd;}
	.st11{filter:url(#Adobe_OpacityMaskFilter_2_);}
	.st12{mask:url(#mask-2_6_);fill-rule:evenodd;clip-rule:evenodd;}
	.st13{filter:url(#Adobe_OpacityMaskFilter_3_);}
	.st14{mask:url(#mask-2_5_);fill-rule:evenodd;clip-rule:evenodd;}
	.st15{filter:url(#Adobe_OpacityMaskFilter_4_);}
	.st16{mask:url(#mask-2_2_);fill:none;stroke:#000000;stroke-width:2;}
	.st17{fill:#434343;}
	.st18{fill:#434343;stroke:#F9F9F9;stroke-width:0.25;stroke-miterlimit:10;}
	.st19{fill:none;stroke:#FC6A55;stroke-width:0.5;stroke-miterlimit:10;}
	.st20{fill:none;stroke:#FC6A55;stroke-width:0.75;stroke-miterlimit:10;}
	.st21{fill:#FC6A55;stroke:#FC6A55;stroke-width:0.5;stroke-miterlimit:10;}
	.st22{opacity:0.153;fill:url(#Path_146_);enable-background:new    ;}
	.st23{opacity:0.1;fill:#590BB2;enable-background:new    ;}
	.st24{fill:#8E8CA8;}
	.st25{fill:#F5F4F9;}
	.st26{fill:#FFD5B8;}
	.st27{fill:#FC8473;}
	.st28{fill:#1C3475;}
	.st29{fill:#DDD9E4;}
	.st30{fill:#828FB3;}
	.st31{opacity:7.584635e-02;fill:url(#Path_147_);enable-background:new    ;}
	.st32{fill:#FFBE92;}
	.st33{fill:#FB8E7F;}
	.st34{fill:#FDB1A6;}
	.st35{fill:#FC806F;}
	.st36{fill:#FFE783;}
	.st37{fill:#104478;}
	.st38{fill:none;stroke:#FFFFFF;stroke-miterlimit:10;}
	.st39{fill:none;stroke:#000000;stroke-width:0.15;stroke-miterlimit:10;}
	.st40{opacity:0.1;fill:url(#Path_148_);enable-background:new    ;}
	.st41{opacity:0.1;fill:url(#Path_149_);enable-background:new    ;}
	.st42{fill-rule:evenodd;clip-rule:evenodd;fill:#FC6A55;}
	.st43{fill-rule:evenodd;clip-rule:evenodd;}
</style>
<g>
	<g>
		<path d="M7.8,5.7C7.7,5.8,7.7,6,7.8,6.2c0.1,0.1,0.4,0.1,0.5,0c0.1-0.1,0.1-0.4,0-0.5C8.2,5.5,7.9,5.5,7.8,5.7z"/>
		<path d="M0.3,4c-0.1,0.1-0.1,0.4,0,0.5l1.6,1.6c0.2,0.2,0.6,0.3,0.9,0.3c0.8,1.4,2.2,2.2,3.9,2.2c0.6,0,1.2-0.1,1.7-0.3h3.8
			c0.4,0,0.8-0.2,1.1-0.5l2,2.1c0.5,0.6,1.4,0.6,1.9,0.2c0.6-0.5,0.7-1.4,0.2-1.9c-3.3-4-3.1-3.7-3.1-3.7c-0.6-0.6-1.3-0.9-2.2-0.9
			H7.6c-0.3,0-0.5-0.1-0.7-0.3L6.6,2.8c0.1-0.4,0-0.8-0.2-1.1L4.6,0.1C4.5,0,4.3,0,4.1,0.1L0.3,4z M3.4,6.1l2.7-2.7l0.3,0.3
			C6.8,4,7.2,4.1,7.6,4.1h4.6c0.6,0,1.2,0.2,1.7,0.7L17,8.5c0.2,0.3,0.2,0.7-0.1,1c-0.3,0.2-0.7,0.2-1-0.1c0,0-0.3-0.3-2.3-2.3
			c0-0.1,0-0.1,0-0.2c0-0.8-0.6-1.4-1.4-1.4H9.5c-0.2,0-0.3,0.2-0.3,0.3c0,0.2,0.2,0.3,0.3,0.3h2.8c0.4,0,0.7,0.3,0.7,0.7
			c0,0.4-0.3,0.7-0.7,0.7H8.4c0,0-0.1,0-0.1,0c-0.5,0.2-1,0.3-1.5,0.3C5.3,7.9,4.1,7.3,3.4,6.1z M1,4.2l3.4-3.4l1.4,1.4
			c0.1,0.1,0.1,0.3,0,0.5c-3.1,3.1-2.9,2.9-3,3c-0.1,0.1-0.3,0.1-0.4,0L1,4.2z"/>
	</g>
	<g>
		<path d="M13.3,20.2c0.1,0,0.2,0.1,0.2,0.2H14c0-0.4-0.3-0.7-0.7-0.7v-0.5h-0.5v0.5h-0.7v0.7c0,0.4,0.3,0.7,0.7,0.7h0.5
			c0.1,0,0.2,0.1,0.2,0.2v0.2h-0.7c-0.1,0-0.2-0.1-0.2-0.2h-0.5c0,0.4,0.3,0.7,0.7,0.7v0.5h0.5v-0.5H14v-0.7c0-0.4-0.3-0.7-0.7-0.7
			h-0.5c-0.1,0-0.2-0.1-0.2-0.2v-0.2H13.3z"/>
		<path d="M15.4,19.7L14.3,18l0.8-2.3l-1-0.3V9.3H5c-0.3,0-0.5,0.1-0.7,0.3c-0.1,0-0.1,0-0.2,0H3.2c-0.7,0-1.3,0.6-1.3,1.3
			c0,0.3,0.1,0.6,0.3,0.8c0,0.1,0,0.2,0,0.2c0,0.4,0.3,0.7,0.7,0.7H3C3,12.8,3.1,12.9,3.3,13c-0.1,0.1-0.2,0.2-0.3,0.2l-0.9,0.2
			c-0.6,0.1-1,0.6-1,1.2v1.4h1.9V24H13h0.1h0.1c1.5,0,2.8-1.2,2.8-2.8C15.9,20.7,15.7,20.1,15.4,19.7L15.4,19.7z M13.8,17.8h-1.6
			l-0.6-1.5l1-0.2l0.6,0.9l0.6-1.1l0.5,0.1L13.8,17.8z M13.5,15.6l-0.3,0.5l-0.3-0.5L11.1,16l0.8,2l-0.7,1v-0.4l-0.7-0.2
			c0-0.1-0.1-0.2-0.1-0.2l0.4-0.6l-1.3-1.3l-0.6,0.4c-0.1,0-0.2-0.1-0.2-0.1l-0.2-0.7H6.9v-1.4c0-0.6-0.4-1.1-1-1.2l-0.8-0.2
			c-0.1,0-0.2-0.1-0.3-0.2c0.1-0.1,0.2-0.3,0.3-0.4h0.1c0.4,0,0.7-0.3,0.7-0.7c0-0.2-0.1-0.4-0.2-0.5c0.3-0.2,0.4-0.5,0.4-0.9
			c0-0.3-0.1-0.5-0.2-0.7h7.6L13.5,15.6z M10.2,21.2C10.2,21.2,10.2,21.2,10.2,21.2L9.4,22l-0.5-0.3l-0.1,0.1
			c-0.1,0.1-0.3,0.1-0.4,0.2l-0.1,0l-0.1,0.6H7.1L6.9,22l-0.1,0c-0.1,0-0.3-0.1-0.4-0.2l-0.1-0.1L5.8,22l-0.7-0.7l0.3-0.5l-0.1-0.1
			c-0.1-0.1-0.1-0.3-0.2-0.4l0-0.1L4.5,20V19l0.6-0.1l0-0.1c0-0.1,0.1-0.3,0.2-0.4l0.1-0.1l-0.3-0.5l0.7-0.7l0.5,0.3l0.1-0.1
			c0.1-0.1,0.3-0.1,0.4-0.2l0.1,0l0.1-0.6h1.1L8.3,17l0.1,0c0.1,0,0.3,0.1,0.4,0.2l0.1,0.1l0.5-0.3l0.7,0.7l-0.3,0.5l0.1,0.1
			c0.1,0.1,0.1,0.3,0.2,0.4l0,0.1l0.6,0.1v0.7C10.4,20.2,10.2,20.7,10.2,21.2z M3.3,12.1v-0.5c0-0.1,0.1-0.2,0.2-0.2
			c0.3,0.2,0.7,0.2,1,0.2h0.2v0.5c0,0.4-0.3,0.7-0.7,0.7S3.3,12.5,3.3,12.1z M4.8,13.7C4.9,13.7,4.9,13.7,4.8,13.7l0,0.9l-0.4-0.3
			L4.8,13.7z M5.2,11.7c0.1,0,0.2,0.1,0.2,0.2s-0.1,0.2-0.2,0.2V11.7z M2.6,11.9c0-0.1,0.1-0.2,0.2-0.2v0.5
			C2.7,12.1,2.6,12,2.6,11.9z M3,11.2H2.9c-0.1,0-0.2,0-0.3,0.1c-0.1-0.1-0.1-0.3-0.1-0.4c0-0.5,0.4-0.8,0.8-0.8h0.7
			c-0.1,0.1-0.1,0.3-0.1,0.5h0.5c0-0.4,0.3-0.7,0.7-0.7c0.4,0,0.7,0.3,0.7,0.7S5.4,11.2,5,11.2H4.6c-0.3,0-0.6-0.1-0.9-0.2l-0.1,0
			H3.6C3.4,11,3.2,11.1,3,11.2z M4,13.3c0.1,0,0.2,0,0.4-0.1c0,0,0,0.1,0.1,0.1L4,13.9l-0.4-0.5c0,0,0-0.1,0.1-0.1
			C3.8,13.3,3.9,13.3,4,13.3L4,13.3z M3.2,13.7l0.5,0.6l-0.4,0.3L3.2,13.7C3.2,13.7,3.2,13.7,3.2,13.7L3.2,13.7z M1.7,14.6
			c0-0.3,0.2-0.6,0.6-0.7l0.4-0.1l0.2,1.6L4,14.6l1.1,0.8l0.2-1.6l0.4,0.1c0.3,0.1,0.6,0.4,0.6,0.7v0.9H1.7V14.6z M3.6,23.5v-7.6
			h3.1l-0.2,0.7c-0.1,0-0.2,0.1-0.2,0.1l-0.6-0.4l-1.3,1.3l0.4,0.6c0,0.1-0.1,0.2-0.1,0.2L4,18.6v1.8l0.7,0.2c0,0.1,0.1,0.2,0.1,0.2
			l-0.4,0.6l1.3,1.3l0.6-0.4c0.1,0,0.2,0.1,0.2,0.1l0.2,0.7h1.8l0.2-0.7c0.1,0,0.2-0.1,0.2-0.1l0.6,0.4l0.8-0.8
			c0.2,0.7,0.6,1.3,1.1,1.7L3.6,23.5z M13.1,23.5L13.1,23.5H13c-1.3,0-2.3-1-2.3-2.3c0-0.5,0.1-0.9,0.4-1.3l1.1-1.6h1.6l1.1,1.6
			c0.3,0.4,0.4,0.8,0.4,1.3C15.4,22.5,14.4,23.5,13.1,23.5L13.1,23.5z"/>
		<path d="M7.6,17.4c-1.2,0-2.1,1-2.1,2.1c0,1.2,1,2.1,2.1,2.1s2.1-1,2.1-2.1C9.7,18.3,8.8,17.4,7.6,17.4z M7.6,21.2
			c-0.9,0-1.7-0.7-1.7-1.7c0-0.9,0.7-1.7,1.7-1.7c0.9,0,1.7,0.7,1.7,1.7C9.3,20.4,8.5,21.2,7.6,21.2z"/>
		<path d="M7.6,18.3c-0.7,0-1.2,0.5-1.2,1.2c0,0.7,0.5,1.2,1.2,1.2c0.7,0,1.2-0.5,1.2-1.2C8.8,18.8,8.3,18.3,7.6,18.3z M7.6,20.2
			c-0.4,0-0.7-0.3-0.7-0.7c0-0.4,0.3-0.7,0.7-0.7c0.4,0,0.7,0.3,0.7,0.7C8.3,19.9,8,20.2,7.6,20.2z"/>
		<path d="M13.1,10.3H6.7v2.4h6.4V10.3z M12.6,12.1H7.1v-1.4h5.5V12.1z"/>
		<path d="M7.4,13.1h5.7v0.5H7.4V13.1z"/>
		<path d="M7.4,14h5.7v0.5H7.4V14z"/>
		<path d="M7.4,15h0.5v0.5H7.4V15z"/>
		<path d="M8.3,15h4.7v0.5H8.3V15z"/>
	</g>
</g>
</svg>
