<?xml version="1.0" encoding="utf-8"?>
<!-- Generator: Adobe Illustrator 24.0.2, SVG Export Plug-In . SVG Version: 6.00 Build 0)  -->
<svg version="1.1" id="Layer_1" xmlns="http://www.w3.org/2000/svg" xmlns:xlink="http://www.w3.org/1999/xlink" x="0px" y="0px"
	 viewBox="0 0 18 24" style="enable-background:new 0 0 18 24;" xml:space="preserve">
<style type="text/css">
	.st0{fill:#FC6A55;}
	.st1{fill:#EDEDED;}
	.st2{fill:none;stroke:#FC6A55;stroke-miterlimit:10;}
	.st3{stroke:#FFFFFF;stroke-width:0.25;stroke-miterlimit:10;}
	.st4{fill:#656D7A;}
	.st5{fill:#FFFFFF;}
	.st6{filter:url(#Adobe_OpacityMaskFilter);}
	.st7{fill-rule:evenodd;clip-rule:evenodd;fill:#FFFFFF;}
	.st8{mask:url(#mask-2_8_);fill-rule:evenodd;clip-rule:evenodd;}
	.st9{filter:url(#Adobe_OpacityMaskFilter_1_);}
	.st10{mask:url(#mask-2_7_);fill-rule:evenodd;clip-rule:evenodd;}
	.st11{filter:url(#Adobe_OpacityMaskFilter_2_);}
	.st12{mask:url(#mask-2_6_);fill-rule:evenodd;clip-rule:evenodd;}
	.st13{filter:url(#Adobe_OpacityMaskFilter_3_);}
	.st14{mask:url(#mask-2_5_);fill-rule:evenodd;clip-rule:evenodd;}
	.st15{filter:url(#Adobe_OpacityMaskFilter_4_);}
	.st16{mask:url(#mask-2_2_);fill:none;stroke:#000000;stroke-width:2;}
	.st17{fill:#434343;}
	.st18{fill:#434343;stroke:#F9F9F9;stroke-width:0.25;stroke-miterlimit:10;}
	.st19{fill:none;stroke:#FC6A55;stroke-width:0.5;stroke-miterlimit:10;}
	.st20{fill:none;stroke:#FC6A55;stroke-width:0.75;stroke-miterlimit:10;}
	.st21{fill:#FC6A55;stroke:#FC6A55;stroke-width:0.5;stroke-miterlimit:10;}
	.st22{opacity:0.153;fill:url(#Path_146_);enable-background:new    ;}
	.st23{opacity:0.1;fill:#590BB2;enable-background:new    ;}
	.st24{fill:#8E8CA8;}
	.st25{fill:#F5F4F9;}
	.st26{fill:#FFD5B8;}
	.st27{fill:#FC8473;}
	.st28{fill:#1C3475;}
	.st29{fill:#DDD9E4;}
	.st30{fill:#828FB3;}
	.st31{opacity:7.584635e-02;fill:url(#Path_147_);enable-background:new    ;}
	.st32{fill:#FFBE92;}
	.st33{fill:#FB8E7F;}
	.st34{fill:#FDB1A6;}
	.st35{fill:#FC806F;}
	.st36{fill:#FFE783;}
	.st37{fill:#104478;}
	.st38{fill:none;stroke:#FFFFFF;stroke-miterlimit:10;}
	.st39{fill:none;stroke:#000000;stroke-width:0.15;stroke-miterlimit:10;}
	.st40{opacity:0.1;fill:url(#Path_148_);enable-background:new    ;}
	.st41{opacity:0.1;fill:url(#Path_149_);enable-background:new    ;}
	.st42{fill-rule:evenodd;clip-rule:evenodd;fill:#FC6A55;}
	.st43{fill-rule:evenodd;clip-rule:evenodd;}
</style>
<g>
	<path d="M5.5,7.6c0.2,0,0.3,0.1,0.3,0.3h0.6c0-0.5-0.4-0.9-0.9-0.9V6.5H4.9v0.6H4.1v0.9c0,0.5,0.4,0.9,0.9,0.9h0.6
		c0.2,0,0.3,0.1,0.3,0.3v0.3H4.9c-0.2,0-0.3-0.1-0.3-0.3H4.1c0,0.5,0.4,0.9,0.9,0.9v0.6h0.6V10h0.9V9.1c0-0.5-0.4-0.9-0.9-0.9H4.9
		c-0.2,0-0.3-0.1-0.3-0.3V7.6H5.5z"/>
	<path d="M5.2,16.4h0.6v0.6H5.2V16.4z"/>
	<path d="M5.2,17.5h0.6v0.6H5.2V17.5z"/>
	<path d="M12.8,7.1c-0.2,0-0.4,0.1-0.6,0.2c-0.2-0.1-0.4-0.2-0.6-0.2c-0.6,0-1.2,0.5-1.2,1.2s0.5,1.2,1.2,1.2c0.2,0,0.4-0.1,0.6-0.2
		c0.2,0.1,0.4,0.2,0.6,0.2c0.6,0,1.2-0.5,1.2-1.2S13.4,7.1,12.8,7.1z M11,8.2c0-0.3,0.3-0.6,0.6-0.6c0.1,0,0.1,0,0.1,0
		c-0.1,0.2-0.1,0.4-0.1,0.6c0,0.2,0.1,0.4,0.1,0.6c0,0-0.1,0-0.1,0C11.3,8.8,11,8.5,11,8.2z M12.8,8.8c-0.3,0-0.6-0.3-0.6-0.6
		c0-0.3,0.3-0.6,0.6-0.6s0.6,0.3,0.6,0.6C13.4,8.5,13.1,8.8,12.8,8.8z"/>
	<path d="M12.8,4.7h0.6v0.6h-0.6V4.7z"/>
	<path d="M15.1,10h0.6v0.6h-0.6V10z"/>
	<path d="M16.3,10h0.6v0.6h-0.6V10z"/>
	<path d="M8.7,11.1h0.6v0.6H8.7V11.1z"/>
	<path d="M9.9,11.1h7v0.6h-7V11.1z"/>
	<path d="M9.9,12.3h7v0.6h-7V12.3z"/>
	<path d="M12.8,19.3h0.6v0.6h-0.6V19.3z"/>
	<path d="M11.6,19.3h0.6v0.6h-0.6V19.3z"/>
	<path d="M13.9,19.3h0.6v0.6h-0.6V19.3z"/>
	<path d="M15.1,8.8V5c0-0.8-0.7-1.5-1.5-1.5H7.7L8,3H7C6.6,3,6.4,3.2,6.3,3.4C6.2,3.6,6.2,3.6,6.1,3.6C6,3.6,6,3.6,5.9,3.4
		C5.8,3.2,5.6,3,5.2,3C4.9,3,4.7,3.2,4.6,3.4C4.4,3.6,4.4,3.6,4.4,3.6c-0.1,0-0.1,0-0.2-0.2C4,3.2,3.8,3,3.5,3H2.4l1.3,2.6l-1,1.5
		c-0.3,0.5-0.4,1-0.4,1.5v0.1c0,1.1,0.6,2,1.5,2.5C1.6,12,0,14,0,16.4v2.9h5.2V21h10.3l2.5-2.5V8.8H15.1z M7.9,7.6h0.8v1.2H8.1V8.7
		C8.1,8.3,8.1,8,7.9,7.6z M8.1,9.4h0.6c0.3,0,0.6-0.3,0.6-0.6V7.6c0-0.3-0.3-0.6-0.6-0.6H7.6L7.3,6.5h7.2v2.6c0,0.5-0.4,0.9-0.9,0.9
		H7.9C8,9.8,8,9.6,8.1,9.4z M13.6,4.2c0.4,0,0.7,0.2,0.8,0.6h-0.5v0.6h0.6v0.6H6.9L6.7,5.6l0.1-0.3h5.3V4.7h-5l0.3-0.6H13.6z
		 M3.5,3.6c0.1,0,0.1,0,0.2,0.2C3.8,3.9,4,4.2,4.4,4.2c0.4,0,0.5-0.2,0.7-0.4c0.1-0.1,0.1-0.2,0.2-0.2c0.1,0,0.1,0,0.2,0.2
		c0.1,0.2,0.3,0.4,0.7,0.4c0.4,0,0.5-0.2,0.7-0.4C6.9,3.6,6.9,3.6,7,3.6h0.1L6.2,5.3h-2L3.4,3.6H3.5z M2.9,8.8V8.7
		c0-0.4,0.1-0.9,0.4-1.2l1-1.6h2l1,1.6c0.2,0.4,0.4,0.8,0.4,1.2v0.1c0,1.3-1,2.3-2.3,2.3S2.9,10.1,2.9,8.8z M8.1,14.9v3.8H4.6v-2.2
		c1.3-1.1,2.2-2.6,2.7-4.3c1.5,0.8,2.5,2.3,2.5,4.1v2.3H8.7v-3.8H8.1z M5.2,11.7c0.3,0,0.5,0,0.8,0.1l-0.8,0.9l-0.8-0.9
		C4.7,11.7,5,11.7,5.2,11.7L5.2,11.7z M4.8,13.2l-0.5,0.6C4,13.2,3.8,12.6,3.6,12c0.1,0,0.1,0,0.2-0.1L4.8,13.2z M5.2,13.6l0.6,0.7
		c-0.2,0.3-0.4,0.5-0.6,0.8c-0.2-0.2-0.4-0.5-0.6-0.8L5.2,13.6z M6.1,13.8l-0.5-0.6l1.1-1.2c0.1,0,0.1,0,0.2,0.1
		C6.6,12.6,6.4,13.2,6.1,13.8z M0.6,16.4c0-1.8,1-3.4,2.5-4.1c0.3,1.2,0.9,2.3,1.7,3.3c-0.2,0.2-0.4,0.4-0.6,0.6l-0.2,0.2v2.5H2.3
		v-3.8H1.7v3.8H0.6V16.4z M5.8,19.3h4.6v-2.9c0-2.4-1.6-4.4-3.8-5c0.3-0.2,0.7-0.5,0.9-0.8h6.1c0.7,0,1.3-0.5,1.4-1.2h2.4v8.7h-2.1
		c0.6-0.5,1-1.2,1-2c0-0.5-0.1-0.9-0.3-1.3l1.1-1.1l-0.4-0.4l-1.1,1.1c-0.5-0.5-1.2-0.9-1.9-0.9c-1.4,0-2.6,1.2-2.6,2.6
		s1.2,2.6,2.6,2.6c0.5,0,1-0.2,1.5-0.4v2.2H5.8V19.3z M13.4,17.3l2.1-2.1c0.1,0.3,0.2,0.5,0.2,0.9c0,1.1-0.9,2-2,2s-2-0.9-2-2
		s0.9-2,2-2c0.6,0,1.1,0.3,1.5,0.7l-1.8,1.8l-0.7-0.7l-0.4,0.4L13.4,17.3z M17,18.7L15.7,20v-1.3H17z"/>
</g>
</svg>
