<?xml version="1.0" encoding="utf-8"?>
<!-- Generator: Adobe Illustrator 24.0.2, SVG Export Plug-In . SVG Version: 6.00 Build 0)  -->
<svg version="1.1" id="Layer_1" xmlns="http://www.w3.org/2000/svg" xmlns:xlink="http://www.w3.org/1999/xlink" x="0px" y="0px"
	 viewBox="0 0 18 24" style="enable-background:new 0 0 18 24;" xml:space="preserve">
<style type="text/css">
	.st0{fill:#FC6A55;}
	.st1{fill:#EDEDED;}
	.st2{fill:none;stroke:#FC6A55;stroke-miterlimit:10;}
	.st3{stroke:#FFFFFF;stroke-width:0.25;stroke-miterlimit:10;}
	.st4{fill:#656D7A;}
	.st5{fill:#FFFFFF;}
	.st6{filter:url(#Adobe_OpacityMaskFilter);}
	.st7{fill-rule:evenodd;clip-rule:evenodd;fill:#FFFFFF;}
	.st8{mask:url(#mask-2_8_);fill-rule:evenodd;clip-rule:evenodd;}
	.st9{filter:url(#Adobe_OpacityMaskFilter_1_);}
	.st10{mask:url(#mask-2_7_);fill-rule:evenodd;clip-rule:evenodd;}
	.st11{filter:url(#Adobe_OpacityMaskFilter_2_);}
	.st12{mask:url(#mask-2_6_);fill-rule:evenodd;clip-rule:evenodd;}
	.st13{filter:url(#Adobe_OpacityMaskFilter_3_);}
	.st14{mask:url(#mask-2_5_);fill-rule:evenodd;clip-rule:evenodd;}
	.st15{filter:url(#Adobe_OpacityMaskFilter_4_);}
	.st16{mask:url(#mask-2_2_);fill:none;stroke:#000000;stroke-width:2;}
	.st17{fill:#434343;}
	.st18{fill:#434343;stroke:#F9F9F9;stroke-width:0.25;stroke-miterlimit:10;}
	.st19{fill:none;stroke:#FC6A55;stroke-width:0.5;stroke-miterlimit:10;}
	.st20{fill:none;stroke:#FC6A55;stroke-width:0.75;stroke-miterlimit:10;}
	.st21{fill:#FC6A55;stroke:#FC6A55;stroke-width:0.5;stroke-miterlimit:10;}
	.st22{opacity:0.153;fill:url(#Path_146_);enable-background:new    ;}
	.st23{opacity:0.1;fill:#590BB2;enable-background:new    ;}
	.st24{fill:#8E8CA8;}
	.st25{fill:#F5F4F9;}
	.st26{fill:#FFD5B8;}
	.st27{fill:#FC8473;}
	.st28{fill:#1C3475;}
	.st29{fill:#DDD9E4;}
	.st30{fill:#828FB3;}
	.st31{opacity:7.584635e-02;fill:url(#Path_147_);enable-background:new    ;}
	.st32{fill:#FFBE92;}
	.st33{fill:#FB8E7F;}
	.st34{fill:#FDB1A6;}
	.st35{fill:#FC806F;}
	.st36{fill:#FFE783;}
	.st37{fill:#104478;}
	.st38{fill:none;stroke:#FFFFFF;stroke-miterlimit:10;}
	.st39{fill:none;stroke:#000000;stroke-width:0.15;stroke-miterlimit:10;}
	.st40{opacity:0.1;fill:url(#Path_148_);enable-background:new    ;}
	.st41{opacity:0.1;fill:url(#Path_149_);enable-background:new    ;}
	.st42{fill-rule:evenodd;clip-rule:evenodd;fill:#FC6A55;}
	.st43{fill-rule:evenodd;clip-rule:evenodd;}
</style>
<g id="Page-1_1_">
	<g id="_x30_09---Pay-Bill">
		<path id="Shape_103_" class="st0" d="M13.6,7.3h-2.7V1.6c0-0.3-0.3-0.6-0.6-0.6H2.6C2.3,1,2,1.3,2,1.6v9.5c0,0.1,0.1,0.2,0.1,0.2
			c0.1,0,0.2,0,0.2,0l0.5-0.5l0.5,0.5c0.1,0.1,0.2,0.1,0.3,0l0.5-0.5l0.5,0.5c0.1,0.1,0.2,0.1,0.3,0L5.4,11v1.7
			c0,0.6,0.5,1.1,1.1,1.1h7.2c0.6,0,1.1-0.5,1.1-1.1V8.4C14.7,7.8,14.2,7.3,13.6,7.3z M14.2,8.4v2.5H8.3c-0.1,0-0.2,0.1-0.2,0.2
			s0.1,0.2,0.2,0.2h5.9v0.8H5.8v-0.8h1.1c0.1,0,0.2-0.1,0.2-0.2S7,10.9,6.9,10.9H5.8V8.4c0-0.3,0.3-0.6,0.6-0.6h7.2
			C14,7.8,14.2,8,14.2,8.4z M4.9,10.8l-0.5-0.5c-0.1-0.1-0.2-0.1-0.3,0l-0.5,0.5L3,10.3c-0.1-0.1-0.2-0.1-0.3,0l-0.3,0.3v-9
			c0-0.1,0.1-0.2,0.2-0.2h7.6c0.1,0,0.2,0.1,0.2,0.2v5.7h-4c-0.6,0-1.1,0.5-1.1,1.1v2L4.9,10.8z M13.6,13.2H6.4
			c-0.3,0-0.6-0.3-0.6-0.6h8.4C14.2,13,14,13.2,13.6,13.2z"/>
		<path id="Shape_102_" class="st0" d="M12.3,9.4c0.2,0,0.3-0.1,0.4-0.2c0.3,0.2,0.6,0.2,0.9,0c0.2-0.2,0.2-0.6,0-0.9
			c-0.2-0.2-0.6-0.3-0.9,0c-0.2-0.2-0.5-0.2-0.8-0.1c-0.2,0.1-0.4,0.4-0.3,0.7C11.8,9.3,12.1,9.4,12.3,9.4L12.3,9.4z M13.2,8.6
			c0.1,0,0.2,0.1,0.2,0.2S13.3,9,13.2,9S13,8.9,13,8.8S13.1,8.6,13.2,8.6z M12.3,8.6c0.1,0,0.2,0.1,0.2,0.2S12.5,9,12.3,9
			c-0.1,0-0.2-0.1-0.2-0.2S12.2,8.6,12.3,8.6z"/>
		<path id="Shape_101_" class="st0" d="M6.6,9.4h0.2c0.1,0,0.2-0.1,0.2-0.2S7,9,6.9,9H6.6C6.5,9,6.4,9.1,6.4,9.2S6.5,9.4,6.6,9.4z"
			/>
		<path id="Shape_100_" class="st0" d="M7.7,9.4h0.6c0.1,0,0.2-0.1,0.2-0.2S8.4,9,8.3,9H7.7C7.6,9,7.5,9.1,7.5,9.2S7.6,9.4,7.7,9.4z
			"/>
		<path id="Shape_99_" class="st0" d="M9,9.9H6.6c-0.1,0-0.2,0.1-0.2,0.2s0.1,0.2,0.2,0.2H9c0.1,0,0.2-0.1,0.2-0.2S9.1,9.9,9,9.9z"
			/>
		<circle id="Oval_20_" class="st0" cx="3.1" cy="2.1" r="0.2"/>
		<circle id="Oval_19_" class="st0" cx="3.9" cy="2.1" r="0.2"/>
		<circle id="Oval_18_" class="st0" cx="4.7" cy="2.1" r="0.2"/>
		<circle id="Oval_17_" class="st0" cx="5.6" cy="2.1" r="0.2"/>
		<circle id="Oval_16_" class="st0" cx="6.4" cy="2.1" r="0.2"/>
		<circle id="Oval_15_" class="st0" cx="7.3" cy="2.1" r="0.2"/>
		<circle id="Oval_14_" class="st0" cx="8.1" cy="2.1" r="0.2"/>
		<circle id="Oval_13_" class="st0" cx="9" cy="2.1" r="0.2"/>
		<circle id="Oval_12_" class="st0" cx="9.8" cy="2.1" r="0.2"/>
		<path id="Shape_98_" class="st0" d="M5.2,3.7h2.3c0.1,0,0.2-0.1,0.2-0.2c0-0.1-0.1-0.2-0.2-0.2H5.2C5,3.3,5,3.4,5,3.5
			C5,3.6,5,3.7,5.2,3.7z"/>
		<path id="Shape_97_" class="st0" d="M8.5,3.7h1.3c0.1,0,0.2-0.1,0.2-0.2c0-0.1-0.1-0.2-0.2-0.2H8.5c-0.1,0-0.2,0.1-0.2,0.2
			C8.3,3.6,8.4,3.7,8.5,3.7z"/>
		<path id="Shape_96_" class="st0" d="M7.5,4.4H5.2C5,4.4,5,4.5,5,4.6C5,4.7,5,4.8,5.2,4.8h2.3c0.1,0,0.2-0.1,0.2-0.2
			C7.7,4.5,7.6,4.4,7.5,4.4z"/>
		<path id="Shape_95_" class="st0" d="M9.8,4.4H8.5c-0.1,0-0.2,0.1-0.2,0.2c0,0.1,0.1,0.2,0.2,0.2h1.3c0.1,0,0.2-0.1,0.2-0.2
			C10,4.5,9.9,4.4,9.8,4.4z"/>
		<path id="Shape_94_" class="st0" d="M3.5,5.4H3.1c-0.1,0-0.2,0.1-0.2,0.2s0.1,0.2,0.2,0.2h0.4c0.1,0,0.2-0.1,0.2-0.2
			S3.6,5.4,3.5,5.4z"/>
		<path id="Shape_93_" class="st0" d="M4.5,5.9h3c0.1,0,0.2-0.1,0.2-0.2S7.6,5.4,7.5,5.4h-3c-0.1,0-0.2,0.1-0.2,0.2S4.4,5.9,4.5,5.9
			z"/>
		<path id="Shape_92_" class="st0" d="M9.8,5.4H8.5c-0.1,0-0.2,0.1-0.2,0.2s0.1,0.2,0.2,0.2h1.3c0.1,0,0.2-0.1,0.2-0.2
			S9.9,5.4,9.8,5.4z"/>
		<path id="Shape_91_" class="st0" d="M3.5,6.5H3.1c-0.1,0-0.2,0.1-0.2,0.2s0.1,0.2,0.2,0.2h0.4c0.1,0,0.2-0.1,0.2-0.2
			S3.6,6.5,3.5,6.5z"/>
		<path id="Shape_90_" class="st0" d="M4.5,6.9h3c0.1,0,0.2-0.1,0.2-0.2S7.6,6.5,7.5,6.5h-3c-0.1,0-0.2,0.1-0.2,0.2S4.4,6.9,4.5,6.9
			z"/>
		<path id="Shape_89_" class="st0" d="M3.5,7.5H3.1c-0.1,0-0.2,0.1-0.2,0.2C2.8,7.9,2.9,8,3.1,8h0.4c0.1,0,0.2-0.1,0.2-0.2
			C3.7,7.6,3.6,7.5,3.5,7.5z"/>
		<path id="Shape_88_" class="st0" d="M5,7.5H4.5c-0.1,0-0.2,0.1-0.2,0.2C4.3,7.9,4.4,8,4.5,8H5c0.1,0,0.2-0.1,0.2-0.2
			C5.2,7.6,5.1,7.5,5,7.5z"/>
		<path id="Shape_87_" class="st0" d="M3.5,8.6H3.1c-0.1,0-0.2,0.1-0.2,0.2S2.9,9,3.1,9h0.4c0.1,0,0.2-0.1,0.2-0.2S3.6,8.6,3.5,8.6z
			"/>
		<path id="Shape_86_" class="st0" d="M4.7,8.6H4.5c-0.1,0-0.2,0.1-0.2,0.2S4.4,9,4.5,9h0.2C4.9,9,5,8.9,5,8.8S4.9,8.6,4.7,8.6z"/>
		<path id="Shape_85_" class="st0" d="M9.8,6.5H8.5c-0.1,0-0.2,0.1-0.2,0.2s0.1,0.2,0.2,0.2h1.3c0.1,0,0.2-0.1,0.2-0.2
			S9.9,6.5,9.8,6.5z"/>
		<path id="Shape_84_" class="st0" d="M3.5,3.5c-0.1,0-0.2-0.1-0.2-0.2c0-0.1,0-0.2,0.1-0.2c0.1,0,0.2,0,0.3,0.1
			c0,0.1,0.1,0.1,0.2,0.1S4,3.3,4,3.2s0-0.1,0-0.2C4,2.9,3.8,2.8,3.7,2.7v0c0-0.1-0.1-0.2-0.2-0.2S3.3,2.6,3.3,2.7v0
			C3,2.8,2.8,3.1,2.9,3.4C2.9,3.7,3.2,4,3.5,4C3.6,4,3.7,4,3.7,4.1c0,0.1,0,0.2-0.1,0.2c-0.1,0-0.2,0-0.3-0.1C3.2,4.2,3.1,4.1,3,4.2
			C2.9,4.2,2.9,4.3,2.9,4.4C3,4.6,3.1,4.7,3.3,4.8v0C3.3,4.9,3.4,5,3.5,5s0.2-0.1,0.2-0.2v0C4,4.7,4.2,4.4,4.1,4.1S3.8,3.5,3.5,3.5
			L3.5,3.5z"/>
	</g>
</g>
<g>
	<path class="st0" d="M8.3,17.2c0.1-0.1,0.1-0.4,0-0.5c-0.1-0.1-0.4-0.1-0.5,0c-0.1,0.1-0.1,0.4,0,0.5C7.9,17.3,8.1,17.3,8.3,17.2z"
		/>
	<path class="st0" d="M4,22.9c0.1,0.1,0.4,0.1,0.5,0l1.7-1.7c0.3-0.3,0.4-0.7,0.3-1.1l0.4-0.4c0.2-0.2,0.5-0.3,0.7-0.3h4.7
		c0.8,0,1.6-0.3,2.2-0.9c0,0-0.2,0.2,3.2-3.8c0.5-0.6,0.4-1.5-0.2-2c-0.6-0.5-1.5-0.4-2,0.2l-2.1,2.1c-0.3-0.3-0.7-0.5-1.1-0.5H8.4
		c-0.6-0.2-1.1-0.4-1.8-0.4c-1.7,0-3.2,0.8-4,2.2c-0.3-0.1-0.7,0-0.9,0.3l-1.7,1.7c-0.1,0.1-0.1,0.4,0,0.5L4,22.9z M6.7,14.9
		c0.5,0,1.1,0.1,1.5,0.3c0,0,0.1,0,0.1,0h4c0.4,0,0.7,0.3,0.7,0.7c0,0.4-0.3,0.7-0.7,0.7H9.5c-0.2,0-0.4,0.2-0.4,0.4
		c0,0.2,0.2,0.4,0.4,0.4h2.9c0.8,0,1.4-0.6,1.4-1.4c0-0.1,0-0.1,0-0.2c2-2.1,2.3-2.4,2.3-2.4c0.3-0.3,0.7-0.3,1-0.1
		c0.3,0.3,0.3,0.7,0.1,1L14,18.1c-0.5,0.4-1.1,0.7-1.7,0.7H7.6c-0.5,0-0.9,0.2-1.2,0.5l-0.3,0.3l-2.8-2.8C4,15.6,5.2,14.9,6.7,14.9z
		 M2.3,17.2c0.1-0.1,0.3-0.1,0.4,0c0.1,0-0.1-0.1,3,3c0.1,0.1,0.1,0.4,0,0.5l-1.5,1.4l-3.5-3.5L2.3,17.2z"/>
</g>
</svg>
