<?xml version="1.0" encoding="utf-8"?>
<!-- Generator: Adobe Illustrator 24.0.2, SVG Export Plug-In . SVG Version: 6.00 Build 0)  -->
<svg version="1.1" id="Layer_1" xmlns="http://www.w3.org/2000/svg" xmlns:xlink="http://www.w3.org/1999/xlink" x="0px" y="0px"
	 viewBox="0 0 18 24" style="enable-background:new 0 0 18 24;" xml:space="preserve">
<style type="text/css">
	.st0{fill:#FC6A55;}
	.st1{fill:#EDEDED;}
	.st2{fill:none;stroke:#FC6A55;stroke-miterlimit:10;}
	.st3{stroke:#FFFFFF;stroke-width:0.25;stroke-miterlimit:10;}
	.st4{fill:#656D7A;}
	.st5{fill:#FFFFFF;}
	.st6{filter:url(#Adobe_OpacityMaskFilter);}
	.st7{fill-rule:evenodd;clip-rule:evenodd;fill:#FFFFFF;}
	.st8{mask:url(#mask-2_8_);fill-rule:evenodd;clip-rule:evenodd;}
	.st9{filter:url(#Adobe_OpacityMaskFilter_1_);}
	.st10{mask:url(#mask-2_7_);fill-rule:evenodd;clip-rule:evenodd;}
	.st11{filter:url(#Adobe_OpacityMaskFilter_2_);}
	.st12{mask:url(#mask-2_6_);fill-rule:evenodd;clip-rule:evenodd;}
	.st13{filter:url(#Adobe_OpacityMaskFilter_3_);}
	.st14{mask:url(#mask-2_5_);fill-rule:evenodd;clip-rule:evenodd;}
	.st15{filter:url(#Adobe_OpacityMaskFilter_4_);}
	.st16{mask:url(#mask-2_2_);fill:none;stroke:#000000;stroke-width:2;}
	.st17{fill:#434343;}
	.st18{fill:#434343;stroke:#F9F9F9;stroke-width:0.25;stroke-miterlimit:10;}
	.st19{fill:none;stroke:#FC6A55;stroke-width:0.5;stroke-miterlimit:10;}
	.st20{fill:none;stroke:#FC6A55;stroke-width:0.75;stroke-miterlimit:10;}
	.st21{fill:#FC6A55;stroke:#FC6A55;stroke-width:0.5;stroke-miterlimit:10;}
	.st22{opacity:0.153;fill:url(#Path_146_);enable-background:new    ;}
	.st23{opacity:0.1;fill:#590BB2;enable-background:new    ;}
	.st24{fill:#8E8CA8;}
	.st25{fill:#F5F4F9;}
	.st26{fill:#FFD5B8;}
	.st27{fill:#FC8473;}
	.st28{fill:#1C3475;}
	.st29{fill:#DDD9E4;}
	.st30{fill:#828FB3;}
	.st31{opacity:7.584635e-02;fill:url(#Path_147_);enable-background:new    ;}
	.st32{fill:#FFBE92;}
	.st33{fill:#FB8E7F;}
	.st34{fill:#FDB1A6;}
	.st35{fill:#FC806F;}
	.st36{fill:#FFE783;}
	.st37{fill:#104478;}
	.st38{fill:none;stroke:#FFFFFF;stroke-miterlimit:10;}
	.st39{fill:none;stroke:#000000;stroke-width:0.15;stroke-miterlimit:10;}
	.st40{opacity:0.1;fill:url(#Path_148_);enable-background:new    ;}
	.st41{opacity:0.1;fill:url(#Path_149_);enable-background:new    ;}
	.st42{fill-rule:evenodd;clip-rule:evenodd;fill:#FC6A55;}
	.st43{fill-rule:evenodd;clip-rule:evenodd;}
</style>
<g>
	<g>
		<path class="st0" d="M13.7,21.7c-0.1,0.1-0.1,0.4,0,0.5c0.1,0.1,0.2,0.1,0.3,0.1s0.2,0,0.3-0.1l0,0c0.1-0.1,0.1-0.4,0-0.5
			C14.1,21.6,13.8,21.6,13.7,21.7L13.7,21.7z"/>
		<path class="st0" d="M15.3,18l-2.8,1.5c-0.2-0.2-0.6-0.4-1-0.4H9.6c-0.1,0-0.1,0-0.1,0c0,0-0.1-0.1-0.1-0.1l0,0
			c-1.6-1.5-2.9-1.4-4.4-0.8c-0.2,0.1-0.2,0.1-0.5,0.1l-0.4,0c-0.1-0.4-0.5-0.7-0.9-0.7H1.7c-0.5,0-0.9,0.4-0.9,0.9v3.8
			c0,0.5,0.4,0.9,0.9,0.9h1.4c0.4,0,0.8-0.3,0.9-0.7h0.8c0.1,0,0.1,0,0.2,0c0,0,0.1,0,0.1,0l3.7,1c0.2,0,0.3,0.1,0.5,0.1
			c0.5,0.1,0.9,0.3,1.3,0.3c0.5,0,1-0.1,1.6-0.6c0,0,0,0,0,0l0.7-0.5c0.2-0.1,0.2-0.3,0.1-0.5c-0.1-0.2-0.3-0.2-0.5-0.1l-0.7,0.5
			c-0.9,0.6-1.3,0.5-2.3,0.2C9.3,23,9.1,23,9,22.9l-3.7-1c0,0-0.1,0-0.1,0c-0.1,0-0.2-0.1-0.3-0.1H4v-2.9h0.4c0,0,0,0,0,0l0,0
			c0.3,0,0.4,0,0.7-0.2c1.3-0.5,2.4-0.6,3.7,0.6l0,0c0.2,0.2,0.4,0.3,0.7,0.3h1.9c0.2,0,0.4,0.1,0.5,0.3c0,0,0,0,0,0
			c0,0.1,0.1,0.2,0.1,0.3c0,0.3-0.3,0.6-0.6,0.6H8.4C8.2,21,8,21.1,8,21.3c0,0.2,0.2,0.4,0.4,0.4h3.2c0.7,0,1.3-0.6,1.3-1.3
			c0-0.1,0-0.2,0-0.3l2.8-1.5c0.3-0.1,0.6-0.1,0.8,0.2c0.2,0.3,0.1,0.6-0.2,0.8L15,20.5c-0.2,0.1-0.2,0.3-0.1,0.5
			c0.1,0.1,0.2,0.2,0.3,0.2c0.1,0,0.1,0,0.2-0.1l1.2-0.9c0.6-0.4,0.8-1.2,0.4-1.8C16.7,17.8,16,17.6,15.3,18L15.3,18z M3.3,22.3
			c0,0.1-0.1,0.2-0.2,0.2H1.7c-0.1,0-0.2-0.1-0.2-0.2v-3.8c0-0.1,0.1-0.2,0.2-0.2h1.4c0.1,0,0.2,0.1,0.2,0.2V22.3z"/>
	</g>
	<g>
		<g>
			<g>
				<path class="st0" d="M7.6,0C6.7,0,5.9,0.7,5.9,1.7s0.7,1.7,1.7,1.7c0.9,0,1.7-0.7,1.7-1.7S8.5,0,7.6,0z M7.6,2.8
					c-0.6,0-1.2-0.5-1.2-1.2s0.5-1.2,1.2-1.2c0.6,0,1.2,0.5,1.2,1.2C8.7,2.3,8.2,2.8,7.6,2.8z"/>
			</g>
		</g>
		<g>
			<g>
				<path class="st0" d="M13.8,10.1c-0.1-0.1-0.2-0.1-0.3,0l-2,2.1l-0.7-0.8c-0.1-0.1-0.2-0.1-0.3,0c-0.1,0.1-0.1,0.2,0,0.3l0.9,0.9
					c0.1,0.1,0.3,0.1,0.3,0l2.2-2.3C13.9,10.3,13.9,10.2,13.8,10.1z"/>
			</g>
		</g>
		<g>
			<g>
				<path class="st0" d="M15.1,11.7c-0.1,0-0.3,0.1-0.3,0.2c-0.3,1.4-1.3,2.6-2.6,3.1c-0.1,0-0.2,0.2-0.1,0.3c0,0.1,0.2,0.2,0.3,0.1
					c1.5-0.6,2.6-1.9,2.9-3.5C15.3,11.9,15.2,11.7,15.1,11.7z"/>
			</g>
		</g>
		<g>
			<g>
				<path class="st0" d="M14.7,8c-0.6,0.4-1.3,0.4-1.8,0c-0.4-0.3-0.7-0.7-0.7-0.7c-0.1-0.1-0.2-0.2-0.4-0.2C11.4,5.8,10.6,5,10,4.4
					C9.7,4.1,9.2,3.9,8.7,3.9c-0.2,0-2.1,0-2.3,0c-0.5,0-1,0.2-1.4,0.6C4.2,5.2,2.9,6.8,2.9,9.3c0,0.5,0.4,1,0.9,1c0.5,0,1-0.4,1-1
					c0-0.9,0.3-1.8,0.8-2.6v9c0,0.5,0.4,0.8,0.8,0.8H7c0.2,0,0.4-0.1,0.6-0.3c0.2,0.2,0.4,0.3,0.6,0.3h0.5c0.5,0,0.8-0.4,0.8-0.8
					v-1.3c0.4,0.5,1,0.8,1.6,1c0.1,0,0.3,0,0.3-0.1c0-0.1,0-0.3-0.1-0.3c-1.6-0.6-2.7-2.2-2.7-4V8.4c1,0.5,1.9,0.4,2.7-0.3
					c0.2-0.2,0.3-0.3,0.4-0.5c0,0,0,0,0,0c0.1,0.1,0.4,0.5,0.8,0.8c0.5,0.3,1.3,0.5,2.3,0v2.4c0,0.1,0.1,0.2,0.2,0.2
					s0.2-0.1,0.2-0.2V8.4C15.4,8,15,7.8,14.7,8z M8,4.4L7.7,4.8c-0.1,0.1-0.2,0.1-0.3,0L7.1,4.4H8z M9.5,8.2V6.8
					c0.3,0.4,0.5,0.9,0.6,1.4C10,8.3,9.8,8.3,9.5,8.2z M10.6,8.1C10.4,7.3,10,6.6,9.5,5.9C9.3,5.8,9.1,5.9,9.1,6.1v2
					C9,8,8.8,8,8.8,8C8.5,7.8,8.2,8,8.2,8.4v0v2.7c0,1,0.3,2,0.9,2.8v1.8h0c0,0.2-0.2,0.4-0.4,0.4H8.2c-0.2,0-0.4-0.2-0.4-0.4v-5
					c0-0.1-0.1-0.2-0.2-0.2c-0.1,0-0.2,0.1-0.2,0.2v5c0,0.2-0.2,0.4-0.4,0.4H6.4c-0.2,0-0.4-0.2-0.4-0.4V6c0-0.2-0.3-0.3-0.4-0.2
					c-0.9,1-1.3,2.2-1.3,3.5c0,0.3-0.2,0.5-0.5,0.5c-0.3,0-0.5-0.2-0.5-0.5c0-2.3,1.2-3.8,2-4.5C5.6,4.6,6,4.4,6.4,4.4h0.1l0.6,0.7
					c0.3,0.3,0.7,0.3,1,0l0.6-0.7h0.1c0.4,0,0.7,0.1,1,0.4c0.5,0.5,1.3,1.3,1.7,2.5C11.2,7.6,10.9,7.9,10.6,8.1z"/>
			</g>
		</g>
	</g>
</g>
</svg>
