<?xml version="1.0" encoding="utf-8"?>
<!-- Generator: Adobe Illustrator 24.0.2, SVG Export Plug-In . SVG Version: 6.00 Build 0)  -->
<svg version="1.1" id="Layer_1" xmlns="http://www.w3.org/2000/svg" xmlns:xlink="http://www.w3.org/1999/xlink" x="0px" y="0px"
	 viewBox="0 0 18 24" style="enable-background:new 0 0 18 24;" xml:space="preserve">
<style type="text/css">
	.st0{fill:#FC6A55;}
	.st1{fill:#EDEDED;}
	.st2{fill:none;stroke:#FC6A55;stroke-miterlimit:10;}
	.st3{stroke:#FFFFFF;stroke-width:0.25;stroke-miterlimit:10;}
	.st4{fill:#656D7A;}
	.st5{fill:#FFFFFF;}
	.st6{filter:url(#Adobe_OpacityMaskFilter);}
	.st7{fill-rule:evenodd;clip-rule:evenodd;fill:#FFFFFF;}
	.st8{mask:url(#mask-2_8_);fill-rule:evenodd;clip-rule:evenodd;}
	.st9{filter:url(#Adobe_OpacityMaskFilter_1_);}
	.st10{mask:url(#mask-2_7_);fill-rule:evenodd;clip-rule:evenodd;}
	.st11{filter:url(#Adobe_OpacityMaskFilter_2_);}
	.st12{mask:url(#mask-2_6_);fill-rule:evenodd;clip-rule:evenodd;}
	.st13{filter:url(#Adobe_OpacityMaskFilter_3_);}
	.st14{mask:url(#mask-2_5_);fill-rule:evenodd;clip-rule:evenodd;}
	.st15{filter:url(#Adobe_OpacityMaskFilter_4_);}
	.st16{mask:url(#mask-2_2_);fill:none;stroke:#000000;stroke-width:2;}
	.st17{fill:#434343;}
	.st18{fill:#434343;stroke:#F9F9F9;stroke-width:0.25;stroke-miterlimit:10;}
	.st19{fill:none;stroke:#FC6A55;stroke-width:0.5;stroke-miterlimit:10;}
	.st20{fill:none;stroke:#FC6A55;stroke-width:0.75;stroke-miterlimit:10;}
	.st21{fill:#FC6A55;stroke:#FC6A55;stroke-width:0.5;stroke-miterlimit:10;}
	.st22{opacity:0.153;fill:url(#Path_146_);enable-background:new    ;}
	.st23{opacity:0.1;fill:#590BB2;enable-background:new    ;}
	.st24{fill:#8E8CA8;}
	.st25{fill:#F5F4F9;}
	.st26{fill:#FFD5B8;}
	.st27{fill:#FC8473;}
	.st28{fill:#1C3475;}
	.st29{fill:#DDD9E4;}
	.st30{fill:#828FB3;}
	.st31{opacity:7.584635e-02;fill:url(#Path_147_);enable-background:new    ;}
	.st32{fill:#FFBE92;}
	.st33{fill:#FB8E7F;}
	.st34{fill:#FDB1A6;}
	.st35{fill:#FC806F;}
	.st36{fill:#FFE783;}
	.st37{fill:#104478;}
	.st38{fill:none;stroke:#FFFFFF;stroke-miterlimit:10;}
	.st39{fill:none;stroke:#000000;stroke-width:0.15;stroke-miterlimit:10;}
	.st40{opacity:0.1;fill:url(#Path_148_);enable-background:new    ;}
	.st41{opacity:0.1;fill:url(#Path_149_);enable-background:new    ;}
	.st42{fill-rule:evenodd;clip-rule:evenodd;}
</style>
<g>
	<path d="M17.1,7.1h-0.2c-0.1-0.4-0.3-0.8-0.5-1.2l0.1-0.1c0.2-0.2,0.2-0.4,0.2-0.6c0-0.2-0.1-0.4-0.2-0.6l-0.9-0.9
		c-0.2-0.2-0.4-0.3-0.6-0.3c-0.2,0-0.4,0.1-0.6,0.3l-0.1,0.1c-0.4-0.2-0.8-0.4-1.2-0.5V3.1c0-0.5-0.4-0.9-0.9-0.9H11
		c-0.5,0-0.9,0.4-0.9,0.9v0.2C9.7,3.4,9.3,3.6,8.9,3.8L8.8,3.6C8.6,3.5,8.4,3.4,8.2,3.4c-0.2,0-0.4,0.1-0.6,0.3L6.6,4.6
		C6.5,4.7,6.4,4.9,6.4,5.2c0,0.2,0.1,0.4,0.2,0.6l0.1,0.1C6.6,6.3,6.4,6.7,6.3,7.1H6.1C5.6,7.1,5.2,7.5,5.2,8v1.3
		c0,0.5,0.4,0.9,0.9,0.9h0.2c0.1,0.4,0.3,0.8,0.5,1.2l-0.1,0.1c-0.2,0.2-0.2,0.4-0.2,0.6c0,0.2,0.1,0.4,0.2,0.6l0.9,0.9
		c0.2,0.2,0.4,0.3,0.6,0.3h0c0.2,0,0.4-0.1,0.6-0.3l0.1-0.1c0.4,0.2,0.8,0.4,1.2,0.5v0.2c0,0.5,0.4,0.9,0.9,0.9h1.3
		c0.5,0,0.9-0.4,0.9-0.9V14c0.4-0.1,0.8-0.3,1.2-0.5l0.1,0.1c0.2,0.2,0.4,0.3,0.6,0.3c0.2,0,0.4-0.1,0.6-0.3l0.9-0.9
		c0.2-0.2,0.2-0.4,0.2-0.6c0-0.2-0.1-0.4-0.2-0.6l-0.1-0.1c0.2-0.4,0.4-0.8,0.5-1.2h0.2c0.5,0,0.9-0.4,0.9-0.9V8
		C18,7.5,17.6,7.1,17.1,7.1L17.1,7.1z M12.4,14.2C12.4,14.2,12.3,14.2,12.4,14.2L11,14.2c0,0-0.1,0-0.1-0.1v-0.5v-2.4
		c0-0.2-0.1-0.3-0.2-0.4c-1-0.4-1.7-1.4-1.7-2.5c0-0.9,0.4-1.7,1.1-2.2c0,0,0.1,0,0.1-0.1c0,0,0,0.1,0,0.1c0,0,0,0.1,0,0.1v1.8
		c0,0.8,0.6,1.5,1.5,1.6c0,0,0,0,0.1,0c0.8-0.1,1.5-0.7,1.5-1.6V6.4c0,0,0-0.1,0-0.1c0,0,0-0.1,0-0.1c0,0,0.1,0,0.1,0.1
		c0.7,0.5,1.1,1.3,1.1,2.2c0,1.1-0.7,2.1-1.7,2.5c-0.1,0.1-0.2,0.2-0.2,0.4v2.4L12.4,14.2L12.4,14.2z M17.2,9.3
		C17.2,9.3,17.2,9.4,17.2,9.3l-0.6,0.1c-0.2,0-0.3,0.1-0.4,0.3c-0.1,0.5-0.3,1-0.6,1.5c-0.1,0.2-0.1,0.3,0.1,0.5l0.4,0.4
		c0,0,0,0.1,0,0.1c0,0,0,0,0,0.1l-0.9,0.9c0,0,0,0-0.1,0c0,0,0,0-0.1,0l-0.4-0.4c-0.1-0.1-0.3-0.1-0.5-0.1c-0.3,0.2-0.7,0.4-1,0.5
		v-1.6c1.2-0.6,2-1.8,2-3.1c0-1.1-0.6-2.2-1.5-2.8c-0.1-0.1-0.6-0.4-1-0.2c-0.4,0.2-0.3,0.7-0.3,0.9c0,0,0,0,0,0v1.8
		C12.3,8.7,12,9,11.6,9c-0.4,0-0.7-0.4-0.7-0.8l0-1.8c0,0,0,0,0,0c0-0.2,0.1-0.7-0.3-0.9c-0.4-0.2-0.8,0.1-1,0.2
		C8.7,6.3,8.1,7.3,8.1,8.4c0,1.3,0.8,2.5,2,3.1v1.6c-0.4-0.1-0.7-0.3-1-0.5c-0.1,0-0.1-0.1-0.2-0.1c-0.1,0-0.2,0-0.3,0.1l-0.4,0.4
		c0,0,0,0-0.1,0s0,0-0.1,0l-0.9-0.9c0,0,0-0.1,0-0.1c0,0,0,0,0-0.1l0.4-0.4c0.1-0.1,0.1-0.3,0.1-0.5c-0.3-0.5-0.5-1-0.6-1.5
		c0-0.2-0.2-0.3-0.4-0.3H6.1c0,0-0.1,0-0.1-0.1V8c0,0,0-0.1,0.1-0.1h0.5c0.2,0,0.3-0.1,0.4-0.3c0.1-0.5,0.3-1,0.6-1.5
		c0.1-0.2,0.1-0.3-0.1-0.5L7.2,5.2c0,0,0-0.1,0-0.1c0,0,0,0,0-0.1l0.9-0.9c0,0,0,0,0.1,0c0,0,0,0,0.1,0l0.4,0.4
		c0.1,0.1,0.3,0.1,0.5,0.1c0.5-0.3,1-0.5,1.5-0.6c0.2,0,0.3-0.2,0.3-0.4V3.1c0,0,0-0.1,0.1-0.1h1.3c0,0,0.1,0,0.1,0.1v0.5
		c0,0.2,0.1,0.3,0.3,0.4c0.5,0.1,1,0.3,1.5,0.6c0.2,0.1,0.3,0.1,0.5-0.1L15,4.2c0,0,0,0,0.1,0c0,0,0,0,0.1,0l0.9,0.9
		c0,0,0,0.1,0,0.1c0,0,0,0,0,0.1l-0.4,0.4c-0.1,0.1-0.1,0.3-0.1,0.5c0.3,0.5,0.5,1,0.6,1.5c0,0.2,0.2,0.3,0.4,0.3h0.5
		c0,0,0.1,0,0.1,0.1L17.2,9.3L17.2,9.3z"/>
	<path d="M13.8,19c-0.1,0.1-0.1,0.4,0,0.5c0.1,0.1,0.2,0.1,0.3,0.1s0.2,0,0.3-0.1l0,0c0.1-0.1,0.1-0.4,0-0.5
		C14.2,18.9,14,18.9,13.8,19L13.8,19z"/>
	<path d="M15.6,15.3l-3,1.6c-0.3-0.3-0.6-0.4-1-0.4H9.5c-0.1,0-0.1,0-0.1,0c0,0-0.1-0.1-0.1-0.1l0,0c-1.7-1.6-3.1-1.5-4.7-0.8
		c-0.3,0.1-0.3,0.1-0.5,0.1l-0.5,0c-0.1-0.4-0.5-0.7-1-0.7H1c-0.6,0-1,0.5-1,1v4c0,0.6,0.5,1,1,1h1.5c0.4,0,0.8-0.3,1-0.7h0.9
		c0.1,0,0.1,0,0.2,0c0,0,0.1,0,0.1,0l3.9,1.1c0.2,0,0.3,0.1,0.5,0.1c0.5,0.1,0.9,0.3,1.4,0.3c0.5,0,1-0.2,1.7-0.6c0,0,0,0,0,0
		l0.8-0.5c0.2-0.1,0.2-0.4,0.1-0.5c-0.1-0.2-0.4-0.2-0.5-0.1l-0.7,0.5c-1,0.7-1.4,0.5-2.4,0.2c-0.2,0-0.3-0.1-0.5-0.1l-3.9-1.1
		c0,0-0.1,0-0.1,0c-0.1,0-0.2-0.1-0.4-0.1H3.6v-3.1H4c0,0,0,0,0,0l0,0c0.3,0,0.4,0,0.8-0.2c1.4-0.6,2.5-0.6,3.9,0.7l0,0
		c0.2,0.2,0.4,0.3,0.8,0.3h2.1c0.2,0,0.5,0.1,0.6,0.3c0,0,0,0,0,0c0,0.1,0.1,0.2,0.1,0.3c0,0.4-0.3,0.6-0.6,0.6H8.2
		c-0.2,0-0.4,0.2-0.4,0.4c0,0.2,0.2,0.4,0.4,0.4h3.4c0.8,0,1.4-0.6,1.4-1.4c0-0.1,0-0.2,0-0.3l3-1.5c0.3-0.1,0.7-0.1,0.9,0.2
		c0.2,0.3,0.1,0.6-0.2,0.9L15.3,18c-0.2,0.1-0.2,0.4-0.1,0.5c0.1,0.1,0.2,0.2,0.3,0.2c0.1,0,0.2,0,0.2-0.1l1.3-0.9
		c0.6-0.4,0.8-1.3,0.4-1.9C17.1,15.2,16.3,15,15.6,15.3L15.6,15.3z M2.8,19.9c0,0.1-0.1,0.2-0.3,0.2H1c-0.1,0-0.2-0.1-0.2-0.2v-4
		c0-0.1,0.1-0.3,0.2-0.3h1.5c0.1,0,0.3,0.1,0.3,0.3V19.9z"/>
</g>
</svg>
