<?xml version="1.0" encoding="utf-8"?>
<!-- Generator: Adobe Illustrator 24.0.2, SVG Export Plug-In . SVG Version: 6.00 Build 0)  -->
<svg version="1.1" id="Layer_1" xmlns="http://www.w3.org/2000/svg" xmlns:xlink="http://www.w3.org/1999/xlink" x="0px" y="0px"
	 viewBox="0 0 18 24" style="enable-background:new 0 0 18 24;" xml:space="preserve">
<style type="text/css">
	.st0{fill:#FC6A55;}
	.st1{fill:#EDEDED;}
	.st2{fill:none;stroke:#FC6A55;stroke-miterlimit:10;}
	.st3{stroke:#FFFFFF;stroke-width:0.25;stroke-miterlimit:10;}
	.st4{fill:#656D7A;}
	.st5{fill:#FFFFFF;}
	.st6{filter:url(#Adobe_OpacityMaskFilter);}
	.st7{fill-rule:evenodd;clip-rule:evenodd;fill:#FFFFFF;}
	.st8{mask:url(#mask-2_8_);fill-rule:evenodd;clip-rule:evenodd;}
	.st9{filter:url(#Adobe_OpacityMaskFilter_1_);}
	.st10{mask:url(#mask-2_7_);fill-rule:evenodd;clip-rule:evenodd;}
	.st11{filter:url(#Adobe_OpacityMaskFilter_2_);}
	.st12{mask:url(#mask-2_6_);fill-rule:evenodd;clip-rule:evenodd;}
	.st13{filter:url(#Adobe_OpacityMaskFilter_3_);}
	.st14{mask:url(#mask-2_5_);fill-rule:evenodd;clip-rule:evenodd;}
	.st15{filter:url(#Adobe_OpacityMaskFilter_4_);}
	.st16{mask:url(#mask-2_2_);fill:none;stroke:#000000;stroke-width:2;}
	.st17{fill:#434343;}
	.st18{fill:#434343;stroke:#F9F9F9;stroke-width:0.25;stroke-miterlimit:10;}
	.st19{fill:none;stroke:#FC6A55;stroke-width:0.5;stroke-miterlimit:10;}
	.st20{fill:none;stroke:#FC6A55;stroke-width:0.75;stroke-miterlimit:10;}
	.st21{fill:#FC6A55;stroke:#FC6A55;stroke-width:0.5;stroke-miterlimit:10;}
	.st22{opacity:0.153;fill:url(#Path_146_);enable-background:new    ;}
	.st23{opacity:0.1;fill:#590BB2;enable-background:new    ;}
	.st24{fill:#8E8CA8;}
	.st25{fill:#F5F4F9;}
	.st26{fill:#FFD5B8;}
	.st27{fill:#FC8473;}
	.st28{fill:#1C3475;}
	.st29{fill:#DDD9E4;}
	.st30{fill:#828FB3;}
	.st31{opacity:7.584635e-02;fill:url(#Path_147_);enable-background:new    ;}
	.st32{fill:#FFBE92;}
	.st33{fill:#FB8E7F;}
	.st34{fill:#FDB1A6;}
	.st35{fill:#FC806F;}
	.st36{fill:#FFE783;}
	.st37{fill:#104478;}
	.st38{fill:none;stroke:#FFFFFF;stroke-miterlimit:10;}
	.st39{fill:none;stroke:#000000;stroke-width:0.15;stroke-miterlimit:10;}
	.st40{opacity:0.1;fill:url(#Path_148_);enable-background:new    ;}
	.st41{opacity:0.1;fill:url(#Path_149_);enable-background:new    ;}
	.st42{fill-rule:evenodd;clip-rule:evenodd;}
</style>
<g>
	<path d="M9.9,5c0-0.5-0.4-0.9-0.9-0.9S8.1,4.6,8.1,5S8.5,5.9,9,5.9S9.9,5.5,9.9,5z M8.7,5c0-0.2,0.1-0.3,0.3-0.3
		c0.2,0,0.3,0.1,0.3,0.3c0,0.2-0.1,0.3-0.3,0.3S8.7,5.2,8.7,5z"/>
	<path d="M1.6,14.7C1.2,15,1,15.5,1.3,15.9c0.2,0.3,0.5,0.4,0.8,0.4c0.1,0,0.3,0,0.4-0.1C2.9,16,3,15.5,2.8,15
		C2.5,14.6,2,14.5,1.6,14.7z M2.2,15.7c-0.1,0.1-0.3,0-0.4-0.1c-0.1-0.1,0-0.3,0.1-0.4c0.1-0.1,0.3,0,0.4,0.1
		C2.4,15.5,2.3,15.7,2.2,15.7z"/>
	<path d="M16.4,14.7c-0.4-0.2-0.9-0.1-1.2,0.3c-0.2,0.4-0.1,0.9,0.3,1.2h0c0.1,0.1,0.3,0.1,0.4,0.1c0.3,0,0.6-0.2,0.8-0.4
		C17,15.5,16.8,15,16.4,14.7z M16.2,15.6c-0.1,0.1-0.3,0.2-0.4,0.1c-0.1-0.1-0.2-0.3-0.1-0.4c0.1-0.1,0.3-0.2,0.4-0.1
		C16.3,15.3,16.3,15.5,16.2,15.6z"/>
	<path d="M17,13.7c-0.5-0.3-1-0.3-1.5-0.2c-0.5,0.1-0.9,0.4-1.1,0.8l-2.1-1.1v-2.5l3.2-1.6c0.2,0.2,0.5,0.4,0.8,0.5
		c0.1,0,0.3,0.1,0.4,0.1c0.3,0,0.5-0.1,0.7-0.2c0.3-0.2,0.6-0.5,0.7-0.9c0.1-0.4,0-0.8-0.1-1.1c-0.2-0.3-0.5-0.6-0.9-0.7
		c-0.4-0.1-0.8,0-1.1,0.1c-0.3,0.2-0.6,0.5-0.7,0.9c-0.1,0.2-0.1,0.5,0,0.7l-3,1.5V8.2H9.3V7c1-0.1,1.7-1,1.7-2c0-1.1-0.9-2-2-2
		S7,3.9,7,5c0,1,0.8,1.9,1.7,2v1.2H5.8v1.9l-3-1.5c0.1-0.2,0.1-0.5,0-0.7C2.8,7.5,2.5,7.2,2.2,7C1.8,6.8,1.5,6.7,1.1,6.8
		C0.7,6.9,0.4,7.2,0.2,7.5C0,7.8-0.1,8.2,0.1,8.6C0.2,9,0.4,9.3,0.7,9.5C1,9.6,1.2,9.7,1.4,9.7c0.1,0,0.3,0,0.4-0.1
		c0.3-0.1,0.6-0.3,0.8-0.5l3.2,1.6v2.5l-2.1,1.1c-0.3-0.4-0.7-0.7-1.1-0.8C2,13.4,1.5,13.5,1,13.7c-1,0.6-1.3,1.8-0.7,2.8
		c0.4,0.7,1.1,1,1.8,1c0.3,0,0.7-0.1,1-0.3c0.8-0.5,1.2-1.5,0.9-2.4l1.8-0.9v1.9h2.9v2.4c-0.7,0.1-1.2,0.7-1.2,1.4
		C7.5,20.3,8.2,21,9,21s1.5-0.7,1.5-1.5c0-0.7-0.5-1.3-1.2-1.4v-2.4h2.9v-1.9l1.8,0.9c-0.3,0.9,0.1,1.9,0.9,2.4
		c0.3,0.2,0.7,0.3,1,0.3c0.7,0,1.4-0.4,1.8-1C18.3,15.5,18,14.3,17,13.7L17,13.7z M15.7,8c0.1-0.2,0.2-0.4,0.4-0.5
		c0.1-0.1,0.3-0.1,0.4-0.1c0.3,0,0.6,0.2,0.8,0.4c0.1,0.2,0.1,0.4,0.1,0.7C17.3,8.7,17.2,8.9,17,9c-0.4,0.2-0.9,0.1-1.2-0.3
		C15.7,8.5,15.6,8.2,15.7,8L15.7,8z M7.5,5c0-0.8,0.7-1.5,1.5-1.5s1.5,0.7,1.5,1.5S9.8,6.5,9,6.5S7.5,5.8,7.5,5L7.5,5z M2.2,8.7
		C2,9.1,1.4,9.2,1,9C0.8,8.9,0.7,8.7,0.6,8.5C0.6,8.2,0.6,8,0.7,7.8c0.2-0.3,0.5-0.4,0.8-0.4c0.1,0,0.3,0,0.4,0.1
		C2.1,7.6,2.2,7.8,2.3,8C2.4,8.2,2.3,8.5,2.2,8.7L2.2,8.7z M2.8,16.7c-0.7,0.4-1.6,0.2-2-0.5c-0.4-0.7-0.2-1.6,0.5-2
		C1.5,14.1,1.8,14,2,14c0.1,0,0.3,0,0.4,0.1c0.4,0.1,0.7,0.3,0.9,0.7C3.7,15.5,3.5,16.3,2.8,16.7z M9.9,19.5c0,0.5-0.4,0.9-0.9,0.9
		S8.1,20,8.1,19.5c0-0.5,0.4-0.9,0.9-0.9S9.9,19.1,9.9,19.5z M11.6,15.2H6.4V8.8h5.2V15.2z M17.2,16.2c-0.4,0.7-1.3,0.9-2,0.5
		c-0.7-0.4-0.9-1.3-0.5-2c0.2-0.3,0.5-0.6,0.9-0.7c0.4-0.1,0.8,0,1.1,0.1C17.4,14.6,17.6,15.5,17.2,16.2L17.2,16.2z"/>
	<path d="M11,11.7H9.3v0.6H8.1v0.6H7v1.7H11V11.7z M7.5,13.5h0.6V14H7.5V13.5z M8.7,14v-1.2h0.6V14H8.7z M10.5,14H9.9v-1.7h0.6V14z"
		/>
	<path d="M7,9.4h0.6V10H7V9.4z"/>
	<path d="M8.1,9.4H11V10H8.1V9.4z"/>
	<path d="M7,10.5H11v0.6H7V10.5z"/>
</g>
</svg>
