<?xml version="1.0" encoding="utf-8"?>
<!-- Generator: Adobe Illustrator 24.0.2, SVG Export Plug-In . SVG Version: 6.00 Build 0)  -->
<svg version="1.1" id="Layer_1" xmlns="http://www.w3.org/2000/svg" xmlns:xlink="http://www.w3.org/1999/xlink" x="0px" y="0px"
	 viewBox="0 0 18 24" style="enable-background:new 0 0 18 24;" xml:space="preserve">
<style type="text/css">
	.st0{fill:#FC6A55;}
	.st1{fill:#EDEDED;}
	.st2{fill:none;stroke:#FC6A55;stroke-miterlimit:10;}
	.st3{stroke:#FFFFFF;stroke-width:0.25;stroke-miterlimit:10;}
	.st4{fill:#656D7A;}
	.st5{fill:#FFFFFF;}
	.st6{filter:url(#Adobe_OpacityMaskFilter);}
	.st7{fill-rule:evenodd;clip-rule:evenodd;fill:#FFFFFF;}
	.st8{mask:url(#mask-2_8_);fill-rule:evenodd;clip-rule:evenodd;}
	.st9{filter:url(#Adobe_OpacityMaskFilter_1_);}
	.st10{mask:url(#mask-2_7_);fill-rule:evenodd;clip-rule:evenodd;}
	.st11{filter:url(#Adobe_OpacityMaskFilter_2_);}
	.st12{mask:url(#mask-2_6_);fill-rule:evenodd;clip-rule:evenodd;}
	.st13{filter:url(#Adobe_OpacityMaskFilter_3_);}
	.st14{mask:url(#mask-2_5_);fill-rule:evenodd;clip-rule:evenodd;}
	.st15{filter:url(#Adobe_OpacityMaskFilter_4_);}
	.st16{mask:url(#mask-2_2_);fill:none;stroke:#000000;stroke-width:2;}
	.st17{fill:#434343;}
	.st18{fill:#434343;stroke:#F9F9F9;stroke-width:0.25;stroke-miterlimit:10;}
	.st19{fill:none;stroke:#FC6A55;stroke-width:0.5;stroke-miterlimit:10;}
	.st20{fill:none;stroke:#FC6A55;stroke-width:0.75;stroke-miterlimit:10;}
	.st21{fill:#FC6A55;stroke:#FC6A55;stroke-width:0.5;stroke-miterlimit:10;}
	.st22{opacity:0.153;fill:url(#Path_146_);enable-background:new    ;}
	.st23{opacity:0.1;fill:#590BB2;enable-background:new    ;}
	.st24{fill:#8E8CA8;}
	.st25{fill:#F5F4F9;}
	.st26{fill:#FFD5B8;}
	.st27{fill:#FC8473;}
	.st28{fill:#1C3475;}
	.st29{fill:#DDD9E4;}
	.st30{fill:#828FB3;}
	.st31{opacity:7.584635e-02;fill:url(#Path_147_);enable-background:new    ;}
	.st32{fill:#FFBE92;}
	.st33{fill:#FB8E7F;}
	.st34{fill:#FDB1A6;}
	.st35{fill:#FC806F;}
	.st36{fill:#FFE783;}
	.st37{fill:#104478;}
	.st38{fill:none;stroke:#FFFFFF;stroke-miterlimit:10;}
	.st39{fill:none;stroke:#000000;stroke-width:0.15;stroke-miterlimit:10;}
	.st40{opacity:0.1;fill:url(#Path_148_);enable-background:new    ;}
	.st41{opacity:0.1;fill:url(#Path_149_);enable-background:new    ;}
	.st42{fill-rule:evenodd;clip-rule:evenodd;}
</style>
<g>
	<g>
		<g>
			<path d="M6.4,15.9C6.4,15.9,6.3,15.9,6.4,15.9c0.3-0.4,0.5-1,0.5-1.6v-1.8c0,0,0,0,0,0c0,0,0-0.1,0-0.1v-1.2
				c0-0.2-0.2-0.4-0.4-0.4H4.2c-1,0-1.8,0.8-1.8,1.8v1.7c0,0.6,0.2,1.1,0.6,1.6c0,0-0.1,0-0.1,0c-1.7,0.2-3,1.6-3,3.3v1.5
				C0,20.8,0.2,21,0.4,21H9c0.2,0,0.4-0.2,0.4-0.4v-1.5C9.4,17.4,8,16,6.4,15.9z M3.1,13.1v-0.4c0-0.6,0.5-1.1,1.1-1.1h2v0.8
				c0,0.4-0.3,0.7-0.7,0.7L3.1,13.1L3.1,13.1z M3.1,13.8h2.4c0.3,0,0.5-0.1,0.7-0.2v0.8c0,0.9-0.7,1.6-1.6,1.6s-1.6-0.7-1.6-1.6
				V13.8z M5.4,16.6l-0.8,0.8l-0.8-0.8H5.4z M8.7,20.3L8.7,20.3H0.7v-0.7h1.5c0.2,0,0.4-0.2,0.4-0.4s-0.2-0.4-0.4-0.4H0.7
				c0.1-1.2,1-2.1,2.2-2.3l1.5,1.5c0.1,0.1,0.2,0.1,0.2,0.1s0.2,0,0.2-0.1l1.5-1.5c1.3,0.2,2.2,1.2,2.2,2.5V20.3z"/>
		</g>
	</g>
	<g>
		<g>
			<path d="M15,8.1C15,8.1,15,8.1,15,8.1c0.3-0.4,0.5-1,0.5-1.6V4.7c0,0,0,0,0,0c0,0,0-0.1,0-0.1V3.4c0-0.2-0.2-0.4-0.4-0.4h-2.4
				c-1,0-1.8,0.8-1.8,1.8v1.7c0,0.6,0.2,1.1,0.6,1.6c0,0-0.1,0-0.1,0c-1.7,0.2-3,1.6-3,3.3v1.5c0,0.2,0.2,0.4,0.4,0.4h2.8
				c0.2,0,0.4-0.2,0.4-0.4c0-0.2-0.2-0.4-0.4-0.4H9.3v-1.2c0-1.3,1-2.4,2.2-2.5l1.5,1.5c0.1,0.1,0.2,0.1,0.2,0.1s0.2,0,0.2-0.1
				l1.5-1.5c1.3,0.2,2.2,1.2,2.2,2.5v1.2h-2.6c-0.2,0-0.4,0.2-0.4,0.4c0,0.2,0.2,0.4,0.4,0.4h2.9c0.2,0,0.4-0.2,0.4-0.4v-1.5
				C18,9.6,16.7,8.2,15,8.1z M13.3,9.5l-0.8-0.8h1.5L13.3,9.5z M14.9,6.5c0,0.9-0.7,1.6-1.6,1.6s-1.6-0.7-1.6-1.6V6h2.4
				c0.3,0,0.5-0.1,0.7-0.2V6.5z M14.9,4.5c0,0.4-0.3,0.7-0.7,0.7h-2.4v0V4.8c0-0.6,0.5-1.1,1.1-1.1h2L14.9,4.5L14.9,4.5z"/>
		</g>
	</g>
	<g>
		<g>
			<path d="M13.6,12.6c-0.1-0.1-0.2-0.1-0.2-0.1c-0.1,0-0.2,0-0.2,0.1C13,12.7,13,12.7,13,12.8c0,0.1,0,0.2,0.1,0.2
				c0.1,0.1,0.2,0.1,0.2,0.1c0.1,0,0.2,0,0.2-0.1c0.1-0.1,0.1-0.2,0.1-0.2C13.7,12.7,13.6,12.7,13.6,12.6z"/>
		</g>
	</g>
	<g>
		<g>
			<path d="M9.4,7.9L7.9,6.4V4.8c0-1-0.8-1.8-1.8-1.8H1.8C0.8,3,0,3.8,0,4.8v3.1c0,1,0.8,1.8,1.8,1.8h4.4c0.7,0,1.4-0.4,1.6-1.1h1.4
				c0.1,0,0.3-0.1,0.3-0.2C9.5,8.2,9.5,8,9.4,7.9z M7.5,7.8c-0.2,0-0.3,0.1-0.3,0.3c-0.1,0.5-0.5,0.8-1,0.8H1.8
				c-0.6,0-1.1-0.5-1.1-1.1V4.8c0-0.6,0.5-1.1,1.1-1.1h4.4c0.6,0,1.1,0.5,1.1,1.1v1.8c0,0.1,0,0.2,0.1,0.2l1,1H7.5z"/>
		</g>
	</g>
	<g>
		<g>
			<path d="M16.2,14.4h-4.4c-0.7,0-1.4,0.4-1.6,1.1H8.8c-0.1,0-0.3,0.1-0.3,0.2c-0.1,0.1,0,0.3,0.1,0.4l1.5,1.5v1.7
				c0,1,0.8,1.8,1.8,1.8h4.4c1,0,1.8-0.8,1.8-1.8v-3.1C18,15.2,17.2,14.4,16.2,14.4z M17.3,19.2c0,0.6-0.5,1.1-1.1,1.1h-4.4
				c-0.6,0-1.1-0.5-1.1-1.1v-1.8c0-0.1,0-0.2-0.1-0.2l-1-1h0.8c0.2,0,0.3-0.1,0.3-0.3c0.1-0.5,0.5-0.8,1-0.8h4.4
				c0.6,0,1.1,0.5,1.1,1.1V19.2z"/>
		</g>
	</g>
	<g>
		<g>
			<path d="M15.6,16.8c-0.1-0.1-0.4-0.1-0.5,0l-0.9,0.9l-0.4-0.4c-0.1-0.1-0.4-0.1-0.5,0c-0.1,0.1-0.1,0.4,0,0.5l0.7,0.7
				c0.1,0.1,0.2,0.1,0.2,0.1c0.1,0,0.2,0,0.2-0.1l1.2-1.2C15.8,17.1,15.8,16.9,15.6,16.8z"/>
		</g>
	</g>
	<g>
		<g>
			<path d="M5.6,5.3c0-0.6-0.5-1.1-1.1-1.1c-0.3,0-0.7,0.1-0.9,0.3C3.3,4.8,3.1,5.1,3.1,5.4c0,0.2,0.2,0.4,0.4,0.4s0.4-0.2,0.4-0.4
				C3.8,5.3,3.9,5.1,4,5c0.1-0.1,0.2-0.1,0.4-0.1c0.3,0,0.5,0.2,0.5,0.5c0,0.3-0.2,0.5-0.4,0.5C4.2,6,4,6.2,4,6.5v0.2
				C4,6.9,4.2,7,4.3,7s0.4-0.2,0.4-0.4V6.6C5.2,6.4,5.6,5.9,5.6,5.3z"/>
		</g>
	</g>
	<g>
		<g>
			<path d="M4.6,7.8C4.5,7.7,4.4,7.7,4.3,7.7c-0.1,0-0.2,0-0.2,0.1C4,7.8,4,7.9,4,8c0,0.1,0,0.2,0.1,0.2c0.1,0.1,0.2,0.1,0.2,0.1
				c0.1,0,0.2,0,0.2-0.1C4.7,8.2,4.7,8.1,4.7,8C4.7,7.9,4.7,7.8,4.6,7.8z"/>
		</g>
	</g>
	<g>
		<g>
			<path d="M3.8,19c-0.1-0.1-0.2-0.1-0.2-0.1s-0.2,0-0.2,0.1c-0.1,0.1-0.1,0.2-0.1,0.2s0,0.2,0.1,0.2c0.1,0.1,0.2,0.1,0.2,0.1
				s0.2,0,0.2-0.1c0.1-0.1,0.1-0.2,0.1-0.2S3.9,19.1,3.8,19z"/>
		</g>
	</g>
</g>
</svg>
