<?xml version="1.0" encoding="utf-8"?>
<!-- Generator: Adobe Illustrator 24.0.2, SVG Export Plug-In . SVG Version: 6.00 Build 0)  -->
<svg version="1.1" id="Layer_1" xmlns="http://www.w3.org/2000/svg" xmlns:xlink="http://www.w3.org/1999/xlink" x="0px" y="0px"
	 viewBox="0 0 18 24" style="enable-background:new 0 0 18 24;" xml:space="preserve">
<style type="text/css">
	.st0{fill:#FC6A55;}
	.st1{fill:#EDEDED;}
	.st2{fill:none;stroke:#FC6A55;stroke-miterlimit:10;}
	.st3{stroke:#FFFFFF;stroke-width:0.25;stroke-miterlimit:10;}
	.st4{fill:#656D7A;}
	.st5{fill:#FFFFFF;}
	.st6{filter:url(#Adobe_OpacityMaskFilter);}
	.st7{fill-rule:evenodd;clip-rule:evenodd;fill:#FFFFFF;}
	.st8{mask:url(#mask-2_8_);fill-rule:evenodd;clip-rule:evenodd;}
	.st9{filter:url(#Adobe_OpacityMaskFilter_1_);}
	.st10{mask:url(#mask-2_7_);fill-rule:evenodd;clip-rule:evenodd;}
	.st11{filter:url(#Adobe_OpacityMaskFilter_2_);}
	.st12{mask:url(#mask-2_6_);fill-rule:evenodd;clip-rule:evenodd;}
	.st13{filter:url(#Adobe_OpacityMaskFilter_3_);}
	.st14{mask:url(#mask-2_5_);fill-rule:evenodd;clip-rule:evenodd;}
	.st15{filter:url(#Adobe_OpacityMaskFilter_4_);}
	.st16{mask:url(#mask-2_2_);fill:none;stroke:#000000;stroke-width:2;}
	.st17{fill:#434343;}
	.st18{fill:#434343;stroke:#F9F9F9;stroke-width:0.25;stroke-miterlimit:10;}
	.st19{fill:none;stroke:#FC6A55;stroke-width:0.5;stroke-miterlimit:10;}
	.st20{fill:none;stroke:#FC6A55;stroke-width:0.75;stroke-miterlimit:10;}
	.st21{fill:#FC6A55;stroke:#FC6A55;stroke-width:0.5;stroke-miterlimit:10;}
	.st22{opacity:0.153;fill:url(#Path_146_);enable-background:new    ;}
	.st23{opacity:0.1;fill:#590BB2;enable-background:new    ;}
	.st24{fill:#8E8CA8;}
	.st25{fill:#F5F4F9;}
	.st26{fill:#FFD5B8;}
	.st27{fill:#FC8473;}
	.st28{fill:#1C3475;}
	.st29{fill:#DDD9E4;}
	.st30{fill:#828FB3;}
	.st31{opacity:7.584635e-02;fill:url(#Path_147_);enable-background:new    ;}
	.st32{fill:#FFBE92;}
	.st33{fill:#FB8E7F;}
	.st34{fill:#FDB1A6;}
	.st35{fill:#FC806F;}
	.st36{fill:#FFE783;}
	.st37{fill:#104478;}
	.st38{fill:none;stroke:#FFFFFF;stroke-miterlimit:10;}
	.st39{fill:none;stroke:#000000;stroke-width:0.15;stroke-miterlimit:10;}
	.st40{opacity:0.1;fill:url(#Path_148_);enable-background:new    ;}
	.st41{opacity:0.1;fill:url(#Path_149_);enable-background:new    ;}
	.st42{fill-rule:evenodd;clip-rule:evenodd;}
</style>
<g>
	<g>
		<path d="M17.3,8.3C17,8.2,16.4,8.1,16,8c0,0,0,0,0,0c0,0,0,0,0,0c0,0,0,0,0,0C16,8,16,8,16,7.9V7.4c0.2-0.2,0.5-0.5,0.5-1h0.4
			c0.3,0,0.5-0.3,0.5-0.6l0-0.4c0-1.4-1-2.5-2.2-2.5c-1.2,0-2.2,1.1-2.2,2.5l0,0.4c0,0.3,0.2,0.5,0.4,0.6v0.3c0,0.2,0.2,0.4,0.4,0.4
			h0.3c0.1,0.2,0.2,0.3,0.3,0.4v0.5c0,0.1,0,0.1-0.1,0.1c-0.3,0.1-1,0.2-1.3,0.3c-0.4,0.2-0.7,0.7-0.7,1.2V10c0,0.1,0.1,0.1,0.1,0.1
			c0.1,0,0.1-0.1,0.1-0.1V9.5c0-0.4,0.2-0.8,0.5-0.9c0.2-0.1,0.4-0.2,0.6-0.2L14,9.1c0.1,0.2,0.2,0.3,0.4,0.3c0.1,0,0,0,0.6-0.1v2.2
			h-1.7v-0.6c0-0.1-0.1-0.1-0.1-0.1s-0.1,0.1-0.1,0.1v0.6h-0.5c-0.1,0-0.1-0.1-0.1-0.1v-0.8c0-0.1-0.1-0.1-0.1-0.1
			c-0.1,0-0.1,0.1-0.1,0.1v0.8c0,0.2,0.2,0.4,0.4,0.4h5.1c0.2,0,0.4-0.2,0.4-0.4V9.5C18,9,17.7,8.6,17.3,8.3L17.3,8.3z M16.1,8.3
			c0.1,0,0.2,0,0.3,0L16,9c0,0.1-0.1,0.1-0.2,0.1L15.4,9L16.1,8.3z M16.5,5c0-0.4-0.2-0.5-0.4-0.8c-0.2-0.2-0.5-0.2-0.6,0
			c-0.2,0.2-0.4,0.3-0.6,0.3h-0.5c-0.2,0-0.4,0.2-0.5,0.5h-0.2c0.1-0.8,0.8-1.4,1.5-1.4c0.8,0,1.5,0.6,1.6,1.4L16.5,5L16.5,5z
			 M13.5,5.3h0.2l0,0.8h-0.2C13.5,5.3,13.5,5.4,13.5,5.3z M16.7,6.1h-0.2l0-0.8h0.2C16.7,5.4,16.7,5.3,16.7,6.1L16.7,6.1z M13.1,5.8
			l0-0.4c0-1.2,0.9-2.2,2-2.2c1.1,0,2,1,2,2.2l0,0.4c0,0.1-0.1,0.2-0.2,0.3l0-0.7c0-1.1-0.9-2.1-1.9-2c-1,0-1.8,0.9-1.8,2l0,0.7
			C13.2,6,13.1,5.9,13.1,5.8L13.1,5.8z M13.6,6.7c-0.1,0-0.1-0.1-0.1-0.1V6.4h0.2c0,0.1,0,0.3,0.1,0.4H13.6z M14,6.6
			c0-0.1,0-0.2,0-0.2l0-1.2c0-0.2,0.2-0.3,0.3-0.3h0.5c0.3,0,0.6-0.1,0.8-0.3c0.1-0.1,0.2-0.1,0.3,0c0.2,0.2,0.4,0.4,0.4,0.7l0,1.2
			c0,0.4-0.2,0.7-0.5,0.9c0,0,0,0,0,0c-0.2,0.2-0.5,0.3-0.7,0.3c-0.1,0-0.4-0.1-0.6-0.2h0.2c0.2,0,0.3-0.2,0.3-0.4s-0.2-0.4-0.3-0.4
			h-0.5C14.2,6.5,14.1,6.5,14,6.6L14,6.6z M14.3,7c-0.1,0-0.1-0.1-0.1-0.1c0-0.1,0-0.1,0.1-0.1h0.5c0.1,0,0.1,0.1,0.1,0.1
			s0,0.1-0.1,0.1H14.3z M14.4,9.1c-0.1,0-0.2,0-0.2-0.1l-0.3-0.6c0.1,0,0.2,0,0.3,0L14.8,9L14.4,9.1z M14.4,8.2
			c0.1-0.1,0.1-0.2,0.1-0.3V7.6c0.2,0.1,0.4,0.2,0.6,0.2c0,0,0,0,0,0c0,0,0,0,0,0c0.2,0,0.4-0.1,0.6-0.2v0.4c0,0.1,0,0.2,0.1,0.3
			l-0.7,0.8L14.4,8.2z M17.8,11.4c0,0.1-0.1,0.1-0.1,0.1h-0.5v-0.6c0-0.1-0.1-0.1-0.1-0.1c-0.1,0-0.1,0.1-0.1,0.1v0.6h-1.7V9.3
			c0.5,0.1,0.5,0.1,0.6,0.1c0.2,0,0.3-0.1,0.4-0.3l0.4-0.7c0.2,0.1,0.5,0.1,0.6,0.2c0.3,0.2,0.5,0.5,0.5,0.9L17.8,11.4L17.8,11.4z"
			/>
	</g>
	<path d="M3.7,18.8l-0.5,0.4l-0.5-0.4c-0.1-0.1-0.3-0.1-0.4,0l-0.5,0.4l-0.5-0.4c-0.1-0.1-0.3-0.1-0.4,0L0.6,19v-15l0.3,0.2
		c0.1,0.1,0.3,0.1,0.4,0l0.6-0.5l0.6,0.5c0.1,0.1,0.3,0.1,0.4,0l0.6-0.5l0.6,0.5c0.1,0.1,0.3,0.1,0.4,0l0.6-0.5l0.6,0.5
		c0.1,0.1,0.3,0.1,0.4,0l0.6-0.5l0.6,0.5c0.1,0.1,0.3,0.1,0.4,0l0.6-0.5l0.6,0.5c0.1,0.1,0.3,0.1,0.4,0l0.6-0.5l0.6,0.5
		c0.1,0.1,0.3,0.1,0.4,0l0.3-0.2v7.8c0,0.2,0.1,0.3,0.3,0.3s0.3-0.1,0.3-0.3V3.4c0-0.2-0.1-0.3-0.3-0.3c-0.1,0-0.1,0-0.2,0.1
		l-0.6,0.5L10,3.2c-0.1-0.1-0.3-0.1-0.4,0L9,3.7L8.4,3.2C8.3,3.1,8.2,3.1,8,3.2L7.4,3.7L6.8,3.2c-0.1-0.1-0.3-0.1-0.4,0L5.9,3.7
		L5.2,3.2C5.1,3.1,5,3.1,4.9,3.2L4.3,3.7L3.7,3.2c-0.1-0.1-0.3-0.1-0.4,0L2.7,3.7L2.1,3.2C2,3.1,1.8,3.1,1.7,3.2L1.1,3.7L0.5,3.2
		C0.3,3.1,0.2,3.1,0.1,3.3C0,3.3,0,3.4,0,3.4v16.2c0,0.2,0.1,0.3,0.3,0.3c0.1,0,0.1,0,0.2-0.1L1,19.4l0.5,0.4c0.1,0.1,0.3,0.1,0.4,0
		l0.5-0.4L3,19.9c0.1,0.1,0.3,0.1,0.4,0l0.7-0.6c0.1-0.1,0.1-0.3,0-0.4C4,18.7,3.8,18.7,3.7,18.8L3.7,18.8L3.7,18.8z"/>
	<path d="M1.8,8.2v0.3c0,0.3,0.3,0.6,0.6,0.6l0,0.6l0.6,0l0-0.6c0.3,0,0.6-0.3,0.6-0.6V7.9c0-0.3-0.3-0.6-0.6-0.6H2.4V6.7H3V7h0.6
		V6.7c0-0.3-0.3-0.6-0.6-0.6h0l0-0.6H2.4l0,0.6c-0.3,0-0.6,0.3-0.6,0.6v0.6c0,0.3,0.3,0.6,0.6,0.6H3v0.6H2.4V8.2H1.8z"/>
	<path d="M9.9,5.5H5.1v3.6h4.8V5.5z M9.3,8.5H5.7V6.1h3.6V8.5z"/>
	<path d="M1.8,10.3h8.1v0.6H1.8V10.3z"/>
	<path d="M1.8,11.5h8.1v0.6H1.8V11.5z"/>
	<path d="M1.8,12.7h2.4v0.6H1.8V12.7z"/>
	<path d="M1.8,13.9h2.4v0.6H1.8V13.9z"/>
	<path d="M1.8,15.1h2.4v0.6H1.8V15.1z"/>
	<path d="M1.8,16.3h2.4v0.6H1.8V16.3z"/>
	<path d="M1.8,17.5h2.4v0.6H1.8V17.5z"/>
	<path d="M17.7,12.7H5.1c-0.2,0-0.3,0.1-0.3,0.3v7.8c0,0.2,0.1,0.3,0.3,0.3h12.6c0.2,0,0.3-0.1,0.3-0.3V13
		C18,12.9,17.9,12.7,17.7,12.7z M17.4,20.5h-12v-7.2h12V20.5z"/>
	<path d="M6.3,19c0.3,0,0.6,0.3,0.6,0.6c0,0.2,0.1,0.3,0.3,0.3h8.4c0.2,0,0.3-0.1,0.3-0.3c0-0.3,0.3-0.6,0.6-0.6
		c0.2,0,0.3-0.1,0.3-0.3v-3.6c0-0.2-0.1-0.3-0.3-0.3c-0.3,0-0.6-0.3-0.6-0.6c0-0.2-0.1-0.3-0.3-0.3H7.2c-0.2,0-0.3,0.1-0.3,0.3
		c0,0.3-0.3,0.6-0.6,0.6C6.1,14.8,6,15,6,15.1v3.6C6,18.9,6.1,19,6.3,19z M6.6,15.4C7,15.3,7.3,15,7.5,14.5h7.9
		c0.1,0.4,0.4,0.8,0.9,0.9v3.1c-0.4,0.1-0.8,0.4-0.9,0.9H7.5c-0.1-0.4-0.4-0.8-0.9-0.9V15.4z"/>
	<path d="M13.9,16.7h0.6c0.2,0,0.3-0.1,0.3-0.3c0-0.2-0.1-0.3-0.3-0.3h-0.6c-0.2,0-0.3,0.1-0.3,0.3C13.6,16.6,13.7,16.7,13.9,16.7z"
		/>
	<path d="M7.8,17.2h0.6c0.2,0,0.3-0.1,0.3-0.3c0-0.2-0.1-0.3-0.3-0.3H7.8c-0.2,0-0.3,0.1-0.3,0.3C7.5,17.1,7.6,17.2,7.8,17.2z"/>
	<path d="M11.4,18.7c1,0,1.8-0.8,1.8-1.8s-0.8-1.8-1.8-1.8S9.6,16,9.6,16.9C9.6,17.9,10.4,18.7,11.4,18.7z M11.4,15.7
		c0.7,0,1.2,0.5,1.2,1.2c0,0.7-0.5,1.2-1.2,1.2c-0.7,0-1.2-0.5-1.2-1.2C10.2,16.3,10.7,15.7,11.4,15.7z"/>
</g>
</svg>
