<?xml version="1.0" encoding="utf-8"?>
<!-- Generator: Adobe Illustrator 24.0.2, SVG Export Plug-In . SVG Version: 6.00 Build 0)  -->
<svg version="1.1" id="Layer_1" xmlns="http://www.w3.org/2000/svg" xmlns:xlink="http://www.w3.org/1999/xlink" x="0px" y="0px"
	 viewBox="0 0 18 24" style="enable-background:new 0 0 18 24;" xml:space="preserve">
<style type="text/css">
	.st0{fill:#FC6A55;}
	.st1{fill:#EDEDED;}
	.st2{fill:none;stroke:#FC6A55;stroke-miterlimit:10;}
	.st3{stroke:#FFFFFF;stroke-width:0.25;stroke-miterlimit:10;}
	.st4{fill:#656D7A;}
	.st5{fill:#FFFFFF;}
	.st6{filter:url(#Adobe_OpacityMaskFilter);}
	.st7{fill-rule:evenodd;clip-rule:evenodd;fill:#FFFFFF;}
	.st8{mask:url(#mask-2_8_);fill-rule:evenodd;clip-rule:evenodd;}
	.st9{filter:url(#Adobe_OpacityMaskFilter_1_);}
	.st10{mask:url(#mask-2_7_);fill-rule:evenodd;clip-rule:evenodd;}
	.st11{filter:url(#Adobe_OpacityMaskFilter_2_);}
	.st12{mask:url(#mask-2_6_);fill-rule:evenodd;clip-rule:evenodd;}
	.st13{filter:url(#Adobe_OpacityMaskFilter_3_);}
	.st14{mask:url(#mask-2_5_);fill-rule:evenodd;clip-rule:evenodd;}
	.st15{filter:url(#Adobe_OpacityMaskFilter_4_);}
	.st16{mask:url(#mask-2_2_);fill:none;stroke:#000000;stroke-width:2;}
	.st17{fill:#434343;}
	.st18{fill:#434343;stroke:#F9F9F9;stroke-width:0.25;stroke-miterlimit:10;}
	.st19{fill:none;stroke:#FC6A55;stroke-width:0.5;stroke-miterlimit:10;}
	.st20{fill:none;stroke:#FC6A55;stroke-width:0.75;stroke-miterlimit:10;}
	.st21{fill:#FC6A55;stroke:#FC6A55;stroke-width:0.5;stroke-miterlimit:10;}
	.st22{opacity:0.153;fill:url(#Path_146_);enable-background:new    ;}
	.st23{opacity:0.1;fill:#590BB2;enable-background:new    ;}
	.st24{fill:#8E8CA8;}
	.st25{fill:#F5F4F9;}
	.st26{fill:#FFD5B8;}
	.st27{fill:#FC8473;}
	.st28{fill:#1C3475;}
	.st29{fill:#DDD9E4;}
	.st30{fill:#828FB3;}
	.st31{opacity:7.584635e-02;fill:url(#Path_147_);enable-background:new    ;}
	.st32{fill:#FFBE92;}
	.st33{fill:#FB8E7F;}
	.st34{fill:#FDB1A6;}
	.st35{fill:#FC806F;}
	.st36{fill:#FFE783;}
	.st37{fill:#104478;}
	.st38{fill:none;stroke:#FFFFFF;stroke-miterlimit:10;}
	.st39{fill:none;stroke:#000000;stroke-width:0.15;stroke-miterlimit:10;}
	.st40{opacity:0.1;fill:url(#Path_148_);enable-background:new    ;}
	.st41{opacity:0.1;fill:url(#Path_149_);enable-background:new    ;}
	.st42{fill-rule:evenodd;clip-rule:evenodd;fill:#FC6A55;}
	.st43{fill-rule:evenodd;clip-rule:evenodd;}
</style>
<g>
	<g>
		<path class="st0" d="M16.9,13.2h-0.3v-0.4H16v-1.1c0-0.3-0.1-0.6-0.4-0.7l-1.1-0.8l1.1-0.8C15.9,9.3,16,9,16,8.7V7.6h0.5V7.2h0.3
			c0.1,0,0.1,0,0.1-0.1s0-0.1-0.1-0.1h-0.3h-0.1h-4.3H12h-0.3c-0.1,0-0.1,0-0.1,0.1s0,0.1,0.1,0.1H12v0.4h0.5v1.1
			c0,0.3,0.1,0.6,0.4,0.7l1.1,0.8L13,10.9c-0.2,0.2-0.4,0.4-0.4,0.7v1.1H12v0.4h-0.3c-0.1,0-0.1,0-0.1,0.1c0,0.1,0,0.1,0.1,0.1H12
			h0.1h4.3h0.1h0.3c0.1,0,0.1,0,0.1-0.1C17,13.2,16.9,13.2,16.9,13.2z M12.3,7.4V7.2h4.1v0.2H16h-3.4H12.3z M13.1,9.2
			c-0.2-0.1-0.3-0.3-0.3-0.5V7.6h3v1.1c0,0.2-0.1,0.4-0.3,0.5L14.3,10L13.1,9.2z M12.8,11.7c0-0.2,0.1-0.4,0.3-0.5l1.2-0.8l1.2,0.8
			c0.2,0.1,0.3,0.3,0.3,0.5v1.1h-3V11.7z M12.3,13h0.3H16h0.3v0.2h-4.1V13z"/>
		<path class="st0" d="M13.3,8.9c-0.1,0-0.1-0.1-0.1-0.2V8.5c0-0.1,0-0.1-0.1-0.1S13,8.4,13,8.5v0.2c0,0.1,0.1,0.3,0.2,0.4l0.5,0.3
			c0,0,0,0,0.1,0c0,0,0.1,0,0.1,0c0,0,0-0.1,0-0.1L13.3,8.9z"/>
		<path class="st0" d="M15.4,11.4l-0.5-0.3c0,0-0.1,0-0.1,0c0,0,0,0.1,0,0.1l0.5,0.3c0.1,0,0.1,0.1,0.1,0.2V12c0,0.1,0,0.1,0.1,0.1
			s0.1,0,0.1-0.1v-0.2C15.6,11.6,15.5,11.5,15.4,11.4z"/>
	</g>
	<g>
		<path class="st0" d="M16.5,3h-15C0.7,3,0,3.7,0,4.5v15C0,20.3,0.7,21,1.5,21h15c0.8,0,1.5-0.7,1.5-1.5v-15C18,3.7,17.3,3,16.5,3z
			 M17.4,19.5c0,0.5-0.4,0.9-0.9,0.9h-15c-0.5,0-0.9-0.4-0.9-0.9V6h16.8L17.4,19.5L17.4,19.5z M17.4,5.4H0.6V4.5
			C0.6,4,1,3.6,1.5,3.6h15c0.5,0,0.9,0.4,0.9,0.9L17.4,5.4L17.4,5.4z"/>
		<path class="st0" d="M2.1,4.2H1.8c-0.2,0-0.3,0.1-0.3,0.3c0,0.2,0.1,0.3,0.3,0.3h0.3c0.2,0,0.3-0.1,0.3-0.3
			C2.4,4.3,2.3,4.2,2.1,4.2z"/>
		<path class="st0" d="M3.4,4.2c-0.1,0-0.2,0-0.2,0c0,0-0.1,0-0.1,0.1C3,4.4,3,4.6,3.1,4.7c0,0,0.1,0,0.1,0.1c0.1,0,0.2,0,0.2,0
			c0,0,0.1,0,0.1-0.1C3.6,4.6,3.6,4.4,3.4,4.2C3.5,4.3,3.5,4.2,3.4,4.2z"/>
		<path class="st0" d="M4.6,4.2c-0.1,0-0.2,0-0.3,0.1c0,0,0,0.1-0.1,0.1c0,0.1,0,0.2,0,0.2c0,0,0,0.1,0.1,0.1c0.1,0.1,0.3,0.1,0.4,0
			c0,0,0-0.1,0.1-0.1c0,0,0-0.1,0-0.1C4.8,4.4,4.7,4.3,4.6,4.2z"/>
		<path class="st0" d="M16.2,4.2H6c-0.2,0-0.3,0.1-0.3,0.3c0,0.2,0.1,0.3,0.3,0.3h10.2c0.2,0,0.3-0.1,0.3-0.3
			C16.5,4.3,16.4,4.2,16.2,4.2z"/>
	</g>
	<path class="st0" d="M2.7,18C2.7,18,2.8,18,2.7,18c0.9,1,2.2,1.5,3.5,1.5S8.8,19,9.7,18c0,0,0,0,0,0c0,0,0,0,0,0
		c1.7-1.8,1.7-4.6,0-6.4l0,0c0,0,0,0,0,0c0,0,0,0,0,0c-0.9-1-2.1-1.5-3.5-1.5s-2.6,0.5-3.5,1.5c0,0,0,0,0,0c0,0,0,0,0,0
		C1,13.3,1,16.1,2.7,18C2.7,17.9,2.7,18,2.7,18z M7.5,18.8c0.4-0.4,0.6-1,0.8-1.5v0c0.3,0.1,0.6,0.3,0.8,0.5
		C8.7,18.3,8.1,18.6,7.5,18.8z M9.5,17.5c-0.3-0.3-0.7-0.5-1-0.6c0.2-0.6,0.2-1.2,0.2-1.9h1.8C10.5,15.9,10.1,16.8,9.5,17.5z
		 M10.5,14.5H8.7c0-0.6-0.1-1.3-0.2-1.9c0.4-0.2,0.7-0.4,1-0.6C10.1,12.7,10.5,13.6,10.5,14.5z M9.2,11.6c-0.3,0.2-0.5,0.4-0.8,0.5
		c-0.2-0.5-0.4-1.1-0.8-1.5C8.1,10.8,8.7,11.2,9.2,11.6z M6.5,10.5c0.6,0.2,1.1,0.9,1.4,1.9c-0.5,0.2-0.9,0.3-1.4,0.3V10.5z
		 M6.5,13.1C7,13,7.5,13,8,12.8c0.1,0.6,0.2,1.1,0.2,1.7H6.5V13.1z M6.5,15h1.8c0,0.6-0.1,1.1-0.2,1.7c-0.5-0.2-1-0.3-1.6-0.3V15z
		 M6.5,16.9c0.5,0,1,0.1,1.4,0.3c-0.3,1-0.8,1.7-1.4,1.9V16.9z M3.3,17.8c0.3-0.2,0.5-0.4,0.8-0.5v0c0.2,0.5,0.4,1.1,0.8,1.5
		C4.3,18.6,3.7,18.3,3.3,17.8z M6,19c-0.6-0.2-1.1-0.9-1.4-1.9C5,17,5.5,16.9,6,16.9L6,19L6,19z M6,16.4c-0.5,0-1.1,0.1-1.6,0.3
		c-0.1-0.6-0.2-1.1-0.2-1.7H6V16.4z M6,14.5H4.2c0-0.6,0.1-1.1,0.2-1.7C4.9,13,5.5,13,6,13.1V14.5z M6,10.5v2.1
		c-0.5,0-1-0.1-1.4-0.3C4.9,11.3,5.4,10.6,6,10.5z M4.9,10.6c-0.4,0.4-0.6,1-0.8,1.5v0c-0.3-0.1-0.6-0.3-0.8-0.5
		C3.7,11.2,4.3,10.8,4.9,10.6z M2.9,12c0.3,0.3,0.7,0.5,1,0.6c-0.2,0.6-0.2,1.2-0.2,1.9H1.9C2,13.6,2.3,12.7,2.9,12z M3.7,15
		c0,0.6,0.1,1.3,0.2,1.9c-0.4,0.2-0.7,0.4-1,0.6c-0.6-0.7-0.9-1.6-1-2.5L3.7,15L3.7,15z"/>
</g>
</svg>
