<?xml version="1.0" encoding="utf-8"?>
<!-- Generator: Adobe Illustrator 24.0.2, SVG Export Plug-In . SVG Version: 6.00 Build 0)  -->
<svg version="1.1" id="Layer_1" xmlns="http://www.w3.org/2000/svg" xmlns:xlink="http://www.w3.org/1999/xlink" x="0px" y="0px"
	 viewBox="0 0 18 24" style="enable-background:new 0 0 18 24;" xml:space="preserve">
<style type="text/css">
	.st0{fill:#FC6A55;}
	.st1{fill:#EDEDED;}
	.st2{fill:none;stroke:#FC6A55;stroke-miterlimit:10;}
	.st3{stroke:#FFFFFF;stroke-width:0.25;stroke-miterlimit:10;}
	.st4{fill:#656D7A;}
	.st5{fill:#FFFFFF;}
	.st6{filter:url(#Adobe_OpacityMaskFilter);}
	.st7{fill-rule:evenodd;clip-rule:evenodd;fill:#FFFFFF;}
	.st8{mask:url(#mask-2_8_);fill-rule:evenodd;clip-rule:evenodd;}
	.st9{filter:url(#Adobe_OpacityMaskFilter_1_);}
	.st10{mask:url(#mask-2_7_);fill-rule:evenodd;clip-rule:evenodd;}
	.st11{filter:url(#Adobe_OpacityMaskFilter_2_);}
	.st12{mask:url(#mask-2_6_);fill-rule:evenodd;clip-rule:evenodd;}
	.st13{filter:url(#Adobe_OpacityMaskFilter_3_);}
	.st14{mask:url(#mask-2_5_);fill-rule:evenodd;clip-rule:evenodd;}
	.st15{filter:url(#Adobe_OpacityMaskFilter_4_);}
	.st16{mask:url(#mask-2_2_);fill:none;stroke:#000000;stroke-width:2;}
	.st17{fill:#434343;}
	.st18{fill:#434343;stroke:#F9F9F9;stroke-width:0.25;stroke-miterlimit:10;}
	.st19{fill:none;stroke:#FC6A55;stroke-width:0.5;stroke-miterlimit:10;}
	.st20{fill:none;stroke:#FC6A55;stroke-width:0.75;stroke-miterlimit:10;}
	.st21{fill:#FC6A55;stroke:#FC6A55;stroke-width:0.5;stroke-miterlimit:10;}
	.st22{opacity:0.153;fill:url(#Path_146_);enable-background:new    ;}
	.st23{opacity:0.1;fill:#590BB2;enable-background:new    ;}
	.st24{fill:#8E8CA8;}
	.st25{fill:#F5F4F9;}
	.st26{fill:#FFD5B8;}
	.st27{fill:#FC8473;}
	.st28{fill:#1C3475;}
	.st29{fill:#DDD9E4;}
	.st30{fill:#828FB3;}
	.st31{opacity:7.584635e-02;fill:url(#Path_147_);enable-background:new    ;}
	.st32{fill:#FFBE92;}
	.st33{fill:#FB8E7F;}
	.st34{fill:#FDB1A6;}
	.st35{fill:#FC806F;}
	.st36{fill:#FFE783;}
	.st37{fill:#104478;}
	.st38{fill:none;stroke:#FFFFFF;stroke-miterlimit:10;}
	.st39{fill:none;stroke:#000000;stroke-width:0.15;stroke-miterlimit:10;}
	.st40{opacity:0.1;fill:url(#Path_148_);enable-background:new    ;}
	.st41{opacity:0.1;fill:url(#Path_149_);enable-background:new    ;}
	.st42{fill-rule:evenodd;clip-rule:evenodd;fill:#FC6A55;}
	.st43{fill-rule:evenodd;clip-rule:evenodd;}
</style>
<g id="advisor">
	<path class="st0" d="M15.7,11.1l-0.9-0.3c-0.1,0-0.1,0-0.2,0l-0.1-0.6c0.6-0.3,1-0.9,1.1-1.5h0.3c0.3,0,0.6-0.3,0.6-0.6V7.8
		c0-0.3-0.2-0.5-0.5-0.6l0.4-0.4c0.1-0.1,0.1-0.1,0.1-0.2V6.3c0-1.2-0.9-2.1-2.1-2.1h-1.8c-1.2,0-2.1,0.9-2.1,2.1v0.3
		c0,0.1,0,0.2,0.1,0.2L11,7.2c-0.3,0.1-0.5,0.3-0.5,0.6v0.3c0,0.3,0.3,0.6,0.6,0.6h0.3c0.1,0.7,0.5,1.2,1.1,1.5l-0.1,0.6
		c-0.1,0-0.1,0-0.2,0l-0.9,0.3C10,11.3,9,12.4,9,13.8v0l-1.8-2.3c-0.1-0.8-0.7-1.4-1.5-1.4h-3c-0.2,0-0.3,0.1-0.3,0.3
		c0,0.8,0.7,1.5,1.5,1.5h1L9,18.1v2C9,20.6,9.4,21,9.9,21h7.8c0.2,0,0.3-0.1,0.3-0.3v-6.9C18,12.4,17,11.3,15.7,11.1L15.7,11.1z
		 M15.9,8.1h-0.3V7.8h0.3V8.1z M11.4,8.1h-0.3V7.8h0.3V8.1z M11.4,6.6v0.2l-0.3-0.3V6.3c0-0.8,0.7-1.5,1.5-1.5h1.8
		c0.8,0,1.5,0.7,1.5,1.5v0.2l-0.3,0.3V6.6c0-0.1-0.1-0.2-0.2-0.3l-1.2-0.6c-0.1,0-0.1,0-0.2,0l-2.4,0.6C11.5,6.3,11.4,6.5,11.4,6.6
		L11.4,6.6z M12,8.4V6.8l2.1-0.5L15,6.8v1.6c0,0.8-0.7,1.5-1.5,1.5C12.7,9.9,12,9.2,12,8.4z M14.1,11.3l-0.6,0.6l-0.6-0.6l0.1-0.8
		c0.3,0.1,0.6,0.1,0.9,0L14.1,11.3z M12.2,11.4l1.1,1.1c0.1,0.1,0.3,0.1,0.4,0l1.1-1.1l0.3,0.1l-1.2,1.6h-0.9l-1.2-1.6L12.2,11.4z
		 M14,15l0.3,2l-0.9,0.9L12.6,17l0.3-2H14z M13.1,14.4l0.1-0.6h0.7l0.1,0.6H13.1z M3.9,11.4c-0.4,0-0.7-0.2-0.8-0.6h2.6
		c0.4,0,0.7,0.2,0.8,0.6H3.9z M17.4,20.4h-1.2v-3h1.2V20.4z M17.4,16.8h-1.5c-0.2,0-0.3,0.1-0.3,0.3v3.3H9.9c-0.2,0-0.3-0.1-0.3-0.3
		V18c0-0.1,0-0.1-0.1-0.2L5.7,12h1.1l2.3,2.9C9.1,15,9.3,15,9.4,15c0.1,0,0.2-0.2,0.2-0.3v-0.9c0-1,0.7-1.9,1.7-2.1l1.3,1.8L12,17.1
		c0,0.1,0,0.2,0.1,0.3l1.2,1.2c0.1,0.1,0.3,0.1,0.4,0l1.2-1.2c0.1-0.1,0.1-0.2,0.1-0.3l-0.6-3.5l1.3-1.8c1,0.2,1.7,1.1,1.7,2.1V16.8
		z"/>
	<path class="st0" d="M0.9,9.6h7.2C8.6,9.6,9,9.2,9,8.7V3.9C9,3.4,8.6,3,8.1,3H0.9C0.4,3,0,3.4,0,3.9v4.8C0,9.2,0.4,9.6,0.9,9.6z
		 M0.6,3.9c0-0.2,0.1-0.3,0.3-0.3h7.2c0.2,0,0.3,0.1,0.3,0.3v4.8C8.4,8.9,8.3,9,8.1,9H0.9C0.7,9,0.6,8.9,0.6,8.7V3.9z"/>
	<path class="st0" d="M1.2,4.2h0.6v0.6H1.2V4.2z"/>
	<path class="st0" d="M2.4,4.2h5.4v0.6H2.4V4.2z"/>
	<path class="st0" d="M1.2,6.6h6.6v0.6H1.2V6.6z"/>
	<path class="st0" d="M1.2,5.4h6.6V6H1.2V5.4z"/>
	<path class="st0" d="M1.2,7.8h6.6v0.6H1.2V7.8z"/>
	<path class="st0" d="M2.7,17.1c-0.7,0-1.2,0.5-1.2,1.2c0,0.7,0.5,1.2,1.2,1.2s1.2-0.5,1.2-1.2C3.9,17.6,3.4,17.1,2.7,17.1z
		 M2.7,18.9c-0.3,0-0.6-0.3-0.6-0.6s0.3-0.6,0.6-0.6s0.6,0.3,0.6,0.6S3,18.9,2.7,18.9z"/>
	<path class="st0" d="M5.2,17.4L5,17.4l0.1-0.2c0.1-0.1,0.1-0.3,0-0.4L4.2,16c-0.1-0.1-0.2-0.1-0.4,0L3.6,16l-0.1-0.2
		c0-0.1-0.2-0.2-0.3-0.2H2.1c-0.1,0-0.3,0.1-0.3,0.2L1.8,16l-0.2-0.1c-0.1-0.1-0.3-0.1-0.4,0l-0.8,0.8c-0.1,0.1-0.1,0.2,0,0.4
		l0.1,0.2l-0.2,0.1c-0.1,0-0.2,0.2-0.2,0.3v1.2c0,0.1,0.1,0.3,0.2,0.3l0.2,0.1l-0.1,0.2c-0.1,0.1-0.1,0.3,0,0.4l0.8,0.8
		c0.1,0.1,0.2,0.1,0.4,0l0.2-0.1l0.1,0.2C1.8,20.9,2,21,2.1,21h1.2c0.1,0,0.3-0.1,0.3-0.2l0.1-0.2l0.2,0.1c0.1,0.1,0.3,0.1,0.4,0
		L5,19.8c0.1-0.1,0.1-0.2,0-0.4L5,19.2l0.2-0.1c0.1,0,0.2-0.2,0.2-0.3v-1.2C5.4,17.6,5.3,17.4,5.2,17.4z M4.8,18.7l-0.4,0.1
		c-0.2,0-0.3,0.2-0.2,0.4c0,0,0,0.1,0,0.1l0.2,0.3L3.9,20l-0.3-0.2c-0.1-0.1-0.3,0-0.4,0.1c0,0,0,0.1,0,0.1l-0.1,0.4H2.3L2.2,20
		c0-0.2-0.2-0.3-0.4-0.2c0,0-0.1,0-0.1,0L1.5,20L1,19.5l0.2-0.3c0.1-0.1,0-0.3-0.1-0.4c0,0-0.1,0-0.1,0l-0.4-0.1v-0.7L1,17.8
		c0.2,0,0.3-0.2,0.2-0.4c0,0,0-0.1,0-0.1L1,17.1l0.5-0.5l0.3,0.2c0.1,0.1,0.3,0,0.4-0.1c0,0,0-0.1,0-0.1l0.1-0.4h0.7l0.1,0.4
		c0,0.2,0.2,0.3,0.4,0.2c0,0,0.1,0,0.1,0l0.3-0.2l0.5,0.5l-0.2,0.3c-0.1,0.1,0,0.3,0.1,0.4c0,0,0.1,0,0.1,0l0.4,0.1L4.8,18.7z"/>
	<path class="st0" d="M2.4,14.4H3V15H2.4V14.4z"/>
	<path class="st0" d="M2.4,12.3H3v1.5H2.4V12.3z"/>
	<path class="st0" d="M6,18h0.6v0.6H6V18z"/>
	<path class="st0" d="M7.2,18h1.2v0.6H7.2V18z"/>
</g>
</svg>
