<?xml version="1.0" encoding="utf-8"?>
<!-- Generator: Adobe Illustrator 24.0.2, SVG Export Plug-In . SVG Version: 6.00 Build 0)  -->
<svg version="1.1" id="Layer_1" xmlns="http://www.w3.org/2000/svg" xmlns:xlink="http://www.w3.org/1999/xlink" x="0px" y="0px"
	 viewBox="0 0 18 24" style="enable-background:new 0 0 18 24;" xml:space="preserve">
<style type="text/css">
	.st0{fill:#FC6A55;}
	.st1{fill:#EDEDED;}
	.st2{fill:none;stroke:#FC6A55;stroke-miterlimit:10;}
	.st3{stroke:#FFFFFF;stroke-width:0.25;stroke-miterlimit:10;}
	.st4{fill:#656D7A;}
	.st5{fill:#FFFFFF;}
	.st6{filter:url(#Adobe_OpacityMaskFilter);}
	.st7{fill-rule:evenodd;clip-rule:evenodd;fill:#FFFFFF;}
	.st8{mask:url(#mask-2_8_);fill-rule:evenodd;clip-rule:evenodd;}
	.st9{filter:url(#Adobe_OpacityMaskFilter_1_);}
	.st10{mask:url(#mask-2_7_);fill-rule:evenodd;clip-rule:evenodd;}
	.st11{filter:url(#Adobe_OpacityMaskFilter_2_);}
	.st12{mask:url(#mask-2_6_);fill-rule:evenodd;clip-rule:evenodd;}
	.st13{filter:url(#Adobe_OpacityMaskFilter_3_);}
	.st14{mask:url(#mask-2_5_);fill-rule:evenodd;clip-rule:evenodd;}
	.st15{filter:url(#Adobe_OpacityMaskFilter_4_);}
	.st16{mask:url(#mask-2_2_);fill:none;stroke:#000000;stroke-width:2;}
	.st17{fill:#434343;}
	.st18{fill:#434343;stroke:#F9F9F9;stroke-width:0.25;stroke-miterlimit:10;}
	.st19{fill:none;stroke:#FC6A55;stroke-width:0.5;stroke-miterlimit:10;}
	.st20{fill:none;stroke:#FC6A55;stroke-width:0.75;stroke-miterlimit:10;}
	.st21{fill:#FC6A55;stroke:#FC6A55;stroke-width:0.5;stroke-miterlimit:10;}
	.st22{opacity:0.153;fill:url(#Path_146_);enable-background:new    ;}
	.st23{opacity:0.1;fill:#590BB2;enable-background:new    ;}
	.st24{fill:#8E8CA8;}
	.st25{fill:#F5F4F9;}
	.st26{fill:#FFD5B8;}
	.st27{fill:#FC8473;}
	.st28{fill:#1C3475;}
	.st29{fill:#DDD9E4;}
	.st30{fill:#828FB3;}
	.st31{opacity:7.584635e-02;fill:url(#Path_147_);enable-background:new    ;}
	.st32{fill:#FFBE92;}
	.st33{fill:#FB8E7F;}
	.st34{fill:#FDB1A6;}
	.st35{fill:#FC806F;}
	.st36{fill:#FFE783;}
	.st37{fill:#104478;}
	.st38{fill:none;stroke:#FFFFFF;stroke-miterlimit:10;}
	.st39{fill:none;stroke:#000000;stroke-width:0.15;stroke-miterlimit:10;}
	.st40{opacity:0.1;fill:url(#Path_148_);enable-background:new    ;}
	.st41{opacity:0.1;fill:url(#Path_149_);enable-background:new    ;}
	.st42{fill-rule:evenodd;clip-rule:evenodd;fill:#FC6A55;}
	.st43{fill-rule:evenodd;clip-rule:evenodd;}
</style>
<g>
	<path class="st0" d="M16.4,13.4l-2.2-0.5v-0.6c0.2-0.2,0.4-0.4,0.6-0.6h0.3c0.8,0,1.5-0.7,1.5-1.5c0-0.3-0.1-0.6-0.3-0.9V8.2
		c0-1.9-1.6-3.5-3.5-3.5S9.3,6.3,9.3,8.2v1.2C9.1,9.6,9,9.9,9,10.3c0,0.8,0.7,1.5,1.5,1.5h0.3c0.1,0.2,0.3,0.5,0.6,0.6v0.6l-2.2,0.5
		c-0.1,0-0.3,0.1-0.4,0.1V12c0-0.5-0.4-0.9-0.9-0.9h-7C0.4,11.1,0,11.5,0,12v5.2c0,0.5,0.4,0.9,0.9,0.9h2.3v0.6H2.6v0.6H18v-3.8
		C18,14.5,17.4,13.7,16.4,13.4z M11.5,13.5l0.7,0.5l-0.7,0.4l-0.2-0.9L11.5,13.5z M12.5,15.8h0.6l0.2,2.9h-1.1L12.5,15.8z
		 M13.1,15.2h-0.7l-0.2-0.5l0.5-0.3l0.5,0.3L13.1,15.2z M13.3,14l0.7-0.5l0.2,0L14,14.4L13.3,14z M15.1,11.1L15.1,11.1
		c0-0.2,0-0.4,0-0.6V9.4c0.5,0,0.9,0.4,0.9,0.9S15.6,11.1,15.1,11.1z M12.8,5.3c1.6,0,2.9,1.3,2.9,2.9v0.7c-0.2-0.1-0.4-0.1-0.6-0.1
		V8.2h-0.6v0.2c-0.2,0.2-0.4,0.3-0.7,0.4c0,0,0,0,0,0l-0.4-0.4c-0.2,0.2-0.5,0.4-0.8,0.4c0,0,0,0,0,0l-0.4-0.4
		c-0.3,0.3-0.8,0.5-1.2,0.5h0V8.2h-0.6v0.6c-0.2,0-0.4,0-0.6,0.1V8.2C9.9,6.6,11.2,5.3,12.8,5.3z M10.5,11.1c-0.5,0-0.9-0.4-0.9-0.9
		s0.4-0.9,0.9-0.9v1.2C10.5,10.7,10.5,10.9,10.5,11.1L10.5,11.1z M11,10.5V9.4h0c0.3,0,0.6-0.1,0.8-0.2v0.2h0.3
		c0.3,0,0.6-0.1,0.8-0.2v0.2h0.3c0.4,0,0.8-0.1,1.1-0.3v1.5c0,0.2,0,0.4-0.1,0.6h-1.6v0.6h1.3c-0.3,0.4-0.8,0.6-1.3,0.6
		C11.8,12.3,11,11.5,11,10.5z M12.8,12.9c0.3,0,0.6-0.1,0.9-0.2V13l-0.9,0.7L11.9,13v-0.3C12.2,12.8,12.5,12.9,12.8,12.9z M9.3,14
		l1.6-0.4l0.3,1.7l0.6-0.4l0.2,0.5l-0.3,3.2h-1.5v-3.2H9.6v3.2H8.1V18c0.3-0.1,0.6-0.4,0.6-0.8v-3C8.9,14.1,9.1,14,9.3,14z
		 M5.5,18.1h2v0.6h-2V18.1z M0.9,17.5c-0.2,0-0.3-0.1-0.3-0.3V12c0-0.2,0.1-0.3,0.3-0.3h7c0.2,0,0.3,0.1,0.3,0.3v5.2
		c0,0.2-0.1,0.3-0.3,0.3H5.5v-0.6c0-0.6-0.5-1.2-1.2-1.2s-1.2,0.5-1.2,1.2v0.6H0.9z M3.8,16.9c0-0.3,0.3-0.6,0.6-0.6
		s0.6,0.3,0.6,0.6v1.7H3.8V16.9z M17.4,18.7H16v-3.2h-0.6v3.2h-1.5l-0.3-3.2l0.2-0.5l0.6,0.4l0.3-1.7l1.5,0.4
		c0.7,0.2,1.1,0.7,1.1,1.4V18.7z"/>
</g>
</svg>
