<?xml version="1.0" encoding="utf-8"?>
<!-- Generator: Adobe Illustrator 24.0.2, SVG Export Plug-In . SVG Version: 6.00 Build 0)  -->
<svg version="1.1" id="Layer_1" xmlns="http://www.w3.org/2000/svg" xmlns:xlink="http://www.w3.org/1999/xlink" x="0px" y="0px"
	 viewBox="0 0 18 24" style="enable-background:new 0 0 18 24;" xml:space="preserve">
<style type="text/css">
	.st0{fill:#FC6A55;}
	.st1{fill:#EDEDED;}
	.st2{fill:none;stroke:#FC6A55;stroke-miterlimit:10;}
	.st3{stroke:#FFFFFF;stroke-width:0.25;stroke-miterlimit:10;}
	.st4{fill:#656D7A;}
	.st5{fill:#FFFFFF;}
	.st6{filter:url(#Adobe_OpacityMaskFilter);}
	.st7{fill-rule:evenodd;clip-rule:evenodd;fill:#FFFFFF;}
	.st8{mask:url(#mask-2_8_);fill-rule:evenodd;clip-rule:evenodd;}
	.st9{filter:url(#Adobe_OpacityMaskFilter_1_);}
	.st10{mask:url(#mask-2_7_);fill-rule:evenodd;clip-rule:evenodd;}
	.st11{filter:url(#Adobe_OpacityMaskFilter_2_);}
	.st12{mask:url(#mask-2_6_);fill-rule:evenodd;clip-rule:evenodd;}
	.st13{filter:url(#Adobe_OpacityMaskFilter_3_);}
	.st14{mask:url(#mask-2_5_);fill-rule:evenodd;clip-rule:evenodd;}
	.st15{filter:url(#Adobe_OpacityMaskFilter_4_);}
	.st16{mask:url(#mask-2_2_);fill:none;stroke:#000000;stroke-width:2;}
	.st17{fill:#434343;}
	.st18{fill:#434343;stroke:#F9F9F9;stroke-width:0.25;stroke-miterlimit:10;}
	.st19{fill:none;stroke:#FC6A55;stroke-width:0.5;stroke-miterlimit:10;}
	.st20{fill:none;stroke:#FC6A55;stroke-width:0.75;stroke-miterlimit:10;}
	.st21{fill:#FC6A55;stroke:#FC6A55;stroke-width:0.5;stroke-miterlimit:10;}
	.st22{opacity:0.153;fill:url(#Path_146_);enable-background:new    ;}
	.st23{opacity:0.1;fill:#590BB2;enable-background:new    ;}
	.st24{fill:#8E8CA8;}
	.st25{fill:#F5F4F9;}
	.st26{fill:#FFD5B8;}
	.st27{fill:#FC8473;}
	.st28{fill:#1C3475;}
	.st29{fill:#DDD9E4;}
	.st30{fill:#828FB3;}
	.st31{opacity:7.584635e-02;fill:url(#Path_147_);enable-background:new    ;}
	.st32{fill:#FFBE92;}
	.st33{fill:#FB8E7F;}
	.st34{fill:#FDB1A6;}
	.st35{fill:#FC806F;}
	.st36{fill:#FFE783;}
	.st37{fill:#104478;}
	.st38{fill:none;stroke:#FFFFFF;stroke-miterlimit:10;}
	.st39{fill:none;stroke:#000000;stroke-width:0.15;stroke-miterlimit:10;}
	.st40{opacity:0.1;fill:url(#Path_148_);enable-background:new    ;}
	.st41{opacity:0.1;fill:url(#Path_149_);enable-background:new    ;}
	.st42{fill-rule:evenodd;clip-rule:evenodd;fill:#FC6A55;}
	.st43{fill-rule:evenodd;clip-rule:evenodd;}
</style>
<g>
	<path class="st0" d="M18,18v-2.2l-0.8-0.2c0,0,0,0,0,0l0.4-0.7L16,13.3l-0.7,0.4c0,0,0,0,0,0L15,12.9h-2.2l-0.2,0.8c0,0,0,0,0,0
		l-0.7-0.4l-1.6,1.6l0.4,0.7c0,0,0,0,0,0l-0.8,0.2V18l0.8,0.2c0,0,0,0,0,0L10.3,19l1.6,1.6l0.7-0.4c0,0,0,0,0,0l0.2,0.8H15l0.2-0.8
		c0,0,0,0,0,0l0.7,0.4l1.6-1.6l-0.4-0.7c0,0,0,0,0,0L18,18z M16.9,18.9l-0.9,0.9l-0.6-0.4l-0.1,0.1c-0.1,0-0.2,0.1-0.3,0.1l-0.1,0.1
		l-0.2,0.7h-1.3l-0.2-0.7L13,19.7c-0.1,0-0.2-0.1-0.3-0.1l-0.1-0.1l-0.6,0.4L11,18.9l0.4-0.6l-0.1-0.1c0-0.1-0.1-0.2-0.1-0.3
		l-0.1-0.1l-0.7-0.2v-1.3l0.7-0.2l0.1-0.1c0-0.1,0.1-0.2,0.1-0.3l0.1-0.1L11,14.9l0.9-0.9l0.6,0.4l0.1-0.1c0.1,0,0.2-0.1,0.3-0.1
		l0.1-0.1l0.2-0.7h1.3l0.2,0.7l0.1,0.1c0.1,0,0.2,0.1,0.3,0.1l0.1,0.1l0.6-0.4l0.9,0.9l-0.4,0.6l0.1,0.1c0,0.1,0.1,0.2,0.1,0.3
		l0.1,0.1l0.7,0.2v1.3l-0.7,0.2l-0.1,0.1c0,0.1-0.1,0.2-0.1,0.3l-0.1,0.1L16.9,18.9z"/>
	<path class="st0" d="M13.9,14.6c-1.3,0-2.3,1-2.3,2.3s1,2.3,2.3,2.3s2.3-1,2.3-2.3S15.2,14.6,13.9,14.6z M13.9,18.7
		c-1,0-1.7-0.8-1.7-1.7s0.8-1.7,1.7-1.7s1.7,0.8,1.7,1.7S14.9,18.7,13.9,18.7z"/>
	<path class="st0" d="M13.9,15.8c-0.6,0-1.2,0.5-1.2,1.2s0.5,1.2,1.2,1.2s1.2-0.5,1.2-1.2S14.6,15.8,13.9,15.8z M13.9,17.5
		c-0.3,0-0.6-0.3-0.6-0.6s0.3-0.6,0.6-0.6s0.6,0.3,0.6,0.6S14.3,17.5,13.9,17.5z"/>
	<path class="st0" d="M7.4,7.9c0.1,0.3,0.3,0.5,0.5,0.7v0.2L6.5,9.4c-0.6,0.2-0.9,0.8-0.9,1.4v1.5h7v-1.5c0-0.6-0.4-1.1-0.9-1.4
		l-1.4-0.5V8.6c0.2-0.2,0.4-0.4,0.5-0.7c0.5-0.1,1-0.6,1-1.1V5.6C11.6,4.2,10.4,3,9,3S6.4,4.2,6.4,5.6v1.2C6.4,7.3,6.8,7.8,7.4,7.9z
		 M9.6,9L9,10L8.4,9v0C8.6,9.1,8.8,9.1,9,9.1S9.4,9.1,9.6,9L9.6,9z M8,9.5l0.6,1L8,10.7L7.6,9.6L8,9.5z M11.9,10.8v0.9H6.1v-0.9
		c0-0.4,0.2-0.7,0.6-0.8l0.4-0.2l0.6,1.7L9,10.9l1.3,0.7l0.6-1.7l0.4,0.2C11.7,10.1,11.9,10.4,11.9,10.8z M10.4,9.6L10,10.7
		l-0.6-0.3l0.6-1L10.4,9.6z M9,8.5C8.4,8.5,7.8,8,7.8,7.4V6.2C8.3,6.1,8.7,6,9,5.7C9.3,6,9.7,6.1,10.2,6.2v1.2C10.2,8,9.6,8.5,9,8.5
		z M10.7,7.3v-1C10.9,6.4,11,6.6,11,6.8S10.9,7.2,10.7,7.3z M9,3.6c1.1,0,2,0.9,2,2v0.2c-0.2-0.1-0.4-0.2-0.6-0.2h0
		c-0.5,0-0.9-0.2-1.2-0.5L9,4.9L8.8,5.1C8.5,5.4,8.1,5.6,7.6,5.6h0C7.3,5.6,7.1,5.7,7,5.8V5.6C7,4.5,7.9,3.6,9,3.6z M7.3,6.3v1
		C7.1,7.2,7,7,7,6.8S7.1,6.4,7.3,6.3z"/>
	<path class="st0" d="M0,21h5.8v-7.5H0V21z M0.6,14h4.6v6.4H0.6V14z"/>
	<path class="st0" d="M1.2,14.6h3.5v0.6H1.2V14.6z"/>
	<path class="st0" d="M1.2,15.8h0.6v0.6H1.2V15.8z"/>
	<path class="st0" d="M2.3,15.8h2.3v0.6H2.3V15.8z"/>
	<path class="st0" d="M1.2,16.9h3.5v0.6H1.2V16.9z"/>
	<path class="st0" d="M1.2,18.1h3.5v0.6H1.2V18.1z"/>
	<path class="st0" d="M4.1,19.3h0.6v0.6H4.1V19.3z"/>
	<path class="st0" d="M1.2,19.3h2.3v0.6H1.2V19.3z"/>
	<path class="st0" d="M7.8,16l-0.4-0.4L6,16.9l1.4,1.4l0.4-0.4l-0.7-0.7h2.2v-0.6H7.1L7.8,16z"/>
	<path class="st0" d="M3.2,7.6c0-0.2,0.1-0.3,0.3-0.3h1.3L4.1,8l0.4,0.4l1.4-1.4L4.6,5.7L4.1,6.1l0.7,0.7H3.5C3,6.8,2.6,7.2,2.6,7.6
		v5.2h0.6V7.6z"/>
	<path class="st0" d="M13.9,7.6v3.7l-0.7-0.7L12.9,11l1.4,1.4l1.4-1.4l-0.4-0.4l-0.7,0.7V7.6c0-0.5-0.4-0.9-0.9-0.9h-1.5v0.6h1.5
		C13.8,7.4,13.9,7.5,13.9,7.6z"/>
</g>
</svg>
