<?xml version="1.0" encoding="utf-8"?>
<!-- Generator: Adobe Illustrator 24.0.2, SVG Export Plug-In . SVG Version: 6.00 Build 0)  -->
<svg version="1.1" id="Layer_1" xmlns="http://www.w3.org/2000/svg" xmlns:xlink="http://www.w3.org/1999/xlink" x="0px" y="0px"
	 viewBox="0 0 82 59" style="enable-background:new 0 0 82 59;" xml:space="preserve">
<style type="text/css">
	.st0{fill:#FC6A55;}
	.st1{stroke:#FFFFFF;stroke-width:0.25;stroke-miterlimit:10;}
	.st2{fill:#656D7A;}
	.st3{fill:#FFFFFF;}
	.st4{filter:url(#Adobe_OpacityMaskFilter);}
	.st5{fill-rule:evenodd;clip-rule:evenodd;fill:#FFFFFF;}
	.st6{mask:url(#mask-2_8_);fill-rule:evenodd;clip-rule:evenodd;}
	.st7{filter:url(#Adobe_OpacityMaskFilter_1_);}
	.st8{mask:url(#mask-2_7_);fill-rule:evenodd;clip-rule:evenodd;}
	.st9{filter:url(#Adobe_OpacityMaskFilter_2_);}
	.st10{mask:url(#mask-2_6_);fill-rule:evenodd;clip-rule:evenodd;}
	.st11{filter:url(#Adobe_OpacityMaskFilter_3_);}
	.st12{mask:url(#mask-2_5_);fill-rule:evenodd;clip-rule:evenodd;}
	.st13{filter:url(#Adobe_OpacityMaskFilter_4_);}
	.st14{mask:url(#mask-2_2_);fill:none;stroke:#000000;stroke-width:2;}
	.st15{fill:#434343;}
	.st16{fill:#434343;stroke:#F9F9F9;stroke-width:0.25;stroke-miterlimit:10;}
	.st17{fill:none;stroke:#FC6A55;stroke-width:0.5;stroke-miterlimit:10;}
</style>
<g>
	<path class="st0" d="M65.7,9.5h-6.7V0h-28l-8.2,8.2v1.3h-6.7c-2.6,0-4.8,2.1-4.8,4.8v34.3c0,2.6,2.1,4.8,4.8,4.8h11.4v3.8h-3.8V59
		h34.3v-1.9h-3.8v-3.8h11.4c2.6,0,4.8-2.1,4.8-4.8V14.3C70.5,11.7,68.4,9.5,65.7,9.5z M64.8,45.7h-5.7V15.2h5.7V45.7z M57.2,45.7
		H24.8V9.5h7.6V1.9h24.7V45.7z M22.9,45.7h-5.7V15.2h5.7V45.7z M26.2,7.6l4.4-4.4v4.4H26.2z M13.4,14.3c0-1.6,1.3-2.9,2.9-2.9h6.7
		v1.9h-5.7c-1,0-1.9,0.9-1.9,1.9v30.5h-1.9V14.3z M52.4,57.1H29.6v-3.8h22.8V57.1z M68.6,48.5c0,1.6-1.3,2.9-2.9,2.9H16.3
		c-1.6,0-2.9-1.3-2.9-2.9v-1h55.2V48.5z M66.7,45.7V15.2c0-1-0.9-1.9-1.9-1.9h-5.7v-1.9h6.7c1.6,0,2.9,1.3,2.9,2.9v31.4H66.7z"/>
	<path class="st0" d="M26.7,43.8h28.5V15.2H26.7V43.8z M28.6,22.8h5.7v19h-5.7V22.8z M36.2,41.9v-19h17.1v19H36.2z M53.4,20.9H36.2
		v-3.8h17.1V20.9z M34.3,17.1v3.8h-5.7v-3.8H34.3z"/>
	<path class="st0" d="M30.5,24.7h1.9v1.9h-1.9V24.7z"/>
	<path class="st0" d="M38.1,24.7H40v1.9h-1.9V24.7z"/>
	<path class="st0" d="M42,24.7h9.5v1.9H42V24.7z"/>
	<path class="st0" d="M38.1,28.5h13.3v1.9H38.1V28.5z"/>
	<path class="st0" d="M30.5,34.3h1.9v1.9h-1.9V34.3z"/>
	<path class="st0" d="M38.1,34.3H40v1.9h-1.9V34.3z"/>
	<path class="st0" d="M42,34.3h9.5v1.9H42V34.3z"/>
	<path class="st0" d="M38.1,38.1h13.3V40H38.1V38.1z"/>
	<path class="st0" d="M41,3.8h14.3v1.9H41V3.8z"/>
	<path class="st0" d="M41,7.6h6.7v1.9H41V7.6z"/>
	<path class="st0" d="M49.6,7.6h5.7v1.9h-5.7V7.6z"/>
	<path class="st0" d="M41,11.4h14.3v1.9H41V11.4z"/>
</g>
</svg>
