<?xml version="1.0" encoding="utf-8"?>
<!-- Generator: Adobe Illustrator 24.1.1, SVG Export Plug-In . SVG Version: 6.00 Build 0)  -->
<svg version="1.1" id="Layer_1" xmlns="http://www.w3.org/2000/svg" xmlns:xlink="http://www.w3.org/1999/xlink" x="0px" y="0px"
	 viewBox="0 0 38 31" style="enable-background:new 0 0 38 31;" xml:space="preserve">
<style type="text/css">
	.st0{fill:#FC6A55;}
	.st1{fill:#EDEDED;}
	.st2{fill:none;stroke:#FC6A55;stroke-miterlimit:10;}
	.st3{stroke:#FFFFFF;stroke-width:0.25;stroke-miterlimit:10;}
	.st4{fill:#656D7A;}
	.st5{fill:#FFFFFF;}
	.st6{filter:url(#Adobe_OpacityMaskFilter);}
	.st7{fill-rule:evenodd;clip-rule:evenodd;fill:#FFFFFF;}
	.st8{mask:url(#mask-2_8_);fill-rule:evenodd;clip-rule:evenodd;}
	.st9{filter:url(#Adobe_OpacityMaskFilter_1_);}
	.st10{mask:url(#mask-2_7_);fill-rule:evenodd;clip-rule:evenodd;}
	.st11{filter:url(#Adobe_OpacityMaskFilter_2_);}
	.st12{mask:url(#mask-2_6_);fill-rule:evenodd;clip-rule:evenodd;}
	.st13{filter:url(#Adobe_OpacityMaskFilter_3_);}
	.st14{mask:url(#mask-2_5_);fill-rule:evenodd;clip-rule:evenodd;}
	.st15{filter:url(#Adobe_OpacityMaskFilter_4_);}
	.st16{mask:url(#mask-2_2_);fill:none;stroke:#000000;stroke-width:2;}
	.st17{fill:#9BDBD5;}
	.st18{fill:#434343;}
	.st19{fill:#434343;stroke:#F9F9F9;stroke-width:0.25;stroke-miterlimit:10;}
	.st20{fill:none;stroke:#FC6A55;stroke-width:0.5;stroke-miterlimit:10;}
	.st21{fill:none;stroke:#FC6A55;stroke-width:0.75;stroke-miterlimit:10;}
	.st22{fill:#FC6A55;stroke:#FC6A55;stroke-width:0.5;stroke-miterlimit:10;}
	.st23{opacity:0.153;fill:url(#Path_36_);enable-background:new    ;}
	.st24{opacity:0.1;fill:#590BB2;enable-background:new    ;}
	.st25{fill:#8E8CA8;}
	.st26{fill:#F5F4F9;}
	.st27{fill:#FFD5B8;}
	.st28{fill:#FC8473;}
	.st29{fill:#1C3475;}
	.st30{fill:#DDD9E4;}
	.st31{fill:#828FB3;}
	.st32{opacity:7.584635e-02;fill:url(#Path_37_);enable-background:new    ;}
	.st33{fill:#FFBE92;}
	.st34{fill:#FB8E7F;}
	.st35{fill:#FDB1A6;}
	.st36{fill:#FC806F;}
	.st37{fill:#FFE783;}
	.st38{fill:#104478;}
	.st39{fill:none;stroke:#FFFFFF;stroke-miterlimit:10;}
	.st40{fill:none;stroke:#000000;stroke-width:0.15;stroke-miterlimit:10;}
	.st41{opacity:0.1;fill:url(#Path_38_);enable-background:new    ;}
	.st42{opacity:0.1;fill:url(#Path_39_);enable-background:new    ;}
	.st43{fill-rule:evenodd;clip-rule:evenodd;fill:#FC6A55;}
	.st44{fill-rule:evenodd;clip-rule:evenodd;}
	.st45{fill:#FF6757;}
	.st46{fill:#666666;}
	.st47{fill:none;stroke:#FFFFFF;stroke-width:0.5;stroke-miterlimit:10;}
	.st48{fill:#F16A56;}
	.st49{fill:#515252;}
	.st50{fill:#F26A56;}
	.st51{fill:none;stroke:#F16A56;stroke-miterlimit:10;}
	.st52{fill:none;stroke:#929292;stroke-miterlimit:10;}
	.st53{fill:#929292;}
	.st54{fill:none;stroke:#000000;stroke-width:0.5;stroke-miterlimit:10;}
	.st55{fill:#A8A7A7;}
	.st56{fill:#F79F91;}
	.st57{fill:#B4A3EE;}
	.st58{fill:#222121;}
</style>
<g>
	<g>
		<g>
			<path class="st17" d="M26.6,21.8l-2.7-0.9l-1-2c0.9-0.9,1.5-2.1,1.7-3.4l0.1-0.8h1c0.9,0,1.7-0.8,1.7-1.8V9.3
				c0-4.9-3.8-8.8-8.5-8.8c-4.7,0-8.5,4-8.5,8.8V13c0,0.8,0.5,1.4,1.1,1.7v0.7c0,1,0.8,1.8,1.7,1.8h0.5c0.2,0.6,0.6,1.1,1,1.5
				c0.1,0.1,0.2,0.2,0.2,0.3l-1,2l-2.7,0.9C8.2,22.9,6,26.3,6,30c0,0.3,0.3,0.6,0.6,0.6h25c0.3,0,0.6-0.3,0.6-0.6
				C32,26.3,29.8,22.9,26.6,21.8z M26.4,13c0,0.3-0.3,0.6-0.6,0.6h-0.9c0.1-1.2,0.2-2.4,0.3-3.6c0,0,0-0.1,0-0.1h1.2V13z M12.2,13.6
				c-0.3,0-0.6-0.3-0.6-0.6V9.8h1.2c0,0.1,0,0.1,0,0.2c0,0,0,0,0,0c0,0,0,0,0,0c0,1.2,0.1,2.4,0.3,3.5L12.2,13.6L12.2,13.6z
				 M13.3,15.9c-0.3,0-0.6-0.3-0.6-0.6v-0.6h0.5l0.1,0.8c0,0.1,0.1,0.3,0.1,0.4H13.3z M12.8,8.7h-1.1c0.3-3.9,3.5-7.1,7.4-7.1
				c3.9,0,7.1,3.1,7.4,7.1h-1.1c0-3.3-2.6-5.9-5.7-5.9h-1C15.4,2.8,12.8,5.4,12.8,8.7z M18.5,4h1c2.5,0,4.6,2.2,4.6,4.8
				c0,0.2,0,0.3,0,0.5c0,0,0,0,0,0l-0.7-0.1c-1.9-0.3-3.7-1.2-5.1-2.7c-0.1-0.1-0.3-0.2-0.4-0.2c-1.5,0-3,0.7-3.9,1.9
				C14.2,5.9,16.1,4,18.5,4z M14.6,15.9c-0.3-1-0.6-3.9-0.7-5.7l0.8-1.1c0.7-1,1.8-1.6,3-1.6c1.5,1.5,3.5,2.5,5.6,2.8l0.8,0.1
				c-0.1,1.2-0.2,2.5-0.3,3.6c0,0,0,0,0,0c-0.1,0.4-0.1,0.6-0.2,1.3c-0.3,1.9-1.6,3.6-3.4,4c-0.7,0.2-1.5,0.2-2.2,0
				c-1.1-0.3-2.1-1.1-2.8-2.2h1.2c0.2,0.7,0.9,1.2,1.6,1.2H19c0.9,0,1.7-0.8,1.7-1.8c0-1-0.8-1.8-1.7-1.8h-1.1
				c-0.8,0-1.4,0.5-1.6,1.2H14.6z M17.8,20.5c0.4,0.1,0.8,0.1,1.2,0.1c0.3,0,0.6,0,0.9-0.1l-1,1.1L17.8,20.5z M18.1,22.5l-1.8,2
				c-0.5-1-0.9-2-1.3-3.1l0.7-1.4L18.1,22.5z M22.2,19.8l0.8,1.6c-0.3,1.1-0.8,2.1-1.3,3.1l-1.9-2L22.2,19.8z M17.3,16.5
				c0-0.3,0.3-0.6,0.6-0.6H19c0.3,0,0.6,0.3,0.6,0.6c0,0.3-0.3,0.6-0.6,0.6h-1.1C17.6,17.1,17.3,16.8,17.3,16.5z M7.1,29.4
				c0.2-2.9,2.1-5.6,4.6-6.4l2.4-0.8c0.4,1.3,1,2.5,1.6,3.6c0,0,0,0,0,0c0,0,0,0,0,0c0.5,0.8,1,1.7,1.6,2.5l0.7,1.2H7.1z M19,28.9
				l-0.8-1.3c0,0,0,0,0,0c-0.5-0.6-0.9-1.3-1.3-2l2-2.2l2.1,2.2c-0.4,0.7-0.8,1.4-1.3,2C19.8,27.6,19.8,27.5,19,28.9z M20,29.4
				l0.7-1.2c0.6-0.8,1.1-1.6,1.6-2.5c0,0,0,0,0,0c0,0,0,0,0,0c0.6-1.1,1.2-2.4,1.6-3.6l2.4,0.8c2.5,0.9,4.4,3.5,4.6,6.4L20,29.4
				L20,29.4z"/>
		</g>
	</g>
</g>
</svg>
