<?xml version="1.0" encoding="utf-8"?>
<!-- Generator: Adobe Illustrator 24.1.1, SVG Export Plug-In . SVG Version: 6.00 Build 0)  -->
<svg version="1.1" id="Layer_1" xmlns="http://www.w3.org/2000/svg" xmlns:xlink="http://www.w3.org/1999/xlink" x="0px" y="0px"
	 viewBox="0 0 37 42" style="enable-background:new 0 0 37 42;" xml:space="preserve">
<style type="text/css">
	.st0{fill:#FC6A55;}
	.st1{fill:#EDEDED;}
	.st2{fill:none;stroke:#FC6A55;stroke-miterlimit:10;}
	.st3{fill:#383838;}
	.st4{stroke:#FFFFFF;stroke-width:0.25;stroke-miterlimit:10;}
	.st5{fill:#656D7A;}
	.st6{fill:#FFFFFF;}
	.st7{filter:url(#Adobe_OpacityMaskFilter);}
	.st8{fill-rule:evenodd;clip-rule:evenodd;fill:#FFFFFF;}
	.st9{mask:url(#mask-2_8_);fill-rule:evenodd;clip-rule:evenodd;}
	.st10{filter:url(#Adobe_OpacityMaskFilter_1_);}
	.st11{mask:url(#mask-2_7_);fill-rule:evenodd;clip-rule:evenodd;}
	.st12{filter:url(#Adobe_OpacityMaskFilter_2_);}
	.st13{mask:url(#mask-2_6_);fill-rule:evenodd;clip-rule:evenodd;}
	.st14{filter:url(#Adobe_OpacityMaskFilter_3_);}
	.st15{mask:url(#mask-2_5_);fill-rule:evenodd;clip-rule:evenodd;}
	.st16{filter:url(#Adobe_OpacityMaskFilter_4_);}
	.st17{mask:url(#mask-2_2_);fill:none;stroke:#000000;stroke-width:2;}
	.st18{fill:#B4A3EE;}
	.st19{fill:#434343;}
	.st20{fill:#434343;stroke:#F9F9F9;stroke-width:0.25;stroke-miterlimit:10;}
	.st21{fill:none;stroke:#FC6A55;stroke-width:0.5;stroke-miterlimit:10;}
	.st22{fill:none;stroke:#FC6A55;stroke-width:0.75;stroke-miterlimit:10;}
	.st23{fill:#FC6A55;stroke:#FC6A55;stroke-width:0.5;stroke-miterlimit:10;}
	.st24{opacity:0.153;fill:url(#Path_36_);enable-background:new    ;}
	.st25{opacity:0.1;fill:#590BB2;enable-background:new    ;}
	.st26{fill:#8E8CA8;}
	.st27{fill:#F5F4F9;}
	.st28{fill:#FFD5B8;}
	.st29{fill:#FC8473;}
	.st30{fill:#1C3475;}
	.st31{fill:#DDD9E4;}
	.st32{fill:#828FB3;}
	.st33{opacity:7.584635e-02;fill:url(#Path_37_);enable-background:new    ;}
	.st34{fill:#FFBE92;}
	.st35{fill:#FB8E7F;}
	.st36{fill:#FDB1A6;}
	.st37{fill:#FC806F;}
	.st38{fill:#FFE783;}
	.st39{fill:#104478;}
	.st40{fill:none;stroke:#FFFFFF;stroke-miterlimit:10;}
	.st41{fill:none;stroke:#000000;stroke-width:0.15;stroke-miterlimit:10;}
	.st42{opacity:0.1;fill:url(#Path_38_);enable-background:new    ;}
	.st43{opacity:0.1;fill:url(#Path_39_);enable-background:new    ;}
	.st44{fill-rule:evenodd;clip-rule:evenodd;fill:#FC6A55;}
	.st45{fill-rule:evenodd;clip-rule:evenodd;}
	.st46{fill:#FF6757;}
	.st47{fill:#666666;}
	.st48{fill:none;stroke:#FFFFFF;stroke-width:0.5;stroke-miterlimit:10;}
	.st49{fill:#F16A56;}
	.st50{fill:#515252;}
	.st51{fill:#F26A56;}
	.st52{fill:none;stroke:#F16A56;stroke-miterlimit:10;}
	.st53{fill:none;stroke:#929292;stroke-miterlimit:10;}
	.st54{fill:#929292;}
	.st55{fill:none;stroke:#000000;stroke-width:0.5;stroke-miterlimit:10;}
	.st56{fill:#A8A7A7;}
	.st57{fill:#F79F91;}
	.st58{fill:#9BDBD5;}
	.st59{fill:#222121;}
</style>
<g>
	<g>
		<path class="st3" d="M19.2,23.1c0.6-0.4,1.1-1,1.1-1.8c0-0.8-0.4-1.5-1.1-1.9l-6.3-3.1c-0.8-0.4-1.7-0.6-2.6-0.7
			c1-0.9,1.6-2.2,1.6-3.6c0-2.6-2.1-4.8-4.8-4.8S2.4,9.4,2.4,12c0,1.5,0.7,2.8,1.8,3.7C1.8,16.3,0,18.4,0,21v6c0,1.6,1.3,3,3,3v7.2
			c0,1.3,1.1,2.4,2.4,2.4c0.7,0,1.4-0.3,1.8-0.8c0.4,0.5,1.1,0.8,1.8,0.8c1.3,0,2.4-1.1,2.4-2.4V20.5l6,2.7c0.2,0.1,0.4,0.1,0.7,0.2
			l2.7,9.1c-0.6,0.3-1,0.9-1,1.6c0,0.7,0.4,1.3,1,1.6c-0.3,0.4-0.4,0.9-0.4,1.4c0,1.3,1.1,2.4,2.4,2.4s2.4-1.1,2.4-2.4
			c0-0.4-0.1-0.8-0.3-1.2h6.6c-0.2,0.4-0.3,0.8-0.3,1.2c0,1.3,1.1,2.4,2.4,2.4c1.3,0,2.4-1.1,2.4-2.4c0-1.3-1.1-2.4-2.4-2.4H21.5
			c-0.3,0-0.6-0.3-0.6-0.6s0.3-0.6,0.6-0.6h14.2l1.3-5.8l0-1.3H20.2L19.2,23.1z M3.6,12c0-2,1.6-3.6,3.6-3.6s3.6,1.6,3.6,3.6
			s-1.6,3.6-3.6,3.6S3.6,14,3.6,12z M11.5,19.2h-1.3v17.9c0,0.7-0.5,1.2-1.2,1.2s-1.2-0.5-1.2-1.2V25.8H6.6v11.3
			c0,0.7-0.5,1.2-1.2,1.2s-1.2-0.5-1.2-1.2V19.8H3v9c-1,0-1.8-0.8-1.8-1.8v-6c0-2.3,1.9-4.2,4.2-4.2h4.6c0.8,0,1.7,0.2,2.4,0.6
			l6.3,3.1c0.3,0.1,0.5,0.4,0.5,0.8c0,0.5-0.4,0.9-0.9,0.9c-0.1,0-0.2,0-0.4-0.1L11.5,19.2z M23.9,37.1c0,0.7-0.5,1.2-1.2,1.2
			c-0.7,0-1.2-0.5-1.2-1.2s0.5-1.2,1.2-1.2C23.3,35.9,23.9,36.5,23.9,37.1z M34.6,37.1c0,0.7-0.5,1.2-1.2,1.2
			c-0.7,0-1.2-0.5-1.2-1.2s0.5-1.2,1.2-1.2C34.1,35.9,34.6,36.5,34.6,37.1z M35.8,27.6l-1.1,4.8H21.9l-1.4-4.8H35.8z"/>
		<path class="st3" d="M28,18c3.6,0,6.6-2.9,6.6-6.6S31.7,4.9,28,4.9s-6.6,2.9-6.6,6.6S24.4,18,28,18z M28,6.1c3,0,5.4,2.4,5.4,5.4
			S31,16.8,28,16.8s-5.4-2.4-5.4-5.4S25.1,6.1,28,6.1z"/>
		<path class="st3" d="M28,13.2c-0.3,0-0.6-0.3-0.6-0.6h-1.2c0,0.8,0.5,1.4,1.2,1.7v1.3h1.2v-1.2h1.2v-1.8c0-1-0.8-1.8-1.8-1.8
			c-0.3,0-0.6-0.3-0.6-0.6V9.7H28c0.3,0,0.6,0.3,0.6,0.6h1.2c0-0.8-0.5-1.4-1.2-1.7V7.3h-1.2v1.2h-1.2v1.8c0,1,0.8,1.8,1.8,1.8
			c0.3,0,0.6,0.3,0.6,0.6v0.6H28z"/>
		<path class="st3" d="M31,10.9h1.2V12H31V10.9z"/>
		<path class="st3" d="M23.9,10.9h1.2V12h-1.2V10.9z"/>
		<path class="st3" d="M23.9,19.4v6.8l4.2-2.1l4.2,2.1v-6.8c2.8-1.5,4.8-4.5,4.8-7.9c0-4.9-4-9-9-9s-9,4-9,9
			C19.1,14.9,21,17.9,23.9,19.4z M25.1,19.9c0.8,0.3,1.6,0.4,2.4,0.5V23l-2.4,1.2V19.9z M31,24.2L28.6,23v-2.6
			c0.8-0.1,1.6-0.2,2.4-0.5V24.2z M28,3.7c4.3,0,7.8,3.5,7.8,7.8s-3.5,7.8-7.8,7.8s-7.8-3.5-7.8-7.8S23.8,3.7,28,3.7z"/>
		<path class="st3" d="M31,28.8h1.2v2.4H31V28.8z"/>
		<path class="st3" d="M27.5,28.8h1.2v2.4h-1.2V28.8z"/>
		<path class="st3" d="M23.9,28.8h1.2v2.4h-1.2V28.8z"/>
	</g>
</g>
</svg>
