<?xml version="1.0" encoding="utf-8"?>
<!-- Generator: Adobe Illustrator 24.0.2, SVG Export Plug-In . SVG Version: 6.00 Build 0)  -->
<svg version="1.1" id="Layer_1" xmlns="http://www.w3.org/2000/svg" xmlns:xlink="http://www.w3.org/1999/xlink" x="0px" y="0px"
	 viewBox="0 0 42 42" style="enable-background:new 0 0 42 42;" xml:space="preserve">
<style type="text/css">
	.st0{fill:#FC6A55;}
	.st1{fill:#EDEDED;}
	.st2{fill:none;stroke:#FC6A55;stroke-miterlimit:10;}
	.st3{stroke:#FFFFFF;stroke-width:0.25;stroke-miterlimit:10;}
	.st4{fill:#656D7A;}
	.st5{fill:#FFFFFF;}
	.st6{filter:url(#Adobe_OpacityMaskFilter);}
	.st7{fill-rule:evenodd;clip-rule:evenodd;fill:#FFFFFF;}
	.st8{mask:url(#mask-2_8_);fill-rule:evenodd;clip-rule:evenodd;}
	.st9{filter:url(#Adobe_OpacityMaskFilter_1_);}
	.st10{mask:url(#mask-2_7_);fill-rule:evenodd;clip-rule:evenodd;}
	.st11{filter:url(#Adobe_OpacityMaskFilter_2_);}
	.st12{mask:url(#mask-2_6_);fill-rule:evenodd;clip-rule:evenodd;}
	.st13{filter:url(#Adobe_OpacityMaskFilter_3_);}
	.st14{mask:url(#mask-2_5_);fill-rule:evenodd;clip-rule:evenodd;}
	.st15{filter:url(#Adobe_OpacityMaskFilter_4_);}
	.st16{mask:url(#mask-2_2_);fill:none;stroke:#000000;stroke-width:2;}
	.st17{fill:#434343;}
	.st18{fill:#434343;stroke:#F9F9F9;stroke-width:0.25;stroke-miterlimit:10;}
	.st19{fill:none;stroke:#FC6A55;stroke-width:0.5;stroke-miterlimit:10;}
	.st20{fill:none;stroke:#FC6A55;stroke-width:0.75;stroke-miterlimit:10;}
	.st21{fill:#FC6A55;stroke:#FC6A55;stroke-width:0.5;stroke-miterlimit:10;}
	.st22{opacity:0.153;fill:url(#Path_146_);enable-background:new    ;}
	.st23{opacity:0.1;fill:#590BB2;enable-background:new    ;}
	.st24{fill:#8E8CA8;}
	.st25{fill:#F5F4F9;}
	.st26{fill:#FFD5B8;}
	.st27{fill:#FC8473;}
	.st28{fill:#1C3475;}
	.st29{fill:#DDD9E4;}
	.st30{fill:#828FB3;}
	.st31{opacity:7.584635e-02;fill:url(#Path_147_);enable-background:new    ;}
	.st32{fill:#FFBE92;}
	.st33{fill:#FB8E7F;}
	.st34{fill:#FDB1A6;}
	.st35{fill:#FC806F;}
	.st36{fill:#FFE783;}
	.st37{fill:#104478;}
	.st38{fill:none;stroke:#FFFFFF;stroke-miterlimit:10;}
	.st39{fill:none;stroke:#000000;stroke-width:0.15;stroke-miterlimit:10;}
	.st40{opacity:0.1;fill:url(#Path_148_);enable-background:new    ;}
	.st41{opacity:0.1;fill:url(#Path_149_);enable-background:new    ;}
</style>
<g>
	<g>
		<g>
			<path class="st0" d="M19.5,36.6H9.2c-0.3,0-0.6,0.3-0.6,0.6s0.3,0.6,0.6,0.6h10.2c0.3,0,0.6-0.3,0.6-0.6S19.8,36.6,19.5,36.6z"/>
		</g>
	</g>
	<g>
		<g>
			<path class="st0" d="M35.4,15.7c0.3,0,0.6-0.3,0.6-0.6V4.3c0-0.9-0.4-1.8-1-2.5c-0.7-0.7-1.5-1-2.5-1h-29C1.6,0.7,0,2.3,0,4.3
				v5.9c0,0.3,0.3,0.6,0.6,0.6h3.3c0.3,0,0.6-0.3,0.6-0.6S4.3,9.6,3.9,9.6H1.2V4.3C1.2,3,2.3,2,3.5,2c0.6,0,1.2,0.2,1.6,0.7
				c0.4,0.4,0.7,1,0.7,1.6v5.9v30.5c0,0.3,0.3,0.6,0.6,0.6h29c0.3,0,0.6-0.3,0.6-0.6v-2.1c0-0.3-0.3-0.6-0.6-0.6s-0.6,0.3-0.6,0.6
				V40H7V10.2V4.3c0-0.1,0-0.1,0-0.2c0,0,0,0,0-0.1C7,4,7,4,7,3.9c0,0,0,0,0-0.1c0,0,0-0.1,0-0.1c0,0,0,0,0-0.1c0,0,0-0.1,0-0.1
				c0,0,0,0,0-0.1c0,0,0-0.1,0-0.1c0,0,0,0,0-0.1c0,0,0-0.1,0-0.1c0,0,0,0,0-0.1c0,0,0-0.1,0-0.1c0,0,0,0,0-0.1c0,0,0-0.1,0-0.1
				c0,0,0,0,0,0c0,0,0-0.1-0.1-0.1c0,0,0,0,0,0c0,0,0-0.1-0.1-0.1c0,0,0,0,0,0c0,0,0-0.1-0.1-0.1c0,0,0,0,0-0.1c0,0,0-0.1-0.1-0.1
				c0,0,0,0,0-0.1c0,0,0-0.1-0.1-0.1c0,0,0,0,0-0.1c0,0,0-0.1-0.1-0.1c0,0,0,0,0-0.1c0,0,0,0,0,0h26.3c0.6,0,1.2,0.2,1.6,0.7
				c0.4,0.4,0.7,1,0.7,1.6v10.8C34.8,15.4,35.1,15.7,35.4,15.7z"/>
		</g>
	</g>
	<g>
		<g>
			<path class="st0" d="M42,22.2c0-0.3-0.2-0.5-0.5-0.6c-2.1-0.4-3.8-1.9-4.4-4c-0.1-0.3-0.3-0.4-0.6-0.4h-10
				c-0.3,0-0.5,0.2-0.6,0.4c-0.1,0.5-0.3,1-0.6,1.4h-16c-0.3,0-0.6,0.3-0.6,0.6s0.3,0.6,0.6,0.6h15c-0.8,0.7-1.7,1.2-2.8,1.4
				c-0.3,0-0.5,0.3-0.5,0.6c0,0.3,0,0.5,0,0.8c0,0.7,0,1.3,0.1,2H9.2c-0.3,0-0.6,0.3-0.6,0.6c0,0.3,0.3,0.6,0.6,0.6h12
				c0.3,1.6,0.9,3.2,1.6,4.6H9.2c-0.3,0-0.6,0.3-0.6,0.6S8.9,32,9.2,32h14.3c1.8,2.9,4.4,5.2,7.7,6.6c0.1,0,0.2,0,0.2,0
				c0.1,0,0.2,0,0.2,0C38,35.8,42,29.7,42,22.9C42,22.7,42,22.4,42,22.2z M31.5,37.3c-3-1.3-5.4-3.5-7-6.2c0,0,0-0.1,0-0.1
				c-1.4-2.4-2.2-5.2-2.2-8.1c0-0.1,0-0.1,0-0.2c1.6-0.4,3-1.4,3.9-2.7c0,0,0-0.1,0.1-0.1c0.3-0.5,0.6-1,0.8-1.5H36
				c0.8,2.1,2.6,3.7,4.7,4.3c0,0.1,0,0.1,0,0.2C40.8,29.1,37.1,34.7,31.5,37.3z"/>
		</g>
	</g>
	<g>
		<g>
			<path class="st0" d="M35.8,24.8h-2.1v-2.1c0-0.3-0.3-0.6-0.6-0.6h-3.3c-0.3,0-0.6,0.3-0.6,0.6v2.1h-2.1c-0.3,0-0.6,0.3-0.6,0.6
				v3.3c0,0.3,0.3,0.6,0.6,0.6h2.1v2.1c0,0.3,0.3,0.6,0.6,0.6h3.3c0.3,0,0.6-0.3,0.6-0.6v-2.1h2.1c0.3,0,0.6-0.3,0.6-0.6v-3.3
				C36.4,25.1,36.2,24.8,35.8,24.8z M33.1,28.1c-0.3,0-0.6,0.3-0.6,0.6v2.1h-2.1v-2.1c0-0.3-0.3-0.6-0.6-0.6h-2.1v-2.1h2.1
				c0.3,0,0.6-0.3,0.6-0.6v-2.1h2.1v2.1c0,0.3,0.3,0.6,0.6,0.6h2.1v2.1L33.1,28.1L33.1,28.1z"/>
		</g>
	</g>
	<g>
		<g>
			<path class="st0" d="M14.8,3.8c-3.4,0-6.1,2.7-6.1,6.1c0,2.2,1.2,4.2,3,5.3c0.9,0.5,2,0.8,3.1,0.8c0.1,0,0.3,0,0.4,0
				c0.9-0.1,1.9-0.3,2.7-0.8c1.9-1.1,3-3.1,3-5.3C20.9,6.5,18.1,3.8,14.8,3.8z M16.9,14.3C16.9,14.3,16.9,14.3,16.9,14.3
				c-0.1,0-0.2,0.1-0.2,0.1c0,0,0,0,0,0c-0.1,0-0.2,0.1-0.2,0.1c0,0,0,0,0,0c-0.1,0-0.2,0.1-0.2,0.1c0,0,0,0,0,0
				c-0.1,0-0.2,0-0.2,0.1c0,0,0,0,0,0c-0.1,0-0.2,0-0.2,0c0,0,0,0,0,0c-0.1,0-0.2,0-0.2,0c0,0,0,0,0,0c-0.1,0-0.2,0-0.2,0
				c0,0,0,0,0,0c-0.1,0-0.2,0-0.3,0c-0.1,0-0.2,0-0.3,0c0,0,0,0,0,0c-0.1,0-0.2,0-0.2,0c0,0,0,0,0,0c-0.1,0-0.2,0-0.2,0c0,0,0,0,0,0
				c-0.1,0-0.2,0-0.2,0c0,0,0,0,0,0c-0.1,0-0.2,0-0.2-0.1c0,0,0,0,0,0c-0.1,0-0.2,0-0.2-0.1c0,0,0,0,0,0c-0.1,0-0.2-0.1-0.2-0.1
				c0,0,0,0,0,0c-0.1,0-0.1-0.1-0.2-0.1c0,0,0,0,0,0v-0.4c0-0.6,0.3-1.2,0.8-1.7c0,0,0,0,0,0c0,0,0.1,0,0.1,0.1c0,0,0,0,0,0
				c0,0,0.1,0,0.1,0.1c0,0,0,0,0,0c0,0,0.1,0,0.1,0.1c0,0,0,0,0,0c0,0,0.1,0,0.1,0.1c0,0,0,0,0,0c0,0,0.1,0,0.1,0c0,0,0,0,0,0
				c0.1,0,0.1,0,0.2,0c0,0,0,0,0,0c0,0,0.1,0,0.1,0c0,0,0,0,0.1,0c0,0,0.1,0,0.1,0c0,0,0,0,0,0c0,0,0,0,0,0c0,0,0.1,0,0.1,0
				c0,0,0,0,0.1,0c0,0,0.1,0,0.1,0c0,0,0,0,0,0c0.1,0,0.1,0,0.2,0c0,0,0,0,0,0c0,0,0.1,0,0.1,0c0,0,0,0,0,0c0.1,0,0.1,0,0.1-0.1
				c0,0,0,0,0,0c0,0,0.1,0,0.1-0.1c0,0,0,0,0,0c0,0,0.1,0,0.1-0.1c0,0,0,0,0,0c0,0,0.1,0,0.1-0.1c0,0,0,0,0,0c0,0,0.1,0.1,0.1,0.1
				c0.4,0.4,0.6,1,0.6,1.5L16.9,14.3L16.9,14.3z M13.5,10.1V9c0-0.7,0.6-1.3,1.3-1.3S16,8.3,16,9v1.1c0,0.3-0.1,0.7-0.4,0.9l0,0
				c0,0-0.1,0.1-0.1,0.1c0,0,0,0,0,0c0,0-0.1,0-0.1,0.1c0,0,0,0,0,0c0,0-0.1,0-0.1,0c0,0,0,0,0,0c0,0-0.1,0-0.1,0c0,0,0,0,0,0
				c0,0-0.1,0-0.1,0c0,0,0,0,0,0c0,0-0.1,0-0.1,0c0,0,0,0,0,0c-0.1,0-0.2,0-0.3,0c-0.2,0-0.4-0.1-0.6-0.2c-0.1-0.1-0.2-0.1-0.3-0.2
				c0,0,0,0,0,0C13.6,10.8,13.5,10.5,13.5,10.1z M18.1,13.4c-0.1-0.7-0.4-1.4-1-2c-0.1-0.1-0.1-0.1-0.2-0.2c0.2-0.4,0.3-0.8,0.3-1.2
				V9c0-1.4-1.1-2.5-2.5-2.5c-1.4,0-2.5,1.1-2.5,2.5v1.1c0,0.4,0.1,0.8,0.3,1.2c-0.6,0.5-1,1.3-1.1,2.1c-1-0.9-1.5-2.2-1.5-3.5
				c0-2.7,2.2-4.9,4.9-4.9c2.7,0,4.9,2.2,4.9,4.9C19.6,11.2,19.1,12.5,18.1,13.4z"/>
		</g>
	</g>
	<g>
		<g>
			<path class="st0" d="M32.6,7h-9.4c-0.3,0-0.6,0.3-0.6,0.6v4.5c0,0.3,0.3,0.6,0.6,0.6h9.4c0.3,0,0.6-0.3,0.6-0.6V7.6
				C33.2,7.3,32.9,7,32.6,7z M32,11.5h-8.2V8.2H32V11.5z"/>
		</g>
	</g>
</g>
</svg>
