<?xml version="1.0" encoding="utf-8"?>
<!-- Generator: Adobe Illustrator 24.0.2, SVG Export Plug-In . SVG Version: 6.00 Build 0)  -->
<svg version="1.1" id="Layer_1" xmlns="http://www.w3.org/2000/svg" xmlns:xlink="http://www.w3.org/1999/xlink" x="0px" y="0px"
	 viewBox="0 0 42 42" style="enable-background:new 0 0 42 42;" xml:space="preserve">
<style type="text/css">
	.st0{fill:#FC6A55;}
	.st1{fill:#EDEDED;}
	.st2{fill:none;stroke:#FC6A55;stroke-miterlimit:10;}
	.st3{stroke:#FFFFFF;stroke-width:0.25;stroke-miterlimit:10;}
	.st4{fill:#656D7A;}
	.st5{fill:#FFFFFF;}
	.st6{filter:url(#Adobe_OpacityMaskFilter);}
	.st7{fill-rule:evenodd;clip-rule:evenodd;fill:#FFFFFF;}
	.st8{mask:url(#mask-2_8_);fill-rule:evenodd;clip-rule:evenodd;}
	.st9{filter:url(#Adobe_OpacityMaskFilter_1_);}
	.st10{mask:url(#mask-2_7_);fill-rule:evenodd;clip-rule:evenodd;}
	.st11{filter:url(#Adobe_OpacityMaskFilter_2_);}
	.st12{mask:url(#mask-2_6_);fill-rule:evenodd;clip-rule:evenodd;}
	.st13{filter:url(#Adobe_OpacityMaskFilter_3_);}
	.st14{mask:url(#mask-2_5_);fill-rule:evenodd;clip-rule:evenodd;}
	.st15{filter:url(#Adobe_OpacityMaskFilter_4_);}
	.st16{mask:url(#mask-2_2_);fill:none;stroke:#000000;stroke-width:2;}
	.st17{fill:#434343;}
	.st18{fill:#434343;stroke:#F9F9F9;stroke-width:0.25;stroke-miterlimit:10;}
	.st19{fill:none;stroke:#FC6A55;stroke-width:0.5;stroke-miterlimit:10;}
	.st20{fill:none;stroke:#FC6A55;stroke-width:0.75;stroke-miterlimit:10;}
	.st21{fill:#FC6A55;stroke:#FC6A55;stroke-width:0.5;stroke-miterlimit:10;}
	.st22{opacity:0.153;fill:url(#Path_146_);enable-background:new    ;}
	.st23{opacity:0.1;fill:#590BB2;enable-background:new    ;}
	.st24{fill:#8E8CA8;}
	.st25{fill:#F5F4F9;}
	.st26{fill:#FFD5B8;}
	.st27{fill:#FC8473;}
	.st28{fill:#1C3475;}
	.st29{fill:#DDD9E4;}
	.st30{fill:#828FB3;}
	.st31{opacity:7.584635e-02;fill:url(#Path_147_);enable-background:new    ;}
	.st32{fill:#FFBE92;}
	.st33{fill:#FB8E7F;}
	.st34{fill:#FDB1A6;}
	.st35{fill:#FC806F;}
	.st36{fill:#FFE783;}
	.st37{fill:#104478;}
	.st38{fill:none;stroke:#FFFFFF;stroke-miterlimit:10;}
	.st39{fill:none;stroke:#000000;stroke-width:0.15;stroke-miterlimit:10;}
	.st40{opacity:0.1;fill:url(#Path_148_);enable-background:new    ;}
	.st41{opacity:0.1;fill:url(#Path_149_);enable-background:new    ;}
</style>
<g>
	<g>
		<path class="st0" d="M37.6,27.9h-1v-8c0-0.1,0-0.3-0.1-0.4l-3-3.9c0.3-0.4,0.5-0.8,0.5-1.4c0-1.2-1-2.3-2.3-2.3
			c-1.2,0-2.3,1-2.3,2.3c0,1.2,1,2.3,2.3,2.3c0.3,0,0.6-0.1,0.8-0.2l2.8,3.7v7.8h-2.9v-1.8c0-0.3-0.3-0.6-0.6-0.6
			c-0.3,0-0.6,0.3-0.6,0.6v1.8h-2.7v-4.8c0-0.3-0.3-0.6-0.6-0.6c-0.3,0-0.6,0.3-0.6,0.6v4.8h-3.7l-1.1-6.3l0.3-0.4
			c0.3,0.2,0.5,0.3,0.9,0.2c0.3-0.1,0.5-0.3,0.6-0.5l1.5-3l3.4,1.3c0.1,0,1.9,0.9,1.9,3v1.1c0,0.3,0.3,0.6,0.6,0.6s0.6-0.3,0.6-0.6
			v-1.1c0-3-2.6-4.1-2.7-4.1c0,0,0,0,0,0L24,15.8v-1.2c0.9-0.7,1.5-1.8,1.7-3c0.5-0.1,0.9-0.2,1.2-0.5c0.5-0.4,0.8-1,0.8-1.7
			c0-0.5-0.2-1-0.5-1.4V6.2c0-3.4-2.8-6.2-6.2-6.2s-6.2,2.8-6.2,6.2V8c-0.3,0.4-0.5,0.9-0.5,1.4c0,0.6,0.3,1.3,0.8,1.7
			c0.3,0.3,0.8,0.5,1.2,0.5c0.2,1.2,0.8,2.3,1.8,3.1v1.2l-5.8,2.2c0,0,0,0,0,0c-0.1,0-2.7,1.1-2.7,4.1v5.7H6.6v-7.8l2.8-3.7
			c0.3,0.1,0.5,0.2,0.8,0.2c1.2,0,2.3-1,2.3-2.3s-1-2.3-2.3-2.3S8,13,8,14.3c0,0.5,0.2,1,0.5,1.4l-3,3.9c-0.1,0.1-0.1,0.2-0.1,0.4v8
			h-1c-0.8,0-1.4,0.6-1.4,1.4v3.2c0,0.7,0.6,1.4,1.4,1.4v6.9c0,0.7,0.6,1.3,1.3,1.3h13.9c0.3,0,0.6-0.3,0.6-0.6s-0.3-0.6-0.6-0.6
			H5.6c0,0-0.1,0-0.1-0.1v-6.9h30.8v6.9c0,0,0,0.1-0.1,0.1H22.4c-0.3,0-0.6,0.3-0.6,0.6s0.3,0.6,0.6,0.6h13.9c0.7,0,1.3-0.6,1.3-1.3
			v-6.9c0.7,0,1.4-0.6,1.4-1.4v-3.2C39,28.5,38.4,27.9,37.6,27.9z M31.7,15.3c-0.6,0-1-0.5-1-1c0-0.6,0.5-1,1-1s1,0.5,1,1
			C32.8,14.9,32.3,15.3,31.7,15.3z M10.3,13.3c0.6,0,1,0.5,1,1s-0.5,1-1,1c-0.6,0-1-0.5-1-1C9.2,13.7,9.7,13.3,10.3,13.3z
			 M24.7,17.4l-1.3,2.6c0,0-0.4-0.3-1.5-1.1c1.1-1.3,1.1-1.4,1.6-2L24.7,17.4z M21,19.9l0.8,0.6l-0.3,0.4h-1.1l-0.3-0.4L21,19.9z
			 M19.3,16v-0.7c0.6,0.2,1.2,0.3,1.7,0.3c0.6,0,1.2-0.1,1.7-0.3V16L21,18.2L19.3,16z M20.6,22.1h0.7l1,5.8h-2.7L20.6,22.1z
			 M26.4,9.4c0,0.3-0.1,0.6-0.3,0.7c-0.1,0.1-0.2,0.2-0.4,0.2V8.5C26.2,8.6,26.4,9,26.4,9.4z M16.2,10.3c-0.1,0-0.3-0.1-0.4-0.2
			c-0.2-0.2-0.3-0.5-0.3-0.7c0-0.3,0.2-0.5,0.3-0.7c0,0,0,0,0,0c0.1-0.1,0.2-0.2,0.4-0.2V10.3z M16.5,6.8c-0.1,0.1-0.2,0.3-0.3,0.4
			c-0.1,0-0.2,0-0.3,0.1V6.2h0c0-2.8,2.2-5,5-5s5,2.2,5,5v1c-0.1,0-0.1,0-0.2,0c0-0.2-0.1-0.4-0.3-0.6c-0.2-0.2-0.5-0.6-1.3-1.4
			c-0.3-0.4-0.9-0.4-1.3-0.2c-1.7,1.1-3.7,1.7-5.7,1.5C17,6.5,16.7,6.6,16.5,6.8z M17.4,10.9V7.8v0c1.2,0.1,2.3-0.1,3.5-0.5
			c0.9-0.3,1.7-0.7,2.5-1.2c0.2,0.2,0.4,0.4,0.6,0.6c0,0,0,0,0,0C24,6.9,24.1,6.9,24.1,7c0.2,0.2,0.3,0.3,0.4,0.4v3.5
			c0,1.9-1.6,3.5-3.5,3.5C18.9,14.4,17.4,12.8,17.4,10.9z M18.5,17l1.6,2c-0.7,0.5-1.4,1-1.5,1.1l-1.3-2.6L18.5,17z M10.8,22.2
			L10.8,22.2c0-2.1,1.8-2.9,1.9-3l3.4-1.3l1.5,3v0c0.2,0.3,0.5,0.5,0.9,0.5c0.3,0,0.5-0.2,0.7-0.3l0.3,0.4l-1.1,6.3h-3.7v-4.8
			c0-0.3-0.3-0.6-0.6-0.6s-0.6,0.3-0.6,0.6v4.8h-2.7L10.8,22.2L10.8,22.2z M37.8,32.5c0,0.1-0.1,0.1-0.1,0.1c-0.9,0-32.5,0-33.3,0
			c-0.1,0-0.1-0.1-0.1-0.1v-3.2c0-0.1,0.1-0.1,0.1-0.1c1.1,0,32.5,0,33.3,0c0.1,0,0.1,0.1,0.1,0.1V32.5z"/>
	</g>
</g>
</svg>
