<?xml version="1.0" encoding="utf-8"?>
<!-- Generator: Adobe Illustrator 24.0.2, SVG Export Plug-In . SVG Version: 6.00 Build 0)  -->
<svg version="1.1" id="Layer_1" xmlns="http://www.w3.org/2000/svg" xmlns:xlink="http://www.w3.org/1999/xlink" x="0px" y="0px"
	 viewBox="0 0 42 42" style="enable-background:new 0 0 42 42;" xml:space="preserve">
<style type="text/css">
	.st0{fill:#FC6A55;}
	.st1{fill:#EDEDED;}
	.st2{fill:none;stroke:#FC6A55;stroke-miterlimit:10;}
	.st3{stroke:#FFFFFF;stroke-width:0.25;stroke-miterlimit:10;}
	.st4{fill:#656D7A;}
	.st5{fill:#FFFFFF;}
	.st6{filter:url(#Adobe_OpacityMaskFilter);}
	.st7{fill-rule:evenodd;clip-rule:evenodd;fill:#FFFFFF;}
	.st8{mask:url(#mask-2_8_);fill-rule:evenodd;clip-rule:evenodd;}
	.st9{filter:url(#Adobe_OpacityMaskFilter_1_);}
	.st10{mask:url(#mask-2_7_);fill-rule:evenodd;clip-rule:evenodd;}
	.st11{filter:url(#Adobe_OpacityMaskFilter_2_);}
	.st12{mask:url(#mask-2_6_);fill-rule:evenodd;clip-rule:evenodd;}
	.st13{filter:url(#Adobe_OpacityMaskFilter_3_);}
	.st14{mask:url(#mask-2_5_);fill-rule:evenodd;clip-rule:evenodd;}
	.st15{filter:url(#Adobe_OpacityMaskFilter_4_);}
	.st16{mask:url(#mask-2_2_);fill:none;stroke:#000000;stroke-width:2;}
	.st17{fill:#434343;}
	.st18{fill:#434343;stroke:#F9F9F9;stroke-width:0.25;stroke-miterlimit:10;}
	.st19{fill:none;stroke:#FC6A55;stroke-width:0.5;stroke-miterlimit:10;}
	.st20{fill:none;stroke:#FC6A55;stroke-width:0.75;stroke-miterlimit:10;}
	.st21{fill:#FC6A55;stroke:#FC6A55;stroke-width:0.5;stroke-miterlimit:10;}
	.st22{opacity:0.153;fill:url(#Path_146_);enable-background:new    ;}
	.st23{opacity:0.1;fill:#590BB2;enable-background:new    ;}
	.st24{fill:#8E8CA8;}
	.st25{fill:#F5F4F9;}
	.st26{fill:#FFD5B8;}
	.st27{fill:#FC8473;}
	.st28{fill:#1C3475;}
	.st29{fill:#DDD9E4;}
	.st30{fill:#828FB3;}
	.st31{opacity:7.584635e-02;fill:url(#Path_147_);enable-background:new    ;}
	.st32{fill:#FFBE92;}
	.st33{fill:#FB8E7F;}
	.st34{fill:#FDB1A6;}
	.st35{fill:#FC806F;}
	.st36{fill:#FFE783;}
	.st37{fill:#104478;}
	.st38{fill:none;stroke:#FFFFFF;stroke-miterlimit:10;}
	.st39{fill:none;stroke:#000000;stroke-width:0.15;stroke-miterlimit:10;}
	.st40{opacity:0.1;fill:url(#Path_148_);enable-background:new    ;}
	.st41{opacity:0.1;fill:url(#Path_149_);enable-background:new    ;}
</style>
<g>
	<path class="st0" d="M14.8,11.7L14.1,12c-1.1,0.4-1.9,1.4-2.1,2.5l-0.2,1.3c-0.1,0.6,0,1.3,0.4,1.8c0.4,0.5,1,0.8,1.6,0.8H20
		c0.6,0,1.2-0.3,1.6-0.8c0.4-0.5,0.6-1.1,0.5-1.7l-0.2-1.3c-0.2-1.2-1-2.1-2.1-2.5L19,11.7v-1.1c0,0,0-0.1,0-0.1
		c0.5-0.6,0.9-1.3,0.9-2.1V6.7c0-1.6-1.3-2.9-2.9-2.9c-1.6,0-2.9,1.3-2.9,2.9v1.7c0,0.8,0.3,1.5,0.9,2.1c0,0,0,0.1,0,0.1L14.8,11.7z
		 M20.7,14.7l0.2,1.3c0,0.3,0,0.5-0.2,0.7C20.5,16.9,20.3,17,20,17h-6.2c-0.3,0-0.5-0.1-0.7-0.3C13,16.5,12.9,16.2,13,16l0.2-1.3
		c0.1-0.7,0.7-1.3,1.3-1.6l0.5-0.2c0,0,0,0,0,0c0.5,0.5,1.2,0.7,1.9,0.7c0.7,0,1.3-0.2,1.9-0.7c0,0,0,0,0.1-0.1l0.5,0.2
		C20,13.4,20.5,14,20.7,14.7z M15.2,6.7C15.2,5.8,16,5,16.9,5c0.8,0,1.5,0.5,1.6,1.3c-0.1,0-0.2,0.1-0.2,0.1
		c-0.8,0.3-1.4,0.3-1.5,0.1c-0.3-0.2-0.7-0.1-0.9,0.2c-0.2,0.3-0.1,0.7,0.2,0.9c0.3,0.2,0.7,0.3,1.2,0.3c0.4,0,0.9-0.1,1.4-0.3v0.8
		c0,0.5-0.2,0.9-0.5,1.3c-0.2,0.2-0.3,0.3-0.5,0.4c0,0,0,0,0,0c-0.2,0.1-0.4,0.1-0.6,0.1c-0.9,0-1.7-0.8-1.7-1.7L15.2,6.7z
		 M16.9,11.3C16.9,11.3,16.9,11.3,16.9,11.3c0.3,0,0.6,0,0.9-0.1v1c-0.5,0.3-1.2,0.3-1.7,0v-1C16.3,11.3,16.6,11.3,16.9,11.3z"/>
	<path class="st0" d="M7.2,28.8h19.2c0.3,0,0.6-0.3,0.6-0.6c0-0.3-0.3-0.6-0.6-0.6H7.2c-0.3,0-0.6,0.3-0.6,0.6
		C6.6,28.5,6.9,28.8,7.2,28.8z"/>
	<path class="st0" d="M7.2,32.1h19.2c0.3,0,0.6-0.3,0.6-0.6c0-0.3-0.3-0.6-0.6-0.6H7.2c-0.3,0-0.6,0.3-0.6,0.6
		C6.6,31.8,6.9,32.1,7.2,32.1z"/>
	<path class="st0" d="M7.2,35.4h19.2c0.3,0,0.6-0.3,0.6-0.6s-0.3-0.6-0.6-0.6H7.2c-0.3,0-0.6,0.3-0.6,0.6S6.9,35.4,7.2,35.4z"/>
	<path class="st0" d="M7.2,38.7h19.2c0.3,0,0.6-0.3,0.6-0.6c0-0.3-0.3-0.6-0.6-0.6H7.2c-0.3,0-0.6,0.3-0.6,0.6
		C6.6,38.5,6.9,38.7,7.2,38.7z"/>
	<path class="st0" d="M6.6,21.5c0,0.3,0.3,0.6,0.6,0.6h19.2c0.3,0,0.6-0.3,0.6-0.6c0-0.3-0.3-0.6-0.6-0.6H7.2
		C6.9,20.9,6.6,21.2,6.6,21.5z"/>
	<path class="st0" d="M7.2,25.5h19.2c0.3,0,0.6-0.3,0.6-0.6s-0.3-0.6-0.6-0.6H7.2c-0.3,0-0.6,0.3-0.6,0.6S6.9,25.5,7.2,25.5z"/>
	<path class="st0" d="M5,28.8c0.3,0,0.6-0.3,0.6-0.6c0-0.3-0.3-0.6-0.6-0.6c-0.3,0-0.6,0.3-0.6,0.6S4.6,28.8,5,28.8z"/>
	<path class="st0" d="M5,22.2c0.3,0,0.6-0.3,0.6-0.6c0-0.3-0.3-0.6-0.6-0.6c-0.3,0-0.6,0.3-0.6,0.6C4.4,21.9,4.6,22.2,5,22.2z"/>
	<path class="st0" d="M5,25.5c0.3,0,0.6-0.3,0.6-0.6S5.3,24.2,5,24.2c-0.3,0-0.6,0.3-0.6,0.6S4.6,25.5,5,25.5z"/>
	<path class="st0" d="M5,32.1c0.3,0,0.6-0.3,0.6-0.6c0-0.3-0.3-0.6-0.6-0.6c-0.3,0-0.6,0.3-0.6,0.6C4.4,31.8,4.6,32.1,5,32.1z"/>
	<path class="st0" d="M5,35.4c0.3,0,0.6-0.3,0.6-0.6S5.3,34.2,5,34.2c-0.3,0-0.6,0.3-0.6,0.6C4.4,35.1,4.6,35.4,5,35.4z"/>
	<path class="st0" d="M5,38.7c0.3,0,0.6-0.3,0.6-0.6c0-0.3-0.3-0.6-0.6-0.6c-0.3,0-0.6,0.3-0.6,0.6C4.4,38.5,4.6,38.7,5,38.7z"/>
	<path class="st0" d="M39.8,9.7c-0.2-0.3-0.5-0.6-0.6-0.9c-0.1-0.3-0.2-0.7-0.2-1.1c-0.1-0.7-0.2-1.5-0.8-2.1s-1.4-0.7-2.1-0.8
		c-0.4-0.1-0.8-0.1-1.1-0.2c-0.3-0.1-0.6-0.3-0.9-0.6c-0.4-0.3-0.9-0.7-1.5-0.9V2.9c0-1.6-1.3-2.9-2.9-2.9H4.1
		C2.5,0,1.2,1.3,1.2,2.9v2.4c0,0.3,0.3,0.6,0.6,0.6s0.6-0.3,0.6-0.6V2.9c0-0.9,0.8-1.7,1.7-1.7h25.6c0.9,0,1.7,0.8,1.7,1.7v0.2
		c-0.6,0.2-1,0.5-1.5,0.9c-0.3,0.2-0.6,0.5-0.9,0.6c-0.3,0.1-0.7,0.2-1.1,0.2c-0.7,0.1-1.5,0.2-2.1,0.8c-0.6,0.6-0.7,1.4-0.8,2.1
		c-0.1,0.4-0.1,0.8-0.2,1.1c-0.1,0.3-0.3,0.6-0.6,0.9c-0.5,0.6-1,1.2-1,2.1c0,0.8,0.5,1.5,1,2.1c0.2,0.3,0.5,0.6,0.6,0.9
		c0.1,0.3,0.2,0.7,0.2,1.1c0.1,0.7,0.2,1.5,0.8,2.1c0.6,0.6,1.4,0.7,2.1,0.8c0.2,0,0.4,0.1,0.6,0.1v9.3c0,0.4,0.2,0.7,0.5,0.8
		c0.3,0.2,0.7,0.1,1-0.1l1.3-1v11.2c0,0.9-0.8,1.7-1.7,1.7H4.1c-0.9,0-1.7-0.8-1.7-1.7V8c0-0.3-0.3-0.6-0.6-0.6S1.2,7.7,1.2,8v31
		c0,1.6,1.3,2.9,2.9,2.9h25.6c1.6,0,2.9-1.3,2.9-2.9V27.8l1.3,1c0.2,0.1,0.4,0.2,0.6,0.2c0.1,0,0.3,0,0.4-0.1
		c0.3-0.2,0.5-0.5,0.5-0.8v-6.9c0-0.3-0.3-0.6-0.6-0.6s-0.6,0.3-0.6,0.6v6.3l-1.6-1.3c-0.2-0.1-0.4-0.2-0.6-0.2
		c-0.2,0-0.4,0.1-0.6,0.2l-1.6,1.3v-8.1c0,0,0.1,0.1,0.1,0.1c0.6,0.5,1.2,1,2.1,1c0.8,0,1.5-0.5,2.1-1c0.3-0.2,0.6-0.5,0.9-0.6
		c0.3-0.1,0.7-0.2,1.1-0.2c0.7-0.1,1.5-0.2,2.1-0.8c0.6-0.6,0.7-1.4,0.8-2.1c0.1-0.4,0.1-0.8,0.2-1.1c0.1-0.3,0.3-0.6,0.6-0.9
		c0.5-0.6,1-1.2,1-2.1C40.8,10.9,40.3,10.3,39.8,9.7L39.8,9.7z M38.9,13.1c-0.3,0.4-0.6,0.7-0.8,1.2c-0.2,0.4-0.2,0.9-0.3,1.4
		c-0.1,0.6-0.1,1.1-0.4,1.4c-0.3,0.3-0.8,0.3-1.4,0.4c-0.5,0.1-1,0.1-1.4,0.3c-0.4,0.2-0.8,0.5-1.2,0.8c-0.5,0.4-0.9,0.7-1.3,0.7
		c-0.4,0-0.9-0.3-1.3-0.7c-0.4-0.3-0.7-0.6-1.2-0.8c0,0-0.1-0.1-0.2-0.1c-0.4-0.1-0.8-0.2-1.3-0.2c-0.6-0.1-1.1-0.1-1.4-0.4
		c-0.3-0.3-0.3-0.8-0.4-1.4c-0.1-0.5-0.1-1-0.3-1.4c-0.2-0.4-0.5-0.8-0.8-1.2c-0.4-0.5-0.7-0.9-0.7-1.3c0-0.4,0.3-0.9,0.7-1.3
		c0.3-0.4,0.6-0.7,0.8-1.2c0.2-0.4,0.2-0.9,0.3-1.4c0.1-0.6,0.1-1.1,0.4-1.4C27,6.2,27.6,6.1,28.2,6c0.5-0.1,1-0.1,1.4-0.3
		C30,5.6,30.4,5.3,30.7,5c0.5-0.4,0.9-0.7,1.3-0.7c0,0,0,0,0,0c0,0,0,0,0,0c0.4,0,0.9,0.3,1.3,0.7c0.4,0.3,0.7,0.6,1.2,0.8
		C35,5.9,35.5,6,36,6c0.6,0.1,1.1,0.1,1.4,0.4c0.3,0.3,0.3,0.8,0.4,1.4c0.1,0.5,0.1,1,0.3,1.4c0.2,0.4,0.5,0.8,0.8,1.2
		c0.4,0.5,0.7,0.9,0.7,1.3C39.6,12.2,39.2,12.6,38.9,13.1L38.9,13.1z"/>
	<path class="st0" d="M36,9.8l-2.1-0.6l-1.2-1.8c-0.1-0.2-0.4-0.3-0.6-0.3c-0.3,0-0.5,0.1-0.6,0.3l-1.2,1.8l-2.1,0.6
		c-0.3,0.1-0.4,0.3-0.5,0.5c-0.1,0.2,0,0.5,0.1,0.7l1.3,1.7L29,14.9c0,0.3,0.1,0.5,0.3,0.7c0.1,0.1,0.3,0.1,0.5,0.1
		c0.1,0,0.2,0,0.3,0l2-0.8l2,0.8c0.2,0.1,0.5,0.1,0.7-0.1c0.2-0.2,0.3-0.4,0.3-0.7l-0.1-2.2l1.3-1.7c0.2-0.2,0.2-0.5,0.1-0.7
		C36.5,10.1,36.3,9.9,36,9.8L36,9.8z M34,12.1c-0.1,0.1-0.2,0.3-0.2,0.5l0.1,1.7l-1.6-0.6c-0.2-0.1-0.4-0.1-0.5,0l-1.6,0.6l0.1-1.7
		c0-0.2-0.1-0.4-0.2-0.5l-1-1.3l1.6-0.5c0.2-0.1,0.3-0.2,0.4-0.3l0.9-1.4l0.9,1.4c0.1,0.2,0.3,0.3,0.4,0.3l1.6,0.5L34,12.1z"/>
</g>
</svg>
