<?xml version="1.0" encoding="utf-8"?>
<!-- Generator: Adobe Illustrator 24.0.2, SVG Export Plug-In . SVG Version: 6.00 Build 0)  -->
<svg version="1.1" id="Layer_1" xmlns="http://www.w3.org/2000/svg" xmlns:xlink="http://www.w3.org/1999/xlink" x="0px" y="0px"
	 viewBox="0 0 42 42" style="enable-background:new 0 0 42 42;" xml:space="preserve">
<style type="text/css">
	.st0{fill:#FC6A55;}
	.st1{fill:#EDEDED;}
	.st2{fill:none;stroke:#FC6A55;stroke-miterlimit:10;}
	.st3{stroke:#FFFFFF;stroke-width:0.25;stroke-miterlimit:10;}
	.st4{fill:#656D7A;}
	.st5{fill:#FFFFFF;}
	.st6{filter:url(#Adobe_OpacityMaskFilter);}
	.st7{fill-rule:evenodd;clip-rule:evenodd;fill:#FFFFFF;}
	.st8{mask:url(#mask-2_8_);fill-rule:evenodd;clip-rule:evenodd;}
	.st9{filter:url(#Adobe_OpacityMaskFilter_1_);}
	.st10{mask:url(#mask-2_7_);fill-rule:evenodd;clip-rule:evenodd;}
	.st11{filter:url(#Adobe_OpacityMaskFilter_2_);}
	.st12{mask:url(#mask-2_6_);fill-rule:evenodd;clip-rule:evenodd;}
	.st13{filter:url(#Adobe_OpacityMaskFilter_3_);}
	.st14{mask:url(#mask-2_5_);fill-rule:evenodd;clip-rule:evenodd;}
	.st15{filter:url(#Adobe_OpacityMaskFilter_4_);}
	.st16{mask:url(#mask-2_2_);fill:none;stroke:#000000;stroke-width:2;}
	.st17{fill:#434343;}
	.st18{fill:#434343;stroke:#F9F9F9;stroke-width:0.25;stroke-miterlimit:10;}
	.st19{fill:none;stroke:#FC6A55;stroke-width:0.5;stroke-miterlimit:10;}
	.st20{fill:none;stroke:#FC6A55;stroke-width:0.75;stroke-miterlimit:10;}
	.st21{fill:#FC6A55;stroke:#FC6A55;stroke-width:0.5;stroke-miterlimit:10;}
	.st22{opacity:0.153;fill:url(#Path_146_);enable-background:new    ;}
	.st23{opacity:0.1;fill:#590BB2;enable-background:new    ;}
	.st24{fill:#8E8CA8;}
	.st25{fill:#F5F4F9;}
	.st26{fill:#FFD5B8;}
	.st27{fill:#FC8473;}
	.st28{fill:#1C3475;}
	.st29{fill:#DDD9E4;}
	.st30{fill:#828FB3;}
	.st31{opacity:7.584635e-02;fill:url(#Path_147_);enable-background:new    ;}
	.st32{fill:#FFBE92;}
	.st33{fill:#FB8E7F;}
	.st34{fill:#FDB1A6;}
	.st35{fill:#FC806F;}
	.st36{fill:#FFE783;}
	.st37{fill:#104478;}
	.st38{fill:none;stroke:#FFFFFF;stroke-miterlimit:10;}
	.st39{fill:none;stroke:#000000;stroke-width:0.15;stroke-miterlimit:10;}
	.st40{opacity:0.1;fill:url(#Path_148_);enable-background:new    ;}
	.st41{opacity:0.1;fill:url(#Path_149_);enable-background:new    ;}
</style>
<g>
	<g>
		<path class="st0" d="M38.5,29.9c-0.1,0.2-0.2,0.4-0.3,0.6h-6.3c0.1-0.2,0.1-0.4,0.2-0.6h-1.4c-0.1,0.2-0.1,0.4-0.2,0.6h-8.8v-0.6
			h-1.4v0.6h-8.8c-0.1-0.2-0.1-0.4-0.2-0.6H9.9c0.1,0.2,0.1,0.4,0.2,0.6H3.8c-0.1-0.2-0.2-0.4-0.3-0.6H2C2.9,32,4.3,34,6,35.7
			c4,4.1,9.3,6.3,15,6.3s11-2.2,15-6.3c1.7-1.7,3.1-3.7,4.1-5.8H38.5z M7,34.7c-0.9-0.9-1.7-1.9-2.4-2.9h5.9c0.5,1.3,1,2.6,1.6,3.7
			c1,1.8,2.2,3.3,3.5,4.3C12.4,39,9.4,37.2,7,34.7z M20.3,40.6L20.3,40.6c-2.6-0.3-5.1-2.3-7-5.7c-0.5-0.9-1-2-1.4-3.1h8.4V40.6z
			 M21.7,40.6v-8.8H30c-0.4,1.1-0.9,2.1-1.4,3.1C26.7,38.3,24.3,40.3,21.7,40.6z M35,34.7c-2.4,2.5-5.4,4.2-8.7,5.2
			c1.3-1.1,2.4-2.5,3.5-4.3c0.6-1.1,1.2-2.4,1.6-3.7h5.9C36.7,32.9,35.9,33.8,35,34.7z"/>
		<path class="st0" d="M3.4,12.2c0.1-0.2,0.2-0.5,0.4-0.7h6.3C10,11.8,10,12,9.9,12.2h1.4c0.1-0.2,0.1-0.5,0.2-0.7h8.8v0.7h1.4v-0.7
			h8.8c0.1,0.2,0.1,0.5,0.2,0.7h1.4C32,12,32,11.8,31.9,11.5h6.3c0.1,0.2,0.3,0.5,0.4,0.7h1.5c-1-2.2-2.4-4.2-4.1-5.9
			C32,2.2,26.7,0,21,0S10,2.2,6,6.3c-1.7,1.8-3.1,3.8-4.1,5.9H3.4z M35,7.3c0.9,0.9,1.7,1.9,2.4,2.9h-5.9c-0.5-1.3-1-2.6-1.6-3.7
			c-1-1.8-2.2-3.3-3.5-4.3C29.6,3,32.6,4.8,35,7.3z M21.7,1.4c2.6,0.3,5.1,2.3,6.9,5.7c0.5,0.9,1,2,1.4,3.1h-8.3V1.4z M20.3,1.4v8.8
			H12c0.4-1.1,0.9-2.1,1.4-3.1C15.3,3.7,17.7,1.7,20.3,1.4z M7,7.3c2.4-2.5,5.4-4.2,8.7-5.2c-1.3,1.1-2.4,2.5-3.5,4.3
			c-0.6,1.1-1.2,2.4-1.6,3.7H4.6C5.3,9.1,6.1,8.2,7,7.3z"/>
	</g>
	<g>
		<path class="st0" d="M18.3,17.1H21c0.7,0,1.3,0.6,1.3,1.3h2.6c0-2.2-1.8-4-4-4h-2.6c-2.2,0-4,1.8-4,4s1.8,4,4,4H21
			c0.7,0,1.3,0.6,1.3,1.3S21.7,25,21,25h-2.6c-0.7,0-1.3-0.6-1.3-1.3h-2.6c0,2.2,1.8,4,4,4H21c2.2,0,4-1.8,4-4s-1.8-4-4-4h-2.6
			c-0.7,0-1.3-0.6-1.3-1.3C17,17.7,17.6,17.1,18.3,17.1z"/>
		<polygon class="st0" points="5.1,17.1 7.7,17.1 7.7,25 5.1,25 5.1,27.7 13,27.7 13,25 10.4,25 10.4,17.1 13,17.1 13,14.4 
			5.1,14.4 		"/>
		<path class="st0" d="M31.5,14.4c-2.9,0-5.3,2.4-5.3,5.3v2.6c0,2.9,2.4,5.3,5.3,5.3s5.3-2.4,5.3-5.3v-2.6
			C36.8,16.8,34.5,14.4,31.5,14.4z M34.2,22.4c0,1.5-1.2,2.6-2.6,2.6s-2.6-1.2-2.6-2.6v-2.6c0-1.5,1.2-2.6,2.6-2.6s2.6,1.2,2.6,2.6
			V22.4z"/>
	</g>
</g>
</svg>
