<?xml version="1.0" encoding="utf-8"?>
<!-- Generator: Adobe Illustrator 24.0.2, SVG Export Plug-In . SVG Version: 6.00 Build 0)  -->
<svg version="1.1" id="Layer_1" xmlns="http://www.w3.org/2000/svg" xmlns:xlink="http://www.w3.org/1999/xlink" x="0px" y="0px"
	 viewBox="0 0 54 48" style="enable-background:new 0 0 54 48;" xml:space="preserve">
<style type="text/css">
	.st0{fill:#FC6A55;}
	.st1{stroke:#FFFFFF;stroke-width:0.25;stroke-miterlimit:10;}
	.st2{fill:#656D7A;}
	.st3{fill:#FFFFFF;}
	.st4{filter:url(#Adobe_OpacityMaskFilter);}
	.st5{fill-rule:evenodd;clip-rule:evenodd;fill:#FFFFFF;}
	.st6{mask:url(#mask-2_8_);fill-rule:evenodd;clip-rule:evenodd;}
	.st7{filter:url(#Adobe_OpacityMaskFilter_1_);}
	.st8{mask:url(#mask-2_7_);fill-rule:evenodd;clip-rule:evenodd;}
	.st9{filter:url(#Adobe_OpacityMaskFilter_2_);}
	.st10{mask:url(#mask-2_6_);fill-rule:evenodd;clip-rule:evenodd;}
	.st11{filter:url(#Adobe_OpacityMaskFilter_3_);}
	.st12{mask:url(#mask-2_5_);fill-rule:evenodd;clip-rule:evenodd;}
	.st13{filter:url(#Adobe_OpacityMaskFilter_4_);}
	.st14{mask:url(#mask-2_2_);fill:none;stroke:#000000;stroke-width:2;}
	.st15{fill:#434343;}
	.st16{fill:#434343;stroke:#F9F9F9;stroke-width:0.25;stroke-miterlimit:10;}
	.st17{fill:none;stroke:#FC6A55;stroke-width:0.5;stroke-miterlimit:10;}
</style>
<g>
	<path id="Shape_17_" class="st15" d="M40.6,26.4c0.9,0,1.6-0.7,1.6-1.6v-20c0-0.9-0.7-1.6-1.6-1.6H13.4c-0.9,0-1.6,0.7-1.6,1.6v20
		c0,0.9,0.7,1.6,1.6,1.6H40.6z M13.4,4.8h27.2v20H13.4V4.8z"/>
	<path class="st15" d="M5.4,48h43.2c0.8,0,1.6-0.4,2-1.1s0.5-1.5,0.2-2.3l-3.9-7.7c-0.6-1.5-2.1-2.5-3.7-2.5h-1v-2.5
		c1.9-0.4,3.2-2,3.2-3.9V4c0-2.2-1.8-4-4-4H12.6c-2.2,0-4,1.8-4,4v24c0,1.9,1.3,3.5,3.2,3.9v2.5h-1c-1.6,0-3.1,1-3.7,2.5l-3.9,7.9
		c-0.3,0.7-0.2,1.6,0.2,2.2C3.9,47.6,4.6,48,5.4,48L5.4,48z M10.2,28V4c0-1.3,1.1-2.4,2.4-2.4h28.8c1.3,0,2.4,1.1,2.4,2.4v24
		c0,1.3-1.1,2.4-2.4,2.4H12.6C11.3,30.4,10.2,29.3,10.2,28z M13.4,32H15c0,0.4,0.4,0.8,0.8,0.8c0.4,0,0.8-0.4,0.8-0.8h1.6
		c0,0.4,0.4,0.8,0.8,0.8c0.4,0,0.8-0.4,0.8-0.8h1.6c0,0.4,0.4,0.8,0.8,0.8S23,32.4,23,32h1.6c0,0.4,0.4,0.8,0.8,0.8
		c0.4,0,0.8-0.4,0.8-0.8h1.6c0,0.4,0.4,0.8,0.8,0.8s0.8-0.4,0.8-0.8H31c0,0.4,0.4,0.8,0.8,0.8s0.8-0.4,0.8-0.8h1.6
		c0,0.4,0.4,0.8,0.8,0.8c0.4,0,0.8-0.4,0.8-0.8h1.6c0,0.4,0.4,0.8,0.8,0.8S39,32.4,39,32h1.6v2.4H13.4V32z M4.6,45.4l3.9-7.9
		c0.4-0.9,1.2-1.5,2.2-1.5h32.5c1,0,1.9,0.6,2.3,1.6l3.9,7.7c0.1,0.2,0.1,0.5-0.1,0.7c-0.1,0.2-0.4,0.4-0.7,0.4H5.4
		c-0.3,0-0.5-0.1-0.6-0.3S4.6,45.6,4.6,45.4L4.6,45.4z"/>
	<path class="st15" d="M10,44.8h21.8c0.9,0,1.6-0.7,1.6-1.6v-4c0-0.9-0.7-1.6-1.6-1.6h-20c-0.6,0-1.1,0.3-1.4,0.9l-1.8,3.9
		c-0.3,0.5-0.3,1.1,0,1.6S9.4,44.8,10,44.8z M11.8,39.2h20v4H10L11.8,39.2z"/>
	<path class="st15" d="M36.6,44.8H44c0.6,0,1.1-0.3,1.4-0.8c0.3-0.5,0.3-1.1,0.1-1.6l-1.9-4.1c-0.3-0.5-0.8-0.8-1.4-0.8h-5.6
		c-0.9,0-1.6,0.7-1.6,1.6v4C35,44.1,35.7,44.8,36.6,44.8L36.6,44.8z M36.6,39.2l5.6-0.1l1.9,4.1h-7.4V39.2z"/>
	<path class="st15" d="M16.3,6.6c-0.2-0.2-0.5-0.2-0.8-0.1S15,6.8,15,7.1c0,0.3,0.1,0.6,0.3,0.7l2.3,1.8l-2.3,1.8
		c-0.3,0.2-0.4,0.6-0.3,0.9c0.1,0.3,0.4,0.5,0.8,0.5c0.4,0,0.2,0.1,3.7-2.6c0.2-0.2,0.3-0.4,0.3-0.6c0-0.3-0.1-0.5-0.3-0.6L16.3,6.6
		z"/>
	<path class="st15" d="M23.8,11.2h-2.4c-0.4,0-0.8,0.4-0.8,0.8s0.4,0.8,0.8,0.8h2.4c0.4,0,0.8-0.4,0.8-0.8S24.2,11.2,23.8,11.2z"/>
</g>
</svg>
