<?xml version="1.0" encoding="utf-8"?>
<!-- Generator: Adobe Illustrator 24.0.2, SVG Export Plug-In . SVG Version: 6.00 Build 0)  -->
<svg version="1.1" id="Layer_1" xmlns="http://www.w3.org/2000/svg" xmlns:xlink="http://www.w3.org/1999/xlink" x="0px" y="0px"
	 viewBox="0 0 54 48" style="enable-background:new 0 0 54 48;" xml:space="preserve">
<style type="text/css">
	.st0{fill:#FC6A55;}
	.st1{stroke:#FFFFFF;stroke-width:0.25;stroke-miterlimit:10;}
	.st2{fill:#656D7A;}
	.st3{fill:#FFFFFF;}
	.st4{filter:url(#Adobe_OpacityMaskFilter);}
	.st5{fill-rule:evenodd;clip-rule:evenodd;fill:#FFFFFF;}
	.st6{mask:url(#mask-2_8_);fill-rule:evenodd;clip-rule:evenodd;}
	.st7{filter:url(#Adobe_OpacityMaskFilter_1_);}
	.st8{mask:url(#mask-2_7_);fill-rule:evenodd;clip-rule:evenodd;}
	.st9{filter:url(#Adobe_OpacityMaskFilter_2_);}
	.st10{mask:url(#mask-2_6_);fill-rule:evenodd;clip-rule:evenodd;}
	.st11{filter:url(#Adobe_OpacityMaskFilter_3_);}
	.st12{mask:url(#mask-2_5_);fill-rule:evenodd;clip-rule:evenodd;}
	.st13{filter:url(#Adobe_OpacityMaskFilter_4_);}
	.st14{mask:url(#mask-2_2_);fill:none;stroke:#000000;stroke-width:2;}
	.st15{fill:#434343;}
	.st16{fill:#434343;stroke:#F9F9F9;stroke-width:0.25;stroke-miterlimit:10;}
	.st17{fill:none;stroke:#FC6A55;stroke-width:0.5;stroke-miterlimit:10;}
</style>
<g>
	<path class="st15" d="M46.9,7.1h-1.5V4.1C45.4,2.4,44,1,42.3,1H11.7C10,1,8.6,2.4,8.6,4.1v3.1H7.1C5.4,7.1,4,8.5,4,10.2v26.1
		c0,1.7,1.4,3.1,3.1,3.1h15.1l-1.8,6.1h-1.7V47h16.9v-1.5h-1.7l-1.8-6.1h15.1c1.7,0,3.1-1.4,3.1-3.1V10.2C50,8.5,48.6,7.1,46.9,7.1z
		 M5.5,10.2c0-0.8,0.7-1.5,1.5-1.5h1.5v23h1.5V4.1c0-0.8,0.7-1.5,1.5-1.5h30.7c0.8,0,1.5,0.7,1.5,1.5v27.6h1.5v-23h1.5
		c0.8,0,1.5,0.7,1.5,1.5v23H5.5V10.2z M32.1,45.5H21.9l1.8-6.1h6.5L32.1,45.5z M48.5,36.3c0,0.8-0.7,1.5-1.5,1.5H7.1
		c-0.8,0-1.5-0.7-1.5-1.5v-1.5h42.9V36.3z"/>
	<path class="st15" d="M11.7,4.1h1.5v1.5h-1.5V4.1z"/>
	<path class="st15" d="M14.7,4.1h1.5v1.5h-1.5V4.1z"/>
	<path class="st15" d="M17.8,4.1h1.5v1.5h-1.5V4.1z"/>
	<path class="st15" d="M37,14.3l4-0.9l0.3,1.5l-4,0.9L37,14.3z"/>
	<path class="st15" d="M34.9,7.4l2.3-2.3l1.1,1.1L36,8.4L34.9,7.4z"/>
	<path class="st15" d="M38.2,22.4l0.7-1.4l3.1,1.5l-0.7,1.4L38.2,22.4z"/>
	<path class="st15" d="M33.4,5.9c-0.3-1.3-1.6-2.1-2.9-1.8S28.4,5.7,28.7,7L29,8l-9.6,6.1L15.5,15c-2.3,0.5-3.9,2.6-3.8,5
		c0.1,2.4,1.9,4.3,4.3,4.5l1.3,5.9c0.1,0.4,0.5,0.7,0.9,0.6l3.2-0.7c0.4-0.1,0.7-0.5,0.6-0.9l-1.2-5.6l0.7-0.2l11.3,1.4l0.2,1
		c0.2,1.1,1.2,1.9,2.3,1.9c0.7,0,1.4-0.3,1.9-0.9c0.5-0.6,0.6-1.3,0.5-2L33.4,5.9z M13.3,20.4c-0.4-1.8,0.7-3.5,2.5-3.9l3.2-0.7
		l0.7,3.2l0.7,3.2l-0.8,0.2l-2.4,0.5C15.5,23.3,13.7,22.2,13.3,20.4L13.3,20.4z M20.3,28.9l-1.7,0.4l-1.1-4.8l0,0l1.6-0.4L20.3,28.9
		z M22,22.1l-1.5-6.9l8.8-5.6l3.1,13.7L22,22.1z M35.5,26.3c-0.2,0.1-0.5,0-0.7-0.1c-0.2-0.1-0.3-0.3-0.4-0.5l-4.2-19
		c0-0.2,0-0.5,0.1-0.6s0.3-0.3,0.5-0.4c0.5-0.1,0.9,0.2,1,0.7l4.2,19C36.2,25.7,35.9,26.1,35.5,26.3L35.5,26.3z"/>
</g>
</svg>
