<?xml version="1.0" encoding="utf-8"?>
<!-- Generator: Adobe Illustrator 24.0.2, SVG Export Plug-In . SVG Version: 6.00 Build 0)  -->
<svg version="1.1" id="Layer_1" xmlns="http://www.w3.org/2000/svg" xmlns:xlink="http://www.w3.org/1999/xlink" x="0px" y="0px"
	 viewBox="0 0 18 24" style="enable-background:new 0 0 18 24;" xml:space="preserve">
<style type="text/css">
	.st0{fill:#FC6A55;}
	.st1{fill:#EDEDED;}
	.st2{fill:none;stroke:#FC6A55;stroke-miterlimit:10;}
	.st3{stroke:#FFFFFF;stroke-width:0.25;stroke-miterlimit:10;}
	.st4{fill:#656D7A;}
	.st5{fill:#FFFFFF;}
	.st6{filter:url(#Adobe_OpacityMaskFilter);}
	.st7{fill-rule:evenodd;clip-rule:evenodd;fill:#FFFFFF;}
	.st8{mask:url(#mask-2_8_);fill-rule:evenodd;clip-rule:evenodd;}
	.st9{filter:url(#Adobe_OpacityMaskFilter_1_);}
	.st10{mask:url(#mask-2_7_);fill-rule:evenodd;clip-rule:evenodd;}
	.st11{filter:url(#Adobe_OpacityMaskFilter_2_);}
	.st12{mask:url(#mask-2_6_);fill-rule:evenodd;clip-rule:evenodd;}
	.st13{filter:url(#Adobe_OpacityMaskFilter_3_);}
	.st14{mask:url(#mask-2_5_);fill-rule:evenodd;clip-rule:evenodd;}
	.st15{filter:url(#Adobe_OpacityMaskFilter_4_);}
	.st16{mask:url(#mask-2_2_);fill:none;stroke:#000000;stroke-width:2;}
	.st17{fill:#434343;}
	.st18{fill:#434343;stroke:#F9F9F9;stroke-width:0.25;stroke-miterlimit:10;}
	.st19{fill:none;stroke:#FC6A55;stroke-width:0.5;stroke-miterlimit:10;}
	.st20{fill:none;stroke:#FC6A55;stroke-width:0.75;stroke-miterlimit:10;}
	.st21{fill:#FC6A55;stroke:#FC6A55;stroke-width:0.5;stroke-miterlimit:10;}
	.st22{opacity:0.153;fill:url(#Path_146_);enable-background:new    ;}
	.st23{opacity:0.1;fill:#590BB2;enable-background:new    ;}
	.st24{fill:#8E8CA8;}
	.st25{fill:#F5F4F9;}
	.st26{fill:#FFD5B8;}
	.st27{fill:#FC8473;}
	.st28{fill:#1C3475;}
	.st29{fill:#DDD9E4;}
	.st30{fill:#828FB3;}
	.st31{opacity:7.584635e-02;fill:url(#Path_147_);enable-background:new    ;}
	.st32{fill:#FFBE92;}
	.st33{fill:#FB8E7F;}
	.st34{fill:#FDB1A6;}
	.st35{fill:#FC806F;}
	.st36{fill:#FFE783;}
	.st37{fill:#104478;}
	.st38{fill:none;stroke:#FFFFFF;stroke-miterlimit:10;}
	.st39{fill:none;stroke:#000000;stroke-width:0.15;stroke-miterlimit:10;}
	.st40{opacity:0.1;fill:url(#Path_148_);enable-background:new    ;}
	.st41{opacity:0.1;fill:url(#Path_149_);enable-background:new    ;}
</style>
<g id="Outlines">
	<g>
		<circle cx="16.5" cy="4.5" r="0.3"/>
		<path d="M13.8,4.5c0,0.2,0.1,0.3,0.3,0.3h1.2c0.2,0,0.3-0.1,0.3-0.3s-0.1-0.3-0.3-0.3h-1.2C13.9,4.2,13.8,4.3,13.8,4.5z"/>
		<path d="M17.7,3H15c-0.2,0-0.3,0.1-0.3,0.3s0.1,0.3,0.3,0.3h2.4v1.8h-4.2V3.6h0.6c0.2,0,0.3-0.1,0.3-0.3S14,3,13.8,3h-0.9
			c-0.2,0-0.3,0.1-0.3,0.3v4.8c0,0.2,0.1,0.3,0.3,0.3h2.7V9H9.3V8.4h2.1c0.2,0,0.3-0.1,0.3-0.3V3.3c0-0.2-0.1-0.3-0.3-0.3H8.7
			C8.5,3,8.4,3.1,8.4,3.3s0.1,0.3,0.3,0.3h2.4v1.8H6.9V3.6h0.6c0.2,0,0.3-0.1,0.3-0.3S7.7,3,7.5,3H6.6C6.4,3,6.3,3.1,6.3,3.3v4.8
			c0,0.2,0.1,0.3,0.3,0.3h2.1V9H2.4V8.4h2.7c0.2,0,0.3-0.1,0.3-0.3V3.3C5.4,3.1,5.3,3,5.1,3H2.4C2.2,3,2.1,3.1,2.1,3.3
			s0.1,0.3,0.3,0.3h2.4v1.8H0.6V3.6h0.6c0.2,0,0.3-0.1,0.3-0.3S1.4,3,1.2,3H0.3C0.1,3,0,3.1,0,3.3v4.8c0,0.2,0.1,0.3,0.3,0.3h1.5
			v0.9c0,0.2,0.1,0.3,0.3,0.3h6.6v0.6H6.3c-0.2,0-0.3,0.1-0.3,0.3c0,0.1,0,0.1,0.1,0.2L7.8,13l0.3,2.3c0,0.2,0.1,0.3,0.3,0.3h1.2
			c0.2,0,0.3-0.1,0.3-0.3l0.3-2.3l1.8-2.3c0.1-0.1,0.1-0.3-0.1-0.4c-0.1,0-0.1-0.1-0.2-0.1h-0.9c-0.2,0-0.3,0.1-0.3,0.3
			s0.1,0.3,0.3,0.3h0.3l-1.4,1.9c0,0-0.1,0.1-0.1,0.1L9.3,15H8.7l-0.3-2.1c0-0.1,0-0.1-0.1-0.1l-1.4-1.9h2.7c0.2,0,0.3-0.1,0.3-0.3
			s-0.1-0.3-0.3-0.3H9.3V9.6h6.6c0.2,0,0.3-0.1,0.3-0.3V8.4h1.5c0.2,0,0.3-0.1,0.3-0.3V3.3C18,3.1,17.9,3,17.7,3z M6.9,6h4.2v1.8
			H6.9V6z M0.6,6h4.2v1.8H0.6V6z M17.4,7.8h-4.2V6h4.2V7.8z"/>
		<circle cx="16.5" cy="6.9" r="0.3"/>
		<path d="M14.1,7.2h1.2c0.2,0,0.3-0.1,0.3-0.3s-0.1-0.3-0.3-0.3h-1.2c-0.2,0-0.3,0.1-0.3,0.3S13.9,7.2,14.1,7.2z"/>
		<circle cx="10.2" cy="6.9" r="0.3"/>
		<path d="M9.3,6.9c0-0.2-0.1-0.3-0.3-0.3H7.8c-0.2,0-0.3,0.1-0.3,0.3s0.1,0.3,0.3,0.3H9C9.2,7.2,9.3,7.1,9.3,6.9z"/>
		<circle cx="3.9" cy="6.9" r="0.3"/>
		<path d="M3,6.9c0-0.2-0.1-0.3-0.3-0.3H1.5c-0.2,0-0.3,0.1-0.3,0.3s0.1,0.3,0.3,0.3h1.2C2.9,7.2,3,7.1,3,6.9z"/>
		<circle cx="10.2" cy="4.5" r="0.3"/>
		<path d="M7.5,4.5c0,0.2,0.1,0.3,0.3,0.3H9c0.2,0,0.3-0.1,0.3-0.3S9.2,4.2,9,4.2H7.8C7.6,4.2,7.5,4.3,7.5,4.5z"/>
		<circle cx="3.9" cy="4.5" r="0.3"/>
		<path d="M1.2,4.5c0,0.2,0.1,0.3,0.3,0.3h1.2C2.9,4.8,3,4.7,3,4.5S2.9,4.2,2.7,4.2H1.5C1.3,4.2,1.2,4.3,1.2,4.5z"/>
		<path d="M9.9,16.2H8.7c-0.2,0-0.3,0.1-0.3,0.3s0.1,0.3,0.3,0.3h1.2c0.2,0,0.3-0.1,0.3-0.3S10.1,16.2,9.9,16.2z"/>
		<path d="M11.1,18h1.2c0.2,0,0.3-0.1,0.3-0.3c0-0.2-0.1-0.3-0.3-0.3h-1.2c-0.2,0-0.3,0.1-0.3,0.3C10.8,17.9,10.9,18,11.1,18z"/>
		<circle cx="11.1" cy="16.5" r="0.3"/>
		<circle cx="12.3" cy="16.5" r="0.3"/>
		<circle cx="8.7" cy="17.7" r="0.3"/>
		<circle cx="9.9" cy="17.7" r="0.3"/>
		<path d="M6.9,18h0.6c0.2,0,0.3-0.1,0.3-0.3c0-0.2-0.1-0.3-0.3-0.3H6.9c-0.2,0-0.3,0.1-0.3,0.3C6.6,17.9,6.7,18,6.9,18z"/>
		<circle cx="5.7" cy="17.7" r="0.3"/>
		<path d="M6.6,16.5c0-0.2-0.1-0.3-0.3-0.3H5.7c-0.2,0-0.3,0.1-0.3,0.3s0.1,0.3,0.3,0.3h0.6C6.5,16.8,6.6,16.7,6.6,16.5z"/>
		<circle cx="7.5" cy="16.5" r="0.3"/>
		<path d="M14.7,19.2h-0.9v-5.1c0-0.2-0.1-0.3-0.3-0.3h-2.6c-0.2,0-0.3,0.1-0.3,0.3c0,0.2,0.1,0.3,0.3,0.3h2.3v4.8H4.8v-4.8h2.3
			c0.2,0,0.3-0.1,0.3-0.3c0-0.2-0.1-0.3-0.3-0.3H4.5c-0.2,0-0.3,0.1-0.3,0.3v5.1H3.3c-0.2,0-0.3,0.1-0.3,0.3v0.6
			C3,20.6,3.4,21,3.9,21h10.2c0.5,0,0.9-0.4,0.9-0.9v-0.6C15,19.3,14.9,19.2,14.7,19.2z M14.4,20.1c0,0.2-0.1,0.3-0.3,0.3H3.9
			c-0.2,0-0.3-0.1-0.3-0.3v-0.3h10.8V20.1z"/>
	</g>
</g>
</svg>
