<?xml version="1.0" encoding="utf-8"?>
<!-- Generator: Adobe Illustrator 24.0.2, SVG Export Plug-In . SVG Version: 6.00 Build 0)  -->
<svg version="1.1" id="Layer_1" xmlns="http://www.w3.org/2000/svg" xmlns:xlink="http://www.w3.org/1999/xlink" x="0px" y="0px"
	 viewBox="0 0 18 24" style="enable-background:new 0 0 18 24;" xml:space="preserve">
<style type="text/css">
	.st0{fill:#FC6A55;}
	.st1{fill:#EDEDED;}
	.st2{fill:none;stroke:#FC6A55;stroke-miterlimit:10;}
	.st3{stroke:#FFFFFF;stroke-width:0.25;stroke-miterlimit:10;}
	.st4{fill:#656D7A;}
	.st5{fill:#FFFFFF;}
	.st6{filter:url(#Adobe_OpacityMaskFilter);}
	.st7{fill-rule:evenodd;clip-rule:evenodd;fill:#FFFFFF;}
	.st8{mask:url(#mask-2_8_);fill-rule:evenodd;clip-rule:evenodd;}
	.st9{filter:url(#Adobe_OpacityMaskFilter_1_);}
	.st10{mask:url(#mask-2_7_);fill-rule:evenodd;clip-rule:evenodd;}
	.st11{filter:url(#Adobe_OpacityMaskFilter_2_);}
	.st12{mask:url(#mask-2_6_);fill-rule:evenodd;clip-rule:evenodd;}
	.st13{filter:url(#Adobe_OpacityMaskFilter_3_);}
	.st14{mask:url(#mask-2_5_);fill-rule:evenodd;clip-rule:evenodd;}
	.st15{filter:url(#Adobe_OpacityMaskFilter_4_);}
	.st16{mask:url(#mask-2_2_);fill:none;stroke:#000000;stroke-width:2;}
	.st17{fill:#434343;}
	.st18{fill:#434343;stroke:#F9F9F9;stroke-width:0.25;stroke-miterlimit:10;}
	.st19{fill:none;stroke:#FC6A55;stroke-width:0.5;stroke-miterlimit:10;}
	.st20{fill:none;stroke:#FC6A55;stroke-width:0.75;stroke-miterlimit:10;}
	.st21{fill:#FC6A55;stroke:#FC6A55;stroke-width:0.5;stroke-miterlimit:10;}
	.st22{opacity:0.153;fill:url(#Path_146_);enable-background:new    ;}
	.st23{opacity:0.1;fill:#590BB2;enable-background:new    ;}
	.st24{fill:#8E8CA8;}
	.st25{fill:#F5F4F9;}
	.st26{fill:#FFD5B8;}
	.st27{fill:#FC8473;}
	.st28{fill:#1C3475;}
	.st29{fill:#DDD9E4;}
	.st30{fill:#828FB3;}
	.st31{opacity:7.584635e-02;fill:url(#Path_147_);enable-background:new    ;}
	.st32{fill:#FFBE92;}
	.st33{fill:#FB8E7F;}
	.st34{fill:#FDB1A6;}
	.st35{fill:#FC806F;}
	.st36{fill:#FFE783;}
	.st37{fill:#104478;}
	.st38{fill:none;stroke:#FFFFFF;stroke-miterlimit:10;}
	.st39{fill:none;stroke:#000000;stroke-width:0.15;stroke-miterlimit:10;}
	.st40{opacity:0.1;fill:url(#Path_148_);enable-background:new    ;}
	.st41{opacity:0.1;fill:url(#Path_149_);enable-background:new    ;}
</style>
<g>
	<path class="st0" d="M1.2,14.4h10.2V15H1.2V14.4z"/>
	<path class="st0" d="M12.6,14.4h0.6V15h-0.6V14.4z"/>
	<path class="st0" d="M16.8,8.9c0.6-1,1.2-2.2,1.2-3.2C18,4.2,16.8,3,15.3,3s-2.7,1.2-2.7,2.7c0.1,0.7,0.3,1.5,0.6,2.1H9.6V3.9
		C9.6,3.4,9.2,3,8.7,3H0.9C0.4,3,0,3.4,0,3.9v14.4c0,0.5,0.4,0.9,0.9,0.9H3c0.2,1.1,1.2,1.9,2.4,1.8c0.9-0.1,1.6-0.9,1.8-1.8H12
		c0.2,1.1,1.2,1.9,2.4,1.8c0.9-0.1,1.6-0.9,1.8-1.8h0.9c0.5,0,0.9-0.4,0.9-0.9v-6.6C18,10.6,17.6,9.6,16.8,8.9z M15.3,3.6
		c1.2,0,2.1,0.9,2.1,2.1c0,1.4-1.5,3.5-2.1,4.3c-0.6-0.8-2.1-3-2.1-4.3C13.2,4.5,14.1,3.6,15.3,3.6z M14.3,9.6
		c0.4,0.6,0.7,1,0.8,1.1c0.1,0.1,0.3,0.2,0.4,0c0,0,0,0,0,0c0,0,0.1-0.1,0.2-0.3c0.3,0.4,0.4,0.8,0.5,1.3v1.5h-3.6V9.6h1.5
		C14.2,9.6,14.2,9.6,14.3,9.6z M10.8,8.4v4.8H0.6v-0.7c0.1,0,0.2,0.1,0.3,0.1h7.8c0.5,0,0.9-0.4,0.9-0.9V8.4H10.8z M3.6,6h-3V5.4h3
		V6z M4.2,3.6h1.2v3.3L5,6.7c-0.1-0.1-0.2-0.1-0.3,0L4.2,6.9V3.6z M6,5.4h3V6H6V5.4z M9,3.9v0.9H6V3.6h2.7C8.9,3.6,9,3.7,9,3.9z
		 M0.9,3.6h2.7v1.2h-3V3.9C0.6,3.7,0.7,3.6,0.9,3.6z M0.6,6.6h3v0.9c0,0.2,0.1,0.3,0.3,0.3c0.1,0,0.1,0,0.2-0.1l0.7-0.5l0.7,0.5
		c0.1,0.1,0.3,0.1,0.4-0.1C6,7.6,6,7.6,6,7.5V6.6h3v5.1C9,11.9,8.9,12,8.7,12H0.9c-0.2,0-0.3-0.1-0.3-0.3V6.6z M5.1,20.4
		c-0.8,0-1.5-0.7-1.5-1.5c0-0.8,0.7-1.5,1.5-1.5s1.5,0.7,1.5,1.5C6.6,19.7,5.9,20.4,5.1,20.4z M14.1,20.4c-0.8,0-1.5-0.7-1.5-1.5
		c0-0.8,0.7-1.5,1.5-1.5c0.8,0,1.5,0.7,1.5,1.5C15.6,19.7,14.9,20.4,14.1,20.4z M17.4,18.3c0,0.2-0.1,0.3-0.3,0.3h-0.9
		c-0.2-1.1-1.2-1.9-2.4-1.8c-0.9,0.1-1.6,0.9-1.8,1.8H7.2c-0.2-1.1-1.2-1.9-2.4-1.8C3.9,17,3.2,17.7,3,18.6H0.9
		c-0.2,0-0.3-0.1-0.3-0.3v-4.5h10.5c0.2,0,0.3-0.1,0.3-0.3V8.4h2.1c0.1,0.2,0.2,0.4,0.4,0.6h-1.6C12.1,9,12,9.1,12,9.3v4.2
		c0,0.2,0.1,0.3,0.3,0.3h4.2c0.2,0,0.3-0.1,0.3-0.3v-1.8c0-0.7-0.2-1.3-0.7-1.8c0.1-0.2,0.2-0.3,0.3-0.5c0.6,0.6,0.9,1.4,0.9,2.3
		L17.4,18.3z"/>
	<path class="st0" d="M7.8,8.7h0.6v0.6H7.8V8.7z"/>
	<path class="st0" d="M8.4,11.1V9.9H7.8v0.9H6.9v0.6h1.2C8.3,11.4,8.4,11.3,8.4,11.1z"/>
	<path class="st0" d="M5.1,18c-0.5,0-0.9,0.4-0.9,0.9c0,0.5,0.4,0.9,0.9,0.9S6,19.4,6,18.9l0,0C6,18.4,5.6,18,5.1,18z M5.1,19.2
		c-0.2,0-0.3-0.1-0.3-0.3c0-0.2,0.1-0.3,0.3-0.3s0.3,0.1,0.3,0.3C5.4,19.1,5.3,19.2,5.1,19.2z"/>
	<path class="st0" d="M14.1,18c-0.5,0-0.9,0.4-0.9,0.9c0,0.5,0.4,0.9,0.9,0.9c0.5,0,0.9-0.4,0.9-0.9l0,0C15,18.4,14.6,18,14.1,18z
		 M14.1,19.2c-0.2,0-0.3-0.1-0.3-0.3c0-0.2,0.1-0.3,0.3-0.3c0.2,0,0.3,0.1,0.3,0.3C14.4,19.1,14.3,19.2,14.1,19.2z"/>
	<path class="st0" d="M16.8,5.7c0-0.8-0.7-1.5-1.5-1.5s-1.5,0.7-1.5,1.5s0.7,1.5,1.5,1.5C16.1,7.2,16.8,6.5,16.8,5.7z M14.4,5.7
		c0-0.5,0.4-0.9,0.9-0.9s0.9,0.4,0.9,0.9s-0.4,0.9-0.9,0.9S14.4,6.2,14.4,5.7z"/>
</g>
</svg>
