<?xml version="1.0" encoding="utf-8"?>
<!-- Generator: Adobe Illustrator 24.0.2, SVG Export Plug-In . SVG Version: 6.00 Build 0)  -->
<svg version="1.1" id="Layer_1" xmlns="http://www.w3.org/2000/svg" xmlns:xlink="http://www.w3.org/1999/xlink" x="0px" y="0px"
	 viewBox="0 0 18 24" style="enable-background:new 0 0 18 24;" xml:space="preserve">
<style type="text/css">
	.st0{fill:#FC6A55;}
	.st1{fill:#EDEDED;}
	.st2{fill:none;stroke:#FC6A55;stroke-miterlimit:10;}
	.st3{stroke:#FFFFFF;stroke-width:0.25;stroke-miterlimit:10;}
	.st4{fill:#656D7A;}
	.st5{fill:#FFFFFF;}
	.st6{filter:url(#Adobe_OpacityMaskFilter);}
	.st7{fill-rule:evenodd;clip-rule:evenodd;fill:#FFFFFF;}
	.st8{mask:url(#mask-2_8_);fill-rule:evenodd;clip-rule:evenodd;}
	.st9{filter:url(#Adobe_OpacityMaskFilter_1_);}
	.st10{mask:url(#mask-2_7_);fill-rule:evenodd;clip-rule:evenodd;}
	.st11{filter:url(#Adobe_OpacityMaskFilter_2_);}
	.st12{mask:url(#mask-2_6_);fill-rule:evenodd;clip-rule:evenodd;}
	.st13{filter:url(#Adobe_OpacityMaskFilter_3_);}
	.st14{mask:url(#mask-2_5_);fill-rule:evenodd;clip-rule:evenodd;}
	.st15{filter:url(#Adobe_OpacityMaskFilter_4_);}
	.st16{mask:url(#mask-2_2_);fill:none;stroke:#000000;stroke-width:2;}
	.st17{fill:#434343;}
	.st18{fill:#434343;stroke:#F9F9F9;stroke-width:0.25;stroke-miterlimit:10;}
	.st19{fill:none;stroke:#FC6A55;stroke-width:0.5;stroke-miterlimit:10;}
	.st20{fill:none;stroke:#FC6A55;stroke-width:0.75;stroke-miterlimit:10;}
	.st21{fill:#FC6A55;stroke:#FC6A55;stroke-width:0.5;stroke-miterlimit:10;}
	.st22{opacity:0.153;fill:url(#Path_146_);enable-background:new    ;}
	.st23{opacity:0.1;fill:#590BB2;enable-background:new    ;}
	.st24{fill:#8E8CA8;}
	.st25{fill:#F5F4F9;}
	.st26{fill:#FFD5B8;}
	.st27{fill:#FC8473;}
	.st28{fill:#1C3475;}
	.st29{fill:#DDD9E4;}
	.st30{fill:#828FB3;}
	.st31{opacity:7.584635e-02;fill:url(#Path_147_);enable-background:new    ;}
	.st32{fill:#FFBE92;}
	.st33{fill:#FB8E7F;}
	.st34{fill:#FDB1A6;}
	.st35{fill:#FC806F;}
	.st36{fill:#FFE783;}
	.st37{fill:#104478;}
	.st38{fill:none;stroke:#FFFFFF;stroke-miterlimit:10;}
	.st39{fill:none;stroke:#000000;stroke-width:0.15;stroke-miterlimit:10;}
	.st40{opacity:0.1;fill:url(#Path_148_);enable-background:new    ;}
	.st41{opacity:0.1;fill:url(#Path_149_);enable-background:new    ;}
</style>
<g>
	<path class="st0" d="M14.2,16.6c0,0.3-0.3,0.6-0.6,0.6s-0.6-0.3-0.6-0.6v-0.3h-1.2v-0.6c0.5-0.1,0.9-0.6,0.9-1.1
		c0-0.5-0.4-1-0.9-1.1v-1.2H8.4c-0.6,0-1.2,0.5-1.2,1.2v2.9v0.6v2.9c0,0.6,0.5,1.2,1.2,1.2h2.9h0.6h2.9c0.6,0,1.2-0.5,1.2-1.2v-3.5
		h-1.7V16.6z M7.8,13.5c0-0.3,0.3-0.6,0.6-0.6h2.9V14h0.3c0.3,0,0.6,0.3,0.6,0.6c0,0.3-0.3,0.6-0.6,0.6h-0.3v1.2h-0.6
		c-0.1-0.5-0.6-0.9-1.1-0.9s-1,0.4-1.1,0.9H7.8V13.5z M8.4,20.4c-0.3,0-0.6-0.3-0.6-0.6v-2.9H9v-0.3c0-0.3,0.3-0.6,0.6-0.6
		s0.6,0.3,0.6,0.6v0.3h1.2v0.6c-0.5,0.1-0.9,0.6-0.9,1.1c0,0.5,0.4,1,0.9,1.1v0.6H8.4z M14.8,16.9h0.6v2.9c0,0.3-0.3,0.6-0.6,0.6
		h-2.9v-1.2h-0.3c-0.3,0-0.6-0.3-0.6-0.6c0-0.3,0.3-0.6,0.6-0.6h0.3v-1.2h0.6c0.1,0.5,0.6,0.9,1.1,0.9S14.6,17.4,14.8,16.9z"/>
	<path class="st0" d="M12.2,7.4c0-0.3,0.3-0.6,0.6-0.6s0.6,0.3,0.6,0.6v0.3h1.7V6.5c0.6,0,1.2-0.5,1.2-1.2s-0.5-1.2-1.2-1.2V3h-3.5
		c-0.6,0-1.2,0.5-1.2,1.2v3.5h1.7V7.4z M11.6,7.1H11V4.2c0-0.3,0.3-0.6,0.6-0.6h2.9v1.2h0.6c0.3,0,0.6,0.3,0.6,0.6
		c0,0.3-0.3,0.6-0.6,0.6h-0.6v1.2h-0.6c-0.1-0.5-0.6-0.9-1.1-0.9S11.8,6.6,11.6,7.1z"/>
	<path class="st0" d="M15.1,9.4c-0.5,0-0.9,0.4-0.9,0.9v0.3h0.6v-0.3c0-0.2,0.1-0.3,0.3-0.3s0.3,0.1,0.3,0.3v0c0,0.1,0,0.2-0.1,0.2
		l-0.2,0.2c-0.2,0.2-0.3,0.4-0.3,0.6v0.3h0.6v-0.3c0-0.1,0-0.2,0.1-0.2l0.2-0.2c0.2-0.2,0.3-0.4,0.3-0.6v0C16,9.8,15.6,9.4,15.1,9.4
		z"/>
	<path class="st0" d="M14.8,12.3h0.6v0.6h-0.6V12.3z"/>
	<path class="st0" d="M15.1,8.2c-1.6,0-2.9,1.3-2.9,2.9c0,1.2,0.7,2.2,1.7,2.7v1.4l1.5-1.2c1.5-0.2,2.6-1.4,2.6-2.9
		C18,9.5,16.7,8.2,15.1,8.2L15.1,8.2z M15.3,13.4L15.3,13.4L14.5,14v-0.6l-0.2-0.1c-0.9-0.3-1.5-1.2-1.5-2.2c0-1.3,1-2.3,2.3-2.3
		s2.3,1,2.3,2.3C17.4,12.3,16.5,13.4,15.3,13.4L15.3,13.4z"/>
	<path class="st0" d="M12.5,19.5h0.6v0.6h-0.6V19.5z"/>
	<path class="st0" d="M13.6,19.5h0.6v0.6h-0.6V19.5z"/>
	<path class="st0" d="M8.1,17.5h0.6v0.6H8.1V17.5z"/>
	<path class="st0" d="M8.1,18.7h0.6v0.6H8.1V18.7z"/>
	<path class="st0" d="M11.6,4.2h0.6v0.6h-0.6V4.2z"/>
	<path class="st0" d="M12.8,4.2h0.6v0.6h-0.6V4.2z"/>
	<path class="st0" d="M8.4,13.5H9V14H8.4V13.5z"/>
	<path class="st0" d="M9.6,13.5h0.6V14H9.6V13.5z"/>
	<path class="st0" d="M9.3,7.5V4c0-0.6-0.5-1-1-1s-1,0.5-1,1v2.8L5.6,7c0.3-0.4,0.5-0.8,0.5-1.3c0-1.1-0.9-2-2-2s-2,0.9-2,2
		c0,0.6,0.3,1.1,0.7,1.5C1.2,7.3,0,8.7,0,10.3v0.9c0,0.8,0.7,1.5,1.5,1.5h0.3v1.2V14v5.7C1.7,20.4,2.3,21,3,21c0.4,0,0.8-0.2,1-0.5
		c0.2,0.3,0.6,0.5,1,0.5c0.7,0,1.3-0.6,1.3-1.3V9.1L8,8.9C8.7,8.8,9.3,8.2,9.3,7.5L9.3,7.5z M2.6,5.6c0-0.8,0.7-1.5,1.5-1.5
		s1.5,0.7,1.5,1.5S4.9,7.1,4.1,7.1S2.6,6.4,2.6,5.6z M3.6,12.6c0.6,0,1-0.5,1-1s-0.5-1-1-1H2.3V10h2.3v1.6v1.9H2.3v-0.9H3.6z
		 M3,20.4c-0.4,0-0.7-0.3-0.7-0.7V14h1.5v5.7C3.8,20.1,3.4,20.4,3,20.4z M5.8,8.5v11.1c0,0.4-0.3,0.7-0.7,0.7s-0.7-0.3-0.7-0.7V14
		h0.9V9.4H1.7v1.2H1.2v0.6h2.5c0.2,0,0.4,0.2,0.4,0.4c0,0.2-0.2,0.4-0.4,0.4H1.5c-0.5,0-0.9-0.4-0.9-0.9v-0.9c0-1.4,1.2-2.6,2.6-2.6
		l0.9,0c0,0,0,0,0,0s0,0,0,0l0.3,0l3.5-0.3V4c0-0.2,0.2-0.4,0.4-0.4S8.7,3.8,8.7,4v3.4c0,0.4-0.3,0.8-0.8,0.9L5.8,8.5z"/>
</g>
</svg>
