<?xml version="1.0" encoding="utf-8"?>
<!-- Generator: Adobe Illustrator 24.0.2, SVG Export Plug-In . SVG Version: 6.00 Build 0)  -->
<svg version="1.1" id="Layer_1" xmlns="http://www.w3.org/2000/svg" xmlns:xlink="http://www.w3.org/1999/xlink" x="0px" y="0px"
	 viewBox="0 0 18 24" style="enable-background:new 0 0 18 24;" xml:space="preserve">
<style type="text/css">
	.st0{fill:#FC6A55;}
	.st1{fill:#EDEDED;}
	.st2{fill:none;stroke:#FC6A55;stroke-miterlimit:10;}
	.st3{stroke:#FFFFFF;stroke-width:0.25;stroke-miterlimit:10;}
	.st4{fill:#656D7A;}
	.st5{fill:#FFFFFF;}
	.st6{filter:url(#Adobe_OpacityMaskFilter);}
	.st7{fill-rule:evenodd;clip-rule:evenodd;fill:#FFFFFF;}
	.st8{mask:url(#mask-2_8_);fill-rule:evenodd;clip-rule:evenodd;}
	.st9{filter:url(#Adobe_OpacityMaskFilter_1_);}
	.st10{mask:url(#mask-2_7_);fill-rule:evenodd;clip-rule:evenodd;}
	.st11{filter:url(#Adobe_OpacityMaskFilter_2_);}
	.st12{mask:url(#mask-2_6_);fill-rule:evenodd;clip-rule:evenodd;}
	.st13{filter:url(#Adobe_OpacityMaskFilter_3_);}
	.st14{mask:url(#mask-2_5_);fill-rule:evenodd;clip-rule:evenodd;}
	.st15{filter:url(#Adobe_OpacityMaskFilter_4_);}
	.st16{mask:url(#mask-2_2_);fill:none;stroke:#000000;stroke-width:2;}
	.st17{fill:#434343;}
	.st18{fill:#434343;stroke:#F9F9F9;stroke-width:0.25;stroke-miterlimit:10;}
	.st19{fill:none;stroke:#FC6A55;stroke-width:0.5;stroke-miterlimit:10;}
	.st20{fill:none;stroke:#FC6A55;stroke-width:0.75;stroke-miterlimit:10;}
	.st21{fill:#FC6A55;stroke:#FC6A55;stroke-width:0.5;stroke-miterlimit:10;}
	.st22{opacity:0.153;fill:url(#Path_146_);enable-background:new    ;}
	.st23{opacity:0.1;fill:#590BB2;enable-background:new    ;}
	.st24{fill:#8E8CA8;}
	.st25{fill:#F5F4F9;}
	.st26{fill:#FFD5B8;}
	.st27{fill:#FC8473;}
	.st28{fill:#1C3475;}
	.st29{fill:#DDD9E4;}
	.st30{fill:#828FB3;}
	.st31{opacity:7.584635e-02;fill:url(#Path_147_);enable-background:new    ;}
	.st32{fill:#FFBE92;}
	.st33{fill:#FB8E7F;}
	.st34{fill:#FDB1A6;}
	.st35{fill:#FC806F;}
	.st36{fill:#FFE783;}
	.st37{fill:#104478;}
	.st38{fill:none;stroke:#FFFFFF;stroke-miterlimit:10;}
	.st39{fill:none;stroke:#000000;stroke-width:0.15;stroke-miterlimit:10;}
	.st40{opacity:0.1;fill:url(#Path_148_);enable-background:new    ;}
	.st41{opacity:0.1;fill:url(#Path_149_);enable-background:new    ;}
</style>
<g>
	<g>
		<path class="st0" d="M17.6,14.1c-0.3-0.2-0.6-0.3-1-0.3c-0.4,0-0.8,0.1-1.1,0.3l-2,1.6c0-0.1-0.1-0.1-0.1-0.2
			c-0.2-0.2-0.6-0.4-1-0.4H9.5c-0.5,0-1-0.1-1.5-0.2c-1.3-0.3-2.5-0.1-3.5,0.6c-0.4,0.3-0.7,0.6-0.9,0.8L3,16.1C3,16,2.9,16,2.8,16
			c0,0,0,0,0,0c-0.1,0-0.2,0-0.3,0.1l-2.4,2.1C0,18.2,0,18.3,0,18.3c0,0.1,0,0.1,0.1,0.2l4.1,3.2c0.1,0.1,0.2,0.1,0.2,0.1
			c0.1,0,0.2,0,0.3-0.1l2.4-2c0.1-0.1,0.1-0.1,0.1-0.2c0-0.1,0-0.1-0.1-0.2l-0.2-0.2l0.5,0c0.3,0,0.6,0,0.9,0h4.3
			c0.7,0,1.3-0.1,1.7-0.4c0,0,0,0,0,0c0.2-0.1,0.3-0.2,0.5-0.3l2.9-2.7C18.1,15.1,18.1,14.5,17.6,14.1z M4.5,21.1l-3.6-2.8l1.9-1.6
			l3.6,2.8L4.5,21.1z M17.1,15.2L14.2,18c-0.1,0.1-0.2,0.2-0.3,0.2c-0.4,0.2-0.8,0.3-1.4,0.3H8.3c-0.3,0-0.6,0-1,0l-1.1,0.1
			l-2.2-1.8c0.2-0.2,0.4-0.5,0.8-0.8c0.9-0.6,1.8-0.7,2.9-0.5c0.5,0.1,1.1,0.2,1.7,0.2h2.8c0.5,0,0.6,0.4,0.6,0.6
			c0,0.2-0.1,0.3-0.2,0.4c-0.1,0.1-0.3,0.2-0.5,0.2H9.9c-0.2,0-0.4,0.1-0.4,0.3s0.2,0.3,0.4,0.3h2.4c0.4,0,0.8-0.1,1-0.4
			c0.2-0.2,0.3-0.5,0.3-0.7l2.3-1.9c0.3-0.3,0.8-0.2,1.1,0C17.2,14.7,17.4,14.9,17.1,15.2z"/>
		<path class="st0" d="M8.8,17.1c0-0.2-0.2-0.3-0.4-0.2c-0.2,0-0.3,0.2-0.3,0.3l0,0c0,0.1,0.2,0.2,0.3,0.2c0,0,0.1,0,0.1,0
			C8.7,17.5,8.8,17.3,8.8,17.1L8.8,17.1z"/>
	</g>
	<g>
		<path class="st0" d="M4.4,5.3L4.4,5.3c0.6,0,1-0.4,1-1V4c0-0.5-0.4-1-1-1h0c-0.5,0-1,0.4-1,1v0.3C3.4,4.8,3.9,5.3,4.4,5.3z M3.8,4
			c0-0.3,0.3-0.6,0.6-0.6h0C4.7,3.4,5,3.7,5,4v0.3c0,0.3-0.3,0.6-0.6,0.6h0c-0.3,0-0.6-0.2-0.6-0.6V4z"/>
		<path class="st0" d="M5.6,5.6H5.2C5.1,5.6,5,5.6,5,5.6L4.4,6.2L3.9,5.6c0,0-0.1-0.1-0.1-0.1H3.3C3,5.6,2.7,5.7,2.5,5.9
			C2.4,6.1,2.3,6.4,2.3,6.7V9c0,0.3,0.3,0.6,0.6,0.6h0c0.1,0,0.2,0,0.2-0.1l0.1,4.3c0,0.3,0.2,0.5,0.4,0.6c0.2,0.1,0.5,0,0.7-0.1
			c0.2,0.2,0.5,0.2,0.7,0.1c0.2-0.1,0.4-0.3,0.4-0.6l0.1-4.2c0.2,0.1,0.4,0.1,0.6-0.1C6.5,9.4,6.6,9.2,6.6,9V6.7
			c0-0.3-0.1-0.6-0.3-0.8C6.1,5.7,5.9,5.6,5.6,5.6z M4.9,14.1c-0.1,0-0.3-0.1-0.3-0.3V9.6H4.2v4.3c0,0.1-0.1,0.3-0.3,0.3
			c-0.1,0-0.3-0.1-0.3-0.2L3.6,9h1.7l-0.1,4.8C5.2,14,5,14.1,4.9,14.1z M6.2,6.6C6.2,6.7,6.2,6.7,6.2,6.6l0,2.4
			c0,0.1-0.1,0.2-0.2,0.2C5.8,9.2,5.7,9.2,5.7,9V8.5l0-0.1h0v-1H5.3v1.1l0,0.1H3.6l0-0.2h0v-1H3.1V9c0,0.1-0.1,0.2-0.2,0.2
			c-0.1,0-0.1,0-0.2-0.1c0,0-0.1-0.1-0.1-0.2V6.7c0,0,0,0,0,0c0-0.2,0-0.3,0.2-0.5S3.1,6,3.3,6h0.4l0.6,0.6c0,0,0,0,0,0c0,0,0,0,0,0
			c0,0,0,0,0,0c0,0,0,0,0,0c0,0,0,0,0,0c0,0,0,0,0,0c0,0,0,0,0,0c0,0,0,0,0,0c0,0,0,0,0,0c0,0,0,0,0,0c0,0,0,0,0,0c0,0,0,0,0,0
			c0,0,0,0,0,0c0,0,0,0,0,0l0,0c0,0,0,0,0,0c0,0,0,0,0,0c0,0,0,0,0,0c0,0,0,0,0,0c0,0,0,0,0,0s0,0,0,0L5.2,6h0.3
			C5.7,6,5.9,6.1,6,6.2C6.1,6.3,6.2,6.5,6.2,6.6z"/>
		<path class="st0" d="M13.6,5.3L13.6,5.3c0.6,0,1-0.4,1-1V4c0-0.5-0.4-1-1-1h0c-0.5,0-1,0.4-1,1v0.3C12.7,4.8,13.1,5.3,13.6,5.3z
			 M13.1,4c0-0.3,0.3-0.6,0.6-0.6h0c0.3,0,0.6,0.2,0.6,0.6v0.3c0,0.3-0.3,0.6-0.6,0.6h0c-0.3,0-0.6-0.2-0.6-0.6V4z"/>
		<path class="st0" d="M14.8,5.6h-0.4c-0.1,0-0.1,0-0.1,0.1l-0.6,0.5l-0.6-0.5c0,0-0.1-0.1-0.1-0.1h-0.4c-0.3,0-0.6,0.1-0.8,0.3
			c-0.2,0.2-0.3,0.5-0.3,0.8V9c0,0.3,0.3,0.6,0.6,0.6h0c0.1,0,0.2,0,0.2-0.1l0.1,4.3c0,0.3,0.2,0.5,0.4,0.6c0.2,0.1,0.5,0,0.7-0.1
			c0.2,0.2,0.5,0.2,0.7,0.1c0.2-0.1,0.4-0.3,0.4-0.6l0.1-4.2c0.2,0.1,0.4,0.1,0.6-0.1c0.2-0.1,0.3-0.3,0.3-0.5V6.7
			c0-0.3-0.1-0.6-0.3-0.8C15.4,5.7,15.1,5.6,14.8,5.6z M14.1,14.1c-0.1,0-0.3-0.1-0.3-0.3V9.6h-0.4v4.3c0,0.1-0.1,0.3-0.3,0.3
			S13,14,12.9,13.8L12.8,9h1.7l-0.1,4.8C14.4,14,14.3,14.1,14.1,14.1z M15.4,6.6C15.4,6.7,15.4,6.7,15.4,6.6l0,2.4
			c0,0.1-0.1,0.2-0.2,0.2C15.1,9.3,15,9.2,15,9V8.5l0-0.1h0v-1h-0.4v1.1l0,0.1h-1.7l0-0.2h0v-1h-0.4V9c0,0.1-0.1,0.2-0.2,0.2
			c-0.1,0-0.1,0-0.2-0.1c0,0-0.1-0.1-0.1-0.2V6.7c0,0,0,0,0,0c0-0.2,0-0.3,0.2-0.5C12.2,6.1,12.4,6,12.5,6h0.4l0.6,0.6c0,0,0,0,0,0
			c0,0,0,0,0,0c0,0,0,0,0,0c0,0,0,0,0,0c0,0,0,0,0,0c0,0,0,0,0,0l0,0c0,0,0,0,0,0c0,0,0,0,0,0c0,0,0,0,0,0c0,0,0,0,0,0c0,0,0,0,0,0
			c0,0,0,0,0,0c0,0,0,0,0,0c0,0,0,0,0,0c0,0,0,0,0,0c0,0,0,0,0,0c0,0,0,0,0,0c0,0,0,0,0,0c0,0,0,0,0,0c0,0,0,0,0,0L14.5,6h0.3
			c0.2,0,0.3,0.1,0.4,0.2C15.4,6.3,15.4,6.5,15.4,6.6L15.4,6.6z"/>
		<path class="st0" d="M9,5.3L9,5.3c0.6,0,1-0.4,1-1V4c0-0.5-0.4-1-1-1h0C8.5,3,8,3.5,8,4v0.3C8,4.8,8.5,5.3,9,5.3z M8.5,4
			c0-0.3,0.3-0.6,0.6-0.6h0c0.3,0,0.6,0.2,0.6,0.6v0.3c0,0.3-0.3,0.6-0.6,0.6h0c-0.3,0-0.6-0.2-0.6-0.6V4L8.5,4z"/>
		<path class="st0" d="M10.2,5.6H9.8c-0.1,0-0.1,0-0.1,0.1L9.1,6.2L8.5,5.6c0,0-0.1-0.1-0.1-0.1H7.9c-0.3,0-0.6,0.1-0.8,0.3
			C7,6.1,6.9,6.4,6.9,6.7V9c0,0.3,0.3,0.6,0.6,0.6h0c0.1,0,0.2,0,0.2-0.1l0.1,4.3c0,0.3,0.2,0.5,0.4,0.6c0.2,0.1,0.5,0,0.7-0.1
			c0.2,0.2,0.5,0.2,0.7,0.1c0.2-0.1,0.4-0.3,0.4-0.6l0.1-4.2c0.2,0.1,0.4,0.1,0.6-0.1c0.2-0.1,0.3-0.3,0.3-0.5V6.7
			c0-0.3-0.1-0.6-0.3-0.8C10.7,5.7,10.5,5.6,10.2,5.6z M9.5,14.1c-0.1,0-0.3-0.1-0.3-0.3V9.6H8.8v4.3c0,0.1-0.1,0.3-0.3,0.3
			c-0.1,0-0.3-0.1-0.3-0.2L8.2,9h1.7l-0.1,4.8C9.8,14,9.7,14.1,9.5,14.1z M10.8,6.6C10.8,6.7,10.8,6.7,10.8,6.6l0,2.4
			c0,0.1-0.1,0.2-0.2,0.2S10.3,9.2,10.3,9V8.5l0-0.1h0v-1H9.9v1.1l0,0.1H8.2l0-0.2h0v-1H7.8V9c0,0.1-0.1,0.2-0.2,0.2
			c-0.1,0-0.1,0-0.2-0.1c0,0-0.1-0.1-0.1-0.2V6.7c0,0,0,0,0,0c0-0.2,0-0.3,0.2-0.5C7.6,6.1,7.8,6,7.9,6h0.4l0.6,0.6c0,0,0,0,0,0
			c0,0,0,0,0,0c0,0,0,0,0,0c0,0,0,0,0,0c0,0,0,0,0,0c0,0,0,0,0,0c0,0,0,0,0,0c0,0,0,0,0,0c0,0,0,0,0,0c0,0,0,0,0,0c0,0,0,0,0,0
			c0,0,0,0,0,0c0,0,0,0,0,0c0,0,0,0,0,0l0,0c0,0,0,0,0,0c0,0,0,0,0,0c0,0,0,0,0,0c0,0,0,0,0,0c0,0,0,0,0,0c0,0,0,0,0,0L9.9,6h0.3
			c0.2,0,0.3,0.1,0.4,0.2C10.7,6.3,10.8,6.5,10.8,6.6z"/>
		<path class="st0" d="M7.7,3.5V3.2c0-0.5-0.4-1-1-1h0c-0.5,0-1,0.4-1,1v0.3c0,0.5,0.4,1,1,1h0C7.3,4.4,7.7,4,7.7,3.5z M7.3,3.5
			C7.3,3.8,7.1,4,6.7,4h0C6.4,4,6.2,3.8,6.2,3.5V3.2c0-0.3,0.3-0.6,0.6-0.6h0c0.3,0,0.6,0.2,0.6,0.6V3.5z"/>
		<path class="st0" d="M12.4,3.5V3.2c0-0.5-0.4-1-1-1h0c-0.5,0-1,0.4-1,1v0.3c0,0.5,0.4,1,1,1h0C11.9,4.4,12.4,4,12.4,3.5z
			 M11.9,3.5c0,0.3-0.3,0.6-0.6,0.6h0c-0.3,0-0.6-0.2-0.6-0.6V3.2c0-0.3,0.3-0.6,0.6-0.6h0c0.3,0,0.6,0.2,0.6,0.6V3.5z"/>
	</g>
</g>
</svg>
