<?xml version="1.0" encoding="utf-8"?>
<!-- Generator: Adobe Illustrator 24.0.2, SVG Export Plug-In . SVG Version: 6.00 Build 0)  -->
<svg version="1.1" id="Layer_1" xmlns="http://www.w3.org/2000/svg" xmlns:xlink="http://www.w3.org/1999/xlink" x="0px" y="0px"
	 viewBox="0 0 18 24" style="enable-background:new 0 0 18 24;" xml:space="preserve">
<style type="text/css">
	.st0{fill:#FC6A55;}
	.st1{fill:#EDEDED;}
	.st2{fill:none;stroke:#FC6A55;stroke-miterlimit:10;}
	.st3{stroke:#FFFFFF;stroke-width:0.25;stroke-miterlimit:10;}
	.st4{fill:#656D7A;}
	.st5{fill:#FFFFFF;}
	.st6{filter:url(#Adobe_OpacityMaskFilter);}
	.st7{fill-rule:evenodd;clip-rule:evenodd;fill:#FFFFFF;}
	.st8{mask:url(#mask-2_8_);fill-rule:evenodd;clip-rule:evenodd;}
	.st9{filter:url(#Adobe_OpacityMaskFilter_1_);}
	.st10{mask:url(#mask-2_7_);fill-rule:evenodd;clip-rule:evenodd;}
	.st11{filter:url(#Adobe_OpacityMaskFilter_2_);}
	.st12{mask:url(#mask-2_6_);fill-rule:evenodd;clip-rule:evenodd;}
	.st13{filter:url(#Adobe_OpacityMaskFilter_3_);}
	.st14{mask:url(#mask-2_5_);fill-rule:evenodd;clip-rule:evenodd;}
	.st15{filter:url(#Adobe_OpacityMaskFilter_4_);}
	.st16{mask:url(#mask-2_2_);fill:none;stroke:#000000;stroke-width:2;}
	.st17{fill:#434343;}
	.st18{fill:#434343;stroke:#F9F9F9;stroke-width:0.25;stroke-miterlimit:10;}
	.st19{fill:none;stroke:#FC6A55;stroke-width:0.5;stroke-miterlimit:10;}
	.st20{fill:none;stroke:#FC6A55;stroke-width:0.75;stroke-miterlimit:10;}
	.st21{fill:#FC6A55;stroke:#FC6A55;stroke-width:0.5;stroke-miterlimit:10;}
	.st22{opacity:0.153;fill:url(#Path_146_);enable-background:new    ;}
	.st23{opacity:0.1;fill:#590BB2;enable-background:new    ;}
	.st24{fill:#8E8CA8;}
	.st25{fill:#F5F4F9;}
	.st26{fill:#FFD5B8;}
	.st27{fill:#FC8473;}
	.st28{fill:#1C3475;}
	.st29{fill:#DDD9E4;}
	.st30{fill:#828FB3;}
	.st31{opacity:7.584635e-02;fill:url(#Path_147_);enable-background:new    ;}
	.st32{fill:#FFBE92;}
	.st33{fill:#FB8E7F;}
	.st34{fill:#FDB1A6;}
	.st35{fill:#FC806F;}
	.st36{fill:#FFE783;}
	.st37{fill:#104478;}
	.st38{fill:none;stroke:#FFFFFF;stroke-miterlimit:10;}
	.st39{fill:none;stroke:#000000;stroke-width:0.15;stroke-miterlimit:10;}
	.st40{opacity:0.1;fill:url(#Path_148_);enable-background:new    ;}
	.st41{opacity:0.1;fill:url(#Path_149_);enable-background:new    ;}
</style>
<path class="st0" d="M17.8,19.3h0.6v0.6h-0.6V19.3z"/>
<path class="st0" d="M16.6,19.3h0.6v0.6h-0.6V19.3z"/>
<path class="st0" d="M15.5,19.3h0.6v0.6h-0.6V19.3z"/>
<g>
	<path class="st0" d="M12.5,18.1h2.9v0.6h-2.9V18.1z"/>
	<path class="st0" d="M18,6.2c0-0.5-0.4-0.9-0.9-0.9V4.7c0.5,0,0.9-0.4,0.9-0.9S17.6,3,17.1,3h-4.6c-0.5,0-0.9,0.4-0.9,0.9
		s0.4,0.9,0.9,0.9v0.6c-0.4,0-0.7,0.2-0.8,0.6h-0.3c-0.8,0-1.5,0.7-1.5,1.5v6.1H9.3V7.4c0-0.8-0.7-1.5-1.5-1.5H7.5v-2
		C7.5,3.4,7.2,3,6.7,3H0.9C0.4,3,0,3.4,0,3.9v4.1c0,0.5,0.4,0.9,0.9,0.9h5.8c0.5,0,0.9-0.4,0.9-0.9V6.5h0.3c0.5,0,0.9,0.4,0.9,0.9
		v6.1H8.1V12c0-0.8-0.7-1.5-1.5-1.5H5.8C5.6,9.9,5.1,9.4,4.4,9.4H2c-0.8,0-1.5,0.7-1.5,1.5c0,0.8,0.7,1.5,1.5,1.5h3.8v-1.2h0.9
		c0.5,0,0.9,0.4,0.9,0.9v1.5h-6l-1.5,2.9h1.3V21h15.1v-4.6h1.3l-1.5-2.9h-4.8v-0.9c0-0.5,0.4-0.9,0.9-0.9h0.3
		c0.1,0.7,0.7,1.2,1.4,1.2c0.8,0,1.5-0.7,1.5-1.5c0-0.8-0.7-1.5-1.5-1.5c-0.7,0-1.3,0.5-1.4,1.2h-0.3c-0.8,0-1.5,0.7-1.5,1.5v0.9
		h-0.6V7.4c0-0.5,0.4-0.9,0.9-0.9h0.3c0.1,0.3,0.4,0.6,0.8,0.6v0.6c-0.5,0-0.9,0.4-0.9,0.9c0,0.5,0.4,0.9,0.9,0.9h4.6
		C17.6,9.4,18,9,18,8.5c0-0.5-0.4-0.9-0.9-0.9V7.1C17.6,7.1,18,6.7,18,6.2z M7,7.9c0,0.2-0.1,0.3-0.3,0.3H0.9
		c-0.2,0-0.3-0.1-0.3-0.3V3.9c0-0.2,0.1-0.3,0.3-0.3h5.8C6.8,3.6,7,3.7,7,3.9V7.9z M5.2,11.7H2c-0.5,0-0.9-0.4-0.9-0.9S1.6,10,2,10
		h2.3c0.5,0,0.9,0.4,0.9,0.9V11.7z M14.2,10.5c0.5,0,0.9,0.4,0.9,0.9c0,0.5-0.4,0.9-0.9,0.9s-0.9-0.4-0.9-0.9
		C13.4,10.9,13.7,10.5,14.2,10.5z M1.9,14h4.3l-0.9,1.7H1.1L1.9,14z M2,16.4h3.7l1-2v6H2V16.4z M16,20.4H7.3v-6l1,2H16V20.4z
		 M16.9,15.8H8.6L7.7,14h8.4L16.9,15.8z M12.2,3.9c0-0.2,0.1-0.3,0.3-0.3h4.6c0.2,0,0.3,0.1,0.3,0.3s-0.1,0.3-0.3,0.3h-4.6
		C12.3,4.2,12.2,4,12.2,3.9z M13.1,4.7h3.5v0.6h-3.5V4.7z M12.2,6.2c0-0.2,0.1-0.3,0.3-0.3h4.6c0.2,0,0.3,0.1,0.3,0.3
		c0,0.2-0.1,0.3-0.3,0.3h-4.6C12.3,6.5,12.2,6.4,12.2,6.2z M17.4,8.5c0,0.2-0.1,0.3-0.3,0.3h-4.6c-0.2,0-0.3-0.1-0.3-0.3
		c0-0.2,0.1-0.3,0.3-0.3h4.6C17.3,8.2,17.4,8.4,17.4,8.5z M16.5,7.6h-3.5V7.1h3.5V7.6z"/>
	<path class="st0" d="M1.7,10.5h0.6v0.6H1.7V10.5z"/>
	<path class="st0" d="M2.9,10.5h0.6v0.6H2.9V10.5z"/>
	<path class="st0" d="M4.1,10.5h0.6v0.6H4.1V10.5z"/>
	<path class="st0" d="M15.1,14.6h0.6v0.6h-0.6V14.6z"/>
	<path class="st0" d="M13.9,14.6h0.6v0.6h-0.6V14.6z"/>
	<path class="st0" d="M12.8,14.6h0.6v0.6h-0.6V14.6z"/>
	<path class="st0" d="M2.6,16.9h0.6v0.6H2.6V16.9z"/>
	<path class="st0" d="M2.6,18.1h0.6v0.6H2.6V18.1z"/>
</g>
<path class="st0" d="M5.6,19.3h0.6v0.6H5.6V19.3z"/>
</svg>
