<?xml version="1.0" encoding="utf-8"?>
<!-- Generator: Adobe Illustrator 24.0.2, SVG Export Plug-In . SVG Version: 6.00 Build 0)  -->
<svg version="1.1" id="Layer_1" xmlns="http://www.w3.org/2000/svg" xmlns:xlink="http://www.w3.org/1999/xlink" x="0px" y="0px"
	 viewBox="0 0 18 24" style="enable-background:new 0 0 18 24;" xml:space="preserve">
<style type="text/css">
	.st0{fill:#FC6A55;}
	.st1{fill:#EDEDED;}
	.st2{fill:none;stroke:#FC6A55;stroke-miterlimit:10;}
	.st3{stroke:#FFFFFF;stroke-width:0.25;stroke-miterlimit:10;}
	.st4{fill:#656D7A;}
	.st5{fill:#FFFFFF;}
	.st6{filter:url(#Adobe_OpacityMaskFilter);}
	.st7{fill-rule:evenodd;clip-rule:evenodd;fill:#FFFFFF;}
	.st8{mask:url(#mask-2_8_);fill-rule:evenodd;clip-rule:evenodd;}
	.st9{filter:url(#Adobe_OpacityMaskFilter_1_);}
	.st10{mask:url(#mask-2_7_);fill-rule:evenodd;clip-rule:evenodd;}
	.st11{filter:url(#Adobe_OpacityMaskFilter_2_);}
	.st12{mask:url(#mask-2_6_);fill-rule:evenodd;clip-rule:evenodd;}
	.st13{filter:url(#Adobe_OpacityMaskFilter_3_);}
	.st14{mask:url(#mask-2_5_);fill-rule:evenodd;clip-rule:evenodd;}
	.st15{filter:url(#Adobe_OpacityMaskFilter_4_);}
	.st16{mask:url(#mask-2_2_);fill:none;stroke:#000000;stroke-width:2;}
	.st17{fill:#434343;}
	.st18{fill:#434343;stroke:#F9F9F9;stroke-width:0.25;stroke-miterlimit:10;}
	.st19{fill:none;stroke:#FC6A55;stroke-width:0.5;stroke-miterlimit:10;}
	.st20{fill:none;stroke:#FC6A55;stroke-width:0.75;stroke-miterlimit:10;}
	.st21{fill:#FC6A55;stroke:#FC6A55;stroke-width:0.5;stroke-miterlimit:10;}
	.st22{opacity:0.153;fill:url(#Path_146_);enable-background:new    ;}
	.st23{opacity:0.1;fill:#590BB2;enable-background:new    ;}
	.st24{fill:#8E8CA8;}
	.st25{fill:#F5F4F9;}
	.st26{fill:#FFD5B8;}
	.st27{fill:#FC8473;}
	.st28{fill:#1C3475;}
	.st29{fill:#DDD9E4;}
	.st30{fill:#828FB3;}
	.st31{opacity:7.584635e-02;fill:url(#Path_147_);enable-background:new    ;}
	.st32{fill:#FFBE92;}
	.st33{fill:#FB8E7F;}
	.st34{fill:#FDB1A6;}
	.st35{fill:#FC806F;}
	.st36{fill:#FFE783;}
	.st37{fill:#104478;}
	.st38{fill:none;stroke:#FFFFFF;stroke-miterlimit:10;}
	.st39{fill:none;stroke:#000000;stroke-width:0.15;stroke-miterlimit:10;}
	.st40{opacity:0.1;fill:url(#Path_148_);enable-background:new    ;}
	.st41{opacity:0.1;fill:url(#Path_149_);enable-background:new    ;}
</style>
<g>
	<path class="st0" d="M16.1,6.4c0-0.1-0.1-0.2-0.2-0.2H2.2c-0.1,0-0.2,0.1-0.2,0.2v8.7c0,0.1,0.1,0.2,0.2,0.2h13.7
		c0.1,0,0.2-0.1,0.2-0.2V6.4z M15.6,14.9H2.4V6.7h13.1V14.9z"/>
	<path class="st0" d="M17.8,15.9h-0.6V6.7c0-0.5-0.2-0.9-0.5-1.2c-0.3-0.3-0.8-0.5-1.2-0.5H2.5c-0.5,0-0.9,0.2-1.2,0.5
		C1,5.8,0.8,6.2,0.8,6.7v9.2H0.2C0.1,15.9,0,16,0,16.2v1.2c0,1,0.8,1.7,1.8,1.7h14.5c1,0,1.7-0.8,1.8-1.7v-1.2
		C18,16,17.9,15.9,17.8,15.9z M1.3,6.7c0-0.3,0.1-0.6,0.4-0.9c0.2-0.2,0.5-0.4,0.9-0.4h12.9c0.3,0,0.6,0.1,0.9,0.4
		c0.2,0.2,0.4,0.6,0.4,0.9v9.2h-5.5c-0.1,0-0.1,0-0.2,0.1l-0.3,0.3c-0.2,0.3-0.6,0.4-0.9,0.4H8.2c-0.4,0-0.7-0.1-0.9-0.4L7,16
		c0-0.1-0.1-0.1-0.2-0.1H1.3V6.7z M17.5,17.3c0,0.7-0.6,1.3-1.3,1.2H1.8c-0.7,0-1.3-0.6-1.3-1.2v-0.9h6.2l0.2,0.2
		c0.3,0.4,0.8,0.6,1.3,0.6h1.6c0.5,0,1-0.2,1.3-0.6l0.2-0.2h6.2V17.3z"/>
	<path class="st0" d="M6,12.8h1.3c0.1,0,0.3-0.1,0.3-0.3v-2.2c0-0.1-0.1-0.2-0.3-0.2H6.8V9.7c0-1.1,1-2.1,2.2-2.1
		c1.2,0,2.2,0.9,2.2,2.1v0.4h-0.4c-0.1,0-0.1,0-0.2,0.1c0,0-0.1,0.1-0.1,0.2v2.2c0,0.1,0.1,0.3,0.2,0.3h0.3v0.4c0,0.1,0,0.1-0.1,0.2
		c-0.1,0.1-0.1,0.1-0.2,0.1h-0.7C10.1,13.2,9.8,13,9.5,13c-0.4,0-0.7,0.3-0.7,0.7s0.3,0.7,0.7,0.7c0.3,0,0.6-0.2,0.7-0.5h0.7
		c0.2,0,0.4-0.1,0.5-0.2c0.1-0.1,0.2-0.3,0.2-0.5v-0.4H12c0.1,0,0.2-0.1,0.2-0.3v-2.2c0-0.1,0-0.1-0.1-0.2c0,0-0.1-0.1-0.2-0.1h-0.3
		V9.7c0-1.4-1.2-2.6-2.7-2.6c-1.5,0-2.7,1.2-2.7,2.6v0.4H6c-0.1,0-0.1,0-0.2,0.1c0,0-0.1,0.1-0.1,0.2v2.2C5.7,12.7,5.8,12.8,6,12.8z
		 M9.5,13.9c-0.1,0-0.2-0.1-0.2-0.2c0-0.1,0.1-0.2,0.2-0.2s0.2,0.1,0.2,0.2C9.7,13.8,9.6,13.9,9.5,13.9z M11.8,12.3h-0.7v-1.7h0.7
		V12.3z M6.2,10.6H7v1.7H6.2V10.6z"/>
	<g>
		<g>
			<path class="st0" d="M10.4,9.3l-0.2,0c0-0.1-0.1-0.2-0.1-0.2l0.1-0.2c0-0.1,0-0.1,0-0.2L10,8.3c0,0-0.1-0.1-0.2,0L9.6,8.5
				c-0.1,0-0.2-0.1-0.2-0.1l0-0.2C9.3,8.1,9.3,8,9.2,8H8.8C8.7,8,8.7,8.1,8.7,8.2l0,0.2c-0.1,0-0.2,0.1-0.2,0.1L8.2,8.3
				c-0.1,0-0.1,0-0.2,0L7.7,8.6c0,0-0.1,0.1,0,0.2L7.9,9c0,0.1-0.1,0.2-0.1,0.2l-0.2,0c-0.1,0-0.1,0.1-0.1,0.1v0.4
				c0,0.1,0.1,0.1,0.1,0.1l0.2,0c0,0.1,0.1,0.2,0.1,0.2l-0.1,0.2c0,0.1,0,0.1,0,0.2L8,10.9c0,0,0.1,0.1,0.2,0l0.2-0.1
				c0.1,0,0.2,0.1,0.2,0.1l0,0.2c0,0.1,0.1,0.1,0.1,0.1h0.4c0.1,0,0.1-0.1,0.1-0.1l0-0.2c0.1,0,0.2-0.1,0.2-0.1l0.2,0.1
				c0.1,0,0.1,0,0.2,0l0.3-0.3c0,0,0.1-0.1,0-0.2l-0.1-0.2c0-0.1,0.1-0.2,0.1-0.2l0.2,0c0.1,0,0.1-0.1,0.1-0.1V9.4
				C10.6,9.3,10.5,9.3,10.4,9.3z M10.3,9.7l-0.2,0c-0.1,0-0.1,0-0.1,0.1c0,0.1-0.1,0.2-0.1,0.3c0,0,0,0.1,0,0.2l0.1,0.1l-0.1,0.1
				l-0.1-0.1c0,0-0.1,0-0.2,0c-0.1,0.1-0.2,0.1-0.3,0.1c-0.1,0-0.1,0.1-0.1,0.1l0,0.2H8.9l0-0.2c0-0.1,0-0.1-0.1-0.1
				c-0.1,0-0.2-0.1-0.3-0.1c0,0-0.1,0-0.2,0l-0.1,0.1L8,10.5l0.1-0.1c0,0,0-0.1,0-0.2C8.1,10,8,9.9,8,9.8C8,9.8,8,9.7,7.9,9.7
				l-0.2,0V9.5l0.2,0C8,9.5,8,9.4,8,9.4c0-0.1,0.1-0.2,0.1-0.3c0,0,0-0.1,0-0.2L8,8.7l0.1-0.1l0.1,0.1c0,0,0.1,0,0.2,0
				c0.1-0.1,0.2-0.1,0.3-0.1c0.1,0,0.1-0.1,0.1-0.1l0-0.2h0.2l0,0.2c0,0.1,0,0.1,0.1,0.1c0.1,0,0.2,0.1,0.3,0.1c0,0,0.1,0,0.2,0
				l0.1-0.1L10,8.7L9.9,8.9c0,0,0,0.1,0,0.2C9.9,9.2,10,9.3,10,9.4c0,0.1,0.1,0.1,0.1,0.1l0.2,0L10.3,9.7z"/>
		</g>
		<path class="st0" d="M9,8.8c-0.4,0-0.8,0.3-0.8,0.8c0,0.4,0.3,0.8,0.8,0.8c0.4,0,0.8-0.3,0.8-0.8C9.8,9.2,9.4,8.8,9,8.8z M9,10.1
			c-0.3,0-0.5-0.2-0.5-0.5c0-0.3,0.2-0.5,0.5-0.5c0.3,0,0.5,0.2,0.5,0.5C9.5,9.9,9.3,10.1,9,10.1z"/>
	</g>
</g>
</svg>
