<?xml version="1.0" encoding="utf-8"?>
<!-- Generator: Adobe Illustrator 24.0.2, SVG Export Plug-In . SVG Version: 6.00 Build 0)  -->
<svg version="1.1" id="Layer_1" xmlns="http://www.w3.org/2000/svg" xmlns:xlink="http://www.w3.org/1999/xlink" x="0px" y="0px"
	 viewBox="0 0 18 24" style="enable-background:new 0 0 18 24;" xml:space="preserve">
<style type="text/css">
	.st0{fill:#FC6A55;}
	.st1{stroke:#FFFFFF;stroke-width:0.25;stroke-miterlimit:10;}
	.st2{fill:#656D7A;}
	.st3{fill:#FFFFFF;}
	.st4{filter:url(#Adobe_OpacityMaskFilter);}
	.st5{fill-rule:evenodd;clip-rule:evenodd;fill:#FFFFFF;}
	.st6{mask:url(#mask-2_8_);fill-rule:evenodd;clip-rule:evenodd;}
	.st7{filter:url(#Adobe_OpacityMaskFilter_1_);}
	.st8{mask:url(#mask-2_7_);fill-rule:evenodd;clip-rule:evenodd;}
	.st9{filter:url(#Adobe_OpacityMaskFilter_2_);}
	.st10{mask:url(#mask-2_6_);fill-rule:evenodd;clip-rule:evenodd;}
	.st11{filter:url(#Adobe_OpacityMaskFilter_3_);}
	.st12{mask:url(#mask-2_5_);fill-rule:evenodd;clip-rule:evenodd;}
	.st13{filter:url(#Adobe_OpacityMaskFilter_4_);}
	.st14{mask:url(#mask-2_2_);fill:none;stroke:#000000;stroke-width:2;}
	.st15{fill:#434343;}
	.st16{fill:#434343;stroke:#F9F9F9;stroke-width:0.25;stroke-miterlimit:10;}
	.st17{fill:none;stroke:#FC6A55;stroke-width:0.5;stroke-miterlimit:10;}
	.st18{fill:none;stroke:#FC6A55;stroke-width:0.75;stroke-miterlimit:10;}
	.st19{fill:#FC6A55;stroke:#FC6A55;stroke-width:0.5;stroke-miterlimit:10;}
	.st20{opacity:0.153;fill:url(#Path_144_);enable-background:new    ;}
	.st21{opacity:0.1;fill:#590BB2;enable-background:new    ;}
	.st22{fill:#8E8CA8;}
	.st23{fill:#F5F4F9;}
	.st24{fill:#FFD5B8;}
	.st25{fill:#FC8473;}
	.st26{fill:#1C3475;}
	.st27{fill:#DDD9E4;}
	.st28{fill:#828FB3;}
	.st29{opacity:7.584635e-02;fill:url(#Path_145_);enable-background:new    ;}
	.st30{fill:#FFBE92;}
	.st31{fill:#FB8E7F;}
	.st32{fill:#FDB1A6;}
	.st33{fill:#FC806F;}
	.st34{fill:#FFE783;}
	.st35{fill:#104478;}
	.st36{fill:none;stroke:#FFFFFF;stroke-miterlimit:10;}
	.st37{fill:none;stroke:#FC6A55;stroke-miterlimit:10;}
	.st38{fill:none;stroke:#000000;stroke-width:0.15;stroke-miterlimit:10;}
</style>
<g>
	<g>
		<g>
			<path class="st0" d="M9.9,19.3H8.1c-0.2,0-0.4,0.2-0.4,0.4S7.9,20,8.1,20h1.9c0.2,0,0.4-0.2,0.4-0.4
				C10.3,19.5,10.1,19.3,9.9,19.3z"/>
		</g>
	</g>
	<g>
		<g>
			<path class="st0" d="M17.6,18.3h-0.4V9.4c0-0.7-0.5-1.3-1.2-1.3h-1.3V3.4c0-0.1-0.1-0.3-0.2-0.3c-0.1-0.1-0.3,0-0.4,0.1l-0.8,0.8
				l-0.8-0.8C12.4,3,12.3,3,12.2,3S12,3,12,3.1l-0.8,0.8l-0.8-0.8C10.2,3,10.2,3,10.1,3S9.9,3,9.8,3.1L9,3.9L8.2,3.1
				C8.1,3,8,3,7.9,3C7.8,3,7.7,3,7.7,3.1L6.9,3.9L6,3.1C6,3,5.9,3,5.8,3C5.7,3,5.6,3,5.5,3.1L4.7,3.9L3.9,3.1C3.8,3,3.5,3,3.4,3.1
				C3.3,3.2,3.3,3.3,3.3,3.4v4.8H2c-0.7,0-1.2,0.6-1.2,1.3v8.9H0.4c-0.2,0-0.4,0.2-0.4,0.4v0.6C0,20.2,0.8,21,1.7,21h14.6
				c0.9,0,1.7-0.8,1.7-1.7v-0.6C18,18.5,17.8,18.3,17.6,18.3z M4,4.2l0.5,0.5c0.1,0.1,0.2,0.1,0.2,0.1c0.1,0,0.2,0,0.2-0.1l0.8-0.8
				l0.8,0.8c0.1,0.1,0.2,0.1,0.2,0.1s0.2,0,0.2-0.1l0.8-0.8l0.8,0.8c0.1,0.1,0.4,0.1,0.5,0l0.8-0.8l0.8,0.8C11,4.7,11,4.8,11.1,4.8
				s0.2,0,0.2-0.1l0.8-0.8L13,4.7c0.1,0.1,0.2,0.1,0.2,0.1c0.1,0,0.2,0,0.2-0.1L14,4.2v11.3H4V4.2z M3.7,16.2h10.7l0,0
				c0.2,0,0.4-0.2,0.4-0.4v-0.9h0.4c0.2,0,0.3,0.1,0.3,0.3v1.3c0,0.2-0.1,0.3-0.3,0.3H2.9c-0.2,0-0.3-0.1-0.3-0.3v-1.3
				c0-0.2,0.1-0.3,0.3-0.3h0.4v0.9C3.3,16,3.5,16.2,3.7,16.2z M2,8.8h1.3v5.4H2.9c-0.5,0-1,0.4-1,1v1.3c0,0.5,0.4,1,1,1h12.3
				c0.5,0,1-0.4,1-1v-1.3c0-0.5-0.4-1-1-1h-0.4V8.8H16c0.3,0,0.5,0.2,0.5,0.5v8.9h-15V9.4l0,0C1.5,9.1,1.7,8.8,2,8.8z M17.3,19.3
				c0,0.6-0.5,1-1,1H1.7c-0.6,0-1-0.5-1-1V19h16.6L17.3,19.3L17.3,19.3z"/>
		</g>
	</g>
	<g>
		<g>
			<path class="st0" d="M9,7.8c-0.3,0-0.5-0.2-0.5-0.4C8.5,7.2,8.7,7,9,7c0.3,0,0.5,0.2,0.5,0.4c0,0.2,0.2,0.4,0.4,0.4
				c0.2,0,0.4-0.2,0.4-0.4c0-0.5-0.4-0.9-0.8-1.1V6.1C9.3,6,9.2,5.8,9,5.8C8.8,5.8,8.6,6,8.6,6.1v0.2C8.2,6.5,7.8,6.9,7.8,7.4
				C7.8,8,8.3,8.5,9,8.5c0.3,0,0.5,0.2,0.5,0.4c0,0.2-0.2,0.4-0.5,0.4c-0.3,0-0.5-0.2-0.5-0.4c0-0.2-0.2-0.4-0.4-0.4
				C8,8.6,7.8,8.7,7.8,8.9c0,0.5,0.4,0.9,0.8,1.1v0.2c0,0.2,0.2,0.4,0.4,0.4c0.2,0,0.4-0.2,0.4-0.4V10c0.5-0.1,0.8-0.6,0.8-1.1
				C10.2,8.3,9.7,7.8,9,7.8z"/>
		</g>
	</g>
	<g>
		<g>
			<path class="st0" d="M12,7.8h-0.6c-0.2,0-0.4,0.2-0.4,0.4c0,0.2,0.2,0.4,0.4,0.4H12c0.2,0,0.4-0.2,0.4-0.4
				C12.4,8,12.2,7.8,12,7.8z"/>
		</g>
	</g>
	<g>
		<g>
			<path class="st0" d="M6.6,7.8H6C5.8,7.8,5.6,8,5.6,8.1c0,0.2,0.2,0.4,0.4,0.4h0.6c0.2,0,0.4-0.2,0.4-0.4C6.9,8,6.7,7.8,6.6,7.8z"
				/>
		</g>
	</g>
	<g>
		<g>
			<path class="st0" d="M12.1,11.2H7.4c-0.2,0-0.4,0.2-0.4,0.4s0.2,0.4,0.4,0.4h4.7c0.2,0,0.4-0.2,0.4-0.4
				C12.5,11.3,12.3,11.2,12.1,11.2z"/>
		</g>
	</g>
	<g>
		<g>
			<path class="st0" d="M6.1,11.3c-0.1-0.1-0.2-0.1-0.2-0.1c-0.1,0-0.2,0-0.2,0.1c-0.1,0.1-0.1,0.2-0.1,0.2s0,0.2,0.1,0.2
				c0.1,0.1,0.2,0.1,0.2,0.1c0.1,0,0.2,0,0.2-0.1c0.1-0.1,0.1-0.2,0.1-0.2S6.2,11.3,6.1,11.3z"/>
		</g>
	</g>
	<g>
		<g>
			<path class="st0" d="M12.1,13.1H7.4c-0.2,0-0.4,0.2-0.4,0.4s0.2,0.4,0.4,0.4h4.7c0.2,0,0.4-0.2,0.4-0.4
				C12.5,13.3,12.3,13.1,12.1,13.1z"/>
		</g>
	</g>
	<g>
		<g>
			<path class="st0" d="M6.1,13.2c-0.1-0.1-0.2-0.1-0.2-0.1c-0.1,0-0.2,0-0.2,0.1c-0.1,0.1-0.1,0.2-0.1,0.2s0,0.2,0.1,0.2
				c0.1,0.1,0.2,0.1,0.2,0.1c0.1,0,0.2,0,0.2-0.1c0.1-0.1,0.1-0.2,0.1-0.2S6.2,13.3,6.1,13.2z"/>
		</g>
	</g>
</g>
</svg>
