<?xml version="1.0" encoding="utf-8"?>
<!-- Generator: Adobe Illustrator 24.0.2, SVG Export Plug-In . SVG Version: 6.00 Build 0)  -->
<svg version="1.1" id="Layer_1" xmlns="http://www.w3.org/2000/svg" xmlns:xlink="http://www.w3.org/1999/xlink" x="0px" y="0px"
	 viewBox="0 0 18 24" style="enable-background:new 0 0 18 24;" xml:space="preserve">
<style type="text/css">
	.st0{fill:#FC6A55;}
	.st1{stroke:#FFFFFF;stroke-width:0.25;stroke-miterlimit:10;}
	.st2{fill:#656D7A;}
	.st3{fill:#FFFFFF;}
	.st4{filter:url(#Adobe_OpacityMaskFilter);}
	.st5{fill-rule:evenodd;clip-rule:evenodd;fill:#FFFFFF;}
	.st6{mask:url(#mask-2_8_);fill-rule:evenodd;clip-rule:evenodd;}
	.st7{filter:url(#Adobe_OpacityMaskFilter_1_);}
	.st8{mask:url(#mask-2_7_);fill-rule:evenodd;clip-rule:evenodd;}
	.st9{filter:url(#Adobe_OpacityMaskFilter_2_);}
	.st10{mask:url(#mask-2_6_);fill-rule:evenodd;clip-rule:evenodd;}
	.st11{filter:url(#Adobe_OpacityMaskFilter_3_);}
	.st12{mask:url(#mask-2_5_);fill-rule:evenodd;clip-rule:evenodd;}
	.st13{filter:url(#Adobe_OpacityMaskFilter_4_);}
	.st14{mask:url(#mask-2_2_);fill:none;stroke:#000000;stroke-width:2;}
	.st15{fill:#434343;}
	.st16{fill:#434343;stroke:#F9F9F9;stroke-width:0.25;stroke-miterlimit:10;}
	.st17{fill:none;stroke:#FC6A55;stroke-width:0.5;stroke-miterlimit:10;}
	.st18{fill:none;stroke:#FC6A55;stroke-width:0.75;stroke-miterlimit:10;}
	.st19{fill:#FC6A55;stroke:#FC6A55;stroke-width:0.5;stroke-miterlimit:10;}
	.st20{opacity:0.153;fill:url(#Path_144_);enable-background:new    ;}
	.st21{opacity:0.1;fill:#590BB2;enable-background:new    ;}
	.st22{fill:#8E8CA8;}
	.st23{fill:#F5F4F9;}
	.st24{fill:#FFD5B8;}
	.st25{fill:#FC8473;}
	.st26{fill:#1C3475;}
	.st27{fill:#DDD9E4;}
	.st28{fill:#828FB3;}
	.st29{opacity:7.584635e-02;fill:url(#Path_145_);enable-background:new    ;}
	.st30{fill:#FFBE92;}
	.st31{fill:#FB8E7F;}
	.st32{fill:#FDB1A6;}
	.st33{fill:#FC806F;}
	.st34{fill:#FFE783;}
	.st35{fill:#104478;}
	.st36{fill:none;stroke:#FFFFFF;stroke-miterlimit:10;}
	.st37{fill:none;stroke:#FC6A55;stroke-miterlimit:10;}
	.st38{fill:none;stroke:#000000;stroke-width:0.15;stroke-miterlimit:10;}
</style>
<g>
	<path class="st0" d="M15.4,9.4h1.7C17.6,9.4,18,9,18,8.5V3.9C18,3.4,17.6,3,17.1,3H9.6C9.1,3,8.7,3.4,8.7,3.9v2.3H7.9L7.7,7
		C7.2,7.1,6.8,7.2,6.4,7.5L5.8,7.2V3H0v6.4h4.5C4.2,9.8,4.1,10.2,4,10.7l-0.8,0.3v2H0.9c-0.5,0-0.9,0.4-0.9,0.9v4.6
		c0,0.5,0.4,0.9,0.9,0.9h1.7v0c0,0.4-0.1,0.8-0.4,1.1H1.5V21h6.4v-0.6H7.1c-0.3-0.3-0.4-0.7-0.4-1.1v0h1.7c0.5,0,0.9-0.4,0.9-0.9
		v-0.6h0.8l0.3-0.8c0.5-0.1,0.9-0.3,1.3-0.5l0.6,0.3V21H18v-6.4h-4.5c0.2-0.4,0.4-0.8,0.5-1.3l0.8-0.3v-2h1.7v-0.6h-0.7
		C15.5,10.2,15.4,9.9,15.4,9.4L15.4,9.4z M17.1,8.8H9.6c-0.2,0-0.3-0.1-0.3-0.3V7.6h8.1v0.9C17.4,8.7,17.3,8.8,17.1,8.8z M10.9,10.5
		h-0.7v0.6h2.2c0.1,0.3,0.1,0.6,0.1,0.9c0,1.8-1.4,3.3-3.2,3.5v-1.7c0-0.5-0.4-0.9-0.9-0.9H5.6c-0.1-0.3-0.1-0.6-0.1-0.9
		c0-1.8,1.4-3.3,3.2-3.5c0,0.5,0.4,0.9,0.9,0.9h1.7v0C11.3,9.9,11.2,10.2,10.9,10.5z M9.6,3.6h7.5c0.2,0,0.3,0.1,0.3,0.3v3.2H9.3
		V3.9C9.3,3.7,9.4,3.6,9.6,3.6z M0.6,3.6h4.6v4L4.6,8.1V6.5H1.2v1.7h3.4L4.1,8.7l0.1,0.1H0.6L0.6,3.6z M4.1,7.1v0.6H1.7V7.1H4.1z
		 M3.8,11.3l0.7-0.2l0-0.2c0.1-0.5,0.3-1,0.6-1.4l0.1-0.1L4.8,8.8l0.9-0.9l0.6,0.3l0.1-0.1C7,7.8,7.5,7.6,8,7.5l0.2,0l0.2-0.7h0.4V8
		c-2.1,0.1-3.8,1.9-3.8,4c0,0.3,0,0.6,0.1,0.9H3.8V11.3z M0.9,13.5h7.5c0.2,0,0.3,0.1,0.3,0.3v3.2H0.6v-3.2
		C0.6,13.6,0.7,13.5,0.9,13.5z M6.4,20.4H2.9c0.2-0.3,0.3-0.7,0.3-1.1v0h2.9v0C6.1,19.7,6.2,20.1,6.4,20.4z M8.4,18.7H0.9
		c-0.2,0-0.3-0.1-0.3-0.3v-0.9h8.1v0.9C8.7,18.5,8.6,18.7,8.4,18.7z M17.4,20.4h-4.6v-4l0.6-0.6v1.7h3.5v-1.7h-3.4l0.4-0.4l-0.1-0.1
		h3.6V20.4z M13.9,16.9v-0.6h2.3v0.6H13.9z M14.2,12.7l-0.7,0.2l0,0.2c-0.1,0.5-0.3,1-0.6,1.4l-0.1,0.1l0.3,0.6l-0.9,0.9l-0.6-0.3
		l-0.1,0.1c-0.4,0.3-0.9,0.5-1.4,0.6l-0.2,0l-0.2,0.7H9.3V16c2.1-0.1,3.8-1.9,3.8-4c0-0.3,0-0.6-0.1-0.9h1.3V12.7z M11.6,10.5
		c0.2-0.3,0.3-0.7,0.3-1.1v0h2.9v0c0,0.4,0.1,0.8,0.3,1.1H11.6z"/>
	<path class="st0" d="M13.4,18.1h3.5v0.6h-3.5V18.1z"/>
	<path class="st0" d="M13.4,19.3h0.6v0.6h-0.6V19.3z"/>
	<path class="st0" d="M14.5,19.3h2.3v0.6h-2.3V19.3z"/>
	<path class="st0" d="M1.2,5.3h3.5v0.6H1.2V5.3z"/>
	<path class="st0" d="M4.1,4.2h0.6v0.6H4.1V4.2z"/>
	<path class="st0" d="M1.2,4.2h2.3v0.6H1.2V4.2z"/>
	<path class="st0" d="M11.9,12.3c0-0.1,0-0.2,0-0.3c0-0.1,0-0.2,0-0.3l-0.6,0.1c0,0.1,0,0.2,0,0.3c0,0.1,0,0.2,0,0.3L11.9,12.3z"/>
	<path class="st0" d="M11.7,12.9l-0.5-0.2c-0.1,0.2-0.1,0.3-0.2,0.5l0.5,0.3C11.6,13.3,11.7,13.2,11.7,12.9L11.7,12.9z"/>
	<path class="st0" d="M11.1,14l-0.4-0.4c-0.1,0.1-0.2,0.2-0.4,0.3l0.3,0.5C10.8,14.3,10.9,14.2,11.1,14z"/>
</g>
</svg>
