<?xml version="1.0" encoding="utf-8"?>
<!-- Generator: Adobe Illustrator 24.0.2, SVG Export Plug-In . SVG Version: 6.00 Build 0)  -->
<svg version="1.1" id="Layer_1" xmlns="http://www.w3.org/2000/svg" xmlns:xlink="http://www.w3.org/1999/xlink" x="0px" y="0px"
	 viewBox="0 0 18 24" style="enable-background:new 0 0 18 24;" xml:space="preserve">
<style type="text/css">
	.st0{fill:#FC6A55;}
	.st1{stroke:#FFFFFF;stroke-width:0.25;stroke-miterlimit:10;}
	.st2{fill:#656D7A;}
	.st3{fill:#FFFFFF;}
	.st4{filter:url(#Adobe_OpacityMaskFilter);}
	.st5{fill-rule:evenodd;clip-rule:evenodd;fill:#FFFFFF;}
	.st6{mask:url(#mask-2_8_);fill-rule:evenodd;clip-rule:evenodd;}
	.st7{filter:url(#Adobe_OpacityMaskFilter_1_);}
	.st8{mask:url(#mask-2_7_);fill-rule:evenodd;clip-rule:evenodd;}
	.st9{filter:url(#Adobe_OpacityMaskFilter_2_);}
	.st10{mask:url(#mask-2_6_);fill-rule:evenodd;clip-rule:evenodd;}
	.st11{filter:url(#Adobe_OpacityMaskFilter_3_);}
	.st12{mask:url(#mask-2_5_);fill-rule:evenodd;clip-rule:evenodd;}
	.st13{filter:url(#Adobe_OpacityMaskFilter_4_);}
	.st14{mask:url(#mask-2_2_);fill:none;stroke:#000000;stroke-width:2;}
	.st15{fill:#434343;}
	.st16{fill:#434343;stroke:#F9F9F9;stroke-width:0.25;stroke-miterlimit:10;}
	.st17{fill:none;stroke:#FC6A55;stroke-width:0.5;stroke-miterlimit:10;}
	.st18{fill:none;stroke:#FC6A55;stroke-width:0.75;stroke-miterlimit:10;}
	.st19{fill:#FC6A55;stroke:#FC6A55;stroke-width:0.5;stroke-miterlimit:10;}
	.st20{opacity:0.153;fill:url(#Path_144_);enable-background:new    ;}
	.st21{opacity:0.1;fill:#590BB2;enable-background:new    ;}
	.st22{fill:#8E8CA8;}
	.st23{fill:#F5F4F9;}
	.st24{fill:#FFD5B8;}
	.st25{fill:#FC8473;}
	.st26{fill:#1C3475;}
	.st27{fill:#DDD9E4;}
	.st28{fill:#828FB3;}
	.st29{opacity:7.584635e-02;fill:url(#Path_145_);enable-background:new    ;}
	.st30{fill:#FFBE92;}
	.st31{fill:#FB8E7F;}
	.st32{fill:#FDB1A6;}
	.st33{fill:#FC806F;}
	.st34{fill:#FFE783;}
	.st35{fill:#104478;}
	.st36{fill:none;stroke:#FFFFFF;stroke-miterlimit:10;}
	.st37{fill:none;stroke:#FC6A55;stroke-miterlimit:10;}
	.st38{fill:none;stroke:#000000;stroke-width:0.15;stroke-miterlimit:10;}
</style>
<g>
	<path class="st0" d="M1.9,4C1.5,4,1.2,4.4,1.2,4.8c0,0.4,0.3,0.8,0.8,0.8s0.8-0.3,0.8-0.8C2.7,4.4,2.4,4,1.9,4z M1.9,5
		C1.8,5,1.7,4.9,1.7,4.8c0-0.1,0.1-0.2,0.2-0.2c0.1,0,0.2,0.1,0.2,0.2C2.2,4.9,2.1,5,1.9,5z"/>
	<path class="st0" d="M3.9,4C3.5,4,3.1,4.4,3.1,4.8c0,0.4,0.3,0.8,0.8,0.8s0.8-0.3,0.8-0.8C4.7,4.4,4.3,4,3.9,4z M3.9,5
		C3.8,5,3.7,4.9,3.7,4.8c0-0.1,0.1-0.2,0.2-0.2c0.1,0,0.2,0.1,0.2,0.2C4.2,4.9,4,5,3.9,5z"/>
	<path class="st0" d="M5.9,4C5.5,4,5.1,4.4,5.1,4.8c0,0.4,0.3,0.8,0.8,0.8s0.8-0.3,0.8-0.8C6.7,4.4,6.3,4,5.9,4z M5.9,5
		C5.7,5,5.6,4.9,5.6,4.8c0-0.1,0.1-0.2,0.2-0.2c0.1,0,0.2,0.1,0.2,0.2C6.1,4.9,6,5,5.9,5z"/>
	<path class="st0" d="M17.7,8.2c0.1,0,0.3-0.1,0.3-0.3l0-3.8C18,3.5,17.5,3,16.8,3H1.2C0.5,3,0,3.5,0,4.2v12.7c0,0.6,0.4,1.1,1,1.1
		c0.1,0,0.1,0,0.2,0h5.1V19H5.5c-0.5,0-1,0.4-1,1v0.6C4.5,20.8,4.7,21,5,21h1.3c0.1,0,0.3-0.1,0.3-0.3c0-0.1-0.1-0.3-0.3-0.3H5.1V20
		c0-0.2,0.2-0.4,0.4-0.4h7c0.2,0,0.4,0.2,0.4,0.4v0.5H7.9c-0.1,0-0.3,0.1-0.3,0.3c0,0.1,0.1,0.3,0.3,0.3H13c0.2,0,0.4-0.2,0.4-0.4
		V20c0-0.5-0.4-1-1-1h-0.8v-0.9h5.1c0.1,0,0.1,0,0.2,0c0.6-0.1,1-0.6,1-1.1V9.6c0-0.1-0.1-0.3-0.3-0.3c-0.1,0-0.3,0.1-0.3,0.3v5.8
		H9.2V6.6h8.2v1.3C17.5,8.1,17.6,8.2,17.7,8.2z M0.5,6.6h8.1v8.8H0.5V6.6z M11.2,19H6.8v-0.9h4.4V19z M17.5,15.9v1
		c0,0.3-0.2,0.6-0.6,0.6c0,0,0,0-0.1,0H1.2c0,0,0,0-0.1,0c-0.3,0-0.6-0.3-0.6-0.6v-1H17.5z M9,6.1H0.5V4.2c0-0.3,0.3-0.6,0.6-0.6
		h15.6c0.3,0,0.6,0.3,0.6,0.6v1.9H9z"/>
	<path class="st0" d="M1.6,7.6H3c0.1,0,0.3-0.1,0.3-0.3c0-0.1-0.1-0.3-0.3-0.3H1.6c-0.1,0-0.3,0.1-0.3,0.3C1.4,7.5,1.5,7.6,1.6,7.6z
		"/>
	<path class="st0" d="M3.9,7.6h0.6c0.1,0,0.3-0.1,0.3-0.3c0-0.1-0.1-0.3-0.3-0.3H3.9c-0.1,0-0.3,0.1-0.3,0.3
		C3.6,7.5,3.8,7.6,3.9,7.6z"/>
	<path class="st0" d="M3.7,8H2.8C2.6,8,2.5,8.2,2.5,8.3c0,0.1,0.1,0.3,0.3,0.3h0.9c0.1,0,0.3-0.1,0.3-0.3C3.9,8.2,3.8,8,3.7,8z"/>
	<path class="st0" d="M7.8,9H6.9C6.8,9,6.7,9.1,6.7,9.3s0.1,0.3,0.3,0.3h0.9c0.1,0,0.3-0.1,0.3-0.3S7.9,9,7.8,9z"/>
	<path class="st0" d="M4.2,8.3c0,0.1,0.1,0.3,0.3,0.3h2.1c0.1,0,0.3-0.1,0.3-0.3C6.8,8.2,6.7,8,6.6,8H4.5C4.3,8,4.2,8.2,4.2,8.3z"/>
	<path class="st0" d="M3.4,9.3c0,0.1,0.1,0.3,0.3,0.3h0.5c0.1,0,0.3-0.1,0.3-0.3S4.2,9,4.1,9H3.6C3.5,9,3.4,9.1,3.4,9.3z"/>
	<path class="st0" d="M6.1,9.5c0.1,0,0.3-0.1,0.3-0.3S6.3,9,6.1,9H4.8C4.7,9,4.6,9.1,4.6,9.3s0.1,0.3,0.3,0.3H6.1z"/>
	<path class="st0" d="M3.2,12.7c0-0.1-0.1-0.3-0.3-0.3H1.6c-0.1,0-0.3,0.1-0.3,0.3c0,0.1,0.1,0.3,0.3,0.3H3
		C3.1,13,3.2,12.8,3.2,12.7z"/>
	<path class="st0" d="M3.9,12.4c-0.1,0-0.3,0.1-0.3,0.3c0,0.1,0.1,0.3,0.3,0.3h0.6c0.1,0,0.3-0.1,0.3-0.3c0-0.1-0.1-0.3-0.3-0.3H3.9
		z"/>
	<path class="st0" d="M3.9,13.6c0-0.1-0.1-0.3-0.3-0.3H2.8c-0.1,0-0.3,0.1-0.3,0.3c0,0.1,0.1,0.3,0.3,0.3h0.9
		C3.8,13.9,3.9,13.8,3.9,13.6z"/>
	<path class="st0" d="M4.1,14.3H3.6c-0.1,0-0.3,0.1-0.3,0.3c0,0.1,0.1,0.3,0.3,0.3h0.5c0.1,0,0.3-0.1,0.3-0.3
		C4.3,14.4,4.2,14.3,4.1,14.3z"/>
	<path class="st0" d="M7.8,14.3H6.9c-0.1,0-0.3,0.1-0.3,0.3c0,0.1,0.1,0.3,0.3,0.3h0.9c0.1,0,0.3-0.1,0.3-0.3
		C8.1,14.4,7.9,14.3,7.8,14.3z"/>
	<path class="st0" d="M6.8,13.6c0-0.1-0.1-0.3-0.3-0.3H4.5c-0.1,0-0.3,0.1-0.3,0.3c0,0.1,0.1,0.3,0.3,0.3h2.1
		C6.7,13.9,6.8,13.8,6.8,13.6z"/>
	<path class="st0" d="M6.1,14.3H4.8c-0.1,0-0.3,0.1-0.3,0.3c0,0.1,0.1,0.3,0.3,0.3h1.3c0.1,0,0.3-0.1,0.3-0.3
		C6.4,14.4,6.3,14.3,6.1,14.3z"/>
	<path class="st0" d="M1.6,10.7h0.7c0.1,0,0.3-0.1,0.3-0.3c0-0.1-0.1-0.3-0.3-0.3H1.6c-0.1,0-0.3,0.1-0.3,0.3
		C1.4,10.6,1.5,10.7,1.6,10.7z"/>
	<path class="st0" d="M6.1,10.5c0-0.1-0.1-0.3-0.3-0.3H3.1c-0.1,0-0.3,0.1-0.3,0.3c0,0.1,0.1,0.3,0.3,0.3h2.7
		C6,10.7,6.1,10.6,6.1,10.5z"/>
	<path class="st0" d="M5.6,11.4c0-0.1-0.1-0.3-0.3-0.3H2.8c-0.1,0-0.3,0.1-0.3,0.3c0,0.1,0.1,0.3,0.3,0.3h2.6
		C5.5,11.7,5.6,11.6,5.6,11.4z"/>
	<path class="st0" d="M6.1,11.7h0.5c0.1,0,0.3-0.1,0.3-0.3c0-0.1-0.1-0.3-0.3-0.3H6.1c-0.1,0-0.3,0.1-0.3,0.3
		C5.8,11.6,5.9,11.7,6.1,11.7z"/>
	<path class="st0" d="M12.1,13.2h-1.7c-0.1,0-0.3,0.1-0.3,0.3c0,0.1,0.1,0.3,0.3,0.3h1.7c0.1,0,0.3-0.1,0.3-0.3
		C12.3,13.3,12.2,13.2,12.1,13.2z"/>
	<path class="st0" d="M16.3,13.2H13c-0.1,0-0.3,0.1-0.3,0.3c0,0.1,0.1,0.3,0.3,0.3h3.3c0.1,0,0.3-0.1,0.3-0.3
		C16.6,13.3,16.5,13.2,16.3,13.2z"/>
	<path class="st0" d="M12.1,14.2h-1.7c-0.1,0-0.3,0.1-0.3,0.3c0,0.1,0.1,0.3,0.3,0.3h1.7c0.1,0,0.3-0.1,0.3-0.3
		C12.3,14.3,12.2,14.2,12.1,14.2z"/>
	<path class="st0" d="M16.3,14.2H13c-0.1,0-0.3,0.1-0.3,0.3c0,0.1,0.1,0.3,0.3,0.3h3.3c0.1,0,0.3-0.1,0.3-0.3
		C16.6,14.3,16.5,14.2,16.3,14.2z"/>
	<path class="st0" d="M16.6,7.8c0-0.4-0.3-0.7-0.7-0.7h-5.2c-0.4,0-0.7,0.3-0.7,0.7v3.6v0V12c0,0.4,0.3,0.7,0.7,0.7h5.2
		c0.4,0,0.7-0.3,0.7-0.7V7.8z M16.1,12c0,0.1-0.1,0.2-0.2,0.2h-5.2c-0.1,0-0.2-0.1-0.2-0.2v-0.5l1.9-1.9l1.3,1.5
		c0.1,0.1,0.3,0.1,0.4,0c0.1-0.1,0.1-0.3,0-0.4l-0.1-0.1l0.6-0.6l1.3,1.5V12z M16.1,10.7l-1-1.1c-0.1-0.1-0.2-0.1-0.3-0.1
		c-0.1,0-0.2,0-0.3,0.1l-0.7,0.7l-0.9-1.1C12.8,9,12.7,9,12.6,9c-0.1,0-0.2,0-0.3,0.1l-1.6,1.6V7.8c0-0.1,0.1-0.2,0.2-0.2h5.2
		c0.1,0,0.2,0.1,0.2,0.2V10.7z"/>
</g>
</svg>
