<?xml version="1.0" encoding="utf-8"?>
<!-- Generator: Adobe Illustrator 24.0.2, SVG Export Plug-In . SVG Version: 6.00 Build 0)  -->
<svg version="1.1" id="Layer_1" xmlns="http://www.w3.org/2000/svg" xmlns:xlink="http://www.w3.org/1999/xlink" x="0px" y="0px"
	 viewBox="0 0 18 24" style="enable-background:new 0 0 18 24;" xml:space="preserve">
<style type="text/css">
	.st0{fill:#FC6A55;}
	.st1{stroke:#FFFFFF;stroke-width:0.25;stroke-miterlimit:10;}
	.st2{fill:#656D7A;}
	.st3{fill:#FFFFFF;}
	.st4{filter:url(#Adobe_OpacityMaskFilter);}
	.st5{fill-rule:evenodd;clip-rule:evenodd;fill:#FFFFFF;}
	.st6{mask:url(#mask-2_8_);fill-rule:evenodd;clip-rule:evenodd;}
	.st7{filter:url(#Adobe_OpacityMaskFilter_1_);}
	.st8{mask:url(#mask-2_7_);fill-rule:evenodd;clip-rule:evenodd;}
	.st9{filter:url(#Adobe_OpacityMaskFilter_2_);}
	.st10{mask:url(#mask-2_6_);fill-rule:evenodd;clip-rule:evenodd;}
	.st11{filter:url(#Adobe_OpacityMaskFilter_3_);}
	.st12{mask:url(#mask-2_5_);fill-rule:evenodd;clip-rule:evenodd;}
	.st13{filter:url(#Adobe_OpacityMaskFilter_4_);}
	.st14{mask:url(#mask-2_2_);fill:none;stroke:#000000;stroke-width:2;}
	.st15{fill:#434343;}
	.st16{fill:#434343;stroke:#F9F9F9;stroke-width:0.25;stroke-miterlimit:10;}
	.st17{fill:none;stroke:#FC6A55;stroke-width:0.5;stroke-miterlimit:10;}
	.st18{fill:none;stroke:#FC6A55;stroke-width:0.75;stroke-miterlimit:10;}
	.st19{fill:#FC6A55;stroke:#FC6A55;stroke-width:0.5;stroke-miterlimit:10;}
	.st20{opacity:0.153;fill:url(#Path_144_);enable-background:new    ;}
	.st21{opacity:0.1;fill:#590BB2;enable-background:new    ;}
	.st22{fill:#8E8CA8;}
	.st23{fill:#F5F4F9;}
	.st24{fill:#FFD5B8;}
	.st25{fill:#FC8473;}
	.st26{fill:#1C3475;}
	.st27{fill:#DDD9E4;}
	.st28{fill:#828FB3;}
	.st29{opacity:7.584635e-02;fill:url(#Path_145_);enable-background:new    ;}
	.st30{fill:#FFBE92;}
	.st31{fill:#FB8E7F;}
	.st32{fill:#FDB1A6;}
	.st33{fill:#FC806F;}
	.st34{fill:#FFE783;}
	.st35{fill:#104478;}
	.st36{fill:none;stroke:#FFFFFF;stroke-miterlimit:10;}
	.st37{fill:none;stroke:#FC6A55;stroke-miterlimit:10;}
	.st38{fill:none;stroke:#000000;stroke-width:0.15;stroke-miterlimit:10;}
</style>
<g>
	<path class="st0" d="M3.3,12.6c-0.2,0-0.5-0.1-0.6-0.3c-0.2-0.2-0.3-0.4-0.3-0.6c0-0.2,0.1-0.5,0.3-0.6l2.5-2.5
		c0.1-0.1,0.3-0.1,0.4,0l0.8,0.8c0.1,0.1,0.1,0.1,0.1,0.2c0,0.1,0,0.2-0.1,0.2l-2.5,2.5C3.7,12.5,3.5,12.6,3.3,12.6L3.3,12.6z
		 M3.1,11.9c0.1,0.1,0.3,0.1,0.4,0l2.3-2.3L5.4,9.2l-2.3,2.3C3,11.6,3,11.6,3,11.7C3,11.8,3,11.9,3.1,11.9L3.1,11.9z"/>
	<path class="st0" d="M7.1,9.1C7,9.1,6.9,9,6.9,9L6,8.1C5.9,8,5.9,7.8,6,7.7l0.8-0.8c0.4-0.4,0.9-0.4,1.3,0C8.3,7,8.4,7.2,8.4,7.5
		c0,0.2-0.1,0.5-0.3,0.6L7.3,9C7.3,9,7.2,9.1,7.1,9.1L7.1,9.1z M6.7,7.9l0.4,0.4l0.6-0.6c0.1-0.1,0.1-0.1,0.1-0.2
		c0-0.1,0-0.2-0.1-0.2c-0.1-0.1-0.3-0.1-0.4,0L6.7,7.9z"/>
	<path class="st0" d="M7.5,11.2c-0.1,0-0.2,0-0.2-0.1L3.9,7.7C3.9,7.6,3.8,7.6,3.8,7.5s0-0.2,0.1-0.2c0.6-0.6,1.5-0.6,2.1,0L7.7,9
		C8,9.2,8.2,9.6,8.2,10S8,10.8,7.7,11.1C7.7,11.1,7.6,11.2,7.5,11.2L7.5,11.2z M4.6,7.5l2.9,2.9c0.1-0.1,0.1-0.3,0.1-0.4
		c0-0.2-0.1-0.5-0.3-0.6L5.6,7.7C5.3,7.4,4.9,7.4,4.6,7.5z"/>
	<path class="st0" d="M17.7,14.7H0.3c-0.2,0-0.3-0.1-0.3-0.3V4.5c0-0.7,0.5-1.2,1.2-1.2h15.6c0.7,0,1.2,0.5,1.2,1.2v9.9
		C18,14.6,17.9,14.7,17.7,14.7z M0.6,14.1h16.8V4.5c0-0.3-0.3-0.6-0.6-0.6H1.2c-0.3,0-0.6,0.3-0.6,0.6L0.6,14.1z"/>
	<path class="st0" d="M16.8,17.1H1.2c-0.7,0-1.2-0.5-1.2-1.2v-1.5c0-0.2,0.1-0.3,0.3-0.3h17.4c0.2,0,0.3,0.1,0.3,0.3v1.5
		C18,16.6,17.5,17.1,16.8,17.1z M0.6,14.7v1.2c0,0.3,0.3,0.6,0.6,0.6h15.6c0.3,0,0.6-0.3,0.6-0.6v-1.2H0.6z"/>
	<path class="st0" d="M9.9,15.9H8.1c-0.2,0-0.3-0.1-0.3-0.3c0-0.2,0.1-0.3,0.3-0.3h1.8c0.2,0,0.3,0.1,0.3,0.3
		C10.2,15.8,10.1,15.9,9.9,15.9z"/>
	<path class="st0" d="M16.5,14.7h-15c-0.2,0-0.3-0.1-0.3-0.3V4.8c0-0.2,0.1-0.3,0.3-0.3h15c0.2,0,0.3,0.1,0.3,0.3v9.6
		C16.8,14.6,16.7,14.7,16.5,14.7z M1.8,14.1h14.4v-9H1.8V14.1z"/>
	<path class="st0" d="M12.9,20.7H5.1c-0.5,0-0.9-0.4-0.9-0.9c0-0.5,0.4-0.9,0.9-0.9h7.8c0.5,0,0.9,0.4,0.9,0.9
		C13.8,20.3,13.4,20.7,12.9,20.7z M5.1,19.5c-0.2,0-0.3,0.1-0.3,0.3c0,0.2,0.1,0.3,0.3,0.3h7.8c0.2,0,0.3-0.1,0.3-0.3
		c0-0.2-0.1-0.3-0.3-0.3H5.1z"/>
	<path class="st0" d="M12.3,19.5H5.7c-0.2,0-0.3-0.1-0.3-0.3c0-0.2,0.1-0.3,0.3-0.3c1,0,1.5-0.7,1.5-2.1c0-0.2,0.1-0.3,0.3-0.3h3
		c0.2,0,0.3,0.1,0.3,0.3c0,1.4,0.5,2.1,1.5,2.1c0.2,0,0.3,0.1,0.3,0.3C12.6,19.4,12.5,19.5,12.3,19.5z M7.2,18.9h3.7
		c-0.4-0.4-0.6-1-0.6-1.8H7.8C7.7,17.9,7.5,18.5,7.2,18.9z"/>
	<path class="st0" d="M9,14.7H1.5c-0.2,0-0.3-0.1-0.3-0.3V4.8c0-0.2,0.1-0.3,0.3-0.3H9c0.2,0,0.3,0.1,0.3,0.3v9.6
		C9.3,14.6,9.2,14.7,9,14.7z M1.8,14.1h6.9v-9H1.8V14.1z"/>
	<path class="st0" d="M13.2,6.3h-3C10,6.3,9.9,6.2,9.9,6s0.1-0.3,0.3-0.3h3c0.2,0,0.3,0.1,0.3,0.3S13.4,6.3,13.2,6.3z"/>
	<path class="st0" d="M15.3,6.3h-0.9c-0.2,0-0.3-0.1-0.3-0.3s0.1-0.3,0.3-0.3h0.9c0.2,0,0.3,0.1,0.3,0.3S15.5,6.3,15.3,6.3z"/>
	<path class="st0" d="M15.3,7.5h-3c-0.2,0-0.3-0.1-0.3-0.3c0-0.2,0.1-0.3,0.3-0.3h3c0.2,0,0.3,0.1,0.3,0.3
		C15.6,7.4,15.5,7.5,15.3,7.5z"/>
	<path class="st0" d="M11.1,7.5h-0.9c-0.2,0-0.3-0.1-0.3-0.3c0-0.2,0.1-0.3,0.3-0.3h0.9c0.2,0,0.3,0.1,0.3,0.3
		C11.4,7.4,11.3,7.5,11.1,7.5z"/>
	<path class="st0" d="M13.2,8.7h-3c-0.2,0-0.3-0.1-0.3-0.3c0-0.2,0.1-0.3,0.3-0.3h3c0.2,0,0.3,0.1,0.3,0.3
		C13.5,8.6,13.4,8.7,13.2,8.7z"/>
	<path class="st0" d="M15.3,8.7h-0.9c-0.2,0-0.3-0.1-0.3-0.3c0-0.2,0.1-0.3,0.3-0.3h0.9c0.2,0,0.3,0.1,0.3,0.3
		C15.6,8.6,15.5,8.7,15.3,8.7z"/>
	<path class="st0" d="M15.3,9.9h-3c-0.2,0-0.3-0.1-0.3-0.3c0-0.2,0.1-0.3,0.3-0.3h3c0.2,0,0.3,0.1,0.3,0.3
		C15.6,9.8,15.5,9.9,15.3,9.9z"/>
	<path class="st0" d="M11.1,9.9h-0.9c-0.2,0-0.3-0.1-0.3-0.3c0-0.2,0.1-0.3,0.3-0.3h0.9c0.2,0,0.3,0.1,0.3,0.3
		C11.4,9.8,11.3,9.9,11.1,9.9z"/>
	<path class="st0" d="M15.3,13.5h-3c-0.2,0-0.3-0.1-0.3-0.3s0.1-0.3,0.3-0.3h3c0.2,0,0.3,0.1,0.3,0.3S15.5,13.5,15.3,13.5z"/>
	<path class="st0" d="M11.1,13.5h-0.9c-0.2,0-0.3-0.1-0.3-0.3s0.1-0.3,0.3-0.3h0.9c0.2,0,0.3,0.1,0.3,0.3S11.3,13.5,11.1,13.5z"/>
	<path class="st0" d="M13.2,11.1h-3c-0.2,0-0.3-0.1-0.3-0.3c0-0.2,0.1-0.3,0.3-0.3h3c0.2,0,0.3,0.1,0.3,0.3
		C13.5,11,13.4,11.1,13.2,11.1z"/>
	<path class="st0" d="M15.3,11.1h-0.9c-0.2,0-0.3-0.1-0.3-0.3c0-0.2,0.1-0.3,0.3-0.3h0.9c0.2,0,0.3,0.1,0.3,0.3
		C15.6,11,15.5,11.1,15.3,11.1z"/>
	<path class="st0" d="M15.3,12.3h-3c-0.2,0-0.3-0.1-0.3-0.3s0.1-0.3,0.3-0.3h3c0.2,0,0.3,0.1,0.3,0.3S15.5,12.3,15.3,12.3z"/>
	<path class="st0" d="M11.1,12.3h-0.9c-0.2,0-0.3-0.1-0.3-0.3s0.1-0.3,0.3-0.3h0.9c0.2,0,0.3,0.1,0.3,0.3S11.3,12.3,11.1,12.3z"/>
</g>
</svg>
