<?xml version="1.0" encoding="utf-8"?>
<!-- Generator: Adobe Illustrator 24.0.2, SVG Export Plug-In . SVG Version: 6.00 Build 0)  -->
<svg version="1.1" id="Layer_1" xmlns="http://www.w3.org/2000/svg" xmlns:xlink="http://www.w3.org/1999/xlink" x="0px" y="0px"
	 viewBox="0 0 18 22" style="enable-background:new 0 0 18 22;" xml:space="preserve">
<style type="text/css">
	.st0{fill:#FC6A55;}
	.st1{stroke:#FFFFFF;stroke-width:0.25;stroke-miterlimit:10;}
	.st2{fill:#656D7A;}
	.st3{fill:#FFFFFF;}
	.st4{filter:url(#Adobe_OpacityMaskFilter);}
	.st5{fill-rule:evenodd;clip-rule:evenodd;fill:#FFFFFF;}
	.st6{mask:url(#mask-2_8_);fill-rule:evenodd;clip-rule:evenodd;}
	.st7{filter:url(#Adobe_OpacityMaskFilter_1_);}
	.st8{mask:url(#mask-2_7_);fill-rule:evenodd;clip-rule:evenodd;}
	.st9{filter:url(#Adobe_OpacityMaskFilter_2_);}
	.st10{mask:url(#mask-2_6_);fill-rule:evenodd;clip-rule:evenodd;}
	.st11{filter:url(#Adobe_OpacityMaskFilter_3_);}
	.st12{mask:url(#mask-2_5_);fill-rule:evenodd;clip-rule:evenodd;}
	.st13{filter:url(#Adobe_OpacityMaskFilter_4_);}
	.st14{mask:url(#mask-2_2_);fill:none;stroke:#000000;stroke-width:2;}
	.st15{fill:#434343;}
	.st16{fill:#434343;stroke:#F9F9F9;stroke-width:0.25;stroke-miterlimit:10;}
	.st17{fill:none;stroke:#FC6A55;stroke-width:0.5;stroke-miterlimit:10;}
	.st18{fill:none;stroke:#FC6A55;stroke-width:0.75;stroke-miterlimit:10;}
	.st19{fill:#FC6A55;stroke:#FC6A55;stroke-width:0.5;stroke-miterlimit:10;}
	.st20{opacity:0.153;fill:url(#Path_144_);enable-background:new    ;}
	.st21{opacity:0.1;fill:#590BB2;enable-background:new    ;}
	.st22{fill:#8E8CA8;}
	.st23{fill:#F5F4F9;}
	.st24{fill:#FFD5B8;}
	.st25{fill:#FC8473;}
	.st26{fill:#1C3475;}
	.st27{fill:#DDD9E4;}
	.st28{fill:#828FB3;}
	.st29{opacity:7.584635e-02;fill:url(#Path_145_);enable-background:new    ;}
	.st30{fill:#FFBE92;}
	.st31{fill:#FB8E7F;}
	.st32{fill:#FDB1A6;}
	.st33{fill:#FC806F;}
	.st34{fill:#FFE783;}
	.st35{fill:#104478;}
	.st36{fill:none;stroke:#FFFFFF;stroke-miterlimit:10;}
	.st37{fill:none;stroke:#FC6A55;stroke-miterlimit:10;}
	.st38{fill:none;stroke:#000000;stroke-width:0.15;stroke-miterlimit:10;}
</style>
<g>
	<g>
		<g>
			<path class="st0" d="M17.6,11.3h-0.5l0-7c0-1-0.8-1.8-1.8-1.8H9.1c-0.4,0-0.8-0.2-0.9-0.6L7.9,1.1C7.6,0.4,6.9,0,6.2,0H2.7
				c-1,0-1.8,0.8-1.8,1.8v8.6c0,0.2,0.2,0.4,0.4,0.4s0.4-0.2,0.4-0.4V7.9c0-0.5,0.4-1,1-1h3.5c0.4,0,0.8,0.2,0.9,0.6l0.3,0.7
				c0.3,0.7,0.9,1.1,1.7,1.1h6.2c0.5,0,1,0.4,1,1v1H0.4c-0.2,0-0.4,0.2-0.4,0.4v7.8c0,0.2,0.2,0.4,0.4,0.4s0.4-0.2,0.4-0.4v-7.4
				h16.4v9.1H0.8v-0.5c0-0.2-0.2-0.4-0.4-0.4S0,20.4,0,20.6v0.9C0,21.8,0.2,22,0.4,22h17.2c0.2,0,0.4-0.2,0.4-0.4v-9.9
				C18,11.5,17.8,11.3,17.6,11.3z M16.3,5.8c-0.3-0.2-0.6-0.3-1-0.3h-1c-0.2,0-0.4,0.2-0.4,0.4s0.2,0.4,0.4,0.4h1c0.5,0,1,0.4,1,1
				v1.5c-0.3-0.2-0.6-0.3-1-0.3H9.1c-0.4,0-0.8-0.2-0.9-0.6L7.9,7.2C7.6,6.5,6.9,6.1,6.2,6.1H2.7c-0.4,0-0.7,0.1-1,0.3V4.8
				c0-0.5,0.4-1,1-1h3.5c0.4,0,0.8,0.2,0.9,0.6l0.3,0.7c0.3,0.7,0.9,1.1,1.7,1.1h4c0.2,0,0.4-0.2,0.4-0.4c0-0.2-0.2-0.4-0.4-0.4h-4
				c-0.4,0-0.8-0.2-0.9-0.6L7.9,4.2C7.6,3.5,6.9,3,6.2,3H2.7C2.4,3,2,3.1,1.7,3.3V1.8c0-0.5,0.4-1,1-1h3.5c0.4,0,0.8,0.2,0.9,0.6
				l0.3,0.7c0.3,0.7,0.9,1.1,1.7,1.1h6.2c0.5,0,1,0.4,1,1L16.3,5.8L16.3,5.8z"/>
		</g>
	</g>
	<g>
		<g>
			<path class="st0" d="M7.9,18.3L7.3,17c0,0,0,0,0,0l-1-2.3c-0.1-0.1-0.2-0.2-0.4-0.2c-0.2,0-0.3,0.1-0.4,0.2l-1,2.3c0,0,0,0,0,0
				L4,18.3c-0.1,0.2,0,0.4,0.2,0.5c0.1,0,0.1,0,0.2,0c0.2,0,0.3-0.1,0.4-0.2l0.4-1h1.5l0.4,1c0.1,0.2,0.3,0.3,0.5,0.2
				C7.9,18.7,7.9,18.5,7.9,18.3z M5.6,16.8l0.4-0.9l0.4,0.9H5.6z"/>
		</g>
	</g>
	<g>
		<g>
			<path class="st0" d="M13.8,17.3c-0.2-0.1-0.4,0-0.5,0.2c-0.1,0.3-0.5,0.6-0.8,0.6c-0.5,0-0.9-0.4-0.9-0.9v-1
				c0-0.5,0.4-0.9,0.9-0.9c0.3,0,0.6,0.2,0.8,0.4c0.1,0.2,0.4,0.2,0.6,0.1c0.2-0.1,0.2-0.4,0.1-0.6c-0.3-0.5-0.9-0.8-1.4-0.8
				c-1,0-1.7,0.8-1.7,1.7v1c0,1,0.8,1.7,1.7,1.7c0.7,0,1.3-0.4,1.6-1.1C14.1,17.6,14,17.4,13.8,17.3z"/>
		</g>
	</g>
	<g>
		<g>
			<path class="st0" d="M9.7,16.4H8.6c-0.2,0-0.4,0.2-0.4,0.4c0,0.2,0.2,0.4,0.4,0.4h1.1c0.2,0,0.4-0.2,0.4-0.4
				C10.1,16.5,9.9,16.4,9.7,16.4z"/>
		</g>
	</g>
</g>
</svg>
