<?xml version="1.0" encoding="utf-8"?>
<!-- Generator: Adobe Illustrator 24.0.2, SVG Export Plug-In . SVG Version: 6.00 Build 0)  -->
<svg version="1.1" id="Layer_1" xmlns="http://www.w3.org/2000/svg" xmlns:xlink="http://www.w3.org/1999/xlink" x="0px" y="0px"
	 viewBox="0 0 18 24" style="enable-background:new 0 0 18 24;" xml:space="preserve">
<style type="text/css">
	.st0{fill:#FC6A55;}
	.st1{stroke:#FFFFFF;stroke-width:0.25;stroke-miterlimit:10;}
	.st2{fill:#656D7A;}
	.st3{fill:#FFFFFF;}
	.st4{filter:url(#Adobe_OpacityMaskFilter);}
	.st5{fill-rule:evenodd;clip-rule:evenodd;fill:#FFFFFF;}
	.st6{mask:url(#mask-2_8_);fill-rule:evenodd;clip-rule:evenodd;}
	.st7{filter:url(#Adobe_OpacityMaskFilter_1_);}
	.st8{mask:url(#mask-2_7_);fill-rule:evenodd;clip-rule:evenodd;}
	.st9{filter:url(#Adobe_OpacityMaskFilter_2_);}
	.st10{mask:url(#mask-2_6_);fill-rule:evenodd;clip-rule:evenodd;}
	.st11{filter:url(#Adobe_OpacityMaskFilter_3_);}
	.st12{mask:url(#mask-2_5_);fill-rule:evenodd;clip-rule:evenodd;}
	.st13{filter:url(#Adobe_OpacityMaskFilter_4_);}
	.st14{mask:url(#mask-2_2_);fill:none;stroke:#000000;stroke-width:2;}
	.st15{fill:#434343;}
	.st16{fill:#434343;stroke:#F9F9F9;stroke-width:0.25;stroke-miterlimit:10;}
	.st17{fill:none;stroke:#FC6A55;stroke-width:0.5;stroke-miterlimit:10;}
	.st18{fill:none;stroke:#FC6A55;stroke-width:0.75;stroke-miterlimit:10;}
	.st19{fill:#FC6A55;stroke:#FC6A55;stroke-width:0.5;stroke-miterlimit:10;}
	.st20{opacity:0.153;fill:url(#Path_144_);enable-background:new    ;}
	.st21{opacity:0.1;fill:#590BB2;enable-background:new    ;}
	.st22{fill:#8E8CA8;}
	.st23{fill:#F5F4F9;}
	.st24{fill:#FFD5B8;}
	.st25{fill:#FC8473;}
	.st26{fill:#1C3475;}
	.st27{fill:#DDD9E4;}
	.st28{fill:#828FB3;}
	.st29{opacity:7.584635e-02;fill:url(#Path_145_);enable-background:new    ;}
	.st30{fill:#FFBE92;}
	.st31{fill:#FB8E7F;}
	.st32{fill:#FDB1A6;}
	.st33{fill:#FC806F;}
	.st34{fill:#FFE783;}
	.st35{fill:#104478;}
	.st36{fill:none;stroke:#FFFFFF;stroke-miterlimit:10;}
	.st37{fill:none;stroke:#FC6A55;stroke-miterlimit:10;}
	.st38{fill:none;stroke:#000000;stroke-width:0.15;stroke-miterlimit:10;}
</style>
<g>
	<path class="st0" d="M16.8,5.4h-0.5L14,3.1c0,0-0.1,0-0.1-0.1c0,0,0,0,0,0c0,0-0.1,0-0.1,0c0,0,0,0,0,0H2.7C2,3,1.5,3.5,1.5,4.2
		v1.2H1.2C0.5,5.4,0,5.9,0,6.6v10.2C0,17.5,0.5,18,1.2,18h5.9l-0.7,2.4H5.7V21h4.2v-0.6H7L7.7,18h1.6v-0.6H1.2
		c-0.3,0-0.6-0.3-0.6-0.6v-0.6h10.2v-0.6H0.6v-9C0.6,6.3,0.9,6,1.2,6h0.3v9h0.6V4.2c0-0.3,0.3-0.6,0.6-0.6h10.8v1.5
		c0,0.5,0.4,0.9,0.9,0.9h1.5v9h0.6V6h0.3c0.3,0,0.6,0.3,0.6,0.6v9h-3.6v0.6h3.6v0.6c0,0.2-0.1,0.3-0.2,0.4l0.4,0.4
		c0.3-0.2,0.4-0.6,0.4-0.9V6.6C18,5.9,17.5,5.4,16.8,5.4z M14.4,5.4c-0.2,0-0.3-0.1-0.3-0.3V4l1.4,1.4H14.4z"/>
	<path class="st0" d="M2.8,9.5l2.7,2.4C5.6,12,5.6,12,5.7,12c0,0,0.1,0,0.1,0c0.1,0,0.2-0.2,0.2-0.3v-1.2h5.4V9.9H5.7
		c-0.2,0-0.3,0.1-0.3,0.3V11L3.5,9.3l1.9-1.7v0.8c0,0.2,0.1,0.3,0.3,0.3h9.6V8.1H6V6.9c0-0.1-0.1-0.2-0.2-0.3c-0.1,0-0.2,0-0.3,0
		L2.8,9.1C2.7,9.1,2.7,9.2,2.7,9.3S2.7,9.5,2.8,9.5z"/>
	<path class="st0" d="M13.4,14.1l1.8-1.6c0.1-0.1,0.1-0.1,0.1-0.2c0-0.1,0-0.2-0.1-0.2l-2.7-2.4c-0.1-0.1-0.2-0.1-0.3,0
		c-0.1,0-0.2,0.2-0.2,0.3v1.2H6.6v0.6h5.7c0.2,0,0.3-0.1,0.3-0.3v-0.8l1.9,1.7L13,13.7L13.4,14.1z"/>
	<path class="st0" d="M2.7,13.5h9.9v-0.3c0-0.2-0.1-0.3-0.3-0.3H2.7V13.5z"/>
	<path class="st0" d="M16,16.5c-0.3,0-0.5,0-0.7,0.2c0,0,0,0,0,0c-0.3-0.3-0.9-0.3-1.2,0c-0.2-0.2-0.6-0.3-0.9-0.2V15
		c0-0.4-0.3-0.8-0.8-0.9c-0.3,0-0.5,0-0.7,0.2c-0.2,0.2-0.3,0.4-0.3,0.7v3.7l-0.8-0.5c-0.2-0.1-0.5-0.2-0.8,0l0,0
		c-0.3,0.1-0.4,0.4-0.5,0.7s0.1,0.6,0.3,0.7l1.9,1.3c0.1,0,0.1,0.1,0.2,0.1h4.8c0.2,0,0.3-0.1,0.3-0.3v-3.3
		C16.8,17,16.5,16.6,16,16.5z M16.2,20.4h-4.4L10,19.1c-0.1,0-0.1-0.1-0.1-0.2c0-0.1,0.1-0.2,0.1-0.2l0,0c0.1,0,0.2,0,0.2,0l1.3,0.8
		c0.1,0.1,0.2,0.1,0.3,0c0.1-0.1,0.2-0.2,0.2-0.3V15c0-0.1,0-0.2,0.1-0.2c0.1-0.1,0.2-0.1,0.2-0.1c0.1,0,0.3,0.2,0.2,0.3v2.4
		c0,0.2,0.1,0.3,0.3,0.3c0.2,0,0.3-0.1,0.3-0.3s0.1-0.3,0.3-0.3s0.3,0.1,0.3,0.3s0.1,0.3,0.3,0.3c0.2,0,0.3-0.1,0.3-0.3
		s0.1-0.3,0.3-0.3c0.2,0,0.3,0.1,0.3,0.3s0.1,0.3,0.3,0.3c0.2,0,0.3-0.1,0.3-0.3c0-0.1,0-0.2,0.1-0.2c0.1-0.1,0.2-0.1,0.2-0.1
		c0.1,0,0.3,0.2,0.2,0.3V20.4z"/>
	<path class="st0" d="M2.7,4.2h0.6v0.6H2.7V4.2z"/>
	<path class="st0" d="M3.9,4.2h0.6v0.6H3.9V4.2z"/>
	<path class="st0" d="M5.1,4.2h0.6v0.6H5.1V4.2z"/>
	<path class="st0" d="M2.7,5.4h10.2V6H2.7V5.4z"/>
	<path class="st0" d="M2.7,11.1h1.2v0.6H2.7V11.1z"/>
	<path class="st0" d="M13.8,9.9h1.5v0.6h-1.5V9.9z"/>
</g>
</svg>
