<?xml version="1.0" encoding="utf-8"?>
<!-- Generator: Adobe Illustrator 24.1.1, SVG Export Plug-In . SVG Version: 6.00 Build 0)  -->
<svg version="1.1" id="Layer_1" xmlns="http://www.w3.org/2000/svg" xmlns:xlink="http://www.w3.org/1999/xlink" x="0px" y="0px"
	 viewBox="0 0 18 24" style="enable-background:new 0 0 18 24;" xml:space="preserve">
<style type="text/css">
	.st0{fill:#FC6A55;}
	.st1{fill:#EDEDED;}
	.st2{fill:none;stroke:#FC6A55;stroke-miterlimit:10;}
	.st3{fill:#222F3F;}
	.st4{fill:#383838;}
	.st5{fill:#FFFFFF;}
	.st6{fill:#656D7A;}
	.st7{fill:#C4C4C4;}
	.st8{filter:url(#Adobe_OpacityMaskFilter);}
	.st9{fill-rule:evenodd;clip-rule:evenodd;fill:#FFFFFF;}
	.st10{mask:url(#mask-2_8_);fill-rule:evenodd;clip-rule:evenodd;fill:#FFFFFF;}
	.st11{filter:url(#Adobe_OpacityMaskFilter_1_);}
	.st12{mask:url(#mask-2_7_);fill-rule:evenodd;clip-rule:evenodd;fill:#FFFFFF;}
	.st13{filter:url(#Adobe_OpacityMaskFilter_2_);}
	.st14{mask:url(#mask-2_6_);fill-rule:evenodd;clip-rule:evenodd;fill:#FFFFFF;}
	.st15{filter:url(#Adobe_OpacityMaskFilter_3_);}
	.st16{mask:url(#mask-2_5_);fill-rule:evenodd;clip-rule:evenodd;fill:#FFFFFF;}
	.st17{filter:url(#Adobe_OpacityMaskFilter_4_);}
	.st18{mask:url(#mask-2_2_);fill:none;stroke:#FFFFFF;stroke-width:1.5;stroke-miterlimit:10;}
	.st19{fill:#B4A3EE;}
	.st20{fill:#434343;}
	.st21{fill:#434343;stroke:#F9F9F9;stroke-width:0.25;stroke-miterlimit:10;}
	.st22{fill:none;stroke:#FC6A55;stroke-width:0.75;stroke-miterlimit:10;}
	.st23{fill:#FC6A55;stroke:#FC6A55;stroke-width:0.25;stroke-miterlimit:10;}
	.st24{fill:#FC6A55;stroke:#FC6A55;stroke-width:0.5;stroke-miterlimit:10;}
	.st25{opacity:0.153;fill:url(#Path_44_);enable-background:new    ;}
	.st26{opacity:0.1;fill:#590BB2;enable-background:new    ;}
	.st27{fill:#8E8CA8;}
	.st28{fill:#F5F4F9;}
	.st29{fill:#FFD5B8;}
	.st30{fill:#FC8473;}
	.st31{fill:#1C3475;}
	.st32{fill:#DDD9E4;}
	.st33{fill:#828FB3;}
	.st34{opacity:7.584635e-02;fill:url(#Path_45_);enable-background:new    ;}
	.st35{fill:#FFBE92;}
	.st36{fill:#FB8E7F;}
	.st37{fill:#FDB1A6;}
	.st38{fill:#FC806F;}
	.st39{fill:#FFE783;}
	.st40{fill:#104478;}
	.st41{fill:none;stroke:#FFFFFF;stroke-miterlimit:10;}
	.st42{fill:none;stroke:#000000;stroke-width:0.15;stroke-miterlimit:10;}
	.st43{opacity:0.1;fill:url(#Path_46_);enable-background:new    ;}
	.st44{opacity:0.1;fill:url(#Path_47_);enable-background:new    ;}
	.st45{fill-rule:evenodd;clip-rule:evenodd;fill:#FC6A55;}
	.st46{fill-rule:evenodd;clip-rule:evenodd;}
	.st47{fill:#FF6757;}
	.st48{fill:#6C973D;}
	.st49{fill:none;stroke:#FFFFFF;stroke-width:0.5;stroke-miterlimit:10;}
	.st50{fill:#606060;}
	.st51{fill:#F16A56;}
	.st52{fill:#515252;}
	.st53{fill:#656565;}
	.st54{fill:#F26A56;}
	.st55{fill:none;stroke:#F16A56;stroke-miterlimit:10;}
	.st56{fill:none;stroke:#929292;stroke-miterlimit:10;}
	.st57{fill:#929292;}
	.st58{fill:none;stroke:#000000;stroke-width:0.5;stroke-miterlimit:10;}
	.st59{fill:#A8A7A7;}
	.st60{fill:#F79F91;}
	.st61{fill:#9BDBD5;}
	.st62{fill:#222121;}
	.st63{stroke:#000000;stroke-width:0.25;stroke-miterlimit:10;}
</style>
<g>
	<circle cx="1.5" cy="8.1" r="0.3"/>
	<circle cx="2.7" cy="8.1" r="0.3"/>
	<circle cx="3.9" cy="8.1" r="0.3"/>
	<path d="M15.3,8.4h1.2c0.2,0,0.3-0.1,0.3-0.3c0-0.2-0.1-0.3-0.3-0.3h-1.2c-0.2,0-0.3,0.1-0.3,0.3C15,8.3,15.1,8.4,15.3,8.4z"/>
	<path d="M0.3,15c0.2,0,0.3-0.1,0.3-0.3V9.6h3.9c0.2,0,0.3-0.1,0.3-0.3C4.8,9.1,4.7,9,4.5,9H0.6V7.2h3.9c0.2,0,0.3-0.1,0.3-0.3
		S4.7,6.6,4.5,6.6H0.3C0.1,6.6,0,6.7,0,6.9v7.8C0,14.9,0.1,15,0.3,15z"/>
	<path d="M17.7,6.6h-2.4c-0.2,0-0.3,0.1-0.3,0.3s0.1,0.3,0.3,0.3h2.1V9h-2.1C15.1,9,15,9.1,15,9.3c0,0.2,0.1,0.3,0.3,0.3h2.1v10.8
		H6.3c-0.2,0-0.3,0.1-0.3,0.3C6,20.9,6.1,21,6.3,21h11.4c0.2,0,0.3-0.1,0.3-0.3V6.9C18,6.7,17.9,6.6,17.7,6.6z"/>
	<path d="M6.6,8.1c0,0.2,0.1,0.3,0.3,0.3h1.2c0.2,0,0.3-0.1,0.3-0.3V6.9c0-0.2-0.1-0.3-0.3-0.3H6.9c-0.2,0-0.3,0.1-0.3,0.3V8.1z
		 M7.2,7.2h0.6v0.6H7.2V7.2z"/>
	<path d="M9,8.1c0,0.2,0.1,0.3,0.3,0.3h1.2c0.2,0,0.3-0.1,0.3-0.3V6.9c0-0.2-0.1-0.3-0.3-0.3H9.3C9.1,6.6,9,6.7,9,6.9V8.1z M9.6,7.2
		h0.6v0.6H9.6V7.2z"/>
	<path d="M11.4,8.1c0,0.2,0.1,0.3,0.3,0.3h1.2c0.2,0,0.3-0.1,0.3-0.3V6.9c0-0.2-0.1-0.3-0.3-0.3h-1.2c-0.2,0-0.3,0.1-0.3,0.3V8.1z
		 M12,7.2h0.6v0.6H12V7.2z"/>
	<path d="M6.9,6h1.2c0.2,0,0.3-0.1,0.3-0.3V4.5c0-0.2-0.1-0.3-0.3-0.3H6.9c-0.2,0-0.3,0.1-0.3,0.3v1.2C6.6,5.9,6.7,6,6.9,6z
		 M7.2,4.8h0.6v0.6H7.2V4.8z"/>
	<path d="M9.3,6h1.2c0.2,0,0.3-0.1,0.3-0.3V4.5c0-0.2-0.1-0.3-0.3-0.3H9.3C9.1,4.2,9,4.3,9,4.5v1.2C9,5.9,9.1,6,9.3,6z M9.6,4.8h0.6
		v0.6H9.6V4.8z"/>
	<path d="M11.7,6h1.2c0.2,0,0.3-0.1,0.3-0.3V4.5c0-0.2-0.1-0.3-0.3-0.3h-1.2c-0.2,0-0.3,0.1-0.3,0.3v1.2C11.4,5.9,11.5,6,11.7,6z
		 M12,4.8h0.6v0.6H12V4.8z"/>
	<path d="M6.6,12.9c0,0.2,0.1,0.3,0.3,0.3h1.2c0.2,0,0.3-0.1,0.3-0.3v-1.2c0-0.2-0.1-0.3-0.3-0.3H6.9c-0.2,0-0.3,0.1-0.3,0.3V12.9z
		 M7.2,12h0.6v0.6H7.2V12z"/>
	<path d="M9,12.9c0,0.2,0.1,0.3,0.3,0.3h1.2c0.2,0,0.3-0.1,0.3-0.3v-1.2c0-0.2-0.1-0.3-0.3-0.3H9.3c-0.2,0-0.3,0.1-0.3,0.3V12.9z
		 M9.6,12h0.6v0.6H9.6V12z"/>
	<path d="M11.4,12.9c0,0.2,0.1,0.3,0.3,0.3h1.2c0.2,0,0.3-0.1,0.3-0.3v-1.2c0-0.2-0.1-0.3-0.3-0.3h-1.2c-0.2,0-0.3,0.1-0.3,0.3V12.9
		z M12,12h0.6v0.6H12V12z"/>
	<path d="M6.6,10.5c0,0.2,0.1,0.3,0.3,0.3h1.2c0.2,0,0.3-0.1,0.3-0.3V9.3C8.4,9.1,8.3,9,8.1,9H6.9C6.7,9,6.6,9.1,6.6,9.3V10.5z
		 M7.2,9.6h0.6v0.6H7.2V9.6z"/>
	<path d="M9,10.5c0,0.2,0.1,0.3,0.3,0.3h1.2c0.2,0,0.3-0.1,0.3-0.3V9.3c0-0.2-0.1-0.3-0.3-0.3H9.3C9.1,9,9,9.1,9,9.3V10.5z M9.6,9.6
		h0.6v0.6H9.6V9.6z"/>
	<path d="M11.4,10.5c0,0.2,0.1,0.3,0.3,0.3h1.2c0.2,0,0.3-0.1,0.3-0.3V9.3c0-0.2-0.1-0.3-0.3-0.3h-1.2c-0.2,0-0.3,0.1-0.3,0.3V10.5z
		 M12,9.6h0.6v0.6H12V9.6z"/>
	<path d="M7.8,18.9c0,0.2,0.1,0.3,0.3,0.3h8.1c0.2,0,0.3-0.1,0.3-0.3s-0.1-0.3-0.3-0.3H8.1C7.9,18.6,7.8,18.7,7.8,18.9z"/>
	<path d="M5.7,14.6c0.2,0,0.3-0.1,0.3-0.3V3.6h7.8v12.6h-2.1v-2.1c0-0.2-0.1-0.3-0.3-0.3h-3c-0.2,0-0.3,0.1-0.3,0.3v2.1H7.3
		c-0.2,0-0.3,0.1-0.3,0.3s0.1,0.3,0.3,0.3h7.4c0.2,0,0.3,0.1,0.3,0.3v0.3H7.5c-0.2,0-0.3,0.1-0.3,0.3c0,0.2,0.1,0.3,0.3,0.3h7.8
		c0.2,0,0.3-0.1,0.3-0.3v-0.6c0-0.5-0.4-0.9-0.9-0.9h-0.3V3.3c0-0.2-0.1-0.3-0.3-0.3H5.7C5.5,3,5.4,3.1,5.4,3.3v11
		C5.4,14.4,5.5,14.6,5.7,14.6z M8.7,14.4h0.9v1.8H8.7V14.4z M10.2,16.2v-1.8h0.9v1.8H10.2z"/>
	<path d="M3.3,14.4c-1.8,0-3.3,1.5-3.3,3.3C0,19.5,1.5,21,3.3,21s3.3-1.5,3.3-3.3S5.1,14.4,3.3,14.4L3.3,14.4z M3.3,20.4
		c-1.5,0-2.7-1.2-2.7-2.7c0-1.5,1.2-2.7,2.7-2.7S6,16.2,6,17.7C6,19.2,4.8,20.4,3.3,20.4z"/>
	<path d="M4.6,16.6l-1.9,1.6L2,17.5c-0.1-0.1-0.3-0.1-0.4,0c-0.1,0.1-0.1,0.3,0,0.4l0,0l0.9,0.9c0.1,0.1,0.1,0.1,0.2,0.1
		c0.1,0,0.1,0,0.2-0.1L5,17c0.1-0.1,0.1-0.3,0-0.4C4.9,16.5,4.7,16.5,4.6,16.6z"/>
</g>
</svg>
