<?xml version="1.0" encoding="utf-8"?>
<!-- Generator: Adobe Illustrator 24.1.1, SVG Export Plug-In . SVG Version: 6.00 Build 0)  -->
<svg version="1.1" id="Layer_1" xmlns="http://www.w3.org/2000/svg" xmlns:xlink="http://www.w3.org/1999/xlink" x="0px" y="0px"
	 viewBox="0 0 18 24" style="enable-background:new 0 0 18 24;" xml:space="preserve">
<style type="text/css">
	.st0{fill:#FC6A55;}
	.st1{fill:#EDEDED;}
	.st2{fill:none;stroke:#FC6A55;stroke-miterlimit:10;}
	.st3{fill:#222F3F;}
	.st4{fill:#383838;}
	.st5{fill:#FFFFFF;}
	.st6{fill:#656D7A;}
	.st7{fill:#C4C4C4;}
	.st8{filter:url(#Adobe_OpacityMaskFilter);}
	.st9{fill-rule:evenodd;clip-rule:evenodd;fill:#FFFFFF;}
	.st10{mask:url(#mask-2_8_);fill-rule:evenodd;clip-rule:evenodd;fill:#FFFFFF;}
	.st11{filter:url(#Adobe_OpacityMaskFilter_1_);}
	.st12{mask:url(#mask-2_7_);fill-rule:evenodd;clip-rule:evenodd;fill:#FFFFFF;}
	.st13{filter:url(#Adobe_OpacityMaskFilter_2_);}
	.st14{mask:url(#mask-2_6_);fill-rule:evenodd;clip-rule:evenodd;fill:#FFFFFF;}
	.st15{filter:url(#Adobe_OpacityMaskFilter_3_);}
	.st16{mask:url(#mask-2_5_);fill-rule:evenodd;clip-rule:evenodd;fill:#FFFFFF;}
	.st17{filter:url(#Adobe_OpacityMaskFilter_4_);}
	.st18{mask:url(#mask-2_2_);fill:none;stroke:#FFFFFF;stroke-width:1.5;stroke-miterlimit:10;}
	.st19{fill:#B4A3EE;}
	.st20{fill:#434343;}
	.st21{fill:#434343;stroke:#F9F9F9;stroke-width:0.25;stroke-miterlimit:10;}
	.st22{fill:none;stroke:#FC6A55;stroke-width:0.75;stroke-miterlimit:10;}
	.st23{fill:#FC6A55;stroke:#FC6A55;stroke-width:0.25;stroke-miterlimit:10;}
	.st24{fill:#FC6A55;stroke:#FC6A55;stroke-width:0.5;stroke-miterlimit:10;}
	.st25{opacity:0.153;fill:url(#Path_44_);enable-background:new    ;}
	.st26{opacity:0.1;fill:#590BB2;enable-background:new    ;}
	.st27{fill:#8E8CA8;}
	.st28{fill:#F5F4F9;}
	.st29{fill:#FFD5B8;}
	.st30{fill:#FC8473;}
	.st31{fill:#1C3475;}
	.st32{fill:#DDD9E4;}
	.st33{fill:#828FB3;}
	.st34{opacity:7.584635e-02;fill:url(#Path_45_);enable-background:new    ;}
	.st35{fill:#FFBE92;}
	.st36{fill:#FB8E7F;}
	.st37{fill:#FDB1A6;}
	.st38{fill:#FC806F;}
	.st39{fill:#FFE783;}
	.st40{fill:#104478;}
	.st41{fill:none;stroke:#FFFFFF;stroke-miterlimit:10;}
	.st42{fill:none;stroke:#000000;stroke-width:0.15;stroke-miterlimit:10;}
	.st43{opacity:0.1;fill:url(#Path_46_);enable-background:new    ;}
	.st44{opacity:0.1;fill:url(#Path_47_);enable-background:new    ;}
	.st45{fill-rule:evenodd;clip-rule:evenodd;fill:#FC6A55;}
	.st46{fill-rule:evenodd;clip-rule:evenodd;}
	.st47{fill:#FF6757;}
	.st48{fill:#6C973D;}
	.st49{fill:none;stroke:#FFFFFF;stroke-width:0.5;stroke-miterlimit:10;}
	.st50{fill:#606060;}
	.st51{fill:#F16A56;}
	.st52{fill:#515252;}
	.st53{fill:#656565;}
	.st54{fill:#F26A56;}
	.st55{fill:none;stroke:#F16A56;stroke-miterlimit:10;}
	.st56{fill:none;stroke:#929292;stroke-miterlimit:10;}
	.st57{fill:#929292;}
	.st58{fill:none;stroke:#000000;stroke-width:0.5;stroke-miterlimit:10;}
	.st59{fill:#A8A7A7;}
	.st60{fill:#F79F91;}
	.st61{fill:#9BDBD5;}
	.st62{fill:#222121;}
	.st63{stroke:#000000;stroke-width:0.25;stroke-miterlimit:10;}
</style>
<g>
	<path class="st0" d="M17.7,9h-1.1l-1.4-1.4c-0.1-0.1-0.1-0.1-0.2-0.1H3.3c-0.1,0-0.2,0-0.2,0.1L1.7,9H0.3C0.1,9,0,9.1,0,9.3v8.1
		c0,0.2,0.1,0.3,0.3,0.3h1.4l2.8,2.8C4.8,20.8,5.2,21,5.6,21c0.8,0,1.5-0.6,1.6-1.4l0.9,0.9C8.4,20.8,8.8,21,9.2,21
		c0.8,0,1.5-0.6,1.6-1.4l0.9,0.9c0.3,0.3,0.7,0.5,1.1,0.5c0.8,0,1.5-0.6,1.6-1.4l0.9,0.9c0.3,0.3,0.7,0.5,1.1,0.5
		c0.9,0,1.6-0.7,1.6-1.6c0-0.4-0.2-0.8-0.5-1.1l-0.6-0.6h0.8c0.2,0,0.3-0.1,0.3-0.3V9.3C18,9.1,17.9,9,17.7,9z M17.4,19.4
		c0,0.5-0.4,1-1,1c-0.3,0-0.5-0.1-0.7-0.3l-1.8-1.8c0,0,0,0,0,0l-1.4-1.4l-0.4,0.4l1.4,1.4c0.2,0.2,0.3,0.4,0.3,0.7c0,0.5-0.4,1-1,1
		c-0.3,0-0.5-0.1-0.7-0.3l-1.8-1.8c0,0,0,0,0,0l-1.4-1.4l-0.4,0.4l1.4,1.4c0.2,0.2,0.3,0.4,0.3,0.7c0,0.5-0.4,1-1,1
		c-0.3,0-0.5-0.1-0.7-0.3l-1.8-1.8c0,0,0,0,0,0l-1.4-1.4l-0.4,0.4l1.4,1.4c0.2,0.2,0.3,0.4,0.3,0.7c0,0.5-0.4,1-1,1
		c-0.3,0-0.5-0.1-0.7-0.3L2,17.2c-0.1-0.1-0.1-0.1-0.2-0.1H0.6V9.6h1.2c0.1,0,0.2,0,0.2-0.1l1.4-1.4h5.2l-2.1,2.1
		C6.2,10.5,6,10.9,6,11.4c0,1,0.8,1.8,1.8,1.8c0.5,0,0.9-0.2,1.3-0.5l1-1l7.1,7.1C17.3,18.9,17.4,19.2,17.4,19.4z M17.4,17.1h-1.1
		l-5.9-5.9l0.5-0.5l-0.4-0.4l-2,2c-0.2,0.2-0.5,0.3-0.8,0.3c-0.7,0-1.2-0.5-1.2-1.2c0-0.3,0.1-0.6,0.3-0.8l2.5-2.5h5.5l1.4,1.4
		c0.1,0.1,0.1,0.1,0.2,0.1h0.9V17.1z"/>
	<path class="st0" d="M8.1,3H5.7c-1,0-1.8,0.8-1.8,1.8s0.8,1.8,1.8,1.8h2.4c0.1,0,0.2,0,0.4,0L8.3,6C8.3,6,8.2,6,8.1,6H5.7
		C5,6,4.5,5.5,4.5,4.8S5,3.6,5.7,3.6h2.4c0.7,0,1.2,0.5,1.2,1.2c0,0.2,0,0.3-0.1,0.5l0.5,0.2c0.1-0.2,0.1-0.5,0.1-0.7
		C9.9,3.8,9.1,3,8.1,3z"/>
	<path class="st0" d="M8.3,4.1C8.2,4.3,8.1,4.5,8.1,4.8c0,1,0.8,1.8,1.8,1.8h2.4c1,0,1.8-0.8,1.8-1.8S13.3,3,12.3,3H9.9
		C9.8,3,9.7,3,9.5,3l0.1,0.6c0.1,0,0.2,0,0.2,0h2.4c0.7,0,1.2,0.5,1.2,1.2S13,6,12.3,6H9.9C9.2,6,8.7,5.5,8.7,4.8
		c0-0.2,0-0.3,0.1-0.5L8.3,4.1z"/>
</g>
</svg>
