<?xml version="1.0" encoding="utf-8"?>
<!-- Generator: Adobe Illustrator 24.1.1, SVG Export Plug-In . SVG Version: 6.00 Build 0)  -->
<svg version="1.1" id="Layer_1" xmlns="http://www.w3.org/2000/svg" xmlns:xlink="http://www.w3.org/1999/xlink" x="0px" y="0px"
	 viewBox="0 0 18 24" style="enable-background:new 0 0 18 24;" xml:space="preserve">
<style type="text/css">
	.st0{fill:#FC6A55;}
	.st1{fill:#EDEDED;}
	.st2{fill:none;stroke:#FC6A55;stroke-miterlimit:10;}
	.st3{fill:#222F3F;}
	.st4{fill:#383838;}
	.st5{fill:#FFFFFF;}
	.st6{fill:#656D7A;}
	.st7{fill:#C4C4C4;}
	.st8{filter:url(#Adobe_OpacityMaskFilter);}
	.st9{fill-rule:evenodd;clip-rule:evenodd;fill:#FFFFFF;}
	.st10{mask:url(#mask-2_8_);fill-rule:evenodd;clip-rule:evenodd;fill:#FFFFFF;}
	.st11{filter:url(#Adobe_OpacityMaskFilter_1_);}
	.st12{mask:url(#mask-2_7_);fill-rule:evenodd;clip-rule:evenodd;fill:#FFFFFF;}
	.st13{filter:url(#Adobe_OpacityMaskFilter_2_);}
	.st14{mask:url(#mask-2_6_);fill-rule:evenodd;clip-rule:evenodd;fill:#FFFFFF;}
	.st15{filter:url(#Adobe_OpacityMaskFilter_3_);}
	.st16{mask:url(#mask-2_5_);fill-rule:evenodd;clip-rule:evenodd;fill:#FFFFFF;}
	.st17{filter:url(#Adobe_OpacityMaskFilter_4_);}
	.st18{mask:url(#mask-2_2_);fill:none;stroke:#FFFFFF;stroke-width:1.5;stroke-miterlimit:10;}
	.st19{fill:#B4A3EE;}
	.st20{fill:#434343;}
	.st21{fill:#434343;stroke:#F9F9F9;stroke-width:0.25;stroke-miterlimit:10;}
	.st22{fill:none;stroke:#FC6A55;stroke-width:0.75;stroke-miterlimit:10;}
	.st23{fill:#FC6A55;stroke:#FC6A55;stroke-width:0.25;stroke-miterlimit:10;}
	.st24{fill:#FC6A55;stroke:#FC6A55;stroke-width:0.5;stroke-miterlimit:10;}
	.st25{opacity:0.153;fill:url(#Path_44_);enable-background:new    ;}
	.st26{opacity:0.1;fill:#590BB2;enable-background:new    ;}
	.st27{fill:#8E8CA8;}
	.st28{fill:#F5F4F9;}
	.st29{fill:#FFD5B8;}
	.st30{fill:#FC8473;}
	.st31{fill:#1C3475;}
	.st32{fill:#DDD9E4;}
	.st33{fill:#828FB3;}
	.st34{opacity:7.584635e-02;fill:url(#Path_45_);enable-background:new    ;}
	.st35{fill:#FFBE92;}
	.st36{fill:#FB8E7F;}
	.st37{fill:#FDB1A6;}
	.st38{fill:#FC806F;}
	.st39{fill:#FFE783;}
	.st40{fill:#104478;}
	.st41{fill:none;stroke:#FFFFFF;stroke-miterlimit:10;}
	.st42{fill:none;stroke:#000000;stroke-width:0.15;stroke-miterlimit:10;}
	.st43{opacity:0.1;fill:url(#Path_46_);enable-background:new    ;}
	.st44{opacity:0.1;fill:url(#Path_47_);enable-background:new    ;}
	.st45{fill-rule:evenodd;clip-rule:evenodd;fill:#FC6A55;}
	.st46{fill-rule:evenodd;clip-rule:evenodd;}
	.st47{fill:#FF6757;}
	.st48{fill:#6C973D;}
	.st49{fill:none;stroke:#FFFFFF;stroke-width:0.5;stroke-miterlimit:10;}
	.st50{fill:#606060;}
	.st51{fill:#F16A56;}
	.st52{fill:#515252;}
	.st53{fill:#656565;}
	.st54{fill:#F26A56;}
	.st55{fill:none;stroke:#F16A56;stroke-miterlimit:10;}
	.st56{fill:none;stroke:#929292;stroke-miterlimit:10;}
	.st57{fill:#929292;}
	.st58{fill:none;stroke:#000000;stroke-width:0.5;stroke-miterlimit:10;}
	.st59{fill:#A8A7A7;}
	.st60{fill:#F79F91;}
	.st61{fill:#9BDBD5;}
	.st62{fill:#222121;}
	.st63{stroke:#000000;stroke-width:0.25;stroke-miterlimit:10;}
</style>
<g>
	<path class="st0" d="M18,5.1v10.2c0,1.1-0.9,2-2,2H9.4v2.8h3.3c0.2,0,0.4,0.2,0.4,0.4c0,0.2-0.2,0.4-0.4,0.4H5.6
		c-0.2,0-0.4-0.2-0.4-0.4c0-0.2,0.2-0.4,0.4-0.4h3.1v-2.8H2c-1.1,0-2-0.9-2-2V5.1c0-1.1,0.9-2,2-2H16C17.1,3.1,18,4,18,5.1z
		 M17.2,15.3v-1.1H0.8v1.1c0,0.7,0.6,1.3,1.3,1.3H16C16.7,16.6,17.2,16,17.2,15.3z M17.2,13.5V5.1c0-0.7-0.6-1.3-1.3-1.3H2
		c-0.7,0-1.3,0.6-1.3,1.3v8.3H17.2z"/>
	<path class="st0" d="M15.6,8.6v3.7c0,0.2-0.2,0.3-0.3,0.3H9c-0.2,0-0.3-0.2-0.3-0.3V6.6c0-0.2,0.2-0.3,0.3-0.3h0.3V5.8
		c0-0.2,0.2-0.3,0.3-0.3h0.7V4.8c0-0.2,0.2-0.3,0.3-0.3c0.2,0,0.3,0.2,0.3,0.3v0.7h1.2c0.2,0,0.3,0.2,0.3,0.3v0.5h0.3
		c0.2,0,0.3,0.2,0.3,0.3v1.7h2C15.4,8.3,15.6,8.4,15.6,8.6z M14.9,12v-0.4c-0.1,0.1-0.2,0.2-0.3,0.2h-1c-0.1,0-0.2-0.1-0.3-0.2V12
		H14.9z M14.9,11.3v-0.6c-0.1,0.1-0.2,0.2-0.3,0.2h-1c-0.1,0-0.2-0.1-0.3-0.2v0.6c0.1-0.1,0.2-0.2,0.3-0.2h1
		C14.7,11.1,14.8,11.2,14.9,11.3z M14.9,10.4V9.8c-0.1,0.1-0.2,0.2-0.3,0.2h-1c-0.1,0-0.2-0.1-0.3-0.2v0.6c0.1-0.1,0.2-0.2,0.3-0.2
		h1C14.7,10.2,14.8,10.2,14.9,10.4z M14.9,9.5V9h-1.6v0.5c0.1-0.1,0.2-0.2,0.3-0.2h1C14.7,9.3,14.8,9.4,14.9,9.5z M12.6,12V7H9.4v5
		h0.5v-1.1c0-0.2,0.2-0.3,0.3-0.3h1.6c0.2,0,0.3,0.2,0.3,0.3V12H12.6z M11.9,6.3V6.2H10v0.1H11.9z M11.4,12v-0.7h-0.9V12H11.4z"/>
	<path class="st0" d="M12.1,7.8c0.2,0,0.3,0.2,0.3,0.3c0,0.2-0.2,0.3-0.3,0.3H9.8c-0.2,0-0.3-0.2-0.3-0.3c0-0.2,0.2-0.3,0.3-0.3
		H12.1z"/>
	<path class="st0" d="M12.1,8.9c0.2,0,0.3,0.2,0.3,0.3c0,0.2-0.2,0.3-0.3,0.3H9.8c-0.2,0-0.3-0.2-0.3-0.3c0-0.2,0.2-0.3,0.3-0.3
		H12.1z"/>
	<path class="st0" d="M6.7,10.8c0.2,0,0.3,0.2,0.3,0.3c0,0.2-0.2,0.3-0.3,0.3h-4c-0.2,0-0.3-0.2-0.3-0.3c0-0.2,0.2-0.3,0.3-0.3H6.7z
		"/>
	<path class="st0" d="M4.8,5.7c1.3,0,2.3,1.1,2.3,2.3s-1,2.3-2.3,2.3c-0.6,0-1.3-0.3-1.7-0.7C2.3,8.8,2.2,7.5,3,6.6
		C3.4,6,4.1,5.7,4.8,5.7z M6.1,9.1c0.6-0.7,0.4-1.8-0.3-2.4S4,6.3,3.5,7C3.2,7.3,3.1,7.7,3.1,8c0,0.5,0.2,1,0.6,1.3
		C4.5,9.9,5.5,9.8,6.1,9.1z"/>
	<path class="st0" d="M5.9,7.4C6,7.5,6,7.7,5.8,7.8L4.7,8.7c-0.1,0.1-0.3,0.1-0.5,0L3.7,8.1l0,0C3.6,8,3.6,7.8,3.8,7.7
		c0.1-0.1,0.4-0.1,0.5,0L4.5,8l0.9-0.7C5.5,7.2,5.7,7.2,5.9,7.4z"/>
	<path class="st0" d="M5.1,12c0.2,0,0.3,0.2,0.3,0.3c0,0.2-0.2,0.3-0.3,0.3H2.8c-0.2,0-0.3-0.2-0.3-0.3c0-0.2,0.2-0.3,0.3-0.3H5.1z"
		/>
</g>
</svg>
