<?xml version="1.0" encoding="utf-8"?>
<!-- Generator: Adobe Illustrator 24.1.1, SVG Export Plug-In . SVG Version: 6.00 Build 0)  -->
<svg version="1.1" id="Layer_1" xmlns="http://www.w3.org/2000/svg" xmlns:xlink="http://www.w3.org/1999/xlink" x="0px" y="0px"
	 viewBox="0 0 42.3 42.3" style="enable-background:new 0 0 42.3 42.3;" xml:space="preserve">
<style type="text/css">
	.st0{fill:#FC6A55;}
	.st1{fill:#EDEDED;}
	.st2{fill:none;stroke:#FC6A55;stroke-miterlimit:10;}
	.st3{fill:#222F3F;}
	.st4{fill:#383838;}
	.st5{fill:#FFFFFF;}
	.st6{fill:#656D7A;}
	.st7{fill:#C4C4C4;}
	.st8{filter:url(#Adobe_OpacityMaskFilter);}
	.st9{fill-rule:evenodd;clip-rule:evenodd;fill:#FFFFFF;}
	.st10{mask:url(#mask-2_8_);fill-rule:evenodd;clip-rule:evenodd;}
	.st11{filter:url(#Adobe_OpacityMaskFilter_1_);}
	.st12{mask:url(#mask-2_7_);fill-rule:evenodd;clip-rule:evenodd;}
	.st13{filter:url(#Adobe_OpacityMaskFilter_2_);}
	.st14{mask:url(#mask-2_6_);fill-rule:evenodd;clip-rule:evenodd;}
	.st15{filter:url(#Adobe_OpacityMaskFilter_3_);}
	.st16{mask:url(#mask-2_5_);fill-rule:evenodd;clip-rule:evenodd;}
	.st17{filter:url(#Adobe_OpacityMaskFilter_4_);}
	.st18{mask:url(#mask-2_2_);fill:none;stroke:#000000;stroke-width:1.5;stroke-miterlimit:10;}
	.st19{fill:#B4A3EE;}
	.st20{fill:#434343;}
	.st21{fill:#434343;stroke:#F9F9F9;stroke-width:0.25;stroke-miterlimit:10;}
	.st22{fill:none;stroke:#FC6A55;stroke-width:0.5;stroke-miterlimit:10;}
	.st23{fill:none;stroke:#FC6A55;stroke-width:0.75;stroke-miterlimit:10;}
	.st24{fill:#FC6A55;stroke:#FC6A55;stroke-width:0.5;stroke-miterlimit:10;}
	.st25{opacity:0.153;fill:url(#Path_44_);enable-background:new    ;}
	.st26{opacity:0.1;fill:#590BB2;enable-background:new    ;}
	.st27{fill:#8E8CA8;}
	.st28{fill:#F5F4F9;}
	.st29{fill:#FFD5B8;}
	.st30{fill:#FC8473;}
	.st31{fill:#1C3475;}
	.st32{fill:#DDD9E4;}
	.st33{fill:#828FB3;}
	.st34{opacity:7.584635e-02;fill:url(#Path_45_);enable-background:new    ;}
	.st35{fill:#FFBE92;}
	.st36{fill:#FB8E7F;}
	.st37{fill:#FDB1A6;}
	.st38{fill:#FC806F;}
	.st39{fill:#FFE783;}
	.st40{fill:#104478;}
	.st41{fill:none;stroke:#FFFFFF;stroke-miterlimit:10;}
	.st42{fill:none;stroke:#000000;stroke-width:0.15;stroke-miterlimit:10;}
	.st43{opacity:0.1;fill:url(#Path_46_);enable-background:new    ;}
	.st44{opacity:0.1;fill:url(#Path_47_);enable-background:new    ;}
	.st45{fill-rule:evenodd;clip-rule:evenodd;fill:#FC6A55;}
	.st46{fill-rule:evenodd;clip-rule:evenodd;}
	.st47{fill:#FF6757;}
	.st48{fill:#666666;}
	.st49{fill:none;stroke:#FFFFFF;stroke-width:0.5;stroke-miterlimit:10;}
	.st50{fill:#606060;}
	.st51{fill:#F16A56;}
	.st52{fill:#515252;}
	.st53{fill:#F26A56;}
	.st54{fill:none;stroke:#F16A56;stroke-miterlimit:10;}
	.st55{fill:none;stroke:#929292;stroke-miterlimit:10;}
	.st56{fill:#929292;}
	.st57{fill:none;stroke:#000000;stroke-width:0.5;stroke-miterlimit:10;}
	.st58{fill:#A8A7A7;}
	.st59{fill:#F79F91;}
	.st60{fill:#9BDBD5;}
	.st61{fill:#222121;}
	.st62{stroke:#000000;stroke-width:0.25;stroke-miterlimit:10;}
</style>
<g>
	<path class="st4" d="M10.9,7c0-2.2-1.8-4.1-4.1-4.1S2.8,4.7,2.8,7S4.6,11,6.9,11S10.9,9.2,10.9,7z M4.2,7c0-1.5,1.2-2.7,2.7-2.7
		S9.6,5.5,9.6,7S8.4,9.7,6.9,9.7S4.2,8.5,4.2,7z"/>
	<path class="st4" d="M36.5,4.8l1-1l1,1l-1,1L36.5,4.8z"/>
	<path class="st4" d="M34.6,6.7l1-1l1,1l-1,1L34.6,6.7z"/>
	<path class="st4" d="M32.8,8.5l0.9-0.9l1,1l-0.9,0.9L32.8,8.5z"/>
	<path class="st4" d="M40,28.6h-3.7c1.1-2.3,1.7-4.8,1.7-7.4c0-3.4-1-6.7-2.9-9.5c0.5-0.4,1-0.7,1.5-1.1l4.2,4.2l1.4-1.4l-2-6.1
		l0.2-0.2c0.7-0.7,1-1.6,1-2.5c0-2-1.6-3.5-3.5-3.5c-0.9,0-1.8,0.4-2.5,1l-0.2,0.2l-6.1-2l-1.4,1.4l4.2,4.2c-0.4,0.5-0.8,1-1.1,1.5
		c-2.8-1.9-6.1-2.9-9.5-2.9c-2.6,0-5.2,0.6-7.5,1.8c-0.5-3.3-3.3-5.8-6.7-5.8c-3.7,0-6.8,3-6.8,6.8v0.2c0,1.3,0.4,2.6,1.1,3.7
		l3.6,5.4c-0.5,1.6-0.7,3.2-0.7,4.8c0,2.1,0.4,4.1,1.1,6.1H4.9c-1.1,0-2,0.9-2,2c0,0.9,0.6,1.6,1.4,1.9v1.5H0.1v2.3
		c0,4,3.2,7.2,7.2,7.2h7.5c2.8,0,5.3-1.6,6.5-4.1c2,0,4-0.4,5.9-1.1v3.2c0,1.1,0.9,2,2,2H40c1.1,0,2-0.9,2-2v-9.5
		C42,29.5,41.1,28.6,40,28.6z M32.6,30h4.1v1.4h-4.1V30z M29.2,28.6h-2c0.4-2,0.6-4.3,0.7-6.8h8.8c-0.1,2.4-0.7,4.7-1.9,6.8H29.2z
		 M21.7,36.6l0-1.2h-3l-2.2-4.3c0.4-0.2,0.8-0.6,0.9-1.1h7.9C24.6,33.6,23.2,36,21.7,36.6z M17.6,28.6c-0.2-0.6-0.8-1.1-1.4-1.3
		c-0.3-1.7-0.4-3.6-0.5-5.5h10.8c0,2.5-0.3,4.8-0.7,6.8H17.6z M5.6,20.5c0-1,0.2-2,0.4-2.9c0.3,0.2,0.6,0.2,0.9,0.2
		c0.6,0,1.3-0.3,1.6-0.9l2.1-3.2H15c-0.4,2-0.6,4.3-0.7,6.8L5.6,20.5z M16.4,13.7h9.4c0.4,2.1,0.6,4.4,0.7,6.8H15.7
		C15.7,18,16,15.7,16.4,13.7L16.4,13.7z M21.1,5.6c1.2,0,2.4,1.4,3.4,3.7L24,9.9l0.9,0.4c0.2,0.7,0.4,1.3,0.6,2.1h-8.8
		C17.7,8.2,19.5,5.6,21.1,5.6z M28.6,10.6l-2.3-1.1l0.4-0.4l2.4,0.6C28.9,10,28.7,10.3,28.6,10.6z M28,11.9C28,11.9,28,11.9,28,11.9
		c-0.1,0.2-0.1,0.4-0.1,0.5h-1c-0.1-0.4-0.2-0.8-0.3-1.2L28,11.9z M36.6,20.5h-8.8c0-2.4-0.3-4.7-0.7-6.8h1.1
		c0.3,0.4,0.8,0.7,1.4,0.7c0.2,0,0.5,0,0.7-0.1c0,0,0,0,0,0l2,4l2.3-2.3l-0.9-3.5c0,0,0.1,0,0.1-0.1C35.5,14.8,36.5,17.6,36.6,20.5
		L36.6,20.5z M32.6,13.2l0.6,2.4L32.8,16l-1.1-2.3C31.9,13.5,32.3,13.4,32.6,13.2z M40.5,12.6l-2.9-2.9c0.3-0.3,0.7-0.6,1-0.9
		L39,8.2L40.5,12.6z M37.8,2.2c1.2,0,2.2,1,2.2,2.2C40,5,39.8,5.6,39.4,6l-1.8,1.8c-2.2,2.2-4.9,4-7.8,5.3c-0.3,0.1-0.6-0.1-0.6-0.4
		c0-0.1,0-0.1,0-0.2c1.3-2.9,3-5.5,5.3-7.8l1.8-1.8v0C36.7,2.5,37.2,2.2,37.8,2.2z M29.7,1.8L34,3.2l-0.5,0.5
		c-0.3,0.3-0.6,0.7-0.9,1L29.7,1.8z M29.8,8.5l-3.5-0.9l-0.7,0.7c-0.4-1-0.9-1.8-1.5-2.4c2.1,0.4,4,1.2,5.8,2.4
		C29.8,8.4,29.8,8.4,29.8,8.5L29.8,8.5z M13.6,7.5c1.4-0.8,2.9-1.3,4.5-1.6c-1.2,1.4-2.2,3.7-2.9,6.5h-3.7l1-1.5
		C13.2,9.9,13.5,8.7,13.6,7.5z M1.5,7.2V7c0-3,2.4-5.4,5.4-5.4S12.3,4,12.3,7v0.2c0,1.1-0.3,2.1-0.9,3l-4,6c-0.2,0.3-0.8,0.3-1,0
		l-4-6C1.8,9.3,1.5,8.2,1.5,7.2z M5.5,21.8h8.8c0,1.9,0.2,3.7,0.4,5.4h-8C6,25.5,5.6,23.7,5.5,21.8z M4.9,28.6h10.8
		c0.4,0,0.7,0.3,0.7,0.7S16,30,15.7,30H4.9c-0.4,0-0.7-0.3-0.7-0.7S4.5,28.6,4.9,28.6z M5.5,31.3h9.7l2,4.1H8l-1.4-2.7H5.5V31.3z
		 M14.8,40.8H7.3c-3.2,0-5.8-2.6-5.8-5.8V34h4.3l1.4,2.7h13.2C19.6,39.1,17.3,40.8,14.8,40.8z M24,36.4c1.2-1.4,2.2-3.7,2.9-6.5h0.4
		c-0.1,0.2-0.1,0.4-0.1,0.7v4.8C26.1,35.9,25.1,36.2,24,36.4z M40.7,40.1c0,0.4-0.3,0.7-0.7,0.7H29.2c-0.4,0-0.7-0.3-0.7-0.7v-9.5
		c0-0.4,0.3-0.7,0.7-0.7h2v2.7H38V30h2c0.4,0,0.7,0.3,0.7,0.7V40.1z"/>
	<path class="st4" d="M38,38.1h1.4v1.4H38V38.1z"/>
	<path class="st4" d="M35.3,38.1h1.4v1.4h-1.4V38.1z"/>
	<path class="st4" d="M10.9,32.7h1.4V34h-1.4V32.7z"/>
	<path class="st4" d="M13.6,32.7H15V34h-1.4V32.7z"/>
	<path class="st4" d="M8.2,32.7h1.4V34H8.2V32.7z"/>
	<path class="st4" d="M17.7,23.2H19v1.4h-1.4V23.2z"/>
	<path class="st4" d="M23.1,23.2h1.4v1.4h-1.4V23.2z"/>
	<path class="st4" d="M20.4,23.2h1.4v1.4h-1.4V23.2z"/>
	<path class="st4" d="M23.1,17.8h1.4v1.4h-1.4V17.8z"/>
	<path class="st4" d="M20.4,17.8h1.4v1.4h-1.4V17.8z"/>
	<path class="st4" d="M17.7,17.8H19v1.4h-1.4V17.8z"/>
</g>
</svg>
