<?xml version="1.0" encoding="utf-8"?>
<!-- Generator: Adobe Illustrator 24.0.2, SVG Export Plug-In . SVG Version: 6.00 Build 0)  -->
<svg version="1.1" id="Layer_1" xmlns="http://www.w3.org/2000/svg" xmlns:xlink="http://www.w3.org/1999/xlink" x="0px" y="0px"
	 viewBox="0 0 58.3 58.8" style="enable-background:new 0 0 58.3 58.8;" xml:space="preserve">
<style type="text/css">
	.st0{fill:#FC6A55;}
	.st1{stroke:#FFFFFF;stroke-width:0.25;stroke-miterlimit:10;}
	.st2{fill:#656D7A;}
	.st3{fill:#FFFFFF;}
	.st4{filter:url(#Adobe_OpacityMaskFilter);}
	.st5{fill-rule:evenodd;clip-rule:evenodd;fill:#FFFFFF;}
	.st6{mask:url(#mask-2_8_);fill-rule:evenodd;clip-rule:evenodd;}
	.st7{filter:url(#Adobe_OpacityMaskFilter_1_);}
	.st8{mask:url(#mask-2_7_);fill-rule:evenodd;clip-rule:evenodd;}
	.st9{filter:url(#Adobe_OpacityMaskFilter_2_);}
	.st10{mask:url(#mask-2_6_);fill-rule:evenodd;clip-rule:evenodd;}
	.st11{filter:url(#Adobe_OpacityMaskFilter_3_);}
	.st12{mask:url(#mask-2_5_);fill-rule:evenodd;clip-rule:evenodd;}
	.st13{filter:url(#Adobe_OpacityMaskFilter_4_);}
	.st14{mask:url(#mask-2_2_);fill:none;stroke:#000000;stroke-width:2;}
	.st15{fill:#434343;}
	.st16{fill:#434343;stroke:#F9F9F9;stroke-width:0.25;stroke-miterlimit:10;}
	.st17{fill:none;stroke:#FC6A55;stroke-width:0.5;stroke-miterlimit:10;}
	.st18{fill:none;stroke:#FC6A55;stroke-width:0.75;stroke-miterlimit:10;}
	.st19{fill:#FC6A55;stroke:#FC6A55;stroke-width:0.5;stroke-miterlimit:10;}
</style>
<g>
	<path class="st0" d="M45.1,52.8h-3l-9-34.1c1.6-1.2,2.6-3.1,2.6-5.2c0-3.6-2.9-6.5-6.5-6.5s-6.5,2.9-6.5,6.5c0,2.1,1,4,2.6,5.2
		l-9,34.1h-3c-0.5,0-0.9,0.4-0.9,0.9v3.7c0,0.5,0.4,0.9,0.9,0.9h31.8c0.5,0,0.9-0.4,0.9-0.9v-3.7C46,53.2,45.6,52.8,45.1,52.8z
		 M23,34.7l0.5-2l5.7-4.2l5.7,4.2l0.5,2l-6.2,3.9L23,34.7z M27.4,39.7l-6.9,4.4l2-7.5L27.4,39.7z M24.3,29.8l1.1-4.2l2.2,1.7
		L24.3,29.8z M30.7,27.3l2.2-1.7l1.1,4.2L30.7,27.3z M35.9,36.6l2,7.5l-6.9-4.4L35.9,36.6z M24.5,13.5c0-2.6,2.1-4.7,4.7-4.7
		s4.7,2.1,4.7,4.7s-2.1,4.7-4.7,4.7S24.5,16.1,24.5,13.5z M29.2,20c0.8,0,1.5-0.1,2.2-0.4l1.1,4l-3.3,2.5l-3.3-2.5l1.1-4
		C27.6,19.9,28.4,20,29.2,20z M19.8,46.8l9.4-5.9l9.4,5.9l1.6,6H18.2L19.8,46.8z M44.1,56.5H14.2v-1.9h29.9V56.5z"/>
	<path class="st0" d="M29.2,16.3c1.5,0,2.8-1.3,2.8-2.8s-1.3-2.8-2.8-2.8c-1.5,0-2.8,1.3-2.8,2.8S27.6,16.3,29.2,16.3z M29.2,12.6
		c0.5,0,0.9,0.4,0.9,0.9c0,0.5-0.4,0.9-0.9,0.9c-0.5,0-0.9-0.4-0.9-0.9C28.2,13,28.6,12.6,29.2,12.6z"/>
	<path class="st0" d="M38.5,10.7h1.9c0-1.5-1.3-2.8-2.8-2.8v1.9C38.1,9.8,38.5,10.2,38.5,10.7z"/>
	<path class="st0" d="M42.3,10.7h1.9c0-3.6-2.9-6.5-6.5-6.5V6C40.2,6,42.3,8.1,42.3,10.7z"/>
	<path class="st0" d="M37.6,0.4v1.9c4.6,0,8.4,3.8,8.4,8.4h1.9C47.9,5,43.3,0.4,37.6,0.4z"/>
	<path class="st0" d="M19.8,10.7c0-0.5,0.4-0.9,0.9-0.9V7.9c-1.5,0-2.8,1.3-2.8,2.8H19.8z"/>
	<path class="st0" d="M20.7,4.1c-3.6,0-6.5,2.9-6.5,6.5h1.9c0-2.6,2.1-4.7,4.7-4.7V4.1z"/>
	<path class="st0" d="M20.7,2.3V0.4c-5.7,0-10.3,4.6-10.3,10.3h1.9C12.3,6,16.1,2.3,20.7,2.3z"/>
</g>
</svg>
