<?xml version="1.0" encoding="utf-8"?>
<!-- Generator: Adobe Illustrator 24.1.1, SVG Export Plug-In . SVG Version: 6.00 Build 0)  -->
<svg version="1.1" id="Layer_1" xmlns="http://www.w3.org/2000/svg" xmlns:xlink="http://www.w3.org/1999/xlink" x="0px" y="0px"
	 viewBox="0 0 38 31" style="enable-background:new 0 0 38 31;" xml:space="preserve">
<style type="text/css">
	.st0{fill:#FC6A55;}
	.st1{fill:#EDEDED;}
	.st2{fill:none;stroke:#FC6A55;stroke-miterlimit:10;}
	.st3{stroke:#FFFFFF;stroke-width:0.25;stroke-miterlimit:10;}
	.st4{fill:#656D7A;}
	.st5{fill:#FFFFFF;}
	.st6{filter:url(#Adobe_OpacityMaskFilter);}
	.st7{fill-rule:evenodd;clip-rule:evenodd;fill:#FFFFFF;}
	.st8{mask:url(#mask-2_8_);fill-rule:evenodd;clip-rule:evenodd;}
	.st9{filter:url(#Adobe_OpacityMaskFilter_1_);}
	.st10{mask:url(#mask-2_7_);fill-rule:evenodd;clip-rule:evenodd;}
	.st11{filter:url(#Adobe_OpacityMaskFilter_2_);}
	.st12{mask:url(#mask-2_6_);fill-rule:evenodd;clip-rule:evenodd;}
	.st13{filter:url(#Adobe_OpacityMaskFilter_3_);}
	.st14{mask:url(#mask-2_5_);fill-rule:evenodd;clip-rule:evenodd;}
	.st15{filter:url(#Adobe_OpacityMaskFilter_4_);}
	.st16{mask:url(#mask-2_2_);fill:none;stroke:#000000;stroke-width:2;}
	.st17{fill:#F79F91;}
	.st18{fill:#434343;}
	.st19{fill:#434343;stroke:#F9F9F9;stroke-width:0.25;stroke-miterlimit:10;}
	.st20{fill:none;stroke:#FC6A55;stroke-width:0.5;stroke-miterlimit:10;}
	.st21{fill:none;stroke:#FC6A55;stroke-width:0.75;stroke-miterlimit:10;}
	.st22{fill:#FC6A55;stroke:#FC6A55;stroke-width:0.5;stroke-miterlimit:10;}
	.st23{opacity:0.153;fill:url(#Path_36_);enable-background:new    ;}
	.st24{opacity:0.1;fill:#590BB2;enable-background:new    ;}
	.st25{fill:#8E8CA8;}
	.st26{fill:#F5F4F9;}
	.st27{fill:#FFD5B8;}
	.st28{fill:#FC8473;}
	.st29{fill:#1C3475;}
	.st30{fill:#DDD9E4;}
	.st31{fill:#828FB3;}
	.st32{opacity:7.584635e-02;fill:url(#Path_37_);enable-background:new    ;}
	.st33{fill:#FFBE92;}
	.st34{fill:#FB8E7F;}
	.st35{fill:#FDB1A6;}
	.st36{fill:#FC806F;}
	.st37{fill:#FFE783;}
	.st38{fill:#104478;}
	.st39{fill:none;stroke:#FFFFFF;stroke-miterlimit:10;}
	.st40{fill:none;stroke:#000000;stroke-width:0.15;stroke-miterlimit:10;}
	.st41{opacity:0.1;fill:url(#Path_38_);enable-background:new    ;}
	.st42{opacity:0.1;fill:url(#Path_39_);enable-background:new    ;}
	.st43{fill-rule:evenodd;clip-rule:evenodd;fill:#FC6A55;}
	.st44{fill-rule:evenodd;clip-rule:evenodd;}
	.st45{fill:#FF6757;}
	.st46{fill:#666666;}
	.st47{fill:none;stroke:#FFFFFF;stroke-width:0.5;stroke-miterlimit:10;}
	.st48{fill:#F16A56;}
	.st49{fill:#515252;}
	.st50{fill:#F26A56;}
	.st51{fill:none;stroke:#F16A56;stroke-miterlimit:10;}
	.st52{fill:none;stroke:#929292;stroke-miterlimit:10;}
	.st53{fill:#929292;}
	.st54{fill:none;stroke:#000000;stroke-width:0.5;stroke-miterlimit:10;}
	.st55{fill:#A8A7A7;}
	.st56{fill:#B4A3EE;}
	.st57{fill:#9BDBD5;}
	.st58{fill:#222121;}
</style>
<g>
	<g>
		<g>
			<g>
				<path class="st17" d="M33.5,1.1H4.5c-1.1,0-2,0.9-2,2.1v20.4c0,1.2,0.9,2.1,2,2.1h9.8l-0.4,3.3h-1.6c-0.3,0-0.5,0.2-0.5,0.5
					s0.2,0.5,0.5,0.5h13.4c0.3,0,0.5-0.2,0.5-0.5s-0.2-0.5-0.5-0.5h-1.6l-0.4-3.3h9.8c1.1,0,2-0.9,2-2.1V3.2
					C35.5,2,34.6,1.1,33.5,1.1z M14.9,28.9l0.4-3.3h1.8l0.2,0.7c0.2,0.8,0.9,1.4,1.8,1.4s1.6-0.6,1.8-1.4l0.2-0.7h1.8l0.4,3.3H14.9z
					 M18.1,25.6h1.9l-0.1,0.5c-0.1,0.4-0.4,0.7-0.8,0.7c-0.4,0-0.7-0.3-0.8-0.7L18.1,25.6z M34.5,23.5L34.5,23.5
					c0,0.6-0.5,1.1-1.1,1.1H4.5c-0.6,0-1.1-0.5-1.1-1.1V3.2c0-0.6,0.5-1.1,1.1-1.1h28.9c0.6,0,1.1,0.5,1.1,1.1L34.5,23.5L34.5,23.5z
					"/>
			</g>
		</g>
		<g>
			<g>
				<path class="st17" d="M29.8,3.2H5.1c-0.3,0-0.5,0.2-0.5,0.5V23c0,0.3,0.2,0.5,0.5,0.5h1c0.3,0,0.5-0.2,0.5-0.5
					c0-0.3-0.2-0.5-0.5-0.5H5.5V4.2h24.3c0.3,0,0.5-0.2,0.5-0.5C30.3,3.4,30.1,3.2,29.8,3.2z"/>
			</g>
		</g>
		<g>
			<g>
				<path class="st17" d="M32.9,3.2h-1c-0.3,0-0.5,0.2-0.5,0.5c0,0.3,0.2,0.5,0.5,0.5h0.5v18.3H8.2c-0.3,0-0.5,0.2-0.5,0.5
					c0,0.3,0.2,0.5,0.5,0.5h24.8c0.3,0,0.5-0.2,0.5-0.5V3.7C33.4,3.4,33.2,3.2,32.9,3.2z"/>
			</g>
		</g>
		<g>
			<g>
				<path class="st17" d="M25.6,8.8c-0.1-0.1-0.2-0.2-0.4-0.2L13.9,8c0,0,0,0,0,0c-0.1-0.2-0.2-0.4-0.4-0.6l-1.4-1
					c-0.2-0.2-0.5-0.1-0.7,0.1c-0.1,0.2-0.1,0.5,0.1,0.7l1.4,1c0,0,0,0,0,0l1.8,6.4c0.1,0.2,0.1,0.4,0.3,0.5l-0.6,1.3
					c-0.2,0.3-0.1,0.7,0,1c0.1,0.1,0.2,0.2,0.2,0.3c-0.1,0.2-0.2,0.5-0.2,0.8c0,0.9,0.7,1.6,1.5,1.6c0.8,0,1.5-0.7,1.5-1.6
					c0-0.2,0-0.4-0.1-0.6h4.4c-0.1,0.2-0.1,0.4-0.1,0.6c0,0.9,0.7,1.6,1.5,1.6c0.8,0,1.5-0.7,1.5-1.6c0-0.3-0.1-0.5-0.2-0.7
					c0.1-0.1,0.2-0.2,0.2-0.4c0-0.3-0.2-0.5-0.5-0.5h-9c0,0,0,0,0,0c0,0,0,0,0,0l0.6-1.2c0.1,0,0.2,0,0.4,0c0.1,0,0.1,0,0.2,0
					l6.8-0.8c0.9-0.1,1.6-0.8,1.8-1.7l0.8-4.2C25.7,9,25.7,8.9,25.6,8.8z M23.1,18.1c0.3,0,0.5,0.3,0.5,0.6c0,0.3-0.2,0.6-0.5,0.6
					c-0.3,0-0.5-0.3-0.5-0.6S22.8,18.1,23.1,18.1z M15.9,18.1c0.3,0,0.5,0.3,0.5,0.6c0,0.3-0.2,0.6-0.5,0.6c-0.3,0-0.5-0.3-0.5-0.6
					S15.6,18.1,15.9,18.1z M14.7,11.2l-0.6-2.2L16,9.1l0.3,2.1H14.7z M16.2,14.9c-0.3,0-0.5-0.1-0.6-0.4L15,12.3h1.5l0.4,2.6
					L16.2,14.9z M19,14.6l-1.1,0.1l-0.4-2.4H19V14.6z M19,11.2h-1.7L17,9.2l2,0.1V11.2z M21.5,14.3L20,14.4v-2.2h1.7L21.5,14.3z
					 M21.7,11.2H20V9.3l1.9,0.1L21.7,11.2z M23.9,13.2c-0.1,0.5-0.5,0.8-0.9,0.9l-0.5,0.1l0.2-1.9h1.5L23.9,13.2z M24.3,11.2h-1.6
					l0.2-1.8l1.7,0.1L24.3,11.2z"/>
			</g>
		</g>
	</g>
</g>
</svg>
