<?xml version="1.0" encoding="utf-8"?>
<!-- Generator: Adobe Illustrator 24.1.1, SVG Export Plug-In . SVG Version: 6.00 Build 0)  -->
<svg version="1.1" id="Layer_1" xmlns="http://www.w3.org/2000/svg" xmlns:xlink="http://www.w3.org/1999/xlink" x="0px" y="0px"
	 viewBox="0 0 38 31" style="enable-background:new 0 0 38 31;" xml:space="preserve">
<style type="text/css">
	.st0{fill:#FC6A55;}
	.st1{fill:#EDEDED;}
	.st2{fill:none;stroke:#FC6A55;stroke-miterlimit:10;}
	.st3{stroke:#FFFFFF;stroke-width:0.25;stroke-miterlimit:10;}
	.st4{fill:#656D7A;}
	.st5{fill:#FFFFFF;}
	.st6{filter:url(#Adobe_OpacityMaskFilter);}
	.st7{fill-rule:evenodd;clip-rule:evenodd;fill:#FFFFFF;}
	.st8{mask:url(#mask-2_8_);fill-rule:evenodd;clip-rule:evenodd;}
	.st9{filter:url(#Adobe_OpacityMaskFilter_1_);}
	.st10{mask:url(#mask-2_7_);fill-rule:evenodd;clip-rule:evenodd;}
	.st11{filter:url(#Adobe_OpacityMaskFilter_2_);}
	.st12{mask:url(#mask-2_6_);fill-rule:evenodd;clip-rule:evenodd;}
	.st13{filter:url(#Adobe_OpacityMaskFilter_3_);}
	.st14{mask:url(#mask-2_5_);fill-rule:evenodd;clip-rule:evenodd;}
	.st15{filter:url(#Adobe_OpacityMaskFilter_4_);}
	.st16{mask:url(#mask-2_2_);fill:none;stroke:#000000;stroke-width:2;}
	.st17{fill:#F79F91;}
	.st18{fill:#434343;}
	.st19{fill:#434343;stroke:#F9F9F9;stroke-width:0.25;stroke-miterlimit:10;}
	.st20{fill:none;stroke:#FC6A55;stroke-width:0.5;stroke-miterlimit:10;}
	.st21{fill:none;stroke:#FC6A55;stroke-width:0.75;stroke-miterlimit:10;}
	.st22{fill:#FC6A55;stroke:#FC6A55;stroke-width:0.5;stroke-miterlimit:10;}
	.st23{opacity:0.153;fill:url(#Path_36_);enable-background:new    ;}
	.st24{opacity:0.1;fill:#590BB2;enable-background:new    ;}
	.st25{fill:#8E8CA8;}
	.st26{fill:#F5F4F9;}
	.st27{fill:#FFD5B8;}
	.st28{fill:#FC8473;}
	.st29{fill:#1C3475;}
	.st30{fill:#DDD9E4;}
	.st31{fill:#828FB3;}
	.st32{opacity:7.584635e-02;fill:url(#Path_37_);enable-background:new    ;}
	.st33{fill:#FFBE92;}
	.st34{fill:#FB8E7F;}
	.st35{fill:#FDB1A6;}
	.st36{fill:#FC806F;}
	.st37{fill:#FFE783;}
	.st38{fill:#104478;}
	.st39{fill:none;stroke:#FFFFFF;stroke-miterlimit:10;}
	.st40{fill:none;stroke:#000000;stroke-width:0.15;stroke-miterlimit:10;}
	.st41{opacity:0.1;fill:url(#Path_38_);enable-background:new    ;}
	.st42{opacity:0.1;fill:url(#Path_39_);enable-background:new    ;}
	.st43{fill-rule:evenodd;clip-rule:evenodd;fill:#FC6A55;}
	.st44{fill-rule:evenodd;clip-rule:evenodd;}
	.st45{fill:#FF6757;}
	.st46{fill:#666666;}
	.st47{fill:none;stroke:#FFFFFF;stroke-width:0.5;stroke-miterlimit:10;}
	.st48{fill:#F16A56;}
	.st49{fill:#515252;}
	.st50{fill:#F26A56;}
	.st51{fill:none;stroke:#F16A56;stroke-miterlimit:10;}
	.st52{fill:none;stroke:#929292;stroke-miterlimit:10;}
	.st53{fill:#929292;}
	.st54{fill:none;stroke:#000000;stroke-width:0.5;stroke-miterlimit:10;}
	.st55{fill:#A8A7A7;}
	.st56{fill:#B4A3EE;}
	.st57{fill:#9BDBD5;}
	.st58{fill:#222121;}
</style>
<g>
	<g>
		<path class="st17" d="M30.7,20.7l-3.5-0.8v-0.9c0.4-0.3,0.7-0.7,0.9-1.1h0.5c1.3,0,2.3-1.1,2.3-2.4c0-0.5-0.2-1-0.5-1.4v-1.9
			C30.5,9,28,6.5,25,6.5s-5.5,2.6-5.5,5.7v1.9C19.2,14.5,19,15,19,15.5c0,1.3,1,2.4,2.3,2.4h0.5c0.2,0.4,0.5,0.8,0.9,1.1v0.9
			l-3.5,0.8c-0.2,0.1-0.4,0.1-0.7,0.2v-2.6c0-0.8-0.6-1.4-1.4-1.4h-11c-0.8,0-1.4,0.6-1.4,1.4v8.6c0,0.8,0.6,1.4,1.4,1.4h3.7v1H8.9
			v1h24.3V24C33.2,22.4,32.2,21.1,30.7,20.7z M23,20.8l1.1,0.9L23,22.3l-0.2-1.5L23,20.8z M24.5,24.5h1l0.4,4.8h-1.8L24.5,24.5z
			 M25.5,23.6h-1.2l-0.3-0.8l0.9-0.5l0.8,0.5L25.5,23.6z M25.8,21.6l1.1-0.9l0.3,0.1l-0.3,1.5L25.8,21.6z M28.6,16.9h-0.1
			c0.1-0.3,0.1-0.6,0.1-1v-1.9c0.8,0,1.4,0.6,1.4,1.4S29.4,16.9,28.6,16.9z M25,7.4c2.5,0,4.6,2.1,4.6,4.8v1.2
			c-0.3-0.1-0.6-0.2-0.9-0.2v-1h-0.9v0.3c-0.3,0.3-0.7,0.5-1.1,0.6c0,0,0,0,0.1-0.1L26,12.3c-0.3,0.4-0.8,0.6-1.2,0.7
			c0,0,0,0,0.1-0.1l-0.6-0.7c-0.5,0.5-1.2,0.8-1.9,0.8h-0.1v-1h-0.9v1c-0.3,0-0.6,0.1-0.9,0.2v-1.2C20.4,9.5,22.4,7.4,25,7.4z
			 M21.3,16.9c-0.8,0-1.4-0.6-1.4-1.4s0.6-1.4,1.4-1.4V16c0,0.3,0,0.6,0.1,1H21.3z M22.2,16v-1.9h0.1c0.4,0,0.9-0.1,1.3-0.3v0.3h0.5
			c0.4,0,0.9-0.1,1.3-0.3v0.3H26c0.6,0,1.2-0.2,1.8-0.5V16c0,0.3-0.1,0.7-0.2,1H25v1h2c-0.5,0.6-1.2,1-2,1
			C23.4,18.8,22.2,17.6,22.2,16z M25,19.8c0.5,0,1-0.1,1.4-0.3V20L25,21.1L23.6,20v-0.5C24,19.7,24.5,19.8,25,19.8z M19.4,21.6
			l2.5-0.6l0.5,2.8l1-0.6l0.3,0.9l-0.4,5.2h-2.3v-5.2h-0.9v5.2h-2.3v-1c0.5-0.2,0.9-0.7,0.9-1.3v-4.9C18.8,21.9,19.1,21.7,19.4,21.6
			z M13.5,28.3h3.2v1h-3.2V28.3z M6.2,27.4c-0.3,0-0.5-0.2-0.5-0.5v-8.6c0-0.3,0.2-0.5,0.5-0.5h11c0.3,0,0.5,0.2,0.5,0.5v8.6
			c0,0.3-0.2,0.5-0.5,0.5h-3.7v-1c0-1-0.8-1.9-1.8-1.9s-1.8,0.9-1.8,1.9v1H6.2z M10.7,26.4c0-0.5,0.4-1,0.9-1c0.5,0,0.9,0.4,0.9,1
			v2.9h-1.8V26.4z M32.3,29.3H30v-5.2h-0.9v5.2h-2.3l-0.4-5.2l0.3-0.9l1,0.6l0.5-2.8l2.4,0.6c1,0.3,1.8,1.2,1.8,2.3V29.3z"/>
		<path class="st17" d="M16.2,10.5c0-0.6-0.4-1.2-0.9-1.4l-1.8-0.6V7.9c0.6-0.4,0.9-1.1,0.9-1.9V5c0-1.3-1-2.4-2.3-2.4
			S9.8,3.7,9.8,5v1c0,0.8,0.4,1.5,0.9,1.9v0.6L8.9,9.1C8.4,9.3,8,9.9,8,10.5v2.6h8.3V10.5z M10.7,5c0-0.8,0.6-1.4,1.4-1.4
			s1.4,0.6,1.4,1.4v1c0,0.8-0.6,1.4-1.4,1.4S10.7,6.8,10.7,6V5z M15.3,12.2H8.9v-1.7c0-0.2,0.1-0.4,0.3-0.5l2.4-0.8V8.3
			c0.1,0,0.3,0,0.5,0s0.3,0,0.5,0v0.9L15,10c0.2,0.1,0.3,0.2,0.3,0.5V12.2z"/>
		<path class="st17" d="M12.1,16c4,0,7.3-3.4,7.3-7.6s-3.3-7.6-7.3-7.6S4.8,4.2,4.8,8.4S8.1,16,12.1,16z M12.1,1.7
			c3.5,0,6.4,3,6.4,6.7S15.7,15,12.1,15s-6.4-3-6.4-6.7S8.6,1.7,12.1,1.7z"/>
		<path class="st17" d="M21.8,3.6h0.9v1h-0.9V3.6z"/>
		<path class="st17" d="M24.5,3.6h0.9v1h-0.9V3.6z"/>
		<path class="st17" d="M27.3,3.6h0.9v1h-0.9V3.6z"/>
	</g>
</g>
</svg>
