<?xml version="1.0" encoding="utf-8"?>
<!-- Generator: Adobe Illustrator 24.1.1, SVG Export Plug-In . SVG Version: 6.00 Build 0)  -->
<svg version="1.1" id="Layer_1" xmlns="http://www.w3.org/2000/svg" xmlns:xlink="http://www.w3.org/1999/xlink" x="0px" y="0px"
	 viewBox="0 0 86 73" style="enable-background:new 0 0 86 73;" xml:space="preserve">
<style type="text/css">
	.st0{fill:#FC6A55;}
	.st1{fill:#EDEDED;}
	.st2{fill:none;stroke:#FC6A55;stroke-miterlimit:10;}
	.st3{fill:#222F3F;}
	.st4{fill:#383838;}
	.st5{fill:#FFFFFF;}
	.st6{fill:#656D7A;}
	.st7{fill:#C4C4C4;}
	.st8{filter:url(#Adobe_OpacityMaskFilter);}
	.st9{fill-rule:evenodd;clip-rule:evenodd;fill:#FFFFFF;}
	.st10{mask:url(#mask-2_8_);fill-rule:evenodd;clip-rule:evenodd;fill:#FFFFFF;}
	.st11{filter:url(#Adobe_OpacityMaskFilter_1_);}
	.st12{mask:url(#mask-2_7_);fill-rule:evenodd;clip-rule:evenodd;fill:#FFFFFF;}
	.st13{filter:url(#Adobe_OpacityMaskFilter_2_);}
	.st14{mask:url(#mask-2_6_);fill-rule:evenodd;clip-rule:evenodd;fill:#FFFFFF;}
	.st15{filter:url(#Adobe_OpacityMaskFilter_3_);}
	.st16{mask:url(#mask-2_5_);fill-rule:evenodd;clip-rule:evenodd;fill:#FFFFFF;}
	.st17{filter:url(#Adobe_OpacityMaskFilter_4_);}
	.st18{mask:url(#mask-2_2_);fill:none;stroke:#FFFFFF;stroke-width:1.5;stroke-miterlimit:10;}
	.st19{fill:#B4A3EE;}
	.st20{fill:#434343;}
	.st21{fill:#434343;stroke:#F9F9F9;stroke-width:0.25;stroke-miterlimit:10;}
	.st22{fill:none;stroke:#FC6A55;stroke-width:0.75;stroke-miterlimit:10;}
	.st23{fill:#FC6A55;stroke:#FC6A55;stroke-width:0.25;stroke-miterlimit:10;}
	.st24{fill:#FC6A55;stroke:#FC6A55;stroke-width:0.5;stroke-miterlimit:10;}
	.st25{opacity:0.5;fill:#FC6A55;}
	.st26{fill:#F5F4F9;}
	.st27{opacity:0.153;fill:url(#Path_144_);enable-background:new    ;}
	.st28{opacity:0.1;fill:#590BB2;enable-background:new    ;}
	.st29{fill:#8E8CA8;}
	.st30{fill:#FFD5B8;}
	.st31{fill:#FC8473;}
	.st32{fill:#1C3475;}
	.st33{fill:#DDD9E4;}
	.st34{fill:#828FB3;}
	.st35{opacity:7.584635e-02;fill:url(#Path_145_);enable-background:new    ;}
	.st36{fill:#FFBE92;}
	.st37{fill:#FB8E7F;}
	.st38{fill:#FDB1A6;}
	.st39{fill:#FC806F;}
	.st40{fill:#FFE783;}
	.st41{fill:#104478;}
	.st42{fill:none;stroke:#FFFFFF;stroke-miterlimit:10;}
	.st43{fill:none;stroke:#000000;stroke-width:0.15;stroke-miterlimit:10;}
	.st44{opacity:0.3;fill:#FC6A55;}
	.st45{opacity:0.1;fill:url(#Path_147_);enable-background:new    ;}
	.st46{opacity:0.1;fill:url(#Path_150_);enable-background:new    ;}
	.st47{fill-rule:evenodd;clip-rule:evenodd;fill:#FC6A55;}
	.st48{fill-rule:evenodd;clip-rule:evenodd;}
	.st49{fill:#FF6757;}
	.st50{fill:#6C973D;}
	.st51{fill:none;stroke:#FFFFFF;stroke-width:0.5;stroke-miterlimit:10;}
	.st52{fill:#606060;}
	.st53{fill:#F16A56;}
	.st54{fill:#515252;}
	.st55{fill:#656565;}
	.st56{fill:#F26A56;}
	.st57{fill:none;stroke:#F16A56;stroke-miterlimit:10;}
	.st58{fill:none;stroke:#929292;stroke-miterlimit:10;}
	.st59{fill:#929292;}
	.st60{fill:none;stroke:#000000;stroke-width:0.5;stroke-miterlimit:10;}
	.st61{fill:#A8A7A7;}
	.st62{opacity:0.4;fill:#FC6A55;}
	.st63{fill:#F79F91;}
	.st64{fill:#9BDBD5;}
	.st65{fill:#222121;}
	.st66{stroke:#000000;stroke-width:0.25;stroke-miterlimit:10;}
</style>
<path class="st5" d="M42.1,7.9h4.7v2.3h-4.7V7.9z"/>
<path class="st5" d="M42.1,12.6h-4.7v4.7h4.7v4.7h4.7v-4.7h4.7v-4.7h-4.7v-2.3h-4.7V12.6z"/>
<path class="st5" d="M36.2,58.3h16.4v7H36.2V58.3z"/>
<path class="st5" d="M29.2,65.4c-1.3,0-2.3,1.1-2.3,2.3V70h35.2v-2.3c0-1.3-1.1-2.3-2.3-2.3H29.2z"/>
<path class="st0" d="M73.8,9h-5.9v2.3h5.9c1.9,0,3.5,1.6,3.5,3.5v32.9H66.7V12.1L56.7,2H22.2v45.8H11.6v-34c0-0.6,0-2.3,3.5-2.3h4.7
	V9h-4.7c-3.7,0-5.9,1.8-5.9,4.7v39.9c0,3.2,2.6,5.9,5.9,5.9h19.9v4.7h-5.9c-1.9,0-3.5,1.6-3.5,3.5v1.2h-2.3v2.3h42.2v-2.3h-2.3v-1.2
	c0-1.9-1.6-3.5-3.5-3.5h-5.9v-4.7h19.9c3.2,0,5.9-2.6,5.9-5.9V14.9C79.6,11.7,77,9,73.8,9z M57.4,6l5.4,5.4h-5.4V6z M24.5,4.3H55
	v9.4h9.4v34H24.5V4.3z M59.7,66.5c0.6,0,1.2,0.5,1.2,1.2v1.2H28v-1.2c0-0.6,0.5-1.2,1.2-1.2H59.7z M37.4,64.2v-4.7h14.1v4.7H37.4z
	 M77.3,53.6c0,1.9-1.6,3.5-3.5,3.5H15.1c-1.9,0-3.5-1.6-3.5-3.5v-3.5h65.7V53.6z"/>
<path class="st0" d="M48,53.6c0-1.9-1.6-3.5-3.5-3.5c-1.9,0-3.5,1.6-3.5,3.5c0,1.9,1.6,3.5,3.5,3.5C46.4,57.1,48,55.6,48,53.6z
	 M44.5,54.8c-0.6,0-1.2-0.5-1.2-1.2s0.5-1.2,1.2-1.2s1.2,0.5,1.2,1.2S45.1,54.8,44.5,54.8z"/>
<path class="st0" d="M40.9,27.1h7v-4.7h4.7v-7H48v-4.7h-7v4.7h-4.7v7h4.7V27.1z M38.6,20.1v-2.3h4.7V13h2.3v4.7h4.7v2.3h-4.7v4.7
	h-2.3v-4.7H38.6z"/>
<path class="st25" d="M34.9,31.3h18.8v2.3H34.9V31.3z"/>
<path class="st25" d="M34.9,36h18.8v2.3H34.9V36z"/>
<path class="st25" d="M34.9,40.7h18.8v2.3H34.9V40.7z"/>
<path class="st25" d="M32.9,31.7H34v1.5h-1.1V31.7z"/>
<path class="st25" d="M32.9,36.4H34V38h-1.1V36.4z"/>
<path class="st25" d="M32.9,41.1H34v1.5h-1.1V41.1z"/>
</svg>
