<?xml version="1.0" encoding="utf-8"?>
<!-- Generator: Adobe Illustrator 24.1.1, SVG Export Plug-In . SVG Version: 6.00 Build 0)  -->
<svg version="1.1" id="Layer_1" xmlns="http://www.w3.org/2000/svg" xmlns:xlink="http://www.w3.org/1999/xlink" x="0px" y="0px"
	 viewBox="0 0 42 51" style="enable-background:new 0 0 42 51;" xml:space="preserve">
<style type="text/css">
	.st0{fill:#FC6A55;}
	.st1{fill:#EDEDED;}
	.st2{fill:none;stroke:#FC6A55;stroke-miterlimit:10;}
	.st3{fill:#222F3F;}
	.st4{fill:#383838;}
	.st5{fill:#FFFFFF;}
	.st6{fill:#656D7A;}
	.st7{fill:#C4C4C4;}
	.st8{filter:url(#Adobe_OpacityMaskFilter);}
	.st9{fill-rule:evenodd;clip-rule:evenodd;fill:#FFFFFF;}
	.st10{mask:url(#mask-2_8_);fill-rule:evenodd;clip-rule:evenodd;fill:#FFFFFF;}
	.st11{filter:url(#Adobe_OpacityMaskFilter_1_);}
	.st12{mask:url(#mask-2_7_);fill-rule:evenodd;clip-rule:evenodd;fill:#FFFFFF;}
	.st13{filter:url(#Adobe_OpacityMaskFilter_2_);}
	.st14{mask:url(#mask-2_6_);fill-rule:evenodd;clip-rule:evenodd;fill:#FFFFFF;}
	.st15{filter:url(#Adobe_OpacityMaskFilter_3_);}
	.st16{mask:url(#mask-2_5_);fill-rule:evenodd;clip-rule:evenodd;fill:#FFFFFF;}
	.st17{filter:url(#Adobe_OpacityMaskFilter_4_);}
	.st18{mask:url(#mask-2_2_);fill:none;stroke:#FFFFFF;stroke-width:1.5;stroke-miterlimit:10;}
	.st19{fill:#B4A3EE;}
	.st20{fill:#434343;}
	.st21{fill:#434343;stroke:#F9F9F9;stroke-width:0.25;stroke-miterlimit:10;}
	.st22{fill:none;stroke:#FC6A55;stroke-width:0.75;stroke-miterlimit:10;}
	.st23{fill:#FC6A55;stroke:#FC6A55;stroke-width:0.25;stroke-miterlimit:10;}
	.st24{fill:#FC6A55;stroke:#FC6A55;stroke-width:0.5;stroke-miterlimit:10;}
	.st25{opacity:0.5;fill:#FC6A55;}
	.st26{fill:#F5F4F9;}
	.st27{opacity:0.153;fill:url(#Path_144_);enable-background:new    ;}
	.st28{opacity:0.1;fill:#590BB2;enable-background:new    ;}
	.st29{fill:#8E8CA8;}
	.st30{fill:#FFD5B8;}
	.st31{fill:#FC8473;}
	.st32{fill:#1C3475;}
	.st33{fill:#DDD9E4;}
	.st34{fill:#828FB3;}
	.st35{opacity:7.584635e-02;fill:url(#Path_145_);enable-background:new    ;}
	.st36{fill:#FFBE92;}
	.st37{fill:#FB8E7F;}
	.st38{fill:#FDB1A6;}
	.st39{fill:#FC806F;}
	.st40{fill:#FFE783;}
	.st41{fill:#104478;}
	.st42{fill:none;stroke:#FFFFFF;stroke-miterlimit:10;}
	.st43{fill:none;stroke:#000000;stroke-width:0.15;stroke-miterlimit:10;}
	.st44{opacity:0.3;fill:#FC6A55;}
	.st45{opacity:0.1;fill:url(#Path_147_);enable-background:new    ;}
	.st46{opacity:0.1;fill:url(#Path_150_);enable-background:new    ;}
	.st47{fill-rule:evenodd;clip-rule:evenodd;fill:#FC6A55;}
	.st48{fill-rule:evenodd;clip-rule:evenodd;}
	.st49{fill:#FF6757;}
	.st50{fill:#6C973D;}
	.st51{fill:none;stroke:#FFFFFF;stroke-width:0.5;stroke-miterlimit:10;}
	.st52{fill:#606060;}
	.st53{fill:#F16A56;}
	.st54{fill:#515252;}
	.st55{fill:#656565;}
	.st56{fill:#F26A56;}
	.st57{fill:none;stroke:#F16A56;stroke-miterlimit:10;}
	.st58{fill:none;stroke:#929292;stroke-miterlimit:10;}
	.st59{fill:#929292;}
	.st60{fill:none;stroke:#000000;stroke-width:0.5;stroke-miterlimit:10;}
	.st61{fill:#A8A7A7;}
	.st62{opacity:0.4;fill:#FC6A55;}
	.st63{fill:#F79F91;}
	.st64{fill:#9BDBD5;}
	.st65{fill:#222121;}
	.st66{stroke:#000000;stroke-width:0.25;stroke-miterlimit:10;}
</style>
<g>
	<path class="st41" d="M33.1,2.1h-5.4l-1.1,15.4h-1.1v-4.4h-1.3L23.2,1h-5.4l-0.4,5.7l-0.1,0.1c-0.8-0.5-1.6-0.8-2.5-1l-0.5-0.9
		h-3.9L9.8,5.7C9,5.9,8.1,6.3,7.3,6.7L6,6.1L3.1,8.9l0.7,1.3c-0.4,0.8-0.8,1.6-1,2.4l-1.4,0.5v4.1l1.4,0.5c0.2,0.9,0.6,1.7,1,2.4
		l-0.7,1.3L6,24.4l1.4-0.7c0.5,0.3,1.2,0.7,1.7,1v2.6h26.3v-9.9h-1.1L33.1,2.1z M32.1,3.2l0.2,2.2h-3.7l0.2-2.2H32.1z M28.5,6.5h3.8
		l0.8,11h-5.4L28.5,6.5z M9,13.1v7.9c-2-1.2-3.3-3.3-3.3-5.7c0-3.6,3-6.6,6.6-6.6c1.8,0,3.5,0.8,4.8,2.1l-0.2,2.3H9z M18.6,5.4h3.9
		l0.6,7.7H18L18.6,5.4z M22.2,2.1l0.2,2.2h-3.7l0.2-2.2H22.2z M7.6,22.7l-0.3-0.2l-1.2,0.6l-1.8-1.8L5,20.2l-0.2-0.3
		c-0.5-0.8-0.9-1.7-1.1-2.7l-0.1-0.3l-1.3-0.4V14l1.3-0.4l0.1-0.3c0.2-0.9,0.6-1.8,1.1-2.7L5,10.3L4.4,9.2l1.8-1.8L7.4,8l0.3-0.2
		c0.8-0.5,1.7-0.9,2.7-1.1l0.2-0.1L11,5.9h2.6L14,6.7l0.2,0.1c0.9,0.2,1.8,0.6,2.7,1.1L17.2,8l0.1,0l-0.1,1.4
		c-1.4-1.1-3.1-1.8-4.9-1.8c-4.2,0-7.7,3.4-7.7,7.7c0,3,1.7,5.7,4.4,6.9v1.3C8.5,23.2,7.8,22.8,7.6,22.7L7.6,22.7z M15.6,26.2h-5.5
		V14.2h14.3v3.3h-6.3L15.6,20V26.2z M21.1,26.2h-2.2v-3.3h2.2V26.2z M26.5,26.2h-2.2v-3.3h2.2V26.2z M32,26.2h-2.2v-3.3H32V26.2z
		 M33.1,26.2v-4.4h-4.4v4.4h-1.1v-4.4h-4.4v4.4h-1.1v-4.4h-4.4v4.4h-1.1v-5.5h17.5v5.5H33.1z M34.2,19.6H17.5l1.1-1.1h15.7V19.6z"/>
	<path class="st41" d="M20,15.3h1.1v1.1H20V15.3z"/>
	<path class="st41" d="M22.2,15.3h1.1v1.1h-1.1V15.3z"/>
	<path class="st41" d="M17.8,15.3h1.1v1.1h-1.1V15.3z"/>
	<path class="st41" d="M15.6,15.3h1.1v1.1h-1.1V15.3z"/>
	<path class="st41" d="M11.2,15.3h1.1v1.1h-1.1V15.3z"/>
	<path class="st41" d="M13.4,15.3h1.1v1.1h-1.1V15.3z"/>
	<path class="st41" d="M13.4,17.4h1.1v1.1h-1.1V17.4z"/>
	<path class="st41" d="M11.2,17.4h1.1v1.1h-1.1V17.4z"/>
	<path class="st41" d="M13.4,19.6h1.1v1.1h-1.1V19.6z"/>
	<path class="st41" d="M11.2,19.6h1.1v1.1h-1.1V19.6z"/>
	<path class="st41" d="M11.2,21.8h1.1v1.1h-1.1V21.8z"/>
	<path class="st41" d="M13.4,21.8h1.1v1.1h-1.1V21.8z"/>
	<path class="st41" d="M13.4,24h1.1v1.1h-1.1V24z"/>
	<path class="st41" d="M11.2,24h1.1v1.1h-1.1V24z"/>
	<path class="st41" d="M20,6.5h1.1v1.1H20V6.5z"/>
	<path class="st41" d="M20,10.9h1.1V12H20V10.9z"/>
	<path class="st41" d="M20,8.7h1.1v1.1H20V8.7z"/>
	<path class="st41" d="M29.8,7.6h1.1v1.1h-1.1V7.6z"/>
	<path class="st41" d="M29.8,12h1.1v1.1h-1.1V12z"/>
	<path class="st41" d="M29.8,9.8h1.1v1.1h-1.1V9.8z"/>
	<path class="st41" d="M29.8,14.2h1.1v1.1h-1.1V14.2z"/>
</g>
<g id="Labor-2">
	<path class="st41" d="M6.8,38.9h1.9c0.2,0,0.3-0.1,0.3-0.3v-0.6h0.6v0.6c0,0.2,0.1,0.3,0.3,0.3h2.2c0.2,0,0.3-0.1,0.3-0.3
		c0-0.2-0.1-0.3-0.3-0.3h-1.9v-0.3c0-0.3-0.2-0.6-0.6-0.6H9.1c-0.3,0-0.6,0.2-0.6,0.6v0.3H6.8c-0.2,0-0.3,0.1-0.3,0.3
		C6.6,38.8,6.7,38.9,6.8,38.9z"/>
	<path class="st41" d="M15.6,46.5c-0.1-1.3-1.2-2.3-2.5-2.3H11c-0.2,0-0.3-0.1-0.3-0.3v-0.3c0.9-0.5,1.6-1.4,1.7-2.5
		c0.5-0.1,0.8-0.6,0.8-1.1c0.5,0,0.8-0.4,0.8-0.8s-0.4-0.8-0.8-0.8c0-1.7-1.1-3.2-2.8-3.7c-0.1-0.4-0.4-0.7-0.8-0.7H9.1
		c-0.4,0-0.8,0.3-0.8,0.7c-1.7,0.5-2.8,2-2.8,3.7c-0.5,0-0.8,0.4-0.8,0.8S5,40,5.4,40c0,0.5,0.3,1,0.8,1.1c0.1,1.1,0.7,2,1.7,2.5
		v0.3c0,0.2-0.1,0.3-0.3,0.3H5.5c-1.3,0-2.4,1-2.5,2.3l-0.4,3.8c0,0.1,0,0.2,0.1,0.2c0.1,0.1,0.1,0.1,0.2,0.1h12.8
		c0.1,0,0.2,0,0.2-0.1c0.1-0.1,0.1-0.1,0.1-0.2L15.6,46.5z M10.9,45.2l0.2,0.9L10,45.9C10.4,45.8,10.7,45.5,10.9,45.2z M10.6,44.6
		l-0.1,0.1c-0.2,0.4-0.5,0.6-0.9,0.7l-0.3,0.1L9,45.5c-0.4-0.1-0.7-0.4-0.9-0.7l-0.1-0.1c0.3-0.1,0.4-0.4,0.4-0.7v-0.1
		c0.5,0.2,1.1,0.2,1.7,0v0.1C10.2,44.2,10.3,44.5,10.6,44.6z M12.4,40.5V40h0.3C12.7,40.2,12.6,40.4,12.4,40.5z M6.3,40.5
		C6.1,40.4,6,40.2,6,40h0.3V40.5z M5.4,39.5c-0.2,0-0.3-0.1-0.3-0.3c0-0.2,0.1-0.3,0.3-0.3c0,0.2,0.1,0.3,0.3,0.3
		c0.2,0,0.3-0.1,0.3-0.3v-0.6c0-1.1,0.5-2.1,1.4-2.7v0.5c0,0.2,0.1,0.3,0.3,0.3c0.2,0,0.3-0.1,0.3-0.3v-0.8c0.1,0,0.2-0.1,0.3-0.1
		V37c0,0.2,0.1,0.3,0.3,0.3s0.3-0.1,0.3-0.3v-2.2c0-0.2,0.1-0.3,0.3-0.3h0.6c0.2,0,0.3,0.1,0.3,0.3V37c0,0.2,0.1,0.3,0.3,0.3
		c0.2,0,0.3-0.1,0.3-0.3v-1.8c0.1,0,0.2,0.1,0.3,0.1v0.8c0,0.2,0.1,0.3,0.3,0.3c0.2,0,0.3-0.1,0.3-0.3v-0.5c0.9,0.6,1.4,1.6,1.4,2.7
		v0.6c0,0.2,0.1,0.3,0.3,0.3s0.3-0.1,0.3-0.3c0.2,0,0.3,0.1,0.3,0.3c0,0.2-0.1,0.3-0.3,0.3H5.4z M6.8,40.9V40h1.1
		c-0.2,0-0.3,0.1-0.3,0.3c0,0.2,0.1,0.3,0.3,0.3h0.3c0.2,0,0.3-0.1,0.3-0.3c0-0.2-0.1-0.3-0.3-0.3h2.2c-0.2,0-0.3,0.1-0.3,0.3
		c0,0.2,0.1,0.3,0.3,0.3h0.3c0.2,0,0.3-0.1,0.3-0.3c0-0.2-0.1-0.3-0.3-0.3h1.1v0.8c0,1.4-1.1,2.5-2.5,2.5S6.8,42.2,6.8,40.9z
		 M7.7,45.2c0.2,0.3,0.5,0.6,0.9,0.7l-1.1,0.1L7.7,45.2z M13.2,50v-2.2c0-0.2-0.1-0.3-0.3-0.3s-0.3,0.1-0.3,0.3V50H6v-1.9
		c0-0.2-0.1-0.3-0.3-0.3c-0.2,0-0.3,0.1-0.3,0.3V50H3.2l0.3-3.5c0.1-1,0.9-1.8,1.9-1.8h1.8l-0.5,1.6c0,0.1,0,0.3,0.2,0.3
		c0,0,0.1,0,0.1,0l2.2-0.3l2.2,0.3c0,0,0,0,0,0c0.1,0,0.2,0,0.2-0.1c0.1-0.1,0.1-0.2,0.1-0.3l-0.5-1.6h1.8c1,0,1.8,0.8,1.9,1.8
		l0.3,3.5H13.2z"/>
	<path class="st41" d="M10.7,41.8L10.7,41.8c0.1-0.2,0-0.4-0.2-0.4c0,0-0.1,0-0.1,0H8.2c-0.2,0-0.3,0.1-0.3,0.3c0,0,0,0.1,0,0.1
		l0,0.1c0.2,0.6,0.7,1,1.3,0.9h0.1C10,42.8,10.5,42.4,10.7,41.8z M8.7,42H10c-0.2,0.2-0.4,0.3-0.6,0.3H9.3C9.1,42.2,8.8,42.1,8.7,42
		z"/>
	<path class="st41" d="M12.1,48.4c-0.2,0-0.3,0.1-0.3,0.3v0.3h-1.1v-0.3c0-0.2-0.1-0.3-0.3-0.3c-0.2,0-0.3,0.1-0.3,0.3v0.6
		c0,0.2,0.1,0.3,0.3,0.3h1.7c0.2,0,0.3-0.1,0.3-0.3v-0.6C12.4,48.5,12.3,48.4,12.1,48.4z"/>
</g>
<g>
	<path class="st41" d="M2.9,37h0.3v0.3H2.9V37z"/>
	<path class="st41" d="M2.9,36h0.3v0.3H2.9V36z"/>
	<path class="st41" d="M2.9,35h0.3v0.3H2.9V35z"/>
	<path class="st41" d="M2.9,34h0.3v0.3H2.9V34z"/>
	<path class="st41" d="M2.9,33h0.3v0.3H2.9V33z"/>
	<path class="st41" d="M2.9,32h0.3v0.3H2.9V32z"/>
	<path class="st41" d="M2.9,31h0.3v0.3H2.9V31z"/>
	<path class="st41" d="M2.9,30h0.3v0.3H2.9V30z"/>
	<path class="st41" d="M2.9,29h0.3v0.3H2.9V29z"/>
	<path class="st41" d="M2.9,28h0.3v0.3H2.9V28z"/>
	<path class="st41" d="M2.9,27h0.3v0.3H2.9V27z"/>
	<path class="st41" d="M2.9,26h0.3v0.3H2.9V26z"/>
	<path class="st41" d="M2.9,25h0.3v0.3H2.9V25z"/>
	<path class="st41" d="M2.9,24h0.3v0.3H2.9V24z"/>
</g>
<g>
	<path class="st41" d="M36.9,32h0.3v0.3h-0.3V32z"/>
	<path class="st41" d="M36.9,31h0.3v0.3h-0.3V31z"/>
	<path class="st41" d="M36.9,30h0.3v0.3h-0.3V30z"/>
	<path class="st41" d="M36.9,29h0.3v0.3h-0.3V29z"/>
	<path class="st41" d="M36.9,28h0.3v0.3h-0.3V28z"/>
	<path class="st41" d="M36.9,27h0.3v0.3h-0.3V27z"/>
	<path class="st41" d="M36.9,26h0.3v0.3h-0.3V26z"/>
	<path class="st41" d="M36.9,25h0.3v0.3h-0.3V25z"/>
	<path class="st41" d="M36.9,24h0.3v0.3h-0.3V24z"/>
	<path class="st41" d="M36.9,23h0.3v0.3h-0.3V23z"/>
	<path class="st41" d="M36.9,22h0.3v0.3h-0.3V22z"/>
	<path class="st41" d="M36.9,21h0.3v0.3h-0.3V21z"/>
	<path class="st41" d="M36.9,20h0.3v0.3h-0.3V20z"/>
	<path class="st41" d="M36.9,19h0.3v0.3h-0.3V19z"/>
</g>
<g>
	<g>
		<g>
			<path class="st41" d="M39.6,34h-15c-0.6,0-1.2,0.5-1.2,1.2v9.5c0,0.2,0.1,0.3,0.3,0.3h16.8c0.2,0,0.3-0.1,0.3-0.3v-9.5
				C40.7,34.5,40.2,34,39.6,34z M40.1,44.4H24v-9.3c0-0.3,0.3-0.6,0.6-0.6h15c0.3,0,0.6,0.3,0.6,0.6V44.4z"/>
		</g>
	</g>
	<g>
		<g>
			<path class="st41" d="M40.4,44.4H23.7c-0.2,0-0.3,0.1-0.3,0.3v1.4c0,0.6,0.5,1.2,1.2,1.2h15c0.6,0,1.2-0.5,1.2-1.2v-1.4
				C40.7,44.5,40.6,44.4,40.4,44.4z M40.1,46.1c0,0.3-0.3,0.6-0.6,0.6h-15c-0.3,0-0.6-0.3-0.6-0.6V45h16.2L40.1,46.1L40.1,46.1z"/>
		</g>
	</g>
	<g>
		<g>
			<path class="st41" d="M32.9,45.6h-1.7c-0.2,0-0.3,0.1-0.3,0.3c0,0.2,0.1,0.3,0.3,0.3h1.7c0.2,0,0.3-0.1,0.3-0.3
				C33.2,45.7,33.1,45.6,32.9,45.6z"/>
		</g>
	</g>
	<g>
		<g>
			<path class="st41" d="M39.3,35.2H24.8c-0.2,0-0.3,0.1-0.3,0.3v9.3c0,0.2,0.1,0.3,0.3,0.3h14.5c0.2,0,0.3-0.1,0.3-0.3v-9.3
				C39.6,35.3,39.4,35.2,39.3,35.2z M39,44.4H25.1v-8.7H39V44.4L39,44.4z"/>
		</g>
	</g>
	<g>
		<g>
			<path class="st41" d="M35.8,49h-7.5c-0.5,0-0.9,0.4-0.9,0.9s0.4,0.9,0.9,0.9h7.5c0.5,0,0.9-0.4,0.9-0.9S36.3,49,35.8,49z
				 M35.8,50.2h-7.5c-0.2,0-0.3-0.1-0.3-0.3c0-0.2,0.1-0.3,0.3-0.3h7.5c0.2,0,0.3,0.1,0.3,0.3C36.1,50.1,36,50.2,35.8,50.2z"/>
		</g>
	</g>
	<g>
		<g>
			<path class="st41" d="M35.2,49c-1,0-1.4-0.7-1.4-2c0-0.2-0.1-0.3-0.3-0.3h-2.9c-0.2,0-0.3,0.1-0.3,0.3c0,1.3-0.5,2-1.4,2
				c-0.2,0-0.3,0.1-0.3,0.3s0.1,0.3,0.3,0.3h6.4c0.2,0,0.3-0.1,0.3-0.3S35.4,49,35.2,49z M30.3,49c0.4-0.4,0.6-1,0.6-1.7h2.3
				c0,0.8,0.3,1.3,0.6,1.7H30.3z"/>
		</g>
	</g>
	<g>
		<g>
			<path class="st41" d="M37.2,42.5l-0.7-0.7l0.4-0.4c0.1-0.1,0.1-0.2,0.1-0.3S36.9,41,36.8,41l-2.9-0.9c-0.1,0-0.2,0-0.3,0.1
				c-0.1,0.1-0.1,0.2-0.1,0.3l0.9,2.9c0,0.1,0.1,0.2,0.2,0.2c0.1,0,0.2,0,0.3-0.1l0.4-0.4l0.7,0.7c0.1,0.1,0.1,0.1,0.2,0.1
				s0.2,0,0.2-0.1l0.8-0.8C37.3,42.8,37.3,42.6,37.2,42.5z M36.2,43.1l-0.6-0.6c-0.1-0.1-0.2-0.1-0.3-0.1c-0.1,0-0.2,0-0.3,0.1
				l-0.2,0.2l-0.6-1.9l1.9,0.6l-0.2,0.2c-0.1,0.1-0.1,0.1-0.1,0.2c0,0.1,0,0.2,0.1,0.2l0.7,0.7L36.2,43.1z"/>
		</g>
	</g>
	<g>
		<g>
			<path class="st41" d="M35.5,36.3h-8.1c-0.2,0-0.3,0.1-0.3,0.3V38c0,0.2,0.1,0.3,0.3,0.3h8.1c0.2,0,0.3-0.1,0.3-0.3v-1.4
				C35.8,36.4,35.7,36.3,35.5,36.3z M35.2,37.8h-7.5v-0.9h7.5V37.8z"/>
		</g>
	</g>
	<g>
		<g>
			<path class="st41" d="M30.9,39.5h-2.3c-0.2,0-0.3,0.1-0.3,0.3v1.2c0,0.2,0.1,0.3,0.3,0.3h2.3c0.2,0,0.3-0.1,0.3-0.3v-1.2
				C31.2,39.6,31.1,39.5,30.9,39.5z M30.6,40.6h-1.7v-0.6h1.7V40.6z"/>
		</g>
	</g>
	<g>
		<g>
			<path class="st41" d="M35.5,36.3h-8.1c-0.2,0-0.3,0.1-0.3,0.3v5.5c0,0.2,0.1,0.3,0.3,0.3h6.9c0.1,0,0.2,0,0.2-0.1
				c0.1-0.1,0.1-0.2,0-0.3l-0.4-1.2l1.2,0.4c0.1,0,0.2,0,0.3,0c0.1-0.1,0.1-0.1,0.1-0.2v-4.3C35.8,36.4,35.7,36.3,35.5,36.3z
				 M35.2,40.5l-1.4-0.4c-0.1,0-0.2,0-0.3,0.1c-0.1,0.1-0.1,0.2-0.1,0.3l0.4,1.4h-6.2v-4.9h7.5V40.5z"/>
		</g>
	</g>
</g>
</svg>
