<?xml version="1.0" encoding="utf-8"?>
<!-- Generator: Adobe Illustrator 24.1.1, SVG Export Plug-In . SVG Version: 6.00 Build 0)  -->
<svg version="1.1" id="Layer_1" xmlns="http://www.w3.org/2000/svg" xmlns:xlink="http://www.w3.org/1999/xlink" x="0px" y="0px"
	 viewBox="0 0 86 77.6" style="enable-background:new 0 0 86 77.6;" xml:space="preserve">
<style type="text/css">
	.st0{fill:#FC6A55;}
	.st1{fill:#EDEDED;}
	.st2{fill:none;stroke:#FC6A55;stroke-miterlimit:10;}
	.st3{fill:#222F3F;}
	.st4{fill:#383838;}
	.st5{fill:#FFFFFF;}
	.st6{fill:#656D7A;}
	.st7{fill:#C4C4C4;}
	.st8{filter:url(#Adobe_OpacityMaskFilter);}
	.st9{fill-rule:evenodd;clip-rule:evenodd;fill:#FFFFFF;}
	.st10{mask:url(#mask-2_8_);fill-rule:evenodd;clip-rule:evenodd;fill:#FFFFFF;}
	.st11{filter:url(#Adobe_OpacityMaskFilter_1_);}
	.st12{mask:url(#mask-2_7_);fill-rule:evenodd;clip-rule:evenodd;fill:#FFFFFF;}
	.st13{filter:url(#Adobe_OpacityMaskFilter_2_);}
	.st14{mask:url(#mask-2_6_);fill-rule:evenodd;clip-rule:evenodd;fill:#FFFFFF;}
	.st15{filter:url(#Adobe_OpacityMaskFilter_3_);}
	.st16{mask:url(#mask-2_5_);fill-rule:evenodd;clip-rule:evenodd;fill:#FFFFFF;}
	.st17{filter:url(#Adobe_OpacityMaskFilter_4_);}
	.st18{mask:url(#mask-2_2_);fill:none;stroke:#FFFFFF;stroke-width:1.5;stroke-miterlimit:10;}
	.st19{fill:#B4A3EE;}
	.st20{fill:#434343;}
	.st21{fill:#434343;stroke:#F9F9F9;stroke-width:0.25;stroke-miterlimit:10;}
	.st22{fill:none;stroke:#FC6A55;stroke-width:0.75;stroke-miterlimit:10;}
	.st23{fill:#FC6A55;stroke:#FC6A55;stroke-width:0.25;stroke-miterlimit:10;}
	.st24{fill:#FC6A55;stroke:#FC6A55;stroke-width:0.5;stroke-miterlimit:10;}
	.st25{opacity:0.5;fill:#FC6A55;}
	.st26{fill:#F5F4F9;}
	.st27{opacity:0.153;fill:url(#Path_144_);enable-background:new    ;}
	.st28{opacity:0.1;fill:#590BB2;enable-background:new    ;}
	.st29{fill:#8E8CA8;}
	.st30{fill:#FFD5B8;}
	.st31{fill:#FC8473;}
	.st32{fill:#1C3475;}
	.st33{fill:#DDD9E4;}
	.st34{fill:#828FB3;}
	.st35{opacity:7.584635e-02;fill:url(#Path_145_);enable-background:new    ;}
	.st36{fill:#FFBE92;}
	.st37{fill:#FB8E7F;}
	.st38{fill:#FDB1A6;}
	.st39{fill:#FC806F;}
	.st40{fill:#FFE783;}
	.st41{fill:#104478;}
	.st42{fill:none;stroke:#FFFFFF;stroke-miterlimit:10;}
	.st43{fill:none;stroke:#000000;stroke-width:0.15;stroke-miterlimit:10;}
	.st44{opacity:0.3;fill:#FC6A55;}
	.st45{opacity:0.4;fill:#FC6A55;}
	.st46{opacity:0.1;fill:url(#Path_147_);enable-background:new    ;}
	.st47{opacity:0.1;fill:url(#Path_150_);enable-background:new    ;}
	.st48{fill-rule:evenodd;clip-rule:evenodd;fill:#FC6A55;}
	.st49{fill-rule:evenodd;clip-rule:evenodd;}
	.st50{fill:#FF6757;}
	.st51{fill:#6C973D;}
	.st52{fill:none;stroke:#FFFFFF;stroke-width:0.5;stroke-miterlimit:10;}
	.st53{fill:#606060;}
	.st54{fill:#F16A56;}
	.st55{fill:#515252;}
	.st56{fill:#656565;}
	.st57{fill:#F26A56;}
	.st58{fill:none;stroke:#F16A56;stroke-miterlimit:10;}
	.st59{fill:none;stroke:#929292;stroke-miterlimit:10;}
	.st60{fill:#929292;}
	.st61{fill:none;stroke:#000000;stroke-width:0.5;stroke-miterlimit:10;}
	.st62{fill:#A8A7A7;}
	.st63{fill:#F79F91;}
	.st64{fill:#9BDBD5;}
	.st65{fill:#222121;}
	.st66{stroke:#000000;stroke-width:0.25;stroke-miterlimit:10;}
</style>
<path class="st5" d="M60.3,59.5c-1.9,0-3.8-0.7-5.2-2v2l5.2,6.5l5.2-6.5v-2C64.1,58.8,62.3,59.5,60.3,59.5z"/>
<circle class="st31" cx="56.5" cy="49.2" r="1.3"/>
<circle class="st31" cx="64.2" cy="49.2" r="1.3"/>
<path class="st31" d="M57.6,54.5c1.5,1.5,4,1.5,5.5,0c0.5-0.5,0.4-1.4-0.1-1.8c-0.5-0.4-1.2-0.4-1.7,0c-0.5,0.5-1.3,0.5-1.8,0
	c0,0,0,0,0,0c-0.5-0.5-1.4-0.4-1.8,0.1C57.2,53.3,57.2,54,57.6,54.5L57.6,54.5z"/>
<path class="st0" d="M16.3,23.3h2.1l6.1,6.1c0.2,0.2,0.6,0.4,0.9,0.4c0.2,0,0.3,0,0.5-0.1c0.5-0.2,0.8-0.7,0.8-1.2v-5.2h5.2
	c2.1,0,3.9-1.7,3.9-3.9v-5.2c0-2.1-1.7-3.9-3.9-3.9H16.3c-2.1,0-3.9,1.7-3.9,3.9v5.2C12.5,21.6,14.2,23.3,16.3,23.3z M15.1,14.2
	c0-0.7,0.6-1.3,1.3-1.3h15.5c0.7,0,1.3,0.6,1.3,1.3v5.2c0,0.3-0.1,0.7-0.4,0.9c-0.3,0.2-0.6,0.4-0.9,0.4h-6.5
	c-0.7,0-1.3,0.6-1.3,1.3v3.4l-4.3-4.3c-0.2-0.2-0.6-0.4-0.9-0.4h-2.6c-0.7,0-1.3-0.6-1.3-1.3V14.2z"/>
<path class="st0" d="M18.9,18.1c0.7,0,1.3-0.6,1.3-1.3s-0.6-1.3-1.3-1.3s-1.3,0.6-1.3,1.3S18.2,18.1,18.9,18.1z"/>
<path class="st0" d="M24.1,18.1c0.7,0,1.3-0.6,1.3-1.3s-0.6-1.3-1.3-1.3c-0.7,0-1.3,0.6-1.3,1.3S23.4,18.1,24.1,18.1z"/>
<path class="st0" d="M29.3,18.1c0.7,0,1.3-0.6,1.3-1.3s-0.6-1.3-1.3-1.3c-0.7,0-1.3,0.6-1.3,1.3S28.6,18.1,29.3,18.1z"/>
<path class="st0" d="M69.4,27.2c2.4,0,4.5-1.7,5.1-4.1c0.6-0.2,1.1-0.5,1.6-0.9c0.7-0.7,1.1-1.7,1.1-2.8v-2.6c0-1.7-1.1-3.2-2.7-3.7
	c-0.5-3.8-3.8-6.7-7.7-6.7c-3.9,0-7.1,2.8-7.7,6.7c-1.6,0.5-2.7,2-2.7,3.7v2.6c0,2.1,1.7,3.9,3.9,3.9c2.1,0,3.9-1.7,3.9-3.9v-2.6
	c0-1-0.4-2-1.1-2.8c-0.4-0.4-0.9-0.7-1.4-0.9c0.5-2.4,2.6-4.1,5.1-4.1c2.5,0,4.6,1.7,5.1,4.2c-1.5,0.6-2.5,2-2.5,3.6v2.6
	c0,1.6,0.9,3,2.4,3.6c-0.4,1-1.3,1.6-2.4,1.6h-2.6c-0.7,0-1.3,0.6-1.3,1.3c0,0.7,0.6,1.3,1.3,1.3H69.4z M61.6,19.4
	c0,0.3-0.1,0.7-0.4,0.9c-0.2,0.2-0.6,0.4-0.9,0.4c-0.7,0-1.3-0.6-1.3-1.3v-2.6c0-0.7,0.6-1.3,1.3-1.3c0.3,0,0.7,0.1,0.9,0.4
	c0.2,0.2,0.4,0.6,0.4,0.9V19.4z M74.6,19.4c0,0.3-0.1,0.7-0.4,0.9c-0.2,0.2-0.6,0.4-0.9,0.4c-0.3,0-0.7-0.1-0.9-0.4
	c-0.2-0.2-0.4-0.6-0.4-0.9v-2.6c0-0.7,0.6-1.3,1.3-1.3c0.7,0,1.3,0.6,1.3,1.3V19.4z"/>
<path class="st0" d="M24.1,36.2c2.8,0,5.6-0.7,8.2-1.9l8,4.4c0.2,0.1,0.4,0.1,0.6,0.1c0.3,0,0.6-0.1,0.8-0.3
	c0.4-0.3,0.6-0.9,0.4-1.4l-3-9c5.5-8.3,3.3-19.6-5-25.1c-3-2-6.5-3-10.1-3C14.1,0,6,8.1,6,18.1S14.1,36.2,24.1,36.2z M24.1,2.6
	c8.6,0,15.5,7,15.5,15.6c0,3.2-1,6.4-2.9,9c-0.2,0.3-0.3,0.8-0.2,1.2l2.1,6.5l-5.7-3.2c-0.4-0.2-0.9-0.2-1.3,0c-2.3,1.3-4.8,2-7.5,2
	c-8.6,0-15.5-7-15.5-15.5S15.5,2.6,24.1,2.6L24.1,2.6z"/>
<path class="st0" d="M66.8,33.6c9.3,0,16.8-7.5,16.8-16.8S76.1,0,66.8,0C57.5,0,50,7.5,50,16.8c0,5.9,3.1,11.4,8.2,14.4l0.4,5h-10
	c-0.7,0-1.3,0.6-1.3,1.3V44c0,2.8,1.5,5.3,3.9,6.7v1.1c0,2.4,0.9,4.6,2.6,6.3v0.1h-1.3c-3.6,0-6.5,2.9-6.5,6.5v11.6
	c0,0.7,0.6,1.3,1.3,1.3s1.3-0.6,1.3-1.3v-3.9h2.6v3.9c0,0.7,0.6,1.3,1.3,1.3s1.3-0.6,1.3-1.3v-9.1c0-0.7-0.6-1.3-1.3-1.3
	s-1.3,0.6-1.3,1.3v2.6h-2.6v-5.2c0-2.1,1.7-3.9,3.9-3.9h2l4.8,6c0.4,0.6,1.3,0.6,1.8,0.2c0.1-0.1,0.1-0.1,0.2-0.2l4.8-6h2
	c2.1,0,3.9,1.7,3.9,3.9v5.2h-2.6v-2.6c0-0.7-0.6-1.3-1.3-1.3c-0.7,0-1.3,0.6-1.3,1.3v9.1c0,0.7,0.6,1.3,1.3,1.3
	c0.7,0,1.3-0.6,1.3-1.3v-3.9H72v3.9c0,0.7,0.6,1.3,1.3,1.3c0.7,0,1.3-0.6,1.3-1.3V64.7c0-3.6-2.9-6.5-6.5-6.5h-1.3v-0.1
	c1.7-1.7,2.6-4,2.6-6.3v-1.1c3.7-2.2,4.9-6.9,2.8-10.6c-1.4-2.4-3.9-3.8-6.7-3.8h-1.3l1.6-2.6H66.8z M60.3,63.9l-2.9-3.6
	c1.9,0.6,3.9,0.6,5.7,0L60.3,63.9z M66.8,51.8c0,3.6-2.9,6.5-6.5,6.5s-6.5-2.9-6.5-6.5v-6.5h12.9V51.8z M65.5,38.8
	c2.9,0,5.2,2.3,5.2,5.2c0,1.3-0.5,2.5-1.3,3.4V44c0-0.7-0.6-1.3-1.3-1.3H52.6c-0.7,0-1.3,0.6-1.3,1.3v3.4C50.5,46.5,50,45.3,50,44
	v-5.2h8.9l0.1,1.4c0.1,0.6,0.4,1,1,1.1l0.3,0.1c0.4,0,0.9-0.2,1.1-0.6l1.3-2L65.5,38.8z M64.1,31.6l-2.9,4.6l-0.5-5.8
	c0-0.4-0.3-0.8-0.7-1c-6.9-3.7-9.5-12.4-5.8-19.3c2.5-4.6,7.3-7.5,12.5-7.5C74.7,2.6,81,9,81,16.9c0,3.8-1.5,7.4-4.2,10
	c-2.7,2.7-6.3,4.2-10,4.2c-0.5,0-1,0-1.5-0.1C64.9,30.9,64.4,31.2,64.1,31.6z"/>
<path class="st5" d="M37.2,61.3h-5.7v2.3H20v-2.3h-7.5l-4.7,4.6v9.2h2.3v-6.9h4.6v6.9h26.6v-9.2L37.2,61.3z M24.6,72.2H20v-3.5h4.6
	V72.2z M31.6,72.2h-4.6v-3.5h4.6V72.2z M38.5,72.2h-4.6v-3.5h4.6V72.2z"/>
<path class="st44" d="M37.2,61.3h-5.7v2.3H20v-2.3h-7.5l4.6,4.6h24.3L37.2,61.3z"/>
<path class="st5" d="M31.6,50.9H35v10.4h-3.5V50.9z"/>
<path class="st5" d="M24.1,50.9h3.5v6.9h-3.5V50.9z"/>
<path class="st5" d="M16.5,50.9H20v10.4h-3.5V50.9z"/>
<path class="st5" d="M12.5,61.3l-4.7,4.6v9.2h2.3v-6.9h4.6v6.9h2.3v-9.2L12.5,61.3z"/>
<path class="st44" d="M21.7,46.2c-0.5,0-1-0.2-1.3-0.6c-0.2,0.4-0.6,0.6-1,0.6c-0.6,0-1.1-0.4-1.2-1c-0.6,0.3-0.7,1-0.4,1.6
	c0.2,0.4,0.6,0.6,1,0.6c0.4,0,0.8-0.2,1-0.6c0.6,0.7,1.7,0.8,2.4,0.2c0.3-0.3,0.6-0.7,0.6-1.2C22.6,46.1,22.2,46.2,21.7,46.2z"/>
<path class="st44" d="M29.8,46.2c-0.5,0-1-0.2-1.3-0.6c-0.2,0.4-0.6,0.6-1,0.6c-0.6,0-1.1-0.4-1.2-1c-0.6,0.3-0.7,1-0.4,1.6
	c0.2,0.4,0.6,0.6,1,0.6c0.4,0,0.8-0.2,1-0.6c0.6,0.7,1.7,0.8,2.4,0.2c0.3-0.3,0.6-0.7,0.6-1.2C30.7,46.1,30.3,46.2,29.8,46.2z"/>
<path class="st44" d="M38.5,47.4c-0.5,0-1-0.2-1.3-0.6c-0.2,0.4-0.6,0.6-1,0.6c-0.6,0-1.1-0.4-1.2-1c-0.6,0.3-0.7,1-0.4,1.6
	c0.2,0.4,0.6,0.6,1,0.6c0.4,0,0.8-0.2,1-0.6c0.6,0.7,1.7,0.8,2.4,0.2c0.3-0.3,0.6-0.7,0.6-1.2C39.3,47.2,38.9,47.4,38.5,47.4z"/>
<path class="st0" d="M42,65.8c0,0,0-0.1,0-0.1v-0.1c0-0.1-0.1-0.1-0.1-0.2l-4.1-4.6c-0.1-0.1-0.3-0.2-0.4-0.2h-1.7v-9.8
	c0-0.3-0.3-0.6-0.6-0.6h-3.5c-0.3,0-0.6,0.3-0.6,0.6v7.5l-0.7-0.9c-0.1-0.1-0.3-0.2-0.5-0.2h-1.7v-6.4c0-0.3-0.3-0.6-0.6-0.6h-3.5
	c-0.3,0-0.6,0.3-0.6,0.6v6.4h-1.7c-0.2,0-0.4,0.1-0.5,0.2l-0.7,0.9v-7.5c0-0.3-0.3-0.6-0.6-0.6h-3.5c-0.3,0-0.6,0.3-0.6,0.6v9.8
	h-3.5c-0.2,0-0.4,0.1-0.5,0.3l-4.5,4.5c-0.1,0.1-0.2,0.3-0.2,0.4v9.2c0,0.3,0.3,0.6,0.6,0.6h33.5c0.3,0,0.6-0.3,0.6-0.6V65.8
	C42,65.9,42,65.9,42,65.8L42,65.8z M40.1,65.3H17.4l-3.5-3.5h5.5v1.7c0,0.3,0.3,0.6,0.6,0.6h11.5c0.3,0,0.6-0.3,0.6-0.6v-1.7H37
	L40.1,65.3z M25.2,60.7V63h-1.7v-2.3H25.2z M28.1,60.7V63h-1.7v-2.3H28.1z M31,60.7V63h-1.7v-2.3H31z M22.3,63h-1.7v-2.3h1.7V63z
	 M32.1,51.4h2.3v9.2h-2.3V51.4z M24.6,51.4h2.3v5.8h-2.3V51.4z M22,58.4h7.5l0.9,1.2h-9.2L22,58.4z M17.1,51.4h2.3v9.2h-2.3V51.4z
	 M10.8,71.1h3.5v1.2h-3.5V71.1z M14.2,69.9h-3.5v-1.2h3.5V69.9z M10.8,74.5v-1.2h3.5v1.2H10.8z M15.4,74.5v-6.4
	c0-0.3-0.3-0.6-0.6-0.6h-4.6c-0.3,0-0.6,0.3-0.6,0.6v6.4H8.5v-8.4l4-4l4,4v8.4H15.4z M17.7,74.5v-8.1h23.1v8.1H17.7z"/>
<path class="st0" d="M24.6,68.2H20c-0.3,0-0.6,0.3-0.6,0.6v3.5c0,0.3,0.3,0.6,0.6,0.6h4.6c0.3,0,0.6-0.3,0.6-0.6v-3.5
	C25.2,68.4,24.9,68.2,24.6,68.2z M20.6,69.3h1.2v2.3h-1.2V69.3z M24.1,71.7h-1.2v-2.3h1.2V71.7z"/>
<path class="st0" d="M31.6,68.2h-4.6c-0.3,0-0.6,0.3-0.6,0.6v3.5c0,0.3,0.3,0.6,0.6,0.6h4.6c0.3,0,0.6-0.3,0.6-0.6v-3.5
	C32.1,68.4,31.9,68.2,31.6,68.2z M27.5,69.3h1.2v2.3h-1.2V69.3z M31,71.7h-1.2v-2.3H31V71.7z"/>
<path class="st0" d="M38.5,68.2h-4.6c-0.3,0-0.6,0.3-0.6,0.6v3.5c0,0.3,0.3,0.6,0.6,0.6h4.6c0.3,0,0.6-0.3,0.6-0.6v-3.5
	C39.1,68.4,38.8,68.2,38.5,68.2z M34.4,69.3h1.2v2.3h-1.2V69.3z M37.9,71.7h-1.2v-2.3h1.2V71.7z"/>
<path class="st0" d="M18.9,48c0.4,0,0.8-0.1,1.1-0.4c1.1,0.7,2.5,0.4,3.2-0.7c0.7-1.1,0.4-2.5-0.7-3.2s-2.5-0.4-3.2,0.7
	c0,0,0,0.1-0.1,0.1c-0.1,0-0.2,0-0.3,0c-1,0-1.7,0.8-1.7,1.7S17.9,48,18.9,48z M18.9,45.7c0.1,0,0.2,0,0.3,0.1
	c0.3,0.2,0.6,0.1,0.8-0.2c0-0.1,0.1-0.1,0.1-0.2c0.1-0.6,0.8-1,1.4-0.9c0.6,0.1,1,0.8,0.9,1.4c-0.1,0.5-0.6,0.9-1.1,0.9
	c-0.3,0-0.6-0.2-0.9-0.4c-0.1-0.1-0.3-0.2-0.4-0.2h-0.1c-0.2,0-0.4,0.1-0.4,0.3c-0.2,0.3-0.5,0.4-0.8,0.2c-0.3-0.2-0.4-0.5-0.2-0.8
	C18.4,45.8,18.6,45.7,18.9,45.7z"/>
<path class="st0" d="M26.9,48c0.4,0,0.8-0.1,1.1-0.4c1.1,0.7,2.5,0.4,3.2-0.7c0.7-1.1,0.4-2.5-0.7-3.2c-1.1-0.7-2.5-0.4-3.2,0.7
	c0,0,0,0.1-0.1,0.1c-0.1,0-0.2,0-0.3,0c-1,0-1.7,0.8-1.7,1.7S26,48,26.9,48L26.9,48z M26.9,45.7c0.1,0,0.2,0,0.3,0.1
	c0.3,0.2,0.6,0.1,0.8-0.2c0-0.1,0.1-0.1,0.1-0.2c0.1-0.6,0.8-1,1.4-0.9c0.6,0.1,1,0.8,0.9,1.4c-0.1,0.5-0.6,0.9-1.1,0.9
	c-0.3,0-0.6-0.2-0.9-0.4c-0.1-0.1-0.3-0.2-0.4-0.2h-0.1c-0.2,0-0.4,0.1-0.4,0.3c-0.2,0.3-0.5,0.4-0.8,0.2c-0.3-0.2-0.4-0.5-0.2-0.8
	C26.5,45.8,26.7,45.7,26.9,45.7z"/>
<path class="st0" d="M35.6,49.1c0.4,0,0.8-0.1,1.1-0.4c1.1,0.7,2.5,0.4,3.2-0.7s0.4-2.5-0.7-3.2s-2.5-0.4-3.2,0.7c0,0,0,0.1-0.1,0.1
	c-0.1,0-0.2,0-0.3,0c-1,0-1.7,0.8-1.7,1.7S34.6,49.1,35.6,49.1z M35.6,46.8c0.1,0,0.2,0,0.3,0.1c0.3,0.2,0.6,0.1,0.8-0.2
	c0-0.1,0.1-0.1,0.1-0.2c0.1-0.6,0.8-1,1.4-0.9c0.6,0.1,1,0.8,0.9,1.4c-0.1,0.5-0.6,0.9-1.1,0.9c-0.3,0-0.6-0.2-0.9-0.4
	c-0.1-0.1-0.3-0.2-0.4-0.2h-0.1c-0.2,0-0.4,0.1-0.4,0.3c-0.2,0.3-0.5,0.4-0.8,0.2s-0.4-0.5-0.2-0.8C35.2,46.9,35.4,46.8,35.6,46.8z"
	/>
</svg>
