<?xml version="1.0" encoding="utf-8"?>
<!-- Generator: Adobe Illustrator 24.1.1, SVG Export Plug-In . SVG Version: 6.00 Build 0)  -->
<svg version="1.1" id="Layer_1" xmlns="http://www.w3.org/2000/svg" xmlns:xlink="http://www.w3.org/1999/xlink" x="0px" y="0px"
	 viewBox="0 0 86 84.9" style="enable-background:new 0 0 86 84.9;" xml:space="preserve">
<style type="text/css">
	.st0{fill:#FC6A55;}
	.st1{fill:#EDEDED;}
	.st2{fill:none;stroke:#FC6A55;stroke-miterlimit:10;}
	.st3{fill:#222F3F;}
	.st4{fill:#383838;}
	.st5{fill:#FFFFFF;}
	.st6{fill:#656D7A;}
	.st7{fill:#C4C4C4;}
	.st8{filter:url(#Adobe_OpacityMaskFilter);}
	.st9{fill-rule:evenodd;clip-rule:evenodd;fill:#FFFFFF;}
	.st10{mask:url(#mask-2_8_);fill-rule:evenodd;clip-rule:evenodd;fill:#FFFFFF;}
	.st11{filter:url(#Adobe_OpacityMaskFilter_1_);}
	.st12{mask:url(#mask-2_7_);fill-rule:evenodd;clip-rule:evenodd;fill:#FFFFFF;}
	.st13{filter:url(#Adobe_OpacityMaskFilter_2_);}
	.st14{mask:url(#mask-2_6_);fill-rule:evenodd;clip-rule:evenodd;fill:#FFFFFF;}
	.st15{filter:url(#Adobe_OpacityMaskFilter_3_);}
	.st16{mask:url(#mask-2_5_);fill-rule:evenodd;clip-rule:evenodd;fill:#FFFFFF;}
	.st17{filter:url(#Adobe_OpacityMaskFilter_4_);}
	.st18{mask:url(#mask-2_2_);fill:none;stroke:#FFFFFF;stroke-width:1.5;stroke-miterlimit:10;}
	.st19{fill:#B4A3EE;}
	.st20{fill:#434343;}
	.st21{fill:#434343;stroke:#F9F9F9;stroke-width:0.25;stroke-miterlimit:10;}
	.st22{fill:none;stroke:#FC6A55;stroke-width:0.75;stroke-miterlimit:10;}
	.st23{fill:#FC6A55;stroke:#FC6A55;stroke-width:0.25;stroke-miterlimit:10;}
	.st24{fill:#FC6A55;stroke:#FC6A55;stroke-width:0.5;stroke-miterlimit:10;}
	.st25{opacity:0.5;fill:#FC6A55;}
	.st26{fill:#F5F4F9;}
	.st27{opacity:0.153;fill:url(#Path_144_);enable-background:new    ;}
	.st28{opacity:0.1;fill:#590BB2;enable-background:new    ;}
	.st29{fill:#8E8CA8;}
	.st30{fill:#FFD5B8;}
	.st31{fill:#FC8473;}
	.st32{fill:#1C3475;}
	.st33{fill:#DDD9E4;}
	.st34{fill:#828FB3;}
	.st35{opacity:7.584635e-02;fill:url(#Path_145_);enable-background:new    ;}
	.st36{fill:#FFBE92;}
	.st37{fill:#FB8E7F;}
	.st38{fill:#FDB1A6;}
	.st39{fill:#FC806F;}
	.st40{fill:#FFE783;}
	.st41{fill:#104478;}
	.st42{fill:none;stroke:#FFFFFF;stroke-miterlimit:10;}
	.st43{fill:none;stroke:#000000;stroke-width:0.15;stroke-miterlimit:10;}
	.st44{opacity:0.3;fill:#FC6A55;}
	.st45{opacity:0.4;fill:#FC6A55;}
	.st46{opacity:0.1;fill:url(#Path_147_);enable-background:new    ;}
	.st47{opacity:0.1;fill:url(#Path_150_);enable-background:new    ;}
	.st48{fill-rule:evenodd;clip-rule:evenodd;fill:#FC6A55;}
	.st49{fill-rule:evenodd;clip-rule:evenodd;}
	.st50{fill:#FF6757;}
	.st51{fill:#6C973D;}
	.st52{fill:none;stroke:#FFFFFF;stroke-width:0.5;stroke-miterlimit:10;}
	.st53{fill:#606060;}
	.st54{fill:#F16A56;}
	.st55{fill:#515252;}
	.st56{fill:#656565;}
	.st57{fill:#F26A56;}
	.st58{fill:none;stroke:#F16A56;stroke-miterlimit:10;}
	.st59{fill:none;stroke:#929292;stroke-miterlimit:10;}
	.st60{fill:#929292;}
	.st61{fill:none;stroke:#000000;stroke-width:0.5;stroke-miterlimit:10;}
	.st62{fill:#A8A7A7;}
	.st63{fill:#F79F91;}
	.st64{fill:#9BDBD5;}
	.st65{fill:#222121;}
	.st66{stroke:#000000;stroke-width:0.25;stroke-miterlimit:10;}
</style>
<path class="st45" d="M45.7,46c0,5.1,4.1,9.2,9.2,9.2s9.2-4.1,9.2-9.2s-4.1-9.2-9.2-9.2h-0.6l-5.1-13.9c-1.6,0.8-3.2,1.7-4.5,2.9
	l4.7,12.8C47.1,40.4,45.7,43.1,45.7,46z"/>
<path class="st45" d="M48.8,17.3c1.4-0.5,2.9,0.2,3.4,1.6l7.2,19.8l0,0l-4.9,1.8l0,0l-7.2-19.8C46.7,19.3,47.4,17.8,48.8,17.3z"/>
<circle class="st30" cx="58.9" cy="44.7" r="9.2"/>
<circle class="st0" cx="58.9" cy="44.7" r="2.6"/>
<path class="st25" d="M54.9,44.7c0,2.2,1.8,3.9,3.9,3.9c2.2,0,3.9-1.8,3.9-3.9c0-2.2-1.8-3.9-3.9-3.9C56.7,40.7,54.9,42.5,54.9,44.7
	z M60.2,44.7c0,0.7-0.6,1.3-1.3,1.3s-1.3-0.6-1.3-1.3s0.6-1.3,1.3-1.3S60.2,43.9,60.2,44.7z"/>
<path class="st5" d="M30.8,77.8v-6.2c0-2.8-2.2-5-5-5v-7.5l-7.5,7.5H7.1c-2.8,0-5,2.2-5,5v6.2c0,2.8,2.2,5,5,5h18.7
	C28.6,82.8,30.8,80.6,30.8,77.8z"/>
<path class="st0" d="M0.9,71.6v6.2c0,3.4,2.8,6.2,6.2,6.2h18.7c3.4,0,6.2-2.8,6.2-6.2v-6.2c0-3-2.1-5.5-5-6.1v-6.4
	c0-0.5-0.3-1-0.8-1.1c-0.1-0.1-0.3-0.1-0.5-0.1c-0.3,0-0.7,0.1-0.9,0.4l-7.1,7.1H7.1C3.7,65.3,0.9,68.1,0.9,71.6z M3.4,71.6
	c0-2.1,1.7-3.7,3.7-3.7h11.2c0.3,0,0.7-0.1,0.9-0.4l5.4-5.4v4.5c0,0.7,0.6,1.2,1.2,1.2c2.1,0,3.7,1.7,3.7,3.7v6.2
	c0,2.1-1.7,3.7-3.7,3.7H7.1c-2.1,0-3.7-1.7-3.7-3.7L3.4,71.6z"/>
<path class="st25" d="M10.9,77.8c0,0.7,0.6,1.2,1.2,1.2h11.2c0.7,0,1.2-0.6,1.2-1.2s-0.6-1.2-1.2-1.2H12.1
	C11.4,76.6,10.9,77.1,10.9,77.8z"/>
<path class="st25" d="M7.1,72.8c0,0.7,0.6,1.2,1.2,1.2h8.7c0.7,0,1.2-0.6,1.2-1.2c0-0.7-0.6-1.2-1.2-1.2H8.4
	C7.7,71.6,7.1,72.1,7.1,72.8z"/>
<circle class="st25" cx="22.1" cy="72.8" r="1.2"/>
<path class="st25" d="M68,10.5h7.9c0.7,0,1.3-0.6,1.3-1.3c0-0.7-0.6-1.3-1.3-1.3H68c-0.7,0-1.3,0.6-1.3,1.3
	C66.7,9.9,67.3,10.5,68,10.5z"/>
<path class="st25" d="M65.4,15.8h10.5c0.7,0,1.3-0.6,1.3-1.3c0-0.7-0.6-1.3-1.3-1.3H65.4c-0.7,0-1.3,0.6-1.3,1.3
	C64.1,15.2,64.7,15.8,65.4,15.8z"/>
<path class="st25" d="M75.9,18.4h-5.3c-0.7,0-1.3,0.6-1.3,1.3c0,0.7,0.6,1.3,1.3,1.3h5.3c0.7,0,1.3-0.6,1.3-1.3
	C77.2,19,76.7,18.4,75.9,18.4z"/>
<path class="st0" d="M81.2,2.6h-21c-0.7,0-1.3,0.6-1.3,1.3v15.8c-0.4,0-0.9-0.1-1.3-0.1c-1.2,0-2.4,0.1-3.6,0.4l-0.6-1.7
	c-0.9-2-3.2-2.9-5.2-2c-1.8,0.8-2.7,2.8-2.2,4.7l0.6,1.7c-6.2,3.8-10,10.5-10.1,17.7l-5.2,12.9c-0.2,0.4-0.1,0.9,0.1,1.2
	c0.2,0.4,0.7,0.6,1.1,0.6h3.9v3.9c0,6.5,5.3,11.8,11.8,11.8h3.9v9.2c0,0.7,0.6,1.3,1.3,1.3c0.7,0,1.3-0.6,1.3-1.3V69.5
	c0-0.4-0.2-0.7-0.5-1c-0.3-0.3-0.7-0.4-1.1-0.3c-0.6,0.1-1.2,0.2-1.8,0.2h-3.3c-5.1,0-9.2-4.1-9.2-9.2v-5.3c0-0.7-0.6-1.3-1.3-1.3
	h-3.3l4.5-11.3c0.1-0.2,0.1-0.3,0.1-0.5c0-6.2,3.1-12,8.4-15.4L51.7,37c-4.3,3.9-4.5,10.6-0.6,14.9c1.7,1.8,3.9,3,6.4,3.3v1.4
	c0,2.2-1.8,3.9-3.9,3.9h-0.2c-0.6-1.6-2-2.6-3.7-2.6H47c-2.2,0-3.9,1.8-3.9,3.9s1.8,3.9,3.9,3.9h2.6c1.7,0,3.1-1.1,3.7-2.6h0.2
	c3.6,0,6.6-2.9,6.6-6.6v-1.4c5.8-0.7,9.8-6,9.1-11.8c-0.7-5.1-5-9-10.1-9.1l-4.2-11.6c9.9-1.6,19.2,5.2,20.8,15.1c0.2,1,0.2,2,0.2,3
	v39.4c0,0.7,0.6,1.3,1.3,1.3s1.3-0.6,1.3-1.3V40.7c0-3.2-0.7-6.3-2.1-9.2h4.8c0.7,0,1.3-0.6,1.3-1.3V3.9C82.5,3.2,81.9,2.6,81.2,2.6
	L81.2,2.6z M49.7,63.1H47c-0.7,0-1.3-0.6-1.3-1.3c0-0.7,0.6-1.3,1.3-1.3h2.6c0.7,0,1.3,0.6,1.3,1.3C51,62.5,50.4,63.1,49.7,63.1z
	 M48.4,20.2c-0.1-0.3-0.1-0.7,0-1c0.1-0.3,0.4-0.6,0.7-0.7c0.7-0.2,1.4,0.1,1.7,0.8l5.5,15.2c-0.9,0.2-1.7,0.5-2.5,0.9L48.4,20.2z
	 M66.7,44.7c0,4.4-3.5,7.9-7.9,7.9S51,49,51,44.7s3.5-7.9,7.9-7.9S66.7,40.3,66.7,44.7z M79.9,28.9h-5c-0.6-0.9-1.4-1.8-2.1-2.6h3.2
	c0.7,0,1.3-0.6,1.3-1.3s-0.6-1.3-1.3-1.3h-6.2c-2.5-1.8-5.3-3-8.3-3.6V5.3h18.4V28.9z"/>
<path class="st0" d="M37.3,15.2L33.7,9c-0.5-0.9-1.6-1.2-2.4-0.7l-2.6,1.5c-0.6-0.4-1.2-0.7-1.8-1v-3C26.8,4.8,26,4,25,4h-7.2
	c-1,0-1.8,0.8-1.8,1.8v3c-0.6,0.3-1.2,0.6-1.8,1l-2.5-1.5c-0.9-0.5-2-0.2-2.5,0.7c0,0,0,0,0,0l-3.6,6.2c-0.5,0.9-0.2,2,0.7,2.5
	c0,0,0,0,0,0L9,19.2v1c0,0,0,0.7,0,1l-2.7,1.5c-0.9,0.5-1.2,1.6-0.7,2.5c0,0,0,0,0,0l3.6,6.2c0.5,0.9,1.6,1.2,2.5,0.7c0,0,0,0,0,0
	l2.7-1.5c0.6,0.4,1.2,0.7,1.8,1v3c0,1,0.8,1.8,1.8,1.8h7.2c1,0,1.8-0.8,1.8-1.8v-3c0.6-0.3,1.2-0.6,1.8-1l2.6,1.5
	c0.9,0.5,2,0.2,2.4-0.7l3.6-6.2c0.5-0.9,0.2-2-0.6-2.5c0,0,0,0,0,0l-2.6-1.5c0.1-0.7,0.1-1.3,0-2l2.6-1.5
	C37.6,17.1,37.8,16,37.3,15.2L37.3,15.2z M30.3,18.6c0.2,1.1,0.2,2.2,0,3.3c-0.2,0.8,0.2,1.6,0.9,2l2.1,1.2l-1.8,3.1l-2.1-1.2
	c-0.7-0.4-1.5-0.3-2.1,0.2c-0.8,0.7-1.8,1.3-2.8,1.6c-0.7,0.3-1.2,0.9-1.2,1.7v2.4h-3.6v-2.4c0-0.8-0.5-1.4-1.2-1.7
	c-1-0.4-2-0.9-2.8-1.6c-0.6-0.5-1.4-0.6-2.1-0.2l-2.1,1.2l-1.8-3.1l2.1-1.1c0.7-0.4,1-1.2,0.8-2c-0.2-1.1-0.2-2.2,0-3.3
	c0.2-0.8-0.2-1.6-0.8-2l-2.1-1.2l1.8-3.1l2.1,1.2c0.7,0.4,1.5,0.3,2.1-0.2c0.8-0.7,1.8-1.3,2.8-1.6c0.7-0.3,1.2-0.9,1.2-1.7V7.6h3.6
	V10c0,0.8,0.5,1.4,1.2,1.7c1,0.4,2,0.9,2.8,1.6c0.6,0.5,1.4,0.6,2.1,0.2l2.1-1.2l1.8,3.1l-2.1,1.1C30.5,17,30.1,17.8,30.3,18.6z"/>
<path class="st25" d="M21.4,14.8c-3,0-5.4,2.4-5.4,5.4s2.4,5.4,5.4,5.4s5.4-2.4,5.4-5.4S24.4,14.8,21.4,14.8z M21.4,22
	c-1,0-1.8-0.8-1.8-1.8s0.8-1.8,1.8-1.8s1.8,0.8,1.8,1.8S22.4,22,21.4,22z"/>
</svg>
