<?xml version="1.0" encoding="utf-8"?>
<!-- Generator: Adobe Illustrator 24.0.2, SVG Export Plug-In . SVG Version: 6.00 Build 0)  -->
<svg version="1.1" id="Layer_1" xmlns="http://www.w3.org/2000/svg" xmlns:xlink="http://www.w3.org/1999/xlink" x="0px" y="0px"
	 viewBox="0 0 18 24" style="enable-background:new 0 0 18 24;" xml:space="preserve">
<style type="text/css">
	.st0{fill:#FC6A55;}
	.st1{fill:#EDEDED;}
	.st2{fill:none;stroke:#FC6A55;stroke-miterlimit:10;}
	.st3{stroke:#FFFFFF;stroke-width:0.25;stroke-miterlimit:10;}
	.st4{fill:#656D7A;}
	.st5{fill:#FFFFFF;}
	.st6{filter:url(#Adobe_OpacityMaskFilter);}
	.st7{fill-rule:evenodd;clip-rule:evenodd;fill:#FFFFFF;}
	.st8{mask:url(#mask-2_8_);fill-rule:evenodd;clip-rule:evenodd;}
	.st9{filter:url(#Adobe_OpacityMaskFilter_1_);}
	.st10{mask:url(#mask-2_7_);fill-rule:evenodd;clip-rule:evenodd;}
	.st11{filter:url(#Adobe_OpacityMaskFilter_2_);}
	.st12{mask:url(#mask-2_6_);fill-rule:evenodd;clip-rule:evenodd;}
	.st13{filter:url(#Adobe_OpacityMaskFilter_3_);}
	.st14{mask:url(#mask-2_5_);fill-rule:evenodd;clip-rule:evenodd;}
	.st15{filter:url(#Adobe_OpacityMaskFilter_4_);}
	.st16{mask:url(#mask-2_2_);fill:none;stroke:#000000;stroke-width:2;}
	.st17{fill:#434343;}
	.st18{fill:#434343;stroke:#F9F9F9;stroke-width:0.25;stroke-miterlimit:10;}
	.st19{fill:none;stroke:#FC6A55;stroke-width:0.5;stroke-miterlimit:10;}
	.st20{fill:none;stroke:#FC6A55;stroke-width:0.75;stroke-miterlimit:10;}
	.st21{fill:#FC6A55;stroke:#FC6A55;stroke-width:0.5;stroke-miterlimit:10;}
	.st22{opacity:0.153;fill:url(#Path_146_);enable-background:new    ;}
	.st23{opacity:0.1;fill:#590BB2;enable-background:new    ;}
	.st24{fill:#8E8CA8;}
	.st25{fill:#F5F4F9;}
	.st26{fill:#FFD5B8;}
	.st27{fill:#FC8473;}
	.st28{fill:#1C3475;}
	.st29{fill:#DDD9E4;}
	.st30{fill:#828FB3;}
	.st31{opacity:7.584635e-02;fill:url(#Path_147_);enable-background:new    ;}
	.st32{fill:#FFBE92;}
	.st33{fill:#FB8E7F;}
	.st34{fill:#FDB1A6;}
	.st35{fill:#FC806F;}
	.st36{fill:#FFE783;}
	.st37{fill:#104478;}
	.st38{fill:none;stroke:#FFFFFF;stroke-miterlimit:10;}
	.st39{fill:none;stroke:#000000;stroke-width:0.15;stroke-miterlimit:10;}
	.st40{opacity:0.1;fill:url(#Path_148_);enable-background:new    ;}
	.st41{opacity:0.1;fill:url(#Path_149_);enable-background:new    ;}
	.st42{fill-rule:evenodd;clip-rule:evenodd;fill:#FC6A55;}
	.st43{fill-rule:evenodd;clip-rule:evenodd;}
</style>
<g>
	<path class="st0" d="M18,4.1C18,3.5,17.5,3,16.8,3H1.2C0.5,3,0,3.5,0,4.1L0,18c0,0.1,0.1,0.3,0.3,0.3s0.3-0.1,0.3-0.3V6.6h16.9
		l0,13.3c0,0.3-0.3,0.6-0.6,0.6H1.2c-0.3,0-0.6-0.3-0.6-0.6v-0.6c0-0.1-0.1-0.3-0.3-0.3S0,19.1,0,19.3v0.6C0,20.5,0.5,21,1.2,21
		h15.7c0.6,0,1.2-0.5,1.2-1.2V4.1z M0.5,6V4.1c0-0.3,0.3-0.6,0.6-0.6h15.7c0.3,0,0.6,0.3,0.6,0.6V6H0.5z"/>
	<path class="st0" d="M1.9,5.5c-0.4,0-0.8-0.3-0.8-0.8C1.2,4.3,1.5,4,1.9,4c0.4,0,0.8,0.3,0.8,0.8C2.7,5.2,2.4,5.5,1.9,5.5z
		 M1.9,4.5c-0.1,0-0.2,0.1-0.2,0.2C1.7,4.9,1.8,5,1.9,5c0.1,0,0.2-0.1,0.2-0.2C2.2,4.6,2.1,4.5,1.9,4.5z"/>
	<path class="st0" d="M3.9,5.5c-0.4,0-0.8-0.3-0.8-0.8C3.1,4.3,3.5,4,3.9,4c0.4,0,0.8,0.3,0.8,0.8C4.7,5.2,4.3,5.5,3.9,5.5z
		 M3.9,4.5c-0.1,0-0.2,0.1-0.2,0.2C3.7,4.9,3.8,5,3.9,5c0.1,0,0.2-0.1,0.2-0.2C4.2,4.6,4.1,4.5,3.9,4.5z"/>
	<path class="st0" d="M5.9,5.5c-0.4,0-0.8-0.3-0.8-0.8C5.1,4.3,5.5,4,5.9,4c0.4,0,0.8,0.3,0.8,0.8C6.7,5.2,6.3,5.5,5.9,5.5z
		 M5.9,4.5c-0.1,0-0.2,0.1-0.2,0.2C5.6,4.9,5.8,5,5.9,5C6,5,6.1,4.9,6.1,4.8C6.1,4.6,6,4.5,5.9,4.5z"/>
	<path class="st0" d="M6,13.4h-4c-0.1,0-0.3-0.1-0.3-0.3s0.1-0.3,0.3-0.3h4c0.1,0,0.3,0.1,0.3,0.3S6.1,13.4,6,13.4z"/>
	<path class="st0" d="M7.8,13.4H7.2c-0.1,0-0.3-0.1-0.3-0.3s0.1-0.3,0.3-0.3h0.6C7.9,12.9,8,13,8,13.1S7.9,13.4,7.8,13.4z"/>
	<path class="st0" d="M3.4,15.1H1.9c-0.1,0-0.3-0.1-0.3-0.3s0.1-0.3,0.3-0.3h1.5c0.1,0,0.3,0.1,0.3,0.3S3.6,15.1,3.4,15.1z"/>
	<path class="st0" d="M7.8,15.1H4.7c-0.1,0-0.3-0.1-0.3-0.3s0.1-0.3,0.3-0.3h3.1c0.1,0,0.3,0.1,0.3,0.3S7.9,15.1,7.8,15.1z"/>
	<path class="st0" d="M4.4,16.1H1.9c-0.1,0-0.3-0.1-0.3-0.3s0.1-0.3,0.3-0.3h2.4c0.1,0,0.3,0.1,0.3,0.3S4.5,16.1,4.4,16.1z"/>
	<path class="st0" d="M7.8,16.1H5.6c-0.1,0-0.3-0.1-0.3-0.3s0.1-0.3,0.3-0.3h2.2c0.1,0,0.3,0.1,0.3,0.3S7.9,16.1,7.8,16.1z"/>
	<path class="st0" d="M4.4,18.1H1.9c-0.1,0-0.3-0.1-0.3-0.3c0-0.1,0.1-0.3,0.3-0.3h2.4c0.1,0,0.3,0.1,0.3,0.3
		C4.6,18,4.5,18.1,4.4,18.1z"/>
	<path class="st0" d="M7.8,18.1H5.6c-0.1,0-0.3-0.1-0.3-0.3c0-0.1,0.1-0.3,0.3-0.3h2.2c0.1,0,0.3,0.1,0.3,0.3
		C8,18,7.9,18.1,7.8,18.1z"/>
	<path class="st0" d="M3.4,17.1H1.9c-0.1,0-0.3-0.1-0.3-0.3s0.1-0.3,0.3-0.3h1.5c0.1,0,0.3,0.1,0.3,0.3S3.6,17.1,3.4,17.1z"/>
	<path class="st0" d="M7.8,17.1H4.7c-0.1,0-0.3-0.1-0.3-0.3s0.1-0.3,0.3-0.3h3.1c0.1,0,0.3,0.1,0.3,0.3C8,17,7.9,17.1,7.8,17.1z"/>
	<path class="st0" d="M15.9,7.4H2.1c-0.2,0-0.4,0.2-0.4,0.4v3.3c0,0.2,0.2,0.4,0.4,0.4h3.6c0.1,0,0.3-0.1,0.3-0.3
		c0-0.1-0.1-0.3-0.3-0.3H2.2V8h13.6v3.1H7c-0.1,0-0.3,0.1-0.3,0.3c0,0.1,0.1,0.3,0.3,0.3h8.9c0.2,0,0.4-0.2,0.4-0.4V7.9
		C16.3,7.6,16.1,7.4,15.9,7.4z"/>
	<path class="st0" d="M15.9,14.4h-4.3c-0.2,0-0.4,0.2-0.4,0.4v1c0,0.2,0.2,0.4,0.4,0.4H13l-0.3,1.3c0,0.2,0,0.3,0.1,0.5
		c0.1,0.1,0.3,0.1,0.5,0.1l0.3-0.1l0.3,0.7c0,0.1,0.1,0.2,0.2,0.2c0.1,0,0.1,0,0.2,0c0.1,0,0.1,0,0.2,0l0.5-0.2
		c0.1,0,0.2-0.1,0.2-0.2c0-0.1,0-0.2,0-0.3l-0.3-0.7l0.3-0.1c0.2-0.1,0.3-0.2,0.3-0.4c0-0.2-0.1-0.3-0.2-0.4l-0.2-0.1h0.8
		c0.2,0,0.4-0.2,0.4-0.4v-1C16.3,14.6,16.1,14.4,15.9,14.4z M14.4,17.5l0.3,0.7l-0.4,0.2L14,17.7c0-0.1-0.1-0.2-0.2-0.2
		c-0.1,0-0.1,0-0.2,0c-0.1,0-0.1,0-0.2,0l-0.2,0.1l0.4-1.5l1.3,0.7l-0.2,0.1C14.4,17,14.3,17.2,14.4,17.5z M15.8,15.8h-1.7l-0.4-0.2
		c-0.1-0.1-0.3-0.1-0.4,0c-0.1,0-0.2,0.1-0.2,0.2h-1.5v-0.8h4.2V15.8z"/>
</g>
</svg>
