<?xml version="1.0" encoding="utf-8"?>
<!-- Generator: Adobe Illustrator 24.0.2, SVG Export Plug-In . SVG Version: 6.00 Build 0)  -->
<svg version="1.1" id="Layer_1" xmlns="http://www.w3.org/2000/svg" xmlns:xlink="http://www.w3.org/1999/xlink" x="0px" y="0px"
	 viewBox="0 0 18 24" style="enable-background:new 0 0 18 24;" xml:space="preserve">
<style type="text/css">
	.st0{fill:#FC6A55;}
	.st1{fill:#EDEDED;}
	.st2{fill:none;stroke:#FC6A55;stroke-miterlimit:10;}
	.st3{stroke:#FFFFFF;stroke-width:0.25;stroke-miterlimit:10;}
	.st4{fill:#656D7A;}
	.st5{fill:#FFFFFF;}
	.st6{filter:url(#Adobe_OpacityMaskFilter);}
	.st7{fill-rule:evenodd;clip-rule:evenodd;fill:#FFFFFF;}
	.st8{mask:url(#mask-2_8_);fill-rule:evenodd;clip-rule:evenodd;}
	.st9{filter:url(#Adobe_OpacityMaskFilter_1_);}
	.st10{mask:url(#mask-2_7_);fill-rule:evenodd;clip-rule:evenodd;}
	.st11{filter:url(#Adobe_OpacityMaskFilter_2_);}
	.st12{mask:url(#mask-2_6_);fill-rule:evenodd;clip-rule:evenodd;}
	.st13{filter:url(#Adobe_OpacityMaskFilter_3_);}
	.st14{mask:url(#mask-2_5_);fill-rule:evenodd;clip-rule:evenodd;}
	.st15{filter:url(#Adobe_OpacityMaskFilter_4_);}
	.st16{mask:url(#mask-2_2_);fill:none;stroke:#000000;stroke-width:2;}
	.st17{fill:#434343;}
	.st18{fill:#434343;stroke:#F9F9F9;stroke-width:0.25;stroke-miterlimit:10;}
	.st19{fill:none;stroke:#FC6A55;stroke-width:0.5;stroke-miterlimit:10;}
	.st20{fill:none;stroke:#FC6A55;stroke-width:0.75;stroke-miterlimit:10;}
	.st21{fill:#FC6A55;stroke:#FC6A55;stroke-width:0.5;stroke-miterlimit:10;}
	.st22{opacity:0.153;fill:url(#Path_146_);enable-background:new    ;}
	.st23{opacity:0.1;fill:#590BB2;enable-background:new    ;}
	.st24{fill:#8E8CA8;}
	.st25{fill:#F5F4F9;}
	.st26{fill:#FFD5B8;}
	.st27{fill:#FC8473;}
	.st28{fill:#1C3475;}
	.st29{fill:#DDD9E4;}
	.st30{fill:#828FB3;}
	.st31{opacity:7.584635e-02;fill:url(#Path_147_);enable-background:new    ;}
	.st32{fill:#FFBE92;}
	.st33{fill:#FB8E7F;}
	.st34{fill:#FDB1A6;}
	.st35{fill:#FC806F;}
	.st36{fill:#FFE783;}
	.st37{fill:#104478;}
	.st38{fill:none;stroke:#FFFFFF;stroke-miterlimit:10;}
	.st39{fill:none;stroke:#000000;stroke-width:0.15;stroke-miterlimit:10;}
	.st40{opacity:0.1;fill:url(#Path_148_);enable-background:new    ;}
	.st41{opacity:0.1;fill:url(#Path_149_);enable-background:new    ;}
	.st42{fill-rule:evenodd;clip-rule:evenodd;fill:#FC6A55;}
	.st43{fill-rule:evenodd;clip-rule:evenodd;}
</style>
<g>
	<path class="st0" d="M10.9,15.3H8.7l0,0c-0.1-0.1-0.3-0.2-0.4-0.2v-0.7c0.8-0.6,1.2-1.3,1.2-1.9h0.8c0.4,0,0.8-0.3,0.8-0.8v-1.4
		c0-0.4-0.2-0.6-0.6-0.7c0.1-1.1-0.3-2.2-1.1-3c-0.8-0.8-1.8-1.3-3-1.3s-2.2,0.5-3,1.3c-0.8,0.8-1.1,1.9-1.1,3
		C2.1,9.7,1.9,10,1.9,10.3v1.4c0,0.4,0.3,0.8,0.8,0.8v0.4c0,0.4,0.3,0.7,0.7,0.7h0.5c0.2,0.3,0.5,0.6,0.8,0.8v0.7
		c-0.2,0-0.3,0-0.4,0.2l0,0H3.8c-0.1,0-0.3,0.1-0.3,0.3c0,0.1,0.1,0.3,0.3,0.3h0.1c0,0.1,0,0.2,0,0.3l1.3,1.6c0.1,0.1,0.2,0.1,0.4,0
		l0,0.1c0,0.1,0,0.1,0.1,0.2l-0.2,2.5H2.7v-1.8c0-0.1-0.1-0.3-0.3-0.3c-0.1,0-0.3,0.1-0.3,0.3v1.8H0.5v-3.1c0-0.9,0.7-1.5,1.5-1.5
		h0.5c0.1,0,0.3-0.1,0.3-0.3c0-0.1-0.1-0.3-0.3-0.3H2.1c-1.1,0-2.1,0.9-2.1,2.1v3.4C0,20.9,0.1,21,0.3,21h12.4
		c0.1,0,0.3-0.1,0.3-0.3v-3.4C13,16.2,12,15.3,10.9,15.3z M6.8,17.6H6.2l-0.1-0.4l0.4-0.4l0.4,0.4L6.8,17.6z M5.2,14.7
		c0.3,0.2,0.6,0.3,1,0.3c0.3,0,0.5,0,0.9-0.1c0.2-0.1,0.4-0.2,0.6-0.3c0,0.6,0,0.6,0,0.7l-1.3,0.7l-1.3-0.7
		C5.2,15.3,5.2,15.3,5.2,14.7z M6.9,16.4c0.4-0.2,1-0.6,1.4-0.8c0.3,0.4,0,0,0.2,0.3l-1,1.2L6.9,16.4z M8.5,9.2
		C8.3,9,8.1,8.8,7.9,8.5c0.2-0.4,0.3-0.9,0.2-1.3c0.7,0.6,1.1,1.4,1,2.4l-0.1,1.2c-0.3-0.3-0.5-0.7-0.5-1.1C8.7,9.5,8.6,9.3,8.5,9.2
		z M3.7,9.5C3.7,8.8,3.9,8,4.5,7.5c0.8-0.9,2.1-1.1,3.1-0.6c0.3,1.7-1.1,3.2-2.8,3c-0.3,0-0.5,0.1-0.6,0.4c-0.1,0.2-0.2,0.5-0.4,0.6
		L3.7,9.5z M10.6,11.8c0,0.1-0.1,0.2-0.2,0.2H9.6c0.1-2,0.1-1.6,0.1-1.9h0.6c0.1,0,0.2,0.1,0.2,0.2V11.8z M2.4,11.8v-1.4
		c0-0.1,0.1-0.2,0.2-0.2h0.6c0,0.2,0.1,1.4,0.1,1.9H2.6C2.5,12,2.4,11.9,2.4,11.8z M3.4,13.1c-0.1,0-0.2-0.1-0.2-0.2v-0.4h0.3
		c0,0.2,0.1,0.4,0.2,0.6H3.4z M4.6,13.6h0.6c0,0.3,0.3,0.6,0.6,0.6h0.9c0.3,0,0.6-0.3,0.6-0.6v-0.4c0-0.3-0.3-0.6-0.6-0.6H5.8
		c-0.3,0-0.6,0.3-0.6,0.6h-1c-0.1-0.2-0.2-0.5-0.2-0.8l-0.1-0.9c0.4-0.2,0.7-0.6,0.9-1.1c0,0,0,0,0,0C5.9,10.5,7,10,7.6,9
		C7.8,9.3,8,9.4,8.2,9.6c0,0,0,0,0,0c-0.1,0.7,0.3,1.4,0.9,1.8L9,12.3c-0.1,0.8-0.8,1.6-1.5,1.9c-0.3,0.1-0.7,0.3-1,0.3
		C6,14.6,5.2,14.2,4.6,13.6z M5.7,13.1C5.7,13.1,5.7,13,5.7,13.1l1-0.1c0,0,0.1,0,0.1,0.1v0.4c0,0,0,0.1-0.1,0.1H5.8
		c0,0-0.1,0-0.1-0.1V13.1z M4.5,15.9c0.5-0.7-0.3,0.4,0.2-0.3c0.1,0.1,0.1,0.1,0.1,0.1l1.3,0.7l-0.6,0.7L4.5,15.9z M12.4,20.5h-1.6
		v-1.8c0-0.1-0.1-0.3-0.3-0.3c-0.1,0-0.3,0.1-0.3,0.3v1.8H7.5l-0.1-0.6c0-0.1-0.1-0.3-0.3-0.2c-0.1,0-0.3,0.1-0.2,0.3L7,20.5H6
		l0.2-2.3h0.5l0.1,0.6c0,0.1,0.1,0.3,0.3,0.2c0.1,0,0.3-0.1,0.2-0.3L7.2,18c0-0.1,0.1-0.1,0.1-0.2l0-0.1c0.1,0.1,0.3,0.1,0.4,0
		L9,16.1c0.1-0.1,0.1-0.2,0-0.3h1.8c0.9,0,1.5,0.7,1.5,1.5V20.5z M9.8,9.6c0.1-0.9-0.3-1.8-0.9-2.5c-0.6-0.7-1.5-1-2.4-1
		c-0.9,0-1.8,0.4-2.4,1C3.5,7.8,3.1,8.7,3.2,9.6H3c-0.1-1,0.3-1.9,0.9-2.6c0.7-0.7,1.6-1.1,2.6-1.1s1.9,0.4,2.6,1.1
		c0.7,0.7,1,1.7,0.9,2.6H9.8L9.8,9.6z"/>
	<path class="st0" d="M17,3h-5.4c-0.6,0-1,0.4-1,1v3.1c0,0.6,0.4,1,1,1h0.5c0,0,0,0,0,0V9c0,0.1,0.1,0.2,0.2,0.2
		c0.1,0,0.2,0,0.3-0.1c1.2-1.2,1.1-1.1,1.1-1.1h1.1C14.8,8.1,15,8,15,7.8c0-0.1-0.1-0.3-0.3-0.3h-1.1c-0.1,0-0.3,0.1-0.4,0.2
		l-0.6,0.6V8.1c0-0.3-0.2-0.5-0.5-0.5h-0.5c-0.3,0-0.5-0.2-0.5-0.5V4c0-0.3,0.2-0.5,0.5-0.5H17c0.3,0,0.5,0.2,0.5,0.5v3.1
		c0,0.3-0.2,0.5-0.5,0.5h-1.1c-0.1,0-0.3,0.1-0.3,0.3c0,0.1,0.1,0.3,0.3,0.3H17c0.6,0,1-0.4,1-1V4C18,3.4,17.6,3,17,3z"/>
	<path class="st0" d="M16.3,6.6c0,0.1,0.1,0.3,0.3,0.3c0.1,0,0.3-0.1,0.3-0.3V5.1c0-0.5-0.4-0.9-0.9-0.9c-0.5,0-0.9,0.4-0.9,0.9v1.5
		c0,0.1,0.1,0.3,0.3,0.3c0.1,0,0.3-0.1,0.3-0.3V5.8h0.8V6.6z M15.5,5.3V5.1c0-0.2,0.2-0.4,0.4-0.4c0.2,0,0.4,0.2,0.4,0.4v0.2H15.5z"
		/>
	<path class="st0" d="M13.6,5.1c0-0.5-0.4-0.9-0.9-0.9s-0.9,0.4-0.9,0.9V6c0,0.5,0.4,0.9,0.9,0.9c0.2,0,0.4-0.1,0.5-0.2l0.1,0.1
		c0.1,0.1,0.3,0.1,0.4,0s0.1-0.3,0-0.4l-0.1-0.1c0.1-0.1,0.1-0.2,0.1-0.4V5.1z M13,5.9c-0.1-0.1-0.3-0.1-0.4,0
		c-0.1,0.1-0.1,0.3,0,0.4l0.1,0.1c-0.3,0.1-0.5-0.1-0.5-0.4V5.1c0-0.2,0.2-0.4,0.4-0.4c0.2,0,0.4,0.2,0.4,0.4L13,5.9L13,5.9z"/>
	<path class="st0" d="M14,4.2c-0.1,0-0.2,0.2-0.2,0.3l0.5,2.3c0,0.1,0.2,0.2,0.3,0.2c0.1,0,0.2-0.2,0.2-0.3l-0.5-2.3
		C14.2,4.2,14.1,4.1,14,4.2z"/>
</g>
</svg>
