<?xml version="1.0" encoding="utf-8"?>
<!-- Generator: Adobe Illustrator 24.0.2, SVG Export Plug-In . SVG Version: 6.00 Build 0)  -->
<svg version="1.1" id="Layer_1" xmlns="http://www.w3.org/2000/svg" xmlns:xlink="http://www.w3.org/1999/xlink" x="0px" y="0px"
	 viewBox="0 0 18 24" style="enable-background:new 0 0 18 24;" xml:space="preserve">
<style type="text/css">
	.st0{fill:#FC6A55;}
	.st1{fill:#EDEDED;}
	.st2{fill:none;stroke:#FC6A55;stroke-miterlimit:10;}
	.st3{stroke:#FFFFFF;stroke-width:0.25;stroke-miterlimit:10;}
	.st4{fill:#656D7A;}
	.st5{fill:#FFFFFF;}
	.st6{filter:url(#Adobe_OpacityMaskFilter);}
	.st7{fill-rule:evenodd;clip-rule:evenodd;fill:#FFFFFF;}
	.st8{mask:url(#mask-2_8_);fill-rule:evenodd;clip-rule:evenodd;}
	.st9{filter:url(#Adobe_OpacityMaskFilter_1_);}
	.st10{mask:url(#mask-2_7_);fill-rule:evenodd;clip-rule:evenodd;}
	.st11{filter:url(#Adobe_OpacityMaskFilter_2_);}
	.st12{mask:url(#mask-2_6_);fill-rule:evenodd;clip-rule:evenodd;}
	.st13{filter:url(#Adobe_OpacityMaskFilter_3_);}
	.st14{mask:url(#mask-2_5_);fill-rule:evenodd;clip-rule:evenodd;}
	.st15{filter:url(#Adobe_OpacityMaskFilter_4_);}
	.st16{mask:url(#mask-2_2_);fill:none;stroke:#000000;stroke-width:2;}
	.st17{fill:#434343;}
	.st18{fill:#434343;stroke:#F9F9F9;stroke-width:0.25;stroke-miterlimit:10;}
	.st19{fill:none;stroke:#FC6A55;stroke-width:0.5;stroke-miterlimit:10;}
	.st20{fill:none;stroke:#FC6A55;stroke-width:0.75;stroke-miterlimit:10;}
	.st21{fill:#FC6A55;stroke:#FC6A55;stroke-width:0.5;stroke-miterlimit:10;}
	.st22{opacity:0.153;fill:url(#Path_146_);enable-background:new    ;}
	.st23{opacity:0.1;fill:#590BB2;enable-background:new    ;}
	.st24{fill:#8E8CA8;}
	.st25{fill:#F5F4F9;}
	.st26{fill:#FFD5B8;}
	.st27{fill:#FC8473;}
	.st28{fill:#1C3475;}
	.st29{fill:#DDD9E4;}
	.st30{fill:#828FB3;}
	.st31{opacity:7.584635e-02;fill:url(#Path_147_);enable-background:new    ;}
	.st32{fill:#FFBE92;}
	.st33{fill:#FB8E7F;}
	.st34{fill:#FDB1A6;}
	.st35{fill:#FC806F;}
	.st36{fill:#FFE783;}
	.st37{fill:#104478;}
	.st38{fill:none;stroke:#FFFFFF;stroke-miterlimit:10;}
	.st39{fill:none;stroke:#000000;stroke-width:0.15;stroke-miterlimit:10;}
	.st40{opacity:0.1;fill:url(#Path_148_);enable-background:new    ;}
	.st41{opacity:0.1;fill:url(#Path_149_);enable-background:new    ;}
</style>
<g>
	<g>
		<path d="M16.2,6.6L16.2,6.6V5.7c0-0.5-0.4-0.9-0.9-0.9h-0.9c-3.2-2.4-7.6-2.4-10.8,0H2.7c-0.5,0-0.9,0.4-0.9,0.9v0.9
			C0.6,8.2,0,10.1,0,12c0,5,4,9,9,9s9-4,9-9C18,10.1,17.4,8.2,16.2,6.6z M14.7,5.4h0.6c0.2,0,0.3,0.1,0.3,0.3v0.6h-0.9L14.7,5.4
			L14.7,5.4z M14.7,6.9h0.9v0.9h-0.9V6.9z M14.7,8.4h0.9v0.9h-0.9V8.4z M14.7,9.9h0.9v0.9h-0.9V9.9z M14.7,11.4h0.9v0.9h-0.9V11.4z
			 M14.7,12.9h0.9v0.9h-0.9V12.9z M9,3.6c1.5,0,3,0.4,4.3,1.2H4.7C6,4,7.5,3.6,9,3.6z M2.4,5.7c0-0.2,0.1-0.3,0.3-0.3h11.4v0.9h-1.2
			c-0.2,0-0.3,0.1-0.3,0.3v1.2h-1.2c-0.2,0-0.3,0.1-0.3,0.3v1.2H9.9c-0.2,0-0.3,0.1-0.3,0.3v1.2H8.4c-0.2,0-0.3,0.1-0.3,0.3v1.2H6.9
			c-0.2,0-0.3,0.1-0.3,0.3v1.2H2.4V5.7z M13.2,12.3v-0.9h0.9v0.9H13.2z M14.1,12.9v0.9h-0.9v-0.9H14.1z M13.2,10.8V9.9h0.9v0.9H13.2
			z M13.2,9.3V8.4h0.9v0.9H13.2z M13.2,7.8V6.9h0.9v0.9H13.2z M11.7,12.3v-0.9h0.9v0.9H11.7z M12.6,12.9v0.9h-0.9v-0.9H12.6z
			 M11.7,10.8V9.9h0.9v0.9H11.7z M11.7,9.3V8.4h0.9v0.9H11.7z M10.2,12.3v-0.9h0.9v0.9H10.2z M11.1,12.9v0.9h-0.9v-0.9H11.1z
			 M10.2,10.8V9.9h0.9v0.9H10.2z M8.7,12.3v-0.9h0.9v0.9H8.7z M9.6,12.9v0.9H8.7v-0.9H9.6z M8.1,12.9v0.9H7.2v-0.9H8.1z M2.4,14.4
			h13.2v0.3c0,0.2-0.1,0.3-0.3,0.3h-5.1H2.7c-0.2,0-0.3-0.1-0.3-0.3C2.4,14.7,2.4,14.4,2.4,14.4z M10.2,16.8c0.7,0,1.3,0.5,1.5,1.2
			H6.3c0.1-0.7,0.8-1.2,1.5-1.2H10.2z M8.1,16.2v-0.6h1.8v0.6H8.1z M9,20.4c-4.6,0-8.4-3.8-8.4-8.4c0-1.5,0.4-3,1.2-4.3v7
			c0,0.5,0.4,0.9,0.9,0.9h4.8v0.6c-1,0.1-1.8,1-1.8,2.1c0,0.2,0.1,0.3,0.3,0.3h6c0.2,0,0.3-0.1,0.3-0.3c0-1-0.8-1.9-1.8-2.1v-0.6
			h4.8c0.5,0,0.9-0.4,0.9-0.9v-7C17,9,17.4,10.5,17.4,12C17.4,16.6,13.6,20.4,9,20.4z"/>
	</g>
</g>
</svg>
