<?xml version="1.0" encoding="utf-8"?>
<!-- Generator: Adobe Illustrator 24.0.2, SVG Export Plug-In . SVG Version: 6.00 Build 0)  -->
<svg version="1.1" id="Layer_1" xmlns="http://www.w3.org/2000/svg" xmlns:xlink="http://www.w3.org/1999/xlink" x="0px" y="0px"
	 viewBox="0 0 18 24" style="enable-background:new 0 0 18 24;" xml:space="preserve">
<style type="text/css">
	.st0{fill:#FC6A55;}
	.st1{fill:#EDEDED;}
	.st2{fill:none;stroke:#FC6A55;stroke-miterlimit:10;}
	.st3{stroke:#FFFFFF;stroke-width:0.25;stroke-miterlimit:10;}
	.st4{fill:#656D7A;}
	.st5{fill:#FFFFFF;}
	.st6{filter:url(#Adobe_OpacityMaskFilter);}
	.st7{fill-rule:evenodd;clip-rule:evenodd;fill:#FFFFFF;}
	.st8{mask:url(#mask-2_8_);fill-rule:evenodd;clip-rule:evenodd;}
	.st9{filter:url(#Adobe_OpacityMaskFilter_1_);}
	.st10{mask:url(#mask-2_7_);fill-rule:evenodd;clip-rule:evenodd;}
	.st11{filter:url(#Adobe_OpacityMaskFilter_2_);}
	.st12{mask:url(#mask-2_6_);fill-rule:evenodd;clip-rule:evenodd;}
	.st13{filter:url(#Adobe_OpacityMaskFilter_3_);}
	.st14{mask:url(#mask-2_5_);fill-rule:evenodd;clip-rule:evenodd;}
	.st15{filter:url(#Adobe_OpacityMaskFilter_4_);}
	.st16{mask:url(#mask-2_2_);fill:none;stroke:#000000;stroke-width:2;}
	.st17{fill:#434343;}
	.st18{fill:#434343;stroke:#F9F9F9;stroke-width:0.25;stroke-miterlimit:10;}
	.st19{fill:none;stroke:#FC6A55;stroke-width:0.5;stroke-miterlimit:10;}
	.st20{fill:none;stroke:#FC6A55;stroke-width:0.75;stroke-miterlimit:10;}
	.st21{fill:#FC6A55;stroke:#FC6A55;stroke-width:0.5;stroke-miterlimit:10;}
	.st22{opacity:0.153;fill:url(#Path_146_);enable-background:new    ;}
	.st23{opacity:0.1;fill:#590BB2;enable-background:new    ;}
	.st24{fill:#8E8CA8;}
	.st25{fill:#F5F4F9;}
	.st26{fill:#FFD5B8;}
	.st27{fill:#FC8473;}
	.st28{fill:#1C3475;}
	.st29{fill:#DDD9E4;}
	.st30{fill:#828FB3;}
	.st31{opacity:7.584635e-02;fill:url(#Path_147_);enable-background:new    ;}
	.st32{fill:#FFBE92;}
	.st33{fill:#FB8E7F;}
	.st34{fill:#FDB1A6;}
	.st35{fill:#FC806F;}
	.st36{fill:#FFE783;}
	.st37{fill:#104478;}
	.st38{fill:none;stroke:#FFFFFF;stroke-miterlimit:10;}
	.st39{fill:none;stroke:#000000;stroke-width:0.15;stroke-miterlimit:10;}
	.st40{opacity:0.1;fill:url(#Path_148_);enable-background:new    ;}
	.st41{opacity:0.1;fill:url(#Path_149_);enable-background:new    ;}
</style>
<g>
	<path class="st0" d="M18,8.8V3.6h-4.1v2.3H9.5c-0.3-0.3-0.6-0.6-1-0.8C8.7,5,8.7,4.9,8.7,4.7V3.6C8.7,3.3,8.4,3,8.1,3H2.9
		C2.6,3,2.3,3.3,2.3,3.6v1.2c0,0.1,0,0.3,0.1,0.4C0.9,6.1,0,7.8,0,9.7c0,2.6,1.9,4.9,4.4,5.4v1c0,0.2,0,0.3,0.1,0.4
		c-0.2,0.2-0.4,0.4-0.4,0.7v2.3c0,0.8,0.7,1.5,1.5,1.5S7,20.3,7,19.5v-1.5h7v2.3H18v-5.2h-4.1v2.3H7v-0.3c0-0.3-0.2-0.6-0.4-0.7
		c0.1-0.1,0.1-0.3,0.1-0.4v-1c1.6-0.3,2.9-1.4,3.7-2.8h3.6v2.3H18V9.4h-4.1v2.3h-3.3c0.3-0.6,0.4-1.3,0.4-2c0-1.2-0.4-2.3-1-3.2h3.9
		v2.3H18z M14.5,15.8h2.9v4.1h-2.9V15.8z M14.5,10h2.9V14h-2.9V10z M8.7,7.7c0.4,0.6,0.6,1.3,0.6,2c0,2.1-1.7,3.8-3.8,3.8
		s-3.8-1.7-3.8-3.8c0-0.7,0.2-1.4,0.6-2c0,0.3,0.3,0.6,0.6,0.6v0.6c-0.3,0-0.6,0.3-0.6,0.6v1.2c0,0.3,0.3,0.6,0.6,0.6h5.2
		c0.3,0,0.6-0.3,0.6-0.6V9.4c0-0.3-0.3-0.6-0.6-0.6V8.2C8.4,8.2,8.7,8,8.7,7.7z M8.1,9.4l0,1.2H2.9V9.4H8.1z M3.5,8.8V8.2h4.1v0.6
		H3.5z M2.9,7.6V6.5h5.2l0,1.2H2.9z M3.5,5.9V5.3h4.1v0.6H3.5z M2.9,3.6h5.2l0,1.2H2.9V3.6z M6.4,19.5c0,0.5-0.4,0.9-0.9,0.9
		S4.6,20,4.6,19.5v-2.3c0-0.2,0.1-0.3,0.3-0.3h0.3h0.6h0.3c0.2,0,0.3,0.1,0.3,0.3V19.5z M6.1,16.1c0,0.2-0.1,0.3-0.3,0.3H5.2
		c-0.2,0-0.3-0.1-0.3-0.3v-0.9c0.2,0,0.4,0,0.6,0s0.4,0,0.6,0V16.1z M5.5,14.6c-2.7,0-4.9-2.2-4.9-4.9c0-1.7,0.9-3.3,2.3-4.2v0.4
		c-0.3,0-0.6,0.3-0.6,0.6v0.2c-0.7,0.8-1.2,1.8-1.2,3c0,2.4,2,4.4,4.4,4.4s4.4-2,4.4-4.4c0-1.1-0.4-2.1-1.2-3V6.5
		c0-0.3-0.3-0.6-0.6-0.6V5.5c1.4,0.9,2.3,2.5,2.3,4.2C10.5,12.4,8.2,14.6,5.5,14.6z M14.5,4.2h2.9v4.1h-2.9V4.2z"/>
	<path class="st0" d="M16.3,4.7h-1.2v0.6h0.6v1.7h-0.6v0.6h1.7V7.1h-0.6V4.7z"/>
	<path class="st0" d="M16.5,12.1c0.2-0.2,0.3-0.4,0.3-0.7c0-0.5-0.4-0.9-0.9-0.9s-0.9,0.4-0.9,0.9v0.3h0.6v-0.3
		c0-0.2,0.1-0.3,0.3-0.3c0.2,0,0.3,0.1,0.3,0.3c0,0.1,0,0.2-0.1,0.2l-1,0.8v1h1.7v-0.6h-1.2v-0.1L16.5,12.1z"/>
	<path class="st0" d="M16,16.4h-0.9v0.6H16c0.2,0,0.3,0.1,0.3,0.3s-0.1,0.3-0.3,0.3h-0.9v0.6H16c0.2,0,0.3,0.1,0.3,0.3
		s-0.1,0.3-0.3,0.3h-0.9v0.6H16c0.5,0,0.9-0.4,0.9-0.9c0-0.2-0.1-0.4-0.2-0.6c0.1-0.2,0.2-0.4,0.2-0.6C16.8,16.7,16.4,16.4,16,16.4z
		"/>
</g>
</svg>
