<?xml version="1.0" encoding="utf-8"?>
<!-- Generator: Adobe Illustrator 24.0.2, SVG Export Plug-In . SVG Version: 6.00 Build 0)  -->
<svg version="1.1" id="Layer_1" xmlns="http://www.w3.org/2000/svg" xmlns:xlink="http://www.w3.org/1999/xlink" x="0px" y="0px"
	 viewBox="0 0 58.3 58.8" style="enable-background:new 0 0 58.3 58.8;" xml:space="preserve">
<style type="text/css">
	.st0{fill:#FC6A55;}
	.st1{stroke:#FFFFFF;stroke-width:0.25;stroke-miterlimit:10;}
	.st2{fill:#656D7A;}
	.st3{fill:#FFFFFF;}
	.st4{filter:url(#Adobe_OpacityMaskFilter);}
	.st5{fill-rule:evenodd;clip-rule:evenodd;fill:#FFFFFF;}
	.st6{mask:url(#mask-2_8_);fill-rule:evenodd;clip-rule:evenodd;}
	.st7{filter:url(#Adobe_OpacityMaskFilter_1_);}
	.st8{mask:url(#mask-2_7_);fill-rule:evenodd;clip-rule:evenodd;}
	.st9{filter:url(#Adobe_OpacityMaskFilter_2_);}
	.st10{mask:url(#mask-2_6_);fill-rule:evenodd;clip-rule:evenodd;}
	.st11{filter:url(#Adobe_OpacityMaskFilter_3_);}
	.st12{mask:url(#mask-2_5_);fill-rule:evenodd;clip-rule:evenodd;}
	.st13{filter:url(#Adobe_OpacityMaskFilter_4_);}
	.st14{mask:url(#mask-2_2_);fill:none;stroke:#000000;stroke-width:2;}
	.st15{fill:#434343;}
	.st16{fill:#434343;stroke:#F9F9F9;stroke-width:0.25;stroke-miterlimit:10;}
	.st17{fill:none;stroke:#FC6A55;stroke-width:0.5;stroke-miterlimit:10;}
	.st18{fill:none;stroke:#FC6A55;stroke-width:0.75;stroke-miterlimit:10;}
	.st19{fill:#FC6A55;stroke:#FC6A55;stroke-width:0.5;stroke-miterlimit:10;}
</style>
<g>
	<path class="st0" d="M30.3,32.6c1-0.5,1.6-1.6,1.6-2.7c0-1.2-0.7-2.3-1.7-2.8l-9.5-4.8c-1.2-0.6-2.6-0.9-3.9-1
		c1.5-1.3,2.5-3.3,2.5-5.5c0-4-3.2-7.2-7.2-7.2s-7.2,3.2-7.2,7.2c0,2.3,1.1,4.3,2.7,5.6c-3.6,0.8-6.3,4.1-6.3,7.9v9
		c0,2.5,2,4.5,4.5,4.5v10.8c0,2,1.6,3.6,3.6,3.6c1.1,0,2-0.5,2.7-1.2c0.7,0.8,1.6,1.2,2.7,1.2c2,0,3.6-1.6,3.6-3.6V28.6l9.1,4.1
		c0.3,0.1,0.7,0.2,1,0.3l4.1,13.8c-0.9,0.4-1.6,1.4-1.6,2.5c0,1.1,0.6,2,1.6,2.4c-0.4,0.6-0.7,1.3-0.7,2.1c0,2,1.6,3.6,3.6,3.6
		c2,0,3.6-1.6,3.6-3.6c0-0.7-0.2-1.3-0.5-1.8h10c-0.3,0.5-0.5,1.1-0.5,1.8c0,2,1.6,3.6,3.6,3.6c2,0,3.6-1.6,3.6-3.6
		c0-2-1.6-3.6-3.6-3.6H33.7c-0.5,0-0.9-0.4-0.9-0.9c0-0.5,0.4-0.9,0.9-0.9h21.5l2-8.8l0-2H31.7L30.3,32.6z M6.6,15.9
		c0-3,2.4-5.4,5.4-5.4s5.4,2.4,5.4,5.4S15,21.3,12,21.3S6.6,18.8,6.6,15.9z M18.5,26.7h-2v27.1c0,1-0.8,1.8-1.8,1.8
		s-1.8-0.8-1.8-1.8V36.6h-1.8v17.2c0,1-0.8,1.8-1.8,1.8s-1.8-0.8-1.8-1.8V27.6H5.7v13.5c-1.5,0-2.7-1.2-2.7-2.7v-9
		c0-3.5,2.8-6.3,6.3-6.3h6.9c1.3,0,2.5,0.3,3.6,0.9l9.5,4.8c0.5,0.2,0.7,0.7,0.7,1.2c0,0.7-0.6,1.3-1.3,1.3c-0.2,0-0.4,0-0.5-0.1
		L18.5,26.7z M37.3,53.8c0,1-0.8,1.8-1.8,1.8c-1,0-1.8-0.8-1.8-1.8c0-1,0.8-1.8,1.8-1.8C36.5,52,37.3,52.8,37.3,53.8z M53.6,53.8
		c0,1-0.8,1.8-1.8,1.8c-1,0-1.8-0.8-1.8-1.8c0-1,0.8-1.8,1.8-1.8C52.7,52,53.6,52.8,53.6,53.8z M55.3,39.3l-1.6,7.2H34.4l-2.1-7.2
		H55.3z"/>
	<path class="st0" d="M43.6,24.9c5.5,0,9.9-4.5,9.9-9.9S49.1,5,43.6,5s-9.9,4.5-9.9,9.9S38.1,24.9,43.6,24.9z M43.6,6.8
		c4.5,0,8.1,3.6,8.1,8.1s-3.6,8.1-8.1,8.1s-8.1-3.6-8.1-8.1S39.1,6.8,43.6,6.8z"/>
	<path class="st0" d="M43.6,17.7c-0.5,0-0.9-0.4-0.9-0.9h-1.8c0,1.2,0.8,2.2,1.8,2.5v2h1.8v-1.8h1.8v-2.7c0-1.5-1.2-2.7-2.7-2.7
		c-0.5,0-0.9-0.4-0.9-0.9v-0.9h0.9c0.5,0,0.9,0.4,0.9,0.9h1.8c0-1.2-0.8-2.2-1.8-2.5v-2h-1.8v1.8h-1.8v2.7c0,1.5,1.2,2.7,2.7,2.7
		c0.5,0,0.9,0.4,0.9,0.9v0.9H43.6z"/>
	<path class="st0" d="M48.1,14h1.8v1.8h-1.8V14z"/>
	<path class="st0" d="M37.3,14h1.8v1.8h-1.8V14z"/>
	<path class="st0" d="M37.3,26.9v10.3l6.3-3.2l6.3,3.2V26.9c4.3-2.3,7.2-6.8,7.2-12c0-7.5-6.1-13.5-13.5-13.5S30.1,7.5,30.1,14.9
		C30.1,20.1,33,24.6,37.3,26.9z M39.1,27.7c1.1,0.4,2.4,0.7,3.6,0.7v4l-3.6,1.8V27.7z M48.1,34.3l-3.6-1.8v-4
		c1.3-0.1,2.5-0.3,3.6-0.7V34.3z M43.6,3.2c6.5,0,11.7,5.3,11.7,11.7s-5.3,11.7-11.7,11.7s-11.7-5.3-11.7-11.7S37.1,3.2,43.6,3.2z"
		/>
	<path class="st0" d="M48.1,41.1h1.8v3.6h-1.8V41.1z"/>
	<path class="st0" d="M42.7,41.1h1.8v3.6h-1.8V41.1z"/>
	<path class="st0" d="M37.3,41.1h1.8v3.6h-1.8V41.1z"/>
</g>
</svg>
