<?xml version="1.0" encoding="utf-8"?>
<!-- Generator: Adobe Illustrator 24.0.2, SVG Export Plug-In . SVG Version: 6.00 Build 0)  -->
<svg version="1.1" id="Layer_1" xmlns="http://www.w3.org/2000/svg" xmlns:xlink="http://www.w3.org/1999/xlink" x="0px" y="0px"
	 viewBox="0 0 18 24" style="enable-background:new 0 0 18 24;" xml:space="preserve">
<style type="text/css">
	.st0{fill:#FC6A55;}
	.st1{stroke:#FFFFFF;stroke-width:0.25;stroke-miterlimit:10;}
	.st2{fill:#656D7A;}
	.st3{fill:#FFFFFF;}
	.st4{filter:url(#Adobe_OpacityMaskFilter);}
	.st5{fill-rule:evenodd;clip-rule:evenodd;fill:#FFFFFF;}
	.st6{mask:url(#mask-2_8_);fill-rule:evenodd;clip-rule:evenodd;}
	.st7{filter:url(#Adobe_OpacityMaskFilter_1_);}
	.st8{mask:url(#mask-2_7_);fill-rule:evenodd;clip-rule:evenodd;}
	.st9{filter:url(#Adobe_OpacityMaskFilter_2_);}
	.st10{mask:url(#mask-2_6_);fill-rule:evenodd;clip-rule:evenodd;}
	.st11{filter:url(#Adobe_OpacityMaskFilter_3_);}
	.st12{mask:url(#mask-2_5_);fill-rule:evenodd;clip-rule:evenodd;}
	.st13{filter:url(#Adobe_OpacityMaskFilter_4_);}
	.st14{mask:url(#mask-2_2_);fill:none;stroke:#000000;stroke-width:2;}
	.st15{fill:#434343;}
	.st16{fill:#434343;stroke:#F9F9F9;stroke-width:0.25;stroke-miterlimit:10;}
	.st17{fill:none;stroke:#FC6A55;stroke-width:0.5;stroke-miterlimit:10;}
	.st18{fill:none;stroke:#FC6A55;stroke-width:0.75;stroke-miterlimit:10;}
	.st19{fill:#FC6A55;stroke:#FC6A55;stroke-width:0.5;stroke-miterlimit:10;}
	.st20{opacity:0.153;fill:url(#Path_146_);enable-background:new    ;}
	.st21{opacity:0.1;fill:#590BB2;enable-background:new    ;}
	.st22{fill:#8E8CA8;}
	.st23{fill:#F5F4F9;}
	.st24{fill:#FFD5B8;}
	.st25{fill:#FC8473;}
	.st26{fill:#1C3475;}
	.st27{fill:#DDD9E4;}
	.st28{fill:#828FB3;}
	.st29{opacity:7.584635e-02;fill:url(#Path_147_);enable-background:new    ;}
	.st30{fill:#FFBE92;}
	.st31{fill:#FB8E7F;}
	.st32{fill:#FDB1A6;}
	.st33{fill:#FC806F;}
	.st34{fill:#FFE783;}
	.st35{fill:#104478;}
	.st36{fill:none;stroke:#FFFFFF;stroke-miterlimit:10;}
	.st37{fill:none;stroke:#FC6A55;stroke-miterlimit:10;}
	.st38{fill:none;stroke:#000000;stroke-width:0.15;stroke-miterlimit:10;}
	.st39{opacity:0.1;fill:url(#Path_148_);enable-background:new    ;}
	.st40{opacity:0.1;fill:url(#Path_149_);enable-background:new    ;}
</style>
<g>
	<g>
		<g>
			<path class="st0" d="M17.6,9.1H12c-0.1-1.9-0.7-3.6-1.7-4.8C9.3,3,7.8,2.3,6,2.3c-1.8,0-3.4,0.7-4.4,2.2C0.7,5.7,0.1,7.3,0,9.2
				c0,0.1,0,0.2,0,0.3v0.7c0,0.1,0,0.1,0,0.2c0.1,1.2,0.3,3.6,0.8,4.9c-0.3,0.3-0.6,0.8-0.6,1.3v4.7c0,0.2,0.2,0.4,0.4,0.4h10.9
				c0.2,0,0.4-0.2,0.4-0.4v-3.6l2.2-1.7h3.6c0.2,0,0.4-0.2,0.4-0.4V9.5C18,9.3,17.8,9.1,17.6,9.1z M6,3.1c2.7,0,4.6,1.8,5.1,4.9
				c-0.2-0.1-0.5-0.2-0.8-0.2H9.6c0,0,0,0-0.1,0H6.7c-0.6,0-1.1-0.3-1.3-0.8L5,6.1C4.9,6.1,4.9,6,4.8,6c0,0-0.1,0-0.1,0
				C4.5,5.9,4.4,6,4.3,6.1L3.7,7c-0.2,0.3-0.6,0.6-1,0.7C2.9,7,3.2,6.4,3.5,6C4.1,5.2,5,4.8,6,4.8c1,0,1.7,0.3,2.3,1
				c0.1,0.2,0.4,0.2,0.5,0c0.2-0.1,0.2-0.4,0-0.5C8.2,4.5,7.2,4,6,4C4.7,4,3.7,4.5,2.9,5.5C2.5,6.1,2.2,6.9,2,7.7H1.7
				c-0.3,0-0.6,0.1-0.8,0.2C1.5,4.9,3.4,3.1,6,3.1z M11.2,9.1H10V8.5h0.3C10.7,8.5,11,8.7,11.2,9.1z M0.8,10.3c0-0.1,0-0.3,0-0.3v0
				c0-0.2,0-0.4,0-0.6c0.1-0.5,0.5-0.8,0.9-0.8h0.4v2.6H1.7C1.2,11.1,0.8,10.7,0.8,10.3z M1.7,11.9h0.7c0,0,0,0,0.1,0
				c0.4,0.7,1,1.4,1.8,1.7v1.2H2c0,0-0.1,0-0.1,0c0,0,0,0,0,0c0,0,0,0-0.1,0c0,0,0,0,0,0c0,0,0,0-0.1,0c0,0,0,0,0,0c0,0,0,0-0.1,0
				c0,0,0,0,0,0c0,0,0,0,0,0c0,0,0,0,0,0c0,0,0,0-0.1,0c0,0,0,0,0,0c0,0,0,0,0,0C1.2,14,1,12.7,0.9,11.6C1.1,11.8,1.4,11.9,1.7,11.9
				z M5.6,20.9H1v-4.4c0-0.4,0.2-0.7,0.5-0.9c0,0,0,0,0,0c0,0,0,0,0,0c0,0,0,0,0.1,0c0,0,0,0,0,0c0,0,0,0,0.1,0c0,0,0,0,0,0
				c0,0,0,0,0.1,0c0,0,0,0,0,0c0,0,0,0,0.1,0c0,0,0,0,0,0c0,0,0,0,0.1,0c0,0,0,0,0,0c0,0,0,0,0.1,0c0,0,0,0,0,0c0,0,0,0,0.1,0h1.8
				l1.9,2.7L5.6,20.9L5.6,20.9z M4.7,15.5C4.7,15.5,4.7,15.5,4.7,15.5C4.7,15.5,4.7,15.5,4.7,15.5C4.7,15.5,4.7,15.5,4.7,15.5
				C4.8,15.5,4.8,15.5,4.7,15.5C4.8,15.5,4.8,15.5,4.7,15.5c0.1,0,0.1,0,0.1,0c0,0,0,0,0,0c0,0,0,0,0,0c0,0,0,0,0,0c0,0,0,0,0,0
				c0,0,0,0,0,0c0,0,0,0,0,0c0,0,0,0,0,0c0,0,0,0,0,0c0,0,0,0,0,0c0,0,0,0,0,0c0,0,0,0,0,0c0,0,0,0,0,0c0,0,0,0,0,0c0,0,0,0,0,0
				c0,0,0,0,0,0c0,0,0,0,0,0c0,0,0,0,0,0c0,0,0,0,0,0c0,0,0,0,0,0c0,0,0,0,0,0c0,0,0,0,0,0c0,0,0,0,0,0c0,0,0,0,0,0c0,0,0,0,0,0
				c0,0,0,0,0,0v-1.8c0,0,0,0,0,0C5.1,13.2,5,13,4.8,13c-1.2-0.5-2-1.7-2-3V8.5c0.3-0.1,0.7-0.2,1-0.4C4,7.9,4.2,7.7,4.4,7.5
				l0.3-0.4l0.1,0.2c0.4,0.7,1.2,1.2,2,1.2h2.5v1.3c0,0.8-0.5,1.5-1.3,1.7c0,0,0,0,0,0l-0.5,0.2C7.2,11.3,6.9,11,6.4,11H5.8
				c-0.5,0-1,0.4-1,1c0,0.5,0.4,1,1,1h0.7c0.4,0,0.7-0.2,0.9-0.5l0.8-0.2c0.1,0,0.3-0.1,0.4-0.1c-0.3,0.4-0.8,0.7-1.3,0.9
				C7.1,13.1,7,13.2,7,13.3v1.8c0,0,0,0,0,0c0,0,0,0,0,0c0,0,0,0,0,0c0,0,0,0,0,0c0,0,0,0,0,0c0,0,0,0,0,0c0,0,0,0,0,0c0,0,0,0,0,0
				c0,0,0,0,0,0c0,0,0,0,0,0c0,0,0,0,0,0c0,0,0,0,0,0c0,0,0,0,0,0c0,0,0,0,0,0c0,0,0,0,0,0c0,0,0,0,0,0c0,0,0,0,0,0c0,0,0,0,0,0
				c0,0,0,0,0,0c0,0,0,0,0,0c0,0,0,0,0,0c0,0,0,0,0,0c0,0,0,0,0,0c0,0,0,0,0,0c0,0,0,0,0,0c0,0,0,0,0,0c0,0,0,0,0,0c0,0,0,0,0,0
				c0,0,0,0,0,0c0,0,0,0,0,0c0,0,0,0,0,0L6,17.4L4.7,15.5z M9.2,12.4v2.4H7.7v-1.2c0,0,0,0,0,0c0,0,0.1,0,0.1-0.1c0,0,0,0,0,0
				c0,0,0.1,0,0.1,0c0,0,0,0,0,0c0,0,0,0,0.1,0c0,0,0,0,0,0c0,0,0,0,0.1,0c0,0,0,0,0,0c0,0,0,0,0.1,0c0,0,0,0,0,0c0,0,0,0,0.1-0.1
				c0,0,0,0,0,0c0,0,0.1,0,0.1-0.1c0,0,0,0,0,0c0,0,0.1-0.1,0.1-0.1c0,0,0,0,0,0c0,0,0,0,0.1-0.1c0,0,0,0,0,0c0,0,0,0,0.1-0.1
				c0,0,0,0,0,0c0,0,0,0,0.1-0.1c0,0,0,0,0,0c0,0,0,0,0.1-0.1c0,0,0,0,0,0c0,0,0,0,0.1-0.1c0,0,0,0,0,0C9.2,12.4,9.2,12.4,9.2,12.4
				C9.2,12.4,9.2,12.4,9.2,12.4C9.2,12.4,9.2,12.4,9.2,12.4z M6.7,12c0,0.1-0.1,0.2-0.2,0.2H5.8c-0.1,0-0.2-0.1-0.2-0.2
				s0.1-0.2,0.2-0.2h0.7C6.6,11.8,6.7,11.9,6.7,12z M11.1,20.9H6.4v-2.7l1.9-2.7h0.9v0.1c0,0.2,0.2,0.4,0.4,0.4h1.3
				c0.1,0.2,0.2,0.4,0.2,0.5V20.9z M17.2,15.3h-3.3c-0.1,0-0.2,0-0.2,0.1l-1.9,1.4v-1.1c0-0.2-0.2-0.4-0.4-0.4H10V9.9h7.3V15.3z"/>
		</g>
	</g>
	<g>
		<g>
			<path class="st0" d="M16.3,11.3C16.3,11.3,16.3,11.3,16.3,11.3c0-0.1,0-0.1-0.1-0.1c0,0,0,0,0-0.1c0,0,0,0-0.1,0c0,0,0,0-0.1,0
				c0,0,0,0-0.1,0c0,0-0.1,0-0.1,0c0,0,0,0-0.1,0c0,0,0,0-0.1,0c0,0,0,0-0.1,0c0,0,0,0,0,0.1c0,0,0,0,0,0.1c0,0,0,0,0,0.1
				c0,0,0,0,0,0.1c0,0,0,0,0,0.1c0,0,0,0,0,0.1c0,0,0,0,0,0.1c0,0,0,0,0,0.1c0,0,0,0,0.1,0c0,0,0,0,0.1,0c0,0,0,0,0.1,0
				c0,0,0,0,0.1,0c0,0,0,0,0.1,0c0,0,0,0,0.1,0c0,0,0,0,0.1,0c0,0,0,0,0.1,0c0,0,0,0,0-0.1c0,0,0,0,0-0.1s0,0,0-0.1
				C16.3,11.4,16.3,11.4,16.3,11.3C16.3,11.4,16.3,11.3,16.3,11.3z"/>
		</g>
	</g>
	<g>
		<g>
			<path class="st0" d="M14.6,11h-3.3c-0.2,0-0.4,0.2-0.4,0.4s0.2,0.4,0.4,0.4h3.3c0.2,0,0.4-0.2,0.4-0.4S14.8,11,14.6,11z"/>
		</g>
	</g>
	<g>
		<g>
			<path class="st0" d="M11.7,13.2C11.7,13.2,11.6,13.1,11.7,13.2c0-0.1,0-0.1-0.1-0.1c0,0,0,0,0-0.1c-0.1-0.1-0.2-0.1-0.3-0.1
				c0,0,0,0-0.1,0c0,0,0,0-0.1,0c0,0,0,0-0.1,0c0,0,0,0,0,0.1c0,0,0,0,0,0.1c0,0,0,0,0,0.1c0,0,0,0,0,0.1c0,0.1,0,0.2,0.1,0.3
				c0,0,0,0,0.1,0c0,0,0,0,0.1,0c0,0,0,0,0.1,0c0,0,0,0,0.1,0c0.1,0,0.2,0,0.3-0.1c0,0,0,0,0-0.1c0,0,0,0,0-0.1c0,0,0,0,0-0.1
				C11.7,13.3,11.7,13.3,11.7,13.2C11.7,13.2,11.7,13.2,11.7,13.2z"/>
		</g>
	</g>
	<g>
		<g>
			<path class="st0" d="M15.9,12.9h-3.3c-0.2,0-0.4,0.2-0.4,0.4c0,0.2,0.2,0.4,0.4,0.4h3.3c0.2,0,0.4-0.2,0.4-0.4
				C16.3,13,16.1,12.9,15.9,12.9z"/>
		</g>
	</g>
	<g>
		<g>
			<path class="st0" d="M9.7,6.6C9.7,6.6,9.7,6.6,9.7,6.6c0-0.1,0-0.1-0.1-0.1c0,0,0,0,0-0.1c0,0,0,0-0.1,0c0,0,0,0-0.1,0s0,0-0.1,0
				c0,0-0.1,0-0.1,0c0,0,0,0-0.1,0c0,0,0,0-0.1,0c0,0,0,0-0.1,0c0,0,0,0,0,0.1c0,0,0,0,0,0.1c0,0,0,0,0,0.1c0,0,0,0,0,0.1
				C9,6.8,9,6.9,9.1,7c0,0,0,0,0.1,0c0,0,0,0,0.1,0c0,0,0,0,0.1,0c0,0,0,0,0.1,0c0,0,0,0,0.1,0c0,0,0,0,0.1,0s0,0,0.1,0
				c0,0,0,0,0.1,0c0,0,0,0,0-0.1c0,0,0,0,0-0.1c0,0,0,0,0-0.1C9.7,6.8,9.7,6.7,9.7,6.6C9.7,6.7,9.7,6.7,9.7,6.6z"/>
		</g>
	</g>
	<g>
		<g>
			<path class="st0" d="M10.1,17H7.9c-0.2,0-0.4,0.2-0.4,0.4v1.2c0,0.6,0.5,1.1,1.1,1.1h0.8c0.6,0,1.1-0.5,1.1-1.1v-1.2
				C10.5,17.2,10.3,17,10.1,17z M9.8,18.6c0,0.2-0.2,0.3-0.3,0.3H8.6c-0.2,0-0.3-0.2-0.3-0.3v-0.9h1.5V18.6z"/>
		</g>
	</g>
</g>
</svg>
