<?xml version="1.0" encoding="utf-8"?>
<!-- Generator: Adobe Illustrator 24.0.2, SVG Export Plug-In . SVG Version: 6.00 Build 0)  -->
<svg version="1.1" id="Layer_1" xmlns="http://www.w3.org/2000/svg" xmlns:xlink="http://www.w3.org/1999/xlink" x="0px" y="0px"
	 viewBox="0 0 18 24" style="enable-background:new 0 0 18 24;" xml:space="preserve">
<style type="text/css">
	.st0{fill:#FC6A55;}
	.st1{stroke:#FFFFFF;stroke-width:0.25;stroke-miterlimit:10;}
	.st2{fill:#656D7A;}
	.st3{fill:#FFFFFF;}
	.st4{filter:url(#Adobe_OpacityMaskFilter);}
	.st5{fill-rule:evenodd;clip-rule:evenodd;fill:#FFFFFF;}
	.st6{mask:url(#mask-2_8_);fill-rule:evenodd;clip-rule:evenodd;}
	.st7{filter:url(#Adobe_OpacityMaskFilter_1_);}
	.st8{mask:url(#mask-2_7_);fill-rule:evenodd;clip-rule:evenodd;}
	.st9{filter:url(#Adobe_OpacityMaskFilter_2_);}
	.st10{mask:url(#mask-2_6_);fill-rule:evenodd;clip-rule:evenodd;}
	.st11{filter:url(#Adobe_OpacityMaskFilter_3_);}
	.st12{mask:url(#mask-2_5_);fill-rule:evenodd;clip-rule:evenodd;}
	.st13{filter:url(#Adobe_OpacityMaskFilter_4_);}
	.st14{mask:url(#mask-2_2_);fill:none;stroke:#000000;stroke-width:2;}
	.st15{fill:#434343;}
	.st16{fill:#434343;stroke:#F9F9F9;stroke-width:0.25;stroke-miterlimit:10;}
	.st17{fill:none;stroke:#FC6A55;stroke-width:0.5;stroke-miterlimit:10;}
	.st18{fill:none;stroke:#FC6A55;stroke-width:0.75;stroke-miterlimit:10;}
	.st19{fill:#FC6A55;stroke:#FC6A55;stroke-width:0.5;stroke-miterlimit:10;}
	.st20{opacity:0.153;fill:url(#Path_146_);enable-background:new    ;}
	.st21{opacity:0.1;fill:#590BB2;enable-background:new    ;}
	.st22{fill:#8E8CA8;}
	.st23{fill:#F5F4F9;}
	.st24{fill:#FFD5B8;}
	.st25{fill:#FC8473;}
	.st26{fill:#1C3475;}
	.st27{fill:#DDD9E4;}
	.st28{fill:#828FB3;}
	.st29{opacity:7.584635e-02;fill:url(#Path_147_);enable-background:new    ;}
	.st30{fill:#FFBE92;}
	.st31{fill:#FB8E7F;}
	.st32{fill:#FDB1A6;}
	.st33{fill:#FC806F;}
	.st34{fill:#FFE783;}
	.st35{fill:#104478;}
	.st36{fill:none;stroke:#FFFFFF;stroke-miterlimit:10;}
	.st37{fill:none;stroke:#FC6A55;stroke-miterlimit:10;}
	.st38{fill:none;stroke:#000000;stroke-width:0.15;stroke-miterlimit:10;}
	.st39{opacity:0.1;fill:url(#Path_148_);enable-background:new    ;}
	.st40{opacity:0.1;fill:url(#Path_149_);enable-background:new    ;}
</style>
<g>
	<g>
		<g>
			<path class="st0" d="M16.8,16.9c-0.1-0.1-0.2-0.1-0.3-0.1s-0.2,0-0.3,0.1c-0.1,0.1-0.1,0.2-0.1,0.3s0,0.2,0.1,0.3
				c0.1,0.1,0.2,0.1,0.3,0.1s0.2,0,0.3-0.1c0.1-0.1,0.1-0.2,0.1-0.3S16.9,17,16.8,16.9z"/>
		</g>
	</g>
	<g>
		<g>
			<path class="st0" d="M7.3,18c-0.8,0-1.4,0.6-1.4,1.4c0,0.8,0.6,1.4,1.4,1.4c0.8,0,1.4-0.6,1.4-1.4C8.8,18.6,8.1,18,7.3,18z
				 M7.3,20.1c-0.4,0-0.7-0.3-0.7-0.7c0-0.4,0.3-0.7,0.7-0.7c0.4,0,0.7,0.3,0.7,0.7C8,19.8,7.7,20.1,7.3,20.1z"/>
		</g>
	</g>
	<g>
		<g>
			<path class="st0" d="M14.3,18c-0.8,0-1.4,0.6-1.4,1.4c0,0.8,0.6,1.4,1.4,1.4c0.8,0,1.4-0.6,1.4-1.4C15.7,18.6,15.1,18,14.3,18z
				 M14.3,20.1c-0.4,0-0.7-0.3-0.7-0.7c0-0.4,0.3-0.7,0.7-0.7s0.7,0.3,0.7,0.7C14.9,19.8,14.6,20.1,14.3,20.1z"/>
		</g>
	</g>
	<g>
		<g>
			<path class="st0" d="M17.7,11.5c-0.2,0-0.4,0.1-0.4,0.3l-0.5,2.9c0,0.2-0.2,0.3-0.4,0.3H5.4L3.9,8.5h3.9c0.2,0,0.4-0.2,0.4-0.4
				S8,7.8,7.8,7.8H3.8L3.3,6C3.2,5.5,2.8,5.1,2.2,5.1H0.4C0.2,5.1,0,5.3,0,5.5c0,0.2,0.2,0.4,0.4,0.4h1.9c0.2,0,0.3,0.1,0.4,0.3
				l2.5,11.1c0,0.2,0.2,0.3,0.4,0.3h9.7c0.2,0,0.4-0.2,0.4-0.4c0-0.2-0.2-0.4-0.4-0.4H5.8l-0.2-1.1h10.7c0.5,0,1-0.4,1.1-0.9
				l0.5-2.9C18,11.7,17.9,11.5,17.7,11.5z"/>
		</g>
	</g>
	<path class="st0" d="M10.9,8.9c0,0.3,0,0.6,0,0.9c0,0.2,0,0.3-0.1,0.4c-0.1,0.1-0.2,0-0.3-0.2C9.9,9.5,9.5,9,9,8.4
		C8.8,8.2,8.8,8.1,9,7.9c0.5-0.6,1-1.1,1.4-1.7c0.1-0.1,0.2-0.2,0.3-0.1c0.1,0.1,0.2,0.2,0.1,0.3c0,0.3,0,0.5,0,0.8
		c0.6,0.1,1.1,0.2,1.6,0.6c0-0.8,0-1.5,0-2.3c-0.3,0-0.5,0-0.7,0c-0.1,0-0.2,0-0.3-0.2c-0.1-0.2,0-0.3,0.1-0.4
		c0.5-0.6,1-1.1,1.4-1.7c0.2-0.2,0.3-0.2,0.5,0c0.5,0.6,0.9,1.1,1.4,1.7c0,0,0,0,0.1,0.1C15,5.1,15,5.2,15,5.3
		c0,0.1-0.1,0.2-0.2,0.2c-0.2,0-0.4,0-0.7,0c0,0-0.1,0-0.1,0c0,0.9,0,1.8,0,2.7c0.1-0.1,0.3-0.2,0.4-0.3c0.4-0.3,0.8-0.4,1.2-0.5
		c0.1,0,0.1-0.1,0.1-0.2c0-0.2,0-0.5,0-0.7c0-0.1,0-0.2,0.1-0.3C16,6,16,6.1,16.1,6.2c0.5,0.6,1,1.2,1.5,1.8c0.1,0.2,0.1,0.3,0,0.5
		c-0.5,0.6-1,1.2-1.5,1.8c-0.1,0.1-0.2,0.1-0.3,0.1c-0.1,0-0.1-0.2-0.1-0.3c0-0.3,0-0.6,0-0.9c-0.3,0.1-0.5,0.2-0.7,0.3
		c-0.5,0.4-0.9,1-1,1.7c-0.1,0.3-0.1,0.7-0.1,1.1c0,0.6,0,1.1,0,1.7c0,0.3-0.1,0.4-0.3,0.4c-0.3,0-0.6,0-0.9,0
		c-0.2,0-0.3-0.1-0.3-0.3c0-0.7,0-1.5,0-2.2c0-0.4,0.1-0.7,0.2-1.1c0-0.1,0-0.2,0-0.3c-0.3-0.7-0.8-1-1.4-1.2C11.1,9,11,9,10.9,8.9z
		 M16.2,9.3c0.3-0.4,0.6-0.8,0.9-1.1c-0.3-0.4-0.6-0.7-0.9-1.1c0,0.1,0,0.3,0,0.4c0,0.3-0.1,0.3-0.3,0.4c-1.7,0.3-3,1.9-3,4
		c0,0.5,0,1,0,1.6c0,0,0,0.1,0,0.1c0.2,0,0.3,0,0.5,0c0-0.1,0-0.2,0-0.2c0-0.6,0-1.2,0-1.8c0.1-1.4,0.9-2.7,2.4-3.1
		c0.2,0,0.3,0.1,0.3,0.3C16.2,8.9,16.2,9.1,16.2,9.3z M13.2,9.1C13.2,9.1,13.2,9.1,13.2,9.1c0-0.1-0.1-0.1-0.1-0.1
		c-0.7-0.8-1.5-1.1-2.4-1.2c-0.2,0-0.3-0.1-0.3-0.4c0-0.1,0-0.3,0-0.4c-0.3,0.4-0.7,0.8-1,1.1c0.3,0.4,0.6,0.7,1,1.1
		c0-0.2,0-0.4,0-0.6c0-0.2,0.1-0.3,0.3-0.3c0.1,0,0.3,0,0.4,0.1c0.6,0.1,1.2,0.4,1.6,1c0,0.1,0.1,0.1,0.1,0.2
		C13,9.5,13.1,9.3,13.2,9.1z M12.3,5C12.3,5,12.3,5,12.3,5c0.1,0,0.3,0,0.4,0C12.9,5,13,5.1,13,5.3c0,0.9,0,1.8,0,2.7
		c0,0.1,0,0.1,0,0.2c0.1,0.2,0.3,0.3,0.5,0.5c0-0.1,0-0.1,0-0.2c0-1,0-2.1,0-3.1C13.5,5,13.5,5,13.8,5c0.1,0,0.3,0,0.4,0
		c-0.3-0.4-0.6-0.8-1-1.1C12.9,4.2,12.6,4.6,12.3,5z"/>
</g>
</svg>
