<?xml version="1.0" encoding="utf-8"?>
<!-- Generator: Adobe Illustrator 24.0.2, SVG Export Plug-In . SVG Version: 6.00 Build 0)  -->
<svg version="1.1" id="Layer_1" xmlns="http://www.w3.org/2000/svg" xmlns:xlink="http://www.w3.org/1999/xlink" x="0px" y="0px"
	 viewBox="0 0 18 24" style="enable-background:new 0 0 18 24;" xml:space="preserve">
<style type="text/css">
	.st0{fill:#FC6A55;}
	.st1{fill:#EDEDED;}
	.st2{fill:none;stroke:#FC6A55;stroke-miterlimit:10;}
	.st3{stroke:#FFFFFF;stroke-width:0.25;stroke-miterlimit:10;}
	.st4{fill:#656D7A;}
	.st5{fill:#FFFFFF;}
	.st6{filter:url(#Adobe_OpacityMaskFilter);}
	.st7{fill-rule:evenodd;clip-rule:evenodd;fill:#FFFFFF;}
	.st8{mask:url(#mask-2_8_);fill-rule:evenodd;clip-rule:evenodd;}
	.st9{filter:url(#Adobe_OpacityMaskFilter_1_);}
	.st10{mask:url(#mask-2_7_);fill-rule:evenodd;clip-rule:evenodd;}
	.st11{filter:url(#Adobe_OpacityMaskFilter_2_);}
	.st12{mask:url(#mask-2_6_);fill-rule:evenodd;clip-rule:evenodd;}
	.st13{filter:url(#Adobe_OpacityMaskFilter_3_);}
	.st14{mask:url(#mask-2_5_);fill-rule:evenodd;clip-rule:evenodd;}
	.st15{filter:url(#Adobe_OpacityMaskFilter_4_);}
	.st16{mask:url(#mask-2_2_);fill:none;stroke:#000000;stroke-width:2;}
	.st17{fill:#434343;}
	.st18{fill:#434343;stroke:#F9F9F9;stroke-width:0.25;stroke-miterlimit:10;}
	.st19{fill:none;stroke:#FC6A55;stroke-width:0.5;stroke-miterlimit:10;}
	.st20{fill:none;stroke:#FC6A55;stroke-width:0.75;stroke-miterlimit:10;}
	.st21{fill:#FC6A55;stroke:#FC6A55;stroke-width:0.5;stroke-miterlimit:10;}
	.st22{opacity:0.153;fill:url(#Path_146_);enable-background:new    ;}
	.st23{opacity:0.1;fill:#590BB2;enable-background:new    ;}
	.st24{fill:#8E8CA8;}
	.st25{fill:#F5F4F9;}
	.st26{fill:#FFD5B8;}
	.st27{fill:#FC8473;}
	.st28{fill:#1C3475;}
	.st29{fill:#DDD9E4;}
	.st30{fill:#828FB3;}
	.st31{opacity:7.584635e-02;fill:url(#Path_147_);enable-background:new    ;}
	.st32{fill:#FFBE92;}
	.st33{fill:#FB8E7F;}
	.st34{fill:#FDB1A6;}
	.st35{fill:#FC806F;}
	.st36{fill:#FFE783;}
	.st37{fill:#104478;}
	.st38{fill:none;stroke:#FFFFFF;stroke-miterlimit:10;}
	.st39{fill:none;stroke:#000000;stroke-width:0.15;stroke-miterlimit:10;}
	.st40{opacity:0.1;fill:url(#Path_148_);enable-background:new    ;}
	.st41{opacity:0.1;fill:url(#Path_149_);enable-background:new    ;}
	.st42{fill-rule:evenodd;clip-rule:evenodd;fill:#FC6A55;}
	.st43{fill-rule:evenodd;clip-rule:evenodd;}
</style>
<g>
	<g id="Online_store_6_">
		<path class="st0" d="M15.9,4c-0.1,0-0.2,0.1-0.2,0.2v6.9c0,0.3-0.3,0.6-0.6,0.6H4.9c-0.3,0-0.6-0.3-0.6-0.6V3.8
			c0-0.3,0.3-0.6,0.6-0.6h8.8c0.1,0,0.2-0.1,0.2-0.2s-0.1-0.2-0.2-0.2H4.9c-0.6,0-1,0.5-1,1v7.3c0,0.6,0.5,1,1,1h3.5v1.2H7
			c-0.6,0-1,0.5-1,1v0.4C6,14.9,6.1,15,6.2,15h7.7c0.1,0,0.2-0.1,0.2-0.2v-0.4c0-0.6-0.5-1-1-1h-1.4v-1.2h3.5c0.6,0,1-0.5,1-1V4.2
			C16.2,4.1,16.1,4,15.9,4z M13.7,14.4v0.2H6.4v-0.2c0-0.3,0.3-0.6,0.6-0.6h6.1C13.4,13.8,13.7,14,13.7,14.4z M11.3,13.4H8.8v-1.2
			h2.4V13.4z"/>
		<path class="st0" d="M15.3,10.3V4.2c0-0.1-0.1-0.2-0.2-0.2c-0.1,0-0.2,0.1-0.2,0.2v5.9H5.1V5.2h3.3c0.1,0,0.2-0.1,0.2-0.2
			c0-0.1-0.1-0.2-0.2-0.2H5.1V4h8.6c0.1,0,0.2-0.1,0.2-0.2s-0.1-0.2-0.2-0.2H4.9c-0.1,0-0.2,0.1-0.2,0.2v6.5c0,0.1,0.1,0.2,0.2,0.2
			h10.2C15.2,10.5,15.3,10.4,15.3,10.3z"/>
		<path class="st0" d="M10.6,11.1c0-0.3-0.3-0.6-0.6-0.6s-0.6,0.3-0.6,0.6s0.3,0.6,0.6,0.6S10.6,11.5,10.6,11.1z M10,11.3
			c-0.1,0-0.2-0.1-0.2-0.2c0-0.1,0.1-0.2,0.2-0.2s0.2,0.1,0.2,0.2C10.2,11.2,10.2,11.3,10,11.3z"/>
		<path class="st0" d="M9,4.4c-0.1,0-0.2,0.1-0.2,0.2c0,0,0,0,0,0l0.8,3.3c0,0.1,0.1,0.2,0.2,0.2h0.4c-0.2,0.2-0.2,0.6,0,0.9
			c0.2,0.2,0.6,0.2,0.9,0c0.2-0.2,0.2-0.6,0-0.8h1.1c-0.2,0.2-0.2,0.6,0,0.9c0.2,0.2,0.6,0.2,0.9,0c0.2-0.2,0.2-0.6,0-0.8h0.4
			c0,0,0,0,0,0c0,0,0,0,0,0c0.1,0,0.2-0.1,0.2-0.2l1.2-4.7h1.1c0.1,0,0.2-0.1,0.2-0.2s-0.1-0.2-0.2-0.2h-1.2c-0.1,0-0.2,0.1-0.2,0.2
			l-0.4,1.5H9z M13.9,5.4h-0.8l0.1-0.6h0.8L13.9,5.4z M13.6,6.6h-0.7l0.2-0.8h0.8L13.6,6.6z M13.4,7.7h-0.6l0.1-0.6h0.7L13.4,7.7z
			 M9.5,5.8h0.7l0.2,0.8H9.7L9.5,5.8z M10.7,5.8h0.8v0.8h-0.6L10.7,5.8z M11.5,5.4h-0.9l-0.1-0.6h1V5.4z M11.9,4.8h1l-0.1,0.6h-0.9
			V4.8z M11.9,5.8h0.8l-0.2,0.8h-0.6V5.8z M10.1,4.8l0.1,0.6H9.4L9.3,4.8H10.1z M9.8,7.1h0.7l0.1,0.6H10L9.8,7.1z M10.6,8.7
			c-0.1,0-0.2-0.1-0.2-0.2s0.1-0.2,0.2-0.2s0.2,0.1,0.2,0.2S10.8,8.7,10.6,8.7z M11,7.7l-0.1-0.6h0.6v0.6H11z M11.9,7.1h0.6
			l-0.1,0.6h-0.4V7.1z M12.7,8.7c-0.1,0-0.2-0.1-0.2-0.2s0.1-0.2,0.2-0.2c0.1,0,0.2,0.1,0.2,0.2S12.8,8.7,12.7,8.7z"/>
		<path class="st0" d="M5.6,4.2c-0.1,0-0.2,0.1-0.2,0.2s0.1,0.2,0.2,0.2h0.2C5.9,4.6,6,4.5,6,4.4S5.9,4.2,5.8,4.2H5.6z"/>
		<path class="st0" d="M6.4,4.2c-0.1,0-0.2,0.1-0.2,0.2s0.1,0.2,0.2,0.2h0.2c0.1,0,0.2-0.1,0.2-0.2S6.7,4.2,6.6,4.2H6.4z"/>
		<path class="st0" d="M7.2,4.2C7.1,4.2,7,4.3,7,4.4s0.1,0.2,0.2,0.2h0.2c0.1,0,0.2-0.1,0.2-0.2S7.5,4.2,7.4,4.2H7.2z"/>
		<path class="st0" d="M6.2,8.1h2.4c0.1,0,0.2-0.1,0.2-0.2V6.2C8.8,6.1,8.7,6,8.6,6H6.2C6.1,6,6,6.1,6,6.2v1.6C6,8,6.1,8.1,6.2,8.1z
			 M6.4,6.4h2v1.2h-2V6.4z"/>
		<path class="st0" d="M6.2,8.9h3.3c0.1,0,0.2-0.1,0.2-0.2S9.5,8.5,9.4,8.5H6.2C6.1,8.5,6,8.6,6,8.7S6.1,8.9,6.2,8.9z"/>
		<path class="st0" d="M6.2,9.7h4.1c0.1,0,0.2-0.1,0.2-0.2c0-0.1-0.1-0.2-0.2-0.2H6.2C6.1,9.3,6,9.4,6,9.5C6,9.6,6.1,9.7,6.2,9.7z"
			/>
		<path class="st0" d="M11.5,9.3c-0.1,0-0.2,0.1-0.2,0.2c0,0.1,0.1,0.2,0.2,0.2h2.9c0.1,0,0.2-0.1,0.2-0.2c0-0.1-0.1-0.2-0.2-0.2
			H11.5z"/>
	</g>
	<g>
		<path class="st0" d="M17.8,16.1c-0.3-0.6-1.1-0.8-1.6-0.4c0,0,0,0,0,0l-2.9,1.7c-0.2-0.2-0.4-0.4-0.7-0.5l-4.5-1.2
			c-0.3-0.1-0.7-0.1-1.1,0L5.4,16v-0.5c0-0.2-0.1-0.3-0.3-0.3H2.7c-0.2,0-0.3,0.1-0.3,0.3v0.3H0.3c-0.2,0-0.3,0.1-0.3,0.3v4.2
			c0,0.2,0.1,0.3,0.3,0.3h2.1v0.3c0,0.2,0.1,0.3,0.3,0.3h2.4c0.2,0,0.3-0.1,0.3-0.3v-0.4l0.4,0.2c0.3,0.1,0.6,0.2,0.9,0.2h4.5
			c0.4,0,0.7-0.1,1.1-0.3l5.1-2.9C18,17.4,18.2,16.6,17.8,16.1z M0.6,20v-3.6h1.8V20H0.6z M4.8,20.6H3v-4.8h1.8V20.6z M17.1,17.2
			L12,20.1c-0.2,0.1-0.5,0.2-0.8,0.2H6.8c-0.2,0-0.5-0.1-0.7-0.2l-0.7-0.3v-3.2l1.7-0.4c0.2-0.1,0.5-0.1,0.8,0l4.5,1.2
			c0.3,0.1,0.5,0.4,0.4,0.7c-0.1,0.3-0.4,0.5-0.7,0.4c0,0,0,0,0,0l-3.6-1c-0.2,0-0.3,0.1-0.4,0.2c0,0.2,0.1,0.3,0.2,0.4l3.6,1
			c0.1,0,0.2,0,0.3,0c0.7,0,1.2-0.5,1.2-1.2c0,0,0-0.1,0-0.1l3-1.8c0.3-0.2,0.7-0.1,0.8,0.2C17.5,16.7,17.4,17,17.1,17.2z"/>
	</g>
</g>
</svg>
