<?xml version="1.0" encoding="utf-8"?>
<!-- Generator: Adobe Illustrator 24.0.2, SVG Export Plug-In . SVG Version: 6.00 Build 0)  -->
<svg version="1.1" id="Layer_1" xmlns="http://www.w3.org/2000/svg" xmlns:xlink="http://www.w3.org/1999/xlink" x="0px" y="0px"
	 viewBox="0 0 58.3 58.8" style="enable-background:new 0 0 58.3 58.8;" xml:space="preserve">
<style type="text/css">
	.st0{fill:#FC6A55;}
	.st1{stroke:#FFFFFF;stroke-width:0.25;stroke-miterlimit:10;}
	.st2{fill:#656D7A;}
	.st3{fill:#FFFFFF;}
	.st4{filter:url(#Adobe_OpacityMaskFilter);}
	.st5{fill-rule:evenodd;clip-rule:evenodd;fill:#FFFFFF;}
	.st6{mask:url(#mask-2_8_);fill-rule:evenodd;clip-rule:evenodd;}
	.st7{filter:url(#Adobe_OpacityMaskFilter_1_);}
	.st8{mask:url(#mask-2_7_);fill-rule:evenodd;clip-rule:evenodd;}
	.st9{filter:url(#Adobe_OpacityMaskFilter_2_);}
	.st10{mask:url(#mask-2_6_);fill-rule:evenodd;clip-rule:evenodd;}
	.st11{filter:url(#Adobe_OpacityMaskFilter_3_);}
	.st12{mask:url(#mask-2_5_);fill-rule:evenodd;clip-rule:evenodd;}
	.st13{filter:url(#Adobe_OpacityMaskFilter_4_);}
	.st14{mask:url(#mask-2_2_);fill:none;stroke:#000000;stroke-width:2;}
	.st15{fill:#434343;}
	.st16{fill:#434343;stroke:#F9F9F9;stroke-width:0.25;stroke-miterlimit:10;}
	.st17{fill:none;stroke:#FC6A55;stroke-width:0.5;stroke-miterlimit:10;}
	.st18{fill:none;stroke:#FC6A55;stroke-width:0.75;stroke-miterlimit:10;}
	.st19{fill:#FC6A55;stroke:#FC6A55;stroke-width:0.5;stroke-miterlimit:10;}
</style>
<g>
	<g>
		<g>
			<g>
				<path class="st0" d="M16,19.9c-0.3-0.4-0.5-0.8-0.8-1.2c0-0.1-0.1-0.1-0.1-0.1c-0.2-0.1-0.5-0.1-0.6,0.1
					c-0.2,0.4-0.5,0.7-0.8,1.2c-1.3,1.9-3.3,4.9-3.3,6.5c0,1.2,0.5,2.3,1.3,3.1c0.8,0.8,1.9,1.3,3.1,1.3s2.3-0.5,3.1-1.3
					c0.8-0.8,1.3-1.9,1.3-3.1C19.3,24.7,17.3,21.8,16,19.9z M17.4,28.9c-0.7,0.7-1.5,1-2.5,1s-1.9-0.4-2.5-1c-0.7-0.7-1-1.5-1-2.5
					c0-1.4,1.9-4.2,3.1-6c0.2-0.2,0.3-0.4,0.4-0.6c0.1,0.2,0.3,0.4,0.4,0.6c1.3,1.9,3.1,4.6,3.1,6C18.4,27.4,18,28.3,17.4,28.9z"/>
			</g>
		</g>
		<g>
			<g>
				<path class="st0" d="M17.4,26.1c-0.2,0-0.4,0.2-0.5,0.4c0,0.4-0.1,0.7-0.3,1c-0.2,0.3-0.5,0.6-0.8,0.7c-0.2,0.1-0.3,0.4-0.2,0.6
					c0.1,0.2,0.4,0.3,0.6,0.2c0.5-0.3,0.8-0.6,1.1-1c0.3-0.4,0.4-0.9,0.4-1.4C17.8,26.3,17.7,26.1,17.4,26.1z"/>
			</g>
		</g>
	</g>
	<g>
		<g>
			<g>
				<path class="st0" d="M47.8,33.9c-0.1-5-4.2-8.6-8.8-8.4c-4.2,0.2-7.8,3.9-7.8,8.4c0,3.1,1.8,5.9,4.5,7.4V42h-0.7
					c-0.3,0-0.5,0.2-0.5,0.5c0,0.3,0.2,0.5,0.5,0.5h0.7v0.8h-0.7c-0.3,0-0.5,0.2-0.5,0.5s0.2,0.5,0.5,0.5h0.7v0.5h-0.7
					c-0.3,0-0.5,0.2-0.5,0.5s0.2,0.5,0.5,0.5h0.7v1c0,0.3,0.2,0.6,0.5,0.6h6.4c0.3,0,0.6-0.3,0.6-0.6v-1H44c0.3,0,0.5-0.2,0.5-0.5
					c0-0.3-0.2-0.5-0.5-0.5h-0.7V45H44c0.3,0,0.5-0.2,0.5-0.5s-0.2-0.5-0.5-0.5h-0.7v-0.8H44c0.3,0,0.5-0.2,0.5-0.5S44.3,42,44,42
					h-0.7v-0.7C46,39.9,47.8,37,47.8,33.9z M42.2,47.1L42.2,47.1h-5.4v-0.5h5.4V47.1z M42.2,45.5L42.2,45.5h-5.4V45h5.4V45.5z
					 M42.2,43.9L42.2,43.9h-5.4v-0.8h5.4V43.9z M42.5,40.5c-0.2,0.1-0.3,0.3-0.3,0.5v1h-5.4v-1c0-0.2-0.1-0.4-0.3-0.5
					c-3.6-1.7-5.3-5.9-3.6-9.6s5.9-5.3,9.6-3.6c3.6,1.7,5.3,5.9,3.6,9.6C45.4,38.5,44.1,39.8,42.5,40.5z"/>
			</g>
		</g>
		<g>
			<g>
				<path class="st0" d="M42.1,48.7h-5.2c-0.3,0-0.5,0.2-0.5,0.5c0,0.3,0.2,0.5,0.5,0.5h5.2c0.3,0,0.5-0.2,0.5-0.5
					C42.7,49,42.4,48.7,42.1,48.7z"/>
			</g>
		</g>
		<g>
			<g>
				<path class="st0" d="M44.8,35.1v-2.2l-1-0.2c-0.1-0.3-0.2-0.5-0.3-0.8l0.6-0.9l-1.6-1.5l-0.9,0.6c-0.3-0.1-0.5-0.2-0.8-0.3
					l-0.2-1h-2.2l-0.2,1c-0.3,0.1-0.5,0.2-0.8,0.3l-0.9-0.6l-1.6,1.6l0.6,0.9c-0.1,0.3-0.2,0.5-0.3,0.8l-1,0.2v2.2l1,0.2
					c0.1,0.3,0.2,0.5,0.3,0.8l-0.6,0.9l1.6,1.6l0.9-0.6c0.3,0.1,0.5,0.2,0.8,0.3l0.2,1h2.2l0.2-1c0.3-0.1,0.5-0.2,0.8-0.3l0.9,0.6
					l1.6-1.6l-0.6-0.9c0.1-0.3,0.2-0.5,0.3-0.8L44.8,35.1z M43.7,34.2l-0.9,0.2l-0.1,0.3c-0.1,0.4-0.2,0.8-0.5,1.1l-0.2,0.3l0.5,0.7
					l-0.3,0.3l-0.7-0.5l-0.3,0.2c-0.3,0.2-0.7,0.4-1.1,0.5l-0.4,0.1l-0.1,0.9h-0.4l-0.1-0.9l-0.4-0.1c-0.4-0.1-0.8-0.2-1.1-0.5
					l-0.3-0.2l-0.7,0.5l-0.3-0.3l0.5-0.7l-0.2-0.3c-0.2-0.3-0.4-0.7-0.5-1.1l-0.1-0.4l-0.9-0.1v-0.4l0.9-0.1l0.1-0.4
					c0.1-0.4,0.2-0.8,0.5-1.1l0.2-0.3l-0.5-0.7l0.3-0.3l0.7,0.5l0.3-0.2c0.3-0.2,0.7-0.4,1.1-0.5l0.4-0.1l0.1-0.9h0.4l0.1,0.9
					l0.4,0.1c0.4,0.1,0.8,0.2,1.1,0.5l0.3,0.2l0.7-0.5l0.3,0.3l-0.5,0.7l0.2,0.3c0.2,0.3,0.4,0.7,0.5,1.1l0.1,0.3l0.9,0.2V34.2
					L43.7,34.2z"/>
			</g>
		</g>
		<g>
			<g>
				<path class="st0" d="M39.5,31.8c-1.2,0-2.2,1-2.2,2.2c0,1.2,1,2.2,2.2,2.2s2.2-1,2.2-2.2C41.7,32.8,40.8,31.8,39.5,31.8z
					 M39.5,35.1c-0.6,0-1.1-0.5-1.1-1.1c0-0.6,0.5-1.1,1.1-1.1c0.6,0,1.1,0.5,1.1,1.1C40.7,34.6,40.2,35.1,39.5,35.1z"/>
			</g>
		</g>
	</g>
	<g>
		<path class="st0" d="M55.9,33.2H55c-0.3-1-0.7-2-1.2-2.9l0.7-0.7c0.4-0.4,0.7-1,0.7-1.6c0-0.6-0.2-1.2-0.7-1.6l-3.3-3.3
			c-0.9-0.9-2.3-0.9-3.2,0l-0.7,0.7c-0.9-0.5-1.9-0.9-2.9-1.2v-0.9c0-1.2-1-2.2-2.2-2.2h-1.6L25,3.8c-1.2-1.2-3.2-1.2-4.4,0
			l-6.7,6.7V8c0-0.8-0.6-1.4-1.4-1.4h-5C6.7,6.6,6.1,7.2,6.1,8v10.3l-4.9,4.9c-0.6,0.6-1,1.5-1,2.4c0,0.9,0.3,1.7,1,2.4
			c0.7,0.6,1.5,1,2.4,1s1.7-0.3,2.4-1l1-1v16.5c0,0.8,0.6,1.4,1.4,1.4h5.6c0.5,0,0.8-0.4,0.8-0.8c0-0.5-0.4-0.8-0.8-0.8H8.6V25.2
			l14.2-14.2l11.9,11.8c-0.7,0.3-1.5,0.6-2.2,1l-0.7-0.7c-0.9-0.9-2.3-0.9-3.2,0l-3.3,3.3c-0.4,0.4-0.7,1-0.7,1.6s0.2,1.2,0.7,1.6
			l0.7,0.7c-0.5,0.9-0.9,1.9-1.2,2.9h-0.9c-1.2,0-2.2,1-2.2,2.2V40c0,1.2,1,2.2,2.2,2.2h0.9c0.1,0.3,0.2,0.6,0.3,0.9h-7.3
			c-0.5,0-0.8,0.4-0.8,0.8c0,0.5,0.4,0.8,0.8,0.8h8.1c0,0.1,0.1,0.2,0.1,0.3l-0.7,0.7c-0.4,0.4-0.7,1-0.7,1.6s0.2,1.2,0.7,1.6
			l3.3,3.3c0.9,0.9,2.3,0.9,3.2,0l0.7-0.7c0.9,0.5,1.9,0.9,2.9,1.2v0.9c0,1.2,1,2.2,2.2,2.2h4.6c1.2,0,2.2-1,2.2-2.2v-0.9
			c1-0.3,2-0.7,2.9-1.2l0.7,0.7c0.9,0.9,2.3,0.9,3.2,0l3.3-3.3c0.4-0.4,0.7-1,0.7-1.6s-0.2-1.2-0.7-1.6l-0.7-0.7
			c0.5-0.9,0.9-1.9,1.2-2.9h0.9c1.2,0,2.2-1,2.2-2.2v-4.6C58.2,34.2,57.2,33.2,55.9,33.2L55.9,33.2z M7.8,8.3h4.5v3.9l-4.5,4.5V8.3z
			 M23.8,9.7c-0.6-0.6-1.5-0.6-2,0L4.7,26.7c-0.6,0.6-1.7,0.6-2.3,0C2,26.4,1.9,26,1.9,25.6s0.2-0.8,0.5-1.2L21.8,5
			c0.3-0.3,0.6-0.4,1-0.4c0.4,0,0.7,0.1,1,0.4l14.5,14.5h-0.6c0,0-0.1,0-0.1,0c-1,0.1-1.9,0.8-2.1,1.8c0,0,0,0,0,0L23.8,9.7z
			 M56.5,40c0,0.3-0.2,0.5-0.5,0.5h-1.6c-0.4,0-0.7,0.3-0.8,0.6c-0.3,1.3-0.8,2.5-1.5,3.7c-0.2,0.3-0.1,0.8,0.1,1l1.1,1.1
			c0.1,0.1,0.2,0.2,0.2,0.4s-0.1,0.3-0.2,0.4L50,51c-0.2,0.2-0.5,0.2-0.8,0l-1.1-1.1c-0.3-0.3-0.7-0.3-1-0.1
			c-1.1,0.7-2.4,1.2-3.7,1.5c-0.4,0.1-0.6,0.4-0.6,0.8v1.6c0,0.3-0.2,0.5-0.5,0.5h-4.6c-0.3,0-0.5-0.2-0.5-0.5v-1.6
			c0-0.4-0.3-0.7-0.6-0.8c-1.3-0.3-2.5-0.8-3.7-1.5c-0.1-0.1-0.3-0.1-0.4-0.1c-0.2,0-0.4,0.1-0.6,0.2L30.6,51
			c-0.2,0.2-0.5,0.2-0.8,0l-3.3-3.3c-0.1-0.1-0.2-0.2-0.2-0.4c0-0.1,0.1-0.3,0.2-0.4l1.1-1.1c0.3-0.3,0.3-0.7,0.1-1
			c-0.7-1.1-1.2-2.4-1.5-3.7c-0.1-0.4-0.4-0.6-0.8-0.6h-1.6c-0.3,0-0.5-0.2-0.5-0.5v-4.6c0-0.3,0.2-0.5,0.5-0.5h1.6
			c0.4,0,0.7-0.3,0.8-0.6c0.3-1.3,0.8-2.5,1.5-3.7c0.2-0.3,0.1-0.8-0.1-1l-1.1-1.1c-0.1-0.1-0.2-0.2-0.2-0.4c0-0.1,0.1-0.3,0.2-0.4
			l3.3-3.3c0.2-0.2,0.5-0.2,0.8,0l1.1,1.1c0.3,0.3,0.7,0.3,1,0.1c1.1-0.7,2.4-1.2,3.7-1.5c0,0,0,0,0,0c0,0,0.1,0,0.1,0c0,0,0,0,0,0
			c0.3-0.1,0.5-0.4,0.5-0.8v-1.6c0-0.3,0.2-0.5,0.5-0.5h4.6c0.3,0,0.5,0.2,0.5,0.5v1.6c0,0.4,0.3,0.7,0.6,0.8
			c1.3,0.3,2.5,0.8,3.7,1.5c0.3,0.2,0.8,0.1,1-0.1l1.1-1.1c0.2-0.2,0.5-0.2,0.8,0l3.3,3.3c0.1,0.1,0.2,0.2,0.2,0.4
			c0,0.1-0.1,0.3-0.2,0.4l-1.1,1.1c-0.3,0.3-0.3,0.7-0.1,1c0.7,1.1,1.2,2.4,1.5,3.7c0.1,0.4,0.4,0.6,0.8,0.6h1.6
			c0.3,0,0.5,0.2,0.5,0.5L56.5,40z"/>
	</g>
</g>
</svg>
