<?xml version="1.0" encoding="utf-8"?>
<!-- Generator: Adobe Illustrator 24.0.2, SVG Export Plug-In . SVG Version: 6.00 Build 0)  -->
<svg version="1.1" id="Layer_1" xmlns="http://www.w3.org/2000/svg" xmlns:xlink="http://www.w3.org/1999/xlink" x="0px" y="0px"
	 viewBox="0 0 58.3 58.8" style="enable-background:new 0 0 58.3 58.8;" xml:space="preserve">
<style type="text/css">
	.st0{fill:#FC6A55;}
	.st1{stroke:#FFFFFF;stroke-width:0.25;stroke-miterlimit:10;}
	.st2{fill:#656D7A;}
	.st3{fill:#FFFFFF;}
	.st4{filter:url(#Adobe_OpacityMaskFilter);}
	.st5{fill-rule:evenodd;clip-rule:evenodd;fill:#FFFFFF;}
	.st6{mask:url(#mask-2_8_);fill-rule:evenodd;clip-rule:evenodd;}
	.st7{filter:url(#Adobe_OpacityMaskFilter_1_);}
	.st8{mask:url(#mask-2_7_);fill-rule:evenodd;clip-rule:evenodd;}
	.st9{filter:url(#Adobe_OpacityMaskFilter_2_);}
	.st10{mask:url(#mask-2_6_);fill-rule:evenodd;clip-rule:evenodd;}
	.st11{filter:url(#Adobe_OpacityMaskFilter_3_);}
	.st12{mask:url(#mask-2_5_);fill-rule:evenodd;clip-rule:evenodd;}
	.st13{filter:url(#Adobe_OpacityMaskFilter_4_);}
	.st14{mask:url(#mask-2_2_);fill:none;stroke:#000000;stroke-width:2;}
	.st15{fill:#434343;}
	.st16{fill:#434343;stroke:#F9F9F9;stroke-width:0.25;stroke-miterlimit:10;}
	.st17{fill:none;stroke:#FC6A55;stroke-width:0.5;stroke-miterlimit:10;}
	.st18{fill:none;stroke:#FC6A55;stroke-width:0.75;stroke-miterlimit:10;}
	.st19{fill:#FC6A55;stroke:#FC6A55;stroke-width:0.5;stroke-miterlimit:10;}
</style>
<g>
	<g>
		<g>
			<path class="st0" d="M29.6,0.4c-0.5,0-0.9,0.4-0.9,0.9v1.1c0,0.5,0.4,0.9,0.9,0.9c0.5,0,0.9-0.4,0.9-0.9V1.3
				C30.4,0.8,30,0.4,29.6,0.4z"/>
		</g>
	</g>
	<g>
		<g>
			<path class="st0" d="M25.3,3.8L24.5,3c-0.3-0.3-0.9-0.3-1.2,0c-0.3,0.3-0.3,0.9,0,1.2L24.1,5c0.2,0.2,0.4,0.3,0.6,0.3
				s0.4-0.1,0.6-0.3C25.7,4.7,25.7,4.1,25.3,3.8z"/>
		</g>
	</g>
	<g>
		<g>
			<path class="st0" d="M22.7,7.2h-1.1c-0.5,0-0.9,0.4-0.9,0.9c0,0.5,0.4,0.9,0.9,0.9h1.1c0.5,0,0.9-0.4,0.9-0.9
				C23.6,7.6,23.2,7.2,22.7,7.2z"/>
		</g>
	</g>
	<g>
		<g>
			<path class="st0" d="M37.6,7.2h-1.1c-0.5,0-0.9,0.4-0.9,0.9C35.6,8.6,36,9,36.4,9h1.1c0.5,0,0.9-0.4,0.9-0.9
				C38.4,7.6,38.1,7.2,37.6,7.2z"/>
		</g>
	</g>
	<g>
		<g>
			<path class="st0" d="M35.8,3c-0.3-0.3-0.9-0.3-1.2,0l-0.8,0.8c-0.3,0.3-0.3,0.9,0,1.2c0.2,0.2,0.4,0.3,0.6,0.3
				c0.2,0,0.4-0.1,0.6-0.3l0.8-0.8C36.2,3.9,36.2,3.3,35.8,3z"/>
		</g>
	</g>
	<g>
		<g>
			<path class="st0" d="M52.9,44.1C52.9,44.1,52.9,44.1,52.9,44.1c0-0.1,0-0.1,0-0.1c0,0,0,0,0,0l-1.5-7.2c0,0,0,0,0,0l-1.5-7.2
				c0,0,0,0,0,0l-1.5-7.2c-0.1-0.4-0.4-0.7-0.8-0.7H10.8c-0.4,0-0.8,0.3-0.8,0.7l-1.5,7.2c0,0,0,0,0,0L7,36.7c0,0,0,0,0,0L5.4,44
				c0,0,0,0.1,0,0.1c0,0,0,0,0,0c0,0,0,0,0,0.1v3.4c0,0.5,0.4,0.9,0.9,0.9h20.3v4.8H20c-0.5,0-0.9,0.4-0.9,0.9v2.6h-8.3
				c-0.5,0-0.9,0.4-0.9,0.9s0.4,0.9,0.9,0.9H20h18.3h9.2c0.5,0,0.9-0.4,0.9-0.9s-0.4-0.9-0.9-0.9h-8.3v-2.6c0-0.5-0.4-0.9-0.9-0.9
				h-6.6v-4.8h20.3c0.5,0,0.9-0.4,0.9-0.9L52.9,44.1C52.9,44.2,52.9,44.2,52.9,44.1L52.9,44.1C52.9,44.1,52.9,44.1,52.9,44.1z
				 M51,43.3H37.6l-0.4-5.5h12.6L51,43.3z M48.3,30.5l1.2,5.5H37.1l-0.4-5.5H48.3z M46.8,23.3l1.2,5.5H36.6l-0.4-5.5H46.8z
				 M23.9,23.3h10.6l0.4,5.5H23.5L23.9,23.3z M23.3,30.5H35l0.4,5.5H23L23.3,30.5z M22.8,37.8h12.6l0.4,5.5H22.5L22.8,37.8z
				 M11.5,23.3h10.6l-0.4,5.5H10.4L11.5,23.3z M10,30.5h11.6L21.2,36H8.9L10,30.5z M37.5,55v1.7H20.9V55h6.6h3.4H37.5z M28.3,53.3
				v-4.8H30v4.8H28.3z M30.9,46.7C30.9,46.7,30.9,46.7,30.9,46.7l-3.4,0c0,0,0,0,0,0H7.1V45h4.1c0.5,0,0.9-0.4,0.9-0.9
				c0-0.5-0.4-0.9-0.9-0.9H7.3l1.2-5.5h12.6l-0.4,5.5h-5.8h0c-0.5,0-0.9,0.4-0.9,0.9c0,0.5,0.4,0.9,0.9,0.9h0h6.6c0,0,0,0,0,0
				c0,0,0,0,0,0h15.3c0,0,0,0,0,0c0,0,0,0,0,0h14.4v1.7L30.9,46.7L30.9,46.7z"/>
		</g>
	</g>
	<path class="st3" d="M39.2,22.4c-0.2,0-0.4,0.2-0.4,0.4c-0.2,0.8-0.5,1.6-0.9,2.3c-0.1,0.2-0.1,0.4,0,0.6l1.5,2.4l-2.2,2.2
		l-2.4-1.5c-0.2-0.1-0.4-0.1-0.6,0c-0.7,0.4-1.5,0.7-2.3,0.9c-0.2,0.1-0.4,0.2-0.4,0.4L30.8,33h-3.1l-0.7-2.8c0-0.2-0.2-0.4-0.4-0.4
		c-0.8-0.2-1.6-0.5-2.3-0.9c-0.2-0.1-0.4-0.1-0.6,0l-2.4,1.5l-2.2-2.2l1.5-2.4c0.1-0.2,0.1-0.4,0-0.6c-0.4-0.7-0.7-1.5-0.9-2.3
		c-0.1-0.2-0.2-0.4-0.4-0.4l-2.8-0.7v-3.1l2.8-0.7c0.2,0,0.4-0.2,0.4-0.4c0.2-0.8,0.5-1.6,0.9-2.3c0.1-0.2,0.1-0.4,0-0.6l-1.5-2.4
		l2.2-2.2l1.2,0.7c0,0.3-0.1,0.6-0.1,0.9l0,0c0,0,0,0,0,0c0,0,0,0,0,0.1c0,0,0,0,0,0c0,0,0,0,0,0c0,0,0,0,0,0
		c0,0.6,15.4,10.4,15.1,10.3c-0.3-0.1-0.6,0.1-0.7,0.4c-1.1,3.3-4.1,5.5-7.6,5.5c-4.4,0-7.9-3.6-7.9-7.9c0-1.9,0.7-3.7,1.9-5.1
		c0.2,0.3,0.4,0.7,0.6,1c-0.9,1.2-1.4,2.7-1.4,4.2c0,1.6,0.6,3.2,1.7,4.5c0.8,0.9,1.8,1.6,3,2c0,0,2,0.4,2.2,0.4c0.1,0,0.1,0,0.2,0
		c0.7,0,2-0.4,2-0.4c1.2-0.4,4.6-13.3,4.6-14.8c0,0,0,0,0,0c0,0,0,0,0,0c0,0,0,0,0,0c0,0,0,0,0,0c0,0,0,0,0,0c0,0,0,0,0,0
		c0,0,0,0,0,0c0-0.3,0-0.6-0.1-0.9l1.2-0.7l2.2,2.2l-1.5,2.4c-0.1,0.2-0.1,0.4,0,0.6c0.4,0.7,0.7,1.5,0.9,2.3
		c0.1,0.2,0.2,0.4,0.4,0.4l2.8,0.7v3.1h0L39.2,22.4z"/>
	<g>
		<polygon class="st0" points="26.4,6.2 29.6,4.4 32.8,6.2 32.8,9.9 29.6,11.8 26.4,9.9 26.4,6.2 		"/>
		<path class="st0" d="M23.9,11.2C23.9,11.2,23.9,11.2,23.9,11.2C23.9,11.2,23.9,11.2,23.9,11.2C23.9,11.2,23.9,11.2,23.9,11.2
			c0-0.4,0.1-0.8,0.1-1.2c0,0,0,0,0,0c0.2-0.8,0.6-1.6,1.1-2.3v2.6c0,0,0,0.1,0,0.1c0,0.2,0.1,0.3,0.3,0.4c0,0,0,0,0,0l3.8,2.2
			c0,0,0,0,0,0c0.2,0.1,0.3,0.1,0.5,0c0,0,0,0,0,0l3.8-2.2c0.2-0.1,0.3-0.3,0.3-0.5V7.7c0.5,0.7,0.9,1.4,1.1,2.3c0,0,0,0,0,0
			c0.1,0.4,0.1,0.8,0.1,1.2c0,0,0,0,0,0c0,0,0,0,0,0c0,0,0,0,0,0c0,0,0,0,0,0c0,1.4-0.5,2.7-1.4,3.7c-0.7,0.8-1.5,1.3-2.4,1.6
			c-0.2,0.1-0.4,0.3-0.4,0.6c0,0,0,0,0,0V25c-0.3,0.1-0.5,0.1-0.8,0.1v-5.5c0-0.3-0.3-0.6-0.6-0.6c-0.3,0-0.6,0.3-0.6,0.6v5.5
			c-0.3,0-0.6-0.1-0.8-0.1v-7.8c0,0,0,0,0,0c0,0,0,0,0,0c0,0,0,0,0,0c0,0,0,0,0,0c0,0,0-0.1,0-0.1c0,0,0,0,0,0c0,0,0-0.1,0-0.1
			c-0.1-0.2-0.2-0.3-0.4-0.4c-0.4-0.1-0.7-0.3-1.1-0.5c0,0,0,0,0,0c0,0,0,0,0,0c-0.5-0.3-1-0.7-1.3-1.1
			C24.4,13.9,23.9,12.6,23.9,11.2C23.9,11.2,23.9,11.2,23.9,11.2z"/>
		<path class="st0" d="M34.2,16.2c0.7,1,1,2.1,1,3.3c0,1.4-0.5,2.7-1.4,3.7c-0.5,0.6-1.1,1-1.7,1.3v-7c0,0,0,0,0,0c0,0,0,0,0,0
			c0,0,0,0,0,0c0,0,0,0,0,0c0,0,0,0,0,0c0,0,0,0,0,0c0,0,0,0,0,0c0,0,0,0,0,0c0,0,0,0,0,0c0,0,0,0,0,0c0,0,0,0,0,0c0,0,0,0,0,0
			c0,0,0,0,0,0c0,0,0,0,0,0c0,0,0,0,0,0c0,0,0,0,0,0c0,0,0,0,0,0c0,0,0,0,0,0c0,0,0,0,0,0c0,0,0,0,0,0c0,0,0,0,0,0c0,0,0,0,0,0
			c0,0,0,0,0,0c0,0,0,0,0,0c0,0,0,0,0,0c0,0,0,0,0,0c0,0,0,0,0,0c0,0,0,0,0,0c0,0,0,0,0,0c0,0,0,0,0,0c0,0,0,0,0,0c0,0,0,0,0,0
			c0,0,0,0,0,0c0,0,0,0,0,0c0,0,0,0,0,0c0,0,0,0,0,0c0,0,0,0,0,0c0,0,0,0,0,0c0,0,0,0,0,0c0,0,0,0,0,0c0,0,0,0,0,0c0,0,0,0,0,0
			c0,0,0,0,0,0c0,0,0,0,0,0c0,0,0,0,0,0c0,0,0,0,0,0c0,0,0,0,0,0c0,0,0,0,0,0c0,0,0.1,0,0.1-0.1c0,0,0,0,0,0c0,0,0,0,0,0
			c0,0,0,0,0,0c0,0,0,0,0,0c0,0,0,0,0,0c0,0,0,0,0.1,0c0,0,0,0,0,0c0,0,0,0,0,0c0,0,0,0,0,0c0,0,0,0,0,0c0,0,0,0,0,0
			c0,0,0.1,0,0.1-0.1c0,0,0,0,0,0c0,0,0,0,0,0c0,0,0,0,0,0c0,0,0.1-0.1,0.1-0.1c0,0,0,0,0,0c0,0,0,0,0,0c0,0,0,0,0,0
			c0,0,0.1,0,0.1-0.1c0,0,0,0,0,0c0,0,0,0,0,0c0,0,0,0,0,0c0,0,0.1-0.1,0.1-0.1c0,0,0,0,0,0c0,0,0,0,0,0c0,0,0,0,0,0
			c0,0,0.1,0,0.1-0.1c0,0,0,0,0,0C34.1,16.3,34.1,16.3,34.2,16.2C34.1,16.3,34.1,16.3,34.2,16.2C34.1,16.3,34.2,16.3,34.2,16.2
			L34.2,16.2C34.2,16.3,34.2,16.3,34.2,16.2C34.2,16.3,34.2,16.2,34.2,16.2z"/>
		<path class="st0" d="M27,17.6v7c-0.6-0.3-1.2-0.8-1.7-1.3c-0.9-1-1.4-2.3-1.4-3.7c0-1.2,0.4-2.3,1-3.3c0,0,0,0,0,0c0,0,0,0,0,0
			c0,0,0,0,0,0c0,0,0,0,0,0c0,0,0,0,0,0c0,0,0,0,0,0c0,0,0,0,0,0c0,0,0,0,0.1,0.1c0,0,0,0,0,0c0,0,0,0,0,0c0,0,0,0,0,0c0,0,0,0,0,0
			c0,0,0,0,0,0c0,0,0,0,0,0c0,0,0,0,0,0c0,0,0,0,0,0c0,0,0,0,0,0c0,0,0,0,0,0c0,0,0,0,0,0c0,0,0,0,0,0c0,0,0,0,0,0c0,0,0,0,0,0
			c0,0,0,0,0,0c0,0,0,0,0,0c0,0,0,0,0,0c0,0,0,0,0,0c0,0,0,0,0,0c0,0,0,0,0,0c0,0,0,0,0,0c0,0,0,0,0,0c0,0,0,0,0,0c0,0,0,0,0,0
			c0,0,0,0,0,0c0,0,0,0,0,0c0,0,0,0,0,0c0,0,0,0,0,0c0,0,0,0,0,0c0,0,0,0,0,0c0,0,0,0,0,0c0,0,0,0,0,0c0,0,0,0,0,0c0,0,0,0,0,0
			c0,0,0,0,0,0c0,0,0,0,0,0c0,0,0,0,0,0c0,0,0,0,0,0c0,0,0,0,0,0c0,0,0,0,0,0c0,0,0,0,0,0c0,0,0,0,0,0c0,0,0,0,0,0c0,0,0,0,0,0
			c0,0,0,0,0,0c0,0,0,0,0,0c0,0,0,0,0,0c0,0,0,0,0,0c0,0,0,0,0,0c0,0,0,0,0,0c0,0,0,0,0,0c0,0,0,0,0,0c0,0,0,0,0,0c0,0,0,0,0,0
			c0,0,0,0,0,0c0,0,0,0,0,0c0,0,0,0,0,0c0,0,0,0,0,0c0,0,0,0,0,0c0,0,0,0,0,0c0,0,0,0,0,0c0,0,0,0,0,0c0,0,0,0,0,0c0,0,0,0,0,0
			c0,0,0,0,0,0c0,0,0,0,0,0c0,0,0,0,0,0c0,0,0,0,0,0c0,0,0,0,0,0c0,0,0,0,0,0c0,0,0,0,0,0c0,0,0,0,0,0c0,0,0,0,0,0c0,0,0,0,0,0
			c0,0,0,0,0,0c0,0,0,0,0,0c0,0,0,0,0,0c0,0,0,0,0,0c0,0,0,0,0,0c0,0,0,0,0,0c0,0,0,0,0,0c0,0,0,0,0,0c0,0,0,0,0,0c0,0,0,0,0,0
			C26.9,17.5,26.9,17.5,27,17.6C26.9,17.5,26.9,17.5,27,17.6C26.9,17.5,26.9,17.5,27,17.6C26.9,17.5,26.9,17.5,27,17.6
			C27,17.6,27,17.6,27,17.6z"/>
		<path class="st0" d="M39.5,21.7c-0.2,0-0.4,0.2-0.4,0.4c-0.2,0.8-0.5,1.6-0.9,2.3c-0.1,0.2-0.1,0.4,0,0.6l1.5,2.4l-2.2,2.2
			l-2.4-1.5c-0.2-0.1-0.4-0.1-0.6,0c-0.7,0.4-1.5,0.7-2.3,0.9c-0.2,0.1-0.4,0.2-0.4,0.4l-0.7,2.8H28l-0.7-2.8c0-0.2-0.2-0.4-0.4-0.4
			c-0.8-0.2-1.6-0.5-2.3-0.9c-0.2-0.1-0.4-0.1-0.6,0l-2.4,1.5l-2.2-2.2L21,25c0.1-0.2,0.1-0.4,0-0.6c-0.4-0.7-0.7-1.5-0.9-2.3
			c-0.1-0.2-0.2-0.4-0.4-0.4L16.8,21V18l2.8-0.7c0.2,0,0.4-0.2,0.4-0.4c0.2-0.8,0.5-1.6,0.9-2.3c0.1-0.2,0.1-0.4,0-0.6l-1.5-2.4
			l2.2-2.2l1.2,0.7c0,0.3-0.1,0.6-0.1,0.9l0,0c0,0,0,0,0,0c0,0,0,0,0,0c0,0,0,0,0,0c0,0,0,0,0,0c0,0,0,0,0,0c0,0,0,0,0,0
			c0,0.6,0.1,1.3,0.3,1.9c-1.7,1.7-2.6,4-2.6,6.4c0,5,4.1,9.1,9.1,9.1c2,0,3.9-0.6,5.4-1.8c1.6-1.2,2.7-2.7,3.3-4.6
			c0.1-0.3-0.1-0.6-0.4-0.7c-0.3-0.1-0.6,0.1-0.7,0.4c-1.1,3.3-4.1,5.5-7.6,5.5c-4.4,0-7.9-3.6-7.9-7.9c0-1.9,0.7-3.7,1.9-5.1
			c0.2,0.3,0.4,0.7,0.6,1c-0.9,1.2-1.4,2.7-1.4,4.2c0,1.6,0.6,3.2,1.7,4.5c0.8,0.9,1.8,1.6,3,2c0,0,0,0,0,0c0.5,0.2,1,0.3,1.5,0.3
			c0.2,0,0.5,0,0.7,0c0.1,0,0.1,0,0.2,0c0.7,0,1.4-0.1,2-0.4c0,0,0,0,0,0c1.2-0.4,2.2-1.1,3-2c1.1-1.2,1.7-2.8,1.7-4.5
			c0-1.5-0.5-3-1.4-4.2c0.9-1.2,1.4-2.6,1.4-4.1c0,0,0,0,0,0c0,0,0,0,0,0c0,0,0,0,0,0c0,0,0,0,0,0c0,0,0,0,0,0c0,0,0,0,0,0
			c0,0,0,0,0,0c0-0.3,0-0.6-0.1-0.9l1.2-0.7l2.2,2.2L38.2,14c-0.1,0.2-0.1,0.4,0,0.6c0.4,0.7,0.7,1.5,0.9,2.3
			c0.1,0.2,0.2,0.4,0.4,0.4l2.8,0.7V21h0L39.5,21.7z"/>
	</g>
</g>
</svg>
