<?xml version="1.0" encoding="utf-8"?>
<!-- Generator: Adobe Illustrator 24.0.2, SVG Export Plug-In . SVG Version: 6.00 Build 0)  -->
<svg version="1.1" id="Layer_1" xmlns="http://www.w3.org/2000/svg" xmlns:xlink="http://www.w3.org/1999/xlink" x="0px" y="0px"
	 viewBox="0 0 58.3 58.8" style="enable-background:new 0 0 58.3 58.8;" xml:space="preserve">
<style type="text/css">
	.st0{fill:#FC6A55;}
	.st1{stroke:#FFFFFF;stroke-width:0.25;stroke-miterlimit:10;}
	.st2{fill:#656D7A;}
	.st3{fill:#FFFFFF;}
	.st4{filter:url(#Adobe_OpacityMaskFilter);}
	.st5{fill-rule:evenodd;clip-rule:evenodd;fill:#FFFFFF;}
	.st6{mask:url(#mask-2_8_);fill-rule:evenodd;clip-rule:evenodd;}
	.st7{filter:url(#Adobe_OpacityMaskFilter_1_);}
	.st8{mask:url(#mask-2_7_);fill-rule:evenodd;clip-rule:evenodd;}
	.st9{filter:url(#Adobe_OpacityMaskFilter_2_);}
	.st10{mask:url(#mask-2_6_);fill-rule:evenodd;clip-rule:evenodd;}
	.st11{filter:url(#Adobe_OpacityMaskFilter_3_);}
	.st12{mask:url(#mask-2_5_);fill-rule:evenodd;clip-rule:evenodd;}
	.st13{filter:url(#Adobe_OpacityMaskFilter_4_);}
	.st14{mask:url(#mask-2_2_);fill:none;stroke:#000000;stroke-width:2;}
	.st15{fill:#434343;}
	.st16{fill:#434343;stroke:#F9F9F9;stroke-width:0.25;stroke-miterlimit:10;}
	.st17{fill:none;stroke:#FC6A55;stroke-width:0.5;stroke-miterlimit:10;}
	.st18{fill:none;stroke:#FC6A55;stroke-width:0.75;stroke-miterlimit:10;}
	.st19{fill:#FC6A55;stroke:#FC6A55;stroke-width:0.5;stroke-miterlimit:10;}
</style>
<g id="outline">
	<path class="st0" d="M57.2,41h-1V28.4c0-0.5-0.4-1-1-1h-3.9c-0.5,0-1,0.4-1,1V41h-1.9V28.4c0-0.5-0.4-1-1-1h-3.9c-0.5,0-1,0.4-1,1
		V41h-2.5c-0.9-4.5-1.4-9-1.3-13.5c0-0.5-0.4-1-1-1H25.3c-0.5,0-1,0.4-1,1c0,3-0.2,5.9-0.6,8.9c-0.9-4.2-1.4-8.5-1.4-12.7
		c0-0.5-0.4-1-1-1H8.9c-0.5,0-1,0.4-1,1c0,10.3-2.6,20.4-7.6,29.5c-0.3,0.5-0.1,1.1,0.3,1.3c0.2,0.1,0.3,0.1,0.5,0.1h56.1
		c0.5,0,1-0.4,1-1V42C58.2,41.4,57.7,41,57.2,41L57.2,41z M52.4,29.4h1.9v1.9h-1.9V29.4z M52.4,33.3h1.9v1.9h-1.9V33.3z M52.4,37.1
		h1.9V41h-1.9V37.1z M44.6,29.4h1.9v1.9h-1.9V29.4z M44.6,33.3h1.9v1.9h-1.9V33.3z M44.6,37.1h1.9V41h-1.9V37.1z M26.3,28.4h10.6
		c0,0.7,0,1.3,0.1,1.9H26.2C26.2,29.7,26.3,29.1,26.3,28.4z M26.1,32.3h11c0.1,1.6,0.3,3.3,0.5,4.8H25.6C25.8,35.6,26,34,26.1,32.3
		L26.1,32.3z M9.8,24.6h10.6c0,0.6,0,1.3,0.1,1.9H9.8C9.8,25.9,9.8,25.2,9.8,24.6z M9.6,28.4h11c0.2,1.9,0.4,3.9,0.7,5.8H8.9
		C9.2,32.4,9.5,30.4,9.6,28.4L9.6,28.4z M19,52.6H2.8c2.7-5.2,4.6-10.7,5.8-16.4h13.2c0.3,1.6,0.7,3.3,1.2,4.9
		C22.2,45.1,20.9,49,19,52.6L19,52.6z M33,42v10.6H21.2c2.1-4.3,3.5-8.8,4.2-13.5h12.5c0.1,0.7,0.2,1.3,0.4,1.9H34
		C33.5,41,33,41.4,33,42z M52.4,52.6h-1.9v-3.9h1.9V52.6z M56.2,52.6h-1.9v-4.8c0-0.5-0.4-1-1-1h-3.9c-0.5,0-1,0.4-1,1v4.8H35v-9.7
		h21.3V52.6z"/>
	<path class="st0" d="M13.7,15.9c0,2.1,1.7,3.9,3.9,3.9s3.9-1.7,3.9-3.9c0,0,0-0.1,0-0.1c0.9-0.2,1.8-0.6,2.4-1.3
		c0.8,0.8,1.8,1.2,2.8,1.4c1,2.4,3.9,3.6,6.3,2.6c1.1-0.5,2.1-1.4,2.6-2.5c0.6-0.1,1.1-0.2,1.6-0.4c0.8,2.5,3.5,3.9,6.1,3.1
		c1.4-0.4,2.5-1.5,3-2.9c0.4,0.1,0.9,0.2,1.3,0.2c2.7,0,4.8-2.1,4.9-4.8c0-2.7-2.1-4.8-4.8-4.9c-2,0-3.8,1.2-4.5,3.1
		c-0.8-0.2-1.6-0.2-2.3-0.1c-0.5-3.2-3.4-5.3-6.6-4.9c-1.7,0.3-3.2,1.3-4.1,2.8c-1.9-1.4-4.5-1.1-6.2,0.5c-1.9-1.9-4.9-1.9-6.8,0
		c-0.9,0.9-1.4,2.1-1.4,3.4c0,0.5,0.1,0.9,0.2,1.4C14.5,13.1,13.7,14.4,13.7,15.9L13.7,15.9z M17.3,14c0.5-0.1,0.9-0.6,0.8-1.1
		c0-0.1-0.1-0.3-0.1-0.4c-0.3-0.4-0.4-1-0.4-1.5c0-1.6,1.3-2.9,2.9-2.9c1.1,0,2.1,0.6,2.6,1.5c0.3,0.5,0.9,0.6,1.4,0.3
		c0.1-0.1,0.2-0.2,0.3-0.3c0.7-1.4,2.5-1.9,3.9-1.2c0.4,0.2,0.7,0.5,1,0.9c0.3,0.4,0.9,0.5,1.4,0.2c0.2-0.1,0.3-0.3,0.4-0.5
		C31.8,7,34,5.8,36,6.3c1.7,0.5,2.8,2,2.8,3.7c0,0.1,0,0.2,0,0.3l0,0.2c-0.1,0.5,0.3,1,0.8,1.1c0.2,0,0.4,0,0.6-0.1
		c0.9-0.6,2.1-0.6,3,0c0.5,0.3,1.1,0.1,1.3-0.3c0.1-0.1,0.1-0.3,0.1-0.4c0.2-1.6,1.6-2.7,3.2-2.6c1.6,0.2,2.7,1.6,2.6,3.2
		c-0.2,1.5-1.4,2.6-2.9,2.6c-0.5,0-1-0.1-1.5-0.4c-0.5-0.3-1.1-0.1-1.3,0.3c-0.1,0.1-0.1,0.3-0.1,0.4c-0.2,1.6-1.6,2.7-3.2,2.6
		c-1.5-0.1-2.6-1.4-2.6-2.9c0,0,0,0,0-0.1c0-0.5-0.4-1-1-1c-0.2,0-0.4,0.1-0.6,0.2c-0.4,0.3-0.9,0.5-1.4,0.7c0-1.3-0.6-2.6-1.6-3.5
		L33,11.8c0.8,0.7,1.2,1.8,0.9,2.8c0,0,0,0,0,0c-0.4,1.5-2,2.5-3.5,2.1c-1-0.3-1.8-1.1-2.1-2.1c-0.1-0.4-0.5-0.7-1-0.7
		c-0.1,0-0.1,0-0.1,0c-1.1,0-2-0.6-2.5-1.5c-0.3-0.5-0.9-0.6-1.4-0.3c-0.1,0.1-0.2,0.2-0.3,0.3c-0.5,0.9-1.5,1.5-2.5,1.5
		c0,0-0.1,0-0.2,0c-0.3,0-0.6,0.1-0.8,0.4c-0.2,0.3-0.2,0.6-0.1,0.9c0.1,0.2,0.1,0.4,0.1,0.7c0,1.1-0.9,1.9-1.9,1.9
		c-1.1,0-1.9-0.9-1.9-1.9C15.6,14.9,16.3,14.1,17.3,14L17.3,14z"/>
	<path class="st0" d="M29.2,12h1.9v1.9h-1.9V12z"/>
	<path class="st0" d="M36.9,44.9h1.9v1.9h-1.9V44.9z"/>
	<path class="st0" d="M40.8,44.9h1.9v1.9h-1.9V44.9z"/>
	<path class="st0" d="M40.8,48.7h1.9v1.9h-1.9V48.7z"/>
	<path class="st0" d="M44.6,44.9h1.9v1.9h-1.9V44.9z"/>
	<path class="st0" d="M44.6,48.7h1.9v1.9h-1.9V48.7z"/>
	<path class="st0" d="M36.9,48.7h1.9v1.9h-1.9V48.7z"/>
	<path class="st0" d="M6.9,48.7h1.9v1.9H6.9V48.7z"/>
	<path class="st0" d="M10.8,48.7h1.9v1.9h-1.9V48.7z"/>
</g>
</svg>
