<?xml version="1.0" encoding="utf-8"?>
<!-- Generator: Adobe Illustrator 24.0.2, SVG Export Plug-In . SVG Version: 6.00 Build 0)  -->
<svg version="1.1" id="Layer_1" xmlns="http://www.w3.org/2000/svg" xmlns:xlink="http://www.w3.org/1999/xlink" x="0px" y="0px"
	 viewBox="0 0 58.3 58.8" style="enable-background:new 0 0 58.3 58.8;" xml:space="preserve">
<style type="text/css">
	.st0{fill:#FC6A55;}
	.st1{stroke:#FFFFFF;stroke-width:0.25;stroke-miterlimit:10;}
	.st2{fill:#656D7A;}
	.st3{fill:#FFFFFF;}
	.st4{filter:url(#Adobe_OpacityMaskFilter);}
	.st5{fill-rule:evenodd;clip-rule:evenodd;fill:#FFFFFF;}
	.st6{mask:url(#mask-2_8_);fill-rule:evenodd;clip-rule:evenodd;}
	.st7{filter:url(#Adobe_OpacityMaskFilter_1_);}
	.st8{mask:url(#mask-2_7_);fill-rule:evenodd;clip-rule:evenodd;}
	.st9{filter:url(#Adobe_OpacityMaskFilter_2_);}
	.st10{mask:url(#mask-2_6_);fill-rule:evenodd;clip-rule:evenodd;}
	.st11{filter:url(#Adobe_OpacityMaskFilter_3_);}
	.st12{mask:url(#mask-2_5_);fill-rule:evenodd;clip-rule:evenodd;}
	.st13{filter:url(#Adobe_OpacityMaskFilter_4_);}
	.st14{mask:url(#mask-2_2_);fill:none;stroke:#000000;stroke-width:2;}
	.st15{fill:#434343;}
	.st16{fill:#434343;stroke:#F9F9F9;stroke-width:0.25;stroke-miterlimit:10;}
	.st17{fill:none;stroke:#FC6A55;stroke-width:0.5;stroke-miterlimit:10;}
	.st18{fill:none;stroke:#FC6A55;stroke-width:0.75;stroke-miterlimit:10;}
	.st19{fill:#FC6A55;stroke:#FC6A55;stroke-width:0.5;stroke-miterlimit:10;}
</style>
<g>
	<path class="st0" d="M57.3,38.1L51,36.3l7.1-29c0,0,0,0,0,0c0,0,0,0,0-0.1c0,0,0,0,0,0c0,0,0,0,0,0c0-0.1,0-0.3,0-0.4L56.8,2
		c-0.2-0.6-0.8-1-1.4-0.8L34.3,6.8c-0.3-0.2-0.6-0.5-0.9-0.7c-1.5-0.9-3.2-1.1-4.8-0.6c-2.1,0.6-3.7,2.1-4.4,4l-13.5,3.6L8.4,5
		C8.3,4.3,7.7,4,7.1,4.2L1,5.8C0.5,5.9,0.2,6.3,0.2,6.8c-0.3,8.6,2.6,14.4,5,17.7c2.6,3.7,5.4,5.3,5.5,5.4c0.2,0.1,0.4,0.2,0.6,0.2
		c0.1,0,0.2,0,0.3,0l2.3-0.6c0.6-0.2,1-0.8,0.8-1.4l-2.1-8L26,16.5c0.1,0.1,0.1,0.1,0.2,0.2L24.6,25c0,0,0,0,0,0l-3.4,17.4
		c0,0,0,0,0,0l-1.6,8.2h-3.9c-0.6,0-1.1,0.5-1.1,1.1v3.7H1.3c-0.6,0-1.1,0.5-1.1,1.1c0,0.6,0.5,1.1,1.1,1.1H57
		c0.6,0,1.1-0.5,1.1-1.1V39.2C58.2,38.7,57.8,38.3,57.3,38.1z M11.4,27.8c-1.8-1.2-9.1-7.2-9-20l4.1-1.1l5.6,20.9L11.4,27.8z
		 M55.9,40.1v3.6l-6.3,1.8c-1.1,0.2-2.2,0-3.1-0.7c-0.9-0.7-1.4-1.7-1.4-2.7c0-0.1,0-0.2,0-0.3c0-1.1,0.6-2.1,1.4-2.7
		c0.5-0.4,1.1-0.6,1.7-0.7l-0.8,3.4c-0.1,0.6,0.2,1.2,0.8,1.4c0.1,0,0.2,0,0.3,0c0.5,0,1-0.3,1.1-0.9l0.9-3.6L55.9,40.1z M55.6,6.3
		l-5.3,1.4c-0.6,0.2-1,0.8-0.8,1.4c0.2,0.6,0.8,1,1.4,0.8l4.6-1.2l-6.7,27.3c-1.3,0-2.6,0.5-3.7,1.3c-1.4,1.1-2.2,2.7-2.3,4.4
		c0,0.2,0,0.3,0,0.5c0.1,1.7,0.9,3.4,2.3,4.4c1.1,0.8,2.4,1.3,3.7,1.3c0.4,0,0.9,0,1.3-0.1c0,0,0,0,0.1,0l0.3-0.1v7.8h-4.6v-3.7
		c0-0.6-0.5-1.1-1.1-1.1h-4l-3.5-17.6c0,0,0,0,0,0l-2.8-14.3c0,0,0,0,0,0L34,16.7c1-0.8,1.7-1.8,2.1-3l5-1.3c0.6-0.2,1-0.8,0.8-1.4
		c-0.2-0.6-0.8-1-1.4-0.8l-4,1.1c0-0.9-0.3-1.8-0.7-2.6l19.1-5.1L55.6,6.3z M31,18c0.3,0,0.6-0.1,0.8-0.2c0,0,0.1,0,0.1,0l0.1,0.8
		l-4.7,3.8l0.9-4.6C29.1,18.1,30,18.1,31,18C31,18,31,18,31,18z M38.4,50.6H25.1l12.1-6.3L38.4,50.6z M36.6,41.5H25.9l9.4-6.3
		L36.6,41.5z M34.7,32.2l-7.4,0l6.4-4.9L34.7,32.2z M33.1,24.1h-4.3l3.7-3L33.1,24.1z M26.6,26.3h4.6l-5.4,4.2L26.6,26.3z M25,34.4
		l7.4,0l-8.5,5.7L25,34.4z M23.2,43.8h10.2L22,49.7L23.2,43.8z M29.1,7.7c0.4-0.1,0.7-0.1,1.1-0.1c0.7,0,1.4,0.2,2.1,0.6
		c0.3,0.2,0.7,0.4,0.9,0.7c0,0,0,0,0,0c0.3,0.3,0.5,0.7,0.7,1c0.9,1.8,0.2,4.1-1.4,5.2c-0.9,0.6-2,0.8-3.1,0.6
		c-1-0.2-1.9-0.7-2.5-1.5c-0.7-1-1-2.2-0.8-3.4C26.4,9.3,27.5,8.1,29.1,7.7z M23.7,12c0,0.9,0.3,1.8,0.7,2.6l-12.5,3.3l-0.7-2.6
		L23.7,12z M16.7,55.4v-2.5h3.7h0h0h23.1v2.5H16.7z M52.7,55.4V47l3.2-0.9v9.4H52.7z"/>
	<path class="st0" d="M44.7,10.6c0.2,0.4,0.6,0.7,1.1,0.7c0.5,0,0.9-0.3,1-0.8c0.1-0.4,0-0.9-0.4-1.2C46,9,45.4,9,45,9.2
		C44.6,9.5,44.5,10.1,44.7,10.6z"/>
</g>
</svg>
