<?xml version="1.0" encoding="utf-8"?>
<!-- Generator: Adobe Illustrator 24.1.1, SVG Export Plug-In . SVG Version: 6.00 Build 0)  -->
<svg version="1.1" id="Layer_1" xmlns="http://www.w3.org/2000/svg" xmlns:xlink="http://www.w3.org/1999/xlink" x="0px" y="0px"
	 viewBox="0 0 18 24" style="enable-background:new 0 0 18 24;" xml:space="preserve">
<style type="text/css">
	.st0{fill:#FC6A55;}
	.st1{fill:#EDEDED;}
	.st2{fill:none;stroke:#FC6A55;stroke-miterlimit:10;}
	.st3{fill:#222F3F;}
	.st4{fill:#383838;}
	.st5{fill:#FFFFFF;}
	.st6{fill:#656D7A;}
	.st7{fill:#C4C4C4;}
	.st8{filter:url(#Adobe_OpacityMaskFilter);}
	.st9{fill-rule:evenodd;clip-rule:evenodd;fill:#FFFFFF;}
	.st10{mask:url(#mask-2_8_);fill-rule:evenodd;clip-rule:evenodd;fill:#FFFFFF;}
	.st11{filter:url(#Adobe_OpacityMaskFilter_1_);}
	.st12{mask:url(#mask-2_7_);fill-rule:evenodd;clip-rule:evenodd;fill:#FFFFFF;}
	.st13{filter:url(#Adobe_OpacityMaskFilter_2_);}
	.st14{mask:url(#mask-2_6_);fill-rule:evenodd;clip-rule:evenodd;fill:#FFFFFF;}
	.st15{filter:url(#Adobe_OpacityMaskFilter_3_);}
	.st16{mask:url(#mask-2_5_);fill-rule:evenodd;clip-rule:evenodd;fill:#FFFFFF;}
	.st17{filter:url(#Adobe_OpacityMaskFilter_4_);}
	.st18{mask:url(#mask-2_2_);fill:none;stroke:#FFFFFF;stroke-width:1.5;stroke-miterlimit:10;}
	.st19{fill:#B4A3EE;}
	.st20{fill:#434343;}
	.st21{fill:#434343;stroke:#F9F9F9;stroke-width:0.25;stroke-miterlimit:10;}
	.st22{fill:none;stroke:#FC6A55;stroke-width:0.75;stroke-miterlimit:10;}
	.st23{fill:#FC6A55;stroke:#FC6A55;stroke-width:0.25;stroke-miterlimit:10;}
	.st24{fill:#FC6A55;stroke:#FC6A55;stroke-width:0.5;stroke-miterlimit:10;}
	.st25{opacity:0.153;fill:url(#Path_44_);enable-background:new    ;}
	.st26{opacity:0.1;fill:#590BB2;enable-background:new    ;}
	.st27{fill:#8E8CA8;}
	.st28{fill:#F5F4F9;}
	.st29{fill:#FFD5B8;}
	.st30{fill:#FC8473;}
	.st31{fill:#1C3475;}
	.st32{fill:#DDD9E4;}
	.st33{fill:#828FB3;}
	.st34{opacity:7.584635e-02;fill:url(#Path_45_);enable-background:new    ;}
	.st35{fill:#FFBE92;}
	.st36{fill:#FB8E7F;}
	.st37{fill:#FDB1A6;}
	.st38{fill:#FC806F;}
	.st39{fill:#FFE783;}
	.st40{fill:#104478;}
	.st41{fill:none;stroke:#FFFFFF;stroke-miterlimit:10;}
	.st42{fill:none;stroke:#000000;stroke-width:0.15;stroke-miterlimit:10;}
	.st43{opacity:0.1;fill:url(#Path_46_);enable-background:new    ;}
	.st44{opacity:0.1;fill:url(#Path_47_);enable-background:new    ;}
	.st45{fill-rule:evenodd;clip-rule:evenodd;fill:#FC6A55;}
	.st46{fill-rule:evenodd;clip-rule:evenodd;}
	.st47{fill:#FF6757;}
	.st48{fill:#6C973D;}
	.st49{fill:none;stroke:#FFFFFF;stroke-width:0.5;stroke-miterlimit:10;}
	.st50{fill:#606060;}
	.st51{fill:#F16A56;}
	.st52{fill:#515252;}
	.st53{fill:#656565;}
	.st54{fill:#F26A56;}
	.st55{fill:none;stroke:#F16A56;stroke-miterlimit:10;}
	.st56{fill:none;stroke:#929292;stroke-miterlimit:10;}
	.st57{fill:#929292;}
	.st58{fill:none;stroke:#000000;stroke-width:0.5;stroke-miterlimit:10;}
	.st59{fill:#A8A7A7;}
	.st60{fill:#F79F91;}
	.st61{fill:#9BDBD5;}
	.st62{fill:#222121;}
	.st63{stroke:#000000;stroke-width:0.25;stroke-miterlimit:10;}
</style>
<g id="Consult-Talk_16_">
	<rect x="4.2" y="9.9" class="st0" width="0.6" height="0.6"/>
	<rect x="7.2" y="9.9" class="st0" width="0.6" height="0.6"/>
	<path class="st0" d="M17.7,13.3l-1.2-0.2c-0.1-0.2-0.1-0.3-0.2-0.5l0.7-0.9c0.1-0.1,0.1-0.3,0-0.4L15.8,10c0,0-0.1-0.1-0.2-0.1V7
		c0.6-0.5,0.9-1.1,0.9-1.9c0-0.9-0.5-1.8-1.4-2.2c-0.1-0.1-0.3,0-0.4,0.1c0,0,0,0.1,0,0.1v1.7l-0.6,0.2l-0.6-0.2V3.3
		c0-0.2-0.1-0.3-0.3-0.3c0,0-0.1,0-0.1,0c-0.8,0.4-1.4,1.2-1.4,2.2c0,0.7,0.3,1.4,0.9,1.9v2h-0.9c-0.1,0-0.3,0.1-0.3,0.3l-0.2,1.4
		l0.6,0.1L12,9.6h1.3l0.2,1.1c0,0.1,0.1,0.2,0.2,0.2c0.3,0.1,0.5,0.2,0.7,0.3c0.1,0.1,0.2,0,0.3,0l0.9-0.7l0.9,0.9l-0.7,0.9
		c-0.1,0.1-0.1,0.2,0,0.3c0.1,0.2,0.2,0.5,0.3,0.7c0,0.1,0.1,0.2,0.2,0.2l1.1,0.2v1.3l-1.1,0.2c-0.1,0-0.2,0.1-0.2,0.2
		c-0.1,0.3-0.2,0.5-0.3,0.7c-0.1,0.1,0,0.2,0,0.3l0.7,0.9l-0.9,0.9l-0.9-0.7c-0.1-0.1-0.2-0.1-0.3,0c-0.2,0.1-0.5,0.2-0.7,0.3
		c-0.1,0-0.2,0.1-0.2,0.2l-0.2,1.1H12V18c0-0.3,0-0.6-0.1-0.9c1.4,0.4,3-0.4,3.4-1.9c0.4-1.4-0.4-3-1.9-3.4s-3,0.4-3.4,1.9
		c-0.1,0.4-0.1,0.8-0.1,1.3c0,0,0,0,0,0l-2.4-1v-0.5c0.4-0.2,0.8-0.5,1-0.8h0.8c0.5,0,0.9-0.4,0.9-0.9v-0.7c0.4-0.1,0.6-0.5,0.6-0.8
		V9.3c0-0.4-0.2-0.7-0.6-0.8V8.1c0-2.3-1.9-4.2-4.2-4.2S1.8,5.8,1.8,8.1v0.4C1.4,8.6,1.2,9,1.2,9.3v0.9c0,0.5,0.4,0.9,0.9,0.9h0.6
		c0,0,0,0,0.1,0c0.2,1,0.8,1.9,1.7,2.3v0.5l-2.4,1C0.8,15.4,0,16.6,0,18v2.8C0,20.9,0.1,21,0.3,21h11.4c0.2,0,0.3-0.1,0.3-0.3v-0.9
		h1.5c0.1,0,0.3-0.1,0.3-0.3l0.2-1.2c0.2-0.1,0.3-0.1,0.5-0.2l0.9,0.7c0.1,0.1,0.3,0.1,0.4,0l1.3-1.3c0.1-0.1,0.1-0.3,0-0.4
		l-0.7-0.9c0.1-0.2,0.1-0.3,0.2-0.5l1.2-0.2c0.1,0,0.3-0.1,0.3-0.3v-1.8C18,13.4,17.9,13.3,17.7,13.3z M14.4,10.7
		C14.4,10.7,14.4,10.7,14.4,10.7l0-3.7h-0.6v2.4l0,0c0-0.1-0.1-0.3-0.3-0.3h-0.3V6.9c0-0.1,0-0.2-0.1-0.2c-0.8-0.6-1-1.7-0.4-2.5
		c0.1-0.1,0.2-0.2,0.3-0.3v1.3c0,0.1,0.1,0.2,0.2,0.3L14,5.7c0.1,0,0.1,0,0.2,0l0.9-0.3c0.1,0,0.2-0.2,0.2-0.3V3.8
		c0.7,0.7,0.8,1.8,0.1,2.5c-0.1,0.1-0.2,0.2-0.3,0.3C15,6.7,15,6.8,15,6.9v3.4L14.4,10.7z M10.5,14.4c0-1.2,0.9-2.1,2.1-2.1
		c1.2,0,2.1,0.9,2.1,2.1s-0.9,2.1-2.1,2.1c-0.4,0-0.8-0.1-1.1-0.3c-0.2-0.3-0.5-0.6-0.8-0.9C10.6,15.1,10.5,14.8,10.5,14.4z M9.3,12
		H8.9c0.1-0.3,0.2-0.6,0.3-0.9c0,0,0,0,0.1,0h0.3v0.6C9.6,11.9,9.5,12,9.3,12z M8.7,8.7C8.4,8.7,8.2,8.6,8,8.4L7.4,7.7
		c0-0.1-0.1-0.1-0.2-0.1c-0.1,0-0.2,0-0.2,0.1L6,8.4C5.7,8.6,5.4,8.7,5.1,8.7H3.3V8.4C3.3,7,4.5,5.7,6,5.7S8.7,7,8.7,8.4V8.7z
		 M10.2,10.2c0,0.2-0.1,0.3-0.3,0.3H9.3V9h0.6c0.2,0,0.3,0.1,0.3,0.3V10.2z M6,4.5c2,0,3.6,1.6,3.6,3.6v0.3H9.3
		c0-1.8-1.5-3.3-3.3-3.3S2.7,6.6,2.7,8.4H2.4V8.1C2.4,6.2,4,4.6,6,4.5z M2.1,10.5c-0.2,0-0.3-0.1-0.3-0.3V9.3C1.8,9.2,1.9,9,2.1,9
		h0.6v1.5H2.1z M3.3,10.5V9.3h1.8c0.5,0,0.9-0.2,1.3-0.5l0.8-0.6l0.4,0.5c0.3,0.4,0.7,0.6,1.2,0.6v1.2c0,0.5-0.2,1.1-0.5,1.5H6v0.6
		h1.7c-1.2,0.9-2.9,0.8-3.8-0.4C3.5,11.8,3.3,11.2,3.3,10.5z M6,13.8c0.3,0,0.6,0,0.9-0.1v0.4C6.9,14.6,6.5,15,6,15
		s-0.9-0.4-0.9-0.9v-0.4C5.4,13.8,5.7,13.8,6,13.8z M11.4,20.4H9.6v-3.3H9v3.3H3v-3.3H2.4v3.3H0.6V18c0-1.1,0.7-2.1,1.7-2.5l2.3-0.9
		c0.2,0.8,1,1.3,1.8,1c0.5-0.1,0.9-0.5,1-1l2.3,0.9c1,0.4,1.7,1.4,1.7,2.5V20.4z"/>
	<rect x="12.3" y="10.2" class="st0" width="0.6" height="0.6"/>
	<rect x="12.3" y="18" class="st0" width="0.6" height="0.6"/>
	<rect x="15.1" y="16.9" transform="matrix(0.7071 -0.7071 0.7071 0.7071 -7.6682 15.8988)" class="st0" width="0.6" height="0.6"/>
	<rect x="16.2" y="14.1" class="st0" width="0.6" height="0.6"/>
	<rect x="15.1" y="11.4" transform="matrix(0.7071 -0.7071 0.7071 0.7071 -3.7683 14.2835)" class="st0" width="0.6" height="0.6"/>
</g>
</svg>
