<?xml version="1.0" encoding="utf-8"?>
<!-- Generator: Adobe Illustrator 24.1.1, SVG Export Plug-In . SVG Version: 6.00 Build 0)  -->
<svg version="1.1" id="Layer_1" xmlns="http://www.w3.org/2000/svg" xmlns:xlink="http://www.w3.org/1999/xlink" x="0px" y="0px"
	 viewBox="0 0 37.1 42" style="enable-background:new 0 0 37.1 42;" xml:space="preserve">
<style type="text/css">
	.st0{fill:#FC6A55;}
	.st1{fill:#EDEDED;}
	.st2{fill:none;stroke:#FC6A55;stroke-miterlimit:10;}
	.st3{fill:#222F3F;}
	.st4{fill:#383838;}
	.st5{fill:#FFFFFF;}
	.st6{fill:#656D7A;}
	.st7{fill:#C4C4C4;}
	.st8{filter:url(#Adobe_OpacityMaskFilter);}
	.st9{fill-rule:evenodd;clip-rule:evenodd;fill:#FFFFFF;}
	.st10{mask:url(#mask-2_8_);fill-rule:evenodd;clip-rule:evenodd;}
	.st11{filter:url(#Adobe_OpacityMaskFilter_1_);}
	.st12{mask:url(#mask-2_7_);fill-rule:evenodd;clip-rule:evenodd;}
	.st13{filter:url(#Adobe_OpacityMaskFilter_2_);}
	.st14{mask:url(#mask-2_6_);fill-rule:evenodd;clip-rule:evenodd;}
	.st15{filter:url(#Adobe_OpacityMaskFilter_3_);}
	.st16{mask:url(#mask-2_5_);fill-rule:evenodd;clip-rule:evenodd;}
	.st17{filter:url(#Adobe_OpacityMaskFilter_4_);}
	.st18{mask:url(#mask-2_2_);fill:none;stroke:#000000;stroke-width:1.5;stroke-miterlimit:10;}
	.st19{fill:#B4A3EE;}
	.st20{fill:#434343;}
	.st21{fill:#434343;stroke:#F9F9F9;stroke-width:0.25;stroke-miterlimit:10;}
	.st22{fill:none;stroke:#FC6A55;stroke-width:0.5;stroke-miterlimit:10;}
	.st23{fill:none;stroke:#FC6A55;stroke-width:0.75;stroke-miterlimit:10;}
	.st24{fill:#FC6A55;stroke:#FC6A55;stroke-width:0.5;stroke-miterlimit:10;}
	.st25{opacity:0.153;fill:url(#Path_44_);enable-background:new    ;}
	.st26{opacity:0.1;fill:#590BB2;enable-background:new    ;}
	.st27{fill:#8E8CA8;}
	.st28{fill:#F5F4F9;}
	.st29{fill:#FFD5B8;}
	.st30{fill:#FC8473;}
	.st31{fill:#1C3475;}
	.st32{fill:#DDD9E4;}
	.st33{fill:#828FB3;}
	.st34{opacity:7.584635e-02;fill:url(#Path_45_);enable-background:new    ;}
	.st35{fill:#FFBE92;}
	.st36{fill:#FB8E7F;}
	.st37{fill:#FDB1A6;}
	.st38{fill:#FC806F;}
	.st39{fill:#FFE783;}
	.st40{fill:#104478;}
	.st41{fill:none;stroke:#FFFFFF;stroke-miterlimit:10;}
	.st42{fill:none;stroke:#000000;stroke-width:0.15;stroke-miterlimit:10;}
	.st43{opacity:0.1;fill:url(#Path_46_);enable-background:new    ;}
	.st44{opacity:0.1;fill:url(#Path_47_);enable-background:new    ;}
	.st45{fill-rule:evenodd;clip-rule:evenodd;fill:#FC6A55;}
	.st46{fill-rule:evenodd;clip-rule:evenodd;}
	.st47{fill:#FF6757;}
	.st48{fill:#666666;}
	.st49{fill:none;stroke:#FFFFFF;stroke-width:0.5;stroke-miterlimit:10;}
	.st50{fill:#606060;}
	.st51{fill:#F16A56;}
	.st52{fill:#515252;}
	.st53{fill:#F26A56;}
	.st54{fill:none;stroke:#F16A56;stroke-miterlimit:10;}
	.st55{fill:none;stroke:#929292;stroke-miterlimit:10;}
	.st56{fill:#929292;}
	.st57{fill:none;stroke:#000000;stroke-width:0.5;stroke-miterlimit:10;}
	.st58{fill:#A8A7A7;}
	.st59{fill:#F79F91;}
	.st60{fill:#9BDBD5;}
	.st61{fill:#222121;}
	.st62{stroke:#000000;stroke-width:0.25;stroke-miterlimit:10;}
</style>
<g id="Content_1_">
	<path class="st4" d="M35,30.1c1.2,0,2.1-0.9,2.1-2.1V8.4c0-1.2-0.9-2.1-2.1-2.1h-8.4V3.5C26.6,1.6,25,0,23.1,0H3.5
		C1.6,0,0,1.6,0,3.5v35C0,40.4,1.6,42,3.5,42h19.6c1.9,0,3.5-1.6,3.5-3.5v-2.8h10.5v-1.4H26.6v-4.2H35z M35,28.7H12.6
		c-0.4,0-0.7-0.3-0.7-0.7V11.9h23.8V28C35.7,28.4,35.4,28.7,35,28.7z M35.7,8.4v2.1H11.9V8.4c0-0.4,0.3-0.7,0.7-0.7H35
		C35.4,7.7,35.7,8,35.7,8.4z M9.1,1.4h8.4v1.4H9.1V1.4z M25.2,34.3h-1.5c-0.4-1.1-1.6-1.7-2.7-1.3c-0.6,0.2-1.1,0.7-1.3,1.3h-4.3
		v1.4h4.3c0.4,1.1,1.6,1.7,2.7,1.3c0.6-0.2,1.1-0.7,1.3-1.3h1.5v2.8c0,1.2-0.9,2.1-2.1,2.1H3.5c-1.2,0-2.1-0.9-2.1-2.1v-35
		c0-1.2,0.9-2.1,2.1-2.1h4.2v1.4c0,0.8,0.6,1.4,1.4,1.4h8.4c0.8,0,1.4-0.6,1.4-1.4V1.4h4.2c1.2,0,2.1,0.9,2.1,2.1v2.8H12.6
		c-1.2,0-2.1,0.9-2.1,2.1V28c0,1.2,0.9,2.1,2.1,2.1h12.6V34.3z M22.4,35c0,0.4-0.3,0.7-0.7,0.7c-0.4,0-0.7-0.3-0.7-0.7
		s0.3-0.7,0.7-0.7C22.1,34.3,22.4,34.6,22.4,35z"/>
	<path class="st4" d="M13.3,8.4h1.4v1.4h-1.4V8.4z"/>
	<path class="st4" d="M16.1,8.4h1.4v1.4h-1.4V8.4z"/>
	<path class="st4" d="M18.9,8.4h1.4v1.4h-1.4V8.4z"/>
	<path class="st4" d="M26.1,19.1l-2.2-1.5c-0.6-0.4-1.5-0.3-1.9,0.4c-0.2,0.2-0.2,0.5-0.2,0.8v3c0,0.8,0.6,1.4,1.4,1.4
		c0.3,0,0.5-0.1,0.8-0.2l2.2-1.5c0.6-0.4,0.8-1.3,0.4-1.9C26.4,19.4,26.3,19.2,26.1,19.1L26.1,19.1z M23.1,21.8v-3l2.2,1.5
		L23.1,21.8z"/>
	<path class="st4" d="M23.8,14c-3.5,0-6.3,2.8-6.3,6.3s2.8,6.3,6.3,6.3s6.3-2.8,6.3-6.3C30.1,16.8,27.3,14,23.8,14z M23.8,25.2
		c-2.7,0-4.9-2.2-4.9-4.9s2.2-4.9,4.9-4.9s4.9,2.2,4.9,4.9C28.7,23,26.5,25.2,23.8,25.2z"/>
	<path class="st4" d="M12.6,33.6H14v2.8h-1.4V33.6z"/>
	<path class="st4" d="M10.5,33.6h1.4v2.8h-1.4V33.6z"/>
	<path class="st4" d="M14,19.6h1.4V21H14V19.6z"/>
	<path class="st4" d="M14,16.8h1.4v1.4H14V16.8z"/>
	<path class="st4" d="M14,22.4h1.4v1.4H14V22.4z"/>
</g>
</svg>
