<?xml version="1.0" encoding="utf-8"?>
<!-- Generator: Adobe Illustrator 24.1.1, SVG Export Plug-In . SVG Version: 6.00 Build 0)  -->
<svg version="1.1" id="Layer_1" xmlns="http://www.w3.org/2000/svg" xmlns:xlink="http://www.w3.org/1999/xlink" x="0px" y="0px"
	 viewBox="0 0 42.3 42.3" style="enable-background:new 0 0 42.3 42.3;" xml:space="preserve">
<style type="text/css">
	.st0{fill:#FC6A55;}
	.st1{fill:#EDEDED;}
	.st2{fill:none;stroke:#FC6A55;stroke-miterlimit:10;}
	.st3{fill:#222F3F;}
	.st4{fill:#383838;}
	.st5{fill:#FFFFFF;}
	.st6{fill:#656D7A;}
	.st7{fill:#C4C4C4;}
	.st8{filter:url(#Adobe_OpacityMaskFilter);}
	.st9{fill-rule:evenodd;clip-rule:evenodd;fill:#FFFFFF;}
	.st10{mask:url(#mask-2_8_);fill-rule:evenodd;clip-rule:evenodd;}
	.st11{filter:url(#Adobe_OpacityMaskFilter_1_);}
	.st12{mask:url(#mask-2_7_);fill-rule:evenodd;clip-rule:evenodd;}
	.st13{filter:url(#Adobe_OpacityMaskFilter_2_);}
	.st14{mask:url(#mask-2_6_);fill-rule:evenodd;clip-rule:evenodd;}
	.st15{filter:url(#Adobe_OpacityMaskFilter_3_);}
	.st16{mask:url(#mask-2_5_);fill-rule:evenodd;clip-rule:evenodd;}
	.st17{filter:url(#Adobe_OpacityMaskFilter_4_);}
	.st18{mask:url(#mask-2_2_);fill:none;stroke:#000000;stroke-width:1.5;stroke-miterlimit:10;}
	.st19{fill:#B4A3EE;}
	.st20{fill:#434343;}
	.st21{fill:#434343;stroke:#F9F9F9;stroke-width:0.25;stroke-miterlimit:10;}
	.st22{fill:none;stroke:#FC6A55;stroke-width:0.5;stroke-miterlimit:10;}
	.st23{fill:none;stroke:#FC6A55;stroke-width:0.75;stroke-miterlimit:10;}
	.st24{fill:#FC6A55;stroke:#FC6A55;stroke-width:0.5;stroke-miterlimit:10;}
	.st25{opacity:0.153;fill:url(#Path_44_);enable-background:new    ;}
	.st26{opacity:0.1;fill:#590BB2;enable-background:new    ;}
	.st27{fill:#8E8CA8;}
	.st28{fill:#F5F4F9;}
	.st29{fill:#FFD5B8;}
	.st30{fill:#FC8473;}
	.st31{fill:#1C3475;}
	.st32{fill:#DDD9E4;}
	.st33{fill:#828FB3;}
	.st34{opacity:7.584635e-02;fill:url(#Path_45_);enable-background:new    ;}
	.st35{fill:#FFBE92;}
	.st36{fill:#FB8E7F;}
	.st37{fill:#FDB1A6;}
	.st38{fill:#FC806F;}
	.st39{fill:#FFE783;}
	.st40{fill:#104478;}
	.st41{fill:none;stroke:#FFFFFF;stroke-miterlimit:10;}
	.st42{fill:none;stroke:#000000;stroke-width:0.15;stroke-miterlimit:10;}
	.st43{opacity:0.1;fill:url(#Path_46_);enable-background:new    ;}
	.st44{opacity:0.1;fill:url(#Path_47_);enable-background:new    ;}
	.st45{fill-rule:evenodd;clip-rule:evenodd;fill:#FC6A55;}
	.st46{fill-rule:evenodd;clip-rule:evenodd;}
	.st47{fill:#FF6757;}
	.st48{fill:#666666;}
	.st49{fill:none;stroke:#FFFFFF;stroke-width:0.5;stroke-miterlimit:10;}
	.st50{fill:#606060;}
	.st51{fill:#F16A56;}
	.st52{fill:#515252;}
	.st53{fill:#F26A56;}
	.st54{fill:none;stroke:#F16A56;stroke-miterlimit:10;}
	.st55{fill:none;stroke:#929292;stroke-miterlimit:10;}
	.st56{fill:#929292;}
	.st57{fill:none;stroke:#000000;stroke-width:0.5;stroke-miterlimit:10;}
	.st58{fill:#A8A7A7;}
	.st59{fill:#F79F91;}
	.st60{fill:#9BDBD5;}
	.st61{fill:#222121;}
	.st62{stroke:#000000;stroke-width:0.25;stroke-miterlimit:10;}
</style>
<g>
	<path class="st4" d="M32.6,38.1h-2.2L24,13.4c1.2-0.9,1.9-2.2,1.9-3.8c0-2.6-2.1-4.7-4.7-4.7S16.4,7,16.4,9.6
		c0,1.5,0.8,2.9,1.9,3.8l-6.5,24.7H9.6c-0.4,0-0.7,0.3-0.7,0.7v2.7c0,0.4,0.3,0.7,0.7,0.7h23c0.4,0,0.7-0.3,0.7-0.7v-2.7
		C33.3,38.4,33,38.1,32.6,38.1z M16.6,25l0.4-1.5l4.1-3.1l4.1,3.1l0.4,1.5l-4.5,2.8L16.6,25z M19.9,28.6l-5,3.2l1.4-5.4L19.9,28.6z
		 M17.6,21.4l0.8-3l1.6,1.2L17.6,21.4z M22.3,19.6l1.6-1.2l0.8,3L22.3,19.6z M26,26.4l1.4,5.4l-5-3.2L26,26.4z M17.7,9.6
		c0-1.9,1.5-3.4,3.4-3.4s3.4,1.5,3.4,3.4S23,13,21.1,13S17.7,11.5,17.7,9.6z M21.1,14.4c0.6,0,1.1-0.1,1.6-0.3l0.8,2.9l-2.4,1.8
		L18.7,17l0.8-2.9C20,14.2,20.6,14.4,21.1,14.4z M14.3,33.7l6.8-4.3l6.8,4.3l1.1,4.4H13.2L14.3,33.7z M32,40.8H10.3v-1.4H32V40.8z"
		/>
	<path class="st4" d="M21.1,11.6c1.1,0,2-0.9,2-2s-0.9-2-2-2s-2,0.9-2,2S20,11.6,21.1,11.6z M21.1,8.9c0.4,0,0.7,0.3,0.7,0.7
		c0,0.4-0.3,0.7-0.7,0.7s-0.7-0.3-0.7-0.7C20.4,9.2,20.8,8.9,21.1,8.9z"/>
	<path class="st4" d="M27.9,7.6h1.4c0-1.1-0.9-2-2-2v1.4C27.6,6.9,27.9,7.2,27.9,7.6z"/>
	<path class="st4" d="M30.6,7.6H32c0-2.6-2.1-4.7-4.7-4.7v1.4C29.1,4.2,30.6,5.7,30.6,7.6z"/>
	<path class="st4" d="M27.2,0.1v1.4c3.4,0,6.1,2.7,6.1,6.1h1.4C34.7,3.5,31.3,0.1,27.2,0.1z"/>
	<path class="st4" d="M14.4,7.6c0-0.4,0.3-0.7,0.7-0.7V5.5c-1.1,0-2,0.9-2,2H14.4z"/>
	<path class="st4" d="M15,2.8c-2.6,0-4.7,2.1-4.7,4.7h1.4c0-1.9,1.5-3.4,3.4-3.4V2.8z"/>
	<path class="st4" d="M15,1.5V0.1c-4.1,0-7.5,3.3-7.5,7.5h1.4C8.9,4.2,11.7,1.5,15,1.5z"/>
</g>
</svg>
