<?xml version="1.0" encoding="utf-8"?>
<!-- Generator: Adobe Illustrator 24.1.1, SVG Export Plug-In . SVG Version: 6.00 Build 0)  -->
<svg version="1.1" id="Layer_1" xmlns="http://www.w3.org/2000/svg" xmlns:xlink="http://www.w3.org/1999/xlink" x="0px" y="0px"
	 viewBox="0 0 42 42" style="enable-background:new 0 0 42 42;" xml:space="preserve">
<style type="text/css">
	.st0{fill:#FC6A55;}
	.st1{fill:#EDEDED;}
	.st2{fill:none;stroke:#FC6A55;stroke-miterlimit:10;}
	.st3{fill:#222F3F;}
	.st4{fill:#383838;}
	.st5{fill:#FFFFFF;}
	.st6{fill:#656D7A;}
	.st7{fill:#C4C4C4;}
	.st8{filter:url(#Adobe_OpacityMaskFilter);}
	.st9{fill-rule:evenodd;clip-rule:evenodd;fill:#FFFFFF;}
	.st10{mask:url(#mask-2_8_);fill-rule:evenodd;clip-rule:evenodd;}
	.st11{filter:url(#Adobe_OpacityMaskFilter_1_);}
	.st12{mask:url(#mask-2_7_);fill-rule:evenodd;clip-rule:evenodd;}
	.st13{filter:url(#Adobe_OpacityMaskFilter_2_);}
	.st14{mask:url(#mask-2_6_);fill-rule:evenodd;clip-rule:evenodd;}
	.st15{filter:url(#Adobe_OpacityMaskFilter_3_);}
	.st16{mask:url(#mask-2_5_);fill-rule:evenodd;clip-rule:evenodd;}
	.st17{filter:url(#Adobe_OpacityMaskFilter_4_);}
	.st18{mask:url(#mask-2_2_);fill:none;stroke:#000000;stroke-width:1.5;stroke-miterlimit:10;}
	.st19{fill:#B4A3EE;}
	.st20{fill:#434343;}
	.st21{fill:#434343;stroke:#F9F9F9;stroke-width:0.25;stroke-miterlimit:10;}
	.st22{fill:none;stroke:#FC6A55;stroke-width:0.5;stroke-miterlimit:10;}
	.st23{fill:none;stroke:#FC6A55;stroke-width:0.75;stroke-miterlimit:10;}
	.st24{fill:#FC6A55;stroke:#FC6A55;stroke-width:0.5;stroke-miterlimit:10;}
	.st25{opacity:0.153;fill:url(#Path_44_);enable-background:new    ;}
	.st26{opacity:0.1;fill:#590BB2;enable-background:new    ;}
	.st27{fill:#8E8CA8;}
	.st28{fill:#F5F4F9;}
	.st29{fill:#FFD5B8;}
	.st30{fill:#FC8473;}
	.st31{fill:#1C3475;}
	.st32{fill:#DDD9E4;}
	.st33{fill:#828FB3;}
	.st34{opacity:7.584635e-02;fill:url(#Path_45_);enable-background:new    ;}
	.st35{fill:#FFBE92;}
	.st36{fill:#FB8E7F;}
	.st37{fill:#FDB1A6;}
	.st38{fill:#FC806F;}
	.st39{fill:#FFE783;}
	.st40{fill:#104478;}
	.st41{fill:none;stroke:#FFFFFF;stroke-miterlimit:10;}
	.st42{fill:none;stroke:#000000;stroke-width:0.15;stroke-miterlimit:10;}
	.st43{opacity:0.1;fill:url(#Path_46_);enable-background:new    ;}
	.st44{opacity:0.1;fill:url(#Path_47_);enable-background:new    ;}
	.st45{fill-rule:evenodd;clip-rule:evenodd;fill:#FC6A55;}
	.st46{fill-rule:evenodd;clip-rule:evenodd;}
	.st47{fill:#FF6757;}
	.st48{fill:#666666;}
	.st49{fill:none;stroke:#FFFFFF;stroke-width:0.5;stroke-miterlimit:10;}
	.st50{fill:#606060;}
	.st51{fill:#F16A56;}
	.st52{fill:#515252;}
	.st53{fill:#F26A56;}
	.st54{fill:none;stroke:#F16A56;stroke-miterlimit:10;}
	.st55{fill:none;stroke:#929292;stroke-miterlimit:10;}
	.st56{fill:#929292;}
	.st57{fill:none;stroke:#000000;stroke-width:0.5;stroke-miterlimit:10;}
	.st58{fill:#A8A7A7;}
	.st59{fill:#F79F91;}
	.st60{fill:#9BDBD5;}
	.st61{fill:#222121;}
	.st62{stroke:#000000;stroke-width:0.25;stroke-miterlimit:10;}
</style>
<g>
	<g>
		<path class="st4" d="M39.6,39.8L37.7,29c-0.2-1.2-1-2.1-2.2-2.5l-5-1.5c-0.1-1.2-0.6-2.4-1.4-3.3c-0.7-0.7-1.5-1.3-2.4-1.6
			c0.2-0.2,0.3-0.4,0.4-0.5c1.2-1.5,1.8-3.2,2-4.3h0.4c1,0,1.8-0.8,1.8-1.8v-0.9c0-0.7-0.4-1.3-0.9-1.6V8.7c0-0.3-0.3-0.6-0.6-0.6
			s-0.6,0.3-0.6,0.6v2.5c-0.2,0-0.5,0.1-0.8,0.2c0,0-0.1,0-0.1,0c-0.1,0-0.1,0.1-0.2,0.1v-5c0-1.4-1.1-2.5-2.5-2.5h-1.7
			c-0.6,0-1.2,0.2-1.6,0.6l-0.2,0.1c-0.3,0.3-0.7,0.4-1.1,0.4c-0.4,0-0.8-0.1-1.1-0.4l-0.2-0.1c-0.5-0.4-1-0.6-1.6-0.6h-1.7
			c-1.4,0-2.5,1.1-2.5,2.5v5c-0.1,0-0.1-0.1-0.2-0.1c0,0-0.1,0-0.1,0c-0.3-0.1-0.6-0.2-0.8-0.2V4.8c0-2,1.6-3.6,3.6-3.6h9.1
			c2,0,3.6,1.6,3.6,3.6v1c0,0.3,0.3,0.6,0.6,0.6s0.6-0.3,0.6-0.6v-1c0-2.7-2.2-4.8-4.8-4.8h-9.1c-2.7,0-4.8,2.2-4.8,4.8v6.1
			c-0.6,0.3-0.9,0.9-0.9,1.6v0.9c0,1,0.8,1.8,1.8,1.8h0.4c0.2,1.1,0.8,2.8,2,4.3c0.1,0.2,0.3,0.3,0.4,0.5c-2.1,0.7-3.7,2.6-3.9,4.9
			l-5,1.5c-1.1,0.3-2,1.3-2.2,2.5l-0.8,4.4C3.4,33.7,3.7,34,4,34.1c0.3,0.1,0.7-0.2,0.7-0.5l0.8-4.4c0.1-0.7,0.6-1.3,1.3-1.5
			l4.6-1.4v1.2c-1.1,0.2-2,0.9-2.3,1.9C9,29.7,8.9,30,8.9,30.3L8.5,36c0,0.4,0.1,0.9,0.4,1.2c0.3,0.3,0.7,0.5,1.1,0.5h0.8
			c0.3,0,0.6-0.3,0.6-0.6c0-0.3-0.3-0.6-0.6-0.6H10c-0.1,0-0.2,0-0.2-0.1c-0.1-0.1-0.1-0.2-0.1-0.3l0.4-5.8c0-0.2,0.1-0.3,0.1-0.5
			c0.3-0.7,1-1.2,1.7-1.2l0.1,0c0,0,0,0,0,0c0.8,0,1.4,0.4,1.7,1.1c0.1,0.2,0.1,0.4,0.1,0.6l0.4,5.8c0,0.1,0,0.2-0.1,0.3
			c-0.1,0.1-0.2,0.1-0.2,0.1h-0.8c-0.3,0-0.6,0.3-0.6,0.6c0,0.3,0.3,0.6,0.6,0.6h0.8c0.4,0,0.9-0.2,1.1-0.5c0.3-0.3,0.4-0.8,0.4-1.2
			l-0.4-5.8c0-0.3-0.1-0.7-0.2-1c-0.4-1-1.3-1.6-2.3-1.8v-1.6l2.1-0.6c0.2,0.4,0.6,1.3,1.3,3.2c0.8,1.9,1.7,4.3,2.6,6.7
			c0,0,0,0,0,0.1c0.6,1.6,1.2,3.1,1.7,4.5c0.1,0.2,0.3,0.4,0.6,0.4s0.5-0.2,0.6-0.4c0.5-1.3,1.1-2.9,1.7-4.5c0,0,0,0,0-0.1
			c0.9-2.4,1.9-4.8,2.6-6.7c0.8-1.9,1.1-2.8,1.3-3.2l2.1,0.6v3.6c-1.5,0.3-2.6,1.6-2.6,3.1c0,1.8,1.4,3.2,3.2,3.2
			c1.8,0,3.2-1.4,3.2-3.2c0-1.5-1.1-2.8-2.6-3.1v-3.3l4.6,1.4c0.7,0.2,1.2,0.8,1.3,1.5l1.9,10.9c0,0.2,0,0.4-0.1,0.5
			c-0.1,0.1-0.3,0.2-0.5,0.2H4.2c-0.2,0-0.3-0.1-0.5-0.2c-0.1-0.1-0.2-0.3-0.1-0.5l0.6-3.6c0.1-0.3-0.2-0.7-0.5-0.7
			c-0.3-0.1-0.7,0.2-0.7,0.5l-0.6,3.6c-0.1,0.5,0.1,1.1,0.4,1.5C3.2,41.8,3.7,42,4.2,42h33.6c0.5,0,1.1-0.2,1.4-0.7
			C39.5,40.9,39.7,40.4,39.6,39.8z M29.2,12.5c0.3-0.1,0.6-0.1,0.6-0.1c0.1,0,0.2,0,0.3-0.1c0,0.1,0,0.1,0,0.2v0.9
			c0,0.3-0.3,0.6-0.6,0.6h-0.3L29.2,12.5L29.2,12.5z M12.8,14.1L12.8,14.1h-0.3c-0.3,0-0.6-0.3-0.6-0.6v-0.9c0-0.1,0-0.1,0-0.2
			c0.1,0,0.2,0.1,0.3,0.1c0,0,0.3,0,0.6,0.1L12.8,14.1L12.8,14.1z M14.1,14.8v-1.6c0.2,0.1,0.4,0,0.6,0c0.3-0.1,0.5-0.4,0.5-0.8V6.6
			c0-0.7,0.6-1.3,1.3-1.3h1.7c0.3,0,0.6,0.1,0.8,0.3l0.2,0.1c0.5,0.4,1.2,0.7,1.9,0.7s1.3-0.2,1.9-0.7L23,5.7
			c0.2-0.2,0.5-0.3,0.8-0.3h1.7c0.7,0,1.3,0.6,1.3,1.3v5.7c0,0.3,0.2,0.7,0.5,0.8c0.1,0,0.2,0.1,0.3,0.1c0.1,0,0.2,0,0.2,0v1.6
			c0,0.9-0.6,2.6-1.8,4.1c-0.4,0.5-0.9,1-1.5,1.5c0,0,0,0-0.1,0c-0.9,0.7-2.1,1.2-3.6,1.2c-1.5,0-2.7-0.5-3.6-1.2c0,0,0,0-0.1,0
			c-0.6-0.5-1.1-1-1.5-1.5C14.7,17.4,14.1,15.7,14.1,14.8z M25,24.7l-4,3l-4-3c0.4-0.5,0.6-1.2,0.6-1.7v-1c0.9,0.5,2.1,0.9,3.4,0.9
			c1.3,0,2.5-0.3,3.4-0.9v1C24.4,23.5,24.6,24.2,25,24.7z M15.9,24c-0.3-0.1-0.7-0.1-1-0.1c0,0,0,0,0,0l-2.1,0.6
			c0.4-1.8,1.8-3.2,3.6-3.4V23C16.4,23.3,16.2,23.7,15.9,24z M17.6,28.9C17.6,28.9,17.6,28.9,17.6,28.9c0-0.1-0.1-0.2-0.1-0.2
			c0,0,0,0,0,0c0-0.1-0.1-0.1-0.1-0.2c0,0,0,0,0,0c-0.1-0.2-0.2-0.4-0.3-0.7c0,0,0,0,0,0c0-0.1,0-0.1-0.1-0.2c0,0,0,0,0-0.1
			c0-0.1,0-0.1-0.1-0.2c0,0,0,0,0,0c0-0.1-0.1-0.2-0.1-0.3c0,0,0-0.1,0-0.1c0,0,0-0.1,0-0.1c0,0,0-0.1,0-0.1c0,0,0,0,0,0
			c0,0,0,0,0,0c-0.1-0.2-0.1-0.3-0.2-0.5c0,0,0,0,0,0c0-0.1-0.1-0.2-0.1-0.2c0,0,0-0.1,0-0.1l3.5,2.6l-1.4,0.6c0,0,0,0,0,0l-0.6,0.3
			C17.7,29.1,17.6,29,17.6,28.9z M19.1,32.7c-0.1-0.3-0.2-0.6-0.4-0.9c-0.2-0.5-0.4-1-0.6-1.4l0.2-0.1l0.9,1.1L19.1,32.7z M21,37.7
			c0,0,0-0.1-0.1-0.1c-0.3-0.7-0.6-1.7-1-2.7l0.6-3.1h1l0.6,3.1C21.7,36,21.3,37,21,37.7z M21.7,30.5h-1.5l-0.7-0.8l1.4-0.6l1.4,0.6
			L21.7,30.5z M23.3,31.8c-0.1,0.3-0.2,0.6-0.4,0.9l-0.3-1.4l0.9-1.1l0.2,0.1C23.7,30.8,23.5,31.3,23.3,31.8z M25.6,25.9
			c0,0.1-0.1,0.1-0.1,0.2c0,0,0,0,0,0c0,0.1-0.1,0.2-0.1,0.2c0,0,0,0,0,0c0,0.1-0.1,0.1-0.1,0.2c0,0,0,0,0,0c0,0,0,0,0,0.1
			c0,0,0,0.1,0,0.1c0,0,0,0.1-0.1,0.1c0,0,0,0,0,0c0,0.1-0.1,0.2-0.1,0.3c0,0,0,0,0,0.1c0,0.1,0,0.1-0.1,0.2c0,0,0,0,0,0.1
			c0,0.1,0,0.1-0.1,0.2c0,0,0,0,0,0.1c-0.1,0.2-0.2,0.4-0.3,0.7c0,0,0,0,0,0c0,0.1-0.1,0.1-0.1,0.2c0,0,0,0,0,0
			c0,0.1-0.1,0.2-0.1,0.2c0,0,0,0,0,0c0,0.1-0.1,0.2-0.1,0.3l-0.6-0.3c0,0,0,0,0,0l-1.4-0.6l3.5-2.6C25.7,25.8,25.7,25.8,25.6,25.9z
			 M27.1,24C27.1,24,27.1,24,27.1,24C27.1,24,27.1,24,27.1,24c-0.4-0.1-0.7-0.1-1.1,0c-0.2-0.3-0.4-0.7-0.4-1.1v-1.8
			c1.8,0.3,3.3,1.7,3.6,3.4L27.1,24z M31.9,32.7c0,1.1-0.9,2-2,2c-1.1,0-2-0.9-2-2c0-1.1,0.9-2,2-2C31,30.7,31.9,31.6,31.9,32.7z"/>
	</g>
</g>
</svg>
