<?xml version="1.0" encoding="utf-8"?>
<!-- Generator: Adobe Illustrator 24.0.2, SVG Export Plug-In . SVG Version: 6.00 Build 0)  -->
<svg version="1.1" id="Layer_1" xmlns="http://www.w3.org/2000/svg" xmlns:xlink="http://www.w3.org/1999/xlink" x="0px" y="0px"
	 viewBox="0 0 18 24" style="enable-background:new 0 0 18 24;" xml:space="preserve">
<style type="text/css">
	.st0{fill:#FC6A55;}
	.st1{fill:#EDEDED;}
	.st2{fill:none;stroke:#FC6A55;stroke-miterlimit:10;}
	.st3{stroke:#FFFFFF;stroke-width:0.25;stroke-miterlimit:10;}
	.st4{fill:#656D7A;}
	.st5{fill:#FFFFFF;}
	.st6{filter:url(#Adobe_OpacityMaskFilter);}
	.st7{fill-rule:evenodd;clip-rule:evenodd;fill:#FFFFFF;}
	.st8{mask:url(#mask-2_8_);fill-rule:evenodd;clip-rule:evenodd;}
	.st9{filter:url(#Adobe_OpacityMaskFilter_1_);}
	.st10{mask:url(#mask-2_7_);fill-rule:evenodd;clip-rule:evenodd;}
	.st11{filter:url(#Adobe_OpacityMaskFilter_2_);}
	.st12{mask:url(#mask-2_6_);fill-rule:evenodd;clip-rule:evenodd;}
	.st13{filter:url(#Adobe_OpacityMaskFilter_3_);}
	.st14{mask:url(#mask-2_5_);fill-rule:evenodd;clip-rule:evenodd;}
	.st15{filter:url(#Adobe_OpacityMaskFilter_4_);}
	.st16{mask:url(#mask-2_2_);fill:none;stroke:#000000;stroke-width:2;}
	.st17{fill:#434343;}
	.st18{fill:#434343;stroke:#F9F9F9;stroke-width:0.25;stroke-miterlimit:10;}
	.st19{fill:none;stroke:#FC6A55;stroke-width:0.5;stroke-miterlimit:10;}
	.st20{fill:none;stroke:#FC6A55;stroke-width:0.75;stroke-miterlimit:10;}
	.st21{fill:#FC6A55;stroke:#FC6A55;stroke-width:0.5;stroke-miterlimit:10;}
	.st22{opacity:0.153;fill:url(#Path_146_);enable-background:new    ;}
	.st23{opacity:0.1;fill:#590BB2;enable-background:new    ;}
	.st24{fill:#8E8CA8;}
	.st25{fill:#F5F4F9;}
	.st26{fill:#FFD5B8;}
	.st27{fill:#FC8473;}
	.st28{fill:#1C3475;}
	.st29{fill:#DDD9E4;}
	.st30{fill:#828FB3;}
	.st31{opacity:7.584635e-02;fill:url(#Path_147_);enable-background:new    ;}
	.st32{fill:#FFBE92;}
	.st33{fill:#FB8E7F;}
	.st34{fill:#FDB1A6;}
	.st35{fill:#FC806F;}
	.st36{fill:#FFE783;}
	.st37{fill:#104478;}
	.st38{fill:none;stroke:#FFFFFF;stroke-miterlimit:10;}
	.st39{fill:none;stroke:#000000;stroke-width:0.15;stroke-miterlimit:10;}
	.st40{opacity:0.1;fill:url(#Path_148_);enable-background:new    ;}
	.st41{opacity:0.1;fill:url(#Path_149_);enable-background:new    ;}
	.st42{fill-rule:evenodd;clip-rule:evenodd;fill:#FC6A55;}
	.st43{fill-rule:evenodd;clip-rule:evenodd;}
</style>
<g>
	<path class="st0" d="M16.7,20.1v-7.4c0-0.9-0.2-1.8-0.7-2.6c0.1,0,0.1,0,0.2,0c0.6,0,1.1-0.5,1.1-1.1V9c0-0.4-0.2-0.7-0.5-0.9
		l-4.6-2.8c-0.6-0.3-1.2-0.5-1.8-0.5H7.2c-0.5,0-1-0.2-1.4-0.5l0.5-0.5L4.6,2L0,6.6l1.7,1.7l0.6-0.6l0.9,0.9C3.6,9,4,9.2,4.4,9.4
		C4.6,9.4,4.8,9.5,5,9.5c-0.7,0.9-1.1,2-1.1,3.2v7.4c-0.7,0.1-1.3,0.8-1.3,1.6V22H18v-0.3C18,20.9,17.5,20.2,16.7,20.1L16.7,20.1z
		 M16.1,20h-1.3v-0.6c0-0.5-0.2-1-0.5-1.5c-0.4-0.5-0.9-0.9-1.6-1l-0.9-0.1l-0.1-0.4c0.5-0.3,0.9-0.9,1.1-1.5h0.1
		c0.7,0,1.3-0.6,1.3-1.3c0-0.3-0.1-0.6-0.3-0.8l0.2-0.9c0-0.1,0.1-0.3,0.1-0.5c0-0.8-0.5-1.5-1.2-1.8L10.9,9C10.8,9,10.7,9,10.6,9
		c0.1-0.1,0.1-0.3,0.1-0.4c0-0.4-0.1-0.7-0.3-1h0.3c0.4,0,0.7,0.1,1.1,0.3l3.2,1.7c0.8,0.9,1.2,2,1.2,3.1V20z M7.8,13v1.3
		c-0.3,0-0.6-0.3-0.6-0.6S7.4,13,7.8,13z M8.1,12.4H7.8c-0.2,0-0.3,0-0.5,0.1c-0.1-0.3-0.2-0.7-0.2-1c0-0.4,0.3-0.6,0.6-0.6H8
		l0.3-0.5c0.4-0.5,1-0.8,1.6-0.8c0.2,0,0.5,0,0.7,0.1l2.1,0.8c0.5,0.2,0.8,0.6,0.8,1.2c0,0.1,0,0.2,0,0.3l-0.2,0.6
		c-0.1-0.1-0.3-0.1-0.4-0.1h-0.3l-0.1,0c-0.7-0.2-1.4-0.5-2-0.9l-0.2-0.1l-0.2,0.1c-0.6,0.4-1.3,0.7-2,0.9L8.1,12.4z M12.9,13
		L12.9,13c0.4,0,0.7,0.3,0.7,0.6c0,0.4-0.3,0.6-0.6,0.6h0V13z M8.4,13c0.7-0.2,1.3-0.5,1.9-0.8c0.6,0.4,1.2,0.6,1.9,0.8v1.3
		c0,1.1-0.9,1.9-1.9,1.9s-1.9-0.9-1.9-1.9V13z M11.7,17.5L11.7,17.5l-0.3,1.4l-0.6-0.4L11.7,17.5z M10.3,16.9c0.3,0,0.6,0,0.8-0.1
		l0.1,0.4L10.3,18l-0.9-0.9l0.1-0.4C9.8,16.8,10.1,16.9,10.3,16.9L10.3,16.9z M8.9,17.5l0.9,0.9l-0.6,0.4L8.9,17.5L8.9,17.5z
		 M8.2,17.6l0.6,2.3l1.5-1.1l1.5,1.1l0.6-2.3l0.2,0c0.5,0.1,0.9,0.3,1.2,0.7c0.2,0.3,0.4,0.7,0.4,1.1V20H6.5v-0.6
		c0-0.4,0.1-0.8,0.4-1.1C7.2,18,7.6,17.7,8,17.7L8.2,17.6z M0.9,6.6l3.7-3.7l0.8,0.8L1.7,7.5L0.9,6.6z M3.8,8.2L2.8,7.3l2.6-2.6
		c0.5,0.4,1.2,0.7,1.8,0.7h3.2c0.5,0,1,0.1,1.5,0.4l4.6,2.8c0.1,0.1,0.2,0.2,0.2,0.4v0.1c0,0.2-0.2,0.4-0.4,0.4
		c-0.1,0-0.1,0-0.2-0.1L12,7.3C11.6,7.1,11.1,7,10.7,7H9.1h-1H7.5v0.6h0.6h1c0.5,0,1,0.4,1,1c0,0.2-0.1,0.3-0.3,0.3H5.3
		c-0.2,0-0.5,0-0.7-0.1C4.3,8.7,4,8.5,3.8,8.2L3.8,8.2z M5.8,9.5h2.4C8.1,9.6,7.9,9.8,7.8,9.9l-0.2,0.2c-0.6,0.1-1.1,0.6-1.1,1.3
		c0,0.5,0.2,1.1,0.3,1.4c-0.2,0.2-0.3,0.5-0.3,0.8c0,0.7,0.6,1.3,1.3,1.3h0.1C8,15.6,8.4,16.1,9,16.4l-0.1,0.4L7.9,17
		c-0.6,0.1-1.2,0.5-1.6,1c-0.3,0.4-0.5,0.9-0.5,1.5V20H4.6v-7.3C4.6,11.5,5,10.4,5.8,9.5L5.8,9.5z M3.4,21.3
		c0.1-0.4,0.5-0.6,0.9-0.6h12.1c0.4,0,0.8,0.3,0.9,0.6H3.4z"/>
	<path class="st0" d="M9.1,14.8L9.1,14.8c0.3,0.5,0.7,0.8,1.2,0.8c0.5,0,1-0.3,1.2-0.7l0-0.1L11,14.5l0,0.1
		c-0.1,0.2-0.4,0.4-0.6,0.4s-0.5-0.2-0.6-0.4l0-0.1L9.1,14.8z"/>
	<circle class="st0" cx="11.3" cy="13.7" r="0.3"/>
	<circle class="st0" cx="9.4" cy="13.7" r="0.3"/>
</g>
</svg>
