<?xml version="1.0" encoding="utf-8"?>
<!-- Generator: Adobe Illustrator 24.0.2, SVG Export Plug-In . SVG Version: 6.00 Build 0)  -->
<svg version="1.1" id="Layer_1" xmlns="http://www.w3.org/2000/svg" xmlns:xlink="http://www.w3.org/1999/xlink" x="0px" y="0px"
	 viewBox="0 0 31 31" style="enable-background:new 0 0 31 31;" xml:space="preserve">
<style type="text/css">
	.st0{fill:#FC6A55;}
	.st1{stroke:#FFFFFF;stroke-width:0.25;stroke-miterlimit:10;}
	.st2{fill:#656D7A;}
	.st3{fill:#FFFFFF;}
	.st4{filter:url(#Adobe_OpacityMaskFilter);}
	.st5{fill-rule:evenodd;clip-rule:evenodd;fill:#FFFFFF;}
	.st6{mask:url(#mask-2_8_);fill-rule:evenodd;clip-rule:evenodd;}
	.st7{filter:url(#Adobe_OpacityMaskFilter_1_);}
	.st8{mask:url(#mask-2_7_);fill-rule:evenodd;clip-rule:evenodd;}
	.st9{filter:url(#Adobe_OpacityMaskFilter_2_);}
	.st10{mask:url(#mask-2_6_);fill-rule:evenodd;clip-rule:evenodd;}
	.st11{filter:url(#Adobe_OpacityMaskFilter_3_);}
	.st12{mask:url(#mask-2_5_);fill-rule:evenodd;clip-rule:evenodd;}
	.st13{filter:url(#Adobe_OpacityMaskFilter_4_);}
	.st14{mask:url(#mask-2_2_);fill:none;stroke:#000000;stroke-width:2;}
	.st15{fill:#434343;}
	.st16{fill:#434343;stroke:#F9F9F9;stroke-width:0.25;stroke-miterlimit:10;}
	.st17{fill:none;stroke:#FC6A55;stroke-width:0.5;stroke-miterlimit:10;}
</style>
<g>
	<path class="st0" d="M31,25.9v-3.8l-1.4-0.4c0,0,0,0,0-0.1l0.8-1.3l-2.7-2.7l-1.3,0.8c0,0,0,0-0.1,0L25.9,17h-3.8l-0.4,1.4
		c0,0,0,0-0.1,0l-1.3-0.8l-2.7,2.7l0.8,1.3c0,0,0,0,0,0.1L17,22.1v3.8l1.4,0.4c0,0,0,0,0,0.1l-0.8,1.3l2.7,2.7l1.3-0.8
		c0,0,0,0,0.1,0l0.4,1.4h3.8l0.4-1.4c0,0,0,0,0.1,0l1.3,0.8l2.7-2.7l-0.8-1.3c0,0,0,0,0-0.1L31,25.9z M29,27.5L27.5,29l-1.1-0.6
		l-0.2,0.1c-0.2,0.1-0.3,0.1-0.5,0.2l-0.3,0.1L25.1,30h-2.2l-0.3-1.2l-0.3-0.1c-0.2-0.1-0.3-0.1-0.5-0.2l-0.2-0.1L20.5,29L19,27.5
		l0.6-1.1l-0.1-0.2c-0.1-0.2-0.1-0.3-0.2-0.5l-0.1-0.3L18,25.1v-2.2l1.2-0.3l0.1-0.3c0.1-0.2,0.1-0.3,0.2-0.5l0.1-0.2L19,20.5
		l1.6-1.6l1.1,0.6l0.2-0.1c0.2-0.1,0.3-0.1,0.5-0.2l0.3-0.1l0.3-1.2h2.2l0.3,1.2l0.3,0.1c0.2,0.1,0.3,0.1,0.5,0.2l0.2,0.1l1.1-0.6
		l1.6,1.6l-0.6,1.1l0.1,0.2c0.1,0.2,0.1,0.3,0.2,0.5l0.1,0.3l1.2,0.3v2.2l-1.2,0.3l-0.1,0.3c-0.1,0.2-0.1,0.3-0.2,0.5l-0.1,0.2
		L29,27.5z"/>
	<path class="st0" d="M24,20c-2.2,0-4,1.8-4,4s1.8,4,4,4s4-1.8,4-4S26.2,20,24,20z M24,27c-1.7,0-3-1.3-3-3s1.3-3,3-3s3,1.3,3,3
		S25.7,27,24,27z"/>
	<path class="st0" d="M24,22c-1.1,0-2,0.9-2,2s0.9,2,2,2s2-0.9,2-2S25.1,22,24,22z M24,25c-0.6,0-1-0.4-1-1s0.4-1,1-1s1,0.4,1,1
		S24.6,25,24,25z"/>
	<path class="st0" d="M12.7,8.5c0.2,0.5,0.5,0.9,0.8,1.3v0.4L11.1,11c-1,0.4-1.6,1.3-1.6,2.3V16h12v-2.6c0-1-0.7-2-1.6-2.3l-2.4-0.9
		V9.7c0.4-0.3,0.7-0.8,0.8-1.3c0.9-0.2,1.7-1,1.7-2v-2C20,2,18,0,15.5,0S11,2,11,4.5v2C11,7.5,11.7,8.3,12.7,8.5z M16.5,10.4l-1,1.7
		l-1-1.7v0c0.3,0.1,0.6,0.2,1,0.2S16.2,10.4,16.5,10.4L16.5,10.4z M13.8,11.1l1,1.7l-1,0.5l-0.6-1.9L13.8,11.1z M20.5,13.4V15h-10
		v-1.6c0-0.6,0.4-1.2,1-1.4l0.7-0.3l1,3l2.3-1.1l2.3,1.1l1-3l0.7,0.3C20.1,12.2,20.5,12.8,20.5,13.4z M17.9,11.4l-0.6,1.9l-1-0.5
		l1-1.7L17.9,11.4z M15.5,9.5c-1.1,0-2-0.9-2-2v-2c0.7-0.1,1.4-0.3,2-0.8c0.6,0.5,1.3,0.7,2,0.8v2C17.5,8.6,16.6,9.5,15.5,9.5z
		 M18.5,7.4V5.6C18.8,5.8,19,6.1,19,6.5S18.8,7.2,18.5,7.4z M15.5,1C17.4,1,19,2.6,19,4.5v0.3c-0.3-0.2-0.6-0.3-1-0.3h-0.1
		c-0.8,0-1.5-0.3-2.1-0.9l-0.4-0.4l-0.4,0.4c-0.6,0.6-1.3,0.9-2.1,0.9H13c-0.4,0-0.7,0.1-1,0.3V4.5C12,2.6,13.6,1,15.5,1z M12.5,5.6
		v1.7C12.2,7.2,12,6.9,12,6.5S12.2,5.8,12.5,5.6z"/>
	<path class="st0" d="M0,31h10V18H0V31z M1,19h8v11H1V19z"/>
	<path class="st0" d="M2,20h6v1H2V20z"/>
	<path class="st0" d="M2,22h1v1H2V22z"/>
	<path class="st0" d="M4,22h4v1H4V22z"/>
	<path class="st0" d="M2,24h6v1H2V24z"/>
	<path class="st0" d="M2,26h6v1H2V26z"/>
	<path class="st0" d="M7,28h1v1H7V28z"/>
	<path class="st0" d="M2,28h4v1H2V28z"/>
	<path class="st0" d="M13.4,22.4l-0.7-0.7L10.3,24l2.4,2.4l0.7-0.7l-1.1-1.1H16v-1h-3.8L13.4,22.4z"/>
	<path class="st0" d="M5.5,8c0-0.3,0.2-0.5,0.5-0.5h2.3L7.1,8.6l0.7,0.7L10.2,7L7.9,4.6L7.1,5.4l1.1,1.1H6C5.2,6.5,4.5,7.2,4.5,8v9
		h1V8z"/>
	<path class="st0" d="M24,8v6.3l-1.1-1.1l-0.7,0.7l2.4,2.4l2.4-2.4l-0.7-0.7L25,14.3V8c0-0.8-0.7-1.5-1.5-1.5H21v1h2.5
		C23.8,7.5,24,7.7,24,8z"/>
</g>
</svg>
