<?xml version="1.0" encoding="utf-8"?>
<!-- Generator: Adobe Illustrator 24.0.2, SVG Export Plug-In . SVG Version: 6.00 Build 0)  -->
<svg version="1.1" id="Layer_1" xmlns="http://www.w3.org/2000/svg" xmlns:xlink="http://www.w3.org/1999/xlink" x="0px" y="0px"
	 viewBox="0 0 54 48" style="enable-background:new 0 0 54 48;" xml:space="preserve">
<style type="text/css">
	.st0{fill:#FC6A55;}
	.st1{stroke:#FFFFFF;stroke-width:0.25;stroke-miterlimit:10;}
	.st2{fill:#656D7A;}
	.st3{fill:#FFFFFF;}
	.st4{filter:url(#Adobe_OpacityMaskFilter);}
	.st5{fill-rule:evenodd;clip-rule:evenodd;fill:#FFFFFF;}
	.st6{mask:url(#mask-2_8_);fill-rule:evenodd;clip-rule:evenodd;}
	.st7{filter:url(#Adobe_OpacityMaskFilter_1_);}
	.st8{mask:url(#mask-2_7_);fill-rule:evenodd;clip-rule:evenodd;}
	.st9{filter:url(#Adobe_OpacityMaskFilter_2_);}
	.st10{mask:url(#mask-2_6_);fill-rule:evenodd;clip-rule:evenodd;}
	.st11{filter:url(#Adobe_OpacityMaskFilter_3_);}
	.st12{mask:url(#mask-2_5_);fill-rule:evenodd;clip-rule:evenodd;}
	.st13{filter:url(#Adobe_OpacityMaskFilter_4_);}
	.st14{mask:url(#mask-2_2_);fill:none;stroke:#000000;stroke-width:2;}
	.st15{fill:#FFFFFF;stroke:#F9F9F9;stroke-width:0.25;stroke-miterlimit:10;}
	.st16{fill:none;stroke:#FC6A55;stroke-width:0.5;stroke-miterlimit:10;}
</style>
<g>
	<path class="st3" d="M21.4,28.8c-4.4,0-8,3.6-8,8s3.6,8,8,8s8-3.6,8-8C29.4,32.4,25.8,28.8,21.4,28.8z M21.4,43.2
		c-3.5,0-6.4-2.9-6.4-6.4c0-3.5,2.9-6.4,6.4-6.4s6.4,2.9,6.4,6.4C27.8,40.3,24.9,43.2,21.4,43.2z"/>
	<path class="st3" d="M21.4,34.4c1,0,1.6,0.5,1.6,0.8h1.6c0-1.1-1-2.1-2.4-2.3V32h-1.6v0.9c-1.4,0.3-2.4,1.2-2.4,2.3
		c0,1.3,1.4,2.4,3.2,2.4c1,0,1.6,0.5,1.6,0.8c0,0.3-0.6,0.8-1.6,0.8s-1.6-0.5-1.6-0.8h-1.6c0,1.1,1,2.1,2.4,2.3v0.9h1.6v-0.9
		c1.4-0.3,2.4-1.2,2.4-2.3c0-1.3-1.4-2.4-3.2-2.4c-1,0-1.6-0.5-1.6-0.8S20.4,34.4,21.4,34.4z"/>
	<path class="st3" d="M43.8,46.4H10.2V27.2H23c1.3,0,2.4-1.1,2.4-2.4v-20h8.8v9.6h9.6v11.2h1.6V13.3L35.3,3.2h-9.9V2.4
		C25.4,1.1,24.3,0,23,0H5.4C4.1,0,3,1.1,3,2.4v22.4c0,1.3,1.1,2.4,2.4,2.4h3.2V48h36.8V36.8h-1.6V46.4z M35.8,5.9l6.9,6.9h-6.9V5.9z
		 M4.6,24.8V2.4c0-0.4,0.4-0.8,0.8-0.8H23c0.4,0,0.8,0.4,0.8,0.8v22.4c0,0.4-0.4,0.8-0.8,0.8H5.4C5,25.6,4.6,25.2,4.6,24.8z"/>
	<path class="st3" d="M28.6,20h1.6v1.6h-1.6V20z"/>
	<path class="st3" d="M31.8,20h9.6v1.6h-9.6V20z"/>
	<path class="st3" d="M28.6,16.8h1.6v1.6h-1.6V16.8z"/>
	<path class="st3" d="M31.8,16.8h9.6v1.6h-9.6V16.8z"/>
	<path class="st3" d="M28.6,23.2h1.6v1.6h-1.6V23.2z"/>
	<path class="st3" d="M31.8,23.2h9.6v1.6h-9.6V23.2z"/>
	<path class="st3" d="M28.6,26.4h1.6V28h-1.6V26.4z"/>
	<path class="st3" d="M31.8,26.4h9.6V28h-9.6V26.4z"/>
	<path class="st3" d="M23,2.4H5.4V8H23V2.4z M21.4,6.4H7V4h14.4V6.4z"/>
	<path class="st3" d="M9.4,8.8H7.8c-0.9,0-1.6,0.7-1.6,1.6V12c0,0.9,0.7,1.6,1.6,1.6h1.6c0.9,0,1.6-0.7,1.6-1.6v-1.6
		C11,9.5,10.3,8.8,9.4,8.8z M7.8,12v-1.6h1.6V12H7.8z"/>
	<path class="st3" d="M15,8.8h-1.6c-0.9,0-1.6,0.7-1.6,1.6V12c0,0.9,0.7,1.6,1.6,1.6H15c0.9,0,1.6-0.7,1.6-1.6v-1.6
		C16.6,9.5,15.9,8.8,15,8.8z M13.4,12v-1.6H15V12H13.4z"/>
	<path class="st3" d="M20.6,8.8H19c-0.9,0-1.6,0.7-1.6,1.6V12c0,0.9,0.7,1.6,1.6,1.6h1.6c0.9,0,1.6-0.7,1.6-1.6v-1.6
		C22.2,9.5,21.5,8.8,20.6,8.8z M19,12v-1.6h1.6V12H19z"/>
	<path class="st3" d="M9.4,14.4H7.8c-0.9,0-1.6,0.7-1.6,1.6v1.6c0,0.9,0.7,1.6,1.6,1.6h1.6c0.9,0,1.6-0.7,1.6-1.6V16
		C11,15.1,10.3,14.4,9.4,14.4z M7.8,17.6V16h1.6v1.6H7.8z"/>
	<path class="st3" d="M15,14.4h-1.6c-0.9,0-1.6,0.7-1.6,1.6v1.6c0,0.9,0.7,1.6,1.6,1.6H15c0.9,0,1.6-0.7,1.6-1.6V16
		C16.6,15.1,15.9,14.4,15,14.4z M13.4,17.6V16H15v1.6H13.4z"/>
	<path class="st3" d="M20.6,14.4H19c-0.9,0-1.6,0.7-1.6,1.6v1.6c0,0.9,0.7,1.6,1.6,1.6h1.6c0.9,0,1.6-0.7,1.6-1.6V16
		C22.2,15.1,21.5,14.4,20.6,14.4z M19,17.6V16h1.6v1.6H19z"/>
	<path class="st3" d="M9.4,20H7.8c-0.9,0-1.6,0.7-1.6,1.6v1.6c0,0.9,0.7,1.6,1.6,1.6h1.6c0.9,0,1.6-0.7,1.6-1.6v-1.6
		C11,20.7,10.3,20,9.4,20z M7.8,23.2v-1.6h1.6v1.6H7.8z"/>
	<path class="st3" d="M15,20h-1.6c-0.9,0-1.6,0.7-1.6,1.6v1.6c0,0.9,0.7,1.6,1.6,1.6H15c0.9,0,1.6-0.7,1.6-1.6v-1.6
		C16.6,20.7,15.9,20,15,20z M13.4,23.2v-1.6H15v1.6H13.4z"/>
	<path class="st3" d="M20.6,20H19c-0.9,0-1.6,0.7-1.6,1.6v1.6c0,0.9,0.7,1.6,1.6,1.6h1.6c0.9,0,1.6-0.7,1.6-1.6v-1.6
		C22.2,20.7,21.5,20,20.6,20z M19,23.2v-1.6h1.6v1.6H19z"/>
	<path class="st3" d="M50.3,25.5c-1-0.9-2.4-0.9-3.4,0L33.2,39.2c-0.1,0.1-0.1,0.1-0.2,0.2l-1.9,4.2c-0.1,0.3-0.1,0.7,0.2,0.9
		c0.2,0.2,0.6,0.3,0.9,0.2l4.2-1.9c0.1,0,0.2-0.1,0.2-0.2l13.7-13.7C51.2,28,51.2,26.5,50.3,25.5z M35.5,41.4l-2.1,1l1-2.1L44.6,30
		l1.1,1.1L35.5,41.4z M46.9,30l-1.1-1.1l0.6-0.6l1.1,1.1L46.9,30z M49.2,27.8l-0.6,0.6l-1.1-1.1l0.6-0.6c0.3-0.3,0.8-0.3,1.1,0
		C49.5,27,49.5,27.5,49.2,27.8z"/>
</g>
</svg>
