<?xml version="1.0" encoding="utf-8"?>
<!-- Generator: Adobe Illustrator 24.0.2, SVG Export Plug-In . SVG Version: 6.00 Build 0)  -->
<svg version="1.1" id="Layer_1" xmlns="http://www.w3.org/2000/svg" xmlns:xlink="http://www.w3.org/1999/xlink" x="0px" y="0px"
	 viewBox="0 0 54 48" style="enable-background:new 0 0 54 48;" xml:space="preserve">
<style type="text/css">
	.st0{fill:#FC6A55;}
	.st1{stroke:#FFFFFF;stroke-width:0.25;stroke-miterlimit:10;}
	.st2{fill:#656D7A;}
	.st3{fill:#FFFFFF;}
	.st4{filter:url(#Adobe_OpacityMaskFilter);}
	.st5{fill-rule:evenodd;clip-rule:evenodd;fill:#FFFFFF;}
	.st6{mask:url(#mask-2_8_);fill-rule:evenodd;clip-rule:evenodd;}
	.st7{filter:url(#Adobe_OpacityMaskFilter_1_);}
	.st8{mask:url(#mask-2_7_);fill-rule:evenodd;clip-rule:evenodd;}
	.st9{filter:url(#Adobe_OpacityMaskFilter_2_);}
	.st10{mask:url(#mask-2_6_);fill-rule:evenodd;clip-rule:evenodd;}
	.st11{filter:url(#Adobe_OpacityMaskFilter_3_);}
	.st12{mask:url(#mask-2_5_);fill-rule:evenodd;clip-rule:evenodd;}
	.st13{filter:url(#Adobe_OpacityMaskFilter_4_);}
	.st14{mask:url(#mask-2_2_);fill:none;stroke:#000000;stroke-width:2;}
	.st15{fill:#434343;}
	.st16{fill:#434343;stroke:#F9F9F9;stroke-width:0.25;stroke-miterlimit:10;}
	.st17{fill:none;stroke:#FC6A55;stroke-width:0.5;stroke-miterlimit:10;}
</style>
<g>
	<g>
		<g>
			<path class="st15" d="M50.4,1.5H3.6C1.8,1.5,0.3,3,0.3,4.8v31.7c0,1.8,1.5,3.3,3.3,3.3h15.8l-0.6,5.1h-2.7
				c-0.4,0-0.8,0.3-0.8,0.8c0,0.4,0.3,0.8,0.8,0.8h21.7c0.4,0,0.8-0.3,0.8-0.8c0-0.4-0.3-0.8-0.8-0.8h-2.7l-0.6-5.1h15.8
				c1.8,0,3.3-1.5,3.3-3.3V4.8C53.7,3,52.2,1.5,50.4,1.5z M20.4,44.9l0.6-5.1h2.9l0.3,1.1c0.3,1.3,1.5,2.2,2.8,2.2
				c1.3,0,2.5-0.9,2.8-2.2l0.3-1.1H33l0.6,5.1H20.4z M25.5,39.8h3l-0.2,0.7c-0.2,0.6-0.7,1-1.3,1s-1.2-0.4-1.3-1L25.5,39.8z
				 M52.1,36.5L52.1,36.5c0,1-0.8,1.7-1.7,1.7H3.6c-1,0-1.7-0.8-1.7-1.7V4.8c0-1,0.8-1.7,1.7-1.7h46.8c1,0,1.7,0.8,1.7,1.7
				L52.1,36.5L52.1,36.5z"/>
		</g>
	</g>
	<g>
		<g>
			<path class="st15" d="M44.5,4.8H4.4C4,4.8,3.7,5.2,3.7,5.6v30.1c0,0.4,0.3,0.8,0.8,0.8h1.7c0.4,0,0.8-0.3,0.8-0.8
				c0-0.4-0.3-0.8-0.8-0.8H5.2V6.4h39.3c0.4,0,0.8-0.3,0.8-0.8C45.3,5.2,45,4.8,44.5,4.8z"/>
		</g>
	</g>
	<g>
		<g>
			<path class="st15" d="M49.6,4.8h-1.7c-0.4,0-0.8,0.3-0.8,0.8c0,0.4,0.3,0.8,0.8,0.8h0.9v28.5H9.5c-0.4,0-0.8,0.3-0.8,0.8
				c0,0.4,0.3,0.8,0.8,0.8h40.1c0.4,0,0.8-0.3,0.8-0.8V5.6C50.3,5.2,50,4.8,49.6,4.8z"/>
		</g>
	</g>
	<g>
		<g>
			<path class="st15" d="M37.6,13.5c-0.1-0.2-0.4-0.3-0.6-0.3l-18.4-0.8c0,0,0,0,0,0c-0.1-0.4-0.3-0.7-0.6-0.9L15.7,10
				c-0.4-0.2-0.8-0.1-1.1,0.2c-0.2,0.4-0.1,0.8,0.2,1.1l2.3,1.5c0,0,0,0,0,0l2.9,10c0.1,0.3,0.2,0.6,0.4,0.8l-1,2.1
				c-0.3,0.5-0.2,1.1,0.1,1.6c0.1,0.2,0.2,0.3,0.4,0.4c-0.2,0.4-0.3,0.8-0.3,1.2c0,1.4,1.1,2.5,2.5,2.5c1.4,0,2.5-1.1,2.5-2.5
				c0-0.3-0.1-0.6-0.2-0.9h7.1c-0.1,0.3-0.2,0.6-0.2,0.9c0,1.4,1.1,2.5,2.5,2.5s2.5-1.1,2.5-2.5c0-0.4-0.1-0.8-0.3-1.1
				c0.2-0.1,0.3-0.3,0.3-0.6c0-0.4-0.3-0.8-0.8-0.8H20.8c0,0,0,0,0,0c0,0,0,0,0-0.1l1-1.9c0.2,0.1,0.4,0.1,0.6,0.1
				c0.1,0,0.2,0,0.3,0l11-1.3c1.4-0.2,2.6-1.2,2.8-2.6l1.3-6.6C37.8,13.9,37.8,13.7,37.6,13.5z M33.7,28.1c0.5,0,0.9,0.4,0.9,0.9
				c0,0.5-0.4,0.9-0.9,0.9c-0.5,0-0.9-0.4-0.9-0.9C32.8,28.5,33.2,28.1,33.7,28.1z M22,28.1c0.5,0,0.9,0.4,0.9,0.9
				c0,0.5-0.4,0.9-0.9,0.9s-0.9-0.4-0.9-0.9C21.1,28.5,21.5,28.1,22,28.1z M20.1,17.4l-1-3.4l3.1,0.1l0.5,3.3H20.1z M22.5,23.1
				c-0.4,0.1-0.8-0.2-1-0.6l-1-3.5H23l0.7,4L22.5,23.1z M27.1,22.5l-1.8,0.2l-0.6-3.8h2.5V22.5z M27.1,17.4h-2.7l-0.5-3.2l3.2,0.1
				V17.4z M31,22.1l-2.4,0.3v-3.4h2.7L31,22.1z M31.4,17.4h-2.8v-3l3.1,0.1L31.4,17.4z M34.9,20.4c-0.1,0.7-0.7,1.3-1.5,1.4
				l-0.9,0.1l0.3-2.9h2.4L34.9,20.4z M35.5,17.4H33l0.3-2.8l2.8,0.1L35.5,17.4z"/>
		</g>
	</g>
</g>
</svg>
