<?xml version="1.0" encoding="utf-8"?>
<!-- Generator: Adobe Illustrator 24.1.2, SVG Export Plug-In . SVG Version: 6.00 Build 0)  -->
<svg version="1.1" id="Layer_1" xmlns="http://www.w3.org/2000/svg" xmlns:xlink="http://www.w3.org/1999/xlink" x="0px" y="0px"
	 viewBox="0 0 262 49.87" style="enable-background:new 0 0 262 49.87;" xml:space="preserve">
<style type="text/css">
	.st0{fill:#828282;}
</style>
<path class="st0" d="M60.41,48.66h11.74V1.47H60.41V48.66z M119.64,17.14c0-8.6-5.9-15.57-18-15.57h-24.5v47.19h11.35V11.54h13.91
	c4.12,0,5.83,2.54,5.83,5.57s-1.79,5.48-5.91,5.48h-9.74l14.73,26.17H119c0,0-10.08-17.11-10-17.12c7.28-2.26,10.71-7.78,10.71-14.5
	 M23.85,1.45L0,48.64h14.16l3.56-7.59H34l-5-10.33h-6.5l6.05-12.91l15.24,30.83H58L33.21,1.45H23.85z M245.19,19.73
	c-9.52-2.07-12.73-3-12.73-6c0-2.66,3.44-4,8.89-4c5.28,0.23,10.43,1.73,15,4.38l3.71-9.61c-6.6-2.93-13.74-4.46-20.96-4.5
	c-11.51,0-18.71,6.73-18.71,15s5.93,11.87,17.67,14.35c9.1,1.93,11.57,3.08,11.57,5.92s-3.65,3.87-8.58,3.87
	c-6.39,0-12.53-2.12-18.33-4.61l-3.5,9.36c6.92,3.21,14.11,5.78,22.68,5.78c14.28,0,20.1-6.82,20.1-14.77
	c0-7.07-4.9-12.53-16.81-15.12 M203.91,1.34v26.53c0,8.12-4.75,11.52-10.58,11.52S182.82,36,182.82,27.88V1.34h-11.77V28
	c0,17,10,21.91,22.3,21.91s22.32-4.99,22.32-21.91V1.34H203.91z M161.28,24.42c3.06-2.16,4.22-5.73,4.22-9.66
	c-0.15-7.5-6.35-13.46-13.84-13.31c-0.01,0-0.01,0-0.02,0H124v47.19h28.73l0,0c8.07,0,14.79-6.24,14.79-13.85
	c-0.01-4.35-2.41-8.34-6.24-10.39 M135.36,11.4h16.27c2.24-0.02,4.08,1.76,4.12,4c-0.08,2.26-1.95,4.04-4.21,4h-16.18L135.36,11.4
	L135.36,11.4z M151.92,38.67h-16.57v-9.3h16.58c2.63-0.06,4.82,2,4.92,4.63C156.77,36.65,154.57,38.74,151.92,38.67"/>
</svg>
