<?xml version="1.0" encoding="utf-8"?>
<!-- Generator: Adobe Illustrator 24.1.2, SVG Export Plug-In . SVG Version: 6.00 Build 0)  -->
<svg version="1.1" id="Layer_1" xmlns="http://www.w3.org/2000/svg" xmlns:xlink="http://www.w3.org/1999/xlink" x="0px" y="0px"
	 viewBox="0 0 469.6 50" style="enable-background:new 0 0 469.6 50;" xml:space="preserve">
<style type="text/css">
	.st0{fill:#828282;}
</style>
<g>
	<path class="st0" d="M28.9,0.1C-13.1,1.9,3,48,3,48c3.7-4,15.4-13.4,32-13.5c0,0,0,0,0.1,0c8,0,12.7,6.8,10.8,13.5
		c0,0,12.4-14.5,5.5-31.1c-2.3-5.5-8.5-9.6-15.7-9.6c-2.5,0-5,0.5-7.6,1.5c-6.1,2.5-6.9,7.9-5.6,10.5c0.9,1.9,2.7,2.8,4.6,2.8
		c0.3,0,0.7,0,1-0.1c6.1-1,8.6-3.8,10-3.8c0.2,0,0.4,0.1,0.5,0.2c0.9,0.7,0,3.5-7.7,6.7c-1.9,0.8-5.3,1.6-8.7,1.6
		c-4,0-7.9-1.2-9.2-5.2c-2.4-7.4,6.3-16.4,19.5-17.4C33,4.1,34,4,34.6,4c6.7,0,11.5,3,13.9,5C45.7,4.5,40,0.3,30.7,0.1
		C30.7,0.1,30,0.1,28.9,0.1"/>
	<path class="st0" d="M342.3,45.6c1.4,0,2.5-1.1,2.5-2.7v-3.1c0-1.3-0.7-2.6-2.3-2.6c-0.8,0-1.8,0.5-2.2,1.4l0,0v-4.2h-1.7v11h1.5
		v-1.2l0,0C340.5,45.1,341.6,45.6,342.3,45.6 M342,44.4c-0.8,0-1.7-0.8-1.7-1.9v-2c0-1.2,0.8-1.9,1.6-1.9c0.8,0,1.3,0.4,1.3,1.3V43
		C343.1,43.9,342.7,44.4,342,44.4 M348.3,45.6c1,0,2-0.6,2.3-1.5l0,0v1.3h1.6v-8h-1.7v5c0,1-0.8,1.9-1.7,1.9c-0.9,0-1.1-0.5-1.1-1.3
		v-5.6H346v6C346.2,44.8,347.2,45.6,348.3,45.6 M354,45.4h1.7v-8H354V45.4z M354,36.3h1.7v-1.9H354V36.3z M359.3,45.5
		c0.4,0,0.8-0.1,1.2-0.2V44c-0.2,0-0.4,0.1-0.6,0.1c-0.6,0-0.8-0.3-0.8-0.8v-9h-1.7v9.3C357.4,44.9,358.1,45.5,359.3,45.5
		 M363.6,45.5c0.5,0,1-0.1,1.5-0.3v-1.4c-0.3,0.1-0.6,0.1-0.9,0.1c-0.6,0-0.9-0.3-0.9-0.8v-4.4h1.9v-1.3h-1.9v-2.1h-1.7v2.1h-1.2
		v1.3h1.2v5C361.7,45.2,362.7,45.5,363.6,45.5 M370.8,45.6c0.6,0,1.7-0.2,2.3-1.3h0.1c0,0.6,0.1,1,0.1,1.1h1.6
		c0-0.3-0.1-1.3-0.1-1.9v-3.9c0-1.6-1.3-2.4-2.9-2.4c-1.7,0-3,0.8-3,2.2v0.5h1.5v-0.4c0-0.7,0.5-1.1,1.3-1.1s1.3,0.4,1.3,1.1v1.1
		h-1.2c-1.4,0-3.2,0.7-3.2,2.6C368.5,44.8,369.6,45.6,370.8,45.6 M371.4,44.3c-0.7,0-1.2-0.4-1.2-1.3c0-1,0.8-1.3,1.7-1.3h1v0.9
		C372.9,43.6,372.3,44.3,371.4,44.3 M378.5,45.6c1.6,0,3-0.9,3-2.5c0-1.1-0.7-2-2-2.4l-1-0.4c-0.7-0.2-1-0.5-1-1s0.4-0.8,1.1-0.8
		c0.6,0,1.2,0.3,1.8,0.7l0.8-1.1c-0.6-0.6-1.6-0.9-2.6-0.9c-1.8,0-2.7,1.2-2.7,2.4c0,1.1,0.6,1.9,1.9,2.3l0.8,0.2
		c0.7,0.2,1.3,0.5,1.3,1.2c0,0.6-0.5,1-1.3,1s-1.6-0.5-2.2-1l-0.9,1.1C376.2,45.2,377.3,45.6,378.5,45.6 M384.9,45.6
		c1.6,0,3-0.9,3-2.5c0-1.1-0.7-2-2-2.4l-1-0.4c-0.7-0.2-1-0.5-1-1s0.4-0.8,1.1-0.8c0.6,0,1.2,0.3,1.8,0.7l0.8-1.1
		c-0.6-0.6-1.6-0.9-2.6-0.9c-1.8,0-2.7,1.2-2.7,2.4c0,1.1,0.6,1.9,1.9,2.3l0.8,0.2c0.7,0.2,1.3,0.5,1.3,1.2c0,0.6-0.5,1-1.3,1
		s-1.6-0.5-2.2-1l-0.9,1.1C382.6,45.2,383.7,45.6,384.9,45.6 M391.8,45.6c1,0,1.9-0.2,2.7-0.8l-0.4-1.1c-0.4,0.2-1.2,0.5-2,0.5
		c-1.1,0-1.8-0.4-1.8-1.6v-0.8h4.4v-1.7c0-1.8-1.2-2.9-3-2.9c-1.7,0-3.1,1.1-3.1,3.2v2.2C388.7,44.7,390,45.6,391.8,45.6
		 M390.4,40.7V40c0-0.8,0.4-1.5,1.4-1.5s1.4,0.8,1.4,1.5v0.7H390.4z M398.5,45.5c0.5,0,1-0.1,1.5-0.3v-1.4c-0.3,0.1-0.6,0.1-0.9,0.1
		c-0.6,0-0.9-0.3-0.9-0.8v-4.4h1.9v-1.3h-1.9v-2.1h-1.7v2.1h-1.2v1.3h1.2v5C396.6,45.2,397.6,45.5,398.5,45.5 M403.7,45.6
		c1.6,0,3-0.9,3-2.5c0-1.1-0.7-2-2-2.4l-1-0.4c-0.7-0.2-1-0.5-1-1s0.4-0.8,1.1-0.8c0.6,0,1.2,0.3,1.8,0.7l0.8-1.1
		c-0.6-0.6-1.6-0.9-2.6-0.9c-1.8,0-2.7,1.2-2.7,2.4c0,1.1,0.6,1.9,1.9,2.3l0.8,0.2c0.7,0.2,1.3,0.5,1.3,1.2c0,0.6-0.5,1-1.3,1
		s-1.6-0.5-2.2-1l-0.9,1.1C401.4,45.2,402.5,45.6,403.7,45.6"/>
	<path class="st0" d="M339,30.9h1.7v-6.6h1.5V23h-1.5v-1c0-0.6,0.3-0.8,0.8-0.8c0.2,0,0.6,0,0.8,0.1V20c-0.3-0.1-0.7-0.1-1.1-0.1
		c-1.3,0-2.2,0.7-2.2,2.2v1h-1.1v1.4h1.1L339,30.9L339,30.9z M346,31.1c1.7,0,3.1-0.9,3.1-3v-2.5c0-2-1.4-2.9-3.1-2.9s-3.1,1-3.1,3
		v2.5C342.9,30.2,344.3,31.1,346,31.1 M346,29.8c-1,0-1.4-0.6-1.4-1.6v-2.6c0-0.9,0.4-1.6,1.4-1.6s1.4,0.7,1.4,1.5v2.6
		C347.4,29.1,347.1,29.8,346,29.8 M350.5,30.9h1.7V26c0-1.3,1-1.7,1.9-1.7c0.1,0,0.4,0,0.7,0v-1.5c-0.2,0-0.5-0.1-0.6-0.1
		c-0.9,0-1.5,0.4-2,1.4l0,0v-1.3h-1.6v8.1H350.5z M358.1,30.9h1.7v-5.1c0-1.1,0.9-1.8,1.6-1.8c0.8,0,1.1,0.4,1.1,1.2v5.7h1.7v-6
		c0-1.3-0.9-2.2-2.1-2.2c-1,0-1.9,0.4-2.4,1.5l0,0v-1.3h-1.6L358.1,30.9L358.1,30.9z M367.7,31.1c0.6,0,1.7-0.2,2.3-1.3h0.1
		c0,0.6,0.1,1,0.1,1.1h1.6c0-0.3-0.1-1.3-0.1-1.9v-3.9c0-1.6-1.3-2.4-2.9-2.4c-1.7,0-3,0.8-3,2.2v0.5h1.5V25c0-0.7,0.5-1.1,1.3-1.1
		s1.3,0.4,1.3,1.1v1.1h-1.2c-1.4,0-3.2,0.7-3.2,2.6C365.4,30.4,366.4,31.1,367.7,31.1 M368.3,29.8c-0.7,0-1.2-0.4-1.2-1.3
		c0-1,0.9-1.3,1.7-1.3h1v0.9C369.8,29.1,369.1,29.8,368.3,29.8 M375.6,31.1c0.5,0,1-0.1,1.5-0.3v-1.4c-0.3,0.1-0.6,0.1-0.9,0.1
		c-0.6,0-0.9-0.3-0.9-0.8v-4.4h1.9V23h-1.9v-2.1h-1.7V23h-1.2v1.3h1.2v5C373.6,30.7,374.6,31.1,375.6,31.1 M380.5,31.1
		c1,0,2-0.6,2.3-1.5l0,0v1.3h1.6v-8h-1.7v5c0,1-0.8,1.9-1.7,1.9c-0.9,0-1.1-0.5-1.1-1.3v-5.6h-1.7v6
		C378.3,30.4,379.4,31.1,380.5,31.1 M386.1,30.9h1.7V26c0-1.3,1-1.7,1.9-1.7c0.1,0,0.4,0,0.7,0v-1.5c-0.2,0-0.5-0.1-0.6-0.1
		c-0.9,0-1.5,0.4-2,1.4l0,0v-1.3h-1.6v8.1H386.1z M393,31.1c0.6,0,1.7-0.2,2.3-1.3h0.1c0,0.6,0.1,1,0.1,1.1h1.6
		c0-0.3-0.1-1.3-0.1-1.9v-3.9c0-1.6-1.3-2.4-2.9-2.4c-1.7,0-3,0.8-3,2.2v0.5h1.5V25c0-0.7,0.5-1.1,1.3-1.1s1.3,0.4,1.3,1.1v1.1H394
		c-1.4,0-3.2,0.7-3.2,2.6C390.7,30.4,391.8,31.1,393,31.1 M393.7,29.8c-0.7,0-1.2-0.4-1.2-1.3c0-1,0.8-1.3,1.7-1.3h1v0.9
		C395.1,29.1,394.5,29.8,393.7,29.8 M400.2,31.1c0.4,0,0.8-0.1,1.2-0.2v-1.3c-0.2,0-0.4,0.1-0.6,0.1c-0.6,0-0.8-0.3-0.8-0.8v-9h-1.7
		v9.3C398.3,30.4,399,31.1,400.2,31.1 M406.7,31.1c0.6,0,1.7-0.2,2.3-1.3h0.1c0,0.6,0.1,1,0.1,1.1h1.6c0-0.3-0.1-1.3-0.1-1.9v-3.9
		c0-1.6-1.3-2.4-2.9-2.4c-1.7,0-3,0.8-3,2.2v0.5h1.5V25c0-0.7,0.5-1.1,1.3-1.1s1.3,0.4,1.3,1.1v1.1h-1.2c-1.4,0-3.2,0.7-3.2,2.6
		C404.4,30.4,405.4,31.1,406.7,31.1 M407.3,29.8c-0.7,0-1.2-0.4-1.2-1.3c0-1,0.8-1.3,1.7-1.3h1v0.9
		C408.8,29.1,408.1,29.8,407.3,29.8 M412,30.9h1.7v-5.1c0-1.1,0.9-1.8,1.6-1.8c0.8,0,1.1,0.4,1.1,1.2v5.7h1.7v-6
		c0-1.3-0.9-2.2-2.1-2.2c-1,0-1.9,0.4-2.4,1.5l0,0v-1.3H412V30.9z M421.7,31.1c0.9,0,1.7-0.5,2.3-1.5l0,0l0.1,1.3h1.5v-11H424v3.9
		l0,0c-0.4-0.7-1.2-1.1-2-1.1c-1.4,0-2.5,1.1-2.5,2.6v3.2C419.5,29.9,420.2,31.1,421.7,31.1 M422.4,29.8c-0.8,0-1.2-0.5-1.2-1.3
		v-3.1c0-1.1,0.5-1.5,1.2-1.5s1.7,0.8,1.7,1.9v2.1C424,29,423.2,29.8,422.4,29.8"/>
	<path class="st0" d="M338.6,16.5h3.9c2.1,0,3.6-1.1,3.6-3.3V8.6c0-2.2-1.5-3.1-3.6-3.1h-3.9V16.5z M340.4,15V7h1.8
		c1.3,0,1.9,0.8,1.9,1.9v4.3c0,0.9-0.6,1.9-1.9,1.9h-1.8V15z M350.4,16.6c1,0,1.9-0.2,2.7-0.8l-0.4-1.1c-0.4,0.2-1.2,0.5-2,0.5
		c-1.1,0-1.8-0.4-1.8-1.6v-0.8h4.4v-1.7c0-1.8-1.2-2.9-3-2.9c-1.7,0-3.1,1.1-3.1,3.2v2.2C347.3,15.8,348.7,16.6,350.4,16.6
		 M349,11.7V11c0-0.8,0.4-1.5,1.4-1.5s1.4,0.8,1.4,1.5v0.7H349z M356.9,16.6c1.6,0,3-0.9,3-2.5c0-1.1-0.7-2-2-2.4l-1-0.4
		c-0.7-0.2-1-0.5-1-1s0.4-0.8,1.1-0.8c0.6,0,1.2,0.3,1.8,0.7l0.8-1.1C359,8.5,358,8.2,357,8.2c-1.8,0-2.7,1.2-2.7,2.4
		c0,1.1,0.6,1.9,1.9,2.3l0.8,0.2c0.7,0.2,1.3,0.5,1.3,1.2c0,0.6-0.5,1-1.3,1s-1.6-0.5-2.2-1l-0.9,1.1
		C354.5,16.3,355.7,16.6,356.9,16.6 M361,16.5h1.7v-8H361V16.5z M361,7.4h1.7V5.5H361V7.4z M367,19.4c2.1,0,3.3-1.2,3.3-3.2V8.4
		h-1.4l-0.1,1.1l0,0c-0.4-0.8-1.3-1.3-2.1-1.3c-1.3,0-2.5,0.9-2.5,2.5v3.1c0,1.4,0.8,2.3,2.3,2.3c0.8,0,1.7-0.4,2.1-1.4l0,0v1.7
		c0,1.1-0.6,1.5-1.7,1.5c-0.8,0-1.6-0.2-2.2-0.6l-0.5,1.3C364.9,19.2,365.9,19.4,367,19.4 M366.9,14.9c-0.9,0-1.2-0.6-1.2-1.4V11
		c0-1,0.4-1.5,1.2-1.5c0.7,0,1.6,0.7,1.6,1.8v1.6C368.5,14,367.7,14.9,366.9,14.9 M371.8,16.5h1.7v-5.1c0-1,0.9-1.8,1.6-1.8
		c0.8,0,1.1,0.4,1.1,1.2v5.6h1.7v-6c0-1.3-0.9-2.2-2.1-2.2c-1,0-1.9,0.4-2.4,1.5l0,0V8.5h-1.6L371.8,16.5L371.8,16.5z M384.9,16.7
		c1.2,0,2.3-0.5,3.1-1.4l0.9,1.1h2.2l-1.7-2.1c0.5-0.7,1-1.8,1.2-2.9l-1.5-0.2c-0.2,0.8-0.4,1.6-0.6,2l-2-2.5
		c1.4-0.6,2.4-1.6,2.4-3.1c0-1.3-1.2-2.4-2.9-2.4c-2.2,0-3,1.5-3,2.7c0,0.8,0.4,1.7,1.1,2.5c-1.5,0.6-2.4,1.9-2.4,3.2
		C381.6,15.4,382.9,16.7,384.9,16.7 M385.2,15.2c-1.2,0-1.9-0.8-1.9-1.8c0-0.8,0.4-1.7,1.5-2.1l2.4,3.1
		C386.7,14.9,386,15.2,385.2,15.2 M385.7,9.8c-0.6-0.9-1.1-1.5-1.1-2c0-0.7,0.4-1.3,1.3-1.3c0.8,0,1.3,0.5,1.3,1.2
		C387.2,8.7,386.7,9.4,385.7,9.8 M398.1,16.6c2,0,3.6-1.1,3.6-3.1v-0.7h-1.6v0.6c0,1-0.7,1.7-1.9,1.7c-1.2,0-2.1-0.6-2.1-2V8.7
		c0-1.2,0.7-2,2-2s2,0.7,2,1.8V9h1.6V8.3c0-1.9-1.6-3-3.6-3c-2.2,0-3.8,1.2-3.8,3.4v4.6C394.3,15.6,396,16.6,398.1,16.6 M406,16.6
		c1.7,0,3.1-0.9,3.1-3v-2.5c0-2-1.4-2.9-3.1-2.9s-3.1,1-3.1,3v2.5C402.9,15.8,404.3,16.6,406,16.6 M406,15.3c-1,0-1.4-0.6-1.4-1.6
		v-2.6c0-0.9,0.4-1.6,1.4-1.6s1.4,0.7,1.4,1.5v2.6C407.4,14.6,407.1,15.3,406,15.3 M410.5,16.5h1.7v-5.1c0-1,0.9-1.8,1.6-1.8
		c0.8,0,1.1,0.4,1.1,1.2v5.6h1.7v-6c0-1.3-0.9-2.2-2.1-2.2c-1,0-1.9,0.4-2.4,1.5l0,0V8.5h-1.6L410.5,16.5L410.5,16.5z M420.7,16.6
		c1.6,0,3-0.9,3-2.5c0-1.1-0.7-2-2-2.4l-1-0.4c-0.7-0.2-1-0.5-1-1s0.4-0.8,1.1-0.8c0.6,0,1.2,0.3,1.8,0.7l0.8-1.1
		c-0.6-0.6-1.6-0.9-2.6-0.9c-1.8,0-2.7,1.2-2.7,2.4c0,1.1,0.6,1.9,1.9,2.3l0.8,0.2c0.7,0.2,1.3,0.5,1.3,1.2c0,0.6-0.5,1-1.3,1
		s-1.6-0.5-2.2-1l-0.9,1.1C418.4,16.3,419.5,16.6,420.7,16.6 M427,16.6c1,0,2-0.6,2.3-1.5l0,0v1.3h1.6v-8h-1.7v5
		c0,1-0.8,1.9-1.7,1.9c-0.8,0-1.1-0.5-1.1-1.3V8.5h-1.7v6C424.8,15.9,425.9,16.6,427,16.6 M434.3,16.6c0.4,0,0.8-0.1,1.2-0.2v-1.3
		c-0.2,0-0.4,0.1-0.6,0.1c-0.6,0-0.8-0.3-0.8-0.8v-9h-1.7v9.3C432.5,16,433.2,16.6,434.3,16.6 M438.9,16.6c0.5,0,1-0.1,1.5-0.3V15
		c-0.3,0.1-0.6,0.1-0.9,0.1c-0.6,0-0.9-0.3-0.9-0.8V9.9h1.9V8.5h-1.9V6.4H437v2.1h-1.2v1.3h1.2v5C437,16.2,438,16.6,438.9,16.6
		 M443.6,16.6c0.7,0,1.7-0.2,2.3-1.3h0.1c0,0.6,0.1,1,0.1,1.1h1.6c0-0.3-0.1-1.3-0.1-1.9v-3.9c0-1.6-1.3-2.4-2.9-2.4
		c-1.7,0-3,0.8-3,2.2V11h1.5v-0.4c0-0.7,0.5-1.1,1.3-1.1s1.3,0.4,1.3,1.1v1.1h-1.2c-1.4,0-3.2,0.7-3.2,2.6
		C441.3,15.9,442.4,16.6,443.6,16.6 M444.3,15.4c-0.7,0-1.2-0.4-1.2-1.3c0-1,0.8-1.3,1.7-1.3h1v0.9
		C445.7,14.7,445.1,15.4,444.3,15.4 M448.9,16.5h1.7v-5.1c0-1,0.9-1.8,1.6-1.8c0.8,0,1.1,0.4,1.1,1.2v5.6h1.7v-6
		c0-1.3-0.9-2.2-2.1-2.2c-1,0-1.9,0.4-2.4,1.5l0,0V8.5h-1.6L448.9,16.5L448.9,16.5z M459.4,16.6c1.8,0,2.9-1,2.9-2.4v-0.5h-1.6V14
		c0,0.5-0.2,1.3-1.3,1.3c-1,0-1.5-0.6-1.5-1.5v-2.7c0-0.9,0.4-1.5,1.4-1.5s1.3,0.7,1.3,1.2v0.4h1.6v-0.5c0-1.5-1.1-2.4-2.9-2.4
		c-1.7,0-3,1-3,3v2.5C456.4,15.7,457.7,16.6,459.4,16.6 M464.4,19.4c1,0,1.9-0.5,2.4-2.1l2.8-8.8h-1.5l-1.7,5.7l0,0l-1.7-5.7h-1.8
		l2.6,7.8l-0.3,0.9c-0.2,0.6-0.6,0.8-1,0.8c-0.3,0-0.6,0-0.9-0.1v1.4C463.7,19.3,464,19.4,464.4,19.4"/>
	<path class="st0" d="M145.1,46.7h-8l-13-14.7h-9v14.7h-6.8V4c6.6,0,13.2,0,19.9,0c9.9,0,15.1,6.8,15.1,14c0,6.1-3.2,12.1-11.6,13.3
		L145.1,46.7z M115.1,10.2v15.5h13c5.7,0,8.2-3.6,8.2-7.6c0-3.8-2.5-7.9-8.1-7.9C128.2,10.2,115.1,10.2,115.1,10.2z"/>
	<path class="st0" d="M240.3,4c14.6,0,21.2,10.4,21.4,21c0.2,10.8-6.5,21.7-21.4,21.7h-16.2V4H240.3z M230.9,40.1h9.4
		c10.4,0,14.8-7.7,14.6-15.2c-0.2-7.2-4.6-14.4-14.6-14.4h-9.4V40.1z"/>
	<rect x="266.9" y="4" class="st0" width="6.8" height="42.7"/>
	<path class="st0" d="M307.5,13.4c-2-2.9-6.1-4.7-10.5-4.8c-5.7,0-9.9,2.4-9.9,6.5s4.8,5.3,10.4,6.1c8.8,1.2,17.1,3.7,17.1,13.2
		c-0.1,9.6-8.8,13.2-17.7,13.2c-8.2,0-14.4-2.5-18.3-9.7l5.1-3.4c3,5.2,8.3,7,13.3,7c5.1,0,10.8-1.7,10.8-7.1c0-4.6-4.9-6.2-10.9-7
		c-8.5-1.2-16.5-3.3-16.5-12.4c-0.1-8.8,8.8-12.3,16.5-12.3c6.2,0,12.3,1.5,15.9,7.2L307.5,13.4z"/>
	<polygon class="st0" points="105.9,46.7 86.8,4 79.4,4 60.2,46.7 67.5,46.7 83.1,11.2 92,31.5 77.9,31.5 75.1,37.7 94.7,37.7 
		98.7,46.7 	"/>
	<path class="st0" d="M202.6,4h-7.4l-12.4,27.7c-1.3,2.6-2.8,4.3-3.3,4.9c-3,3-7.3,4.6-11.3,4.6c-11,0-15.7-7.7-15.7-15.5
		c-0.1-7.9,4.9-15.8,15.7-15.8c4,0,8,1.4,11,4.4l4.6-4.4c-4.3-4.3-9.9-6.5-15.6-6.5c-15.2,0-22.5,11.2-22.5,22.4
		c0.1,11.2,7,21.9,22.5,21.9c6,0,11.6-2,16-6.3c0,0,2.7-2.7,4.5-6.7l0.5-1.2l1.2-2.8l8.5-19.2l8.9,20.3h-14.1L191,38h19.6l3.9,9h7.3
		L202.6,4z"/>
	<rect x="325.8" y="0.7" class="st0" width="1" height="49.2"/>
</g>
</svg>
