<?xml version="1.0" encoding="utf-8"?>
<!-- Generator: Adobe Illustrator 24.1.2, SVG Export Plug-In . SVG Version: 6.00 Build 0)  -->
<svg version="1.1" id="Layer_1" xmlns="http://www.w3.org/2000/svg" xmlns:xlink="http://www.w3.org/1999/xlink" x="0px" y="0px"
	 viewBox="0 0 91.66 50" style="enable-background:new 0 0 91.66 50;" xml:space="preserve">
<style type="text/css">
	.st0{fill:#828282;}
</style>
<rect x="0.12" y="39.46" class="st0" width="91.32" height="0.64"/>
<polygon class="st0" points="45.76,8.97 45.65,8.96 45.7,9.06 45.62,9.15 45.72,9.17 45.72,9.29 45.82,9.21 45.92,9.29 45.92,9.17 
	46.02,9.15 45.94,9.06 45.99,8.96 45.89,8.97 45.82,8.85 "/>
<polygon class="st0" points="45.28,9.63 45.17,9.61 45.22,9.71 45.14,9.79 45.24,9.82 45.24,9.94 45.34,9.87 45.44,9.94 45.44,9.82 
	45.54,9.79 45.46,9.71 45.51,9.61 45.4,9.62 45.34,9.5 "/>
<polygon class="st0" points="46.09,9.54 45.99,9.53 46.04,9.63 45.96,9.71 46.06,9.73 46.06,9.86 46.16,9.78 46.26,9.86 46.26,9.73 
	46.36,9.71 46.28,9.63 46.33,9.53 46.22,9.54 46.16,9.42 "/>
<polygon class="st0" points="46.18,10.16 46.11,10.15 46.15,10.21 46.1,10.26 46.16,10.27 46.16,10.35 46.21,10.29 46.26,10.35 
	46.26,10.27 46.33,10.26 46.28,10.21 46.31,10.15 46.25,10.16 46.21,10.1 "/>
<polygon class="st0" points="45.4,10.9 45.4,10.69 45.22,10.65 45.36,10.5 45.27,10.33 45.45,10.35 45.57,10.15 45.67,10.35 
	45.86,10.33 45.77,10.5 45.91,10.65 45.73,10.69 45.73,10.9 45.57,10.77 "/>
<polygon class="st0" points="45.79,0 46.17,0.99 47.15,0.69 46.65,1.63 47.49,2.25 46.48,2.42 46.54,3.5 45.79,2.78 45.03,3.5 
	45.09,2.42 44.08,2.25 44.91,1.63 44.42,0.69 45.4,0.99 "/>
<path class="st0" d="M10.24,34.14l-0.81-2l-0.84,2H10.24z M10.38,34.45H8.45L8.23,35c-0.07,0.14-0.11,0.29-0.12,0.45
	C8.1,35.59,8.17,35.73,8.3,35.8c0.17,0.07,0.35,0.11,0.53,0.11v0.16H7v-0.16c0.19-0.03,0.36-0.12,0.48-0.26
	C7.7,35.4,7.87,35.11,8,34.8l2-4.55l0,0l2,4.68c0.1,0.3,0.26,0.59,0.46,0.84c0.11,0.09,0.25,0.14,0.39,0.15v0.16h-2.68v-0.16h0.11
	c0.15,0.02,0.31-0.02,0.44-0.1c0.06-0.04,0.1-0.11,0.09-0.19c0.01-0.05,0.01-0.1,0-0.15c-0.03-0.11-0.07-0.22-0.12-0.32L10.38,34.45
	z"/>
<path class="st0" d="M16.15,32.14v3.08c-0.02,0.19,0.01,0.38,0.08,0.56c0.05,0.08,0.15,0.12,0.32,0.14v0.16H15v-0.53
	c-0.15,0.2-0.33,0.36-0.54,0.49c-0.18,0.1-0.39,0.15-0.6,0.15c-0.21,0-0.41-0.07-0.57-0.2c-0.15-0.13-0.27-0.29-0.33-0.48
	c-0.06-0.31-0.09-0.63-0.08-0.95V33c0.02-0.19,0-0.38-0.08-0.55c-0.09-0.09-0.21-0.14-0.33-0.14v-0.16H14v2.69
	c-0.02,0.18-0.02,0.36,0,0.54c0.03,0.07,0.07,0.14,0.12,0.19c0.06,0.04,0.12,0.06,0.19,0.06c0.09,0,0.18-0.03,0.26-0.08
	c0.17-0.12,0.32-0.27,0.43-0.45V33c0.02-0.19-0.01-0.38-0.08-0.55c-0.09-0.09-0.21-0.14-0.33-0.14v-0.16L16.15,32.14z"/>
<path class="st0" d="M19.19,32v1.34h-0.13c-0.11-0.3-0.28-0.58-0.51-0.81c-0.14-0.13-0.33-0.21-0.52-0.22
	c-0.11,0-0.21,0.04-0.29,0.11c-0.12,0.14-0.12,0.35,0,0.49c0.22,0.22,0.46,0.42,0.72,0.59c0.3,0.19,0.57,0.43,0.78,0.72
	c0.12,0.19,0.19,0.41,0.19,0.64c0,0.23-0.06,0.45-0.16,0.65c-0.09,0.2-0.25,0.37-0.44,0.48c-0.19,0.11-0.41,0.17-0.63,0.17
	c-0.25-0.02-0.49-0.07-0.72-0.17L17.33,36c-0.09,0-0.17,0.07-0.22,0.21H17l-0.06-1.41h0.14c0.08,0.32,0.25,0.61,0.49,0.83
	c0.16,0.16,0.38,0.25,0.6,0.27c0.11,0.01,0.23-0.03,0.31-0.11c0.08-0.08,0.13-0.19,0.13-0.31c0-0.12-0.04-0.25-0.12-0.34
	c-0.16-0.17-0.34-0.32-0.54-0.45c-0.29-0.19-0.56-0.42-0.79-0.68c-0.18-0.22-0.28-0.49-0.28-0.77c0-0.3,0.1-0.59,0.3-0.81
	c0.19-0.26,0.5-0.42,0.82-0.43c0.21,0,0.42,0.06,0.6,0.16c0.06,0.02,0.11,0.02,0.17,0c0.04,0.01,0.08,0.01,0.12,0
	c0.05-0.05,0.1-0.11,0.14-0.18L19.19,32z"/>
<path class="st0" d="M21.17,30.7v1.44h0.89v0.42h-0.89V35c-0.02,0.15-0.02,0.3,0,0.45c0.02,0.06,0.06,0.12,0.11,0.16
	c0.04,0.03,0.09,0.05,0.14,0.06c0.17,0,0.34-0.15,0.49-0.42l0.12,0.09c-0.13,0.48-0.56,0.81-1.06,0.81c-0.22,0-0.43-0.07-0.6-0.21
	c-0.15-0.12-0.26-0.28-0.31-0.47c-0.03-0.26-0.03-0.51,0-0.77v-2.14h-0.49v-0.15c0.31-0.23,0.6-0.5,0.85-0.79
	c0.23-0.28,0.42-0.59,0.58-0.92H21.17z"/>
<path class="st0" d="M23.9,32.14V33c0.17-0.3,0.39-0.58,0.65-0.8c0.16-0.12,0.35-0.19,0.55-0.2c0.13-0.01,0.26,0.05,0.35,0.15
	c0.1,0.11,0.15,0.26,0.14,0.41c0.01,0.16-0.04,0.32-0.14,0.44c-0.07,0.1-0.18,0.15-0.3,0.15c-0.14,0.01-0.27-0.04-0.37-0.14
	l-0.19-0.16H24.5c-0.08,0-0.16,0.03-0.22,0.09c-0.12,0.11-0.21,0.25-0.25,0.41c-0.09,0.29-0.14,0.6-0.13,0.91v1.13
	c-0.01,0.1-0.01,0.21,0,0.31c0.03,0.07,0.08,0.13,0.14,0.17c0.1,0.04,0.22,0.06,0.33,0.06v0.16h-2v-0.16
	c0.13,0.01,0.25-0.04,0.33-0.14c0.08-0.2,0.11-0.42,0.09-0.63V33c0.02-0.14,0.02-0.29,0-0.43c-0.02-0.07-0.06-0.13-0.12-0.17
	c-0.08-0.04-0.18-0.07-0.27-0.07v-0.16L23.9,32.14z"/>
<path class="st0" d="M27.64,35.19v-1.32c-0.29,0.16-0.53,0.38-0.73,0.64c-0.1,0.13-0.15,0.29-0.15,0.45c0,0.13,0.04,0.26,0.13,0.35
	c0.07,0.08,0.18,0.12,0.28,0.11C27.35,35.4,27.51,35.32,27.64,35.19 M27.64,35.49c-0.32,0.36-0.75,0.59-1.23,0.64
	c-0.2,0-0.4-0.08-0.54-0.22c-0.14-0.15-0.22-0.35-0.21-0.55c0-0.31,0.13-0.61,0.37-0.81c0.49-0.41,1.03-0.75,1.61-1v-0.4
	c0.03-0.19,0.03-0.37,0-0.56c-0.03-0.08-0.09-0.15-0.17-0.2c-0.08-0.06-0.19-0.09-0.29-0.09c-0.15-0.01-0.3,0.04-0.43,0.12
	c-0.06,0.04-0.1,0.11-0.1,0.18c0.01,0.08,0.05,0.16,0.11,0.22c0.09,0.1,0.14,0.22,0.15,0.35c0,0.13-0.05,0.26-0.15,0.35
	c-0.1,0.1-0.23,0.16-0.37,0.15c-0.16,0.01-0.32-0.06-0.43-0.17c-0.11-0.09-0.17-0.23-0.17-0.37c0.01-0.2,0.08-0.38,0.21-0.53
	c0.17-0.2,0.39-0.34,0.64-0.43c0.28-0.1,0.57-0.15,0.86-0.15c0.3-0.01,0.59,0.07,0.84,0.24c0.19,0.13,0.33,0.31,0.41,0.52
	c0.05,0.27,0.07,0.54,0.05,0.81v1.52c-0.02,0.11-0.02,0.23,0,0.34c0.01,0.04,0.03,0.08,0.06,0.11c0.03,0.01,0.06,0.01,0.09,0
	c0.07,0,0.14-0.06,0.21-0.15l0.12,0.09c-0.1,0.18-0.24,0.34-0.41,0.46c-0.15,0.09-0.32,0.14-0.49,0.14
	c-0.18,0.02-0.36-0.04-0.5-0.16c-0.13-0.13-0.21-0.3-0.23-0.48"/>
<path class="st0" d="M30.92,30.37v4.89c-0.02,0.18,0.01,0.36,0.09,0.53c0.1,0.09,0.23,0.14,0.37,0.13v0.16h-2v-0.16
	c0.14,0.01,0.28-0.05,0.37-0.15c0.07-0.16,0.11-0.34,0.09-0.51v-4.07c0.01-0.18-0.02-0.36-0.09-0.53c-0.1-0.09-0.23-0.14-0.37-0.14
	v-0.15H30.92z"/>
<path class="st0" d="M33.2,32.14v3.12c-0.02,0.18,0.01,0.36,0.09,0.53c0.1,0.09,0.23,0.14,0.36,0.13v0.16h-2v-0.16
	c0.14,0.01,0.28-0.05,0.37-0.15c0.07-0.16,0.1-0.34,0.08-0.51V33c0.02-0.18-0.01-0.36-0.09-0.53c-0.1-0.09-0.23-0.14-0.36-0.13
	v-0.16L33.2,32.14z M32.64,30.24c0.17,0,0.32,0.06,0.44,0.18c0.11,0.13,0.18,0.29,0.18,0.46c0.01,0.17-0.06,0.34-0.18,0.46
	c-0.11,0.12-0.27,0.19-0.44,0.19c-0.17,0-0.33-0.07-0.44-0.19c-0.12-0.12-0.19-0.29-0.18-0.46c0-0.17,0.07-0.33,0.18-0.46
	C32.32,30.3,32.47,30.24,32.64,30.24"/>
<path class="st0" d="M35.83,35.19v-1.32c-0.28,0.16-0.53,0.38-0.72,0.64C35.02,34.66,34.98,34.83,35,35
	c-0.01,0.13,0.05,0.26,0.14,0.35c0.07,0.08,0.17,0.12,0.27,0.11c0.18-0.02,0.34-0.1,0.47-0.23 M35.88,35.53
	c-0.32,0.36-0.76,0.59-1.24,0.64c-0.2,0-0.39-0.08-0.53-0.22c-0.14-0.15-0.22-0.34-0.22-0.55c0-0.31,0.14-0.61,0.38-0.81
	c0.48-0.41,1.03-0.75,1.61-1v-0.4c0.01-0.19-0.01-0.38-0.05-0.56c-0.04-0.08-0.1-0.15-0.18-0.2c-0.08-0.06-0.18-0.09-0.28-0.09
	c-0.15-0.01-0.3,0.04-0.43,0.12c-0.06,0.04-0.11,0.11-0.11,0.18c0.01,0.08,0.05,0.16,0.11,0.22c0.1,0.09,0.15,0.22,0.16,0.35
	c0,0.13-0.05,0.26-0.15,0.35c-0.1,0.1-0.24,0.16-0.38,0.15c-0.16,0-0.31-0.06-0.43-0.17c-0.11-0.09-0.17-0.23-0.17-0.37
	c0.01-0.21,0.09-0.41,0.23-0.57c0.17-0.2,0.39-0.35,0.64-0.43c0.28-0.1,0.57-0.15,0.86-0.15c0.3-0.01,0.59,0.07,0.84,0.24
	c0.18,0.13,0.33,0.31,0.41,0.52c0.03,0.27,0.03,0.54,0,0.81v1.52c-0.01,0.11-0.01,0.23,0,0.34l0.06,0.11h0.09
	c0.08,0,0.15-0.06,0.22-0.15l0.12,0.09c-0.11,0.18-0.25,0.34-0.42,0.46c-0.15,0.09-0.32,0.14-0.49,0.14
	c-0.18,0.01-0.36-0.05-0.5-0.16c-0.13-0.13-0.21-0.3-0.22-0.48"/>
<path class="st0" d="M39.1,32.14v0.51c0.15-0.19,0.34-0.35,0.55-0.47c0.17-0.11,0.37-0.17,0.57-0.16c0.22-0.01,0.44,0.07,0.61,0.21
	c0.16,0.14,0.27,0.33,0.32,0.54c0.05,0.3,0.07,0.61,0.06,0.92v1.53c-0.02,0.19,0.01,0.38,0.08,0.56c0.09,0.09,0.21,0.14,0.33,0.14
	v0.16h-1.9v-0.16c0.12-0.01,0.23-0.08,0.3-0.18c0.06-0.17,0.08-0.34,0.07-0.52v-1.76c0.02-0.2,0.02-0.4,0-0.6
	c-0.02-0.08-0.06-0.15-0.12-0.2c-0.06-0.05-0.13-0.07-0.2-0.07c-0.22,0-0.44,0.18-0.63,0.52v2.11c-0.02,0.19,0.01,0.38,0.07,0.56
	c0.08,0.08,0.19,0.13,0.3,0.14v0.16h-1.9v-0.16c0.13-0.01,0.25-0.06,0.33-0.16c0.07-0.17,0.09-0.36,0.07-0.54V33
	c0.02-0.19-0.01-0.38-0.08-0.55c-0.08-0.09-0.2-0.14-0.32-0.14v-0.16L39.1,32.14z"/>
<path class="st0" d="M49,30.24v2h-0.15c-0.14-0.49-0.42-0.92-0.8-1.26c-0.34-0.27-0.75-0.42-1.18-0.42c-0.37-0.01-0.73,0.12-1,0.36
	c-0.29,0.27-0.49,0.62-0.58,1c-0.11,0.43-0.17,0.87-0.17,1.32c-0.01,0.49,0.06,0.97,0.19,1.44c0.08,0.37,0.3,0.69,0.6,0.91
	c0.29,0.2,0.64,0.3,1,0.29c0.13,0.01,0.27,0.01,0.4,0c0.15-0.02,0.29-0.07,0.42-0.13v-1.22c0.02-0.14,0.02-0.29,0-0.43
	c-0.04-0.08-0.11-0.15-0.19-0.19c-0.1-0.05-0.22-0.08-0.33-0.07H47v-0.16h2.65v0.16c-0.14,0-0.29,0.03-0.42,0.08
	c-0.09,0.05-0.15,0.13-0.18,0.22c-0.02,0.13-0.02,0.26,0,0.39v1.18c-0.34,0.17-0.71,0.3-1.09,0.37c-0.38,0.09-0.78,0.13-1.17,0.13
	c-0.45,0.02-0.9-0.05-1.32-0.21c-0.33-0.14-0.64-0.34-0.91-0.58c-0.23-0.24-0.42-0.52-0.56-0.82c-0.18-0.41-0.28-0.85-0.27-1.3
	c-0.02-0.81,0.29-1.59,0.85-2.17c0.57-0.59,1.36-0.91,2.18-0.89c0.25,0,0.5,0.02,0.74,0.07c0.19,0.05,0.38,0.11,0.56,0.19
	c0.15,0.06,0.31,0.11,0.47,0.15c0.08,0,0.16-0.03,0.22-0.08c0.08-0.1,0.14-0.21,0.17-0.33H49z"/>
<path class="st0" d="M51.64,32.32c-0.14,0-0.26,0.06-0.35,0.17c-0.13,0.19-0.19,0.41-0.19,0.64c-0.04,0.44-0.06,0.88-0.05,1.32
	c0,0.28,0.02,0.56,0.06,0.84c0.02,0.17,0.08,0.33,0.19,0.46c0.08,0.1,0.2,0.15,0.33,0.15c0.11,0,0.21-0.03,0.29-0.1
	c0.11-0.11,0.19-0.25,0.22-0.4c0.07-0.54,0.09-1.08,0.08-1.62c0.01-0.34-0.01-0.67-0.08-1c-0.03-0.15-0.11-0.29-0.22-0.39
	c-0.08-0.06-0.18-0.09-0.28-0.09 M51.64,32c0.32,0,0.64,0.09,0.91,0.27c0.29,0.18,0.51,0.45,0.64,0.76
	c0.15,0.33,0.23,0.69,0.22,1.06c0.02,0.5-0.12,0.99-0.41,1.4c-0.3,0.45-0.81,0.7-1.35,0.68c-0.51,0.03-1.01-0.21-1.31-0.62
	c-0.61-0.88-0.61-2.04,0-2.92c0.3-0.41,0.78-0.65,1.29-0.63"/>
<path class="st0" d="M55.17,36.19l-1.26-3c-0.09-0.25-0.21-0.49-0.36-0.71c-0.07-0.08-0.17-0.13-0.28-0.14v-0.16h2v0.16
	c-0.09-0.01-0.19,0.01-0.26,0.07c-0.06,0.06-0.09,0.13-0.09,0.21c0.03,0.21,0.09,0.4,0.18,0.59l0.62,1.48l0.48-1.28
	c0.12-0.24,0.19-0.5,0.22-0.77c0-0.08-0.03-0.16-0.09-0.21c-0.09-0.09-0.21-0.13-0.33-0.13v-0.16h1.22v0.16
	c-0.11,0.01-0.21,0.05-0.29,0.13c-0.15,0.21-0.26,0.43-0.34,0.67l-1.25,3.09H55.17z"/>
<path class="st0" d="M59.21,33.69c0.01-0.31-0.01-0.62-0.07-0.93c-0.04-0.15-0.11-0.28-0.22-0.39c-0.06-0.05-0.15-0.08-0.23-0.07
	c-0.14,0-0.27,0.08-0.34,0.21c-0.17,0.31-0.25,0.65-0.24,1v0.15L59.21,33.69z M60.21,33.97h-2.07c-0.01,0.44,0.13,0.87,0.39,1.23
	c0.15,0.22,0.4,0.35,0.67,0.35c0.16,0,0.31-0.05,0.44-0.13c0.17-0.14,0.32-0.32,0.42-0.52L60.2,35c-0.15,0.36-0.38,0.67-0.68,0.92
	c-0.25,0.18-0.54,0.28-0.85,0.27c-0.51,0.03-1-0.23-1.27-0.67c-0.24-0.4-0.36-0.87-0.35-1.34c-0.03-0.57,0.15-1.13,0.51-1.58
	c0.3-0.36,0.73-0.57,1.2-0.58c0.39,0,0.76,0.18,1,0.49c0.31,0.43,0.47,0.96,0.44,1.49"/>
<path class="st0" d="M62,32.14V33c0.16-0.31,0.38-0.58,0.65-0.8c0.16-0.13,0.35-0.2,0.55-0.21c0.14-0.01,0.27,0.05,0.36,0.15
	c0.09,0.11,0.14,0.26,0.13,0.41c0.01,0.16-0.04,0.31-0.13,0.44c-0.08,0.1-0.2,0.15-0.32,0.15c-0.13,0.01-0.26-0.04-0.36-0.14
	l-0.19-0.16H62.6c-0.08,0-0.16,0.03-0.22,0.09c-0.12,0.11-0.21,0.26-0.25,0.42c-0.09,0.29-0.14,0.59-0.13,0.9v1.13
	c-0.01,0.1-0.01,0.21,0,0.31c0.03,0.07,0.08,0.13,0.14,0.17c0.1,0.04,0.21,0.06,0.32,0.06v0.16h-2v-0.16
	c0.12,0.01,0.24-0.05,0.32-0.14c0.09-0.2,0.12-0.41,0.1-0.63V33c0.02-0.14,0.02-0.29,0-0.43c-0.02-0.07-0.06-0.13-0.11-0.17
	c-0.08-0.04-0.18-0.07-0.27-0.07v-0.16L62,32.14z"/>
<path class="st0" d="M65.45,32.14v0.51c0.15-0.19,0.34-0.35,0.55-0.47c0.17-0.11,0.37-0.17,0.57-0.16c0.22-0.01,0.44,0.07,0.61,0.21
	c0.16,0.15,0.27,0.33,0.32,0.54c0.05,0.3,0.07,0.61,0.06,0.92v1.53c-0.02,0.19,0.01,0.38,0.08,0.56c0.09,0.09,0.21,0.14,0.33,0.14
	v0.16h-1.9v-0.16c0.13-0.01,0.24-0.08,0.31-0.18c0.05-0.17,0.07-0.34,0.06-0.52v-1.76c0.02-0.2,0.02-0.4,0-0.6
	c-0.02-0.08-0.06-0.15-0.12-0.2c-0.06-0.05-0.13-0.07-0.2-0.07c-0.22,0-0.44,0.18-0.63,0.52v2.11c-0.02,0.19,0.01,0.38,0.07,0.56
	c0.07,0.08,0.18,0.13,0.29,0.14v0.16h-1.9v-0.16c0.13,0,0.25-0.06,0.34-0.16c0.06-0.17,0.09-0.36,0.07-0.54V33
	c0.02-0.19-0.01-0.38-0.08-0.55c-0.09-0.09-0.21-0.14-0.33-0.14v-0.16L65.45,32.14z"/>
<path class="st0" d="M69.8,32.14v0.52c0.16-0.2,0.35-0.37,0.57-0.5C70.56,32.06,70.78,32,71,32c0.22-0.01,0.43,0.06,0.61,0.18
	c0.17,0.14,0.3,0.33,0.37,0.54c0.17-0.22,0.38-0.4,0.62-0.55c0.19-0.11,0.4-0.16,0.62-0.17c0.43-0.03,0.83,0.25,0.94,0.67
	c0.07,0.3,0.1,0.61,0.09,0.92v1.61c-0.02,0.19,0.01,0.38,0.08,0.56c0.08,0.09,0.2,0.14,0.32,0.14v0.16h-1.99V35.9
	c0.14,0,0.26-0.07,0.34-0.18c0.07-0.16,0.1-0.34,0.08-0.52v-1.67c0.02-0.22,0.02-0.45,0-0.67c-0.02-0.09-0.07-0.16-0.14-0.22
	c-0.05-0.04-0.12-0.07-0.19-0.07c-0.13,0-0.25,0.05-0.35,0.14c-0.14,0.11-0.27,0.24-0.36,0.39v2.12c-0.02,0.18,0.01,0.36,0.07,0.53
	c0.08,0.11,0.21,0.18,0.35,0.17v0.16h-2v-0.16c0.09,0,0.18-0.02,0.25-0.08c0.06-0.05,0.1-0.11,0.12-0.18c0.02-0.15,0.02-0.29,0-0.44
	v-1.69c0.02-0.22,0.02-0.45,0-0.67c-0.02-0.09-0.07-0.16-0.14-0.22c-0.06-0.04-0.13-0.07-0.2-0.07c-0.1,0-0.21,0.03-0.29,0.09
	c-0.16,0.12-0.3,0.27-0.4,0.44v2.12c-0.02,0.19,0.01,0.38,0.08,0.55c0.08,0.09,0.2,0.15,0.32,0.15v0.16h-1.93v-0.16
	c0.13,0,0.25-0.06,0.33-0.16c0.07-0.17,0.09-0.36,0.07-0.54V33c0.02-0.19-0.01-0.38-0.08-0.55c-0.08-0.09-0.2-0.14-0.32-0.14v-0.16
	L69.8,32.14z"/>
<path class="st0" d="M77,33.69c0.01-0.31-0.01-0.62-0.07-0.93c-0.04-0.15-0.11-0.28-0.22-0.39c-0.06-0.05-0.14-0.08-0.22-0.07
	c-0.15,0-0.28,0.08-0.35,0.21c-0.17,0.31-0.25,0.65-0.23,1v0.15L77,33.69z M78,34h-2.12c0,0.44,0.14,0.87,0.4,1.23
	c0.15,0.22,0.4,0.35,0.67,0.35c0.16,0,0.31-0.05,0.44-0.13c0.17-0.15,0.31-0.32,0.42-0.52L78,35c-0.15,0.36-0.38,0.67-0.68,0.92
	c-0.68,0.48-1.63,0.31-2.1-0.37c-0.01-0.01-0.01-0.02-0.02-0.03c-0.24-0.4-0.36-0.87-0.35-1.34c-0.03-0.57,0.15-1.13,0.51-1.58
	c0.28-0.35,0.69-0.57,1.14-0.6c0.39,0,0.76,0.18,1,0.49C77.84,32.92,78.02,33.45,78,34"/>
<path class="st0" d="M79.63,32.14v0.51c0.15-0.19,0.34-0.35,0.56-0.47c0.17-0.11,0.36-0.16,0.56-0.16c0.22-0.01,0.43,0.07,0.6,0.21
	c0.17,0.14,0.28,0.33,0.33,0.54c0.05,0.3,0.07,0.61,0.06,0.92v1.53c-0.02,0.19,0.01,0.38,0.08,0.56c0.05,0.08,0.16,0.12,0.33,0.14
	v0.16h-1.9v-0.16c0.13-0.01,0.24-0.07,0.31-0.18c0.03-0.17,0.03-0.35,0-0.52v-1.76c0.02-0.2,0.02-0.4,0-0.6
	c-0.02-0.08-0.06-0.15-0.12-0.2c-0.05-0.05-0.12-0.07-0.19-0.07c-0.23,0-0.44,0.18-0.64,0.52v2.11c-0.02,0.19,0.01,0.38,0.07,0.56
	c0.08,0.08,0.19,0.13,0.3,0.14v0.16H78.1v-0.16c0.13-0.01,0.25-0.06,0.33-0.16c0.07-0.17,0.09-0.36,0.07-0.54V33
	c0.02-0.19,0-0.38-0.08-0.55c-0.08-0.09-0.2-0.14-0.32-0.14v-0.16L79.63,32.14z"/>
<path class="st0" d="M83.74,30.7v1.44h0.9v0.42h-0.9V35c-0.02,0.14-0.02,0.29,0,0.43c0.02,0.07,0.06,0.13,0.11,0.17
	c0.04,0.03,0.09,0.05,0.14,0.06c0.18,0,0.35-0.14,0.5-0.42l0.12,0.09c-0.13,0.48-0.56,0.81-1.06,0.81c-0.43,0.01-0.8-0.27-0.92-0.68
	c-0.03-0.26-0.03-0.51,0-0.77v-2.13h-0.49v-0.15c0.31-0.23,0.6-0.5,0.86-0.79c0.24-0.28,0.45-0.59,0.62-0.92L83.74,30.7z"/>
<path class="st0" d="M1.75,48.19c0,0.07,0.14,0.1,0.29,0.1c0.38,0.01,0.75-0.16,1-0.45c0.32-0.51,0.45-1.12,0.39-1.72
	c0.01-0.44-0.06-0.88-0.21-1.3c-0.16-0.5-0.63-0.83-1.15-0.82c-0.18,0-0.29,0-0.35,0.11c-0.04,0.09-0.06,0.2-0.05,0.3v3.52
	c0,0.11,0.02,0.22,0.08,0.31 M0,48.35c0.13,0,0.25-0.03,0.37-0.08c0.14-0.08,0.21-0.23,0.2-0.39v-3.52c0-0.15-0.07-0.28-0.19-0.36
	C0.26,43.94,0.13,43.9,0,43.89v-0.18h2.08c0.71-0.05,1.42,0.2,1.93,0.7c0.42,0.47,0.63,1.09,0.6,1.72c0.02,0.6-0.2,1.19-0.61,1.64
	c-0.48,0.52-1.16,0.79-1.86,0.76H0V48.35z"/>
<path class="st0" d="M6.86,46.52c0.01-0.3-0.03-0.6-0.1-0.89c-0.05-0.15-0.19-0.26-0.35-0.25c-0.17,0-0.33,0.12-0.36,0.29
	c-0.08,0.28-0.12,0.56-0.12,0.85H6.86z M5.4,45.61c0.25-0.29,0.62-0.45,1-0.45c0.22,0,0.44,0.06,0.63,0.18
	c0.2,0.13,0.36,0.31,0.46,0.52c0.09,0.2,0.15,0.42,0.17,0.64c0,0.12,0,0.22,0,0.28H6c0.01,0.25,0.06,0.5,0.14,0.74
	c0.06,0.34,0.36,0.59,0.7,0.59c0.14,0,0.28-0.04,0.4-0.11c0.12-0.1,0.22-0.2,0.32-0.32l0.16,0.1C7.55,48.08,7.3,48.33,7,48.5
	c-0.19,0.09-0.41,0.14-0.62,0.13c-0.38,0.01-0.74-0.14-1-0.41c-0.3-0.37-0.44-0.85-0.38-1.33c-0.03-0.46,0.12-0.92,0.42-1.28"/>
<path class="st0" d="M10.36,47.72c0.06-0.27,0.08-0.54,0.07-0.81c0.01-0.34-0.03-0.67-0.11-1c-0.03-0.21-0.22-0.36-0.43-0.36
	c-0.16,0-0.3,0.07-0.39,0.2c-0.09,0.08-0.15,0.18-0.18,0.29v1.76c0.02,0.11,0.08,0.21,0.17,0.27c0.09,0.11,0.23,0.17,0.37,0.17
	C10.1,48.24,10.27,48.06,10.36,47.72 M8,49.83c0.11,0,0.22-0.04,0.3-0.11c0.07-0.09,0.1-0.2,0.08-0.31v-3.58
	c0.01-0.11-0.01-0.22-0.07-0.31c-0.09-0.07-0.2-0.11-0.31-0.11v-0.17h1.31v0.47c0.07-0.13,0.16-0.26,0.27-0.36
	c0.17-0.14,0.39-0.21,0.61-0.2c0.35-0.01,0.68,0.15,0.89,0.42c0.26,0.37,0.39,0.81,0.36,1.26c0.02,0.46-0.12,0.91-0.38,1.29
	c-0.21,0.31-0.56,0.5-0.93,0.51c-0.19,0-0.38-0.06-0.53-0.17c-0.11-0.07-0.2-0.16-0.28-0.26v0.6c0,0.32,0,0.5,0,0.54
	c-0.01,0.14,0.04,0.28,0.14,0.39c0.11,0.08,0.24,0.13,0.38,0.12V50H8V49.83z"/>
<path class="st0" d="M13.46,48c0.07-0.06,0.14-0.12,0.19-0.2v-1c-0.17,0.04-0.34,0.12-0.48,0.22c-0.21,0.15-0.34,0.39-0.34,0.65
	c-0.01,0.12,0.03,0.25,0.1,0.35c0.05,0.07,0.13,0.12,0.22,0.12c0.11,0,0.22-0.03,0.31-0.1 M12.28,47.12
	c0.43-0.25,0.9-0.44,1.38-0.57V46c0.02-0.17-0.03-0.33-0.13-0.47c-0.21-0.17-0.5-0.2-0.75-0.08c-0.07,0.03-0.12,0.1-0.12,0.18
	c-0.01,0.02-0.01,0.05,0,0.07v0.06l0,0c0.04,0.04,0.06,0.08,0.08,0.13c0.01,0.05,0.01,0.1,0,0.15c0.01,0.12-0.04,0.23-0.13,0.31
	c-0.08,0.08-0.19,0.12-0.3,0.11c-0.12,0-0.24-0.04-0.33-0.12c-0.1-0.09-0.15-0.22-0.14-0.35c0-0.27,0.14-0.52,0.37-0.65
	c0.27-0.17,0.58-0.25,0.9-0.24c0.35-0.01,0.69,0.07,1,0.23c0.27,0.21,0.41,0.53,0.38,0.87V48c-0.02,0.04-0.02,0.09,0,0.13
	c0,0,0,0.06,0.09,0.06h0.07l0.1-0.08l0.1,0.15c-0.11,0.15-0.27,0.27-0.44,0.34c-0.11,0.04-0.22,0.06-0.33,0.06
	c-0.17,0.01-0.33-0.05-0.44-0.18c-0.06-0.1-0.1-0.2-0.12-0.31c-0.18,0.19-0.39,0.33-0.63,0.42c-0.14,0.05-0.28,0.07-0.43,0.07
	c-0.19,0-0.37-0.06-0.52-0.18c-0.18-0.14-0.27-0.36-0.25-0.59c0-0.32,0.17-0.61,0.45-0.76"/>
<path class="st0" d="M15.19,48.36c0.1,0,0.2-0.04,0.28-0.1c0.06-0.08,0.09-0.18,0.08-0.28v-2.15c0.01-0.11-0.02-0.22-0.08-0.31
	c-0.08-0.07-0.18-0.1-0.29-0.11v-0.17h1.3v0.56c0.12-0.17,0.27-0.33,0.43-0.47c0.14-0.11,0.31-0.17,0.49-0.17
	c0.14,0,0.27,0.05,0.38,0.14c0.12,0.1,0.18,0.25,0.17,0.41c0.01,0.13-0.04,0.25-0.12,0.35c-0.08,0.09-0.19,0.14-0.31,0.14
	c-0.15-0.01-0.29-0.09-0.37-0.22c-0.11-0.14-0.18-0.21-0.23-0.21c-0.11,0.01-0.21,0.08-0.27,0.17c-0.1,0.15-0.15,0.33-0.14,0.51
	v1.35c0,0.24,0,0.38,0.1,0.44c0.11,0.08,0.25,0.12,0.39,0.12v0.17h-1.81V48.36z"/>
<path class="st0" d="M18.21,45.56v-0.2l0.23-0.21l0.33-0.35c0.2-0.24,0.39-0.49,0.56-0.76h0.17v1.2h0.65v0.32H19.5v2.15
	c-0.02,0.08-0.02,0.17,0,0.25c0.03,0.09,0.12,0.15,0.22,0.15c0.11,0.02,0.21-0.02,0.28-0.11c0.07-0.08,0.14-0.17,0.18-0.27
	l0.16,0.08c-0.06,0.18-0.16,0.34-0.29,0.48c-0.17,0.21-0.44,0.33-0.71,0.33c-0.15,0-0.29-0.03-0.42-0.1
	c-0.23-0.13-0.37-0.39-0.35-0.66v-2.3H18.21z"/>
<path class="st0" d="M20.48,48.36c0.09-0.01,0.18-0.03,0.26-0.08c0.08-0.1,0.12-0.22,0.11-0.35v-2.1c0.01-0.11-0.01-0.22-0.08-0.31
	c-0.08-0.06-0.18-0.1-0.29-0.11v-0.17h1.29v0.52c0.1-0.13,0.21-0.26,0.33-0.37c0.19-0.15,0.42-0.23,0.66-0.23
	c0.23-0.01,0.46,0.06,0.64,0.2c0.11,0.11,0.19,0.24,0.24,0.38h0.05c0.11-0.14,0.23-0.27,0.37-0.38c0.18-0.13,0.39-0.2,0.61-0.2
	c0.23,0,0.46,0.09,0.64,0.24c0.19,0.21,0.28,0.48,0.26,0.76V48c-0.05,0.17,0.06,0.35,0.23,0.39c0.04,0.01,0.08,0.01,0.12,0.01v0.17
	h-1.61V48.4c0.09-0.01,0.18-0.04,0.26-0.09c0.06-0.09,0.08-0.2,0.07-0.31v-1.78c0.01-0.15-0.02-0.29-0.08-0.43
	c-0.06-0.11-0.18-0.17-0.3-0.15c-0.14,0.01-0.27,0.07-0.37,0.17c-0.13,0.11-0.19,0.19-0.19,0.24V48c-0.01,0.1,0.01,0.21,0.06,0.3
	c0.07,0.05,0.16,0.09,0.25,0.1v0.17h-1.59V48.4c0.09-0.01,0.18-0.04,0.25-0.09c0.06-0.09,0.09-0.2,0.08-0.31v-1.78
	c0-0.14-0.02-0.29-0.07-0.42c-0.06-0.11-0.18-0.18-0.31-0.16c-0.15,0-0.29,0.07-0.39,0.18c-0.12,0.12-0.18,0.19-0.18,0.23V48
	c-0.01,0.1,0.01,0.21,0.06,0.3c0.07,0.05,0.16,0.09,0.25,0.1v0.17h-1.63V48.36z"/>
<path class="st0" d="M28.08,46.52c0.01-0.3-0.03-0.6-0.1-0.89c-0.05-0.15-0.19-0.26-0.35-0.25c-0.17,0-0.33,0.12-0.36,0.29
	c-0.08,0.28-0.12,0.56-0.11,0.85H28.08z M26.62,45.61c0.25-0.28,0.62-0.45,1-0.45c0.23,0,0.45,0.06,0.64,0.18
	c0.2,0.13,0.36,0.31,0.46,0.52c0.11,0.3,0.17,0.61,0.19,0.92h-1.74c0.01,0.25,0.06,0.5,0.14,0.74c0.06,0.34,0.35,0.59,0.7,0.59
	c0.17,0,0.33-0.05,0.46-0.15c0.11-0.1,0.22-0.21,0.32-0.32l0.16,0.1c-0.17,0.32-0.43,0.58-0.74,0.76c-0.19,0.09-0.41,0.14-0.62,0.13
	c-0.36,0-0.69-0.15-0.94-0.41c-0.33-0.36-0.49-0.84-0.44-1.33C26.18,46.43,26.33,45.97,26.62,45.61"/>
<path class="st0" d="M29.2,48.36c0.1-0.01,0.19-0.04,0.27-0.1c0.07-0.09,0.1-0.21,0.09-0.33v-2.1c0.01-0.11-0.01-0.21-0.07-0.3
	c-0.08-0.07-0.18-0.12-0.29-0.12v-0.17h1.29v0.52c0.11-0.17,0.25-0.32,0.42-0.43c0.17-0.11,0.36-0.17,0.56-0.17
	c0.25-0.01,0.49,0.07,0.67,0.24c0.19,0.23,0.27,0.53,0.24,0.83V48c-0.01,0.11,0.02,0.22,0.08,0.31c0.08,0.05,0.17,0.08,0.26,0.09
	v0.17h-1.6V48.4c0.09-0.01,0.18-0.04,0.26-0.1c0.05-0.09,0.07-0.2,0.06-0.3v-1.78c0.01-0.12-0.01-0.24-0.05-0.36
	c-0.03-0.14-0.17-0.23-0.31-0.22c-0.12,0-0.24,0.05-0.33,0.14c-0.09,0.07-0.17,0.16-0.22,0.27V48c-0.01,0.1,0.01,0.21,0.06,0.3
	c0.07,0.05,0.16,0.09,0.25,0.1v0.17H29.2V48.36z"/>
<path class="st0" d="M33,45.56v-0.2l0.22-0.21c0.12-0.11,0.23-0.23,0.34-0.35c0.2-0.24,0.39-0.49,0.56-0.76h0.17v1.2h0.65v0.32
	h-0.65v2.15c-0.02,0.08-0.02,0.17,0,0.25c0.03,0.09,0.12,0.16,0.22,0.15c0.08,0,0.17-0.03,0.22-0.1c0.07-0.08,0.14-0.17,0.18-0.27
	l0.17,0.08c-0.07,0.18-0.17,0.34-0.29,0.48c-0.18,0.21-0.44,0.33-0.72,0.33c-0.15,0-0.29-0.03-0.42-0.1
	c-0.23-0.13-0.37-0.39-0.35-0.66v-2.31H33z"/>
<path class="st0" d="M38.09,48c0.07,0.31,0.23,0.46,0.46,0.46c0.21,0,0.4-0.15,0.43-0.36c0.08-0.38,0.12-0.76,0.1-1.15
	c0.02-0.39-0.02-0.78-0.1-1.16c-0.03-0.21-0.22-0.36-0.43-0.36c-0.23,0-0.38,0.16-0.46,0.47c-0.06,0.33-0.09,0.66-0.08,1
	C37.99,47.27,38.02,47.64,38.09,48 M37.45,45.7c0.27-0.32,0.68-0.51,1.1-0.5c0.43-0.01,0.84,0.18,1.11,0.51
	c0.29,0.35,0.44,0.79,0.43,1.24c0.01,0.45-0.14,0.89-0.43,1.23c-0.27,0.33-0.68,0.52-1.11,0.51c-0.42,0.01-0.83-0.17-1.1-0.5
	C36.87,47.46,36.87,46.43,37.45,45.7"/>
<path class="st0" d="M40.37,48.36c0.11,0,0.21-0.03,0.3-0.1c0.07-0.09,0.11-0.21,0.09-0.33v-2.32h-0.39v-0.32h0.39V45
	c-0.01-0.28,0.04-0.56,0.15-0.82c0.19-0.4,0.61-0.64,1.05-0.6c0.24-0.01,0.48,0.06,0.69,0.19c0.18,0.11,0.28,0.3,0.28,0.51
	c0,0.12-0.04,0.23-0.12,0.32c-0.08,0.08-0.2,0.13-0.32,0.12c-0.1,0-0.21-0.04-0.28-0.11c-0.07-0.07-0.11-0.16-0.11-0.26
	c0-0.09,0.03-0.18,0.07-0.26c0.03-0.05,0.06-0.1,0.08-0.15c0.01-0.05-0.02-0.1-0.06-0.12h-0.13c-0.1-0.01-0.19,0.03-0.26,0.1
	c-0.08,0.13-0.11,0.29-0.09,0.44v0.92h0.59v0.32h-0.59v2.2c0,0.25,0,0.4,0.1,0.45c0.14,0.08,0.29,0.11,0.45,0.11v0.17h-1.89V48.36z"
	/>
<path class="st0" d="M44.38,48.35c0.13,0,0.26-0.03,0.38-0.08c0.14-0.09,0.21-0.26,0.19-0.42v-3.46c0.02-0.16-0.05-0.31-0.17-0.41
	c-0.13-0.05-0.26-0.08-0.4-0.09v-0.18h2.3v0.18c-0.14-0.01-0.28,0.02-0.41,0.08c-0.14,0.09-0.22,0.25-0.2,0.42v1.48h1.63v-1.48
	c0.02-0.16-0.05-0.32-0.18-0.42c-0.13-0.05-0.28-0.08-0.42-0.08v-0.18h2.32v0.18c-0.15,0-0.29,0.04-0.42,0.11
	c-0.14,0.09-0.21,0.25-0.19,0.41v3.46c-0.02,0.17,0.06,0.34,0.21,0.42c0.12,0.06,0.26,0.08,0.39,0.08v0.18H47.1v-0.18
	c0.14,0,0.28-0.02,0.41-0.08c0.14-0.09,0.21-0.26,0.19-0.42V46.2h-1.63v1.65c-0.02,0.17,0.06,0.34,0.21,0.43
	c0.13,0.05,0.26,0.07,0.4,0.07v0.18h-2.3V48.35z"/>
<path class="st0" d="M51,45.24v2.43c-0.02,0.11-0.02,0.22,0,0.33c0.08,0.12,0.21,0.18,0.35,0.17c0.12,0,0.23-0.04,0.32-0.11
	l0.23-0.19v-2c0.01-0.11-0.02-0.23-0.09-0.32c-0.1-0.07-0.22-0.11-0.34-0.1v-0.17h1.36v2.58c-0.01,0.11,0.02,0.21,0.08,0.3
	c0.09,0.07,0.2,0.11,0.31,0.11v0.16l-0.8,0.09l-0.52,0.15V48.2c-0.13,0.12-0.26,0.22-0.41,0.31c-0.18,0.1-0.38,0.16-0.58,0.16
	c-0.23,0-0.44-0.08-0.62-0.22c-0.21-0.2-0.32-0.49-0.28-0.78v-1.8c0.01-0.1-0.02-0.21-0.07-0.3c-0.08-0.07-0.17-0.11-0.27-0.12
	v-0.17L51,45.24z"/>
<path class="st0" d="M53.47,48.36c0.09,0,0.17-0.03,0.25-0.08c0.09-0.09,0.13-0.22,0.12-0.35v-2.1c0.01-0.11-0.02-0.22-0.08-0.31
	c-0.08-0.06-0.18-0.1-0.29-0.11v-0.17h1.29v0.52c0.09-0.14,0.21-0.26,0.33-0.37c0.19-0.15,0.42-0.23,0.66-0.23
	c0.23-0.01,0.45,0.06,0.63,0.2c0.11,0.11,0.19,0.24,0.24,0.38h0.05c0.11-0.14,0.23-0.27,0.37-0.38c0.18-0.13,0.39-0.2,0.61-0.2
	c0.49-0.02,0.9,0.36,0.92,0.84c0,0.05,0,0.11-0.01,0.16V48c-0.05,0.17,0.06,0.35,0.23,0.39c0.04,0.01,0.08,0.01,0.12,0.01v0.17
	h-1.62V48.4c0.09-0.01,0.18-0.04,0.26-0.09c0.06-0.09,0.09-0.2,0.07-0.31v-1.78c0.01-0.15-0.02-0.29-0.08-0.43
	c-0.06-0.11-0.18-0.17-0.3-0.15c-0.14,0.01-0.27,0.07-0.37,0.17c-0.13,0.11-0.19,0.19-0.19,0.24V48c-0.01,0.1,0.01,0.21,0.06,0.3
	c0.07,0.05,0.16,0.09,0.25,0.1v0.17H55.4V48.4c0.09,0,0.18-0.04,0.26-0.09c0.06-0.09,0.09-0.2,0.07-0.31v-1.78
	c0.01-0.14-0.02-0.29-0.07-0.42c-0.05-0.11-0.18-0.18-0.3-0.16c-0.15,0-0.29,0.07-0.39,0.18c-0.12,0.12-0.18,0.19-0.18,0.23V48
	c-0.01,0.1,0.01,0.21,0.06,0.3c0.07,0.06,0.16,0.09,0.25,0.1v0.17h-1.63V48.36z"/>
<path class="st0" d="M60.85,48c0.07-0.06,0.13-0.13,0.19-0.2v-1c-0.17,0.04-0.34,0.12-0.48,0.22c-0.22,0.14-0.35,0.39-0.35,0.65
	c-0.01,0.12,0.03,0.25,0.1,0.35c0.05,0.07,0.14,0.12,0.23,0.12c0.11,0,0.22-0.03,0.31-0.1 M59.66,47.12
	c0.44-0.25,0.9-0.44,1.39-0.57V46c0.02-0.17-0.03-0.33-0.13-0.47c-0.12-0.11-0.29-0.17-0.46-0.15c-0.1-0.01-0.21,0.02-0.3,0.07
	c-0.07,0.03-0.12,0.1-0.12,0.18c-0.01,0.02-0.01,0.05,0,0.07c0,0.02,0,0.04,0,0.06l0,0c0.03,0.04,0.05,0.08,0.07,0.13
	c0.01,0.05,0.01,0.1,0,0.15c0.01,0.12-0.04,0.23-0.13,0.31c-0.08,0.08-0.18,0.12-0.29,0.11c-0.12,0-0.25-0.04-0.34-0.12
	c-0.1-0.09-0.15-0.22-0.14-0.35c0-0.27,0.14-0.52,0.37-0.65c0.27-0.17,0.59-0.25,0.91-0.24c0.35-0.02,0.69,0.06,1,0.23
	c0.28,0.2,0.43,0.53,0.39,0.87V48c-0.02,0.05-0.02,0.09,0,0.14c0.03,0.01,0.05,0.01,0.08,0c0.02,0.01,0.05,0.01,0.07,0l0.1-0.08
	l0.1,0.15c-0.11,0.15-0.26,0.27-0.44,0.34c-0.1,0.04-0.21,0.06-0.32,0.06c-0.17,0.01-0.34-0.05-0.45-0.18
	c-0.06-0.09-0.1-0.2-0.11-0.31c-0.17,0.19-0.39,0.34-0.64,0.42c-0.14,0.05-0.28,0.07-0.43,0.07c-0.19,0-0.37-0.06-0.52-0.18
	c-0.17-0.15-0.27-0.36-0.25-0.59c0-0.32,0.17-0.61,0.45-0.76"/>
<path class="st0" d="M62.56,48.36c0.1-0.01,0.2-0.04,0.28-0.1c0.07-0.1,0.1-0.21,0.09-0.33v-2.1c0.01-0.11-0.02-0.21-0.08-0.3
	c-0.08-0.08-0.18-0.12-0.29-0.12v-0.17h1.3v0.52c0.1-0.18,0.24-0.32,0.41-0.43c0.17-0.11,0.36-0.17,0.56-0.17
	c0.25-0.02,0.5,0.07,0.68,0.24c0.19,0.23,0.27,0.53,0.24,0.83V48c-0.01,0.11,0.02,0.22,0.08,0.31c0.08,0.05,0.17,0.08,0.26,0.09
	v0.17h-1.6V48.4c0.09-0.01,0.18-0.05,0.25-0.1c0.05-0.09,0.08-0.2,0.07-0.3v-1.78c0.02-0.12,0.02-0.24,0-0.36
	c-0.04-0.14-0.17-0.23-0.32-0.22c-0.12,0-0.24,0.05-0.32,0.14c-0.1,0.07-0.17,0.16-0.23,0.27V48c-0.01,0.11,0.01,0.21,0.07,0.3
	c0.07,0.06,0.16,0.09,0.25,0.1v0.17h-1.7V48.36z"/>
<path class="st0" d="M68.2,46.86h0.19c0.06,0.42,0.25,0.82,0.53,1.14c0.22,0.23,0.52,0.36,0.83,0.36c0.24,0.03,0.49-0.07,0.65-0.25
	c0.12-0.15,0.18-0.33,0.19-0.52c0.01-0.2-0.07-0.39-0.2-0.53c-0.17-0.13-0.35-0.25-0.54-0.34l-0.43-0.23
	c-0.35-0.17-0.66-0.4-0.92-0.68c-0.18-0.24-0.27-0.53-0.26-0.83c-0.01-0.36,0.12-0.72,0.35-1c0.26-0.32,0.67-0.49,1.08-0.46
	c0.24,0,0.49,0.04,0.72,0.12l0.39,0.12c0.06,0.01,0.12-0.02,0.16-0.07c0.03-0.06,0.05-0.12,0.06-0.18h0.21v1.56H71
	c-0.08-0.34-0.24-0.66-0.47-0.93c-0.2-0.25-0.5-0.4-0.82-0.4c-0.2-0.01-0.4,0.06-0.54,0.2c-0.13,0.13-0.2,0.3-0.2,0.48
	c-0.02,0.19,0.05,0.38,0.19,0.51c0.25,0.2,0.52,0.36,0.81,0.5l0.51,0.27c0.2,0.1,0.38,0.23,0.53,0.39c0.25,0.27,0.39,0.63,0.38,1
	c-0.01,0.37-0.15,0.73-0.4,1c-0.34,0.35-0.81,0.52-1.29,0.48c-0.14,0.02-0.27,0.02-0.41,0c-0.14-0.02-0.29-0.06-0.42-0.12h-0.13
	h-0.09H68.6c-0.06,0-0.11,0.02-0.14,0.07c-0.03,0.06-0.06,0.12-0.07,0.18H68.2V46.86z"/>
<path class="st0" d="M73.77,46.52c0.01-0.3-0.02-0.6-0.09-0.89c-0.05-0.15-0.19-0.26-0.35-0.25c-0.18,0-0.33,0.12-0.37,0.29
	c-0.07,0.28-0.11,0.56-0.11,0.85H73.77z M72.32,45.61c0.25-0.29,0.62-0.45,1-0.45c0.22,0,0.44,0.06,0.63,0.18
	c0.2,0.13,0.36,0.31,0.46,0.52c0.09,0.2,0.14,0.42,0.16,0.64c0.01,0.09,0.01,0.19,0,0.28h-1.7c0.01,0.25,0.05,0.5,0.13,0.74
	c0.07,0.34,0.36,0.59,0.71,0.59c0.16,0,0.32-0.05,0.45-0.15c0.12-0.09,0.23-0.2,0.32-0.32l0.16,0.1c-0.17,0.32-0.42,0.58-0.73,0.76
	c-0.19,0.09-0.41,0.14-0.62,0.13c-0.38,0.01-0.74-0.14-1-0.41c-0.32-0.36-0.48-0.85-0.44-1.33c-0.03-0.46,0.12-0.92,0.42-1.28"/>
<path class="st0" d="M74.9,48.36c0.1-0.01,0.2-0.04,0.28-0.1c0.06-0.08,0.09-0.18,0.08-0.28v-2.15c0.01-0.11-0.02-0.22-0.08-0.31
	c-0.08-0.06-0.18-0.1-0.29-0.11v-0.17h1.3v0.56c0.12-0.17,0.27-0.33,0.43-0.47c0.14-0.11,0.31-0.17,0.49-0.17
	c0.14,0,0.27,0.05,0.38,0.14c0.12,0.1,0.18,0.25,0.17,0.41c0.01,0.13-0.04,0.25-0.12,0.35c-0.08,0.09-0.19,0.14-0.31,0.14
	c-0.15-0.01-0.29-0.09-0.37-0.22c-0.11-0.14-0.19-0.21-0.23-0.21c-0.11,0.01-0.21,0.08-0.27,0.18c-0.11,0.14-0.16,0.32-0.14,0.5
	v1.35c0,0.24,0,0.39,0.1,0.44c0.11,0.08,0.25,0.12,0.39,0.12v0.17H74.9V48.36z"/>
<path class="st0" d="M79.63,45.24v0.17c-0.1,0-0.19,0.02-0.28,0.05c-0.06,0.02-0.1,0.09-0.09,0.15c0,0.03,0,0.07,0,0.1
	c0,0.04,0,0.07,0,0.11l0.53,1.37l0,0L80.36,46c0-0.06,0-0.12,0-0.18c0-0.05,0-0.09,0-0.14c0-0.1,0-0.17-0.09-0.19
	c-0.09-0.03-0.18-0.05-0.28-0.05v-0.17h1v0.17c-0.08,0.01-0.16,0.04-0.22,0.1c-0.08,0.08-0.13,0.18-0.17,0.29l-1.1,2.83h-0.17
	l-0.82-2.12c-0.06-0.14-0.11-0.28-0.17-0.41s-0.11-0.26-0.17-0.39c-0.04-0.09-0.09-0.16-0.15-0.23c-0.05-0.04-0.12-0.07-0.19-0.07
	v-0.17L79.63,45.24z"/>
<path class="st0" d="M81.78,43.76c0.1-0.1,0.24-0.16,0.38-0.16c0.14,0,0.28,0.06,0.37,0.16c0.21,0.22,0.21,0.56,0,0.78
	c-0.09,0.11-0.23,0.17-0.37,0.17c-0.14,0-0.28-0.06-0.38-0.17C81.58,44.32,81.58,43.98,81.78,43.76 M81.33,48.36
	c0.09-0.01,0.18-0.04,0.25-0.09c0.07-0.1,0.11-0.22,0.1-0.34v-2.1c0.01-0.1-0.02-0.21-0.07-0.3c-0.08-0.06-0.18-0.11-0.28-0.12
	v-0.17h1.31V48c-0.01,0.11,0.01,0.21,0.07,0.3c0.07,0.06,0.16,0.09,0.25,0.1v0.17h-1.63V48.36z"/>
<path class="st0" d="M85.62,45.37c0.2,0.12,0.32,0.34,0.32,0.57c0,0.12-0.04,0.23-0.12,0.32c-0.08,0.09-0.2,0.13-0.32,0.13
	c-0.08,0-0.16-0.02-0.23-0.06c-0.13-0.09-0.2-0.24-0.19-0.4c0,0,0-0.06,0-0.09V45.7c0.01-0.09-0.02-0.18-0.08-0.25
	c-0.06-0.05-0.13-0.07-0.2-0.07c-0.21,0-0.4,0.15-0.45,0.36c-0.09,0.27-0.14,0.55-0.13,0.84c-0.01,0.39,0.07,0.77,0.25,1.12
	c0.12,0.27,0.39,0.44,0.68,0.45c0.16,0.01,0.33-0.04,0.47-0.12c0.1-0.08,0.2-0.17,0.28-0.27l0.12,0.12
	c-0.19,0.29-0.46,0.53-0.78,0.67c-0.16,0.06-0.33,0.09-0.5,0.09c-0.42,0.01-0.81-0.17-1.08-0.49c-0.27-0.34-0.42-0.76-0.41-1.2
	c-0.02-0.46,0.14-0.92,0.44-1.27c0.29-0.35,0.73-0.55,1.18-0.53c0.26,0,0.52,0.07,0.74,0.22"/>
<path class="st0" d="M88.17,46.52c0.01-0.3-0.03-0.6-0.1-0.89c-0.05-0.15-0.19-0.26-0.35-0.25c-0.17,0-0.33,0.12-0.36,0.29
	c-0.08,0.28-0.12,0.56-0.12,0.85H88.17z M86.71,45.61c0.25-0.29,0.62-0.45,1-0.45c0.23,0,0.45,0.06,0.64,0.18
	c0.2,0.13,0.35,0.31,0.45,0.52c0.1,0.2,0.15,0.42,0.17,0.64c0.01,0.09,0.01,0.19,0,0.28h-1.71c0.01,0.25,0.06,0.5,0.14,0.74
	c0.06,0.34,0.35,0.59,0.7,0.59c0.17,0,0.33-0.05,0.46-0.15c0.11-0.1,0.22-0.21,0.32-0.32l0.15,0.1c-0.16,0.32-0.42,0.58-0.73,0.76
	c-0.19,0.09-0.41,0.14-0.62,0.13c-0.38,0.01-0.74-0.14-1-0.41c-0.32-0.37-0.47-0.85-0.43-1.33c-0.03-0.46,0.12-0.92,0.41-1.28"/>
<path class="st0" d="M89.35,47.45h0.19c0.04,0.28,0.17,0.54,0.37,0.73c0.16,0.13,0.36,0.2,0.56,0.2c0.14,0.01,0.28-0.03,0.39-0.12
	c0.08-0.09,0.12-0.2,0.12-0.32c0-0.12-0.04-0.24-0.13-0.33c-0.07-0.06-0.15-0.12-0.24-0.16l-0.5-0.26c-0.23-0.1-0.42-0.25-0.58-0.44
	c-0.12-0.17-0.18-0.37-0.17-0.57c-0.01-0.27,0.09-0.53,0.27-0.72c0.2-0.21,0.49-0.32,0.78-0.3c0.16,0,0.31,0.03,0.46,0.08l0.3,0.07
	c0.04,0.02,0.08,0.02,0.12,0c0.02-0.03,0.04-0.06,0.06-0.1h0.15v1h-0.18c-0.05-0.22-0.16-0.42-0.31-0.58
	c-0.13-0.14-0.32-0.22-0.52-0.22c-0.13-0.01-0.25,0.04-0.34,0.13c-0.07,0.08-0.11,0.18-0.11,0.29c0,0.09,0.04,0.18,0.1,0.25
	c0.1,0.11,0.23,0.2,0.37,0.26l0.37,0.19c0.19,0.09,0.36,0.2,0.51,0.34c0.18,0.19,0.27,0.43,0.27,0.69
	c-0.01,0.27-0.11,0.53-0.28,0.74c-0.21,0.24-0.51,0.36-0.82,0.34c-0.09,0.01-0.19,0.01-0.28,0c-0.12-0.02-0.23-0.06-0.34-0.1h-0.12
	h-0.08l0,0c-0.03-0.02-0.07-0.02-0.1,0c-0.04,0.05-0.07,0.1-0.1,0.15h-0.16L89.35,47.45z"/>
<path class="st0" d="M40,21.89c-0.02,0.04-0.05,0.08-0.09,0.1"/>
<path class="st0" d="M40.84,15.07c0.1-0.01,0.17-0.08,0.17-0.18c0.02-0.1-0.04-0.19-0.13-0.22c-0.1-0.02-0.19,0.04-0.22,0.13
	c-0.01,0.03-0.01,0.06,0,0.08C40.66,14.99,40.74,15.07,40.84,15.07L40.84,15.07"/>
<path class="st0" d="M48.74,11.07h-1.91V7.54h1.91V11.07z M48.74,12.74c0.01,0.34-0.14,0.66-0.4,0.87l-1.51,1v-3.36h1.91V12.74z
	 M46.66,11.07h-1.77V7.54h1.77L46.66,11.07z M46.66,14.66l-0.7,0.44l0,0c-0.05,0.04-0.11,0.06-0.18,0.06
	c-0.07,0-0.13-0.02-0.19-0.06l-0.69-0.44v-3.41h1.77L46.66,14.66z M44.73,11.07h-0.55V9.78h0.55V11.07z M44.73,14.56l-1.51-1
	c-0.26-0.22-0.41-0.53-0.41-0.87v-1.44h1.92V14.56z M42.81,7.56h0.66V8.9h-0.66V7.56z M43.64,8.07L43.72,8l-0.06-0.1h0.11l0.06-0.11
	l0.05,0.11H44L43.95,8l0.08,0.08h-0.1V8.2l-0.09-0.08L43.75,8.2V8.07H43.64z M44.1,9.49c0,0-0.05,0-0.06,0s-0.09,0.1-0.13,0.11
	s-0.07,0-0.07,0s0.08-0.06,0.1-0.09c-0.4,0-0.4,0.19-0.47,0.19s0.09-0.19,0.15-0.26s-0.13-0.12-0.23-0.17s0.07,0,0.12,0
	s0-0.1,0.13-0.1s0.13,0.18,0.16,0.18s0-0.18,0.12-0.18s0.41,0.49,0.2,0.49s0-0.08,0-0.09 M43.68,10.57h0.11l0.06-0.11l0.05,0.11H44
	l-0.05,0.1l0.08,0.08h-0.1v0.11l-0.09-0.07l-0.09,0.07v-0.11h-0.1l0.08-0.08L43.68,10.57z M42.92,9.2H43l0.07-0.11V9.2h0.11v0.09
	l0.08,0.09h-0.1v0.11l-0.09-0.07l-0.1,0.07V9.4h-0.1L43,9.29L42.92,9.2z M43.47,11.07h-0.66V9.78h0.66V11.07z M44.33,9.38l0.07-0.09
	V9.2h0.1l0.06-0.11l0.06,0.11h0.1v0.09l0.08,0.09h-0.1v0.11l-0.09-0.07l-0.09,0.07V9.4L44.33,9.38z M44.73,8.9h-0.55V7.54h0.55V8.9z
	 M48.92,7.36h-6.28v5.32c-0.03,0.42,0.15,0.83,0.49,1.09l2.42,1.51c0.05,0.07,0.13,0.11,0.22,0.11c0.09,0.02,0.18-0.02,0.23-0.09
	l2.46-1.53c0.35-0.25,0.54-0.66,0.5-1.09L48.92,7.36z"/>
<path class="st0" d="M44.62,12.46c0,0-0.24,0.08-0.18,0.07c0.05-0.1,0.11-0.19,0.2-0.26c0-0.09-0.12,0-0.23,0
	c0.36-0.52,0.14-0.31-0.07-0.27c0.33-0.36,0.24-0.35,0-0.24c0.19-0.15,0.23-0.34,0.2-0.39c-0.17,0.24-0.33,0.21-0.33,0.43
	c0,0.16-0.04,0.33-0.12,0.47c-0.1,0.1,0-0.4-0.28-0.4c-0.07,0-0.26,0-0.31,0.09s0.13,0.14,0.13,0.19s0,0.2,0,0.2
	s-0.18-0.18-0.18-0.27v-0.19c-0.06-0.24-0.24-0.44-0.48-0.51c0,0.14,0.19,0.18,0.19,0.37c-0.08,0-0.19-0.16-0.19-0.06
	s0.12,0.11,0.12,0.19s-0.14,0-0.14,0.06s0.08,0.06,0.1,0.14s-0.11,0-0.12,0s0,0,0.06,0.08s0,0.06,0,0.19c0,0.42,0.26,0.61,0.44,0.61
	s0.11-0.09,0.13-0.14s0.07,0,0.07,0.09s-0.13,0.07-0.13,0.18s0.2,0,0.2,0.17c0,0.09,0,0.18,0,0.27c0,0.05,0.2-0.07,0.19-0.1
	s0.05,0.18,0.14,0.17s0.08-0.15,0.13-0.17s0.18,0.15,0.18,0.08s-0.07-0.11-0.07-0.25s0.26-0.1,0.22-0.16s-0.06,0-0.09-0.11
	s-0.2-0.32,0.05-0.15s0.28-0.41,0.27-0.44"/>
<path class="st0" d="M51.33,13.85c0.1,0,0.19-0.09,0.19-0.19c0-0.1-0.09-0.19-0.19-0.19s-0.19,0.09-0.19,0.19
	C51.14,13.76,51.23,13.85,51.33,13.85"/>
<path class="st0" d="M50.49,14.37c0.11,0,0.2-0.08,0.21-0.19c-0.01-0.11-0.1-0.2-0.21-0.19c0,0,0,0,0,0
	c-0.11-0.01-0.2,0.08-0.21,0.19c0,0,0,0,0,0C50.29,14.29,50.38,14.38,50.49,14.37C50.49,14.37,50.49,14.37,50.49,14.37"/>
<path class="st0" d="M40.55,15.57c0.1,0,0.19-0.09,0.19-0.19c0-0.1-0.09-0.19-0.19-0.19l0,0c-0.1,0-0.19,0.09-0.19,0.19
	C40.36,15.48,40.45,15.57,40.55,15.57"/>
<path class="st0" d="M41.2,15.63c0.11,0.02,0.21-0.04,0.24-0.15c0.02-0.11-0.04-0.21-0.15-0.24c-0.03-0.01-0.06-0.01-0.09,0
	c-0.11-0.02-0.21,0.04-0.24,0.15c-0.02,0.11,0.04,0.21,0.15,0.24C41.14,15.64,41.17,15.64,41.2,15.63"/>
<path class="st0" d="M59.09,6.56C59.4,6.98,59.46,7.53,59.23,8c-0.11,0-0.09-0.17-0.11-0.26c-0.27-0.44-0.35-0.97-0.2-1.46
	C59.06,6.28,59.01,6.49,59.09,6.56"/>
<path class="st0" d="M32.84,7.08c-0.07,0.3-0.07,0.61,0,0.91c-0.05,0.06,0,0-0.1,0c-0.43-0.33-0.23-1-0.33-1.41
	c0.03-0.02,0.07-0.02,0.1,0c0.18,0.14,0.3,0.34,0.33,0.57"/>
<path class="st0" d="M60,7.11c0.06,0.13-0.06,0.26-0.15,0.31c-0.11,0.02-0.21-0.03-0.27-0.12C59.55,7.18,59.6,7.06,59.71,7
	C59.82,6.98,59.93,7.02,60,7.11"/>
<path class="st0" d="M32.17,7.62c0,0.1-0.06,0.2-0.14,0.26c-0.07,0-0.17,0-0.21-0.06c-0.05-0.07-0.05-0.17,0-0.24
	c0.04-0.07,0.12-0.11,0.2-0.11c0.08,0,0.16,0.06,0.19,0.15"/>
<path class="st0" d="M60.45,7.82c0.02,0.06,0.02,0.12,0,0.18c-0.06,0.1-0.18,0.15-0.29,0.11c-0.07-0.05-0.11-0.12-0.12-0.2
	c0.03-0.09,0.1-0.17,0.19-0.21C60.32,7.71,60.4,7.75,60.45,7.82"/>
<path class="st0" d="M59.83,7.83c0.09,0,0,0.16,0,0.23S59.7,8.21,59.6,8.18s-0.12-0.06-0.14-0.14c-0.01-0.11,0.05-0.22,0.15-0.27
	C59.7,7.77,59.75,7.77,59.83,7.83"/>
<path class="st0" d="M59,8c0,0.13,0,0.29-0.13,0.32s-0.22-0.08-0.26-0.17c-0.01-0.12,0.06-0.23,0.17-0.27
	C58.87,7.89,58.95,7.93,59,8"/>
<path class="st0" d="M33.37,8.06c0,0.12-0.08,0.18-0.14,0.25c-0.1,0-0.18-0.05-0.23-0.13c-0.07-0.09,0-0.16,0-0.22
	c0.09-0.07,0.21-0.06,0.28,0.03c0.02,0.02,0.03,0.05,0.04,0.07"/>
<path class="st0" d="M32.71,8.09c0,0.09-0.04,0.18-0.12,0.23c-0.09,0.02-0.18-0.03-0.22-0.11c-0.05-0.09-0.02-0.2,0.07-0.25
	c0.01-0.01,0.02-0.01,0.03-0.01C32.59,7.95,32.66,8.01,32.71,8.09"/>
<path class="st0" d="M56.37,8.14c0.13,0.26,0.2,0.55,0.22,0.84c0,0.21,0,0.5-0.12,0.65c-0.15-0.06-0.16-0.25-0.26-0.36
	c-0.12-0.41-0.12-0.86,0-1.27c0.09,0,0.09,0.09,0.12,0.14"/>
<path class="st0" d="M32.19,8.28c0,0.14-0.06,0.21-0.14,0.29s-0.22-0.07-0.27-0.16c-0.01-0.11,0.04-0.22,0.14-0.28
	C32.03,8.12,32.14,8.18,32.19,8.28"/>
<path class="st0" d="M58.11,8.62c0.12,0.36,0.12,0.74,0,1.1l-0.07,0.06c-0.18-0.29-0.33-0.61-0.44-0.93
	c-0.01-0.23,0.04-0.45,0.13-0.66c0.08-0.06,0.12,0,0.15,0.08c0.01,0.14,0.07,0.26,0.18,0.35"/>
<path class="st0" d="M59.49,8.41c0,0.11-0.05,0.24-0.16,0.27c-0.1,0.04-0.21,0-0.25-0.1c0-0.01-0.01-0.02-0.01-0.03
	c-0.02-0.11,0.03-0.22,0.12-0.28C59.31,8.2,59.44,8.32,59.49,8.41"/>
<path class="st0" d="M32.72,8.76c0,0.1-0.07,0.19-0.16,0.22c-0.09,0.07-0.15,0-0.24-0.07c-0.04-0.09-0.04-0.18,0-0.27
	c0-0.07,0.12-0.07,0.18-0.09S32.7,8.65,32.72,8.76"/>
<path class="st0" d="M33.21,8.71c0,0.11-0.08,0.17-0.13,0.23s-0.19-0.06-0.25-0.14s0-0.18,0.12-0.25S33.15,8.61,33.21,8.71"/>
<path class="st0" d="M59.79,8.68c0,0.15-0.22,0.3-0.25,0.45c-0.12,0.3-0.37,0.53-0.68,0.64c-0.06,0.08-0.15,0.13-0.25,0.15
	c0-0.23,0.18-0.44,0.3-0.65C59.13,8.98,59.44,8.77,59.79,8.68"/>
<path class="st0" d="M32.5,9.16c0.15,0.2,0.31,0.38,0.5,0.54c0.02,0.05-0.01,0.1-0.05,0.11c-0.01,0-0.02,0-0.03,0.01
	c-0.53,0-0.9-0.61-1.16-1c0-0.12,0.18,0,0.25,0c0.19,0.15,0.4,0.2,0.54,0.4"/>
<path class="st0" d="M60,9.32c0,0.51-0.25,0.98-0.68,1.25c-0.12,0-0.25,0.17-0.37,0.09c0.27-0.49,0.6-0.94,1-1.34H60z"/>
<path class="st0" d="M57.85,9.66c0.02,0.14-0.06,0.28-0.19,0.33c-0.12,0-0.2-0.09-0.26-0.18c-0.01-0.11,0.06-0.21,0.16-0.26
	c0.04-0.02,0.09-0.02,0.13,0c0.07,0,0.1,0.07,0.16,0.14"/>
<path class="st0" d="M31.9,9.76c0.2,0.15,0.39,0.36,0.59,0.54c-0.14,0.11-0.32,0-0.49,0c-0.37-0.13-0.61-0.47-1-0.59
	c0-0.13,0.16-0.07,0.23-0.11c0.23,0.01,0.46,0.06,0.67,0.15"/>
<path class="st0" d="M43.64,6.34c-0.61-0.25-1,0.42-1.65,0.34c-0.07,0-0.05,0.12-0.09,0.18s-0.09,0-0.12,0
	c0-0.28-0.12-0.53-0.16-0.8c-0.06-0.12,0-0.27-0.08-0.39c-0.36-1,0.85-0.24,1.09-0.83s-0.4-0.57-0.59-0.92V3.75
	c-0.17-0.18-0.36-0.24-0.47-0.48c0.08-0.29,0.08-0.6,0-0.89c0-0.07-0.06-0.16-0.16-0.13c-0.2,0.31-0.35,0.55-0.55,0.84
	c-0.21-0.18-0.42-0.35-0.65-0.51c-0.16,0-0.32-0.2-0.5-0.13c-0.04,0.05-0.04,0.12,0,0.17c0.02,0.43,0.21,0.84,0.53,1.13v0.18
	c-0.14,0.5-0.21,1.01-0.2,1.53C39.59,6.81,38.81,8.03,37.76,9c-0.73,0.66-1.24,1.52-1.46,2.47c0,0.17,0,0.36-0.1,0.48
	c-0.36-0.14-0.7-0.33-1-0.57c-0.51-0.37-1.23-0.32-1.56-1c-0.08-0.25-0.02-0.53,0.15-0.73c0.33-0.43,0.37-1.01,0.12-1.48
	c0,0,0,0-0.08,0.06c0,0.68-0.55,1.15-0.35,1.91c0,0.21,0.15,0.35,0.2,0.56c-0.08-0.01-0.17-0.03-0.25-0.05
	c-0.24-0.07-0.48-0.11-0.73-0.11c-0.51,0.24-1.19-0.06-1.6,0.43c-0.06,0-0.15,0-0.13,0.13c0.24,0,0.47,0.07,0.7,0
	c0.39,0.07,0.64-0.26,0.91-0.41h0.06c0.11-0.12,0.3,0,0.44-0.07c0.65,0.12,1.27,0.39,1.8,0.78v0.05c-0.24,0.09-0.47,0.19-0.69,0.3
	c-0.28,0.18-0.5,0.45-0.61,0.77c-0.18,0.29,0,0.54,0.16,0.78s0,0.26,0.12,0.3c0.35-0.39,0-0.88,0.08-1.33
	c0.11-0.31,0.38-0.53,0.71-0.59c0.62-0.28,1.07,0.26,1.58,0.55c0.03,0.52,0.02,1.04-0.05,1.56c-0.17,0.06-0.34,0.09-0.52,0.08
	c-0.81,0.18-1.59,0.46-2.33,0.84c-0.34,0.13-0.77,0.12-1.12,0.26c0.28,0.05,0.57,0.05,0.85,0c1.07-0.16,1.9-1,3.06-0.87l0,0
	c-0.13,0.28-0.3,0.53-0.51,0.75c0-0.13,0-0.23-0.16-0.3c-0.09-0.03-0.2,0-0.25,0.09c-0.03,0.06-0.03,0.12,0,0.18
	c0,0.1,0.14,0.12,0.24,0.16s-0.14,0.15-0.21,0.24c-0.3,0.55-0.93,0.32-1.29,0.71c-0.06,0.07-0.26,0.12-0.17,0.25
	c0.4,0.05,0.81-0.06,1.14-0.3c0.4-0.48,0.83-0.92,1.23-1.37c0.06,0.37-0.02,0.75-0.24,1.05c-0.09-0.08-0.18-0.14-0.29-0.18
	c-0.11,0.03-0.18,0.12-0.2,0.23c0.04,0.09,0.09,0.17,0.16,0.23c-0.39,0.22-0.82,0.37-1.27,0.43c-0.79,0.11-1.59,0.18-2.39,0.19
	c-0.39,0.05-0.79,0.05-1.18,0c-0.42,0.08-0.87-0.06-1.21,0.18c0,0.06,0,0.12,0,0.17c0.51,0.35,1.2,0.07,1.77,0.18h4.32
	c0.31,0.01,0.61-0.05,0.89-0.18c0.52-0.38,0.92-0.91,1.14-1.52c0.11-0.22,0.19-0.46,0.23-0.7c0.11-0.37,0.43-0.65,0.82-0.7
	c0.04,0.59-0.02,1.19-0.18,1.76c-0.07,0.37-0.3,0.73-0.16,1.12c0,0.18,0.22,0.18,0.36,0.21c1.35-0.07,2.71-0.07,4.06,0
	c0.25,0.07,0.5,0.11,0.75,0.12c0,0,0.1-0.05,0.07-0.12c-0.03-0.15-0.13-0.27-0.27-0.33c0-0.06-0.11,0-0.15-0.09
	c-0.76-0.27-1.58-0.33-2.37-0.18c-0.41,0.12-0.85,0.07-1.22-0.13c-0.16-0.21,0-0.87,0-0.87c0.17-0.76,0.4-1.5,0.68-2.22
	c0.05-0.17,0.07-0.35,0.07-0.53c0.06-0.26,0.08-0.53,0.06-0.79c0.08-0.37,0.19-0.73,0.34-1.07c0.07-0.18,0.12-0.36,0.19-0.53
	c0.03-0.21,0.11-0.42,0.22-0.6c0.36,0.23,0.71,0.23,0.88,0.65l0.15,1c0,0.05,0,0.17,0.12,0.1c0.29-0.2,0.2-0.64,0.2-0.94
	s-0.18-0.53-0.28-0.85c-0.08-0.1-0.15-0.21-0.2-0.33c0-0.25-0.58-0.43-0.45-0.74c0.02-0.26,0.16-0.5,0.37-0.65
	c0.04-0.02,0.08,0,0.09,0.04c0.01,0.03,0,0.06-0.02,0.08l0.13-0.1v-1c0.37,0,0.9,0,1.25,0c0.11,0,0.18,0.12,0.29,0.13l0.09-0.13
	l0.88-0.18c-0.38,0-0.6-0.41-1-0.41"/>
<path class="st0" d="M44.6,6.75L44.6,6.75z"/>
<path class="st0" d="M35.06,10c0.01,0.12-0.06,0.22-0.17,0.26c-0.08-0.01-0.16-0.06-0.21-0.13c0-0.13,0.07-0.22,0.16-0.27
	S35.04,9.86,35.06,10"/>
<path class="st0" d="M34.34,10c0.05,0.08,0.05,0.18,0,0.26c-0.08,0.07-0.2,0.13-0.26,0s-0.14-0.15-0.08-0.24s0.21-0.15,0.29-0.06"/>
<path class="st0" d="M49.61,10.1L49.61,10.1"/>
<path class="st0" d="M58,10.29c0,0.13-0.05,0.22-0.14,0.27s-0.25-0.06-0.25-0.21c0.02-0.09,0.08-0.15,0.17-0.17
	C57.87,10.16,57.96,10.21,58,10.29"/>
<path class="st0" d="M58.53,10.27c0,0.06,0.11,0.15,0,0.21c-0.04,0.02-0.08,0.05-0.11,0.09c-0.11,0.03-0.23-0.03-0.26-0.14
	c0-0.13,0.07-0.18,0.16-0.24s0.13,0,0.18,0.08"/>
<path class="st0" d="M31.59,10.41c-0.02,0.11-0.13,0.19-0.25,0.16c-0.01,0-0.03-0.01-0.04-0.01c-0.04-0.04-0.07-0.09-0.08-0.15
	c-0.01-0.08,0.04-0.16,0.11-0.2C31.45,10.21,31.56,10.29,31.59,10.41"/>
<path class="st0" d="M35.29,10.61c0,0.09-0.11,0.17-0.19,0.21s-0.18-0.08-0.24-0.16s0-0.21,0.13-0.23
	C35.12,10.4,35.26,10.48,35.29,10.61"/>
<path class="st0" d="M34.64,10.52c0.04,0.06,0.04,0.13,0,0.19c-0.06,0.06-0.16,0.16-0.27,0.09s-0.14-0.1-0.12-0.22
	c0.05-0.05,0.1-0.1,0.16-0.14c0.09,0,0.14,0,0.2,0.08"/>
<path class="st0" d="M60.21,10.66c-0.01,0.09-0.06,0.17-0.14,0.22c-0.08,0.03-0.18,0.01-0.24-0.06c-0.07,0,0-0.11,0-0.17
	c0.05-0.07,0.12-0.13,0.2-0.15c0.09,0.02,0.17,0.08,0.22,0.16"/>
<path class="st0" d="M60.92,10.77c-0.03,0.1-0.11,0.18-0.21,0.2c-0.07,0-0.19,0-0.17-0.13c0-0.08,0.03-0.15,0.1-0.19
	c0.09-0.05,0.21-0.02,0.26,0.07C60.91,10.74,60.92,10.75,60.92,10.77"/>
<path class="st0" d="M32.84,10.93c0.04,0.11-0.02,0.23-0.13,0.28c-0.08,0-0.15,0-0.21-0.07c-0.05-0.07-0.05-0.16,0-0.23
	c0-0.1,0.12-0.07,0.18-0.12c0.09,0.01,0.17,0.06,0.21,0.14"/>
<path class="st0" d="M33.38,11c0,0.1-0.07,0.13-0.09,0.2c-0.06,0.04-0.14,0.04-0.2,0c-0.07-0.07-0.16-0.17-0.09-0.28
	s0.33-0.08,0.38,0.06"/>
<path class="st0" d="M59.57,11c-0.01,0.11-0.07,0.21-0.16,0.27c-0.1,0.02-0.19-0.04-0.22-0.13c-0.01-0.09,0.04-0.18,0.12-0.23
	C59.41,10.89,59.51,10.92,59.57,11"/>
<path class="st0" d="M60.47,11.16c0,0.1,0,0.22-0.12,0.29c-0.09,0.04-0.18,0.04-0.27,0c-0.05-0.07-0.05-0.17,0-0.24
	c0.02-0.11,0.11-0.19,0.22-0.21c0.08,0.05,0.1,0.11,0.17,0.14"/>
<path class="st0" d="M32.42,11.4c0,0.09-0.05,0.12-0.08,0.16c-0.07,0.05-0.15,0.05-0.22,0c-0.08,0,0-0.16,0-0.22s0.3-0.06,0.34,0.08
	"/>
<path class="st0" d="M59.77,11.62c0,0,0,0.08,0,0.1c-0.27,0.18-0.61,0.18-0.88,0c-0.14-0.1-0.29-0.18-0.44-0.26
	c0-0.14,0.25-0.14,0.39-0.17c0.32,0.05,0.57,0.36,0.92,0.37"/>
<path class="st0" d="M33,11.52c0,0.09,0,0.13-0.06,0.19c-0.06,0.04-0.13,0.04-0.19,0c-0.1-0.06-0.13-0.19-0.08-0.29
	c0.07-0.08,0.19-0.09,0.27-0.03c0.03,0.02,0.05,0.06,0.06,0.1"/>
<path class="st0" d="M33.92,11.59c0.03,0.1-0.02,0.2-0.11,0.25c-0.08,0.05-0.15,0-0.21,0s-0.16-0.18-0.06-0.27s0.3-0.08,0.38,0.05"
	/>
<path class="st0" d="M46.59,12.07c0,0.23-0.39,0-0.34,0.27c0.04,0.23,0.11,0.45,0.22,0.65c0.07,0.18,0.09,0.39,0.05,0.58
	c-0.1,0.16-0.25,0.29-0.42,0.38c-0.31,0-0.77,0.16-0.92-0.24c-0.09-0.17-0.14-0.36-0.17-0.55c0,0,0.07,0,0.1-0.06S45,13,45,12.9
	c0.35-0.06-0.15-0.39,0.15-0.41c0.25,0.27,0.66,0.19,0.88,0.48c0,0,0.09,0.11,0.15,0.14c0-0.27-0.16-0.55-0.2-0.84
	c-0.04-0.14,0.01-0.29,0.12-0.38c0.19-0.15,0.35,0.06,0.45,0.18"/>
<path class="st0" d="M34.88,12c0,0.11-0.06,0.18-0.12,0.24s-0.15-0.07-0.2-0.13s0-0.16,0.11-0.22C34.75,11.88,34.84,11.93,34.88,12"
	/>
<path class="st0" d="M41.65,12.11c0.13,0.43,0.08,0.9-0.14,1.3c0,0.09,0,0.24-0.1,0.23c-0.29-0.43-0.07-1,0.05-1.48
	C41.46,12.04,41.62,12,41.65,12.11"/>
<path class="st0" d="M51,12.33c0.15,0.34,0.15,0.74,0,1.08v0.09c-0.13-0.26-0.21-0.54-0.25-0.82c0.06-0.2,0.11-0.41,0.13-0.62
	c0.15,0,0.14,0.18,0.18,0.27"/>
<path class="st0" d="M35.74,12.46c-0.07,0.14-0.25,0.17-0.38,0.27c-0.29,0.21-0.65,0.28-1,0.19c0.26-0.43,0.76-0.65,1.25-0.54
	c0,0,0.08,0,0.1,0.08"/>
<path class="st0" d="M31.23,12.87c0.33,0.32,0.6,0.7,0.77,1.13c0,0.05,0.15,0.06,0.1,0.15s-0.17-0.07-0.29-0.05
	c-0.43-0.24-0.69-0.7-0.67-1.19c0-0.05,0.07-0.05,0.11-0.05"/>
<path class="st0" d="M50.6,13.23c0,0.12,0,0.24-0.1,0.27c-0.11,0.03-0.22-0.03-0.25-0.13c0,0,0,0,0-0.01c0-0.08,0-0.13,0-0.18
	c0.08-0.07,0.2-0.07,0.27,0.01c0.01,0.01,0.02,0.03,0.03,0.04"/>
<path class="st0" d="M55.23,13.85c0.01-0.21,0.04-0.43,0.07-0.64c0.04-0.08,0.06-0.16,0.05-0.25c0.26-0.36,0.79-0.25,1.21-0.21
	c0.18,0.07,0.36,0.11,0.55,0.12c0.09-0.03,0.18-0.03,0.27,0c0.35-0.2,0.12-0.63,0.15-1l-0.13-0.34c-0.04-0.07-0.07-0.16-0.09-0.24
	c-0.07-0.07-0.11-0.22-0.18-0.31c-0.22-0.44-0.5-0.85-0.85-1.2c-0.59-0.72-1.39-1.24-2.28-1.5c-0.86-0.18-1.75-0.04-2.51,0.38
	C51.25,8.6,51.06,8.42,51,8.18C50.98,7.77,51.05,7.37,51.22,7c0.08-0.26,0.18-0.52,0.3-0.77c0.23-0.65,0.38-1.32,0.45-2
	c0-0.4-0.23-0.76-0.59-0.92c-0.21-0.08-0.44-0.03-0.6,0.13c-0.17,0.29-0.42,0.52-0.72,0.67c0,0.2,0.21,0.07,0.29,0.14
	c0.24,0,0.51,0,0.71,0.13c-0.02,0.44-0.18,0.85-0.46,1.19c-0.4,0.56-0.73,1.16-1,1.79l0,0v2.82c0.29,0.66,0.8,1.21,1.44,1.54
	c0.35,0.3,0.79,0.65,1.26,0.38c0.25-0.07,0.27,0.29,0.39,0.44c0.14,0.43-0.16,0.73-0.18,1.12l-0.29,0.64
	c-0.29,0.7-0.67,1.35-1.13,1.95c-0.16,0-0.26,0.19-0.42,0.2s-0.27,0-0.38,0.08c-0.34,0.15-0.82,0.05-1,0.39l0.09,0.06
	c0.66,0,1.41,0.05,2.12,0c0.09-0.04,0.16-0.12,0.18-0.22c-0.1-0.2,0-0.37,0.12-0.52c0.09-0.25,0.19-0.49,0.31-0.72
	c0.23-0.47,0.49-0.93,0.74-1.4l0.35-0.58c0.09-0.23,0.2-0.45,0.34-0.65c0.08-0.09,0.14-0.2,0.19-0.31c0-0.12,0-0.16-0.11-0.25
	s0.2,0,0.3-0.07c0.3,0.16,0.52,0.43,0.61,0.75l0.1,0.31v0.14v0.38v0.36c0.02,0.56-0.02,1.12-0.1,1.67c-0.19,0.67-0.92,0.6-1.45,0.75
	c-0.13,0.09-0.39,0.05-0.39,0.28c0.69,0.08,1.38,0.08,2.07,0c0.11,0,0.13-0.14,0.18-0.25s0.17-0.27,0.13-0.44s0-0.41-0.05-0.63
	c0.02-0.07,0.02-0.15,0-0.22c0.09-0.33,0.07-0.74,0.13-1.06L55.23,13.85z"/>
<path class="st0" d="M60.62,13.39c-0.35,0.52-0.72,1.12-1.34,1.3c-0.05,0-0.09,0-0.11,0c0.37-0.41,0.57-1.06,1.15-1.21
	c0.1-0.04,0.2-0.04,0.3,0"/>
<path class="st0" d="M30.7,14c-0.06,0,0,0.15-0.12,0.16c-0.08,0.04-0.18,0-0.21-0.08c0-0.01-0.01-0.01-0.01-0.02
	c-0.03-0.11,0.03-0.23,0.14-0.26C30.58,13.85,30.68,13.89,30.7,14"/>
<path class="st0" d="M33.85,14.12c0,0.11-0.08,0.11-0.13,0.13c-0.45,0.16-0.95,0.02-1.26-0.34c0-0.05,0-0.09,0-0.1
	c0.45,0.11,1,0,1.35,0.31"/>
<path class="st0" d="M31.3,14c0.01,0.06,0.01,0.12,0,0.18c-0.05,0.1-0.17,0.14-0.27,0.1c-0.06-0.04-0.11-0.09-0.15-0.15
	c0.02-0.1,0.09-0.19,0.19-0.23c0.08,0.01,0.15,0.04,0.21,0.1"/>
<path class="st0" d="M41.57,14c0.01,0.09-0.05,0.18-0.13,0.22c-0.09,0.03-0.18-0.01-0.23-0.09c-0.04-0.08-0.01-0.18,0.07-0.22
	C41.38,13.91,41.54,13.91,41.57,14"/>
<path class="st0" d="M61,14.08c0,0.11-0.07,0.17-0.15,0.24s-0.14,0-0.21,0s-0.07-0.11,0-0.19c0.04-0.1,0.15-0.16,0.26-0.14
	c0,0,0.09,0.06,0.15,0.12"/>
<path class="st0" d="M61.76,14c0.07,0.11,0,0.19,0,0.27c-0.03,0.07-0.12,0.1-0.19,0.07c0,0-0.01,0-0.01-0.01
	c-0.07-0.06-0.15-0.1-0.17-0.2s0.1-0.17,0.17-0.2S61.71,14,61.8,14"/>
<path class="st0" d="M30.23,14.36c0,0.09-0.05,0.13-0.08,0.2s-0.1,0.07-0.17,0c-0.08-0.04-0.13-0.11-0.16-0.19
	c0.02-0.11,0.1-0.19,0.2-0.23c0.09,0.02,0.17,0.08,0.21,0.17"/>
<path class="st0" d="M53.31,14.36c0.01,0.05,0.01,0.11,0,0.16c-0.07,0.09-0.15,0.17-0.26,0.11s-0.15-0.14-0.11-0.24
	s0.27-0.17,0.35,0"/>
<path class="st0" d="M32,14.54c0,0.08-0.06,0.16-0.16,0.17s-0.13-0.08-0.19-0.13s0-0.2,0.09-0.26c0.11-0.03,0.23,0.04,0.25,0.15
	C32,14.5,32,14.52,32,14.54"/>
<path class="st0" d="M31,14.56c0.02,0.1-0.03,0.2-0.11,0.26c-0.12,0.02-0.25-0.05-0.3-0.16c0.01-0.12,0.09-0.23,0.2-0.27
	C30.89,14.39,30.95,14.51,31,14.56"/>
<path class="st0" d="M54,14.54c0.03,0.11-0.02,0.23-0.12,0.28c-0.13,0-0.24-0.07-0.29-0.17s0.06-0.21,0.19-0.24
	C53.87,14.41,53.96,14.46,54,14.54"/>
<path class="st0" d="M31.46,14.58c0,0.09,0,0.12-0.05,0.18s-0.09,0.07-0.15,0.05s-0.14-0.09-0.15-0.17s0.07-0.17,0.15-0.22
	C31.36,14.41,31.44,14.48,31.46,14.58"/>
<path class="st0" d="M60.43,14.68c-0.03,0.08-0.1,0.15-0.18,0.18c-0.09,0-0.15,0-0.21-0.09s0-0.15,0-0.21
	c0.07-0.1,0.21-0.12,0.31-0.05c0.06,0.04,0.09,0.1,0.09,0.17"/>
<path class="st0" d="M61.26,14.72c-0.03,0.12-0.14,0.2-0.26,0.2c-0.09,0-0.21-0.13-0.13-0.26s0.07-0.1,0.13-0.11
	c0.11-0.03,0.23,0.04,0.26,0.15C61.26,14.71,61.26,14.71,61.26,14.72"/>
<path class="st0" d="M56.06,14.81c0,0.15-0.08,0.19-0.16,0.26c-0.08-0.01-0.15-0.04-0.21-0.09c-0.03-0.12,0.03-0.25,0.15-0.3
	C55.93,14.68,56.02,14.73,56.06,14.81"/>
<path class="st0" d="M53.05,14.94c0.05,0,0,0.11,0,0.14s-0.16,0.16-0.26,0.09c-0.06-0.03-0.1-0.1-0.09-0.17
	c0.06-0.1,0.19-0.12,0.29-0.06c0.02,0.02,0.04,0.04,0.06,0.06"/>
<path class="st0" d="M53.66,15c0.02,0.08-0.02,0.16-0.09,0.19c-0.07,0.08-0.16,0-0.24,0c-0.02-0.05-0.02-0.12,0-0.17
	c0.04-0.04,0.09-0.07,0.15-0.09c0.08,0,0.17,0,0.2,0.11"/>
<path class="st0" d="M35.06,15c0.06,0.08,0,0.16,0,0.23c-0.07,0.08-0.19,0.1-0.28,0.05c-0.11,0-0.1-0.19-0.08-0.29
	s0.07-0.1,0.16-0.1c0.08,0.01,0.16,0.05,0.22,0.11"/>
<path class="st0" d="M57.23,15.08c0,0.12-0.09,0.16-0.16,0.19s-0.2-0.06-0.26-0.15s0.07-0.12,0.09-0.18S57.15,14.99,57.23,15.08"/>
<path class="st0" d="M56.64,15.08c0,0.12-0.08,0.18-0.12,0.24c-0.08,0.03-0.18,0.01-0.24-0.05c-0.05-0.04-0.07-0.11-0.06-0.17
	c0.07-0.07,0.1-0.13,0.18-0.16C56.5,14.94,56.59,15,56.64,15.08"/>
<path class="st0" d="M61.58,15.22c0,0.16-0.17,0.09-0.25,0.13c-0.49,0.2-1.04,0.15-1.49-0.11c0-0.14,0.2-0.09,0.29-0.14
	c0.46-0.32,0.95,0.06,1.42,0.09L61.58,15.22z"/>
<path class="st0" d="M31.58,15.08v0.08c-0.41,0.29-0.93,0.39-1.42,0.27v-0.07c0.43-0.3,0.96-0.41,1.47-0.31L31.58,15.08z"/>
<path class="st0" d="M58.35,15.16c0.01,0.09-0.04,0.17-0.11,0.22c-0.11,0.04-0.24-0.01-0.29-0.12c0-0.1,0.06-0.19,0.14-0.23
	S58.31,15.03,58.35,15.16"/>
<path class="st0" d="M33.54,15.21c0,0.09,0,0.19-0.13,0.23c-0.11,0.02-0.23-0.04-0.27-0.15c0-0.13,0-0.16,0.11-0.22
	S33.48,15.07,33.54,15.21"/>
<path class="st0" d="M32.76,15.27c0,0.08,0,0.13,0,0.18c-0.06,0.05-0.16,0.05-0.22,0c-0.09-0.06-0.14-0.16-0.12-0.27
	c0.05-0.05,0.11-0.09,0.17-0.13c0.1,0,0.2,0.07,0.22,0.19"/>
<path class="st0" d="M59.11,15.54c0,0.1-0.07,0.18-0.17,0.2c-0.08,0-0.16-0.04-0.21-0.11c-0.03-0.08-0.01-0.17,0.05-0.22
	c0,0,0.09,0,0.14-0.06C59.02,15.36,59.1,15.44,59.11,15.54"/>
<path class="st0" d="M32,15.41c0,0.09,0,0.13-0.05,0.19c-0.06,0.18-0.14,0.35-0.25,0.5c-0.2,0.27-0.49,0.27-0.79,0.35v-0.1
	c0.27-0.42,0.65-0.77,1.1-1L32,15.41z"/>
<path class="st0" d="M58.57,15.66c0,0.14-0.09,0.16-0.17,0.22c-0.09,0-0.17-0.06-0.21-0.14c0-0.13,0.07-0.17,0.14-0.23
	C58.43,15.5,58.53,15.56,58.57,15.66"/>
<path class="st0" d="M33.21,15.66c-0.01,0.02-0.01,0.04,0,0.06c0,0.12-0.1,0.16-0.17,0.22c-0.09,0-0.18-0.04-0.24-0.12
	c-0.04-0.1,0-0.21,0.09-0.25c0.01,0,0.01-0.01,0.02-0.01c0.1,0,0.23,0,0.26,0.1"/>
<path class="st0" d="M60.59,16c0.11,0,0.13-0.14,0.25-0.17c0.11-0.01,0.21,0.04,0.26,0.13c0,0.14-0.05,0.21-0.14,0.27
	s-0.24-0.07-0.23,0.08c0.08,0.06,0.13,0.14,0.15,0.23c0,0-0.1,0-0.13,0c-0.35-0.13-0.63-0.38-0.79-0.72c0-0.1-0.25-0.18-0.13-0.27
	c0.31,0.02,0.59,0.18,0.76,0.44"/>
<path class="st0" d="M61.64,15.65c0.05,0.06,0.05,0.16,0,0.22c-0.05,0.11-0.22,0.07-0.32,0.06c-0.07-0.05-0.1-0.13-0.09-0.21
	c0.04-0.07,0.1-0.12,0.17-0.15C61.49,15.56,61.58,15.58,61.64,15.65"/>
<path class="st0" d="M57.66,16.27c0.11,0.14,0.19,0.3,0.24,0.47c0,0-0.08,0-0.1,0c-0.37-0.22-0.85-0.47-1-0.93
	c0,0-0.12-0.1-0.11-0.18c0.29-0.01,0.56,0.11,0.76,0.32c0.08,0.09,0.15,0.19,0.21,0.3"/>
<path class="st0" d="M32.6,15.83c0.02,0.09-0.02,0.19-0.1,0.23c-0.09,0.02-0.19-0.01-0.25-0.09c-0.08-0.13,0.07-0.23,0.16-0.28
	S32.54,15.78,32.6,15.83"/>
<path class="st0" d="M59,16.1c0,0.07-0.08,0.12-0.11,0.16s-0.18,0-0.25,0s-0.08-0.15,0-0.21s0.29,0,0.37,0.08"/>
<path class="st0" d="M61.76,16.26c0.01,0.12-0.05,0.23-0.15,0.29c-0.11,0-0.2-0.05-0.27-0.1s0-0.14,0-0.22
	c0.07-0.08,0.19-0.11,0.29-0.08C61.68,16.18,61.72,16.21,61.76,16.26"/>
<path class="st0" d="M54.17,17.86c0,0.13-0.24,0.1-0.33,0.21c-0.37,0.15-0.77,0.2-1.16,0.16v-0.07
	C53.09,17.81,53.65,17.7,54.17,17.86"/>
<path class="st0" d="M38.18,18.35c-0.01,0.09-0.07,0.17-0.16,0.19c-0.08,0-0.15-0.04-0.19-0.11c0-0.14,0.07-0.2,0.14-0.26
	C38.07,18.18,38.15,18.25,38.18,18.35"/>
<path class="st0" d="M54,18.47c0,0.11-0.06,0.22-0.17,0.27s-0.16,0-0.24-0.08s0-0.13,0-0.19c0.05-0.12,0.19-0.18,0.32-0.12
	c0.06,0.02,0.1,0.07,0.12,0.12"/>
<path class="st0" d="M56.16,18.52c-0.26,0.23-0.59,0.37-0.93,0.41h-0.6h-0.05c0.42-0.4,1.02-0.56,1.58-0.42L56.16,18.52z"/>
<path class="st0" d="M35.18,18.8C35.17,18.9,35.1,18.98,35,19c-0.1,0.02-0.19-0.02-0.24-0.11c-0.04-0.1,0-0.21,0.09-0.26
	c0.12-0.09,0.24,0.05,0.29,0.15"/>
<path class="st0" d="M35.73,18.91c0,0.06,0,0.1,0,0.15c-0.06,0.05-0.14,0.05-0.2,0c-0.07-0.02-0.1-0.1-0.08-0.16
	c0-0.01,0.01-0.02,0.01-0.03c0-0.07,0.1-0.06,0.13-0.11c0.08,0.03,0.15,0.08,0.19,0.15"/>
<path class="st0" d="M31.52,20.08c-0.1,0.14-0.27,0-0.4-0.1c-0.38-0.24-0.37-0.68-0.75-0.95c0-0.14,0.14,0,0.22,0
	c0.07,0.05,0.15,0.09,0.23,0.12c0.37,0.22,0.46,0.59,0.7,0.94"/>
<path class="st0" d="M46.05,19.86c-0.07,0.13-0.11,0.27-0.12,0.41l0,0c0-0.17-0.14-0.28-0.09-0.47s-0.09-0.31-0.17-0.46
	s0.09-0.26,0.17-0.39c0.15,0.07,0.2,0.22,0.31,0.36s-0.07,0.35-0.06,0.53 M63.48,15.6c-0.16-0.3-0.48-0.49-0.82-0.47
	c-0.28,0.03-0.51,0.21-0.61,0.47c-0.07,0.23,0.01,0.48,0.2,0.63c0.07,0.05,0.17,0.02,0.22-0.05c0.05-0.15-0.1-0.15-0.12-0.27
	c-0.05-0.15,0-0.3,0.12-0.4c0.11-0.11,0.29-0.06,0.43-0.06c0.14,0.08,0.25,0.2,0.33,0.34c0.06,0.2,0.06,0.41,0,0.61
	c-0.12,0.29-0.38,0.51-0.69,0.58c-0.9,0.14-10.89,0.09-10.89,0.09c-1.17,0.11-2.51-0.23-3.52,0.41c-0.43,0.28-0.73,0.73-0.81,1.24
	c-0.31,0.28-0.59,0.59-0.85,0.91l0,0c0.05-0.28,0.17-0.53,0.22-0.8c0.13-0.27,0.23-0.54,0.31-0.83c0.36-0.73,0.85-1.39,1.46-1.93
	c0.27-0.37,0.75-0.3,1.17-0.3c0.46,0.21,0.97,0.29,1.47,0.23c0.01-0.02,0.01-0.05,0-0.07c-0.16-0.15-0.41-0.21-0.59-0.36
	c-0.44-0.22-0.85,0.07-1.31,0c0,0,0,0,0-0.06c0.41-0.31,0.87-0.57,1.35-0.77c0.39-0.19,0.79-0.36,1.2-0.49c0.16,0,0.32-0.16,0.47,0
	l0.58-0.16c0,0,0,0,0.09,0c0.56-0.09,1.12-0.09,1.68,0l0.08,0.07l0.52,0.14c0.2,0,0.29,0.26,0.5,0.27c0.11-0.16-0.12-0.23-0.18-0.33
	c0.25-0.04,0.51-0.01,0.73,0.11l-0.11,0.13c-0.06,0.12,0,0.22,0.13,0.26s0.13,0,0.19-0.05s0-0.21,0-0.3
	c0.81,0.13,1.59,0.37,2.34,0.69c0.2,0.11,0.42,0.19,0.64,0.22c-0.25-0.2-0.54-0.35-0.84-0.46c-0.19-0.12-0.45-0.13-0.59-0.29
	c0-0.06,0.11,0,0.14-0.08c0.4-0.08,0.76-0.32,1-0.65c0-0.07,0.15-0.05,0.14-0.14s-0.26,0-0.4,0c-0.46,0.1-0.66,0.67-1.12,0.77L56,14
	c-0.28-0.03-0.55-0.09-0.81-0.18l-0.62-0.06H53.5c0,0,0,0,0-0.07c0.4-0.11,0.74-0.34,1.13-0.45l2.94-1.41
	c0.31-0.29,0.58-0.61,0.83-0.95c0.01-0.09-0.04-0.17-0.12-0.21c-0.06-0.05-0.16-0.05-0.22,0c-0.13,0.11,0,0.23,0,0.37
	c-0.14,0.17-0.31,0.32-0.5,0.44c-0.05,0-3,1.41-3,1.41c-0.42,0.22-0.87,0.4-1.33,0.53l-0.64,0.1c-0.05,0.13-0.15,0.22-0.28,0.27
	c-0.17,0-0.32,0.15-0.5,0.15c-1.49,0.5-2.85,1.3-4,2.37c0.07-0.16,0.11-0.32,0.12-0.49c0-0.18-0.04-0.35-0.12-0.51
	c0-0.06-0.11-0.25-0.08-0.31l-0.17,0.1c-0.13,0.32-0.16,0.67-0.08,1c0,0.21,0.19,0.45,0,0.63c-0.5,0.71-0.92,1.47-1.25,2.27
	c-0.13,0-0.19-0.15-0.25-0.28c0.39-0.49,0.66-1.07,0.78-1.68c0.08-0.06,0-0.21,0.1-0.28s0.1-0.37,0-0.52
	c0.07-0.25-0.32-0.48-0.06-0.64l-0.22,0.1c-0.47,0.65,0.25,1.62-0.29,2.24V18c-0.15,0.2-0.23,0.41-0.44,0.54
	c-0.26-0.11-0.36-0.42-0.51-0.65c-0.22-0.31-0.26-0.72-0.1-1.07c0.04-0.31,0-0.63-0.1-0.93L45,15.84c-0.28,0.4-0.34,0.91-0.15,1.36
	c0.11,0.21,0.12,0.5,0.29,0.67c0.12,0.3,0.27,0.59,0.47,0.85c0,0.11-0.07,0.14-0.13,0.19s-0.1-0.26-0.21-0.35
	c-0.36-0.77-0.83-1.48-1.4-2.1c0-0.11-0.12-0.2-0.07-0.31c0.21-0.24,0.27-0.58,0.15-0.88c0-0.06-0.09-0.13-0.08-0.19l-0.16-0.14
	c0,0.41-0.23,0.77-0.12,1.19l0,0c-1.11-0.88-2.32-1.65-3.59-2.28l-0.1,0.29c0.41,0.18,0.8,0.39,1.17,0.63
	c0.38,0.17,0.75,0.37,1.1,0.61c1.44,0.92,2.55,2.29,3.14,3.89c0,0.13,0.13,0.27,0.05,0.4c-0.25-0.32-0.53-0.62-0.84-0.88
	c-0.05-0.53-0.36-1.01-0.82-1.28c-0.17-0.26-0.52-0.28-0.79-0.36h-4c-3.25-0.05-6.22,0.1-9.43,0c-0.45,0-1-0.21-1.13-0.71
	c-0.09-0.2-0.09-0.43,0-0.63c0.12-0.19,0.33-0.31,0.56-0.31c0.17,0,0.29,0.2,0.37,0.32s-0.12,0.29-0.17,0.42s0,0.14,0.12,0.11
	c0.15-0.07,0.26-0.21,0.29-0.38c0-0.08,0-0.19,0-0.25c-0.08-0.24-0.28-0.41-0.52-0.47c-0.28-0.04-0.55,0.06-0.74,0.27
	c-0.24,0.28-0.31,0.66-0.18,1c0.2,0.5,0.65,0.85,1.18,0.92h10.67c1.09-0.05,2.18-0.01,3.27,0.1c0.42,0.12,0.76,0.45,0.88,0.87
	c0,0,0,0-0.07,0c-0.93-0.58-2.03-0.82-3.12-0.66c-0.42,0.02-0.84,0.1-1.23,0.26c-0.2,0.03-0.39-0.04-0.53-0.18
	c-0.46-0.32-1.05-0.4-1.58-0.21c0,0,0,0.07,0,0.08c0.54,0,0.85,0.43,1.34,0.49c0.11,0,0.19-0.1,0.3,0
	c-0.49,0.28-0.99,0.52-1.52,0.72c-0.17,0-0.26-0.2-0.39-0.29c-0.21-0.25-0.59-0.14-0.87-0.16c-0.1,0-0.19,0-0.26,0
	c0.11,0.17,0.28,0.3,0.47,0.38c0.28,0.12,0.59,0,0.85,0.16c-0.07,0.06-0.15,0.12-0.23,0.16c-0.52,0.21-1,0.69-1.52,0.66
	c-0.6,0.08-1.2-0.12-1.62-0.55c-0.19-0.43-0.63-0.69-1.1-0.64c0,0-0.08,0-0.06,0.07c0.24,0.16,0.42,0.45,0.67,0.63s0.45,0,0.59,0.22
	c0.21,0.15,0.45,0.26,0.71,0.32c0.18,0.08,0.37,0.13,0.57,0.16H35.4c-1.06,0.31-2.17,0.43-3.27,0.34c-0.32,0-0.64-0.12-1-0.11
	c0.07,0.08,0.17,0.13,0.27,0.16c-0.09,0.06-0.19,0.09-0.3,0.09c-0.14,0.03-0.28,0.07-0.42,0.12c-0.16,0-0.32,0.04-0.47,0.11
	c-0.17,0.22-0.39,0.4-0.63,0.54c0,0.05,0,0.11,0.05,0.11c0.21-0.09,0.47,0,0.68-0.11c0.37,0,0.57-0.45,0.86-0.63
	c0.34-0.2,0.74-0.25,1.11-0.14c0.22,0.06,0,0.16,0,0.31s0.17,0.17,0.29,0.13l0.07-0.06c0.05-0.09,0.05-0.19,0-0.28
	c0.15-0.1,0.36,0,0.53-0.06c0.41,0,0.83-0.1,1.23-0.12c0.07,0,0.14-0.08,0.21,0s-0.14,0.11-0.1,0.23c0.03,0.1,0.12,0.17,0.22,0.18
	c0.11-0.05,0.21-0.13,0.17-0.28s-0.12-0.09-0.17-0.13c0.23-0.11,0.5-0.15,0.73-0.26c0.16-0.04,0.31-0.09,0.46-0.16
	c0.14,0,0.26-0.15,0.39-0.09c-0.05,0.19-0.13,0.38-0.23,0.55c-0.24,0.65-0.24,1.35,0,2c0,0,0.05,0,0.07,0
	c-0.18-0.62-0.15-1.29,0.1-1.89c0.15-1,1.11-1.27,1.8-1.64v0.05c-0.26,0.49-0.4,1.04-0.41,1.6c0,0.11-0.05,0.21,0,0.28
	c0.19-0.13,0.33-0.32,0.4-0.53c0.08-0.52-0.2-1.17,0.3-1.55c0.89-0.45,1.86-0.72,2.86-0.79c0,0,0.1,0,0.12,0
	c-0.8,0.69-1.13,1.78-0.83,2.8c0.1,0.36-0.19,0.56-0.34,0.84c-0.06,0.1-0.09,0.27-0.15,0.38h0.22c0.21-0.2,0.34-0.47,0.37-0.76
	c0.03,0.11,0.11,0.19,0.21,0.23c0.08-0.12-0.06-0.22-0.07-0.35c0.17-0.1,0.25,0.13,0.39,0.18c0.21,0.08,0.44,0.14,0.67,0.16
	l0.08-0.08c-0.27-0.34-0.7-0.53-1.14-0.49c-0.2-0.41-0.27-0.86-0.21-1.31c0.04-0.25,0.11-0.49,0.23-0.72
	c0.08-0.16,0.18-0.31,0.3-0.44c0.19-0.19,0.43-0.32,0.69-0.38l0,0l0,0c-0.3,0.24-0.33,0.57-0.51,0.87c-0.21,0.29-0.25,0.67-0.1,1
	c0.07,0.15,0,0.38,0.19,0.48c0.11-0.22,0.19-0.46,0.23-0.7c0-0.38-0.25-0.74,0-1.11c0.11-0.25,0.33-0.44,0.59-0.51
	c0.59,0.02,1.16,0.19,1.65,0.51c0.11,0.08,0.3,0.15,0.32,0.31c-0.01,0.3-0.16,0.59-0.4,0.77c-0.3,0.2-0.7,0.2-1,0
	c-0.17-0.19-0.23-0.45-0.17-0.7c0.1-0.16,0.3-0.24,0.48-0.19c0.11,0.06,0.21,0.18,0.35,0.11c0.04-0.06,0.04-0.13,0-0.19
	c-0.12-0.07-0.16-0.24-0.33-0.26c-0.21-0.06-0.43-0.01-0.6,0.12c-0.23,0.2-0.32,0.51-0.25,0.81c0.07,0.35,0.33,0.64,0.68,0.75
	c0.51,0.13,1.04-0.06,1.34-0.49c0.11-0.15,0.19-0.32,0.24-0.5c0.53,0.37,0.93,0.9,1.13,1.52c0.02,0.19,0.02,0.39,0,0.58h0.38
	c-0.03-0.09-0.03-0.19,0-0.28c0.16-0.74,0.56-1.4,1.13-1.9c0.18-0.11,0.14,0.16,0.18,0.24c0.18,0.43,0.55,0.75,1,0.87
	c0.44,0.11,0.9-0.05,1.19-0.4c0.14-0.28,0.32-0.69,0.07-1c-0.14-0.19-0.36-0.3-0.6-0.3c-0.26,0.03-0.49,0.19-0.6,0.43
	c0,0.09,0,0.19,0.07,0.24s0.12,0,0.16-0.06s0.16-0.25,0.29-0.35c0.12-0.04,0.26-0.02,0.36,0.07c0.23,0.28,0.19,0.69-0.08,0.92
	c-0.04,0.03-0.08,0.06-0.13,0.08c-0.31,0.16-0.69,0.16-1,0c-0.12-0.15-0.22-0.32-0.3-0.5c-0.06-0.17-0.06-0.37,0-0.54
	c0.47-0.31,1.01-0.51,1.57-0.58c0.23,0.07,0.43,0.2,0.58,0.38c0.5,0.55-0.11,1.32,0.23,1.92c0.13,0,0.13-0.2,0.19-0.31
	c0.08-0.43,0.04-0.88-0.14-1.28c-0.1-0.25-0.25-0.48-0.42-0.68c0.05-0.01,0.09-0.01,0.14,0c0.25,0.17,0.47,0.38,0.66,0.61
	c0.33,0.57,0.48,1.23,0.43,1.89c-0.09,0.34-0.44,0.51-0.71,0.64c-0.13,0.1-0.23,0.22-0.3,0.37c0.15,0.04,0.32,0.02,0.45-0.06
	c0.21-0.08,0.33-0.36,0.47-0.49s0,0.05,0,0.07s0,0.3,0.06,0.34c0.04-0.19,0.07-0.39,0.09-0.58c0.12,0.17,0.2,0.37,0.21,0.58
	c0.1,0.2,0.27,0.48,0.53,0.52c0.06-0.11,0-0.21,0-0.3c0-0.29-0.27-0.44-0.42-0.65c-0.38-0.55-0.21-1.43-0.5-2.05
	c-0.14-0.32-0.34-0.61-0.6-0.85V18.2c0.5,0.04,1,0.13,1.48,0.28c0.6,0.31,1.48,0.24,1.76,1.06c0.11,0.46,0.33,0.89,0.63,1.25l0,0
	c0.06-0.14,0.06-0.29,0-0.43c-0.07-0.58-0.55-0.72-0.81-1.2v-0.05c0.28,0.07,0.55,0.16,0.81,0.27c0.89,0.33,1.52,1.14,1.6,2.09
	c0.01,0.69-0.13,1.37-0.41,2c0,0.09-0.19,0.19-0.09,0.27c0.12-0.09,0.15-0.24,0.21-0.34c0.45-0.71,0.62-1.57,0.47-2.4
	c0-0.15-0.17-0.26-0.09-0.41c0.05,0.06,0.12,0.09,0.19,0.1c0.06,0,0.15,0,0.19-0.12s0.06-0.16,0-0.21s-0.19-0.11-0.31-0.08
	c-0.06,0.07-0.11,0.16-0.13,0.25c-0.1-0.22-0.23-0.43-0.39-0.61l0,0c0.49,0.18,0.94,0.43,1.44,0.57c0.11,0.08,0.25,0.12,0.39,0.12
	c0.44,0.16,0.88,0.28,1.34,0.36c0.33,0,0.61,0.13,0.94,0l0,0c-0.12-0.16-0.39,0-0.53-0.13c-0.74-0.09-1.47-0.28-2.16-0.56
	c0,0,0.05,0,0.09,0C56.94,20.22,57,20.12,57,20c-0.05-0.09-0.15-0.15-0.25-0.14c-0.07,0-0.16,0.12-0.16,0.2
	c0,0.1,0.07,0.19,0.16,0.22c0,0-0.07,0-0.1,0l-1-0.47c-0.12,0-0.22-0.13-0.34-0.15l-0.76-0.36c-0.72-0.34-1.47-0.63-2.23-0.87
	l-0.47-0.13c-0.27-0.09-0.55-0.15-0.82-0.23c-1-0.3-2.07-0.21-3,0.26c-0.13-0.05-0.21,0.17-0.28,0c0.28-0.57,0.88-0.91,1.51-0.87
	c4.39,0,8.51-0.08,12.84-0.15c0.51,0.04,1-0.22,1.26-0.66c0.19-0.32,0.22-0.71,0.08-1.06"/>
<path class="st0" d="M57.94,19.13c0,0,0.07,0.05,0.05,0.11c-0.42,0.33-0.94,0.5-1.47,0.48c-0.05,0-0.09,0.05-0.15,0s0-0.06,0-0.08
	c0.39-0.47,1-0.68,1.59-0.55"/>
<path class="st0" d="M56.18,19.32c0.03,0.13-0.04,0.26-0.17,0.31c-0.11-0.01-0.2-0.08-0.24-0.18c0-0.1,0-0.14,0.07-0.2
	c0.07-0.08,0.2-0.09,0.28-0.02C56.15,19.26,56.17,19.29,56.18,19.32"/>
<path class="st0" d="M35.34,19.34c0.03,0.08,0.01,0.17-0.05,0.24c-0.05,0.05-0.13,0.07-0.2,0.06c-0.08,0-0.12-0.1-0.14-0.17
	c0-0.09,0.05-0.18,0.14-0.22C35.18,19.25,35.28,19.25,35.34,19.34"/>
<path class="st0" d="M33.38,20.09v0.08c-0.26,0.06-0.52,0-0.72-0.18c-0.14-0.24-0.34-0.44-0.58-0.57c0,0-0.06-0.08,0-0.1
	C32.63,19.32,32.97,19.78,33.38,20.09"/>
<path class="st0" d="M59.61,19.33c-0.25,0.39-0.47,0.88-0.92,1.05c-0.08,0-0.14,0.12-0.21,0c0.19-0.48,0.54-0.87,1-1.1
	c0.05-0.01,0.1-0.01,0.15,0"/>
<path class="st0" d="M36,19.47c0,0.13-0.08,0.15-0.16,0.21s-0.13-0.05-0.18-0.12s0-0.16,0.11-0.22C35.87,19.33,35.96,19.38,36,19.47
	"/>
<path class="st0" d="M61,19.54c-0.1,0.14-0.05,0.37-0.15,0.53s-0.41,0.57-0.76,0.62c0-0.11,0.08-0.23,0.13-0.33
	c0.13-0.37,0.39-0.69,0.73-0.89L61,19.54z"/>
<path class="st0" d="M30,19.64c0.07,0.09,0.05,0.21-0.04,0.28c-0.06,0.05-0.14,0.06-0.21,0.02c-0.09-0.06-0.13-0.17-0.09-0.27
	c0.07-0.11,0.27-0.17,0.34,0"/>
<path class="st0" d="M29.36,19.78c0,0.06,0,0.1,0,0.16s-0.09,0.13-0.15,0.14c-0.11,0.01-0.22-0.05-0.26-0.15
	c-0.02-0.1,0.03-0.2,0.12-0.25c0.1-0.03,0.21,0.01,0.26,0.1"/>
<path class="st0" d="M30.66,19.85c0,0.09,0,0.25-0.1,0.28s-0.24-0.05-0.33-0.14c0-0.1,0.05-0.19,0.14-0.23
	C30.48,19.73,30.59,19.77,30.66,19.85"/>
<path class="st0" d="M32.45,20c0,0.09,0,0.21-0.08,0.23s-0.15,0-0.21,0s-0.14-0.12-0.08-0.21c0.04-0.05,0.09-0.09,0.15-0.12
	c0.07,0,0.18,0,0.22,0.08"/>
<path class="st0" d="M62.05,20.08c0,0.09-0.08,0.19-0.17,0.19s-0.2,0-0.25-0.13s0-0.2,0.14-0.23C61.89,19.9,62,19.97,62.05,20.08"/>
<path class="st0" d="M60,20.14c0,0.09-0.09,0.16-0.13,0.19c-0.13,0.05-0.28-0.02-0.34-0.15c0,0,0-0.01,0-0.01
	c0.02-0.1,0.09-0.18,0.18-0.21C59.86,19.96,59.93,20.02,60,20.14"/>
<path class="st0" d="M61.4,20.12c0,0.08-0.04,0.15-0.1,0.19c-0.08,0.05-0.18,0.05-0.26,0c-0.1-0.1,0-0.18,0-0.25s0.29,0,0.32,0.1"/>
<path class="st0" d="M29.7,20.31c0.03,0.12-0.03,0.24-0.14,0.29c-0.1,0-0.19-0.06-0.23-0.16c0-0.11,0-0.21,0.11-0.24
	C29.54,20.18,29.64,20.23,29.7,20.31"/>
<path class="st0" d="M59.49,20.44c0.03,0.12-0.03,0.25-0.15,0.3c-0.08,0.02-0.16-0.01-0.21-0.08c0-0.06-0.1-0.19,0-0.24
	c0.05-0.1,0.17-0.15,0.28-0.1c0.04,0.02,0.08,0.06,0.1,0.1"/>
<path class="st0" d="M35.59,20.56c0,0.13-0.08,0.16-0.11,0.23s-0.14,0-0.17,0s-0.12-0.13-0.09-0.24s0.08-0.09,0.15-0.11
	s0.16,0.08,0.22,0.14"/>
<path class="st0" d="M61.85,20.65c0,0.08,0,0.11-0.06,0.17c-0.07,0.06-0.16,0.07-0.25,0.05c-0.1-0.06-0.1-0.15-0.1-0.26
	s0.08-0.1,0.16-0.13C61.71,20.47,61.81,20.54,61.85,20.65"/>
<path class="st0" d="M61.17,20.68c0,0.14-0.08,0.21-0.17,0.24s-0.11,0-0.12,0c0.26,0.17,0.49,0.37,0.68,0.61v0.1
	c-0.41,0.01-0.8-0.16-1.09-0.45c-0.07-0.05-0.2-0.05-0.29-0.13c0.14-0.16,0.41-0.1,0.6-0.11s-0.16-0.27,0-0.41s0.11-0.08,0.19-0.06
	c0.07,0.03,0.13,0.09,0.17,0.16"/>
<path class="st0" d="M56.68,20.69c0,0.06,0,0.13,0,0.19c-0.08,0.05-0.17,0.05-0.25,0c-0.05-0.08-0.14-0.15-0.1-0.26
	c0.05-0.11,0.18-0.16,0.29-0.11c0.05,0.02,0.09,0.06,0.11,0.11"/>
<path class="st0" d="M32.17,21.1c-0.01,0.1-0.09,0.17-0.19,0.18c-0.09,0-0.16-0.06-0.19-0.14c0-0.08,0-0.13,0.05-0.18
	c0.07-0.08,0.19-0.08,0.27-0.01C32.15,20.99,32.17,21.04,32.17,21.1"/>
<path class="st0" d="M33.06,20.94c0,0.17-0.16,0.26-0.22,0.42c-0.13,0.4-0.47,0.69-0.88,0.77c0-0.11,0.14-0.23,0.19-0.34
	c0.21-0.35,0.5-0.64,0.85-0.85H33.06z"/>
<path class="st0" d="M56.42,21.11c0,0.12-0.08,0.22-0.19,0.26c-0.09,0-0.17,0-0.22-0.09s0-0.18,0-0.28S56.32,21,56.42,21.11"/>
<path class="st0" d="M57.1,21.19c0,0.12-0.09,0.22-0.2,0.25c0,0-0.07,0-0.11,0c-0.08-0.04-0.14-0.12-0.14-0.21
	c0.05-0.06,0.07-0.15,0.15-0.16s0.26,0,0.3,0.14"/>
<path class="st0" d="M34.76,21.18c0.01,0.11-0.06,0.2-0.16,0.24c-0.09,0-0.18-0.05-0.21-0.14c0-0.1,0.08-0.17,0.13-0.23
	S34.68,21.11,34.76,21.18"/>
<path class="st0" d="M35.52,21.23c-0.03,0.1-0.11,0.17-0.21,0.19c-0.08,0-0.17,0-0.2-0.14s0.08-0.17,0.16-0.23
	C35.39,21.04,35.49,21.12,35.52,21.23"/>
<path class="st0" d="M59.46,22c0.06,0,0.15,0.11,0.13,0.19c-0.18,0.08-0.32-0.13-0.48-0.16c-0.26-0.26-0.46-0.58-0.58-0.93
	c0.1-0.1,0.22,0,0.3,0.06C59.11,21.38,59.32,21.67,59.46,22"/>
<path class="st0" d="M59.86,21.23c0.04,0.08,0.04,0.17,0,0.25c-0.07,0.12-0.21,0.09-0.31,0.07s-0.15-0.16-0.08-0.27
	s0.13-0.11,0.21-0.15s0.13,0.06,0.2,0.1"/>
<path class="st0" d="M36.53,21.52c0,0.1,0,0.24-0.08,0.29c-0.1,0.04-0.22-0.02-0.26-0.12c0,0,0-0.01,0-0.01
	c-0.06-0.14,0.06-0.17,0.13-0.24S36.46,21.44,36.53,21.52"/>
<path class="st0" d="M57.06,22.28c0.17,0.24,0.27,0.52,0.29,0.81c0,0.09,0,0.17,0,0.23l0,0c-0.41-0.37-0.69-0.87-0.79-1.41
	c-0.03-0.04-0.03-0.08,0-0.12c0.11-0.1,0.19,0.11,0.3,0.14L57.06,22.28z"/>
<path class="st0" d="M38,21.88L38,21.88c-0.43,0.38-1.04,0.46-1.55,0.2c-0.01-0.04,0.01-0.08,0.05-0.1c0.31-0.15,0.65-0.23,1-0.22
	L38,21.88z"/>
<path class="st0" d="M35.45,21.94c-0.37,0.24-0.71,0.72-1.17,0.83c-0.09,0-0.15,0.17-0.25,0.09c0.24-0.58,0.79-0.97,1.42-1V21.94z"
	/>
<path class="st0" d="M56.42,22.46c0,0.09,0,0.22-0.09,0.24c-0.05,0.06-0.14,0.06-0.2,0.01c0,0-0.01-0.01-0.01-0.01
	c-0.09,0-0.09-0.15-0.09-0.23s0.11-0.09,0.16-0.13S56.36,22.34,56.42,22.46"/>
<path class="st0" d="M55.51,22.52c-0.08,0.15-0.22,0.26-0.39,0.3c-0.34,0.06-0.69,0.01-1-0.14c0-0.09,0.12-0.06,0.17-0.11
	c0.36-0.12,0.75-0.14,1.12-0.06c0.04-0.04,0.1-0.04,0.14,0"/>
<path class="st0" d="M35.45,22.86c0,0,0,0.14-0.13,0.18c-0.07,0.03-0.15,0.03-0.22,0c0-0.08-0.1-0.14,0-0.22s0.11-0.1,0.17-0.12
	c0.11,0,0.21,0.09,0.22,0.2"/>
<path class="st0" d="M36.1,23c0,0.07-0.07,0.17-0.16,0.22c-0.08,0.01-0.16-0.02-0.21-0.09c-0.04-0.07-0.04-0.16,0-0.23
	c0-0.05,0.1-0.06,0.16-0.1s0.2,0.1,0.25,0.2"/>
<path class="st0" d="M56.21,23.07c0,0.08-0.02,0.16-0.07,0.22c-0.05,0.08-0.16,0.1-0.24,0.05c-0.08,0-0.1-0.1-0.13-0.16
	s0-0.15,0.07-0.23c0.1-0.08,0.24-0.07,0.32,0.03C56.19,23.01,56.2,23.04,56.21,23.07"/>
<path class="st0" d="M56.69,23.05c0,0.06,0.05,0.12,0,0.16s-0.1,0.21-0.24,0.15s-0.1-0.07-0.13-0.09s0-0.29,0.13-0.31
	s0.17,0.06,0.22,0.09"/>
<path class="st0" d="M35.7,23.39c0.03,0.12-0.01,0.24-0.11,0.31c-0.11,0-0.27,0-0.31-0.13c-0.03-0.13,0.02-0.26,0.13-0.33
	C35.53,23.21,35.66,23.27,35.7,23.39"/>
<path class="st0" d="M36.33,23.34c0.02,0.34-0.12,0.67-0.39,0.89c-0.18,0-0.36,0.21-0.53,0.1v-0.06C35.7,23.94,36,23.63,36.33,23.34
	"/>
<path class="st0" d="M54.49,23.6c0,0.07,0,0.13-0.06,0.18c-0.07,0.06-0.19,0.06-0.26,0c-0.08,0-0.09-0.15-0.06-0.23
	s0.09-0.1,0.14-0.13c0.1,0.01,0.19,0.07,0.24,0.16"/>
<path class="st0" d="M37.43,24.14c0.15,0.25,0.06,0.61,0.15,0.91c-0.18,0-0.26-0.2-0.38-0.32c-0.17-0.38-0.28-0.79-0.32-1.21
	c0.02-0.02,0.06-0.02,0.08,0c0.15,0.15,0.29,0.31,0.41,0.48c0,0.09,0.07,0.09,0.06,0.16"/>
<path class="st0" d="M55,23.7c0,0.08-0.1,0.11-0.15,0.17c-0.08-0.01-0.15-0.05-0.21-0.1c0-0.12,0-0.15,0.11-0.21
	c0.09-0.04,0.2,0,0.24,0.09C54.99,23.67,55,23.68,55,23.7"/>
<path class="st0" d="M56.34,24.72c0,0,0,0.1-0.06,0.08h-0.05c-0.36-0.25-0.57-0.66-0.58-1.09h0.06c0.35,0.22,0.58,0.59,0.63,1"/>
<path class="st0" d="M55.52,24.35c0,0.08-0.03,0.17-0.1,0.22c-0.12,0-0.3,0-0.32-0.15s0.1-0.18,0.16-0.22
	c0.1-0.04,0.22,0.02,0.25,0.13C55.52,24.33,55.52,24.34,55.52,24.35"/>
<path class="st0" d="M54.8,24.59c-0.15,0.43-0.57,0.65-0.86,1c0,0,0-0.13,0-0.17c0.12-0.44,0.43-0.81,0.85-1c0.17,0,0,0.15,0,0.24"
	/>
<path class="st0" d="M55.62,24.94c0,0.11-0.1,0.15-0.15,0.2c-0.09,0-0.18-0.05-0.24-0.12c0-0.11,0.07-0.15,0.14-0.21
	C55.47,24.79,55.58,24.84,55.62,24.94"/>
<path class="st0" d="M47.48,4.07h-0.12c-0.32,0,0,0.41,0.12,0.41S47.7,4.07,47.48,4.07 M46.48,4.48c0.31,0,0-0.41-0.16-0.41H46
	c-0.32,0,0,0.41,0.15,0.41H46.48z M45.14,4.48c0.32,0,0-0.41-0.15-0.41h-0.32c-0.31,0,0,0.41,0.16,0.41H45.14z M47.44,3.98
	c0.15,0,0.27,0.12,0.27,0.27c0,0.01,0,0.01,0,0.02c0.01,0.15-0.11,0.27-0.26,0.28c0,0-0.01,0-0.01,0h-3.23
	c-0.15,0-0.27-0.12-0.27-0.27c0,0,0-0.01,0-0.01c0.01-0.15,0.12-0.26,0.27-0.27L47.44,3.98z"/>
<path class="st0" d="M47.49,9.25c0,0.15,0.19,0.05,0.33,0.05s0.34,0.1,0.34-0.05s-0.19-0.13-0.34-0.13S47.49,9.04,47.49,9.25
	 M48.1,9.61c0.14,0,0.15-0.21,0.15-0.38c0-0.4-0.3,0-0.45-0.37c-0.12,0.31-0.42,0-0.42,0.36s0,0.39,0.22,0.39H48.1z M47.18,7.88
	l0.62,0.25l0.61-0.25l-0.24,1l0.49-0.1l-0.17,0.58l0.17,0.56l-0.44-0.13l0.19,1l-0.61-0.25l-0.62,0.25l0.25-1l-0.49,0.15l0.13-0.58
	L46.94,8.8l0.47,0.08L47.18,7.88z"/>
<path class="st0" d="M42.25,22.27c-0.12,0-0.16,0.08-0.14,0.2l0.15,0.61c0.04,0.13,0.04,0.27,0,0.4c-0.1,0.12-0.24,0.21-0.4,0.25
	c-0.15,0.04-0.32,0.04-0.47,0c-0.11,0-0.18-0.1-0.23-0.31L41,22.77c0-0.16-0.1-0.14-0.22-0.13l0,0l0.73-0.19v0.05
	c-0.14,0-0.2,0.06-0.17,0.23l0.15,0.63c0,0.11,0.08,0.38,0.4,0.3c0.21-0.04,0.35-0.23,0.31-0.44c0-0.02-0.01-0.05-0.02-0.07
	L42,22.52c0-0.11-0.07-0.17-0.26-0.13v-0.05l0.48-0.12L42.25,22.27z"/>
<path class="st0" d="M43.34,22.39c-0.09-0.18-0.3-0.29-0.5-0.25c-0.12,0-0.22,0.12-0.2,0.24s0.08,0.13,0.27,0.17l0.35,0.07
	c0.16,0.02,0.29,0.14,0.32,0.3c0,0.16,0,0.43-0.46,0.52c-0.13,0.02-0.26,0.02-0.39,0c0,0,0,0.05,0,0.08h-0.06l-0.1-0.48h0.07
	c0.07,0.22,0.3,0.36,0.53,0.31c0.26-0.07,0.23-0.26,0.22-0.28s-0.13-0.15-0.29-0.18h-0.16c-0.4-0.07-0.44-0.23-0.46-0.32
	s0-0.39,0.4-0.49c0.12-0.01,0.24-0.01,0.36,0c0.05,0,0.05,0,0.06-0.08h0.07l0.08,0.42L43.34,22.39z"/>
<path class="st0" d="M44.78,23.15l-0.79,0.09l0,0c0.16,0,0.22,0,0.2-0.21l-0.09-1c-0.16,0-0.38,0.06-0.4,0.38h-0.06v-0.39l1.33-0.14
	v0.4h-0.06c-0.04-0.2-0.24-0.33-0.44-0.29c-0.01,0-0.01,0-0.02,0.01l0.1,1c0,0.16,0.06,0.16,0.23,0.16L44.78,23.15z"/>
<path class="st0" d="M45.67,22.46c0.3,0,0.41,0,0.42-0.3s-0.09-0.28-0.27-0.29s-0.13,0-0.14,0.08L45.67,22.46z M46.67,23.15h-0.46
	l-0.45-0.63H45.7v0.38c0,0.16,0.05,0.17,0.2,0.19v0.05h-0.76v-0.05c0.15,0,0.2,0,0.2-0.17v-0.87c0-0.17-0.07-0.18-0.2-0.19v-0.05
	h0.72c0.15,0,0.62,0,0.62,0.36s-0.24,0.29-0.36,0.32l0.44,0.57c0.02,0.03,0.05,0.05,0.09,0.05L46.67,23.15z"/>
<path class="st0" d="M47.49,22.8l-0.17-0.5l-0.26,0.45L47.49,22.8z M48.11,23.35l-0.72-0.1l0,0c0.14,0,0.17,0,0.18-0.06
	c-0.01-0.09-0.03-0.19-0.07-0.27L47,22.86c-0.05,0.08-0.09,0.16-0.13,0.24c0,0.07,0.1,0.09,0.18,0.1v0.05l-0.45-0.06l0,0
	c0.13,0,0.17-0.07,0.25-0.21l0.62-1h0.06L47.91,23c0.07,0.22,0.1,0.29,0.2,0.3V23.35z"/>
<path class="st0" d="M49.41,23.63l-1.27-0.24v-0.06c0.13,0,0.19,0,0.21-0.09l0.16-0.94c0-0.13-0.06-0.15-0.16-0.17v-0.05l0.76,0.15
	l0,0c-0.16,0-0.23,0-0.25,0.14l-0.17,0.91c0,0.1,0,0.12,0.19,0.15c0.24,0.06,0.5-0.05,0.62-0.27h0.06L49.41,23.63z"/>
<path class="st0" d="M50.26,23.82l-0.77-0.16v-0.05c0.12,0,0.2,0,0.23-0.09l0.18-0.94c0-0.12-0.07-0.14-0.17-0.17v-0.05l0.76,0.17
	l0,0c-0.11,0-0.21,0-0.24,0.09l-0.18,0.92c0,0.13,0.06,0.15,0.18,0.19L50.26,23.82z"/>
<path class="st0" d="M51.17,23.5L51,23l-0.26,0.45L51.17,23.5z M51.81,24.03L51.09,24l0,0c0.14,0,0.18,0,0.18-0.06
	c-0.01-0.09-0.03-0.19-0.07-0.27l-0.5-0.06c-0.05,0.08-0.1,0.16-0.12,0.25c0,0.07,0.1,0.09,0.17,0.1v0.05l-0.45-0.05v-0.05
	c0.12,0,0.16-0.06,0.24-0.2l0.6-1h0.06l0.4,1.08c0.07,0.22,0.1,0.29,0.21,0.3L51.81,24.03z"/>
<path class="st0" d="M45.7,8.29c-0.13,0-0.31,0.09-0.31-0.07s0.15-0.18,0.29-0.18S46,8,46,8.22s-0.18,0.07-0.31,0.07 M46.09,8.2
	c0-0.47-0.26,0-0.4-0.44c-0.1,0.34-0.41,0.06-0.41,0.43c-0.01,0.1,0.03,0.19,0.1,0.26v0.14c0,0.03,0.03,0.06,0.06,0.06l0,0h0.48
	c0,0,0.07,0,0.07-0.06V8.44C46.05,8.38,46.09,8.29,46.09,8.2"/>
<path class="st0" d="M50,14c0.11,0.01,0.2-0.08,0.21-0.19c0,0,0,0,0,0c0.01-0.11-0.08-0.2-0.19-0.21c-0.01,0-0.01,0-0.02,0
	c-0.1,0-0.19,0.09-0.2,0.19c-0.01,0.11,0.08,0.2,0.19,0.21C49.99,14,50,14,50,14"/>
<path class="st0" d="M49,7c-0.04,0.06-0.07,0.13-0.09,0.2c0,0.07,0,0.11,0.09,0.11c0.05,0.01,0.1-0.03,0.11-0.09
	c0-0.01,0-0.01,0-0.02L49,7"/>
<path class="st0" d="M42.43,7c-0.04,0.06-0.07,0.13-0.1,0.2c-0.01,0.05,0.03,0.1,0.09,0.11c0,0,0.01,0,0.01,0c0,0,0.09,0,0.09-0.11
	L42.43,7"/>
<path class="st0" d="M44.08,7c-0.04,0.06-0.07,0.13-0.1,0.2c0,0.06,0.04,0.1,0.1,0.1c0.06,0,0.1-0.04,0.1-0.1L44.08,7"/>
<path class="st0" d="M45.73,7c-0.04,0.06-0.07,0.13-0.09,0.2c0,0.07,0,0.11,0.09,0.11c0.06,0,0.1-0.04,0.1-0.1c0,0,0-0.01,0-0.01
	L45.73,7"/>
<path class="st0" d="M47.39,7c-0.04,0.06-0.07,0.13-0.1,0.2c0,0.06,0.04,0.1,0.1,0.1c0.06,0,0.1-0.04,0.1-0.1L47.39,7"/>
<path class="st0" d="M42.43,9.38c0.04,0.06,0.07,0.13,0.09,0.2c0,0.07,0,0.11-0.09,0.11c-0.06,0-0.1-0.04-0.1-0.1c0,0,0-0.01,0-0.01
	L42.43,9.38z"/>
<path class="st0" d="M42.43,11.69c0.04,0.06,0.07,0.13,0.09,0.2c0.02,0.05-0.01,0.11-0.06,0.13c-0.05,0.02-0.11-0.01-0.13-0.06
	c-0.01-0.02-0.01-0.04,0-0.06L42.43,11.69z"/>
<path class="st0" d="M42.69,13.51c0.04,0.06,0.07,0.13,0.1,0.2c0,0.07,0,0.12-0.1,0.12c-0.06-0.01-0.11-0.06-0.1-0.12c0,0,0,0,0,0
	L42.69,13.51z"/>
<path class="st0" d="M44.08,14.48c0.04,0.06,0.07,0.13,0.1,0.2c0.01,0.06-0.04,0.12-0.1,0.13c-0.06,0-0.1-0.06-0.1-0.13L44.08,14.48
	z"/>
<path class="st0" d="M49.13,9.38c-0.04,0.06-0.07,0.13-0.1,0.2c0,0.06,0.04,0.1,0.1,0.1c0.06,0,0.1-0.04,0.1-0.1L49.13,9.38z"/>
<path class="st0" d="M49.13,11.69c-0.04,0.06-0.07,0.13-0.1,0.2c0,0.06,0.04,0.1,0.1,0.1c0.06,0,0.1-0.04,0.1-0.1L49.13,11.69z"/>
<path class="st0" d="M48.86,13.51c-0.03,0.06-0.06,0.13-0.09,0.2c0,0.07,0,0.12,0.1,0.12c0.06-0.01,0.11-0.06,0.1-0.12c0,0,0,0,0,0
	L48.86,13.51z"/>
<path class="st0" d="M47.47,14.48c-0.03,0.06-0.06,0.13-0.09,0.2c0,0.07,0,0.13,0.1,0.13s0.09-0.06,0.09-0.13L47.47,14.48z"/>
<path class="st0" d="M45.79,15.52c-0.04,0.06-0.08,0.13-0.11,0.2c0,0.06,0.05,0.11,0.11,0.11l0,0c0.06-0.01,0.1-0.05,0.1-0.11
	L45.79,15.52z"/>
<path class="st0" d="M48.48,12.07c0,0,0.07,0,0.14,0l0.06-0.18c0,0-0.07-0.09-0.12-0.08s-0.36,0.07-0.47,0.24
	c0.01,0.12,0.07,0.22,0.17,0.28c0.06,0,0.07,0.05,0.12,0.08s0,0.1-0.08,0.1s-0.34,0.05-0.43-0.12s0.12-0.35,0-0.5
	c0,0,0.07-0.07,0-0.1s-0.21,0-0.31,0c-0.15-0.02-0.3,0.06-0.37,0.19c0.01,0.06,0.04,0.12,0.08,0.17c0,0,0.06,0,0.08,0l-0.11,0.06
	c0.01,0.04,0.01,0.08,0,0.12c-0.07,0-0.15-0.07-0.17-0.13s0-0.24-0.11-0.26h-0.09c-0.02,0.06-0.02,0.13,0,0.19
	c-0.01,0.06-0.01,0.13,0,0.19c0.15,0.11,0.28,0.25,0.39,0.4c-0.09,0.2-0.09,0.47-0.31,0.58c-0.05,0.05-0.07,0.11-0.06,0.18l0,0
	c0.13-0.08,0.4-0.09,0.38-0.33c0.04-0.11,0.11-0.21,0.19-0.29c0.1-0.02,0.2,0.03,0.24,0.12c-0.02,0.15-0.13,0.28-0.28,0.33
	c0,0,0,0.06,0,0.09s0.16,0,0.22,0s0.25-0.34,0.41-0.41c0,0.11-0.21,0.15-0.06,0.25s0.21,0,0.28-0.12s0.24-0.27,0.05-0.43
	c0-0.17,0.16-0.23,0.15-0.41s-0.26-0.18-0.31-0.34c0.07-0.04,0.15-0.04,0.22,0"/>
<path class="st0" d="M40.87,14.07c0.11,0.01,0.2-0.08,0.21-0.19c0,0,0,0,0,0c0-0.12-0.09-0.21-0.21-0.21
	c-0.12,0-0.21,0.09-0.21,0.21C40.67,13.99,40.76,14.08,40.87,14.07C40.87,14.07,40.87,14.07,40.87,14.07"/>
<path class="st0" d="M30.14,20.63c0.11,0,0.2-0.09,0.2-0.2c0,0,0-0.01,0-0.01c0-0.11-0.09-0.2-0.2-0.2h0
	c-0.11-0.03-0.23,0.05-0.25,0.16s0.05,0.23,0.16,0.25C30.08,20.64,30.11,20.64,30.14,20.63"/>
<path class="st0" d="M36.94,22.2L36.94,22.2z M36.94,22.2L36.94,22.2L36.94,22.2L36.94,22.2L36.94,22.2L36.94,22.2L36.94,22.2
	L36.94,22.2L36.94,22.2z"/>
<path class="st0" d="M37,22.19L37,22.19L37,22.19L37,22.19L37,22.19L37,22.19L37,22.19z"/>
<path class="st0" d="M37.07,22.18L37.07,22.18L37.07,22.18L37.07,22.18L37.07,22.18L37.07,22.18L37.07,22.18L37.07,22.18
	L37.07,22.18L37.07,22.18z"/>
<path class="st0" d="M37.08,22.2L37.08,22.2L37.08,22.2L37.08,22.2 M37.08,22.2L37.08,22.2L37.08,22.2L37.08,22.2L37.08,22.2
	L37.08,22.2"/>
<path class="st0" d="M37.11,22.19L37.11,22.19L37.11,22.19L37.11,22.19L37.11,22.19L37.11,22.19z"/>
<path class="st0" d="M49.38,12.91c0,0.41-0.18,0.8-0.5,1.07L46,15.89l0,0c-0.06,0.06-0.14,0.09-0.22,0.09
	c-0.08,0-0.16-0.03-0.22-0.09L42.67,14c-0.32-0.27-0.5-0.66-0.5-1.07v-6h7.21L49.38,12.91z M49.6,6.73H42v6.1
	c-0.05,0.52,0.18,1.02,0.6,1.33l2.94,2c0.07,0.07,0.16,0.12,0.26,0.12c0.09,0,0.18-0.03,0.24-0.09l3-2c0.42-0.3,0.65-0.81,0.6-1.33
	V6.73H49.6z"/>
<path class="st0" d="M46.81,15.63l0.09-0.05C46.87,15.59,46.83,15.61,46.81,15.63"/>
<path class="st0" d="M40.31,23.59L40,23.15l-0.15,0.5L40.31,23.59z M41,24l-0.72,0.09l0,0c0.13,0,0.17,0,0.16-0.1
	c-0.03-0.09-0.07-0.17-0.13-0.24l-0.49,0.06c-0.03,0.08-0.06,0.17-0.08,0.26c0,0.07,0.12,0.07,0.19,0.06v0.05l-0.45,0.06v-0.05
	c0.11,0,0.14-0.1,0.19-0.26l0.37-1.13h0.06l0.61,1c0.13,0.2,0.17,0.26,0.28,0.24L41,24z"/>
<path class="st0" d="M53.41,21.55c-0.08,0.21-0.26,0.35-0.48,0.39c0-0.28,0.26-0.47,0.17-0.79c-0.16-0.21-0.43-0.3-0.69-0.23
	c-0.1,0.07-0.06,0.19-0.09,0.29v0.39c-0.23,0-0.23-0.21-0.3-0.38c-0.01-0.25,0.12-0.47,0.34-0.59c0.2-0.1,0.44-0.1,0.64,0
	c0.14,0,0.31,0.1,0.35,0.24s0.13,0.45,0.1,0.66 M52.56,21.64c0.12-0.12,0-0.85,0.31-0.38c0,0.09,0,0.23-0.08,0.3
	S52.65,21.7,52.56,21.64 M52.68,21.93c0,0.19-0.16,0.14-0.24,0.21h-0.26c-0.03-0.1-0.03-0.22,0-0.32c0.18,0.01,0.37,0.05,0.54,0.11
	 M53,23.36c-0.09,0.12,0,0.3-0.12,0.41s-0.17,0.31-0.31,0.39c-1.3,0.13-2.61-0.01-3.85-0.39c-1.84-0.45-3.76-0.48-5.62-0.1
	c-0.84,0.17-1.67,0.37-2.48,0.61c-0.51,0.12-1.03,0.12-1.54,0c-0.39-0.19-0.23-0.72-0.35-1.09c-0.01-0.27-0.04-0.54-0.08-0.8
	c-0.04-0.09-0.06-0.2-0.05-0.3c0.17,0.06,0.34,0.12,0.51,0.2c0.88,0.07,1.76-0.02,2.6-0.29c0.83-0.2,1.67-0.34,2.52-0.41
	c1-0.06,2.01-0.03,3,0.11c0.3,0,0.57,0.09,0.86,0.11c0.62,0.08,1.19,0.26,1.81,0.3c0.11,0.03,0.22,0.05,0.33,0.06
	c0.98,0.3,2.02,0.3,3,0c-0.04,0.4-0.11,0.8-0.21,1.2 M47.44,24.22c0.09,0.15,0.13,0.33,0.11,0.5c-0.11,0.22-0.33,0.22-0.53,0.26
	c-0.09,0.01-0.18-0.01-0.25-0.08c0.01-0.04-0.01-0.09-0.05-0.11c0-0.15-0.25-0.3,0-0.43s0.59-0.57,0.77-0.14 M47.74,24.22
	c0.13,0,0.14,0.18,0.15,0.3c0,0.24-0.14,0.47-0.37,0.56c-0.13,0.08-0.29,0.09-0.43,0.05c0.28,0.01,0.54-0.14,0.66-0.39L47.74,24.22z
	 M48.03,25.75L48.03,25.75c-0.29-0.02-0.57-0.15-0.77-0.36l0,0c0.29,0.05,0.57,0.18,0.81,0.36 M47.66,26.82c0,0-0.07,0-0.09,0
	c-0.29-0.43-0.52-0.9-0.69-1.39l0,0c0.27,0.45,0.47,0.94,0.74,1.39 M47,26.57h-0.05c-0.06,0,0-0.17,0-0.24
	c0.08,0.04,0.11,0.14,0.08,0.22 M46.72,25.86c0,0.11,0.12,0.16,0.06,0.26C46.73,26.04,46.71,25.95,46.72,25.86 M46.72,25.12
	L46.72,25.12L46.72,25.12L46.72,25.12z M46.06,26.79c-0.21,0-0.52,0.14-0.72,0c0-0.09-0.09-0.13-0.08-0.23
	c0.17-0.07,0.33,0.16,0.49,0c0.26-0.03,0.51-0.03,0.77,0c0.12,0,0.31-0.21,0.33,0S46.32,26.68,46.06,26.79 M45.58,25.41v-0.08
	c-0.1,0.28-0.22,0.56-0.36,0.82c-0.07-0.27,0.21-0.49,0.31-0.74 M45.83,25.2c0.15-0.16,0.28,0.09,0.34,0.21s0.59,0.49,0.42,0.84
	c-0.21,0.19-0.54,0-0.77,0.16c-0.12,0-0.33,0-0.39-0.11C45.54,25.92,45.67,25.56,45.83,25.2 M45.83,24.76L45.83,24.76l0.06-0.07
	c0,0,0,0,0,0.07 M46.14,24.76c0.05-0.07,0.1-0.17,0.18-0.17s0,0,0,0c-0.05,0.06-0.12,0.11-0.2,0.14 M46.28,24.9
	c0.03-0.02,0.06-0.02,0.09,0H46.28z M46.58,25.26c0,0,0,0.06,0,0.09l-0.25-0.21c0.11-0.02,0.22,0.02,0.28,0.12 M46.61,24.56
	L46.61,24.56L46.61,24.56L46.61,24.56z M47.08,23.85c-0.13,0-0.23,0.21-0.36,0.24C46.79,23.95,46.93,23.86,47.08,23.85 M46.53,23.7
	c0-0.11,0.1,0,0.15-0.07h0.34c-0.18,0-0.4,0.41-0.49,0.05 M45.73,24c0.03-0.15,0.09-0.3,0.17-0.43c0.1-0.01,0.2,0.01,0.29,0.05
	c0,0.23,0.3,0.54,0,0.73c-0.09,0-0.24,0.15-0.35,0c-0.12-0.09-0.17-0.26-0.11-0.4 M45.57,24.66c0-0.05,0-0.1,0-0.16
	s0.11,0.05,0.13,0.08c-0.03,0.06-0.09,0.09-0.16,0.08 M45.54,24.13L45.54,24.13v-0.12l0,0V24.13z M45.41,23.78
	c-0.15,0-0.22-0.2-0.38-0.2c0.14-0.04,0.28-0.04,0.42,0c0.05,0.07,0,0.15,0,0.21 M45.33,24.73c0.03-0.17,0.09-0.34,0.17-0.49
	C45.48,24.41,45.42,24.58,45.33,24.73 M45.08,24.73c-0.18-0.03-0.35-0.08-0.52-0.14c-0.11-0.12,0-0.24,0-0.37
	c0.16-0.26,0.5-0.33,0.76-0.17c0.01,0.01,0.03,0.02,0.04,0.03C45.33,24.32,45.24,24.55,45.08,24.73 M45.19,25.04L45.19,25.04
	L45.19,25.04v-0.06l0,0V25.04z M44.91,25.71c-0.16,0.37-0.34,0.74-0.54,1.09c0,0.05-0.11,0.06-0.17,0.08c0-0.16,0.15-0.29,0.21-0.43
	c0.23-0.31,0.3-0.65,0.56-0.95C45.04,25.57,44.91,25.62,44.91,25.71 M43.91,25.59c0.26-0.11,0.54-0.35,0.83-0.25
	C44.5,25.51,44.21,25.6,43.91,25.59 M44.3,24.8c-0.03-0.37,0.1-0.73,0.36-1c0.15-0.06,0.31-0.06,0.46,0
	c-0.28,0.07-0.64,0.15-0.71,0.52c0,0.15,0,0.23,0,0.36s0.39,0.13,0.55,0.3c0,0.07-0.05,0.12-0.11,0.14c-0.2-0.09-0.4-0.2-0.59-0.31
	 M38.9,21.22c0-0.09,0-0.23,0.11-0.25s0.2,0,0.21,0.07c0,0.14-0.02,0.27-0.06,0.4C39.03,21.45,38.91,21.35,38.9,21.22
	C38.9,21.22,38.9,21.22,38.9,21.22 M38.9,21.61c0.16,0.13,0.39,0.07,0.59,0.11c0.04,0.13,0.02,0.28-0.06,0.39
	c-0.18-0.05-0.43,0-0.53-0.21S38.9,21.71,38.9,21.61 M38.38,21.28c0.01-0.22,0.1-0.43,0.26-0.58c0.27-0.15,0.6-0.15,0.87,0
	c0.08,0.05,0.14,0.13,0.17,0.22c0.05,0.19-0.01,0.39-0.16,0.51h-0.11c-0.01-0.17,0.01-0.35,0.07-0.51c0-0.14-0.12-0.15-0.21-0.21
	c-0.18-0.03-0.36,0.01-0.5,0.12c-0.13,0.13-0.18,0.32-0.14,0.5c0.08,0.13,0,0.31,0.06,0.44v0.05c-0.18-0.14-0.28-0.35-0.27-0.58
	 M48.7,26.19c0.38,0.14,0.77,0.24,1.17,0.29c0,0.16-0.3,0-0.27,0.23c-0.36-0.09-0.7-0.25-1-0.48c0.03-0.01,0.06-0.01,0.09,0
	 M41.84,26.41l-0.15-0.14c0.08-0.11,0.24-0.06,0.36-0.12c0.3-0.14,0.63-0.19,0.95-0.15c-0.34,0.23-0.73,0.36-1.14,0.4 M53.7,21.14
	c-0.12-0.34-0.4-0.61-0.74-0.72c-0.36-0.12-0.75-0.02-1,0.26c-0.39,0.33-0.12,0.89-0.11,1.34c0,0.09,0,0.16-0.08,0.2
	c-1.59-0.14-3.06-0.56-4.64-0.74c-0.36-0.06-0.73,0-1.07-0.12h-0.44c-1.35,0.01-2.69,0.17-4,0.48c-0.27,0.09-0.58,0.11-0.85,0.22
	s-0.36,0.11-0.55,0.06l-0.36,0.08c-0.04,0.01-0.08,0.01-0.12,0c-0.18-0.47,0.35-0.76,0.18-1.22c-0.13-0.3-0.43-0.49-0.76-0.47
	c-0.36-0.03-0.7,0.15-0.87,0.47c-0.26,0.58,0.06,1.18,0.16,1.75c0,0.18,0.18,0.39,0,0.54c-0.34-0.28-0.8-0.38-1.23-0.27
	c-0.14,0.07-0.38,0-0.44,0.14c0.5,0.21,1.05,0.29,1.59,0.21c0.07,0,0.12,0,0.17,0c0,0.3,0,0.71,0.12,1
	c0.22,0.24,0.53,0.38,0.85,0.38c0.96-0.14,1.91-0.38,2.82-0.73c0.15,0,0.26-0.09,0.41-0.09c0.51-0.13,1.03-0.2,1.55-0.22
	c-0.21,0.3-0.37,0.64-0.46,1c-0.12,0.32,0.24,0.36,0.35,0.54c-0.31,0.14-0.61,0.3-0.9,0.48c-0.67,0.06-1.34,0.17-2,0.34
	c0,0.15,0.23,0.1,0.25,0.25s-0.14,0.12-0.21,0.17s0,0.09,0.07,0.1s0.21,0,0.27-0.11c0.22,0,0.41-0.07,0.61-0.08
	c0.2-0.05,0.39-0.12,0.57-0.23c0.22-0.07,0.37-0.23,0.6-0.3c0.31-0.03,0.62-0.08,0.92-0.14v0.07c-0.25,0.43-0.51,0.87-0.77,1.27
	c-0.03,0.07,0,0.15,0.07,0.19c0,0,0.01,0,0.01,0c0.14,0.03,0.3,0.01,0.42-0.07c0.23-0.42,0.44-0.81,0.63-1.24
	c0.11-0.35,0.32-0.66,0.62-0.87c0,0,0.11-0.09,0.16,0c-0.2,0.26-0.38,0.53-0.53,0.81c-0.13,0.34-0.06,0.72,0.17,1
	c0.12,0.11,0.32,0.07,0.5,0.09c0.42-0.23,1,0.13,1.3-0.3c0.2,0,0.23,0.21,0.34,0.32s0.39,0.26,0.58,0.11c0-0.12-0.15-0.24-0.21-0.35
	s-0.3-0.44-0.42-0.66c-0.07-0.14-0.13-0.28-0.18-0.43c0.19,0.1,0.39,0.18,0.6,0.25c0.18,0.08,0.41,0.06,0.59,0.18
	c0.16,0.18,0.34,0.32,0.55,0.44c0.27,0.14,0.58,0.16,0.86,0.28c0.11,0,0.27,0.1,0.35,0c-0.04-0.05-0.1-0.1-0.16-0.13
	c0-0.15,0.19-0.07,0.27-0.19c-0.03-0.05-0.08-0.08-0.13-0.08c-0.15-0.09-0.54-0.12-0.65-0.18c-0.13-0.03-0.26-0.07-0.38-0.13
	c-0.66,0-1-0.62-1.55-0.85c0.12-0.12,0.31-0.21,0.39-0.39c0.1-0.19,0.1-0.42,0-0.61c-0.1-0.35-0.54-0.31-0.79-0.51l0,0
	c0.4,0,0.8,0.05,1.19,0.16c1.03,0.26,2.07,0.45,3.12,0.58c0.61,0,1.36,0,1.66-0.58c0.05-0.35,0.12-0.71,0.17-1.06
	c0.25-0.55,0.39-1.15,0.44-1.75"/>
</svg>
