<?xml version="1.0" encoding="utf-8"?>
<!-- Generator: Adobe Illustrator 24.1.2, SVG Export Plug-In . SVG Version: 6.00 Build 0)  -->
<svg version="1.1" id="Layer_1" xmlns="http://www.w3.org/2000/svg" xmlns:xlink="http://www.w3.org/1999/xlink" x="0px" y="0px"
	 viewBox="0 0 411.17 49.74" style="enable-background:new 0 0 411.17 49.74;" xml:space="preserve">
<style type="text/css">
	.st0{fill-rule:evenodd;clip-rule:evenodd;fill:#828282;}
</style>
<path class="st0" d="M173.36,41.44h7.55v-11l0,0c0-4.5,0.59-6.25,2.38-6.25s2.38,1.75,2.38,4.5l0,0v12.75h7.54v-11l0,0
	c0-4.5,0.6-6.25,2.38-6.25c1.59,0,2.38,1.5,2.38,4l0,0v13.25h7.54V26.19l0,0c0-6.25-2.18-9.51-7.54-9.51c-2.32-0.1-4.51,1.04-5.75,3
	l0,0l-0.4,0.5l0,0c-1.39-2.26-2.78-3.75-5.75-3.75c-2.28-0.15-4.44,1.01-5.56,3l0,0l-1.19-2.24h-6v24.25H173.36z"/>
<path class="st0" d="M161.35,7.48h-8.13l-9.53,34H152l1.2-4.76h8.8l1.19,4.76h8.33l-10.12-34L161.35,7.48z M154.97,29.48l2.38-8.76
	l2.58,8.76H154.97z"/>
<path class="st0" d="M21.43,24.23l-0.79-0.75l0,0c1.59-1.75,2.58-3,2.58-6.75c0-5.75-2.78-9-8.34-9H0v33.76h13.1
	c7.34,0,11.51-2,11.51-9.51C24.66,29.07,23.51,26.27,21.43,24.23z M8.92,16.06h4.36c1.79,0,2.18,0.74,2.18,2.74s-0.59,2-2.38,2H8.92
	V16.06z M14.08,33.39H8.92v-5.25h5.36c1.59,0,2.38,0.75,2.38,2.75C16.66,33.14,16.07,33.39,14.08,33.39z"/>
<polygon class="st0" points="72.14,41.48 79.68,41.48 79.68,31.23 85.03,41.48 93.57,41.48 86.03,26.98 92.97,17.23 84.24,17.23 
	79.68,23.73 79.68,8.22 72.14,8.22 72.14,41.48 "/>
<path class="st0" d="M48.68,41.44h7.54v-11l0,0c0-4.5,1.19-6.5,3.17-6.5c2.19,0,3,2,3,5l0,0v12.5h7.54V27.69l0,0
	c0-7.25-2.38-11.5-7.54-11.5c-2.15-0.07-4.18,0.97-5.39,2.75l0,0l-0.39,0.49l-0.8-2.24h-7.13V41.44z"/>
<path class="st0" d="M110.33,16.16c-6.16,0-10.32,5.75-10.32,13.51s4.16,12.75,10.91,12.75c6.94,0,10.12-5,10.12-12.25
	C121.04,21.17,117.27,16.17,110.33,16.16L110.33,16.16z M110.72,35.89c-3.14,0-3.17-4.34-3.17-6.56c0-3.36,0.72-6.19,3.17-6.19
	c2.17,0,3,1.92,3,5.92C113.72,34.15,112.65,35.89,110.72,35.89z"/>
<path class="st0" d="M218.51,36.17c-1.78,0-2.78-1.25-3.17-4h13.09c0-9.51-3.17-16-10.12-16c-6.35,0-10.51,5.25-10.51,13.51
	c0,7.87,4.16,13.13,10.91,13.13c5.56,0,7.94-3.38,9.72-8.88h-6.55C221.69,35.18,220.49,36.18,218.51,36.17L218.51,36.17z M218.3,23
	c1.79,0,2.78,1.5,3,3.5h-6.15c0.4-2.25,1.39-3.5,3.17-3.5H218.3z"/>
<path class="st0" d="M36.36,16.63c-6.55,0-9.53,3.51-9.53,9.26h6.35c-0.07-1.73,1.27-3.19,3-3.26c0.06,0,0.12,0,0.18,0
	c1.11,0.15,1.9,1.15,1.78,2.26c0,4.25-12.5,0-12.5,10.5c0,4.5,2.38,7.25,6.35,7.25c2.42,0.09,4.76-0.92,6.35-2.75l0,0l1.19,1.5h6.55
	V28.64l0,0c0-8-2-12-9.72-12L36.36,16.63z M38.14,33.86c-0.12,1.52-1.27,2.77-2.78,3c-1.02-0.02-1.82-0.87-1.8-1.88
	c0-0.04,0-0.08,0.01-0.12c0-1.49,1.19-3.24,4.57-3.75l0,0V33.86z"/>
<path class="st0" d="M289.25,16.66c-6.35,0-9.72,3.25-9.72,9.25h6.35c-0.14-1.65,1.08-3.1,2.73-3.24c0.15-0.01,0.29-0.01,0.44-0.01
	c1.1,0.11,1.9,1.08,1.8,2.18c0,0.02,0,0.04-0.01,0.07c0,4.25-12.1,0-12.1,10.5c0,4.5,2.38,7,6.35,7c2.77,0,5-1,6-2.51l0,0l1.19,1.51
	h6.55V28.66l0,0c0-7.75-1.79-12-9.53-12H289.25z M290.84,33.86c-0.12,1.52-1.27,2.77-2.78,3c-1.02-0.02-1.82-0.87-1.8-1.88
	c0-0.04,0-0.08,0.01-0.12c0-1.49,1.19-3.24,4.57-3.75l0,0V33.86z"/>
<path class="st0" d="M270.19,31.64c-0.2,3.25-0.8,4-2.78,4c-2.78,0-3.77-2.5-3.77-5.75c0-4,0.6-6.5,3.37-6.5c1.79,0,2,0.25,3.18,3
	h5.95c-0.4-6.25-2.58-9.76-9.13-9.76c-6.15,0-9.92,4.51-9.92,12.26c0,8.5,3.38,13.75,10.12,13.75c5.16,0,9.13-3.25,9.53-9.25l0,0
	l0.2-1.75H270.19z"/>
<path class="st0" d="M231,41.44h7.54v-8.5l0,0c0-6.26,1.39-8,5.75-8.51h0.8v-7.5l0,0c-2.58,0-4.57,0-6.75,3l0,0l-1.19-2.75H231
	V41.44z"/>
<path class="st0" d="M123.45,23.23H126v18.25h7.54V23.23h3.18v-6h-3.18c0-2.5,0.4-2.75,1.19-2.75h2.38V8H132
	c-3.38,0-5.56,0.76-5.56,6l0,0v3.25h-3v6L123.45,23.23z"/>
<polygon class="st0" points="247.21,41.44 254.75,41.44 254.75,17.18 247.21,17.18 247.21,41.44 "/>
<polygon class="st0" points="247.21,14.62 254.75,14.62 254.75,7.62 247.21,7.62 247.21,14.62 "/>
<path class="st0" d="M347.19,10.83c-3.75,1.59-20.11,8.88-26.22,12.45c-2.64-1-4.88-1.77-7.94-2.91
	c12.7-7.37,26.51-11.61,26.74-11.92C342.36,9.13,344.56,10.2,347.19,10.83z"/>
<path class="st0" d="M359.46,16c-3.75,1.58-20.22,9.53-26.34,13.1c-2.85-1.43-5.63-2.86-8.47-4c12.7-7.41,25.88-12.32,26.12-12.63
	C353.21,13.37,356.88,15,359.46,16z"/>
<path class="st0" d="M399.09,13.17c-3.75,1.58-29.57,9.93-54,26.19c-3.1-1.9-8.09-4.78-11.14-5.78c12.7-7.4,29.53-18.56,55.18-25.15
	C393,10.13,395.63,11.6,399.09,13.17z"/>
<path class="st0" d="M411.17,20c-3.75,1.59-35.09,16.56-50.29,29.79c-2.78-1.62-8.82-6.17-11.64-7.68
	c12.18-7.86,27.66-19.26,53-26.93C405.33,16.58,408.31,18.19,411.17,20z"/>
<path class="st0" d="M347.41,3c6.68,2.18,16.46,5.57,22.84,8.83c-2,1.1-4.76,1.85-7.21,2.87c-16.24-6.81-22.82-8.81-23.13-9
	C341.36,5,346.15,3.39,347.41,3z"/>
<path class="st0" d="M359.25,0c6.69,2.18,16.9,5.09,23.28,8.35c-2.65,0.55-5.26,1.29-7.8,2.22C358.49,3.76,352.51,2,352.21,1.76
	C353.66,1.13,358,0.42,359.25,0z"/>
</svg>
