<?xml version="1.0" encoding="utf-8"?>
<!-- Generator: Adobe Illustrator 24.1.2, SVG Export Plug-In . SVG Version: 6.00 Build 0)  -->
<svg version="1.1" id="Layer_1" xmlns="http://www.w3.org/2000/svg" xmlns:xlink="http://www.w3.org/1999/xlink" x="0px" y="0px"
	 viewBox="0 0 34.82 50" style="enable-background:new 0 0 34.82 50;" xml:space="preserve">
<style type="text/css">
	.st0{fill:#828282;}
</style>
<path class="st0" d="M24.88,39.77H20v-0.08c0,0,0.3-2.79,4.26-2.93c0.18-0.01,0.35,0.05,0.48,0.17c0.12,0.15,0.19,0.34,0.18,0.54
	v2.3L24.88,39.77z M29.66,35.91v-0.08v-0.06l-0.13,0.07l-0.37,0.21l-0.37,0.17c0,0-0.11,0.05-0.11,0.33v3.28h-2.8v-2.89
	c0.04-0.36-0.08-0.73-0.32-1c-0.28-0.22-0.64-0.32-1-0.26c-1.61,0-3.17,0.54-4.43,1.53l-0.36,0.41l-0.13,0.17l-0.07-0.2
	c-0.09-0.22-0.21-0.42-0.37-0.59l-0.13-0.14L19,36.81c0,0.14,0,0.46,0,0.89v2.09h-1.58v-7.18c0-0.12,0-0.16,0-0.16l-0.14,0.07
	l-0.37,0.21l-0.36,0.17c-0.06,0-0.11,0.05-0.11,0.39v6.44c-0.05,0.28,0.02,0.56,0.19,0.78c0.18,0.27,0.5,0.41,0.82,0.38H19V41
	c-0.05,0.5-0.15,0.99-0.3,1.47v0.05c0.13-0.09,0.26-0.18,0.37-0.29c0.3-0.37,0.53-0.78,0.69-1.23v-0.07h8.77
	c0.25,0.02,0.5-0.05,0.71-0.18c0.29-0.22,0.39-0.39,0.39-1v-2.67c0-0.13,0-1.14,0-1.17"/>
<path class="st0" d="M9,39.75v-2.31c0-0.33,0.07-0.36,0.11-0.39l0.36-0.17l0.49-0.26c0,0.05,0,0.09,0,0.14V40
	c-0.01,0.25-0.12,0.49-0.3,0.67C9.47,40.82,9.24,40.91,9,40.9H3.53c-0.6-0.03-1.13-0.37-1.42-0.9c-0.21-0.38-0.32-0.81-0.32-1.25
	c0.03-0.35,0.1-0.7,0.21-1.03c0.03-0.17,0.11-0.32,0.21-0.46c0,0,0,0.05,0,0.11c0.06,0.53,0.19,1.05,0.39,1.54
	c0.35,0.61,1.01,0.97,1.71,0.92H9V39.75z"/>
<path class="st0" d="M13.87,33.49L13.87,33.49c0-0.34,0.07-0.36,0.12-0.39l0.36-0.17l0.48-0.26c0,0,0,0.05,0,0.14v3.72
	c0,3.35-1.56,4.31-1.68,4.38h-1.51c0.49-0.31,0.92-0.71,1.28-1.16l0,0V39.7l-1.76-3.92c-0.16-0.37-0.24-0.77-0.25-1.17
	c-0.01-0.46,0.17-0.91,0.5-1.23v0.08c0.05,0.53,0.19,1.05,0.41,1.54c0,0,1.09,2.07,1.5,3.1l0.13,0.39l0.07,0.21l0.07-0.21v-0.11
	c0.1-0.32,0.16-0.66,0.16-1l0,0v-0.11l0,0v-3.76L13.87,33.49z"/>
<path class="st0" d="M4.66,46.62c0.19,0,0.38-0.06,0.54-0.16c0.07-0.13,0.07-0.3,0-0.43c-0.27-0.53-0.83-0.84-1.42-0.81
	c-0.91-0.07-1.7,0.61-1.78,1.51c0,0.06-0.01,0.12,0,0.18l2.63-0.29 M5.22,47.35L2,47.68c0.08,0.86,0.84,1.48,1.7,1.4h2.1
	c0.25-0.01,0.47,0.18,0.48,0.44c0,0.02,0,0.03,0,0.05V50H3.71c-1.42,0.05-2.61-1.07-2.65-2.48c0-0.12,0-0.24,0.01-0.36
	C1,45.71,2.11,44.47,3.56,44.4c0.09,0,0.18,0,0.28,0c1.11-0.04,2.1,0.7,2.36,1.78c0.14,0.64-0.21,1.08-1,1.17"/>
<path class="st0" d="M16.49,44.39c0.31,0,0.53,0.14,0.53,0.44s-0.22,0.45-0.53,0.45h-2.25c-0.47,0-0.53,0.51-0.48,0.8
	c0.01,0.09,0.05,0.18,0.12,0.24c0.21,0.12,0.43,0.19,0.67,0.21l1.71,0.3c0.71,0.03,1.27,0.63,1.24,1.34c0,0.03,0,0.06-0.01,0.09
	c0,1.27-0.78,1.72-2,1.72h-2.82v-0.44c0-0.31,0.21-0.44,0.53-0.44h2.24c0.87,0,1.09-0.27,1.09-0.75s-0.12-0.6-0.7-0.7l-1.73-0.29
	c-0.87-0.14-1.25-0.6-1.3-1.2c-0.07-0.86,0.29-1.77,1.47-1.77H16.49z"/>
<path class="st0" d="M21.7,48c0,1-0.54,1.29-1.44,1.29S19,49,19,48.3c0.05-0.48,0.43-0.85,0.91-0.89c0.5-0.08,1.25-0.12,1.82-0.25
	V48H21.7z M22.7,46.39c0-1-0.26-2-1.7-2h-2c-0.32,0-0.53,0.14-0.53,0.44s0.21,0.45,0.53,0.45h1.89c0.66,0,0.89,0.15,0.89,0.62V46
	c0,0.29-0.37,0.36-0.53,0.39c-1.35,0.32-3.17,0-3.17,1.92c0,1,0.89,1.65,2.1,1.65c0,0,1.22,0,1.67-0.56v0.06
	c-0.02,0.24,0.16,0.45,0.41,0.47c0.02,0,0.05,0,0.07,0h0.4L22.7,46.39z"/>
<path class="st0" d="M29,48c0,1-0.54,1.29-1.44,1.29s-1.29-0.29-1.29-1c0.05-0.48,0.43-0.85,0.91-0.89c0.5-0.08,1.25-0.12,1.82-0.25
	V48z M30,46.39c0-1-0.26-2-1.71-2h-2c-0.31,0-0.52,0.14-0.52,0.44s0.21,0.45,0.52,0.45h1.89c0.67,0,0.89,0.15,0.89,0.62V46
	c0,0.29-0.36,0.36-0.52,0.39c-1.35,0.32-3.17,0-3.17,1.92c0,1,0.89,1.65,2.1,1.65c0,0,1.22,0,1.66-0.56v0.06
	c-0.01,0.25,0.18,0.46,0.43,0.47c0.02,0,0.04,0,0.06,0H30V46.39z"/>
<path class="st0" d="M24.58,42.87H24c-0.21-0.03-0.4,0.11-0.43,0.32c-0.01,0.04-0.01,0.07,0,0.11V50h1L24.58,42.87z"/>
<path class="st0" d="M9.42,49.15c-0.74,0-1,0-1-0.57v-3.29h0.85c0.3,0,0.53-0.14,0.53-0.45S9.57,44.4,9.27,44.4H8.42v-0.92l0,0
	v-0.55H7.81c-0.21,0.02-0.37,0.2-0.35,0.41c0,0,0,0.01,0,0.01v1H7.2c-0.31,0-0.53,0.14-0.53,0.45s0.22,0.44,0.53,0.44h0.26v3.48
	c0,1.18,0.82,1.19,2,1.19H10v-0.39c0-0.26-0.23-0.43-0.58-0.43"/>
<path class="st0" d="M33.26,49.15c-0.74,0-1,0-1-0.57v-3.29h0.85c0.3,0,0.53-0.14,0.53-0.45s-0.23-0.44-0.53-0.44h-0.85v-0.92l0,0
	v-0.55h-0.61c-0.21,0.02-0.37,0.2-0.35,0.41c0,0,0,0.01,0,0.01v1H31c-0.3,0-0.52,0.14-0.52,0.45s0.22,0.44,0.52,0.44h0.27v3.48
	c0,1.18,0.82,1.19,2,1.19h0.57v-0.39c0-0.26-0.22-0.43-0.57-0.43"/>
<path class="st0" d="M11.78,50v-5.6h-0.54c-0.21-0.02-0.41,0.13-0.43,0.35c0,0.03,0,0.06,0,0.08V50h1H11.78z"/>
<path class="st0" d="M11.19,44c0.23,0,0.36,0,0.48-0.11c0.09-0.14,0.13-0.3,0.1-0.46v-0.49h-0.54c-0.21-0.02-0.4,0.13-0.42,0.33
	c0,0.03,0,0.06,0,0.1V44H11.19"/>
<path class="st0" d="M1.15,3.51C-0.26,5.36-0.3,8.4,0.64,12.17C2,17.48,4.25,22.85,5.32,26.42C6.55,30.09,6.56,32,7,32.22
	c0.06,0.01,0.11,0.01,0.17,0c0.62,0,2.21-1,5.54-2c3.54-1.21,9.24-2.44,14.34-4.43c3.58-1.4,6-3.18,6.75-5.39
	c-1.14,1.54-3.22,2.83-6,3.92c-5.1,2-10.8,3.23-14.34,4.43c-3.33,1-4.92,2-5.54,2c-0.06,0-0.12-0.02-0.17-0.05
	c-0.47-0.25-0.49-2.12-1.71-5.79C5,21.37,2.75,16,1.42,10.7C0.68,7.81,0.54,5.35,1.15,3.51 M11.15,6.29C10.42,6.28,9.69,6.39,9,6.61
	C6.49,7.38,5.5,9.7,5.7,12.92c0.3,3.06,0.94,6.08,1.93,9C8.45,24.4,9,26,10,26.46c0.34,0.16,0.71,0.24,1.08,0.23
	c1.37-0.13,2.71-0.44,4-0.92c2.95-0.89,5.79-2.11,8.46-3.64c2.73-1.71,4.07-3.85,3.25-6.32s-3.63-5.18-7.57-7.22
	c-2.49-1.37-5.25-2.15-8.09-2.3 M11.84,25.9c-0.49,0.01-0.98-0.08-1.43-0.28c-1.79-0.93-3.22-5.42-3.2-10c0-3,1.92-4.67,4.78-4.67
	c1.84,0.07,3.64,0.57,5.25,1.47c5.53,2.85,7,7.34,3.2,10C17.44,24.55,14.02,25.9,11.84,25.9"/>
<path class="st0" d="M7.23,0C6.27-0.02,5.31,0.12,4.39,0.4C2.85,0.82,1.63,1.99,1.15,3.51c0.63-0.79,1.5-1.36,2.48-1.63
	C4.54,1.59,5.5,1.45,6.46,1.47c3.71,0,8.88,1.56,14.23,4.31c6.9,3.57,12,8.07,13.07,11.65c0.35,0.97,0.38,2.02,0.08,3
	c0.99-1.28,1.26-2.97,0.7-4.49c-1.07-3.58-6.17-8.08-13.07-11.65C16.12,1.56,10.94,0,7.23,0"/>
<path class="st0" d="M7.23,0C6.27-0.02,5.31,0.12,4.39,0.4C2.85,0.82,1.63,1.99,1.15,3.51c0.63-0.79,1.5-1.36,2.48-1.63
	C4.54,1.59,5.5,1.45,6.46,1.47c3.71,0,8.88,1.56,14.23,4.31c6.9,3.57,12,8.07,13.07,11.65c0.35,0.97,0.38,2.02,0.08,3
	c0.99-1.28,1.26-2.97,0.7-4.49c-1.07-3.58-6.17-8.08-13.07-11.65C16.12,1.56,10.94,0,7.23,0"/>
<path class="st0" d="M6.48,1.47C5.52,1.45,4.56,1.59,3.64,1.88C2.66,2.14,1.79,2.71,1.17,3.51c-0.61,1.84-0.47,4.3,0.25,7.2
	C2.75,16,5,21.39,6.1,25c1.24,3.67,1.24,5.55,1.71,5.8c0.06,0.02,0.11,0.02,0.17,0c0.62,0,2.21-1,5.54-2
	c3.54-1.21,9.24-2.44,14.34-4.43c2.75-1.08,4.83-2.37,6-3.92c0.3-0.98,0.27-2.04-0.08-3c-1.07-3.59-6.17-8.09-13.08-11.66
	C15.35,3,10.17,1.47,6.48,1.47 M11.1,26.69c-0.38,0.02-0.76-0.06-1.1-0.23c-1-0.52-1.57-2.08-2.39-4.54c-0.99-2.92-1.63-5.94-1.93-9
	C5.5,9.7,6.49,7.38,9,6.61c0.71-0.22,1.45-0.33,2.19-0.32c2.82,0.15,5.58,0.94,8.05,2.31c4,2,6.82,4.79,7.57,7.22
	s-0.51,4.62-3.25,6.32c-2.67,1.54-5.51,2.76-8.46,3.64C13.81,26.26,12.47,26.56,11.1,26.69"/>
<path class="st0" d="M31.34,38.72v-5.29c0-0.34,0.07-0.37,0.11-0.39l0.37-0.17l0.51-0.28l0,0V36l0,0v4.86h-1L31.34,38.72
	L31.34,38.72z"/>
<path class="st0" d="M5.25,36.59c0.24,0,0.36,0,0.49-0.11s0.1-0.26,0.1-0.46v-0.5H5.29c-0.21-0.02-0.41,0.13-0.43,0.35
	c0,0.03,0,0.06,0,0.08v0.64H5.25z"/>
<path class="st0" d="M6.52,36.59c0.23,0,0.36,0,0.48-0.11s0.1-0.26,0.1-0.46v-0.5H6.57c-0.21-0.02-0.41,0.13-0.43,0.35
	c0,0.03,0,0.06,0,0.08v0.64H6.52z"/>
<path class="st0" d="M27.83,34.87c0.23,0,0.36,0,0.48-0.11c0.09-0.14,0.13-0.3,0.1-0.46v-0.5h-0.54c-0.21-0.02-0.41,0.13-0.43,0.35
	c0,0.03,0,0.06,0,0.08v0.64H27.83"/>
<path class="st0" d="M29.11,34.87c0.23,0,0.36,0,0.48-0.11c0.09-0.14,0.13-0.3,0.1-0.46v-0.5h-0.54c-0.21-0.02-0.41,0.13-0.43,0.35
	c0,0.03,0,0.06,0,0.08v0.64H29.11"/>
</svg>
