<?xml version="1.0" encoding="utf-8"?>
<!-- Generator: Adobe Illustrator 24.1.2, SVG Export Plug-In . SVG Version: 6.00 Build 0)  -->
<svg version="1.1" id="Layer_1" xmlns="http://www.w3.org/2000/svg" xmlns:xlink="http://www.w3.org/1999/xlink" x="0px" y="0px"
	 viewBox="0 0 171.83 49.89" style="enable-background:new 0 0 171.83 49.89;" xml:space="preserve">
<style type="text/css">
	.st0{fill:#828282;}
	.st1{fill-rule:evenodd;clip-rule:evenodd;fill:#828282;}
</style>
<polygon class="st0" points="52.12,21.3 69.05,21.3 69.05,24.11 55.36,24.11 55.36,30.57 68.4,30.57 68.4,33.39 55.36,33.39 
	55.36,43.15 52.12,43.15 "/>
<path class="st0" d="M72.38,27.11h3.06v16h-3.06V27.11z M72.38,21.11h3.06v3.37h-3.06V21.11z"/>
<path class="st0" d="M80.65,27.11h3.06v2.94h0.06c1.02-2.12,3.16-3.47,5.51-3.49c0.59-0.03,1.17,0.04,1.74,0.19v3.3
	c-0.71-0.19-1.44-0.29-2.17-0.3c-3,0-5.14,1.77-5.14,5.26v8.15h-3.06V27.11z"/>
<path class="st0" d="M106.76,33.66c-0.4-2.75-2.84-4.72-5.61-4.53c-2.8-0.17-5.29,1.77-5.81,4.53H106.76z M95.25,36.05
	c0.31,2.99,2.9,5.22,5.9,5.08c1.75,0,4.14-0.58,5.18-2.84h3.24c-1.35,3.35-4.65,5.51-8.26,5.41c-6.25,0-9.31-3.94-9.31-8.57
	s3.06-8.57,9.31-8.57c4.22,0,8.69,2.45,8.69,9.09v0.4H95.25z"/>
<polygon class="st0" points="113.77,21.3 131.34,21.3 131.34,24.11 117.01,24.11 117.01,30.45 130.91,30.45 130.91,33.27 
	117.01,33.27 117.01,40.34 131.64,40.34 131.64,43.15 113.77,43.15 "/>
<path class="st0" d="M147.62,27.11h3.43l-8.39,18.8c-1.53,3.4-2.72,4-5.57,4c-0.77,0-1.53-0.06-2.33-0.13v-2.59
	c0.55,0,1,0.13,1.78,0.13c1.9,0,2.35-0.4,3.33-2.45l0.71-1.47l-7.41-16.29h3.52l5.51,12.68L147.62,27.11z"/>
<path class="st0" d="M166.41,33.66c-0.39-2.74-2.83-4.72-5.6-4.53c-2.8-0.16-5.29,1.77-5.81,4.53H166.41z M154.9,36.05
	c0.31,2.99,2.91,5.22,5.91,5.08c1.74,0,4.13-0.58,5.17-2.84h3.25c-1.35,3.34-4.63,5.49-8.23,5.41c-6.24,0-9.3-3.94-9.3-8.57
	s3.06-8.57,9.3-8.57c4.23,0,8.7,2.45,8.7,9.09v0.4L154.9,36.05z"/>
<path class="st1" d="M27.09,0c1.09,3.92,4.91,5.81,3.16,10.45c-0.91,2.48-4.05,4.89-1.9,8.24c-0.6,0.31-1.29-1.05-1.42-1.74
	c-0.57-3,1.91-6.69,1.9-9.82C28.83,4.22,26.73,2.89,27.09,0"/>
<path class="st1" d="M33.9,26.77c-2.24-1.78-7.19-1.89-9.35,0c-4.94,4.3-0.53,13.29,7.92,11.4c-6.88,4.09-16.57-1.83-13.78-11.09
	c-4.66,1.27-9.17,3.02-13.46,5.23c4.93,6.15,12.48,9.68,22.65,10.61C14.76,43.89,8.11,37,0,32.47C6.89,29,15.42,21.84,26.13,22.65
	C29.25,22.88,32.83,24.09,33.9,26.77"/>
<path class="st1" d="M32.26,16.52c-0.58,0.9-1.41,1.61-2.38,2.06c1.37-1.63,0.21-7.18,3-7.92c-0.46,5.58,4,7.47,7.13,10.78
	c2.52,2.68,5.22,5.77,4.59,11.56c-0.66,6.11-6.93,8.58-12.19,9.69c4.26-1.94,9.43-3.48,10.13-8.58
	C43.76,25.25,35.47,21.53,32.26,16.52"/>
<path class="st1" d="M36.72,25.15c2.55,2.56,3.88,7.65,0,10.42c-2.22,1.53-5.19,1.37-7.23-0.39c-0.8-0.81-1.15-1.96-0.93-3.07
	c0.37-1.73,2.53-3.58,4-2.12c-1.31-1.09-4,2.29-1.66,3.59c0.32,0.12,0.66,0.2,1,0.24c3.47,0.09,6.5-3.65,4-7.77
	c-0.37-0.62-0.79-1.21-1.26-1.77c0,0-1-1.25-0.44-1c0.33,0.14,0.64,0.31,0.94,0.5c0.16,0.12,1.24,0.93,1.66,1.35"/>
<path class="st0" d="M169.09,26c-0.02-0.12-0.02-0.25,0-0.37c0.03-0.11,0.08-0.22,0.13-0.32c0.06-0.1,0.13-0.2,0.22-0.28
	c0.08-0.09,0.18-0.16,0.28-0.22c0.1-0.06,0.21-0.1,0.32-0.14c0.12-0.03,0.25-0.05,0.37-0.05c0.12,0,0.24,0.02,0.36,0.05
	c0.11,0.03,0.23,0.08,0.33,0.14c0.1,0.06,0.2,0.13,0.28,0.22c0.08,0.08,0.16,0.18,0.22,0.28c0.05,0.1,0.1,0.21,0.13,0.32
	c0.04,0.12,0.05,0.24,0.05,0.37c0,0.12-0.01,0.24-0.05,0.36c-0.03,0.11-0.07,0.23-0.13,0.33c-0.07,0.1-0.14,0.19-0.22,0.28
	c-0.08,0.08-0.18,0.15-0.28,0.21c-0.1,0.06-0.21,0.11-0.33,0.14c-0.12,0.03-0.24,0.05-0.36,0.05c-0.12,0-0.25-0.02-0.37-0.05
	c-0.11-0.03-0.22-0.08-0.32-0.14c-0.1-0.06-0.2-0.13-0.28-0.21c-0.08-0.08-0.16-0.18-0.22-0.28c-0.06-0.1-0.1-0.22-0.13-0.33
	C169.07,26.24,169.07,26.12,169.09,26 M169.27,26c-0.02,0.11-0.02,0.21,0,0.32c0.02,0.1,0.06,0.2,0.12,0.29
	c0.05,0.09,0.11,0.17,0.18,0.24c0.07,0.07,0.15,0.14,0.24,0.19c0.09,0.05,0.18,0.09,0.28,0.12c0.11,0.02,0.21,0.02,0.32,0
	c0.16,0,0.31-0.03,0.46-0.09c0.14-0.06,0.27-0.15,0.38-0.26c0.11-0.11,0.2-0.24,0.26-0.38c0.06-0.15,0.09-0.31,0.09-0.47
	c0.01-0.11,0.01-0.21,0-0.32c-0.03-0.1-0.07-0.2-0.12-0.29c-0.06-0.09-0.12-0.17-0.19-0.25c-0.07-0.07-0.15-0.14-0.24-0.19
	c-0.09-0.05-0.18-0.09-0.28-0.12c-0.11-0.01-0.21-0.01-0.32,0c-0.16,0-0.32,0.03-0.47,0.09c-0.14,0.07-0.26,0.15-0.37,0.26
	c-0.11,0.11-0.19,0.24-0.25,0.39c-0.06,0.15-0.1,0.31-0.1,0.47 M170.18,26.17v0.66h-0.3v-1.68h0.55c0.17-0.01,0.34,0.03,0.48,0.12
	c0.1,0.08,0.16,0.21,0.15,0.34c0,0.11-0.03,0.22-0.1,0.3c-0.08,0.09-0.18,0.15-0.3,0.17l0.06,0.05c0,0.02,0,0.05,0,0.07l0.43,0.62
	h-0.28c-0.03,0.01-0.06,0.01-0.09,0l-0.38-0.57l0,0h-0.22L170.18,26.17z M170.18,25.95h0.22c0.06,0.01,0.11,0.01,0.17,0
	c0.04-0.01,0.08-0.03,0.12-0.05c0.03-0.03,0.05-0.06,0.06-0.09c0.01-0.04,0.01-0.09,0-0.13c0.01-0.04,0.01-0.08,0-0.12
	c0.01-0.03,0.01-0.06,0-0.09l-0.11-0.05h-0.16h-0.25L170.18,25.95z"/>
</svg>
