<?xml version="1.0" encoding="utf-8"?>
<!-- Generator: Adobe Illustrator 24.1.2, SVG Export Plug-In . SVG Version: 6.00 Build 0)  -->
<svg version="1.1" id="Layer_1" xmlns="http://www.w3.org/2000/svg" xmlns:xlink="http://www.w3.org/1999/xlink" x="0px" y="0px"
	 viewBox="0 0 211.14 39.05" style="enable-background:new 0 0 211.14 39.05;" xml:space="preserve">
<style type="text/css">
	.st0{fill:#828282;}
</style>
<path class="st0" d="M46.42,8.88v5.15H58v4.88H46.42v9.41h-5.33V4h18.64v4.88H46.42z M77.92,12.34c0,2-1.51,3.46-4.08,3.46h-5.41v-7
	h5.32C76.33,8.8,77.92,10.04,77.92,12.34L77.92,12.34z M84.14,28.34l-6-8.7c3.24-1.05,5.39-4.13,5.24-7.54v-0.09c0-5-3.47-8-9.15-8
	H63.1v24.31h5.33v-7.79h4.17l5.23,7.81H84.14z M106.86,16.27c0.15,4.01-2.97,7.38-6.97,7.53c-0.1,0-0.2,0.01-0.31,0.01
	c-4.09-0.02-7.39-3.35-7.37-7.45c0-0.06,0-0.12,0-0.18v-0.09c-0.16-4.01,2.96-7.39,6.97-7.55c0.1,0,0.2-0.01,0.31-0.01
	c4.11,0.04,7.42,3.41,7.37,7.52c0,0.07,0,0.14,0,0.21V16.27z M99.49,28.67c7.45,0,13-5.59,13-12.51v-0.09
	c0-6.84-5.42-12.43-12.87-12.43c-6.96-0.22-12.77,5.24-12.99,12.19c0,0.11-0.01,0.22-0.01,0.33v0.09
	C86.62,23.08,92.03,28.67,99.49,28.67 M138.49,28.32V4h-5.24v14.91L121.77,4h-4.89v24.32h5.24V12.87l11.72,15.45H138.49z
	 M162.9,8.97v-5h-20.19v5h7.37v19.35h5.32V8.97L162.9,8.97z M185.62,28.32v-4.79h-13.27v-5h11.45v-4.8h-11.45V8.79h13.05V4h-18.28
	v24.32H185.62z M211,28.32l-8.43-12.43L210.6,4h-6l-4.79,7.81L194.39,4h-6.21l8.08,11.89l-8.46,12.34h6l5.86-8.34l5.06,8.34H211
	V28.32z"/>
<path class="st0" d="M0,4L0,4v5.06l6,2c2.52-1.22,5.27-1.9,8.07-2h1L0,4z"/>
<path class="st0" d="M0,13.58L0,13.58v5.06h0.09v0.09l6,2c2.53-1.21,5.27-1.89,8.07-2h1L0,13.58z"/>
<path class="st0" d="M28.22,4c-5.14-0.89-8.78-4-14.11-4l0,0C8.79,0,5.11,3.11,0,4v5.06c5.15-0.89,8.79-4,14.11-4s9,3.11,14.11,4V4z
	"/>
<path class="st0" d="M28.22,23.17c-5.14-0.89-8.78-4-14.11-4l0,0c-5.32,0-9,3.1-14.11,4v5.06c5.15-0.89,8.79-4,14.11-4
	s9,3.11,14.11,4V23.17z"/>
<path class="st0" d="M28.22,13.58c-5.14-0.88-8.78-4-14.11-4l0,0c-5.32,0-9,3.11-14.11,4v5.06c5.15-0.89,8.79-4,14.11-4
	s9,3.1,14.11,4V13.58z"/>
<path class="st0" d="M0,32.53h4.08v1.2H1.51v1.42h2.4v1.15h-2.4v1.42h2.84v1.16H0V32.53z"/>
<path class="st0" d="M5,36.3v-3.72h1.48v3.72c0,1,0.44,1.51,1.42,1.51s1.42-0.53,1.42-1.68v-3.55h1.51v3.55
	c0.15,1.47-0.92,2.78-2.39,2.92C8.29,39.07,8.15,39.07,8,39.06C6.48,38.97,5,38.35,5,36.3z"/>
<path class="st0" d="M14.91,37.46l-0.71-0.8h-0.8v2.22h-1.51v-6.3h2.4c1.42,0,2.4,0.62,2.4,2c0,0.7-0.38,1.35-1,1.68l0.62,0.71
	c0.38,0.41,0.87,0.69,1.42,0.8l-0.35,1.16C16.38,38.84,15.47,38.3,14.91,37.46z M13.91,35.59c0.89,0,1.25-0.35,1.25-1
	s-0.27-0.89-1.07-0.89H13.4v1.86L13.91,35.59z"/>
<path class="st0" d="M17.84,35.68c-0.1-1.72,1.22-3.2,2.94-3.29c0.17-0.01,0.35-0.01,0.52,0.01c1.65-0.16,3.12,1.04,3.28,2.69
	c0.02,0.2,0.02,0.39,0,0.59c0,2-1.15,3.29-3.46,3.29c-1.65,0.16-3.12-1.04-3.28-2.69C17.82,36.08,17.82,35.88,17.84,35.68z
	 M22.99,35.68c0-1.15-0.54-2-1.78-2s-1.86,0.89-1.86,2s0.53,2.13,1.77,2.13c1.42-0.09,1.88-0.97,1.88-2.13H22.99z"/>
<path class="st0" d="M25.29,32.53h2.4c1.18-0.14,2.25,0.7,2.39,1.88c0.01,0.11,0.02,0.22,0.01,0.34c0,1.24-1,2.3-2.84,2.3H26.8v1.78
	h-1.51V32.53z M26.8,35.9h0.54c1,0,1.24-0.53,1.24-1.06c0.08-0.51-0.28-0.99-0.79-1.07c-0.09-0.01-0.19-0.01-0.28,0H26.8L26.8,35.9z
	"/>
<path class="st0" d="M30.8,32.53h4.08v1.2H32.3v1.42h2.4v1.15h-2.4v1.42h2.85v1.16H30.8V32.53z"/>
<path class="st0" d="M37.45,32.53h2l2.13,6.3h-1.6l-0.62-1.87h-2.17l-0.71,1.87H35L37.45,32.53z M39.05,35.9l-0.62-2.4l-0.71,2.4
	H39.05z"/>
<path class="st0" d="M42,32.53h1.77l2.4,4.35l0,0v-4.35h1.51v6.3h-1.8l-2.39-4.17l0,0v4.17H42V32.53z"/>
<path class="st0" d="M50.68,32.53h2.22c1.5,0,2.3,0.53,2.3,1.77c-0.01,0.49-0.28,0.93-0.71,1.16l0,0c0.68,0.18,1.16,0.79,1.16,1.5
	c0,1.16-0.71,2-2.49,2h-2.48V32.53z M52.68,35.19c0.62,0,1-0.18,1-0.71s-0.35-0.71-1.06-0.71h-0.45v1.42H52.68z M53,37.64
	c0.8,0,1.07-0.18,1.07-0.71s-0.36-0.8-1.24-0.8H52.1v1.51H53z"/>
<path class="st0" d="M56,35.68c-0.1-1.72,1.22-3.2,2.94-3.29c0.17-0.01,0.35-0.01,0.52,0.01c1.65-0.17,3.12,1.03,3.29,2.68
	c0.02,0.2,0.02,0.4,0,0.6c0,2-1.16,3.29-3.47,3.29c-1.65,0.16-3.12-1.04-3.28-2.69C55.98,36.08,55.98,35.88,56,35.68z M61.15,35.68
	c0-1.15-0.53-2-1.78-2s-1.86,0.89-1.86,2s0.53,2.13,1.78,2.13C60.71,37.72,61.15,36.84,61.15,35.68z"/>
<path class="st0" d="M66.56,37.46l-0.71-0.8h-0.8v2.22h-1.5v-6.3h2.39c1.42,0,2.4,0.62,2.4,2c0,0.7-0.38,1.35-1,1.68l0.62,0.71
	c0.38,0.41,0.87,0.69,1.42,0.8l-0.35,1.16C68.03,38.84,67.12,38.3,66.56,37.46z M65.5,35.59c0.88,0,1.24-0.35,1.24-1
	s-0.27-0.89-1.06-0.89H65v1.86L65.5,35.59z"/>
<path class="st0" d="M69.85,32.53h2.22c2.13,0,3.63,1,3.63,3.1s-1.33,3.2-3.63,3.2h-2.31v-6.3H69.85z M72.24,37.68
	c1.42,0,2-0.63,2-2s-0.71-2-2.21-2h-0.71v4H72.24z"/>
<path class="st0" d="M76.59,32.53h4.08v1.2H78.1v1.42h2.4v1.15h-2.4v1.42h2.84v1.16h-4.35V32.53z"/>
<path class="st0" d="M84.76,37.46l-0.71-0.8h-0.8v2.22h-1.51v-6.3h2.4c1.41,0,2.39,0.62,2.39,2c0.01,0.7-0.38,1.35-1,1.68l0.63,0.71
	c0.38,0.41,0.87,0.69,1.42,0.8l-0.36,1.16C86.21,38.86,85.3,38.31,84.76,37.46z M83.69,35.59c0.89,0,1.24-0.35,1.24-1
	s-0.26-0.89-1.06-0.89h-0.71v1.86L83.69,35.59z"/>
<path class="st0" d="M91.32,32.53h2l2.13,6.3h-1.6l-0.62-1.87h-2.17l-0.71,1.87h-1.51L91.32,32.53z M92.92,35.9l-0.62-2.4l-0.71,2.4
	H92.92z"/>
<path class="st0" d="M95.94,32.53h1.77l2.4,4.35l0,0v-4.35h1.51v6.3h-1.78l-2.39-4.3l0,0v4.17h-1.51V32.53z"/>
<path class="st0" d="M102.77,32.53H105c2.13,0,3.64,1,3.64,3.1s-1.33,3.2-3.64,3.2h-2.31v-6.3H102.77z M105.17,37.68
	c1.42,0,2-0.63,2-2s-0.71-2-2.22-2h-0.71v4H105.17z"/>
<path class="st0" d="M110.85,35.77c-0.08-1.72,1.26-3.18,2.98-3.26c0.16-0.01,0.32,0,0.48,0.02c0.68-0.03,1.37,0.09,2,0.35
	l-0.35,1.07c-0.48-0.18-0.99-0.28-1.51-0.27c-0.97-0.14-1.86,0.54-2,1.51c-0.02,0.16-0.02,0.33,0,0.49
	c-0.06,1.05,0.73,1.95,1.78,2.01c0.12,0.01,0.23,0,0.35-0.01c0.48,0,0.96-0.06,1.42-0.18l0.35,1.15c-0.61,0.27-1.28,0.39-1.95,0.36
	C112,38.97,110.85,37.81,110.85,35.77z"/>
<path class="st0" d="M116.53,35.68c-0.1-1.72,1.21-3.2,2.93-3.3c0.18-0.01,0.36-0.01,0.54,0.02c1.65-0.16,3.12,1.04,3.28,2.69
	c0.02,0.2,0.02,0.39,0,0.59c0,2-1.15,3.29-3.46,3.29c-1.65,0.17-3.12-1.03-3.29-2.68C116.51,36.09,116.51,35.88,116.53,35.68z
	 M121.68,35.68c0-1.15-0.54-2-1.78-2s-1.86,0.89-1.86,2s0.53,2.13,1.77,2.13C121.23,37.72,121.68,36.84,121.68,35.68z"/>
<path class="st0" d="M125.58,32.53h2l2.13,6.3h-1.59l-0.63-1.87h-2.13l-0.71,1.87h-1.5L125.58,32.53z M127.09,35.9l-0.62-2.4
	l-0.71,2.4H127.09z"/>
<path class="st0" d="M129.57,38.43l0.45-1.15c0.52,0.26,1.1,0.39,1.68,0.36c0.8,0,1.07-0.27,1.07-0.71c0-1.07-3-0.63-3-2.76
	c0.07-1.1,1.02-1.94,2.12-1.87c0.04,0,0.07,0.01,0.11,0.01c0.68-0.04,1.36,0.11,1.95,0.44l-0.44,1.16
	c-0.47-0.24-0.98-0.37-1.51-0.38c-0.39-0.05-0.75,0.23-0.8,0.62c0,0.8,3,0.71,3,2.67c0,1.42-1.33,1.95-2.57,1.95
	C130.93,38.93,130.18,38.81,129.57,38.43z"/>
<path class="st0" d="M136.32,33.73h-1.95v-1.15h5.41v1.15h-1.95v5.15h-1.51L136.32,33.73z"/>
<path class="st0" d="M141.73,35.77c0-2.31,1.25-3.28,3.55-3.28c0.64-0.01,1.28,0.1,1.87,0.35l-0.36,1.07
	c-0.48-0.18-0.99-0.27-1.51-0.27c-0.95-0.13-1.82,0.52-1.96,1.47c-0.03,0.18-0.02,0.36,0.01,0.53c-0.07,1.03,0.7,1.93,1.73,2
	c0.09,0.01,0.18,0.01,0.27,0h0.36v-2h1.51v2.89c-0.64,0.24-1.32,0.37-2,0.36C143.07,38.97,141.73,37.9,141.73,35.77z"/>
<path class="st0" d="M148,36.3v-3.72h1.51v3.72c0,1,0.44,1.51,1.42,1.51s1.42-0.53,1.42-1.68v-3.55h1.5v3.55
	c0.15,1.46-0.91,2.77-2.37,2.92c-0.16,0.02-0.32,0.02-0.48,0.01C149.46,38.97,148,38.35,148,36.3z"/>
<path class="st0" d="M156.29,32.53h2l2.13,6.3h-1.6l-0.62-1.87H156l-0.71,1.87h-1.49L156.29,32.53z M157.89,35.9l-0.62-2.4
	l-0.71,2.4H157.89z"/>
<path class="st0" d="M163.92,37.46l-0.71-0.8h-0.8v2.22h-1.51v-6.3h2.4c1.42,0,2.4,0.62,2.4,2c0,0.7-0.38,1.35-1,1.68l0.62,0.71
	c0.38,0.41,0.87,0.69,1.42,0.8l-0.35,1.16C165.38,38.86,164.46,38.31,163.92,37.46z M162.86,35.59c0.88,0,1.24-0.35,1.24-1
	s-0.27-0.89-1.07-0.89h-0.71v1.86L162.86,35.59z"/>
<path class="st0" d="M167.21,32.53h2.21c2.13,0,3.64,1,3.64,3.1s-1.33,3.2-3.64,3.2h-2.3v-6.3H167.21z M169.6,37.68
	c1.42,0,2-0.63,2-2s-0.71-2-2.22-2h-0.71v4H169.6z"/>
<path class="st0" d="M177.23,32.53h2l2.13,6.3h-1.6l-0.62-1.87H177l-0.71,1.87h-1.51L177.23,32.53z M178.74,35.9l-0.62-2.4
	l-0.71,2.4H178.74z"/>
<path class="st0" d="M181.41,35.77c0-2.31,1.24-3.28,3.55-3.28c0.64-0.01,1.27,0.1,1.86,0.35l-0.36,1.07
	c-0.48-0.18-0.99-0.27-1.5-0.27c-0.95-0.16-1.84,0.49-2,1.43c-0.03,0.19-0.03,0.38,0,0.57c-0.07,1.03,0.7,1.93,1.73,2
	c0.09,0.01,0.18,0.01,0.27,0h0.36v-2h1.51v2.89c-0.64,0.24-1.32,0.37-2,0.36C182.74,38.97,181.41,37.9,181.41,35.77z"/>
<path class="st0" d="M187.8,32.53h4.08v1.2h-2.58v1.42h2.4v1.15h-2.4v1.42h2.84v1.16h-4.34V32.53z"/>
<path class="st0" d="M192.85,32.53h1.78l2.4,4.35l0,0v-4.35h1.5v6.3h-1.77l-2.4-4.3l0,0v4.17h-1.51V32.53z"/>
<path class="st0" d="M199.33,35.77c-0.08-1.72,1.26-3.18,2.98-3.26c0.16-0.01,0.32,0,0.48,0.02c0.68-0.03,1.37,0.09,2,0.35
	l-0.36,1.07c-0.48-0.18-0.99-0.28-1.51-0.27c-0.97-0.11-1.85,0.59-1.96,1.56c-0.02,0.15-0.01,0.29,0.01,0.44
	c-0.06,1.05,0.73,1.95,1.78,2.01c0.12,0.01,0.23,0,0.35-0.01c0.48,0,0.96-0.06,1.42-0.18l0.36,1.15c-0.63,0.27-1.31,0.39-2,0.36
	C200.49,38.97,199.33,37.81,199.33,35.77z"/>
<path class="st0" d="M207.05,36.84l-2.3-4.26h1.77l1.42,3l1.51-3h1.69l-2.49,4.26v2.13h-1.51v-2.13H207.05z"/>
</svg>
