<?xml version="1.0" encoding="utf-8"?>
<!-- Generator: Adobe Illustrator 24.1.2, SVG Export Plug-In . SVG Version: 6.00 Build 0)  -->
<svg version="1.1" id="Layer_1" xmlns="http://www.w3.org/2000/svg" xmlns:xlink="http://www.w3.org/1999/xlink" x="0px" y="0px"
	 viewBox="0 0 166.33 49.82" style="enable-background:new 0 0 166.33 49.82;" xml:space="preserve">
<style type="text/css">
	.st0{fill:#828282;}
	.st1{fill:#969696;}
	.st2{fill:#6B6B6B;}
</style>
<path class="st0" d="M50.82,44.63c-0.43-0.52-0.85-1.06-1.27-1.6c0,0,0-0.07,0-0.1l0.16-0.11c0.13-0.11,0.28-0.19,0.43-0.26
	c0.12-0.06,0.23-0.14,0.32-0.25c0.09-0.09,0.11-0.23,0.18-0.33s0.26-0.41,0.38-0.62c0.04-0.07,0.07-0.16,0.07-0.24
	c0-0.16,0-0.33,0-0.49s0.06-0.13,0-0.18c-0.07-0.23-0.14-0.45-0.23-0.67c-0.06-0.21-0.19-0.39-0.36-0.52
	c-0.19-0.17-0.42-0.3-0.66-0.38c-0.23,0-0.45-0.13-0.68-0.19c-0.11-0.03-0.23-0.05-0.35-0.06c-0.1,0-0.2,0-0.3,0
	c-0.21-0.05-0.42-0.08-0.63-0.1c-0.24,0-0.48,0-0.71,0h-1.19h-0.61h-0.1L45,38.66c-0.05,0.02-0.08,0.06-0.11,0.1
	c-0.13,0.18-0.05,0.37-0.05,0.57c0,0.5,0,1,0,1.5c0,0.09,0,0.18,0,0.27v0.89v1.4c0,0.24,0,0.47,0,0.7s0.06,0.68,0.07,1
	c-0.02,0.29,0.04,0.57,0.18,0.82c0.06,0.07,0.1,0.15,0.13,0.24c0.11,0.22,0.37,0.32,0.6,0.25c0.15-0.06,0.2-0.21,0.29-0.3
	c0.17-0.16,0.25-0.4,0.21-0.63c0-0.51-0.05-1-0.06-1.52c0-0.19,0-0.38,0-0.58h0.27l0.55-0.06c0.25,0,0.5,0,0.75,0
	c0.04-0.01,0.09-0.01,0.13,0c0.21,0.19,0.41,0.39,0.59,0.6c0.23,0.27,0.32,0.64,0.58,0.89c0,0,0,0,0,0.06
	c0.11,0.18,0.2,0.38,0.32,0.55c0.12,0.15,0.25,0.29,0.39,0.43l-0.11,0.06h0.1c0.09,0.16,0.2,0.3,0.32,0.43
	c0.1,0.1,0.24,0.16,0.39,0.15c0.2-0.07,0.39-0.17,0.57-0.29c0-0.03,0-0.05,0-0.08l0.18-0.28c0.03-0.04,0.06-0.08,0.07-0.13
	c0.01-0.18-0.06-0.36-0.2-0.48c-0.19-0.18-0.37-0.37-0.53-0.57 M48.88,41.58c-0.13,0.06-0.23,0.19-0.36,0.24
	C48.35,41.9,48.18,41.96,48,42c-0.44,0-0.89,0.06-1.34,0.09c-0.13,0-0.24,0-0.24-0.17c0-0.35,0-0.7,0-1.05s0-0.48,0.07-0.72
	s0.08-0.27,0.33-0.26h1.25c0.45-0.01,0.89,0.05,1.32,0.18c0.23,0.04,0.38,0.26,0.34,0.48c0,0.02-0.01,0.04-0.01,0.06
	c-0.03,0.39-0.26,0.74-0.61,0.93"/>
<path class="st0" d="M38.19,44.65c0.12,0.24,0.22,0.5,0.28,0.76c-0.01,0.02-0.01,0.03,0,0.05c0.07,0.09,0.13,0.18,0.21,0.27
	s0.09,0.13,0.15,0.15l1,0.32c0.34,0.12,0.7,0.16,1.06,0.14c0.4,0.02,0.81-0.09,1.15-0.3c0.15-0.11,0.31-0.2,0.45-0.31
	c0.12-0.11,0.21-0.23,0.29-0.37c0.18-0.23,0.37-0.45,0.57-0.65c0.08-0.09,0.13-0.19,0.15-0.3c0.08-0.26,0.13-0.53,0.19-0.79
	s0.17-0.56,0.22-0.84c0.01-0.24,0.01-0.48,0-0.72c0.02-0.17,0.02-0.34,0-0.51c-0.09-0.39-0.21-0.78-0.35-1.16
	c-0.15-0.53-0.51-0.98-1-1.24c-0.06-0.04-0.09-0.1-0.09-0.17c0.03-0.13-0.05-0.27-0.18-0.31c-0.09-0.03-0.18-0.06-0.26-0.1
	c-0.39-0.18-0.85-0.18-1.24,0c-0.26,0.07-0.52,0.16-0.77,0.24c-0.38,0.1-0.72,0.31-1,0.59c-0.09,0.12-0.19,0.22-0.31,0.31
	c-0.22,0.16-0.4,0.39-0.49,0.65c-0.11,0.25-0.22,0.5-0.32,0.76c-0.05,0.12-0.08,0.25-0.09,0.38c0,0.11,0,0.23,0,0.34
	c-0.09,0.33-0.09,0.67,0,1c0.08,0.22,0.11,0.46,0.11,0.69c0.02,0.4,0.12,0.79,0.28,1.15 M39.26,41.33c0.12-0.45,0.35-0.85,0.69-1.17
	c0.16-0.16,0.37-0.27,0.59-0.32c0.14-0.03,0.28-0.08,0.41-0.14c0.07-0.07,0.19-0.07,0.26,0c0.06,0.1,0.14,0.19,0.23,0.27
	c0.1,0.07,0.21,0.12,0.32,0.15c0.11,0,0.21,0,0.23,0.19c-0.01,0.02-0.01,0.05,0,0.07c0.34,0.25,0.36,0.66,0.48,1
	c0.01,0.12,0.01,0.25,0,0.37l0,0c0,0.37,0,0.73,0,1.09c-0.03,0.15-0.07,0.3-0.13,0.44l-0.21,0.76l0,0c-0.22,0.38-0.54,0.69-0.93,0.9
	c-0.38,0.15-0.8,0.18-1.2,0.06c-0.04,0-0.09,0-0.13,0c-0.12,0.02-0.24-0.05-0.28-0.17c-0.15-0.3-0.28-0.61-0.37-0.93
	c-0.09-0.43-0.14-0.86-0.14-1.3c-0.02-0.41,0.02-0.82,0.13-1.22"/>
<path class="st0" d="M33.32,46.6c0.09,0.06,0.22,0.06,0.31,0c0.09-0.06,0.22-0.11,0.26-0.2c0.1-0.19,0.16-0.39,0.18-0.6
	c0-0.57,0-1.14,0-1.71c0-0.38,0-0.75,0-1.13c0-0.1,0-0.15,0.11-0.15c0.17-0.02,0.35-0.02,0.52,0c0.4,0.01,0.79,0.07,1.18,0.15
	c0.16,0.04,0.33,0.01,0.47-0.07c0.2-0.11,0.35-0.29,0.42-0.51c0.08-0.18,0.03-0.4-0.12-0.53c-0.09-0.07-0.22-0.09-0.28-0.17
	c-0.07-0.09-0.19-0.12-0.3-0.09c-0.06,0.01-0.13,0.01-0.19,0h-0.86h-0.76c-0.06-0.01-0.11-0.03-0.14-0.08
	c-0.01-0.12-0.01-0.23,0-0.35c0-0.23,0-0.46,0-0.69s0-0.54,0.06-0.81c0-0.05,0.09-0.11,0.13-0.12c0.51,0,1,0,1.51,0s0.71,0,1.07,0
	c0.16,0.02,0.33-0.03,0.45-0.14c0.07-0.08,0.13-0.17,0.21-0.25c0.11-0.13,0.15-0.3,0.12-0.46c0-0.09-0.29-0.26-0.38-0.28
	c-0.07-0.02-0.13-0.05-0.19-0.09l0,0c-0.14,0-0.29,0-0.44,0c-0.28-0.01-0.56-0.01-0.84,0c-0.6,0.07-1.21,0.1-1.82,0.09h-0.11
	c-0.19,0.04-0.38,0.07-0.58,0.08c-0.25-0.01-0.48,0.16-0.53,0.41c0,0.07,0,0.15,0,0.2c-0.13,0.26-0.18,0.55-0.14,0.84
	c0,0.42,0.09,0.84,0.11,1.26c-0.01,0.18-0.04,0.35-0.1,0.52c-0.01,0.05-0.01,0.11,0,0.16c0,0.07,0,0.14,0,0.22c0,0.38,0,0.77,0,1.15
	c0,0.1,0,0.19,0,0.28c0,0.33,0,0.66,0,1s0,0.64,0,1c-0.08,0.48,0.2,0.94,0.65,1.1"/>
<path class="st0" d="M119.48,49l0.47-0.39c0.04-0.05,0.08-0.1,0.1-0.16c0.05-0.19,0.02-0.39-0.06-0.56
	c-0.12-0.57-0.17-1.16-0.15-1.74c0-0.35,0-0.71,0-1.06c0-0.52-0.06-1-0.08-1.57s0-1,0-1.52s0-0.8,0-1.2s0-0.66,0-1
	c0-0.17,0.07-0.17,0.2-0.06c0.28,0.24,0.5,0.54,0.79,0.78c0.44,0.4,0.86,0.82,1.25,1.27l0.29,0.34l0.39,0.41l0.4,0.37
	c0.11,0.1,0.2,0.23,0.25,0.37c0,0,0.07,0.07,0.12,0.1l0.24,0.14c0.09,0,0.15,0.15,0.24,0.17c0.35,0.07,0.69,0.24,1.07,0
	c0.26-0.18,0.5-0.39,0.71-0.63c0.2-0.21,0.34-0.47,0.52-0.69c0.46-0.59,0.93-1.17,1.4-1.75c0.22-0.28,0.45-0.55,0.67-0.82
	s0.26-0.29,0.38-0.44h0.05c0,0.26,0,0.53,0,0.79c0.03,0.14,0.03,0.28,0,0.42c-0.05,0.19-0.05,0.4,0,0.59c0,0.46,0,0.92,0,1.38
	c-0.01,0.09-0.01,0.19,0,0.28c0,0.13,0.07,0.27,0.09,0.41s0,0.46,0.05,0.7c0,0.48,0.09,1,0.13,1.45s0.06,1,0.1,1.54
	c0.04,0.33,0.04,0.67,0,1c-0.02,0.11,0.01,0.22,0.08,0.31c0.21,0.21,0.44,0.42,0.67,0.61h0.59c0.12-0.07,0.23-0.14,0.34-0.19
	c0.17-0.17,0.25-0.41,0.22-0.65c-0.04-0.14-0.06-0.28-0.06-0.43c0.03-0.24,0-0.48-0.06-0.71c-0.04-0.1-0.06-0.21-0.08-0.32
	c0-0.25,0-0.49-0.05-0.74l-0.09-1.5c0.02-0.27-0.01-0.53-0.07-0.79c-0.12-0.31,0-0.62-0.1-0.93c-0.03-0.18-0.03-0.37,0-0.55
	c-0.04-0.4-0.04-0.79,0-1.19c0-0.11,0-0.22,0-0.33c0-0.49,0-1,0-1.48c0-0.18,0-0.36,0-0.54s0-0.15,0-0.22c0-0.23,0-0.47-0.09-0.7
	s0.09-0.46-0.07-0.71c-0.19-0.32-0.55-0.5-0.92-0.48l-0.47,0.09c-0.42,0.06-0.8,0.27-1.07,0.6c-0.21,0.28-0.4,0.57-0.61,0.85
	s-0.28,0.32-0.4,0.5c-0.25,0.34-0.47,0.7-0.73,1s-0.68,0.85-1,1.27c-0.21,0.27-0.44,0.53-0.65,0.8s-0.19,0.26-0.43,0.06l0,0
	c-0.27-0.17-0.36-0.51-0.66-0.68c-0.24-0.17-0.45-0.37-0.63-0.6c-0.32-0.36-0.62-0.73-0.95-1.07s-0.54-0.46-0.79-0.7s-0.65-0.66-1-1
	c-0.19-0.16-0.35-0.34-0.5-0.54c-0.26-0.43-0.69-0.48-1.11-0.57c0,0,0,0-0.08,0l-0.65,0.41c0.01,0.08,0.01,0.16,0,0.24
	c0,0.11,0,0.17,0,0.25c0.03,0.05,0.03,0.11,0,0.16c-0.15,0.18-0.21,0.42-0.17,0.65c0.06,0.3,0.05,0.62,0.08,0.93
	c0,0.13,0,0.26,0,0.39c0,0.51,0,1,0,1.52s0.09,1.22,0.08,1.83s0,1.1,0.06,1.66s0,1,0.06,1.46c0,0.22,0,0.45,0,0.68
	c0,0.44,0.06,0.89,0.1,1.33c0.01,0.09,0.04,0.19,0.08,0.27c0.17,0.3,0.42,0.55,0.72,0.72c0.19,0.09,0.42,0.09,0.61,0"/>
<path class="st0" d="M139.06,48.17c0-0.41,0-0.8,0-1.21s0-1,0-1.46c0-0.67,0.08-1.33,0.12-2c0-0.08,0-0.15,0-0.23
	c0-0.26,0-0.52,0-0.78c0-0.6,0.05-1.2,0.07-1.81c0.01-0.09,0.04-0.17,0.07-0.25l0.16,0.17l0.7,0.91c0.1,0.14,0.21,0.27,0.32,0.4
	l0.75,1c0.12,0.15,0.23,0.31,0.35,0.47s0.47,0.58,0.68,0.88s0.26,0.43,0.41,0.63c0.25,0.36,0.51,0.71,0.76,1.06l0.28,0.42l0.66,0.94
	c0.11,0.16,0.17,0.37,0.32,0.48c0.3,0.22,0.5,0.62,1,0.59h0.07c0.29,0.17,0.66,0.12,0.89-0.13l0.12-0.11
	c0.19-0.19,0.27-0.48,0.2-0.74c-0.03-0.08-0.05-0.16-0.06-0.24c0-0.2,0-0.41,0-0.61s0-0.7,0-1c0-0.55,0-1.1,0-1.65
	c0-0.2,0-0.41,0-0.62c0-0.5,0-1,0-1.49c0-0.27-0.05-0.55-0.05-0.82c0-0.46,0.05-0.9,0.06-1.35c0-0.29,0-0.59,0-0.87
	s0.11-0.3,0.1-0.45c0-0.22-0.04-0.43-0.11-0.64c-0.03-0.26-0.18-0.49-0.4-0.62c-0.2-0.12-0.43-0.19-0.67-0.21
	c-0.25-0.02-0.49,0.09-0.63,0.3c-0.16,0.24-0.48,0.39-0.38,0.77 M144.85,37.96c-0.08,0.07-0.08,0.19-0.01,0.27
	c0,0,0.01,0.01,0.01,0.01c0,0,0,0.1,0.05,0.16s0,0.33,0,0.5c0,0.36,0.05,0.73,0.06,1.1s0,0.89,0,1.33c0,0.06,0,0.12,0,0.18
	c0,0.41,0.06,0.82,0.08,1.23c0,0.18,0,0.37,0,0.55c0,0.37,0,0.74,0,1.11c0.01,0.18,0.01,0.36,0,0.54l0,0
	c-0.12-0.14-0.25-0.27-0.36-0.42c-0.26-0.38-0.52-0.78-0.77-1.17c-0.12-0.18-0.22-0.37-0.33-0.55c-0.08-0.13-0.16-0.26-0.25-0.38
	c-0.18-0.22-0.39-0.43-0.57-0.65c-0.12-0.17-0.24-0.34-0.38-0.5c-0.24-0.26-0.46-0.55-0.68-0.83s-0.33-0.44-0.5-0.66
	s-0.43-0.53-0.62-0.81s-0.48-0.71-0.72-1.06l-0.24-0.33c-0.16-0.24-0.33-0.48-0.5-0.71c-0.02-0.03-0.05-0.06-0.08-0.07
	c-0.2,0-0.41,0-0.61-0.11s-0.46,0.07-0.65,0.22c-0.1,0.09-0.2,0.17-0.3,0.24c-0.14,0.09-0.23,0.26-0.21,0.43
	c0.1,0.3,0.15,0.62,0.15,0.94c0,0.13,0.07,0.25,0,0.37c-0.05,0.56-0.05,1.11,0,1.67c0,0.34,0,0.69,0,1s-0.06,0.68-0.06,1
	s0,0.83,0,1.24s-0.08,0.91-0.08,1.36s0,0.93,0,1.4c0,0.16,0,0.33,0,0.5s0,0.6,0,0.9c-0.04,0.13,0,0.27,0.09,0.37l0.08,0.08
	c0.19,0.41,0.64,0.62,1.07,0.51c0.39-0.06,0.69-0.39,0.71-0.78"/>
<path class="st0" d="M94.83,48.86c0.14-0.19,0.2-0.43,0.17-0.66c-0.02-0.2-0.02-0.39,0-0.59c0-0.23,0-0.46,0-0.7v-0.85
	c0-0.18,0-0.37,0-0.55c0-0.51,0.1-1,0.14-1.52c0-0.3,0-0.6,0-0.91c0-0.5,0-1,0.07-1.51v-0.39h0.06c0.12,0.16,0.22,0.32,0.32,0.49
	c0.21,0.38,0.4,0.78,0.61,1.17s0.47,0.82,0.71,1.23c0.09,0.15,0.17,0.31,0.27,0.46s0.3,0.42,0.44,0.64s0.38,0.62,0.57,0.93
	c0.12,0.17,0.22,0.35,0.32,0.54c0.13,0.26,0.23,0.53,0.34,0.8c0.02,0.03,0.04,0.06,0.07,0.08c0.23,0.14,0.36,0.39,0.34,0.66
	c0,0.06,0.06,0.12,0.1,0.18l0.13,0.14c0.15,0.32,0.47,0.53,0.82,0.56c0.19,0.03,0.39-0.03,0.54-0.15c0.06-0.05,0.13-0.09,0.2-0.12
	c0.22-0.1,0.34-0.34,0.29-0.57c0-0.24,0-0.48,0-0.72c0-0.39,0-0.77,0-1.16s0-0.55,0.06-0.83s0-0.31,0-0.46l0.15-1.71
	c0.06-0.61,0.14-1.21,0.19-1.82c0-0.23,0-0.47,0-0.7c0-0.66,0-1.31,0.08-2c-0.01-0.19,0.02-0.38,0.09-0.56c0.16-0.28,0-0.51,0-0.73
	c-0.09-0.21-0.24-0.39-0.42-0.52c-0.12-0.11-0.27-0.17-0.43-0.18c-0.32-0.04-0.63,0.1-0.81,0.37c0,0-0.06,0-0.09,0.07
	s-0.14,0.11-0.15,0.17c0,0.43-0.07,0.85-0.08,1.27s0,0.94,0,1.42s0,0.67,0,1s0,0.9-0.08,1.35c0,0.09,0,0.18,0,0.27
	c-0.06,0.62-0.11,1.23-0.18,1.85c0,0,0,0.07-0.07,0.09s-0.06,0-0.08,0c-0.09-0.12-0.17-0.24-0.25-0.36l-0.38-0.63
	c-0.15-0.25-0.32-0.47-0.47-0.72s-0.39-0.68-0.58-1c-0.03-0.06-0.06-0.12-0.1-0.18l-0.51-0.85c-0.2-0.36-0.39-0.72-0.6-1.08
	s-0.34-0.55-0.51-0.84s-0.27-0.51-0.42-0.76s-0.32-0.38-0.33-0.65c0.01-0.03,0.01-0.07,0-0.1c-0.26-0.27-0.62-0.43-1-0.43
	c-0.27,0.09-0.51,0.25-0.71,0.45c-0.09,0.15-0.19,0.29-0.3,0.43c0.16,0.06-0.15,0.36,0.12,0.4c0,0.39,0,0.76,0,1.14s0,0.84,0,1.26
	c0,0.19,0,0.38,0,0.57c0,0.34,0,0.68,0,1c0,0.56-0.07,1.11-0.1,1.67s-0.09,1.25-0.13,1.87c0,0.31,0,0.62,0,0.92s0,0.33,0,0.49
	s0,0.45,0,0.68c-0.04,0.26,0.03,0.53,0.21,0.73c0.08,0.09,0.14,0.2,0.23,0.32c0.11,0.08,0.22,0.15,0.35,0.2
	c0.11,0.07,0.25,0.09,0.38,0.07c0.24-0.04,0.44-0.19,0.56-0.4"/>
<path class="st0" d="M84,48.53c0.09,0,0.18,0.09,0.27,0.13c0.24,0.16,0.49,0.3,0.76,0.41c0.26,0.06,0.52,0.09,0.79,0.11
	c0.17,0.04,0.35,0.06,0.52,0.08c0.15-0.02,0.3-0.06,0.44-0.12c0.24-0.08,0.48-0.18,0.71-0.28c0.26-0.1,0.5-0.23,0.72-0.39
	c0.27-0.27,0.53-0.56,0.76-0.86c0.15-0.17,0.28-0.34,0.45-0.54c0.03,0.19,0.03,0.38,0,0.57c-0.07,0.25-0.01,0.51,0.17,0.7
	c0.23,0.32,0.6,0.52,1,0.52c0.1-0.01,0.2-0.04,0.28-0.09c0.1-0.08,0.15-0.22,0.26-0.28c0.17-0.1,0.26-0.29,0.23-0.48
	c-0.01-0.47-0.05-0.94-0.12-1.4c-0.07-0.33-0.04-0.68,0.06-1c0-0.08,0-0.19,0-0.23c-0.08-0.14-0.1-0.3-0.06-0.45c0,0,0-0.1,0-0.14
	c-0.07-0.31-0.1-0.62-0.07-0.94c-0.01-0.18-0.01-0.36,0-0.54l0,0c0-0.06,0-0.12,0-0.19c0-0.48-0.07-1-0.1-1.44c0-0.21,0-0.42,0-0.63
	s0.08-0.29,0.08-0.43s0-0.54-0.08-0.81c-0.03-0.19-0.05-0.39-0.06-0.59c0.03-0.45-0.01-0.9-0.13-1.33c0-0.18-0.14-0.35-0.18-0.54
	c-0.09-0.32-0.43-0.51-0.75-0.42c-0.05,0.01-0.1,0.04-0.15,0.06c-0.28,0.21-0.55,0.43-0.82,0.66c-0.07,0.05-0.11,0.12-0.14,0.2
	c-0.12,0.2-0.15,0.44-0.06,0.66c0,0,0,0.08,0,0.12c-0.01,0.05-0.01,0.1,0,0.15c0.11,0.16,0,0.33,0,0.5s0,0.2,0,0.3v1.28v0.91
	c0,0.25,0,0.5,0,0.74s-0.1,0.44-0.12,0.66c-0.04,0.68-0.16,1.35-0.37,2c-0.14,0.37-0.3,0.74-0.48,1.09
	c-0.14,0.23-0.3,0.45-0.47,0.66c-0.26,0.36-0.66,0.59-1.1,0.63c-0.58,0.06-1.14-0.23-1.43-0.74c-0.07-0.12-0.13-0.24-0.19-0.36
	c-0.11-0.24-0.19-0.48-0.26-0.73c0-0.22-0.06-0.45-0.09-0.67s-0.13-0.71-0.16-1.07s0-0.57,0-0.85c0-0.5-0.09-1-0.11-1.49
	c-0.01-0.21-0.01-0.43,0-0.64c0-0.42,0-0.84,0-1.26s0.07-0.69,0.07-1c0.03-0.39-0.01-0.79-0.13-1.17c-0.08-0.16-0.19-0.3-0.31-0.43
	c-0.11-0.15-0.32-0.21-0.49-0.13L83,37c-0.26-0.04-0.51,0.07-0.66,0.28c-0.07,0.11-0.19,0.3-0.15,0.35s0,0.29,0,0.42
	c0,0.32,0,0.63-0.06,0.94c0,0.61-0.05,1.21-0.08,1.81v0.84c0,0.23,0,0.45,0,0.68s0,0.43,0,0.65c0.04,0.2,0.06,0.41,0.07,0.62
	c0.07,0.44,0.09,0.89,0.07,1.33c0,0.17,0.04,0.33,0.11,0.48c0.09,0.41,0.2,0.82,0.33,1.22c0.16,0.39,0.36,0.76,0.6,1.1
	c0.13,0.16,0.24,0.32,0.34,0.5c0.08,0.17,0.24,0.3,0.42,0.35"/>
<path class="st0" d="M151.21,48.91c0.46,0,0.92-0.07,1.37-0.15c0.36-0.09,0.72-0.19,1.07-0.32c0.22-0.06,0.44-0.14,0.65-0.23
	c0.34-0.17,0.64-0.4,0.9-0.68l0.84-0.93c0.07-0.1,0.13-0.2,0.18-0.31c0.32-0.46,0.54-0.99,0.63-1.54c0-0.34,0.11-0.68,0.15-1
	c0.08-0.51,0.08-1.02,0-1.53c0-0.13,0-0.26-0.07-0.4c-0.01-0.24-0.04-0.48-0.09-0.72c-0.1-0.38-0.24-0.74-0.37-1.11
	c-0.05-0.15-0.11-0.29-0.19-0.42c-0.15-0.33-0.36-0.63-0.61-0.89c-0.21-0.18-0.39-0.38-0.58-0.57c-0.06-0.04-0.12-0.09-0.17-0.14
	c-0.18-0.21-0.42-0.37-0.68-0.47c-0.24-0.13-0.48-0.25-0.73-0.36c-0.2-0.09-0.41-0.17-0.63-0.24l-0.9-0.25c-0.1-0.01-0.2-0.01-0.3,0
	h-0.8h-0.11c-0.26-0.11-0.56-0.11-0.82,0c-0.17,0.07-0.35,0.11-0.54,0.12c-0.23-0.05-0.47,0.05-0.6,0.25
	c-0.04,0.05-0.09,0.09-0.15,0.12c-0.34,0.14-0.5,0.52-0.38,0.86c0.14,0.56,0.2,1.14,0.16,1.72c0,0.29,0,0.57,0,0.85s0,0.61,0,0.91
	s-0.06,0.69-0.06,1s0.07,0.44,0.06,0.66c0,0.48-0.05,1-0.06,1.45s0,0.67,0,1c0,0.65,0,1.29-0.07,2c0,0.12,0,0.32,0.07,0.52
	s0.32,0.41,0.5,0.59c0.28,0.22,0.64,0.32,1,0.27C150.33,48.97,150.77,48.97,151.21,48.91 M150.27,47.06c0-0.12,0-0.25,0-0.37
	c0-0.29,0-0.58,0-0.87s0-0.73,0-1.09v-1.52c0-0.24,0-0.47,0-0.71s0.05-0.49,0.06-0.74s0-0.72,0-1.09s0-0.92,0-1.38
	c0-0.2,0-0.4,0-0.6s0-0.33,0.29-0.4c0.65-0.11,1.32-0.03,1.93,0.23c0.22,0.08,0.44,0.18,0.64,0.3c0.37,0.24,0.7,0.53,1,0.85
	c0.27,0.27,0.44,0.62,0.49,1c0.02,0.1,0.06,0.2,0.1,0.29c0.08,0.28,0.15,0.57,0.22,0.86l0,0c0,0.13,0,0.27,0,0.4
	c0.1,0.59,0.08,1.19-0.08,1.76c-0.12,0.41-0.17,0.84-0.31,1.25c-0.09,0.2-0.22,0.39-0.37,0.56c-0.19,0.25-0.39,0.49-0.61,0.71
	c-0.12,0.08-0.24,0.15-0.38,0.2c-0.15,0.1-0.32,0.18-0.49,0.24c-0.34,0.09-0.7,0.15-1,0.21s-0.44,0.09-0.66,0.11s-0.5,0-0.76,0
	s-0.18-0.06-0.15-0.2"/>
<path class="st0" d="M70.93,40.94c-0.14,0.51-0.3,1-0.42,1.53c-0.07,0.29-0.1,0.58-0.11,0.87c0,0.3,0.06,0.61,0,0.91
	c-0.03,0.57,0.09,1.14,0.36,1.64c0,0.1,0,0.23,0.09,0.33c0.07,0.13,0.14,0.26,0.2,0.4c0.1,0.31,0.25,0.6,0.45,0.86
	c0.22,0.31,0.57,0.52,0.77,0.86c0,0,0,0,0.06,0c0.19,0.02,0.37,0.1,0.52,0.23c0.29,0.15,0.6,0.26,0.92,0.34l0.3,0.08
	c0.22,0.07,0.46,0.12,0.69,0.15c0.27,0.02,0.53,0.02,0.8,0c0.5,0,1-0.12,1.45-0.35c0.26-0.14,0.55-0.24,0.82-0.38
	c0.2-0.09,0.39-0.21,0.56-0.35c0.38-0.31,0.72-0.68,1-1.09c0.14-0.26,0.35-0.49,0.47-0.76c0.15-0.32,0.27-0.66,0.36-1
	c0.1-0.41,0.16-0.82,0.24-1.24c0.07-0.28,0.12-0.57,0.16-0.86c0.02-0.33,0.02-0.67,0-1c0-0.45-0.08-0.89-0.12-1.33
	c-0.09-0.61-0.26-1.21-0.5-1.78c-0.17-0.34-0.39-0.66-0.65-0.95c0-0.07-0.14-0.11-0.19-0.18c-0.23-0.33-0.54-0.6-0.9-0.77
	c-0.16-0.09-0.38-0.11-0.45-0.34c0,0,0-0.05-0.06-0.06c-0.2-0.14-0.42-0.23-0.66-0.26c-0.39-0.04-0.77-0.04-1.16,0
	c-0.18,0.03-0.37,0.06-0.55,0.07c-0.25,0.02-0.49,0.08-0.72,0.18c-0.31,0.11-0.6,0.25-0.87,0.42c-0.23,0.11-0.44,0.25-0.63,0.41
	c-0.51,0.43-0.96,0.93-1.34,1.48c-0.35,0.46-0.61,0.98-0.77,1.53c0,0.15-0.08,0.29-0.12,0.44 M72.14,43.65c0-0.32,0.08-0.64,0.13-1
	c0.01-0.14,0.03-0.28,0.06-0.42c0.11-0.41,0.28-0.82,0.36-1.24c0.09-0.42,0.29-0.81,0.57-1.13c0.15-0.19,0.25-0.41,0.4-0.6
	c0.13-0.16,0.28-0.3,0.44-0.43c0.29-0.2,0.58-0.38,0.88-0.56c0.17-0.09,0.34-0.16,0.52-0.23c0.04-0.02,0.1-0.02,0.14,0
	c0.32,0.15,0.65,0.23,1,0.26c0.22,0.03,0.43,0.1,0.63,0.2c0.28,0.14,0.52,0.35,0.69,0.62c0.18,0.29,0.34,0.6,0.47,0.92
	c0.12,0.32,0.21,0.66,0.26,1c0.07,0.37,0.11,0.75,0.15,1.12c-0.02,0.4-0.06,0.79-0.12,1.18c-0.14,0.65-0.31,1.3-0.49,2
	c-0.16,0.59-0.51,1.1-1,1.47c-0.37,0.28-0.78,0.49-1.22,0.62c-0.65,0.22-1.35,0.22-2,0c-0.56-0.14-1.03-0.5-1.32-1
	c-0.1-0.19-0.16-0.39-0.25-0.58c-0.21-0.6-0.31-1.22-0.32-1.85c-0.01-0.13-0.01-0.27,0-0.4"/>
<path class="st0" d="M56.33,39.73c0.16,0.16,0.31,0.34,0.47,0.49l0.7,0.58c0.11,0.11,0.24,0.21,0.37,0.3
	c0.27,0.19,0.55,0.36,0.82,0.54l0.36,0.26c0.2,0.15,0.39,0.32,0.6,0.46c0.47,0.34,1,0.65,1.43,1s0.54,0.63,0.94,0.79
	c0,0,0.08,0.11,0.09,0.18c0.01,0.25,0.01,0.5,0,0.75c0,0.53,0,1-0.07,1.58c0,0.21,0,0.42,0,0.63s-0.18,0.68,0,1
	c0.01,0.04,0.01,0.08,0,0.12c-0.07,0.21-0.01,0.44,0.14,0.6c0.16,0.19,0.34,0.37,0.53,0.53c0.08,0.05,0.18,0.07,0.27,0.05
	c0.15-0.02,0.3-0.05,0.44-0.11c0.42-0.16,0.6-0.37,0.51-0.76c-0.02-0.18-0.02-0.37,0-0.55c0-0.33,0.06-0.67,0.07-1s0-0.88,0-1.32
	c0.05-0.48,0.05-0.96,0-1.44c-0.06-0.18,0.01-0.38,0.17-0.48c0.32-0.21,0.62-0.44,0.93-0.66l0.3-0.25c0.23-0.2,0.44-0.41,0.68-0.59
	s0.4-0.22,0.58-0.35s0.38-0.33,0.57-0.5l0.93-0.85l1.66-1.59c0.18-0.16,0.38-0.3,0.57-0.45s0.51-0.41,0.75-0.62
	c0.18-0.17,0.34-0.36,0.5-0.55c0.04-0.07,0.04-0.16,0-0.23c-0.09-0.2-0.19-0.4-0.31-0.58c-0.08-0.08-0.17-0.15-0.28-0.19
	c-0.3-0.1-0.64-0.08-0.92,0.08c-0.15,0.02-0.27,0.12-0.34,0.25c0,0.07-0.1,0.11-0.16,0.16l-0.7,0.59l-1,0.9l-1.35,1.25
	c-0.29,0.27-0.58,0.55-0.89,0.81s-0.64,0.5-0.95,0.75l-1,0.86c-0.15,0.13-0.31,0.25-0.49,0.35c-0.32,0.14-0.55-0.08-0.77-0.25
	s-0.46-0.39-0.7-0.57c-0.46-0.33-0.94-0.63-1.41-1s-0.71-0.52-1.07-0.78c-0.12-0.08-0.25-0.13-0.36-0.22s-0.45-0.37-0.67-0.56
	s-0.49-0.41-0.72-0.62s-0.47-0.48-0.7-0.71s-0.5-0.52-0.76-0.77s-0.61-0.67-1.12-0.62h-0.14c-0.17,0.07-0.35,0.16-0.51,0.25
	c-0.06,0.05-0.09,0.12-0.09,0.2c-0.02,0.27,0.08,0.53,0.27,0.72c0.28,0.33,0.57,0.66,0.86,1l0.74,0.82c0.1,0.11,0.23,0.19,0.33,0.29
	"/>
<path class="st0" d="M134.77,49.07c0.02-0.05,0.06-0.1,0.11-0.12c0.25-0.17,0.35-0.48,0.27-0.77c-0.01-0.09-0.01-0.19,0-0.28
	c0-0.65,0-1.3,0.05-1.95s0-1.34,0-2c0-0.16,0-0.33,0-0.5c0-0.41,0-0.83,0-1.24s0.07-0.87,0.1-1.31s0-0.71,0.05-1.07
	s0.08-0.75,0.12-1.13c0-0.03,0-0.06,0-0.09c0-0.18,0-0.36,0.13-0.47c0-0.09-0.09-0.16-0.12-0.23s-0.11-0.26-0.18-0.38
	s-0.14-0.18-0.2-0.28c-0.11-0.2-0.33-0.31-0.56-0.27c-0.3,0.01-0.58,0.12-0.82,0.3c-0.27,0.26-0.4,0.63-0.34,1c0,0.18,0,0.35,0,0.53
	s0,0.54,0,0.82v1.22l-0.09,1.63c0,0.56-0.05,1.11-0.07,1.67c-0.01,0.17-0.01,0.35,0,0.52c0,0.34,0.08,0.69,0.08,1
	c0,0.79,0,1.58-0.11,2.36c-0.02,0.29,0.07,0.57,0.25,0.8c0.25,0.31,0.65,0.47,1.05,0.42c0.12,0.01,0.24-0.07,0.27-0.19"/>
<path class="st0" d="M133.46,34.89c0.11,0.1,0.16,0.19,0.14,0.29l0.17,0.09c0.16,0.12,0.33,0.21,0.51,0.28
	c0.25,0.03,0.5-0.02,0.72-0.15c0.36-0.19,0.57-0.59,0.52-1c0-0.22-0.16-0.31-0.29-0.41c-0.17-0.16-0.36-0.29-0.57-0.39
	c-0.41-0.04-0.82,0.14-1.07,0.47c-0.04,0.09-0.1,0.17-0.16,0.24c-0.09,0.08-0.21,0.12-0.12,0.27s0.07,0.25,0.15,0.33"/>
<polygon class="st0" points="0,28.74 0.04,16.75 11.24,13.25 11.2,25.24 "/>
<polygon class="st1" points="11.2,25.24 11.24,13.25 18.83,18.47 18.79,30.46 "/>
<polygon class="st2" points="7.59,33.96 0,28.74 11.2,25.24 18.79,30.46 "/>
<polygon class="st2" points="10.98,12.64 14.03,5.67 17.94,14.89 14.89,21.87 "/>
<polygon class="st1" points="14.89,21.87 17.94,14.89 28.22,13.22 25.19,20.12 "/>
<polygon class="st0" points="17.94,14.89 14.03,5.67 24.3,4 28.22,13.22 "/>
<polygon class="st2" points="11.24,13.25 3.59,11.8 2.68,4.23 10.34,5.68 "/>
<polygon class="st0" points="10.34,5.68 2.68,4.23 6.92,0 14.57,1.45 "/>
<polygon class="st1" points="15.46,9.05 11.24,13.25 10.34,5.68 14.57,1.45 "/>
<path class="st0" d="M33,20.14h-1.88v-2.5H33c0-3.38,1.18-4.43,4.48-4.43c0.61,0,1.24,0,1.86,0.07V16c-0.33-0.04-0.67-0.06-1-0.06
	c-0.88,0-1.43,0.11-1.43,1.18v0.52h2.32v2.5h-2.39v9.28H33V20.14z"/>
<path class="st0" d="M39.9,17.64h3.75v2.06h0.05c0.55-1.46,1.99-2.39,3.54-2.29c0.31,0,0.61,0.03,0.91,0.09V21
	c-0.48-0.14-0.98-0.22-1.48-0.23c-1.5-0.11-2.8,1.02-2.9,2.52c-0.01,0.09-0.01,0.19-0.01,0.28v5.83H39.9V17.64z"/>
<path class="st0" d="M54.38,17.3c3.31-0.12,6.1,2.46,6.22,5.77c0.01,0.16,0.01,0.31,0,0.47c0,3.43-2.78,6.21-6.21,6.21
	c-3.43,0-6.21-2.78-6.21-6.21l0,0c-0.13-3.31,2.44-6.1,5.75-6.24C54.08,17.3,54.23,17.29,54.38,17.3 M54.38,26.81
	c1.79,0,2.36-1.77,2.36-3.27s-0.57-3.29-2.36-3.29S52,22,52,23.54s0.54,3.27,2.34,3.27"/>
<path class="st0" d="M61.37,17.64h3.74v1.61l0,0c0.83-1.23,2.22-1.96,3.7-1.95c3.92,0,4.24,2.86,4.24,4.56v7.56h-3.81v-5.7
	c0-1.61,0.18-3.24-1.93-3.24c-1.45,0-2.09,1.22-2.09,2.52v6.42h-3.85V17.64z"/>
<path class="st0" d="M81.77,20.14h-2.38v5.35c0,0.93,0.55,1.14,1.39,1.14c0.31,0,0.65-0.05,1-0.05v2.84c-0.7,0-1.4,0.11-2.11,0.11
	c-3.29,0-4.13-1-4.13-4.15v-5.24h-2v-2.5h2v-3.56h3.86v3.56h2.38L81.77,20.14z"/>
<path class="st0" d="M86.57,16.16h-3.86v-2.95h3.86V16.16z M82.71,17.64h3.86v11.78h-3.86V17.64z"/>
<path class="st0" d="M91.37,24.47c-0.09,1.39,0.96,2.59,2.35,2.68c0.09,0.01,0.19,0.01,0.28,0c0.93,0.05,1.8-0.46,2.21-1.29h3.61
	c-0.71,2.72-3.23,3.9-5.86,3.9c-3.84,0-6.45-2.31-6.45-6.26c-0.01-3.41,2.74-6.19,6.16-6.2c0.07,0,0.14,0,0.2,0
	c4.22,0,6.33,3.18,6.15,7.17H91.37z M96.16,22.32c0.01-1.29-1-2.36-2.29-2.41c-1.34,0.02-2.43,1.08-2.5,2.41H96.16z"/>
<path class="st0" d="M101,17.64h3.74v2.06h0.05c0.55-1.46,1.99-2.38,3.54-2.29c0.31,0,0.61,0.03,0.91,0.09V21
	c-0.48-0.14-0.98-0.22-1.48-0.23c-1.49-0.11-2.79,1.02-2.89,2.51c-0.01,0.1-0.01,0.19-0.01,0.29v5.83H101V17.64z"/>
<path class="st0" d="M113.51,25.54c-0.01,0.52,0.22,1.01,0.63,1.32c0.42,0.28,0.92,0.42,1.43,0.4c0.75,0,1.82-0.31,1.82-1.24
	s-1.21-1.09-1.89-1.25c-2.43-0.62-5.47-0.68-5.47-3.86c0-2.84,3.07-3.61,5.38-3.61c2.59,0,5.29,0.75,5.43,3.81h-3.57
	c0.03-0.4-0.17-0.78-0.5-1c-0.37-0.21-0.79-0.31-1.22-0.29c-0.64,0-1.66,0.06-1.66,0.88c0,1.11,2.59,1.32,4.36,1.7
	c1.65,0.18,2.92,1.53,3,3.18c0,3.16-3,4.2-5.66,4.2s-5.65-0.93-5.76-4.22L113.51,25.54z"/>
</svg>
