<?xml version="1.0" encoding="utf-8"?>
<!-- Generator: Adobe Illustrator 24.1.2, SVG Export Plug-In . SVG Version: 6.00 Build 0)  -->
<svg version="1.1" id="Layer_1" xmlns="http://www.w3.org/2000/svg" xmlns:xlink="http://www.w3.org/1999/xlink" x="0px" y="0px"
	 viewBox="0 0 50 50" style="enable-background:new 0 0 50 50;" xml:space="preserve">
<style type="text/css">
	.st0{fill:#FFFFFF;}
	.st1{fill:#828282;}
</style>
<path class="st0" d="M23.18,1.27c12.88-0.98,24.19,8.5,25.48,21.36c0.5,4.79-0.48,9.62-2.81,13.84c-2.34,4.24-5.92,7.67-10.25,9.83
	c-3.41,1.72-7.18,2.57-11,2.49c-5.23-0.08-10.29-1.88-14.39-5.13C-0.09,35.48-1.81,20.5,6.37,10.19c2.24-2.82,5.1-5.1,8.35-6.66
	C17.37,2.25,20.24,1.49,23.18,1.27 M18.97,3.53c-4.16,1.05-7.82,3.53-10.34,7c-1.6,2.36-2.66,5.05-3.09,7.87
	c-0.37,1.75-0.18,3.57,0.55,5.2c0.4,0.78,1.09,1.38,1.44,2.19c0.34,0.76,0.08,1.66-0.61,2.12c-0.7,0.42-1.59,0.34-2.2-0.2
	c-0.8-0.74-1.3-1.75-1.41-2.83c-0.25-2.36,0-4.74,0.71-7c-0.47,0.2-0.4,0.85-0.58,1.26c-1.04,3.99-1,8.19,0.1,12.16
	c1.02,3.84,3.26,7.24,6.37,9.7c2.4,1.8,5.19,2.99,8.15,3.49c1.77,0.43,3.63,0.29,5.32-0.38c0.81-0.41,1.43-1.12,2.23-1.56
	c0.69-0.36,1.53-0.23,2.08,0.32c0.59,0.65,0.64,1.62,0.12,2.33c-0.59,0.68-1.39,1.15-2.27,1.33c-1.89,0.38-3.84,0.35-5.71-0.09
	c-0.66-0.18-1.32-0.32-2-0.41c0.42,0.31,0.91,0.51,1.42,0.58c3.71,0.9,7.57,0.9,11.28,0c4.32-0.96,8.16-3.44,10.79-7
	c1.55-2.29,2.59-4.88,3.06-7.61c0.3-2,0.45-4.25-0.76-6c-0.56-0.83-1.47-1.63-1.29-2.74c0.12-0.91,0.95-1.55,1.86-1.44
	c0.12,0.02,0.24,0.04,0.35,0.09c1.16,0.54,1.95,1.65,2.08,2.92c0.35,2.46,0.13,4.97-0.64,7.33c0.15-0.01,0.28-0.13,0.31-0.28
	c1.1-3.5,1.32-7.22,0.66-10.83c-0.67-4.29-2.76-8.23-5.94-11.18c-1.97-1.76-4.32-3.03-6.87-3.71c-2.11-0.76-4.39-0.94-6.6-0.52
	c-1.02,0.34-1.96,0.88-2.76,1.61c-0.76,0.59-1.83,0.55-2.55-0.09c-0.55-0.68-0.55-1.65,0-2.33c0.73-0.84,1.75-1.37,2.86-1.5
	c1.71-0.21,3.44-0.12,5.12,0.25c0.66,0.19,1.33,0.35,2,0.47c-0.13-0.13-0.29-0.24-0.46-0.3c-4.14-1.32-8.58-1.39-12.76-0.22
	L18.97,3.53z"/>
<path class="st0" d="M19.54,12c0.92-0.52,2.04-0.56,3-0.11c0.7,0.46,1.09,1.27,1,2.11c-0.2,1.62-0.86,3.16-1.91,4.41
	c-1.06,1.32-2.43,2.35-4,3c0.1,0.53,0.53,0.94,1.07,1c0.98-0.07,1.91-0.51,2.58-1.23c0.52-0.39,0.55-1.08,0.79-1.63
	c0.28-0.92,0.88-1.72,1.7-2.23c0.42-0.28,0.99-0.21,1.32,0.18c0.22,0.6,0.12,1.28-0.27,1.79c-0.46,0.73-0.98,1.43-1.55,2.08
	c-0.17,0.65-0.25,1.33-0.24,2c0.69-0.34,1.36-0.73,2-1.15c1.21-0.68,2.38-1.42,3.51-2.22c0.05-0.44,0.05-0.87,0-1.31
	c-0.11-2.12,0.61-4.2,2-5.81c0.87-1.03,2.22-1.52,3.55-1.28c0.79,0.17,1.41,0.77,1.63,1.54c0.21,1.15-0.04,2.33-0.71,3.29
	c-1.08,1.57-2.43,2.92-4,4c0.14,0.55,0.5,1.01,1,1.27c0.77-0.22,1.58-0.3,2.38-0.21c0.58,0.03,1.1,0.33,1.43,0.81
	c0.25,0.52-0.22,1-0.69,1.21c-1.02,0.22-2.08,0.25-3.11,0.07c-1.23,0.33-2.3,1.07-3.06,2.09c-1.14,1.61-1.6,3.6-1.29,5.54
	c0.19,1.64,1.08,3.12,2.44,4.05c1.65,1.02,3.78,0.79,5.17-0.57c1.25-1.33,1.61-3.25,0.93-4.94c-0.27-0.75-0.9-1.3-1.67-1.47
	c-0.96-0.22-1.91,0.38-2.13,1.33c0,0.01,0,0.02-0.01,0.03c-0.02,0.73,0.29,1.43,0.84,1.91c0.35,0.35,0.35,0.92,0,1.27
	c-0.02,0.02-0.03,0.03-0.05,0.05c-0.71,0.37-1.57,0.2-2.1-0.39c-1.27-1.39-1.27-3.52,0-4.91c1.68-1.77,4.47-1.84,6.23-0.16
	c0.04,0.03,0.07,0.07,0.11,0.1c1.72,2.02,1.97,4.9,0.62,7.18c-1.02,1.74-2.77,2.94-4.77,3.25c-2.2,0.33-4.43-0.42-6-2
	c-2.91-3.22-2.95-8.12-0.09-11.39c0.79-0.86,1.71-1.58,2.74-2.14c-0.21-0.29-0.44-0.57-0.67-0.85c-1.93,1.39-3.93,2.68-6,3.85
	c-0.36,0.13-0.3,0.56-0.35,0.86c-0.18,2.57-0.4,5.25-1.68,7.55c-0.81,1.69-2.2,3.03-3.92,3.77c-1.41,0.6-3.02,0.5-4.35-0.27
	c-1.18-0.84-1.82-2.25-1.68-3.69c0.26-1.77,1.14-3.39,2.48-4.57c1.83-1.53,3.84-2.81,6-3.82c0.44-0.21,0.87-0.45,1.27-0.73
	c0.12-0.39,0.2-0.79,0.21-1.19c-1.07,0.78-2.43,1.04-3.71,0.68c-0.99-0.45-1.72-1.32-2-2.37c-0.98-0.07-1.9-0.53-2.54-1.27
	c-1.04-1.32-1.22-3.13-0.45-4.63c0.29-0.52,0.86-0.81,1.45-0.73c0.11,0.22,0.32,0.44,0.24,0.72c-0.3,0.92-0.37,1.91-0.18,2.86
	c0.15,0.66,0.69,1.16,1.36,1.26c0.08-1.56,0.46-3.1,1.13-4.51C17.18,13.94,18.23,12.78,19.54,12 M20.44,13.51
	c-0.83,0.66-1.48,1.52-1.9,2.49c-0.56,1.08-0.9,2.26-1,3.47c0.37-0.14,0.71-0.35,1-0.61c1.16-0.99,2.12-2.19,2.81-3.55
	c0.28-0.48,0.39-1.05,0.31-1.6c-0.17-0.38-0.63-0.55-1.01-0.38c-0.05,0.02-0.1,0.05-0.14,0.09 M32.32,13.89
	c-1.07,1.26-1.65,2.87-1.63,4.53c1.24-0.97,2.27-2.18,3.06-3.54c0.21-0.44,0.49-1.16,0-1.48s-1.05,0.12-1.38,0.49 M16.08,29.8
	c-1.13,0.89-1.98,2.08-2.45,3.43c-0.29,0.77-0.14,1.63,0.4,2.25c0.72,0.48,1.65,0.54,2.42,0.14c1.41-0.68,2.49-1.9,3-3.39
	c0.69-1.73,1.14-3.55,1.31-5.4c-1.68,0.79-3.24,1.8-4.65,3L16.08,29.8z"/>
<path class="st1" d="M23.19,0.07c4.97-0.36,9.93,0.77,14.25,3.25c11.98,6.87,16.12,22.15,9.25,34.12
	c-3.01,5.26-7.83,9.24-13.56,11.21C23.94,51.81,13.75,49.36,7,42.37c-6.91-7.19-8.89-17.79-5.06-27C3.6,11.44,6.23,8,9.59,5.37
	C13.49,2.28,18.23,0.43,23.19,0.07 M23.19,1.27c-2.94,0.22-5.81,0.98-8.46,2.26C2.88,9.21-2.13,23.42,3.55,35.28
	c3.9,8.13,12.06,13.37,21.08,13.51c3.82,0.08,7.59-0.77,11-2.49c4.33-2.16,7.91-5.59,10.25-9.83c2.33-4.22,3.31-9.05,2.81-13.84
	C47.4,9.76,36.07,0.28,23.19,1.27L23.19,1.27z"/>
<path class="st1" d="M18.97,3.53c4.18-1.17,8.62-1.1,12.76,0.22c0.17,0.06,0.33,0.17,0.46,0.3c-0.67-0.12-1.34-0.28-2-0.47
	c-1.68-0.37-3.41-0.46-5.12-0.25c-1.11,0.13-2.12,0.66-2.86,1.5c-0.55,0.68-0.55,1.65,0,2.33C22.93,7.8,24,7.84,24.76,7.25
	c0.8-0.73,1.75-1.28,2.78-1.61c2.2-0.41,4.47-0.23,6.57,0.52c2.55,0.68,4.9,1.95,6.87,3.71c3.17,2.96,5.26,6.89,5.92,11.18
	c0.66,3.61,0.44,7.33-0.66,10.83c-0.03,0.15-0.15,0.27-0.31,0.28c0.77-2.36,0.99-4.87,0.64-7.33c-0.12-1.26-0.89-2.37-2.03-2.92
	c-0.87-0.3-1.81,0.16-2.11,1.02c-0.04,0.11-0.06,0.22-0.08,0.33c-0.18,1.11,0.73,1.91,1.29,2.74c1.21,1.73,1.06,4,0.76,6
	c-0.47,2.74-1.53,5.34-3.09,7.63c-2.63,3.56-6.47,6.04-10.79,7c-3.71,0.9-7.57,0.9-11.28,0c-0.52-0.08-1.02-0.3-1.43-0.63
	c0.68,0.09,1.34,0.23,2,0.41c1.87,0.44,3.82,0.47,5.71,0.09c0.88-0.2,1.67-0.68,2.25-1.37c0.52-0.71,0.47-1.68-0.12-2.33
	c-0.55-0.55-1.39-0.68-2.08-0.32c-0.8,0.44-1.42,1.15-2.23,1.56c-1.69,0.67-3.55,0.81-5.32,0.38c-2.94-0.48-5.71-1.66-8.11-3.42
	c-3.11-2.46-5.35-5.86-6.37-9.7c-1.11-3.97-1.14-8.16-0.11-12.15c0.18-0.41,0.11-1.06,0.58-1.26c-0.71,2.26-0.96,4.64-0.71,7
	c0.12,1.08,0.63,2.09,1.44,2.82c0.61,0.54,1.5,0.62,2.2,0.2c0.69-0.47,0.94-1.36,0.6-2.12c-0.35-0.81-1-1.41-1.44-2.19
	c-0.73-1.63-0.93-3.45-0.56-5.2c0.43-2.8,1.48-5.48,3.07-7.83c2.52-3.47,6.18-5.95,10.34-7 M19.54,12c-1.32,0.79-2.37,1.97-3,3.38
	c-0.67,1.4-1.07,2.92-1.16,4.47c-0.67-0.1-1.21-0.6-1.36-1.26c-0.19-0.95-0.12-1.94,0.18-2.86c0.08-0.28-0.13-0.5-0.24-0.72
	c-0.58-0.05-1.13,0.25-1.41,0.76c-0.81,1.5-0.66,3.33,0.37,4.68c0.67,0.75,1.62,1.19,2.62,1.22c0.28,1.05,1.01,1.92,2,2.37
	c1.28,0.36,2.64,0.1,3.71-0.68c-0.01,0.4-0.09,0.8-0.21,1.19c-0.4,0.28-0.83,0.52-1.27,0.73c-2.16,1.01-4.17,2.29-6,3.82
	c-1.34,1.18-2.22,2.8-2.48,4.57c-0.14,1.44,0.5,2.85,1.68,3.69c1.33,0.77,2.94,0.87,4.35,0.27c1.72-0.74,3.11-2.08,3.92-3.77
	c1.28-2.3,1.5-5,1.68-7.55c0.05-0.3,0-0.73,0.35-0.86c2.07-1.17,4.07-2.46,6-3.85c0.23,0.28,0.46,0.56,0.67,0.85
	c-1.03,0.56-1.95,1.28-2.74,2.14c-2.87,3.27-2.84,8.18,0.09,11.41c1.57,1.58,3.8,2.33,6,2c2-0.31,3.75-1.51,4.77-3.25
	c1.35-2.28,1.1-5.16-0.62-7.18c-1.71-1.73-4.5-1.76-6.24-0.05c-0.04,0.03-0.07,0.07-0.1,0.11c-1.27,1.39-1.27,3.52,0,4.91
	c0.53,0.59,1.39,0.76,2.1,0.39c0.38-0.32,0.42-0.89,0.1-1.27c-0.02-0.02-0.03-0.03-0.05-0.05c-0.55-0.48-0.86-1.18-0.84-1.91
	c0.18-0.97,1.1-1.61,2.07-1.43c0.02,0,0.04,0.01,0.06,0.01c0.78,0.16,1.42,0.7,1.7,1.45c0.68,1.69,0.32,3.61-0.93,4.94
	c-1.39,1.35-3.52,1.59-5.17,0.57c-1.36-0.93-2.25-2.41-2.44-4.05c-0.31-1.94,0.15-3.93,1.29-5.54c0.76-1.02,1.83-1.76,3.06-2.09
	c1.03,0.18,2.09,0.15,3.11-0.07c0.47-0.16,0.94-0.69,0.69-1.21c-0.33-0.48-0.85-0.78-1.43-0.81c-0.8-0.09-1.61-0.01-2.38,0.21
	c-0.5-0.26-0.86-0.72-1-1.27c1.57-1.08,2.92-2.43,4-4c0.67-0.96,0.92-2.14,0.71-3.29c-0.22-0.77-0.84-1.37-1.63-1.54
	c-1.34-0.25-2.71,0.25-3.58,1.3c-1.43,1.59-2.18,3.68-2.1,5.82c0.08,0.43,0.12,0.86,0.1,1.3c-1.11,0.83-2.25,1.6-3.44,2.31
	c-0.65,0.42-1.31,0.8-2,1.15c-0.01-0.67,0.07-1.35,0.24-2c0.57-0.65,1.09-1.35,1.55-2.08c0.39-0.51,0.49-1.19,0.27-1.79
	c-0.33-0.39-0.9-0.46-1.32-0.18c-0.82,0.51-1.42,1.31-1.7,2.23c-0.24,0.55-0.27,1.24-0.79,1.63c-0.67,0.72-1.6,1.16-2.58,1.23
	c-0.54-0.06-0.97-0.47-1.07-1c1.57-0.65,2.94-1.68,4-3c1.04-1.29,1.68-2.85,1.84-4.5c0.11-0.86-0.27-1.7-1-2.17
	C21.57,11.4,20.45,11.46,19.54,12z"/>
<path class="st1" d="M20.44,13.46c0.33-0.25,0.81-0.19,1.06,0.15c0.03,0.04,0.06,0.09,0.09,0.14c0.08,0.55-0.03,1.12-0.31,1.6
	c-0.69,1.36-1.65,2.56-2.81,3.55c-0.29,0.26-0.63,0.47-1,0.61c0.12-1.23,0.48-2.42,1.07-3.51c0.42-1.01,1.09-1.9,1.95-2.58
	L20.44,13.46z M32.25,13.93c0.33-0.37,0.89-0.75,1.38-0.49s0.26,1,0,1.48c-0.79,1.36-1.82,2.57-3.06,3.54
	C30.56,16.8,31.16,15.19,32.25,13.93z M16.08,29.8c1.41-1.2,2.97-2.21,4.65-3c-0.18,1.85-0.62,3.67-1.31,5.4
	c-0.51,1.49-1.59,2.71-3,3.39c-0.77,0.4-1.7,0.34-2.42-0.14c-0.54-0.62-0.69-1.48-0.4-2.25c0.47-1.35,1.32-2.54,2.45-3.43
	L16.08,29.8z"/>
</svg>
