<?xml version="1.0" encoding="utf-8"?>
<!-- Generator: Adobe Illustrator 24.1.2, SVG Export Plug-In . SVG Version: 6.00 Build 0)  -->
<svg version="1.1" id="Layer_1" xmlns="http://www.w3.org/2000/svg" xmlns:xlink="http://www.w3.org/1999/xlink" x="0px" y="0px"
	 viewBox="0 0 275.7 50" style="enable-background:new 0 0 275.7 50;" xml:space="preserve">
<style type="text/css">
	.st0{fill-rule:evenodd;clip-rule:evenodd;fill:#828282;}
</style>
<g id="_--Symbols">
	<g id="Footer-1440">
		<g id="Logo">
			<path id="Fill-1" class="st0" d="M100,18.1c-0.02-0.36,0.25-0.67,0.61-0.69c0.03,0,0.06,0,0.08,0c0.66,0,1.65,0.69,2.21,2.09
				c-0.2,0-0.5,0.06-0.7,0.06C101,19.56,100,18.99,100,18.1z M27.71,18.1c-0.02-0.36,0.25-0.67,0.61-0.69c0.03,0,0.06,0,0.09,0
				c0.64,0,1.59,0.69,2.15,2.09C28.71,19.5,27.71,19.1,27.71,18.1z M41.71,10.91c0-7.46,1.45-8.6,1.9-8.6c0.8,0,0.9,0.5,0.9,3.35
				c-0.1,3.17-1.06,6.25-2.8,8.9L41.71,10.91z M92.46,18.25c-1.05,1.49-1.59,3.28-1.56,5.1c0,4.2,2.39,8.21,7,8.21
				c4.5,0,7.65-3.56,7.65-8.52c0.03-0.75-0.02-1.49-0.15-2.23c0.95-0.45,1.84-1.03,2.65-1.71c0.39-0.36,0.88-0.61,1.4-0.7
				c0.45,0,0.65,0.35,0.65,1v9.8c0,1.6,0.5,2.36,1.75,2.36c1.08-0.06,2.02-0.75,2.4-1.76c1.65-3.45,4-8,5.09-9.79
				c0.25-0.4,0.46-0.71,0.6-0.71s0.3,0.15,0.3,0.8v7.81c0,2.19,1,3.65,3.2,3.65s3.45-2.21,5.46-5.61c0.09-0.15,0.13-0.32,0.14-0.5
				c-0.02-0.4-0.35-0.72-0.76-0.7c-0.01,0-0.02,0-0.03,0c-0.46,0-0.71,0.45-2.2,2.1c-0.31,0.31-0.6,0.74-1.16,0.74
				c-0.19,0-0.35-0.24-0.35-0.54V18.3c0-2.36-1-3.3-2.4-3.3c-1.27,0.01-2.42,0.72-3,1.85c-1.6,2.54-3.07,5.16-4.39,7.85
				c-0.11,0.21-0.25,0.5-0.35,0.5s-0.15-0.15-0.15-0.5v-6.4c0-1.85-0.5-3.3-2.45-3.3s-3.1,1.4-4.6,2.45
				c-0.77,0.58-1.59,1.08-2.45,1.5c-1-2.55-2.85-3.84-4.4-3.8c-1.38-0.08-2.57,0.98-2.65,2.36c0,0.08-0.01,0.16,0,0.25
				c-0.01,1.49,0.93,2.82,2.35,3.29c0.78,0.29,1.62,0.41,2.45,0.36c0.26,0.01,0.53-0.01,0.79-0.06c0.08,0.58,0.1,1.17,0.06,1.75
				c0,2.46-1.45,4.9-4.15,4.9s-4.45-2.7-4.45-5.8c-0.07-2.04,0.58-4.04,1.84-5.64c0.46-0.5,0.81-0.81,0.81-1.27
				c0-0.23-0.35-0.29-0.65-0.29c-1.91,0.12-3.77,0.67-5.44,1.6c-2.16,1.2-4.17,2.64-6,4.3c-0.9-2-2-3.75-2.55-5.11
				c-0.2-0.55-0.35-1.18-0.75-1.18s-0.51,0.34-0.75,1c-0.9,2.66-5.7,10.41-6.75,11.46c-0.1,0.15-0.24,0.3-0.29,0.3
				s-0.17,0-0.17-0.35V18.3c0-2.36-0.95-3.3-2.24-3.3c-1.27-0.01-2.44,0.71-3,1.85c-1.64,2.5-3.65,6.15-4.6,8
				c-0.15,0.31-0.3,0.4-0.35,0.4s-0.09-0.2-0.09-0.5V18.3c0-2.36-1-3.3-2.26-3.3c-1.27-0.02-2.44,0.7-3,1.85
				c-2.09,3.55-5.59,9-6.24,9.9c-0.08,0.12-0.18,0.22-0.3,0.3c-0.1,0-0.16-0.1-0.16-0.35v-8.4c0-2.36-0.95-3.3-2.24-3.3
				c-1.8,0-2.8,1.65-3.46,2.7c-0.9,1.45-2.09,3.4-3,5.21c-0.35,0.83-0.82,1.6-1.41,2.29c-0.09,0-0.09-0.45-0.09-1.3v-6.7
				c3.23-3.37,5.07-7.83,5.18-12.5c0-2.7-1.19-4.2-3-4.2c-3.45,0-6.1,5.41-6.1,11.8v5.2c-1.53,0.94-3.23,1.57-5,1.85
				c-0.94-2.79-2.95-4.24-4.54-4.2c-1.38-0.08-2.57,0.98-2.65,2.36c0,0.08-0.01,0.16,0,0.25c0,2.64,2.6,3.74,4.9,3.74h0.65
				c0.08,0.53,0.11,1.07,0.09,1.6c0,2.46-1.44,4.9-4.14,4.9s-4.45-2.7-4.45-5.8c-0.08-2.04,0.57-4.04,1.84-5.64
				c0.39-0.33,0.67-0.78,0.81-1.27c0-0.23-0.35-0.29-0.65-0.29c-1.9,0-6.1,2.56-11.1,7.56c-0.53-3.88-0.84-7.79-0.95-11.71
				c0.03-2.99,0.36-5.98,1-8.9c0.1-0.44,0.17-0.89,0.21-1.34c0-0.4-0.22-0.61-0.76-0.61C8.9,0,0,6.45,0,16.1
				C0,23,2.51,26.25,6.85,30.5C4.21,34.75,2.1,39.8,2.1,44.3c0,3.24,0.75,5.7,3.15,5.7c5,0,8.74-10.39,8.74-18.1
				c0-2.3-0.09-4.6-0.28-6.9c1.84-2,4.69-4.6,5.39-4.85c-0.31,1.04-0.48,2.12-0.5,3.2c0,4.2,2.4,8.21,7,8.21
				c4.4,0,7.7-3.56,7.7-8.56c0-0.64-0.06-1.19-0.1-1.79c1.57-0.24,3.07-0.77,4.45-1.55v10.09c-0.08,0.92,0.6,1.73,1.52,1.81
				c0.08,0.01,0.15,0.01,0.23,0c1.15,0,1.75-0.81,2.59-2.65c0.71-1.51,2.6-4.95,3.75-7c0.91-1.6,1.41-2.65,1.81-2.65
				c0.1,0,0.2,0.25,0.2,0.85v8.55c0,2.3,1.2,2.91,2.24,2.91c0.97-0.05,1.85-0.61,2.31-1.47c2.6-3.7,5.35-8.1,6.44-10
				c0.21-0.34,0.45-0.6,0.66-0.6s0.29,0.11,0.29,0.75v9c0,1.6,0.5,2.36,1.76,2.36c1.06-0.06,1.98-0.76,2.34-1.76
				c1.66-3.45,4.1-8,5.15-9.79c0.25-0.4,0.5-0.76,0.65-0.76s0.25,0.25,0.25,0.9v8.5c0,2.3,1.2,2.91,2.26,2.91c1.39,0,2.3-1,3.2-2.16
				c1.64-2.15,4-6,5.49-8.45c0.57,0.9,1.07,1.83,1.51,2.8c-1.21,1.45-2.41,3.1-2.41,4.85c-0.13,1.52,0.99,2.86,2.51,2.99
				c0.05,0,0.09,0.01,0.14,0.01c2.3,0,4.4-2.21,4.4-5.26c-0.05-1.25-0.32-2.48-0.8-3.64c2-2,4.5-4,6.31-4.41L92.46,18.25z
				 M10.09,29.15c0.43,2.41,0.68,4.85,0.76,7.3c0,4.79-1.6,10.4-4.35,10.35c-1.06,0-1.95-1.06-2-2.9C4.4,37.9,7.25,32.8,10.09,29.15
				z M83.09,25.75c0.28,0.72,0.43,1.48,0.45,2.25c0,0.8-0.3,1.6-0.85,1.6c-0.39,0-0.79-0.45-0.79-1.15
				C82.06,27.46,82.47,26.53,83.09,25.75z M11.9,1.9c0,0.31-0.7,1.7-1.6,4.2c-1.24,3.45-1.86,7.09-1.85,10.75
				c0.18,3.26,0.59,6.5,1.21,9.7l-1.61,2.16C5.5,25.6,3.9,22.11,3.9,16.1c0-8.49,5.15-14.39,7.8-14.39
				C11.86,1.71,11.9,1.76,11.9,1.9z"/>
			<path id="Fill-4" class="st0" d="M246.66,18.1c-0.02-0.36,0.25-0.67,0.61-0.69c0.03,0,0.06,0,0.09,0c0.65,0,1.65,0.69,2.2,2.09
				c-0.2,0-0.5,0.06-0.71,0.06C247.66,19.56,246.66,19,246.66,18.1z M174.37,18.1c-0.02-0.36,0.25-0.67,0.61-0.69
				c0.03,0,0.06,0,0.09,0c0.65,0,1.61,0.69,2.15,2.09C175.37,19.5,174.37,19.1,174.37,18.1L174.37,18.1z M188.32,10.91
				c0-7.46,1.44-8.6,1.9-8.6c0.79,0,0.9,0.5,0.9,3.35c-0.1,3.17-1.06,6.25-2.8,8.9L188.32,10.91z M156.73,29.15
				c0.41,2.41,0.66,4.85,0.75,7.3c0,4.79-1.6,10.4-4.36,10.35c-1,0-1.94-1.06-2-2.9C151.01,37.9,153.87,32.8,156.73,29.15
				L156.73,29.15z M229.73,25.75c0.28,0.72,0.42,1.48,0.44,2.25c0,0.8-0.29,1.6-0.84,1.6c-0.4,0-0.81-0.45-0.81-1.15
				C228.68,27.46,229.09,26.53,229.73,25.75L229.73,25.75z M158.52,1.9c0,0.31-0.7,1.7-1.6,4.2c-1.24,3.45-1.86,7.09-1.85,10.75
				c0.19,3.26,0.6,6.5,1.21,9.7l-1.6,2.16c-2.55-3.11-4.16-6.6-4.16-12.61c0-8.49,5.16-14.39,7.81-14.39
				C158.47,1.71,158.52,1.76,158.52,1.9L158.52,1.9z M150.18,26.9c1,1.29,2.1,2.49,3.3,3.6c-2.66,4.25-4.75,9.3-4.75,13.8
				c0,3.24,0.75,5.7,3.15,5.7c5,0,8.74-10.39,8.74-18.1c0-2.3-0.09-4.6-0.3-6.9c1.86-2,4.7-4.6,5.41-4.85
				c-0.31,1.04-0.49,2.12-0.51,3.2c0,4.2,2.4,8.21,7.05,8.21c4.35,0,7.65-3.56,7.65-8.52c0-0.64,0-1.19-0.1-1.79
				c1.57-0.24,3.07-0.76,4.45-1.55v10.05c-0.08,0.92,0.6,1.73,1.52,1.81c0.07,0.01,0.14,0.01,0.21,0c1.16,0,1.76-0.81,2.61-2.65
				c0.7-1.51,2.6-4.95,3.75-7c0.9-1.6,1.4-2.65,1.81-2.65c0.09,0,0.19,0.25,0.19,0.85v8.55c0,2.3,1.19,2.91,2.25,2.91
				c0.97-0.05,1.85-0.61,2.31-1.46c2.59-3.7,5.34-8.1,6.44-10c0.2-0.34,0.45-0.6,0.64-0.6s0.31,0.11,0.31,0.75v9
				c0,1.6,0.49,2.36,1.74,2.36c1.07-0.06,1.99-0.76,2.36-1.76c1.65-3.45,4.1-8,5.14-9.79c0.26-0.4,0.51-0.76,0.66-0.76
				s0.25,0.25,0.25,0.9v8.5c0,2.3,1.19,2.91,2.24,2.91c1.41,0,2.31-1,3.2-2.16c1.98-2.73,3.82-5.55,5.52-8.46
				c0.57,0.9,1.07,1.83,1.5,2.8c-1.21,1.45-2.4,3.1-2.4,4.85c-0.14,1.51,0.96,2.84,2.47,2.99c0.06,0.01,0.12,0.01,0.17,0.01
				c2.3,0,4.4-2.21,4.4-5.26c-0.05-1.25-0.32-2.48-0.8-3.64c2.05-2,4.5-4,6.3-4.41c-1.04,1.5-1.58,3.28-1.55,5.1
				c0,4.2,2.4,8.21,7.05,8.21c4.5,0,7.64-3.56,7.64-8.52c0.04-0.75-0.01-1.49-0.14-2.23c0.95-0.46,1.85-1.03,2.66-1.71
				c0.38-0.36,0.86-0.61,1.38-0.7c0.46,0,0.67,0.35,0.67,1v9.8c0,1.6,0.49,2.36,1.74,2.36c1.08-0.06,2.02-0.75,2.4-1.76
				c1.64-3.45,4-8,5.09-9.79c0.25-0.4,0.46-0.71,0.61-0.71s0.3,0.15,0.3,0.8V28c0,2.19,1,3.65,3.2,3.65s3.45-2.21,5.45-5.61
				c0.09-0.15,0.13-0.32,0.14-0.5c-0.02-0.41-0.37-0.72-0.78-0.7c0,0-0.01,0-0.01,0c-0.45,0-0.71,0.45-2.2,2.1
				c-0.3,0.31-0.6,0.74-1.15,0.74c-0.21,0-0.35-0.24-0.35-0.54V18.3c0-2.36-1.06-3.3-2.41-3.3c-1.25,0.03-2.38,0.74-2.94,1.85
				c-1.61,2.53-3.07,5.16-4.39,7.85c-0.11,0.21-0.26,0.5-0.36,0.5s-0.15-0.15-0.15-0.5v-6.4c0-1.85-0.5-3.3-2.45-3.3
				s-3.1,1.4-4.6,2.45c-0.77,0.58-1.59,1.08-2.46,1.5c-1-2.55-2.84-3.84-4.38-3.8c-1.38-0.08-2.56,0.96-2.65,2.34
				c-0.01,0.09-0.01,0.18,0,0.27c-0.01,1.48,0.92,2.81,2.33,3.29c0.79,0.28,1.63,0.41,2.47,0.36c0.27,0.01,0.54-0.01,0.8-0.06
				c0.05,0.58,0.05,1.17,0,1.75c0,2.46-1.45,4.9-4.15,4.9s-4.44-2.7-4.44-5.8c-0.08-2.04,0.57-4.04,1.83-5.64
				c0.46-0.5,0.81-0.81,0.81-1.27c0-0.23-0.35-0.29-0.65-0.29c-1.9,0.13-3.75,0.67-5.42,1.6c-2.16,1.2-4.17,2.64-6,4.3
				c-0.91-2-2-3.75-2.56-5.11c-0.2-0.55-0.34-1.18-0.75-1.18s-0.5,0.34-0.75,1c-0.9,2.66-5.7,10.41-6.74,11.46
				c-0.11,0.15-0.25,0.3-0.31,0.3s-0.15,0-0.15-0.35V18.3c0-2.36-0.94-3.3-2.25-3.3c-1.25,0.01-2.39,0.73-2.95,1.85
				c-1.65,2.5-3.65,6.15-4.6,8c-0.14,0.31-0.29,0.4-0.34,0.4s-0.11-0.2-0.11-0.5V18.3c0-2.36-0.94-3.3-2.24-3.3
				c-1.28-0.02-2.45,0.7-3,1.85c-2.11,3.55-5.6,9-6.26,9.9c-0.06,0.13-0.17,0.24-0.3,0.3c-0.09,0-0.14-0.1-0.14-0.35v-8.4
				c0-2.36-0.95-3.3-2.26-3.3c-1.8,0-2.79,1.65-3.45,2.7c-0.9,1.45-2.09,3.4-3,5.21c-0.35,0.83-0.82,1.6-1.4,2.29
				c-0.1,0-0.1-0.45-0.1-1.3v-6.7c3.2-3.38,5.02-7.84,5.1-12.5c0-2.7-1.2-4.2-3.06-4.2c-3.44,0-6.09,5.41-6.09,11.8v5.2
				c-1.53,0.94-3.23,1.57-5,1.85c-0.94-2.79-2.94-4.24-4.53-4.2c-1.38-0.08-2.57,0.97-2.66,2.35c-0.01,0.09-0.01,0.17,0,0.26
				c0,2.64,2.59,3.74,4.9,3.74h0.65c0.08,0.53,0.12,1.06,0.1,1.6c0,2.46-1.45,4.9-4.15,4.9s-4.44-2.7-4.44-5.8
				c-0.07-2.04,0.58-4.04,1.84-5.64c0.38-0.34,0.66-0.78,0.8-1.27c0-0.23-0.35-0.29-0.65-0.29c-1.9,0-6.1,2.56-11.1,7.56
				c-0.53-3.88-0.84-7.79-0.95-11.71c0.03-2.99,0.36-5.98,1-8.9c0.08-0.44,0.13-0.89,0.15-1.34c0-0.4-0.2-0.61-0.74-0.61
				c-4.05,0-13,6.45-13,16.1c-0.08,3.24,0.78,6.44,2.49,9.2c-0.47-0.08-0.94-0.11-1.41-0.1c-1.35,0.05-2.69,0.25-4,0.6v-1
				c0-2.14-0.51-5.1-1.41-6.1c-0.11-0.1-0.25-0.15-0.4-0.15c-0.52,0.05-1.01,0.22-1.45,0.5c-0.61,0.3-1.2,0.61-1.2,0.8
				c0,0.16,0.05,0.32,0.15,0.45c0.91,1.1,1.48,2.44,1.64,3.86c-1.61-1.66-3.86-2.56-6.18-2.46c-3,0-3.91,1.34-3.91,2.7
				c0,2.6,3.45,3.9,7.81,3.9c0.87-0.03,1.74-0.14,2.59-0.35c0,0.8,0.1,1.51,0.1,2.1c0,0.85,0.14,1.51,0.7,1.51
				c0.85,0,1.35-1.71,1.45-4.16c1.47-0.42,2.98-0.67,4.5-0.74c0.76,0.01,1.51,0.09,2.25,0.24L150.18,26.9z M140.33,26.4
				c-0.74,0.08-1.49,0.12-2.24,0.1c-2,0-3.4-0.75-3.4-1.84c0-0.7,0.35-1.11,1.35-1.11C137.64,23.55,138.93,24.66,140.33,26.4z"/>
		</g>
	</g>
</g>
</svg>
