<?xml version="1.0" encoding="utf-8"?>
<!-- Generator: Adobe Illustrator 24.1.2, SVG Export Plug-In . SVG Version: 6.00 Build 0)  -->
<svg version="1.1" id="Layer_1" xmlns="http://www.w3.org/2000/svg" xmlns:xlink="http://www.w3.org/1999/xlink" x="0px" y="0px"
	 viewBox="0 0 349.72 50" style="enable-background:new 0 0 349.72 50;" xml:space="preserve">
<style type="text/css">
	.st0{fill:#828282;}
</style>
<path class="st0" d="M173.57,2.8C191-0.7,209-0.64,226.54,1.46c7.27,0.94,14.83,1.89,21.24,5.73c3.74,2.17,6.63,6.11,6.77,10.53
	c-12,0.25-24,0.12-36,0.09c-3.58-4.18-9.3-5.49-14.57-5.73c-7.06-0.24-14.4,0.29-20.87,3.37C177.69,18,173,22.84,171.56,28.83
	c-0.71,2.72,1.05,5.55,3.45,6.78c4.63,2.36,9.94,2.64,15,2.83c6.68,0.27,13.63-1,19.29-4.68c0.57-0.32,1.06-0.93,1.77-0.84
	c12.12-0.04,24.24-0.04,36.37,0c-4.18,4.67-9.73,7.88-15.51,10.15c-7.3,2.7-14.9,4.5-22.63,5.37c-8.52,1.09-17.09,1.61-25.68,1.56
	c-11.63-0.06-23.39-0.82-34.6-4.07c-5.18-1.61-10.39-4.08-13.77-8.48c-2.75-3.62-3.27-8.46-1.36-12.58c2.39-5.29,7.07-9.12,12-12
	c8.64-4.79,18-8.17,27.71-10L173.57,2.8z"/>
<path class="st0" d="M21,1.67c12.6-0.2,25.2,0.12,37.81,0.07c-2.32,5.23-4.67,10.46-7,15.69c12.27,0,24.53-0.05,36.79,0
	C91,12.25,93.28,7,95.68,1.73c12.95,0,25.9,0,38.85,0c-7.02,15.51-14.03,31.05-21.02,46.62c-10.85,0.23-21.7,0.09-32.55,0.12
	c-2.05,0.08-4.11,0.01-6.15-0.22c2.87-6.1,5.58-12.28,8.34-18.42H46.24c-2.66,6.17-5.42,12.3-8,18.5C25.49,48.6,12.75,48.5,0,48.42
	C6.91,32.78,14.09,17.28,21,1.67z"/>
<path class="st0" d="M272.72,1.59h39.07c-5.28,11.84-10.58,23.66-15.91,35.46c17.94,0,35.89,0.02,53.84,0.05
	c-1.71,3.78-3.42,7.56-5.12,11.35c-30.95,0-61.9,0-92.84,0c6.9-15.65,14-31.24,21-46.85L272.72,1.59z"/>
</svg>
