<?xml version="1.0" encoding="utf-8"?>
<!-- Generator: Adobe Illustrator 24.1.2, SVG Export Plug-In . SVG Version: 6.00 Build 0)  -->
<svg version="1.1" id="Layer_1" xmlns="http://www.w3.org/2000/svg" xmlns:xlink="http://www.w3.org/1999/xlink" x="0px" y="0px"
	 viewBox="0 0 119.63 49.96" style="enable-background:new 0 0 119.63 49.96;" xml:space="preserve">
<style type="text/css">
	.st0{fill:#828282;}
</style>
<path id="path3346" class="st0" d="M38.38,9.2H2.56V2.56h35.82V9.2z M40.94,0H0v11.76h40.94V0z"/>
<g id="g3348">
	<path id="path3350" class="st0" d="M2.56,31.19H0V19.43h2.56v4.65h4.57v-4.65h2.56v11.76H7.13v-4.88H2.56V31.19"/>
</g>
<g id="g3352">
	<path id="path3354" class="st0" d="M13.56,26h3c-0.05-0.86-0.41-1.47-1.41-1.47C14.31,24.51,13.6,25.16,13.56,26z M15.5,31.34
		c-2.24,0.17-4.19-1.5-4.36-3.74c-0.01-0.19-0.02-0.39,0-0.58c0-2.62,1.73-4.42,4-4.42c2.51,0,3.75,1.67,3.75,4.17v0.94h-5.33
		c0.24,1.07,1.25,1.78,2.34,1.64c0.82,0.02,1.63-0.22,2.31-0.68h0.1v1.94C17.47,31.14,16.49,31.39,15.5,31.34"/>
</g>
<g id="g3356">
	<path id="path3358" class="st0" d="M25.59,26.26l-1.32,4.93H22l-2.56-8.28v-0.1h2.45l1.39,5l1.32-5h2l1.34,5l1.41-5h2.35v0.1
		l-2.56,8.28h-2.22L25.59,26.26"/>
</g>
<g id="g3360">
	<path id="path3362" class="st0" d="M35.88,31.37c-2,0-2.86-0.81-2.86-2.7v-9.24h2.48v9.07c0,0.58,0.22,0.79,0.71,0.79
		c0.2-0.01,0.39-0.05,0.57-0.12l0,0v2c-0.3,0.1-0.62,0.15-0.94,0.15"/>
</g>
<g id="g3364">
	<path id="path3366" class="st0" d="M39.94,26H43c-0.06-0.86-0.42-1.47-1.41-1.47c-0.85-0.06-1.59,0.58-1.65,1.42
		C39.94,25.97,39.94,25.98,39.94,26z M41.88,31.34c-2.24,0.17-4.2-1.51-4.37-3.75c-0.01-0.19-0.02-0.38,0-0.57
		c0-2.62,1.73-4.42,4-4.42c2.5,0,3.74,1.67,3.74,4.17v0.94h-5.31c0.23,1.07,1.25,1.78,2.33,1.64c0.82,0.02,1.64-0.22,2.32-0.68h0.09
		v1.94C43.84,31.14,42.87,31.39,41.88,31.34"/>
</g>
<g id="g3368">
	<path id="path3370" class="st0" d="M55.48,22.81h1.84v2h-1.84v3.4c0,0.74,0.28,1.08,1,1.08c0.26,0,0.52-0.04,0.76-0.12l0,0v2
		c-0.49,0.17-1,0.25-1.52,0.24c-2,0-2.8-0.92-2.8-3v-3.6h-3.1v3.4c0,0.74,0.28,1.08,1,1.08c0.26,0,0.51-0.04,0.75-0.12h0.06v2
		c-0.49,0.17-1,0.25-1.52,0.24c-2,0-2.81-0.92-2.81-3v-3.6h-1.25v-2h1.28v-2.29h2.49v2.29H53v-2.29h2.48V22.81"/>
</g>
<g id="g3372">
	<path id="path3374" class="st0" d="M65.69,25.2c0.92,0.13,1.78-0.52,1.91-1.44c0.02-0.11,0.02-0.23,0.01-0.34
		c0.08-0.94-0.61-1.76-1.55-1.84c-0.12-0.01-0.25-0.01-0.37,0.01h-1.62v3.61H65.69z M70.2,23.42c0,2.56-1.71,3.95-4.3,3.95h-1.83
		v3.82h-2.56V19.43h4.39c2.59,0,4.3,1.39,4.3,4"/>
</g>
<g id="g3376">
	<path id="path3378" class="st0" d="M75.66,28.55v-0.71c-0.43-0.21-0.9-0.3-1.37-0.28c-0.81,0-1.3,0.3-1.3,1s0.49,1,1.22,1
		C74.87,29.59,75.46,29.17,75.66,28.55z M75.74,30.36c-0.55,0.65-1.37,1.02-2.23,1c-1.51,0.14-2.84-0.96-2.99-2.47
		c-0.01-0.1-0.01-0.2-0.01-0.3c0-1.64,1.34-2.73,3.26-2.73c0.63,0.01,1.26,0.1,1.86,0.29V26c0-0.91-0.51-1.3-1.84-1.3
		c-0.83,0-1.64,0.23-2.36,0.64h-0.09v-2c0.89-0.46,1.88-0.69,2.88-0.69c2.52,0,3.89,1.2,3.89,3.31v5.25h-2.4v-0.83"/>
</g>
<g id="g3380">
	<path id="path3382" class="st0" d="M79.4,27c-0.11-2.31,1.68-4.27,3.99-4.38c0.13-0.01,0.27-0.01,0.4,0
		c0.82-0.03,1.64,0.19,2.33,0.64v2.12H86c-0.55-0.43-1.22-0.66-1.92-0.66c-1.17-0.03-2.14,0.9-2.17,2.07c0,0.07,0,0.14,0.01,0.21
		c-0.09,1.16,0.78,2.17,1.93,2.26c0.09,0.01,0.17,0.01,0.26,0c0.68-0.01,1.35-0.23,1.89-0.65h0.09v2.12
		c-0.69,0.46-1.51,0.68-2.33,0.64c-2.3,0.11-4.25-1.67-4.36-3.97C79.39,27.27,79.39,27.13,79.4,27"/>
</g>
<g id="g3384">
	<path id="path3386" class="st0" d="M90.16,27.39v3.8h-2.48V19.43h2.48v6.7l2.51-3.32h2.82v0.1l-3,3.8l3,4.38v0.1h-2.84L90.16,27.39
		"/>
</g>
<g id="g3388">
	<path id="path3390" class="st0" d="M101.06,28.55v-0.71c-0.43-0.21-0.9-0.3-1.38-0.28c-0.8,0-1.29,0.3-1.29,1s0.49,1,1.22,1
		C100.26,29.58,100.86,29.17,101.06,28.55z M101.13,30.36c-0.55,0.65-1.37,1.02-2.22,1c-1.5,0.15-2.84-0.95-2.99-2.45
		c-0.01-0.11-0.02-0.22-0.01-0.32c0-1.64,1.33-2.73,3.26-2.73c0.63,0.01,1.26,0.1,1.86,0.29V26c0-0.91-0.51-1.3-1.85-1.3
		c-0.83,0.01-1.64,0.23-2.35,0.64h-0.09v-2c0.89-0.46,1.88-0.69,2.88-0.69c2.52,0,3.89,1.2,3.89,3.31v5.25h-2.41v-0.83"/>
</g>
<g id="g3392">
	<path id="path3394" class="st0" d="M107.72,24.17c0.31-0.84,1.1-1.42,2-1.45c0.28,0,0.55,0.05,0.81,0.15v2.37h-0.1
		c-0.35-0.13-0.72-0.2-1.09-0.19c-0.78-0.01-1.46,0.55-1.58,1.32v4.82h-2.48v-8.38h2.41v1.36"/>
</g>
<g id="g3396">
	<path id="path3398" class="st0" d="M117.14,28.35v-2.7c-0.34-0.54-0.94-0.87-1.58-0.86c-1.09,0-1.82,0.79-1.82,2.22
		s0.73,2.2,1.82,2.2C116.2,29.22,116.8,28.89,117.14,28.35z M117.22,30.35c-0.62,0.73-1.54,1.11-2.49,1.05
		c-2.14,0-3.51-1.95-3.51-4.36s1.37-4.38,3.51-4.38c0.91-0.05,1.8,0.32,2.41,1v-4.23h2.49v11.76h-2.41v-0.87"/>
</g>
<g id="g3400">
	<path id="path3402" class="st0" d="M0,35h7.26v1.43H1.64v3.6h5.09v1.39H1.64v3.91h5.62v1.43H0V35"/>
</g>
<g id="g3404">
	<path id="path3406" class="st0" d="M13.26,38.33c1.86,0,2.9,1.23,2.9,3.24v5.21H14.6v-5.17c0.12-0.9-0.51-1.72-1.41-1.84
		c-0.11-0.01-0.21-0.02-0.32-0.01c-0.95-0.01-1.8,0.6-2.09,1.51v5.51H9.22V38.5h1.56v1.21C11.31,38.84,12.25,38.32,13.26,38.33"/>
</g>
<g id="g3408">
	<path id="path3410" class="st0" d="M20.36,38.5h2.12v1.34h-2.12v4.46c0,0.94,0.48,1.26,1.37,1.26c0.24,0,0.47-0.04,0.69-0.12h0.06
		v1.34c-0.32,0.12-0.66,0.18-1,0.17c-1.94,0-2.71-0.89-2.71-2.5v-4.61h-1.41V38.5h1.43v-2.2h1.57V38.5"/>
</g>
<g id="g3412">
	<path id="path3414" class="st0" d="M25.1,41.83h4.12c-0.06-1.22-0.66-2.16-1.94-2.16C26.1,39.72,25.16,40.65,25.1,41.83z M27.56,47
		c-2.15,0.11-3.98-1.54-4.09-3.68c-0.01-0.18-0.01-0.35,0.01-0.53c0-2.6,1.54-4.41,3.78-4.41s3.46,1.62,3.46,4.02v0.71H25
		c0.02,1.4,1.17,2.51,2.57,2.49c0.05,0,0.11,0,0.16-0.01c0.83,0.03,1.65-0.23,2.31-0.75h0.06v1.38c-0.76,0.52-1.66,0.78-2.58,0.73"
		/>
</g>
<g id="g3416">
	<path id="path3418" class="st0" d="M34.13,39.78c0.31-0.84,1.11-1.4,2-1.41c0.28-0.01,0.55,0.03,0.81,0.13v1.55h-0.06
		c-0.32-0.13-0.66-0.19-1-0.17c-0.88,0.01-1.64,0.64-1.82,1.5v5.4h-1.5V38.5h1.57V39.78"/>
</g>
<g id="g3420">
	<path id="path3422" class="st0" d="M42,45.54c1.54,0,2.44-1.22,2.44-2.9s-0.9-2.89-2.44-2.89c-0.86,0.03-1.63,0.54-2,1.31v3.18
		C40.37,45.01,41.14,45.51,42,45.54z M42.26,38.33c2.46,0,3.78,2,3.78,4.31S44.75,47,42.29,47c-0.9-0.02-1.74-0.44-2.29-1.14V50
		h-1.59V38.5H40v0.94c0.56-0.7,1.41-1.11,2.31-1.11"/>
</g>
<g id="g3424">
	<path id="path3426" class="st0" d="M49.48,39.78c0.32-0.85,1.14-1.42,2.05-1.41c0.28-0.01,0.55,0.03,0.81,0.13v1.55h-0.06
		c-0.32-0.13-0.66-0.19-1-0.17c-0.88,0.01-1.64,0.64-1.82,1.5v5.4h-1.54V38.5h1.56V39.78"/>
</g>
<g id="g3428">
	<path id="path3430" class="st0" d="M54.59,35.16c0.55,0,1,0.45,1,1s-0.45,1-1,1s-1-0.45-1-1S54.04,35.16,54.59,35.16"/>
</g>
<path id="path3432" class="st0" d="M53.82,46.78h1.56V38.5h-1.56V46.78z"/>
<g id="g3434">
	<path id="path3436" class="st0" d="M61,42c1.19,0.37,2.5,0.86,2.5,2.44S62.06,47,60.28,47c-0.99,0.05-1.97-0.22-2.81-0.75v-1.54
		h0.08c0.76,0.63,1.72,0.96,2.71,0.92c0.88,0,1.67-0.34,1.67-1.05s-0.66-0.9-2-1.34s-2.46-0.81-2.46-2.37s1.32-2.54,3-2.54
		c0.89-0.03,1.77,0.2,2.53,0.67v1.51l0,0c-0.68-0.57-1.55-0.88-2.44-0.87c-1,0-1.53,0.43-1.53,1s0.61,0.84,1.94,1.28"/>
</g>
<g id="g3438">
	<path id="path3440" class="st0" d="M66.43,41.83h4.12c-0.06-1.22-0.66-2.16-1.94-2.16C67.43,39.72,66.49,40.65,66.43,41.83z
		 M68.89,47c-2.15,0.11-3.98-1.54-4.09-3.68c-0.01-0.18-0.01-0.35,0.01-0.53c0-2.6,1.54-4.41,3.78-4.41s3.46,1.62,3.46,4.02v0.71
		h-5.68c0.02,1.4,1.17,2.51,2.57,2.49c0.05,0,0.11,0,0.16-0.01c0.83,0.03,1.65-0.23,2.31-0.75h0.06v1.38
		c-0.76,0.52-1.66,0.78-2.58,0.73"/>
</g>
</svg>
