<?xml version="1.0" encoding="utf-8"?>
<!-- Generator: Adobe Illustrator 24.1.2, SVG Export Plug-In . SVG Version: 6.00 Build 0)  -->
<svg version="1.1" id="Layer_1" xmlns="http://www.w3.org/2000/svg" xmlns:xlink="http://www.w3.org/1999/xlink" x="0px" y="0px"
	 viewBox="0 0 138.66 50.21" style="enable-background:new 0 0 138.66 50.21;" xml:space="preserve">
<style type="text/css">
	.st0{clip-path:url(#SVGID_2_);fill:#FFFFFF;}
	.st1{clip-path:url(#SVGID_2_);fill:#828282;}
	.st2{clip-path:url(#SVGID_4_);fill:#FFFFFF;}
	.st3{clip-path:url(#SVGID_4_);fill:#828282;}
	.st4{clip-path:url(#SVGID_6_);fill:#FFFFFF;}
	.st5{clip-path:url(#SVGID_6_);fill:#828282;}
</style>
<g>
	<defs>
		<path id="SVGID_1_" d="M66.53,25.08c7.73-7.08,6.76-11.46,6.76-11.46C72.83,0.29,59.41,0.16,59.41,0.16H34.16v10.39l6.67,0.11
			v29.17h-6.76v10.44h25.7C72.39,49.94,73.1,38.42,73.1,38.42C73.83,30.56,66.53,25.08,66.53,25.08z M51.83,11.37h10v7.47h-10V11.37
			z M61.96,39.51H51.83v-8.24h10.13V39.51z"/>
	</defs>
	<clipPath id="SVGID_2_">
		<use xlink:href="#SVGID_1_"  style="overflow:visible;"/>
	</clipPath>
	<rect y="43.47" class="st0" width="138.66" height="3"/>
	<rect y="46.33" class="st1" width="138.66" height="3.88"/>
	<rect y="37.22" class="st0" width="138.66" height="3"/>
	<rect y="40.08" class="st1" width="138.66" height="3.88"/>
	<rect y="30.45" class="st0" width="138.66" height="3"/>
	<rect y="33.32" class="st1" width="138.66" height="3.88"/>
	<rect y="23.69" class="st0" width="138.66" height="3"/>
	<rect y="26.55" class="st1" width="138.66" height="3.88"/>
	<rect y="16.92" class="st0" width="138.66" height="3.01"/>
	<rect y="19.78" class="st1" width="138.66" height="3.88"/>
	<rect y="10.67" class="st0" width="138.66" height="3"/>
	<rect y="13.54" class="st1" width="138.66" height="3.88"/>
	<rect y="3.9" class="st0" width="138.66" height="3.01"/>
	<rect y="6.77" class="st1" width="138.66" height="3.88"/>
	<rect class="st1" width="138.66" height="3.88"/>
</g>
<g>
	<defs>
		<polygon id="SVGID_3_" points="75.93,10.59 75.93,0.16 95.19,0.16 103.56,22.7 111.61,0.29 131,0.29 131,10.46 124.36,10.46 
			124.36,39.83 131,39.83 131,50.14 113.74,50.14 113.74,21.35 103.56,50.07 93.25,21.29 93.25,50.14 75.8,50.14 75.8,39.7 
			82.69,39.7 82.69,10.66 		"/>
	</defs>
	<clipPath id="SVGID_4_">
		<use xlink:href="#SVGID_3_"  style="overflow:visible;"/>
	</clipPath>
	<rect y="43.47" class="st2" width="138.66" height="3"/>
	<rect y="46.33" class="st3" width="138.66" height="3.88"/>
	<rect y="37.22" class="st2" width="138.66" height="3"/>
	<rect y="40.08" class="st3" width="138.66" height="3.88"/>
	<rect y="30.45" class="st2" width="138.66" height="3"/>
	<rect y="33.32" class="st3" width="138.66" height="3.88"/>
	<rect y="23.69" class="st2" width="138.66" height="3"/>
	<rect y="26.55" class="st3" width="138.66" height="3.88"/>
	<rect y="16.92" class="st2" width="138.66" height="3.01"/>
	<rect y="19.78" class="st3" width="138.66" height="3.88"/>
	<rect y="10.67" class="st2" width="138.66" height="3"/>
	<rect y="13.54" class="st3" width="138.66" height="3.88"/>
	<rect y="3.9" class="st2" width="138.66" height="3.01"/>
	<rect y="6.77" class="st3" width="138.66" height="3.88"/>
	<rect class="st3" width="138.66" height="3.88"/>
</g>
<g>
	<defs>
		<polygon id="SVGID_5_" points="5.93,50.14 5.93,39.75 12.9,39.75 12.9,10.57 5.83,10.57 5.83,0.33 30.46,0.33 30.46,10.42 
			23.74,10.42 23.74,39.8 30.56,39.8 30.56,50.09 		"/>
	</defs>
	<clipPath id="SVGID_6_">
		<use xlink:href="#SVGID_5_"  style="overflow:visible;"/>
	</clipPath>
	<rect y="43.47" class="st4" width="138.66" height="3"/>
	<rect y="46.33" class="st5" width="138.66" height="3.88"/>
	<rect y="37.22" class="st4" width="138.66" height="3"/>
	<rect y="40.08" class="st5" width="138.66" height="3.88"/>
	<rect y="30.45" class="st4" width="138.66" height="3"/>
	<rect y="33.32" class="st5" width="138.66" height="3.88"/>
	<rect y="23.69" class="st4" width="138.66" height="3"/>
	<rect y="26.55" class="st5" width="138.66" height="3.88"/>
	<rect y="16.92" class="st4" width="138.66" height="3.01"/>
	<rect y="19.78" class="st5" width="138.66" height="3.88"/>
	<rect y="10.67" class="st4" width="138.66" height="3"/>
	<rect y="13.54" class="st5" width="138.66" height="3.88"/>
	<rect y="3.9" class="st4" width="138.66" height="3.01"/>
	<rect y="6.77" class="st5" width="138.66" height="3.88"/>
	<rect class="st5" width="138.66" height="3.88"/>
</g>
</svg>
