<?xml version="1.0" encoding="utf-8"?>
<!-- Generator: Adobe Illustrator 24.1.2, SVG Export Plug-In . SVG Version: 6.00 Build 0)  -->
<svg version="1.1" id="Layer_1" xmlns="http://www.w3.org/2000/svg" xmlns:xlink="http://www.w3.org/1999/xlink" x="0px" y="0px"
	 viewBox="0 0 132.67 49.9" style="enable-background:new 0 0 132.67 49.9;" xml:space="preserve">
<style type="text/css">
	.st0{fill:#828282;}
</style>
<g id="g2552">
	<path id="path161" class="st0" d="M0,5.92V1h4.81v40.2H0V5.92"/>
	<path id="path163" class="st0" d="M48.87,26.6c0.12,7.31,4.64,13.15,10.09,13s9.78-6.1,9.65-13.4s-4.61-13.1-10.1-13
		S48.74,19.3,48.87,26.6z M88.66,17.77c0.12,0.28-0.17-0.42-0.17-0.42L88.66,17.77z M91.93,48c0.22-0.37,0.53-0.95,0.89-1.67
		L91.93,48z M92.21,15.24c0.06,0.16,0.13,0.33,0.21,0.51l1.61,4L92.21,15.24z M72.08,35.31c3,2.71,5.64,4.12,9.06,4.12
		s6.62-1.7,6.62-5c0-2.77-2.44-4.39-6.8-6.24c-3.69-1.61-6.44-2.73-7.87-5.06c0.18,1.03,0.27,2.07,0.27,3.12
		c0,9-6.47,16.25-14.45,16.25s-14.45-7.29-14.45-16.26c-0.07-5.06,2.14-9.88,6-13.15h-9.81v28.15H36.3v-4.63
		c0.01-0.08,0.01-0.17,0-0.25V13.09h-3.82v-2.93h3.88c0.51-5.91,4.15-9.25,9.18-9.25c3.27,0,5.06,0.34,6.1,0.82v4
		c0,0.3,0,0.48,0,0.48h-0.15c-1.57-1.46-3.12-2.54-6.74-2.54c-2.89,0-4.8,2.36-4.13,6.49h16.23c0.68-0.11,1.37-0.16,2.06-0.16
		c5.79,0,10.78,3.82,13.09,9.35c0-0.3,0-0.62,0-1c0-5.77,5.55-8.22,11.32-8.21h0.65c2.26,0.1,4.51,0.46,6.68,1.1l3.35,8.5l4.89,12
		l0.58,1.93l0.64-1.93l6.18-15.4c1.14-4.24,5.66-6.08,10.65-6.07c2.22-0.05,4.43,0.31,6.51,1.07V16c-2.71-2-4.65-3.13-7.71-3.13
		c-2.7,0-5.94,1.2-5.94,5.2c0,3,1.74,3.55,7,6.17c4.31,1.88,8.29,4,8.32,8.78c0,8-7.87,9.43-11.7,9.44c-3.42,0-6.56-0.85-8.3-2.3
		v-5.31l0.28,0.23c3.11,2.93,5.86,4.44,9.41,4.44s6.61-1.7,6.61-5c0-2.77-2.43-4.39-6.79-6.24c-4.16-1.81-6.89-3-8-6
		c-1.7,4.17-9.6,23.52-11.45,27.65h-4.25l1.92-3.62c1.07-2.11,2.62-5.43,4-8.6l-8.19-19.94c-0.06-0.12-0.19-0.43-0.47-1.06
		c-0.63-1.44-1.21-2.77-3-3.44c-1.01-0.34-2.07-0.5-3.13-0.49c-2.7,0-6.15,1.2-6.15,5.19c-0.05,3,1.95,3.55,7.2,6.17
		c4.31,1.89,8.3,4,8.32,8.79c0,8-7.87,9.43-11.7,9.44c-2.68,0.1-5.33-0.54-7.67-1.84v-5.22"/>
	<path id="path165" class="st0" d="M13.77,10.46L13.83,14v0.24l0,0c0.05-0.13,0.12-0.25,0.2-0.36c1.77-1.91,4-3.8,9.28-3.8
		c5.06,0,8.34,4.33,8.47,7.05v24.11h-4.29V19.1c0-3.4-3-5.85-6.59-5.85c-3,0-6.88,2.73-7,5.49v22.5H9.55V10.46H13.77"/>
</g>
<path class="st0" d="M127,2.81h0.89c0.48,0,1.24,0,1.24,0.73s-0.81,0.73-1.18,0.73h-1L127,2.81z M126.19,7H127V5h0.47
	c0.62,0,0.85,0.24,1.44,1.29l0.43,0.76h0.95l-0.59-0.94c-0.6-1-0.84-1.11-1.12-1.21l0,0c0.75,0,1.37-0.61,1.38-1.36
	c0.01-0.39-0.17-0.76-0.47-1c-0.48-0.3-1.04-0.42-1.6-0.35h-1.67L126.19,7z M128.19,0c-2.49-0.01-4.51,2.01-4.52,4.5
	c-0.01,2.49,2.01,4.51,4.5,4.52s4.51-2.01,4.52-4.5c0-0.01,0-0.01,0-0.02C132.69,2.01,130.68,0,128.19,0c-0.01,0-0.01,0-0.02,0
	H128.19z M128.19,0.75c2.08,0.02,3.75,1.71,3.73,3.79c-0.02,2.08-1.71,3.75-3.79,3.73c-2.07-0.02-3.74-1.7-3.73-3.77
	c0-2.07,1.68-3.75,3.75-3.75c0,0,0.01,0,0.01,0H128.19z"/>
</svg>
