<?xml version="1.0" encoding="utf-8"?>
<!-- Generator: Adobe Illustrator 24.1.2, SVG Export Plug-In . SVG Version: 6.00 Build 0)  -->
<svg version="1.1" id="Layer_1" xmlns="http://www.w3.org/2000/svg" xmlns:xlink="http://www.w3.org/1999/xlink" x="0px" y="0px"
	 viewBox="0 0 58.94 38.87" style="enable-background:new 0 0 58.94 38.87;" xml:space="preserve">
<style type="text/css">
	.st0{fill:#828282;}
</style>
<path id="path4423" class="st0" d="M17.36,16.48V26h-3V14h6.26c1.82-0.14,3.42,1.22,3.56,3.04c0.01,0.18,0.01,0.36,0,0.54v8.38h-3
	v-8.33c0-0.71-0.37-1.15-1.26-1.15L17.36,16.48z M38,16.34c-0.91-0.04-1.76,0.45-2.18,1.25c-0.18,0.41-0.28,0.85-0.29,1.3h4.66
	C40.13,17.59,39.55,16.34,38,16.34 M35.5,20.95c-0.1,1.39,0.95,2.59,2.34,2.69c0.12,0.01,0.24,0.01,0.35,0
	c1.06,0.09,2.11-0.34,2.81-1.14l1.88,1.79c-1.2,1.29-2.92,1.99-4.68,1.9c-2.9,0-5.67-1.58-5.67-6.19c0-3.94,2.42-6.17,5.61-6.17
	s5.09,2.61,5.09,6v1.09H35.5 M29.93,25.92c-1.79,0.15-3.36-1.19-3.5-2.97c-0.01-0.14-0.01-0.29-0.01-0.44V10.78h3v3.26h2.28v2.44
	h-2.26v5.95c-0.08,0.51,0.27,0.99,0.79,1.07c0.07,0.01,0.14,0.01,0.21,0.01h1.23v2.52h-1.74 M11.64,12.43H8.59V9.49h3.05V12.43z
	 M11.64,26.18c-1.66,0.04-3.03-1.28-3.07-2.93c0-0.09,0-0.19,0.01-0.28v-8.93h3.06v12.09L11.64,26.18z M48,25.87
	c-1.66,0-3-1.34-3.01-2.99c0-0.07,0-0.14,0.01-0.21V9.07h3V25.87z M58.68,11.04c-2.77-13.49-29-14.34-45.83-4.07V8.1
	c16.86-8.67,40.77-8.61,42.95,3.81c0.73,4.11-1.59,8.4-5.72,10.86v3.22C55.08,24.17,60.16,18.27,58.68,11.04 M28,34.64
	c-11.65,1.08-23.79-0.61-25.49-9.72c-0.83-4.49,1.21-9.24,3.93-12.19v-1.58c-4.89,4.28-7.53,9.7-6,16.1
	c1.94,8.18,12.35,12.86,28.26,11.32c6.3-0.62,14.52-2.64,20.3-5.78v-4.46C43.8,31.42,35.21,33.98,28,34.64"/>
<path id="path4425" class="st0" d="M51.53,9.98c0-0.15-0.08-0.2-0.28-0.2h-0.19v0.42h0.19c0.2,0,0.28-0.07,0.28-0.21l0,0V9.98z
	 M51.83,10.98H51.6l0,0l-0.35-0.55l0,0h-0.14v0.52c0,0.03-0.03,0.06-0.06,0.06l0,0h-0.2c-0.03,0-0.05-0.03-0.05-0.06v-1.3
	c0-0.08,0-0.11,0.09-0.12h0.37c0.38,0,0.61,0.11,0.61,0.47l0,0c0.02,0.18-0.1,0.35-0.28,0.39l0.32,0.54l0,0 M51.32,9.24
	c-0.55,0-1,0.45-1,1c0,0.55,0.45,1,1,1s1-0.45,1-1C52.32,9.69,51.87,9.24,51.32,9.24 M51.32,11.46c-0.67-0.06-1.17-0.65-1.1-1.33
	c0.05-0.59,0.52-1.05,1.1-1.1c0.67-0.06,1.26,0.43,1.33,1.1c0.06,0.67-0.43,1.26-1.1,1.33C51.47,11.47,51.39,11.47,51.32,11.46"/>
</svg>
