<?xml version="1.0" encoding="utf-8"?>
<!-- Generator: Adobe Illustrator 24.1.2, SVG Export Plug-In . SVG Version: 6.00 Build 0)  -->
<svg version="1.1" id="Layer_1" xmlns="http://www.w3.org/2000/svg" xmlns:xlink="http://www.w3.org/1999/xlink" x="0px" y="0px"
	 viewBox="0 0 54.96 46" style="enable-background:new 0 0 54.96 46;" xml:space="preserve">
<style type="text/css">
	.st0{fill:#828282;}
</style>
<polyline class="st0" points="36.18,30.22 34.17,32.25 32.21,30.23 31.16,27.1 28.16,26.06 28.15,24.11 26.2,24.12 25.17,29.07 
	26.23,32.27 21.64,34.31 20.23,32.29 21.2,30.27 21.2,28.11 18.2,28.12 14.24,32.31 11.24,31.35 11.23,27.17 6,26.34 2.25,28.38 
	0.01,27.41 0,23.16 2.02,22.18 10.02,18.18 11.2,19.15 14.19,16.15 14.18,14.2 18.14,10.21 20.15,5.96 23.13,1 28.07,0.01 30.09,0 
	30.1,1.95 34.08,5.91 34.1,10.16 40.32,16.06 46.32,20.08 49.32,21.05 50.38,24.04 54.35,25.98 52.34,28 50.39,28.01 50.38,25.99 
	47.38,25.02 42.35,20.1 38.37,18.09 34.1,12.11 32.15,10.16 33.11,6.96 30.11,3.97 28.09,5.93 28.11,10.18 26.16,12.14 30.14,16.09 
	28.13,18.12 32.18,22.08 32.19,24.1 34.16,28.06 36.18,28.06 38.4,26.03 37.35,25.06 36.16,22.07 38.38,22.06 40.35,26.02 
	42.38,28.04 36.18,30.22 "/>
<polyline class="st0" points="0.07,45.94 0.04,35.35 2.27,34.37 2.3,45.94 0.07,45.94 "/>
<path class="st0" d="M11.5,45.91H9.27v-4.6c0-1.39-0.57-1.81-1.4-1.8c-1,0-1.4,0.42-1.39,1.81v4.6H4.33v-8.43h2.13v0.63
	c0.52-0.54,1.25-0.82,2-0.77c1.95,0,3,1.38,3,3.75"/>
<path class="st0" d="M20.46,37.45l-3,8.44h-2.2l-3-8.42h2.44l1.19,3.83c0.13,0.68,0.32,1.35,0.57,2c0.07-0.68,0.21-1.35,0.41-2
	L18,37.45"/>
<path class="st0" d="M26.46,40.63c-0.11-0.8-0.79-1.4-1.6-1.39c-0.86-0.04-1.63,0.55-1.81,1.4 M25.05,46c-2.29,0.08-4.2-1.72-4.27-4
	c0-0.13,0-0.25,0-0.38c-0.14-2.25,1.57-4.18,3.82-4.32c0.06,0,0.12-0.01,0.18-0.01c2.37,0,3.77,1.94,3.78,4.31v0.83h-5.58
	c0.28,0.86,1.1,1.43,2,1.39c0.59-0.03,1.15-0.25,1.6-0.63l1.54,1.25c-0.73,0.95-1.84,1.52-3.03,1.56L25.05,46z"/>
<path class="st0" d="M33.44,44c0.77,0,1.18-0.21,1.18-0.63s-0.76-0.76-1.18-0.76c-1.61-0.41-3.63-0.62-3.63-2.77
	c0-1.61,1.59-2.59,3.4-2.6c1.15-0.01,2.27,0.34,3.21,1l-1.18,1.61c-0.6-0.39-1.29-0.6-2-0.62c-1,0-1.19,0.21-1.19,0.63
	s1.19,0.55,1.82,0.76c1.6,0.41,3,0.82,3,2.57S35.05,46,33.24,46c-1.3-0.04-2.55-0.45-3.63-1.17l1.25-1.4
	c0.79,0.43,1.68,0.64,2.58,0.62"/>
<path class="st0" d="M42.2,39.39c-1.21-0.02-2.22,0.95-2.24,2.16c-0.02,1.21,0.95,2.22,2.16,2.24c0.75,0.01,1.46-0.36,1.87-0.99
	l1.81,1.39c-0.91,1.06-2.22,1.7-3.62,1.75c-2.41,0.12-4.45-1.74-4.56-4.15s1.74-4.45,4.15-4.56c0.14-0.01,0.28-0.01,0.42,0
	c1.41,0.06,2.73,0.7,3.64,1.77L44,40.36c-0.4-0.62-1.08-0.99-1.82-1"/>
<path class="st0" d="M52.8,41.52c0-1.15-0.94-2.09-2.09-2.09s-2.09,0.94-2.09,2.09s0.94,2.09,2.09,2.09S52.8,42.67,52.8,41.52
	 M54.96,41.52c0.12,2.31-1.65,4.27-3.95,4.39c-0.07,0-0.14,0.01-0.21,0.01c-2.4,0-4.35-1.95-4.35-4.35c0-2.4,1.95-4.35,4.35-4.35
	c2.3-0.02,4.18,1.84,4.2,4.14c0,0.05,0,0.1,0,0.15L54.96,41.52z"/>
</svg>
