<?xml version="1.0" encoding="utf-8"?>
<!-- Generator: Adobe Illustrator 24.1.2, SVG Export Plug-In . SVG Version: 6.00 Build 0)  -->
<svg version="1.1" id="Layer_1" xmlns="http://www.w3.org/2000/svg" xmlns:xlink="http://www.w3.org/1999/xlink" x="0px" y="0px"
	 viewBox="0 0 241.75 49.87" style="enable-background:new 0 0 241.75 49.87;" xml:space="preserve">
<style type="text/css">
	.st0{fill:#828282;}
	.st1{fill:#707070;}
	.st2{fill:#939393;}
	.st3{fill:#5A5B5B;}
</style>
<path class="st0" d="M241.75,19.79l-8.82,8l8.82,8.07v4.65h-0.29l-13.09-11.86V40h-3.79V5.75h3.79v21.36l13-11.86h0.35L241.75,19.79
	z M70.64,40H90v-3.87H74.59V6.88h-4L70.64,40z M103.39,15.3c-6,0-11.36,4.83-11.36,12.61c0,7.56,5,12.57,12.07,12.57
	c3.14,0.07,6.22-0.89,8.77-2.72v-4.08c-2.4,2.09-5.46,3.27-8.64,3.32c-4.28,0-8.06-2.65-8.41-7.62h18.08c0-0.49,0.14-1.54,0.14-1.95
	c0-8-4.79-12.12-10.65-12.12 M103.39,18.76c3.35,0,6.76,2.18,6.9,7.32H95.82c0.13-4.1,3.51-7.35,7.61-7.32 M167.1,15.3
	c-2.92-0.04-5.61,1.6-6.93,4.21c-1.17-2.69-3.31-4.21-6.76-4.21c-2.74,0.03-5.22,1.6-6.41,4.07h-0.09l-0.44-3.57h-3V40h3.85V24.69
	c0-3,1.83-5.72,5.18-5.72s4.7,1.92,4.7,5.41V40h3.8V24.43c-0.15-2.85,2.04-5.27,4.88-5.42c0.09,0,0.18-0.01,0.28-0.01
	c3.31,0,4.74,1.92,4.74,5.41V40h3.85V23.85C174.75,18.79,172.38,15.3,167.1,15.3 M190.28,15.3c-5.77,0-11.14,4.88-11.14,12.61
	s5.37,12.57,11.14,12.57c3.65,0.11,7.06-1.82,8.86-5l0,0l0.45,4.52h3.13V15.8h-3.13l-0.45,4.51l0,0c-1.8-3.17-5.21-5.1-8.86-5
	 M191,18.89c4.56,0,8,3.67,8,9s-3.44,9-8,9s-8-3.62-8-8.95s3.53-9,8-9 M219.16,15.59c-2.89-0.01-5.55,1.57-6.94,4.11l0,0l-0.4-3.84
	h-3.09V40h3.85V26c0-5.59,4.51-7.33,8.23-6.56v-3.78c-0.53-0.09-1.07-0.14-1.61-0.13 M138.53,15.25h-0.31l-10.13,10.07L118,15.25
	h-0.31v4.88l7.76,7.77l-7.76,7.72v4.91H118l10-10.11l10.13,10.11h0.32v-5l-7.83-7.75l7.83-7.89L138.53,15.25z M234.87,6.09V5.76
	h2.68v0.33h-1.14V8.8H236V6.09H234.87z M238.87,5.76L240,8.31l1.17-2.55h0.55v3h-0.38v-2.5l0,0l-1.13,2.54h-0.35l-1.15-2.54l0,0V8.8
	h-0.38v-3L238.87,5.76z"/>
<polygon class="st1" points="49.87,40.11 49.87,0 40.11,0 24.94,15.18 "/>
<polygon class="st2" points="0,9.76 0,49.87 9.76,49.87 24.94,34.7 "/>
<polygon class="st3" points="9.76,49.87 49.87,49.87 49.87,40.11 34.7,24.94 "/>
<polygon class="st0" points="40.11,0 0,0 0,9.76 15.17,24.94 "/>
</svg>
