<?xml version="1.0" encoding="utf-8"?>
<!-- Generator: Adobe Illustrator 24.1.2, SVG Export Plug-In . SVG Version: 6.00 Build 0)  -->
<svg version="1.1" id="Layer_1" xmlns="http://www.w3.org/2000/svg" xmlns:xlink="http://www.w3.org/1999/xlink" x="0px" y="0px"
	 viewBox="0 0 164.63 49.89" style="enable-background:new 0 0 164.63 49.89;" xml:space="preserve">
<style type="text/css">
	.st0{fill:#828282;}
	.st1{fill-rule:evenodd;clip-rule:evenodd;fill:#828282;}
</style>
<path class="st0" d="M48.36,15.6c-2.59,0-3.87,1.89-3.87,4.46s1.23,4.53,3.87,4.53s3.87-1.87,3.87-4.53S51,15.6,48.36,15.6
	 M48.36,22.85c-0.69,0-1-0.62-1-2.79c0-2,0.2-2.72,1-2.72s1,0.73,1,2.72C49.36,22.23,49.06,22.85,48.36,22.85"/>
<path class="st0" d="M54,14.86v1h-1.11v1.95H54v6.64h2.78v-6.68h1.5v-1.95h-1.5V15c0-0.52,0.26-0.81,1-0.81
	c0.17,0,0.34,0.03,0.51,0.07v-2.17c-0.46-0.06-0.93-0.09-1.4-0.1C55.05,11.99,54.01,12.76,54,14.86"/>
<path class="st0" d="M24.41,18.23c0-1.9-1.73-2.61-3.4-2.61S17.89,16.3,17.58,18L20,18.49c0-0.5,0.25-1.13,0.91-1.13
	c0.48,0,0.72,0.34,0.72,0.85V19c-1.83,0.21-4.37,0.88-4.43,3.11c-0.12,1.26,0.81,2.39,2.08,2.5c0.11,0.01,0.21,0.01,0.32,0.01
	c0.8-0.03,1.56-0.37,2.12-0.95c0.01,0.26,0.04,0.53,0.08,0.79h2.87c-0.11-0.12-0.26-0.42-0.26-1.39L24.41,18.23z M21.63,22.23
	c-0.2,0.3-0.53,0.49-0.89,0.53c-0.5,0-0.81-0.31-0.81-0.91c0-1.09,0.73-1.46,1.7-1.56L21.63,22.23z"/>
<path class="st0" d="M31.22,15.61c-0.92,0-1.8,0.4-2.42,1.09l0,0v-0.88H26v8.59h2.78v-6.14c0.2-0.31,0.53-0.5,0.9-0.54
	c0.47,0,0.65,0.27,0.65,0.77v5.91h2.78v-6.8c0.1-1.01-0.64-1.9-1.65-1.99c-0.09-0.01-0.18-0.01-0.27-0.01"/>
<polygon class="st0" points="42.48,15.82 39.72,15.82 37.67,18.41 37.64,18.41 37.64,12.23 34.86,12.23 34.86,24.41 37.64,24.41 
	37.64,21.33 38.22,20.66 38.25,20.66 39.61,24.41 42.49,24.41 40.15,18.46 "/>
<path class="st0" d="M14.24,18.07V18c1.2-0.4,2-1.52,2-2.78c0-1.68-1.42-3-3.58-3H7.83v12.19h4.7c2.32,0,4-1.18,4-3.26
	C16.55,19.72,15.61,18.46,14.24,18.07 M10.82,14.38h1.08c0.71,0,1.49,0.19,1.49,1.35c0,0.72-0.44,1.32-1.55,1.32h-1L10.82,14.38z
	 M12,22.15h-1.18v-3H12c0.78-0.08,1.48,0.49,1.56,1.27c0.01,0.08,0.01,0.16,0,0.24c0.04,0.78-0.56,1.45-1.34,1.5
	C12.15,22.16,12.07,22.16,12,22.15"/>
<path class="st0" d="M117.4,23v-4.77c0-1.9-1.73-2.61-3.4-2.61s-3.12,0.68-3.42,2.38l2.41,0.49c0-0.5,0.24-1.13,0.91-1.13
	c0.48,0,0.72,0.34,0.72,0.85V19c-1.84,0.21-4.37,0.88-4.43,3.11c-0.12,1.26,0.8,2.38,2.06,2.5c0.11,0.01,0.23,0.01,0.34,0.01
	c0.8-0.03,1.56-0.37,2.12-0.95c0.01,0.26,0.04,0.53,0.08,0.79h2.86c-0.1-0.12-0.25-0.42-0.25-1.39 M114.62,22.27
	c-0.2,0.3-0.53,0.49-0.89,0.53c-0.5,0-0.81-0.31-0.81-0.91c0-1.09,0.73-1.46,1.7-1.56V22.27z"/>
<path class="st0" d="M87.11,15.59c-2.55,0-3.83,2.06-3.83,4.49s1.2,4.51,3.86,4.51c1.54,0.05,2.93-0.89,3.45-2.34l-1.87-0.69
	c-0.11,0.67-0.69,1.17-1.37,1.18c-1.12,0-1.33-1.27-1.29-2h4.65v-0.58c0-2.24-0.93-4.54-3.6-4.54 M88.11,19.09h-2.05
	c0-0.8,0.24-1.73,1-1.73c1,0,1.07,0.94,1,1.73"/>
<polygon class="st0" points="98.2,24.41 99.69,24.41 100.98,24.41 100.98,15.82 98.2,15.82 "/>
<polygon class="st0" points="98.2,14.69 100.98,14.69 100.98,12.22 99.55,12.22 98.2,12.22 "/>
<path class="st0" d="M106.2,17.34c0.37-0.02,0.7,0.22,0.81,0.58c0.1,0.35,0.15,0.72,0.13,1.08h2.37c0.08-1.8-1.32-3.33-3.12-3.41
	c-0.09,0-0.18,0-0.27,0c-2.63,0-3.93,2.35-3.93,4.69c0,2.12,1.3,4.31,3.81,4.31c1.74,0.15,3.27-1.14,3.42-2.88
	c0.01-0.1,0.01-0.2,0.01-0.3l-2.16-0.31c0,0.65-0.1,1.64-1.07,1.64c-0.72,0-1-0.63-1-2.57C105.2,18.47,105.3,17.34,106.2,17.34"/>
<path class="st0" d="M63.15,12.23l-2.87,12.18H63l0.53-2.47h2.83l0.48,2.47h3l-2.65-12.18H63.15z M63.92,19.79l1-5H65l0.88,5H63.92z
	"/>
<path class="st0" d="M94.62,17h-0.05v-1.16h-2.72v8.59h2.78v-5.58c0.38-0.44,0.94-0.69,1.52-0.67c0.39,0,0.78,0.08,1.14,0.24v-2.81
	C96.22,15.58,95.21,16.11,94.62,17"/>
<path class="st0" d="M80.14,15.61c-0.95,0.02-1.85,0.44-2.48,1.15l0,0c-0.25-0.7-0.92-1.17-1.66-1.15
	c-0.94,0.03-1.83,0.42-2.49,1.08l0,0v-0.87H70.7v8.59h2.73v-6.13c0.23-0.3,0.57-0.49,0.94-0.53c0.52,0,0.66,0.31,0.66,0.77v5.89
	h2.72v-6.13c0.24-0.31,0.61-0.51,1-0.53c0.51,0,0.65,0.31,0.65,0.77v5.89h2.73v-6.85c0.07-1.01-0.69-1.88-1.7-1.95
	c-0.08-0.01-0.16-0.01-0.24,0"/>
<polygon class="st0" points="7.83,29.41 12.16,29.41 13.48,36.25 13.52,36.25 15.08,29.41 19.29,29.41 19.29,41.62 16.2,41.62 
	16.2,32.6 16.16,32.6 14.05,41.62 12.18,41.62 10.23,32.29 10.2,32.29 10.2,41.62 7.83,41.62 "/>
<path class="st0" d="M23.13,37.93c0,0.76,0.16,2,1.26,2c0.69-0.02,1.27-0.51,1.41-1.18l1.87,0.69c-0.52,1.45-1.91,2.39-3.45,2.35
	c-2.67,0-3.87-2.15-3.87-4.53s1.27-4.49,3.83-4.49s3.61,2.29,3.61,4.54v0.58L23.13,37.93z M25.21,36.29c0-0.81-0.08-1.73-1.05-1.73
	c-0.79,0-1,0.92-1,1.73H25.21z"/>
<path class="st0" d="M28.79,33h2.74v1.31l0,0c0.48-1.03,1.56-1.63,2.68-1.51v2.81c-0.36-0.15-0.74-0.23-1.13-0.24
	c-0.6-0.1-1.2,0.16-1.53,0.67v5.57h-2.76V33z"/>
<path class="st0" d="M35.19,33h2.73v1.31l0,0c0.48-1.03,1.56-1.63,2.68-1.51v2.81c-0.36-0.15-0.75-0.23-1.14-0.24
	c-0.92,0-1.22,0.24-1.52,0.67v5.57h-2.75V33z"/>
<path class="st0" d="M41.86,29.41h2.79v2.47h-2.79V29.41z M41.86,33.01h2.79v8.61h-2.79V33.01z"/>
<polygon class="st0" points="46.34,37.44 46.34,29.41 49.12,29.41 49.12,41.62 46.34,41.62 "/>
<polygon class="st0" points="50.46,29.41 53.25,29.41 53.25,33.7 53.25,41.62 50.46,41.62 "/>
<polygon class="st0" points="59.32,29.41 62.41,29.41 62.41,39.46 66.61,39.46 66.61,41.62 59.32,41.62 "/>
<path class="st0" d="M69.93,33l1,5l0,0l1.19-5h2.18l-2.91,8.88c-0.58,1.79-1.85,2.3-3.5,2.3c-0.28,0-0.56-0.03-0.83-0.07v-2
	c0.24,0.05,0.49,0.08,0.74,0.09c0.84,0,1.57-0.24,1.57-1c-0.01-0.26-0.05-0.52-0.12-0.77L67.06,33H69.93z"/>
<path class="st0" d="M75.3,33h2.78v1.15l0,0c0.53-0.84,1.46-1.35,2.46-1.35c0.98-0.04,1.8,0.71,1.85,1.69c0,0.08,0,0.16-0.01,0.24
	v6.88h-2.75v-6.08c0-0.46-0.15-0.77-0.67-0.77c-0.28,0-0.55,0.13-0.72,0.36l-0.16,0.21v6.29H75.3V33z"/>
<path class="st0" d="M88.39,36.22c0.01-0.37-0.03-0.73-0.14-1.08c-0.1-0.36-0.44-0.6-0.81-0.58c-0.93,0-1,1.13-1,2.84
	c0,1.94,0.31,2.57,1,2.57c1,0,1.07-1,1.07-1.64l2.16,0.31c0.02,1.75-1.39,3.18-3.14,3.2c-0.1,0-0.2,0-0.3-0.01
	c-2.51,0-3.81-2.2-3.81-4.33c0-2.34,1.3-4.69,3.93-4.69c1.8-0.08,3.33,1.32,3.41,3.12c0,0.1,0,0.19,0,0.29H88.39z"/>
<path class="st0" d="M91.86,29.41h2.79v4.75l0,0c0.53-0.84,1.46-1.35,2.46-1.35c0.97-0.08,1.82,0.65,1.89,1.62
	c0.01,0.1,0.01,0.21,0,0.31v6.88h-2.81v-6.09c0-0.46-0.15-0.77-0.67-0.77c-0.28,0-0.55,0.13-0.72,0.36l-0.15,0.21v6.29h-2.79V29.41z
	"/>
<path class="st1" d="M134.19,10.28c1.09,0.44,2.18,0.9,3.25,1.38c-3.4,1.38-6.69,3.02-9.85,4.89c-1.06-0.55-2.14-1.08-3.23-1.56
	C127.5,13.15,130.79,11.58,134.19,10.28"/>
<path class="st1" d="M130.12,8.85c-3.53,1.12-6.94,2.58-10.18,4.36c1,0.37,2.06,0.76,3.08,1.19c3.13-1.85,6.43-3.4,9.86-4.61
	C131.97,9.46,131.05,9.14,130.12,8.85"/>
<path class="st1" d="M141.58,10.14c-2.79-1.35-5.68-2.48-8.65-3.37c-1,0.3-2.07,0.62-3.1,1c3.05,0.91,6.03,2.05,8.9,3.42
	c0.93-0.35,1.88-0.7,2.85-1"/>
<path class="st1" d="M146.11,8.79c-2.85-1.24-5.79-2.28-8.79-3.1c-1,0.2-1.92,0.42-2.86,0.65c2.98,0.87,5.88,1.98,8.69,3.3
	c1-0.3,2-0.59,3-0.85"/>
<path class="st1" d="M153.4,11.23c-7.08,2.38-13.77,5.78-19.87,10.1c1.49,0.93,3,1.91,4.41,3c5.75-4.57,12.1-8.33,18.86-11.18
	C155.68,12.47,154.55,11.83,153.4,11.23"/>
<path class="st1" d="M148.5,8.9c-7.36,1.95-14.35,5.08-20.7,9.28c1.42,0.7,2.81,1.45,4.17,2.23c6.21-4.29,13.06-7.59,20.3-9.76
	C151.04,10.03,149.77,9.45,148.5,8.9"/>
<path class="st0" d="M141.07,23c-0.4,0.01-0.71,0.34-0.7,0.74c0.01,0.4,0.34,0.71,0.74,0.7c0.39-0.01,0.71-0.34,0.7-0.73
	C141.8,23.31,141.47,22.99,141.07,23 M141.07,24.29c-0.32,0.04-0.61-0.18-0.65-0.5c-0.04-0.32,0.18-0.61,0.5-0.65
	c0.05-0.01,0.1-0.01,0.15,0c0.32-0.04,0.61,0.18,0.65,0.5c0.04,0.32-0.18,0.61-0.5,0.65C141.17,24.3,141.12,24.3,141.07,24.29"/>
<path class="st0" d="M141.45,23.47c0-0.07-0.03-0.13-0.09-0.17c-0.07-0.02-0.13-0.02-0.2,0h-0.36v0.81h0.12v-0.38h0.14l0.24,0.38
	h0.14l-0.25-0.38c0.15,0,0.26-0.06,0.26-0.22 M141.06,23.63h-0.14v-0.24h0.22c0.1,0,0.19,0,0.19,0.12S141.17,23.63,141.06,23.63"/>
</svg>
