<?xml version="1.0" encoding="utf-8"?>
<!-- Generator: Adobe Illustrator 24.1.2, SVG Export Plug-In . SVG Version: 6.00 Build 0)  -->
<svg version="1.1" id="Layer_1" xmlns="http://www.w3.org/2000/svg" xmlns:xlink="http://www.w3.org/1999/xlink" x="0px" y="0px"
	 viewBox="0 0 72.01 50" style="enable-background:new 0 0 72.01 50;" xml:space="preserve">
<style type="text/css">
	.st0{fill:#828282;}
	.st1{fill:#A3A3A3;}
</style>
<path class="st0" d="M25.51,10.82c0.32-0.22,0.56-0.41,0.69-0.51c0.62-0.5,0.82-0.21,0.27,0.69c-0.83,1.17-1.98,2.08-3.3,2.62
	c-0.28,0.14-0.61,0.28,0,0.58c0.97,0.44,1.98,0.81,3,1.12c3.08,1.04,6.29,1.63,9.54,1.76c3.14,0,6-0.42,7.57-0.56
	c1.22-0.1,3.86-0.33,5.17,2c1.1,2,0.87,8.13,0.92,9.53c0,1,0,9.24,0,10c0,0.49,0,0.86-0.41,0.9s-1.28,0-1.45,0h-0.76
	c-0.54,0-0.53,0.25-0.53,0.4s0.12,0.64-0.57,0.67h-2.13c-0.33,0-0.51-0.42-0.22-0.94c2.79-5,2.59-8.87,0.94-11
	c-0.12,0.38-0.22,0.77-0.3,1.16c-0.21,1.16-0.46,1.68-0.71,1.88c-2.32,2.08-4.04,4.74-5,7.7c-0.14,0.38-0.42,0.24-0.55,0.4
	s0.24,0.77-0.63,0.8h-2.39c-0.4,0-0.62-0.49-0.22-1c0.9-1.1,6-5.95,5.77-11c-0.03-0.52-0.15-1.02-0.37-1.49
	c-0.05,0-0.9-0.79-2.75,0.74c-0.21,0.17-0.24,0.11-0.5,0c-1.31-0.58-2.76-0.75-4.16-0.48c-1.47,0.53-2.26,2.12-1.79,3.61
	c0.66,2.87,2.12,5.33,2.69,8.22c0.07,0.52-0.29,0.39-0.44,0.58s0.23,0.82-0.67,0.82H30c-0.43,0-0.66-0.18-0.38-1.07
	c0.36-1.43,0.4-2.92,0.1-4.37c-0.32-2.42-1.71-4.58-3.79-5.86c-1,0.63-2.63,5.58-3.09,8.9c-0.07,0.54-0.08,0.66-0.09,0.8
	c-0.07,0.83-0.56,0.53-0.7,0.77s0.19,0.84-0.71,0.84h-2.2c-0.43,0-0.5-0.49-0.18-1.07c1.37-2.45,3.52-6.23,3.48-10.32
	c0.06-0.93-0.18-1.85-0.66-2.64c-1.17-1.63-2.18-3.37-3-5.2c-0.37-0.68-1.02-1.17-1.78-1.33c-0.5-0.16-0.93,0.06-1.49-0.26
	c-0.34-0.31-0.65-0.64-0.94-1c-0.38-0.33-0.45-0.89-0.17-1.31c0.6-0.9,1.16-1.39,1.23-1.9c-0.01-0.17-0.01-0.35,0-0.52
	c0.31-0.56,0.68-1.09,1.11-1.56c0.19-0.23,0-0.64-0.32-1.05c-0.95-1.2-1.44-2.69-1.4-4.22c0-0.94,0.33-0.89,0.56-0.25
	c0.63,2.02,2.21,3.6,4.23,4.24C21.73,12.29,23.85,11.98,25.51,10.82z M47.29,20.32c0.01,0.92-0.03,1.85-0.12,2.77
	c-0.19,0.86-0.25,1.74-0.2,2.62c0.18,1.21,0.43,2.4,0.76,3.58c0.07,0.1,0.21,0.12,0.31,0.05c0.06-0.04,0.1-0.12,0.09-0.19
	c0-0.14,0.25-6.95-0.35-8.64C47.58,20,47.33,19.91,47.29,20.32z"/>
<path class="st0" d="M33.89,49.53v-4.6c0-0.79,0-2.2-2.69-2.2c-0.71-0.01-1.41,0.1-2.08,0.32c-0.45,0.14-0.6,0.32-0.6,0.55v5.95
	c0,0.22,0.07,0.25,0.25,0.25h0.66c0.18,0,0.28,0,0.28-0.27v-5.47c0-0.3,0.5-0.61,1.44-0.61c1.56,0,1.56,1,1.56,1.63v4.45
	c0,0.24,0.08,0.27,0.29,0.27h0.73C33.88,49.77,33.89,49.65,33.89,49.53z"/>
<path class="st0" d="M41,46.37c0.14-1.2-0.34-2.38-1.27-3.15c-0.52-0.33-1.12-0.5-1.74-0.49c-0.62-0.01-1.22,0.16-1.74,0.49
	c-0.93,0.77-1.41,1.95-1.28,3.15c-0.13,1.2,0.35,2.38,1.28,3.14c0.52,0.33,1.12,0.5,1.74,0.49c0.62,0.01,1.22-0.16,1.74-0.49
	C40.65,48.74,41.13,47.56,41,46.37z M39.77,46.37c0.1,0.86-0.12,1.72-0.62,2.42c-0.67,0.57-1.65,0.57-2.32,0
	c-0.51-0.7-0.73-1.56-0.63-2.42c-0.1-0.86,0.12-1.73,0.63-2.43c0.66-0.59,1.66-0.59,2.32,0c0.48,0.71,0.69,1.58,0.57,2.43H39.77z"/>
<path class="st0" d="M45.71,43.42c0-0.48-0.82-0.69-1.73-0.69c-0.51,0-1.03,0.07-1.52,0.21c-0.46,0.13-0.62,0.32-0.62,0.55v6.08
	c0,0.22,0.08,0.23,0.27,0.23h0.68c0.16,0,0.24,0,0.24-0.23V44c0-0.34,0.28-0.62,0.63-0.61c0.02,0,0.04,0,0.05,0
	c0.85,0,1,0.63,1.44,0.63c0.3,0.01,0.56-0.23,0.56-0.54C45.71,43.46,45.71,43.44,45.71,43.42z"/>
<path class="st0" d="M51.58,49.07v-8.38c0-0.24-0.07-0.27-0.27-0.27h-0.65c-0.23,0-0.26,0.08-0.26,0.29v2.42
	c-0.43-0.23-0.91-0.36-1.4-0.36c-2.07,0-3.13,2-3.13,3.6c0,2.43,1.34,3.63,3.37,3.63C50.19,50,51.58,49.51,51.58,49.07z M50.4,48.68
	c0,0.35-0.56,0.53-1.17,0.53c-1.29,0-2.21-1.08-2.21-2.93c0-1.62,0.88-2.7,2.1-2.7c0.47-0.03,0.93,0.12,1.28,0.42V48.68z"/>
<path class="st0" d="M54.47,41c-0.01-0.38-0.31-0.68-0.69-0.67c0,0-0.01,0-0.01,0c-0.38-0.04-0.73,0.24-0.77,0.63
	c0,0.01,0,0.03,0,0.04c-0.01,0.38,0.29,0.68,0.67,0.69c0.02,0,0.03,0,0.05,0c0.39,0.03,0.72-0.26,0.75-0.65
	C54.47,41.03,54.47,41.01,54.47,41z M54.34,49.59v-6.45c0-0.21-0.05-0.25-0.27-0.25h-0.69c-0.23,0-0.23,0.08-0.23,0.25v6.42
	c0,0.18,0,0.24,0.2,0.24h0.72c0.2,0,0.27-0.01,0.27-0.24V49.59z"/>
<path class="st0" d="M66.18,49.65c0-0.06,0-0.1-0.1-0.17l-2.53-3.35l0,0c0.99-0.75,1.81-1.71,2.38-2.82
	c0.05-0.09,0.08-0.2,0.07-0.31c0-0.12-0.07-0.15-0.24-0.15h-0.63c-0.24,0-0.35,0-0.41,0.2c-0.43,1.23-1.26,2.29-2.36,3
	c-0.03,0.02-0.05,0.05-0.06,0.08c-0.01,0.02-0.01,0.05,0,0.07l2.38,3.4c0.13,0.2,0.18,0.2,0.39,0.2H66
	C66,49.8,66.18,49.79,66.18,49.65z M62.11,49.65v-9c0-0.19-0.09-0.19-0.26-0.19h-0.7c-0.15,0-0.23,0-0.23,0.22v9
	c0,0.18,0,0.21,0.23,0.21h0.7c0.15-0.09,0.26-0.09,0.26-0.29V49.65z"/>
<path class="st0" d="M60,47.94c0-2.25-3.28-1.9-3.28-3.38c0.03-0.58,0.53-1.03,1.11-1c0.01,0,0.02,0,0.04,0c0.77,0,1,0.51,1.37,0.51
	c0.25,0.01,0.47-0.19,0.48-0.44c0-0.01,0-0.02,0-0.03c0-0.5-0.86-0.8-1.79-0.8c-1.21,0-2.27,0.65-2.27,1.89s0.81,1.65,1.78,2.06
	c0.78,0.32,1.5,0.61,1.5,1.35c-0.04,0.69-0.63,1.22-1.32,1.17c-0.02,0-0.04,0-0.06,0c-0.93,0-1.2-0.69-1.65-0.69
	c-0.23,0-0.51,0.09-0.51,0.44c0,0.54,1.07,1,2.15,1c1.2,0.14,2.29-0.71,2.44-1.91C59.99,48.05,60,48,60,47.94z"/>
<path class="st0" d="M5.37,49.53v-4.6c0-0.79,0-2.2-2.69-2.2c-0.71-0.01-1.41,0.1-2.08,0.32C0.14,43.19,0,43.37,0,43.6v5.95
	c0,0.22,0.06,0.25,0.25,0.25H0.9c0.19,0,0.29,0,0.29-0.27v-5.47c0-0.3,0.5-0.61,1.43-0.61c1.57,0,1.57,1,1.57,1.63v4.45
	c0,0.24,0.07,0.27,0.29,0.27h0.73C5.36,49.77,5.37,49.65,5.37,49.53z"/>
<path class="st0" d="M12.43,46.37c0.13-1.2-0.35-2.38-1.28-3.15c-0.52-0.33-1.12-0.5-1.74-0.49c-0.61-0.01-1.21,0.16-1.73,0.49
	c-0.93,0.77-1.41,1.95-1.28,3.15c-0.13,1.2,0.35,2.38,1.28,3.14C8.2,49.84,8.8,50.01,9.41,50c0.62,0.01,1.22-0.16,1.74-0.49
	C12.08,48.75,12.56,47.57,12.43,46.37z M11.21,46.37c0.1,0.86-0.13,1.72-0.63,2.42c-0.31,0.3-0.74,0.46-1.17,0.43
	c-0.43,0.03-0.85-0.13-1.16-0.43c-0.5-0.7-0.72-1.56-0.62-2.42c-0.1-0.86,0.12-1.72,0.62-2.43c0.31-0.3,0.73-0.46,1.16-0.44
	c0.43-0.03,0.86,0.13,1.17,0.44C11.08,44.64,11.31,45.51,11.21,46.37z"/>
<path class="st0" d="M24.62,46.37c0.13-1.2-0.35-2.38-1.28-3.15c-1.06-0.65-2.41-0.65-3.47,0c-0.93,0.77-1.41,1.95-1.28,3.15
	c-0.13,1.2,0.35,2.38,1.28,3.14c1.06,0.65,2.41,0.65,3.47,0C24.27,48.75,24.75,47.57,24.62,46.37z M23.39,46.37
	c0.1,0.86-0.12,1.72-0.63,2.42c-0.67,0.57-1.65,0.57-2.32,0c-0.5-0.7-0.72-1.56-0.62-2.42c-0.1-0.86,0.12-1.72,0.62-2.43
	c0.66-0.59,1.66-0.59,2.32,0C23.27,44.64,23.49,45.51,23.39,46.37z"/>
<path class="st0" d="M18.48,43c0-0.13-0.11-0.13-0.18-0.13h-0.66c-0.1,0-0.12,0-0.16,0.19l-1.74,5.08l-1.8-5.06
	c-0.06-0.18-0.09-0.21-0.29-0.21h-0.81c-0.06,0-0.19,0-0.19,0.16c-0.01,0.06-0.01,0.13,0,0.19l2.42,6.35
	c0.06,0.15,0.09,0.2,0.19,0.21h0.53c0.15,0,0.18,0,0.25-0.2l2.33-6.36C18.42,43.16,18.46,43.08,18.48,43z"/>
<path class="st0" d="M16.56,5.39c0-2.98,2.42-5.4,5.4-5.4c2.98,0,5.4,2.42,5.4,5.4c0,2.97-2.39,5.38-5.36,5.4
	c-2.98,0.02-5.42-2.38-5.44-5.36C16.56,5.42,16.56,5.4,16.56,5.39z"/>
<path class="st0" d="M68,36h0.63c0.34,0,0.88,0,0.88,0.52s-0.57,0.52-0.84,0.52H68V36z M67.44,39H68v-1.48h0.33
	c0.44,0,0.61,0.17,1,0.92l0.31,0.54h0.68l-0.42-0.67c-0.43-0.68-0.6-0.79-0.8-0.86l0,0c0.55,0,1-0.45,1-1
	c0-0.27-0.12-0.52-0.33-0.69c-0.34-0.21-0.74-0.3-1.14-0.25H67.4L67.44,39z M68.85,34c-1.77-0.03-3.24,1.38-3.27,3.15
	s1.38,3.24,3.15,3.27c1.77,0.03,3.24-1.38,3.27-3.15c0-0.02,0-0.04,0-0.06c0-1.77-1.42-3.2-3.19-3.21H68.85z M68.85,34.54
	c1.48,0,2.68,1.2,2.68,2.68c0,1.48-1.2,2.68-2.68,2.68s-2.68-1.2-2.68-2.68c0,0,0-0.01,0-0.01c0-1.46,1.17-2.65,2.63-2.67H68.85z"/>
<path class="st1" d="M18.53,4.76c-0.01-2.01,1.62-3.64,3.63-3.65c2.01-0.01,3.64,1.62,3.65,3.63c0.01,2.01-1.62,3.64-3.63,3.65
	c0,0-0.01,0-0.01,0c-2,0.01-3.63-1.62-3.64-3.62C18.53,4.77,18.53,4.76,18.53,4.76z"/>
<path class="st1" d="M23.27,15.42c-0.47-0.28-1.44-0.78-2.39-1.34c-1.74-1-2.61-1.54-3.27-1c-0.53,0.43-0.97,0.96-1.29,1.57
	c-0.09,0.26-0.05,0.89-0.28,1.18c-0.23,0.29-0.43,0.62-0.79,1.06c-0.49,0.6-0.13,0.79,0.39,1.43s1.63,0,2.9,1
	c0.69,0.62,1.27,1.36,1.69,2.19c0.28,0.43,0.44,0.18,0.67-0.41c0.63-1.52,1.37-2.99,2.23-4.39C23.4,16.25,23.78,15.74,23.27,15.42z
	 M17.33,15.18c-0.52-0.88,1.37-1.13,1.46-0.86S17.85,16.06,17.33,15.18z"/>
<path class="st1" d="M32.66,18.62c-0.07-0.5-0.16-0.85,0.66-0.81c1.09,0.05,1.62,0.11,2.29,0.1s1.75,0,2.11-0.06
	c0.52-0.13,1.06,0.14,1.27,0.64c0.2,0.49,0.93,2.51-0.28,3.07c-1.54,0.66-3.25,0.83-4.89,0.49c-0.41-0.12-1.08-0.28-1.07-1.11
	C32.77,20.17,32.74,19.39,32.66,18.62z"/>
<path class="st1" d="M42.08,18.11c0.54,0.67,0.91,1.46,1.06,2.3c0.08,0.49,0.74,0.3,0.82-0.16c0.11-0.84-0.1-1.7-0.59-2.39
	c-0.28-0.29-0.69-0.41-1.08-0.31C41.86,17.64,41.75,17.74,42.08,18.11z"/>
<path class="st1" d="M32.89,25.3c-0.34,0.11-3.13,0.9-3.18,3.78c0,0.85-0.26,0.77-0.66,0.47c-1.5-1.16-3.07-2.23-4.7-3.19
	c-0.8-0.44-1.48-1.06-2-1.81c-0.79-1.19-0.93-2.69-0.38-4c0.43-1.14,0.98-2.23,1.63-3.25c0.9-1.34,0.81-1.35,2.55-0.79
	c1.57,0.5,1.49,0.7,1.51,1.47c0.02,0.96-0.08,1.92-0.31,2.85c-0.08,0.46,0.22,0.9,0.69,0.99c0.04,0.01,0.08,0.01,0.12,0.01
	c2.46,0.07,2.51-3.34,2.51-3.35c0.05-0.8-0.25-0.95,0.54-0.88c0.59,0.06,0.69,0.56,0.78,1.46c0,0.33,0,1.62,0,2
	c-0.05,0.77,0.49,1.45,1.25,1.59c1.98,0.47,4.06,0.27,5.91-0.56c0.7-0.31,1.11-1.05,1-1.81c-0.06-0.66-0.19-1.32-0.4-1.95
	c-0.15-0.36-0.12-0.62,0.19-0.66c1.5-0.21,2.18,1.36,2.69,3.26c0.17,0.62,1,0.58,1.46,0.16c0.55-0.63,0.69-1.52,0.36-2.29
	c-0.08-0.32-0.19-0.62-0.35-0.91c-0.11-0.19-0.14-0.35,0.27-0.35c2.74,0,2.05,5.06,2,5.49c-0.08,0.77-0.21,1.53-0.37,2.29
	c-0.49,2.23-1.64,1.34-2,1.11c-1.25-0.81-2.68-1.31-4.17-1.43C36.1,24.67,34,24.93,32.89,25.3z"/>
<path class="st1" d="M28.45,17.69c0.04,1.03-0.06,2.06-0.29,3.06c0,0.32,0.4,0.41,0.72,0.23c0.56-0.31,1-1.38,1-3
	c0-0.4,0-0.58-0.67-0.69S28.41,17.17,28.45,17.69z"/>
</svg>
