<?xml version="1.0" encoding="utf-8"?>
<!-- Generator: Adobe Illustrator 24.1.2, SVG Export Plug-In . SVG Version: 6.00 Build 0)  -->
<svg version="1.1" id="Layer_1" xmlns="http://www.w3.org/2000/svg" xmlns:xlink="http://www.w3.org/1999/xlink" x="0px" y="0px"
	 viewBox="0 0 169.87 49.94" style="enable-background:new 0 0 169.87 49.94;" xml:space="preserve">
<style type="text/css">
	.st0{fill-rule:evenodd;clip-rule:evenodd;fill:#808184;}
	.st1{fill-rule:evenodd;clip-rule:evenodd;fill:#93989B;}
	.st2{fill-rule:evenodd;clip-rule:evenodd;fill:#828282;}
	.st3{fill:#808184;}
</style>
<path class="st0" d="M131.6,7.14l12.84-0.77c-6.78-0.22-10.8-0.22-12.07-0.09l-1.9,0.41C130.25,6.91,130.65,7.05,131.6,7.14z"/>
<path class="st0" d="M128.76,10.35l21.11-0.45l-20.44-0.73c-2.71-0.18-4.2,0-4.43,0.5C124.6,10.35,125.91,10.57,128.76,10.35z"/>
<path class="st0" d="M121.3,14.42l31.87-1.13l-28.71-0.32c-2.17,0-3.3,0.22-3.3,0.67l0.14,0.82L121.3,14.42z"/>
<path class="st0" d="M123.42,18.66l32-1.44l-34.68-0.54c-0.9,0.09-1.4,0.31-1.49,0.76C119.12,18.44,120.47,18.8,123.42,18.66
	L123.42,18.66z"/>
<path class="st0" d="M118.81,22.33l37.88-0.95l-35-1c-2.26,0-3.44,0.36-3.62,1.22c0,0.37,0.23,0.68,0.77,0.73L118.81,22.33z"/>
<path class="st0" d="M118.49,26.17l12-0.14l1.68-1.9h-12c-1.81,0-2.63,0.41-2.4,1.22C117.75,25.77,118.07,26.13,118.49,26.17
	L118.49,26.17z"/>
<path class="st0" d="M121.16,30.19l7.6-0.54l1-1.72l-8.91,0.14c-1.71,0-2.57,0.36-2.57,1s0.22,0.86,0.63,0.91l2.26,0.18
	L121.16,30.19z"/>
<path class="st0" d="M122.34,33.81l19.3-0.77l-1.36-1.36l-18.62,0.14l-1.94,0.22c-0.25,0.21-0.34,0.55-0.23,0.86
	C119.62,33.72,120.62,34.03,122.34,33.81z"/>
<path class="st0" d="M144.22,36.2L125,36.06c-2.35,0-3.39,0.28-3.34,0.95c0.22,0.86,1.54,1.09,4,0.86l19.71-0.45l-1.17-1.22H144.22z
	"/>
<path class="st1" d="M146.61,40.13L126,39.97c-0.45,0-0.67,0.18-0.67,0.54c0,0.68,1.44,1,4.29,0.82l19.08-0.68l-2-0.5L146.61,40.13z
	"/>
<path class="st1" d="M133.59,44.11l11.31-0.36l-11.85-0.45c-1.58-0.23-2.4-0.09-2.4,0.45L133.59,44.11z"/>
<path class="st2" d="M165.74,1.76c-4.12,1.77-12.12,6.42-24,14.1c5.43-3.07,11.1-5.7,16.94-7.89L168,4.88l1.81,0.14
	c0.36,0.22-0.18,0.54-1.45,0.9c-4.13,1.47-8.17,3.15-12.12,5.05c-6.78,3.08-10.67,5.25-11.8,6.6l7.83,0.18
	c-0.96,1.31-2.45,2.14-4.07,2.26l-1.5,0.05c1.72,2.8,4.53,4.38,8.37,4.61l2.62,0.13l0.14,2l-11,1.08l10.62,0.68
	c0.14,1.58,0.1,2.39-0.13,2.39h-10.71l9.86,1.45l-0.59,2.57l-8.9,0.68l7.91,0.86L153,39.05l-4.83,0.63l3.75,0.81l-4.12,2.85
	c-2.34-2.28-4.53-4.71-6.55-7.28l-2.89-4l-4,0.86c3.48-2.48,5.33-4.38,5.65-5.51c-0.01-1.49-0.16-2.97-0.45-4.43l-1.45,1.49
	c-0.05-1.4-0.38-2.79-0.95-4.07l-0.54,1.67l-2.4,2.08l1.78-0.18c-1,5.78-3.39,9.49-7.1,11l-2.17-2.26l1.49-1.36l-2.26,0.68
	l-0.45-0.68c1.54-2.72,3.31-5.3,5.29-7.72l6.55-6c3.27-2.77,6.71-5.32,10.3-7.66c8.35-5,14.43-8.25,18.09-9.61
	c1.44-0.54,2-0.45,1.67,0.14L165.74,1.76z"/>
<path class="st2" d="M104.16,45.73v-1.18c0-0.61,0.8-1.25,2.37-1.89l0.86-0.43v4.41h1.86v-4.82l-0.27-0.11
	c-0.04-0.13,0.01-0.26,0.12-0.34c0.18-0.16,0.68-0.5,1.52-1.07v7.59H89.24c0.03,0.66-0.29,1.29-0.84,1.66l-1.21,0.42
	c-0.46-0.05-0.88-0.26-1.19-0.6c-0.23-0.2-0.18-0.32,0.07-0.34c0.45,0.2,0.98,0.12,1.36-0.2c0.32-0.2,0.52-0.56,0.5-0.94L88,44.16
	l-0.36-0.13c-0.1-0.09-0.05-0.21,0.13-0.32l1.48-1.09v4H91v-4.65c-0.41-0.19-0.41-0.46,0-0.76l1.41-1v3.76
	c0.43-0.39,1.01-0.59,1.59-0.56h5.2c0.58,0,1.14,0.21,1.59,0.57c0.5,0.42,0.78,1.05,0.75,1.71v1h4.54v-0.91L104.16,45.73z
	 M80.59,40.97v5.66h4.17v-1.58c-0.46-0.11-0.5-0.34-0.12-0.68l1.44-1v4.52h-9.69l0.18-2.13c0-0.41,0.41-0.94,1.25-1.51
	c0.43-0.3,0.88-0.57,1.36-0.79l0.07-0.55c-0.34-0.11-0.45-0.22-0.34-0.34L80.59,40.97z M106.07,44.02
	c-0.61,0.18-0.91,0.41-0.91,0.75h0.91V44.02z M77.77,46.63h1.46v-1.78l-1.12,0.56c-0.36,0.3-0.49,0.79-0.34,1.23V46.63z
	 M77.41,40.15c0.57,0,0.82,0.23,0.82,0.64s-0.25,0.52-0.82,0.52s-0.66-0.18-0.66-0.52c-0.03-0.32,0.21-0.61,0.53-0.64
	C77.33,40.14,77.37,40.14,77.41,40.15z M79.18,40.15c0.57,0,0.85,0.23,0.85,0.64s-0.28,0.52-0.85,0.52c-0.41,0-0.63-0.18-0.63-0.52
	c-0.04-0.31,0.18-0.6,0.49-0.64C79.09,40.15,79.13,40.14,79.18,40.15z M81.91,48.34c0.53,0,0.8,0.22,0.8,0.63s-0.27,0.53-0.8,0.53
	s-0.68-0.19-0.68-0.53S81.46,48.34,81.91,48.34z M83.78,48.34c0.52,0,0.8,0.22,0.8,0.63s-0.28,0.53-0.8,0.53s-0.68-0.19-0.68-0.53
	S83.32,48.34,83.78,48.34z M104.59,40.04c0.57,0,0.82,0.22,0.82,0.63s-0.25,0.53-0.82,0.53s-0.66-0.18-0.66-0.53
	c-0.03-0.32,0.2-0.6,0.52-0.63C104.5,40.03,104.54,40.03,104.59,40.04z M106.44,40.04c0.54,0,0.79,0.22,0.79,0.63
	s-0.25,0.53-0.79,0.53s-0.64-0.18-0.64-0.53c-0.04-0.31,0.19-0.6,0.5-0.63C106.35,40.03,106.39,40.03,106.44,40.04z M100.16,46.63
	h-7.74v-1.31c0.2-0.37,0.58-0.59,1-0.59h5.69c0.54,0,0.84,0.12,1,0.39l0.07,0.64v0.88L100.16,46.63z M113.08,40.33v7.55h-1.41v-6.06
	c-0.14,0-0.23,0-0.25-0.11l0.11-0.34l1.55-1V40.33z"/>
<path class="st2" d="M46.21,34.97h5.27L40.94,11.38H39L28.7,34.97h3.06l3-7.33h8.47L46.21,34.97z M35.63,25.48L39,17.25l3.36,8.23
	H35.63z"/>
<path class="st2" d="M85.05,34.97h5.27L79.78,11.38h-2L67.54,34.97h3.06l3-7.33h8.47L85.05,34.97z M74.47,25.48l3.36-8.23l3.35,8.23
	H74.47z"/>
<polygon class="st2" points="50.69,11.38 68.54,11.38 68.54,14.24 62.17,14.24 62.17,34.95 57.1,34.95 57.1,14.24 50.69,14.24 "/>
<path class="st2" d="M26.55,23.48c0-7-5.95-12.7-13.28-12.7S0,16.47,0,23.48s5.94,12.69,13.27,12.69c0.67,0,1.34-0.05,2-0.15l7,6.36
	l3.77-3l-7.46-4.27C23.35,33.21,26.49,28.61,26.55,23.48z M13.27,33.9c-4.86,0-8.81-4.67-8.81-10.42s4-10.43,8.81-10.43
	s8.82,4.67,8.82,10.43S18.14,33.9,13.27,33.9z"/>
<path class="st2" d="M104.22,23.97c3.53-0.72,6.04-3.85,6-7.45c0-4.64-5.49-5.14-5.49-5.14H94.28v23.59h4.12v-10.5h1.4l6.78,10.24
	h5.82L104.22,23.97z M98.4,22.52v-9.89h5.32c0,0,2.86,1.61,2.86,4.57s-1.26,5.32-3.06,5.32H98.4z"/>
<path class="st3" d="M30.28,39.6h1.14l3,7.7h-1.13l-0.84-2.33H29.2l-0.87,2.32h-1L30.28,39.6z M29.52,44.12h2.61l-1.28-3.59l0,0
	L29.52,44.12z"/>
<path class="st3" d="M35.22,39.6h1v7.7h-1V39.6z"/>
<path class="st3" d="M38,39.6h3.62c1.45,0,2.34,0.79,2.34,2c0.1,0.9-0.46,1.75-1.33,2l0,0c0.89,0.17,1.08,0.83,1.15,1.58
	c-0.05,0.74,0.11,1.48,0.45,2.13h-1.17c-0.29-0.32-0.13-1.15-0.28-1.9s-0.29-1.44-1.28-1.44H39v3.29h-1V39.6z M41.16,43.15
	c1,0,1.78-0.25,1.78-1.37c0.06-0.67-0.43-1.26-1.11-1.32c-0.09-0.01-0.18-0.01-0.26,0H39v2.69H41.16z"/>
<path class="st3" d="M52.12,47.3h-1.07l-1.76-6.47l0,0l-1.78,6.47h-1.08l-2-7.7h1L47,45.97l0,0l1.72-6.4h1.11l1.74,6.4l0,0l1.56-6.4
	h1L52.12,47.3z"/>
<path class="st3" d="M57,39.6h1.13l3,7.7H60l-0.85-2.33h-3.26L55,47.3h-1L57,39.6z M56.24,44.12h2.6l-1.28-3.59l0,0L56.24,44.12z"/>
<path class="st3" d="M64.26,44.15v3.15h-1v-3.15l-3-4.55h1.22l2.3,3.66L66,39.6h1.2L64.26,44.15z"/>
<path class="st3" d="M72.52,41.85c-0.05-0.93-0.84-1.64-1.77-1.58c-0.05,0-0.09,0.01-0.14,0.01c-0.86,0-1.73,0.31-1.73,1.31
	s1.23,1.09,2.47,1.37s2.46,0.71,2.46,2.22s-1.6,2.3-3,2.3c-1.72,0-3.18-0.84-3.18-2.72h1c0,1.3,1.08,1.86,2.25,1.86
	c0.92,0,2-0.3,2-1.41s-1.23-1.23-2.46-1.5s-2.47-0.63-2.47-2c0-1.56,1.39-2.25,2.79-2.25c1.58,0,2.77,0.74,2.84,2.43L72.52,41.85z"
	/>
</svg>
