<?xml version="1.0" encoding="utf-8"?>
<!-- Generator: Adobe Illustrator 24.1.2, SVG Export Plug-In . SVG Version: 6.00 Build 0)  -->
<svg version="1.1" id="Layer_1" xmlns="http://www.w3.org/2000/svg" xmlns:xlink="http://www.w3.org/1999/xlink" x="0px" y="0px"
	 viewBox="0 0 257.65 49.59" style="enable-background:new 0 0 257.65 49.59;" xml:space="preserve">
<style type="text/css">
	.st0{fill:#828282;}
</style>
<path class="st0" d="M53.7,31.09h-3.23v-6.7h3.23V31.09z M208.16,31.98h-3.07V14.13h3.07V31.98z M173.55,19.89h-3.08v-5.76h3.08
	V19.89z M120.15,17.41V8.88h-5V0h-14.64v8.88H89L84.54,24.5L80.28,8.88H66.1l11.25,29.6l-4.11,11.11h14.37l12.85-33.62v22.62h14.73
	V17.41H120.15z M257.65,38.59v-22c-0.01-2.49-1.16-4.85-3.12-6.39c-1.81-1.63-4.17-2.52-6.6-2.48c-4,0.05-6.98,1.13-8.93,3.22V8.23
	h-14v30.36h14.5V17.41h3v21.18H257.65z M68,38.59v-19.5c0.14-3.58-1.56-6.97-4.51-9c-2.78-2-6.35-3-10.76-2.93
	c-5.16,0.05-9.18,1.09-12.1,3.08c-2.53,1.68-3.77,3.72-3.77,6.15v1.34h13.76v-3.6h3.08v5.65l-7,0.15c-7.24,0.15-10.91,3-11,8.58
	c-0.1,7,3.12,10.57,9.62,10.57c3.53,0.19,6.91-1.46,8.92-4.37l0.06,3.88H68z M188.87,23.11c-0.1-5.11-1.19-8.88-3.22-11.26
	c-2.65-3.12-7.14-4.66-13.59-4.66c-5.45,0-9.38,0.79-11.75,2.43c-3.42,2.33-5.11,6.84-5.11,13.49c0,6.49,1.79,10.96,5.36,13.39
	c2.43,1.68,6.24,2.53,11.45,2.58c5,0,8.82-0.75,11.45-2.49c2.46-1.72,4.2-4.3,4.87-7.23c0.13-0.56,0.22-1.12,0.29-1.69h-15v4.31
	h-3.13v-7.09h18.3c0-0.64,0.1-1.24,0.1-1.78 M223.45,23.11c0-6.59-1.69-11-5.06-13.39c-2.39-1.64-6.27-2.53-11.77-2.53
	s-9.42,0.85-11.75,2.48c-3.32,2.38-5,6.85-5,13.44s1.69,11.16,5,13.48c2.33,1.64,6.25,2.49,11.75,2.49s9.37-0.8,11.75-2.49
	c3.37-2.38,5.06-6.89,5.06-13.48 M34.43,10.32c0.14-2.68-0.81-5.31-2.63-7.29c-1.89-2.05-4.6-3.15-7.39-3H0v38.56h15.47V24.25h3.42
	v14.34h15.52V26.43c0.15-1.71-0.29-3.41-1.24-4.84c-0.93-1.28-2.2-2.28-3.67-2.88c1.38-0.73,2.58-1.75,3.52-3
	c0.95-1.66,1.45-3.54,1.44-5.45 M154.26,38.59V15.97c0.03-2.24-0.93-4.38-2.63-5.85c-1.71-1.54-3.95-2.37-6.25-2.33
	c-1.77,0-3.53,0.3-5.2,0.89c-1.44,0.43-2.76,1.17-3.87,2.18V0h-14.78v38.59h14.78V17.41h3.07v21.18H154.26z M18.94,15.81h-3.37V7.39
	h3.37C18.94,7.39,18.94,15.81,18.94,15.81z"/>
</svg>
