<?xml version="1.0" encoding="utf-8"?>
<!-- Generator: Adobe Illustrator 24.1.2, SVG Export Plug-In . SVG Version: 6.00 Build 0)  -->
<svg version="1.1" id="Layer_1" xmlns="http://www.w3.org/2000/svg" xmlns:xlink="http://www.w3.org/1999/xlink" x="0px" y="0px"
	 viewBox="0 0 339.75 49.82" style="enable-background:new 0 0 339.75 49.82;" xml:space="preserve">
<style type="text/css">
	.st0{fill-rule:evenodd;clip-rule:evenodd;fill:#828282;}
	.st1{fill:#828282;}
</style>
<polygon class="st0" points="151.35,0.24 188.02,0.24 169.81,18.45 169.72,18.53 151.35,0.24 "/>
<polygon class="st0" points="151.35,36.83 188.02,36.83 169.81,18.61 169.72,18.53 151.35,36.83 "/>
<polygon class="st0" points="151.67,0.16 151.67,36.83 133.46,18.61 133.38,18.53 151.67,0.16 "/>
<polygon class="st0" points="187.94,0.16 187.94,36.83 206.15,18.61 206.23,18.53 187.94,0.16 "/>
<path class="st1" d="M339.74,28.72c-0.05,2.8-0.8,5.55-2.17,8c-0.14,0-7.53,1.46-10.9-0.89c-0.48-0.34-1.08-0.73-1.06-0.72
	c-0.15,0-2.24,1.53-2.24,1.53l-16.13,0.08L306,34.58c0,0-1.73,2.34-3.93,2.09l-33.38,0.16V5l3.85-5l0.48,27.36
	c0,0-0.72,3.54,2.57,3.69c0,0.28,29.05,0.05,29,0s2.41,0.44,1.77-5.3c0,0.2,5.13-5.53,5.13-5.53s0.16,7.75-2.46,10.47
	c0,0.77,16.06,0.45,16.1,0.36c0.28-1.38,0.28-2.79,0-4.17c0.16,0,0.61-2.33,5.38-5.94c0.16,0-2.33,9.63-2.33,9.63
	c1.61,0.55,3.3,0.82,5,0.8c1.07,0.12,2.14,0.15,3.21,0.08c0,0-1.25-6.27-1.21-6.26c-0.11-0.13,4.44-5.1,4.5-5.13s0,4.17,0,8.66
	L339.74,28.72z M261.27,32.82c-0.16,0.32-0.88,3.93-0.88,3.93h-29.13c0,0-13.26-0.32-11.47-11.16c0,0,2.43-7.84,5.45-9.06
	c-0.09,0.58-0.25,1.14-0.48,1.68c-0.89,1.54-1.49,3.24-1.77,5c-0.14,1.12,0.01,2.25,0.43,3.29c0.35,0.89,0.86,1.71,1.5,2.42
	c0,0.08,2.63,2.45,5.46,2.25c0,0.08,28.4,0,28.4,0s0.48-3.37-3.93-10.27l3-5.86c2.12,3.47,3.56,7.31,4.25,11.32
	c0,0.08-0.16,5.05-0.88,6.5L261.27,32.82z M243.27,49.82L237,46.05l2.73-4.49l6.17,3.69l-2.72,4.57L243.27,49.82z"/>
<path class="st1" d="M117.52,15c1.04-1.36,1.59-3.02,1.57-4.73c0.02-2-0.69-3.94-2-5.45c-1.53-1.69-3.57-2.85-5.81-3.3
	c-2.19-0.47-4.44-0.68-6.68-0.63H89.73v1H91c1.12-0.1,2.22,0.31,3,1.11c0.49,0.57,0.73,1.94,0.73,4.11v22.68
	c0.12,1.31-0.08,2.64-0.58,3.86C93.41,34.62,92.21,35.14,91,35h-1.27v1H106c2.92,0.13,5.84-0.24,8.64-1.1
	c1.81-0.67,3.37-1.89,4.46-3.49c1.04-1.46,1.6-3.21,1.62-5c0.04-2.2-0.85-4.32-2.46-5.83c-1.52-1.3-3.37-2.16-5.35-2.49
	C114.73,17.56,116.34,16.48,117.52,15z M99.58,3.2c1.49-0.4,3.02-0.59,4.56-0.57c3.15,0,5.55,0.72,7.19,2.17
	c1.57,1.29,2.47,3.23,2.46,5.26c0.01,1.29-0.34,2.56-1,3.67c-0.65,1.12-1.66,2-2.86,2.5c-1.78,0.64-3.68,0.92-5.57,0.82
	c-1,0-1.85,0-2.65-0.09c-0.72-0.05-1.43-0.14-2.14-0.27V3.2H99.58z M99.58,19.07c0.59-0.11,1.2-0.17,1.8-0.18
	c0.74,0,1.64-0.06,2.69-0.06c2.08-0.06,4.16,0.31,6.09,1.09c1.48,0.59,2.72,1.64,3.55,3c0.71,1.19,1.09,2.55,1.1,3.93
	c0.03,2.02-0.86,3.94-2.42,5.22c-1.6,1.41-3.94,2.11-7,2.11c-1.96,0-3.91-0.24-5.81-0.7C99.58,33.48,99.58,19.07,99.58,19.07z"/>
<path class="st1" d="M87,15c1.04-1.36,1.6-3.02,1.58-4.73c0.02-2-0.69-3.94-2-5.45c-1.53-1.69-3.57-2.85-5.81-3.3
	c-2.19-0.47-4.42-0.68-6.66-0.63H59.24v1h1.29c1.1-0.09,2.18,0.32,2.95,1.11c0.49,0.57,0.73,1.94,0.73,4.11v22.68
	c0.12,1.31-0.08,2.64-0.58,3.86c-0.73,0.96-1.9,1.47-3.1,1.35h-1.29v1h16.24c2.93,0.13,5.85-0.24,8.65-1.1
	c1.81-0.67,3.36-1.89,4.45-3.49c1.04-1.46,1.61-3.21,1.63-5c0.04-2.2-0.86-4.32-2.47-5.83c-1.52-1.3-3.37-2.16-5.35-2.49
	C84.21,17.56,85.82,16.48,87,15z M69.09,3.2c1.49-0.4,3.03-0.59,4.57-0.57c3.14,0,5.54,0.72,7.18,2.17
	c1.57,1.29,2.47,3.23,2.46,5.26c0.01,1.29-0.34,2.56-1,3.67c-0.65,1.12-1.65,2-2.85,2.5c-1.78,0.64-3.68,0.91-5.57,0.82
	c-1,0-1.85,0-2.66-0.09c-0.72-0.05-1.43-0.14-2.14-0.27V3.2H69.09z M69.09,19.07c0.59-0.1,1.2-0.16,1.8-0.18
	c0.74,0,1.64-0.06,2.69-0.06c2.08-0.06,4.16,0.31,6.09,1.09c1.48,0.59,2.73,1.64,3.56,3c0.7,1.19,1.08,2.55,1.09,3.93
	c0.03,2.01-0.86,3.93-2.41,5.22c-1.61,1.41-3.94,2.12-7,2.11c-1.96,0-3.91-0.24-5.81-0.7L69.09,19.07L69.09,19.07z"/>
<path class="st1" d="M19.65,0.09C19.59,0.68,19.36,1.24,19,1.71c-0.29,0.27-0.68,0.41-1.08,0.4c-0.7-0.1-1.38-0.32-2-0.65
	c-1.83-0.86-3.82-1.33-5.84-1.37C7.4-0.01,4.79,0.98,2.84,2.82C1.01,4.49-0.02,6.86,0,9.33c0,1.4,0.34,2.77,1,4
	c0.71,1.28,1.67,2.41,2.83,3.31c2,1.48,4.1,2.82,6.29,4c1.86,1.01,3.66,2.11,5.4,3.3c0.89,0.65,1.63,1.49,2.17,2.46
	c0.45,0.8,0.69,1.7,0.7,2.62c-0.01,1.54-0.68,2.99-1.84,4c-1.39,1.19-3.18,1.8-5,1.7c-1.74,0.01-3.46-0.41-5-1.24
	c-1.4-0.71-2.58-1.79-3.41-3.12c-0.92-1.77-1.52-3.68-1.78-5.66H0.33v12h0.94c0.03-0.57,0.22-1.12,0.54-1.6
	c0.26-0.26,0.63-0.41,1-0.39c1.1,0.18,2.17,0.49,3.19,0.92c1.07,0.37,2.16,0.69,3.26,0.94c0.9,0.16,1.82,0.23,2.74,0.23
	c2.88,0.11,5.69-0.92,7.81-2.88c1.93-1.76,3.02-4.26,3-6.88c0-1.39-0.33-2.76-0.95-4c-0.63-1.29-1.54-2.43-2.66-3.34
	c-2.09-1.5-4.3-2.84-6.59-4c-3.94-2.19-6.43-3.94-7.48-5.23C4.41,9.67,4.01,8.63,4,7.55C4.02,6.11,4.67,4.74,5.76,3.8
	c1.18-1.1,2.75-1.69,4.37-1.64c1.59,0.01,3.14,0.43,4.52,1.22c1.4,0.76,2.56,1.9,3.35,3.28c0.89,1.74,1.45,3.63,1.64,5.57h0.94V0.09
	H19.65z"/>
<path class="st1" d="M49.11,29.3c0.54,1.13,0.88,2.34,1,3.59c0,0.57-0.27,1.11-0.72,1.45c-0.84,0.5-1.8,0.74-2.78,0.7v1H60.2V35
	c-1.2-0.01-2.36-0.42-3.29-1.17c-1.16-1.34-2.05-2.89-2.62-4.57L42.31,0.09h-0.89L29.31,29c-0.64,1.83-1.61,3.52-2.87,5
	c-0.83,0.57-1.79,0.92-2.79,1v1h10.84v-1c-1.13,0.03-2.25-0.24-3.24-0.79c-0.46-0.32-0.74-0.85-0.75-1.41
	c0.1-1.06,0.4-2.09,0.87-3.05l2.33-5.54H47l2.08,5.05L49.11,29.3z M34.49,22.3l6-14.19l5.84,14.19H34.49z"/>
</svg>
