<?xml version="1.0" encoding="utf-8"?>
<!-- Generator: Adobe Illustrator 24.1.2, SVG Export Plug-In . SVG Version: 6.00 Build 0)  -->
<svg version="1.1" id="Layer_1" xmlns="http://www.w3.org/2000/svg" xmlns:xlink="http://www.w3.org/1999/xlink" x="0px" y="0px"
	 viewBox="0 0 98.47 50" style="enable-background:new 0 0 98.47 50;" xml:space="preserve">
<style type="text/css">
	.st0{fill-rule:evenodd;clip-rule:evenodd;fill:#828282;}
</style>
<path class="st0" d="M40.73,28l-0.86,0.89c-1,1-1.93,1.09-2.73,0.29s-0.71-1.75,0.27-2.73l0.89-0.89c1-1,1.92-1.09,2.73-0.29
	S41.74,26.99,40.73,28z M27.08,0.87c0.86,1.1,0.86,1.4-0.38,2.35l-8.84,6.67c-0.27,0.21-0.36,0.57,0.23,0.57h12.58
	c3,0,3.56,0.68,3.56,3.56v3.61c0,0.75,0.24,1.25,1.19,1.25h7.86c0.95,0,1.19-0.5,1.19-1.25v-5.45c0-1.55,0.38-1.72,1.78-1.72
	S48,10.63,48,12.18v5.45c0,3.33-0.84,4.16-4.16,4.16H0c0.24-2.14,2.14-2.91,4.66-2.91H29.6c0.78,0,1.07-0.21,1.07-0.95v-3.62
	c0-0.65-0.18-1-1.07-1H15.75c-2.31,0-3-1.24-3-2.31c0.13-1.05,0.74-1.99,1.66-2.52l10.36-7.81C26.02-0.28,26.22-0.22,27.08,0.87z
	 M51.59,2.06c0-1.54,0.41-1.72,1.77-1.72s1.78,0.18,1.78,1.72v15.57c0,0.75,0.24,1.25,1.19,1.25H67.9c1,0,1.19-0.5,1.19-1.25v-5.45
	c0-1.55,0.38-1.72,1.78-1.72s1.78,0.17,1.78,1.72v5.45c0,0.75,0.23,1.25,1.18,1.25h7.86c1,0,1.19-0.5,1.19-1.25v-5.45
	c0-1.55,0.39-1.72,1.78-1.72s1.78,0.17,1.78,1.72v5.45c0,0.75,0.24,1.25,1.19,1.25h5.93c1,0,1.19-0.5,1.19-1.25v-5.45
	c0-1.55,0.38-1.72,1.78-1.72s1.78,0.17,1.78,1.72v5.45c0,3.33-0.83,4.16-4.16,4.16H55.74c-3.32,0-4.15-0.83-4.15-4.16V2.06z"/>
<path class="st0" d="M82,48.21c0-4.22,3.8-9.72,11.22-9.72c0.85,0,1.13,0.57,1.13,1.32v3.68c0,1-0.09,1.35-1.29,1.35
	s-1.28-0.31-1.28-1.35v-1.92c0-0.34-0.07-0.41-0.19-0.41c-4,0-6.89,4.12-6.89,6c0,0.28,0,0.44,0.69,0.44H95
	c1.8,0,3.27,0.56,3.49,2.36H83.85c-1.07,0-1.85-0.32-1.85-1.7V48.21z M77.69,48.62v-7.36c0-0.16-0.07-0.19-0.29-0.19h-0.53
	c-1.07,0-1.38-0.28-1.38-1.23s0.31-1.22,1.38-1.22h2.23c0.76,0,1.23,0.31,1.23,1.16v8.84C80.33,49.81,80,50,79,50
	s-1.32-0.19-1.32-1.38H77.69z M64.69,49.91c-2.45,0-3.11-0.66-3.11-3.09V30.54c0-1.2,0.34-1.36,1.41-1.36
	c1.07,0,1.42,0.16,1.42,1.36v16.28c0,0.48,0.12,0.73,0.69,0.73h7.26c0.66,0,0.69-0.16,0.69-0.44c0-1.2-1.66-4.56-6.76-6.13
	c-0.88-0.26-1-0.76-0.69-1.58s0.91-0.91,1.64-0.72c6,1.76,8.55,5.69,8.55,9.53c0,1.38-0.82,1.7-1.86,1.7L64.69,49.91z M47.17,49.91
	c-1,0-1.85-0.32-1.85-1.7c0-5.85,6.41-9.72,8.87-9.72c0.85,0,1.13,0.57,1.13,1.32v3.68c0,1-0.06,1.35-1.29,1.35
	s-1.29-0.31-1.29-1.35V41.6c0-0.06,0-0.09-0.06-0.09c-1,0-4.62,3.08-4.62,5.6c0,0.28,0,0.44,0.69,0.44h7.36
	c0.56,0,0.69-0.25,0.69-0.73v-10c0-1.2,0.34-1.39,1.41-1.39s1.42,0.19,1.42,1.39v10c0,2.43-0.66,3.09-3.12,3.09L47.17,49.91z
	 M79.48,35.54l-0.6,0.59c-0.81,0.82-1.54,0.88-2.17,0.26s-0.56-1.39,0.22-2.17l0.6-0.63c0.82-0.79,1.54-0.88,2.17-0.22
	S80.27,34.72,79.48,35.54z M41.31,49.91c2.17,0,2.67-0.54,2.67-2.68V46c0-2.14-0.44-2.68-2.67-2.68h-7.17c-0.1,0-0.16,0-0.16-0.12
	c0-0.28,3.05-2.17,8.84-2.3c0.88,0,1.1-0.41,1-1.26s-0.28-1.16-1.35-1.16c-7.67,0-12,3.74-12,5.76c0,0.88,0.51,1.44,2.5,1.44h7.59
	c0.57,0,0.63,0.13,0.63,0.54V47c0,0.44-0.13,0.54-0.63,0.54h-10.2c-1.79,0-3.27,0.56-3.46,2.36L41.31,49.91z"/>
</svg>
