<?xml version="1.0" encoding="utf-8"?>
<!-- Generator: Adobe Illustrator 24.1.2, SVG Export Plug-In . SVG Version: 6.00 Build 0)  -->
<svg version="1.1" id="Layer_1" xmlns="http://www.w3.org/2000/svg" xmlns:xlink="http://www.w3.org/1999/xlink" x="0px" y="0px"
	 viewBox="0 0 43.77 50" style="enable-background:new 0 0 43.77 50;" xml:space="preserve">
<style type="text/css">
	.st0{fill:#828282;}
	.st1{fill:#A5A4A0;}
</style>
<path class="st0" d="M0,47.26h3.72c-0.09,0.46,0.13,0.93,0.55,1.15c0.84,0.11,1.69,0.11,2.53,0c0.3-0.06,0.6-0.17,0.6-1.12
	c0-0.4-0.1-0.84-0.56-0.94c-1.64-0.13-3.24,0-4.87-0.12c-1.64-0.36-1.88-0.78-2-2.08c0.11-1.79,0.73-2.3,2.57-2.36s3.82-0.05,5.71,0
	s2.54,0.75,2.54,2.38H7.4c0-0.8-0.15-1.11-0.56-1.15c-0.84-0.06-1.67-0.06-2.51,0c-0.3,0-0.71,0.16-0.71,0.89s0.18,0.86,0.65,0.92
	c1.41,0,2.82,0.07,4.21,0.16c2.3,0.15,2.39,1.16,2.47,2.25c0,1.52-0.52,2.07-0.93,2.31C9.16,49.79,8.29,49.94,7.4,50H3.7
	c-0.94-0.01-1.88-0.14-2.78-0.4C0.09,49.38,0,48.24,0,47.26z"/>
<rect x="35.08" y="41.85" class="st0" width="3.26" height="8.15"/>
<rect x="40.53" y="41.85" class="st0" width="3.24" height="8.15"/>
<path class="st0" d="M8.64,38.78l-1-8c-2.59-1.78-4.64-3.3-7-5.07c-1.12-8.35,1-12.9,4.05-17.2C8.85,3.17,15.23,0.03,22,0
	c6.78,0.04,13.15,3.24,17.23,8.66c3.76,4.94,5.18,11.27,3.9,17.34l-6.63,4.83l-1,8H25c-0.83,0.67-1.87,1.02-2.94,1
	c-1.08,0.01-2.14-0.34-3-1L8.64,38.78z"/>
<path class="st1" d="M22,27.76c-0.55-7.4-0.71-16.54-1.17-23.87c-0.93-0.17-1.89-0.17-2.82,0c-0.83,0.23-1.64,0.57-2.39,1
	c1.43,7.05,3.11,16,4.53,23c-1.93-6.78-4.53-15.3-6.47-22.06c-0.91,0.21-1.76,0.64-2.48,1.24C10.52,7.6,9.95,8.26,9.51,9
	c2.8,6,6.15,13.56,9,19.48C15.22,23.06,11.26,16,8,10.62c-0.7,0.55-1.29,1.23-1.74,2c-0.51,0.88-0.83,1.86-0.93,2.88
	c3.58,4.35,7.84,9.59,11.44,13.94C13,25.86,8.4,21.2,4.69,17.58C4.27,18.37,4.03,19.25,4,20.15c-0.1,1.15,0.02,2.3,0.33,3.41
	L11.58,29l0.76,6l8,0.06c0.57,0.67,0.75,1,1.7,1.07c0.72-0.04,1.36-0.47,1.66-1.13h8l0.8-6l7.19-5.36C40,22.52,40.1,21.36,40,20.21
	c-0.06-0.89-0.28-1.76-0.67-2.57c-3.7,3.6-8.33,8.26-12.06,11.87c3.62-4.31,7.85-9.57,11.47-14c-0.14-1.01-0.48-1.98-1-2.86
	c-0.46-0.75-1.02-1.42-1.68-2C32.77,16,28.78,23.12,25.53,28.47c2.87-5.94,6.16-13.54,9-19.44c-0.45-0.73-1.02-1.38-1.68-1.92
	c-0.75-0.59-1.6-1.02-2.52-1.28c-2,6.74-4.51,15.33-6.47,22.06c1.37-7,3.07-15.88,4.44-22.9C27.6,4.52,26.82,4.19,26,4
	c-0.94-0.2-1.9-0.23-2.85-0.09C22.62,11.28,22.59,20.39,22,27.76z"/>
<path class="st0" d="M33.15,45.72c-0.05-0.25-0.12-0.5-0.22-0.74c-0.56-0.91-2.47-0.91-4.34-0.95c-1.42,0-3.52,0-4.13,0.64
	c-0.23,0.29-0.39,0.64-0.46,1c-0.07,0.44-0.1,0.89-0.08,1.33c0,0.42,0,2,0.83,2.48s2.94,0.54,3.8,0.54s3.41-0.1,3.78-0.52
	c0.63-0.24,0.8-1,0.93-1.68h-3.21c0,0.64-0.5,1-1.5,1s-1.42-0.16-1.42-1.3h6.13C33.29,46.92,33.25,46.31,33.15,45.72z M30.05,46.29
	h-2.92c-0.01-0.19,0.02-0.39,0.09-0.57c0.21-0.5,0.75-0.52,1.33-0.56c0.87,0,1.27,0.21,1.42,0.56C30.04,45.9,30.07,46.1,30.05,46.29
	z"/>
<path class="st0" d="M12.86,50h3.2v-3.47c0.08-0.46,0.2-0.86,1.36-0.86s1.42,0.29,1.42,0.86V50H22v-3.47c0-1.12,0-1.74-0.74-2.07
	c-0.78-0.34-1.64-0.47-2.48-0.36c-0.94-0.03-1.89,0.13-2.76,0.49v-2.74h-3.2L12.86,50z"/>
</svg>
