<?xml version="1.0" encoding="utf-8"?>
<!-- Generator: Adobe Illustrator 24.1.2, SVG Export Plug-In . SVG Version: 6.00 Build 0)  -->
<svg version="1.1" id="Layer_1" xmlns="http://www.w3.org/2000/svg" xmlns:xlink="http://www.w3.org/1999/xlink" x="0px" y="0px"
	 viewBox="0 0 192.99 92.88" style="enable-background:new 0 0 192.99 92.88;" xml:space="preserve">
<style type="text/css">
	.st0{clip-path:url(#SVGID_2_);}
	.st1{fill:#828282;}
	.st2{fill:#60646B;}
	.st3{fill:#FFFFFF;}
</style>
<g>
	<defs>
		<polygon id="SVGID_1_" points="123.23,23.12 123.23,23.12 123.23,69.76 169.87,69.76 169.87,23.12 		"/>
	</defs>
	<use xlink:href="#SVGID_1_"  style="overflow:visible;fill:#828282;"/>
	<clipPath id="SVGID_2_">
		<use xlink:href="#SVGID_1_"  style="overflow:visible;"/>
	</clipPath>
	<g class="st0">
		
			<rect x="113.64" y="13.52" transform="matrix(0.7515 -0.6597 0.6597 0.7515 5.7824 108.2213)" class="st1" width="65.82" height="65.82"/>
	</g>
</g>
<path class="st2" d="M6.25,42.82c0.68-0.01,1.22-0.57,1.21-1.25s-0.57-1.22-1.25-1.21C5.56,40.37,5.03,40.88,5,41.53
	c-0.01,0.68,0.53,1.24,1.21,1.25c0.01,0,0.02,0,0.03,0"/>
<path class="st2" d="M9.8,54.84c-0.67-0.06-1.26,0.43-1.33,1.1s0.43,1.26,1.1,1.33c0.07,0.01,0.15,0.01,0.22,0
	c0.67-0.06,1.17-0.65,1.1-1.33C10.85,55.36,10.39,54.89,9.8,54.84"/>
<path class="st2" d="M11.62,49.53c0,1.08-0.41,1.47-1.55,1.47H8.76v-2.77c0-2.76-1.42-4.2-4-4.2c-2.4-0.22-4.52,1.54-4.74,3.94
	C0,48.16-0.01,48.34,0,48.53c-0.11,1.34,0.45,2.65,1.49,3.5c1.12,0.73,2.05,0.88,4.18,0.88h4.53c2.41,0,3.77-0.91,3.77-3.34v-5.54
	h-2.35V49.53z M6.45,50.97H5.11c-1.92,0-2.73-0.76-2.73-2.54C2.22,47.25,3.05,46.16,4.23,46c0.1-0.01,0.2-0.02,0.3-0.02
	c1.32,0,1.92,0.81,1.92,2.5L6.45,50.97z"/>
<path class="st2" d="M3.42,42.82c0.68,0,1.23-0.55,1.23-1.23c0-0.68-0.55-1.23-1.23-1.23c-0.68,0-1.23,0.55-1.23,1.23
	C2.19,42.27,2.74,42.82,3.42,42.82"/>
<path class="st2" d="M23.21,48.53c0.09-2.39-1.77-4.4-4.16-4.49c-0.17-0.01-0.35,0-0.52,0.01h-1.85V46h2
	c1.19-0.01,2.16,0.96,2.17,2.15c0,0.1-0.01,0.2-0.02,0.3v2.54h-6v1.94h8.4L23.21,48.53z"/>
<path class="st2" d="M12.61,54.84c-0.67-0.06-1.26,0.43-1.33,1.1s0.43,1.26,1.1,1.33c0.07,0.01,0.15,0.01,0.22,0
	c0.67,0.06,1.26-0.43,1.33-1.1c0.06-0.67-0.43-1.26-1.1-1.33C12.76,54.83,12.68,54.83,12.61,54.84"/>
<rect x="101.58" y="39.71" class="st2" width="2.28" height="13.21"/>
<path class="st2" d="M102.34,54.84v2.2c0.58,0.11,1.18,0.17,1.77,0.18c3.16,0,4.71-1.44,4.71-4.43v-7.9h-2.38v7.92
	c0.15,1.17-0.66,2.24-1.83,2.39c-0.11,0.01-0.22,0.02-0.33,0.02c-0.57,0-1.13-0.1-1.67-0.28L102.34,54.84z"/>
<rect x="110.34" y="41.12" class="st2" width="2.28" height="11.8"/>
<path class="st2" d="M73.71,52.03c1.11,0.73,2.05,0.89,4.17,0.89h0.79c0,1.51-0.89,2.27-2.51,2.27c-0.88,0-1.75-0.14-2.58-0.43
	h-0.15v2.2c0.94,0.19,1.9,0.29,2.86,0.31c3.11,0,4.71-1.45,4.76-4.3h13.39c3.69,0,5.64-1,5.64-4.41c0.12-2.39-1.72-4.42-4.11-4.54
	c-0.19-0.01-0.38-0.01-0.57,0.01c-2.63,0-4.05,1.44-4.05,4.2v2.74h-2.08c0.34-0.67,0.51-1.41,0.49-2.16c0-1.94-1.25-4.2-4.69-4.2
	h-0.3l4.45-4.91h-2.75c-1.68,1.88-4.18,4.61-4.49,4.89v2h3.24c1.1-0.1,2.07,0.71,2.18,1.8c0.01,0.11,0.01,0.23,0,0.35
	c0,1.65-0.73,2.26-2.73,2.26H81v-2.77c0-2.76-1.41-4.2-4-4.2c-2.4-0.24-4.53,1.51-4.77,3.91c-0.02,0.2-0.03,0.4-0.02,0.59
	c-0.12,1.35,0.45,2.67,1.5,3.52 M93.65,48.53c0-1.7,0.61-2.51,1.93-2.51c1.19-0.01,2.16,0.96,2.17,2.15c0,0.1-0.01,0.2-0.02,0.3
	c0,1.78-0.81,2.54-2.71,2.54h-1.37V48.53z M76.75,46.02c1.31,0,1.89,0.81,1.89,2.51v2.48h-1.31c-1.93,0-2.74-0.76-2.74-2.54
	c-0.15-1.19,0.68-2.28,1.87-2.43C76.56,46.03,76.65,46.02,76.75,46.02"/>
<path class="st2" d="M60.24,52.91c0.88,0.02,1.76-0.17,2.56-0.55c0.57-0.34,0.98-0.9,1.11-1.55c0.09-0.42,0.12-0.85,0.09-1.28v-9.8
	h-2.34v9.8c0,1.09-0.4,1.47-1.54,1.47h-0.56c-0.41-0.01-0.81-0.09-1.19-0.23c0.05-0.33,0.08-0.67,0.08-1v-4.88h-2.31v4.64
	c0,1-0.45,1.44-1.49,1.44c-0.4,0-0.79-0.06-1.17-0.18c0.06-0.37,0.09-0.75,0.08-1.13v-4.77h-2.3v4.64c0,0.91-0.23,1.29-0.89,1.42
	h-1.19c-0.18,0-0.58,0-0.58-0.21v-5.85h-2.3v6.08h-3.9c1.09-1.01,1.8-2.37,2-3.85c0-2.08-2.5-3.14-5-3.14s-5,1.06-5,3.14
	c0,1.47,1.32,3.06,2.07,3.85H33v-2.74c0-2.76-1.42-4.2-4-4.2c-2.38-0.23-4.5,1.51-4.73,3.88c-0.02,0.2-0.03,0.41-0.02,0.62
	c-0.13,1.34,0.42,2.66,1.47,3.52c1.11,0.73,2.05,0.88,4.17,0.88h0.79c0,1.52-0.86,2.28-2.51,2.28c-0.88,0-1.75-0.14-2.58-0.43h-0.15
	v2.2c0.94,0.19,1.9,0.29,2.86,0.31c3.11,0,4.71-1.44,4.76-4.31h15.69c0.45,0.06,0.91,0.08,1.37,0.08c0.76,0.03,1.51-0.16,2.17-0.53
	c0.89,0.34,1.84,0.51,2.79,0.51c0.76,0.04,1.52-0.16,2.17-0.56c0.88,0.34,1.82,0.51,2.76,0.48L60.24,52.91z M30.68,50.97h-1.34
	c-1.93,0-2.74-0.76-2.74-2.54c-0.16-1.18,0.67-2.27,1.85-2.43c0.1-0.01,0.2-0.02,0.3-0.02c1.32,0,1.93,0.81,1.93,2.5V50.97z
	 M39.44,50.81c-0.33,0-2.79-2.33-2.79-3.69c0-0.76,1.47-1.17,2.86-1.17s2.74,0.41,2.74,1.17C42.25,48.46,39.89,50.81,39.44,50.81"/>
<rect x="65.81" y="39.71" class="st2" width="2.28" height="13.21"/>
<path class="st2" d="M113.17,39.04h-1.27c-0.53,0-0.65-0.12-0.65-0.53c0-0.41,0.15-0.56,0.7-0.56c0.37-0.01,0.72,0.12,1,0.36V37.2
	l-0.18-0.08c-0.26-0.12-0.54-0.19-0.83-0.18c-1.17,0-1.82,0.56-1.82,1.6c0,0.17,0.03,0.34,0.1,0.5h-0.43v1h3.39L113.17,39.04z"/>
<path class="st2" d="M109.76,60.92c-2.49-0.02-4.52,1.99-4.54,4.48c-0.02,2.49,1.99,4.52,4.48,4.54c2.49,0.02,4.52-1.99,4.54-4.48
	c0-0.01,0-0.02,0-0.03C114.23,62.95,112.24,60.94,109.76,60.92 M109.76,67.92c-1.35,0-2.44-1.09-2.44-2.44
	c0-1.35,1.09-2.44,2.44-2.44l0,0c1.35,0,2.44,1.09,2.44,2.44C112.2,66.83,111.11,67.92,109.76,67.92"/>
<path class="st2" d="M93.27,60.82c-0.96,0-1.91,0.18-2.81,0.53c-0.67-0.38-1.44-0.57-2.21-0.53c-1.21-0.01-2.41,0.19-3.56,0.58
	l-0.23,0.08v8.28h2.25v-6.79c0.41-0.14,0.84-0.21,1.27-0.2c1.11,0,1.44,0.36,1.44,1.52v5.47h2.28v-5.62
	c0.01-0.38-0.02-0.77-0.1-1.14c0.39-0.14,0.8-0.22,1.21-0.23c1.06,0,1.54,0.48,1.54,1.52v5.47h2.26v-5.65
	c0.09-0.84-0.16-1.68-0.69-2.33c-0.71-0.69-1.67-1.05-2.65-1"/>
<path class="st2" d="M102.29,67.97c-1.23,0.08-2.3-0.86-2.38-2.09c-0.01-0.16,0-0.31,0.02-0.47c0-1.66,0.87-2.62,2.39-2.62
	c0.28-0.01,0.56,0.03,0.83,0.11c0.31,0.1,0.61,0.25,0.87,0.45l1-1.63c-0.39-0.32-0.85-0.54-1.34-0.67
	c-0.47-0.12-0.95-0.19-1.44-0.21c-2.4-0.12-4.45,1.73-4.58,4.13c-0.01,0.19-0.01,0.37,0.01,0.56c-0.17,2.27,1.54,4.25,3.82,4.42
	c0.19,0.01,0.39,0.01,0.58,0c1.09,0.03,2.15-0.32,3-1l-1.12-1.44c-0.48,0.34-1.06,0.52-1.65,0.51"/>
<path class="st2" d="M72.93,60.9c-3.22,0-4.71,1.42-4.71,4.43v4.43h2.3V65.3c-0.16-1.19,0.68-2.28,1.87-2.43
	c0.11-0.01,0.23-0.02,0.34-0.02c0.44,0.01,0.87,0.06,1.29,0.17l0.53-2c-0.54-0.08-1.08-0.12-1.62-0.13"/>
<path class="st2" d="M83.14,65.07v4.69h-3.09c-2.12,0-3.06-0.15-4.17-0.89c-1.05-0.85-1.62-2.17-1.5-3.52
	c-0.07-2.41,1.82-4.42,4.22-4.49c0.16,0,0.32,0,0.49,0.01c2.63,0,4,1.47,4,4.2 M80.84,65.33c0-1.7-0.66-2.53-2-2.53
	c-1.21-0.01-2.21,0.97-2.22,2.18c0,0.1,0.01,0.2,0.02,0.3c0,1.79,0.86,2.58,2.79,2.58h1.39L80.84,65.33z"/>
<path class="st2" d="M67,65.07v4.69h-3.1c-2.12,0-3.06-0.15-4.17-0.89c-1.05-0.85-1.62-2.17-1.5-3.52
	c-0.07-2.41,1.82-4.42,4.22-4.49c0.16,0,0.32,0,0.49,0.01c2.64,0,4,1.47,4,4.2 M64.61,65.33c0-1.72-0.61-2.53-2-2.53
	c-1.21-0.01-2.21,0.97-2.22,2.18c0,0.1,0.01,0.2,0.02,0.3c0,1.79,0.86,2.58,2.78,2.58h1.37L64.61,65.33z"/>
<path class="st2" d="M18.72,64.4c-1.38-0.41-1.93-0.64-1.93-1.08s0.7-0.72,1.56-0.72c0.78,0.01,1.54,0.14,2.28,0.39l0.52-2
	c-0.91-0.2-1.83-0.32-2.76-0.33c-2.43,0-3.76,1.11-3.76,2.75c0,0.82,0.23,2,2.79,2.67c1.5,0.44,2,0.49,2,1c0,0.51-0.94,0.95-2,0.95
	c-1.05-0.05-2.07-0.34-3-0.83v2.14c0.92,0.38,1.91,0.58,2.91,0.59c2.66,0,4.23-1.12,4.23-2.87c0-1.31-0.8-2-2.91-2.67"/>
<path class="st2" d="M38,66.47c0,1.09-0.42,1.49-1.59,1.49h-0.13c-1.16,0-1.59-0.4-1.59-1.49V61h-2.27v5.62
	c0,2.61,1.47,3.31,3.72,3.31h0.38c2.4,0,3.79-0.68,3.79-3.31V61H38V66.47z"/>
<path class="st2" d="M52.49,57.81c-0.67-0.01-1.22,0.54-1.23,1.21c-0.01,0.67,0.54,1.22,1.21,1.23c0.67,0.01,1.22-0.54,1.23-1.21
	c0-0.01,0-0.01,0-0.02C53.69,58.36,53.15,57.82,52.49,57.81"/>
<rect x="51.38" y="61.26" class="st2" width="2.23" height="8.51"/>
<path class="st2" d="M31.15,65.07v4.69h-3.09c-2.12,0-3.06-0.15-4.17-0.89c-1.05-0.85-1.62-2.17-1.5-3.52
	c-0.07-2.41,1.82-4.42,4.22-4.49c0.16,0,0.32,0,0.49,0.01c2.63,0,4,1.47,4,4.2 M28.85,65.33c0-1.7-0.66-2.53-2-2.53
	c-1.21-0.01-2.21,0.97-2.22,2.18c0,0.1,0.01,0.2,0.02,0.3c0,1.79,0.86,2.58,2.79,2.58h1.46L28.85,65.33z"/>
<path class="st2" d="M49.93,57.63v12.13h-2.81c-2.12,0-3.06-0.16-4.17-0.89c-1.05-0.85-1.62-2.17-1.5-3.52
	c-0.14-2.32,1.63-4.31,3.95-4.45c0.17-0.01,0.34-0.01,0.51,0h0.23c0.57,0,1.14,0.17,1.62,0.48v-3.75H49.93z M47.76,65.35
	c0-1.82-0.51-2.55-1.78-2.55c-1.21-0.01-2.21,0.97-2.22,2.18c0,0.1,0.01,0.2,0.02,0.3c0,1.79,0.84,2.58,2.76,2.58h1.22V65.35z"/>
<path class="st3" d="M149,42.69c0.52,0.22,0.85,0.73,0.85,1.29c-0.09,0.47-0.59,0.62-1.16,0.34c-0.53-0.22-0.87-0.75-0.85-1.32
	C147.94,42.55,148.44,42.42,149,42.69"/>
<path class="st3" d="M150.6,33.71c0.45,0.24,0.77,0.64,0.73,0.93c-0.04,0.29-0.44,0.33-0.9,0.09c-0.46-0.24-0.79-0.65-0.74-0.94
	S150.14,33.48,150.6,33.71"/>
<path class="st3" d="M150.75,32.82c0.38,0.2,0.64,0.53,0.61,0.76c-0.03,0.23-0.36,0.26-0.75,0.06c-0.39-0.2-0.65-0.54-0.61-0.77
	C150.04,32.64,150.37,32.62,150.75,32.82"/>
<path class="st3" d="M150.9,31.93c0.34,0.19,0.59,0.49,0.57,0.7c-0.02,0.21-0.34,0.22-0.7,0c-0.36-0.22-0.6-0.5-0.57-0.71
	s0.34-0.21,0.7,0"/>
<path class="st3" d="M151,31.07c0.32,0.17,0.55,0.45,0.53,0.63s-0.31,0.2-0.64,0s-0.56-0.46-0.53-0.64S150.67,30.88,151,31.07"/>
<path class="st3" d="M151.16,30.27c0.3,0.17,0.51,0.42,0.49,0.58s-0.28,0.17-0.58,0s-0.52-0.42-0.5-0.58S150.86,30.11,151.16,30.27"
	/>
<path class="st3" d="M151.28,29.53c0.27,0.15,0.47,0.38,0.45,0.53c-0.02,0.15-0.25,0.14-0.54,0c-0.29-0.14-0.48-0.39-0.46-0.54
	s0.27-0.13,0.55,0"/>
<path class="st3" d="M151.39,28.85c0.25,0.15,0.44,0.33,0.42,0.48c-0.02,0.15-0.24,0.12-0.5,0c-0.26-0.12-0.45-0.34-0.42-0.49
	c0.03-0.15,0.24-0.12,0.5,0"/>
<path class="st3" d="M151.5,28.15c0.22,0.12,0.38,0.28,0.36,0.41c-0.02,0.13-0.2,0.09-0.43,0s-0.38-0.28-0.36-0.41
	C151.09,28.02,151.27,28.05,151.5,28.15"/>
<path class="st3" d="M151.6,27.53c0.21,0.12,0.35,0.26,0.34,0.38c-0.01,0.12-0.18,0.08-0.39,0c-0.21-0.08-0.35-0.26-0.34-0.38
	S151.4,27.45,151.6,27.53"/>
<path class="st3" d="M151.7,26.83c0.18,0.1,0.3,0.22,0.29,0.32s-0.15,0.06-0.33,0c-0.18-0.06-0.31-0.22-0.29-0.32
	C151.39,26.73,151.53,26.77,151.7,26.83"/>
<path class="st3" d="M151.8,26.21c0.16,0.09,0.27,0.2,0.26,0.28c-0.01,0.08-0.14,0-0.29,0s-0.27-0.2-0.26-0.28
	S151.65,26.16,151.8,26.21"/>
<path class="st3" d="M148.38,45.83c-0.45-0.19-0.73-0.64-0.71-1.13c0.09-0.39,0.51-0.52,1-0.3c0.44,0.19,0.71,0.63,0.7,1.11
	c-0.08,0.41-0.49,0.54-1,0.32"/>
<path class="st3" d="M148,47.74c-0.44-0.19-0.72-0.65-0.68-1.13c0.09-0.4,0.5-0.54,1-0.33c0.43,0.2,0.7,0.64,0.68,1.11
	C148.92,47.8,148.51,47.96,148,47.74"/>
<path class="st3" d="M147.62,49.73c-0.43-0.2-0.7-0.65-0.65-1.12c0.09-0.41,0.5-0.56,0.94-0.36c0.43,0.2,0.69,0.64,0.66,1.11
	C148.48,49.78,148.08,49.94,147.62,49.73"/>
<path class="st3" d="M147.19,51.92c-0.43-0.2-0.69-0.65-0.63-1.12c0.08-0.33,0.41-0.54,0.74-0.47c0.07,0.02,0.13,0.04,0.19,0.08
	c0.42,0.2,0.67,0.64,0.63,1.11c-0.06,0.33-0.38,0.55-0.71,0.49C147.33,51.99,147.26,51.96,147.19,51.92"/>
<path class="st3" d="M146.75,54.11c-0.37-0.19-0.59-0.59-0.54-1c0.06-0.3,0.36-0.5,0.66-0.44c0.06,0.01,0.11,0.03,0.16,0.06
	c0.37,0.19,0.59,0.59,0.54,1c-0.05,0.3-0.34,0.5-0.64,0.45C146.87,54.17,146.81,54.14,146.75,54.11"/>
<path class="st3" d="M146.21,56.77c-0.36-0.2-0.56-0.59-0.51-1c0.05-0.3,0.33-0.5,0.63-0.46c0.06,0.01,0.12,0.03,0.17,0.06
	c0.37,0.18,0.58,0.59,0.51,1c-0.05,0.31-0.33,0.52-0.64,0.47c-0.06-0.01-0.11-0.03-0.16-0.05"/>
<path class="st3" d="M145.61,59.63c-0.34-0.18-0.52-0.55-0.45-0.93c0.04-0.28,0.3-0.48,0.59-0.44c0.05,0.01,0.1,0.02,0.14,0.04
	c0.34,0.17,0.52,0.54,0.44,0.91c-0.02,0.28-0.27,0.49-0.55,0.46C145.72,59.67,145.66,59.65,145.61,59.63"/>
<path class="st3" d="M145,62.53c-0.3-0.16-0.45-0.5-0.36-0.82c0.03-0.26,0.26-0.44,0.52-0.42c0.04,0,0.08,0.01,0.11,0.03
	c0.29,0.15,0.44,0.48,0.36,0.8c-0.02,0.26-0.24,0.45-0.5,0.44C145.09,62.55,145.04,62.55,145,62.53"/>
<path class="st3" d="M150.91,43.77c0.42,0.18,0.69,0.59,0.69,1.05c0,0.37-0.43,0.49-0.88,0.27c-0.42-0.19-0.7-0.61-0.7-1.07
	C150.09,43.66,150.47,43.55,150.91,43.77"/>
<path class="st3" d="M152.85,44.58c0.51,0.25,0.85,0.75,0.87,1.32c-0.05,0.48-0.5,0.63-1.06,0.36c-0.53-0.25-0.87-0.78-0.88-1.36
	C151.85,44.44,152.31,44.31,152.85,44.58"/>
<path class="st3" d="M166.25,43.87c-0.22-0.14-0.37-0.1-0.35,0.1c0.06,0.25,0.22,0.47,0.44,0.61c0.23,0.14,0.37,0.1,0.35-0.11
	C166.62,44.22,166.46,44.01,166.25,43.87"/>
<path class="st3" d="M164.69,42.8c-0.3-0.17-0.5-0.12-0.48,0.13c0.09,0.32,0.3,0.6,0.58,0.78c0.3,0.17,0.5,0.12,0.47-0.14
	C165.17,43.25,164.97,42.98,164.69,42.8"/>
<path class="st3" d="M160.33,57.34c-0.37-0.23-0.66-0.07-0.67,0.38c0.02,0.49,0.27,0.95,0.67,1.24c0.38,0.24,0.66,0.07,0.67-0.39
	C160.97,58.08,160.73,57.63,160.33,57.34"/>
<path class="st3" d="M158.48,53.66c-0.44-0.25-0.78-0.08-0.81,0.39c0.02,0.54,0.31,1.04,0.77,1.32c0.44,0.26,0.78,0.08,0.79-0.41
	C159.2,54.43,158.92,53.95,158.48,53.66"/>
<path class="st3" d="M156.52,50.53c-0.43-0.24-0.77-0.09-0.81,0.34c0.02,0.51,0.3,0.97,0.74,1.22c0.44,0.23,0.78,0.08,0.81-0.37
	C157.23,51.22,156.95,50.78,156.52,50.53"/>
<path class="st3" d="M155.32,37.42c-0.39-0.2-0.71-0.16-0.73,0.11c0.07,0.39,0.32,0.71,0.68,0.87c0.39,0.21,0.7,0.16,0.72-0.12
	C155.92,37.9,155.67,37.58,155.32,37.42"/>
<path class="st3" d="M163.3,43.21c-0.31-0.18-0.52-0.12-0.51,0.14c0.08,0.33,0.3,0.62,0.59,0.8c0.31,0.18,0.52,0.12,0.5-0.15
	C163.8,43.67,163.59,43.38,163.3,43.21"/>
<path class="st3" d="M161.72,42.26c-0.32-0.18-0.56-0.12-0.55,0.14c0.08,0.35,0.31,0.65,0.62,0.83c0.32,0.18,0.56,0.12,0.54-0.15
	C162.25,42.73,162.03,42.43,161.72,42.26"/>
<path class="st3" d="M158.58,41.73c-0.38-0.21-0.67-0.14-0.67,0.16c0.06,0.4,0.32,0.75,0.68,0.93c0.39,0.21,0.67,0.14,0.67-0.18
	C159.19,42.25,158.94,41.91,158.58,41.73"/>
<path class="st3" d="M160.17,41.3c-0.36-0.19-0.63-0.13-0.63,0.15c0.08,0.38,0.32,0.71,0.67,0.9c0.37,0.2,0.64,0.13,0.63-0.16
	C160.76,41.81,160.51,41.48,160.17,41.3"/>
<path class="st3" d="M158.51,40.35c-0.41-0.22-0.72-0.16-0.73,0.15c0.08,0.43,0.35,0.8,0.74,1c0.41,0.22,0.72,0.15,0.72-0.17
	c-0.07-0.43-0.34-0.8-0.73-1"/>
<path class="st3" d="M156.91,40.75c-0.43-0.22-0.76-0.15-0.78,0.18c0.07,0.43,0.35,0.8,0.74,1c0.44,0.23,0.77,0.15,0.78-0.19
	c-0.08-0.43-0.35-0.8-0.74-1"/>
<path class="st3" d="M154.66,47.43c-0.44-0.23-0.81-0.1-0.86,0.31c0.01,0.5,0.3,0.94,0.74,1.17c0.46,0.23,0.82,0.09,0.85-0.33
	C155.37,48.09,155.09,47.66,154.66,47.43"/>
<path class="st3" d="M154.79,45.67c-0.48-0.24-0.87-0.12-0.92,0.31c0.03,0.52,0.33,0.99,0.8,1.23c0.49,0.25,0.89,0.11,0.92-0.32
	C155.55,46.37,155.25,45.91,154.79,45.67"/>
<path class="st3" d="M154.91,44.02c-0.52-0.27-0.94-0.14-1,0.29c0.04,0.56,0.37,1.05,0.87,1.3c0.53,0.28,1,0.14,1-0.32
	C155.73,44.75,155.4,44.27,154.91,44.02"/>
<path class="st3" d="M155,42.47c-0.51-0.25-0.92-0.15-1,0.26c0.05,0.53,0.37,1,0.85,1.23c0.52,0.26,0.92,0.14,1-0.28
	C155.79,43.16,155.47,42.71,155,42.47"/>
<path class="st3" d="M155.09,41.13c-0.44-0.23-0.8-0.15-0.83,0.2c0.04,0.46,0.33,0.86,0.75,1.05c0.45,0.23,0.8,0.14,0.83-0.21
	c-0.07-0.43-0.35-0.81-0.75-1"/>
<path class="st3" d="M155.19,39.76c-0.48-0.24-0.86-0.17-0.9,0.19c0.06,0.49,0.37,0.91,0.82,1.11c0.49,0.26,0.87,0.17,0.89-0.2
	C155.93,40.38,155.63,39.97,155.19,39.76"/>
<path class="st3" d="M155.26,38.53c-0.46-0.24-0.84-0.18-0.87,0.16c0.07,0.47,0.37,0.86,0.8,1.06c0.47,0.24,0.84,0.17,0.87-0.18
	c-0.09-0.44-0.39-0.81-0.8-1"/>
<path class="st3" d="M152.25,34.72c-0.32-0.17-0.59-0.14-0.63,0.06c-0.04,0.2,0.21,0.51,0.54,0.69s0.6,0.14,0.63-0.07
	S152.58,34.9,152.25,34.72"/>
<path class="st3" d="M152.32,33.75c-0.3-0.15-0.55-0.14-0.58,0s0.19,0.46,0.5,0.62c0.31,0.16,0.55,0.13,0.57-0.05
	s-0.2-0.45-0.49-0.61"/>
<path class="st3" d="M152.37,32.84c-0.26-0.14-0.47-0.13-0.5,0s0.17,0.39,0.43,0.53s0.47,0.12,0.5,0
	C152.83,33.25,152.62,32.99,152.37,32.84"/>
<path class="st3" d="M152.41,31.95c-0.24-0.12-0.43-0.13-0.45,0s0.15,0.33,0.39,0.46s0.42,0.14,0.44,0
	C152.81,32.27,152.64,32.08,152.41,31.95"/>
<path class="st3" d="M152.45,31.13c-0.21-0.12-0.39-0.14-0.41,0s0.15,0.31,0.36,0.43s0.4,0.13,0.42,0s-0.15-0.3-0.37-0.42"/>
<path class="st3" d="M152.49,30.3c-0.19-0.11-0.34-0.13-0.36,0s0.13,0.27,0.32,0.37c0.19,0.1,0.35,0.13,0.36,0
	c0.01-0.13-0.13-0.26-0.32-0.36"/>
<path class="st3" d="M152.53,29.53c-0.18-0.09-0.32-0.12-0.34,0s0.12,0.24,0.3,0.34s0.32,0.12,0.33,0S152.7,29.63,152.53,29.53"/>
<path class="st3" d="M152.56,28.81c-0.16-0.09-0.28-0.11-0.3,0s0.11,0.21,0.27,0.3s0.28,0.11,0.29,0s-0.11-0.2-0.26-0.29"/>
<path class="st3" d="M150.5,46.65c0.34,0.16,0.64,0.06,0.69-0.24c0-0.36-0.21-0.68-0.53-0.83c-0.34-0.17-0.64-0.07-0.69,0.22
	C149.96,46.16,150.17,46.5,150.5,46.65"/>
<path class="st3" d="M150.21,48.53c0.33,0.15,0.61,0,0.66-0.25c0.01-0.35-0.19-0.67-0.5-0.82c-0.33-0.16-0.62-0.06-0.67,0.24
	C149.69,48.05,149.89,48.38,150.21,48.53"/>
<path class="st3" d="M149.75,50.53c0.33,0.15,0.61,0,0.66-0.28c0.01-0.35-0.18-0.67-0.49-0.82c-0.32-0.15-0.61,0-0.66,0.26
	C149.23,50.05,149.43,50.38,149.75,50.53"/>
<path class="st3" d="M149.33,52.68c0.18,0.12,0.43,0.07,0.56-0.11c0.03-0.05,0.06-0.11,0.06-0.17c0.03-0.33-0.15-0.64-0.45-0.79
	c-0.19-0.13-0.44-0.07-0.57,0.12c-0.03,0.05-0.05,0.1-0.06,0.15C148.84,52.22,149.02,52.54,149.33,52.68"/>
<path class="st3" d="M148.82,54.83c0.18,0.11,0.42,0.05,0.54-0.13c0.03-0.05,0.05-0.11,0.05-0.17c0.03-0.32-0.14-0.62-0.42-0.76
	c-0.19-0.11-0.44-0.04-0.54,0.16c-0.02,0.04-0.04,0.09-0.05,0.13C148.37,54.38,148.54,54.68,148.82,54.83"/>
<path class="st3" d="M148.23,57.38c0.18,0.1,0.42,0.03,0.52-0.15c0.02-0.05,0.04-0.1,0.04-0.15c0.04-0.3-0.12-0.6-0.39-0.74
	c-0.18-0.1-0.4-0.04-0.5,0.14c-0.03,0.05-0.04,0.1-0.05,0.16C147.81,56.94,147.96,57.24,148.23,57.38"/>
<path class="st3" d="M156.87,39.53c-0.39-0.21-0.69-0.15-0.71,0.14c0.06,0.4,0.32,0.75,0.69,0.92c0.4,0.21,0.7,0.14,0.71-0.16
	C157.48,40.04,157.23,39.7,156.87,39.53"/>
<path class="st3" d="M156.79,42.16c-0.35-0.18-0.63-0.12-0.65,0.17c0.05,0.37,0.28,0.69,0.62,0.86c0.36,0.19,0.63,0.12,0.64-0.18
	C157.35,42.64,157.12,42.33,156.79,42.16"/>
<path class="st3" d="M156.76,43.53c-0.4-0.21-0.72-0.13-0.74,0.21c0.05,0.43,0.31,0.81,0.7,1c0.4,0.22,0.72,0.12,0.74-0.22
	C157.4,44.09,157.14,43.72,156.76,43.53"/>
<path class="st3" d="M156.56,48.53c-0.39-0.21-0.71-0.09-0.74,0.28c0.03,0.45,0.29,0.85,0.68,1.07c0.4,0.22,0.71,0.09,0.73-0.3
	C157.2,49.14,156.95,48.74,156.56,48.53"/>
<path class="st3" d="M163.17,41.85c-0.34-0.19-0.57-0.14-0.55,0.13c0.09,0.36,0.32,0.66,0.64,0.85c0.34,0.19,0.57,0.13,0.54-0.15
	C163.71,42.33,163.48,42.03,163.17,41.85"/>
<path class="st3" d="M158.34,56.05c-0.36-0.21-0.65-0.06-0.68,0.36c0.03,0.45,0.26,0.87,0.64,1.12c0.37,0.21,0.65,0,0.67-0.38
	c-0.02-0.45-0.25-0.87-0.63-1.12"/>
<path class="st3" d="M160.36,59.82c-0.35-0.22-0.62-0.06-0.63,0.38c0.02,0.47,0.24,0.91,0.62,1.19c0.35,0.22,0.61,0.06,0.62-0.39
	C160.95,60.54,160.73,60.1,160.36,59.82"/>
<path class="st3" d="M156.36,52.53c-0.4-0.21-0.72-0.06-0.76,0.35c0.01,0.48,0.27,0.92,0.68,1.17c0.41,0.21,0.74,0.05,0.76-0.37
	C157.02,53.21,156.77,52.77,156.36,52.53"/>
<path class="st3" d="M154.5,49.46c-0.4-0.21-0.72-0.08-0.77,0.3c0.01,0.45,0.26,0.86,0.65,1.08c0.41,0.2,0.74,0.06,0.77-0.33
	C155.14,50.07,154.89,49.67,154.5,49.46"/>
<path class="st3" d="M152.69,46.44c-0.44-0.22-0.8-0.1-0.86,0.29c0,0.47,0.27,0.91,0.7,1.11c0.44,0.22,0.81,0.08,0.85-0.32
	C153.37,47.06,153.1,46.64,152.69,46.44"/>
<path class="st3" d="M156.63,46.83c-0.36-0.19-0.66-0.09-0.68,0.25c0.02,0.42,0.26,0.8,0.63,1c0.38,0.2,0.67,0.09,0.68-0.25
	C157.24,47.41,157,47.03,156.63,46.83"/>
<path class="st3" d="M155.37,36.36c-0.34-0.18-0.61-0.15-0.63,0.08c0.06,0.33,0.28,0.62,0.59,0.75c0.35,0.18,0.62,0.14,0.64-0.09
	C155.91,36.77,155.68,36.49,155.37,36.36"/>
<path class="st3" d="M161.64,41.04c-0.28-0.15-0.47-0.11-0.46,0.11c0.07,0.28,0.26,0.52,0.51,0.67c0.28,0.15,0.47,0.1,0.46-0.12
	C162.08,41.42,161.9,41.18,161.64,41.04"/>
<path class="st3" d="M158.59,44.69c-0.31-0.17-0.54-0.09-0.55,0.18c0.05,0.34,0.25,0.63,0.55,0.79c0.31,0.17,0.54,0.1,0.55-0.18
	C159.08,45.15,158.88,44.86,158.59,44.69"/>
<path class="st3" d="M158.44,51.62c-0.38-0.21-0.68-0.08-0.7,0.32c0.03,0.46,0.28,0.87,0.67,1.11c0.39,0.22,0.69,0.08,0.7-0.33
	C159.08,52.27,158.83,51.86,158.44,51.62"/>
<path class="st3" d="M156.7,45.22c-0.36-0.19-0.64-0.1-0.67,0.21c0.04,0.39,0.27,0.73,0.62,0.92c0.37,0.2,0.65,0.1,0.67-0.22
	C157.27,45.74,157.04,45.41,156.7,45.22"/>
<path class="st3" d="M160.37,47.29c-0.35-0.2-0.61-0.1-0.61,0.22c0.05,0.41,0.28,0.78,0.63,1c0.35,0.2,0.61,0.1,0.61-0.23
	c-0.06-0.4-0.29-0.75-0.63-0.95"/>
<path class="st3" d="M161.86,64.05c-0.28-0.2-0.49-0.06-0.49,0.34c0.01,0.42,0.2,0.81,0.51,1.08c0.28,0.2,0.48,0.05,0.48-0.35
	C162.35,64.71,162.17,64.32,161.86,64.05"/>
<path class="st3" d="M160.22,42.7c-0.32-0.18-0.56-0.12-0.55,0.15c0.06,0.34,0.27,0.64,0.58,0.81c0.33,0.18,0.57,0.11,0.56-0.16
	C160.75,43.16,160.53,42.86,160.22,42.7"/>
<path class="st3" d="M153.76,35.53c-0.31-0.17-0.57-0.14-0.59,0.06s0.21,0.5,0.52,0.67c0.31,0.17,0.58,0.14,0.6-0.07
	C154.24,35.89,154.04,35.65,153.76,35.53"/>
<path class="st3" d="M156.92,36.2c-0.3-0.16-0.53-0.13-0.54,0.06c0.08,0.29,0.27,0.52,0.54,0.65c0.3,0.16,0.53,0.14,0.53-0.06
	C157.39,36.56,157.19,36.32,156.92,36.2"/>
<path class="st3" d="M160.12,40.2c-0.25-0.14-0.43-0.11-0.43,0.09c0.06,0.25,0.23,0.47,0.46,0.59c0.25,0.14,0.44,0.1,0.43-0.1
	C160.52,40.53,160.35,40.32,160.12,40.2"/>
<path class="st3" d="M158.52,46.28c-0.32-0.17-0.56-0.09-0.57,0.2c0.04,0.35,0.25,0.67,0.56,0.84c0.32,0.18,0.56,0.09,0.57-0.2
	C159.04,46.77,158.83,46.46,158.52,46.28"/>
<path class="st3" d="M160.27,45.7c-0.27-0.16-0.48-0.09-0.48,0.15c0.05,0.31,0.23,0.58,0.5,0.74c0.28,0.15,0.48,0.08,0.48-0.17
	C160.72,46.12,160.54,45.85,160.27,45.7"/>
<path class="st3" d="M162.06,48.36c-0.3-0.18-0.53-0.1-0.52,0.2c0.05,0.37,0.26,0.69,0.57,0.89c0.31,0.18,0.53,0.09,0.52-0.22
	C162.57,48.87,162.36,48.56,162.06,48.36"/>
<path class="st3" d="M164.8,44.22c-0.23-0.13-0.39-0.09-0.37,0.12c0.06,0.26,0.22,0.49,0.45,0.63c0.23,0.14,0.39,0.09,0.37-0.12
	C165.19,44.59,165.03,44.36,164.8,44.22"/>
<path class="st3" d="M156.93,35.26c-0.26-0.14-0.47-0.12-0.47,0c0,0.12,0.2,0.41,0.46,0.56s0.48,0.12,0.48-0.05
	c-0.07-0.25-0.24-0.45-0.47-0.56"/>
<path class="st3" d="M156.91,37.27c-0.27-0.15-0.49-0.12-0.5,0.07c0.06,0.27,0.24,0.49,0.49,0.61c0.28,0.15,0.49,0.12,0.5-0.08
	C157.34,37.6,157.16,37.38,156.91,37.27"/>
<path class="st3" d="M162.16,61.47c-0.32-0.21-0.56-0.06-0.56,0.36c0.02,0.45,0.23,0.88,0.58,1.17c0.32,0.23,0.56,0.07,0.55-0.36
	C162.71,62.19,162.5,61.77,162.16,61.47"/>
<path class="st3" d="M155.42,35.42c-0.28-0.15-0.49-0.13-0.51,0c0.06,0.26,0.24,0.47,0.48,0.58c0.27,0.15,0.49,0.12,0.49-0.06
	s-0.19-0.42-0.46-0.57"/>
<path class="st3" d="M158.51,43.22c-0.27-0.14-0.47-0.09-0.48,0.14c0.04,0.29,0.22,0.54,0.48,0.68c0.27,0.15,0.48,0.09,0.49-0.14
	C158.94,43.61,158.77,43.36,158.51,43.22"/>
<path class="st3" d="M158.5,39.35c-0.23-0.12-0.4-0.09-0.4,0.07c0.05,0.23,0.19,0.42,0.4,0.53c0.23,0.12,0.4,0.09,0.4-0.08
	C158.86,39.64,158.71,39.45,158.5,39.35"/>
<path class="st3" d="M158.47,49.8c-0.27-0.15-0.48-0.07-0.49,0.2c0.03,0.32,0.21,0.6,0.48,0.77c0.27,0.15,0.48,0.06,0.49-0.21
	C158.92,50.24,158.74,49.96,158.47,49.8"/>
<path class="st3" d="M160.38,55.08c-0.31-0.19-0.55-0.06-0.55,0.29c0.02,0.4,0.22,0.77,0.55,1c0.32,0.19,0.56,0.06,0.56-0.3
	c-0.02-0.4-0.23-0.77-0.56-1"/>
<path class="st3" d="M156.89,38.53c-0.2-0.11-0.36-0.08-0.37,0.06c0.04,0.21,0.17,0.38,0.36,0.47c0.21,0.11,0.37,0.08,0.38-0.07
	C157.21,38.79,157.08,38.62,156.89,38.53"/>
<path class="st3" d="M160.22,62.35c-0.24-0.16-0.43,0-0.44,0.3c0,0.34,0.16,0.67,0.43,0.88c0.25,0.16,0.44,0,0.45-0.3
	C160.65,62.89,160.49,62.56,160.22,62.35"/>
<path class="st3" d="M161.82,43.73c-0.26-0.15-0.45-0.1-0.44,0.13c0.06,0.28,0.24,0.53,0.49,0.67c0.26,0.15,0.44,0.09,0.43-0.13
	C162.24,44.12,162.07,43.87,161.82,43.73"/>
<path class="st3" d="M158.48,36.14c-0.24-0.13-0.42-0.11-0.42,0c0.07,0.23,0.22,0.41,0.43,0.52c0.24,0.13,0.42,0.1,0.42-0.05
	c-0.07-0.22-0.22-0.41-0.43-0.51"/>
<path class="st3" d="M167.77,44.91c-0.18-0.13-0.3-0.09-0.28,0.09c0.06,0.22,0.2,0.41,0.38,0.54c0.19,0.12,0.31,0.08,0.29-0.1
	C168.1,45.22,167.96,45.03,167.77,44.91"/>
<path class="st3" d="M163.79,49.53c-0.27-0.17-0.47-0.09-0.46,0.19c0.05,0.33,0.24,0.63,0.52,0.82c0.27,0.18,0.46,0.1,0.45-0.19
	C164.25,50.02,164.06,49.72,163.79,49.53"/>
<path class="st3" d="M163,66.79c-0.22-0.19-0.39-0.06-0.39,0.31c0.02,0.37,0.17,0.73,0.42,1c0.23,0.2,0.39,0.07,0.39-0.31
	C163.4,67.42,163.25,67.06,163,66.79"/>
<path class="st3" d="M158.26,58.53c-0.28-0.16-0.49,0-0.51,0.29c0.01,0.35,0.18,0.68,0.47,0.88c0.28,0.16,0.49,0,0.5-0.3
	C158.72,59.05,158.55,58.73,158.26,58.53"/>
<path class="st3" d="M162,46.83c-0.19-0.11-0.34-0.06-0.33,0.12c0.02,0.23,0.14,0.45,0.33,0.58c0.2,0.12,0.34,0.06,0.33-0.12
	c-0.04-0.22-0.17-0.42-0.36-0.54"/>
<path class="st3" d="M158.39,35.18c-0.2-0.11-0.35-0.11-0.35,0c0.05,0.19,0.19,0.35,0.37,0.43c0.2,0.11,0.35,0.11,0.35,0
	c-0.05-0.19-0.19-0.34-0.37-0.42"/>
<path class="st3" d="M159.82,36.04c-0.17-0.09-0.29-0.09-0.28,0c0.04,0.15,0.15,0.28,0.3,0.35c0.17,0.09,0.29,0.09,0.28,0
	C160.08,36.24,159.97,36.11,159.82,36.04"/>
<path class="st3" d="M156.26,55.12c-0.25-0.14-0.45,0-0.47,0.23c0.01,0.29,0.16,0.56,0.41,0.72c0.25,0.14,0.45,0,0.46-0.24
	C156.66,55.54,156.51,55.27,156.26,55.12"/>
<path class="st3" d="M154.25,51.77c-0.24-0.12-0.44,0-0.46,0.21c0,0.27,0.15,0.53,0.39,0.66c0.24,0.12,0.44,0,0.47-0.21
	C154.64,52.15,154.49,51.9,154.25,51.77"/>
<path class="st3" d="M152.4,48.66c-0.24-0.12-0.44,0-0.48,0.18c0,0.26,0.15,0.51,0.39,0.62c0.24,0.12,0.44,0,0.47-0.19
	C152.77,49.01,152.63,48.78,152.4,48.66"/>
<path class="st3" d="M159.73,35.13c-0.18-0.09-0.3-0.1-0.3,0s0.16,0.28,0.33,0.38c0.17,0.1,0.31,0.1,0.3,0
	C160.05,35.41,159.9,35.24,159.73,35.13"/>
<path class="st3" d="M160.85,35.16c-0.15-0.08-0.26-0.09-0.26,0c0.04,0.15,0.15,0.26,0.29,0.32c0.15,0.08,0.26,0.09,0.25,0
	C161.09,35.34,160.99,35.22,160.85,35.16"/>
<path class="st3" d="M165.48,50.79c-0.17-0.11-0.29-0.06-0.27,0.13c0.03,0.22,0.15,0.42,0.33,0.55c0.17,0.12,0.29,0.06,0.28-0.13
	C165.78,51.12,165.66,50.92,165.48,50.79"/>
<path class="st3" d="M163.91,51.22c-0.21-0.14-0.37-0.07-0.36,0.17c0.04,0.28,0.19,0.53,0.42,0.69c0.21,0.14,0.37,0.07,0.36-0.17
	C164.28,51.63,164.13,51.39,163.91,51.22"/>
<path class="st3" d="M162.15,50.13c-0.2-0.13-0.35-0.06-0.34,0.15c0.03,0.24,0.17,0.46,0.37,0.6c0.21,0.13,0.35,0.06,0.34-0.15
	C162.49,50.48,162.36,50.26,162.15,50.13"/>
<path class="st3" d="M160.35,49.06c-0.19-0.1-0.32-0.05-0.33,0.14c0.02,0.22,0.15,0.42,0.34,0.53c0.19,0.11,0.33,0.05,0.33-0.14
	C160.66,49.37,160.54,49.18,160.35,49.06"/>
<path class="st3" d="M158.51,48c-0.19-0.11-0.34,0-0.34,0.13c0.02,0.22,0.14,0.41,0.33,0.52c0.2,0.11,0.34,0.05,0.35-0.13
	C158.83,48.3,158.7,48.11,158.51,48"/>
<path class="st3" d="M165.58,52.44c-0.18-0.12-0.3-0.06-0.28,0.14c0.03,0.23,0.15,0.44,0.33,0.58c0.17,0.12,0.3,0.06,0.28-0.14
	C165.88,52.79,165.77,52.58,165.58,52.44"/>
<path class="st3" d="M167.32,53.75c-0.15-0.11-0.26-0.06-0.24,0.13c0.03,0.21,0.14,0.41,0.3,0.55c0.15,0.12,0.26,0.06,0.24-0.13
	C167.59,54.09,167.48,53.89,167.32,53.75"/>
<path class="st3" d="M158.45,37.16c-0.19-0.11-0.34-0.1-0.34,0c0.05,0.19,0.17,0.35,0.35,0.43c0.2,0.11,0.34,0.1,0.34-0.05
	c-0.05-0.19-0.18-0.34-0.35-0.42"/>
<path class="st3" d="M146.92,41.78c-0.45-0.21-0.87-0.11-1,0.24c-0.05,0.46,0.22,0.9,0.66,1.05c0.47,0.21,0.88,0.1,1-0.27
	c0-0.44-0.26-0.84-0.67-1"/>
<path class="st3" d="M145,40.67c-0.58-0.26-1.12-0.14-1.26,0.3c-0.05,0.57,0.28,1.1,0.82,1.29c0.59,0.27,1.13,0.12,1.25-0.32
	C145.85,41.38,145.52,40.87,145,40.67"/>
<path class="st3" d="M131.79,26.77c0.31,0.1,0.46,0.3,0.35,0.44c-0.11,0.14-0.44,0.18-0.76,0.08c-0.32-0.1-0.47-0.29-0.35-0.45
	C131.25,26.69,131.54,26.66,131.79,26.77"/>
<path class="st3" d="M134,27.44c0.37,0.14,0.56,0.39,0.44,0.57s-0.52,0.21-0.9,0.08c-0.38-0.13-0.56-0.39-0.44-0.57
	C133.36,27.33,133.71,27.3,134,27.44"/>
<path class="st3" d="M133.14,44.63c0.3,0.08,0.48,0.39,0.4,0.7c0,0.01-0.01,0.03-0.01,0.04c-0.17,0.3-0.55,0.42-0.87,0.27
	c-0.3-0.08-0.49-0.39-0.41-0.7c0-0.02,0.01-0.04,0.02-0.05C132.45,44.6,132.83,44.49,133.14,44.63"/>
<path class="st3" d="M136.25,43.07c0.42,0.13,0.67,0.57,0.57,1c-0.22,0.41-0.74,0.56-1.15,0.34c-0.43-0.13-0.68-0.57-0.56-1
	c0.23-0.39,0.74-0.53,1.14-0.32"/>
<path class="st3" d="M139.37,42.17c0.46,0.14,0.73,0.61,0.63,1.08c-0.14,0.39-0.64,0.53-1.15,0.32c-0.46-0.14-0.74-0.62-0.64-1.09
	c0.23-0.4,0.74-0.55,1.14-0.32C139.36,42.16,139.36,42.17,139.37,42.17"/>
<path class="st3" d="M145.21,32.2c0.41,0.21,0.68,0.56,0.61,0.82s-0.47,0.29-0.9,0.08c-0.43-0.21-0.7-0.57-0.62-0.82
	S144.78,32,145.21,32.2"/>
<path class="st3" d="M135.33,29.21c0.39,0.15,0.6,0.43,0.48,0.63s-0.53,0.26-0.93,0.11c-0.4-0.15-0.61-0.42-0.49-0.64
	S134.93,29.07,135.33,29.21"/>
<path class="st3" d="M137.34,29.98c0.39,0.17,0.61,0.46,0.51,0.68c-0.1,0.22-0.53,0.27-0.94,0.1c-0.41-0.17-0.63-0.46-0.51-0.68
	C136.52,29.86,136.93,29.82,137.34,29.98"/>
<path class="st3" d="M140.68,32.68c0.43,0.2,0.69,0.55,0.59,0.82s-0.55,0.32-1,0.13s-0.7-0.56-0.59-0.83S140.24,32.49,140.68,32.68"
	/>
<path class="st3" d="M139.28,30.74c0.43,0.19,0.67,0.51,0.57,0.76s-0.55,0.29-1,0.11s-0.69-0.53-0.57-0.78
	S138.84,30.55,139.28,30.74"/>
<path class="st3" d="M141.22,31.53c0.45,0.21,0.71,0.57,0.61,0.84c-0.1,0.27-0.55,0.31-1,0.11s-0.73-0.58-0.62-0.85
	S140.78,31.33,141.22,31.53"/>
<path class="st3" d="M142.6,33.53c0.47,0.22,0.75,0.61,0.65,0.91c-0.1,0.3-0.56,0.36-1.05,0.14c-0.49-0.22-0.77-0.63-0.66-0.93
	C141.65,33.35,142.12,33.31,142.6,33.53"/>
<path class="st3" d="M142.26,41.38c0.45,0.15,0.73,0.6,0.67,1.07c-0.13,0.39-0.61,0.52-1.11,0.3c-0.45-0.16-0.73-0.62-0.66-1.09
	C141.3,41.29,141.77,41.17,142.26,41.38"/>
<path class="st3" d="M142.76,39.76c0.47,0.16,0.78,0.63,0.73,1.13c-0.13,0.4-0.64,0.53-1.18,0.29c-0.48-0.16-0.79-0.64-0.73-1.15
	C141.73,39.64,142.24,39.53,142.76,39.76"/>
<path class="st3" d="M143.21,38.24c0.56,0.27,0.9,0.78,0.79,1.19s-0.67,0.54-1.26,0.28c-0.59-0.26-0.92-0.8-0.79-1.21
	C142.08,38.09,142.64,37.99,143.21,38.24"/>
<path class="st3" d="M143.67,36.83c0.54,0.26,0.87,0.74,0.77,1.13s-0.64,0.48-1.21,0.23s-0.9-0.77-0.77-1.15
	S143.12,36.58,143.67,36.83"/>
<path class="st3" d="M144.06,35.59c0.47,0.23,0.77,0.65,0.68,1c-0.09,0.35-0.56,0.4-1.05,0.18c-0.49-0.22-0.78-0.66-0.68-1
	s0.57-0.38,1.05-0.16"/>
<path class="st3" d="M144.5,34.35c0.52,0.25,0.83,0.69,0.74,1c-0.09,0.31-0.59,0.4-1.12,0.16c-0.53-0.24-0.85-0.71-0.74-1
	c0.11-0.29,0.6-0.38,1.12-0.14"/>
<path class="st3" d="M144.88,33.21c0.5,0.25,0.82,0.67,0.73,1c-0.09,0.33-0.56,0.37-1.08,0.12s-0.83-0.68-0.73-1
	s0.58-0.34,1.08-0.11"/>
<path class="st3" d="M148.86,32.95c0.33,0.18,0.56,0.47,0.52,0.67c-0.04,0.2-0.34,0.23-0.68,0.06s-0.56-0.47-0.52-0.67
	C148.22,32.81,148.53,32.79,148.86,32.95"/>
<path class="st3" d="M149.13,32.04c0.3,0.16,0.51,0.42,0.48,0.6s-0.31,0.2-0.62,0c-0.31-0.2-0.52-0.43-0.48-0.61
	C148.55,31.85,148.82,31.85,149.13,32.04"/>
<path class="st3" d="M149.39,31.19c0.26,0.14,0.44,0.36,0.42,0.51s-0.27,0.16-0.54,0s-0.44-0.36-0.41-0.52s0.26-0.15,0.53,0"/>
<path class="st3" d="M149.63,30.37c0.23,0.13,0.4,0.31,0.38,0.45s-0.24,0.14-0.48,0c-0.24-0.14-0.41-0.31-0.38-0.46
	s0.24-0.13,0.48,0"/>
<path class="st3" d="M149.85,29.63c0.22,0.11,0.38,0.28,0.35,0.41s-0.21,0.12-0.44,0s-0.38-0.29-0.35-0.42s0.22-0.11,0.44,0"/>
<path class="st3" d="M150.06,28.92c0.19,0.11,0.33,0.25,0.31,0.36s-0.19,0.1-0.39,0s-0.33-0.25-0.31-0.36
	C149.69,28.81,149.86,28.83,150.06,28.92"/>
<path class="st3" d="M150.24,28.32c0.18,0.1,0.31,0.23,0.29,0.34c-0.02,0.11-0.18,0.08-0.36,0c-0.18-0.08-0.31-0.23-0.29-0.34
	C149.9,28.21,150.06,28.24,150.24,28.32"/>
<path class="st3" d="M150.42,27.72c0.16,0.08,0.28,0.2,0.26,0.29s-0.15,0.06-0.31,0s-0.27-0.21-0.26-0.3s0.15-0.06,0.31,0"/>
<path class="st3" d="M146.26,44.53c-0.34-0.13-0.54-0.47-0.51-0.83c0.08-0.28,0.4-0.37,0.75-0.21c0.33,0.13,0.53,0.46,0.51,0.81
	C146.94,44.59,146.62,44.69,146.26,44.53"/>
<path class="st3" d="M145.88,46.44c-0.32-0.13-0.52-0.46-0.49-0.81c0.08-0.28,0.39-0.38,0.73-0.23c0.32,0.14,0.51,0.46,0.48,0.8
	C146.53,46.49,146.22,46.6,145.88,46.44"/>
<path class="st3" d="M145.51,48.43c-0.32-0.14-0.51-0.47-0.46-0.82c0.08-0.25,0.35-0.39,0.6-0.32c0.04,0.01,0.08,0.03,0.12,0.06
	c0.32,0.14,0.51,0.47,0.47,0.81c-0.08,0.26-0.35,0.4-0.61,0.32C145.59,48.47,145.55,48.45,145.51,48.43"/>
<path class="st3" d="M145.18,50.58c-0.31-0.14-0.48-0.46-0.43-0.79c0.07-0.24,0.33-0.38,0.57-0.31c0.04,0.01,0.08,0.03,0.12,0.05
	c0.3,0.13,0.48,0.45,0.43,0.77c-0.06,0.25-0.31,0.4-0.56,0.34C145.27,50.62,145.22,50.61,145.18,50.58"/>
<path class="st3" d="M144.75,52.92c-0.29-0.14-0.45-0.45-0.39-0.76c0.05-0.23,0.28-0.38,0.51-0.33c0.05,0.01,0.09,0.03,0.13,0.05
	c0.29,0.13,0.45,0.44,0.4,0.75c-0.06,0.24-0.3,0.39-0.54,0.33C144.82,52.95,144.78,52.94,144.75,52.92"/>
<path class="st3" d="M144.3,55.58c-0.28-0.13-0.43-0.43-0.37-0.73c0.05-0.24,0.29-0.39,0.53-0.33c0.03,0.01,0.06,0.02,0.09,0.03
	c0.27,0.13,0.42,0.43,0.36,0.72c-0.04,0.23-0.27,0.39-0.5,0.35C144.37,55.61,144.33,55.6,144.3,55.58"/>
<path class="st3" d="M143.07,32.44c0.44,0.21,0.7,0.57,0.62,0.83s-0.52,0.31-1,0.11s-0.72-0.58-0.62-0.85S142.6,32.24,143.07,32.44"
	/>
<path class="st3" d="M142.09,34.78c0.4,0.18,0.63,0.52,0.55,0.77s-0.48,0.32-0.89,0.14s-0.63-0.52-0.54-0.78
	C141.3,34.65,141.69,34.6,142.09,34.78"/>
<path class="st3" d="M141.64,36.01c0.45,0.22,0.72,0.6,0.62,0.91c-0.1,0.31-0.56,0.39-1,0.18c-0.44-0.21-0.73-0.61-0.62-0.92
	S141.21,35.82,141.64,36.01"/>
<path class="st3" d="M140,40.45c0.43,0.13,0.68,0.56,0.59,1c-0.13,0.34-0.58,0.45-1,0.26c-0.43-0.13-0.69-0.56-0.59-1
	C139.22,40.38,139.65,40.27,140,40.45"/>
<path class="st3" d="M136,28.15c0.41,0.17,0.63,0.46,0.51,0.68s-0.57,0.24-1,0.07c-0.43-0.17-0.65-0.47-0.52-0.68
	c0.13-0.21,0.59-0.24,1-0.07"/>
<path class="st3" d="M135.42,45.17c0.41,0.12,0.65,0.55,0.53,0.97c0,0.01-0.01,0.02-0.01,0.03c-0.2,0.39-0.68,0.55-1.07,0.35
	c-0.42-0.13-0.65-0.57-0.52-0.99c0,0,0-0.01,0-0.01c0.21-0.38,0.68-0.52,1.07-0.33"/>
<path class="st3" d="M132.31,46.41c0.39,0.11,0.62,0.52,0.51,0.91c-0.01,0.03-0.02,0.06-0.03,0.09c-0.22,0.41-0.71,0.58-1.13,0.39
	c-0.39-0.11-0.62-0.52-0.51-0.91c0.01-0.03,0.02-0.06,0.03-0.09c0.23-0.39,0.71-0.54,1.13-0.37"/>
<path class="st3" d="M138.66,44.11c0.42,0.14,0.66,0.57,0.58,1c-0.19,0.39-0.65,0.55-1.04,0.37c-0.02-0.01-0.03-0.02-0.05-0.03
	c-0.44-0.14-0.69-0.6-0.58-1.05c0.2-0.39,0.68-0.54,1.07-0.33c0.01,0,0.02,0.01,0.02,0.01"/>
<path class="st3" d="M141.66,43.25c0.41,0.15,0.66,0.57,0.58,1c-0.16,0.35-0.56,0.5-0.91,0.35c-0.03-0.01-0.06-0.03-0.09-0.05
	c-0.42-0.14-0.67-0.57-0.59-1c0.17-0.35,0.59-0.49,0.94-0.31c0.02,0.01,0.04,0.02,0.06,0.03"/>
<path class="st3" d="M144.43,42.41c0.41,0.15,0.68,0.56,0.65,1c-0.11,0.37-0.54,0.5-1,0.29c-0.44-0.16-0.71-0.6-0.65-1.06
	c0.11-0.37,0.55-0.48,1-0.27"/>
<path class="st3" d="M140.55,38.89c0.41,0.19,0.65,0.56,0.55,0.87s-0.53,0.4-1,0.22s-0.66-0.58-0.55-0.88S140.09,38.71,140.55,38.89
	"/>
<path class="st3" d="M145.52,31.23c0.36,0.19,0.6,0.49,0.54,0.71s-0.41,0.23-0.78,0.05c-0.37-0.18-0.61-0.5-0.55-0.71
	S145.15,31.05,145.52,31.23"/>
<path class="st3" d="M137.93,29.05c0.33,0.15,0.51,0.39,0.42,0.57s-0.44,0.19-0.78,0.05s-0.51-0.39-0.42-0.57
	S137.6,28.91,137.93,29.05"/>
<path class="st3" d="M139.59,35.24c0.35,0.16,0.56,0.45,0.47,0.69s-0.46,0.3-0.83,0.14s-0.57-0.46-0.47-0.7
	C138.86,35.13,139.22,35.08,139.59,35.24"/>
<path class="st3" d="M137,41.22c0.45,0.2,0.7,0.61,0.56,1c-0.22,0.38-0.7,0.51-1.08,0.29c0,0,0,0,0,0c-0.47-0.2-0.71-0.61-0.56-1
	c0.23-0.36,0.7-0.48,1.08-0.28"/>
<path class="st3" d="M141.07,37.53c0.4,0.19,0.64,0.54,0.54,0.83s-0.5,0.36-0.91,0.18s-0.65-0.54-0.55-0.83
	C140.25,37.42,140.66,37.36,141.07,37.53"/>
<path class="st3" d="M136.85,35.67c0.42,0.18,0.65,0.52,0.53,0.8s-0.57,0.35-1,0.18s-0.66-0.52-0.53-0.8
	C135.98,35.57,136.42,35.5,136.85,35.67"/>
<path class="st3" d="M129.6,47.75c0.26,0.07,0.41,0.34,0.34,0.6c-0.01,0.03-0.02,0.06-0.03,0.09c-0.17,0.28-0.51,0.4-0.82,0.29
	c-0.27-0.07-0.42-0.35-0.35-0.61c0.01-0.03,0.02-0.06,0.03-0.09C128.95,47.75,129.29,47.64,129.6,47.75"/>
<path class="st3" d="M138.68,31.88c0.38,0.17,0.6,0.46,0.5,0.69s-0.49,0.27-0.89,0.11s-0.61-0.47-0.5-0.69
	C137.9,31.77,138.29,31.72,138.68,31.88"/>
<path class="st3" d="M147.22,32.13c0.33,0.17,0.54,0.44,0.5,0.64s-0.35,0.22-0.68,0c-0.33-0.22-0.55-0.45-0.5-0.65
	C146.59,31.92,146.89,31.92,147.22,32.13"/>
<path class="st3" d="M142.44,28.88c0.25,0.09,0.41,0.27,0.38,0.41s-0.26,0.16-0.51,0.06s-0.42-0.27-0.38-0.41
	S142.19,28.78,142.44,28.88"/>
<path class="st3" d="M139.75,29.81c0.29,0.13,0.46,0.35,0.39,0.52s-0.37,0.18-0.67,0s-0.46-0.36-0.39-0.52s0.38-0.18,0.67-0.05"/>
<path class="st3" d="M139,36.65c0.37,0.16,0.57,0.47,0.48,0.73s-0.48,0.32-0.86,0.17c-0.38-0.15-0.59-0.49-0.48-0.74
	S138.62,36.49,139,36.65"/>
<path class="st3" d="M137.5,34.42c0.33,0.14,0.52,0.41,0.42,0.62s-0.43,0.26-0.77,0.13s-0.52-0.41-0.42-0.62
	C136.83,34.34,137.17,34.29,137.5,34.42"/>
<path class="st3" d="M134.63,34.9c0.4,0.15,0.6,0.45,0.47,0.7c-0.24,0.27-0.63,0.34-0.94,0.17c-0.39-0.15-0.6-0.45-0.47-0.7
	C133.93,34.81,134.31,34.74,134.63,34.9"/>
<path class="st3" d="M133.29,28.58c0.31,0.11,0.47,0.31,0.37,0.47c-0.21,0.17-0.5,0.21-0.75,0.1c-0.32-0.12-0.48-0.32-0.38-0.48
	C132.74,28.49,133.04,28.46,133.29,28.58"/>
<path class="st3" d="M142.86,28.02c0.27,0.11,0.45,0.3,0.42,0.44c-0.03,0.14-0.28,0.16-0.55,0.06s-0.46-0.3-0.42-0.44
	C142.35,27.94,142.59,27.92,142.86,28.02"/>
<path class="st3" d="M143.81,30.45c0.33,0.16,0.54,0.42,0.48,0.61c-0.06,0.19-0.38,0.21-0.72,0.05s-0.57-0.43-0.47-0.58
	s0.38-0.2,0.71,0"/>
<path class="st3" d="M144.2,29.53c0.29,0.15,0.48,0.38,0.44,0.55c-0.04,0.17-0.32,0.17-0.62,0c-0.3-0.17-0.48-0.38-0.43-0.55
	S143.91,29.36,144.2,29.53"/>
<path class="st3" d="M140.09,34.04c0.31,0.14,0.49,0.4,0.42,0.6c-0.07,0.2-0.4,0.24-0.72,0.11c-0.32-0.13-0.5-0.4-0.42-0.6
	S139.77,33.91,140.09,34.04"/>
<path class="st3" d="M141.63,30.69c0.26,0.13,0.41,0.33,0.35,0.48s-0.31,0.16-0.57,0s-0.42-0.32-0.36-0.47
	c0.06-0.15,0.32-0.16,0.58-0.05"/>
<path class="st3" d="M137.68,39.67c0.32,0.14,0.49,0.42,0.4,0.66c-0.17,0.25-0.5,0.33-0.76,0.18c-0.32-0.14-0.5-0.43-0.4-0.66
	C137.02,39.62,137.35,39.54,137.68,39.67"/>
<path class="st3" d="M143.38,31.53c0.23,0.11,0.36,0.3,0.32,0.43s-0.26,0.15-0.49,0s-0.38-0.3-0.33-0.43S143.15,31.38,143.38,31.53"
	/>
<path class="st3" d="M145.77,30.37c0.26,0.13,0.43,0.35,0.39,0.5s-0.27,0.16-0.53,0s-0.43-0.36-0.4-0.51s0.28-0.15,0.54,0"/>
<path class="st3" d="M136.63,31.13c0.33,0.13,0.5,0.37,0.41,0.55s-0.43,0.22-0.76,0.09c-0.33-0.13-0.5-0.37-0.4-0.55
	S136.31,31,136.63,31.13"/>
<path class="st3" d="M129.64,26.06c0.26,0.09,0.38,0.24,0.28,0.36c-0.19,0.12-0.44,0.15-0.65,0.06c-0.27-0.08-0.39-0.23-0.28-0.35
	C129.18,26.01,129.42,25.98,129.64,26.06"/>
<path class="st3" d="M132.36,34.11c0.37,0.14,0.55,0.4,0.43,0.62c-0.23,0.24-0.59,0.31-0.9,0.17c-0.37-0.13-0.55-0.4-0.42-0.62
	C131.7,34.04,132.06,33.97,132.36,34.11"/>
<path class="st3" d="M128.82,49.79c0.24,0.07,0.38,0.31,0.31,0.55c-0.01,0.04-0.03,0.07-0.04,0.11c-0.16,0.27-0.48,0.39-0.78,0.29
	c-0.24-0.08-0.38-0.33-0.3-0.58c0.01-0.03,0.02-0.06,0.04-0.09C128.21,49.8,128.53,49.69,128.82,49.79"/>
<path class="st3" d="M126.54,50.97c0.2,0.05,0.33,0.26,0.28,0.46c-0.01,0.04-0.03,0.08-0.05,0.11c-0.15,0.23-0.44,0.33-0.7,0.26
	c-0.2-0.05-0.33-0.26-0.28-0.46c0.01-0.04,0.03-0.08,0.05-0.11C125.99,51,126.27,50.89,126.54,50.97"/>
<path class="st3" d="M134.61,47.19c0.31,0.1,0.48,0.44,0.38,0.76c0,0,0,0,0,0c-0.15,0.3-0.51,0.43-0.82,0.29
	c-0.31-0.1-0.48-0.43-0.38-0.74c0-0.01,0.01-0.02,0.01-0.03C133.95,47.17,134.31,47.05,134.61,47.19"/>
<path class="st3" d="M131.49,48.53c0.31,0.1,0.48,0.44,0.38,0.76c0,0,0,0,0,0c-0.14,0.31-0.51,0.44-0.82,0.3
	c-0.32-0.11-0.49-0.45-0.38-0.77c0,0,0,0,0-0.01C130.83,48.51,131.19,48.39,131.49,48.53"/>
<path class="st3" d="M135.33,33.67c0.25,0.1,0.38,0.29,0.3,0.43c-0.14,0.17-0.39,0.21-0.58,0.1c-0.25-0.1-0.39-0.28-0.31-0.43
	C134.89,33.61,135.13,33.57,135.33,33.67"/>
<path class="st3" d="M141.75,26.75c0.21,0.09,0.35,0.22,0.32,0.34c-0.03,0.12-0.23,0.11-0.44,0s-0.36-0.23-0.32-0.34
	S141.54,26.64,141.75,26.75"/>
<path class="st3" d="M137.91,46.16c0.27,0.09,0.42,0.38,0.34,0.65c-0.11,0.25-0.4,0.35-0.65,0.24c-0.01,0-0.01-0.01-0.02-0.01
	c-0.27-0.1-0.41-0.39-0.34-0.66c0.12-0.24,0.41-0.35,0.65-0.23C137.9,46.15,137.9,46.16,137.91,46.16"/>
<path class="st3" d="M141,45.12c0.25,0.09,0.39,0.35,0.34,0.61c-0.09,0.22-0.33,0.32-0.55,0.23c-0.02-0.01-0.04-0.02-0.06-0.03
	c-0.25-0.09-0.4-0.36-0.35-0.62c0.1-0.22,0.35-0.31,0.57-0.22C140.97,45.1,140.98,45.11,141,45.12"/>
<path class="st3" d="M143.84,44.53c0.23,0.09,0.38,0.33,0.35,0.58c-0.07,0.21-0.31,0.29-0.57,0.18c-0.24-0.09-0.38-0.34-0.34-0.59
	C143.34,44.49,143.58,44.42,143.84,44.53"/>
<path class="st3" d="M129.91,33.53c0.24,0.08,0.36,0.24,0.27,0.39c-0.17,0.15-0.4,0.19-0.61,0.11c-0.24-0.07-0.36-0.24-0.27-0.38
	C129.46,33.5,129.7,33.45,129.91,33.53"/>
<path class="st3" d="M131.53,35.26c0.29,0.1,0.44,0.32,0.33,0.51c-0.19,0.2-0.48,0.26-0.73,0.15c-0.3-0.1-0.44-0.32-0.34-0.51
	C130.98,35.21,131.28,35.15,131.53,35.26"/>
<path class="st3" d="M133.85,36.29c0.26,0.1,0.39,0.31,0.31,0.48c-0.16,0.18-0.42,0.24-0.64,0.13c-0.26-0.1-0.4-0.31-0.31-0.48
	C133.37,36.24,133.63,36.18,133.85,36.29"/>
<path class="st3" d="M136.14,37.21c0.23,0.09,0.35,0.28,0.28,0.44c-0.13,0.17-0.36,0.22-0.55,0.12c-0.24-0.1-0.36-0.29-0.28-0.45
	S135.9,37.12,136.14,37.21"/>
<path class="st3" d="M138.32,38.13c0.22,0.1,0.35,0.29,0.28,0.45s-0.29,0.21-0.52,0.12c-0.23-0.09-0.35-0.3-0.29-0.46
	C137.85,38.08,138.09,38.04,138.32,38.13"/>
<path class="st3" d="M143.25,27.32c0.2,0.09,0.34,0.22,0.31,0.33c-0.03,0.11-0.2,0.12-0.41,0c-0.21-0.12-0.35-0.22-0.32-0.33
	C142.86,27.21,143.04,27.21,143.25,27.32"/>
<path class="st3" d="M142.17,26.08c0.18,0.07,0.31,0.19,0.28,0.29s-0.19,0.1-0.37,0s-0.31-0.2-0.28-0.3c0.03-0.1,0.19-0.1,0.37,0"/>
<path class="st3" d="M141,24.99c0.16,0.07,0.28,0.17,0.25,0.26s-0.17,0.1-0.33,0c-0.16-0.1-0.28-0.17-0.26-0.26
	C140.68,24.9,140.83,24.9,141,24.99"/>
<path class="st3" d="M144.49,28.78c0.22,0.12,0.36,0.28,0.33,0.41s-0.24,0.12-0.46,0s-0.36-0.28-0.32-0.41
	S144.28,28.67,144.49,28.78"/>
<path class="st3" d="M129.11,34.53c0.25,0.08,0.37,0.26,0.28,0.41c-0.16,0.17-0.41,0.22-0.63,0.13c-0.26-0.08-0.38-0.25-0.28-0.4
	C128.64,34.5,128.89,34.45,129.11,34.53"/>
<path class="st3" d="M126.86,33.95c0.24,0.06,0.34,0.21,0.25,0.35c-0.17,0.15-0.4,0.2-0.61,0.13c-0.24-0.06-0.35-0.21-0.25-0.35
	C126.42,33.93,126.65,33.88,126.86,33.95"/>
<path class="st3" d="M146,33.12c-0.07,0.25,0.16,0.6,0.54,0.86c-0.45-0.15-0.83-0.08-0.93,0.22c-0.01,0.35,0.15,0.68,0.44,0.87
	c-0.39-0.08-0.7,0-0.78,0.3c-0.08,0.3,0.16,0.73,0.6,1c-0.49-0.15-0.89,0-1,0.29c-0.04,0.36,0.11,0.71,0.4,0.92
	c-0.39,0-0.69,0.09-0.78,0.39c-0.03,0.4,0.15,0.78,0.48,1c-0.45-0.08-0.8,0.06-0.91,0.41c-0.05,0.6,0.31,1.15,0.88,1.35
	c0.38,0.25,0.88,0.22,1.22-0.08c0.11,0.49,0.45,0.89,0.91,1.09c0.33,0.21,0.74,0.21,1.07,0c0.16,0.41,0.47,0.75,0.87,0.94
	c0.31,0.18,0.69,0.18,1,0c0.17,0.41,0.48,0.75,0.87,0.95c0.3,0.2,0.7,0.2,1,0c0.16,0.43,0.48,0.79,0.89,1
	c0.59,0.3,1.07,0.15,1.13-0.34c-0.02-0.44-0.23-0.85-0.57-1.13c0.39,0.07,0.66-0.09,0.7-0.43c-0.01-0.39-0.18-0.75-0.48-1
	c0.34,0,0.57-0.1,0.6-0.4c-0.04-0.46-0.29-0.87-0.68-1.12c0.44,0.15,0.76,0,0.8-0.31c-0.03-0.37-0.22-0.71-0.52-0.94
	c0.35,0.07,0.59,0,0.61-0.32c-0.06-0.42-0.3-0.79-0.67-1c0.38,0.14,0.66,0.06,0.69-0.22c-0.07-0.44-0.36-0.82-0.77-1
	c-0.4-0.21-0.73-0.2-0.84,0c-0.12-0.37-0.39-0.68-0.75-0.85c-0.38-0.19-0.71-0.19-0.85,0c-0.14-0.4-0.43-0.72-0.81-0.9
	c-0.44-0.22-0.82-0.22-1,0c-0.13-0.35-0.39-0.64-0.73-0.8c-0.47-0.23-0.89-0.22-1,0.08l0,0c0.07-0.3-0.26-0.7-0.74-0.94
	c-0.48-0.24-0.92-0.2-1,0.09 M152.03,42.1c0.21,0.1,0.36,0.31,0.37,0.55c0,0.18-0.22,0.23-0.45,0.12c-0.22-0.1-0.36-0.31-0.37-0.55
	C151.58,42.04,151.8,41.99,152.03,42.1 M150.2,41.22c0.19,0.08,0.32,0.26,0.33,0.47c0,0.16-0.21,0.21-0.42,0.11
	c-0.19-0.08-0.32-0.27-0.33-0.48C149.78,41.16,149.99,41.12,150.2,41.22 M148.35,40.3c0.19,0.07,0.32,0.26,0.32,0.47
	c0,0.16-0.22,0.2-0.44,0.1c-0.19-0.08-0.32-0.26-0.32-0.47C147.91,40.24,148.14,40.19,148.35,40.3 M146.69,39.8
	c-0.05,0.18-0.27,0.22-0.51,0.11c-0.22-0.08-0.37-0.29-0.36-0.53c0-0.17,0.27-0.22,0.51-0.11C146.55,39.36,146.69,39.57,146.69,39.8
	 M152.26,40.8c0.19,0.08,0.31,0.26,0.33,0.46c0,0.16-0.19,0.2-0.4,0.1c-0.19-0.09-0.31-0.27-0.32-0.47
	C151.87,40.73,152.06,40.69,152.26,40.8 M146.65,37.99c0.19,0.07,0.31,0.25,0.31,0.45c0,0.15-0.23,0.18-0.44,0.08
	c-0.21-0.1-0.35-0.3-0.32-0.45S146.44,37.89,146.65,37.99 M152.42,39.44c0.18,0.08,0.3,0.25,0.33,0.44c0,0.15-0.19,0.19-0.39,0.09
	c-0.18-0.08-0.3-0.25-0.32-0.45C152.04,39.38,152.23,39.34,152.42,39.44 M146.97,36.69c0.2,0.11,0.33,0.29,0.31,0.43
	s-0.23,0.17-0.43,0.07s-0.34-0.29-0.31-0.43S146.76,36.59,146.97,36.69 M152.57,38.18c0.18,0.07,0.3,0.23,0.32,0.42
	c0,0.14-0.18,0.16-0.37,0.06c-0.18-0.07-0.3-0.23-0.32-0.42C152.2,38.1,152.38,38.08,152.57,38.18 M147.27,35.48
	c0.2,0.1,0.33,0.27,0.3,0.41s-0.21,0.15-0.42,0.06c-0.21-0.09-0.33-0.28-0.3-0.42S147.07,35.38,147.27,35.48 M152.66,36.87
	c0.2,0.11,0.35,0.3,0.33,0.44s-0.18,0.17-0.39,0.06c-0.19-0.08-0.32-0.25-0.35-0.45C152.25,36.79,152.45,36.76,152.66,36.87
	 M151.02,36.05c0.18,0.09,0.32,0.26,0.3,0.39c-0.02,0.13-0.18,0.15-0.37,0.05c-0.19-0.1-0.32-0.26-0.3-0.4s0.18-0.14,0.37,0
	 M149.37,35.24c0.18,0.1,0.31,0.25,0.29,0.39s-0.19,0.14-0.38,0s-0.32-0.26-0.3-0.39C149,35.11,149.18,35.1,149.37,35.24
	 M147.57,34.3c0.21,0.11,0.35,0.29,0.32,0.43s-0.22,0.16-0.44,0.05c-0.22-0.11-0.36-0.3-0.33-0.44s0.23-0.15,0.45,0"/>
</svg>
