<?xml version="1.0" encoding="utf-8"?>
<!-- Generator: Adobe Illustrator 24.1.2, SVG Export Plug-In . SVG Version: 6.00 Build 0)  -->
<svg version="1.1" id="Layer_1" xmlns="http://www.w3.org/2000/svg" xmlns:xlink="http://www.w3.org/1999/xlink" x="0px" y="0px"
	 viewBox="0 0 39.07 39.07" style="enable-background:new 0 0 39.07 39.07;" xml:space="preserve">
<style type="text/css">
	.st0{clip-path:url(#SVGID_2_);fill:#828282;}
</style>
<g>
	<defs>
		<polygon id="SVGID_1_" points="-6.02,43.56 44.67,43.56 44.67,-6.44 -6.02,-6.44 -6.02,43.56 		"/>
	</defs>
	<clipPath id="SVGID_2_">
		<use xlink:href="#SVGID_1_"  style="overflow:visible;"/>
	</clipPath>
	<path class="st0" d="M32.61,32.71l-0.11,0.11c-2.88,2.78-6.56,4.58-10.52,5.15l-0.41,0.05l0.44-0.29c1.92-1.37,3.58-3.06,4.92-5
		l0,0L32.61,32.71z M25.78,32.71l-0.07,0.1c-1.33,1.76-2.92,3.29-4.73,4.55l-1,0.67v-5.32H25.78z M19.09,32.71v5.32l-1-0.67
		c-1.8-1.26-3.4-2.79-4.72-4.55l-0.07-0.1L19.09,32.71z M12.09,32.71L12.09,32.71c1.35,1.93,3.02,3.62,4.93,5l0.36,0.23L17,37.89
		c-3.96-0.52-7.65-2.32-10.5-5.11l-0.11-0.11L12.09,32.71z M36.83,26.21c0,0.03,0,0.06,0,0.09c-0.79,1.99-1.92,3.84-3.33,5.45l0,0
		h-6l0.06-0.1c1-1.67,1.71-3.5,2.11-5.41c0-0.02,0-0.03,0-0.05L36.83,26.21z M28.72,26.21v0.08c-0.43,1.94-1.2,3.79-2.29,5.45l0,0
		h-6.45v-5.53H28.72z M19.05,26.21v5.56h-6.42l0,0c-1.09-1.66-1.86-3.51-2.29-5.45v-0.08L19.05,26.21z M9.31,26.21
		c0,0.02,0,0.03,0,0.05c0.4,1.91,1.11,3.74,2.11,5.41l0.06,0.1h-6l0,0c-1.41-1.61-2.54-3.45-3.32-5.45v-0.09L9.31,26.21z
		 M37.2,13.75L37.2,13.75c0.61,1.88,0.93,3.84,0.93,5.81c-0.01,1.96-0.32,3.9-0.92,5.76l0,0H1.86l0,0c-1.22-3.73-1.22-7.76,0-11.49
		l0,0L37.2,13.75z M33.49,7.26L33.49,7.26c1.42,1.61,2.54,3.46,3.33,5.45c0,0.03,0,0.06,0,0.09h-7.11c0-0.02,0-0.03,0-0.05
		c-0.4-1.91-1.11-3.74-2.11-5.42l-0.06-0.09L33.49,7.26z M26.43,7.26L26.43,7.26c1.09,1.66,1.86,3.51,2.29,5.45v0.08h-8.74V7.26
		H26.43z M19.09,7.26v5.56H10.3v-0.08c0.43-1.94,1.2-3.79,2.29-5.45l0,0L19.09,7.26z M11.53,7.26l-0.06,0.09
		c-1,1.68-1.71,3.51-2.11,5.42c0,0.02,0,0.03,0,0.05H2.19v-0.09c0.78-2,1.9-3.84,3.32-5.45l0,0L11.53,7.26z M26.91,6.26
		c-1.35-1.93-3.01-3.62-4.92-5l-0.37-0.24L22,1.08c3.96,0.52,7.65,2.31,10.5,5.11l0.11,0.11h-5.63l0,0 M19.98,0.99l1,0.68
		c1.8,1.26,3.4,2.79,4.72,4.55l0.07,0.1h-5.79V0.99z M13.36,6.22c1.32-1.76,2.92-3.29,4.72-4.55l1-0.68v5.33h-5.8l0.07-0.1
		 M6.56,6.22c2.88-2.79,6.57-4.6,10.54-5.16h0.41l-0.43,0.28c-1.92,1.37-3.59,3.06-4.93,5l0,0h-5.7l0.11-0.11 M19.4,0
		C8.61,0.07-0.07,8.87,0,19.66c0.07,10.79,8.87,19.47,19.66,19.4c10.79-0.07,19.47-8.87,19.4-19.66C38.99,8.72,30.34,0.07,19.66,0
		H19.4z"/>
	<path class="st0" d="M23.28,15.56c-0.4,0.13-0.51,0.63-0.77,1.48l-1.42,4.94c-0.27,1-0.27,1.27-0.11,1.49v0.09H18.6v-0.1
		c0.38-0.19,0.45-0.46,0.75-1.42l1.42-4.92c0.27-1,0.34-1.31,0.13-1.57v-0.09h2.38V15.56z"/>
	<path class="st0" d="M3.05,21.49c0.01,0.94,0.79,1.7,1.73,1.69c0.12,0,0.24-0.01,0.35-0.04c0.77,0,1.4-0.63,1.4-1.4
		c0-0.01,0-0.01,0-0.02c-0.05-0.65-0.43-1.22-1-1.53l-0.38-0.25c-0.81-0.57-1.53-1.17-1.52-2.19c0-1.46,1.19-2.37,2.77-2.44
		c0.5-0.02,1,0.04,1.49,0.16l0.68,0.2l-0.38,1.42h-0.1c-0.21-0.87-0.58-1.35-1.78-1.25c-0.7,0.04-1.25,0.62-1.24,1.32
		c0,0.6,0.35,1,1,1.42l0.39,0.24C7.34,19.4,8.1,20,8.09,21.08c0,1.61-1.27,2.62-3.13,2.63c-0.86,0.03-1.71-0.21-2.43-0.69
		c0-0.15,0.22-0.84,0.4-1.52L3.05,21.49z"/>
	<path class="st0" d="M30.26,15.46c-0.11,0.32-0.31,0.93-0.46,1.42h-0.1c-0.38-1-1.29-0.86-1.94-0.86h-0.07
		c-0.45,0-0.57,0.11-0.69,0.52l-0.72,2.63h0.24c1.1,0,1.87,0.1,2.19-0.33h0.09l-0.42,1.48h-0.09c-0.21-0.66-1-0.59-2-0.59h-0.23
		l-0.65,2.23c-0.24,0.84-0.32,1.27-0.11,1.49v0.11h-2.32v-0.1c0.41-0.16,0.5-0.54,0.78-1.47l1.43-5c0.26-0.9,0.31-1.22,0.11-1.48
		v-0.05H30.26z"/>
	<path class="st0" d="M36.78,15.46c-0.16,0.46-0.3,0.91-0.47,1.42h-0.1c-0.36-1-1.35-0.86-1.78-0.86h-0.1l-1.72,6
		c-0.23,0.88-0.32,1.25-0.1,1.47v0.07h-2.33v-0.1c0.4-0.19,0.49-0.59,0.75-1.49l1.73-5.94h-0.17c-0.81-0.13-1.62,0.2-2.1,0.86h-0.11
		c0.15-0.41,0.31-0.91,0.49-1.42L36.78,15.46z"/>
	<path class="st0" d="M19.76,15.56c-0.44,0.4-0.78,0.88-1,1.43c-0.7,1.31-3.17,6.21-3.36,6.57h-0.89l-0.5-5.11l0,0l-2.77,5.11H10.5
		l-0.68-6.52c-0.09-0.77-0.13-1.27-0.38-1.49v-0.09h2.3v0.1c-0.28,0.3-0.35,0.63-0.28,1.39l0.38,3.88l0,0l2.92-5.27h0.64l0.51,5.3
		l0,0l2.05-4c0.49-1,0.3-1.16,0.23-1.28v-0.11h1.54L19.76,15.56z"/>
</g>
</svg>
