<?xml version="1.0" encoding="utf-8"?>
<!-- Generator: Adobe Illustrator 24.1.2, SVG Export Plug-In . SVG Version: 6.00 Build 0)  -->
<svg version="1.1" id="Layer_1" xmlns="http://www.w3.org/2000/svg" xmlns:xlink="http://www.w3.org/1999/xlink" x="0px" y="0px"
	 viewBox="0 0 154.27 48.9" style="enable-background:new 0 0 154.27 48.9;" xml:space="preserve">
<style type="text/css">
	.st0{fill:#828282;}
	.st1{clip-path:url(#SVGID_2_);}
	.st2{fill:#666666;}
</style>
<polygon class="st0" points="23.74,24.61 0,24.61 23.74,0.87 "/>
<g>
	<defs>
		<polygon id="SVGID_1_" points="23.74,1.45 23.74,25.12 47.41,1.45 		"/>
	</defs>
	<use xlink:href="#SVGID_1_"  style="overflow:visible;fill:#666666;"/>
	<clipPath id="SVGID_2_">
		<use xlink:href="#SVGID_1_"  style="overflow:visible;"/>
	</clipPath>
	<g class="st1">
		<rect x="23.74" y="1.45" class="st2" width="23.16" height="23.16"/>
	</g>
</g>
<polygon class="st0" points="22.69,24.69 22.69,48.9 46.9,24.69 46.9,0.47 "/>
<path class="st0" d="M70.06,0v23.15c-2.3,0.52-4.64,0.8-7,0.82c-4.56,0-6.65-2.22-6.65-6.68v-3.44l3.12-2.72v5.94
	c0,0,0.64,4.33,3.55,4.33c1.28-0.03,2.55-0.14,3.82-0.31V2.76L70.06,0z"/>
<path class="st0" d="M80.59,9.45c-0.47-0.14-0.96-0.21-1.45-0.21c-1.43,0-2.85,0.94-2.85,3.24s1.24,3.15,2.69,3.15
	c0.55,0,1.09-0.07,1.61-0.23V9.45z M75.19,21.04c0.36,0,1.48-0.06,1.78-0.06c2.57,0,3.81-1.18,4-3.36
	c-0.54,0.13-1.09,0.19-1.64,0.19c-3,0-5.33-1.85-5.33-5.76s2.64-5.83,5.53-5.83c1.44,0.01,2.87,0.24,4.23,0.69v10
	c0,4.37-2.11,6.64-6.62,6.64H73.7L75.19,21.04z"/>
<path class="st0" d="M151.11,5.66h3.16V2.51h-3.16V5.66z M151.11,13.66c0,2.33-3.29,3.58-3.29,3.58h-43.61l-1-5.19
	c-0.82-4.44-2.94-5.08-6.78-5.08l-1.15,2.54c2.76,0.09,4.76,0.18,5.33,3.27l0.88,4.46h-7.72l-1.33,3.16h55.52v-0.6
	c4.09-0.06,5.26-5.66,5.26-5.66v-7l-2.11,2.61V13.66z M150.06,2.51h-3.16v3.15h3.16V2.51z"/>
<polygon class="st0" points="90.06,19.34 86.9,19.34 86.9,2.6 90.06,0 "/>
<polygon class="st0" points="62.69,29.87 56.37,29.87 56.37,27.77 68.39,27.77 70.58,29.87 65.85,29.87 65.85,47.77 62.69,47.77 "/>
<path class="st0" d="M78.53,40.14c-2.94-0.06-6.28,0.46-6.28,3.33c-0.1,1.31,0.88,2.46,2.19,2.56c0.12,0.01,0.24,0.01,0.36,0
	c1.61,0.04,3.05-0.96,3.58-2.48c0.09-0.27,0.14-0.56,0.15-0.85V40.14z M81.69,44.14c-0.59,1.11-0.77,2.39-0.49,3.62h-2.5l-0.17-2.1
	h-0.09c-1,1.52-2.72,2.41-4.54,2.35c-2.32,0.17-4.34-1.57-4.51-3.89c-0.01-0.12-0.01-0.23-0.01-0.35c0-3.56,3.18-5.52,9.14-5.49
	v-0.3c-0.24-1.23-0.57-3.42-3.6-3.42c-1.36,0-2.7,0.38-3.86,1.1l-0.61-1.78c1.47-0.88,3.15-1.33,4.86-1.3c4.53,0,5.64,3.08,6.37,6
	L81.69,44.14z"/>
<path class="st0" d="M94.27,38.59c0.01-0.38-0.04-0.77-0.13-1.14c-0.41-1.82-2.03-3.11-3.89-3.11c-2.78,0-4.43,2.44-4.43,5.71
	c0,3,1.47,5.46,4.38,5.46c1.91,0.01,3.56-1.33,3.94-3.2c0.1-0.38,0.14-0.78,0.13-1.17V38.59z M97.43,30.02v13.85
	c-0.28,1.28-0.44,2.59-0.48,3.9h-2.42l-0.12-2.11h-0.07c0,0-2.63,2.35-5,2.35c-3.59,0-6.34-3-6.34-7.5c0-4.91,3-7.93,6.64-7.93
	c1.87-0.14,3.65,0.87,4.47,2.56h0.2V27.4L97.43,30.02z"/>
<path class="st0" d="M107.95,40.14c-2.93-0.06-6.27,0.46-6.27,3.33c-0.1,1.31,0.88,2.46,2.19,2.56c0.12,0.01,0.24,0.01,0.36,0
	c1.61,0.04,3.05-0.96,3.58-2.48c0.09-0.27,0.14-0.56,0.14-0.85L107.95,40.14z M111.11,44.14c-0.52,1.13-0.65,2.4-0.38,3.62h-2.45
	l-0.22-2.11h-0.09c-1,1.52-2.71,2.41-4.53,2.35c-2.32,0.17-4.35-1.57-4.52-3.9c-0.01-0.11-0.01-0.23-0.01-0.34
	c0-3.56,3.18-5.52,9-5.49v-0.3c-0.13-1.23-0.47-3.42-3.5-3.42c-1.36,0-2.7,0.38-3.86,1.1l-0.61-1.78c1.47-0.88,3.16-1.33,4.87-1.3
	c4.53,0,5.63,3.08,6.26,6L111.11,44.14z"/>
<path class="st0" d="M114.15,33.03l2,7.77c0.44,1.7,0.85,3.28,1.14,4.86h0.09c0.35-1.54,0.86-3.18,1.36-4.86l2.51-7.77h2.33
	l2.38,7.65c0.58,1.82,1,3.44,1.37,5h0.09c0.3-1.67,0.7-3.32,1.18-4.95l2.18-7.68h2.38l-4.73,14.72h-2.55l-2.21-6.86
	c-0.51-1.55-0.93-3.13-1.28-4.72h-0.07c-0.33,1.61-0.77,3.2-1.31,4.75l-2.32,6.83h-2.55l-4.46-14.74L114.15,33.03z"/>
<path class="st0" d="M147.96,43.65c0,1.53,0.16,4.12,0.16,4.12h-2.39l-0.15-2.11l0,0c-1.04,1.77-2.95,2.84-5,2.81
	c-2.39,0-5.24-1.31-5.24-6.61v-8.83h3.19v8.18c0,2.81,0.89,4.69,3.43,4.69c1.61,0,3.05-0.96,3.68-2.44
	c0.17-0.43,0.26-0.89,0.26-1.36v-9.07h2.11L147.96,43.65z"/>
<polygon class="st0" points="151.11,27.44 154.27,30.05 154.27,47.77 151.11,47.77 "/>
</svg>
