<?xml version="1.0" encoding="utf-8"?>
<!-- Generator: Adobe Illustrator 24.1.2, SVG Export Plug-In . SVG Version: 6.00 Build 0)  -->
<svg version="1.1" id="Layer_1" xmlns="http://www.w3.org/2000/svg" xmlns:xlink="http://www.w3.org/1999/xlink" x="0px" y="0px"
	 viewBox="0 0 180.17 49.8" style="enable-background:new 0 0 180.17 49.8;" xml:space="preserve">
<style type="text/css">
	.st0{fill-rule:evenodd;clip-rule:evenodd;fill:#828282;}
</style>
<path class="st0" d="M5.89,32.93c8.25-0.07,7.31-0.51,7.31,3.18v13.61h5.85V35.77c0-1.91-0.38-2.85,1.71-2.85
	c4.47,0,5.62-0.51,5.6,2.5v14.29c1.56,0,4.5,0.12,5.84-0.05c-0.07-4.49,0-9,0-13.55c0-1.8,0.27-4.78-0.48-6.2
	c-0.86-1.63-2.17-2.12-4.56-2.11H0.09c-0.16,2-0.07,18.29,0,21.44v0.48h5.79L5.89,32.93L5.89,32.93z"/>
<path class="st0" d="M134.12,33.79v11.92c-2.58,0-5.14,0-7.68,0c-1.83,0-1.81-0.25-1.8-2.05c0-6.8-0.56-5.71,5.76-5.83
	c2.32,0,2.39-2.71,3.7-4L134.12,33.79z M134.12,33.67c-1.68-0.08-12-0.16-13,0.17c-1.76,0.59-2.38,1.91-2.37,4.13v6.62
	c0,2.34-0.25,4,1.64,4.86c1,0.51,11.09,0.27,13,0.27s4.82,0.18,6.59,0v-21.9h-5.82l-0.05,5.87L134.12,33.67z"/>
<path class="st0" d="M57,49.73c0-3.46,0-6.91,0-10.36s0.08-5.72-4.57-5.71H42.25c-2,0-3.09-0.33-4,1.1c-0.73,0.98-1.4,2-2,3.07
	c3.86,0,7.75,0,11.61,0c2.34,0,3.47-0.22,3.46,2.36c0,1.84,0.07,3.81,0,5.66H41.08c-0.24-3,0-2.49,2.67-2.49
	c1.54,0,3.63,0.13,5.09,0c0-3.27,0.62-3.23-2.64-3.23c-11.75,0-10.24-1-10.29,7.28c0,2.57,1.41,2.34,3.66,2.34L57,49.73z"/>
<path class="st0" d="M180.15,49.73c0-3.45,0-6.91,0-10.36s0.06-5.72-4.56-5.71h-10.22c-2.06,0-3-0.34-4,1.09
	c-0.73,0.98-1.4,2.01-2,3.08c3.88,0,7.76,0,11.63,0c2.33,0,3.47-0.25,3.46,2.35c0,1.83,0.06,3.82,0,5.67h-10.2l0.08-2.15
	c0.31-0.7,5.94-0.19,7.73-0.38c0-3.25,0.62-3.22-2.66-3.22c-11.75,0-10.26-1.06-10.28,7.28c0,2.49,1.3,2.34,3.54,2.34
	c5.77,0,11.91-0.09,17.57,0L180.15,49.73z"/>
<path class="st0" d="M28,22h12.61c1.64,0,1.91-0.66,2.57-1.63c0.61-0.81,1.17-1.66,1.66-2.55c-3.78,0.12-7.74,0-11.55,0
	c-2.21,0-3.47,0.25-3.47-2.23c0-1.92-0.05-3.88,0-5.79H40c0,2.22,0.22,2.5-1.24,2.5h-6.45L32.25,14c0,1.92,0.86,1.47,2.68,1.47h4.3
	c2.76,0,5.89,0.7,5.89-2.51c0-6.95,0.66-7.12-3.69-7.12H24.07v9.91c0,2.58-0.48,6.16,3.89,6.16L28,22z"/>
<path class="st0" d="M66.58,37.81c1.6,0.11,3.54,0,5.17,0s3.55-0.28,3.73,1.54c0.12,1.27,0,8.32,0,10.35h5.85
	c-0.06-2.91,0-5.88,0-8.8s0.5-5.6-1.84-6.82c-1.37-0.73-6.42-0.4-8.34-0.4c-2.17,0-1.91,0.28-2.85,1.58
	c-0.62,0.81-1.19,1.65-1.71,2.52c-0.18-0.78-0.09-8.52-0.07-10h-5.86v21.94h5.86C66.52,49.72,66.58,37.81,66.58,37.81z"/>
<path class="st0" d="M100.78,37.83c1.7,0,3.42,0,5.13,0s3.15-0.12,3.21,1.77c0.11,3.28,0,6.83,0,10.12H115c0-3,0-6.06,0-9.09
	c0-3.22,0.46-5.78-2.3-6.79c-0.92-0.34-15.88-0.32-17.8-0.18v16h5.9V37.83H100.78z"/>
<path class="st0" d="M0.05,5.05h7.88v16.84c1.95,0.13,3.9,0.14,5.85,0.05V5.05h7.86v-5L0.06,0L0.05,5.05L0.05,5.05z"/>
<path class="st0" d="M66.83,21.91v-4c-0.7-0.16-7.84-0.06-9.13-0.06c-3.9,0-3.34-0.23-3.33-5.91c0-1.73,0.51-2.26,2.27-2.25h4.66
	c3.66,0,4,0.72,5.46-3.81c-4.31-0.12-8.8,0-13.14,0c-5.9,0-5.07,2.47-5.07,8.05s-0.82,8,5.07,8c2,0,12.16,0.13,13.21,0V21.91z"/>
<path class="st0" d="M149.77,49.69c0-2.17,0-4.33,0-6.48s-0.44-4.88,1.13-5.33s4.65,0.47,5.88-0.49c0.98-1.18,1.88-2.43,2.68-3.73
	h-11.85c-3.65,0-3.74,0.85-3.74,4.2v11.86h5.89L149.77,49.69z"/>
<polygon class="st0" points="70.42,21.94 76.2,21.95 76.2,0 70.44,0 70.42,21.94 "/>
<path class="st0" d="M76.25,10c1.6,0.14,3.62,0,5.25,0c4.53,0,3.77,0,3.77,6.65c0,1.74,0,3.46,0,5.19l5.79,0.05
	c0-2.89,0-5.82,0-8.71s0.53-5.66-1.79-6.94c-1.41-0.77-6.37-0.42-8.34-0.42c-2.33,0-2,0.23-4.2,3.38l-0.47,0.76L76.25,10z"/>
<path class="st0" d="M91.05,33.87c-0.61,0.29-1.17,0.7-1.77,1.06c-2,1.26-4,2-4.08,4c-0.17,3.48,0,7.32,0,10.83h5.86V33.87H91.05z"
	/>
<path class="st0" d="M85.19,35.65c0.25-0.1,5.32-3.34,5.83-3.83v-4h-5.8l-0.06,7.85L85.19,35.65z"/>
</svg>
