<?xml version="1.0" encoding="utf-8"?>
<!-- Generator: Adobe Illustrator 24.1.2, SVG Export Plug-In . SVG Version: 6.00 Build 0)  -->
<svg version="1.1" id="Layer_1" xmlns="http://www.w3.org/2000/svg" xmlns:xlink="http://www.w3.org/1999/xlink" x="0px" y="0px"
	 viewBox="0 0 223.17 49.75" style="enable-background:new 0 0 223.17 49.75;" xml:space="preserve">
<style type="text/css">
	.st0{fill:#828282;}
</style>
<path class="st0" d="M192.17,10.94h-27.7l-1.14,3.7h11.37V41c0,2.22,1.32,3.36,3.89,3.36h2.23V14.64h10.27L192.17,10.94z M139,24.92
	c0-9.37-4.79-14-14.46-14h-11.3v30c0,2.22,1.23,3.35,3.79,3.35h7.51h1.26c9-0.33,13.2-4.31,13.2-13.7V24.92z M132.92,30.55
	c0,6.76-2.21,10.07-8.19,10.07h-5.43v-26h5.23c6.17,0,8.38,3.61,8.38,10.36L132.92,30.55z M95.49,10.46c-1.48,0-2.71,0.5-3,1.24
	L80.71,43L72,29.71c4.58-0.79,7.3-3.26,7.3-7.4V19.4c0-6-5.57-8.49-13-8.49H55.91v29.71H42.55c-5.28,0-6.46-1.19-6.46-6.61v-5.87H46
	l1.08-3.71h-11v-9.82h14.57l1.13-3.7H30V34c0,7.75,1.82,10.26,12.38,10.26L62,44.17V14.61h4.29c4.69,0,7.06,1.63,7.06,4.84v2.86
	c0,3.26-3,4.29-6.57,4.29h-2.73l9.18,15.7c1,1.82,1.53,2,4,2h5.33c2.47,0,3.55-0.2,4.3-2.22l2.74-7.66h7.37l-1.08-3.66h-5.16
	l4.56-12.86l8.24,24.18c0.69,2,1.88,2.22,4.54,2.22h2.87L98.5,11.7c-0.29-0.74-1.63-1.24-3-1.24 M203.56,11.7
	c-0.3-0.74-1.63-1.24-3-1.24s-2.72,0.5-3,1.24L185.3,44.27h2.27c2.46,0,3.55-0.2,4.29-2.22l2.75-7.66H202l-1.08-3.66h-5.11
	l4.57-12.86l8.23,24.18c0.69,2,1.88,2.22,4.54,2.22H216L203.56,11.7z M154.18,10.46c-1.47,0-2.71,0.5-3,1.24l-12.24,32.57h2.27
	c2.47,0,3.55-0.2,4.29-2.22l2.74-7.66h7.38l-1.09-3.66h-5.1L154,17.87l8.24,24.18c0.69,2,1.88,2.22,4.54,2.22h2.86L157.2,11.7
	c-0.3-0.74-1.63-1.24-3-1.24 M38.09,0H1.3L0,4.22h16.9v42.17c0,2.22,1.33,3.36,3.9,3.36H23V4.22h13.79L38.09,0z"/>
<path class="st0" d="M222.34,43.54c-1.11,1.1-2.89,1.1-4,0c-1.09-1.11-1.09-2.89,0-4c1.12-1.11,2.92-1.11,4.03,0.01
	c0.53,0.53,0.82,1.24,0.83,1.99c0.01,0.75-0.29,1.47-0.83,2 M218.62,39.79c-0.46,0.46-0.72,1.08-0.71,1.73
	c-0.01,0.66,0.25,1.29,0.71,1.75c0.45,0.47,1.08,0.73,1.73,0.72c0.65,0.01,1.28-0.25,1.74-0.72c0.46-0.46,0.72-1.09,0.71-1.75
	c0-1.35-1.1-2.45-2.45-2.45C219.7,39.08,219.08,39.33,218.62,39.79 M220.3,39.94c0.29-0.01,0.58,0.03,0.85,0.12
	c0.32,0.13,0.52,0.45,0.49,0.79c0.01,0.25-0.1,0.48-0.31,0.62c-0.14,0.08-0.29,0.13-0.45,0.15c0.22,0.02,0.41,0.14,0.54,0.31
	c0.1,0.14,0.16,0.31,0.17,0.48v0.46c-0.01,0.05-0.01,0.11,0,0.16l0,0h-0.52l0,0l0,0v-0.35c0.04-0.27-0.07-0.55-0.3-0.71
	c-0.19-0.09-0.39-0.13-0.6-0.11h-0.43v1.23h-0.56v-3.15L220.3,39.94z M220.89,40.44c-0.21-0.09-0.44-0.13-0.67-0.12h-0.46v1.14h0.49
	c0.18,0.01,0.36-0.02,0.53-0.08c0.2-0.07,0.34-0.27,0.32-0.48C221.12,40.72,221.04,40.54,220.89,40.44"/>
</svg>
