<?xml version="1.0" encoding="utf-8"?>
<!-- Generator: Adobe Illustrator 24.1.2, SVG Export Plug-In . SVG Version: 6.00 Build 0)  -->
<svg version="1.1" id="Layer_1" xmlns="http://www.w3.org/2000/svg" xmlns:xlink="http://www.w3.org/1999/xlink" x="0px" y="0px"
	 viewBox="0 0 159.1 50" style="enable-background:new 0 0 159.1 50;" xml:space="preserve">
<style type="text/css">
	.st0{fill:#828282;}
	.st1{fill:#999999;}
</style>
<path class="st0" d="M89.19,23c-6.54,0-10.29,2.82-10.29,7.72s3.75,7.65,10.29,7.65s10.27-2.81,10.27-7.65S95.73,23,89.19,23
	 M89.19,34.81c-3.58,0-5.39-1.36-5.39-4.09s1.81-4.15,5.39-4.15s5.39,1.39,5.39,4.15S92.76,34.81,89.19,34.81 M100.8,23.35v3.28h6.2
	V36.8c0,1,1.48,1.33,2.73,1.33s2.73-0.34,2.73-1.33V26.63h6.19v-3.28H100.8z M151.61,34.58c-1.09,0.1-2.18-0.15-3.12-0.72
	c-0.6-0.6-0.9-1.43-0.84-2.27v-7.18c0-1-1.41-1.27-2.61-1.27s-2.63,0.31-2.63,1.25v7c0,2.66,0.85,4.52,2.55,5.53
	c2.1,1.22,5.9,1.17,9.56,1.12h4.57v-3.46H151.61z M67,33.49c0,2.59,2.18,4.36,5.88,4.66V22.52h8.3v-3.61H59.53v3.61H67V33.49z
	 M140.3,38l-0.14-0.59c-1.21-6-8-12.88-9.46-13.89c-0.47-0.29-1.02-0.43-1.57-0.41c-0.57-0.03-1.13,0.12-1.61,0.41
	c-1.41,1-8.24,7.88-9.44,13.89L117.94,38h4.84l0.09-0.42c0.22-0.94,0.53-1.85,0.93-2.73h10.63c0.4,0.88,0.7,1.79,0.92,2.73l0.1,0.42
	H140.3z M125.51,31.77c1.04-1.59,2.26-3.07,3.62-4.4c1.34,1.34,2.55,2.81,3.59,4.4H125.51z"/>
<path class="st0" d="M45.74,27.87l-0.12-0.31c-3.57,4.08-12.35,6.72-20.25,6.13c-4.65-0.34-13.27-2.75-17.61-5.41
	c4.49,4.42,9.98,7.69,16,9.55c7.23,2.14,14.94,2,19.29-0.26c3.19-2.16,3.91-6,2.64-9.7"/>
<path class="st1" d="M35.79,2.2c14.21,8.41,5.77,34.86-5.56,43.35C19.68,53.46,8.47,49.81,6,42.53c2.32,3.13,6.43,4.35,10.08,3
	C26.53,41.4,31.89,22.55,32.58,16c0.47-5.64-0.27-9.42-2.23-11.81c-2.24-2.36-5.67-3.5-10.7-1.93C23.11-0.57,30.51-0.91,35.79,2.2"
	/>
<path class="st0" d="M43.76,37.19l0.17-0.11l0,0c0.3-0.19,0.59-0.41,0.85-0.65c0.13-0.12,0.25-0.24,0.37-0.37
	c5.57-5.63,6.75-21.26-6.9-28.66C33.4,4.76,22.1,1.07,10.83,6.76c-4.43,2.43-7.85,6.37-9.64,11.1c1.53-2.52,4.18-4.23,9.38-5
	s12.36,0.16,19.36,2.63c3.98,1.39,7.69,3.44,11,6.05c2.03,1.58,3.64,3.64,4.66,6l0.12,0.31c1.27,3.71,0.55,7.54-2.64,9.7l0,0
	c0.16-0.08,0.31-0.17,0.46-0.26h0.06c0.05-0.02,0.1-0.05,0.14-0.08"/>
<path class="st0" d="M3,26.85c0.38,0.55,0.79,1.07,1.23,1.57C6.93,22,21.92,17.81,26.34,17.86c-9.93-3.2-19.66-1.67-23.58,1.72
	c-1.42,1.58-1.86,4,0.2,7.27"/>
<path class="st0" d="M32.18,41.44c-8-0.44-19.6-3.52-27.83-12.85L4.2,28.42c-0.43-0.5-0.83-1.02-1.2-1.57
	c-2.06-3.31-1.62-5.69-0.2-7.27c-0.34,0.3-0.65,0.64-0.93,1c-2.15,2.72-2.4,7.14-0.97,11.83c3.15,10.18,16.86,16.3,28,14.62
	c5.04-0.85,9.72-3.18,13.42-6.71c-3.29,0.98-6.73,1.36-10.15,1.12"/>
</svg>
