<?xml version="1.0" encoding="utf-8"?>
<!-- Generator: Adobe Illustrator 24.1.2, SVG Export Plug-In . SVG Version: 6.00 Build 0)  -->
<svg version="1.1" id="Layer_1" xmlns="http://www.w3.org/2000/svg" xmlns:xlink="http://www.w3.org/1999/xlink" x="0px" y="0px"
	 viewBox="0 0 58.91 50" style="enable-background:new 0 0 58.91 50;" xml:space="preserve">
<style type="text/css">
	.st0{fill:#828282;}
</style>
<path class="st0" d="M48.23,11.91c2.24,4.55,2.73,9.77,1.38,14.66c-3.12,11.2-14.74,17.76-25.94,14.63c-2.16-0.6-4.2-1.54-6.06-2.78
	C8.01,31.91,5.5,18.86,12,9.26c2.02-2.98,4.77-5.39,8-7.01c2.94-1.44,6.17-2.21,9.44-2.25C37.46,0.05,44.76,4.68,48.23,11.91z
	 M29.86,1c0.09,0.96,0.09,1.92,0,2.88c0.02-0.09,0.07-0.17,0.14-0.23c0.15-0.08,0.27,0,0.33,0.15s0.08,0.39,0,0.48
	c0.13,0,0.19-0.08,0.3-0.08c2.31,0.17,4.56,0.85,6.58,2l0,0c0.41-0.2,0.93-0.46,1.35-0.1c0.5-0.19,0.59,0.43,1,0.5
	c0.52,0.3,0.9,0.81,1.04,1.4c0.09,0.18,0.38,0.32,0.42,0.52c0.43-0.7,0.96-1.33,1.58-1.87L43,6.51c-3.04-2.9-6.94-4.74-11.11-5.24
	C31.21,1.23,30.53,1.14,29.86,1z M28.69,1.11c-4.06,0.18-7.97,1.57-11.22,4c-0.64,0.44-1.2,1.1-1.85,1.48h0.1
	C16.54,7.26,17.31,8,18,8.8l0.05-0.14c2.9-2.73,6.7-4.33,10.68-4.49l-0.09-0.25v-2.5L28.69,1.11z M32.26,2.7l-1.5,0.65
	c-0.12-0.05-0.36-0.12-0.45,0s0,0.12,0,0.18c0.55,0.71,1.51,0.31,2.2,0.17c0.48,0.15,1,0.02,1.35-0.35V3.33
	C33.44,2.9,32.86,2.67,32.26,2.7z M29.83,5.28l0.11,0.19c0,1,0,2-0.05,2.91c0.4-0.07,0.8-0.07,1.2,0c2.03,0.27,3.96,1.04,5.61,2.25
	c-0.23-0.19-0.4-0.46-0.48-0.75c0.04-0.02,0.08-0.02,0.12,0c0-0.33-0.32-0.49-0.37-0.79C36.02,9.01,36.11,8.98,36.2,9
	c0.34,0.33,0.64,0.68,0.91,1.07c0.23-0.09,0.42,0.06,0.59,0.18s0.11,0.56,0.34,0.77c0,0.62,0.79,1,0.75,1.58c0,0.14,0.19,0,0.25,0.1
	l0.63,0.77c-0.09,0.14-0.05,0.34,0.1,0.43c0,0,0,0,0,0c0.28,0.13,0.44-0.23,0.72-0.18c0.41,0.23-0.06,0.5,0,0.75
	c0.16,0,0.36-0.12,0.48,0s-0.19,0.37-0.28,0.52s0.19,0.17,0.35,0.23c0.15,0.01,0.27,0.14,0.26,0.29c0,0.03-0.01,0.05-0.01,0.08
	c0.53,0.54-0.15,1.13,0.1,1.7c0.1,0.36,0,0.74-0.27,1c0,0.46-0.41,0.74-0.58,1.13l-0.53,0.1c-0.28,0.29,0.24,0.63,0,0.81h1.17
	L41,20.29c-0.17-0.49-0.11-1.04,0.16-1.48c0.11-0.41,0.3-0.8,0.55-1.15c0.07,0,0.21-0.15,0.27,0c0.04,0.37-0.02,0.74-0.17,1.08
	c0.26,0.53,0.37,1.11,0.32,1.7c1-0.06,2-0.09,3.05-0.07l-0.09-0.2c-0.11-1.87-0.57-3.7-1.36-5.4c-0.21,0-0.37,0.18-0.62,0.12
	c-0.09-0.03-0.14-0.12-0.13-0.21c-0.35-0.45-0.73-0.87-1.14-1.27c-0.54,0.05-0.77-0.56-1.26-0.63s-0.13-0.86-0.75-0.67
	c-0.32-0.11-0.57-0.37-0.65-0.7c0.06-0.56-0.17-1.12-0.6-1.48c-0.37-0.14-0.53,0.36-0.9,0.28c-0.21-0.11-0.12-0.38-0.18-0.55
	s-0.25-0.28-0.22-0.48c0.49-0.65-0.59-0.64-0.35-1.28c-0.07-0.45-0.54-0.63-0.78-1c-1.6-0.74-3.3-1.23-5.05-1.45
	C30.67,5.47,30.24,5.41,29.83,5.28z M39.27,5.28c-0.22,0.21-0.41-0.19-0.6,0c-0.01,0.11,0.01,0.21,0.07,0.3
	c0.44,0.16,0.49,0.79,1,0.65c0.17-0.19-0.1-0.39,0-0.63c-0.1-0.17-0.27-0.28-0.47-0.3V5.28z M20.55,8.1c-0.64,0.45-1.24,1-1.9,1.43
	c0.76,0.6,1.46,1.27,2.1,2l0.08,0.2c1.74-1.63,3.91-2.73,6.25-3.17c0.54-0.12,1.1-0.17,1.65-0.13c-0.08-1-0.08-2,0-3
	C25.81,5.56,22.98,6.48,20.55,8.1z M43.72,7.15c-0.64,0.79-1.33,1.53-2.07,2.23l-0.36,0.08c0.22,0,0.29,0.31,0.43,0.47
	c0.76,0.4,1,1.22,1.63,1.68c0.37,0.78,1.24,1.38,1.27,2.28c0.96,2.03,1.5,4.23,1.59,6.48l-0.09,0.12c0.09,0,0.18-0.03,0.25-0.09
	l3-0.06c-0.2-0.29-0.12-0.72-0.17-1.07C48.76,14.74,46.83,10.48,43.72,7.15z M15.05,7.23c-2.93,3.14-4.8,7.12-5.34,11.38
	c-0.11,0.63,0,1.28-0.17,1.91c1.07-0.08,2.15-0.08,3.22,0l-0.07-0.41c0.17-3.21,1.26-6.31,3.13-8.93c0.4-0.59,0.87-1.13,1.4-1.6
	c-0.68-0.63-1.39-1.37-2.1-2.07L15.05,7.23z M28.76,9.41l-0.18,0.1c-2.58,0.23-5.01,1.29-6.95,3c0.78,0.65,1.52,1.35,2.22,2.08
	l0.16-0.23c0.95-0.75,2.02-1.31,3.18-1.65c0.51-0.14,1.04-0.21,1.57-0.18C28.65,11.49,28.65,10.45,28.76,9.41z M29.86,9.41l0.1,0.23
	v2.82l0.27-0.05c1.71,0.18,3.33,0.84,4.68,1.91l0.08,0.22c0.54-0.65,1.12-1.27,1.73-1.85l0.52-0.3L37,12.3
	c-1.12-0.94-2.39-1.67-3.76-2.16c-1.1-0.35-2.23-0.59-3.38-0.71V9.41z M17.86,10.19v0.2l-1.12,1.43c-1.79,2.54-2.83,5.54-3,8.65
	h2.85l0.27,0.1c-0.11-0.07-0.08-0.2-0.12-0.3c0.16-2.92,1.34-5.69,3.33-7.83c-0.78-0.69-1.51-1.43-2.17-2.23L17.86,10.19z
	 M37.8,13.09l-0.05,0.12c-1,1-2,2-2.93,3.06c0.06,0.12,0.16,0.23,0.28,0.3c0-0.25,0.18-0.47,0.2-0.73c0.25-0.34,0.63-0.12,0.95,0
	c0.5-0.02,0.99,0.01,1.48,0.1c0.38,0.19,0.41,0.67,0.75,0.86c0.07,0.14,0.03,0.3-0.1,0.39c0.1,0.79,0.48-0.2,0.87,0
	c0.17,0.07,0.38,0,0.5,0.22c0.07,0.33,0.46,0.26,0.48,0.58c0,0.15-0.2,0.19-0.3,0.28c0.09,0.31-0.32,0.51-0.18,0.84
	c0.61,0.12,0.63-0.58,0.91-0.9c-0.12-0.55-0.31-1.08-0.58-1.57c-0.35-0.07-0.56-0.48-0.9-0.55c-0.67-0.26,0.1-0.68,0-1.08
	c-0.39-0.67-0.83-1.31-1.34-1.9L37.8,13.09z M20.8,13.19c-1.41,1.66-2.35,3.67-2.73,5.81c-0.04,0.52-0.12,1.04-0.25,1.55
	c0.43-0.12,0.88-0.14,1.31-0.05c-0.24-0.12-0.05-0.43-0.18-0.59s-0.07-0.59,0.18-0.75c0-0.43,0.42-0.65,0.46-1s0.62-0.14,0.86-0.37
	s0-0.23,0-0.35c0.21-0.28,0.53-0.27,0.78-0.42c0.17-0.3,0.41-0.55,0.7-0.73c0.63,0,0.64-0.86,1.23-0.88
	c-0.8-0.69-1.57-1.42-2.28-2.2L20.8,13.19z M29.8,13.54c0.11,0.72,0.18,1.44,0.2,2.17l0.75,0.25c0.22-0.36,0.7-0.43,0.91-0.78
	c0.14-0.11,0.29,0,0.4,0.13c0.02,0.28-0.03,0.57-0.13,0.83c-0.28,0.56-0.95,0.64-1.32,1c0.24,0.14,0.37-0.11,0.57-0.16
	c0.28,0.07,0.53,0.24,0.7,0.47c0.19,0.08,0.36,0,0.53-0.1c0.12-0.86,1.2-0.74,1.52-1.55l-0.19,0.07c-0.09-0.11-0.3-0.06-0.29-0.25
	c0.18-0.2,0.39-0.37,0.63-0.5c-0.92-0.6-1.94-1.06-3-1.35c-0.4-0.05-0.8-0.12-1.19-0.21L29.8,13.54z M24.19,15.72h0.23
	c0.25,0.25,0.65,0.19,0.84,0.53c0.09,0.18-0.18,0.16-0.17,0.32s0.13,0.05,0.17,0.13c0.2,0.07,0.16-0.12,0.23-0.2
	c0.26-0.26,0.3,0.25,0.55,0.25c0.17-0.14,0.41-0.11,0.55,0.06c0,0,0.01,0.01,0.01,0.01c0.16-0.15,0.52,0,0.57-0.28
	c0.32-0.34,0.15-0.88,0.62-1.1c0.17,0.1,0,0.25,0.06,0.4c0.32,0.14,0.69-0.27,0.95,0.05c-0.18-0.74-0.24-1.51-0.16-2.27
	c-1.66,0.17-3.2,0.92-4.36,2.12L24.19,15.72z M29.19,17.45c-0.16-0.19-0.53-0.08-0.75,0c0.21,0.2,0.13,0.58,0.25,0.84
	c-0.32,0.43-0.79,0.71-1.32,0.78c-0.14,0.17-0.1,0.53-0.43,0.5c-0.1,0.23-0.46,0.37-0.32,0.7c-0.1,0.39-0.16,0.8-0.18,1.2
	c-0.61,0.39-0.44-0.51-0.75-0.7l-0.1,0.18c-0.13,0-0.21,0-0.3-0.13s-0.25-0.06-0.33,0s-0.34,0.41-0.29,0.73s-0.38,0.12-0.33,0.32
	c0.35-0.02,0.71-0.07,1.05-0.15c0.24,0.07,0.44-0.11,0.68-0.12c0.1,0.04,0.16,0.14,0.14,0.25h0.09c0.16-0.11,0.23-0.32,0.16-0.5
	c0-0.22,0.26-0.22,0.41-0.28s0,0.19,0.07,0.3c0.47,0.18-0.11,0.52-0.18,0.77s0,0.65-0.39,0.58c-0.08-0.02-0.12-0.09-0.11-0.17l0,0
	c0.01,0.19,0.11,0.37,0.28,0.47c0.3-0.24,0.31-0.65,0.72-0.7c0.22-0.23-0.09-0.59,0.23-0.77c0.54,0,1.13-0.24,1.56,0.19
	c0,0.19-0.11,0.27,0.05,0.43c-0.08,0.25-0.21,0.49-0.38,0.7c0.05,0.14,0.01,0.3-0.1,0.4c-0.15,0.63-0.88,0.33-1.3,0.55
	c0.66,0.49,1.48,0.71,2.3,0.62c0.45,0,0.25-0.57,0.48-0.82c0.15-0.73,0.81-0.23,1.22-0.43c0.18-0.31,0.3-0.65,0.35-1
	c-0.26-0.17-0.37-0.49-0.28-0.78c-0.18-0.24-0.15-0.68-0.54-0.72c-0.06-0.07-0.06-0.18,0-0.25c0-0.23,0.22-0.3,0.28-0.48
	c-0.24-0.15-0.17-0.5-0.15-0.7c-0.41,0.12-0.45-0.41-0.75-0.53c-0.08-0.24-0.34-0.28-0.55-0.32c-0.5,0.24-0.58-0.38-1-0.52
	c0-0.12-0.12-0.28,0-0.38s0.44,0,0.66,0L29.19,17.45z M20.27,20c-0.84,0.27,0.14,0.91-0.07,1.43c-0.11,0.3-0.43,0-0.65,0.15
	l-0.08,0.55c-0.13,0.32-0.53,0.08-0.72,0.3s0,0.43,0.13,0.6c-0.3,0.66,0.65,0.87,0.64,1.48c0.29,0.37,0,0.91,0.38,1.25
	c0.09,0.68-0.1,1.59,0.5,2.12l0.1,0.65c0.13,0.45-0.53,0.34-0.45,0.73c0.13-0.06,0.16,0.11,0.17,0.15l0,0
	c0.83-0.97,1.72-1.89,2.68-2.74l-0.4-0.39c-0.75-1.08-1.3-2.3-1.6-3.58l-0.3-0.15c0,0.33-0.17,0.59-0.15,0.92l-0.1,0.13
	c-0.22,0-0.36-0.19-0.55-0.3s-0.15-0.31,0-0.4c0.09-0.01,0.18,0.01,0.25,0.07c0.1-0.11,0.06-0.28,0.11-0.42s-0.19-0.48,0-0.7
	c0.2,0,0.34,0.22,0.43,0.35s0.35-0.1,0.52-0.18c0-0.17,0.25-0.41,0-0.52c0.11-0.4,0.11-0.83,0-1.23C20.94,20,20.55,20,20.27,20z
	 M39.79,20.36c-0.08,0-0.19,0-0.3,0c0.1-0.01,0.2,0.01,0.3,0.04V20.36z M39.15,21.36l0.32,0.32c0.32,0.22,0.1,0.69,0.45,0.88
	s0.55,0.68,0.73,1c0.04-0.1,0.07-0.2,0.09-0.3c0.15-0.58,0.13-1.22,0.3-1.79c-0.63,0.13-1.27,0.11-1.89-0.05V21.36z M46.28,21.5
	l-0.18-0.12l0.11,0.28c-0.14,3.37-1.29,6.63-3.31,9.34c-0.35,0.5-0.76,0.95-1.23,1.35c0.83,0.69,1.61,1.45,2.33,2.26l0.08-0.16
	c3.18-3.5,5.02-8.01,5.2-12.73l0.13-0.25l-0.16,0.07L46.28,21.5z M42.1,21.43c0.02,0.65-0.01,1.3-0.1,1.94l0.35,0.37
	c0.09,0.16,0.06,0.36-0.08,0.48c-0.14,0.11-0.34,0.11-0.48,0c-0.39,1.42-1,2.77-1.82,4c-0.35,0.43-0.68,1-1.13,1.27l1,0.83
	c0-0.05,0-0.13,0-0.21s0.06-0.27,0.22-0.25c0.46,0,0.47,0.48,0.73,0.73c0,0.4,0.29,0.71,0.18,1.08c2.54-2.71,4.02-6.23,4.18-9.94
	l0.15-0.17c-0.94,0.1-1.93,0-2.9,0L42.1,21.43z M17.77,21.43l0.16,0.25c0.13,0.67,0.18,1.36,0.14,2.05c0.12-0.2,0.15-0.47,0.4-0.6
	c0-0.19-0.25-0.24-0.22-0.43c0.2-0.38,0-1,0.52-1.17c-0.32,0.14-0.68,0.14-1-0.01L17.77,21.43z M12.77,21.43l-0.28,0.11h-2.9
	c0.15,3.2,1.03,6.33,2.56,9.15c0.83,1.36,1.75,2.67,2.77,3.9L17,32.55l0.25-0.1c-0.37-0.29-0.71-0.63-1-1
	c-0.37-0.09-0.69-0.34-0.88-0.67c-0.1-0.11,0-0.32-0.12-0.4l-0.13,0.15c-0.36,0.18-0.5-0.2-0.75-0.35s-0.17-0.8-0.6-0.68
	c-0.17,0-0.22-0.2-0.33-0.3c-0.4,0-0.51-0.41-0.73-0.63c0,0.1,0,0.22-0.12,0.28c-0.42,0.1-0.57-0.41-0.85-0.62
	c-0.07,0-0.12,0.11-0.23,0.09c-0.25-0.22-0.41-0.53-0.42-0.87c-0.35-0.39-0.19-1-0.13-1.48c0.06-0.12,0.24-0.19,0.21-0.35
	s0.32-0.24,0.54-0.25c0.09,0.04,0.16,0.11,0.21,0.2c0.14-0.09,0.44,0,0.32-0.29c0.2-0.14,0.43-0.23,0.68-0.25
	c0.14,0.22,0.3,0.44,0.47,0.64l-0.15-0.23c-0.27-1.04-0.43-2.1-0.5-3.17c0-0.06-0.13-0.09-0.05-0.15l0,0c0-0.19,0.02-0.38,0.05-0.56
	L12.77,21.43z M16.85,21.43l-0.23,0.11c-0.97,0.03-1.94,0.01-2.9-0.07l0.13,0.17l0.23,1.92c0.18,0.72,0.31,1.44,0.39,2.18
	c0.12-0.16,0.05-0.47,0.33-0.5c-0.12-0.23,0.22-0.43,0-0.63c0.01-0.52,0.22-1.01,0.59-1.37c0.53,0,0.58-0.72,1.11-0.75
	c0.27,0,0.44,0.35,0.55,0.48c-0.25-0.43-0.33-0.93-0.23-1.41L16.85,21.43z M22.21,22.72c0.29,0.54,0.45,1.15,0.75,1.7
	s0.61,0.85,0.79,1.32c0.26-0.36,0.56-0.69,0.88-1c0.02-0.14-0.01-0.29-0.09-0.41c-0.1-0.22,0-0.53-0.18-0.72
	c-0.27,0.1,0.09,0.37,0,0.52c-0.07,0.05-0.17,0.03-0.22-0.04c-0.02-0.02-0.03-0.05-0.03-0.08c-0.24-0.05-0.43-0.23-0.5-0.47
	c0.2-0.13,0-0.18-0.11-0.28s-0.11,0-0.2,0.05c-0.05,0.02-0.1,0.02-0.15,0c-0.05-0.5-0.72-0.15-0.97-0.46L22.21,22.72z M25.49,23.54
	c-0.08,0.26-0.23,0.49-0.43,0.68l0,0c0.25-0.18,0.43-0.5,0.75-0.52L25.49,23.54z M33.72,24.4c0,0.18,0.06,0.36,0.17,0.5
	c0.41-0.07,0.23,0.5,0.6,0.44c0.21-0.06,0-0.24,0.08-0.37c-0.06-0.31-0.37-0.34-0.58-0.53c0-0.07,0-0.12,0.06-0.17
	c-0.19,0.05-0.26,0.14-0.36,0.26L33.72,24.4z M39.63,24.4c-0.31,0-0.67,0.15-0.93-0.06c-0.1-0.08-0.16,0.05-0.15,0.13
	s-0.21,0.35-0.45,0.28s-0.18-0.28-0.25-0.43c0.02,0.11,0.02,0.22,0,0.33c-0.18,0.21-0.33,0.45-0.45,0.7
	c-0.22,0.24-0.57,0.15-0.8,0.35c0,0.5-0.6,0.4-0.91,0.55c0,0.07,0,0.08,0.09,0.13c0.16,0.06,0.33,0.02,0.44-0.11
	c0.44,0.12,0.35-0.43,0.6-0.62c0.22,0,0.43-0.22,0.65-0.08c0.22,0.31,0.31,0.69,0.25,1.06c-0.25,0.25-0.12,0.65-0.3,0.95
	c0,0.34-0.37,0.5-0.32,0.84c-0.16,0.14-0.36,0.2-0.57,0.18c-0.84-0.31-1.72-0.52-2.61-0.6c-0.08,0.03-0.14,0.11-0.13,0.2
	c0.38,0.2,0.84,0.21,1.23,0.38s0.6,0.53,1.05,0.39s1,0.13,1.25-0.27c0-0.38,0.29-0.66,0.46-1h0.12c0.21,0.22,0.2,0.54,0.29,0.78
	c0.28-0.32,0.54-0.65,0.79-1c0.71-0.97,1.22-2.06,1.52-3.22c-0.31,0.05-0.62,0.14-0.9,0.29L39.63,24.4z M26.49,24.4
	c-0.58,0.74-1.23,1.44-1.93,2.07c1.07,0.9,2.37,1.5,3.75,1.73c0.07-0.28,0-0.63,0.11-0.87s0.38-0.22,0.59-0.18
	c0.06-0.03,0.09-0.09,0.09-0.15c-0.3-0.06-0.16-0.4-0.27-0.59s0.19-0.08,0.15-0.21c-0.21-0.17,0.1-0.36-0.07-0.54
	c0.07-0.05,0.12-0.16,0.23-0.16c-0.66,0.34-1.37-0.08-1.95-0.34c-0.27-0.16-0.67-0.28-0.73-0.61L26.49,24.4z M32.49,26.22
	c0,0.08-0.14,0.23,0,0.28c0.25-0.26,0.79-0.25,0.81-0.62c-0.3,0.12-0.54,0.29-0.79,0.49L32.49,26.22z M33.67,27
	c-0.32,0-0.49,0.25-0.73,0.45s-0.43-0.31-0.67-0.2c0,0.06,0.06,0.08,0.1,0.1c0.07,0.09,0.07,0.21,0,0.3
	c-0.35,0.32-0.52-0.16-0.86-0.13v0.13c0,0.07,0,0.19-0.12,0.15c-0.21-0.35-0.64-0.22-0.85-0.53c-0.13-0.07-0.26,0-0.35,0.11
	s-0.41,0-0.32,0.25c-0.26,0.09-0.3,0.37-0.48,0.54c-0.33-0.05-0.47,0.31-0.77,0.3c0,0.07,0,0.17,0.09,0.18
	c0.19,0.08,0.4,0.11,0.6,0.07c0.32-0.5,0.84-0.08,1.28-0.27c0.27,0,0.08,0.35,0.28,0.45c0.43-0.13,0.75,0.37,1.09,0.05
	c0-0.49,0.53-0.45,0.84-0.57c0.47-0.28,1-0.66,1-1.28L33.67,27z M23.61,27.3c-0.62,0.77-1.31,1.48-2.07,2.12
	c0.32,0,0.5,0.38,0.77,0.53c1.57,1.19,3.39,2,5.33,2.38l-0.51-0.23c-0.37-0.43-0.9-0.93-0.92-1.52c0.37-0.13,0.33-0.54,0.46-0.82
	c0.29-0.31,0.67-0.52,1.09-0.61c-1.05,0.44-2-0.34-2.85-0.75c-0.42-0.18-1.01-0.4-1.28-0.95L23.61,27.3z M38.09,30.2L38,30.16
	c-0.11,0.23-0.27,0.43-0.47,0.59c0,0.17,0,0.42,0.15,0.53c0.42,0.14,1,0.41,1.05,0.9c-0.17,0.46-1,0.88-0.5,1.38
	c0.18,0.25-0.25,0.34-0.18,0.55l0.15-0.2c0.66-0.47,1.28-0.99,1.86-1.55h0.07c-0.13,0-0.28,0.08-0.43,0
	c-0.25-0.14-0.39-0.42-0.34-0.7L38.09,30.2z M21.33,30.6l-0.05-0.07l0.05,0.12V30.6z M21.66,31.05c-0.13-0.06-0.22-0.18-0.25-0.32
	L21.66,31.05z M21.73,31.13c0.07,0.25,0.4,0.41,0.31,0.72c-0.21,0.23-0.53,0.34-0.84,0.28c-0.59-0.09-1,0.36-1.59,0.42
	s-0.69-0.47-1.16-0.42c2.76,2.56,6.33,4.09,10.09,4.33l0.29,0.2l-0.12-0.36v-2.6l-0.25,0.11c-2.44-0.15-4.78-1.03-6.71-2.53
	L21.73,31.13z M41,33.23V33c-0.29,0.58-0.94,0.94-1.43,1.38c-0.68,0.68-1.78,0.82-2.12,1.8c-0.37,0.34-0.49,0.86-1,1.05
	c-0.18,0.5-0.71,0.46-1,0.83c-0.87,0.78-1.44-0.5-2.23-0.66l-1.59,0.28c-0.54,0.08-1.09,0.08-1.63,0c0.07,1.09,0.07,2.18,0,3.27
	l0.2-0.13c4.88-0.19,9.53-2.15,13.08-5.5L41,33.23z M17.85,33.23v0.13l-2.15,2.15c3.11,2.8,6.98,4.61,11.12,5.21
	c0.7,0.04,1.39,0.12,2.08,0.25l-0.16-0.25v-2.86l0.1-0.15l-0.32,0.08c-3.99-0.19-7.77-1.82-10.65-4.59L17.85,33.23z M29.76,33.96
	l0.16,0.23c0.05,0.86,0.05,1.72,0,2.58c0.82-0.18,1.66-0.3,2.5-0.36c-0.18-0.04-0.34-0.13-0.46-0.27c-0.49,0-0.72-0.54-0.87-0.93
	s0.11-0.51,0.23-0.75c-0.21-0.43-0.86-0.11-1.23-0.27C30,34.08,29.93,34,29.78,33.93L29.76,33.96z"/>
<path class="st0" d="M49,4c1.39,1.35,2.32,3.1,2.67,5l0.25,0.58c-2.24-1.63-4.16-3.66-5.65-6L44.5,1.75C46,2.4,47.66,2.78,49,4z"/>
<path class="st0" d="M10.19,6.67C9.11,7.81,7.95,8.88,6.71,9.85c0.62-1.29,0.64-2.83,1.53-4c1.26-2.2,3.6-3,5.68-3.79
	C12.51,3.45,11.26,5,10.19,6.67z"/>
<path class="st0" d="M54.38,9c0.49,2.19-0.22,4.33,0.23,6.54l0,0c-1.19-2.35-3.72-3.45-5.46-5.33c-0.94-1.11-1.53-2.47-1.7-3.91
	c1,2.41,3.69,2.94,5.23,5c0.41,0.5,0.75,1.05,1,1.65V12.9c-0.74-1.98-1.34-4-1.8-6.06c-0.33-0.93-0.94-1.73-1.75-2.3
	C52.25,5.15,53.87,6.86,54.38,9z"/>
<path class="st0" d="M8.29,4.88C6.23,6.3,6.36,8.84,5.71,11c-0.21,0.78-0.58,1.5-0.76,2.3l0.06,0.05c0.38-0.95,0.96-1.81,1.7-2.51
	c1.47-1.35,3.64-2.2,4.36-4.2c0,2.78-2.36,5-4.58,6.54c-0.94,0.76-1.73,1.69-2.31,2.75c0-0.7,0.11-1.41,0.06-2.16
	c-0.24-2.43-0.42-5.2,1.3-7C6.22,5.85,7.19,5.19,8.29,4.88z"/>
<path class="st0" d="M55.68,9.46c1.89,2.75,2.23,6.28,0.91,9.35c-0.5,1.24-0.86,2.54-1.05,3.86c-0.09-0.23-0.12-0.54-0.2-0.8
	c-0.73-2.81-3.39-4.81-4.48-7.46c-0.36-0.87-0.63-1.77-0.81-2.7c1.17,2.16,4.05,3.27,4.83,5.65c0.23,0.65,0.4,1.32,0.5,2
	c0,0,0.09,0,0.09-0.07c-0.31-2.47-0.28-4.97,0.09-7.43c0.08-1.26-0.22-2.52-0.88-3.6C55.15,8.53,55.36,9.05,55.68,9.46z"/>
<path class="st0" d="M3.88,8.68c-1.58,2.4-0.27,5.44-0.34,8.18l-0.21,2.81c0,0,0,0.1,0.1,0.07c0.08-0.33,0.14-0.66,0.18-1
	C4,16.51,6,14.9,7.67,13.34c0.37-0.39,0.66-0.85,0.87-1.34c-0.16,1.15-0.5,2.26-1,3.31C6.25,18,3.78,20.08,3.33,23.07
	c-0.22-2.86-2.17-5-2-8c0.01-2.32,0.86-4.57,2.4-6.31C3.73,8.76,3.83,8.67,3.88,8.68z"/>
<path class="st0" d="M57.42,25.69c-1.1,1.56-2.42,3-3.44,4.59c0.24-1.33,0.16-2.7-0.22-4c-0.93-2.58-1.54-5.27-1.83-8v-1.07
	c0.64,2.87,3.45,4.84,3.28,8.05c0,0.72-0.11,1.44-0.33,2.13l0.06,0.05l0.12-0.15c0.31-1.6,0.73-3.17,1.27-4.7
	c0.93-2.12,2.08-4.26,1.61-6.81C59.27,18.99,59.07,22.63,57.42,25.69z"/>
<path class="st0" d="M3.08,24.69c0.2,1.08,0.46,2.14,0.8,3.18c0,0,0.07,0,0.1-0.05c-1.07-3,0.47-5.79,2-8.13
	c0.35-0.66,0.61-1.35,0.78-2.08c0.06,1.45-0.07,2.91-0.38,4.33C6,23.73,5.48,25.43,5,27.17c-0.27,1.13-0.3,2.31-0.08,3.46L4.77,30.5
	c-1.14-2.1-3.39-3.73-4.06-6c-0.65-1.91-0.83-3.94-0.54-5.93c0.13-0.79,0.34-1.56,0.63-2.3C0.17,19.52,2.36,21.87,3.08,24.69z"/>
<path class="st0" d="M53.11,30.63c-0.07,1.35-0.51,2.66-1.27,3.78H52c1-1.31,1.79-2.71,2.95-4c1.82-1.75,3.66-3.55,3.9-6
	c0.62,4.06-1.65,7.62-5,9.91c-1.39,0.91-2.8,1.75-4.13,2.78V37c2-3.4,1-8.06,2.3-11.8l0.41-1.2C52.17,26.32,53.18,28.29,53.11,30.63
	z"/>
<path class="st0" d="M8.33,35.23c0.22,0.78,0.67,1.46,1,2.21C6.18,35.32,2,33.31,0.58,29.43c-0.54-1.45-0.72-3-0.53-4.53
	C0.3,28.35,4,30.18,5.74,33c0.35,0.63,0.77,1.23,1.26,1.76c-0.08-0.37-0.43-0.68-0.55-1.06c-0.61-1.27-0.85-2.68-0.68-4.08
	c0.17-1.76,0.91-3.39,0.63-5.25C8,27.63,7.49,31.7,8.33,35.23z"/>
<path class="st0" d="M48.48,37.81c-0.56,0.96-1.28,1.83-2.13,2.56c0.27,0,0.51-0.26,0.75-0.41c2.24-2.23,5.16-2.86,7.58-4.67
	c1.01-0.75,1.8-1.74,2.32-2.88c-0.46,3.7-4.14,7.17-7.61,8.28c-1.8,0.48-3.72,0.63-5.46,1.23c3-2.54,2.79-6.46,4.76-9.44
	c0.57-0.86,1.18-1.69,1.84-2.48C49.33,32.36,49.86,35.47,48.48,37.81z"/>
<path class="st0" d="M11.24,34.68c1,2.57,1.44,5.47,3.85,7.41c-2.61-0.86-5.66-0.62-8-2.23c-2.51-1.54-4.75-4.16-5.22-7
	c1.73,3.92,6.07,4.24,9,6.63c0.51,0.46,1.08,0.86,1.7,1.16l0,0c-0.73-0.6-1.38-1.29-1.91-2.07c-1.7-2.37-1.1-5.68-2.38-8.23
	C9.46,31.65,10.46,33.11,11.24,34.68z"/>
<path class="st0" d="M42.17,42.32c-0.68,0.31-1.38,0.58-2.1,0.8c0.92-0.08,1.83-0.21,2.73-0.41c3.44-0.54,7.38,0,9.79-2.92
	c-1.09,2.1-2.94,3.7-5.18,4.48c-3.52,1.32-7-0.31-10.42-0.85l-0.65-0.08l0,0c1.63-0.27,3.17-0.96,4.45-2
	c1.75-1.86,3.64-3.57,5.67-5.11C44.9,38.2,44.74,41,42.17,42.32z"/>
<path class="st0" d="M18.05,41.37c1.34,1.08,2.93,1.79,4.63,2.05c-0.41,0.15-0.94,0.1-1.38,0.22c-3,0.75-6.41,2-9.63,0.88
	c-2.26-0.74-4.16-2.3-5.31-4.38c2.78,3.16,7.31,2.1,11,2.93c0.51,0.14,1.03,0.21,1.56,0.19c-0.44-0.28-1.06-0.25-1.54-0.5
	c-2.89-1-3.32-4.16-4.9-6.27C14.47,37.95,16.34,39.59,18.05,41.37z"/>
<path class="st0" d="M40.7,45.64c2.36,0.87,4.99,0.59,7.1-0.77c-0.98,1.21-2.28,2.12-3.75,2.63c-3.13,1.17-6.39,0-8.83-1.91
	c-1-0.63-1.87-1.53-3.15-1.45c-0.44-0.02-0.88,0.02-1.31,0.13c2.44,1.14,4.67,2.69,6.6,4.57c-0.37,0.4-0.77,0.76-1.2,1.09
	c-1.83-2.14-4.03-3.93-6.5-5.29c-0.48,0.11-0.94,0.3-1.35,0.57C26.27,46.48,24.47,48.1,23,50l-1.3-1c1.91-1.96,4.15-3.56,6.63-4.73
	C26,43.49,24.4,45.48,22.6,46.5c-3.56,2.58-8.52,1.98-11.36-1.38c2.19,1.34,4.87,1.57,7.26,0.63c3.06-1.33,6.23-3,9.91-2.2
	c0.57,0,1.13,0.58,1.68,0.09c2.76-0.67,5.66-0.31,8.18,1L40.7,45.64z"/>
</svg>
