<?xml version="1.0" encoding="utf-8"?>
<!-- Generator: Adobe Illustrator 24.1.2, SVG Export Plug-In . SVG Version: 6.00 Build 0)  -->
<svg version="1.1" id="Layer_1" xmlns="http://www.w3.org/2000/svg" xmlns:xlink="http://www.w3.org/1999/xlink" x="0px" y="0px"
	 viewBox="0 0 51.88 50" style="enable-background:new 0 0 51.88 50;" xml:space="preserve">
<style type="text/css">
	.st0{fill:#828282;}
</style>
<path class="st0" d="M4,45.51v2.87c0.01,0.3-0.07,0.6-0.21,0.86c-0.14,0.24-0.35,0.44-0.61,0.56c-0.31,0.15-0.66,0.22-1,0.2
	C1.75,50,1.33,49.84,1,49.56c-0.31-0.32-0.48-0.75-0.46-1.19v-2.86h0.73v2.8c-0.02,0.29,0.07,0.58,0.25,0.81
	c0.21,0.19,0.49,0.29,0.78,0.26c0.69,0,1-0.36,1-1.07v-2.8H4z"/>
<path class="st0" d="M8.82,49.94H7.93l-2.17-3.53l0,0v0.2c0,0.37,0,0.72,0,1v2.3H5.13v-4.4H6L8.18,49l0,0c0,0,0-0.21,0-0.5
	s0-0.52,0-0.69v-2.3h0.66L8.82,49.94z"/>
<path class="st0" d="M10,49.94v-4.43h0.72v4.43H10z"/>
<path class="st0" d="M13.41,49.94h-0.72v-3.81h-1.3v-0.62h3.32v0.62h-1.3L13.41,49.94z"/>
<path class="st0" d="M17.89,49.94h-2.5v-4.43h2.5v0.62h-1.78v1.2h1.67v0.61h-1.67v1.38h1.78L17.89,49.94z"/>
<path class="st0" d="M22.45,47.68c0.04,0.62-0.18,1.23-0.61,1.68c-0.48,0.42-1.11,0.63-1.75,0.58h-1.24v-4.43h1.37
	c0.6-0.04,1.19,0.17,1.64,0.57C22.27,46.51,22.48,47.09,22.45,47.68z M21.69,47.68c0-1.06-0.5-1.59-1.49-1.59h-0.63v3.21h0.52
	c0.78,0.1,1.5-0.45,1.6-1.24c0.01-0.12,0.02-0.23,0-0.35V47.68z"/>
<path class="st0" d="M28.7,49.94h-0.89l-2.18-3.53l0,0v0.2c0,0.37,0,0.72,0,1v2.3H25v-4.4h0.88L28.06,49l0,0c0,0,0-0.21,0-0.5
	s0-0.52,0-0.69v-2.3h0.67L28.7,49.94z"/>
<path class="st0" d="M32.61,49.94l-0.44-1.23h-1.69l-0.43,1.23h-0.77l1.66-4.44h0.79l1.65,4.44H32.61z M32,48.09l-0.42-1.21
	c0-0.08-0.07-0.21-0.12-0.38s-0.09-0.3-0.11-0.38c-0.06,0.25-0.14,0.52-0.24,0.81l-0.4,1.16H32z"/>
<path class="st0" d="M35.49,49.94h-0.72v-3.81h-1.3v-0.62h3.33v0.62h-1.31V49.94z"/>
<path class="st0" d="M37.48,49.94v-4.43h0.72v4.43H37.48z"/>
<path class="st0" d="M43.3,47.72c0.04,0.61-0.15,1.21-0.54,1.68c-0.4,0.41-0.96,0.63-1.53,0.6c-0.57,0.03-1.14-0.18-1.54-0.59
	c-0.39-0.48-0.58-1.09-0.54-1.7c-0.05-0.62,0.14-1.23,0.54-1.71c0.4-0.41,0.97-0.62,1.54-0.59c0.57-0.03,1.13,0.19,1.53,0.6
	C43.15,46.49,43.35,47.1,43.3,47.72z M39.92,47.72c-0.04,0.45,0.08,0.9,0.33,1.28c0.49,0.55,1.34,0.6,1.89,0.11
	c0.04-0.03,0.07-0.07,0.11-0.11c0.44-0.76,0.44-1.71,0-2.47c-0.24-0.3-0.62-0.46-1-0.43c-0.38-0.03-0.76,0.13-1,0.43
	C40.02,46.88,39.9,47.3,39.92,47.72z"/>
<path class="st0" d="M47.93,49.94h-0.88l-2.18-3.53l0,0v0.2c0,0.37,0,0.72,0,1v2.3h-0.65v-4.4h0.87l2.2,3.49l0,0c0,0,0-0.21,0-0.5
	s0-0.52,0-0.69v-2.3h0.66L47.93,49.94z"/>
<path class="st0" d="M51.65,48.74c0.02,0.36-0.14,0.7-0.42,0.92c-0.34,0.25-0.76,0.37-1.18,0.34c-0.42,0.01-0.84-0.06-1.23-0.23
	v-0.69c0.21,0.1,0.42,0.17,0.64,0.23c0.21,0.05,0.42,0.08,0.64,0.08c0.22,0.02,0.44-0.04,0.63-0.17c0.14-0.1,0.22-0.26,0.21-0.43
	c0-0.16-0.07-0.31-0.19-0.42C50.52,48.21,50.27,48.08,50,48c-0.33-0.11-0.62-0.31-0.85-0.56c-0.17-0.22-0.26-0.49-0.25-0.76
	c-0.02-0.34,0.13-0.66,0.39-0.87c0.31-0.22,0.68-0.34,1.06-0.32c0.44,0,0.87,0.09,1.27,0.28l-0.23,0.59
	c-0.33-0.15-0.69-0.24-1.06-0.25c-0.19-0.01-0.38,0.04-0.53,0.15c-0.12,0.1-0.18,0.25-0.18,0.41c0,0.1,0.02,0.2,0.07,0.29
	c0.06,0.09,0.14,0.17,0.24,0.23c0.19,0.12,0.39,0.21,0.6,0.29c0.25,0.1,0.49,0.23,0.71,0.38c0.15,0.1,0.26,0.24,0.34,0.4
	C51.64,48.41,51.66,48.58,51.65,48.74z"/>
<path class="st0" d="M42.47,10.49c1.97,4.01,2.4,8.6,1.21,12.91c-2.76,9.86-12.99,15.62-22.85,12.86c-1.88-0.53-3.67-1.35-5.29-2.43
	C7.08,28.08,4.89,16.56,10.64,8.1c1.76-2.59,4.14-4.69,6.93-6.1c2.6-1.28,5.45-1.96,8.35-2C32.99,0.04,39.42,4.11,42.47,10.49z
	 M26.29,0.9c0.08,0.84,0.08,1.69,0,2.53c0-0.08,0.03-0.16,0.08-0.22c0.13-0.07,0.24,0,0.29,0.13s0.07,0.35,0,0.42
	c0.11,0,0.16-0.06,0.26-0.06c2.04,0.15,4.02,0.75,5.8,1.76l0,0c0.35-0.18,0.81-0.41,1.18-0.09c0.44-0.17,0.52,0.37,0.88,0.44
	c0.5,0.25,0.86,0.7,1,1.24c0.08,0.16,0.34,0.28,0.37,0.45c0.38-0.6,0.85-1.14,1.39-1.6l0.31-0.13c-2.67-2.54-6.08-4.16-9.74-4.61
	C27.5,1.11,26.89,1.02,26.29,0.9z M25.29,0.99c-3.57,0.16-7.01,1.37-9.88,3.5c-0.56,0.39-1.06,1-1.62,1.3h0.08
	c0.72,0.61,1.39,1.28,2,2V7.66c2.56-2.42,5.91-3.84,9.43-3.99l-0.09-0.22v-2.2L25.29,0.99z M28.44,2.38L27.09,3
	c-0.11-0.05-0.32-0.1-0.4,0s0,0.11,0,0.16c0.49,0.62,1.33,0.27,1.94,0.16c0.43,0.14,0.9,0.01,1.21-0.32V2.93
	c-0.37-0.39-0.9-0.59-1.43-0.55H28.44z M26.27,4.65l0.09,0.17c0,0.85,0,1.76,0,2.56c0.35-0.06,0.7-0.06,1.05,0
	c1.79,0.24,3.49,0.93,4.94,2c-0.2-0.17-0.35-0.4-0.42-0.66c0,0,0.06,0,0.11,0c0-0.28-0.28-0.43-0.33-0.68
	c0.04-0.07,0.12-0.1,0.2-0.09c0.3,0.31,0.57,0.64,0.81,1C32.9,8.9,33.1,8.96,33.23,9.1c0.27,0.16,0.1,0.5,0.31,0.68
	c0,0.55,0.69,0.85,0.66,1.39c0,0.13,0.16,0,0.22,0.09l0.55,0.68c-0.08,0.13-0.04,0.3,0.09,0.38c0.25,0.11,0.39-0.2,0.63-0.16
	c0.36,0.2,0,0.44,0,0.66c0.13,0,0.31-0.11,0.42,0s-0.17,0.33-0.25,0.46s0.17,0.16,0.31,0.2c0.14,0.01,0.24,0.13,0.23,0.27
	c0,0.02-0.01,0.04-0.01,0.06c0.46,0.48-0.14,1,0.09,1.5c0.1,0.32,0,0.67-0.24,0.9c0,0.4-0.36,0.65-0.51,1l-0.47,0.09
	c-0.24,0.25,0.21,0.55,0,0.71h1l-0.11-0.11c-0.15-0.44-0.1-0.92,0.14-1.31c0.1-0.36,0.27-0.7,0.49-1c0.06,0,0.18-0.13,0.24,0
	c0.03,0.33-0.02,0.65-0.16,0.95c0.24,0.46,0.34,0.98,0.29,1.5c0.91-0.06,1.8-0.08,2.69-0.07l-0.09-0.17c-0.1-1.67-0.53-3.3-1.25-4.8
	c-0.19,0-0.33,0.17-0.55,0.11c-0.07-0.03-0.12-0.1-0.11-0.18c-0.31-0.39-0.65-0.77-1-1.12c-0.47,0-0.68-0.5-1.1-0.55
	s-0.12-0.77-0.66-0.6c-0.29-0.09-0.5-0.32-0.58-0.61c0.06-0.49-0.13-0.98-0.5-1.31c-0.33-0.12-0.46,0.32-0.79,0.25
	S33.1,8.66,33.05,8.5s-0.22-0.24-0.19-0.42c0.43-0.57-0.53-0.56-0.32-1.12c0-0.4-0.46-0.56-0.67-0.88c-1.42-0.66-2.94-1.09-4.5-1.28
	C27,4.82,26.62,4.77,26.27,4.65z M34.58,4.65c-0.19,0.19-0.36-0.16-0.53,0c-0.01,0.09,0.01,0.19,0.06,0.27
	c0.39,0.13,0.43,0.69,0.93,0.57c0.15-0.17-0.09-0.34,0-0.56C34.94,4.77,34.77,4.67,34.58,4.65L34.58,4.65z M18.1,7.13
	c-0.57,0.4-1.09,0.91-1.68,1.26c0.67,0.52,1.29,1.09,1.85,1.72l0.07,0.17c1.53-1.44,3.44-2.41,5.51-2.79
	c0.48-0.11,0.96-0.14,1.45-0.11c-0.06-0.88-0.06-1.76,0-2.64C22.73,4.86,20.24,5.69,18.1,7.13z M38.5,6.3
	c-0.56,0.71-1.17,1.38-1.83,2l-0.31,0.07c0.19,0,0.25,0.27,0.38,0.41c0.67,0.36,0.84,1.08,1.43,1.48c0.33,0.69,1.09,1.22,1.12,2
	c0.85,1.79,1.32,3.72,1.4,5.7l-0.08,0.11c0.08,0,0.16-0.03,0.22-0.08l2.65-0.05c-0.18-0.25-0.1-0.63-0.15-0.94
	C42.95,13,41.25,9.23,38.5,6.3z M13.25,6.36c-2.57,2.76-4.22,6.26-4.7,10c-0.1,0.55,0,1.12-0.15,1.68c0.95-0.07,1.89-0.07,2.84,0
	l-0.06-0.36c0.15-2.83,1.1-5.56,2.75-7.87c0.35-0.52,0.76-0.99,1.23-1.4c-0.6-0.56-1.22-1.21-1.85-1.83L13.25,6.36z M25.32,8.28
	l-0.15,0.09C22.89,8.57,20.73,9.49,19,11c0.7,0.57,1.37,1.18,2,1.83c0.05-0.06,0.09-0.13,0.14-0.2c0.83-0.66,1.78-1.15,2.8-1.45
	c0.45-0.14,0.91-0.2,1.38-0.18C25.22,10.1,25.22,9.18,25.32,8.28z M26.32,8.28l0.09,0.2v2.49l0.24-0.05
	c1.51,0.16,2.93,0.75,4.12,1.69l0.07,0.19c0.41-0.58,1-1.08,1.52-1.63l0.46-0.26l-0.22-0.1c-0.98-0.83-2.1-1.47-3.31-1.91
	c-0.98-0.29-1.98-0.49-3-0.6L26.32,8.28z M15.76,9v0.17l-1,1.26c-1.57,2.23-2.48,4.85-2.64,7.57h2.52l0.24,0.09
	c-0.11-0.07-0.08-0.18-0.11-0.27c0.15-2.57,1.18-5,2.92-6.89C17,10.33,16.36,9.69,15.76,9z M33.32,11.55v0.11
	c-0.85,0.88-1.78,1.79-2.58,2.69c0.05,0.11,0.14,0.21,0.24,0.27c0-0.22,0.16-0.41,0.18-0.64c0.22-0.31,0.55-0.11,0.83-0.05
	c0.44-0.01,0.88,0.02,1.31,0.09c0.33,0.17,0.36,0.59,0.66,0.75c0.07,0.12,0.03,0.28-0.09,0.35c0.09,0.69,0.42-0.18,0.77,0
	c0.15,0.06,0.33,0,0.44,0.2s0.4,0.23,0.42,0.5c0.02,0.27-0.17,0.18-0.26,0.25c0.08,0.28-0.29,0.45-0.16,0.74
	c0.53,0.11,0.55-0.51,0.8-0.79c-0.1-0.48-0.28-0.95-0.52-1.38c-0.3-0.07-0.48-0.42-0.79-0.49c-0.58-0.23,0.1-0.6,0-0.94
	c-0.36-0.6-0.78-1.15-1.25-1.67V11.55z M18.38,11.64c-1.26,1.45-2.11,3.21-2.47,5.09c-0.03,0.46-0.11,0.92-0.22,1.37
	c0.37-0.13,0.76-0.16,1.15-0.1c-0.21-0.11,0-0.37-0.16-0.52s-0.06-0.52,0.16-0.66c0-0.38,0.38-0.57,0.41-0.91s0.55-0.13,0.76-0.33
	s0-0.2,0-0.3c0.18-0.25,0.46-0.24,0.68-0.38c0.15-0.26,0.37-0.48,0.62-0.64c0.55,0,0.56-0.76,1.08-0.78
	c-0.71-0.58-1.38-1.19-2.01-1.85L18.38,11.64z M26.32,11.95c0.07,0.63,0.11,1.27,0.12,1.9l0.67,0.22c0.19-0.32,0.61-0.39,0.79-0.69
	c0.12-0.1,0.26,0,0.35,0.11c0.02,0.25-0.02,0.5-0.11,0.73c-0.24,0.5-0.83,0.56-1.16,0.92c0.21,0.12,0.33-0.1,0.5-0.15
	c0.25,0.06,0.47,0.21,0.62,0.42c0.16,0.07,0.32,0,0.47-0.08c0.1-0.77,1.05-0.66,1.34-1.37l-0.18,0.06c-0.07-0.1-0.26,0-0.25-0.22
	c0.15-0.18,0.34-0.33,0.55-0.44c-0.8-0.53-1.68-0.93-2.61-1.19c-0.37-0.1-0.75-0.11-1.1-0.23L26.32,11.95z M21.38,13.87h0.2
	c0.22,0.22,0.58,0.17,0.74,0.46s-0.15,0.15-0.14,0.29s0.11,0,0.14,0.11s0.14-0.1,0.2-0.18c0.23-0.23,0.27,0.22,0.49,0.22
	c0.15-0.12,0.36-0.09,0.48,0.05c0,0.01,0.01,0.01,0.01,0.02c0.14-0.13,0.46,0,0.5-0.25c0.29-0.3,0.13-0.77,0.55-1
	c0.15,0.08,0,0.22,0.05,0.35c0.28,0.11,0.61-0.24,0.83,0c-0.16-0.65-0.2-1.33-0.13-2c-1.5,0.15-2.89,0.83-3.92,1.92L21.38,13.87z
	 M25.83,15.39c-0.15-0.17-0.47-0.06-0.66,0c0.18,0.18,0.11,0.51,0.22,0.74c-0.28,0.38-0.7,0.62-1.17,0.69
	c-0.12,0.15-0.09,0.47-0.37,0.44c-0.1,0.2-0.41,0.32-0.29,0.62c-0.08,0.34-0.13,0.7-0.15,1.05c-0.55,0.34-0.39-0.45-0.67-0.61
	l-0.09,0.15c-0.11,0-0.18,0-0.25-0.11s-0.22-0.05-0.3,0s-0.3,0.37-0.26,0.65s-0.33,0.11-0.29,0.28c0.31-0.01,0.62-0.06,0.93-0.13
	c0.21,0.06,0.38-0.1,0.6-0.11c0.09,0.04,0.14,0.13,0.12,0.22h0.08c0.14-0.1,0.2-0.28,0.14-0.44c0-0.19,0.23-0.19,0.36-0.25
	s0,0.18,0.07,0.27c0.41,0.16-0.1,0.46-0.16,0.68s0,0.57-0.35,0.51c-0.06-0.02-0.1-0.08-0.09-0.15H23.2c0,0.17,0.1,0.33,0.25,0.41
	c0.26-0.21,0.27-0.57,0.64-0.62c0.19-0.2-0.09-0.51,0.2-0.67c0.47,0,1-0.22,1.37,0.17c0,0.17-0.1,0.24,0,0.38
	c-0.07,0.22-0.18,0.43-0.33,0.61c0.05,0.12,0.01,0.26-0.09,0.35c-0.13,0.56-0.77,0.29-1.15,0.49c0.58,0.42,1.29,0.61,2,0.55
	c0.4,0,0.22-0.51,0.42-0.73c0.13-0.64,0.72-0.2,1.08-0.37c0.15-0.27,0.25-0.56,0.31-0.86c-0.23-0.15-0.33-0.43-0.25-0.69
	c-0.16-0.21-0.14-0.59-0.48-0.63c-0.05-0.06-0.05-0.16,0-0.22c0-0.2,0.19-0.27,0.25-0.42c-0.21-0.14-0.16-0.44-0.14-0.62
	c-0.36,0.1-0.39-0.37-0.66-0.47c-0.06-0.21-0.29-0.24-0.48-0.28c-0.44,0.21-0.51-0.33-0.84-0.46c0-0.1-0.11-0.25,0-0.33
	s0.38,0,0.58,0L25.83,15.39z M17.83,17.66c-0.74,0.24,0.12,0.8-0.06,1.26c-0.1,0.26-0.38,0-0.57,0.12l-0.08,0.49
	c-0.11,0.29-0.46,0.07-0.63,0.27s0,0.37,0.11,0.52c-0.26,0.59,0.58,0.77,0.57,1.3c0.26,0.33,0,0.81,0.33,1.11
	c0.08,0.59-0.08,1.4,0.44,1.87l0.09,0.57c0.11,0.39-0.47,0.29-0.39,0.64c0.11-0.05,0.14,0.09,0.14,0.13l0,0
	c0.73-0.85,1.52-1.66,2.36-2.4l-0.34-0.35c-0.67-0.96-1.14-2.05-1.4-3.19l-0.26-0.14c-0.06,0.27-0.1,0.54-0.13,0.82l-0.1,0.11
	c-0.19,0-0.31-0.17-0.47-0.27s-0.14-0.27,0-0.35c0.08-0.01,0.16,0.02,0.22,0.07c0.08-0.11,0-0.25,0.09-0.38s-0.17-0.42,0-0.62
	c0.17,0,0.3,0.2,0.38,0.32s0.31-0.1,0.46-0.16s0.22-0.37,0-0.46c0.09-0.35,0.09-0.73,0-1.08c-0.15-0.3-0.49-0.24-0.74-0.21
	L17.83,17.66z M35,18c-0.07,0-0.18,0-0.27,0C34.82,17.98,34.91,17.98,35,18z M34.43,18.9l0.28,0.28c0.29,0.2,0.1,0.61,0.4,0.78
	s0.49,0.59,0.64,0.9c0.04-0.08,0.07-0.17,0.08-0.26c0.13-0.51,0.11-1.08,0.27-1.57c-0.55,0.06-1.1,0-1.63-0.17L34.43,18.9z
	 M40.71,19.03l-0.16-0.11l0.1,0.25c-0.14,2.95-1.15,5.78-2.91,8.15c-0.31,0.44-0.68,0.84-1.09,1.18c0.73,0.62,1.42,1.28,2.05,2
	l0.07-0.13c2.8-3.08,4.42-7.05,4.58-11.21l0.11-0.22L43.33,19L40.71,19.03z M37.03,18.96c0,0.56-0.04,1.11-0.13,1.66l0.3,0.33
	c0.09,0.14,0.06,0.32-0.06,0.42c-0.13,0.09-0.29,0.09-0.42,0c-0.35,1.25-0.89,2.43-1.61,3.51c-0.3,0.38-0.6,0.92-1,1.12l0.83,0.73
	c0,0,0-0.12,0-0.18s0.06-0.24,0.19-0.22c0.41,0,0.42,0.42,0.65,0.64c0,0.35,0.25,0.63,0.15,1c2.24-2.38,3.54-5.49,3.68-8.75
	l0.13-0.15c-0.82,0.08-1.7,0-2.55,0L37.03,18.96z M15.65,19l0.13,0.22c0.12,0.59,0.16,1.2,0.13,1.8c0.1-0.17,0.13-0.41,0.35-0.52
	c0-0.17-0.22-0.21-0.19-0.38c0.17-0.34,0-0.89,0.46-1C16.23,19.22,15.91,19.18,15.65,19z M11.22,19l-0.25,0.09H8.42
	c0.13,2.82,0.9,5.58,2.25,8.06c0.73,1.2,1.55,2.35,2.44,3.44l1.83-1.89l0.22-0.1c-0.32-0.26-0.6-0.55-0.85-0.88
	c-0.33-0.08-0.61-0.29-0.77-0.59c-0.1-0.1,0-0.28-0.11-0.35l-0.12,0.13c-0.32,0.16-0.44-0.17-0.66-0.31s-0.14-0.7-0.53-0.59
	c-0.15,0-0.19-0.18-0.28-0.27c-0.36,0-0.45-0.36-0.65-0.55c0,0.08,0,0.19-0.11,0.25c-0.36,0.08-0.49-0.37-0.74-0.56
	c-0.06,0-0.11,0.11-0.2,0.09c-0.23-0.19-0.37-0.47-0.38-0.77c-0.3-0.34-0.16-0.89-0.11-1.3c0.06-0.11,0.21-0.17,0.19-0.31
	s0.28-0.21,0.47-0.22c0.08,0.04,0.14,0.1,0.19,0.17c0.12-0.07,0.38,0,0.28-0.25c0.18-0.13,0.38-0.2,0.6-0.22
	c0.12,0.2,0.26,0.39,0.41,0.57l-0.13-0.21c-0.24-0.91-0.38-1.85-0.44-2.79c0-0.05-0.12-0.08,0-0.14l0,0
	C11.2,19.33,11.2,19.17,11.22,19z M14.81,19l-0.2,0.09c-0.85,0.02-1.7-0.01-2.55-0.09l0.11,0.15l0.2,1.69
	c0.16,0.63,0.28,1.27,0.35,1.92c0.1-0.14,0-0.41,0.28-0.44c-0.1-0.2,0.2-0.38,0-0.55c0.02-0.45,0.2-0.88,0.52-1.21
	c0.47,0,0.51-0.64,1-0.66c0.24,0,0.38,0.31,0.48,0.42C14.77,19.92,14.7,19.45,14.81,19z M19.53,20.13c0.26,0.47,0.4,1,0.66,1.49
	s0.53,0.76,0.7,1.17c0.23-0.33,0.48-0.63,0.77-0.9c0.02-0.13-0.01-0.25-0.08-0.36c-0.08-0.19,0-0.47-0.16-0.63
	c-0.24,0.08,0.08,0.32,0,0.46c-0.07,0.04-0.16,0.01-0.2-0.06c-0.01-0.02-0.01-0.03-0.02-0.05c-0.21-0.05-0.38-0.21-0.44-0.42
	c0.18-0.11,0-0.15-0.09-0.24s-0.1,0-0.17,0c-0.05,0.02-0.09,0.02-0.14,0C20.34,20.08,19.75,20.39,19.53,20.13L19.53,20.13z
	 M22.41,20.85c-0.07,0.23-0.2,0.44-0.37,0.6l0,0c0.22-0.16,0.37-0.44,0.66-0.46L22.41,20.85z M29.67,21.61
	c0,0.16,0.05,0.31,0.14,0.44c0.36-0.06,0.21,0.44,0.54,0.39c0.18-0.05,0-0.21,0.06-0.33c-0.05-0.27-0.32-0.3-0.5-0.47
	c-0.02-0.04-0.02-0.1,0-0.14C29.81,21.41,29.75,21.49,29.67,21.61L29.67,21.61z M34.86,21.61c-0.26,0-0.58,0.14-0.81,0
	s-0.14,0-0.13,0.11s-0.18,0.31-0.4,0.25s-0.16-0.25-0.22-0.38c0.02,0.09,0.02,0.19,0,0.28c-0.16,0.19-0.29,0.4-0.4,0.62
	c-0.19,0.21-0.5,0.14-0.7,0.31c0,0.44-0.53,0.35-0.8,0.49c0,0.05,0,0.06,0.07,0.11c0.14,0.06,0.3,0.02,0.4-0.09
	c0.38,0.1,0.3-0.39,0.52-0.55s0.38-0.2,0.58-0.07c0.19,0.27,0.27,0.6,0.22,0.93c-0.22,0.22-0.11,0.58-0.27,0.83
	c0,0.31-0.33,0.44-0.28,0.75c-0.14,0.12-0.33,0.18-0.51,0.15c-0.74-0.28-1.51-0.45-2.29-0.52c-0.08,0.02-0.12,0.1-0.11,0.18
	c0.33,0.17,0.73,0.18,1.08,0.33s0.52,0.46,0.92,0.34c0.4-0.12,0.88,0.11,1.1-0.23c0-0.34,0.26-0.59,0.4-0.89h0.11
	c0.19,0.19,0.18,0.47,0.26,0.69c0.26-0.28,0.46-0.58,0.69-0.87c0.63-0.85,1.08-1.81,1.34-2.83C35.37,21.53,35.11,21.55,34.86,21.61z
	 M23.3,21.61c-0.51,0.66-1.08,1.27-1.7,1.83c0.94,0.8,2.08,1.34,3.3,1.56c0.07-0.25,0-0.56,0.09-0.78s0.34-0.19,0.53-0.15
	c0.09-0.02,0.15-0.1,0.13-0.18c0-0.02-0.01-0.04-0.02-0.06c-0.27-0.06-0.15-0.35-0.24-0.52s0.16-0.07,0.13-0.19
	c-0.19-0.14,0.09-0.31-0.07-0.47c0.07,0,0.11-0.14,0.21-0.14c-0.58,0.3-1.21-0.07-1.72-0.3C23.7,22.05,23.35,21.91,23.3,21.61z
	 M28.63,23.22c0,0.07-0.13,0.2,0,0.25c0.22-0.23,0.69-0.22,0.71-0.55C29,22.87,28.85,23.05,28.63,23.22z M29.63,23.91
	c-0.29,0-0.43,0.22-0.65,0.39s-0.38-0.27-0.59-0.17c0,0.05,0.05,0.06,0.09,0.08c0.06,0.08,0.06,0.19,0,0.27
	c-0.31,0.28-0.46-0.14-0.75-0.11v0.11c0,0.06,0,0.16-0.11,0.13c-0.19-0.31-0.56-0.2-0.75-0.46c-0.12-0.07-0.23,0-0.31,0.09
	s-0.36,0-0.28,0.22c-0.23,0.08-0.26,0.33-0.43,0.48c-0.28-0.05-0.41,0.27-0.68,0.26c0,0.06,0,0.15,0.09,0.16
	c0.17,0.07,0.35,0.09,0.53,0.06c0.28-0.44,0.73-0.07,1.12-0.23c0.24,0,0.07,0.3,0.25,0.39c0.37-0.12,0.66,0.32,1,0.05
	c0-0.44,0.47-0.4,0.74-0.51s0.88-0.58,0.83-1.13L29.63,23.91z M20.77,24.17C20.24,24.83,19.65,25.45,19,26
	c0.28,0,0.44,0.33,0.68,0.47c1.38,1.05,2.99,1.76,4.69,2.09l-0.44-0.2c-0.33-0.38-0.8-0.82-0.82-1.34c0.33-0.11,0.3-0.48,0.41-0.73
	c0.27-0.28,0.62-0.46,1-0.53c-0.93,0.39-1.73-0.3-2.51-0.66c-0.46-0.22-0.87-0.54-1.2-0.93H20.77z M33.52,26.73l-0.06-0.18
	c-0.1,0.2-0.24,0.38-0.42,0.53c0,0.14,0,0.36,0.13,0.47c0.37,0.11,0.85,0.35,0.93,0.78c-0.15,0.41-0.92,0.78-0.44,1.22
	c0.15,0.22-0.22,0.3-0.16,0.48l0.13-0.17c0.58-0.41,1.13-0.87,1.64-1.37h0.06c-0.11,0-0.25,0.07-0.38,0
	c-0.22-0.12-0.34-0.37-0.3-0.62L33.52,26.73z M18.76,27.08v-0.07v0.11V27.08z M19.05,27.47c-0.11-0.05-0.2-0.16-0.22-0.28
	L19.05,27.47z M19.11,27.55c0.06,0.22,0.35,0.35,0.27,0.63c-0.18,0.21-0.46,0.3-0.73,0.25c-0.53-0.09-0.91,0.31-1.41,0.36
	s-0.6-0.41-1-0.36c2.44,2.25,5.58,3.6,8.89,3.81l0.26,0.17l-0.11-0.31v-2.42l-0.22,0.09c-2.15-0.13-4.21-0.9-5.91-2.22H19.11z
	 M36.11,29.26v-0.22c-0.34,0.48-0.77,0.89-1.26,1.21c-0.6,0.6-1.57,0.73-1.87,1.59c-0.33,0.3-0.44,0.76-0.89,0.92
	c-0.16,0.44-0.63,0.41-0.9,0.74c-0.77,0.68-1.26-0.45-2-0.58l-1.41,0.24c-0.47,0.08-0.96,0.08-1.43,0c0.07,0.96,0.07,1.93,0,2.89
	l0.18-0.11c4.3-0.19,8.38-1.91,11.52-4.85L36.11,29.26z M15.73,29.26v0.12l-1.89,1.9c2.74,2.46,6.15,4.05,9.79,4.58
	c0.61,0.03,1.22,0.11,1.82,0.22l-0.13-0.22v-2.52l0.09-0.14l-0.29,0.08c-3.51-0.17-6.85-1.61-9.38-4.05L15.73,29.26z M26.21,29.91
	l0.14,0.2c0.05,0.76,0.05,1.51,0,2.27c0.73-0.19,1.47-0.32,2.22-0.38c-0.16-0.04-0.3-0.12-0.41-0.24c-0.43,0-0.63-0.48-0.77-0.82
	s0.1-0.45,0.2-0.66c-0.18-0.38-0.75-0.1-1.08-0.24c-0.09-0.04-0.16-0.14-0.29-0.16L26.21,29.91z"/>
<path class="st0" d="M43.11,3.48c1.22,1.18,2.05,2.71,2.35,4.38l0.22,0.51c-1.99-1.43-3.68-3.22-5-5.28l-1.5-1.55
	C40.59,1.96,41.92,2.62,43.11,3.48z"/>
<path class="st0" d="M9,5.88c-0.96,1-1.98,1.94-3.06,2.8c0.55-1.14,0.56-2.5,1.34-3.55c1.12-1.93,3.17-2.61,5-3.33
	C11.03,3.03,9.93,4.4,9,5.88z"/>
<path class="st0" d="M47.88,7.91c0.44,1.92-0.19,3.81,0.21,5.75l0,0c-1-2.07-3.28-3-4.81-4.69c-0.82-0.98-1.34-2.17-1.5-3.44
	c0.88,2.12,3.25,2.59,4.61,4.37c0.37,0.43,0.68,0.92,0.9,1.45l0,0C46.64,9.61,46.12,7.82,45.73,6c-0.3-0.81-0.84-1.51-1.55-2
	C46.03,4.54,47.45,6.03,47.88,7.91z"/>
<path class="st0" d="M7.3,4.3C5.48,5.55,5.6,7.79,5,9.65c-0.18,0.69-0.5,1.32-0.66,2l0,0c0.33-0.84,0.84-1.59,1.5-2.21
	c1.29-1.19,3.2-1.94,3.83-3.7c0,2.45-2.07,4.38-4,5.76c-0.82,0.67-1.5,1.49-2,2.42c0-0.61,0.1-1.24,0-1.9
	C3.52,10,3.36,7.51,4.88,5.92C5.49,5.13,6.34,4.56,7.3,4.3z"/>
<path class="st0" d="M49,8.33c1.66,2.42,1.96,5.53,0.8,8.23c-0.44,1.11-0.74,2.26-0.9,3.44c-0.08-0.2-0.1-0.48-0.17-0.71
	c-0.64-2.47-3-4.23-3.95-6.56c-0.31-0.77-0.55-1.57-0.71-2.38c1,1.9,3.57,2.88,4.26,5c0.2,0.57,0.35,1.16,0.44,1.76
	c0,0,0.07,0,0.07-0.06c-0.27-2.18-0.24-4.38,0.08-6.55c0.07-1.11-0.2-2.22-0.77-3.17C48.56,7.51,48.75,8,49,8.33z"/>
<path class="st0" d="M3.42,7.64c-1.4,2.12-0.24,4.79-0.31,7.21l-0.18,2.47c0,0,0,0.09,0.09,0.06c0.08-0.27,0.1-0.57,0.16-0.85
	c0.33-2,2.06-3.41,3.57-4.79c0.33-0.33,0.59-0.72,0.77-1.14c-0.14,1.01-0.42,1.99-0.84,2.91c-1.18,2.29-3.35,4.17-3.75,6.8
	C2.74,17.79,1,15.91,1.2,13.24c0.01-2.04,0.76-4.02,2.11-5.55C3.31,7.69,3.37,7.63,3.42,7.64z"/>
<path class="st0" d="M50.56,22.62c-1,1.37-2.13,2.65-3,4c0.2-1.17,0.13-2.37-0.21-3.5c-0.81-2.26-1.34-4.61-1.6-7v-0.94
	c0.56,2.52,3,4.26,2.89,7.08c0,0.64-0.1,1.27-0.29,1.88l0,0l0.11-0.13c0.27-1.41,0.64-2.79,1.12-4.14c0.82-1.86,1.83-3.74,1.41-6
	C52.17,16.7,52.02,19.92,50.56,22.62z"/>
<path class="st0" d="M2.71,21.74c0.18,0.95,0.41,1.88,0.71,2.8c0,0,0.06,0,0.09,0c-0.95-2.65,0.41-5.1,1.78-7.16
	c0.32-0.59,0.56-1.22,0.71-1.87c0.05,1.28-0.06,2.56-0.33,3.81c-0.33,1.58-0.83,3.07-1.26,4.61c-0.23,0.98-0.25,2.01-0.06,3
	l-0.14-0.11c-1-1.85-3-3.29-3.57-5.31c-0.57-1.68-0.74-3.47-0.48-5.22c0.12-0.68,0.31-1.36,0.57-2C0.15,17.19,2.08,19.25,2.71,21.74
	z"/>
<path class="st0" d="M46.76,27c-0.06,1.19-0.45,2.34-1.12,3.33h0.11c0.81-1.21,1.67-2.37,2.6-3.49c1.6-1.54,3.23-3.12,3.44-5.26
	c0.54,3.57-1.46,6.7-4.43,8.72c-1.22,0.8-2.46,1.54-3.64,2.45v-0.11c1.8-3,0.92-7.09,2-10.38l0.42-1.1
	C45.94,23.17,46.83,24.91,46.76,27z"/>
<path class="st0" d="M7.34,31c0.19,0.67,0.59,1.28,0.84,1.93c-2.73-1.86-6.46-3.63-7.67-7c-0.48-1.28-0.63-2.65-0.46-4
	c0.22,3,3.49,4.64,5,7.16c0.32,0.55,0.71,1.05,1.15,1.51c-0.07-0.32-0.38-0.59-0.49-0.92c-0.53-1.12-0.74-2.36-0.59-3.59
	c0.14-1.56,0.79-3,0.55-4.63C7,24.33,6.59,27.91,7.34,31z"/>
<path class="st0" d="M42.69,33.29c-0.5,0.85-1.13,1.61-1.88,2.25c0.24,0,0.45-0.22,0.67-0.36c2-2,4.54-2.51,6.67-4.11
	c0.87-0.66,1.56-1.53,2-2.53c-0.4,3.26-3.64,6.31-6.7,7.29c-1.58,0.42-3.27,0.56-4.8,1.08c2.6-2.23,2.45-5.68,4.18-8.31
	c0.51-0.77,1.07-1.52,1.66-2.23C43.44,28.49,43.9,31.24,42.69,33.29z"/>
<path class="st0" d="M9.9,30.54c0.92,2.26,1.27,4.81,3.39,6.52c-2.3-0.76-5-0.54-7-2c-2.33-1.34-4-3.58-4.6-6.2
	c1.52,3.5,5.31,3.78,7.9,5.88c0.45,0.4,0.95,0.74,1.49,1l0,0c-0.64-0.53-1.21-1.14-1.68-1.83c-1.5-2.09-1-5-2.09-7.25
	C8.35,27.83,9.22,29.13,9.9,30.54z"/>
<path class="st0" d="M37.13,37.26c-0.6,0.28-1.21,0.52-1.84,0.71c0.8-0.08,1.6-0.2,2.39-0.36c3-0.48,6.5,0,8.62-2.57
	c-0.96,1.86-2.59,3.27-4.56,3.96c-3.09,1.16-6.21-0.27-9.17-0.75L32,38.16l0,0c1.44-0.23,2.79-0.84,3.92-1.76
	c1.54-1.64,3.21-3.14,5-4.5C39.54,33.63,39.39,36.13,37.13,37.26z"/>
<path class="st0" d="M15.89,36.42c1.18,0.96,2.6,1.59,4.11,1.81c-0.36,0.13-0.82,0.09-1.21,0.2c-2.67,0.66-5.65,1.73-8.48,0.77
	c-2.01-0.64-3.69-2.02-4.71-3.86c2.4,2.78,6.4,1.86,9.7,2.58c0.45,0.13,0.91,0.18,1.37,0.17c-0.39-0.24-0.93-0.22-1.35-0.44
	c-2.56-0.9-2.93-3.66-4.32-5.52C12.75,33.42,14.38,34.86,15.89,36.42z"/>
<path class="st0" d="M35.84,40.19c2.08,0.76,4.39,0.51,6.25-0.68c-0.87,1.06-2.01,1.86-3.3,2.31c-2.76,1-5.63,0-7.78-1.68
	c-0.87-0.55-1.65-1.35-2.77-1.27c-0.39-0.02-0.77,0.02-1.15,0.11c2.15,1,4.11,2.35,5.81,4c-0.32,0.36-0.68,0.7-1.06,1
	c-1.61-1.89-3.55-3.46-5.73-4.65c-0.42,0.1-0.82,0.27-1.18,0.5c-1.81,1.1-3.41,2.51-4.72,4.17l-1.1-0.91c1.7-1.7,3.7-3.09,5.89-4.09
	c-2.1-0.66-3.46,1.09-5.05,2c-3.14,2.28-7.5,1.75-10-1.21c1.93,1.18,4.29,1.38,6.39,0.55c2.66-1.23,5.43-2.7,8.66-2
	c0.51,0,1,0.52,1.48,0.09c2.43-0.58,4.99-0.26,7.21,0.9L35.84,40.19z"/>
</svg>
