<?xml version="1.0" encoding="utf-8"?>
<!-- Generator: Adobe Illustrator 24.1.2, SVG Export Plug-In . SVG Version: 6.00 Build 0)  -->
<svg version="1.1" id="Layer_1" xmlns="http://www.w3.org/2000/svg" xmlns:xlink="http://www.w3.org/1999/xlink" x="0px" y="0px"
	 viewBox="0 0 225.33 49.88" style="enable-background:new 0 0 225.33 49.88;" xml:space="preserve">
<style type="text/css">
	.st0{fill:#828282;}
</style>
<path class="st0" d="M220.15,0.08C221.88,0,223.6,0,225.33,0c-5.18,10.83-10.18,21.74-15.26,32.62c-1.41,0-2.81,0-4.21,0
	c-2.34-5.48-5-10.8-7.48-16.24c1.69,0,3.37-0.05,5.06,0c1.46,3.35,3.17,6.58,4.51,10C212,17.6,216.22,8.9,220.15,0.08z"/>
<path class="st0" d="M89.87,4.72c3.34,0,6.68,0,10,0c0,3,0,5.95,0,8.93c-3.35-0.05-6.69,0-10,0C89.88,10.66,89.82,7.69,89.87,4.72z"
	/>
<path class="st0" d="M39.47,17.49c6.82-3.87,16.73-2.55,21.34,4.12c2.83,3.95,3.63,9,3.6,13.72c-7.83,0.07-15.66,0-23.49,0
	c0.36,2.42,1.4,5,3.64,6.22c3.16,1.85,8.18,1.33,9.78-2.36c3.21-0.1,6.43-0.08,9.64,0c-1.07,3.71-3.63,6.81-7.07,8.56
	c-3.72,1.9-7.97,2.5-12.07,1.7c-4.33-0.67-8.19-3.1-10.67-6.71c-2.5-3.92-3.47-8.62-2.72-13.21C32.09,24.48,35.06,20.02,39.47,17.49
	z M44.8,23.15c-2.23,1.07-3.33,3.48-3.82,5.78c4.45,0,8.91,0,13.36,0c-0.17-1.85-0.97-3.59-2.27-4.93
	C50.16,22.2,47.12,22.14,44.8,23.15z"/>
<path class="st0" d="M144.4,15.76c5.38-1,11.34,0.16,15.47,3.9c7.06,6.26,7.36,18.43,0.81,25.16c-5.17,5.4-13.86,6.41-20.51,3.35
	c-5.15-2.47-8.65-7.44-9.24-13.12c-0.39-3.24,0.03-6.52,1.24-9.55C134.3,20.37,138.92,16.69,144.4,15.76z M145.55,23.17
	c-2.83,1-4.13,4.07-4.54,6.82c-0.33,3.47-0.28,7.37,2,10.24c2.4,3.14,7.72,3.05,10.14,0c2-2.51,2.3-5.93,2.11-9
	c-0.16-2.73-1.08-5.66-3.38-7.31C150.01,22.68,147.66,22.4,145.55,23.17L145.55,23.17z"/>
<path class="st0" d="M180.17,17.62c3.44-2.48,7.93-2.98,11.83-1.31c2.73,1.22,4.81,3.54,5.72,6.38c1.07,2.86,0.75,6,0.79,9
	c0,5.73,0,11.45,0,17.18c-3.33,0.06-6.67,0-10,0c0-6.55,0-13.11,0-19.66c0.08-1.75-0.66-3.44-2-4.56c-2.23-1.45-5.16-1.18-7.08,0.65
	c-1.38,1.52-2.1,3.51-2,5.56c0,6,0,12,0,18c-3.29-0.07-6.58,0-9.87,0c0-10.83,0-21.66,0-32.49c3.21,0,6.43,0,9.65,0
	c0,1.5,0,3-0.08,4.49C178.02,19.67,179.04,18.59,180.17,17.62z"/>
<path class="st0" d="M0,16.36h10.36c2.07,7,4.32,13.93,6.29,20.94c2.4-6.89,4.25-14,6.49-20.92c3.35-0.05,6.69,0,10,0
	C29.36,27.17,25.61,38,21.85,48.84c-3.46,0-6.93-0.05-10.39,0C7.53,38.09,4,27.14,0,16.36z"/>
<path class="st0" d="M66.69,16.36c3.19,0,6.38,0,9.57,0c0,1.82,0,3.65-0.1,5.47c0.84-0.91,1.42-2,2.28-2.92
	c2.24-2.36,5.59-3.32,8.74-2.52c0,2.86,0,5.71,0,8.57c-2.47-0.28-5.18-0.17-7.27,1.32c-2.13,1.68-3.32,4.29-3.2,7
	c0,5.17,0,10.35,0,15.53c-3.34,0-6.68,0-10,0C66.73,38.02,66.72,27.2,66.69,16.36z"/>
<path class="st0" d="M89.83,16.37c3.35,0,6.71,0,10.06,0c-0.06,10.83,0,21.67,0,32.51c-3.35,0-6.69,0-10,0
	C89.89,38.03,89.87,27.2,89.83,16.37z"/>
<path class="st0" d="M102.6,16.34c9.05,0,18.1,0,27.15,0c-0.1,2.48,0,5-0.05,7.44c-0.36,0.59-0.8,1.14-1.29,1.63
	c-4.66,5.18-9.21,10.44-13.91,15.59c5.33,0.1,10.65,0,16,0.05c0,2.61,0,5.22,0,7.84c-9.28-0.05-18.57-0.05-27.86,0
	c0-2.52,0-5,0-7.54c4.85-5.45,9.72-10.9,14.63-16.29c0.15-0.29,0.74-0.56,0.43-0.92c-5,0.15-10,0-15,0.08
	C102.58,21.58,102.61,19,102.6,16.34z"/>
</svg>
