<?xml version="1.0" encoding="utf-8"?>
<!-- Generator: Adobe Illustrator 24.1.2, SVG Export Plug-In . SVG Version: 6.00 Build 0)  -->
<svg version="1.1" id="Layer_1" xmlns="http://www.w3.org/2000/svg" xmlns:xlink="http://www.w3.org/1999/xlink" x="0px" y="0px"
	 viewBox="0 0 211.23 50" style="enable-background:new 0 0 211.23 50;" xml:space="preserve">
<style type="text/css">
	.st0{fill:#828282;}
</style>
<path class="st0" d="M58.49,11.16h2v25h-2V11.16z M56.22,27.26c0,5.58-3,9.29-7.61,9.29s-7.71-3.67-7.71-9.29s3-9.32,7.75-9.32
	S56.22,21.57,56.22,27.26z M43.12,27.26c0,4.29,2.28,7.51,5.46,7.51S54,31.59,54,27.26s-2.21-7.58-5.39-7.58s-5.49,3.14-5.49,7.62
	V27.26z M99.46,27.26c0,5.58-3,9.29-7.61,9.29s-7.71-3.67-7.71-9.29s3-9.32,7.74-9.32S99.46,21.57,99.46,27.26z M86.36,27.26
	c0,4.29,2.28,7.51,5.46,7.51s5.42-3.22,5.42-7.55s-2.24-7.54-5.39-7.54s-5.49,3.14-5.49,7.62L86.36,27.26z M39.36,27.26
	c0,5.58-3,9.29-7.61,9.29s-7.71-3.67-7.71-9.29s3.05-9.32,7.75-9.32S39.36,21.57,39.36,27.26z M26.26,27.26
	c0,4.29,2.28,7.51,5.46,7.51s5.43-3.22,5.43-7.55s-2.22-7.58-5.4-7.58S26.26,22.78,26.26,27.26z M121.93,18.34v0.84
	c0,0.78,0,1.58-0.1,2.35c1.04-2.13,3.22-3.47,5.59-3.45c3.93,0,5.34,2.9,5.55,6.61c0.07,0.84,0.1,2.28,0.1,3.12v8.29h-2v-8.25
	c0-1,0-2.77-0.11-3.61c-0.24-2.83-1.63-4.37-3.89-4.37c-1.97,0.08-3.72,1.31-4.47,3.13c-0.4,0.91-0.6,1.9-0.59,2.9
	c0,0.55-0.07,1.67-0.07,2v8.29h-2v-25h2L121.93,18.34z M144.11,20.42c-1.08-0.42-2.22-0.64-3.38-0.66c-2-0.09-3.48,1.22-3.48,2.73
	c0,3.67,8.32,3.26,8.32,8.92c0,3-2.47,5-6.09,5c-1.49,0.01-2.97-0.29-4.34-0.88l0.15-2c1.21,0.74,2.59,1.14,4,1.16
	c2.31,0,4-1.53,4-3.29c0-4.26-8.13-3.53-8.13-8.89c0-2.75,2.17-4.56,5.55-4.51c1.2-0.03,2.39,0.17,3.51,0.61l-0.16,1.8L144.11,20.42
	z M74.19,18.31c0,0,2.47,10.09,3,12.45l0.62,2.84c0,0,0.39-1.69,0.69-2.84c0.63-2.37,3.5-12.45,3.5-12.45h2.19L79,36.13h-2.4
	c0,0-2.72-11.77-3-13.22c-0.16-0.72-0.38-1.83-0.38-1.83s-0.22,1.11-0.38,1.83c-0.32,1.45-3,13.22-3,13.22h-2.49L62.2,18.31h2.18
	c0,0,2.83,10.08,3.47,12.45c0.31,1.15,0.69,2.84,0.69,2.84l0.62-2.84c0.52-2.36,3-12.45,3-12.45L74.19,18.31z M13.07,15.62
	c0,0,3.33,12.14,3.93,14.23c0.32,1.17,0.81,3.24,0.81,3.24s0.44-2.07,0.73-3.25c0.51-2.08,3.63-14.22,3.63-14.22h2.12L19,36.14
	h-2.35c0,0-3.87-14.85-4.06-15.61s-0.47-2.22-0.47-2.22s-0.28,1.46-0.46,2.22S7.6,36.14,7.6,36.14H5.28L0,15.62h2.12
	c0,0,3.11,12.14,3.63,14.22c0.29,1.18,0.73,3.25,0.73,3.25S7,31,7.28,29.85c0.56-2.09,3.89-14.23,3.89-14.23L13.07,15.62z
	 M101.66,36.14v-17.8h1.73v4.07c0,0,1-3.78,6.34-4.06c0.75,0,1.72,0,1.72,0v-4.49l2-0.79v5.27h4.16v1.8h-4.16V31
	c0,2.55,0.8,3.44,2.54,3.44c0.6-0.01,1.2-0.12,1.76-0.35L118,35.8c-0.67,0.21-1.37,0.32-2.07,0.33c-1.18,0.12-2.37-0.24-3.28-1
	c-0.75-0.75-1.19-2-1.19-4.23V20.07c-1.15-0.07-2.31,0.01-3.44,0.23c-1.65,0.43-4.33,2.14-4.33,6.4v9.44H101.66z"/>
<path class="st0" d="M194.06,42.16c-1.19,0-2.38-0.15-3.54-0.44c-1.82,2.55-4.18,4.66-6.92,6.18c2.45,1.36,5.2,2.08,8,2.1
	c11.08,0,18.63-11.54,19.52-21.34c-0.35,1.3-2.63,13.5-17.08,13.5H194.06z"/>
<path class="st0" d="M196.81,11.51c-2.95-0.13-5.81,0.99-7.89,3.09c5.5,0.56,12.26,4.44,12.26,12.49c0,7.81-5.12,11.36-9.3,12.55
	c-0.41,0.72-0.87,1.41-1.36,2.08c1.16,0.29,2.35,0.44,3.54,0.44c14.45,0,16.73-12.2,17.08-13.5c0.06-0.64,0.09-1.29,0.09-1.94
	C211.23,15.72,202.84,11.51,196.81,11.51L196.81,11.51z"/>
<path class="st0" d="M173.15,42.16c2.81,0.01,5.55-0.84,7.85-2.44c-0.83,0.25-1.69,0.39-2.55,0.4c-4.08,0-12.47-3-12.47-13
	c0-8,6.76-11.93,12.27-12.49c-2.08-2.1-4.95-3.22-7.9-3.09c-6,0-14.42,4.21-14.42,15.21c0,0.64,0,1.28,0.09,1.94
	c0.35,1.31,2.59,13.5,17.09,13.5L173.15,42.16z"/>
<path class="st0" d="M178.49,40.12c0.86-0.01,1.72-0.15,2.55-0.4l0,0c0.97-0.68,1.85-1.49,2.61-2.4l0,0
	c-1.8-2.33-2.81-5.18-2.88-8.12c0-4,2.15-5.72,2.86-6.17l0,0c-1.18-0.88-2.6-1.37-4.07-1.42c-3.27,0.13-6.01,2.52-6.6,5.74l0,0l0,0
	l-0.09,0.56c-0.11,0.86-0.16,1.72-0.16,2.59c0.12,3.27,1.11,6.44,2.86,9.2c0.96,0.26,1.94,0.39,2.93,0.41L178.49,40.12z"/>
<path class="st0" d="M183.68,17.9c-6.7,0-9.88,4.92-10.73,9.45c0.59-3.22,3.33-5.61,6.6-5.74c1.47,0.04,2.89,0.52,4.07,1.39l0,0
	c2,1.52,3.12,3.93,3,6.44c-0.06,2.88-1.12,5.65-3,7.84l0,0c-2.6,3.11-6.46,4.88-10.51,4.84c-14.49,0-16.73-12.19-17.08-13.5
	C157,38.46,164.5,50,175.58,50c10.83,0,19.1-10.93,19.1-20.08c0-6.35-3.6-12-11-12L183.68,17.9z"/>
<path class="st0" d="M183.88,14.16c-1.39-1.42-2.27-3.27-2.47-5.25c-0.16-3.1,1.51-6.01,4.26-7.44c8.16-4.37,15.25,2,14.43,6.1
	c0,0-6.08-2.76-11.68,0.55C186.09,9.36,184.42,11.57,183.88,14.16z"/>
</svg>
