<?xml version="1.0" encoding="utf-8"?>
<!-- Generator: Adobe Illustrator 24.1.2, SVG Export Plug-In . SVG Version: 6.00 Build 0)  -->
<svg version="1.1" id="Layer_1" xmlns="http://www.w3.org/2000/svg" xmlns:xlink="http://www.w3.org/1999/xlink" x="0px" y="0px"
	 viewBox="0 0 130 49.8" style="enable-background:new 0 0 130 49.8;" xml:space="preserve">
<style type="text/css">
	.st0{fill:#828282;}
</style>
<path class="st0" d="M7.63,40.92c-1.62,1.71-3,3.39-4.24,4.92h5.09v-0.05c-0.7-0.75-1.01-1.78-0.85-2.79V40.92z"/>
<path class="st0" d="M11.71,33.1h-4.1v0.06c0.39,0.17,0.64,0.57,0.6,1C8.15,34.63,8,35.08,7.76,35.49l-1.07,2.24l-2.23-4.57V33.1H0
	v0.06c0.54,0.37,0.96,0.89,1.21,1.49l2.86,5.43v3c0,0.11,0,0.23,0,0.35c1.67-2.37,3.5-4.62,5.48-6.74l2.15-3.51L11.71,33.1z"/>
<path class="st0" d="M19.94,43.72v-7.07h-0.05c-0.4,0.22-0.85,0.32-1.31,0.29H16V37c0.71,0.59,0.67,1.15,0.67,2.07v3.14
	c0.06,0.51-0.03,1.02-0.27,1.47c-0.21,0.28-0.55,0.44-0.9,0.42c-1.27,0-1.08-1.62-1.08-2.48v-5h-0.06
	c-0.39,0.22-0.83,0.32-1.28,0.29h-1.19c-0.33,0.28-0.64,0.56-1,0.84c0.1,0.42,0.14,0.86,0.11,1.29v3.76
	c-0.15,0.92,0.14,1.85,0.77,2.53c0.62,0.52,1.42,0.8,2.23,0.77c1.04,0.06,2.03-0.43,2.63-1.28v1h4v-0.06
	c-0.71-0.6-0.64-1.17-0.66-2.07"/>
<path class="st0" d="M28.49,40.65c-0.66-0.37-1.36-0.65-2.09-0.83c-0.46-0.13-1.1-0.29-1.1-0.89s0.75-0.62,1.14-0.62
	c0.88,0.01,1.73,0.27,2.46,0.76v-2c-0.98-0.24-1.99-0.36-3-0.36c-1-0.06-2,0.14-2.9,0.59c-0.88,0.45-1.43,1.36-1.42,2.35
	c0,2.61,4.59,2.69,4.59,4c0,0.71-0.83,0.85-1.36,0.85c-1.21-0.04-2.39-0.41-3.41-1.06l0.43,2.22c1.05,0.26,2.13,0.41,3.22,0.45
	c2,0,4.9-0.58,4.9-3.18C29.89,41.97,29.34,41.11,28.49,40.65"/>
<path class="st0" d="M34,41.43h6c-0.05-3-1.51-4.74-4.55-4.74c-2.63,0.01-4.76,2.16-4.75,4.79c0.01,1.42,0.65,2.77,1.75,3.67
	c1.15,0.72,2.49,1.07,3.84,1c1.03,0.01,2.05-0.2,3-0.6L40,43.31c-0.99,0.57-2.09,0.92-3.23,1c-1.5,0.04-2.74-1.15-2.77-2.64
	C33.99,41.59,34,41.51,34,41.43 M35.4,38.37c0.69-0.03,1.27,0.51,1.3,1.2c0,0.07,0,0.14-0.01,0.21H34
	C34.01,39.01,34.63,38.38,35.4,38.37"/>
<path class="st0" d="M50.16,43.72v-3.2c0.15-0.96-0.08-1.94-0.65-2.73c-0.69-0.76-1.69-1.17-2.71-1.1c-0.9-0.06-1.78,0.31-2.36,1
	v-1.04h-0.06c-0.43,0.19-0.89,0.29-1.36,0.29h-2.58V37c0.73,0.61,0.67,1.17,0.67,2.07v4.65c0,0.9,0.06,1.47-0.67,2.07v0.06h4.67
	v-0.06c-0.73-0.6-0.67-1.17-0.67-2.07v-3.28c-0.06-0.46,0.04-0.93,0.27-1.33c0.2-0.28,0.52-0.45,0.86-0.45
	c0.41-0.01,0.79,0.19,1,0.54c0.22,0.37,0.32,0.81,0.27,1.24v3.28c0,0.9,0.06,1.47-0.67,2.07v0.06h4.67v-0.06
	C50.11,45.19,50.16,44.62,50.16,43.72"/>
<path class="st0" d="M59.92,43.6v-7.77c0-1-0.14-2.13,0.8-2.73V33h-5.16v0.06c0.94,0.6,0.8,1.71,0.8,2.71V43c0,1,0.14,2.09-0.8,2.69
	v0.06h8.37l0.73-2.71c-0.78,0.6-1.75,0.9-2.73,0.85c-0.68,0.04-1.37-0.08-2-0.33"/>
<path class="st0" d="M73.19,37.73c-0.95-0.76-2.14-1.15-3.36-1.1c-2.88,0-5,1.82-5,4.78c-0.05,2.5,1.94,4.56,4.44,4.6
	c0.14,0,0.28,0,0.41-0.01c2.92,0,5.1-1.76,5.1-4.82c0-1.34-0.58-2.61-1.59-3.49 M69.9,44.24c-1.68,0-1.84-2-1.84-3.33
	c0-1.15,0.33-2.42,1.69-2.42c1.56,0,1.81,1.93,1.81,3.13S71.36,44.24,69.9,44.24"/>
<path class="st0" d="M83.57,44.35c-0.76-0.36-1.6-0.54-2.45-0.52l-2,0.12c-0.14,0-0.31-0.08-0.31-0.23c0-0.37,0.71-0.43,1-0.43
	c1.01,0,2-0.3,2.84-0.87c0.74-0.5,1.19-1.32,1.21-2.21c0.01-0.64-0.25-1.25-0.71-1.69H84l0.87-1.8l-4.07,0.12
	c-0.49-0.13-0.99-0.2-1.5-0.21c-2,0-4,1.16-4,3.41c0,1.39,0.93,2.6,2.27,2.96l-0.54,0.21c-0.21,0.08-0.73,0.19-0.73,0.53
	c0.08,0.43,0.28,0.83,0.56,1.16c0.25,0.36,0.66,0.56,1.1,0.54c0.51,0,1-0.1,1.55-0.1c0.9-0.12,1.74,0.51,1.86,1.41
	c0,0,0,0.01,0,0.01c0.12,1.12-1.15,1.43-2.07,1.43c-0.73,0-1.79-0.15-1.79-1.08c-0.02-0.43,0.3-0.79,0.73-0.82
	c-0.44-0.23-0.94-0.35-1.44-0.33c-1-0.1-1.89,0.63-1.99,1.63c0,0.02,0,0.04-0.01,0.06c0,1,1,1.63,1.89,1.88
	c0.91,0.21,1.84,0.31,2.78,0.29c1.2,0.04,2.4-0.15,3.53-0.55c1.14-0.37,1.94-1.41,2-2.61c-0.01-0.96-0.54-1.84-1.38-2.31
	 M79.52,38.35c0.92,0,1.18,1.06,1.18,1.82s-0.31,1.4-1.14,1.4s-1.15-1-1.15-1.73S78.68,38.35,79.52,38.35"/>
<path class="st0" d="M87.91,36.49c1.03,0.01,1.87-0.83,1.88-1.86c0-0.01,0-0.01,0-0.02c0-0.99-0.8-1.8-1.79-1.82
	c-1.02,0.02-1.84,0.86-1.82,1.88c0,0.01,0,0.03,0,0.04c0.02,0.97,0.79,1.75,1.75,1.78"/>
<path class="st0" d="M89.75,43.66v-7.07h-0.06c-0.4,0.22-0.85,0.32-1.3,0.29h-2.62v0.06c0.71,0.6,0.66,1.16,0.66,2.07v4.65
	c0,0.89,0,1.45-0.68,2.07v0.06h4.67v-0.06C89.69,45.11,89.75,44.55,89.75,43.66"/>
<path class="st0" d="M98,40.6c-0.65-0.37-1.36-0.66-2.09-0.84c-0.46-0.13-1.1-0.29-1.1-0.89s0.75-0.62,1.14-0.62
	c0.87,0,1.73,0.27,2.45,0.76V37c-0.98-0.25-1.99-0.37-3-0.37c-1.01-0.06-2.02,0.15-2.92,0.62c-0.88,0.45-1.43,1.35-1.42,2.34
	c0,2.62,4.59,2.69,4.59,4c0,0.72-0.83,0.85-1.37,0.85c-1.21-0.04-2.38-0.4-3.4-1.06l0.42,2.22c1.06,0.27,2.14,0.42,3.23,0.45
	c2,0,4.9-0.58,4.9-3.18C99.38,41.92,98.84,41.06,98,40.6"/>
<path class="st0" d="M104.06,34.11h-1.32c-0.17,1.68-1.48,3.01-3.15,3.21v1.34h1.15v4.13c-0.15,0.89,0.1,1.81,0.69,2.5
	c0.69,0.51,1.54,0.78,2.4,0.75c0.5,0,1-0.1,1.52-0.13l0.85-1.65c-0.54,0.03-1.07-0.09-1.54-0.35c-0.62-0.41-0.6-0.91-0.6-1.61v-3.62
	h0.48c0.81,0,1.08,0,1.6,0.56h0.06v-2.36h-2.14V34.11z"/>
<path class="st0" d="M109.23,36.49c1.03,0.01,1.88-0.82,1.89-1.85c0-0.01,0-0.02,0-0.03c0-1-0.81-1.81-1.81-1.82
	c-1.02,0.01-1.84,0.85-1.83,1.87c0,0.02,0,0.03,0,0.05C107.5,35.67,108.27,36.45,109.23,36.49"/>
<path class="st0" d="M111.08,43.66v-7.07H111c-0.4,0.22-0.85,0.32-1.31,0.29h-2.59v0.06c0.71,0.6,0.65,1.16,0.65,2.07v4.65
	c0,0.89,0.06,1.45-0.67,2.07v0.06h4.67v-0.06C111.02,45.11,111.08,44.55,111.08,43.66"/>
<path class="st0" d="M118.36,44.1c-0.65,0.04-1.29-0.2-1.75-0.67c-0.54-0.69-0.83-1.55-0.81-2.43c-0.05-0.68,0.13-1.35,0.5-1.92
	c0.36-0.44,0.9-0.69,1.46-0.68c0.72,0,1.42,0.22,2,0.64h0.06v-2.22c-0.75-0.06-1.52-0.2-2.27-0.2c-3,0-5.41,1.65-5.41,4.85
	c0.05,2.56,2.17,4.59,4.72,4.53c0.05,0,0.09,0,0.14,0c1.15,0.01,2.28-0.24,3.31-0.74l0.61-2.1h-0.06c-0.73,0.56-1.61,0.88-2.53,0.9"
	/>
<path class="st0" d="M128.54,40.6c-0.65-0.37-1.36-0.66-2.09-0.84c-0.47-0.13-1.1-0.29-1.1-0.89s0.75-0.62,1.13-0.62
	c0.88,0,1.73,0.27,2.46,0.76V37c-0.98-0.24-1.99-0.37-3-0.37c-1.01-0.06-2.02,0.15-2.92,0.62c-0.88,0.44-1.44,1.35-1.43,2.34
	c0,2.62,4.59,2.69,4.59,4c0,0.72-0.82,0.85-1.36,0.85c-1.21-0.04-2.38-0.4-3.4-1.06l0.42,2.22c1.06,0.27,2.14,0.42,3.23,0.45
	c2,0,4.9-0.58,4.9-3.18c-0.06-0.95-0.62-1.81-1.46-2.26"/>
<path class="st0" d="M67.17,25.5c2.03,0.29,4.09,0.42,6.14,0.38c0.26,0.08-0.61,1-1.64,1.79c-5.55,4-13.89,3.07-19.13,2.66
	C48.92,30,43.71,30.25,40.82,32c7.26-6,20.3,0,27.84-4.87c-3.96-0.24-7.87-1.06-11.59-2.43c10.92,0,19.9-2,23.29-5.19
	c-6.13,1.33-15,1.33-21.15,0.77c11.89-0.81,22.53-6.84,26.27-12.77c-6.93,4.37-26.76,9.34-42.21,12.62
	C25.93,23.81,13.34,30,2.79,45.85H2.42C12,27.67,26,21.13,53.69,14.89C62,13,83,6.7,92.67,0.31c0.73-0.48,1-0.52,0.59,0.76
	c-2.32,7.23-9.79,14.29-18.48,17.29c3.75-0.26,7.45-1.02,11-2.26c0.26-0.1,0.26,0.1,0.22,0.25c-1.51,5.16-9.72,8.9-18.86,9.09
	L67.17,25.5z M19.24,31.44c6.67-2.83,13.81-4.42,21.05-4.7C36.67,29.66,31.77,31,24.7,31c6.34,1.09,16.79,0.42,20.86-6.52
	c-9.29-0.32-18.48,2.12-26.39,7L19.24,31.44z M26.66,31.06c1.78,0.6-0.5,2.12-2.45,2.57c-0.14,0-0.1,0.12,0,0.18
	c1.65,1,0.56,1.86-1.75,2.41c2.54,0,3.36-0.6,3.78-1.34c-0.06-0.39-0.32-0.72-0.68-0.88c2.48-0.5,3.8-1.67,3.81-2
	s-0.23-0.55-0.76-0.84L26.66,31.06z"/>
</svg>
