<?xml version="1.0" encoding="utf-8"?>
<!-- Generator: Adobe Illustrator 24.0.2, SVG Export Plug-In . SVG Version: 6.00 Build 0)  -->
<svg version="1.1" id="Layer_1" xmlns="http://www.w3.org/2000/svg" xmlns:xlink="http://www.w3.org/1999/xlink" x="0px" y="0px"
	 viewBox="0 0 18 24" style="enable-background:new 0 0 18 24;" xml:space="preserve">
<style type="text/css">
	.st0{fill:#FC6A55;}
	.st1{stroke:#FFFFFF;stroke-width:0.25;stroke-miterlimit:10;}
	.st2{fill:#656D7A;}
	.st3{fill:#FFFFFF;}
	.st4{filter:url(#Adobe_OpacityMaskFilter);}
	.st5{fill-rule:evenodd;clip-rule:evenodd;fill:#FFFFFF;}
	.st6{mask:url(#mask-2_8_);fill-rule:evenodd;clip-rule:evenodd;}
	.st7{filter:url(#Adobe_OpacityMaskFilter_1_);}
	.st8{mask:url(#mask-2_7_);fill-rule:evenodd;clip-rule:evenodd;}
	.st9{filter:url(#Adobe_OpacityMaskFilter_2_);}
	.st10{mask:url(#mask-2_6_);fill-rule:evenodd;clip-rule:evenodd;}
	.st11{filter:url(#Adobe_OpacityMaskFilter_3_);}
	.st12{mask:url(#mask-2_5_);fill-rule:evenodd;clip-rule:evenodd;}
	.st13{filter:url(#Adobe_OpacityMaskFilter_4_);}
	.st14{mask:url(#mask-2_2_);fill:none;stroke:#000000;stroke-width:2;}
	.st15{fill:#434343;}
	.st16{fill:#434343;stroke:#F9F9F9;stroke-width:0.25;stroke-miterlimit:10;}
	.st17{fill:none;stroke:#FC6A55;stroke-width:0.5;stroke-miterlimit:10;}
	.st18{fill:none;stroke:#FC6A55;stroke-width:0.75;stroke-miterlimit:10;}
	.st19{fill:#FC6A55;stroke:#FC6A55;stroke-width:0.5;stroke-miterlimit:10;}
	.st20{opacity:0.153;fill:url(#Path_146_);enable-background:new    ;}
	.st21{opacity:0.1;fill:#590BB2;enable-background:new    ;}
	.st22{fill:#8E8CA8;}
	.st23{fill:#F5F4F9;}
	.st24{fill:#FFD5B8;}
	.st25{fill:#FC8473;}
	.st26{fill:#1C3475;}
	.st27{fill:#DDD9E4;}
	.st28{fill:#828FB3;}
	.st29{opacity:7.584635e-02;fill:url(#Path_147_);enable-background:new    ;}
	.st30{fill:#FFBE92;}
	.st31{fill:#FB8E7F;}
	.st32{fill:#FDB1A6;}
	.st33{fill:#FC806F;}
	.st34{fill:#FFE783;}
	.st35{fill:#104478;}
	.st36{fill:none;stroke:#FFFFFF;stroke-miterlimit:10;}
	.st37{fill:none;stroke:#FC6A55;stroke-miterlimit:10;}
	.st38{fill:none;stroke:#000000;stroke-width:0.15;stroke-miterlimit:10;}
	.st39{opacity:0.1;fill:url(#Path_148_);enable-background:new    ;}
	.st40{opacity:0.1;fill:url(#Path_149_);enable-background:new    ;}
</style>
<g>
	<g>
		<path d="M14.3,16.2l-1.9-0.6l-0.7-1.3c0.6-0.6,1-1.4,1.2-2.3l0.1-0.5h0.7c0.6,0,1.2-0.5,1.2-1.2V7.9C14.9,4.6,12.2,2,9,2
			C5.8,2,3.1,4.6,3.1,7.9v2.5c0,0.5,0.3,0.9,0.8,1.1v0.5c0,0.6,0.5,1.2,1.2,1.2h0.3c0.2,0.4,0.4,0.7,0.7,1c0.1,0.1,0.1,0.1,0.2,0.2
			l-0.7,1.3l-1.9,0.6c-2.2,0.7-3.7,3-3.7,5.4C0,21.8,0.2,22,0.4,22h17.2c0.2,0,0.4-0.2,0.4-0.4C18,19.2,16.4,16.9,14.3,16.2z
			 M14.1,10.3c0,0.2-0.2,0.4-0.4,0.4h-0.6c0.1-0.8,0.2-1.6,0.2-2.4c0,0,0,0,0-0.1h0.8V10.3z M4.3,10.7c-0.2,0-0.4-0.2-0.4-0.4V8.2
			h0.8c0,0,0,0.1,0,0.1c0,0,0,0,0,0c0,0,0,0,0,0c0,0.8,0.1,1.6,0.2,2.3L4.3,10.7L4.3,10.7z M5.1,12.3c-0.2,0-0.4-0.2-0.4-0.4v-0.4H5
			L5.1,12C5.1,12.1,5.1,12.2,5.1,12.3L5.1,12.3z M4.7,7.5H3.9C4.1,4.8,6.3,2.8,9,2.8c2.7,0,4.9,2.1,5.1,4.7h-0.8
			c0-2.2-1.8-3.9-4-3.9H8.6C6.5,3.5,4.7,5.3,4.7,7.5z M8.6,4.3h0.7c1.8,0,3.2,1.4,3.2,3.2c0,0.1,0,0.2,0,0.3c0,0,0,0,0,0L12,7.8
			C10.7,7.6,9.4,7,8.5,6C8.4,5.9,8.3,5.9,8.2,5.9c-1.1,0-2.1,0.5-2.7,1.3C5.7,5.6,7,4.3,8.6,4.3z M6,12.3c-0.2-0.7-0.4-2.6-0.5-3.8
			L6,7.8c0.5-0.6,1.2-1,2-1.1c1.1,1,2.4,1.7,3.9,1.9l0.6,0.1c0,0.8-0.1,1.6-0.2,2.4c0,0,0,0,0,0c0,0.2-0.1,0.4-0.1,0.8
			c-0.2,1.2-1.1,2.4-2.4,2.7c-0.5,0.1-1,0.1-1.5,0c-0.8-0.2-1.5-0.7-1.9-1.5h0.8c0.2,0.5,0.6,0.8,1.1,0.8H9c0.6,0,1.2-0.5,1.2-1.2
			c0-0.6-0.5-1.2-1.2-1.2H8.2c-0.5,0-1,0.3-1.1,0.8H6z M8.2,15.3c0.3,0.1,0.5,0.1,0.8,0.1c0.2,0,0.4,0,0.6-0.1l-0.7,0.7L8.2,15.3z
			 M8.4,16.7L7.2,18c-0.3-0.7-0.6-1.3-0.9-2L6.8,15L8.4,16.7z M11.2,14.9l0.5,1.1c-0.2,0.7-0.5,1.4-0.9,2l-1.3-1.3L11.2,14.9z
			 M7.8,12.7c0-0.2,0.2-0.4,0.4-0.4H9c0.2,0,0.4,0.2,0.4,0.4c0,0.2-0.2,0.4-0.4,0.4H8.2C8,13.1,7.8,12.9,7.8,12.7z M0.8,21.2
			C1,19.3,2.2,17.5,4,17l1.6-0.5c0.3,0.8,0.7,1.6,1.1,2.4c0,0,0,0,0,0c0,0,0,0,0,0c0.3,0.6,0.7,1.1,1.1,1.6l0.5,0.8H0.8z M9,20.9
			L8.5,20c0,0,0,0,0,0c-0.3-0.4-0.6-0.9-0.9-1.3L9,17.2l1.5,1.5c-0.3,0.5-0.6,0.9-0.9,1.3C9.5,20,9.6,20,9,20.9z M9.7,21.2l0.5-0.8
			c0.4-0.5,0.8-1.1,1.1-1.6c0,0,0,0,0,0c0,0,0,0,0,0c0.4-0.8,0.8-1.6,1.1-2.4L14,17c1.7,0.6,3,2.3,3.2,4.3H9.7L9.7,21.2z"/>
	</g>
</g>
</svg>
