<?xml version="1.0" encoding="utf-8"?>
<!-- Generator: Adobe Illustrator 24.1.1, SVG Export Plug-In . SVG Version: 6.00 Build 0)  -->
<svg version="1.1" id="Layer_1" xmlns="http://www.w3.org/2000/svg" xmlns:xlink="http://www.w3.org/1999/xlink" x="0px" y="0px"
	 viewBox="0 0 77 55" style="enable-background:new 0 0 77 55;" xml:space="preserve">
<style type="text/css">
	.st0{fill:#FC6A55;}
	.st1{fill:#EDEDED;}
	.st2{fill:none;stroke:#FC6A55;stroke-miterlimit:10;}
	.st3{fill:#222F3F;}
	.st4{fill:#383838;}
	.st5{fill:#FFFFFF;}
	.st6{fill:#656D7A;}
	.st7{fill:#C4C4C4;}
	.st8{filter:url(#Adobe_OpacityMaskFilter);}
	.st9{fill-rule:evenodd;clip-rule:evenodd;fill:#FFFFFF;}
	.st10{mask:url(#mask-2_8_);fill-rule:evenodd;clip-rule:evenodd;}
	.st11{filter:url(#Adobe_OpacityMaskFilter_1_);}
	.st12{mask:url(#mask-2_7_);fill-rule:evenodd;clip-rule:evenodd;}
	.st13{filter:url(#Adobe_OpacityMaskFilter_2_);}
	.st14{mask:url(#mask-2_6_);fill-rule:evenodd;clip-rule:evenodd;}
	.st15{filter:url(#Adobe_OpacityMaskFilter_3_);}
	.st16{mask:url(#mask-2_5_);fill-rule:evenodd;clip-rule:evenodd;}
	.st17{filter:url(#Adobe_OpacityMaskFilter_4_);}
	.st18{mask:url(#mask-2_2_);fill:none;stroke:#000000;stroke-width:1.5;stroke-miterlimit:10;}
	.st19{fill:#B4A3EE;}
	.st20{fill:#434343;}
	.st21{fill:#434343;stroke:#F9F9F9;stroke-width:0.25;stroke-miterlimit:10;}
	.st22{fill:none;stroke:#FC6A55;stroke-width:0.5;stroke-miterlimit:10;}
	.st23{fill:none;stroke:#FC6A55;stroke-width:0.75;stroke-miterlimit:10;}
	.st24{fill:#FC6A55;stroke:#FC6A55;stroke-width:0.5;stroke-miterlimit:10;}
	.st25{opacity:0.153;fill:url(#Path_36_);enable-background:new    ;}
	.st26{opacity:0.1;fill:#590BB2;enable-background:new    ;}
	.st27{fill:#8E8CA8;}
	.st28{fill:#F5F4F9;}
	.st29{fill:#FFD5B8;}
	.st30{fill:#FC8473;}
	.st31{fill:#1C3475;}
	.st32{fill:#DDD9E4;}
	.st33{fill:#828FB3;}
	.st34{opacity:7.584635e-02;fill:url(#Path_37_);enable-background:new    ;}
	.st35{fill:#FFBE92;}
	.st36{fill:#FB8E7F;}
	.st37{fill:#FDB1A6;}
	.st38{fill:#FC806F;}
	.st39{fill:#FFE783;}
	.st40{fill:#104478;}
	.st41{fill:none;stroke:#FFFFFF;stroke-miterlimit:10;}
	.st42{fill:none;stroke:#000000;stroke-width:0.15;stroke-miterlimit:10;}
	.st43{opacity:0.1;fill:url(#Path_38_);enable-background:new    ;}
	.st44{opacity:0.1;fill:url(#Path_39_);enable-background:new    ;}
	.st45{fill-rule:evenodd;clip-rule:evenodd;fill:#FC6A55;}
	.st46{fill-rule:evenodd;clip-rule:evenodd;}
	.st47{fill:#FF6757;}
	.st48{fill:#666666;}
	.st49{fill:none;stroke:#FFFFFF;stroke-width:0.5;stroke-miterlimit:10;}
	.st50{fill:#F16A56;}
	.st51{fill:#515252;}
	.st52{fill:#F26A56;}
	.st53{fill:none;stroke:#F16A56;stroke-miterlimit:10;}
	.st54{fill:none;stroke:#929292;stroke-miterlimit:10;}
	.st55{fill:#929292;}
	.st56{fill:none;stroke:#000000;stroke-width:0.5;stroke-miterlimit:10;}
	.st57{fill:#A8A7A7;}
	.st58{fill:#F79F91;}
	.st59{fill:#9BDBD5;}
	.st60{fill:#222121;}
</style>
<g>
	<g>
		<g>
			<path class="st7" d="M47.1,4.3c-0.6,0-1.1,0.5-1.1,1.1s0.5,1.1,1.1,1.1s1.1-0.5,1.1-1.1S47.7,4.3,47.1,4.3z"/>
		</g>
	</g>
	<g>
		<g>
			<path class="st7" d="M29.9,4.3c-0.6,0-1.1,0.5-1.1,1.1s0.5,1.1,1.1,1.1S31,6,31,5.4S30.5,4.3,29.9,4.3z"/>
		</g>
	</g>
	<g>
		<g>
			<path class="st7" d="M60.8,53.2l-7.1-7.4c2.9-0.1,5.2-2.5,5.2-5.4V8.5c0-1.7-0.6-3.4-1.7-4.8c-1.1-1.3-2.6-2.3-4.3-2.6
				C49,0.4,45.1,0,41.3,0h-5.7C31.9,0,28,0.4,24.1,1.1c-3.5,0.7-6,3.8-6,7.4v31.9c0,2.9,2.3,5.3,5.2,5.4l-7.2,7.4
				c-0.3,0.3-0.4,0.8-0.2,1.2c0.2,0.4,0.6,0.7,1,0.7h7.7c0.3,0,0.7-0.2,0.9-0.4l3.3-4.5h19.6l3.3,4.5c0.2,0.3,0.5,0.4,0.9,0.4h7.6
				c0.4,0,0.8-0.3,1-0.7C61.2,54,61.1,53.5,60.8,53.2z M20.2,40.4V8.5c0-2.6,1.8-4.8,4.3-5.3c3.5-0.7,7.2-1.1,11-1.1h5.7
				c3.7,0,7.5,0.4,11.2,1.1c1.2,0.2,2.3,0.9,3.1,1.9c0.8,1,1.2,2.2,1.2,3.4v31.9c0,1.8-1.4,3.2-3.2,3.2H23.5
				C21.7,43.6,20.2,42.2,20.2,40.4z M24.1,52.9h-4.6l6.9-7.1h2.9L24.1,52.9z M30.3,47.9l1.6-2.1h13.4l1.6,2.1H30.3z M53,52.9
				l-5.1-7.1h2.9l6.8,7.1H53z"/>
		</g>
	</g>
	<g>
		<g>
			<path class="st7" d="M53.5,8.6H23.5c-0.6,0-1.1,0.5-1.1,1.1v17.8c0,0.6,0.5,1.1,1.1,1.1h30.1c0.6,0,1.1-0.5,1.1-1.1V9.7
				C54.6,9.1,54.1,8.6,53.5,8.6z M37.4,26.4H24.5V10.7h12.9V26.4z M52.5,26.4H39.6V10.7h12.9V26.4z"/>
		</g>
	</g>
	<g>
		<g>
			<path class="st7" d="M42.8,4.3h-8.6c-0.6,0-1.1,0.5-1.1,1.1s0.5,1.1,1.1,1.1h8.6c0.6,0,1.1-0.5,1.1-1.1S43.4,4.3,42.8,4.3z"/>
		</g>
	</g>
	<g>
		<g>
			<path class="st7" d="M50.3,31.8c-2.4,0-4.3,1.9-4.3,4.3s1.9,4.3,4.3,4.3s4.3-1.9,4.3-4.3S52.7,31.8,50.3,31.8z M50.3,38.2
				c-1.2,0-2.1-1-2.1-2.1s1-2.1,2.1-2.1s2.1,1,2.1,2.1S51.5,38.2,50.3,38.2z"/>
		</g>
	</g>
	<g>
		<g>
			<path class="st7" d="M26.7,31.8c-2.4,0-4.3,1.9-4.3,4.3s1.9,4.3,4.3,4.3c2.4,0,4.3-1.9,4.3-4.3S29.1,31.8,26.7,31.8z M26.7,38.2
				c-1.2,0-2.1-1-2.1-2.1s1-2.1,2.1-2.1s2.1,1,2.1,2.1S27.9,38.2,26.7,38.2z"/>
		</g>
	</g>
	<g>
		<g>
			<path class="st7" d="M42.8,32.9h-8.6c-0.6,0-1.1,0.5-1.1,1.1s0.5,1.1,1.1,1.1h8.6c0.6,0,1.1-0.5,1.1-1.1S43.4,32.9,42.8,32.9z"/>
		</g>
	</g>
	<g>
		<g>
			<path class="st7" d="M42.8,37.2h-8.6c-0.6,0-1.1,0.5-1.1,1.1s0.5,1.1,1.1,1.1h8.6c0.6,0,1.1-0.5,1.1-1.1S43.4,37.2,42.8,37.2z"/>
		</g>
	</g>
</g>
</svg>
