<?xml version="1.0" encoding="utf-8"?>
<!-- Generator: Adobe Illustrator 24.0.2, SVG Export Plug-In . SVG Version: 6.00 Build 0)  -->
<svg version="1.1" id="Layer_1" xmlns="http://www.w3.org/2000/svg" xmlns:xlink="http://www.w3.org/1999/xlink" x="0px" y="0px"
	 viewBox="0 0 82 59" style="enable-background:new 0 0 82 59;" xml:space="preserve">
<style type="text/css">
	.st0{fill:#FC6A55;}
	.st1{stroke:#FFFFFF;stroke-width:0.25;stroke-miterlimit:10;}
	.st2{fill:#656D7A;}
	.st3{fill:#FFFFFF;}
	.st4{filter:url(#Adobe_OpacityMaskFilter);}
	.st5{fill-rule:evenodd;clip-rule:evenodd;fill:#FFFFFF;}
	.st6{mask:url(#mask-2_8_);fill-rule:evenodd;clip-rule:evenodd;}
	.st7{filter:url(#Adobe_OpacityMaskFilter_1_);}
	.st8{mask:url(#mask-2_7_);fill-rule:evenodd;clip-rule:evenodd;}
	.st9{filter:url(#Adobe_OpacityMaskFilter_2_);}
	.st10{mask:url(#mask-2_6_);fill-rule:evenodd;clip-rule:evenodd;}
	.st11{filter:url(#Adobe_OpacityMaskFilter_3_);}
	.st12{mask:url(#mask-2_5_);fill-rule:evenodd;clip-rule:evenodd;}
	.st13{filter:url(#Adobe_OpacityMaskFilter_4_);}
	.st14{mask:url(#mask-2_2_);fill:none;stroke:#000000;stroke-width:2;}
	.st15{fill:#434343;}
	.st16{fill:#434343;stroke:#F9F9F9;stroke-width:0.25;stroke-miterlimit:10;}
	.st17{fill:none;stroke:#FC6A55;stroke-width:0.5;stroke-miterlimit:10;}
</style>
<g>
	<g>
		<path class="st0" d="M56.3,25.2c0.2,0,0.3,0.1,0.5,0.2l2.1,1.4c0.2,0.2,0.5,0.3,0.8,0.3h1.9v-0.6h-1.9c-0.2,0-0.3-0.1-0.5-0.2
			l-0.8-0.6v-10H47v1.8h-3.9v16.7h11.3v-1.8h3.9v-2.5c0,0,0,0,0.1,0l1.4-0.3c0.3-0.1,0.6-0.1,0.9-0.1h0.9v-0.6h-0.9
			c-0.4,0-0.7,0-1.1,0.1l-1.4,0.3c-0.7,0.2-1.5,0.1-2.2-0.1L55.6,29c-0.5-0.2-0.9-0.2-1.4-0.2h-2.6c0-0.5,0.4-0.9,0.9-0.9h3.3
			c0.5,0,0.9-0.4,0.9-0.9c0-0.5-0.3-0.8-0.8-0.9l0.2-0.9H56.3z M55.9,29.7c0.5,0.2,0.9,0.2,1.4,0.2c0.1,0,0.3,0,0.4,0v1.8h-3.3v-1
			c0.1-0.1,0.2-0.3,0.2-0.4l0.2-0.9c0.2,0,0.3,0.1,0.5,0.1L55.9,29.7z M54.4,29.4l-0.2,0.8c-0.1,0.2-0.3,0.4-0.5,0.4h-0.1
			c-0.3,0-0.5-0.2-0.5-0.5c0,0,0-0.1,0-0.1l0.2-0.6h0.9C54.2,29.4,54.3,29.4,54.4,29.4z M52.6,29.4l-0.1,0.4c0,0.1,0,0.2,0,0.3
			c0,0.4,0.2,0.8,0.5,0.9l-0.1,0.4l0.6,0.1l0.1-0.4h0.1c0.1,0,0.2,0,0.2,0v2.4H43.8V18.1h3.9v-1.8h10.1v9l-0.6-0.4
			c-0.2-0.2-0.5-0.3-0.8-0.3h0l1.2-4.6c0-0.1,0-0.2,0-0.3c0-0.6-0.5-1.1-1.1-1.1h-0.1c-0.5,0-0.9,0.3-1,0.8l-0.8,3.1v-5.1h-6.3v0.6
			h5.7v6.5h-0.6c-0.3,0-0.6,0.1-0.9,0.3h-3v0.6h2.3l-0.6,0.6h-1.7v0.6h1.1l-0.5,0.5c-0.2,0.2-0.3,0.4-0.3,0.7c0,0.5,0.4,0.9,0.9,0.9
			c0.1,0,0.2,0,0.3,0c0,0,0,0,0,0c0,0.3,0.3,0.6,0.6,0.6H52.6z M54.9,27.3h-1.1l1.3-4.7l1,0.3L54.9,27.3z M52.6,25.5
			c0.2-0.2,0.4-0.3,0.6-0.3h0.5l-0.2,0.9c-0.4,0-0.7,0.2-1,0.4L51,28.1c-0.1,0.1-0.1,0.1-0.2,0.1c-0.2,0-0.3-0.1-0.3-0.3
			c0-0.1,0-0.2,0.1-0.2L52.6,25.5z M52.9,27c0.1-0.1,0.3-0.2,0.4-0.2l-0.2,0.6h-0.6L52.9,27z M56.9,19.9l-0.4,1.3l-1-0.3l0.3-1.3
			c0.1-0.2,0.3-0.4,0.5-0.4h0.1c0.3,0,0.5,0.2,0.5,0.5C56.9,19.8,56.9,19.8,56.9,19.9z M55.4,21.5l1,0.3l-0.2,0.6l-1-0.3L55.4,21.5z
			 M55.8,26.7c0.2,0,0.3,0.1,0.3,0.3s-0.1,0.3-0.3,0.3h-0.2L55.8,26.7L55.8,26.7z"/>
		<path class="st0" d="M52.1,18.7h-7.7v3h7.7V18.7z M51.5,21H45v-1.8h6.5V21z"/>
		<path class="st0" d="M45.5,19.9h0.6v0.6h-0.6V19.9z"/>
		<path class="st0" d="M46.7,19.9h0.6v0.6h-0.6V19.9z"/>
		<path class="st0" d="M47.9,19.9h0.6v0.6h-0.6V19.9z"/>
		<path class="st0" d="M49.1,19.9h0.6v0.6h-0.6V19.9z"/>
		<path class="st0" d="M50.3,19.9h0.6v0.6h-0.6V19.9z"/>
		<path class="st0" d="M47.9,25.2h-0.6v1.2H45V24h1.8v-0.6h-2.4V27h3.6V25.2z"/>
		<path class="st0" d="M48.9,22.3l-2.8,2.8l-0.4-0.4l-0.4,0.4l0.8,0.8l3.2-3.2L48.9,22.3z"/>
		<path class="st0" d="M47.3,31.5H45v-2.4h1.8v-0.6h-2.4v3.6h3.6v-1.8h-0.6V31.5z"/>
		<path class="st0" d="M45.8,29.8l-0.4,0.4l0.8,0.8l3.2-3.2l-0.4-0.4l-2.8,2.8L45.8,29.8z"/>
		<path class="st0" d="M52.7,32.1h0.6v0.6h-0.6V32.1z"/>
		<path class="st0" d="M48.8,32.1h3.3v0.6h-3.3V32.1z"/>
		<path class="st0" d="M49.4,23.7h3.9v0.6h-3.9V23.7z"/>
	</g>
	<g>
		<g>
			<path class="st0" d="M80.9,29.2l-1.6-1.6L76,17.8c0.5-0.2,0.8-0.6,0.8-1.1c0-0.7-0.5-1.2-1.2-1.2H64v-5.2c0-1.4-1.1-2.5-2.5-2.5
				H2.5C1.1,7.8,0,8.9,0,10.2v28.2C0,39.9,1.1,41,2.5,41h1.4v2.6c0,1.4,1.1,2.5,2.5,2.5h2.8c0.6,2.9,3.1,5.1,6.2,5.1
				c2.1,0,4-1,5.1-2.6c1.2,1.6,3,2.6,5.1,2.6c3.1,0,5.7-2.2,6.2-5.1h29.9c0.6,2.9,3.1,5.1,6.2,5.1c3.5,0,6.3-2.8,6.3-6.3
				c0,0,0-0.1,0-0.1h5.2c1.4,0,2.5-1.1,2.5-2.5V31.8C82,30.8,81.6,29.9,80.9,29.2z M9.1,43.7H6.3c0,0-0.1,0-0.1-0.1V41h4.1
				C9.7,41.8,9.3,42.7,9.1,43.7z M15.3,48.8c-2.2,0-3.9-1.8-3.9-3.9c0-2.2,1.8-3.9,3.9-3.9h0c2.2,0,3.9,1.8,3.9,3.9
				C19.3,47.1,17.5,48.8,15.3,48.8z M25.6,48.8c-2.2,0-3.9-1.8-3.9-3.9c0-2.2,1.8-3.9,3.9-3.9h0c2.2,0,3.9,1.8,3.9,3.9
				C29.5,47.1,27.8,48.8,25.6,48.8z M61.7,43.7H31.8c-0.2-1-0.6-1.9-1.3-2.7h23.3c0.7,0,1.2-0.5,1.2-1.2s-0.5-1.2-1.2-1.2H2.5
				c0,0-0.1,0-0.1-0.1V10.2c0,0,0-0.1,0.1-0.1h59.1c0,0,0.1,0,0.1,0.1v28.3H59c-0.7,0-1.2,0.5-1.2,1.2S58.3,41,59,41h4
				C62.4,41.8,61.9,42.7,61.7,43.7z M77,28.3h-7.7c0,0-0.1,0-0.1-0.1V23h6.1L77,28.3z M68,48.8c-2.2,0-3.9-1.8-3.9-3.9
				c0-2.2,1.8-3.9,3.9-3.9h0c0,0,0,0,0,0c2.2,0,3.9,1.8,3.9,3.9C71.9,47.1,70.1,48.8,68,48.8z M79.6,42.3
				C79.6,42.4,79.6,42.4,79.6,42.3l-5.8,0.1c-1-2.3-3.2-3.9-5.8-3.9c0,0,0,0,0,0H64V17.9v0c0,0,0-0.1,0.1-0.1h9.4l0.9,2.7H68
				c-0.7,0-1.2,0.5-1.2,1.2v6.4c0,1.4,1.1,2.5,2.5,2.5H79l0.2,0.2c0.3,0.3,0.4,0.6,0.4,1v2.9h-1.4c-0.7,0-1.2,0.5-1.2,1.2
				s0.5,1.2,1.2,1.2h1.4V42.3z"/>
		</g>
	</g>
	<g>
		<path class="st0" d="M36.1,18.4H24.1c-0.9,0-1.6,0.7-1.6,1.6v7c0,0.9,0.7,1.6,1.6,1.6h4.3v1.6h-2.2v1.1h-4.9v-2.9
			c0-1.7-1.1-3.2-2.8-3.7l-3.2-0.9v-0.8c1-0.7,1.6-1.9,1.6-3.1v-0.5c0.3,0,0.5-0.2,0.5-0.5v-1.6c0-2.4-1.9-4.3-4.3-4.3H8.4
			c-0.6,0-1.1,0.5-1.1,1.1v2.7c0,1.2,0.8,2.3,2,2.6c0,0,0.1,0,0.1,0V20c0,1.2,0.6,2.4,1.6,3.1v0.8l-3.2,0.9c-1.6,0.5-2.8,2-2.8,3.7
			v5.7c0,0.3,0.2,0.5,0.5,0.5h31.5c0.3,0,0.5-0.2,0.5-0.5v-2.2c0-0.3-0.2-0.5-0.5-0.5h-3.3v-1.1h-2.2v-1.6h4.3
			c0.9,0,1.6-0.7,1.6-1.6v-7C37.7,19.1,37,18.4,36.1,18.4z M8.4,16.8V14h4.9c1.8,0,3.3,1.5,3.3,3.3v1.1h-0.4c-0.5,0-0.9-0.3-1.1-0.8
			l-0.2-0.9c-0.1-0.2-0.2-0.4-0.4-0.4c0,0-0.1,0-0.1,0c-0.2,0-0.3,0.1-0.4,0.2l-0.3,0.4c-0.2,0.3-0.4,0.5-0.7,0.7
			c-0.7,0.5-1.5,0.8-2.4,0.8H10c-0.1,0-0.3,0-0.4-0.1C8.9,18.1,8.4,17.5,8.4,16.8z M10.6,20v-0.5c1.1,0,2.2-0.4,3.1-1.1
			c0.2-0.1,0.3-0.3,0.5-0.4c0.3,0.8,1,1.4,1.9,1.5V20c0,1.5-1.2,2.7-2.7,2.7S10.6,21.5,10.6,20z M13.3,23.8c0.4,0,0.7-0.1,1.1-0.2
			v0.7c0,0.2,0.1,0.3,0.2,0.4l-1.3,1.1L12,24.8c0.1-0.1,0.2-0.2,0.2-0.4v-0.7C12.5,23.8,12.9,23.8,13.3,23.8z M8.2,25.8l2.6-0.7
			l2.1,1.8c0.2,0.2,0.5,0.2,0.7,0l2.1-1.8l2.6,0.7c1.2,0.3,2,1.4,2,2.6v2.9h-1.6v-2.7h-1.1v2.7H8.9v-2.7H7.9v2.7H6.2v-2.9
			C6.2,27.2,7,26.2,8.2,25.8z M36.6,32.5v1.1H6.2v-1.1H36.6z M29.5,30.3v-6h1.1v6H29.5z M36.6,27.1c0,0.3-0.2,0.5-0.5,0.5h-4.3v-3.8
			c0-0.3-0.2-0.5-0.5-0.5H29c-0.3,0-0.5,0.2-0.5,0.5v3.8h-4.3c-0.3,0-0.5-0.2-0.5-0.5v-7c0-0.3,0.2-0.5,0.5-0.5h11.9
			c0.3,0,0.5,0.2,0.5,0.5V27.1z"/>
	</g>
</g>
</svg>
