<?xml version="1.0" encoding="utf-8"?>
<!-- Generator: Adobe Illustrator 24.0.2, SVG Export Plug-In . SVG Version: 6.00 Build 0)  -->
<svg version="1.1" id="Layer_1" xmlns="http://www.w3.org/2000/svg" xmlns:xlink="http://www.w3.org/1999/xlink" x="0px" y="0px"
	 viewBox="0 0 82 59" style="enable-background:new 0 0 82 59;" xml:space="preserve">
<style type="text/css">
	.st0{fill:#FC6A55;}
	.st1{stroke:#FFFFFF;stroke-width:0.25;stroke-miterlimit:10;}
	.st2{fill:#656D7A;}
	.st3{fill:#FFFFFF;}
	.st4{filter:url(#Adobe_OpacityMaskFilter);}
	.st5{fill-rule:evenodd;clip-rule:evenodd;fill:#FFFFFF;}
	.st6{mask:url(#mask-2_8_);fill-rule:evenodd;clip-rule:evenodd;}
	.st7{filter:url(#Adobe_OpacityMaskFilter_1_);}
	.st8{mask:url(#mask-2_7_);fill-rule:evenodd;clip-rule:evenodd;}
	.st9{filter:url(#Adobe_OpacityMaskFilter_2_);}
	.st10{mask:url(#mask-2_6_);fill-rule:evenodd;clip-rule:evenodd;}
	.st11{filter:url(#Adobe_OpacityMaskFilter_3_);}
	.st12{mask:url(#mask-2_5_);fill-rule:evenodd;clip-rule:evenodd;}
	.st13{filter:url(#Adobe_OpacityMaskFilter_4_);}
	.st14{mask:url(#mask-2_2_);fill:none;stroke:#000000;stroke-width:2;}
	.st15{fill:#434343;}
	.st16{fill:#434343;stroke:#F9F9F9;stroke-width:0.25;stroke-miterlimit:10;}
	.st17{fill:none;stroke:#FC6A55;stroke-width:0.5;stroke-miterlimit:10;}
</style>
<g>
	<path class="st0" d="M21,54.2c0,0.5-0.4,1-1,1s-1-0.4-1-1s0.4-1,1-1S21,53.7,21,54.2z"/>
	<path class="st0" d="M49.6,54.2c0,0.5-0.4,1-1,1s-1-0.4-1-1s0.4-1,1-1S49.6,53.7,49.6,54.2z"/>
	<path class="st0" d="M42,54.2c0,0.5-0.4,1-1,1s-1-0.4-1-1s0.4-1,1-1S42,53.7,42,54.2z"/>
	<path class="st0" d="M24.8,40.9h-6.1l-3.4,3.4v4.2h9.5V40.9z M22.9,46.6h-5.7v-1.5l2.3-2.3h3.4V46.6z"/>
	<path class="st0" d="M70.5,11.4v-5L66.3,0H23.4l-4.2,6.4v5H21v25.7h-4.2l-5.3,5.3v10.9c0,1.6,1.3,2.9,2.9,2.9h1.4
		c0.7,1.7,2.4,2.9,4.4,2.9s3.6-1.2,4.4-2.9h12.2c0.7,1.7,2.4,2.9,4.4,2.9c1.6,0,2.9-0.8,3.8-1.9c0.9,1.2,2.2,1.9,3.8,1.9
		c1.9,0,3.6-1.2,4.4-2.9h1.4c1.6,0,2.9-1.3,2.9-2.9v-2.1c0.3,0.1,0.6,0.2,1,0.2h9.5c1.6,0,2.9-1.3,2.9-2.9V39c0-1.2-0.8-2.3-1.9-2.7
		V11.4H70.5z M24.4,1.9h40.9l2.5,3.8h-1.1v1.9h1.9v1.9H21V7.6h1.9V5.7h-1.1L24.4,1.9z M17.6,39h9.1v11.4h-3.8c-0.8-0.6-1.8-1-2.8-1
		s-2,0.4-2.8,1h-3.8v-7.2L17.6,39z M34.3,15.2h3.8v1.9h-3.8V15.2z M40,19v-3.8h5.7V19H42v13.3H40v-3.8h-7.6v3.8h-5.7V15.2h5.7V19H40
		z M51.5,20.9h3.8v1.9h-3.8V20.9z M57.2,24.7v-3.8h5.7v15.2h-4.8c-0.3,0-0.7,0.1-1,0.2v-4H43.9V20.9h5.7v3.8H57.2z M61,38.1h3.8V40
		H61V38.1z M51.4,50.4c-0.8-0.6-1.8-1-2.8-1c-1.6,0-2.9,0.8-3.8,1.9c-0.9-1.2-2.2-1.9-3.8-1.9c-1.1,0-2,0.4-2.8,1h-9.5V34.3h26.6
		v16.2H51.4z M38.1,32.4h-3.8v-1.9h3.8V32.4z M14.4,54.2c-0.5,0-1-0.4-1-1v-1h2.3c-0.3,0.6-0.4,1.2-0.4,1.9H14.4z M20.1,57.1
		c-1.6,0-2.9-1.3-2.9-2.9c0-1.6,1.3-2.9,2.9-2.9s2.9,1.3,2.9,2.9C22.9,55.8,21.6,57.1,20.1,57.1z M24.4,52.3h2.3v1.9h-1.9
		C24.8,53.6,24.7,52.9,24.4,52.3z M28.6,54.2v-1.9h8c-0.3,0.6-0.4,1.2-0.4,1.9H28.6z M41,57.1c-1.6,0-2.9-1.3-2.9-2.9
		c0-1.6,1.3-2.9,2.9-2.9s2.9,1.3,2.9,2.9C43.9,55.8,42.6,57.1,41,57.1z M48.6,57.1c-1.6,0-2.9-1.3-2.9-2.9c0-1.6,1.3-2.9,2.9-2.9
		c1.6,0,2.9,1.3,2.9,2.9C51.5,55.8,50.2,57.1,48.6,57.1z M54.3,54.2h-1c0-0.7-0.1-1.3-0.4-1.9h2.3v1C55.3,53.8,54.8,54.2,54.3,54.2z
		 M64.8,49.5H61v-1.9h3.8V49.5z M68.6,48.5c0,0.5-0.4,1-1,1h-1v-3.8h-7.6v3.8h-1c-0.5,0-1-0.4-1-1V39c0-0.5,0.4-1,1-1h1v3.8h7.6
		v-3.8h1c0.5,0,1,0.4,1,1V48.5z M66.7,36.2h-1.9V19H47.7v-5.7H24.8v20.9h1.9v2.9h-3.8V11.4h43.8V36.2z"/>
	<path class="st0" d="M35.3,36.2v12.4h13.3V36.2H35.3z M46.7,46.6h-9.5v-8.6h9.5V46.6z"/>
	<path class="st0" d="M24.8,5.7h40v1.9h-40V5.7z"/>
</g>
</svg>
