<?xml version="1.0" encoding="utf-8"?>
<!-- Generator: Adobe Illustrator 24.0.2, SVG Export Plug-In . SVG Version: 6.00 Build 0)  -->
<svg version="1.1" id="Layer_1" xmlns="http://www.w3.org/2000/svg" xmlns:xlink="http://www.w3.org/1999/xlink" x="0px" y="0px"
	 viewBox="0 0 82 59" style="enable-background:new 0 0 82 59;" xml:space="preserve">
<style type="text/css">
	.st0{fill:#FC6A55;}
	.st1{stroke:#FFFFFF;stroke-width:0.25;stroke-miterlimit:10;}
	.st2{fill:#656D7A;}
	.st3{fill:#FFFFFF;}
	.st4{filter:url(#Adobe_OpacityMaskFilter);}
	.st5{fill-rule:evenodd;clip-rule:evenodd;fill:#FFFFFF;}
	.st6{mask:url(#mask-2_8_);fill-rule:evenodd;clip-rule:evenodd;}
	.st7{filter:url(#Adobe_OpacityMaskFilter_1_);}
	.st8{mask:url(#mask-2_7_);fill-rule:evenodd;clip-rule:evenodd;}
	.st9{filter:url(#Adobe_OpacityMaskFilter_2_);}
	.st10{mask:url(#mask-2_6_);fill-rule:evenodd;clip-rule:evenodd;}
	.st11{filter:url(#Adobe_OpacityMaskFilter_3_);}
	.st12{mask:url(#mask-2_5_);fill-rule:evenodd;clip-rule:evenodd;}
	.st13{filter:url(#Adobe_OpacityMaskFilter_4_);}
	.st14{mask:url(#mask-2_2_);fill:none;stroke:#000000;stroke-width:2;}
	.st15{fill:#434343;}
	.st16{fill:#434343;stroke:#F9F9F9;stroke-width:0.25;stroke-miterlimit:10;}
	.st17{fill:none;stroke:#FC6A55;stroke-width:0.5;stroke-miterlimit:10;}
</style>
<g>
	<path class="st0" d="M80.6,51.4c-1.5,0-3-0.4-4.3-1.2c-3.5-2-7.8-2-11.2,0c-2.6,1.6-5.9,1.6-8.6,0c-3.5-2-7.8-2-11.2,0
		c-2.6,1.6-5.9,1.6-8.6,0c-1.7-1-3.6-1.6-5.6-1.5c-2,0-3.9,0.5-5.6,1.5c-1.3,0.8-2.8,1.2-4.3,1.2c-1.5,0-3-0.4-4.3-1.2
		c-1.7-1-3.6-1.6-5.6-1.5c-2,0-3.9,0.5-5.6,1.5c-1.3,0.8-2.8,1.2-4.3,1.2C0.6,51.4,0,52,0,52.7c0,0.8,0.6,1.4,1.4,1.4
		c2,0,3.9-0.5,5.6-1.5c1.3-0.8,2.8-1.2,4.3-1.2c1.5,0,3,0.4,4.3,1.2c1.7,1,3.6,1.6,5.6,1.5c2,0,3.9-0.5,5.6-1.5
		c1.3-0.8,2.8-1.2,4.3-1.2c1.5,0,3,0.4,4.3,1.2c3.5,2,7.8,2,11.2,0c2.6-1.6,5.9-1.6,8.6,0c3.5,2,7.8,2,11.2,0c2.6-1.6,6-1.6,8.6,0
		c1.7,1,3.6,1.6,5.6,1.5c0.8,0,1.4-0.6,1.4-1.4C82,52,81.4,51.4,80.6,51.4z"/>
	<path class="st0" d="M0,47.3c0,0.8,0.6,1.4,1.4,1.4c2,0,3.9-0.5,5.6-1.5c1.3-0.8,2.8-1.2,4.3-1.2c1.5,0,3,0.4,4.3,1.2
		c1.7,1,3.6,1.6,5.6,1.5c2,0,3.9-0.5,5.6-1.5c1.3-0.8,2.8-1.2,4.3-1.2c1.5,0,3,0.4,4.3,1.2c3.5,2,7.8,2,11.2,0
		c1.3-0.8,2.8-1.2,4.3-1.2c1.5,0,3,0.4,4.3,1.2c3.5,2,7.8,2,11.2,0c1.3-0.8,2.8-1.2,4.3-1.2c0.3,0,0.6,0,0.8,0
		c1.2,0.1,2.4,0.5,3.4,1.2c1.7,1,3.6,1.6,5.6,1.5c0.8,0,1.4-0.6,1.4-1.4c0-0.8-0.6-1.4-1.4-1.4c-1.5,0-3-0.4-4.3-1.2
		c-0.8-0.5-1.7-0.9-2.6-1.1l8.1-16.2c0.2-0.4,0.2-0.9-0.1-1.3c-0.2-0.4-0.7-0.6-1.2-0.6h-6.8V6.3c0-0.8-0.6-1.4-1.4-1.4H23.2
		c-0.8,0-1.4,0.6-1.4,1.4v23.2h-2.7V9c0-0.8-0.6-1.4-1.4-1.4H6.8c-0.7,0-1.2,0.5-1.3,1.2L2.9,25.4H1.4C0.6,25.4,0,26,0,26.8v12.3
		c0,0.2,0.1,0.5,0.2,0.7l3.5,5.8c-0.8,0.2-1.5,0.3-2.3,0.3C0.6,45.9,0,46.5,0,47.3z M64.2,25.4c-0.3,0-0.6,0.1-0.8,0.3l-5.1,3.8
		h-0.9V24h13.7v1.4H64.2z M41,29.5V24h13.7v5.5H41z M24.6,15.8h13.7v5.5H24.6V15.8z M71.1,21.3H57.4v-5.5h13.7V21.3z M54.7,21.3H41
		v-5.5h13.7V21.3z M71.1,13.1H57.4V7.6h13.7V13.1z M54.7,13.1H41V7.6h13.7V13.1z M24.6,7.6h13.7v5.5H24.6V7.6z M24.6,24h13.7v5.5
		H24.6V24z M8,10.4h8.4v17.2l-1.8-1.8c-0.3-0.3-0.6-0.4-1-0.4h-8L8,10.4z M2.7,28.1h10.4l3.7,3.7c0.3,0.3,0.6,0.4,1,0.4h41
		c0.3,0,0.6-0.1,0.8-0.3l5.1-3.8h13.7l-7.6,15c0,0-0.1,0-0.1,0c-2,0-3.9,0.5-5.6,1.5c-2.6,1.6-6,1.6-8.6,0c-3.5-2-7.8-2-11.2,0
		c-2.6,1.6-6,1.6-8.6,0c-1.7-1-3.6-1.6-5.6-1.5c-2,0-3.9,0.5-5.6,1.5c-1.3,0.8-2.8,1.2-4.3,1.2c-1.5,0-3-0.4-4.3-1.2
		c-1.7-1-3.6-1.6-5.6-1.5c-0.3,0-0.6,0-0.9,0c-0.1,0-0.2,0-0.3,0c-0.2,0-0.4,0-0.6,0.1c-0.1,0-0.2,0-0.3,0.1c-0.2,0-0.3,0.1-0.5,0.1
		c-0.1,0-0.2,0-0.3,0.1c-0.1,0-0.3,0.1-0.4,0.1c-0.1,0-0.2,0.1-0.2,0.1c-0.1,0-0.3,0.1-0.4,0.1c-0.1,0-0.1,0.1-0.2,0.1
		C7,44,6.9,44.1,6.8,44.1l-0.1,0c-0.2,0.1-0.3,0.2-0.5,0.3l-3.4-5.7V28.1z"/>
	<path class="st0" d="M12.3,11.7h-1.4c-0.8,0-1.4,0.6-1.4,1.4c0,0.8,0.6,1.4,1.4,1.4h1.4c0.8,0,1.4-0.6,1.4-1.4
		C13.7,12.3,13.1,11.7,12.3,11.7z"/>
	<path class="st0" d="M12.3,37.7h1.4c0.8,0,1.4-0.6,1.4-1.4c0-0.8-0.6-1.4-1.4-1.4h-1.4c-0.8,0-1.4,0.6-1.4,1.4
		C10.9,37.1,11.5,37.7,12.3,37.7z"/>
	<path class="st0" d="M19.1,37.7h1.4c0.8,0,1.4-0.6,1.4-1.4c0-0.8-0.6-1.4-1.4-1.4h-1.4c-0.8,0-1.4,0.6-1.4,1.4
		C17.8,37.1,18.4,37.7,19.1,37.7z"/>
	<path class="st0" d="M26,37.7h1.4c0.8,0,1.4-0.6,1.4-1.4c0-0.8-0.6-1.4-1.4-1.4H26c-0.8,0-1.4,0.6-1.4,1.4
		C24.6,37.1,25.2,37.7,26,37.7z"/>
	<path class="st0" d="M32.8,37.7h1.4c0.8,0,1.4-0.6,1.4-1.4c0-0.8-0.6-1.4-1.4-1.4h-1.4c-0.8,0-1.4,0.6-1.4,1.4
		C31.4,37.1,32,37.7,32.8,37.7z"/>
	<path class="st0" d="M39.6,37.7H41c0.8,0,1.4-0.6,1.4-1.4c0-0.8-0.6-1.4-1.4-1.4h-1.4c-0.8,0-1.4,0.6-1.4,1.4
		C38.3,37.1,38.9,37.7,39.6,37.7z"/>
	<path class="st0" d="M46.5,37.7h1.4c0.8,0,1.4-0.6,1.4-1.4c0-0.8-0.6-1.4-1.4-1.4h-1.4c-0.8,0-1.4,0.6-1.4,1.4
		C45.1,37.1,45.7,37.7,46.5,37.7z"/>
	<path class="st0" d="M53.3,37.7h1.4c0.8,0,1.4-0.6,1.4-1.4c0-0.8-0.6-1.4-1.4-1.4h-1.4c-0.8,0-1.4,0.6-1.4,1.4
		C51.9,37.1,52.5,37.7,53.3,37.7z"/>
	<path class="st0" d="M60.1,37.7h1.4c0.8,0,1.4-0.6,1.4-1.4c0-0.8-0.6-1.4-1.4-1.4h-1.4c-0.8,0-1.4,0.6-1.4,1.4
		C58.8,37.1,59.4,37.7,60.1,37.7z"/>
	<path class="st0" d="M67,37.7h1.4c0.8,0,1.4-0.6,1.4-1.4c0-0.8-0.6-1.4-1.4-1.4H67c-0.8,0-1.4,0.6-1.4,1.4
		C65.6,37.1,66.2,37.7,67,37.7z"/>
</g>
</svg>
