<?xml version="1.0" encoding="utf-8"?>
<!-- Generator: Adobe Illustrator 24.0.2, SVG Export Plug-In . SVG Version: 6.00 Build 0)  -->
<svg version="1.1" id="Layer_1" xmlns="http://www.w3.org/2000/svg" xmlns:xlink="http://www.w3.org/1999/xlink" x="0px" y="0px"
	 viewBox="0 0 58.3 58.8" style="enable-background:new 0 0 58.3 58.8;" xml:space="preserve">
<style type="text/css">
	.st0{fill:#FC6A55;}
	.st1{stroke:#FFFFFF;stroke-width:0.25;stroke-miterlimit:10;}
	.st2{fill:#656D7A;}
	.st3{fill:#FFFFFF;}
	.st4{filter:url(#Adobe_OpacityMaskFilter);}
	.st5{fill-rule:evenodd;clip-rule:evenodd;fill:#FFFFFF;}
	.st6{mask:url(#mask-2_8_);fill-rule:evenodd;clip-rule:evenodd;}
	.st7{filter:url(#Adobe_OpacityMaskFilter_1_);}
	.st8{mask:url(#mask-2_7_);fill-rule:evenodd;clip-rule:evenodd;}
	.st9{filter:url(#Adobe_OpacityMaskFilter_2_);}
	.st10{mask:url(#mask-2_6_);fill-rule:evenodd;clip-rule:evenodd;}
	.st11{filter:url(#Adobe_OpacityMaskFilter_3_);}
	.st12{mask:url(#mask-2_5_);fill-rule:evenodd;clip-rule:evenodd;}
	.st13{filter:url(#Adobe_OpacityMaskFilter_4_);}
	.st14{mask:url(#mask-2_2_);fill:none;stroke:#000000;stroke-width:2;}
	.st15{fill:#434343;}
	.st16{fill:#434343;stroke:#F9F9F9;stroke-width:0.25;stroke-miterlimit:10;}
	.st17{fill:none;stroke:#FC6A55;stroke-width:0.5;stroke-miterlimit:10;}
	.st18{fill:none;stroke:#FC6A55;stroke-width:0.75;stroke-miterlimit:10;}
	.st19{fill:#FC6A55;stroke:#FC6A55;stroke-width:0.5;stroke-miterlimit:10;}
</style>
<g>
	<g>
		<g>
			<path class="st0" d="M17.9,29.2H8c-0.9,0-1.6,0.7-1.6,1.6v6.9c0,0.9,0.7,1.6,1.6,1.6h9.9c0.9,0,1.6-0.7,1.6-1.6v-6.9
				C19.5,30,18.8,29.2,17.9,29.2z M16.3,36.1H9.6v-3.7h6.7V36.1z"/>
		</g>
	</g>
	<g>
		<g>
			<path class="st0" d="M56.7,25.2l-3.4-0.3c-0.4-1.4-1-2.7-1.7-4l2.2-2.6c0.5-0.6,0.5-1.6-0.1-2.1l-4.3-4.3
				c-0.6-0.6-1.5-0.6-2.2-0.1l-2.6,2.2c-1.2-0.7-2.6-1.3-3.9-1.7l-0.3-3.4c-0.1-0.8-0.8-1.4-1.6-1.4h-5.4V2.6c0-0.9-0.7-1.6-1.6-1.6
				c-0.9,0-1.6,0.7-1.6,1.6v2.9h-16c-2.4,0-4.6,1.5-5.4,3.8l-4.8,13c0,0,0,0,0,0.1l-1.2,1.1c-1.6,1.5-2.5,3.6-2.5,5.8v19.1
				c0,3.2,2.7,5.7,5.9,5.7h3.5c3.2,0,5.9-2.5,5.9-5.7v-2.5h14.7v10.3c0,0.9,0.7,1.6,1.6,1.6s1.6-0.7,1.6-1.6v-3.8h5.4
				c0.8,0,1.5-0.6,1.6-1.5l0.3-3.4c1.4-0.4,2.7-0.9,3.9-1.7l2.6,2.2c0.6,0.5,1.6,0.5,2.1-0.1l4.3-4.3c0.6-0.6,0.6-1.5,0.1-2.2
				l-2.2-2.6c0.7-1.2,1.3-2.6,1.7-3.9l3.4-0.3c0.8-0.1,1.5-0.8,1.5-1.6v-6.1C58.1,26,57.5,25.3,56.7,25.2z M12.2,48.4
				c0,1.4-1.2,2.5-2.7,2.5H6c-1.4,0-2.7-1.1-2.7-2.5v-3c0.8,0.4,1.7,0.6,2.7,0.6h6.2V48.4z M30.1,30.7h-5c-0.9,0-1.6,0.7-1.6,1.6
				c0,0.9,0.7,1.6,1.6,1.6h5v0.8h-5c-0.9,0-1.6,0.7-1.6,1.6c0,0.9,0.7,1.6,1.6,1.6h5v4.8H6c-1.4,0-2.7-1.1-2.7-2.5V29.2
				c0-1.3,0.6-2.5,1.5-3.4l1.4-1.4h23.8L30.1,30.7L30.1,30.7z M13.4,21.2c0.7-2.6,3.1-4.6,6-4.6s5.2,2,5.9,4.6H13.4z M30.1,21.2
				h-1.5c-0.8-4.3-4.6-7.8-9.2-7.8s-8.5,3.4-9.2,7.8H7.7l4-10.8c0.4-1,1.3-1.7,2.4-1.7h16V21.2z M33.3,23.1c3.7-1.3,7.8,0.6,9.1,4.4
				c1.3,3.7-0.6,7.8-4.4,9.1c-1.5,0.5-3.2,0.5-4.8,0V23.1z M54.9,31.5L54.9,31.5l-3.1,0.3c-0.7,0.1-1.3,0.6-1.4,1.2
				c-0.4,1.8-1.1,3.5-2.1,5c-0.4,0.6-0.3,1.3,0.1,1.9l2,2.4l-2.2,2.2l-2.4-2c-0.5-0.4-1.3-0.5-1.9-0.1c-1.5,1-3.2,1.7-5,2.1
				c-0.7,0.1-1.2,0.7-1.2,1.4l-0.3,3.1h-4V40c5.6,1.3,11.2-2.1,12.5-7.7c1.3-5.6-2.1-11.2-7.7-12.5c-1.6-0.4-3.2-0.4-4.8,0v-9.1h4
				l0.3,3.1c0.1,0.7,0.6,1.3,1.2,1.4c1.8,0.4,3.5,1.1,5,2.1c0.6,0.4,1.3,0.3,1.9-0.1l2.4-2l2.2,2.2l-2,2.4c-0.4,0.5-0.5,1.3-0.1,1.9
				c1,1.5,1.7,3.2,2.1,5c0.2,0.7,0.7,1.2,1.4,1.2l3.1,0.3L54.9,31.5L54.9,31.5z"/>
		</g>
	</g>
</g>
</svg>
