<?xml version="1.0" encoding="utf-8"?>
<!-- Generator: Adobe Illustrator 24.1.1, SVG Export Plug-In . SVG Version: 6.00 Build 0)  -->
<svg version="1.1" id="Layer_1" xmlns="http://www.w3.org/2000/svg" xmlns:xlink="http://www.w3.org/1999/xlink" x="0px" y="0px"
	 viewBox="0 0 42 42" style="enable-background:new 0 0 42 42;" xml:space="preserve">
<style type="text/css">
	.st0{fill:#FC6A55;}
	.st1{fill:#EDEDED;}
	.st2{fill:none;stroke:#FC6A55;stroke-miterlimit:10;}
	.st3{fill:#222F3F;}
	.st4{fill:#383838;}
	.st5{fill:#FFFFFF;}
	.st6{stroke:#FFFFFF;stroke-width:0.25;stroke-miterlimit:10;}
	.st7{fill:#656D7A;}
	.st8{filter:url(#Adobe_OpacityMaskFilter);}
	.st9{fill-rule:evenodd;clip-rule:evenodd;fill:#FFFFFF;}
	.st10{mask:url(#mask-2_8_);fill-rule:evenodd;clip-rule:evenodd;}
	.st11{filter:url(#Adobe_OpacityMaskFilter_1_);}
	.st12{mask:url(#mask-2_7_);fill-rule:evenodd;clip-rule:evenodd;}
	.st13{filter:url(#Adobe_OpacityMaskFilter_2_);}
	.st14{mask:url(#mask-2_6_);fill-rule:evenodd;clip-rule:evenodd;}
	.st15{filter:url(#Adobe_OpacityMaskFilter_3_);}
	.st16{mask:url(#mask-2_5_);fill-rule:evenodd;clip-rule:evenodd;}
	.st17{filter:url(#Adobe_OpacityMaskFilter_4_);}
	.st18{mask:url(#mask-2_2_);fill:none;stroke:#000000;stroke-width:2;}
	.st19{fill:#B4A3EE;}
	.st20{fill:#434343;}
	.st21{fill:#434343;stroke:#F9F9F9;stroke-width:0.25;stroke-miterlimit:10;}
	.st22{fill:none;stroke:#FC6A55;stroke-width:0.5;stroke-miterlimit:10;}
	.st23{fill:none;stroke:#FC6A55;stroke-width:0.75;stroke-miterlimit:10;}
	.st24{fill:#FC6A55;stroke:#FC6A55;stroke-width:0.5;stroke-miterlimit:10;}
	.st25{opacity:0.153;fill:url(#Path_36_);enable-background:new    ;}
	.st26{opacity:0.1;fill:#590BB2;enable-background:new    ;}
	.st27{fill:#8E8CA8;}
	.st28{fill:#F5F4F9;}
	.st29{fill:#FFD5B8;}
	.st30{fill:#FC8473;}
	.st31{fill:#1C3475;}
	.st32{fill:#DDD9E4;}
	.st33{fill:#828FB3;}
	.st34{opacity:7.584635e-02;fill:url(#Path_37_);enable-background:new    ;}
	.st35{fill:#FFBE92;}
	.st36{fill:#FB8E7F;}
	.st37{fill:#FDB1A6;}
	.st38{fill:#FC806F;}
	.st39{fill:#FFE783;}
	.st40{fill:#104478;}
	.st41{fill:none;stroke:#FFFFFF;stroke-miterlimit:10;}
	.st42{fill:none;stroke:#000000;stroke-width:0.15;stroke-miterlimit:10;}
	.st43{opacity:0.1;fill:url(#Path_38_);enable-background:new    ;}
	.st44{opacity:0.1;fill:url(#Path_39_);enable-background:new    ;}
	.st45{fill-rule:evenodd;clip-rule:evenodd;fill:#FC6A55;}
	.st46{fill-rule:evenodd;clip-rule:evenodd;}
	.st47{fill:#FF6757;}
	.st48{fill:#666666;}
	.st49{fill:none;stroke:#FFFFFF;stroke-width:0.5;stroke-miterlimit:10;}
	.st50{fill:#F16A56;}
	.st51{fill:#515252;}
	.st52{fill:#F26A56;}
	.st53{fill:none;stroke:#F16A56;stroke-miterlimit:10;}
	.st54{fill:none;stroke:#929292;stroke-miterlimit:10;}
	.st55{fill:#929292;}
	.st56{fill:none;stroke:#000000;stroke-width:0.5;stroke-miterlimit:10;}
	.st57{fill:#A8A7A7;}
	.st58{fill:#F79F91;}
	.st59{fill:#9BDBD5;}
	.st60{fill:#222121;}
</style>
<g>
	<path class="st3" d="M41.9,35v-5.1l-2-0.5c0,0,0-0.1,0-0.1l1-1.7L37.4,24l-1.7,1c0,0-0.1,0-0.1,0L35,23h-5.1l-0.5,2
		c0,0-0.1,0-0.1,0l-1.7-1L24,27.6l1,1.7c0,0,0,0.1,0,0.1l-2,0.5V35l2,0.5c0,0,0,0.1,0,0.1l-1,1.7l3.6,3.6l1.7-1c0,0,0.1,0,0.1,0
		l0.5,2H35l0.5-2c0,0,0.1,0,0.1,0l1.7,1l3.6-3.6l-1-1.7c0,0,0-0.1,0-0.1L41.9,35z M39.3,37.1l-2.1,2.1l-1.4-0.9l-0.3,0.2
		c-0.2,0.1-0.4,0.2-0.6,0.3L34.4,39L34,40.6h-3L30.6,39l-0.3-0.1c-0.2-0.1-0.4-0.2-0.6-0.3l-0.3-0.2l-1.4,0.9l-2.1-2.1l0.9-1.4
		l-0.2-0.3c-0.1-0.2-0.2-0.4-0.3-0.6L26,34.4L24.4,34v-3l1.6-0.4l0.1-0.3c0.1-0.2,0.2-0.4,0.3-0.6l0.2-0.3l-0.9-1.4l2.1-2.1l1.4,0.9
		l0.3-0.2c0.2-0.1,0.4-0.2,0.6-0.3l0.3-0.1l0.4-1.6h3l0.4,1.6l0.3,0.1c0.2,0.1,0.4,0.2,0.6,0.3l0.3,0.2l1.4-0.9l2.1,2.1l-0.9,1.4
		l0.2,0.3c0.1,0.2,0.2,0.4,0.3,0.6l0.1,0.3l1.6,0.4v3L39,34.4l-0.1,0.3c-0.1,0.2-0.2,0.4-0.3,0.6l-0.2,0.3L39.3,37.1z"/>
	<path class="st3" d="M32.5,27.1c-3,0-5.4,2.4-5.4,5.4s2.4,5.4,5.4,5.4s5.4-2.4,5.4-5.4S35.5,27.1,32.5,27.1z M32.5,36.5
		c-2.2,0-4.1-1.8-4.1-4.1s1.8-4.1,4.1-4.1s4.1,1.8,4.1,4.1S34.7,36.5,32.5,36.5z"/>
	<path class="st3" d="M32.5,29.8c-1.5,0-2.7,1.2-2.7,2.7c0,1.5,1.2,2.7,2.7,2.7c1.5,0,2.7-1.2,2.7-2.7C35.2,31,34,29.8,32.5,29.8z
		 M32.5,33.8c-0.7,0-1.4-0.6-1.4-1.4c0-0.7,0.6-1.4,1.4-1.4c0.7,0,1.4,0.6,1.4,1.4C33.8,33.2,33.2,33.8,32.5,33.8z"/>
	<path class="st3" d="M17.2,11.5c0.2,0.7,0.6,1.2,1.1,1.7v0.6L15.1,15c-1.3,0.5-2.2,1.8-2.2,3.2v3.5h16.2v-3.5
		c0-1.4-0.9-2.7-2.2-3.2l-3.2-1.2v-0.6c0.5-0.5,0.9-1,1.1-1.7c1.3-0.2,2.2-1.3,2.2-2.7V6.1c0-3.4-2.7-6.1-6.1-6.1s-6.1,2.7-6.1,6.1
		v2.7C14.9,10.2,15.9,11.3,17.2,11.5z M22.4,14.1L21,16.3l-1.4-2.3v0c0.4,0.2,0.9,0.2,1.4,0.2S21.9,14.2,22.4,14.1L22.4,14.1z
		 M18.7,15.1l1.4,2.3L18.7,18l-0.9-2.6L18.7,15.1z M27.8,18.1v2.2H14.2v-2.2c0-0.8,0.5-1.6,1.3-1.9l1-0.4l1.3,4.1l3.1-1.5l3.1,1.5
		l1.3-4.1l1,0.4C27.2,16.5,27.8,17.3,27.8,18.1z M24.2,15.4L23.3,18L22,17.3l1.4-2.3L24.2,15.4z M21,12.9c-1.5,0-2.7-1.2-2.7-2.7
		V7.4c1-0.1,1.9-0.5,2.7-1.1c0.8,0.6,1.7,1,2.7,1.1v2.7C23.7,11.7,22.5,12.9,21,12.9z M25.1,10V7.7c0.4,0.2,0.7,0.7,0.7,1.2
		S25.5,9.8,25.1,10z M21,1.4c2.6,0,4.7,2.1,4.7,4.7v0.4c-0.4-0.2-0.9-0.4-1.4-0.4h-0.1c-1.1,0-2-0.4-2.8-1.2L21,4.5L20.5,5
		c-0.7,0.7-1.7,1.2-2.8,1.2h-0.1c-0.5,0-1,0.1-1.4,0.4V6.1C16.3,3.5,18.4,1.4,21,1.4z M16.9,7.7V10c-0.4-0.2-0.7-0.7-0.7-1.2
		S16.5,7.9,16.9,7.7z"/>
	<path class="st3" d="M0.1,41.9h13.5V24.4H0.1V41.9z M1.4,25.7h10.8v14.9H1.4V25.7z"/>
	<path class="st3" d="M2.8,27.1h8.1v1.4H2.8V27.1z"/>
	<path class="st3" d="M2.8,29.8h1.4v1.4H2.8V29.8z"/>
	<path class="st3" d="M5.5,29.8h5.4v1.4H5.5V29.8z"/>
	<path class="st3" d="M2.8,32.5h8.1v1.4H2.8V32.5z"/>
	<path class="st3" d="M2.8,35.2h8.1v1.4H2.8V35.2z"/>
	<path class="st3" d="M9.5,37.9h1.4v1.4H9.5V37.9z"/>
	<path class="st3" d="M2.8,37.9h5.4v1.4H2.8V37.9z"/>
	<path class="st3" d="M18.1,30.3l-1-1L14,32.5l3.2,3.2l1-1l-1.5-1.5h5.1v-1.4h-5.1L18.1,30.3z"/>
	<path class="st3" d="M7.5,10.9c0-0.4,0.3-0.7,0.7-0.7h3.1l-1.5,1.5l1,1l3.2-3.2l-3.2-3.2l-1,1l1.5,1.5H8.2c-1.1,0-2,0.9-2,2V23h1.4
		V10.9z"/>
	<path class="st3" d="M32.5,10.9v8.5l-1.5-1.5l-1,1l3.2,3.2l3.2-3.2l-1-1l-1.5,1.5v-8.5c0-1.1-0.9-2-2-2h-3.4v1.4h3.4
		C32.2,10.2,32.5,10.5,32.5,10.9z"/>
</g>
</svg>
