<?xml version="1.0" encoding="utf-8"?>
<!-- Generator: Adobe Illustrator 24.0.2, SVG Export Plug-In . SVG Version: 6.00 Build 0)  -->
<svg version="1.1" id="Layer_1" xmlns="http://www.w3.org/2000/svg" xmlns:xlink="http://www.w3.org/1999/xlink" x="0px" y="0px"
	 viewBox="0 0 18 24" style="enable-background:new 0 0 18 24;" xml:space="preserve">
<style type="text/css">
	.st0{fill:#FC6A55;}
	.st1{fill:#EDEDED;}
	.st2{fill:none;stroke:#FC6A55;stroke-miterlimit:10;}
	.st3{stroke:#FFFFFF;stroke-width:0.25;stroke-miterlimit:10;}
	.st4{fill:#656D7A;}
	.st5{fill:#FFFFFF;}
	.st6{filter:url(#Adobe_OpacityMaskFilter);}
	.st7{fill-rule:evenodd;clip-rule:evenodd;fill:#FFFFFF;}
	.st8{mask:url(#mask-2_8_);fill-rule:evenodd;clip-rule:evenodd;}
	.st9{filter:url(#Adobe_OpacityMaskFilter_1_);}
	.st10{mask:url(#mask-2_7_);fill-rule:evenodd;clip-rule:evenodd;}
	.st11{filter:url(#Adobe_OpacityMaskFilter_2_);}
	.st12{mask:url(#mask-2_6_);fill-rule:evenodd;clip-rule:evenodd;}
	.st13{filter:url(#Adobe_OpacityMaskFilter_3_);}
	.st14{mask:url(#mask-2_5_);fill-rule:evenodd;clip-rule:evenodd;}
	.st15{filter:url(#Adobe_OpacityMaskFilter_4_);}
	.st16{mask:url(#mask-2_2_);fill:none;stroke:#000000;stroke-width:2;}
	.st17{fill:#434343;}
	.st18{fill:#434343;stroke:#F9F9F9;stroke-width:0.25;stroke-miterlimit:10;}
	.st19{fill:none;stroke:#FC6A55;stroke-width:0.5;stroke-miterlimit:10;}
	.st20{fill:none;stroke:#FC6A55;stroke-width:0.75;stroke-miterlimit:10;}
	.st21{fill:#FC6A55;stroke:#FC6A55;stroke-width:0.5;stroke-miterlimit:10;}
	.st22{opacity:0.153;fill:url(#Path_146_);enable-background:new    ;}
	.st23{opacity:0.1;fill:#590BB2;enable-background:new    ;}
	.st24{fill:#8E8CA8;}
	.st25{fill:#F5F4F9;}
	.st26{fill:#FFD5B8;}
	.st27{fill:#FC8473;}
	.st28{fill:#1C3475;}
	.st29{fill:#DDD9E4;}
	.st30{fill:#828FB3;}
	.st31{opacity:7.584635e-02;fill:url(#Path_147_);enable-background:new    ;}
	.st32{fill:#FFBE92;}
	.st33{fill:#FB8E7F;}
	.st34{fill:#FDB1A6;}
	.st35{fill:#FC806F;}
	.st36{fill:#FFE783;}
	.st37{fill:#104478;}
	.st38{fill:none;stroke:#FFFFFF;stroke-miterlimit:10;}
	.st39{fill:none;stroke:#000000;stroke-width:0.15;stroke-miterlimit:10;}
	.st40{opacity:0.1;fill:url(#Path_148_);enable-background:new    ;}
	.st41{opacity:0.1;fill:url(#Path_149_);enable-background:new    ;}
</style>
<g>
	<path d="M17.9,4.2c-0.1-0.2-0.2-0.4-0.4-0.6c-0.2-0.2-0.3-0.3-0.6-0.4c-0.2-0.1-0.4-0.1-0.7-0.1h-5.5c-0.2,0-0.4,0.2-0.4,0.4
		s0.2,0.4,0.4,0.4h5.5c0.6,0,1.1,0.5,1.1,1.1v9.6H0.7V4.9c0-0.6,0.5-1.1,1.1-1.1h5.8c0.2,0,0.4-0.2,0.4-0.4S7.8,3.2,7.6,3.2H1.8
		c-0.2,0-0.5,0-0.7,0.1C0.9,3.4,0.7,3.5,0.5,3.7C0.4,3.9,0.2,4,0.1,4.2C0,4.5,0,4.7,0,4.9v11.3c0,1,0.8,1.8,1.8,1.8h1.7l-0.9,2.3
		c0,0.1,0,0.2,0,0.3c0.1,0.1,0.2,0.2,0.3,0.2H5c0.1,0,0.3-0.1,0.3-0.2l0.4-1.2h6.3l0.4,1.2c0.1,0.1,0.2,0.2,0.3,0.2h2.1
		c0.1,0,0.2-0.1,0.3-0.2c0.1-0.1,0.1-0.2,0-0.3L14.4,18h1.9c1,0,1.8-0.8,1.8-1.8V4.9C18,4.7,18,4.5,17.9,4.2z M4.8,20.1H3.5L4.2,18
		h1.3L4.8,20.1z M6,18.7L6.3,18h5.3l0.3,0.7H6z M14.4,20.1h-1.3L12.3,18h1.3L14.4,20.1z M17.3,16.3c0,0.6-0.5,1.1-1.1,1.1H1.8
		c-0.6,0-1.1-0.5-1.1-1.1v-1.1h16.6V16.3z"/>
	<circle cx="9.1" cy="3.5" r="0.4"/>
	<circle cx="10.5" cy="16.3" r="0.4"/>
	<circle cx="8.9" cy="16.3" r="0.4"/>
	<circle cx="7.3" cy="16.3" r="0.4"/>
	<g>
		<path d="M4.2,11.8c0.1-0.1,0.2-0.2,0.1-0.3c-0.1-0.1-0.2-0.2-0.3-0.1c-0.1,0.1-0.2,0.2-0.1,0.3C4,11.9,4.1,11.9,4.2,11.8z"/>
		<path d="M3.3,13.5l1.2,2c0.3,0.4,0.8,0.6,1.3,0.3c0.4-0.3,0.6-0.8,0.3-1.3l-0.7-1.2L6,13c0.1-0.1,0.2-0.2,0.1-0.3l-0.3-0.5
			c0,0,0.3-0.1,4.5-0.9c0.5,0,0.8-0.6,0.6-1.1L10,8.9l0.5-0.8c0-0.1,0.1-0.2,0-0.2L10,7.1C10,7,9.9,6.9,9.8,6.9L8.9,7L8.1,5.5
			C7.9,5.3,7.7,5.1,7.5,5.1c0,0,0,0,0,0C7.2,5.1,7,5.3,6.9,5.5L3.8,9.4l-2,1.1C1,11,0.8,12,1.2,12.8C1.6,13.5,2.5,13.7,3.3,13.5z
			 M5.6,14.8c0.1,0.2,0.1,0.5-0.2,0.6c-0.2,0.1-0.5,0.1-0.6-0.2l-1.2-2l0.8-0.5C5.8,15.1,5.6,14.8,5.6,14.8z M5.1,12.9l-0.2-0.4
			l0.4-0.2l0.2,0.4L5.1,12.9z M9.7,7.4L10,8L9.8,8.4l-0.6-1L9.7,7.4z M7.3,5.7c0.1-0.1,0.2-0.1,0.2-0.1c0,0,0.1,0,0.2,0.1l2.7,4.7
			c0.1,0.2,0,0.3-0.2,0.4c0,0,0,0-0.1,0l-2.9-5C7.2,5.8,7.2,5.7,7.3,5.7z M6.9,6.2l2.7,4.7l-4.1,0.8L4.2,9.6L6.9,6.2z M1.6,12.5
			c-0.1-0.2-0.2-0.4-0.2-0.6c0-0.4,0.2-0.8,0.6-1l1.8-1.1l1.2,2l-1.8,1.1C2.7,13.3,2,13.1,1.6,12.5z"/>
		<path d="M3.5,12c-0.1-0.1-0.2-0.2-0.3-0.1l-0.4,0.2c-0.1,0.1-0.3,0-0.3-0.1c-0.1-0.1-0.2-0.2-0.3-0.1S2,12.2,2,12.3
			c0.2,0.3,0.6,0.5,1,0.3l0.4-0.2C3.5,12.2,3.5,12.1,3.5,12z"/>
		<path d="M12.6,5.6l-1.3,0.7c-0.1,0.1-0.2,0.2-0.1,0.3c0.1,0.1,0.2,0.2,0.3,0.1l1.3-0.7C13,6,13,5.8,13,5.7
			C12.9,5.6,12.8,5.6,12.6,5.6z"/>
		<path d="M12.5,8.1l-0.9-0.2c-0.1,0-0.3,0-0.3,0.2c0,0.1,0,0.3,0.2,0.3l0.9,0.2c0.1,0,0.3,0,0.3-0.2C12.7,8.2,12.6,8.1,12.5,8.1z"
			/>
		<path d="M10.2,4.8L10,5.7C10,5.8,10,6,10.2,6c0.1,0,0.3,0,0.3-0.2l0.2-0.9c0-0.1,0-0.3-0.2-0.3C10.4,4.6,10.3,4.7,10.2,4.8z"/>
	</g>
</g>
</svg>
