<?xml version="1.0" encoding="utf-8"?>
<!-- Generator: Adobe Illustrator 24.0.2, SVG Export Plug-In . SVG Version: 6.00 Build 0)  -->
<svg version="1.1" id="Layer_1" xmlns="http://www.w3.org/2000/svg" xmlns:xlink="http://www.w3.org/1999/xlink" x="0px" y="0px"
	 viewBox="0 0 18 24" style="enable-background:new 0 0 18 24;" xml:space="preserve">
<style type="text/css">
	.st0{fill:#FC6A55;}
	.st1{fill:#EDEDED;}
	.st2{fill:none;stroke:#FC6A55;stroke-miterlimit:10;}
	.st3{stroke:#FFFFFF;stroke-width:0.25;stroke-miterlimit:10;}
	.st4{fill:#656D7A;}
	.st5{fill:#FFFFFF;}
	.st6{filter:url(#Adobe_OpacityMaskFilter);}
	.st7{fill-rule:evenodd;clip-rule:evenodd;fill:#FFFFFF;}
	.st8{mask:url(#mask-2_8_);fill-rule:evenodd;clip-rule:evenodd;}
	.st9{filter:url(#Adobe_OpacityMaskFilter_1_);}
	.st10{mask:url(#mask-2_7_);fill-rule:evenodd;clip-rule:evenodd;}
	.st11{filter:url(#Adobe_OpacityMaskFilter_2_);}
	.st12{mask:url(#mask-2_6_);fill-rule:evenodd;clip-rule:evenodd;}
	.st13{filter:url(#Adobe_OpacityMaskFilter_3_);}
	.st14{mask:url(#mask-2_5_);fill-rule:evenodd;clip-rule:evenodd;}
	.st15{filter:url(#Adobe_OpacityMaskFilter_4_);}
	.st16{mask:url(#mask-2_2_);fill:none;stroke:#000000;stroke-width:2;}
	.st17{fill:#434343;}
	.st18{fill:#434343;stroke:#F9F9F9;stroke-width:0.25;stroke-miterlimit:10;}
	.st19{fill:none;stroke:#FC6A55;stroke-width:0.5;stroke-miterlimit:10;}
	.st20{fill:none;stroke:#FC6A55;stroke-width:0.75;stroke-miterlimit:10;}
	.st21{fill:#FC6A55;stroke:#FC6A55;stroke-width:0.5;stroke-miterlimit:10;}
	.st22{opacity:0.153;fill:url(#Path_146_);enable-background:new    ;}
	.st23{opacity:0.1;fill:#590BB2;enable-background:new    ;}
	.st24{fill:#8E8CA8;}
	.st25{fill:#F5F4F9;}
	.st26{fill:#FFD5B8;}
	.st27{fill:#FC8473;}
	.st28{fill:#1C3475;}
	.st29{fill:#DDD9E4;}
	.st30{fill:#828FB3;}
	.st31{opacity:7.584635e-02;fill:url(#Path_147_);enable-background:new    ;}
	.st32{fill:#FFBE92;}
	.st33{fill:#FB8E7F;}
	.st34{fill:#FDB1A6;}
	.st35{fill:#FC806F;}
	.st36{fill:#FFE783;}
	.st37{fill:#104478;}
	.st38{fill:none;stroke:#FFFFFF;stroke-miterlimit:10;}
	.st39{fill:none;stroke:#000000;stroke-width:0.15;stroke-miterlimit:10;}
	.st40{opacity:0.1;fill:url(#Path_148_);enable-background:new    ;}
	.st41{opacity:0.1;fill:url(#Path_149_);enable-background:new    ;}
</style>
<g>
	<path d="M6.3,9C7,9,7.6,8.4,7.6,7.7S7,6.4,6.3,6.4S5,7,5,7.7S5.5,9,6.3,9z M6.3,6.9c0.4,0,0.8,0.4,0.8,0.8c0,0.4-0.4,0.8-0.8,0.8
		c-0.4,0-0.8-0.4-0.8-0.8C5.5,7.3,5.8,6.9,6.3,6.9z"/>
	<path d="M17.5,14h-1c-0.1-0.2-0.1-0.3-0.2-0.5l0.7-0.7c0.2-0.2,0.2-0.5,0-0.7l-0.8-0.8c-0.2-0.2-0.5-0.2-0.7,0L14.8,12
		c-0.2-0.1-0.3-0.1-0.5-0.2v-1c0-0.1,0-0.2-0.1-0.3V9c0-0.1-0.1-0.3-0.3-0.3c-0.1,0-0.3,0.1-0.3,0.3v1.4h-0.6V5.6
		c0-0.1-0.1-0.3-0.3-0.3H1.4c-0.1,0-0.3,0.1-0.3,0.3v9c0,0.1,0.1,0.3,0.3,0.3h7.2v0.6H5.8c-0.1,0-0.3,0.1-0.3,0.3
		c0,0.1,0.1,0.3,0.3,0.3h2.8c0.1,0.1,0.2,0.1,0.3,0.1h1c0.1,0.2,0.1,0.3,0.2,0.5l-0.7,0.7c-0.2,0.2-0.2,0.5,0,0.7l0.8,0.8
		c0.2,0.2,0.5,0.2,0.7,0l0.7-0.7c0.2,0.1,0.3,0.1,0.5,0.2v1c0,0.3,0.2,0.5,0.5,0.5h1.2c0.3,0,0.5-0.2,0.5-0.5v-1
		c0.2-0.1,0.3-0.1,0.5-0.2l0.7,0.7c0.2,0.2,0.5,0.2,0.7,0L17,18c0.2-0.2,0.2-0.5,0-0.7l-0.7-0.7c0.1-0.2,0.1-0.3,0.2-0.5h1
		c0.3,0,0.5-0.2,0.5-0.5v-1.2C18,14.2,17.8,14,17.5,14z M1.6,5.8h11v4.5c-0.2,0-0.4,0.2-0.4,0.5v0.4L9.8,7.7
		C9.7,7.6,9.5,7.5,9.4,7.5C9.2,7.5,9,7.6,8.9,7.7l-2.7,4L4.9,9.8C4.6,9.5,4.2,9.5,4,9.8l-2.3,3.4V5.8z M4.4,14.3H1.6v-0.3l2.8-4
		c0,0,0,0,0,0c0,0,0,0,0,0l1.4,2.1C5.6,12.5,4.5,14.1,4.4,14.3z M8.6,14.3H5C5.2,14.1,9.2,8.3,9.4,8c0,0,0,0,0,0c0,0,0,0,0,0
		l2.7,3.9c-0.1,0-0.2,0.1-0.3,0.1L11,11.3c-0.2-0.2-0.5-0.2-0.7,0c-0.5,0.5-0.3,0.3-0.8,0.8c-0.2,0.2-0.2,0.5,0,0.7l0.7,0.7
		c-0.1,0.2-0.1,0.3-0.2,0.5H9C8.8,14,8.6,14.2,8.6,14.3z M17.5,15.6h-1c-0.2,0-0.4,0.1-0.4,0.3c-0.1,0.2-0.1,0.3-0.2,0.5
		c-0.1,0.2-0.1,0.4,0.1,0.5l0.7,0.7l-0.7,0.7l-0.7-0.7c-0.1-0.1-0.4-0.2-0.5-0.1c-0.2,0.1-0.3,0.2-0.5,0.2c-0.2,0.1-0.3,0.2-0.3,0.4
		v1h-1.1v-1c0-0.2-0.1-0.4-0.3-0.4c-0.2-0.1-0.3-0.1-0.5-0.2c-0.2-0.1-0.4-0.1-0.5,0.1l-0.7,0.7l-0.7-0.7l0.7-0.7
		c0.1-0.1,0.2-0.4,0.1-0.5c-0.1-0.2-0.2-0.3-0.2-0.5c-0.1-0.2-0.2-0.3-0.4-0.3h-1c0-0.6,0-0.4,0-1.1h1c0.2,0,0.4-0.1,0.4-0.3
		c0.1-0.2,0.1-0.3,0.2-0.5c0.1-0.1,0.1-0.3,0-0.4c0,0-0.1-0.1-0.1-0.1l-0.7-0.7l0.7-0.7l0.7,0.7c0.1,0.1,0.4,0.2,0.5,0.1
		c0.2-0.1,0.3-0.2,0.5-0.2c0,0,0,0,0,0c0.2-0.1,0.3-0.2,0.3-0.4v-1h1.1v1c0,0.2,0.1,0.4,0.3,0.4c0.2,0.1,0.3,0.1,0.5,0.2
		c0.2,0.1,0.4,0.1,0.5-0.1l0.7-0.7l0.7,0.7l-0.7,0.7c-0.1,0.1-0.2,0.4-0.1,0.5c0.1,0.2,0.2,0.3,0.2,0.5c0.1,0.2,0.2,0.3,0.4,0.3h1
		V15.6z"/>
	<path d="M13.2,12.9c-0.5,0-1,0.3-1.4,0.6s-0.6,0.9-0.6,1.4c0,0.6,0.2,1.2,0.6,1.6c0.4,0.4,1,0.6,1.5,0.6c0,0,0.1,0,0.1,0
		c0.5,0,1-0.3,1.4-0.6c0.4-0.4,0.6-0.9,0.6-1.4c0-0.6-0.2-1.2-0.6-1.6C14.4,13.1,13.8,12.9,13.2,12.9z M14.9,15.1
		c0,0.8-0.7,1.5-1.6,1.6c-0.5,0-0.9-0.2-1.2-0.5c-0.3-0.3-0.5-0.8-0.5-1.2c0-0.8,0.7-1.5,1.6-1.6c0,0,0.1,0,0.1,0
		c0.4,0,0.9,0.2,1.2,0.5C14.8,14.2,14.9,14.7,14.9,15.1z"/>
	<path d="M0.5,16h4.1c0.1,0,0.3-0.1,0.3-0.3c0-0.1-0.1-0.3-0.3-0.3H0.5c0,0,0,0,0,0V4.8c0,0,0,0,0,0h13.1c0,0,0,0,0,0v3
		c0,0.1,0.1,0.3,0.3,0.3c0.1,0,0.3-0.1,0.3-0.3v-3c0-0.3-0.2-0.5-0.5-0.5H0.5C0.2,4.2,0,4.5,0,4.8v10.7C0,15.7,0.2,16,0.5,16z"/>
</g>
</svg>
