<?xml version="1.0" encoding="utf-8"?>
<!-- Generator: Adobe Illustrator 24.0.2, SVG Export Plug-In . SVG Version: 6.00 Build 0)  -->
<svg version="1.1" id="Layer_1" xmlns="http://www.w3.org/2000/svg" xmlns:xlink="http://www.w3.org/1999/xlink" x="0px" y="0px"
	 viewBox="0 0 86 77.6" style="enable-background:new 0 0 86 77.6;" xml:space="preserve">
<style type="text/css">
	.st0{fill:#FC6A55;}
	.st1{stroke:#FFFFFF;stroke-width:0.25;stroke-miterlimit:10;}
	.st2{fill:#656D7A;}
	.st3{fill:#FFFFFF;}
	.st4{filter:url(#Adobe_OpacityMaskFilter);}
	.st5{fill-rule:evenodd;clip-rule:evenodd;fill:#FFFFFF;}
	.st6{mask:url(#mask-2_8_);fill-rule:evenodd;clip-rule:evenodd;}
	.st7{filter:url(#Adobe_OpacityMaskFilter_1_);}
	.st8{mask:url(#mask-2_7_);fill-rule:evenodd;clip-rule:evenodd;}
	.st9{filter:url(#Adobe_OpacityMaskFilter_2_);}
	.st10{mask:url(#mask-2_6_);fill-rule:evenodd;clip-rule:evenodd;}
	.st11{filter:url(#Adobe_OpacityMaskFilter_3_);}
	.st12{mask:url(#mask-2_5_);fill-rule:evenodd;clip-rule:evenodd;}
	.st13{filter:url(#Adobe_OpacityMaskFilter_4_);}
	.st14{mask:url(#mask-2_2_);fill:none;stroke:#000000;stroke-width:2;}
	.st15{fill:#434343;}
	.st16{fill:#434343;stroke:#F9F9F9;stroke-width:0.25;stroke-miterlimit:10;}
	.st17{fill:none;stroke:#FC6A55;stroke-width:0.5;stroke-miterlimit:10;}
	.st18{fill:none;stroke:#FC6A55;stroke-width:0.75;stroke-miterlimit:10;}
	.st19{fill:#FC6A55;stroke:#FC6A55;stroke-width:0.5;stroke-miterlimit:10;}
	.st20{opacity:0.153;fill:url(#Path_146_);enable-background:new    ;}
	.st21{opacity:0.1;fill:#590BB2;enable-background:new    ;}
	.st22{fill:#8E8CA8;}
	.st23{fill:#F5F4F9;}
	.st24{fill:#FFD5B8;}
	.st25{fill:#FC8473;}
	.st26{fill:#1C3475;}
	.st27{fill:#DDD9E4;}
	.st28{fill:#828FB3;}
	.st29{opacity:7.584635e-02;fill:url(#Path_147_);enable-background:new    ;}
	.st30{fill:#FFBE92;}
	.st31{fill:#FB8E7F;}
	.st32{fill:#FDB1A6;}
	.st33{fill:#FC806F;}
	.st34{fill:#FFE783;}
	.st35{fill:#104478;}
	.st36{fill:none;stroke:#FFFFFF;stroke-miterlimit:10;}
	.st37{fill:none;stroke:#FC6A55;stroke-miterlimit:10;}
	.st38{fill:none;stroke:#000000;stroke-width:0.15;stroke-miterlimit:10;}
	.st39{opacity:0.1;fill:url(#Path_148_);enable-background:new    ;}
	.st40{opacity:0.1;fill:url(#Path_149_);enable-background:new    ;}
</style>
<g>
	
		<linearGradient id="Path_146_" gradientUnits="userSpaceOnUse" x1="-2613.0256" y1="910.6945" x2="-2612.0752" y2="910.7105" gradientTransform="matrix(86 0 0 -71.5605 224756.6875 65206.793)">
		<stop  offset="7.011211e-04" style="stop-color:#1C3475"/>
		<stop  offset="0.3524" style="stop-color:#FFDFFF"/>
		<stop  offset="1" style="stop-color:#FC8371"/>
	</linearGradient>
	<path id="Path_144_" style="opacity:0.1;fill:url(#Path_146_);enable-background:new    ;" d="M68.6,19.7c-4-1.6-7.3-4.4-9.4-8.1
		C55.7,5.3,49,1,41.3,1c-8,0-14.9,4.6-18.2,11.3c-2,4.1-5.5,7.3-9.8,9C7.1,23.9,1.8,29.7,0.1,38.7c-0.2,1-0.2,2,0,3
		C2.7,55.8,14,62,24.2,60.3c5.7-0.9,11.5,1,15.8,4.9c8.6,8,22.5,10.6,35.9,1.9c1.6-1,3.7-3.1,4.7-4.7C92.2,44.4,83.6,25.6,68.6,19.7
		z"/>
	<path class="st24" d="M68.1,59.5H52.6c-2.9,0-5.2,2.3-5.2,5.2v7.8h5.2v5.2h15.5v-5.2h5.2v-7.8C73.3,61.8,71,59.5,68.1,59.5z"/>
	<path class="st24" d="M65.5,37.5H48.7V44c0,2.6,1.5,4.9,3.9,5.9V44h15.5v5.9c3.3-1.4,4.8-5.2,3.3-8.5C70.4,39,68.1,37.5,65.5,37.5
		L65.5,37.5z"/>
	<path class="st3" d="M60.3,59.5c-1.9,0-3.8-0.7-5.2-2v2l5.2,6.5l5.2-6.5v-2C64.1,58.8,62.3,59.5,60.3,59.5z"/>
	<path class="st24" d="M70.7,24.6c-8.6,0-15.5-7-15.5-15.5c0-0.9,0.1-1.9,0.3-2.8c-5.8,6.3-5.4,16.1,0.9,21.9c1,0.9,2,1.6,3.2,2.3
		l0.9,9.6l4.9-7.8c8.1,0.8,15.4-4.7,16.8-12.7C79.1,22.8,75,24.6,70.7,24.6L70.7,24.6z"/>
	<path class="st26" d="M60.3,14.2L60.3,14.2c1.4,0,2.6,1.2,2.6,2.6l0,2.6c0,1.4-1.2,2.6-2.6,2.6l0,0c-1.4,0-2.6-1.2-2.6-2.6l0-2.6
		C57.8,15.4,58.9,14.2,60.3,14.2z"/>
	<path class="st26" d="M73.3,14.3L73.3,14.3c1.4,0,2.6,1.2,2.6,2.6l0,2.6c0,1.4-1.2,2.6-2.6,2.6l0,0c-1.4,0-2.6-1.2-2.6-2.6l0-2.6
		C70.7,15.4,71.9,14.3,73.3,14.3z"/>
	<path class="st25" d="M31.9,11.6H16.3c-1.4,0-2.6,1.2-2.6,2.6v5.2c0,1.4,1.2,2.6,2.6,2.6h2.6l6.5,6.5V22h6.5c1.4,0,2.6-1.2,2.6-2.6
		v-5.2C34.5,12.8,33.3,11.6,31.9,11.6z"/>
	<circle class="st25" cx="56.5" cy="49.2" r="1.3"/>
	<circle class="st25" cx="64.2" cy="49.2" r="1.3"/>
	<path class="st25" d="M57.6,54.5c1.5,1.5,4,1.5,5.5,0c0.5-0.5,0.4-1.4-0.1-1.8c-0.5-0.4-1.2-0.4-1.7,0c-0.5,0.5-1.3,0.5-1.8,0
		c0,0,0,0,0,0c-0.5-0.5-1.4-0.4-1.8,0.1C57.2,53.3,57.2,54,57.6,54.5L57.6,54.5z"/>
	<path class="st26" d="M16.3,23.3h2.1l6.1,6.1c0.2,0.2,0.6,0.4,0.9,0.4c0.2,0,0.3,0,0.5-0.1c0.5-0.2,0.8-0.7,0.8-1.2v-5.2h5.2
		c2.1,0,3.9-1.7,3.9-3.9v-5.2c0-2.1-1.7-3.9-3.9-3.9H16.3c-2.1,0-3.9,1.7-3.9,3.9v5.2C12.5,21.6,14.2,23.3,16.3,23.3z M15.1,14.2
		c0-0.7,0.6-1.3,1.3-1.3h15.5c0.7,0,1.3,0.6,1.3,1.3v5.2c0,0.3-0.1,0.7-0.4,0.9c-0.3,0.2-0.6,0.4-0.9,0.4h-6.5
		c-0.7,0-1.3,0.6-1.3,1.3v3.4l-4.3-4.3c-0.2-0.2-0.6-0.4-0.9-0.4h-2.6c-0.7,0-1.3-0.6-1.3-1.3V14.2z"/>
	<path class="st3" d="M18.9,18.1c0.7,0,1.3-0.6,1.3-1.3s-0.6-1.3-1.3-1.3s-1.3,0.6-1.3,1.3S18.2,18.1,18.9,18.1z"/>
	<path class="st3" d="M24.1,18.1c0.7,0,1.3-0.6,1.3-1.3s-0.6-1.3-1.3-1.3c-0.7,0-1.3,0.6-1.3,1.3S23.4,18.1,24.1,18.1z"/>
	<path class="st3" d="M29.3,18.1c0.7,0,1.3-0.6,1.3-1.3s-0.6-1.3-1.3-1.3c-0.7,0-1.3,0.6-1.3,1.3S28.6,18.1,29.3,18.1z"/>
	<path class="st25" d="M69.4,27.2c2.4,0,4.5-1.7,5.1-4.1c0.6-0.2,1.1-0.5,1.6-0.9c0.7-0.7,1.1-1.7,1.1-2.8v-2.6
		c0-1.7-1.1-3.2-2.7-3.7c-0.5-3.8-3.8-6.7-7.7-6.7c-3.9,0-7.1,2.8-7.7,6.7c-1.6,0.5-2.7,2-2.7,3.7v2.6c0,2.1,1.7,3.9,3.9,3.9
		c2.1,0,3.9-1.7,3.9-3.9v-2.6c0-1-0.4-2-1.1-2.8c-0.4-0.4-0.9-0.7-1.4-0.9c0.5-2.4,2.6-4.1,5.1-4.1c2.5,0,4.6,1.7,5.1,4.2
		c-1.5,0.6-2.5,2-2.5,3.6v2.6c0,1.6,0.9,3,2.4,3.6c-0.4,1-1.3,1.6-2.4,1.6h-2.6c-0.7,0-1.3,0.6-1.3,1.3c0,0.7,0.6,1.3,1.3,1.3H69.4z
		 M61.6,19.4c0,0.3-0.1,0.7-0.4,0.9c-0.2,0.2-0.6,0.4-0.9,0.4c-0.7,0-1.3-0.6-1.3-1.3v-2.6c0-0.7,0.6-1.3,1.3-1.3
		c0.3,0,0.7,0.1,0.9,0.4c0.2,0.2,0.4,0.6,0.4,0.9V19.4z M74.6,19.4c0,0.3-0.1,0.7-0.4,0.9c-0.2,0.2-0.6,0.4-0.9,0.4
		c-0.3,0-0.7-0.1-0.9-0.4c-0.2-0.2-0.4-0.6-0.4-0.9v-2.6c0-0.7,0.6-1.3,1.3-1.3c0.7,0,1.3,0.6,1.3,1.3V19.4z"/>
	<path class="st26" d="M24.1,36.2c2.8,0,5.6-0.7,8.2-1.9l8,4.4c0.2,0.1,0.4,0.1,0.6,0.1c0.3,0,0.6-0.1,0.8-0.3
		c0.4-0.3,0.6-0.9,0.4-1.4l-3-9c5.5-8.3,3.3-19.6-5-25.1c-3-2-6.5-3-10.1-3C14.1,0,6,8.1,6,18.1S14.1,36.2,24.1,36.2z M24.1,2.6
		c8.6,0,15.5,7,15.5,15.6c0,3.2-1,6.4-2.9,9c-0.2,0.3-0.3,0.8-0.2,1.2l2.1,6.5l-5.7-3.2c-0.4-0.2-0.9-0.2-1.3,0
		c-2.3,1.3-4.8,2-7.5,2c-8.6,0-15.5-7-15.5-15.5S15.5,2.6,24.1,2.6L24.1,2.6z"/>
	<path class="st26" d="M66.8,33.6c9.3,0,16.8-7.5,16.8-16.8S76.1,0,66.8,0C57.5,0,50,7.5,50,16.8c0,5.9,3.1,11.4,8.2,14.4l0.4,5h-10
		c-0.7,0-1.3,0.6-1.3,1.3V44c0,2.8,1.5,5.3,3.9,6.7v1.1c0,2.4,0.9,4.6,2.6,6.3v0.1h-1.3c-3.6,0-6.5,2.9-6.5,6.5v11.6
		c0,0.7,0.6,1.3,1.3,1.3s1.3-0.6,1.3-1.3v-3.9h2.6v3.9c0,0.7,0.6,1.3,1.3,1.3s1.3-0.6,1.3-1.3v-9.1c0-0.7-0.6-1.3-1.3-1.3
		s-1.3,0.6-1.3,1.3v2.6h-2.6v-5.2c0-2.1,1.7-3.9,3.9-3.9h2l4.8,6c0.4,0.6,1.3,0.6,1.8,0.2c0.1-0.1,0.1-0.1,0.2-0.2l4.8-6h2
		c2.1,0,3.9,1.7,3.9,3.9v5.2h-2.6v-2.6c0-0.7-0.6-1.3-1.3-1.3c-0.7,0-1.3,0.6-1.3,1.3v9.1c0,0.7,0.6,1.3,1.3,1.3
		c0.7,0,1.3-0.6,1.3-1.3v-3.9H72v3.9c0,0.7,0.6,1.3,1.3,1.3c0.7,0,1.3-0.6,1.3-1.3V64.7c0-3.6-2.9-6.5-6.5-6.5h-1.3v-0.1
		c1.7-1.7,2.6-4,2.6-6.3v-1.1c3.7-2.2,4.9-6.9,2.8-10.6c-1.4-2.4-3.9-3.8-6.7-3.8h-1.3l1.6-2.6H66.8z M60.3,63.9l-2.9-3.6
		c1.9,0.6,3.9,0.6,5.7,0L60.3,63.9z M66.8,51.8c0,3.6-2.9,6.5-6.5,6.5s-6.5-2.9-6.5-6.5v-6.5h12.9V51.8z M65.5,38.8
		c2.9,0,5.2,2.3,5.2,5.2c0,1.3-0.5,2.5-1.3,3.4V44c0-0.7-0.6-1.3-1.3-1.3H52.6c-0.7,0-1.3,0.6-1.3,1.3v3.4C50.5,46.5,50,45.3,50,44
		v-5.2h8.9l0.1,1.4c0.1,0.6,0.4,1,1,1.1l0.3,0.1c0.4,0,0.9-0.2,1.1-0.6l1.3-2L65.5,38.8z M64.1,31.6l-2.9,4.6l-0.5-5.8
		c0-0.4-0.3-0.8-0.7-1c-6.9-3.7-9.5-12.4-5.8-19.3c2.5-4.6,7.3-7.5,12.5-7.5C74.7,2.6,81,9,81,16.9c0,3.8-1.5,7.4-4.2,10
		c-2.7,2.7-6.3,4.2-10,4.2c-0.5,0-1,0-1.5-0.1C64.9,30.9,64.4,31.2,64.1,31.6z"/>
	<path class="st3" d="M37.2,61.3h-5.7v2.3H20v-2.3h-7.5l-4.7,4.6v9.2h2.3v-6.9h4.6v6.9h26.6v-9.2L37.2,61.3z M24.6,72.2H20v-3.5h4.6
		V72.2z M31.6,72.2h-4.6v-3.5h4.6V72.2z M38.5,72.2h-4.6v-3.5h4.6V72.2z"/>
	<path class="st25" d="M37.2,61.3h-5.7v2.3H20v-2.3h-7.5l4.6,4.6h24.3L37.2,61.3z"/>
	<path class="st24" d="M29.8,61.3v-1.2h1.7l-1.7-2.3h-8.1L20,60.1v3.5h11.5v-1.2H31C30.3,62.4,29.8,61.9,29.8,61.3z M22.9,62.4h-0.6
		c-0.6,0-1.2-0.5-1.2-1.2v-1.2h1.7V62.4z M25.8,62.4h-0.6c-0.6,0-1.2-0.5-1.2-1.2v-1.2h1.7V62.4z M28.7,62.4h-0.6
		c-0.6,0-1.2-0.5-1.2-1.2v-1.2h1.7V62.4z"/>
	<path class="st24" d="M29.8,57.8h-8.1L20,60.1h11.5L29.8,57.8z"/>
	<path class="st3" d="M31.6,50.9H35v10.4h-3.5V50.9z"/>
	<path class="st3" d="M24.1,50.9h3.5v6.9h-3.5V50.9z"/>
	<path class="st3" d="M16.5,50.9H20v10.4h-3.5V50.9z"/>
	<path class="st3" d="M12.5,61.3l-4.7,4.6v9.2h2.3v-6.9h4.6v6.9h2.3v-9.2L12.5,61.3z"/>
	<path class="st24" d="M10.2,68.2v6.9h4.6v-2.3C12.3,72.8,10.2,70.7,10.2,68.2z"/>
	<path class="st24" d="M21.7,46.2c-0.5,0-1-0.2-1.3-0.6c-0.2,0.4-0.6,0.6-1,0.6c-0.6,0-1.1-0.4-1.2-1c-0.6,0.3-0.7,1-0.4,1.6
		c0.2,0.4,0.6,0.6,1,0.6c0.4,0,0.8-0.2,1-0.6c0.6,0.7,1.7,0.8,2.4,0.2c0.3-0.3,0.6-0.7,0.6-1.2C22.6,46.1,22.2,46.2,21.7,46.2z"/>
	<path class="st24" d="M29.8,46.2c-0.5,0-1-0.2-1.3-0.6c-0.2,0.4-0.6,0.6-1,0.6c-0.6,0-1.1-0.4-1.2-1c-0.6,0.3-0.7,1-0.4,1.6
		c0.2,0.4,0.6,0.6,1,0.6c0.4,0,0.8-0.2,1-0.6c0.6,0.7,1.7,0.8,2.4,0.2c0.3-0.3,0.6-0.7,0.6-1.2C30.7,46.1,30.3,46.2,29.8,46.2z"/>
	<path class="st24" d="M38.5,47.4c-0.5,0-1-0.2-1.3-0.6c-0.2,0.4-0.6,0.6-1,0.6c-0.6,0-1.1-0.4-1.2-1c-0.6,0.3-0.7,1-0.4,1.6
		c0.2,0.4,0.6,0.6,1,0.6c0.4,0,0.8-0.2,1-0.6c0.6,0.7,1.7,0.8,2.4,0.2c0.3-0.3,0.6-0.7,0.6-1.2C39.3,47.2,38.9,47.4,38.5,47.4z"/>
	<path class="st24" d="M21.2,68.8H20v3.5h4.6v-1.2h-1.2C22.2,71.1,21.2,70,21.2,68.8z"/>
	<path class="st24" d="M28.1,68.8h-1.2v3.5h4.6v-1.2h-1.2C29.1,71.1,28.1,70,28.1,68.8z"/>
	<path class="st24" d="M35,68.8h-1.2v3.5h4.6v-1.2h-1.2C36.1,71.1,35,70,35,68.8z"/>
	<path class="st26" d="M42,65.8c0,0,0-0.1,0-0.1v-0.1c0-0.1-0.1-0.1-0.1-0.2l-4.1-4.6c-0.1-0.1-0.3-0.2-0.4-0.2h-1.7v-9.8
		c0-0.3-0.3-0.6-0.6-0.6h-3.5c-0.3,0-0.6,0.3-0.6,0.6v7.5l-0.7-0.9c-0.1-0.1-0.3-0.2-0.5-0.2h-1.7v-6.4c0-0.3-0.3-0.6-0.6-0.6h-3.5
		c-0.3,0-0.6,0.3-0.6,0.6v6.4h-1.7c-0.2,0-0.4,0.1-0.5,0.2l-0.7,0.9v-7.5c0-0.3-0.3-0.6-0.6-0.6h-3.5c-0.3,0-0.6,0.3-0.6,0.6v9.8
		h-3.5c-0.2,0-0.4,0.1-0.5,0.3l-4.5,4.5c-0.1,0.1-0.2,0.3-0.2,0.4v9.2c0,0.3,0.3,0.6,0.6,0.6h33.5c0.3,0,0.6-0.3,0.6-0.6V65.8
		C42,65.9,42,65.9,42,65.8L42,65.8z M40.1,65.3H17.4l-3.5-3.5h5.5v1.7c0,0.3,0.3,0.6,0.6,0.6h11.5c0.3,0,0.6-0.3,0.6-0.6v-1.7H37
		L40.1,65.3z M25.2,60.7V63h-1.7v-2.3H25.2z M28.1,60.7V63h-1.7v-2.3H28.1z M31,60.7V63h-1.7v-2.3H31z M22.3,63h-1.7v-2.3h1.7V63z
		 M32.1,51.4h2.3v9.2h-2.3V51.4z M24.6,51.4h2.3v5.8h-2.3V51.4z M22,58.4h7.5l0.9,1.2h-9.2L22,58.4z M17.1,51.4h2.3v9.2h-2.3V51.4z
		 M10.8,71.1h3.5v1.2h-3.5V71.1z M14.2,69.9h-3.5v-1.2h3.5V69.9z M10.8,74.5v-1.2h3.5v1.2H10.8z M15.4,74.5v-6.4
		c0-0.3-0.3-0.6-0.6-0.6h-4.6c-0.3,0-0.6,0.3-0.6,0.6v6.4H8.5v-8.4l4-4l4,4v8.4H15.4z M17.7,74.5v-8.1h23.1v8.1H17.7z"/>
	<path class="st26" d="M24.6,68.2H20c-0.3,0-0.6,0.3-0.6,0.6v3.5c0,0.3,0.3,0.6,0.6,0.6h4.6c0.3,0,0.6-0.3,0.6-0.6v-3.5
		C25.2,68.4,24.9,68.2,24.6,68.2z M20.6,69.3h1.2v2.3h-1.2V69.3z M24.1,71.7h-1.2v-2.3h1.2V71.7z"/>
	<path class="st26" d="M31.6,68.2h-4.6c-0.3,0-0.6,0.3-0.6,0.6v3.5c0,0.3,0.3,0.6,0.6,0.6h4.6c0.3,0,0.6-0.3,0.6-0.6v-3.5
		C32.1,68.4,31.9,68.2,31.6,68.2z M27.5,69.3h1.2v2.3h-1.2V69.3z M31,71.7h-1.2v-2.3H31V71.7z"/>
	<path class="st26" d="M38.5,68.2h-4.6c-0.3,0-0.6,0.3-0.6,0.6v3.5c0,0.3,0.3,0.6,0.6,0.6h4.6c0.3,0,0.6-0.3,0.6-0.6v-3.5
		C39.1,68.4,38.8,68.2,38.5,68.2z M34.4,69.3h1.2v2.3h-1.2V69.3z M37.9,71.7h-1.2v-2.3h1.2V71.7z"/>
	<path class="st26" d="M18.9,48c0.4,0,0.8-0.1,1.1-0.4c1.1,0.7,2.5,0.4,3.2-0.7c0.7-1.1,0.4-2.5-0.7-3.2s-2.5-0.4-3.2,0.7
		c0,0,0,0.1-0.1,0.1c-0.1,0-0.2,0-0.3,0c-1,0-1.7,0.8-1.7,1.7S17.9,48,18.9,48z M18.9,45.7c0.1,0,0.2,0,0.3,0.1
		c0.3,0.2,0.6,0.1,0.8-0.2c0-0.1,0.1-0.1,0.1-0.2c0.1-0.6,0.8-1,1.4-0.9c0.6,0.1,1,0.8,0.9,1.4c-0.1,0.5-0.6,0.9-1.1,0.9
		c-0.3,0-0.6-0.2-0.9-0.4c-0.1-0.1-0.3-0.2-0.4-0.2h-0.1c-0.2,0-0.4,0.1-0.4,0.3c-0.2,0.3-0.5,0.4-0.8,0.2c-0.3-0.2-0.4-0.5-0.2-0.8
		C18.4,45.8,18.6,45.7,18.9,45.7z"/>
	<path class="st26" d="M26.9,48c0.4,0,0.8-0.1,1.1-0.4c1.1,0.7,2.5,0.4,3.2-0.7c0.7-1.1,0.4-2.5-0.7-3.2c-1.1-0.7-2.5-0.4-3.2,0.7
		c0,0,0,0.1-0.1,0.1c-0.1,0-0.2,0-0.3,0c-1,0-1.7,0.8-1.7,1.7S26,48,26.9,48L26.9,48z M26.9,45.7c0.1,0,0.2,0,0.3,0.1
		c0.3,0.2,0.6,0.1,0.8-0.2c0-0.1,0.1-0.1,0.1-0.2c0.1-0.6,0.8-1,1.4-0.9c0.6,0.1,1,0.8,0.9,1.4c-0.1,0.5-0.6,0.9-1.1,0.9
		c-0.3,0-0.6-0.2-0.9-0.4c-0.1-0.1-0.3-0.2-0.4-0.2h-0.1c-0.2,0-0.4,0.1-0.4,0.3c-0.2,0.3-0.5,0.4-0.8,0.2c-0.3-0.2-0.4-0.5-0.2-0.8
		C26.5,45.8,26.7,45.7,26.9,45.7z"/>
	<path class="st26" d="M35.6,49.1c0.4,0,0.8-0.1,1.1-0.4c1.1,0.7,2.5,0.4,3.2-0.7s0.4-2.5-0.7-3.2s-2.5-0.4-3.2,0.7
		c0,0,0,0.1-0.1,0.1c-0.1,0-0.2,0-0.3,0c-1,0-1.7,0.8-1.7,1.7S34.6,49.1,35.6,49.1z M35.6,46.8c0.1,0,0.2,0,0.3,0.1
		c0.3,0.2,0.6,0.1,0.8-0.2c0-0.1,0.1-0.1,0.1-0.2c0.1-0.6,0.8-1,1.4-0.9c0.6,0.1,1,0.8,0.9,1.4c-0.1,0.5-0.6,0.9-1.1,0.9
		c-0.3,0-0.6-0.2-0.9-0.4c-0.1-0.1-0.3-0.2-0.4-0.2h-0.1c-0.2,0-0.4,0.1-0.4,0.3c-0.2,0.3-0.5,0.4-0.8,0.2s-0.4-0.5-0.2-0.8
		C35.2,46.9,35.4,46.8,35.6,46.8z"/>
</g>
</svg>
