<?xml version="1.0" encoding="utf-8"?>
<!-- Generator: Adobe Illustrator 24.0.2, SVG Export Plug-In . SVG Version: 6.00 Build 0)  -->
<svg version="1.1" id="Layer_1" xmlns="http://www.w3.org/2000/svg" xmlns:xlink="http://www.w3.org/1999/xlink" x="0px" y="0px"
	 viewBox="0 0 42 42" style="enable-background:new 0 0 42 42;" xml:space="preserve">
<style type="text/css">
	.st0{fill:#FC6A55;}
	.st1{stroke:#FFFFFF;stroke-width:0.25;stroke-miterlimit:10;}
	.st2{fill:#656D7A;}
	.st3{fill:#FFFFFF;}
	.st4{filter:url(#Adobe_OpacityMaskFilter);}
	.st5{fill-rule:evenodd;clip-rule:evenodd;fill:#FFFFFF;}
	.st6{mask:url(#mask-2_8_);fill-rule:evenodd;clip-rule:evenodd;}
	.st7{filter:url(#Adobe_OpacityMaskFilter_1_);}
	.st8{mask:url(#mask-2_7_);fill-rule:evenodd;clip-rule:evenodd;}
	.st9{filter:url(#Adobe_OpacityMaskFilter_2_);}
	.st10{mask:url(#mask-2_6_);fill-rule:evenodd;clip-rule:evenodd;}
	.st11{filter:url(#Adobe_OpacityMaskFilter_3_);}
	.st12{mask:url(#mask-2_5_);fill-rule:evenodd;clip-rule:evenodd;}
	.st13{filter:url(#Adobe_OpacityMaskFilter_4_);}
	.st14{mask:url(#mask-2_2_);fill:none;stroke:#000000;stroke-width:2;}
	.st15{fill:#434343;}
	.st16{fill:#434343;stroke:#F9F9F9;stroke-width:0.25;stroke-miterlimit:10;}
	.st17{fill:none;stroke:#FC6A55;stroke-width:0.5;stroke-miterlimit:10;}
	.st18{fill:none;stroke:#FC6A55;stroke-width:0.75;stroke-miterlimit:10;}
	.st19{fill:#FC6A55;stroke:#FC6A55;stroke-width:0.5;stroke-miterlimit:10;}
	.st20{opacity:0.153;fill:url(#Path_146_);enable-background:new    ;}
	.st21{opacity:0.1;fill:#590BB2;enable-background:new    ;}
	.st22{fill:#8E8CA8;}
	.st23{fill:#F5F4F9;}
	.st24{fill:#FFD5B8;}
	.st25{fill:#FC8473;}
	.st26{fill:#1C3475;}
	.st27{fill:#DDD9E4;}
	.st28{fill:#828FB3;}
	.st29{opacity:7.584635e-02;fill:url(#Path_147_);enable-background:new    ;}
	.st30{fill:#FFBE92;}
	.st31{fill:#FB8E7F;}
	.st32{fill:#FDB1A6;}
	.st33{fill:#FC806F;}
	.st34{fill:#FFE783;}
	.st35{fill:#104478;}
	.st36{fill:none;stroke:#FFFFFF;stroke-miterlimit:10;}
	.st37{fill:none;stroke:#FC6A55;stroke-miterlimit:10;}
	.st38{fill:none;stroke:#000000;stroke-width:0.15;stroke-miterlimit:10;}
	.st39{opacity:0.1;fill:url(#Path_148_);enable-background:new    ;}
	.st40{opacity:0.1;fill:url(#Path_149_);enable-background:new    ;}
</style>
<g>
	<g>
		<g>
			<g>
				<path class="st35" d="M21.5,20.3c-0.1-0.1-0.2-0.1-0.4-0.1l-2,0.5c-0.3,0.1-0.7,0.1-1,0.1h-2.9c-1,0-1.8,0.7-1.9,1.6
					c-0.1,0.5-0.5,0.9-1.1,0.9h-0.1v-0.9c0.7-0.4,1.2-1.2,1.2-2.1c0-1.4-1.1-2.5-2.5-2.5c-1.4,0-2.5,1.1-2.5,2.5
					c0,0.9,0.5,1.7,1.2,2.1v0.9H9.5c-0.5,0-1-0.4-1.1-0.9c-0.1-0.9-0.9-1.6-1.9-1.6H3.6c-0.3,0-0.7,0-1-0.1l-2-0.5
					c-0.1,0-0.3,0-0.4,0.1c-0.1,0.1-0.2,0.2-0.2,0.3c0,0.9,0.3,1.7,0.9,2.3c0,1,0.5,1.9,1.2,2.5L2.7,26c0.9,1.2,2.3,1.9,3.9,1.9
					c1.2,0,2.3-0.4,3.1-1.2v1.5H9.3c-1.5,0-2.7,1.2-2.7,2.7c0,0.5,0.1,0.9,0.3,1.3c0.1,0.1,0.2,0.2,0.4,0.2c0.1,0,0.1,0,0.2-0.1
					c0.2-0.1,0.3-0.4,0.2-0.6c-0.2-0.3-0.2-0.6-0.2-0.9c0-1,0.8-1.9,1.9-1.9h0.4v3.8h-1c-1.1,0-2,0.9-2,2c0,1.1,0.9,2,2,2h1.2
					c0.1,0.8,0.4,1.6,0.7,2.3c0.1,0.2,0.2,0.3,0.4,0.3h0c0.2,0,0.3-0.1,0.4-0.3l0,0c0.3-0.7,0.5-1.5,0.7-2.3h0.5
					c0.5,0,0.9,0.4,0.9,0.9c0,0.5-0.4,0.9-0.9,0.9h0c-0.2,0-0.4,0.2-0.4,0.4s0.2,0.4,0.4,0.4h0c0.9,0,1.7-0.8,1.7-1.7
					S13.4,36,12.5,36h-0.4c0-0.4,0.1-0.7,0.1-1.1v-1.2h0.3c1.5,0,2.7-1.2,2.7-2.7c0-1.5-1.2-2.7-2.7-2.7h-0.3v-1.5
					c0.9,0.7,2,1.2,3.1,1.2c1.5,0,2.9-0.7,3.9-1.9l0.4-0.5c0.7-0.6,1.2-1.5,1.2-2.5c0.6-0.6,0.9-1.4,0.9-2.3
					C21.7,20.5,21.6,20.4,21.5,20.3z M9.3,25.9c-0.7,0.7-1.7,1.1-2.8,1.1c-0.9,0-1.8-0.3-2.6-0.9c0.1,0,0.2,0,0.3,0H5
					c0.2,0,0.4-0.2,0.4-0.4c0-0.2-0.2-0.4-0.4-0.4H4.3c-1.1,0-2-0.7-2.3-1.7C2.5,23.9,3,24,3.5,24l0.9,0h0c0.2,0,0.4-0.2,0.4-0.4
					s-0.2-0.4-0.4-0.4l-0.9,0c-1.2,0-2.2-0.9-2.5-2l1.4,0.4c0.4,0.1,0.8,0.1,1.2,0.1h2.9c0.5,0,1,0.4,1.1,0.9
					c0.1,0.9,0.9,1.6,1.9,1.6h0.1v1.4L9.3,25.9z M8.6,36c-0.6,0-1.2-0.5-1.2-1.2c0-0.6,0.5-1.2,1.2-1.2h1v1.2c0,0.4,0,0.8,0.1,1.1
					H8.6L8.6,36z M11.3,34.9c0,1-0.1,1.9-0.4,2.9c-0.3-0.9-0.4-1.9-0.4-2.9v-1.2h0.8L11.3,34.9L11.3,34.9z M11.3,32.9h-0.8v-10
					c0.1,0,0.3,0,0.4,0c0.1,0,0.3,0,0.4,0V32.9z M12.4,29.1c1,0,1.9,0.8,1.9,1.9c0,1-0.8,1.9-1.9,1.9h-0.3v-3.8L12.4,29.1L12.4,29.1
					z M10.9,22c-0.9,0-1.6-0.7-1.6-1.6s0.7-1.6,1.6-1.6s1.6,0.7,1.6,1.6S11.8,22,10.9,22z M18.3,23.2l-0.9,0c-0.2,0-0.4,0.2-0.4,0.4
					c0,0.2,0.2,0.4,0.4,0.4l0.9,0c0.6,0,1.1-0.1,1.5-0.4c-0.3,1-1.2,1.7-2.3,1.7h-0.7c-0.2,0-0.4,0.2-0.4,0.4c0,0.2,0.2,0.4,0.4,0.4
					h0.7c0.1,0,0.2,0,0.3,0c-0.7,0.6-1.6,0.9-2.5,0.9c-1.1,0-2-0.4-2.8-1.1l-0.3-0.3v-1.4h0.1c1,0,1.8-0.7,1.9-1.6
					c0.1-0.5,0.5-0.9,1.1-0.9h2.9c0.4,0,0.8-0.1,1.2-0.1l1.4-0.4C20.5,22.3,19.5,23.2,18.3,23.2z"/>
			</g>
		</g>
		<g>
			<g>
				<path class="st35" d="M9.5,38.7c-0.1-0.1-0.2-0.1-0.3-0.1s-0.2,0-0.3,0.1S8.8,38.9,8.8,39c0,0.1,0,0.2,0.1,0.3
					c0.1,0.1,0.2,0.1,0.3,0.1s0.2,0,0.3-0.1c0.1-0.1,0.1-0.2,0.1-0.3S9.6,38.8,9.5,38.7z"/>
			</g>
		</g>
	</g>
	<g>
		<g>
			<path class="st35" d="M40.8,29.4c0,0.4-0.1,0.8-0.2,1.2h-8.9c0,0,0,0,0,0c0-1.2-1-2.2-2.2-2.2s-2.2,1-2.2,2.2c0,0,0,0,0,0h-1.7v1
				h2c0.4,0.7,1.1,1.1,1.9,1.1s1.5-0.5,1.9-1.1h8.9c-1.1,3.3-4.3,5.7-8,5.7c-4.7,0-8.4-3.8-8.4-8.4c0-3.9,2.6-7.2,6.3-8.2l0.4-0.1
				v-5.8H34v5.8l0.4,0.1c2,0.5,3.7,1.7,4.9,3.4l0.9-0.6c-1.2-1.8-3-3.1-5.1-3.7v-5h2.2v-3.3h-7.8v1h6.7v1.2h-8.4v1h1.7v5
				c-3.9,1.2-6.7,4.9-6.7,9.1c0,5.2,4.3,9.5,9.5,9.5c5,0,9.2-3.9,9.5-8.9L40.8,29.4z M29.6,31.7c-0.6,0-1.2-0.5-1.2-1.2
				s0.5-1.2,1.2-1.2c0.6,0,1.2,0.5,1.2,1.2S30.2,31.7,29.6,31.7z"/>
		</g>
	</g>
	<g>
		<g>
			<path class="st35" d="M35.7,26.1c-0.9,0-1.6,0.7-1.6,1.6s0.7,1.6,1.6,1.6c0.9,0,1.6-0.7,1.6-1.6S36.6,26.1,35.7,26.1z M35.7,28.4
				c-0.3,0-0.6-0.3-0.6-0.6c0-0.3,0.3-0.6,0.6-0.6c0.3,0,0.6,0.3,0.6,0.6C36.3,28.1,36.1,28.4,35.7,28.4z"/>
		</g>
	</g>
	<g>
		<g>
			<path class="st35" d="M32.4,21.6c-0.9,0-1.6,0.7-1.6,1.6s0.7,1.6,1.6,1.6s1.6-0.7,1.6-1.6S33.3,21.6,32.4,21.6z M32.4,23.9
				c-0.3,0-0.6-0.3-0.6-0.6c0-0.3,0.3-0.6,0.6-0.6c0.3,0,0.6,0.3,0.6,0.6C33,23.6,32.7,23.9,32.4,23.9z"/>
		</g>
	</g>
	<g>
		<g>
			<rect x="27.9" y="26.1" class="st35" width="1.1" height="1"/>
		</g>
	</g>
	<g>
		<g>
			<rect x="35.7" y="22.8" class="st35" width="1.1" height="1"/>
		</g>
	</g>
	<g>
		<g>
			<rect x="35.7" y="32.3" class="st35" width="1.1" height="1"/>
		</g>
	</g>
	<g>
		<g>
			<path class="st35" d="M26.8,10.5c-0.9,0-1.6,0.7-1.6,1.6c0,0.3,0.1,0.7,0.3,0.9l-1.5,2c-0.2-0.1-0.3-0.1-0.5-0.1
				c-0.2,0-0.4,0-0.5,0.1l-1.5-2c0.1-0.1,0.2-0.3,0.2-0.4h2.9v-1h-2.9c-0.2-0.7-0.8-1.1-1.6-1.1c-0.9,0-1.6,0.7-1.6,1.6
				c0,0.9,0.7,1.6,1.6,1.6c0.2,0,0.4,0,0.5-0.1l1.5,2c-0.2,0.3-0.3,0.6-0.3,0.9c0,0.9,0.7,1.6,1.6,1.6c0.9,0,1.6-0.7,1.6-1.6
				c0-0.3-0.1-0.7-0.3-0.9l1.5-2c0.2,0.1,0.3,0.1,0.5,0.1c0.9,0,1.6-0.7,1.6-1.6S27.7,10.5,26.8,10.5z M20,12.7
				c-0.3,0-0.6-0.3-0.6-0.6c0-0.3,0.3-0.6,0.6-0.6c0.3,0,0.6,0.3,0.6,0.6C20.6,12.4,20.4,12.7,20,12.7z M23.4,17.2
				c-0.3,0-0.6-0.3-0.6-0.6c0-0.3,0.3-0.6,0.6-0.6c0.3,0,0.6,0.3,0.6,0.6C24,16.9,23.7,17.2,23.4,17.2z M26.8,12.7
				c-0.3,0-0.6-0.3-0.6-0.6c0-0.3,0.3-0.6,0.6-0.6s0.6,0.3,0.6,0.6C27.4,12.4,27.1,12.7,26.8,12.7z"/>
		</g>
	</g>
	<g>
		<g>
			<path class="st35" d="M28.4,2.5c-0.9,0-1.6,0.7-1.6,1.6s0.7,1.6,1.6,1.6c0.9,0,1.6-0.7,1.6-1.6S29.4,2.5,28.4,2.5z M28.4,4.8
				c-0.3,0-0.6-0.3-0.6-0.6s0.3-0.6,0.6-0.6S29,3.9,29,4.2S28.8,4.8,28.4,4.8z"/>
		</g>
	</g>
	<g>
		<g>
			<path class="st35" d="M37.4,4.3c-0.9,0-1.6,0.7-1.6,1.6s0.7,1.6,1.6,1.6c0.9,0,1.6-0.7,1.6-1.6S38.3,4.3,37.4,4.3z M37.4,6.5
				c-0.3,0-0.6-0.3-0.6-0.6s0.3-0.6,0.6-0.6c0.3,0,0.6,0.3,0.6,0.6S37.7,6.5,37.4,6.5z"/>
		</g>
	</g>
	<g>
		<g>
			<rect x="40.8" y="7.7" class="st35" width="1.1" height="1"/>
		</g>
	</g>
	<g>
		<g>
			<rect x="31.8" y="4.3" class="st35" width="1.1" height="1"/>
		</g>
	</g>
	<g>
		<g>
			<rect x="26.2" y="6.5" class="st35" width="1.1" height="1"/>
		</g>
	</g>
</g>
</svg>
