<?xml version="1.0" encoding="utf-8"?>
<!-- Generator: Adobe Illustrator 24.0.2, SVG Export Plug-In . SVG Version: 6.00 Build 0)  -->
<svg version="1.1" id="Layer_1" xmlns="http://www.w3.org/2000/svg" xmlns:xlink="http://www.w3.org/1999/xlink" x="0px" y="0px"
	 viewBox="0 0 42 42" style="enable-background:new 0 0 42 42;" xml:space="preserve">
<style type="text/css">
	.st0{fill:#FC6A55;}
	.st1{stroke:#FFFFFF;stroke-width:0.25;stroke-miterlimit:10;}
	.st2{fill:#656D7A;}
	.st3{fill:#FFFFFF;}
	.st4{filter:url(#Adobe_OpacityMaskFilter);}
	.st5{fill-rule:evenodd;clip-rule:evenodd;fill:#FFFFFF;}
	.st6{mask:url(#mask-2_8_);fill-rule:evenodd;clip-rule:evenodd;}
	.st7{filter:url(#Adobe_OpacityMaskFilter_1_);}
	.st8{mask:url(#mask-2_7_);fill-rule:evenodd;clip-rule:evenodd;}
	.st9{filter:url(#Adobe_OpacityMaskFilter_2_);}
	.st10{mask:url(#mask-2_6_);fill-rule:evenodd;clip-rule:evenodd;}
	.st11{filter:url(#Adobe_OpacityMaskFilter_3_);}
	.st12{mask:url(#mask-2_5_);fill-rule:evenodd;clip-rule:evenodd;}
	.st13{filter:url(#Adobe_OpacityMaskFilter_4_);}
	.st14{mask:url(#mask-2_2_);fill:none;stroke:#000000;stroke-width:2;}
	.st15{fill:#434343;}
	.st16{fill:#434343;stroke:#F9F9F9;stroke-width:0.25;stroke-miterlimit:10;}
	.st17{fill:none;stroke:#FC6A55;stroke-width:0.5;stroke-miterlimit:10;}
	.st18{fill:none;stroke:#FC6A55;stroke-width:0.75;stroke-miterlimit:10;}
	.st19{fill:#FC6A55;stroke:#FC6A55;stroke-width:0.5;stroke-miterlimit:10;}
	.st20{opacity:0.153;fill:url(#Path_146_);enable-background:new    ;}
	.st21{opacity:0.1;fill:#590BB2;enable-background:new    ;}
	.st22{fill:#8E8CA8;}
	.st23{fill:#F5F4F9;}
	.st24{fill:#FFD5B8;}
	.st25{fill:#FC8473;}
	.st26{fill:#1C3475;}
	.st27{fill:#DDD9E4;}
	.st28{fill:#828FB3;}
	.st29{opacity:7.584635e-02;fill:url(#Path_147_);enable-background:new    ;}
	.st30{fill:#FFBE92;}
	.st31{fill:#FB8E7F;}
	.st32{fill:#FDB1A6;}
	.st33{fill:#FC806F;}
	.st34{fill:#FFE783;}
	.st35{fill:#104478;}
	.st36{fill:none;stroke:#FFFFFF;stroke-miterlimit:10;}
	.st37{fill:none;stroke:#FC6A55;stroke-miterlimit:10;}
	.st38{fill:none;stroke:#000000;stroke-width:0.15;stroke-miterlimit:10;}
	.st39{opacity:0.1;fill:url(#Path_148_);enable-background:new    ;}
	.st40{opacity:0.1;fill:url(#Path_149_);enable-background:new    ;}
</style>
<g>
	<g id="Payment-Money-2_1_">
		<path class="st35" d="M41.3,22.6v-2.2c0-1.7-1.2-3.2-2.9-3.5c0.2-0.5,0-1-0.4-1.3l0.8-1c0.1-0.2,0.1-0.4-0.1-0.5
			c-0.1,0-0.1-0.1-0.2-0.1h-2.8c-0.2,0-0.4,0.2-0.4,0.4c0,0.1,0,0.2,0.1,0.2l0.8,1c-0.4,0.3-0.6,0.8-0.4,1.3c-0.3,0-0.5,0.1-0.8,0.2
			v-1c0-0.6-0.5-1.1-1.1-1.1h-0.7v-3.2h6.7c0.2,0,0.4-0.2,0.4-0.4c0-3.9-3.1-7.2-7-7.4V3.5h-0.7v0.7c-3.9,0.2-7,3.4-7,7.4
			c0,0.2,0.2,0.4,0.4,0.4h6.7v3.2h-7.7c-0.6,0-1.1,0.5-1.1,1.1v6.3c0,0.6,0.5,1.1,1.1,1.1h7.4c0,0.6,0.5,1.1,1.1,1.1h7.7
			c0.6,0,1.1-0.5,1.1-1.1C42,23.1,41.7,22.7,41.3,22.6z M33.2,4.9c1.7,0.3,3.1,3.1,3.2,6.3h-3.2V4.9z M39.5,11.2h-2.5
			c-0.1-2.5-0.8-4.7-2-5.9C37.6,6.2,39.4,8.5,39.5,11.2z M30.6,5.3c-1.1,1.2-1.9,3.4-2,5.9h-2.5C26.3,8.5,28.1,6.2,30.6,5.3z
			 M29.3,11.2c0.1-3.2,1.5-6,3.2-6.3v6.3H29.3z M36.4,16.5c0-0.2,0.2-0.4,0.4-0.4h0.7c0.2,0,0.4,0.2,0.4,0.4c0,0.2-0.2,0.4-0.4,0.4
			h-0.7C36.5,16.9,36.4,16.7,36.4,16.5z M37.8,14.8l-0.5,0.7h-0.4l-0.5-0.7H37.8z M24.7,15.8h9.2c0.2,0,0.4,0.2,0.4,0.4v0.4
			c-0.1,0-0.2-0.1-0.4-0.1h-9.2c-0.1,0-0.2,0-0.4,0.1v-0.4C24.4,16,24.6,15.8,24.7,15.8z M24.7,17.2h9.2c0.2,0,0.4,0.2,0.4,0.4v0
			c-0.1,0.1-0.3,0.2-0.4,0.3h-9.1c-0.1,0-0.2,0-0.4,0.1v-0.4C24.4,17.4,24.6,17.2,24.7,17.2z M24.7,22.9c-0.2,0-0.4-0.2-0.4-0.4V19
			c0-0.2,0.2-0.4,0.4-0.4h8.6c-0.3,0.5-0.5,1.1-0.5,1.8v2.2c-0.2,0.1-0.3,0.2-0.4,0.3H24.7z M40.9,23.9h-7.7c-0.2,0-0.4-0.2-0.4-0.4
			c0-0.2,0.2-0.4,0.4-0.4s0.4-0.2,0.4-0.4v-2.5c0-1.6,1.3-2.8,2.8-2.8h1.4c1.6,0,2.8,1.3,2.8,2.8v2.5c0,0.2,0.2,0.4,0.4,0.4
			c0.2,0,0.4,0.2,0.4,0.4C41.3,23.8,41.1,23.9,40.9,23.9z"/>
		<path class="st35" d="M37.1,19.7c0.2,0,0.4,0.2,0.4,0.4h0.7c0-0.4-0.3-0.8-0.7-1v-0.8h-0.7V19c-0.5,0.2-0.8,0.8-0.6,1.3
			c0.1,0.4,0.5,0.7,1,0.7c0.2,0,0.4,0.2,0.4,0.4c0,0.2-0.2,0.4-0.4,0.4s-0.4-0.2-0.4-0.4H36c0,0.4,0.3,0.8,0.7,1v0.8h0.7v-0.8
			c0.5-0.2,0.8-0.8,0.6-1.3c-0.1-0.4-0.5-0.7-1-0.7c-0.2,0-0.4-0.2-0.4-0.4C36.7,19.8,36.9,19.7,37.1,19.7z"/>
		<rect x="38.8" y="20.7" class="st35" width="0.7" height="0.7"/>
		<rect x="34.6" y="20.7" class="st35" width="0.7" height="0.7"/>
		<path class="st35" d="M29.3,19.3c-0.8,0-1.4,0.6-1.4,1.4s0.6,1.4,1.4,1.4s1.4-0.6,1.4-1.4S30.1,19.3,29.3,19.3z M29.3,21.4
			c-0.4,0-0.7-0.3-0.7-0.7s0.3-0.7,0.7-0.7c0.4,0,0.7,0.3,0.7,0.7S29.7,21.4,29.3,21.4z"/>
		<rect x="31.4" y="20.4" class="st35" width="0.7" height="0.7"/>
		<rect x="26.5" y="20.4" class="st35" width="0.7" height="0.7"/>
		<path class="st35" d="M40.9,11.6h0.7c0-0.2,0-0.5,0-0.7l-0.7,0.1C40.9,11.1,40.9,11.4,40.9,11.6z"/>
		<path class="st35" d="M41.5,10.1c-0.2-1-0.5-2-1.1-2.9l-0.6,0.4c0.5,0.8,0.8,1.7,1,2.7L41.5,10.1z"/>
		<path class="st35" d="M27.1,5.9l-0.5-0.5c-0.2,0.2-0.4,0.5-0.6,0.7l0.5,0.4C26.7,6.3,26.9,6.1,27.1,5.9z"/>
		<path class="st35" d="M26.1,7.1l-0.6-0.4c-0.8,1.2-1.3,2.7-1.4,4.1l0.7,0.1C24.9,9.6,25.3,8.2,26.1,7.1z"/>
	</g>
	<path class="st35" d="M19.5,31.4h-3.2c-0.5,0-0.9,0.4-0.9,0.9v1.3c0,0.5,0.4,0.9,0.9,0.9h3.2c0.5,0,0.9-0.4,0.9-0.9v-1.3
		C20.4,31.8,20,31.4,19.5,31.4z M19.3,33.4h-2.8v-0.9h2.8V33.4z"/>
	<path class="st35" d="M23.1,25.2c-1.5-0.7-4.3-1.1-5.9-1.4c0,0,0,0,0,0c0,0,0,0,0,0c0,0,0,0,0,0c-0.2,0-0.3-0.2-0.3-0.4v-2.1
		c1.1-0.8,2.3-2.1,2.3-4.2h1.6c1.3,0,2.4-1.1,2.4-2.4l0-1.7c0-5.6-4.5-10.1-10.1-10.1C7.4,2.9,2.9,7.4,2.9,13l0,1.7
		c0,1.1,0.8,2.1,1.9,2.3v1.1c0,0.9,0.7,1.6,1.6,1.6h1.3c0.4,0.7,1,1.2,1.6,1.6v2.1c0,0.2-0.1,0.4-0.3,0.4C7.4,24,4.6,24.5,3,25.2
		c-1.8,0.8-3,2.7-3,4.8v1.8c0,0.3,0.2,0.6,0.6,0.6s0.6-0.2,0.6-0.6v-1.8c0-1.6,0.9-3.1,2.4-3.8c0.7-0.3,1.8-0.6,2.9-0.8L8,28.2
		c0.4,0.7,1.1,1.1,1.8,1.1c0.3,0,0.2,0,2.7-0.4V38H4.9v-2.5c0-0.3-0.2-0.6-0.6-0.6c-0.3,0-0.6,0.2-0.6,0.6V38H1.7
		c-0.3,0-0.6-0.3-0.6-0.6v-3.1c0-0.3-0.2-0.6-0.6-0.6S0,34,0,34.3v3.1c0,0.9,0.7,1.7,1.7,1.7h22.8c0.9,0,1.7-0.8,1.7-1.7v-7.5
		C26.1,27.9,24.9,26,23.1,25.2L23.1,25.2z M17.3,24.9c0.3,0,0.8,0.1,1.2,0.2l-1.4,2.6c-0.2,0.4-0.6,0.6-1,0.5l-1.9-0.3L17.3,24.9z
		 M19.2,11.7c-0.2-1.5-0.9-2.1-2-3.1c-0.8-0.8-2.1-0.7-2.9,0.1c-0.7,0.7-1.6,1.1-2.6,1.1H9.2c-0.8,0-2,0.7-2.3,1.9H6
		C6.6,8.5,9.4,6,12.9,5.9c3.6-0.1,6.6,2.5,7.2,5.8L19.2,11.7L19.2,11.7z M5.9,12.8h1l0,3.2h-1C5.9,12.9,5.9,13.1,5.9,12.8z M20.2,16
		h-1l0-3.2h1C20.2,13.1,20.2,12.9,20.2,16L20.2,16z M4,14.7L4,13c0-5,4-9,9-9c5,0,9,4,9,9l0,1.7c0,0.5-0.3,1-0.7,1.2l0-2.8
		c0-4.6-3.8-8.4-8.5-8.3c-4.4,0.1-8.1,3.7-8.1,8.3l0,2.8C4.3,15.6,4,15.2,4,14.7L4,14.7z M6.4,18.6c-0.3,0-0.5-0.2-0.5-0.5v-1h1
		c0,0.5,0.1,1,0.2,1.5L6.4,18.6z M8.1,18C8.1,17.7,8,17.4,8,17l0-4.8c0-0.9,0.8-1.4,1.2-1.4h2.4c1.3,0,2.5-0.5,3.4-1.4
		c0.4-0.4,1-0.4,1.4-0.1c1.1,1,1.7,1.4,1.7,2.8l0,4.8c0,1.6-0.9,2.7-2,3.5c0,0,0,0-0.1,0c-1.1,0.7-2.3,1.1-2.9,1.1
		c-0.6,0-1.7-0.3-2.7-0.9h1c0.9,0,1.6-0.7,1.6-1.6s-0.7-1.6-1.6-1.6H9.2C8.8,17.6,8.4,17.7,8.1,18L8.1,18z M9.2,19.6
		c-0.3,0-0.5-0.2-0.5-0.5c0-0.3,0.2-0.5,0.5-0.5h2.2c0.3,0,0.5,0.2,0.5,0.5c0,0.3-0.2,0.5-0.5,0.5H9.2z M9.9,28.2
		c-0.4,0.1-0.8-0.1-1-0.5l-1.4-2.6C8,25.1,8.4,25,8.8,24.9l3.1,3L9.9,28.2z M9.9,24.5c0.3-0.3,0.4-0.7,0.4-1.1V22
		c1,0.5,2,0.8,2.7,0.8c0,0,0,0,0,0c0,0,0,0,0,0c0.7,0,1.7-0.3,2.7-0.8v1.4c0,0.4,0.2,0.8,0.4,1.1l-3.2,3L9.9,24.5z M25,37.4
		c0,0.3-0.2,0.6-0.6,0.6h-2.2v-2.5c0-0.3-0.2-0.6-0.6-0.6s-0.6,0.2-0.6,0.6V38h-7.6v-9.1c2.5,0.4,2.4,0.4,2.7,0.4
		c0.8,0,1.5-0.4,1.8-1.1l1.6-2.9c1.1,0.2,2.2,0.5,2.9,0.8c1.4,0.7,2.4,2.1,2.4,3.8L25,37.4L25,37.4z"/>
</g>
</svg>
