<?xml version="1.0" encoding="utf-8"?>
<!-- Generator: Adobe Illustrator 24.0.2, SVG Export Plug-In . SVG Version: 6.00 Build 0)  -->
<svg version="1.1" id="Layer_1" xmlns="http://www.w3.org/2000/svg" xmlns:xlink="http://www.w3.org/1999/xlink" x="0px" y="0px"
	 viewBox="0 0 42 42" style="enable-background:new 0 0 42 42;" xml:space="preserve">
<style type="text/css">
	.st0{fill:#FC6A55;}
	.st1{stroke:#FFFFFF;stroke-width:0.25;stroke-miterlimit:10;}
	.st2{fill:#656D7A;}
	.st3{fill:#FFFFFF;}
	.st4{filter:url(#Adobe_OpacityMaskFilter);}
	.st5{fill-rule:evenodd;clip-rule:evenodd;fill:#FFFFFF;}
	.st6{mask:url(#mask-2_8_);fill-rule:evenodd;clip-rule:evenodd;}
	.st7{filter:url(#Adobe_OpacityMaskFilter_1_);}
	.st8{mask:url(#mask-2_7_);fill-rule:evenodd;clip-rule:evenodd;}
	.st9{filter:url(#Adobe_OpacityMaskFilter_2_);}
	.st10{mask:url(#mask-2_6_);fill-rule:evenodd;clip-rule:evenodd;}
	.st11{filter:url(#Adobe_OpacityMaskFilter_3_);}
	.st12{mask:url(#mask-2_5_);fill-rule:evenodd;clip-rule:evenodd;}
	.st13{filter:url(#Adobe_OpacityMaskFilter_4_);}
	.st14{mask:url(#mask-2_2_);fill:none;stroke:#000000;stroke-width:2;}
	.st15{fill:#434343;}
	.st16{fill:#434343;stroke:#F9F9F9;stroke-width:0.25;stroke-miterlimit:10;}
	.st17{fill:none;stroke:#FC6A55;stroke-width:0.5;stroke-miterlimit:10;}
	.st18{fill:none;stroke:#FC6A55;stroke-width:0.75;stroke-miterlimit:10;}
	.st19{fill:#FC6A55;stroke:#FC6A55;stroke-width:0.5;stroke-miterlimit:10;}
	.st20{opacity:0.153;fill:url(#Path_146_);enable-background:new    ;}
	.st21{opacity:0.1;fill:#590BB2;enable-background:new    ;}
	.st22{fill:#8E8CA8;}
	.st23{fill:#F5F4F9;}
	.st24{fill:#FFD5B8;}
	.st25{fill:#FC8473;}
	.st26{fill:#1C3475;}
	.st27{fill:#DDD9E4;}
	.st28{fill:#828FB3;}
	.st29{opacity:7.584635e-02;fill:url(#Path_147_);enable-background:new    ;}
	.st30{fill:#FFBE92;}
	.st31{fill:#FB8E7F;}
	.st32{fill:#FDB1A6;}
	.st33{fill:#FC806F;}
	.st34{fill:#FFE783;}
	.st35{fill:#104478;}
	.st36{fill:none;stroke:#FFFFFF;stroke-miterlimit:10;}
	.st37{fill:none;stroke:#FC6A55;stroke-miterlimit:10;}
	.st38{fill:none;stroke:#000000;stroke-width:0.15;stroke-miterlimit:10;}
	.st39{opacity:0.1;fill:url(#Path_148_);enable-background:new    ;}
	.st40{opacity:0.1;fill:url(#Path_149_);enable-background:new    ;}
</style>
<g>
	<g>
		<g>
			<path class="st0" d="M41.3,0C41.3,0,41.3,0,41.3,0H0.7C0.3,0,0,0.3,0,0.7c0,0,0,0,0,0v14h1.4V1.4h39.2v15.4H16.1v1.4h25.2
				c0.4,0,0.7-0.3,0.7-0.7c0,0,0,0,0,0V0.7C42,0.3,41.7,0,41.3,0z"/>
		</g>
	</g>
	<g>
		<g>
			<rect x="23.1" y="3.5" class="st0" width="14" height="1.4"/>
		</g>
	</g>
	<g>
		<g>
			<rect x="25.2" y="7.7" class="st0" width="14" height="1.4"/>
		</g>
	</g>
	<g>
		<g>
			<rect x="22.4" y="11.9" class="st0" width="14" height="1.4"/>
		</g>
	</g>
	<g>
		<g>
			<path class="st0" d="M22.3,6c-0.5-1.2-1.8-1.7-3-1.2c0,0,0,0-0.1,0l-5.7,2.9c0.2-0.5,0.3-1,0.3-1.5c0-1.9-1.6-3.5-3.5-3.5
				S7,4.4,7,6.3c0,0.8,0.3,1.5,0.7,2.1h0c-2,0-3.8,1.2-4.5,3.1l-1.9,6.4c-0.4,1.2,0.1,2.5,1.3,2.9c0.5,0.2,1.1,0.2,1.6,0
				c0.6-0.2,1.1-0.7,1.3-1.3l0.7-2.3v10.1c-0.6-0.5-1.3-0.7-2.1-0.7c-1.9,0-3.5,1.6-3.5,3.5c0,0.9,0.4,1.9,1.1,2.5
				C0.7,33.1,0,34.2,0,35.4v5.9C0,41.7,0.3,42,0.7,42c0,0,0,0,0,0h7c0.4,0,0.7-0.3,0.7-0.7c0,0,0,0,0,0v-5.9c0-1-0.5-1.9-1.2-2.5
				h5.3c-0.8,0.6-1.2,1.5-1.2,2.5v5.9c0,0.4,0.3,0.7,0.7,0.7c0,0,0,0,0,0h7c0.4,0,0.7-0.3,0.7-0.7c0,0,0,0,0,0v-5.9
				c0-1.2-0.7-2.3-1.8-2.9c1.4-1.3,1.4-3.6,0.1-4.9c-0.8-0.9-2-1.2-3.2-1V12.3L21.1,9C22.3,8.5,22.8,7.2,22.3,6z M10.5,4.2
				c1.2,0,2.1,0.9,2.1,2.1s-0.9,2.1-2.1,2.1c-1.2,0-2.1-0.9-2.1-2.1C8.4,5.1,9.3,4.2,10.5,4.2z M4.2,28c1.2,0,2.1,0.9,2.1,2.1
				s-0.9,2.1-2.1,2.1s-2.1-0.9-2.1-2.1C2.1,28.9,3,28,4.2,28z M7,40.6H1.4v-5.2c0-1,0.8-1.8,1.8-1.8h1.9c1,0,1.8,0.8,1.8,1.8V40.6z
				 M18.2,35.4v5.2h-5.6v-5.2c0-1,0.8-1.8,1.8-1.8h1.9C17.4,33.6,18.2,34.4,18.2,35.4z M15.4,28c1.2,0,2.1,0.9,2.1,2.1
				c0,1.2-0.9,2.1-2.1,2.1s-2.1-0.9-2.1-2.1S14.2,28,15.4,28z M21.1,7.2c-0.1,0.2-0.3,0.4-0.5,0.5l-6.9,3.6
				c-0.2,0.1-0.4,0.4-0.4,0.6v15.4c-1.3,1-1.8,2.7-1.1,4.2h-1V19.6H9.8v11.9H7.4c0.2-0.4,0.3-0.9,0.3-1.4h0V12.6
				c0-0.4-0.3-0.7-0.7-0.7c-0.3,0-0.6,0.2-0.7,0.5L4.2,19c-0.2,0.4-0.6,0.7-1.1,0.5c0,0-0.1,0-0.1,0c-0.4-0.2-0.6-0.7-0.4-1.1
				L4.6,12c0.5-1.3,1.7-2.1,3.1-2.2h5c0.1,0,0.2,0,0.3-0.1l7-3.6c0.4-0.2,0.9,0,1.1,0.4C21.1,6.7,21.1,7,21.1,7.2z"/>
		</g>
	</g>
	<g>
		<g>
			<path class="st0" d="M29,32.6c1.4-1.3,1.4-3.6,0.1-4.9s-3.6-1.4-4.9-0.1c-1.4,1.3-1.4,3.6-0.1,4.9c0,0,0,0,0.1,0.1
				c-1.1,0.5-1.8,1.7-1.8,2.9v5.9c0,0.4,0.3,0.7,0.7,0.7c0,0,0,0,0,0h7c0.4,0,0.7-0.3,0.7-0.7c0,0,0,0,0,0v-5.9
				C30.8,34.2,30.1,33.1,29,32.6z M26.6,28c1.2,0,2.1,0.9,2.1,2.1s-0.9,2.1-2.1,2.1s-2.1-0.9-2.1-2.1C24.5,28.9,25.4,28,26.6,28z
				 M29.4,40.6h-5.6v-5.2c0-1,0.8-1.8,1.8-1.8h1.9c1,0,1.8,0.8,1.8,1.8V40.6z"/>
		</g>
	</g>
	<g>
		<g>
			<path class="st0" d="M40.2,32.6c1.4-1.3,1.4-3.6,0.1-4.9c-1.3-1.4-3.6-1.4-4.9-0.1s-1.4,3.6-0.1,4.9c0,0,0,0,0.1,0.1
				c-1.1,0.5-1.8,1.7-1.8,2.9v5.9c0,0.4,0.3,0.7,0.7,0.7c0,0,0,0,0,0h7c0.4,0,0.7-0.3,0.7-0.7c0,0,0,0,0,0v-5.9
				C42,34.2,41.3,33.1,40.2,32.6z M37.8,28c1.2,0,2.1,0.9,2.1,2.1s-0.9,2.1-2.1,2.1s-2.1-0.9-2.1-2.1C35.7,28.9,36.6,28,37.8,28z
				 M40.6,40.6H35v-5.2c0-1,0.8-1.8,1.8-1.8h1.9c1,0,1.8,0.8,1.8,1.8V40.6z"/>
		</g>
	</g>
</g>
</svg>
