<?xml version="1.0" encoding="utf-8"?>
<!-- Generator: Adobe Illustrator 24.0.2, SVG Export Plug-In . SVG Version: 6.00 Build 0)  -->
<svg version="1.1" id="Layer_1" xmlns="http://www.w3.org/2000/svg" xmlns:xlink="http://www.w3.org/1999/xlink" x="0px" y="0px"
	 viewBox="0 0 16 16" style="enable-background:new 0 0 16 16;" xml:space="preserve">
<style type="text/css">
	.st0{fill:#FC6A55;}
	.st1{stroke:#FFFFFF;stroke-width:0.25;stroke-miterlimit:10;}
	.st2{fill:#656D7A;}
	.st3{fill:#FFFFFF;}
	.st4{filter:url(#Adobe_OpacityMaskFilter);}
	.st5{fill-rule:evenodd;clip-rule:evenodd;fill:#FFFFFF;}
	.st6{mask:url(#mask-2_8_);fill-rule:evenodd;clip-rule:evenodd;}
	.st7{filter:url(#Adobe_OpacityMaskFilter_1_);}
	.st8{mask:url(#mask-2_7_);fill-rule:evenodd;clip-rule:evenodd;}
	.st9{filter:url(#Adobe_OpacityMaskFilter_2_);}
	.st10{mask:url(#mask-2_6_);fill-rule:evenodd;clip-rule:evenodd;}
	.st11{filter:url(#Adobe_OpacityMaskFilter_3_);}
	.st12{mask:url(#mask-2_5_);fill-rule:evenodd;clip-rule:evenodd;}
	.st13{filter:url(#Adobe_OpacityMaskFilter_4_);}
	.st14{mask:url(#mask-2_2_);fill:none;stroke:#000000;stroke-width:2;}
</style>
<g id="final-design_6_">
	<g id="invensis.net-2.0-index-page_6_" transform="translate(-1527.000000, -7212.000000)">
		<g id="youtube" transform="translate(1527.000000, 7212.000000)">
			<path id="Shape_16_" class="st2" d="M15.8,4.8c-0.2-1.3-0.8-2.2-2.2-2.4C11.4,2,8,2,8,2S4.6,2,2.4,2.4C1,2.6,0.3,3.5,0.2,4.8
				C0,6.1,0,8,0,8s0,1.9,0.2,3.2s0.8,2.2,2.2,2.4C4.6,14,8,14,8,14s3.4,0,5.6-0.4c1.4-0.3,2-1.1,2.2-2.4S16,8,16,8S16,6.1,15.8,4.8z
				 M6,11V5l5,3L6,11z"/>
		</g>
	</g>
</g>
</svg>
