<?xml version="1.0" encoding="utf-8"?>
<!-- Generator: Adobe Illustrator 24.1.1, SVG Export Plug-In . SVG Version: 6.00 Build 0)  -->
<svg version="1.1" id="Layer_1" xmlns="http://www.w3.org/2000/svg" xmlns:xlink="http://www.w3.org/1999/xlink" x="0px" y="0px"
	 viewBox="0 0 18 24" style="enable-background:new 0 0 18 24;" xml:space="preserve">
<style type="text/css">
	.st0{fill:#FC6A55;}
	.st1{fill:#EDEDED;}
	.st2{fill:none;stroke:#FC6A55;stroke-miterlimit:10;}
	.st3{fill:#222F3F;}
	.st4{fill:#383838;}
	.st5{fill:#FFFFFF;}
	.st6{fill:#656D7A;}
	.st7{fill:#C4C4C4;}
	.st8{filter:url(#Adobe_OpacityMaskFilter);}
	.st9{fill-rule:evenodd;clip-rule:evenodd;fill:#FFFFFF;}
	.st10{mask:url(#mask-2_8_);fill-rule:evenodd;clip-rule:evenodd;fill:#FFFFFF;}
	.st11{filter:url(#Adobe_OpacityMaskFilter_1_);}
	.st12{mask:url(#mask-2_7_);fill-rule:evenodd;clip-rule:evenodd;fill:#FFFFFF;}
	.st13{filter:url(#Adobe_OpacityMaskFilter_2_);}
	.st14{mask:url(#mask-2_6_);fill-rule:evenodd;clip-rule:evenodd;fill:#FFFFFF;}
	.st15{filter:url(#Adobe_OpacityMaskFilter_3_);}
	.st16{mask:url(#mask-2_5_);fill-rule:evenodd;clip-rule:evenodd;fill:#FFFFFF;}
	.st17{filter:url(#Adobe_OpacityMaskFilter_4_);}
	.st18{mask:url(#mask-2_2_);fill:none;stroke:#FFFFFF;stroke-width:1.5;stroke-miterlimit:10;}
	.st19{fill:#B4A3EE;}
	.st20{fill:#434343;}
	.st21{fill:#434343;stroke:#F9F9F9;stroke-width:0.25;stroke-miterlimit:10;}
	.st22{fill:none;stroke:#FC6A55;stroke-width:0.75;stroke-miterlimit:10;}
	.st23{fill:#FC6A55;stroke:#FC6A55;stroke-width:0.25;stroke-miterlimit:10;}
	.st24{fill:#FC6A55;stroke:#FC6A55;stroke-width:0.5;stroke-miterlimit:10;}
	.st25{opacity:0.153;fill:url(#Path_44_);enable-background:new    ;}
	.st26{opacity:0.1;fill:#590BB2;enable-background:new    ;}
	.st27{fill:#8E8CA8;}
	.st28{fill:#F5F4F9;}
	.st29{fill:#FFD5B8;}
	.st30{fill:#FC8473;}
	.st31{fill:#1C3475;}
	.st32{fill:#DDD9E4;}
	.st33{fill:#828FB3;}
	.st34{opacity:7.584635e-02;fill:url(#Path_45_);enable-background:new    ;}
	.st35{fill:#FFBE92;}
	.st36{fill:#FB8E7F;}
	.st37{fill:#FDB1A6;}
	.st38{fill:#FC806F;}
	.st39{fill:#FFE783;}
	.st40{fill:#104478;}
	.st41{fill:none;stroke:#FFFFFF;stroke-miterlimit:10;}
	.st42{fill:none;stroke:#000000;stroke-width:0.15;stroke-miterlimit:10;}
	.st43{opacity:0.1;fill:url(#Path_46_);enable-background:new    ;}
	.st44{opacity:0.1;fill:url(#Path_47_);enable-background:new    ;}
	.st45{fill-rule:evenodd;clip-rule:evenodd;fill:#FC6A55;}
	.st46{fill-rule:evenodd;clip-rule:evenodd;}
	.st47{fill:#FF6757;}
	.st48{fill:#6C973D;}
	.st49{fill:none;stroke:#FFFFFF;stroke-width:0.5;stroke-miterlimit:10;}
	.st50{fill:#606060;}
	.st51{fill:#F16A56;}
	.st52{fill:#515252;}
	.st53{fill:#656565;}
	.st54{fill:#F26A56;}
	.st55{fill:none;stroke:#F16A56;stroke-miterlimit:10;}
	.st56{fill:none;stroke:#929292;stroke-miterlimit:10;}
	.st57{fill:#929292;}
	.st58{fill:none;stroke:#000000;stroke-width:0.5;stroke-miterlimit:10;}
	.st59{fill:#A8A7A7;}
	.st60{fill:#F79F91;}
	.st61{fill:#9BDBD5;}
	.st62{fill:#222121;}
	.st63{stroke:#000000;stroke-width:0.25;stroke-miterlimit:10;}
</style>
<g>
	<path id="Shape_50_" class="st0" d="M11.3,8.3v8.8c0,1.1,3.9,1.1,3.9,0V8.3C15.2,7.2,11.3,7.2,11.3,8.3z M14.7,16
		c-0.1,0.1-0.6,0.3-1.4,0.3S12,16.1,11.9,16v-0.5c0.9,0.3,1.9,0.3,2.8,0V16z M14.7,14.9c-0.1,0.1-0.6,0.3-1.4,0.3S12,15,11.9,14.9
		v-0.5c0.9,0.3,1.9,0.3,2.8,0V14.9z M14.7,13.8c-0.1,0.1-0.6,0.3-1.4,0.3s-1.3-0.2-1.4-0.3v-0.5c0.9,0.3,1.9,0.3,2.8,0V13.8z
		 M14.7,12.7c-0.1,0.1-0.6,0.3-1.4,0.3s-1.3-0.2-1.4-0.3v-0.5c0.9,0.3,1.9,0.3,2.8,0V12.7z M14.7,11.6c-0.1,0.1-0.6,0.3-1.4,0.3
		s-1.3-0.2-1.4-0.3v-0.5c0.9,0.3,1.9,0.3,2.8,0V11.6z M14.7,10.5c-0.1,0.1-0.6,0.3-1.4,0.3s-1.3-0.2-1.4-0.3V10
		c0.9,0.3,1.9,0.3,2.8,0V10.5z M14.7,9.4c-0.1,0.1-0.6,0.3-1.4,0.3S12,9.4,11.9,9.4V8.9c0.9,0.3,1.9,0.3,2.8,0V9.4z M13.3,17.4
		c-0.8,0-1.3-0.2-1.4-0.3v-0.5c0.9,0.3,1.9,0.3,2.8,0v0.5C14.6,17.2,14.1,17.4,13.3,17.4z M13.3,8.5c-0.8,0-1.2-0.2-1.4-0.3
		C12,8.2,12.5,8,13.3,8s1.2,0.2,1.4,0.3C14.5,8.4,14,8.5,13.3,8.5z"/>
	<path id="Shape_49_" class="st0" d="M13.3,1.4c-1.4,0-2.5,1.1-2.5,2.5s1.1,2.5,2.5,2.5s2.5-1.1,2.5-2.5S14.6,1.4,13.3,1.4z
		 M13.3,5.8c-1.1,0-1.9-0.9-1.9-1.9s0.9-1.9,1.9-1.9s1.9,0.9,1.9,1.9c0,0.5-0.2,1-0.6,1.4C14.3,5.6,13.8,5.8,13.3,5.8z"/>
	<path id="Shape_48_" class="st0" d="M13.3,3c0.2,0,0.3,0.1,0.3,0.3s0.1,0.3,0.3,0.3c0.5,0,0.3-1.1-0.6-1.1c-0.5,0-0.8,0.4-0.8,0.8
		s0.4,0.8,0.8,0.8c0.2,0,0.3,0.1,0.3,0.3s-0.1,0.3-0.3,0.3S13,4.6,13,4.4s-0.1-0.3-0.3-0.3c-0.5,0-0.3,1.1,0.6,1.1
		c0.5,0,0.8-0.4,0.8-0.8s-0.4-0.8-0.8-0.8c-0.2,0-0.3-0.1-0.3-0.3S13.1,3,13.3,3z"/>
	<g>
		<path id="Shape_47_" class="st0" d="M2.5,17.5h7.2c0.2,0,0.3-0.1,0.3-0.3s-0.1-0.3-0.3-0.3H9.4v-6.1c0-0.3-0.2-0.6-0.6-0.6H8
			c-0.3,0-0.6,0.2-0.6,0.6v6.1H6.9v-4.4c0-0.3-0.2-0.6-0.6-0.6H5.6C5.3,12,5,12.2,5,12.5v4.4H4.5v-2.5c0-0.3-0.2-0.6-0.6-0.6H3.1
			c-0.3,0-0.6,0.2-0.6,0.6v2.5c-0.2,0-0.3,0.1-0.3,0.3S2.4,17.5,2.5,17.5z M8,10.9h0.8v6.1H8V10.9z M5.6,12.5h0.8v4.4H5.6V12.5z
			 M3.1,14.4h0.8v2.5H3.1V14.4z"/>
		<path id="Shape_46_" class="st0" d="M2.8,13.1c0.1,0-0.3,0.4,5.8-4.9v0.5c0,0.2,0.1,0.3,0.3,0.3c0.2,0,0.3-0.1,0.3-0.3
			c0-1.2,0-1.1,0-1.2C9,7.2,9,7.3,7.5,7.3c-0.2,0-0.3,0.1-0.3,0.3s0.1,0.3,0.3,0.3h0.6l-5.5,4.8c-0.1,0.1-0.1,0.2-0.1,0.3
			C2.6,13,2.7,13.1,2.8,13.1z"/>
	</g>
</g>
<g>
	<path class="st0" d="M17.5,18.8c-0.3-0.6-1-0.8-1.6-0.4c0,0,0,0,0,0l-2.8,1.7c-0.2-0.2-0.4-0.4-0.7-0.5l-4.3-1.2
		c-0.3-0.1-0.7-0.1-1,0l-1.5,0.4v-0.5c0-0.2-0.1-0.3-0.3-0.3H2.9c-0.2,0-0.3,0.1-0.3,0.3v0.3h-2c-0.2,0-0.3,0.1-0.3,0.3v4.2
		c0,0.2,0.1,0.3,0.3,0.3h2v0.3c0,0.2,0.1,0.3,0.3,0.3h2.3c0.2,0,0.3-0.1,0.3-0.3v-0.4l0.4,0.2c0.3,0.1,0.6,0.2,0.9,0.2h4.3
		c0.4,0,0.7-0.1,1-0.3l4.9-2.9C17.6,20.2,17.8,19.4,17.5,18.8z M0.9,22.8v-3.6h1.7v3.6H0.9z M5,23.4H3.2v-4.8H5V23.4z M16.8,20
		l-4.9,2.9c-0.2,0.1-0.5,0.2-0.7,0.2H6.8c-0.2,0-0.4-0.1-0.6-0.2l-0.6-0.3v-3.2L7.2,19c0.2-0.1,0.5-0.1,0.7,0l4.3,1.2
		c0.3,0.1,0.5,0.4,0.4,0.7c-0.1,0.3-0.4,0.5-0.7,0.4c0,0,0,0,0,0l-3.5-1c-0.2,0-0.3,0.1-0.4,0.2c0,0.2,0.1,0.3,0.2,0.4l3.5,1
		c0.1,0,0.2,0,0.3,0c0.6,0,1.2-0.5,1.2-1.2c0,0,0-0.1,0-0.1l2.9-1.8c0.3-0.2,0.6-0.1,0.8,0.2C17.2,19.4,17.1,19.8,16.8,20z"/>
</g>
</svg>
