<?xml version="1.0" encoding="utf-8"?>
<!-- Generator: Adobe Illustrator 24.1.1, SVG Export Plug-In . SVG Version: 6.00 Build 0)  -->
<svg version="1.1" id="Layer_1" xmlns="http://www.w3.org/2000/svg" xmlns:xlink="http://www.w3.org/1999/xlink" x="0px" y="0px"
	 viewBox="0 0 15.1 16" style="enable-background:new 0 0 15.1 16;" xml:space="preserve">
<style type="text/css">
	.st0{fill:#FC6A55;}
	.st1{fill:#EDEDED;}
	.st2{fill:none;stroke:#FC6A55;stroke-miterlimit:10;}
	.st3{fill:#222F3F;}
	.st4{fill:#383838;}
	.st5{fill:#FFFFFF;}
	.st6{fill:#656D7A;}
	.st7{fill:#C4C4C4;}
	.st8{filter:url(#Adobe_OpacityMaskFilter);}
	.st9{fill-rule:evenodd;clip-rule:evenodd;fill:#FFFFFF;}
	.st10{mask:url(#mask-2_8_);fill-rule:evenodd;clip-rule:evenodd;fill:#FFFFFF;}
	.st11{filter:url(#Adobe_OpacityMaskFilter_1_);}
	.st12{mask:url(#mask-2_7_);fill-rule:evenodd;clip-rule:evenodd;fill:#FFFFFF;}
	.st13{filter:url(#Adobe_OpacityMaskFilter_2_);}
	.st14{mask:url(#mask-2_6_);fill-rule:evenodd;clip-rule:evenodd;fill:#FFFFFF;}
	.st15{filter:url(#Adobe_OpacityMaskFilter_3_);}
	.st16{mask:url(#mask-2_5_);fill-rule:evenodd;clip-rule:evenodd;fill:#FFFFFF;}
	.st17{filter:url(#Adobe_OpacityMaskFilter_4_);}
	.st18{mask:url(#mask-2_2_);fill:none;stroke:#FFFFFF;stroke-width:1.5;stroke-miterlimit:10;}
	.st19{fill:#B4A3EE;}
	.st20{fill:#434343;}
	.st21{fill:#434343;stroke:#F9F9F9;stroke-width:0.25;stroke-miterlimit:10;}
	.st22{fill:none;stroke:#FC6A55;stroke-width:0.75;stroke-miterlimit:10;}
	.st23{fill:#FC6A55;stroke:#FC6A55;stroke-width:0.25;stroke-miterlimit:10;}
	.st24{fill:#FC6A55;stroke:#FC6A55;stroke-width:0.5;stroke-miterlimit:10;}
	.st25{opacity:0.153;fill:url(#Path_44_);enable-background:new    ;}
	.st26{opacity:0.1;fill:#590BB2;enable-background:new    ;}
	.st27{fill:#8E8CA8;}
	.st28{fill:#F5F4F9;}
	.st29{fill:#FFD5B8;}
	.st30{fill:#FC8473;}
	.st31{fill:#1C3475;}
	.st32{fill:#DDD9E4;}
	.st33{fill:#828FB3;}
	.st34{opacity:7.584635e-02;fill:url(#Path_45_);enable-background:new    ;}
	.st35{fill:#FFBE92;}
	.st36{fill:#FB8E7F;}
	.st37{fill:#FDB1A6;}
	.st38{fill:#FC806F;}
	.st39{fill:#FFE783;}
	.st40{fill:#104478;}
	.st41{fill:none;stroke:#FFFFFF;stroke-miterlimit:10;}
	.st42{fill:none;stroke:#000000;stroke-width:0.15;stroke-miterlimit:10;}
	.st43{opacity:0.1;fill:url(#Path_46_);enable-background:new    ;}
	.st44{opacity:0.1;fill:url(#Path_47_);enable-background:new    ;}
	.st45{fill-rule:evenodd;clip-rule:evenodd;fill:#FC6A55;}
	.st46{fill-rule:evenodd;clip-rule:evenodd;}
	.st47{fill:#FF6757;}
	.st48{fill:#6C973D;}
	.st49{fill:none;stroke:#FFFFFF;stroke-width:0.5;stroke-miterlimit:10;}
	.st50{fill:#606060;}
	.st51{fill:#F16A56;}
	.st52{fill:#515252;}
	.st53{fill:#656565;}
	.st54{fill:#F26A56;}
	.st55{fill:none;stroke:#F16A56;stroke-miterlimit:10;}
	.st56{fill:none;stroke:#929292;stroke-miterlimit:10;}
	.st57{fill:#929292;}
	.st58{fill:none;stroke:#000000;stroke-width:0.5;stroke-miterlimit:10;}
	.st59{fill:#A8A7A7;}
	.st60{fill:#F79F91;}
	.st61{fill:#9BDBD5;}
	.st62{fill:#222121;}
	.st63{stroke:#000000;stroke-width:0.25;stroke-miterlimit:10;}
</style>
<path class="st47" d="M12.5,0c0.3,0.1,0.6,0.1,0.9,0.3c1.1,0.5,1.9,1.7,1.7,2.9c-0.2,1.4-1.2,2.3-2.5,2.5c-1,0.1-1.9-0.2-2.6-1
	c0,0-0.1-0.1-0.1-0.1c0,0-0.1,0-0.1,0.1C8.4,5.4,7.1,6.2,5.7,7C5.6,7,5.6,7.1,5.6,7.2c0.2,0.5,0.2,1.1,0,1.6c0,0.1,0,0.1,0.1,0.2
	c1.4,0.8,2.8,1.5,4.2,2.3c0.1,0.1,0.1,0,0.2,0c0.8-0.9,1.8-1.2,2.9-0.9c1.1,0.3,1.8,1.1,2.1,2.2c0.3,1.6-0.8,3.2-2.4,3.4
	c0,0-0.1,0-0.1,0c-0.2,0-0.4,0-0.6,0c-0.1,0-0.3-0.1-0.4-0.1c-1.6-0.4-2.4-2-2-3.6c0-0.1,0-0.2-0.1-0.2C8,11.3,6.6,10.6,5.3,9.8
	C5.2,9.7,5.1,9.8,5,9.8c-0.8,0.9-2,1.2-3.1,0.8C0.8,10.3,0,9.2,0,8c0-1.2,0.7-2.3,1.9-2.7C3,4.9,4.3,5.2,5,6.2c0,0,0,0.1,0.1,0.1
	C6.6,5.4,8,4.6,9.5,3.8c0-0.2-0.1-0.4-0.1-0.6c-0.2-1.6,0.9-3,2.5-3.2c0,0,0,0,0.1,0C12.1,0,12.3,0,12.5,0z"/>
</svg>
