<?xml version="1.0" encoding="utf-8"?>
<!-- Generator: Adobe Illustrator 24.1.1, SVG Export Plug-In . SVG Version: 6.00 Build 0)  -->
<svg version="1.1" id="Layer_1" xmlns="http://www.w3.org/2000/svg" xmlns:xlink="http://www.w3.org/1999/xlink" x="0px" y="0px"
	 viewBox="0 0 23 23" style="enable-background:new 0 0 23 23;" xml:space="preserve">
<style type="text/css">
	.st0{fill:#FC6A55;}
	.st1{fill:#EDEDED;}
	.st2{fill:none;stroke:#FC6A55;stroke-miterlimit:10;}
	.st3{fill:#222F3F;}
	.st4{fill:#383838;}
	.st5{fill:#FFFFFF;}
	.st6{fill:#656D7A;}
	.st7{fill:#C4C4C4;}
	.st8{filter:url(#Adobe_OpacityMaskFilter);}
	.st9{fill-rule:evenodd;clip-rule:evenodd;fill:#FFFFFF;}
	.st10{mask:url(#mask-2_8_);fill-rule:evenodd;clip-rule:evenodd;fill:#FFFFFF;}
	.st11{filter:url(#Adobe_OpacityMaskFilter_1_);}
	.st12{mask:url(#mask-2_7_);fill-rule:evenodd;clip-rule:evenodd;fill:#FFFFFF;}
	.st13{filter:url(#Adobe_OpacityMaskFilter_2_);}
	.st14{mask:url(#mask-2_6_);fill-rule:evenodd;clip-rule:evenodd;fill:#FFFFFF;}
	.st15{filter:url(#Adobe_OpacityMaskFilter_3_);}
	.st16{mask:url(#mask-2_5_);fill-rule:evenodd;clip-rule:evenodd;fill:#FFFFFF;}
	.st17{filter:url(#Adobe_OpacityMaskFilter_4_);}
	.st18{mask:url(#mask-2_2_);fill:none;stroke:#FFFFFF;stroke-width:1.5;stroke-miterlimit:10;}
	.st19{fill:#B4A3EE;}
	.st20{fill:#434343;}
	.st21{fill:#434343;stroke:#F9F9F9;stroke-width:0.25;stroke-miterlimit:10;}
	.st22{fill:none;stroke:#FC6A55;stroke-width:0.75;stroke-miterlimit:10;}
	.st23{fill:#FC6A55;stroke:#FC6A55;stroke-width:0.25;stroke-miterlimit:10;}
	.st24{fill:#FC6A55;stroke:#FC6A55;stroke-width:0.5;stroke-miterlimit:10;}
	.st25{opacity:0.153;fill:url(#Path_44_);enable-background:new    ;}
	.st26{opacity:0.1;fill:#590BB2;enable-background:new    ;}
	.st27{fill:#8E8CA8;}
	.st28{fill:#F5F4F9;}
	.st29{fill:#FFD5B8;}
	.st30{fill:#FC8473;}
	.st31{fill:#1C3475;}
	.st32{fill:#DDD9E4;}
	.st33{fill:#828FB3;}
	.st34{opacity:7.584635e-02;fill:url(#Path_45_);enable-background:new    ;}
	.st35{fill:#FFBE92;}
	.st36{fill:#FB8E7F;}
	.st37{fill:#FDB1A6;}
	.st38{fill:#FC806F;}
	.st39{fill:#FFE783;}
	.st40{fill:#104478;}
	.st41{fill:none;stroke:#FFFFFF;stroke-miterlimit:10;}
	.st42{fill:none;stroke:#000000;stroke-width:0.15;stroke-miterlimit:10;}
	.st43{opacity:0.1;fill:url(#Path_46_);enable-background:new    ;}
	.st44{opacity:0.1;fill:url(#Path_47_);enable-background:new    ;}
	.st45{fill-rule:evenodd;clip-rule:evenodd;fill:#FC6A55;}
	.st46{fill-rule:evenodd;clip-rule:evenodd;}
	.st47{fill:#FF6757;}
	.st48{fill:#6C973D;}
	.st49{fill:none;stroke:#FFFFFF;stroke-width:0.5;stroke-miterlimit:10;}
	.st50{fill:#606060;}
	.st51{fill:#F16A56;}
	.st52{fill:#515252;}
	.st53{fill:#656565;}
	.st54{fill:#F26A56;}
	.st55{fill:none;stroke:#F16A56;stroke-miterlimit:10;}
	.st56{fill:none;stroke:#929292;stroke-miterlimit:10;}
	.st57{fill:#929292;}
	.st58{fill:none;stroke:#000000;stroke-width:0.5;stroke-miterlimit:10;}
	.st59{fill:#A8A7A7;}
	.st60{fill:#F79F91;}
	.st61{fill:#9BDBD5;}
	.st62{fill:#222121;}
	.st63{stroke:#000000;stroke-width:0.25;stroke-miterlimit:10;}
</style>
<g>
	<g>
		<g>
			<path d="M17.3,1.8c-1.8,0-3.3,1.5-3.3,3.3c0,0.9,0.4,1.8,1,2.4c0,0,0,0,0.1,0.1c0.6,0.5,1.4,0.9,2.2,0.9s1.6-0.3,2.2-0.9
				c0,0,0,0,0.1-0.1c0.6-0.6,1-1.5,1-2.4C20.7,3.3,19.2,1.8,17.3,1.8z M17.3,7.6c-0.5,0-1-0.2-1.4-0.4c0.3-0.5,0.8-0.8,1.4-0.8
				s1.1,0.3,1.4,0.8C18.3,7.4,17.9,7.6,17.3,7.6z M16.9,5V4.8c0-0.3,0.2-0.5,0.5-0.5s0.5,0.2,0.5,0.5V5c0,0.3-0.2,0.5-0.5,0.5
				S16.9,5.3,16.9,5z M19.4,6.5c-0.2-0.3-0.5-0.6-0.9-0.7c0.1-0.2,0.2-0.5,0.2-0.7V4.8c0-0.7-0.6-1.4-1.4-1.4S16,4,16,4.8V5
				c0,0.3,0.1,0.5,0.2,0.7c-0.3,0.2-0.6,0.4-0.9,0.7c-0.2-0.4-0.4-0.8-0.4-1.3c0-1.3,1.1-2.4,2.4-2.4c1.3,0,2.4,1.1,2.4,2.4
				C19.8,5.6,19.6,6.1,19.4,6.5z"/>
		</g>
	</g>
	<g>
		<g>
			<path d="M22.5,17.4c-0.6-0.6-1.5-0.7-2.2-0.2c0,0,0,0,0,0l-2.5,1.9c-0.2,0.1-0.2,0.4-0.1,0.6c0.1,0.2,0.4,0.2,0.6,0.1l2.5-1.9
				c0.3-0.2,0.8-0.2,1.1,0.1c0.1,0.1,0.2,0.3,0.2,0.6c0,0.2-0.1,0.4-0.3,0.5L19.5,21c-0.9,0.7-2,1.1-3.1,1.1H9.8
				c-0.9,0-1.8-0.2-2.6-0.7l-1.8-1.1v-5.7h3.5c0.5,0,0.9,0.2,1.3,0.5l2.4,2.4c0.3,0.3,0.8,0.5,1.3,0.5h1.8c0.4,0,0.7,0.3,0.7,0.7
				s-0.3,0.7-0.7,0.7h-3.4c-0.3,0-0.6-0.1-0.9-0.3l-1.4-0.9l0,0c-0.2-0.1-0.5-0.1-0.6,0.1c-0.1,0.2-0.1,0.5,0.1,0.6l1.4,0.9
				c0.4,0.3,0.9,0.4,1.4,0.4h3.4c0.9,0,1.6-0.7,1.6-1.6s-0.7-1.6-1.6-1.6h-1.7l3.7-2.2h4.5c0.5,0,0.9-0.4,0.9-0.9V0.9
				C23,0.4,22.6,0,22.1,0h-9.5c-0.5,0-0.9,0.4-0.9,0.9v13.2c0,0.5,0.4,0.9,0.9,0.9h3.2l-2.8,1.6c0,0,0,0,0,0l-2.1-2.1
				c-0.5-0.5-1.2-0.8-1.9-0.8H5.4v-0.8C5.4,12.4,5,12,4.5,12H0.4C0.2,12,0,12.2,0,12.5v10.1C0,22.8,0.2,23,0.4,23h4.1
				c0.5,0,0.9-0.4,0.9-0.9v-0.8l1.3,0.8c0.9,0.6,2,0.8,3,0.8h6.6c1.3,0,2.6-0.5,3.7-1.3l2.3-1.9c0.4-0.3,0.6-0.7,0.6-1.2
				C23,18.2,22.8,17.7,22.5,17.4z M12.6,14.1V0.9h9.5l0,13.2c0,0,0,0,0,0H12.6z M4.5,22.1H0.9v-9.2h3.6l0,1.2c0,0,0,0,0,0
				c0,0,0,0,0,0l0,6.3c0,0,0,0,0,0L4.5,22.1C4.5,22.1,4.5,22.1,4.5,22.1z"/>
		</g>
	</g>
	<g>
		<g>
			<path d="M10.5,2.3C10.4,2.1,10.1,2,9.9,2.1l-4,2.3C5.4,4.7,5.3,5.2,5.5,5.7l3.9,6.8c0.1,0.1,0.2,0.2,0.4,0.2c0.1,0,0.2,0,0.2-0.1
				c0.2-0.1,0.3-0.4,0.2-0.6L6.3,5.2l4-2.3C10.6,2.8,10.6,2.5,10.5,2.3z"/>
		</g>
	</g>
	<g>
		<g>
			<path d="M20.1,9.5h-5.2c-0.2,0-0.4,0.2-0.4,0.4c0,0.2,0.2,0.4,0.4,0.4h5.2c0.2,0,0.4-0.2,0.4-0.4C20.6,9.7,20.4,9.5,20.1,9.5z"/>
		</g>
	</g>
	<g>
		<g>
			<path d="M20.4,11.6c-0.1-0.1-0.2-0.1-0.3-0.1c-0.1,0-0.2,0-0.3,0.1c-0.1,0.1-0.1,0.2-0.1,0.3s0,0.2,0.1,0.3
				c0.1,0.1,0.2,0.1,0.3,0.1c0.1,0,0.2,0,0.3-0.1c0.1-0.1,0.1-0.2,0.1-0.3S20.5,11.7,20.4,11.6z"/>
		</g>
	</g>
	<g>
		<g>
			<path d="M18.3,11.5h-3.3c-0.2,0-0.4,0.2-0.4,0.4c0,0.2,0.2,0.4,0.4,0.4h3.3c0.2,0,0.4-0.2,0.4-0.4C18.7,11.7,18.5,11.5,18.3,11.5
				z"/>
		</g>
	</g>
	<g>
		<g>
			<path d="M2.7,16.5c-0.2,0-0.4,0.2-0.4,0.4v1.8c0,0.2,0.2,0.4,0.4,0.4s0.4-0.2,0.4-0.4V17C3.2,16.7,2.9,16.5,2.7,16.5z"/>
		</g>
	</g>
	<g>
		<g>
			<path d="M3,20c-0.1-0.1-0.2-0.1-0.3-0.1c-0.1,0-0.2,0-0.3,0.1c-0.1,0.1-0.1,0.2-0.1,0.3c0,0.1,0,0.2,0.1,0.3
				c0.1,0.1,0.2,0.1,0.3,0.1c0.1,0,0.2,0,0.3-0.1c0.1-0.1,0.1-0.2,0.1-0.3C3.1,20.2,3.1,20.1,3,20z"/>
		</g>
	</g>
</g>
</svg>
