<?xml version="1.0" encoding="utf-8"?>
<!-- Generator: Adobe Illustrator 24.0.2, SVG Export Plug-In . SVG Version: 6.00 Build 0)  -->
<svg version="1.1" id="Layer_1" xmlns="http://www.w3.org/2000/svg" xmlns:xlink="http://www.w3.org/1999/xlink" x="0px" y="0px"
	 viewBox="0 0 18 24" style="enable-background:new 0 0 18 24;" xml:space="preserve">
<style type="text/css">
	.st0{fill:#FC6A55;}
	.st1{fill:#EDEDED;}
	.st2{fill:none;stroke:#FC6A55;stroke-miterlimit:10;}
	.st3{stroke:#FFFFFF;stroke-width:0.25;stroke-miterlimit:10;}
	.st4{fill:#656D7A;}
	.st5{fill:#FFFFFF;}
	.st6{filter:url(#Adobe_OpacityMaskFilter);}
	.st7{fill-rule:evenodd;clip-rule:evenodd;fill:#FFFFFF;}
	.st8{mask:url(#mask-2_8_);fill-rule:evenodd;clip-rule:evenodd;}
	.st9{filter:url(#Adobe_OpacityMaskFilter_1_);}
	.st10{mask:url(#mask-2_7_);fill-rule:evenodd;clip-rule:evenodd;}
	.st11{filter:url(#Adobe_OpacityMaskFilter_2_);}
	.st12{mask:url(#mask-2_6_);fill-rule:evenodd;clip-rule:evenodd;}
	.st13{filter:url(#Adobe_OpacityMaskFilter_3_);}
	.st14{mask:url(#mask-2_5_);fill-rule:evenodd;clip-rule:evenodd;}
	.st15{filter:url(#Adobe_OpacityMaskFilter_4_);}
	.st16{mask:url(#mask-2_2_);fill:none;stroke:#000000;stroke-width:2;}
	.st17{fill:#434343;}
	.st18{fill:#434343;stroke:#F9F9F9;stroke-width:0.25;stroke-miterlimit:10;}
	.st19{fill:none;stroke:#FC6A55;stroke-width:0.5;stroke-miterlimit:10;}
	.st20{fill:none;stroke:#FC6A55;stroke-width:0.75;stroke-miterlimit:10;}
	.st21{fill:#FC6A55;stroke:#FC6A55;stroke-width:0.5;stroke-miterlimit:10;}
	.st22{opacity:0.153;fill:url(#Path_146_);enable-background:new    ;}
	.st23{opacity:0.1;fill:#590BB2;enable-background:new    ;}
	.st24{fill:#8E8CA8;}
	.st25{fill:#F5F4F9;}
	.st26{fill:#FFD5B8;}
	.st27{fill:#FC8473;}
	.st28{fill:#1C3475;}
	.st29{fill:#DDD9E4;}
	.st30{fill:#828FB3;}
	.st31{opacity:7.584635e-02;fill:url(#Path_147_);enable-background:new    ;}
	.st32{fill:#FFBE92;}
	.st33{fill:#FB8E7F;}
	.st34{fill:#FDB1A6;}
	.st35{fill:#FC806F;}
	.st36{fill:#FFE783;}
	.st37{fill:#104478;}
	.st38{fill:none;stroke:#FFFFFF;stroke-miterlimit:10;}
	.st39{fill:none;stroke:#000000;stroke-width:0.15;stroke-miterlimit:10;}
	.st40{opacity:0.1;fill:url(#Path_148_);enable-background:new    ;}
	.st41{opacity:0.1;fill:url(#Path_149_);enable-background:new    ;}
</style>
<g>
	<path class="st0" d="M16.4,15.2l-2.2-0.5v-0.6c0.2-0.2,0.4-0.4,0.6-0.6h0.3c0.8,0,1.5-0.7,1.5-1.5c0-0.3-0.1-0.6-0.3-0.9V10
		c0-1.9-1.6-3.5-3.5-3.5S9.3,8,9.3,10v1.2C9.1,11.4,9,11.7,9,12c0,0.8,0.7,1.5,1.5,1.5h0.3c0.1,0.2,0.3,0.5,0.6,0.6v0.6l-2.2,0.5
		c-0.1,0-0.3,0.1-0.4,0.1v-1.6c0-0.5-0.4-0.9-0.9-0.9h-7c-0.5,0-0.9,0.4-0.9,0.9V19c0,0.5,0.4,0.9,0.9,0.9h2.3v0.6H2.6V21H18v-3.8
		C18,16.2,17.4,15.4,16.4,15.2z M11.5,15.2l0.7,0.5l-0.7,0.4l-0.2-0.9L11.5,15.2z M12.5,17.5h0.6l0.2,2.9h-1.1L12.5,17.5z
		 M13.1,16.9h-0.7l-0.2-0.5l0.5-0.3l0.5,0.3L13.1,16.9z M13.3,15.7l0.7-0.5l0.2,0L14,16.2L13.3,15.7z M15.1,12.9L15.1,12.9
		c0-0.2,0-0.4,0-0.6v-1.2c0.5,0,0.9,0.4,0.9,0.9S15.6,12.9,15.1,12.9z M12.8,7.1c1.6,0,2.9,1.3,2.9,2.9v0.7
		c-0.2-0.1-0.4-0.1-0.6-0.1V10h-0.6v0.2c-0.2,0.2-0.4,0.3-0.7,0.4c0,0,0,0,0,0l-0.4-0.4c-0.2,0.2-0.5,0.4-0.8,0.4c0,0,0,0,0,0
		l-0.4-0.4c-0.3,0.3-0.8,0.5-1.2,0.5h0V10h-0.6v0.6c-0.2,0-0.4,0-0.6,0.1V10C9.9,8.4,11.2,7.1,12.8,7.1z M10.5,12.9
		c-0.5,0-0.9-0.4-0.9-0.9s0.4-0.9,0.9-0.9v1.2C10.5,12.5,10.5,12.7,10.5,12.9L10.5,12.9z M11,12.3v-1.2h0c0.3,0,0.6-0.1,0.8-0.2v0.2
		h0.3c0.3,0,0.6-0.1,0.8-0.2v0.2h0.3c0.4,0,0.8-0.1,1.1-0.3v1.5c0,0.2,0,0.4-0.1,0.6h-1.6v0.6h1.3c-0.3,0.4-0.8,0.6-1.3,0.6
		C11.8,14,11,13.3,11,12.3z M12.8,14.6c0.3,0,0.6-0.1,0.9-0.2v0.3l-0.9,0.7l-0.9-0.7v-0.3C12.2,14.6,12.5,14.6,12.8,14.6z M9.3,15.7
		l1.6-0.4l0.3,1.7l0.6-0.4l0.2,0.5l-0.3,3.2h-1.5v-3.2H9.6v3.2H8.1v-0.6c0.3-0.1,0.6-0.4,0.6-0.8v-3C8.9,15.9,9.1,15.8,9.3,15.7z
		 M5.5,19.8h2v0.6h-2V19.8z M0.9,19.3c-0.2,0-0.3-0.1-0.3-0.3v-5.2c0-0.2,0.1-0.3,0.3-0.3h7c0.2,0,0.3,0.1,0.3,0.3V19
		c0,0.2-0.1,0.3-0.3,0.3H5.5v-0.6c0-0.6-0.5-1.2-1.2-1.2S3.2,18,3.2,18.7v0.6H0.9z M3.8,18.7c0-0.3,0.3-0.6,0.6-0.6s0.6,0.3,0.6,0.6
		v1.7H3.8V18.7z M17.4,20.4H16v-3.2h-0.6v3.2h-1.5l-0.3-3.2l0.2-0.5l0.6,0.4l0.3-1.7l1.5,0.4c0.7,0.2,1.1,0.7,1.1,1.4V20.4z"/>
	<path class="st0" d="M7.3,8.9c0-0.4-0.2-0.7-0.6-0.8L5.5,7.7V7.3c0.4-0.3,0.6-0.7,0.6-1.2V5.6c0-0.8-0.7-1.5-1.5-1.5
		S3.2,4.8,3.2,5.6v0.6c0,0.5,0.2,0.9,0.6,1.2v0.4L2.6,8.1C2.3,8.2,2,8.6,2,8.9v1.6h5.2V8.9z M3.8,5.6c0-0.5,0.4-0.9,0.9-0.9
		s0.9,0.4,0.9,0.9v0.6c0,0.5-0.4,0.9-0.9,0.9S3.8,6.7,3.8,6.2V5.6z M6.7,10H2.6v-1c0-0.1,0.1-0.2,0.2-0.3l1.5-0.5V7.6
		c0.1,0,0.2,0,0.3,0c0.1,0,0.2,0,0.3,0v0.5l1.5,0.5c0.1,0,0.2,0.2,0.2,0.3V10z"/>
	<path class="st0" d="M4.6,12.3c2.6,0,4.6-2.1,4.6-4.6S7.2,3,4.6,3S0,5.1,0,7.6S2.1,12.3,4.6,12.3z M4.6,3.6c2.2,0,4.1,1.8,4.1,4.1
		s-1.8,4.1-4.1,4.1S0.6,9.9,0.6,7.6S2.4,3.6,4.6,3.6z"/>
	<path class="st0" d="M10.7,4.7h0.6v0.6h-0.6V4.7z"/>
	<path class="st0" d="M12.5,4.7h0.6v0.6h-0.6V4.7z"/>
	<path class="st0" d="M14.2,4.7h0.6v0.6h-0.6V4.7z"/>
</g>
</svg>
