<?xml version="1.0" encoding="utf-8"?>
<!-- Generator: Adobe Illustrator 24.1.1, SVG Export Plug-In . SVG Version: 6.00 Build 0)  -->
<svg version="1.1" id="Layer_1" xmlns="http://www.w3.org/2000/svg" xmlns:xlink="http://www.w3.org/1999/xlink" x="0px" y="0px"
	 viewBox="0 0 77 73" style="enable-background:new 0 0 77 73;" xml:space="preserve">
<style type="text/css">
	.st0{fill:#FC6A55;}
	.st1{fill:#EDEDED;}
	.st2{fill:none;stroke:#FC6A55;stroke-miterlimit:10;}
	.st3{fill:#222F3F;}
	.st4{fill:#383838;}
	.st5{fill:#FFFFFF;}
	.st6{fill:#656D7A;}
	.st7{fill:#C4C4C4;}
	.st8{filter:url(#Adobe_OpacityMaskFilter);}
	.st9{fill-rule:evenodd;clip-rule:evenodd;fill:#FFFFFF;}
	.st10{mask:url(#mask-2_8_);fill-rule:evenodd;clip-rule:evenodd;fill:#FFFFFF;}
	.st11{filter:url(#Adobe_OpacityMaskFilter_1_);}
	.st12{mask:url(#mask-2_7_);fill-rule:evenodd;clip-rule:evenodd;fill:#FFFFFF;}
	.st13{filter:url(#Adobe_OpacityMaskFilter_2_);}
	.st14{mask:url(#mask-2_6_);fill-rule:evenodd;clip-rule:evenodd;fill:#FFFFFF;}
	.st15{filter:url(#Adobe_OpacityMaskFilter_3_);}
	.st16{mask:url(#mask-2_5_);fill-rule:evenodd;clip-rule:evenodd;fill:#FFFFFF;}
	.st17{filter:url(#Adobe_OpacityMaskFilter_4_);}
	.st18{mask:url(#mask-2_2_);fill:none;stroke:#FFFFFF;stroke-width:1.5;stroke-miterlimit:10;}
	.st19{fill:#B4A3EE;}
	.st20{fill:#434343;}
	.st21{fill:#434343;stroke:#F9F9F9;stroke-width:0.25;stroke-miterlimit:10;}
	.st22{fill:none;stroke:#FC6A55;stroke-width:0.75;stroke-miterlimit:10;}
	.st23{fill:#FC6A55;stroke:#FC6A55;stroke-width:0.25;stroke-miterlimit:10;}
	.st24{fill:#FC6A55;stroke:#FC6A55;stroke-width:0.5;stroke-miterlimit:10;}
	.st25{opacity:0.5;fill:#FC6A55;}
	.st26{fill:#F5F4F9;}
	.st27{opacity:0.153;fill:url(#Path_144_);enable-background:new    ;}
	.st28{opacity:0.1;fill:#590BB2;enable-background:new    ;}
	.st29{fill:#8E8CA8;}
	.st30{fill:#FFD5B8;}
	.st31{fill:#FC8473;}
	.st32{fill:#1C3475;}
	.st33{fill:#DDD9E4;}
	.st34{fill:#828FB3;}
	.st35{opacity:7.584635e-02;fill:url(#Path_145_);enable-background:new    ;}
	.st36{fill:#FFBE92;}
	.st37{fill:#FB8E7F;}
	.st38{fill:#FDB1A6;}
	.st39{fill:#FC806F;}
	.st40{fill:#FFE783;}
	.st41{fill:#104478;}
	.st42{fill:none;stroke:#FFFFFF;stroke-miterlimit:10;}
	.st43{fill:none;stroke:#000000;stroke-width:0.15;stroke-miterlimit:10;}
	.st44{opacity:0.3;fill:#FC6A55;}
	.st45{opacity:0.1;fill:url(#Path_147_);enable-background:new    ;}
	.st46{opacity:0.1;fill:url(#Path_150_);enable-background:new    ;}
	.st47{fill-rule:evenodd;clip-rule:evenodd;fill:#FC6A55;}
	.st48{fill-rule:evenodd;clip-rule:evenodd;}
	.st49{fill:#FF6757;}
	.st50{fill:#6C973D;}
	.st51{fill:none;stroke:#FFFFFF;stroke-width:0.5;stroke-miterlimit:10;}
	.st52{fill:#606060;}
	.st53{fill:#F16A56;}
	.st54{fill:#515252;}
	.st55{fill:#656565;}
	.st56{fill:#F26A56;}
	.st57{fill:none;stroke:#F16A56;stroke-miterlimit:10;}
	.st58{fill:none;stroke:#929292;stroke-miterlimit:10;}
	.st59{fill:#929292;}
	.st60{fill:none;stroke:#000000;stroke-width:0.5;stroke-miterlimit:10;}
	.st61{fill:#A8A7A7;}
	.st62{opacity:0.4;fill:#FC6A55;}
	.st63{fill:#F79F91;}
	.st64{fill:#9BDBD5;}
	.st65{fill:#222121;}
	.st66{stroke:#000000;stroke-width:0.25;stroke-miterlimit:10;}
</style>
<path class="st0" d="M3.8,31.9h6.4c0.4,1.4,0.9,2.7,1.6,3.9l-4.5,4.5C7.1,40.5,7,40.8,7,41.1s0.1,0.6,0.3,0.8l4.9,4.9
	c0.5,0.5,1.2,0.5,1.6,0l4.5-4.5c1.2,0.7,2.5,1.2,3.9,1.6v6.4c0,0.6,0.5,1.2,1.2,1.2h6.9c0.6,0,1.2-0.5,1.2-1.2V44
	c1.4-0.4,2.7-0.9,3.9-1.6l4.5,4.5c0.5,0.4,1.2,0.4,1.6,0l4.9-4.9c0.2-0.2,0.3-0.5,0.3-0.8s-0.1-0.6-0.3-0.8L42,35.8
	c0.7-1.2,1.2-2.5,1.6-3.9h6.4c0.6,0,1.2-0.5,1.2-1.2v-6.9c0-0.6-0.5-1.2-1.2-1.2h-6.4c-0.4-1.4-0.9-2.7-1.6-3.9l4.5-4.5
	c0.2-0.2,0.3-0.5,0.3-0.8c0-0.3-0.1-0.6-0.3-0.8l-4.9-4.9c-0.5-0.5-1.2-0.5-1.6,0l-4.5,4.5c-1.2-0.7-2.5-1.2-3.9-1.6V4.2
	c0-0.6-0.5-1.2-1.2-1.2h-6.9c-0.6,0-1.2,0.5-1.2,1.2v6.4c-1.4,0.4-2.7,0.9-3.9,1.6l-4.5-4.5c-0.5-0.4-1.2-0.4-1.6,0l-4.9,4.9
	C7.1,12.8,7,13.1,7,13.4c0,0.3,0.1,0.6,0.3,0.8l4.5,4.5c-0.7,1.2-1.2,2.5-1.6,3.9H3.8c-0.6,0-1.2,0.5-1.2,1.2v6.9
	C2.7,31.4,3.2,31.9,3.8,31.9z M5,24.9h6.2c0.5,0,1-0.4,1.1-0.9c0.4-1.7,1.1-3.4,2-4.9c0.3-0.5,0.2-1.1-0.2-1.4l-4.4-4.4l3.3-3.3
	l4.4,4.4c0.4,0.4,1,0.4,1.4,0.2c1.5-1,3.1-1.6,4.9-2c0.5-0.1,0.9-0.6,0.9-1.1V5.3h4.6v6.2c0,0.5,0.4,1,0.9,1.1
	c1.7,0.4,3.4,1.1,4.9,2c0.5,0.3,1.1,0.2,1.4-0.2l4.4-4.4l3.3,3.3l-4.4,4.4c-0.4,0.4-0.4,1-0.2,1.4c1,1.5,1.6,3.1,2,4.9
	c0.1,0.5,0.6,0.9,1.1,0.9h6.2v4.6h-6.2c-0.5,0-1,0.4-1.1,0.9c-0.4,1.7-1.1,3.4-2,4.9c-0.3,0.5-0.2,1.1,0.2,1.4l4.4,4.4l-3.3,3.3
	l-4.4-4.4c-0.4-0.4-1-0.4-1.4-0.2c-1.5,1-3.1,1.6-4.9,2c-0.5,0.1-0.9,0.6-0.9,1.1v6.2h-4.6V43c0-0.5-0.4-1-0.9-1.1
	c-1.7-0.4-3.4-1.1-4.9-2c-0.5-0.3-1.1-0.2-1.4,0.2l-4.4,4.4l-3.3-3.3l4.4-4.4c0.4-0.4,0.4-1,0.2-1.4c-1-1.5-1.6-3.1-2-4.9
	c-0.1-0.5-0.6-0.9-1.1-0.9H5V24.9z"/>
<path class="st0" d="M26.9,36.5c5.1,0,9.2-4.1,9.2-9.2c0-5.1-4.1-9.2-9.2-9.2s-9.2,4.1-9.2,9.2C17.7,32.4,21.8,36.5,26.9,36.5z
	 M26.9,20.3c3.8,0,6.9,3.1,6.9,6.9c0,3.8-3.1,6.9-6.9,6.9S20,31.1,20,27.3C20,23.4,23.1,20.3,26.9,20.3z"/>
<path class="st0" d="M26.9,40c7,0,12.7-5.7,12.7-12.7c0-7-5.7-12.7-12.7-12.7s-12.7,5.7-12.7,12.7C14.2,34.3,19.9,40,26.9,40z
	 M26.9,16.9c5.7,0,10.4,4.7,10.4,10.4s-4.7,10.4-10.4,10.4S16.6,33,16.6,27.3C16.6,21.5,21.2,16.9,26.9,16.9z"/>
<path class="st0" d="M68.5,56.1v-9.2c0-0.6-0.5-1.2-1.2-1.2h-2.3v-9.2c0-0.6-0.5-1.2-1.2-1.2H53.5c-0.6,0-1.2,0.5-1.2,1.2v9.2h-5.8
	c-0.6,0-1.2,0.5-1.2,1.2v9.2h-37c-3.2,0-5.8,2.6-5.8,5.8v2.3c0,3.2,2.6,5.8,5.8,5.8h60.1c3.2,0,5.8-2.6,5.8-5.8v-2.3
	C74.3,58.7,71.7,56.1,68.5,56.1z M66.2,56.1h-8.1v-8.1h8.1V56.1z M54.7,37.7h8.1v8.1h-8.1V37.7z M47.7,48.1h8.1v8.1h-8.1V48.1z
	 M72,64.2c0,1.9-1.6,3.5-3.5,3.5H8.5c-1.9,0-3.5-1.6-3.5-3.5v-2.3c0-1.9,1.6-3.5,3.5-3.5h60.1c1.9,0,3.5,1.6,3.5,3.5V64.2z"/>
<path class="st0" d="M38.5,59.6c-1.9,0-3.5,1.6-3.5,3.5c0,1.9,1.6,3.5,3.5,3.5S42,65,42,63.1C42,61.2,40.4,59.6,38.5,59.6z
	 M38.5,64.2c-0.6,0-1.2-0.5-1.2-1.2c0-0.6,0.5-1.2,1.2-1.2s1.2,0.5,1.2,1.2C39.7,63.7,39.1,64.2,38.5,64.2z"/>
<path class="st0" d="M26.9,59.6c-1.9,0-3.5,1.6-3.5,3.5c0,1.9,1.6,3.5,3.5,3.5s3.5-1.6,3.5-3.5C30.4,61.2,28.9,59.6,26.9,59.6z
	 M26.9,64.2c-0.6,0-1.2-0.5-1.2-1.2c0-0.6,0.5-1.2,1.2-1.2s1.2,0.5,1.2,1.2C28.1,63.7,27.6,64.2,26.9,64.2z"/>
<path class="st0" d="M50.1,59.6c-1.9,0-3.5,1.6-3.5,3.5c0,1.9,1.6,3.5,3.5,3.5c1.9,0,3.5-1.6,3.5-3.5C53.5,61.2,52,59.6,50.1,59.6z
	 M50.1,64.2c-0.6,0-1.2-0.5-1.2-1.2c0-0.6,0.5-1.2,1.2-1.2c0.6,0,1.2,0.5,1.2,1.2C51.2,63.7,50.7,64.2,50.1,64.2z"/>
<path class="st0" d="M15.4,59.6c-1.9,0-3.5,1.6-3.5,3.5c0,1.9,1.6,3.5,3.5,3.5s3.5-1.6,3.5-3.5C18.9,61.2,17.3,59.6,15.4,59.6z
	 M15.4,64.2c-0.6,0-1.2-0.5-1.2-1.2c0-0.6,0.5-1.2,1.2-1.2c0.6,0,1.2,0.5,1.2,1.2C16.6,63.7,16,64.2,15.4,64.2z"/>
<path class="st0" d="M61.6,59.6c-1.9,0-3.5,1.6-3.5,3.5c0,1.9,1.6,3.5,3.5,3.5c1.9,0,3.5-1.6,3.5-3.5C65.1,61.2,63.5,59.6,61.6,59.6
	z M61.6,64.2c-0.6,0-1.2-0.5-1.2-1.2c0-0.6,0.5-1.2,1.2-1.2c0.6,0,1.2,0.5,1.2,1.2C62.8,63.7,62.2,64.2,61.6,64.2z"/>
</svg>
