<?xml version="1.0" encoding="utf-8"?>
<!-- Generator: Adobe Illustrator 24.1.1, SVG Export Plug-In . SVG Version: 6.00 Build 0)  -->
<svg version="1.1" id="Layer_1" xmlns="http://www.w3.org/2000/svg" xmlns:xlink="http://www.w3.org/1999/xlink" x="0px" y="0px"
	 viewBox="0 0 77 73" style="enable-background:new 0 0 77 73;" xml:space="preserve">
<style type="text/css">
	.st0{fill:#FC6A55;}
	.st1{fill:#EDEDED;}
	.st2{fill:none;stroke:#FC6A55;stroke-miterlimit:10;}
	.st3{fill:#222F3F;}
	.st4{fill:#383838;}
	.st5{fill:#FFFFFF;}
	.st6{fill:#656D7A;}
	.st7{fill:#C4C4C4;}
	.st8{filter:url(#Adobe_OpacityMaskFilter);}
	.st9{fill-rule:evenodd;clip-rule:evenodd;fill:#FFFFFF;}
	.st10{mask:url(#mask-2_8_);fill-rule:evenodd;clip-rule:evenodd;fill:#FFFFFF;}
	.st11{filter:url(#Adobe_OpacityMaskFilter_1_);}
	.st12{mask:url(#mask-2_7_);fill-rule:evenodd;clip-rule:evenodd;fill:#FFFFFF;}
	.st13{filter:url(#Adobe_OpacityMaskFilter_2_);}
	.st14{mask:url(#mask-2_6_);fill-rule:evenodd;clip-rule:evenodd;fill:#FFFFFF;}
	.st15{filter:url(#Adobe_OpacityMaskFilter_3_);}
	.st16{mask:url(#mask-2_5_);fill-rule:evenodd;clip-rule:evenodd;fill:#FFFFFF;}
	.st17{filter:url(#Adobe_OpacityMaskFilter_4_);}
	.st18{mask:url(#mask-2_2_);fill:none;stroke:#FFFFFF;stroke-width:1.5;stroke-miterlimit:10;}
	.st19{fill:#B4A3EE;}
	.st20{fill:#434343;}
	.st21{fill:#434343;stroke:#F9F9F9;stroke-width:0.25;stroke-miterlimit:10;}
	.st22{fill:none;stroke:#FC6A55;stroke-width:0.75;stroke-miterlimit:10;}
	.st23{fill:#FC6A55;stroke:#FC6A55;stroke-width:0.25;stroke-miterlimit:10;}
	.st24{fill:#FC6A55;stroke:#FC6A55;stroke-width:0.5;stroke-miterlimit:10;}
	.st25{opacity:0.5;fill:#FC6A55;}
	.st26{fill:#F5F4F9;}
	.st27{opacity:0.153;fill:url(#Path_144_);enable-background:new    ;}
	.st28{opacity:0.1;fill:#590BB2;enable-background:new    ;}
	.st29{fill:#8E8CA8;}
	.st30{fill:#FFD5B8;}
	.st31{fill:#FC8473;}
	.st32{fill:#1C3475;}
	.st33{fill:#DDD9E4;}
	.st34{fill:#828FB3;}
	.st35{opacity:7.584635e-02;fill:url(#Path_145_);enable-background:new    ;}
	.st36{fill:#FFBE92;}
	.st37{fill:#FB8E7F;}
	.st38{fill:#FDB1A6;}
	.st39{fill:#FC806F;}
	.st40{fill:#FFE783;}
	.st41{fill:#104478;}
	.st42{fill:none;stroke:#FFFFFF;stroke-miterlimit:10;}
	.st43{fill:none;stroke:#000000;stroke-width:0.15;stroke-miterlimit:10;}
	.st44{opacity:0.3;fill:#FC6A55;}
	.st45{opacity:0.1;fill:url(#Path_147_);enable-background:new    ;}
	.st46{opacity:0.1;fill:url(#Path_150_);enable-background:new    ;}
	.st47{fill-rule:evenodd;clip-rule:evenodd;fill:#FC6A55;}
	.st48{fill-rule:evenodd;clip-rule:evenodd;}
	.st49{fill:#FF6757;}
	.st50{fill:#6C973D;}
	.st51{fill:none;stroke:#FFFFFF;stroke-width:0.5;stroke-miterlimit:10;}
	.st52{fill:#606060;}
	.st53{fill:#F16A56;}
	.st54{fill:#515252;}
	.st55{fill:#656565;}
	.st56{fill:#F26A56;}
	.st57{fill:none;stroke:#F16A56;stroke-miterlimit:10;}
	.st58{fill:none;stroke:#929292;stroke-miterlimit:10;}
	.st59{fill:#929292;}
	.st60{fill:none;stroke:#000000;stroke-width:0.5;stroke-miterlimit:10;}
	.st61{fill:#A8A7A7;}
	.st62{opacity:0.4;fill:#FC6A55;}
	.st63{fill:#F79F91;}
	.st64{fill:#9BDBD5;}
	.st65{fill:#222121;}
	.st66{stroke:#000000;stroke-width:0.25;stroke-miterlimit:10;}
</style>
<path class="st0" d="M63.6,57.5c-2.6,0-4.7,2.1-4.7,4.7c0,2.6,2.1,4.7,4.7,4.7c2.6,0,4.7-2.1,4.7-4.7C68.3,59.6,66.2,57.5,63.6,57.5
	z M63.6,64.6c-1.3,0-2.4-1.1-2.4-2.4c0-1.3,1.1-2.4,2.4-2.4c1.3,0,2.4,1.1,2.4,2.4C66,63.6,64.9,64.6,63.6,64.6z"/>
<path class="st0" d="M38.8,57.5c-2.6,0-4.7,2.1-4.7,4.7c0,2.6,2.1,4.7,4.7,4.7c2.6,0,4.7-2.1,4.7-4.7C43.6,59.6,41.4,57.5,38.8,57.5
	z M38.8,64.6c-1.3,0-2.4-1.1-2.4-2.4c0-1.3,1.1-2.4,2.4-2.4c1.3,0,2.4,1.1,2.4,2.4C41.2,63.6,40.1,64.6,38.8,64.6z"/>
<path class="st0" d="M74.1,57.5v-12l-7.7-11.2H54.7l0,23.1H43c1.2,1,2,2.4,2.2,4h11.9c0.4-3.2,3.1-5.6,6.4-5.6c3.3,0,6,2.4,6.4,5.6
	h5.9v-3.8L74.1,57.5L74.1,57.5z M58.1,45.2v-6.8l7.1,0l4.6,6.7L58.1,45.2z"/>
<path class="st0" d="M25.6,57.3v4.1h6.8c0.2-1.6,1-3,2.2-4.1H25.6z"/>
<polygon class="st0" points="5.1,22 32.2,10.4 59.3,22 59.3,31.5 63.4,31.5 63.4,19.3 32.2,6 1.1,19.3 1.1,61.4 22.6,61.4 
	22.6,57.4 5.1,57.4 "/>
<rect x="8.5" y="45.5" class="st62" width="14" height="8.7"/>
<rect x="25.2" y="45.5" class="st62" width="14" height="8.7"/>
<rect x="41.9" y="45.5" class="st62" width="9.6" height="8.7"/>
<rect x="8.5" y="33.6" class="st62" width="14" height="8.7"/>
<rect x="25.2" y="33.6" class="st62" width="14" height="8.7"/>
<rect x="25.2" y="21.6" class="st62" width="14" height="8.7"/>
</svg>
