<?xml version="1.0" encoding="utf-8"?>
<!-- Generator: Adobe Illustrator 24.0.2, SVG Export Plug-In . SVG Version: 6.00 Build 0)  -->
<svg version="1.1" id="Layer_1" xmlns="http://www.w3.org/2000/svg" xmlns:xlink="http://www.w3.org/1999/xlink" x="0px" y="0px"
	 viewBox="0 0 18 24" style="enable-background:new 0 0 18 24;" xml:space="preserve">
<style type="text/css">
	.st0{fill:#FC6A55;}
	.st1{fill:#EDEDED;}
	.st2{fill:none;stroke:#FC6A55;stroke-miterlimit:10;}
	.st3{stroke:#FFFFFF;stroke-width:0.25;stroke-miterlimit:10;}
	.st4{fill:#656D7A;}
	.st5{fill:#FFFFFF;}
	.st6{filter:url(#Adobe_OpacityMaskFilter);}
	.st7{fill-rule:evenodd;clip-rule:evenodd;fill:#FFFFFF;}
	.st8{mask:url(#mask-2_8_);fill-rule:evenodd;clip-rule:evenodd;}
	.st9{filter:url(#Adobe_OpacityMaskFilter_1_);}
	.st10{mask:url(#mask-2_7_);fill-rule:evenodd;clip-rule:evenodd;}
	.st11{filter:url(#Adobe_OpacityMaskFilter_2_);}
	.st12{mask:url(#mask-2_6_);fill-rule:evenodd;clip-rule:evenodd;}
	.st13{filter:url(#Adobe_OpacityMaskFilter_3_);}
	.st14{mask:url(#mask-2_5_);fill-rule:evenodd;clip-rule:evenodd;}
	.st15{filter:url(#Adobe_OpacityMaskFilter_4_);}
	.st16{mask:url(#mask-2_2_);fill:none;stroke:#000000;stroke-width:2;}
	.st17{fill:#434343;}
	.st18{fill:#434343;stroke:#F9F9F9;stroke-width:0.25;stroke-miterlimit:10;}
	.st19{fill:none;stroke:#FC6A55;stroke-width:0.5;stroke-miterlimit:10;}
	.st20{fill:none;stroke:#FC6A55;stroke-width:0.75;stroke-miterlimit:10;}
	.st21{fill:#FC6A55;stroke:#FC6A55;stroke-width:0.5;stroke-miterlimit:10;}
	.st22{opacity:0.153;fill:url(#Path_146_);enable-background:new    ;}
	.st23{opacity:0.1;fill:#590BB2;enable-background:new    ;}
	.st24{fill:#8E8CA8;}
	.st25{fill:#F5F4F9;}
	.st26{fill:#FFD5B8;}
	.st27{fill:#FC8473;}
	.st28{fill:#1C3475;}
	.st29{fill:#DDD9E4;}
	.st30{fill:#828FB3;}
	.st31{opacity:7.584635e-02;fill:url(#Path_147_);enable-background:new    ;}
	.st32{fill:#FFBE92;}
	.st33{fill:#FB8E7F;}
	.st34{fill:#FDB1A6;}
	.st35{fill:#FC806F;}
	.st36{fill:#FFE783;}
	.st37{fill:#104478;}
	.st38{fill:none;stroke:#FFFFFF;stroke-miterlimit:10;}
	.st39{fill:none;stroke:#000000;stroke-width:0.15;stroke-miterlimit:10;}
	.st40{opacity:0.1;fill:url(#Path_148_);enable-background:new    ;}
	.st41{opacity:0.1;fill:url(#Path_149_);enable-background:new    ;}
	.st42{fill-rule:evenodd;clip-rule:evenodd;fill:#FC6A55;}
	.st43{fill-rule:evenodd;clip-rule:evenodd;}
</style>
<g>
	<path d="M17.9,5.5l-2.4-2.4C15.5,3,15.4,3,15.3,3H8.7C8.5,3,8.4,3.1,8.4,3.3v12c0,0.2,0.1,0.3,0.3,0.3h0.9c-0.8,2,0.1,4.3,2.1,5.1
		c2,0.8,4.3-0.1,5.1-2.1c0.4-1,0.4-2,0-3h0.9c0.2,0,0.3-0.1,0.3-0.3V5.7C18,5.6,18,5.5,17.9,5.5z M15.6,4L17,5.4h-1.4V4z M13.2,20.4
		c-1.8,0-3.3-1.5-3.3-3.3s1.5-3.3,3.3-3.3s3.3,1.5,3.3,3.3C16.5,18.9,15,20.4,13.2,20.4z M16.5,15c-1.2-1.8-3.6-2.3-5.4-1.2
		c-0.5,0.3-0.9,0.7-1.2,1.2H9V3.6h6v2.1C15,5.9,15.1,6,15.3,6h2.1v9H16.5z"/>
	<path d="M3.9,15.1c0.7,1.2,0.7,2.7,0,3.9l0.5,0.3c0.8-1.4,0.8-3.1,0-4.5L3.9,15.1z"/>
	<path d="M5.7,14.3l-0.5,0.3c0.9,1.6,0.9,3.5,0,5.1l0.5,0.3C6.6,18.2,6.6,16,5.7,14.3L5.7,14.3z"/>
	<path d="M6.3,13.9c1.1,2,1.1,4.3,0,6.3l0.5,0.3c1.2-2.1,1.2-4.7,0-6.9L6.3,13.9z"/>
	<path d="M2.7,13.7v-0.8c0-1.5-1.2-2.7-2.7-2.7v0.6c1.2,0,2.1,0.9,2.1,2.1v0.9c0,0,0,0.1,0,0.1l0.7,1.7H2.7c-0.2,0-0.3,0.1-0.3,0.3
		v0.7L2,16.8c-0.1,0.1-0.2,0.3-0.1,0.4c0,0.1,0.1,0.1,0.1,0.1l0.4,0.2V18c0,0.2-0.1,0.3-0.3,0.3H0v0.6h2.1C2.6,18.9,3,18.5,3,18
		v-0.6c0-0.1-0.1-0.2-0.2-0.3l-0.1,0l0.1,0C2.9,17,3,16.9,3,16.8v-0.6h0.3c0.2,0,0.3-0.1,0.3-0.3c0,0,0-0.1,0-0.1L2.7,13.7z"/>
	<path d="M14.7,16.5c0,0.8-0.7,1.5-1.5,1.5s-1.5-0.7-1.5-1.5v-0.3h-0.6v0.3c0,1,0.8,1.9,1.8,2.1v0.3h-1.2v0.6h3v-0.6h-1.2v-0.3
		c1-0.2,1.8-1,1.8-2.1v-0.3h-0.6V16.5z"/>
	<path d="M9.6,4.2h4.8v0.6H9.6V4.2z"/>
	<path d="M9.6,5.4h4.8V6H9.6V5.4z"/>
	<path d="M9.6,6.6h7.2v0.6H9.6V6.6z"/>
	<path d="M9.6,7.8h7.2v0.6H9.6V7.8z"/>
	<path d="M13.4,9.1C13.3,9,13.1,9,13,9.1c0,0,0,0,0,0l-1.8,1.8c-0.1,0.1-0.1,0.3,0,0.4c0.1,0.1,0.1,0.1,0.2,0.1h0.9v0.9
		c0,0.2,0.1,0.3,0.3,0.3h1.2c0.2,0,0.3-0.1,0.3-0.3v-0.9H15c0.2,0,0.3-0.1,0.3-0.3c0-0.1,0-0.2-0.1-0.2L13.4,9.1z M13.8,10.8
		c-0.2,0-0.3,0.1-0.3,0.3V12h-0.6v-0.9c0-0.2-0.1-0.3-0.3-0.3h-0.5l1.1-1.1l1.1,1.1H13.8z"/>
	<path d="M13.2,14.4c-0.5,0-0.9,0.4-0.9,0.9v1.2c0,0.5,0.4,0.9,0.9,0.9s0.9-0.4,0.9-0.9v-1.2C14.1,14.8,13.7,14.4,13.2,14.4z
		 M13.2,15c0.2,0,0.3,0.1,0.3,0.3v0.3h-0.6v-0.3C12.9,15.1,13,15,13.2,15z M13.2,16.8c-0.2,0-0.3-0.1-0.3-0.3v-0.3h0.6v0.3
		C13.5,16.7,13.4,16.8,13.2,16.8z"/>
</g>
</svg>
