<?xml version="1.0" encoding="utf-8"?>
<!-- Generator: Adobe Illustrator 24.0.2, SVG Export Plug-In . SVG Version: 6.00 Build 0)  -->
<svg version="1.1" id="Layer_1" xmlns="http://www.w3.org/2000/svg" xmlns:xlink="http://www.w3.org/1999/xlink" x="0px" y="0px"
	 viewBox="0 0 18 24" style="enable-background:new 0 0 18 24;" xml:space="preserve">
<style type="text/css">
	.st0{fill:#FC6A55;}
	.st1{fill:#EDEDED;}
	.st2{fill:none;stroke:#FC6A55;stroke-miterlimit:10;}
	.st3{stroke:#FFFFFF;stroke-width:0.25;stroke-miterlimit:10;}
	.st4{fill:#656D7A;}
	.st5{fill:#FFFFFF;}
	.st6{filter:url(#Adobe_OpacityMaskFilter);}
	.st7{fill-rule:evenodd;clip-rule:evenodd;fill:#FFFFFF;}
	.st8{mask:url(#mask-2_8_);fill-rule:evenodd;clip-rule:evenodd;}
	.st9{filter:url(#Adobe_OpacityMaskFilter_1_);}
	.st10{mask:url(#mask-2_7_);fill-rule:evenodd;clip-rule:evenodd;}
	.st11{filter:url(#Adobe_OpacityMaskFilter_2_);}
	.st12{mask:url(#mask-2_6_);fill-rule:evenodd;clip-rule:evenodd;}
	.st13{filter:url(#Adobe_OpacityMaskFilter_3_);}
	.st14{mask:url(#mask-2_5_);fill-rule:evenodd;clip-rule:evenodd;}
	.st15{filter:url(#Adobe_OpacityMaskFilter_4_);}
	.st16{mask:url(#mask-2_2_);fill:none;stroke:#000000;stroke-width:2;}
	.st17{fill:#434343;}
	.st18{fill:#434343;stroke:#F9F9F9;stroke-width:0.25;stroke-miterlimit:10;}
	.st19{fill:none;stroke:#FC6A55;stroke-width:0.5;stroke-miterlimit:10;}
	.st20{fill:none;stroke:#FC6A55;stroke-width:0.75;stroke-miterlimit:10;}
	.st21{fill:#FC6A55;stroke:#FC6A55;stroke-width:0.5;stroke-miterlimit:10;}
	.st22{opacity:0.153;fill:url(#Path_146_);enable-background:new    ;}
	.st23{opacity:0.1;fill:#590BB2;enable-background:new    ;}
	.st24{fill:#8E8CA8;}
	.st25{fill:#F5F4F9;}
	.st26{fill:#FFD5B8;}
	.st27{fill:#FC8473;}
	.st28{fill:#1C3475;}
	.st29{fill:#DDD9E4;}
	.st30{fill:#828FB3;}
	.st31{opacity:7.584635e-02;fill:url(#Path_147_);enable-background:new    ;}
	.st32{fill:#FFBE92;}
	.st33{fill:#FB8E7F;}
	.st34{fill:#FDB1A6;}
	.st35{fill:#FC806F;}
	.st36{fill:#FFE783;}
	.st37{fill:#104478;}
	.st38{fill:none;stroke:#FFFFFF;stroke-miterlimit:10;}
	.st39{fill:none;stroke:#000000;stroke-width:0.15;stroke-miterlimit:10;}
	.st40{opacity:0.1;fill:url(#Path_148_);enable-background:new    ;}
	.st41{opacity:0.1;fill:url(#Path_149_);enable-background:new    ;}
	.st42{fill-rule:evenodd;clip-rule:evenodd;fill:#FC6A55;}
	.st43{fill-rule:evenodd;clip-rule:evenodd;}
</style>
<g>
	<path d="M3.3,9.3c0,0.1,0.1,0.2,0.2,0.2h2.1c0.1,0,0.2-0.1,0.2-0.2V7.2C5.7,7.1,5.6,7,5.5,7H3.5C3.4,7,3.3,7.1,3.3,7.2V9.3z
		 M3.6,9.1v-1H4v0.5c0,0.1,0.1,0.2,0.2,0.2c0,0,0.1,0,0.1-0.1l0.2-0.2l0.2,0.2c0.1,0.1,0.2,0.1,0.2,0C5,8.7,5,8.6,5,8.6V8.1h0.3v1
		H3.6z M4.3,7.4h0.3v0.8L4.6,8.1C4.6,8,4.4,8,4.4,8.1l0,0L4.3,8.2V7.4z M5.4,7.7H5V7.4h0.3V7.7z M4,7.4v0.3H3.6V7.4H4z"/>
	<path d="M8.4,12c0,0.5,0.4,0.9,0.9,0.9c0.5,0,0.9-0.4,0.9-0.9c0-0.4-0.2-0.7-0.6-0.8v-0.7c0.5-0.2,0.7-0.7,0.5-1.1
		C10.1,9,9.9,8.8,9.6,8.8V8c0.5-0.2,0.7-0.7,0.5-1.1C10,6.4,9.5,6.2,9,6.4C8.5,6.5,8.3,7,8.5,7.5C8.5,7.8,8.7,8,9,8v0.7
		C8.5,8.9,8.3,9.4,8.5,9.9c0.1,0.3,0.3,0.5,0.5,0.5v0.7C8.6,11.3,8.4,11.6,8.4,12z M9.3,12.3C9.1,12.3,9,12.2,9,12s0.1-0.3,0.3-0.3
		c0.2,0,0.3,0.1,0.3,0.3C9.6,12.2,9.5,12.3,9.3,12.3z M9.3,6.9c0.2,0,0.3,0.1,0.3,0.3c0,0.2-0.1,0.3-0.3,0.3C9.1,7.5,9,7.4,9,7.2
		C9,7,9.1,6.9,9.3,6.9z M9.3,9.3c0.2,0,0.3,0.1,0.3,0.3c0,0.2-0.1,0.3-0.3,0.3C9.1,9.9,9,9.8,9,9.6C9,9.4,9.1,9.3,9.3,9.3z"/>
	<path d="M11.1,7.5h3c0.2,0,0.3-0.1,0.3-0.3c0-0.2-0.1-0.3-0.3-0.3h-3c-0.2,0-0.3,0.1-0.3,0.3C10.8,7.4,10.9,7.5,11.1,7.5z"/>
	<path d="M15.3,7.5h0.6c0.2,0,0.3-0.1,0.3-0.3c0-0.2-0.1-0.3-0.3-0.3h-0.6C15.1,6.9,15,7,15,7.2C15,7.4,15.1,7.5,15.3,7.5z"/>
	<path d="M11.1,9.9h3c0.2,0,0.3-0.1,0.3-0.3c0-0.2-0.1-0.3-0.3-0.3h-3c-0.2,0-0.3,0.1-0.3,0.3C10.8,9.8,10.9,9.9,11.1,9.9z"/>
	<path d="M15.3,9.9h0.6c0.2,0,0.3-0.1,0.3-0.3c0-0.2-0.1-0.3-0.3-0.3h-0.6c-0.2,0-0.3,0.1-0.3,0.3C15,9.8,15.1,9.9,15.3,9.9z"/>
	<path d="M11.1,12.3h3c0.2,0,0.3-0.1,0.3-0.3s-0.1-0.3-0.3-0.3h-3c-0.2,0-0.3,0.1-0.3,0.3S10.9,12.3,11.1,12.3z"/>
	<path d="M15.3,12.3h0.6c0.2,0,0.3-0.1,0.3-0.3s-0.1-0.3-0.3-0.3h-0.6c-0.2,0-0.3,0.1-0.3,0.3S15.1,12.3,15.3,12.3z"/>
	<path d="M16.5,3.9h-15C0.7,3.9,0,4.6,0,5.4v10.2c0,0.8,0.7,1.5,1.5,1.5h4.7l-0.5,2.6c0,0.2,0.1,0.3,0.2,0.4c0,0,0,0,0.1,0h6
		c0.2,0,0.3-0.1,0.3-0.3c0,0,0,0,0-0.1l-0.5-2.6h4.7c0.8,0,1.5-0.7,1.5-1.5V5.4C18,4.6,17.3,3.9,16.5,3.9z M1.5,4.5h15
		c0.5,0,0.9,0.4,0.9,0.9v8.7H0.6V5.4C0.6,4.9,1,4.5,1.5,4.5z M11.6,19.5H6.4l0.5-2.4h4.3L11.6,19.5z M16.5,16.5h-15
		c-0.5,0-0.9-0.4-0.9-0.9v-0.9h16.8v0.9C17.4,16.1,17,16.5,16.5,16.5z"/>
	<circle cx="2.1" cy="5.4" r="0.3"/>
	<circle cx="3.3" cy="5.4" r="0.3"/>
	<circle cx="4.5" cy="5.4" r="0.3"/>
	<path d="M9.3,15.3H8.7c-0.2,0-0.3,0.1-0.3,0.3c0,0.2,0.1,0.3,0.3,0.3h0.6c0.2,0,0.3-0.1,0.3-0.3C9.6,15.4,9.5,15.3,9.3,15.3z"/>
	<g>
		<g>
			<g>
				<path d="M8,13.2H7.4c0-0.1-0.1-0.3-0.2-0.4l0.4-0.4c0,0,0,0,0,0c0.1-0.1,0.1-0.3,0-0.4l-0.9-0.9c-0.1-0.1-0.3-0.1-0.4,0
					l-0.4,0.4c-0.1-0.1-0.2-0.1-0.4-0.2v-0.6c0-0.2-0.1-0.3-0.3-0.3H4.1c-0.2,0-0.3,0.1-0.3,0.3v0.6c-0.1,0-0.3,0.1-0.4,0.2
					l-0.4-0.4c-0.1-0.1-0.3-0.1-0.4,0L1.7,12c-0.1,0.1-0.1,0.3,0,0.4l0.4,0.4C2,12.9,2,13.1,1.9,13.2H1.3c-0.2,0-0.3,0.1-0.3,0.3
					v0.6h0.3v-0.6H2c0.1,0,0.1,0,0.1-0.1c0.1-0.2,0.1-0.4,0.2-0.5c0-0.1,0-0.1,0-0.2l-0.5-0.5l0.9-0.9l0.5,0.5c0,0,0.1,0.1,0.2,0
					c0.2-0.1,0.3-0.2,0.5-0.2c0.1,0,0.1-0.1,0.1-0.1v-0.7h1.2v0.7c0,0.1,0,0.1,0.1,0.1c0.2,0.1,0.4,0.1,0.5,0.2c0.1,0,0.1,0,0.2,0
					l0.5-0.5l0.9,0.9l-0.5,0.5c0,0-0.1,0.1,0,0.2C7,13,7.1,13.2,7.1,13.4c0,0.1,0.1,0.1,0.1,0.1H8v0.6h0.3v-0.6
					C8.3,13.3,8.1,13.2,8,13.2z"/>
			</g>
		</g>
		<g>
			<g>
				<path d="M4.7,12.5c-0.8,0-1.5,0.7-1.5,1.5v0.2h0.3V14c0-0.7,0.5-1.2,1.2-1.2s1.2,0.5,1.2,1.2v0.2h0.3V14
					C6.2,13.1,5.5,12.5,4.7,12.5z"/>
			</g>
		</g>
		<g>
			<g>
				<rect x="4.5" y="11.1" width="0.3" height="0.3"/>
			</g>
		</g>
		<g>
			<g>
				<rect x="2.5" y="12" width="0.3" height="0.3"/>
			</g>
		</g>
		<g>
			<g>
				<rect x="1.6" y="13.8" width="0.3" height="0.3"/>
			</g>
		</g>
		<g>
			<g>
				<rect x="7.4" y="13.8" width="0.3" height="0.3"/>
			</g>
		</g>
		<g>
			<g>
				<rect x="6.5" y="12" width="0.3" height="0.3"/>
			</g>
		</g>
		<g>
			<g>
				<path d="M4.7,13.2c-0.4,0-0.8,0.3-0.8,0.8v0.2h0.3V14c0-0.2,0.2-0.5,0.5-0.5c0.2,0,0.5,0.2,0.5,0.5v0.2h0.3V14
					C5.4,13.5,5.1,13.2,4.7,13.2z"/>
			</g>
		</g>
	</g>
</g>
</svg>
