<?xml version="1.0" encoding="utf-8"?>
<!-- Generator: Adobe Illustrator 24.0.2, SVG Export Plug-In . SVG Version: 6.00 Build 0)  -->
<svg version="1.1" id="Layer_1" xmlns="http://www.w3.org/2000/svg" xmlns:xlink="http://www.w3.org/1999/xlink" x="0px" y="0px"
	 viewBox="0 0 18 24" style="enable-background:new 0 0 18 24;" xml:space="preserve">
<style type="text/css">
	.st0{fill:#FC6A55;}
	.st1{fill:#EDEDED;}
	.st2{fill:none;stroke:#FC6A55;stroke-miterlimit:10;}
	.st3{stroke:#FFFFFF;stroke-width:0.25;stroke-miterlimit:10;}
	.st4{fill:#656D7A;}
	.st5{fill:#FFFFFF;}
	.st6{filter:url(#Adobe_OpacityMaskFilter);}
	.st7{fill-rule:evenodd;clip-rule:evenodd;fill:#FFFFFF;}
	.st8{mask:url(#mask-2_8_);fill-rule:evenodd;clip-rule:evenodd;}
	.st9{filter:url(#Adobe_OpacityMaskFilter_1_);}
	.st10{mask:url(#mask-2_7_);fill-rule:evenodd;clip-rule:evenodd;}
	.st11{filter:url(#Adobe_OpacityMaskFilter_2_);}
	.st12{mask:url(#mask-2_6_);fill-rule:evenodd;clip-rule:evenodd;}
	.st13{filter:url(#Adobe_OpacityMaskFilter_3_);}
	.st14{mask:url(#mask-2_5_);fill-rule:evenodd;clip-rule:evenodd;}
	.st15{filter:url(#Adobe_OpacityMaskFilter_4_);}
	.st16{mask:url(#mask-2_2_);fill:none;stroke:#000000;stroke-width:2;}
	.st17{fill:#434343;}
	.st18{fill:#434343;stroke:#F9F9F9;stroke-width:0.25;stroke-miterlimit:10;}
	.st19{fill:none;stroke:#FC6A55;stroke-width:0.5;stroke-miterlimit:10;}
	.st20{fill:none;stroke:#FC6A55;stroke-width:0.75;stroke-miterlimit:10;}
	.st21{fill:#FC6A55;stroke:#FC6A55;stroke-width:0.5;stroke-miterlimit:10;}
	.st22{opacity:0.153;fill:url(#Path_146_);enable-background:new    ;}
	.st23{opacity:0.1;fill:#590BB2;enable-background:new    ;}
	.st24{fill:#8E8CA8;}
	.st25{fill:#F5F4F9;}
	.st26{fill:#FFD5B8;}
	.st27{fill:#FC8473;}
	.st28{fill:#1C3475;}
	.st29{fill:#DDD9E4;}
	.st30{fill:#828FB3;}
	.st31{opacity:7.584635e-02;fill:url(#Path_147_);enable-background:new    ;}
	.st32{fill:#FFBE92;}
	.st33{fill:#FB8E7F;}
	.st34{fill:#FDB1A6;}
	.st35{fill:#FC806F;}
	.st36{fill:#FFE783;}
	.st37{fill:#104478;}
	.st38{fill:none;stroke:#FFFFFF;stroke-miterlimit:10;}
	.st39{fill:none;stroke:#000000;stroke-width:0.15;stroke-miterlimit:10;}
	.st40{opacity:0.1;fill:url(#Path_148_);enable-background:new    ;}
	.st41{opacity:0.1;fill:url(#Path_149_);enable-background:new    ;}
	.st42{fill-rule:evenodd;clip-rule:evenodd;fill:#FC6A55;}
	.st43{fill-rule:evenodd;clip-rule:evenodd;}
</style>
<g>
	<path d="M12.1,14.6c-0.7-0.7-1.8-0.7-2.5,0l-0.6,0.6c-0.1,0.1-0.2,0.1-0.3,0.1c-0.1,0-0.3-0.1-0.3-0.1l-2.5-2.5
		c-0.1-0.1-0.1-0.2-0.1-0.3c0-0.1,0.1-0.3,0.1-0.3l0,0c0,0,0,0,0,0s0,0,0,0l0.5-0.5c0.3-0.3,0.5-0.8,0.5-1.2S6.7,9.3,6.4,8.9
		L4.5,7.1c-0.7-0.7-1.8-0.7-2.5,0L1.6,7.6c0,0,0,0,0,0s0,0,0,0L1.3,7.9c-1.7,1.7-1.7,4.5,0,6.3l5.6,5.6c0.9,0.9,2,1.3,3.1,1.3
		s2.3-0.4,3.1-1.3l0.3-0.3h0c0,0,0,0,0,0l0.5-0.5c0.7-0.7,0.7-1.8,0-2.5L12.1,14.6z M4,7.6l1.8,1.8c0.2,0.2,0.3,0.5,0.3,0.7
		c0,0.3-0.1,0.5-0.3,0.7l-0.3,0.3L2.3,7.9l0.3-0.3C3,7.2,3.6,7.2,4,7.6z M7.4,19.2l-5.6-5.6c-1.5-1.5-1.5-3.8,0-5.3l0,0l3.3,3.3
		C5,11.9,5,12.1,5,12.3c0,0.3,0.1,0.6,0.3,0.8l2.5,2.5C8.1,15.9,8.4,16,8.7,16c0.2,0,0.4-0.1,0.6-0.2l3.3,3.3l0,0
		C11.2,20.7,8.8,20.7,7.4,19.2z M13.4,18.4l-0.3,0.3l-3.3-3.3l0.3-0.3c0.4-0.4,1.1-0.4,1.5,0l1.8,1.8C13.8,17.4,13.8,18,13.4,18.4z"
		/>
	<path d="M16.9,5.1c-0.7-0.9-1.6-1.5-2.7-1.9c-0.2-0.1-0.4,0-0.4,0.2c-0.1,0.2,0,0.4,0.2,0.4c1.9,0.6,3.2,2.3,3.2,4.3
		c0,2.5-2,4.5-4.5,4.5c-0.9,0-1.8-0.3-2.5-0.8c-0.1-0.1-0.2-0.1-0.3,0l-1.1,0.3l0.3-1.1c0-0.1,0-0.2-0.1-0.3C8.5,10,8.3,9.2,8.3,8.2
		c0-2,1.3-3.8,3.2-4.3c0.2-0.1,0.3-0.3,0.2-0.4c-0.1-0.2-0.3-0.3-0.4-0.2c-1.1,0.3-2,1-2.7,1.9C7.9,6,7.6,7.1,7.6,8.2
		c0,1,0.3,2,0.8,2.9L8,12.6c0,0.1,0,0.3,0.1,0.3C8.2,13,8.3,13.1,8.4,13l1.6-0.4c0.8,0.5,1.8,0.8,2.8,0.8c2.9,0,5.2-2.3,5.2-5.2
		C18,7.1,17.6,6,16.9,5.1z"/>
	<path d="M12.8,3.7c0.2,0,0.4-0.2,0.4-0.4v0C13.1,3.2,13,3,12.8,3c-0.2,0-0.4,0.2-0.4,0.4C12.4,3.5,12.6,3.7,12.8,3.7z"/>
	<g>
		<g>
			<path d="M14,8.1c0.3-0.3,0.5-0.7,0.5-1.1c0-0.9-0.7-1.7-1.6-1.7c-0.9,0-1.7,0.8-1.7,1.7c0,0.4,0.2,0.8,0.5,1.1
				c-0.8,0.4-1.3,1.2-1.3,2.2v0.4c0,0.2,0.2,0.4,0.4,0.4h4.1c0.2,0,0.4-0.2,0.4-0.4v-0.4C15.3,9.4,14.7,8.6,14,8.1z M12.8,6.1
				c0.4,0,0.8,0.4,0.8,0.8c0,0.5-0.4,0.8-0.8,0.8c-0.5,0-0.8-0.4-0.8-0.8C11.9,6.5,12.3,6.1,12.8,6.1z M11.1,10.3
				c0-0.9,0.8-1.7,1.7-1.7c0.9,0,1.6,0.7,1.6,1.7H11.1z"/>
		</g>
	</g>
</g>
</svg>
