<?xml version="1.0" encoding="utf-8"?>
<!-- Generator: Adobe Illustrator 24.1.1, SVG Export Plug-In . SVG Version: 6.00 Build 0)  -->
<svg version="1.1" id="Layer_1" xmlns="http://www.w3.org/2000/svg" xmlns:xlink="http://www.w3.org/1999/xlink" x="0px" y="0px"
	 viewBox="0 0 31 31" style="enable-background:new 0 0 31 31;" xml:space="preserve">
<style type="text/css">
	.st0{fill:#FC6A55;}
	.st1{fill:#EDEDED;}
	.st2{fill:none;stroke:#FC6A55;stroke-miterlimit:10;}
	.st3{fill:#222F3F;}
	.st4{fill:#383838;}
	.st5{fill:#FFFFFF;}
	.st6{fill:#656D7A;}
	.st7{fill:#C4C4C4;}
	.st8{filter:url(#Adobe_OpacityMaskFilter);}
	.st9{fill-rule:evenodd;clip-rule:evenodd;fill:#FFFFFF;}
	.st10{mask:url(#mask-2_8_);fill-rule:evenodd;clip-rule:evenodd;fill:#FFFFFF;}
	.st11{filter:url(#Adobe_OpacityMaskFilter_1_);}
	.st12{mask:url(#mask-2_7_);fill-rule:evenodd;clip-rule:evenodd;fill:#FFFFFF;}
	.st13{filter:url(#Adobe_OpacityMaskFilter_2_);}
	.st14{mask:url(#mask-2_6_);fill-rule:evenodd;clip-rule:evenodd;fill:#FFFFFF;}
	.st15{filter:url(#Adobe_OpacityMaskFilter_3_);}
	.st16{mask:url(#mask-2_5_);fill-rule:evenodd;clip-rule:evenodd;fill:#FFFFFF;}
	.st17{filter:url(#Adobe_OpacityMaskFilter_4_);}
	.st18{mask:url(#mask-2_2_);fill:none;stroke:#FFFFFF;stroke-width:1.5;stroke-miterlimit:10;}
	.st19{fill:#B4A3EE;}
	.st20{fill:#434343;}
	.st21{fill:#434343;stroke:#F9F9F9;stroke-width:0.25;stroke-miterlimit:10;}
	.st22{fill:none;stroke:#FC6A55;stroke-width:0.75;stroke-miterlimit:10;}
	.st23{fill:#FC6A55;stroke:#FC6A55;stroke-width:0.25;stroke-miterlimit:10;}
	.st24{fill:#FC6A55;stroke:#FC6A55;stroke-width:0.5;stroke-miterlimit:10;}
	.st25{opacity:0.153;fill:url(#Path_44_);enable-background:new    ;}
	.st26{opacity:0.1;fill:#590BB2;enable-background:new    ;}
	.st27{fill:#8E8CA8;}
	.st28{fill:#F5F4F9;}
	.st29{fill:#FFD5B8;}
	.st30{fill:#FC8473;}
	.st31{fill:#1C3475;}
	.st32{fill:#DDD9E4;}
	.st33{fill:#828FB3;}
	.st34{opacity:7.584635e-02;fill:url(#Path_45_);enable-background:new    ;}
	.st35{fill:#FFBE92;}
	.st36{fill:#FB8E7F;}
	.st37{fill:#FDB1A6;}
	.st38{fill:#FC806F;}
	.st39{fill:#FFE783;}
	.st40{fill:#104478;}
	.st41{fill:none;stroke:#FFFFFF;stroke-miterlimit:10;}
	.st42{fill:none;stroke:#000000;stroke-width:0.15;stroke-miterlimit:10;}
	.st43{opacity:0.1;fill:url(#Path_46_);enable-background:new    ;}
	.st44{opacity:0.1;fill:url(#Path_47_);enable-background:new    ;}
	.st45{fill-rule:evenodd;clip-rule:evenodd;fill:#FC6A55;}
	.st46{fill-rule:evenodd;clip-rule:evenodd;}
	.st47{fill:#FF6757;}
	.st48{fill:#666666;}
	.st49{fill:none;stroke:#FFFFFF;stroke-width:0.5;stroke-miterlimit:10;}
	.st50{fill:#606060;}
	.st51{fill:#F16A56;}
	.st52{fill:#515252;}
	.st53{fill:#F26A56;}
	.st54{fill:none;stroke:#F16A56;stroke-miterlimit:10;}
	.st55{fill:none;stroke:#929292;stroke-miterlimit:10;}
	.st56{fill:#929292;}
	.st57{fill:none;stroke:#000000;stroke-width:0.5;stroke-miterlimit:10;}
	.st58{fill:#A8A7A7;}
	.st59{fill:#F79F91;}
	.st60{fill:#9BDBD5;}
	.st61{fill:#222121;}
	.st62{stroke:#000000;stroke-width:0.25;stroke-miterlimit:10;}
</style>
<path class="st22" d="M6.6,21.9l-1.1-3.5c-0.1-0.2-0.2-0.3-0.4-0.3H0.7c-0.2,0-0.4,0.2-0.4,0.4c0,0,0,0,0,0l1.5,12
	C1.8,30.8,2,31,2.2,31h6.6c0.2,0,0.4-0.2,0.4-0.4c0,0,0-0.1,0-0.1l-1.2-4 M25.7,18.3c0.5-0.2,1.1,0,1.5,0.3l-3.6,1.9l-0.2,0.1
	c-0.1-0.3-0.3-0.6-0.5-0.9L25.7,18.3z M22.1,18.2C22.1,18.2,22.1,18.2,22.1,18.2c0.7-0.4,1.5-0.4,2.1,0l-1.8,1
	c-0.3-0.3-0.7-0.4-1.2-0.5L22.1,18.2z M21.6,25.5c-1.2,0.6-2.5,0.8-3.8,0.5l-5.5-1c-0.6-0.1-1.2-0.1-1.8,0.2c0,0,0,0,0,0l-2.5,1.6
	l-1.8-5.9c0.5-0.2,1-0.4,1.4-0.8l0.9-0.8c1.7-1.3,3.9-1.5,5.8-0.6l0.4,0.2c0.6,0.3,1.3,0.5,2.1,0.5h3.6c1.1,0,2,0.8,2.3,1.9
	l-2.6-0.1c-1,0-1.9,0-2.9,0.1c-0.2,0-0.4,0.2-0.3,0.5c0,0.2,0.2,0.4,0.5,0.3c0.9-0.1,1.8-0.2,2.7-0.1l3.1,0.1c0,0,0,0,0,0
	c0.2,0,0.4-0.2,0.4-0.4c0-0.1,0-0.1,0-0.2l0.4-0.2l4.5-2.4c0.7-0.4,1.6-0.2,2.1,0.3L21.6,25.5z"/>
<g id="Consult-Talk">
	<path class="st23" d="M23.9,9.9l-1.1-0.2c-0.1-0.2-0.1-0.3-0.2-0.5l0.7-0.9c0.1-0.1,0.1-0.3,0-0.4L22,6.7c0,0-0.1-0.1-0.2-0.1V3.9
		c0.5-0.4,0.9-1.1,0.9-1.8c0-0.9-0.5-1.7-1.3-2.1C21.2,0,21,0,21,0.2c0,0,0,0.1,0,0.1v1.6l-0.6,0.2l-0.6-0.2V0.3
		c0-0.2-0.1-0.3-0.3-0.3c0,0-0.1,0-0.1,0c-0.8,0.4-1.3,1.2-1.3,2.1c0,0.7,0.3,1.4,0.9,1.8v1.9h-0.9c-0.1,0-0.3,0.1-0.3,0.2l-0.2,1.3
		l0.6,0.1l0.2-1.1h1.2l0.2,1.1c0,0.1,0.1,0.2,0.2,0.2c0.2,0.1,0.5,0.2,0.7,0.3c0.1,0.1,0.2,0,0.3,0l0.8-0.6l0.9,0.9L22,9
		c-0.1,0.1-0.1,0.2,0,0.3c0.1,0.2,0.2,0.4,0.3,0.7c0,0.1,0.1,0.2,0.2,0.2l1.1,0.2v1.2l-1.1,0.2c-0.1,0-0.2,0.1-0.2,0.2
		c-0.1,0.2-0.2,0.5-0.3,0.7c-0.1,0.1,0,0.2,0,0.3l0.6,0.8l-0.9,0.9L20.9,14c-0.1-0.1-0.2-0.1-0.3,0c-0.2,0.1-0.4,0.2-0.7,0.3
		c-0.1,0-0.2,0.1-0.2,0.2l-0.1,1.1h-1.2v-1.2c0-0.3,0-0.6-0.1-0.9c1.4,0.4,2.8-0.4,3.2-1.8c0.4-1.4-0.4-2.8-1.8-3.2
		s-2.8,0.4-3.2,1.8c-0.1,0.4-0.1,0.8-0.1,1.2c0,0,0,0,0,0l-2.3-0.9v-0.4c0.4-0.2,0.7-0.5,1-0.8h0.7c0.5,0,0.9-0.4,0.9-0.9V7.8
		C17,7.7,17.2,7.3,17.2,7V6.1c0-0.4-0.2-0.7-0.6-0.8V5c0-2.2-1.8-4-4-4s-4,1.8-4,4v0.3C8.3,5.4,8,5.8,8,6.1V7c0,0.5,0.4,0.9,0.9,0.9
		h0.6c0,0,0,0,0.1,0c0.2,1,0.8,1.8,1.7,2.2v0.4l-2.3,0.9c-1.2,0.5-2,1.6-2,2.9V17c0,0.2,0.1,0.3,0.3,0.3h10.9c0.2,0,0.3-0.1,0.3-0.3
		v-0.9h1.4c0.1,0,0.3-0.1,0.3-0.2l0.2-1.1c0.2-0.1,0.3-0.1,0.5-0.2l0.9,0.7c0.1,0.1,0.3,0.1,0.4,0l1.2-1.2c0.1-0.1,0.1-0.3,0-0.4
		l-0.7-0.9c0.1-0.1,0.1-0.3,0.2-0.5l1.1-0.2c0.1,0,0.2-0.1,0.2-0.3v-1.7C24.1,10,24,9.9,23.9,9.9z M20.7,7.4
		C20.7,7.4,20.7,7.4,20.7,7.4l0-3.6h-0.6v2.3l0,0c0-0.1-0.1-0.2-0.3-0.2h-0.3V3.7c0-0.1,0-0.2-0.1-0.2c-0.8-0.5-1-1.6-0.4-2.4
		C19,1,19.1,0.9,19.2,0.8v1.3c0,0.1,0.1,0.2,0.2,0.3l0.9,0.3c0.1,0,0.1,0,0.2,0l0.9-0.3c0.1,0,0.2-0.1,0.2-0.3V0.8
		c0.7,0.6,0.8,1.7,0.1,2.4c-0.1,0.1-0.2,0.2-0.3,0.3c-0.1,0.1-0.1,0.1-0.1,0.2V7L20.7,7.4z M16.9,11c0-1.1,0.9-2,2-2
		c1.1,0,2,0.9,2,2c0,1.1-0.9,2-2,2c-0.4,0-0.8-0.1-1.1-0.3c-0.2-0.3-0.5-0.6-0.7-0.8C17,11.6,16.9,11.3,16.9,11z M15.8,8.7h-0.3
		c0.1-0.3,0.2-0.6,0.3-0.9c0,0,0,0,0.1,0h0.3v0.6C16.1,8.6,15.9,8.7,15.8,8.7z M15.2,5.5c-0.3,0-0.5-0.1-0.7-0.3L14,4.5
		c0-0.1-0.1-0.1-0.2-0.1c-0.1,0-0.2,0-0.2,0.1l-1,0.8c-0.3,0.2-0.6,0.3-0.9,0.3H10V5.3c0-1.4,1.2-2.6,2.6-2.6s2.6,1.2,2.6,2.6V5.5z
		 M16.6,7c0,0.2-0.1,0.3-0.3,0.3h-0.6V5.8h0.6c0.2,0,0.3,0.1,0.3,0.3V7z M12.6,1.5c1.9,0,3.4,1.5,3.4,3.4v0.3h-0.3
		c0-1.7-1.4-3.2-3.2-3.2S9.5,3.5,9.5,5.3H9.2V5C9.2,3.1,10.7,1.5,12.6,1.5z M8.9,7.3C8.7,7.3,8.6,7.1,8.6,7V6.1
		c0-0.2,0.1-0.3,0.3-0.3h0.6v1.4H8.9z M10,7.3V6.1h1.7c0.5,0,0.9-0.2,1.3-0.4l0.7-0.6l0.3,0.5c0.3,0.4,0.7,0.6,1.1,0.6v1.1
		c0,0.5-0.2,1-0.4,1.4h-2.1v0.6h1.6c-1.1,0.9-2.7,0.7-3.6-0.4C10.2,8.4,10,7.9,10,7.3z M12.6,10.4c0.3,0,0.6,0,0.9-0.1v0.4
		c0,0.5-0.4,0.9-0.9,0.9s-0.9-0.4-0.9-0.9v-0.4C12,10.4,12.3,10.4,12.6,10.4z M17.8,16.7h-1.7v-3.2h-0.6v3.2H9.8v-3.2H9.2v3.2H7.5
		v-2.4c0-1.1,0.6-2,1.6-2.4l2.2-0.9c0.2,0.8,1,1.2,1.8,1c0.5-0.1,0.8-0.5,1-1l2.2,0.9c1,0.4,1.6,1.3,1.6,2.4V16.7z"/>
	<rect x="18.7" y="7" class="st23" width="0.6" height="0.6"/>
	<rect x="18.7" y="14.4" class="st23" width="0.6" height="0.6"/>
	
		<rect x="21.3" y="13.3" transform="matrix(0.7071 -0.7071 0.7071 0.7071 -3.3216 19.2546)" class="st23" width="0.6" height="0.6"/>
	<rect x="22.4" y="10.7" class="st23" width="0.6" height="0.6"/>
	<rect x="21.3" y="8.1" transform="matrix(0.7071 -0.7071 0.7071 0.7071 0.4091 17.7094)" class="st23" width="0.6" height="0.6"/>
</g>
</svg>
