<?xml version="1.0" encoding="utf-8"?>
<!-- Generator: Adobe Illustrator 24.1.1, SVG Export Plug-In . SVG Version: 6.00 Build 0)  -->
<svg version="1.1" id="Layer_1" xmlns="http://www.w3.org/2000/svg" xmlns:xlink="http://www.w3.org/1999/xlink" x="0px" y="0px"
	 viewBox="0 0 31 31" style="enable-background:new 0 0 31 31;" xml:space="preserve">
<style type="text/css">
	.st0{fill:#FC6A55;}
	.st1{fill:#EDEDED;}
	.st2{fill:none;stroke:#FC6A55;stroke-miterlimit:10;}
	.st3{fill:#222F3F;}
	.st4{fill:#383838;}
	.st5{fill:#FFFFFF;}
	.st6{fill:#656D7A;}
	.st7{fill:#C4C4C4;}
	.st8{filter:url(#Adobe_OpacityMaskFilter);}
	.st9{fill-rule:evenodd;clip-rule:evenodd;fill:#FFFFFF;}
	.st10{mask:url(#mask-2_8_);fill-rule:evenodd;clip-rule:evenodd;fill:#FFFFFF;}
	.st11{filter:url(#Adobe_OpacityMaskFilter_1_);}
	.st12{mask:url(#mask-2_7_);fill-rule:evenodd;clip-rule:evenodd;fill:#FFFFFF;}
	.st13{filter:url(#Adobe_OpacityMaskFilter_2_);}
	.st14{mask:url(#mask-2_6_);fill-rule:evenodd;clip-rule:evenodd;fill:#FFFFFF;}
	.st15{filter:url(#Adobe_OpacityMaskFilter_3_);}
	.st16{mask:url(#mask-2_5_);fill-rule:evenodd;clip-rule:evenodd;fill:#FFFFFF;}
	.st17{filter:url(#Adobe_OpacityMaskFilter_4_);}
	.st18{mask:url(#mask-2_2_);fill:none;stroke:#FFFFFF;stroke-width:1.5;stroke-miterlimit:10;}
	.st19{fill:#B4A3EE;}
	.st20{fill:#434343;}
	.st21{fill:#434343;stroke:#F9F9F9;stroke-width:0.25;stroke-miterlimit:10;}
	.st22{fill:none;stroke:#FC6A55;stroke-width:0.75;stroke-miterlimit:10;}
	.st23{fill:#FC6A55;stroke:#FC6A55;stroke-width:0.25;stroke-miterlimit:10;}
	.st24{fill:#FC6A55;stroke:#FC6A55;stroke-width:0.5;stroke-miterlimit:10;}
	.st25{opacity:0.153;fill:url(#Path_44_);enable-background:new    ;}
	.st26{opacity:0.1;fill:#590BB2;enable-background:new    ;}
	.st27{fill:#8E8CA8;}
	.st28{fill:#F5F4F9;}
	.st29{fill:#FFD5B8;}
	.st30{fill:#FC8473;}
	.st31{fill:#1C3475;}
	.st32{fill:#DDD9E4;}
	.st33{fill:#828FB3;}
	.st34{opacity:7.584635e-02;fill:url(#Path_45_);enable-background:new    ;}
	.st35{fill:#FFBE92;}
	.st36{fill:#FB8E7F;}
	.st37{fill:#FDB1A6;}
	.st38{fill:#FC806F;}
	.st39{fill:#FFE783;}
	.st40{fill:#104478;}
	.st41{fill:none;stroke:#FFFFFF;stroke-miterlimit:10;}
	.st42{fill:none;stroke:#000000;stroke-width:0.15;stroke-miterlimit:10;}
	.st43{opacity:0.1;fill:url(#Path_46_);enable-background:new    ;}
	.st44{opacity:0.1;fill:url(#Path_47_);enable-background:new    ;}
	.st45{fill-rule:evenodd;clip-rule:evenodd;fill:#FC6A55;}
	.st46{fill-rule:evenodd;clip-rule:evenodd;}
	.st47{fill:#FF6757;}
	.st48{fill:#666666;}
	.st49{fill:none;stroke:#FFFFFF;stroke-width:0.5;stroke-miterlimit:10;}
	.st50{fill:#606060;}
	.st51{fill:#F16A56;}
	.st52{fill:#515252;}
	.st53{fill:#F26A56;}
	.st54{fill:none;stroke:#F16A56;stroke-miterlimit:10;}
	.st55{fill:none;stroke:#929292;stroke-miterlimit:10;}
	.st56{fill:#929292;}
	.st57{fill:none;stroke:#000000;stroke-width:0.5;stroke-miterlimit:10;}
	.st58{fill:#A8A7A7;}
	.st59{fill:#F79F91;}
	.st60{fill:#9BDBD5;}
	.st61{fill:#222121;}
	.st62{stroke:#000000;stroke-width:0.25;stroke-miterlimit:10;}
</style>
<g>
	<g>
		<g>
			<path class="st0" d="M4.7,25.1C2.3,22.4,1,19,1,15.5C1,7.5,7.5,1,15.5,1c2.6,0,5.2,0.7,7.5,2.1l0.5-0.9C16.2-2.2,6.7,0.2,2.2,7.5
				C0.8,9.9,0,12.7,0,15.5c0,3.8,1.4,7.5,4,10.3H2.1v1h3.1c0.3,0,0.5-0.2,0.5-0.5v-3.1h-1V25.1z"/>
			<path class="st0" d="M27,5.2h1.9v-1h-3.1c-0.3,0-0.5,0.2-0.5,0.5v3.1h1V5.9c2.3,2.6,3.6,6,3.6,9.6c0,8-6.5,14.5-14.5,14.5
				c-2.6,0-5.2-0.7-7.5-2.1l-0.5,0.9c7.3,4.4,16.9,2.1,21.3-5.2c1.5-2.4,2.2-5.2,2.2-8C31,11.7,29.6,8,27,5.2z"/>
			<path class="st0" d="M15.5,27.4c0.1,0,0.2,0,0.2,0c0,0,0,0,0,0h0c6.6-0.1,11.8-5.5,11.7-12.1C27.3,12.1,26,9.2,23.8,7
				c-2.2-2.1-5-3.3-8.1-3.4c-0.1,0-0.3,0-0.4,0C8.8,3.7,3.5,9.1,3.6,15.7c0,3.1,1.3,6.1,3.6,8.3c2.2,2.1,5,3.3,8.1,3.4
				C15.3,27.4,15.4,27.4,15.5,27.4z M16.9,26.2c1.2-1.1,2.2-2.4,3-3.8c0.9,0.3,1.8,0.8,2.7,1.3C21,25.1,19,26,16.9,26.2z M23.3,23
				c-0.9-0.6-1.9-1.1-3-1.5c0.8-1.7,1.2-3.6,1.3-5.5h4.6C26.2,18.6,25.1,21.1,23.3,23z M26.3,15h-4.6c-0.1-1.9-0.5-3.8-1.3-5.5
				c1-0.4,2-0.9,3-1.5C25.1,9.9,26.2,12.4,26.3,15z M22.6,7.3c-0.8,0.5-1.7,0.9-2.7,1.3c-0.8-1.4-1.8-2.7-3-3.8
				C19,5,21,5.9,22.6,7.3z M16,5.3c1.2,1,2.1,2.2,2.9,3.5C18,9.1,17,9.2,16,9.3V5.3L16,5.3z M16,10.3c1.1,0,2.3-0.2,3.4-0.5
				c0.8,1.6,1.2,3.4,1.3,5.2H16V10.3z M16,16h4.6c-0.1,1.8-0.5,3.6-1.3,5.2l0,0c-1.1-0.3-2.2-0.5-3.4-0.5L16,16L16,16z M16,21.7
				c1,0,1.9,0.2,2.9,0.4c-0.8,1.3-1.7,2.5-2.9,3.5V21.7L16,21.7z M14.1,4.8c-1.2,1.1-2.2,2.4-3,3.8c-0.9-0.3-1.8-0.8-2.7-1.3
				C10,5.9,12,5,14.1,4.8z M7.7,8c0.9,0.6,1.9,1.1,3,1.5c-0.8,1.7-1.2,3.6-1.3,5.5H4.7C4.8,12.4,5.9,9.9,7.7,8z M4.7,16h4.6
				c0.1,1.9,0.5,3.8,1.3,5.5c-1,0.4-2,0.9-3,1.5C5.9,21.1,4.8,18.6,4.7,16z M8.4,23.7c0.8-0.5,1.7-0.9,2.7-1.3
				c0.8,1.4,1.8,2.7,3,3.8C12,26,10,25.1,8.4,23.7z M15,25.7c-1.2-1-2.1-2.2-2.9-3.5c0.9-0.2,1.9-0.4,2.9-0.4V25.7z M15,20.7
				c-1.1,0-2.3,0.2-3.4,0.5c-0.8-1.6-1.2-3.4-1.3-5.2H15V20.7z M15,15h-4.6c0.1-1.8,0.5-3.6,1.3-5.2c1.1,0.3,2.2,0.5,3.4,0.5V15z
				 M15,9.3c-1,0-1.9-0.2-2.9-0.4c0.8-1.3,1.7-2.5,2.9-3.5V9.3z"/>
		</g>
	</g>
</g>
</svg>
