<?xml version="1.0" encoding="utf-8"?>
<!-- Generator: Adobe Illustrator 24.0.2, SVG Export Plug-In . SVG Version: 6.00 Build 0)  -->
<svg version="1.1" id="Layer_1" xmlns="http://www.w3.org/2000/svg" xmlns:xlink="http://www.w3.org/1999/xlink" x="0px" y="0px"
	 viewBox="0 0 39.1 39.1" style="enable-background:new 0 0 39.1 39.1;" xml:space="preserve">
<style type="text/css">
	.st0{fill:#FC6A55;}
	.st1{fill:#EDEDED;}
	.st2{fill:none;stroke:#FC6A55;stroke-miterlimit:10;}
	.st3{stroke:#FFFFFF;stroke-width:0.25;stroke-miterlimit:10;}
	.st4{fill:#656D7A;}
	.st5{fill:#FFFFFF;}
	.st6{filter:url(#Adobe_OpacityMaskFilter);}
	.st7{fill-rule:evenodd;clip-rule:evenodd;fill:#FFFFFF;}
	.st8{mask:url(#mask-2_8_);fill-rule:evenodd;clip-rule:evenodd;}
	.st9{filter:url(#Adobe_OpacityMaskFilter_1_);}
	.st10{mask:url(#mask-2_7_);fill-rule:evenodd;clip-rule:evenodd;}
	.st11{filter:url(#Adobe_OpacityMaskFilter_2_);}
	.st12{mask:url(#mask-2_6_);fill-rule:evenodd;clip-rule:evenodd;}
	.st13{filter:url(#Adobe_OpacityMaskFilter_3_);}
	.st14{mask:url(#mask-2_5_);fill-rule:evenodd;clip-rule:evenodd;}
	.st15{filter:url(#Adobe_OpacityMaskFilter_4_);}
	.st16{mask:url(#mask-2_2_);fill:none;stroke:#000000;stroke-width:2;}
	.st17{fill:#434343;}
	.st18{fill:#434343;stroke:#F9F9F9;stroke-width:0.25;stroke-miterlimit:10;}
	.st19{fill:none;stroke:#FC6A55;stroke-width:0.5;stroke-miterlimit:10;}
	.st20{fill:none;stroke:#FC6A55;stroke-width:0.75;stroke-miterlimit:10;}
	.st21{fill:#FC6A55;stroke:#FC6A55;stroke-width:0.5;stroke-miterlimit:10;}
	.st22{opacity:0.153;fill:url(#Path_146_);enable-background:new    ;}
	.st23{opacity:0.1;fill:#590BB2;enable-background:new    ;}
	.st24{fill:#8E8CA8;}
	.st25{fill:#F5F4F9;}
	.st26{fill:#FFD5B8;}
	.st27{fill:#FC8473;}
	.st28{fill:#1C3475;}
	.st29{fill:#DDD9E4;}
	.st30{fill:#828FB3;}
	.st31{opacity:7.584635e-02;fill:url(#Path_147_);enable-background:new    ;}
	.st32{fill:#FFBE92;}
	.st33{fill:#FB8E7F;}
	.st34{fill:#FDB1A6;}
	.st35{fill:#FC806F;}
	.st36{fill:#FFE783;}
	.st37{fill:#104478;}
	.st38{fill:none;stroke:#FFFFFF;stroke-miterlimit:10;}
	.st39{fill:none;stroke:#000000;stroke-width:0.15;stroke-miterlimit:10;}
	.st40{opacity:0.1;fill:url(#Path_148_);enable-background:new    ;}
	.st41{opacity:0.1;fill:url(#Path_149_);enable-background:new    ;}
	.st42{fill-rule:evenodd;clip-rule:evenodd;fill:#FC6A55;}
	.st43{fill-rule:evenodd;clip-rule:evenodd;}
	.st44{fill:#FF6757;}
	.st45{fill:#666666;}
	.st46{fill:none;stroke:#FFFFFF;stroke-width:0.5;stroke-miterlimit:10;}
	.st47{fill:#F16A56;}
	.st48{fill:#515252;}
	.st49{fill:#F26A56;}
	.st50{fill:none;stroke:#F16A56;stroke-miterlimit:10;}
	.st51{fill:none;stroke:#929292;stroke-miterlimit:10;}
	.st52{fill:#929292;}
	.st53{fill:none;stroke:#000000;stroke-width:0.5;stroke-miterlimit:10;}
	.st54{fill:#A8A7A7;}
</style>
<circle class="st50" cx="19.5" cy="19.5" r="19"/>
<path class="st47" d="M27.7,15.3c0,0.2,0,0.4,0,0.5c0,5.6-4.2,12-12,12c-2.4,0-4.6-0.7-6.5-1.9c0.3,0,0.7,0.1,1,0.1
	c2,0,3.8-0.7,5.2-1.8c-1.8,0-3.4-1.3-3.9-2.9c0.3,0.1,0.5,0.1,0.8,0.1c0.4,0,0.8-0.1,1.1-0.1c-1.9-0.4-3.4-2.1-3.4-4.1
	c0,0,0,0,0-0.1c0.6,0.3,1.2,0.5,1.9,0.5c-1.1-0.8-1.9-2-1.9-3.5c0-0.8,0.2-1.5,0.6-2.1c2.1,2.5,5.2,4.2,8.7,4.4
	c-0.1-0.3-0.1-0.6-0.1-1c0-2.3,1.9-4.2,4.2-4.2c1.2,0,2.3,0.5,3.1,1.3c1-0.2,1.9-0.5,2.7-1c-0.3,1-1,1.8-1.9,2.3
	c0.9-0.1,1.7-0.3,2.4-0.7C29.2,14,28.5,14.7,27.7,15.3z"/>
</svg>
