<?xml version="1.0" encoding="utf-8"?>
<!-- Generator: Adobe Illustrator 24.0.2, SVG Export Plug-In . SVG Version: 6.00 Build 0)  -->
<svg version="1.1" id="Layer_1" xmlns="http://www.w3.org/2000/svg" xmlns:xlink="http://www.w3.org/1999/xlink" x="0px" y="0px"
	 viewBox="0 0 42 42" style="enable-background:new 0 0 42 42;" xml:space="preserve">
<style type="text/css">
	.st0{fill:#FC6A55;}
	.st1{stroke:#FFFFFF;stroke-width:0.25;stroke-miterlimit:10;}
	.st2{fill:#656D7A;}
	.st3{fill:#FFFFFF;}
	.st4{filter:url(#Adobe_OpacityMaskFilter);}
	.st5{fill-rule:evenodd;clip-rule:evenodd;fill:#FFFFFF;}
	.st6{mask:url(#mask-2_8_);fill-rule:evenodd;clip-rule:evenodd;}
	.st7{filter:url(#Adobe_OpacityMaskFilter_1_);}
	.st8{mask:url(#mask-2_7_);fill-rule:evenodd;clip-rule:evenodd;}
	.st9{filter:url(#Adobe_OpacityMaskFilter_2_);}
	.st10{mask:url(#mask-2_6_);fill-rule:evenodd;clip-rule:evenodd;}
	.st11{filter:url(#Adobe_OpacityMaskFilter_3_);}
	.st12{mask:url(#mask-2_5_);fill-rule:evenodd;clip-rule:evenodd;}
	.st13{filter:url(#Adobe_OpacityMaskFilter_4_);}
	.st14{mask:url(#mask-2_2_);fill:none;stroke:#000000;stroke-width:2;}
</style>
<g>
	<path d="M32.5,37.9h-2.2l-6.5-24.7c1.2-0.9,1.9-2.2,1.9-3.8c0-2.6-2.1-4.7-4.7-4.7s-4.7,2.1-4.7,4.7c0,1.5,0.8,2.9,1.9,3.8
		l-6.5,24.7H9.5c-0.4,0-0.7,0.3-0.7,0.7v2.7c0,0.4,0.3,0.7,0.7,0.7h23c0.4,0,0.7-0.3,0.7-0.7v-2.7C33.2,38.2,32.9,37.9,32.5,37.9z
		 M16.5,24.9l0.4-1.5l4.1-3.1l4.1,3.1l0.4,1.5L21,27.7L16.5,24.9z M19.7,28.5l-5,3.2l1.4-5.4L19.7,28.5z M17.5,21.3l0.8-3l1.6,1.2
		L17.5,21.3z M22.1,19.5l1.6-1.2l0.8,3L22.1,19.5z M25.8,26.2l1.4,5.4l-5-3.2L25.8,26.2z M17.6,9.5c0-1.9,1.5-3.4,3.4-3.4
		s3.4,1.5,3.4,3.4s-1.5,3.4-3.4,3.4S17.6,11.4,17.6,9.5z M21,14.2c0.6,0,1.1-0.1,1.6-0.3l0.8,2.9L21,18.6l-2.4-1.8l0.8-2.9
		C19.9,14.1,20.4,14.2,21,14.2z M14.2,33.6l6.8-4.3l6.8,4.3l1.1,4.4H13.1L14.2,33.6z M31.8,40.6H10.2v-1.4h21.7V40.6z"/>
	<path d="M21,11.5c1.1,0,2-0.9,2-2s-0.9-2-2-2s-2,0.9-2,2S19.9,11.5,21,11.5z M21,8.8c0.4,0,0.7,0.3,0.7,0.7c0,0.4-0.3,0.7-0.7,0.7
		s-0.7-0.3-0.7-0.7C20.3,9.1,20.6,8.8,21,8.8z"/>
	<path d="M27.8,7.5h1.4c0-1.1-0.9-2-2-2v1.4C27.5,6.8,27.8,7.1,27.8,7.5z"/>
	<path d="M30.5,7.5h1.4c0-2.6-2.1-4.7-4.7-4.7v1.4C29,4.1,30.5,5.6,30.5,7.5z"/>
	<path d="M27.1,0v1.4c3.4,0,6.1,2.7,6.1,6.1h1.4C34.5,3.3,31.2,0,27.1,0z"/>
	<path d="M14.2,7.5c0-0.4,0.3-0.7,0.7-0.7V5.4c-1.1,0-2,0.9-2,2H14.2z"/>
	<path d="M14.9,2.7c-2.6,0-4.7,2.1-4.7,4.7h1.4c0-1.9,1.5-3.4,3.4-3.4V2.7z"/>
	<path d="M14.9,1.4V0c-4.1,0-7.5,3.3-7.5,7.5h1.4C8.8,4.1,11.5,1.4,14.9,1.4z"/>
</g>
</svg>
