<?xml version="1.0" encoding="utf-8"?>
<!-- Generator: Adobe Illustrator 24.0.2, SVG Export Plug-In . SVG Version: 6.00 Build 0)  -->
<svg version="1.1" id="Layer_1" xmlns="http://www.w3.org/2000/svg" xmlns:xlink="http://www.w3.org/1999/xlink" x="0px" y="0px"
	 viewBox="0 0 42.3 42.3" style="enable-background:new 0 0 42.3 42.3;" xml:space="preserve">
<style type="text/css">
	.st0{fill:#FC6A55;}
	.st1{stroke:#FFFFFF;stroke-width:0.25;stroke-miterlimit:10;}
	.st2{fill:#656D7A;}
	.st3{fill:#FFFFFF;}
	.st4{filter:url(#Adobe_OpacityMaskFilter);}
	.st5{fill-rule:evenodd;clip-rule:evenodd;fill:#FFFFFF;}
	.st6{mask:url(#mask-2_8_);fill-rule:evenodd;clip-rule:evenodd;}
	.st7{filter:url(#Adobe_OpacityMaskFilter_1_);}
	.st8{mask:url(#mask-2_7_);fill-rule:evenodd;clip-rule:evenodd;}
	.st9{filter:url(#Adobe_OpacityMaskFilter_2_);}
	.st10{mask:url(#mask-2_6_);fill-rule:evenodd;clip-rule:evenodd;}
	.st11{filter:url(#Adobe_OpacityMaskFilter_3_);}
	.st12{mask:url(#mask-2_5_);fill-rule:evenodd;clip-rule:evenodd;}
	.st13{filter:url(#Adobe_OpacityMaskFilter_4_);}
	.st14{mask:url(#mask-2_2_);fill:none;stroke:#000000;stroke-width:2;}
</style>
<g id="Page-1">
	<g id="_x30_33---Insurance">
		<path id="Shape" d="M31.9,4.8L21.4,0.2c-0.2-0.1-0.4-0.1-0.6,0L10.3,4.8c-0.3,0.1-0.4,0.4-0.4,0.6v11c0,2.5,1.2,4.8,3.2,6.2
			l7.3,5.2c0.4,0.3,1.1,0.3,1.5,0l7.3-5.2c2-1.4,3.2-3.8,3.2-6.2v-11C32.3,5.1,32.2,4.9,31.9,4.8z M30.9,16.4c0,2-1,3.9-2.6,5.1
			l-7.2,5.2l-7.2-5.2c-1.6-1.2-2.6-3.1-2.6-5.1V5.9l9.8-4.3l9.8,4.3V16.4z"/>
		<path id="Shape_7_" d="M20.8,3.2l-7.7,3.4c-0.3,0.1-0.4,0.4-0.4,0.6v9.2c0,1.6,0.8,3,2,4l6,4.3c0.2,0.2,0.6,0.2,0.8,0l6-4.3
			c1.3-0.9,2-2.4,2-4V7.2c0-0.3-0.2-0.5-0.4-0.6l-7.7-3.4C21.2,3.2,21,3.2,20.8,3.2z M28.1,7.7v8.7c0,1.1-0.5,2.2-1.4,2.8l-5.6,4
			l-5.6-4c-0.9-0.7-1.4-1.7-1.4-2.8V7.7l7-3.1L28.1,7.7z"/>
		<path id="Shape_1_" d="M5.9,23.4l-1.5-3.5c-0.3-0.7-1-1.2-1.8-1.3c-0.8-0.1-1.6,0.3-2,0.9S0,20.9,0.3,21.6l2.7,6
			c0.4,0.8,0.9,1.6,1.5,2.2l4.3,4.3c-0.2,0.3-0.4,0.6-0.4,1v5.6c0,0.8,0.6,1.4,1.4,1.4h7.7c0.8,0,1.4-0.6,1.4-1.4v-5.6
			c0-0.8-0.6-1.4-1.4-1.4v-1.3c0-1.7-0.5-3.3-1.5-4.6c-0.6-0.8-1.4-1.4-2.3-1.7c-1.5-0.6-2.8-1.5-4-2.6C8.6,22.7,7.1,22.6,5.9,23.4z
			 M17.6,40.7H9.9v-5.6h7.7V40.7z M15,28.7c0.8,1.1,1.2,2.4,1.2,3.7v1.3h-5.8l-4.9-4.9c-0.5-0.5-0.9-1.1-1.2-1.8l-2.7-6
			c-0.1-0.3-0.1-0.6,0.1-0.8c0.2-0.2,0.4-0.4,0.7-0.4c0.3,0,0.6,0.2,0.8,0.5L4.7,24c0.4,1,1,1.9,1.8,2.6l3.2,3.2
			c0.2,0.2,0.4,0.3,0.7,0.2c0.2-0.1,0.4-0.3,0.5-0.5c0.1-0.2,0-0.5-0.2-0.7l-3.2-3.2c-0.3-0.3-0.6-0.7-0.9-1.1
			c0.7-0.5,1.6-0.5,2.3,0c1.3,1.2,2.8,2.2,4.5,2.8C14,27.7,14.6,28.1,15,28.7z"/>
		<path id="Shape_3_" d="M15.5,37.2h-0.7c-0.4,0-0.7,0.3-0.7,0.7c0,0.4,0.3,0.7,0.7,0.7h0.7c0.4,0,0.7-0.3,0.7-0.7
			C16.2,37.5,15.9,37.2,15.5,37.2z"/>
		<path id="Shape_4_" d="M39.2,27.7l2.7-6c0.3-0.7,0.3-1.6-0.2-2.2c-0.5-0.7-1.3-1-2.1-0.9c-0.8,0.1-1.5,0.6-1.8,1.3l-1.5,3.5
			c-1.2-0.8-2.7-0.7-3.8,0.2c-1.2,1.1-2.5,2-4,2.6c-0.9,0.3-1.7,0.9-2.3,1.7c-1,1.3-1.6,2.9-1.5,4.6v1.3c-0.8,0-1.4,0.6-1.4,1.4v5.6
			c0,0.8,0.6,1.4,1.4,1.4h7.7c0.8,0,1.4-0.6,1.4-1.4v-5.6c0-0.4-0.1-0.7-0.4-1l4.3-4.3C38.3,29.2,38.8,28.5,39.2,27.7z M32.3,40.7
			h-7.7v-5.6h7.7V40.7z M31.8,33.7H26v-1.3c0-1.3,0.4-2.6,1.2-3.7c0.4-0.6,1-1,1.7-1.2c1.6-0.7,3.2-1.6,4.5-2.8
			c0.7-0.5,1.6-0.6,2.3,0c-0.3,0.4-0.5,0.7-0.9,1.1l-3.2,3.2c-0.3,0.3-0.3,0.7,0,1c0.3,0.3,0.7,0.3,1,0l3.2-3.2
			c0.8-0.7,1.3-1.6,1.8-2.6l1.6-3.7c0.1-0.3,0.4-0.5,0.8-0.5c0.3,0,0.5,0.1,0.7,0.4c0.2,0.2,0.2,0.5,0.1,0.8l-2.7,6
			c-0.3,0.7-0.7,1.3-1.2,1.8L31.8,33.7z"/>
		<path id="Shape_5_" d="M27.4,37.2h-0.7c-0.4,0-0.7,0.3-0.7,0.7c0,0.4,0.3,0.7,0.7,0.7h0.7c0.4,0,0.7-0.3,0.7-0.7
			C28.1,37.5,27.8,37.2,27.4,37.2z"/>
		<path id="Shape_6_" d="M17.3,15c-0.3-0.2-0.7-0.2-1,0.1s-0.2,0.7,0.1,1l2.8,2.1c0.1,0.1,0.3,0.1,0.4,0.1c0,0,0.1,0,0.1,0
			c0.2,0,0.4-0.1,0.5-0.3l5.6-8.4c0.1-0.2,0.2-0.5,0-0.7c-0.1-0.2-0.3-0.4-0.6-0.4s-0.5,0.1-0.6,0.3l-5.2,7.8L17.3,15z"/>
	</g>
</g>
</svg>
