<?xml version="1.0" encoding="utf-8"?>
<!-- Generator: Adobe Illustrator 24.0.2, SVG Export Plug-In . SVG Version: 6.00 Build 0)  -->
<svg version="1.1" id="Layer_1" xmlns="http://www.w3.org/2000/svg" xmlns:xlink="http://www.w3.org/1999/xlink" x="0px" y="0px"
	 viewBox="0 0 42.3 42.3" style="enable-background:new 0 0 42.3 42.3;" xml:space="preserve">
<style type="text/css">
	.st0{fill:#FC6A55;}
	.st1{stroke:#FFFFFF;stroke-width:0.25;stroke-miterlimit:10;}
	.st2{fill:#656D7A;}
	.st3{fill:#FFFFFF;}
	.st4{filter:url(#Adobe_OpacityMaskFilter);}
	.st5{fill-rule:evenodd;clip-rule:evenodd;fill:#FFFFFF;}
	.st6{mask:url(#mask-2_8_);fill-rule:evenodd;clip-rule:evenodd;}
	.st7{filter:url(#Adobe_OpacityMaskFilter_1_);}
	.st8{mask:url(#mask-2_7_);fill-rule:evenodd;clip-rule:evenodd;}
	.st9{filter:url(#Adobe_OpacityMaskFilter_2_);}
	.st10{mask:url(#mask-2_6_);fill-rule:evenodd;clip-rule:evenodd;}
	.st11{filter:url(#Adobe_OpacityMaskFilter_3_);}
	.st12{mask:url(#mask-2_5_);fill-rule:evenodd;clip-rule:evenodd;}
	.st13{filter:url(#Adobe_OpacityMaskFilter_4_);}
	.st14{mask:url(#mask-2_2_);fill:none;stroke:#000000;stroke-width:2;}
</style>
<g>
	<g>
		<path d="M39.7,40l-1.9-10.9c-0.2-1.2-1-2.1-2.2-2.5l-5-1.5c-0.1-1.2-0.6-2.4-1.4-3.3c-0.7-0.7-1.5-1.3-2.4-1.6
			c0.2-0.2,0.3-0.4,0.4-0.5c1.2-1.5,1.8-3.2,2-4.3h0.4c1,0,1.8-0.8,1.8-1.8v-0.9c0-0.7-0.4-1.3-0.9-1.6V8.8c0-0.3-0.3-0.6-0.6-0.6
			s-0.6,0.3-0.6,0.6v2.5c-0.2,0-0.5,0.1-0.8,0.2c0,0-0.1,0-0.1,0c-0.1,0-0.1,0.1-0.2,0.1v-5c0-1.4-1.1-2.5-2.5-2.5H24
			c-0.6,0-1.2,0.2-1.6,0.6L22.2,5c-0.3,0.3-0.7,0.4-1.1,0.4c-0.4,0-0.8-0.1-1.1-0.4l-0.2-0.1c-0.5-0.4-1-0.6-1.6-0.6h-1.7
			c-1.4,0-2.5,1.1-2.5,2.5v5c-0.1,0-0.1-0.1-0.2-0.1c0,0-0.1,0-0.1,0c-0.3-0.1-0.6-0.2-0.8-0.2V5c0-2,1.6-3.6,3.6-3.6h9.1
			c2,0,3.6,1.6,3.6,3.6v1c0,0.3,0.3,0.6,0.6,0.6s0.6-0.3,0.6-0.6V5c0-2.7-2.2-4.8-4.8-4.8h-9.1c-2.7,0-4.8,2.2-4.8,4.8v6.1
			c-0.6,0.3-0.9,0.9-0.9,1.6v0.9c0,1,0.8,1.8,1.8,1.8H13c0.2,1.1,0.8,2.8,2,4.3c0.1,0.2,0.3,0.3,0.4,0.5c-2.1,0.7-3.7,2.6-3.9,4.9
			l-5,1.5c-1.1,0.3-2,1.3-2.2,2.5l-0.8,4.4c-0.1,0.3,0.2,0.7,0.5,0.7c0.3,0.1,0.7-0.2,0.7-0.5l0.8-4.4c0.1-0.7,0.6-1.3,1.3-1.5
			l4.6-1.4v1.2c-1.1,0.2-2,0.9-2.3,1.9C9.1,29.8,9,30.1,9,30.4l-0.4,5.7c0,0.4,0.1,0.9,0.4,1.2c0.3,0.3,0.7,0.5,1.1,0.5h0.8
			c0.3,0,0.6-0.3,0.6-0.6c0-0.3-0.3-0.6-0.6-0.6h-0.8c-0.1,0-0.2,0-0.2-0.1c-0.1-0.1-0.1-0.2-0.1-0.3l0.4-5.8c0-0.2,0.1-0.3,0.1-0.5
			c0.3-0.7,1-1.2,1.7-1.2l0.1,0c0,0,0,0,0,0c0.8,0,1.4,0.4,1.7,1.1c0.1,0.2,0.1,0.4,0.1,0.6l0.4,5.8c0,0.1,0,0.2-0.1,0.3
			c-0.1,0.1-0.2,0.1-0.2,0.1h-0.8c-0.3,0-0.6,0.3-0.6,0.6c0,0.3,0.3,0.6,0.6,0.6h0.8c0.4,0,0.9-0.2,1.1-0.5c0.3-0.3,0.4-0.8,0.4-1.2
			l-0.4-5.8c0-0.3-0.1-0.7-0.2-1c-0.4-1-1.3-1.6-2.3-1.8V26l2.1-0.6c0.2,0.4,0.6,1.3,1.3,3.2c0.8,1.9,1.7,4.3,2.6,6.7c0,0,0,0,0,0.1
			c0.6,1.6,1.2,3.1,1.7,4.5c0.1,0.2,0.3,0.4,0.6,0.4s0.5-0.2,0.6-0.4c0.5-1.3,1.1-2.9,1.7-4.5c0,0,0,0,0-0.1
			c0.9-2.4,1.9-4.8,2.6-6.7c0.8-1.9,1.1-2.8,1.3-3.2l2.1,0.6v3.6c-1.5,0.3-2.6,1.6-2.6,3.1c0,1.8,1.4,3.2,3.2,3.2
			c1.8,0,3.2-1.4,3.2-3.2c0-1.5-1.1-2.8-2.6-3.1v-3.3l4.6,1.4c0.7,0.2,1.2,0.8,1.3,1.5l1.9,10.9c0,0.2,0,0.4-0.1,0.5
			c-0.1,0.1-0.3,0.2-0.5,0.2H4.3c-0.2,0-0.3-0.1-0.5-0.2c-0.1-0.1-0.2-0.3-0.1-0.5l0.6-3.6c0.1-0.3-0.2-0.7-0.5-0.7
			c-0.3-0.1-0.7,0.2-0.7,0.5L2.5,40c-0.1,0.5,0.1,1.1,0.4,1.5c0.4,0.4,0.9,0.7,1.4,0.7h33.6c0.5,0,1.1-0.2,1.4-0.7
			C39.7,41.1,39.8,40.5,39.7,40z M29.3,12.6c0.3-0.1,0.6-0.1,0.6-0.1c0.1,0,0.2,0,0.3-0.1c0,0.1,0,0.1,0,0.2v0.9
			c0,0.3-0.3,0.6-0.6,0.6h-0.3L29.3,12.6L29.3,12.6z M13,14.2L13,14.2h-0.3c-0.3,0-0.6-0.3-0.6-0.6v-0.9c0-0.1,0-0.1,0-0.2
			c0.1,0,0.2,0.1,0.3,0.1c0,0,0.3,0,0.6,0.1L13,14.2L13,14.2z M14.2,14.9v-1.6c0.2,0.1,0.4,0,0.6,0c0.3-0.1,0.5-0.4,0.5-0.8V6.8
			c0-0.7,0.6-1.3,1.3-1.3h1.7c0.3,0,0.6,0.1,0.8,0.3l0.2,0.1c0.5,0.4,1.2,0.7,1.9,0.7s1.3-0.2,1.9-0.7l0.2-0.1
			c0.2-0.2,0.5-0.3,0.8-0.3h1.7c0.7,0,1.3,0.6,1.3,1.3v5.7c0,0.3,0.2,0.7,0.5,0.8c0.1,0,0.2,0.1,0.3,0.1c0.1,0,0.2,0,0.2,0v1.6
			c0,0.9-0.6,2.6-1.8,4.1c-0.4,0.5-0.9,1-1.5,1.5c0,0,0,0-0.1,0c-0.9,0.7-2.1,1.2-3.6,1.2c-1.5,0-2.7-0.5-3.6-1.2c0,0,0,0-0.1,0
			c-0.6-0.5-1.1-1-1.5-1.5C14.8,17.5,14.2,15.8,14.2,14.9z M25.2,24.8l-4,3l-4-3c0.4-0.5,0.6-1.2,0.6-1.7v-1
			c0.9,0.5,2.1,0.9,3.4,0.9c1.3,0,2.5-0.3,3.4-0.9v1C24.5,23.7,24.8,24.3,25.2,24.8z M16.1,24.1c-0.3-0.1-0.7-0.1-1-0.1c0,0,0,0,0,0
			l-2.1,0.6c0.4-1.8,1.8-3.2,3.6-3.4v1.8C16.5,23.5,16.3,23.9,16.1,24.1z M17.7,29.1C17.7,29.1,17.7,29.1,17.7,29.1
			c0-0.1-0.1-0.2-0.1-0.2c0,0,0,0,0,0c0-0.1-0.1-0.1-0.1-0.2c0,0,0,0,0,0c-0.1-0.2-0.2-0.4-0.3-0.7c0,0,0,0,0,0c0-0.1,0-0.1-0.1-0.2
			c0,0,0,0,0-0.1c0-0.1,0-0.1-0.1-0.2c0,0,0,0,0,0c0-0.1-0.1-0.2-0.1-0.3c0,0,0-0.1,0-0.1c0,0,0-0.1,0-0.1c0,0,0-0.1,0-0.1
			c0,0,0,0,0,0c0,0,0,0,0,0c-0.1-0.2-0.1-0.3-0.2-0.5c0,0,0,0,0,0c0-0.1-0.1-0.2-0.1-0.2c0,0,0-0.1,0-0.1l3.5,2.6l-1.4,0.6
			c0,0,0,0,0,0l-0.6,0.3C17.8,29.2,17.8,29.2,17.7,29.1z M19.2,32.8c-0.1-0.3-0.2-0.6-0.4-0.9c-0.2-0.5-0.4-1-0.6-1.4l0.2-0.1
			l0.9,1.1L19.2,32.8z M21.1,37.8c0,0,0-0.1-0.1-0.1c-0.3-0.7-0.6-1.7-1-2.7l0.6-3.1h1l0.6,3.1C21.8,36.1,21.4,37.1,21.1,37.8z
			 M21.9,30.7h-1.5l-0.7-0.8l1.4-0.6l1.4,0.6L21.9,30.7z M23.4,31.9c-0.1,0.3-0.2,0.6-0.4,0.9l-0.3-1.4l0.9-1.1l0.2,0.1
			C23.8,30.9,23.6,31.4,23.4,31.9z M25.8,26c0,0.1-0.1,0.1-0.1,0.2c0,0,0,0,0,0c0,0.1-0.1,0.2-0.1,0.2c0,0,0,0,0,0
			c0,0.1-0.1,0.1-0.1,0.2c0,0,0,0,0,0c0,0,0,0,0,0.1c0,0,0,0.1,0,0.1c0,0,0,0.1-0.1,0.1c0,0,0,0,0,0c0,0.1-0.1,0.2-0.1,0.3
			c0,0,0,0,0,0.1c0,0.1,0,0.1-0.1,0.2c0,0,0,0,0,0.1c0,0.1,0,0.1-0.1,0.2c0,0,0,0,0,0.1c-0.1,0.2-0.2,0.4-0.3,0.7c0,0,0,0,0,0
			c0,0.1-0.1,0.1-0.1,0.2c0,0,0,0,0,0c0,0.1-0.1,0.2-0.1,0.2c0,0,0,0,0,0c0,0.1-0.1,0.2-0.1,0.3l-0.6-0.3c0,0,0,0,0,0l-1.4-0.6
			l3.5-2.6C25.8,25.9,25.8,25.9,25.8,26z M27.3,24.1C27.3,24.1,27.3,24.1,27.3,24.1C27.3,24.1,27.3,24.1,27.3,24.1
			c-0.4-0.1-0.7-0.1-1.1,0c-0.2-0.3-0.4-0.7-0.4-1.1v-1.8c1.8,0.3,3.3,1.7,3.6,3.4L27.3,24.1z M32,32.8c0,1.1-0.9,2-2,2
			c-1.1,0-2-0.9-2-2c0-1.1,0.9-2,2-2C31.2,30.9,32,31.7,32,32.8z"/>
	</g>
</g>
</svg>
