<?xml version="1.0" encoding="utf-8"?>
<!-- Generator: Adobe Illustrator 24.0.2, SVG Export Plug-In . SVG Version: 6.00 Build 0)  -->
<svg version="1.1" id="Layer_1" xmlns="http://www.w3.org/2000/svg" xmlns:xlink="http://www.w3.org/1999/xlink" x="0px" y="0px"
	 viewBox="0 0 42.3 42.3" style="enable-background:new 0 0 42.3 42.3;" xml:space="preserve">
<style type="text/css">
	.st0{fill:#FC6A55;}
	.st1{stroke:#FFFFFF;stroke-width:0.25;stroke-miterlimit:10;}
	.st2{fill:#656D7A;}
	.st3{fill:#FFFFFF;}
	.st4{filter:url(#Adobe_OpacityMaskFilter);}
	.st5{fill-rule:evenodd;clip-rule:evenodd;fill:#FFFFFF;}
	.st6{mask:url(#mask-2_8_);fill-rule:evenodd;clip-rule:evenodd;}
	.st7{filter:url(#Adobe_OpacityMaskFilter_1_);}
	.st8{mask:url(#mask-2_7_);fill-rule:evenodd;clip-rule:evenodd;}
	.st9{filter:url(#Adobe_OpacityMaskFilter_2_);}
	.st10{mask:url(#mask-2_6_);fill-rule:evenodd;clip-rule:evenodd;}
	.st11{filter:url(#Adobe_OpacityMaskFilter_3_);}
	.st12{mask:url(#mask-2_5_);fill-rule:evenodd;clip-rule:evenodd;}
	.st13{filter:url(#Adobe_OpacityMaskFilter_4_);}
	.st14{mask:url(#mask-2_2_);fill:none;stroke:#000000;stroke-width:2;}
</style>
<g>
	<g>
		<path d="M16.5,14.8v-2h0.7v-0.6H13v0.6h0.7v2c-0.2,0.1-0.5,0.2-0.7,0.3l-2.2-3.3v-1.4h0.7V9.9h-0.7V9c0-0.2-0.2-0.3-0.4-0.3h-0.4
			V7.8c0-0.2-0.2-0.3-0.4-0.3H7.6c-0.2,0-0.4,0.1-0.4,0.3v0.9H6.9C6.7,8.7,6.6,8.8,6.6,9v0.9H5.9v0.6h0.7v1.4l-4,6.1
			c-0.1,0.2-0.2,0.5-0.2,0.7v0.3c0,0.8,0.8,1.5,1.8,1.5h9.2c0.3,0,0.5,0,0.7-0.1c0.3,0.1,0.7,0.1,1,0.1c2,0,3.5-1.3,3.5-2.9
			C18.6,16.3,17.8,15.2,16.5,14.8z M15.8,12.8v0.6h-1.4v-0.6H15.8z M14.2,15.2c0.1,0,0.2-0.2,0.2-0.3v-1h1.4v1
			c0,0.1,0.1,0.2,0.2,0.3c0.9,0.3,1.6,0.9,1.8,1.6c-0.3,0-0.5,0.1-0.7,0.3l-0.3,0.2c-0.1,0.1-0.2,0.1-0.3,0.1h-0.1
			c-0.1,0-0.2,0-0.3-0.1l-0.3-0.2c-0.2-0.2-0.5-0.3-0.8-0.3H15c-0.3,0-0.6,0.1-0.8,0.3L14,17.3c-0.1,0.1-0.2,0.1-0.3,0.1h-0.1
			c-0.1,0-0.2,0-0.3-0.1l-0.3-0.2c-0.2-0.2-0.4-0.2-0.7-0.3C12.6,16.1,13.3,15.5,14.2,15.2z M8,8.1h1.4v0.6H8V8.1z M7.3,9.3h2.8v0.6
			H7.3V9.3z M7.2,12c0,0,0-0.1,0-0.1v-1.5h2.8v1.5c0,0,0,0.1,0,0.1l1.3,1.9c-0.3,0-0.5,0.1-0.7,0.3l-0.3,0.2
			c-0.1,0.1-0.2,0.1-0.3,0.1h-0.1c-0.1,0-0.2,0-0.3-0.1l-0.3-0.2c-0.2-0.2-0.5-0.3-0.8-0.3H8.7c-0.3,0-0.6,0.1-0.8,0.3l-0.3,0.2
			c-0.1,0.1-0.2,0.1-0.3,0.1H7.2c-0.1,0-0.2,0-0.3-0.1l-0.3-0.2C6.5,14,6.2,13.9,6,13.9L7.2,12z M4.1,19.7c-0.6,0-1.1-0.4-1.1-0.9
			v-0.3c0-0.1,0-0.3,0.1-0.4l2.4-3.7h0.3c0.1,0,0.2,0,0.3,0.1l0.3,0.2c0.2,0.2,0.5,0.3,0.8,0.3h0.1c0.3,0,0.6-0.1,0.8-0.3l0.3-0.2
			c0.1-0.1,0.2-0.1,0.3-0.1h0.1c0.1,0,0.2,0,0.3,0.1l0.3,0.2c0.2,0.2,0.5,0.3,0.8,0.3h0.1c0.3,0,0.6-0.1,0.8-0.3l0.3-0.2
			c0.1-0.1,0.2-0.1,0.3-0.1h0.3l0.6,1c-0.6,0.5-0.9,1.2-0.9,1.9c0,1,0.6,1.8,1.4,2.3H4.1z M15.1,19.7c-1.6,0-2.8-1-2.8-2.3h0.1
			c0.1,0,0.2,0,0.3,0.1l0.3,0.2c0.2,0.2,0.5,0.3,0.8,0.3h0.1c0.3,0,0.6-0.1,0.8-0.3l0.3-0.2c0.1-0.1,0.2-0.1,0.3-0.1h0.1
			c0.1,0,0.2,0,0.3,0.1l0.3,0.2c0.2,0.2,0.5,0.3,0.8,0.3h0.1c0.3,0,0.6-0.1,0.8-0.3l0.3-0.2c0.1-0.1,0.2-0.1,0.3-0.1h0.1
			C17.9,18.7,16.7,19.7,15.1,19.7z"/>
		<path d="M4.8,17.4c-0.6,0-1.1,0.4-1.1,0.9s0.5,0.9,1.1,0.9s1.1-0.4,1.1-0.9S5.4,17.4,4.8,17.4z M4.8,18.6c-0.2,0-0.4-0.1-0.4-0.3
			S4.6,18,4.8,18s0.4,0.1,0.4,0.3S5,18.6,4.8,18.6z"/>
		<path d="M7.6,16.8c-0.6,0-1.1,0.4-1.1,0.9c0,0.5,0.5,0.9,1.1,0.9s1.1-0.4,1.1-0.9C8.7,17.2,8.2,16.8,7.6,16.8z M7.6,18
			c-0.2,0-0.4-0.1-0.4-0.3s0.2-0.3,0.4-0.3S8,17.5,8,17.7S7.8,18,7.6,18z"/>
		<path d="M10.1,15.7c-0.6,0-1.1,0.4-1.1,0.9c0,0.5,0.5,0.9,1.1,0.9s1.1-0.4,1.1-0.9C11.2,16.1,10.7,15.7,10.1,15.7z M10.1,16.8
			c-0.2,0-0.4-0.1-0.4-0.3s0.2-0.3,0.4-0.3s0.4,0.1,0.4,0.3S10.3,16.8,10.1,16.8z"/>
		<path d="M10.5,18.6h0.7v0.6h-0.7V18.6z"/>
		<path d="M9.8,18h0.7v0.6H9.8V18z"/>
		<path d="M9.1,18.6h0.7v0.6H9.1V18.6z"/>
		<path d="M6.2,16h0.7v0.6H6.2V16z"/>
		<path d="M24,6.4h-5c-0.2,0-0.4,0.1-0.4,0.3v1.2c0,0.2,0.2,0.3,0.4,0.3h0.4v10.5c0,1,1,1.7,2.1,1.7s2.1-0.8,2.1-1.7V8.1H24
			c0.2,0,0.4-0.1,0.4-0.3V6.7C24.3,6.5,24.2,6.4,24,6.4z M21.5,19.7c-0.8,0-1.4-0.5-1.4-1.2v-6.4h2.8v6.4
			C22.9,19.2,22.3,19.7,21.5,19.7z M22.9,11.6h-2.8V8.1h2.8V11.6z M23.6,7.5h-4.3V7h4.3V7.5z"/>
		<path d="M20.8,18.3h0.7v0.6h-0.7V18.3z"/>
		<path d="M21.5,17.1h0.7v0.6h-0.7V17.1z"/>
		<path d="M20.8,16h0.7v0.6h-0.7V16z"/>
		<path d="M21.5,14.8h0.7v0.6h-0.7V14.8z"/>
		<path d="M20.8,13.6h0.7v0.6h-0.7V13.6z"/>
		<path d="M8,5.5c0-0.2,0.2-0.3,0.4-0.3h1.1V7h0.7V5.2h3.5v6.4h0.7V5.2h1.1c0.2,0,0.4,0.1,0.4,0.3v6.1h0.7V5.5
			c0-0.5-0.5-0.9-1.1-0.9h-1.1V4.3c0-0.2,0.2-0.3,0.4-0.3H19c0.2,0,0.4,0.1,0.4,0.3v1.5h0.7V4.3c0-0.5-0.5-0.9-1.1-0.9h-4.3
			c-0.6,0-1.1,0.4-1.1,0.9v0.3h-3.5V3.2c0-0.2,0.2-0.3,0.4-0.3h12.1c0.2,0,0.4,0.1,0.4,0.3v2.6h0.7V3.2c0-0.5-0.5-0.9-1.1-0.9H10.5
			c-0.6,0-1.1,0.4-1.1,0.9v1.5H8.4C7.8,4.6,7.3,5,7.3,5.5V7H8V5.5z"/>
		<path d="M4.5,6.7c0,0.5,0.5,0.9,1.1,0.9s1.1-0.4,1.1-0.9S6.1,5.8,5.5,5.8S4.5,6.2,4.5,6.7z M5.9,6.7C5.9,6.8,5.7,7,5.5,7
			S5.2,6.8,5.2,6.7c0-0.2,0.2-0.3,0.4-0.3S5.9,6.5,5.9,6.7z"/>
		<path d="M4.1,5.2c1,0,1.8-0.7,1.8-1.5S5.1,2.3,4.1,2.3S2.3,3,2.3,3.8S3.1,5.2,4.1,5.2z M4.1,2.9c0.6,0,1.1,0.4,1.1,0.9
			S4.7,4.6,4.1,4.6S3,4.2,3,3.8S3.5,2.9,4.1,2.9z"/>
		<path d="M3.7,10.4c0.8,0,1.4-0.5,1.4-1.2S4.5,8.1,3.7,8.1S2.3,8.6,2.3,9.3S3,10.4,3.7,10.4z M3.7,8.7c0.4,0,0.7,0.3,0.7,0.6
			S4.1,9.9,3.7,9.9S3,9.6,3,9.3S3.4,8.7,3.7,8.7z"/>
	</g>
	<g id="surface1">
		<path d="M41.4,25.8h-2.1L37.9,9.8c0-0.3-0.3-0.5-0.7-0.5H33c-0.4,0-0.7,0.2-0.7,0.5L31,25.8h-1.4v-3.4c0-0.3-0.3-0.6-0.7-0.6
			c-0.2,0-0.3,0-0.4,0.1l-5.9,3.8v-3.4c0-0.3-0.3-0.6-0.7-0.6c-0.2,0-0.3,0-0.4,0.1l-5.9,3.8v-3.4c0-0.3-0.3-0.6-0.7-0.6
			c-0.2,0-0.3,0-0.4,0.1l-5.9,3.8v-3.4c0-0.3-0.3-0.6-0.7-0.6c-0.1,0-0.3,0-0.4,0.1l-7,3.4c-0.2,0.1-0.3,0.3-0.3,0.5v13.6
			c0,0.3,0.3,0.6,0.7,0.6h40.6c0.4,0,0.7-0.3,0.7-0.6v-13C42.1,26,41.8,25.8,41.4,25.8z M33.7,10.5h2.9l1.3,15.3h-5.5L33.7,10.5z
			 M23.9,38.8V32h4.2v6.8H23.9z M40.7,38.8H29.5v-7.4c0-0.3-0.3-0.6-0.7-0.6h-5.6c-0.4,0-0.7,0.3-0.7,0.6v7.4h-21V26.1l5.6-2.7v3.5
			c0,0.3,0.3,0.6,0.7,0.6c0.2,0,0.3,0,0.4-0.1l5.9-3.8v3.4c0,0.3,0.3,0.6,0.7,0.6c0.2,0,0.3,0,0.4-0.1l5.9-3.8v3.4
			c0,0.3,0.3,0.6,0.7,0.6c0.2,0,0.3,0,0.4-0.1l5.9-3.8v2.8c0,0.3,0.3,0.6,0.7,0.6h11.9L40.7,38.8L40.7,38.8z"/>
		<path d="M25.9,5.3c0.3,0.1,0.5,0.3,0.7,0.5c0.4,0.5,1,0.8,1.6,0.9c0.6-0.1,1.2-0.4,1.6-0.9c0.2-0.2,0.4-0.4,0.6-0.5
			c0.1,0,0.5,0.4,0.7,0.5c0.4,0.5,0.9,0.8,1.5,0.9c0.7-0.1,1.3-0.4,1.8-1c0.2-0.2,0.4-0.4,0.5-0.4c0.4,0,0.5,0.1,0.7,0.5
			c0.3,0.6,0.9,0.9,1.5,0.9c0.4,0,0.7-0.3,0.7-0.7c0-0.4-0.3-0.7-0.7-0.7c-0.1,0-0.2,0-0.4-0.3c-0.4-0.7-1.1-1.1-1.8-1.1
			c-0.6,0.1-1.1,0.4-1.4,0.8c-0.2,0.2-0.6,0.6-0.8,0.6c-0.2-0.1-0.4-0.3-0.6-0.5c-0.4-0.5-1-0.8-1.7-0.9c-0.6,0.1-1.2,0.4-1.5,0.9
			c-0.2,0.2-0.4,0.4-0.7,0.5C28,5.2,27.7,5,27.6,4.8c-0.4-0.5-1-0.8-1.6-0.9c-0.4,0-0.7,0.3-0.7,0.7C25.2,5,25.5,5.3,25.9,5.3z"/>
		<path d="M7.8,30.1H5c-0.4,0-0.7,0.3-0.7,0.7V35c0,0.4,0.3,0.7,0.7,0.7h2.8c0.4,0,0.7-0.3,0.7-0.7v-4.2C8.5,30.4,8.2,30.1,7.8,30.1
			z M7.1,34.3H5.7v-2.8h1.4V34.3z"/>
		<path d="M13.4,30.1h-2.8c-0.4,0-0.7,0.3-0.7,0.7V35c0,0.4,0.3,0.7,0.7,0.7h2.8c0.4,0,0.7-0.3,0.7-0.7v-4.2
			C14.1,30.4,13.8,30.1,13.4,30.1z M12.7,34.3h-1.4v-2.8h1.4V34.3z"/>
		<path d="M19,30.1h-2.8c-0.4,0-0.7,0.3-0.7,0.7V35c0,0.4,0.3,0.7,0.7,0.7H19c0.4,0,0.7-0.3,0.7-0.7v-4.2
			C19.7,30.4,19.4,30.1,19,30.1z M18.3,34.3h-1.4v-2.8h1.4V34.3z"/>
	</g>
</g>
</svg>
