<?xml version="1.0" encoding="utf-8"?>
<!-- Generator: Adobe Illustrator 24.0.2, SVG Export Plug-In . SVG Version: 6.00 Build 0)  -->
<svg version="1.1" id="Layer_1" xmlns="http://www.w3.org/2000/svg" xmlns:xlink="http://www.w3.org/1999/xlink" x="0px" y="0px"
	 viewBox="0 0 18 24" style="enable-background:new 0 0 18 24;" xml:space="preserve">
<style type="text/css">
	.st0{fill:#FC6A55;}
	.st1{fill:#EDEDED;}
	.st2{fill:none;stroke:#FC6A55;stroke-miterlimit:10;}
	.st3{stroke:#FFFFFF;stroke-width:0.25;stroke-miterlimit:10;}
	.st4{fill:#656D7A;}
	.st5{fill:#FFFFFF;}
	.st6{filter:url(#Adobe_OpacityMaskFilter);}
	.st7{fill-rule:evenodd;clip-rule:evenodd;fill:#FFFFFF;}
	.st8{mask:url(#mask-2_8_);fill-rule:evenodd;clip-rule:evenodd;}
	.st9{filter:url(#Adobe_OpacityMaskFilter_1_);}
	.st10{mask:url(#mask-2_7_);fill-rule:evenodd;clip-rule:evenodd;}
	.st11{filter:url(#Adobe_OpacityMaskFilter_2_);}
	.st12{mask:url(#mask-2_6_);fill-rule:evenodd;clip-rule:evenodd;}
	.st13{filter:url(#Adobe_OpacityMaskFilter_3_);}
	.st14{mask:url(#mask-2_5_);fill-rule:evenodd;clip-rule:evenodd;}
	.st15{filter:url(#Adobe_OpacityMaskFilter_4_);}
	.st16{mask:url(#mask-2_2_);fill:none;stroke:#000000;stroke-width:2;}
	.st17{fill:#434343;}
	.st18{fill:#434343;stroke:#F9F9F9;stroke-width:0.25;stroke-miterlimit:10;}
	.st19{fill:none;stroke:#FC6A55;stroke-width:0.5;stroke-miterlimit:10;}
	.st20{fill:none;stroke:#FC6A55;stroke-width:0.75;stroke-miterlimit:10;}
	.st21{fill:#FC6A55;stroke:#FC6A55;stroke-width:0.5;stroke-miterlimit:10;}
	.st22{opacity:0.153;fill:url(#Path_146_);enable-background:new    ;}
	.st23{opacity:0.1;fill:#590BB2;enable-background:new    ;}
	.st24{fill:#8E8CA8;}
	.st25{fill:#F5F4F9;}
	.st26{fill:#FFD5B8;}
	.st27{fill:#FC8473;}
	.st28{fill:#1C3475;}
	.st29{fill:#DDD9E4;}
	.st30{fill:#828FB3;}
	.st31{opacity:7.584635e-02;fill:url(#Path_147_);enable-background:new    ;}
	.st32{fill:#FFBE92;}
	.st33{fill:#FB8E7F;}
	.st34{fill:#FDB1A6;}
	.st35{fill:#FC806F;}
	.st36{fill:#FFE783;}
	.st37{fill:#104478;}
	.st38{fill:none;stroke:#FFFFFF;stroke-miterlimit:10;}
	.st39{fill:none;stroke:#000000;stroke-width:0.15;stroke-miterlimit:10;}
	.st40{opacity:0.1;fill:url(#Path_148_);enable-background:new    ;}
	.st41{opacity:0.1;fill:url(#Path_149_);enable-background:new    ;}
	.st42{fill-rule:evenodd;clip-rule:evenodd;fill:#FC6A55;}
	.st43{fill-rule:evenodd;clip-rule:evenodd;}
</style>
<g>
	<path class="st0" d="M7.3,15.8l-0.2,0.6c0.5,0.2,0.8,0.5,1,1l0.6-0.2C8.5,16.5,8,16,7.3,15.8z"/>
	<path class="st0" d="M9,6.5c1.4,0,3.8-0.2,3.8-1.2S10.4,4.2,9,4.2S5.2,4.4,5.2,5.3S7.6,6.5,9,6.5z M9,4.7c1.9,0,3,0.4,3.2,0.6
		C12,5.5,10.9,5.9,9,5.9S6,5.5,5.8,5.3C6,5.1,7.1,4.7,9,4.7z"/>
	<path class="st0" d="M9,7.6c4.1,0,4.9-1.3,4.9-2.3S13.1,3,9,3S4.1,4.3,4.1,5.3S4.9,7.6,9,7.6z M9,3.6c1.6,0,4.4,0.2,4.4,1.7
		S10.6,7.1,9,7.1S4.6,6.8,4.6,5.3S7.4,3.6,9,3.6z"/>
	<path class="st0" d="M18,11.7c0-0.3-0.3-0.6-0.6-0.6h-3.6c-0.6,0-1.1,0.3-1.3,0.8l-0.3,0.7c-0.2-0.2-0.5-0.3-0.8-0.3h-0.6V9.7
		c0-0.5-0.4-0.9-0.9-0.9c-0.1,0-0.2,0-0.3,0.1C9.4,8.5,9.1,8.2,8.7,8.2c-0.5,0-0.9,0.4-0.9,0.9v2.7c-0.1,0-0.2-0.1-0.3-0.1
		c-0.4,0-0.7,0.3-0.8,0.6c-0.1,0-0.2-0.1-0.3-0.1c-0.2,0-0.4,0.1-0.6,0.2l-0.3-0.6c-0.2-0.5-0.7-0.8-1.3-0.8H0.6
		c-0.3,0-0.6,0.3-0.6,0.6c0,0.4,0.2,0.8,0.6,1c0,0,0,0.1,0,0.1c0,0.4,0.2,0.8,0.6,1c0,0,0,0.1,0,0.1c0,0.4,0.2,0.8,0.6,1
		c0,0,0,0.1,0,0.1c0,0.6,0.5,1.2,1.2,1.2h2.8c0.2,0.6,0.4,1.2,0.8,1.8c-0.2,0.1-0.3,0.3-0.3,0.5v1.7c0,0.3,0.3,0.6,0.6,0.6h4.6
		c0.3,0,0.6-0.3,0.6-0.6v-1.7c0-0.2-0.1-0.4-0.3-0.5c0.4-0.5,0.6-1.2,0.8-1.8h2.8c0.6,0,1.2-0.5,1.2-1.2c0-0.1,0-0.1,0-0.1
		c0.4-0.2,0.6-0.6,0.6-1c0-0.1,0-0.1,0-0.1c0.4-0.2,0.6-0.6,0.6-1c0-0.1,0-0.1,0-0.1C17.8,12.5,18,12.1,18,11.7z M9.9,9.4
		c0.2,0,0.3,0.1,0.3,0.3v2.6H9.6V9.7C9.6,9.5,9.7,9.4,9.9,9.4z M8.4,9.1c0-0.2,0.1-0.3,0.3-0.3S9,8.9,9,9.1v3.2H8.4V9.1z M7.3,12.6
		c0-0.2,0.1-0.3,0.3-0.3c0.2,0,0.3,0.1,0.3,0.3v1.7c0,0.2-0.1,0.3-0.3,0.3c-0.2,0-0.3-0.1-0.3-0.3V12.6z M6.1,13.2
		c0-0.2,0.1-0.3,0.3-0.3c0.2,0,0.3,0.1,0.3,0.3v1.2c0,0.2-0.1,0.3-0.3,0.3c-0.2,0-0.3-0.1-0.3-0.3V13.2z M2.9,15.8
		c-0.3,0-0.6-0.3-0.6-0.6h0h1.7v-0.6H2.3c-0.3,0-0.6-0.3-0.6-0.6h0h1.7v-0.6H1.7c-0.3,0-0.6-0.3-0.6-0.6h0h1.7v-0.6H1.2
		c-0.3,0-0.6-0.3-0.6-0.6h3.6c0.3,0,0.6,0.2,0.8,0.5l0.5,1v1.8c0,0.2,0,0.5,0,0.7L2.9,15.8L2.9,15.8z M11.3,20.4H6.7v-1.7h4.6V20.4z
		 M11.9,15.1c0,1.1-0.4,2.2-1,3H7.1c-0.6-0.8-1-1.9-1-3c0.1,0,0.2,0.1,0.3,0.1c0.2,0,0.4-0.1,0.6-0.2c0.2,0.1,0.4,0.2,0.6,0.2
		c0.5,0,0.9-0.4,0.9-0.9V14c0.1,0.1,0.3,0.2,0.5,0.2l1.1,0.3c-0.3,0.5-0.5,1.1-0.7,1.6l0,0.1l0.6,0.1l0-0.1c0.2-0.6,0.4-1.2,0.8-1.8
		l0.2-0.3L9,13.7c-0.4-0.1-0.6-0.4-0.6-0.8h2.9c0.3,0,0.6,0.3,0.6,0.6L11.9,15.1z M16.8,12.3h-1.7v0.6h1.7c0,0.3-0.3,0.6-0.6,0.6
		h-1.7V14h1.7c0,0.3-0.3,0.6-0.6,0.6h-1.7v0.6h1.7c0,0.3-0.3,0.6-0.6,0.6h-2.7c0-0.2,0-0.5,0-0.7v-1.6c0-0.1,0-0.1,0-0.2l0.5-1.1
		c0.1-0.3,0.4-0.5,0.8-0.5h3.6C17.4,12,17.2,12.3,16.8,12.3L16.8,12.3z"/>
</g>
</svg>
