<?xml version="1.0" encoding="utf-8"?>
<!-- Generator: Adobe Illustrator 24.1.1, SVG Export Plug-In . SVG Version: 6.00 Build 0)  -->
<svg version="1.1" id="Layer_1" xmlns="http://www.w3.org/2000/svg" xmlns:xlink="http://www.w3.org/1999/xlink" x="0px" y="0px"
	 viewBox="0 0 38 31" style="enable-background:new 0 0 38 31;" xml:space="preserve">
<style type="text/css">
	.st0{fill:#FC6A55;}
	.st1{fill:#EDEDED;}
	.st2{fill:none;stroke:#FC6A55;stroke-miterlimit:10;}
	.st3{stroke:#FFFFFF;stroke-width:0.25;stroke-miterlimit:10;}
	.st4{fill:#656D7A;}
	.st5{fill:#FFFFFF;}
	.st6{filter:url(#Adobe_OpacityMaskFilter);}
	.st7{fill-rule:evenodd;clip-rule:evenodd;fill:#FFFFFF;}
	.st8{mask:url(#mask-2_8_);fill-rule:evenodd;clip-rule:evenodd;}
	.st9{filter:url(#Adobe_OpacityMaskFilter_1_);}
	.st10{mask:url(#mask-2_7_);fill-rule:evenodd;clip-rule:evenodd;}
	.st11{filter:url(#Adobe_OpacityMaskFilter_2_);}
	.st12{mask:url(#mask-2_6_);fill-rule:evenodd;clip-rule:evenodd;}
	.st13{filter:url(#Adobe_OpacityMaskFilter_3_);}
	.st14{mask:url(#mask-2_5_);fill-rule:evenodd;clip-rule:evenodd;}
	.st15{filter:url(#Adobe_OpacityMaskFilter_4_);}
	.st16{mask:url(#mask-2_2_);fill:none;stroke:#000000;stroke-width:2;}
	.st17{fill:#222121;}
	.st18{fill:#434343;}
	.st19{fill:#434343;stroke:#F9F9F9;stroke-width:0.25;stroke-miterlimit:10;}
	.st20{fill:none;stroke:#FC6A55;stroke-width:0.5;stroke-miterlimit:10;}
	.st21{fill:none;stroke:#FC6A55;stroke-width:0.75;stroke-miterlimit:10;}
	.st22{fill:#FC6A55;stroke:#FC6A55;stroke-width:0.5;stroke-miterlimit:10;}
	.st23{opacity:0.153;fill:url(#Path_36_);enable-background:new    ;}
	.st24{opacity:0.1;fill:#590BB2;enable-background:new    ;}
	.st25{fill:#8E8CA8;}
	.st26{fill:#F5F4F9;}
	.st27{fill:#FFD5B8;}
	.st28{fill:#FC8473;}
	.st29{fill:#1C3475;}
	.st30{fill:#DDD9E4;}
	.st31{fill:#828FB3;}
	.st32{opacity:7.584635e-02;fill:url(#Path_37_);enable-background:new    ;}
	.st33{fill:#FFBE92;}
	.st34{fill:#FB8E7F;}
	.st35{fill:#FDB1A6;}
	.st36{fill:#FC806F;}
	.st37{fill:#FFE783;}
	.st38{fill:#104478;}
	.st39{fill:none;stroke:#FFFFFF;stroke-miterlimit:10;}
	.st40{fill:none;stroke:#000000;stroke-width:0.15;stroke-miterlimit:10;}
	.st41{opacity:0.1;fill:url(#Path_38_);enable-background:new    ;}
	.st42{opacity:0.1;fill:url(#Path_39_);enable-background:new    ;}
	.st43{fill-rule:evenodd;clip-rule:evenodd;fill:#FC6A55;}
	.st44{fill-rule:evenodd;clip-rule:evenodd;}
	.st45{fill:#FF6757;}
	.st46{fill:#666666;}
	.st47{fill:none;stroke:#FFFFFF;stroke-width:0.5;stroke-miterlimit:10;}
	.st48{fill:#F16A56;}
	.st49{fill:#515252;}
	.st50{fill:#F26A56;}
	.st51{fill:none;stroke:#F16A56;stroke-miterlimit:10;}
	.st52{fill:none;stroke:#929292;stroke-miterlimit:10;}
	.st53{fill:#929292;}
	.st54{fill:none;stroke:#000000;stroke-width:0.5;stroke-miterlimit:10;}
	.st55{fill:#A8A7A7;}
	.st56{fill:#F79F91;}
	.st57{fill:#B4A3EE;}
	.st58{fill:#9BDBD5;}
</style>
<g>
	<g>
		<path class="st17" d="M30.4,21l-2.5-2.5L27,19l-0.3-1.1h-1.3v-1H10.7v6.7H19v2.3l1.1,0.3l-0.6,1l2.5,2.5l1-0.6l0.3,1.1h3.5
			l0.3-1.1l1,0.6l2.5-2.5l-0.6-1l1.1-0.3v-3.6L29.8,22L30.4,21z M25.4,24.1c0,0.3-0.2,0.5-0.5,0.5s-0.5-0.2-0.5-0.5
			c0-0.3,0.2-0.5,0.5-0.5S25.4,23.8,25.4,24.1z M24.5,22.6h-9.2v-1.9h9.2V22.6z M22.7,23.6h0.9c-0.1,0.1-0.1,0.3-0.1,0.5
			c0,0.8,0.6,1.4,1.4,1.4s1.4-0.6,1.4-1.4c0-0.6-0.4-1.1-0.9-1.3v-1c1,0.2,1.8,1.2,1.8,2.3c0,1.3-1,2.4-2.3,2.4
			c-1.3,0-2.3-1.1-2.3-2.4C22.7,23.9,22.7,23.7,22.7,23.6z M24.5,19.8h-9.2v-1.9h9.2V19.8z M14.4,17.9v1.9h-2.8v-1.9H14.4z
			 M11.7,20.7h2.8v1.9h-2.8V20.7z M30,23v2.1l-0.9,0.2l-0.2,0.1L28.7,26l0.6,1l-1.4,1.5l-1-0.6l-0.6,0.2L26,29.3h-2l-0.3-1.2
			l-0.6-0.2l-1,0.6L20.7,27l0.6-1L21,25.4l-1.1-0.3v-1.5h1.9c0,0.2,0,0.3,0,0.5c0,1.8,1.4,3.3,3.2,3.3c1.8,0,3.2-1.5,3.2-3.3
			c0-1.7-1.2-3.1-2.8-3.3v-1.9H26l0.3,1.2l0.6,0.2l1-0.6l1.4,1.5l-0.6,1l0.2,0.6L30,23z"/>
		<path class="st17" d="M18.5,10.3V15h14.7v-4.8H18.5z M19.5,11.2h2.8v2.9h-2.8V11.2z M32.3,14.1h-9.2v-2.9h9.2V14.1z"/>
		<path class="st17" d="M17.2,24.5h0.9v1h-0.9V24.5z"/>
		<path class="st17" d="M15.3,24.5h0.9v1h-0.9V24.5z"/>
		<path class="st17" d="M5.7,23.1v-8.6c0-0.8,0.6-1.4,1.4-1.4h6v2.2l5.2-2.7L13,10v2.2h-6c-1.3,0-2.3,1.1-2.3,2.4v8.6
			c0,1.3,1,2.4,2.3,2.4h7.3v-1H7.1C6.3,24.5,5.7,23.9,5.7,23.1z M14,11.5l2.2,1.1L14,13.8V11.5z"/>
		<path class="st17" d="M22.2,0.7H7.5v6.7h14.7V0.7z M21.3,3.6h-9.2V1.7h9.2V3.6z M11.2,1.7v1.9H8.5V1.7H11.2z M8.5,4.6h2.8v1.9H8.5
			V4.6z M12.1,6.5V4.6h9.2v1.9H12.1z"/>
		<path class="st17" d="M26.8,12.2h0.9v1h-0.9V12.2z"/>
		<path class="st17" d="M28.6,12.2h0.9v1h-0.9V12.2z"/>
		<path class="st17" d="M30.5,12.2h0.9v1h-0.9V12.2z"/>
		<path class="st17" d="M23.1,3.6H24v1h-0.9V3.6z"/>
		<path class="st17" d="M29.5,5v1.4h-1.8L30,9.6l2.3-3.2h-1.8V5c0-0.8-0.6-1.4-1.4-1.4H25v1h4.1C29.3,4.6,29.5,4.8,29.5,5z M30,8
			l-0.5-0.6h0.9L30,8z"/>
	</g>
</g>
</svg>
