<?xml version="1.0" encoding="utf-8"?>
<!-- Generator: Adobe Illustrator 24.0.2, SVG Export Plug-In . SVG Version: 6.00 Build 0)  -->
<svg version="1.1" id="Layer_1" xmlns="http://www.w3.org/2000/svg" xmlns:xlink="http://www.w3.org/1999/xlink" x="0px" y="0px"
	 viewBox="0 0 18 24" style="enable-background:new 0 0 18 24;" xml:space="preserve">
<style type="text/css">
	.st0{fill:#FC6A55;}
	.st1{fill:#EDEDED;}
	.st2{fill:none;stroke:#FC6A55;stroke-miterlimit:10;}
	.st3{stroke:#FFFFFF;stroke-width:0.25;stroke-miterlimit:10;}
	.st4{fill:#656D7A;}
	.st5{fill:#FFFFFF;}
	.st6{filter:url(#Adobe_OpacityMaskFilter);}
	.st7{fill-rule:evenodd;clip-rule:evenodd;fill:#FFFFFF;}
	.st8{mask:url(#mask-2_8_);fill-rule:evenodd;clip-rule:evenodd;}
	.st9{filter:url(#Adobe_OpacityMaskFilter_1_);}
	.st10{mask:url(#mask-2_7_);fill-rule:evenodd;clip-rule:evenodd;}
	.st11{filter:url(#Adobe_OpacityMaskFilter_2_);}
	.st12{mask:url(#mask-2_6_);fill-rule:evenodd;clip-rule:evenodd;}
	.st13{filter:url(#Adobe_OpacityMaskFilter_3_);}
	.st14{mask:url(#mask-2_5_);fill-rule:evenodd;clip-rule:evenodd;}
	.st15{filter:url(#Adobe_OpacityMaskFilter_4_);}
	.st16{mask:url(#mask-2_2_);fill:none;stroke:#000000;stroke-width:2;}
	.st17{fill:#434343;}
	.st18{fill:#434343;stroke:#F9F9F9;stroke-width:0.25;stroke-miterlimit:10;}
	.st19{fill:none;stroke:#FC6A55;stroke-width:0.5;stroke-miterlimit:10;}
	.st20{fill:none;stroke:#FC6A55;stroke-width:0.75;stroke-miterlimit:10;}
	.st21{fill:#FC6A55;stroke:#FC6A55;stroke-width:0.5;stroke-miterlimit:10;}
	.st22{opacity:0.153;fill:url(#Path_146_);enable-background:new    ;}
	.st23{opacity:0.1;fill:#590BB2;enable-background:new    ;}
	.st24{fill:#8E8CA8;}
	.st25{fill:#F5F4F9;}
	.st26{fill:#FFD5B8;}
	.st27{fill:#FC8473;}
	.st28{fill:#1C3475;}
	.st29{fill:#DDD9E4;}
	.st30{fill:#828FB3;}
	.st31{opacity:7.584635e-02;fill:url(#Path_147_);enable-background:new    ;}
	.st32{fill:#FFBE92;}
	.st33{fill:#FB8E7F;}
	.st34{fill:#FDB1A6;}
	.st35{fill:#FC806F;}
	.st36{fill:#FFE783;}
	.st37{fill:#104478;}
	.st38{fill:none;stroke:#FFFFFF;stroke-miterlimit:10;}
	.st39{fill:none;stroke:#000000;stroke-width:0.15;stroke-miterlimit:10;}
	.st40{opacity:0.1;fill:url(#Path_148_);enable-background:new    ;}
	.st41{opacity:0.1;fill:url(#Path_149_);enable-background:new    ;}
	.st42{fill-rule:evenodd;clip-rule:evenodd;fill:#FC6A55;}
	.st43{fill-rule:evenodd;clip-rule:evenodd;}
</style>
<g>
	<path class="st0" d="M17.7,3H0.3C0.1,3,0,3.1,0,3.3v12.8c0,0.1,0.1,0.3,0.3,0.3c0,0,0,0,0,0h7.6l-0.4,2.3c-1,0.2-1.8,1-1.8,2.1
		C5.7,20.9,5.8,21,6,21h6c0.1,0,0.3-0.1,0.3-0.3c0-1-0.7-1.9-1.8-2.1l-0.4-2.3h7.6c0.1,0,0.3-0.1,0.3-0.3c0,0,0,0,0,0V3.3
		C18,3.1,17.9,3,17.7,3z M4.8,13.3h8.5c0.1,0,0.3-0.1,0.3-0.3c0,0,0,0,0,0V4.4h3.1V14H1.4V4.4h3.1V13C4.5,13.2,4.6,13.3,4.8,13.3
		C4.8,13.3,4.8,13.3,4.8,13.3z M13,3.5v9.2H5V3.5H13z M11.7,20.5H6.3c0.1-0.7,0.8-1.3,1.5-1.3h2.4C11,19.2,11.6,19.7,11.7,20.5
		L11.7,20.5z M10,18.6H8l0.4-2.3h1.2L10,18.6z M17.5,15.8H0.5V3.5h4v0.4H1.2C1,3.9,0.9,4,0.9,4.2v10.1c0,0.1,0.1,0.3,0.3,0.3h15.6
		c0.1,0,0.3-0.1,0.3-0.3V4.2c0-0.1-0.1-0.3-0.3-0.3h-3.3V3.5h4V15.8z"/>
	<path class="st0" d="M15.9,7.5c0.1,0,0.3-0.1,0.3-0.3V6c0-0.1-0.1-0.3-0.3-0.3c-0.1,0-0.3,0.1-0.3,0.3v1.3
		C15.6,7.4,15.8,7.5,15.9,7.5z"/>
	<path class="st0" d="M11.2,11v-0.4c0.1,0,0.2,0.1,0.3,0.2l0.2-0.3c-0.1-0.1-0.3-0.2-0.5-0.2v-0.2h-0.2v0.2c-0.3,0-0.5,0.2-0.5,0.5
		c0,0.3,0.2,0.4,0.5,0.5v0.4c-0.1,0-0.3-0.1-0.4-0.2l-0.2,0.2c0.2,0.1,0.4,0.2,0.6,0.3v0.2h0.2V12c0.4,0,0.6-0.2,0.6-0.5
		C11.7,11.2,11.5,11.1,11.2,11L11.2,11z M10.9,10.9c-0.1,0-0.2-0.1-0.2-0.2c0-0.1,0.1-0.2,0.2-0.2V10.9z M11.2,11.7v-0.4
		c0.1,0,0.2,0.1,0.2,0.2C11.4,11.6,11.3,11.7,11.2,11.7z"/>
	<path class="st0" d="M10.5,7.3h1.1c0.1,0,0.3-0.1,0.3-0.3c0-0.1-0.1-0.3-0.3-0.3h-1.1c-0.1,0-0.3,0.1-0.3,0.3
		C10.2,7.1,10.4,7.3,10.5,7.3z"/>
	<path class="st0" d="M10.5,8.4h1.1c0.1,0,0.3-0.1,0.3-0.3s-0.1-0.3-0.3-0.3h-1.1c-0.1,0-0.3,0.1-0.3,0.3S10.4,8.4,10.5,8.4z"/>
	<path class="st0" d="M10.5,6.1h1.1c0.1,0,0.3-0.1,0.3-0.3s-0.1-0.3-0.3-0.3h-1.1c-0.1,0-0.3,0.1-0.3,0.3S10.4,6.1,10.5,6.1z"/>
	<path class="st0" d="M10.5,5h1.1c0.1,0,0.3-0.1,0.3-0.3c0-0.1-0.1-0.3-0.3-0.3h-1.1c-0.1,0-0.3,0.1-0.3,0.3C10.2,4.8,10.4,5,10.5,5
		z"/>
	<path class="st0" d="M6.4,9.6h5.1c0.1,0,0.3-0.1,0.3-0.3c0-0.1-0.1-0.3-0.3-0.3H6.4C6.3,9,6.2,9.2,6.2,9.3C6.2,9.5,6.3,9.6,6.4,9.6
		z"/>
	<path class="st0" d="M6.4,10.7h2.9c0.1,0,0.3-0.1,0.3-0.3c0-0.1-0.1-0.3-0.3-0.3H6.4c-0.1,0-0.3,0.1-0.3,0.3
		C6.2,10.6,6.3,10.7,6.4,10.7z"/>
	<path class="st0" d="M6.4,11.9h2.9c0.1,0,0.3-0.1,0.3-0.3c0-0.1-0.1-0.3-0.3-0.3H6.4c-0.1,0-0.3,0.1-0.3,0.3
		C6.2,11.8,6.3,11.9,6.4,11.9z"/>
	<path class="st0" d="M8,8c1,0,1.8-0.8,1.8-1.8S8.9,4.4,8,4.4S6.2,5.2,6.2,6.2C6.2,7.2,7,8,8,8z M8,5c0.7,0,1.3,0.6,1.3,1.3
		S8.7,7.5,8,7.5S6.7,6.9,6.7,6.2l0,0C6.7,5.5,7.3,5,8,5z"/>
	<path class="st0" d="M7.4,6.9C7.6,7,7.7,7,7.8,6.9l1-1c0.1-0.1,0.1-0.3,0-0.4c-0.1-0.1-0.3-0.1-0.4,0c0,0,0,0,0,0L7.6,6.3L7.5,6.2
		c-0.1-0.1-0.3-0.1-0.4,0S7,6.5,7.1,6.6L7.4,6.9z"/>
</g>
</svg>
