<?xml version="1.0" encoding="utf-8"?>
<!-- Generator: Adobe Illustrator 24.1.1, SVG Export Plug-In . SVG Version: 6.00 Build 0)  -->
<svg version="1.1" id="Layer_1" xmlns="http://www.w3.org/2000/svg" xmlns:xlink="http://www.w3.org/1999/xlink" x="0px" y="0px"
	 viewBox="0 0 18 24" style="enable-background:new 0 0 18 24;" xml:space="preserve">
<style type="text/css">
	.st0{fill:#FC6A55;}
	.st1{fill:#EDEDED;}
	.st2{fill:none;stroke:#FC6A55;stroke-miterlimit:10;}
	.st3{fill:#222F3F;}
	.st4{fill:#383838;}
	.st5{fill:#FFFFFF;}
	.st6{fill:#656D7A;}
	.st7{fill:#C4C4C4;}
	.st8{filter:url(#Adobe_OpacityMaskFilter);}
	.st9{fill-rule:evenodd;clip-rule:evenodd;fill:#FFFFFF;}
	.st10{mask:url(#mask-2_8_);fill-rule:evenodd;clip-rule:evenodd;}
	.st11{filter:url(#Adobe_OpacityMaskFilter_1_);}
	.st12{mask:url(#mask-2_7_);fill-rule:evenodd;clip-rule:evenodd;}
	.st13{filter:url(#Adobe_OpacityMaskFilter_2_);}
	.st14{mask:url(#mask-2_6_);fill-rule:evenodd;clip-rule:evenodd;}
	.st15{filter:url(#Adobe_OpacityMaskFilter_3_);}
	.st16{mask:url(#mask-2_5_);fill-rule:evenodd;clip-rule:evenodd;}
	.st17{filter:url(#Adobe_OpacityMaskFilter_4_);}
	.st18{mask:url(#mask-2_2_);fill:none;stroke:#000000;stroke-width:1.5;stroke-miterlimit:10;}
	.st19{fill:#B4A3EE;}
	.st20{fill:#434343;}
	.st21{fill:#434343;stroke:#F9F9F9;stroke-width:0.25;stroke-miterlimit:10;}
	.st22{fill:none;stroke:#FC6A55;stroke-width:0.5;stroke-miterlimit:10;}
	.st23{fill:none;stroke:#FC6A55;stroke-width:0.75;stroke-miterlimit:10;}
	.st24{fill:#FC6A55;stroke:#FC6A55;stroke-width:0.5;stroke-miterlimit:10;}
	.st25{opacity:0.153;fill:url(#Path_44_);enable-background:new    ;}
	.st26{opacity:0.1;fill:#590BB2;enable-background:new    ;}
	.st27{fill:#8E8CA8;}
	.st28{fill:#F5F4F9;}
	.st29{fill:#FFD5B8;}
	.st30{fill:#FC8473;}
	.st31{fill:#1C3475;}
	.st32{fill:#DDD9E4;}
	.st33{fill:#828FB3;}
	.st34{opacity:7.584635e-02;fill:url(#Path_45_);enable-background:new    ;}
	.st35{fill:#FFBE92;}
	.st36{fill:#FB8E7F;}
	.st37{fill:#FDB1A6;}
	.st38{fill:#FC806F;}
	.st39{fill:#FFE783;}
	.st40{fill:#104478;}
	.st41{fill:none;stroke:#FFFFFF;stroke-miterlimit:10;}
	.st42{fill:none;stroke:#000000;stroke-width:0.15;stroke-miterlimit:10;}
	.st43{opacity:0.1;fill:url(#Path_46_);enable-background:new    ;}
	.st44{opacity:0.1;fill:url(#Path_47_);enable-background:new    ;}
	.st45{fill-rule:evenodd;clip-rule:evenodd;fill:#FC6A55;}
	.st46{fill-rule:evenodd;clip-rule:evenodd;}
	.st47{fill:#FF6757;}
	.st48{fill:#666666;}
	.st49{fill:none;stroke:#FFFFFF;stroke-width:0.5;stroke-miterlimit:10;}
	.st50{fill:#F16A56;}
	.st51{fill:#515252;}
	.st52{fill:#F26A56;}
	.st53{fill:none;stroke:#F16A56;stroke-miterlimit:10;}
	.st54{fill:none;stroke:#929292;stroke-miterlimit:10;}
	.st55{fill:#929292;}
	.st56{fill:none;stroke:#000000;stroke-width:0.5;stroke-miterlimit:10;}
	.st57{fill:#A8A7A7;}
	.st58{fill:#F79F91;}
	.st59{fill:#9BDBD5;}
	.st60{fill:#222121;}
	.st61{stroke:#000000;stroke-width:0.25;stroke-miterlimit:10;}
</style>
<g>
	<g>
		<path d="M13.8,5.5V5.2c0-1-0.4-2-1.1-2.8c-0.1-0.1-0.2-0.1-0.3,0c-0.1,0.1-0.1,0.2,0,0.3c0.6,0.7,0.9,1.6,0.9,2.5v0.2h-0.3
			c0-0.2,0-0.4-0.1-0.6C12.8,4,12.5,3.4,12,3c-0.7-0.5-1.6-0.8-3-0.8S6.7,2.4,6,3C5.5,3.4,5.2,4,5,4.8C5,5,4.9,5.2,4.9,5.5H4.6V5.3
			c0-2.1,1.7-3.8,3.8-3.8h1.2c0.8,0,1.5,0.2,2.1,0.6c0.1,0.1,0.2,0,0.3-0.1s0-0.2-0.1-0.3c-0.7-0.5-1.5-0.7-2.3-0.7H8.4
			C6.1,1.1,4.2,3,4.2,5.3v0.1C3.7,5.6,3.3,6,3.3,6.5v1.9c0,0.6,0.5,1,1,1h0.1v0.3c0,0.3,0.2,0.5,0.5,0.5h0.2v3
			c-0.1,0.1-0.3,0.3-0.4,0.5c-0.1,0.1,0,0.2,0.1,0.3c0.1,0.1,0.2,0,0.3-0.1c0.5-0.7,1.2-1.2,2.1-1.2h0.1l0.8,0.9
			c0.1,0.1,0.3,0.1,0.4,0L9,13.1l0.4,0.6c0.1,0.2,0.3,0.2,0.4,0l0.8-0.9h0.1c1.4,0,2.5,1.1,2.5,2.5v0.4h-1v-0.5
			c0-0.2-0.2-0.3-0.3-0.3H10c-0.2,0-0.3,0.2-0.3,0.3v0.5H4.8v-0.4c0-0.2,0-0.3,0.1-0.5c0-0.1-0.1-0.2-0.2-0.3
			c-0.1,0-0.2,0.1-0.3,0.2c0,0.2-0.1,0.4-0.1,0.6v0.5c0,0.2,0.2,0.4,0.4,0.4h8.5c0.2,0,0.4-0.2,0.4-0.4v-0.5c0-0.8-0.3-1.5-0.8-2
			v-1.8c0-0.1-0.1-0.2-0.2-0.2c-0.1,0-0.2,0.1-0.2,0.2v1.4c-0.5-0.3-1.1-0.5-1.7-0.5h-0.1L10.1,12v-0.5c1-0.3,1.8-1.1,2.1-2.1
			c0,0,0.1,0.1,0.2,0.1v1.1c0,0.1,0.1,0.2,0.2,0.2s0.2-0.1,0.2-0.2V9.5h0.8c0.6,0,1-0.5,1-1V6.5C14.7,6,14.3,5.6,13.8,5.5L13.8,5.5z
			 M10.1,15.8v-0.4h1.7v0.4H10.1z M5.4,4.9C5.7,3.8,6.3,2.6,9,2.6s3.3,1.2,3.6,2.3c0,0.2,0.1,0.4,0.1,0.6h0c-0.3,0-0.6,0.3-0.6,0.6
			v1.4c0,0,0,0,0,0c0,0-0.1-0.1-0.2-0.3c-0.5-0.6-1.8-2.3-2.5-3.8C9.3,3.3,9.1,3.2,9,3.2c-0.1,0-0.3,0.1-0.3,0.2
			C8.1,4.9,6.8,6.6,6.2,7.2C6.1,7.4,6.1,7.5,6,7.5c0,0,0,0,0,0V6.1c0-0.3-0.3-0.6-0.6-0.6h0C5.4,5.3,5.4,5.1,5.4,4.9L5.4,4.9z
			 M5.6,9.4c0.1,0,0.1,0,0.2-0.1C5.8,9.5,5.9,9.7,6,9.8H5.6V9.4z M3.8,8.4V6.5c0-0.3,0.3-0.6,0.6-0.6h1c0.1,0,0.2,0.1,0.2,0.2v1.6
			c0,0,0,0,0,0v1.1C5.6,8.9,5.5,9,5.4,9h-1C4.1,9,3.8,8.7,3.8,8.4z M5,9.8C4.9,9.8,4.9,9.8,5,9.8L4.9,9.5h0.3v0.4H5z M6.3,10.3
			c0.4,0.5,1,0.9,1.6,1.2V12l-0.5,0.4H7.3c-0.6,0-1.2,0.2-1.7,0.5v-2.7H6.3z M8.3,13.3l-0.6-0.6l0.4-0.3l0.6,0.3L8.3,13.3z
			 M9.7,13.3l-0.4-0.6l0.6-0.3l0.4,0.3L9.7,13.3z M9.7,12L9,12.4L8.3,12v-0.4c0.2,0,0.4,0.1,0.7,0.1h0c0.2,0,0.4,0,0.7-0.1V12z
			 M9,11.2L9,11.2c-0.8,0-1.6-0.4-2.1-0.9h1v0c0,0.3,0.2,0.5,0.5,0.5h1.3c0.3,0,0.5-0.2,0.5-0.5V9.8c0-0.3-0.2-0.5-0.5-0.5H8.3
			c-0.3,0-0.5,0.2-0.5,0.5v0H6.5C6.2,9.4,6,8.8,6,8.2V8c0.2,0,0.3-0.1,0.4-0.2c0,0,0.1-0.1,0.2-0.2C7.1,6.9,8.3,5.3,9,3.8
			c0.7,1.5,1.9,3,2.4,3.7c0.1,0.1,0.2,0.2,0.2,0.2C11.6,7.8,11.7,8,12,8v0.3C12,9.9,10.6,11.2,9,11.2L9,11.2z M8.3,9.8
			C8.3,9.8,8.3,9.8,8.3,9.8l1.3,0c0,0,0,0,0,0v0.5c0,0,0,0,0,0H8.3c0,0,0,0,0,0C8.3,10.3,8.3,9.8,8.3,9.8z M14.2,8.4
			c0,0.3-0.3,0.6-0.6,0.6h-1c-0.1,0-0.2-0.1-0.2-0.2V7.7c0,0,0,0,0,0V6.1c0-0.1,0.1-0.2,0.2-0.2h1c0.3,0,0.6,0.3,0.6,0.6V8.4z"/>
	</g>
	<g>
		<path d="M17.5,17.7c-0.3-0.6-1-0.8-1.6-0.4c0,0,0,0,0,0L13.1,19c-0.2-0.2-0.4-0.4-0.7-0.5l-4.3-1.2c-0.3-0.1-0.7-0.1-1,0l-1.5,0.4
			v-0.5c0-0.2-0.1-0.3-0.3-0.3H2.9c-0.2,0-0.3,0.1-0.3,0.3v0.3h-2c-0.2,0-0.3,0.1-0.3,0.3V22c0,0.2,0.1,0.3,0.3,0.3h2v0.3
			c0,0.2,0.1,0.3,0.3,0.3h2.3c0.2,0,0.3-0.1,0.3-0.3v-0.4l0.4,0.2c0.3,0.1,0.6,0.2,0.9,0.2h4.3c0.4,0,0.7-0.1,1-0.3l4.9-2.9
			C17.6,19.1,17.8,18.3,17.5,17.7z M0.9,21.7v-3.6h1.7v3.6H0.9z M5,22.3H3.2v-4.8H5V22.3z M16.8,18.9l-4.9,2.9
			c-0.2,0.1-0.5,0.2-0.7,0.2H6.8c-0.2,0-0.4-0.1-0.6-0.2l-0.6-0.3v-3.2l1.7-0.4c0.2-0.1,0.5-0.1,0.7,0l4.3,1.2
			c0.3,0.1,0.5,0.4,0.4,0.7c-0.1,0.3-0.4,0.5-0.7,0.4c0,0,0,0,0,0l-3.5-1c-0.2,0-0.3,0.1-0.4,0.2c0,0.2,0.1,0.3,0.2,0.4l3.5,1
			c0.1,0,0.2,0,0.3,0c0.6,0,1.2-0.5,1.2-1.2c0,0,0-0.1,0-0.1l2.9-1.8c0.3-0.2,0.6-0.1,0.8,0.2C17.2,18.3,17.1,18.7,16.8,18.9z"/>
	</g>
</g>
</svg>
