<?xml version="1.0" encoding="utf-8"?>
<!-- Generator: Adobe Illustrator 24.1.1, SVG Export Plug-In . SVG Version: 6.00 Build 0)  -->
<svg version="1.1" id="Layer_1" xmlns="http://www.w3.org/2000/svg" xmlns:xlink="http://www.w3.org/1999/xlink" x="0px" y="0px"
	 viewBox="0 0 18 24" style="enable-background:new 0 0 18 24;" xml:space="preserve">
<style type="text/css">
	.st0{fill:#FC6A55;}
	.st1{fill:#EDEDED;}
	.st2{fill:none;stroke:#FC6A55;stroke-miterlimit:10;}
	.st3{fill:#222F3F;}
	.st4{fill:#383838;}
	.st5{fill:#FFFFFF;}
	.st6{fill:#656D7A;}
	.st7{fill:#C4C4C4;}
	.st8{filter:url(#Adobe_OpacityMaskFilter);}
	.st9{fill-rule:evenodd;clip-rule:evenodd;fill:#FFFFFF;}
	.st10{mask:url(#mask-2_8_);fill-rule:evenodd;clip-rule:evenodd;}
	.st11{filter:url(#Adobe_OpacityMaskFilter_1_);}
	.st12{mask:url(#mask-2_7_);fill-rule:evenodd;clip-rule:evenodd;}
	.st13{filter:url(#Adobe_OpacityMaskFilter_2_);}
	.st14{mask:url(#mask-2_6_);fill-rule:evenodd;clip-rule:evenodd;}
	.st15{filter:url(#Adobe_OpacityMaskFilter_3_);}
	.st16{mask:url(#mask-2_5_);fill-rule:evenodd;clip-rule:evenodd;}
	.st17{filter:url(#Adobe_OpacityMaskFilter_4_);}
	.st18{mask:url(#mask-2_2_);fill:none;stroke:#000000;stroke-width:1.5;stroke-miterlimit:10;}
	.st19{fill:#B4A3EE;}
	.st20{fill:#434343;}
	.st21{fill:#434343;stroke:#F9F9F9;stroke-width:0.25;stroke-miterlimit:10;}
	.st22{fill:none;stroke:#FC6A55;stroke-width:0.5;stroke-miterlimit:10;}
	.st23{fill:none;stroke:#FC6A55;stroke-width:0.75;stroke-miterlimit:10;}
	.st24{fill:#FC6A55;stroke:#FC6A55;stroke-width:0.5;stroke-miterlimit:10;}
	.st25{opacity:0.153;fill:url(#Path_44_);enable-background:new    ;}
	.st26{opacity:0.1;fill:#590BB2;enable-background:new    ;}
	.st27{fill:#8E8CA8;}
	.st28{fill:#F5F4F9;}
	.st29{fill:#FFD5B8;}
	.st30{fill:#FC8473;}
	.st31{fill:#1C3475;}
	.st32{fill:#DDD9E4;}
	.st33{fill:#828FB3;}
	.st34{opacity:7.584635e-02;fill:url(#Path_45_);enable-background:new    ;}
	.st35{fill:#FFBE92;}
	.st36{fill:#FB8E7F;}
	.st37{fill:#FDB1A6;}
	.st38{fill:#FC806F;}
	.st39{fill:#FFE783;}
	.st40{fill:#104478;}
	.st41{fill:none;stroke:#FFFFFF;stroke-miterlimit:10;}
	.st42{fill:none;stroke:#000000;stroke-width:0.15;stroke-miterlimit:10;}
	.st43{opacity:0.1;fill:url(#Path_46_);enable-background:new    ;}
	.st44{opacity:0.1;fill:url(#Path_47_);enable-background:new    ;}
	.st45{fill-rule:evenodd;clip-rule:evenodd;fill:#FC6A55;}
	.st46{fill-rule:evenodd;clip-rule:evenodd;}
	.st47{fill:#FF6757;}
	.st48{fill:#666666;}
	.st49{fill:none;stroke:#FFFFFF;stroke-width:0.5;stroke-miterlimit:10;}
	.st50{fill:#F16A56;}
	.st51{fill:#515252;}
	.st52{fill:#F26A56;}
	.st53{fill:none;stroke:#F16A56;stroke-miterlimit:10;}
	.st54{fill:none;stroke:#929292;stroke-miterlimit:10;}
	.st55{fill:#929292;}
	.st56{fill:none;stroke:#000000;stroke-width:0.5;stroke-miterlimit:10;}
	.st57{fill:#A8A7A7;}
	.st58{fill:#F79F91;}
	.st59{fill:#9BDBD5;}
	.st60{fill:#222121;}
	.st61{stroke:#000000;stroke-width:0.25;stroke-miterlimit:10;}
</style>
<g>
	<g>
		<path class="st0" d="M12.9,6.7V6.5c0-0.9-0.3-1.7-0.9-2.4c-0.1-0.1-0.2-0.1-0.3,0c-0.1,0.1-0.1,0.2,0,0.3c0.5,0.6,0.8,1.3,0.8,2.1
			v0.2h-0.3c0-0.2,0-0.4-0.1-0.5c-0.1-0.7-0.4-1.2-0.9-1.6C10.8,4.1,10,3.9,8.8,3.9s-2,0.2-2.6,0.7C5.8,4.9,5.5,5.4,5.4,6.1
			c0,0.2-0.1,0.4-0.1,0.5H5.1V6.6c0-1.8,1.5-3.2,3.2-3.2h1c0.6,0,1.3,0.2,1.8,0.6c0.1,0.1,0.2,0,0.3,0c0.1-0.1,0-0.2,0-0.3
			C10.8,3.2,10.1,3,9.4,3h-1c-2,0-3.6,1.6-3.6,3.6v0.1C4.3,6.8,4,7.1,4,7.6v1.6c0,0.5,0.4,0.9,0.9,0.9h0.1v0.3
			c0,0.2,0.2,0.4,0.4,0.4h0.2v2.6c-0.1,0.1-0.2,0.3-0.3,0.4c-0.1,0.1,0,0.2,0.1,0.3c0.1,0.1,0.2,0,0.3-0.1c0.4-0.6,1.1-1,1.8-1h0.1
			l0.7,0.8c0.1,0.1,0.3,0.1,0.4,0l0.3-0.5l0.3,0.5c0.1,0.1,0.3,0.2,0.4,0l0.7-0.8h0.1c1.2,0,2.1,1,2.1,2.1v0.4h-0.8v-0.5
			c0-0.2-0.1-0.3-0.3-0.3H9.7c-0.2,0-0.3,0.1-0.3,0.3v0.5H5.2v-0.4c0-0.1,0-0.3,0-0.4c0-0.1,0-0.2-0.1-0.2c-0.1,0-0.2,0-0.2,0.1
			c0,0.2-0.1,0.3-0.1,0.5v0.4c0,0.2,0.2,0.3,0.3,0.3h7.3c0.2,0,0.3-0.2,0.3-0.3v-0.4c0-0.7-0.3-1.3-0.7-1.7v-1.5
			c0-0.1-0.1-0.2-0.2-0.2s-0.2,0.1-0.2,0.2v1.2c-0.4-0.3-0.9-0.4-1.4-0.4h-0.1l-0.4-0.4v-0.5c0.8-0.3,1.5-1,1.8-1.8
			c0,0,0.1,0.1,0.1,0.1v1c0,0.1,0.1,0.2,0.2,0.2c0.1,0,0.2-0.1,0.2-0.2v-0.9h0.7c0.5,0,0.9-0.4,0.9-0.9V7.6
			C13.7,7.1,13.3,6.8,12.9,6.7L12.9,6.7z M9.8,15.5v-0.4h1.4v0.4H9.8z M5.8,6.2c0.2-1,0.7-2,3-2s2.9,1,3,2c0,0.2,0,0.3,0,0.5h0
			c-0.3,0-0.5,0.2-0.5,0.5v1.2c0,0,0,0,0,0c0,0-0.1-0.1-0.2-0.2c-0.4-0.5-1.6-2-2.1-3.3c0-0.1-0.1-0.2-0.3-0.2
			C8.7,4.8,8.6,4.8,8.6,5C8,6.2,6.9,7.7,6.5,8.2C6.4,8.3,6.3,8.4,6.3,8.4c0,0,0,0,0,0V7.2c0-0.3-0.2-0.5-0.5-0.5h0
			C5.7,6.5,5.7,6.4,5.8,6.2L5.8,6.2z M5.9,10.1c0,0,0.1,0,0.1-0.1c0.1,0.1,0.1,0.3,0.2,0.4H5.9V10.1z M4.4,9.2V7.6
			c0-0.3,0.2-0.5,0.5-0.5h0.9c0.1,0,0.2,0.1,0.2,0.2v1.4c0,0,0,0,0,0v1c0,0.1-0.1,0.2-0.2,0.2H4.9C4.6,9.7,4.4,9.5,4.4,9.2z
			 M5.4,10.4C5.3,10.4,5.3,10.4,5.4,10.4l-0.1-0.3h0.2v0.3H5.4z M6.5,10.8c0.3,0.5,0.8,0.8,1.4,1v0.5l-0.4,0.4H7.4
			c-0.5,0-1,0.2-1.4,0.4v-2.3H6.5z M8.3,13.4l-0.5-0.5l0.3-0.3l0.5,0.3L8.3,13.4z M9.4,13.4l-0.3-0.5l0.5-0.3l0.3,0.3L9.4,13.4z
			 M9.4,12.3l-0.6,0.3l-0.6-0.3v-0.3C8.4,12,8.6,12,8.8,12h0c0.2,0,0.4,0,0.6-0.1V12.3z M8.8,11.6L8.8,11.6c-0.7,0-1.4-0.3-1.8-0.8
			h0.9v0c0,0.2,0.2,0.4,0.4,0.4h1.1c0.2,0,0.4-0.2,0.4-0.4v-0.4c0-0.2-0.2-0.4-0.4-0.4H8.3c-0.2,0-0.4,0.2-0.4,0.4v0H6.7
			C6.4,10,6.3,9.6,6.3,9.1V8.8c0.2,0,0.3-0.1,0.3-0.2c0,0,0.1-0.1,0.2-0.2c0.4-0.5,1.5-1.9,2.1-3.1c0.6,1.2,1.6,2.6,2.1,3.1
			C11,8.5,11,8.6,11,8.6c0,0.1,0.1,0.2,0.3,0.2v0.2C11.4,10.5,10.2,11.6,8.8,11.6L8.8,11.6z M8.3,10.4C8.3,10.4,8.3,10.4,8.3,10.4
			l1.1,0c0,0,0,0,0,0v0.4c0,0,0,0,0,0H8.3c0,0,0,0,0,0C8.3,10.8,8.3,10.4,8.3,10.4z M13.3,9.2c0,0.3-0.2,0.5-0.5,0.5h-0.9
			c-0.1,0-0.2-0.1-0.2-0.2v-1c0,0,0,0,0,0V7.2c0-0.1,0.1-0.2,0.2-0.2h0.9c0.3,0,0.5,0.2,0.5,0.5V9.2z"/>
	</g>
	<path class="st0" d="M17.8,5.1L9.1,0.5C9,0.4,8.8,0.4,8.7,0.5L0.2,5.1C0.1,5.2,0,5.3,0,5.5v6c0,5,3,9.5,7.5,11.5l1.2,0.5
		c0.1,0,0.2,0,0.3,0l1.3-0.6C15,21,18,16.5,18,11.4V5.5C18,5.3,17.9,5.2,17.8,5.1z M17.5,11.4c0,4.9-2.9,9.3-7.5,11.2l0,0l-1.2,0.5
		l-1-0.5c-4.4-1.9-7.3-6.3-7.3-11.1V5.5l8.4-4.6l8.6,4.6V11.4z"/>
	<path class="st0" d="M6.4,17.7l-0.9,0.5l1.8,3.2l7.4-5.1L14,15.4l-6.4,4.4L6.4,17.7z"/>
</g>
</svg>
