<svg id="2273c76e-3ac2-47ee-975f-c4a79ebea16a" data-name="Layer 1" xmlns="http://www.w3.org/2000/svg" viewBox="0 0 180 44.63"><defs><style>.c1e2c85b-1eb1-4d58-ac41-dbe291263274{fill:#12143d;}.\38 22e2ff6-ec84-4c76-8aac-95195a6a4761{fill:#535454;}.\34 828db03-cf63-42a5-ac85-50d0dd58e90f{fill:#e32e2d;}</style></defs><title>Untitled-3</title><path class="c1e2c85b-1eb1-4d58-ac41-dbe291263274" d="M177.28,26.15a2.79,2.79,0,0,1,1.34.35,2.5,2.5,0,0,1,1,1,2.73,2.73,0,0,1,0,2.71,2.52,2.52,0,0,1-1,1,2.73,2.73,0,0,1-2.7,0,2.54,2.54,0,0,1-1-1,2.72,2.72,0,0,1,0-2.71,2.51,2.51,0,0,1,1-1A2.79,2.79,0,0,1,177.28,26.15Zm0,.45a2.31,2.31,0,0,0-1.11.29,2.11,2.11,0,0,0-.85.84,2.26,2.26,0,0,0,0,2.26,2.13,2.13,0,0,0,.84.84,2.26,2.26,0,0,0,2.25,0,2.12,2.12,0,0,0,.84-.84,2.27,2.27,0,0,0,0-2.26,2.09,2.09,0,0,0-.85-.84A2.32,2.32,0,0,0,177.28,26.6Zm-1.19,3.77V27.44h1a2.46,2.46,0,0,1,.75.08.72.72,0,0,1,.37.28.75.75,0,0,1,.14.43.78.78,0,0,1-.23.56.9.9,0,0,1-.61.27.8.8,0,0,1,.25.15,3.33,3.33,0,0,1,.43.58l.36.57H178l-.26-.46a2.37,2.37,0,0,0-.49-.68.61.61,0,0,0-.38-.1h-.28v1.24Zm.47-1.65h.57a.92.92,0,0,0,.56-.12.4.4,0,0,0,.15-.32.39.39,0,0,0-.07-.23.43.43,0,0,0-.2-.15,1.48,1.48,0,0,0-.47-.05h-.54Z"/><path class="822e2ff6-ec84-4c76-8aac-95195a6a4761" d="M58.67,39.72l.13-.66h2.47l-.48,2.36a4.4,4.4,0,0,1-1.06.49,3.87,3.87,0,0,1-1.17.19,2.21,2.21,0,0,1-1.84-.76,2.58,2.58,0,0,1-.51-1.65,4,4,0,0,1,.45-1.9,3.09,3.09,0,0,1,1.13-1.26,2.89,2.89,0,0,1,1.52-.41,2.51,2.51,0,0,1,1.08.22,1.76,1.76,0,0,1,.73.6,2.55,2.55,0,0,1,.37,1l-.74.08a1.55,1.55,0,0,0-.49-.91,1.43,1.43,0,0,0-1-.32,2.06,2.06,0,0,0-1.14.34,2.35,2.35,0,0,0-.85,1A3.7,3.7,0,0,0,57,39.7,1.86,1.86,0,0,0,57.4,41a1.51,1.51,0,0,0,1.16.45,3.15,3.15,0,0,0,1.58-.5l.25-1.24Z"/><path class="822e2ff6-ec84-4c76-8aac-95195a6a4761" d="M62.17,42l1.18-5.79H64L62.87,42Z"/><path class="822e2ff6-ec84-4c76-8aac-95195a6a4761" d="M64.49,40.41a3,3,0,0,1,.7-2,1.93,1.93,0,0,1,1.52-.66,1.57,1.57,0,0,1,1.19.47,1.78,1.78,0,0,1,.45,1.28,3.19,3.19,0,0,1-.28,1.34,2.15,2.15,0,0,1-.81,1,2,2,0,0,1-1.1.33,1.8,1.8,0,0,1-.87-.21,1.42,1.42,0,0,1-.6-.59A1.84,1.84,0,0,1,64.49,40.41Zm.7-.07a1.3,1.3,0,0,0,.28.9.91.91,0,0,0,.7.31,1.13,1.13,0,0,0,.44-.09,1.28,1.28,0,0,0,.41-.28,1.89,1.89,0,0,0,.32-.43,2.89,2.89,0,0,0,.33-1.27,1.28,1.28,0,0,0-.28-.88.9.9,0,0,0-.7-.31,1.15,1.15,0,0,0-.6.16,1.62,1.62,0,0,0-.49.47,2.12,2.12,0,0,0-.32.72A3.05,3.05,0,0,0,65.19,40.34Z"/><path class="822e2ff6-ec84-4c76-8aac-95195a6a4761" d="M69.14,42l1.18-5.79H71l-.42,2.07a2.47,2.47,0,0,1,.6-.44,1.28,1.28,0,0,1,.56-.13,1.22,1.22,0,0,1,1,.44,1.89,1.89,0,0,1,.38,1.28,3.21,3.21,0,0,1-.15,1,2.86,2.86,0,0,1-.38.78,2.42,2.42,0,0,1-.47.5,1.85,1.85,0,0,1-.5.28,1.43,1.43,0,0,1-.49.09,1.2,1.2,0,0,1-.71-.22,1.42,1.42,0,0,1-.48-.67l-.16.79Zm1-1.72v.13a1.19,1.19,0,0,0,.25.82.8.8,0,0,0,.62.28,1,1,0,0,0,.67-.26,1.88,1.88,0,0,0,.5-.82,3.12,3.12,0,0,0,.2-1,1.23,1.23,0,0,0-.25-.82.77.77,0,0,0-.61-.29,1,1,0,0,0-.69.3,2.25,2.25,0,0,0-.53.92A2.49,2.49,0,0,0,70.17,40.28Z"/><path class="822e2ff6-ec84-4c76-8aac-95195a6a4761" d="M76.66,41.48a2.74,2.74,0,0,1-.7.47,1.75,1.75,0,0,1-.71.15,1.24,1.24,0,0,1-.91-.34,1.17,1.17,0,0,1-.35-.87,1.23,1.23,0,0,1,.16-.62,1.24,1.24,0,0,1,.41-.43,1.78,1.78,0,0,1,.63-.23,6.75,6.75,0,0,1,.89-.08,3.08,3.08,0,0,0,.94-.14,1.9,1.9,0,0,0,.08-.49.47.47,0,0,0-.18-.39,1.1,1.1,0,0,0-.71-.2,1.2,1.2,0,0,0-.72.2,1.12,1.12,0,0,0-.41.57l-.7-.06a1.88,1.88,0,0,1,.68-1,2,2,0,0,1,1.18-.33,1.81,1.81,0,0,1,1.2.37.89.89,0,0,1,.34.72,3.73,3.73,0,0,1-.1.78l-.23,1a4,4,0,0,0-.11.81,2.79,2.79,0,0,0,.08.57h-.7A2.7,2.7,0,0,1,76.66,41.48Zm.26-1.6a1.71,1.71,0,0,1-.31.09L76,40a4.13,4.13,0,0,0-.86.14.7.7,0,0,0-.5.68.66.66,0,0,0,.2.49.8.8,0,0,0,.57.19,1.29,1.29,0,0,0,.66-.19,1.35,1.35,0,0,0,.5-.52A3.11,3.11,0,0,0,76.92,39.88Z"/><path class="822e2ff6-ec84-4c76-8aac-95195a6a4761" d="M78.63,42l1.18-5.79h.7L79.32,42Z"/><path class="822e2ff6-ec84-4c76-8aac-95195a6a4761" d="M83.86,39.58a3.58,3.58,0,0,1,.87-2.51,2.75,2.75,0,0,1,2.11-1,2.25,2.25,0,0,1,1.72.7,2.65,2.65,0,0,1,.66,1.89,3.68,3.68,0,0,1-.33,1.57,3.35,3.35,0,0,1-.63.93,2.94,2.94,0,0,1-.81.61,2.73,2.73,0,0,1-1.22.28A2.35,2.35,0,0,1,85,41.77a2.12,2.12,0,0,1-.84-.93A2.87,2.87,0,0,1,83.86,39.58Zm.74,0a2.12,2.12,0,0,0,.21.94,1.53,1.53,0,0,0,.61.67,1.65,1.65,0,0,0,.86.24,1.72,1.72,0,0,0,.83-.21,2.34,2.34,0,0,0,.7-.59,2.81,2.81,0,0,0,.49-.93,3.5,3.5,0,0,0,.18-1.08A2,2,0,0,0,88,37.27a1.52,1.52,0,0,0-1.16-.51,2,2,0,0,0-1.56.78A3.06,3.06,0,0,0,84.6,39.62Z"/><path class="822e2ff6-ec84-4c76-8aac-95195a6a4761" d="M92.71,41.25a2,2,0,0,1-1.5.85,1.06,1.06,0,0,1-.76-.28.91.91,0,0,1-.29-.68,5.36,5.36,0,0,1,.13-.91l.49-2.42h.7l-.55,2.68a2.79,2.79,0,0,0-.07.52.48.48,0,0,0,.14.37.58.58,0,0,0,.41.13,1.22,1.22,0,0,0,.57-.15,1.53,1.53,0,0,0,.48-.39,2.06,2.06,0,0,0,.33-.59,5.3,5.3,0,0,0,.2-.76l.37-1.81H94L93.19,42h-.64Z"/><path class="822e2ff6-ec84-4c76-8aac-95195a6a4761" d="M96.31,41.42,96.2,42a1.85,1.85,0,0,1-.48.07,1,1,0,0,1-.66-.21.54.54,0,0,1-.18-.43,4.42,4.42,0,0,1,.1-.64l.5-2.44h-.55l.11-.55h.55l.21-1,.8-.49-.31,1.52H97l-.12.55h-.68l-.47,2.32a4.33,4.33,0,0,0-.09.53.25.25,0,0,0,.07.19.33.33,0,0,0,.23.07A1.64,1.64,0,0,0,96.31,41.42Z"/><path class="822e2ff6-ec84-4c76-8aac-95195a6a4761" d="M97.33,40.57l.7,0a1.35,1.35,0,0,0,.09.53.74.74,0,0,0,.34.35,1.17,1.17,0,0,0,.58.14,1.07,1.07,0,0,0,.69-.19.56.56,0,0,0,.23-.45.54.54,0,0,0-.14-.35,2.2,2.2,0,0,0-.69-.41,6.68,6.68,0,0,1-.71-.34,1.15,1.15,0,0,1-.39-.38,1,1,0,0,1-.13-.5,1.12,1.12,0,0,1,.38-.85,1.53,1.53,0,0,1,1.08-.36,1.69,1.69,0,0,1,1.17.37,1.29,1.29,0,0,1,.42,1l-.68,0a.81.81,0,0,0-.26-.6,1,1,0,0,0-.7-.22.84.84,0,0,0-.56.17.48.48,0,0,0-.2.37.45.45,0,0,0,.17.35,2.86,2.86,0,0,0,.6.32,4,4,0,0,1,1,.56,1.08,1.08,0,0,1,.33.8,1.15,1.15,0,0,1-.19.61,1.3,1.3,0,0,1-.57.48,2.09,2.09,0,0,1-.9.18,2,2,0,0,1-1.2-.36A1.29,1.29,0,0,1,97.33,40.57Z"/><path class="822e2ff6-ec84-4c76-8aac-95195a6a4761" d="M101.72,40.41a3,3,0,0,1,.7-2,1.93,1.93,0,0,1,1.52-.66,1.57,1.57,0,0,1,1.19.47,1.78,1.78,0,0,1,.45,1.28,3.2,3.2,0,0,1-.28,1.34,2.15,2.15,0,0,1-.81,1,2,2,0,0,1-1.11.33,1.8,1.8,0,0,1-.87-.21,1.42,1.42,0,0,1-.6-.59A1.84,1.84,0,0,1,101.72,40.41Zm.7-.07a1.3,1.3,0,0,0,.28.9.91.91,0,0,0,.7.31,1.13,1.13,0,0,0,.44-.09,1.29,1.29,0,0,0,.41-.28,1.92,1.92,0,0,0,.32-.43,2.9,2.9,0,0,0,.33-1.27,1.28,1.28,0,0,0-.28-.88.9.9,0,0,0-.7-.31,1.14,1.14,0,0,0-.59.16,1.6,1.6,0,0,0-.49.47,2.11,2.11,0,0,0-.32.72A3.08,3.08,0,0,0,102.42,40.34Z"/><path class="822e2ff6-ec84-4c76-8aac-95195a6a4761" d="M109.16,41.25a2,2,0,0,1-1.5.85,1.05,1.05,0,0,1-.76-.28.91.91,0,0,1-.29-.68,5.26,5.26,0,0,1,.13-.91l.49-2.42h.7l-.55,2.68a2.71,2.71,0,0,0-.07.52.48.48,0,0,0,.14.37.58.58,0,0,0,.41.13,1.21,1.21,0,0,0,.57-.15,1.53,1.53,0,0,0,.48-.39,2.06,2.06,0,0,0,.33-.59,5.26,5.26,0,0,0,.2-.76l.37-1.81h.7L109.64,42H109Z"/><path class="822e2ff6-ec84-4c76-8aac-95195a6a4761" d="M111.14,42l.85-4.19h.62l-.17.86a2.88,2.88,0,0,1,.62-.72,1,1,0,0,1,.62-.23,1.19,1.19,0,0,1,.51.15l-.28.66a.65.65,0,0,0-.4-.13,1.07,1.07,0,0,0-.75.42,3.22,3.22,0,0,0-.6,1.5L111.8,42Z"/><path class="822e2ff6-ec84-4c76-8aac-95195a6a4761" d="M117,40.47l.7.08a2.4,2.4,0,0,1-.74,1.17,1.72,1.72,0,0,1-1.1.38,1.41,1.41,0,0,1-1.08-.44,1.74,1.74,0,0,1-.41-1.24,3.61,3.61,0,0,1,.26-1.35,2.17,2.17,0,0,1,.76-1,1.92,1.92,0,0,1,1.13-.35,1.42,1.42,0,0,1,1,.38,1.36,1.36,0,0,1,.38,1l-.68,0a.87.87,0,0,0-.22-.62.78.78,0,0,0-.58-.22,1.06,1.06,0,0,0-.73.27,1.8,1.8,0,0,0-.48.83,3.52,3.52,0,0,0-.17,1.07,1.21,1.21,0,0,0,.23.81.72.72,0,0,0,.57.27,1,1,0,0,0,.65-.26A1.74,1.74,0,0,0,117,40.47Z"/><path class="822e2ff6-ec84-4c76-8aac-95195a6a4761" d="M118.46,42l.85-4.19h.7L119.15,42Zm1-5,.17-.81h.69l-.17.81Z"/><path class="822e2ff6-ec84-4c76-8aac-95195a6a4761" d="M120.63,42l.85-4.19h.63l-.15.73a3.36,3.36,0,0,1,.77-.63,1.5,1.5,0,0,1,.73-.2,1.07,1.07,0,0,1,.78.28,1,1,0,0,1,.28.74,4.23,4.23,0,0,1-.1.73L123.9,42h-.7l.54-2.66a3.15,3.15,0,0,0,.08-.57.44.44,0,0,0-.14-.34.57.57,0,0,0-.41-.13,1.34,1.34,0,0,0-1,.39,2.55,2.55,0,0,0-.61,1.35l-.4,2Z"/><path class="822e2ff6-ec84-4c76-8aac-95195a6a4761" d="M125.36,42.38l.7.07a.76.76,0,0,0,.06.37.44.44,0,0,0,.21.19,1.18,1.18,0,0,0,.49.09,1.11,1.11,0,0,0,.91-.34,2.58,2.58,0,0,0,.33-1l.07-.34A1.6,1.6,0,0,1,127,42a1.33,1.33,0,0,1-1-.47,1.93,1.93,0,0,1-.42-1.33,2.64,2.64,0,0,1,.33-1.3,2.5,2.5,0,0,1,.78-.89,1.66,1.66,0,0,1,.93-.3,1.35,1.35,0,0,1,1.24.78l.14-.69h.64l-.82,4a3.46,3.46,0,0,1-.35,1,1.51,1.51,0,0,1-.61.58,1.91,1.91,0,0,1-.9.21,2.46,2.46,0,0,1-.85-.13,1.07,1.07,0,0,1-.53-.38,1,1,0,0,1-.17-.58A1.3,1.3,0,0,1,125.36,42.38Zm.87-2.23a2,2,0,0,0,.08.65,1,1,0,0,0,.33.46.77.77,0,0,0,.47.16,1.15,1.15,0,0,0,.68-.25,1.7,1.7,0,0,0,.55-.76,2.63,2.63,0,0,0,.21-1,1.18,1.18,0,0,0-.28-.82.89.89,0,0,0-.69-.31,1,1,0,0,0-.49.14,1.48,1.48,0,0,0-.44.43,2.05,2.05,0,0,0-.31.68A2.6,2.6,0,0,0,126.23,40.15Z"/><path class="822e2ff6-ec84-4c76-8aac-95195a6a4761" d="M133,40.13l.74-.07v.2a1.28,1.28,0,0,0,.15.61,1,1,0,0,0,.5.43,2,2,0,0,0,.82.15,1.55,1.55,0,0,0,1-.3.9.9,0,0,0,.36-.7.75.75,0,0,0-.19-.5,3.53,3.53,0,0,0-1-.6,7.48,7.48,0,0,1-.91-.45,1.83,1.83,0,0,1-.56-.56,1.32,1.32,0,0,1-.18-.69,1.42,1.42,0,0,1,.24-.81,1.49,1.49,0,0,1,.7-.55,2.68,2.68,0,0,1,1-.19,2.58,2.58,0,0,1,1.16.24,1.53,1.53,0,0,1,.69.63,1.6,1.6,0,0,1,.21.75s0,.06,0,.12l-.73.06a1.36,1.36,0,0,0,0-.38,1,1,0,0,0-.24-.41,1.15,1.15,0,0,0-.44-.27,1.86,1.86,0,0,0-.63-.1,1.46,1.46,0,0,0-1,.28.71.71,0,0,0-.26.58.68.68,0,0,0,.11.38,1.11,1.11,0,0,0,.39.33q.2.11.95.45a6.22,6.22,0,0,1,.84.43,1.49,1.49,0,0,1,.47.51,1.37,1.37,0,0,1,.17.68,1.48,1.48,0,0,1-.28.87,1.8,1.8,0,0,1-.77.61,2.77,2.77,0,0,1-1.13.22,2.64,2.64,0,0,1-1.56-.43A1.77,1.77,0,0,1,133,40.13Z"/><path class="822e2ff6-ec84-4c76-8aac-95195a6a4761" d="M141.39,40.58l.68.07a2.11,2.11,0,0,1-.67,1,1.82,1.82,0,0,1-1.25.47,1.65,1.65,0,0,1-.83-.21,1.4,1.4,0,0,1-.58-.63,2.13,2.13,0,0,1-.2-.94,3.06,3.06,0,0,1,.31-1.33,2.25,2.25,0,0,1,.8-1,1.94,1.94,0,0,1,1.06-.31,1.52,1.52,0,0,1,1.17.47,1.78,1.78,0,0,1,.44,1.27,3.82,3.82,0,0,1-.05.63h-3a1.9,1.9,0,0,0,0,.22,1.35,1.35,0,0,0,.26.9.81.81,0,0,0,.64.31,1.22,1.22,0,0,0,.7-.24A1.56,1.56,0,0,0,141.39,40.58Zm-2-1h2.29q0-.11,0-.16a1.18,1.18,0,0,0-.26-.82.87.87,0,0,0-.67-.29,1.21,1.21,0,0,0-.81.32A1.9,1.9,0,0,0,139.37,39.54Z"/><path class="822e2ff6-ec84-4c76-8aac-95195a6a4761" d="M143.16,42l.85-4.19h.62l-.17.86a2.88,2.88,0,0,1,.62-.72,1,1,0,0,1,.62-.23,1.19,1.19,0,0,1,.51.15l-.28.66a.65.65,0,0,0-.4-.13,1.07,1.07,0,0,0-.75.42,3.22,3.22,0,0,0-.6,1.5L143.82,42Z"/><path class="822e2ff6-ec84-4c76-8aac-95195a6a4761" d="M147.2,42l-.67-4.19h.68l.35,2.31q.06.38.14,1.24.2-.45.51-1l1.36-2.52h.73L148,42Z"/><path class="822e2ff6-ec84-4c76-8aac-95195a6a4761" d="M150.48,42l.85-4.19h.7L151.17,42Zm1-5,.17-.81h.69l-.17.81Z"/><path class="822e2ff6-ec84-4c76-8aac-95195a6a4761" d="M155.46,40.47l.7.08a2.4,2.4,0,0,1-.74,1.17,1.72,1.72,0,0,1-1.1.38,1.41,1.41,0,0,1-1.08-.44,1.74,1.74,0,0,1-.41-1.24,3.61,3.61,0,0,1,.26-1.35,2.17,2.17,0,0,1,.76-1,1.92,1.92,0,0,1,1.13-.35,1.42,1.42,0,0,1,1,.38,1.36,1.36,0,0,1,.38,1l-.68,0a.87.87,0,0,0-.22-.62.78.78,0,0,0-.58-.22,1.06,1.06,0,0,0-.73.27,1.8,1.8,0,0,0-.48.83,3.52,3.52,0,0,0-.17,1.07,1.21,1.21,0,0,0,.23.81.72.72,0,0,0,.57.27,1,1,0,0,0,.65-.26A1.74,1.74,0,0,0,155.46,40.47Z"/><path class="822e2ff6-ec84-4c76-8aac-95195a6a4761" d="M160,40.58l.68.07a2.11,2.11,0,0,1-.67,1,1.82,1.82,0,0,1-1.25.47,1.65,1.65,0,0,1-.83-.21,1.4,1.4,0,0,1-.58-.63,2.13,2.13,0,0,1-.2-.94,3.06,3.06,0,0,1,.31-1.33,2.25,2.25,0,0,1,.8-1,1.94,1.94,0,0,1,1.06-.31,1.52,1.52,0,0,1,1.17.47,1.78,1.78,0,0,1,.44,1.27,3.82,3.82,0,0,1-.05.63h-3a1.9,1.9,0,0,0,0,.22,1.35,1.35,0,0,0,.26.9.81.81,0,0,0,.64.31,1.22,1.22,0,0,0,.7-.24A1.56,1.56,0,0,0,160,40.58Zm-2-1h2.29q0-.11,0-.16a1.18,1.18,0,0,0-.26-.82.87.87,0,0,0-.67-.29,1.21,1.21,0,0,0-.81.32A1.9,1.9,0,0,0,158,39.54Z"/><path class="822e2ff6-ec84-4c76-8aac-95195a6a4761" d="M161.81,40.57l.7,0a1.35,1.35,0,0,0,.09.53.74.74,0,0,0,.34.35,1.17,1.17,0,0,0,.58.14,1.07,1.07,0,0,0,.69-.19.56.56,0,0,0,.23-.45.54.54,0,0,0-.14-.35,2.2,2.2,0,0,0-.69-.41,6.68,6.68,0,0,1-.71-.34,1.15,1.15,0,0,1-.39-.38,1,1,0,0,1-.13-.5,1.12,1.12,0,0,1,.38-.85,1.53,1.53,0,0,1,1.08-.36,1.69,1.69,0,0,1,1.17.37,1.29,1.29,0,0,1,.42,1l-.68,0a.81.81,0,0,0-.26-.6,1,1,0,0,0-.7-.22.84.84,0,0,0-.56.17.48.48,0,0,0-.2.37.45.45,0,0,0,.17.35,2.86,2.86,0,0,0,.6.32,4,4,0,0,1,1,.56,1.08,1.08,0,0,1,.33.8,1.15,1.15,0,0,1-.19.61,1.3,1.3,0,0,1-.57.48,2.09,2.09,0,0,1-.9.18,2,2,0,0,1-1.2-.36A1.29,1.29,0,0,1,161.81,40.57Z"/><path class="c1e2c85b-1eb1-4d58-ac41-dbe291263274" d="M9.91,31.66,10,6.23l6.41,0v4.22S20.3,4.34,29,6.87a7,7,0,0,1,4.76,6.37l0,18.37-6.9,0,0-15.85a4.3,4.3,0,0,0-4.89-4.52A5.89,5.89,0,0,0,17,17.51c0,5.48,0,14.15,0,14.15Z"/><polygon class="c1e2c85b-1eb1-4d58-ac41-dbe291263274" points="34.23 6.15 47.95 39.67 59.47 11.49 82.78 11.49 82.78 6.09 54.9 6.09 47.89 23.53 40.94 6.17 34.23 6.15"/><polygon class="4828db03-cf63-42a5-ac85-50d0dd58e90f" points="62.84 16.56 60.93 21.21 82.79 21.21 82.79 16.55 62.84 16.56"/><path class="c1e2c85b-1eb1-4d58-ac41-dbe291263274" d="M58.82,26.23H87.56V6.09H94v4S100,3.81,107.1,7c1.17.52,4.23,2.84,4.25,6,0,1.48,0,3.39,0,3.39l0,15.15-6.74,0s-.06-14.71-.06-15,0-7-6.39-5.1a5.5,5.5,0,0,0-3.66,5V31.59H56.62Z"/><path class="c1e2c85b-1eb1-4d58-ac41-dbe291263274" d="M136.76,12.21S136.29,5.61,125,5.63c-4,0-10.77,1.59-10.77,7.63,0,2.23.74,4.9,5,6.52,0,0,5.6,1.5,8.92,2.27,0,0,2.61.56,2.49,2.43,0,0-.15,2.17-4.37,2.34,0,0-5.49.7-6.31-3.77l-5.49.81s.75,8,11.79,8c3.2,0,11.25-1.27,11.28-8.61a5.79,5.79,0,0,0-3.43-5.62c-1.68-.85-4.7-1.22-8.75-2.22,0,0-4.68-.91-4.75-2.73,0-1.05,1.45-2.09,4.55-2.19,2.17-.08,4.86.83,5.12,2.93Z"/><path class="c1e2c85b-1eb1-4d58-ac41-dbe291263274" d="M173.7,12.22s-.47-6.6-11.72-6.58c-4,0-10.78,1.6-10.78,7.64,0,2.23.79,4.78,5.1,6.4,0,0,5.55,1.62,8.87,2.39,0,0,2.61.55,2.49,2.43,0,0-.15,2.17-4.37,2.34,0,0-5.05.32-5.77-3.85l-6,.88s.74,8.05,11.8,8c3.19,0,11.24-1.28,11.28-8.61a5.81,5.81,0,0,0-3.43-5.62c-1.68-.86-4.7-1.22-8.75-2.22,0,0-4.68-.91-4.75-2.73,0-1.06,1.45-2.09,4.55-2.2,2.17-.08,4.86.83,5.12,2.94Z"/><rect class="c1e2c85b-1eb1-4d58-ac41-dbe291263274" x="141.13" y="5.96" width="7.04" height="25.66"/><rect class="c1e2c85b-1eb1-4d58-ac41-dbe291263274" width="7.04" height="31.66"/></svg>