<?xml version="1.0" encoding="utf-8"?>
<!-- Generator: Adobe Illustrator 24.1.1, SVG Export Plug-In . SVG Version: 6.00 Build 0)  -->
<svg version="1.1" id="Layer_1" xmlns="http://www.w3.org/2000/svg" xmlns:xlink="http://www.w3.org/1999/xlink" x="0px" y="0px"
	 viewBox="0 0 82 59" style="enable-background:new 0 0 82 59;" xml:space="preserve">
<style type="text/css">
	.st0{fill:#FC6A55;}
	.st1{fill:#EDEDED;}
	.st2{fill:none;stroke:#FC6A55;stroke-miterlimit:10;}
	.st3{fill:#222F3F;}
	.st4{fill:#383838;}
	.st5{fill:#FFFFFF;}
	.st6{fill:#656D7A;}
	.st7{fill:#C4C4C4;}
	.st8{filter:url(#Adobe_OpacityMaskFilter);}
	.st9{fill-rule:evenodd;clip-rule:evenodd;fill:#FFFFFF;}
	.st10{mask:url(#mask-2_8_);fill-rule:evenodd;clip-rule:evenodd;}
	.st11{filter:url(#Adobe_OpacityMaskFilter_1_);}
	.st12{mask:url(#mask-2_7_);fill-rule:evenodd;clip-rule:evenodd;}
	.st13{filter:url(#Adobe_OpacityMaskFilter_2_);}
	.st14{mask:url(#mask-2_6_);fill-rule:evenodd;clip-rule:evenodd;}
	.st15{filter:url(#Adobe_OpacityMaskFilter_3_);}
	.st16{mask:url(#mask-2_5_);fill-rule:evenodd;clip-rule:evenodd;}
	.st17{filter:url(#Adobe_OpacityMaskFilter_4_);}
	.st18{mask:url(#mask-2_2_);fill:none;stroke:#000000;stroke-width:1.5;stroke-miterlimit:10;}
	.st19{fill:#B4A3EE;}
	.st20{fill:#434343;}
	.st21{fill:#434343;stroke:#F9F9F9;stroke-width:0.25;stroke-miterlimit:10;}
	.st22{fill:none;stroke:#FC6A55;stroke-width:0.5;stroke-miterlimit:10;}
	.st23{fill:none;stroke:#FC6A55;stroke-width:0.75;stroke-miterlimit:10;}
	.st24{fill:#FC6A55;stroke:#FC6A55;stroke-width:0.5;stroke-miterlimit:10;}
	.st25{opacity:0.153;fill:url(#Path_36_);enable-background:new    ;}
	.st26{opacity:0.1;fill:#590BB2;enable-background:new    ;}
	.st27{fill:#8E8CA8;}
	.st28{fill:#F5F4F9;}
	.st29{fill:#FFD5B8;}
	.st30{fill:#FC8473;}
	.st31{fill:#1C3475;}
	.st32{fill:#DDD9E4;}
	.st33{fill:#828FB3;}
	.st34{opacity:7.584635e-02;fill:url(#Path_37_);enable-background:new    ;}
	.st35{fill:#FFBE92;}
	.st36{fill:#FB8E7F;}
	.st37{fill:#FDB1A6;}
	.st38{fill:#FC806F;}
	.st39{fill:#FFE783;}
	.st40{fill:#104478;}
	.st41{fill:none;stroke:#FFFFFF;stroke-miterlimit:10;}
	.st42{fill:none;stroke:#000000;stroke-width:0.15;stroke-miterlimit:10;}
	.st43{opacity:0.1;fill:url(#Path_38_);enable-background:new    ;}
	.st44{opacity:0.1;fill:url(#Path_39_);enable-background:new    ;}
	.st45{fill-rule:evenodd;clip-rule:evenodd;fill:#FC6A55;}
	.st46{fill-rule:evenodd;clip-rule:evenodd;}
	.st47{fill:#FF6757;}
	.st48{fill:#666666;}
	.st49{fill:none;stroke:#FFFFFF;stroke-width:0.5;stroke-miterlimit:10;}
	.st50{fill:#F16A56;}
	.st51{fill:#515252;}
	.st52{fill:#F26A56;}
	.st53{fill:none;stroke:#F16A56;stroke-miterlimit:10;}
	.st54{fill:none;stroke:#929292;stroke-miterlimit:10;}
	.st55{fill:#929292;}
	.st56{fill:none;stroke:#000000;stroke-width:0.5;stroke-miterlimit:10;}
	.st57{fill:#A8A7A7;}
	.st58{fill:#F79F91;}
	.st59{fill:#9BDBD5;}
	.st60{fill:#222121;}
</style>
<g>
	<path class="st7" d="M36.7,3.8c-1.4,0-2.5,1.1-2.5,2.5s1.1,2.5,2.5,2.5s2.5-1.1,2.5-2.5S38.1,3.8,36.7,3.8z M36.7,7.2
		c-0.5,0-0.9-0.4-0.9-0.9s0.4-0.9,0.9-0.9c0.5,0,0.9,0.4,0.9,0.9S37.2,7.2,36.7,7.2z"/>
	<path class="st7" d="M29.3,9.8c-0.4,0-0.8,0.4-0.8,0.8v1.3c0,0.4,0.4,0.8,0.8,0.8s0.8-0.4,0.8-0.8v-1.3
		C30.1,10.1,29.8,9.8,29.3,9.8z"/>
	<path class="st7" d="M44.1,9.8c-0.4,0-0.8,0.4-0.8,0.8v1.3c0,0.4,0.4,0.8,0.8,0.8c0.4,0,0.8-0.4,0.8-0.8v-1.3
		C44.9,10.1,44.6,9.8,44.1,9.8z"/>
	<path class="st7" d="M39.1,11.2c-0.3-0.3-0.8-0.3-1.1,0.1c-0.3,0.3-0.7,0.5-1.2,0.5s-0.9-0.2-1.2-0.5c-0.3-0.3-0.8-0.4-1.1-0.1
		C34,11.5,34,12,34.3,12.4c0.6,0.7,1.5,1.1,2.4,1.1c0.9,0,1.8-0.4,2.4-1.1C39.5,12,39.4,11.5,39.1,11.2z"/>
	<path class="st7" d="M41.9,33.3H24.2c-0.4,0-0.8,0.4-0.8,0.8c0,0.4,0.4,0.8,0.8,0.8h17.7c0.4,0,0.8-0.4,0.8-0.8
		C42.7,33.6,42.3,33.3,41.9,33.3z"/>
	<path class="st7" d="M41.9,38.1H24.2c-0.4,0-0.8,0.4-0.8,0.8c0,0.4,0.4,0.8,0.8,0.8h17.7c0.4,0,0.8-0.4,0.8-0.8
		C42.7,38.5,42.3,38.1,41.9,38.1z"/>
	<path class="st7" d="M41.9,43H24.2c-0.4,0-0.8,0.4-0.8,0.8c0,0.4,0.4,0.8,0.8,0.8h17.7c0.4,0,0.8-0.4,0.8-0.8
		C42.7,43.3,42.3,43,41.9,43z"/>
	<path class="st7" d="M41.3,22.6h-2v-2c0-0.4-0.4-0.8-0.8-0.8H35c-0.4,0-0.8,0.4-0.8,0.8v2h-2c-0.4,0-0.8,0.4-0.8,0.8v3.4
		c0,0.4,0.4,0.8,0.8,0.8h2v2c0,0.4,0.4,0.8,0.8,0.8h3.4c0.4,0,0.8-0.4,0.8-0.8v-2h2c0.4,0,0.8-0.4,0.8-0.8v-3.4
		C42.1,23,41.7,22.6,41.3,22.6z M40.5,26h-2c-0.4,0-0.8,0.4-0.8,0.8v2h-1.8v-2c0-0.4-0.4-0.8-0.8-0.8h-2v-1.8h2
		c0.4,0,0.8-0.4,0.8-0.8v-2h1.8v2c0,0.4,0.4,0.8,0.8,0.8h2V26z"/>
	<g>
		<path class="st7" d="M58.4,36.2V13.6c0-2.7-2.2-4.8-4.8-4.8H50V7.4c0-1.4-1.1-2.5-2.5-2.5h-5.2C41.9,2.1,39.5,0,36.6,0
			c-2.9,0-5.3,2.1-5.7,4.9h-5.2c-1.4,0-2.5,1.1-2.5,2.5v1.3h-3.6c-2.7,0-4.8,2.2-4.8,4.8v38.4c0,2.7,2.2,4.8,4.8,4.8h4
			c0.5,0,0.8-0.4,0.8-0.8c0-0.5-0.4-0.8-0.8-0.8h-4c-1.7,0-3.2-1.4-3.2-3.2V13.6c0-1.7,1.4-3.2,3.2-3.2h3.6v2.2h-3.6
			c-0.6,0-1,0.5-1,1v38.4c0,0.6,0.5,1,1,1h25.8c0.4,0.8,0.9,1.5,1.5,2.2H27c-0.5,0-0.8,0.4-0.8,0.8c0,0.5,0.4,0.8,0.8,0.8h21.8
			c1.9,1.4,4.3,2.2,6.8,2.2c6.4,0,11.5-5.2,11.5-11.5C67.2,42,63.4,37.5,58.4,36.2z M50,10.4h3.6c1.7,0,3.2,1.4,3.2,3.2V36
			c-0.3,0-0.7-0.1-1.1-0.1c-0.4,0-0.7,0-1.1,0.1V13.6c0-0.6-0.5-1-1-1H50V10.4z M44.7,51.3H20.3V14.2h2.9v0.2c0,1.4,1.1,2.5,2.5,2.5
			h16.1c0.5,0,0.8-0.4,0.8-0.8s-0.4-0.8-0.8-0.8H25.7c-0.5,0-0.8-0.4-0.8-0.8v-7c0-0.5,0.4-0.8,0.8-0.8h6c0.5,0,0.8-0.4,0.8-0.8
			c0-2.3,1.8-4.1,4.1-4.1c2.3,0,4.1,1.8,4.1,4.1c0,0.5,0.4,0.8,0.8,0.8h6c0.5,0,0.8,0.4,0.8,0.8v7c0,0.5-0.4,0.8-0.8,0.8h-2.3
			c-0.5,0-0.8,0.4-0.8,0.8c0,0.5,0.4,0.8,0.8,0.8h2.3c1.4,0,2.5-1.1,2.5-2.5v-0.2h2.9v22.1c-5,1.2-8.8,5.8-8.8,11.2
			C44.1,48.8,44.3,50.1,44.7,51.3z M55.6,57.1c-0.4,0-0.8,0-1.2-0.1c0,0-0.1,0-0.1,0c-1.7-0.2-3.2-0.9-4.5-1.9l0,0h0
			c-0.4-0.3-0.8-0.6-1.1-1c0,0,0,0,0,0c-1.2-1.3-2.1-2.9-2.5-4.6c0,0,0,0,0,0c-0.1-0.3-0.1-0.6-0.1-0.9c0,0,0-0.1,0-0.1
			c0-0.3-0.1-0.7-0.1-1c0-0.3,0-0.6,0-0.9c0-0.1,0-0.2,0-0.3c0-0.2,0.1-0.4,0.1-0.6c0-0.1,0-0.2,0.1-0.3c0-0.2,0.1-0.4,0.1-0.6
			c0-0.1,0.1-0.2,0.1-0.3c0.1-0.2,0.1-0.4,0.2-0.6c0-0.1,0.1-0.2,0.1-0.2c0.1-0.3,0.2-0.5,0.4-0.8c0-0.1,0.1-0.2,0.1-0.3
			c0.1-0.2,0.2-0.3,0.3-0.5c0.1-0.1,0.1-0.2,0.2-0.3c0.1-0.1,0.2-0.2,0.3-0.4c0.1-0.1,0.2-0.2,0.3-0.3c0.1-0.1,0.2-0.2,0.3-0.3
			c0.1-0.1,0.2-0.2,0.3-0.3c0.1-0.1,0.2-0.2,0.3-0.3c0.2-0.2,0.4-0.4,0.6-0.5c0.1-0.1,0.2-0.1,0.3-0.2c0.1-0.1,0.3-0.2,0.4-0.3
			c0.1-0.1,0.2-0.1,0.3-0.2c0.1-0.1,0.3-0.2,0.4-0.2c0.1-0.1,0.2-0.1,0.3-0.1c0.2-0.1,0.3-0.1,0.5-0.2c0.1,0,0.2-0.1,0.3-0.1
			c0.2-0.1,0.3-0.1,0.5-0.2c0,0,0,0,0,0l0,0c0.5-0.2,1.1-0.3,1.7-0.3l0,0c0,0,0,0,0,0c0.4,0,0.7-0.1,1.1-0.1c0.4,0,0.7,0,1.1,0.1h0
			l0,0c0.6,0.1,1.1,0.2,1.7,0.3l0,0l0,0c0.2,0.1,0.4,0.1,0.6,0.2c0.1,0,0.2,0.1,0.2,0.1c0.2,0.1,0.3,0.1,0.5,0.2
			c0.1,0,0.2,0.1,0.3,0.1c0.2,0.1,0.3,0.2,0.5,0.3c0.1,0,0.2,0.1,0.2,0.1c0.2,0.1,0.3,0.2,0.5,0.3c0,0,0.1,0,0.1,0.1
			c0.3,0.2,0.6,0.5,0.9,0.7c0.1,0.1,0.2,0.1,0.3,0.2c0.1,0.1,0.2,0.2,0.3,0.3c0.1,0.1,0.2,0.2,0.3,0.3c0.1,0.1,0.2,0.2,0.3,0.3
			c0.1,0.1,0.2,0.2,0.3,0.3c0.1,0.1,0.2,0.2,0.2,0.3c0.1,0.1,0.2,0.3,0.3,0.5c0.1,0.1,0.1,0.2,0.2,0.3c0.1,0.2,0.2,0.5,0.4,0.7
			c0,0.1,0.1,0.2,0.1,0.3c0.1,0.2,0.1,0.4,0.2,0.6c0,0.1,0.1,0.2,0.1,0.3c0.1,0.2,0.1,0.4,0.1,0.5c0,0.1,0,0.2,0.1,0.3
			c0,0.2,0.1,0.4,0.1,0.6c0,0.1,0,0.2,0,0.3c0,0.3,0,0.6,0,0.9C65.2,52.8,60.9,57.1,55.6,57.1z"/>
		<path class="st7" d="M54.9,54.8c0.3,0.2,0.6,0.4,1,0.4c0.8,0,1.4-0.6,1.4-1.4c0-0.5-0.3-0.9-0.6-1.2
			C56.4,53.5,55.8,54.4,54.9,54.8z"/>
	</g>
	<path class="st7" d="M55.8,50.7c0.5,0,0.8-0.2,0.8-0.5v-10c0-0.3-0.4-0.5-0.8-0.5c-0.5,0-0.8,0.2-0.8,0.5v10
		C55,50.5,55.4,50.7,55.8,50.7z"/>
	<path class="st7" d="M55.8,52.3c-0.8,0-1.4,0.6-1.4,1.4s0.6,1.4,1.4,1.4s1.4-0.6,1.4-1.4S56.6,52.3,55.8,52.3z"/>
</g>
</svg>
