<?xml version="1.0" encoding="utf-8"?>
<!-- Generator: Adobe Illustrator 24.1.1, SVG Export Plug-In . SVG Version: 6.00 Build 0)  -->
<svg version="1.1" id="Layer_1" xmlns="http://www.w3.org/2000/svg" xmlns:xlink="http://www.w3.org/1999/xlink" x="0px" y="0px"
	 viewBox="0 0 82 59" style="enable-background:new 0 0 82 59;" xml:space="preserve">
<style type="text/css">
	.st0{fill:#FC6A55;}
	.st1{fill:#EDEDED;}
	.st2{fill:none;stroke:#FC6A55;stroke-miterlimit:10;}
	.st3{fill:#222F3F;}
	.st4{fill:#383838;}
	.st5{fill:#FFFFFF;}
	.st6{fill:#656D7A;}
	.st7{fill:#C4C4C4;}
	.st8{filter:url(#Adobe_OpacityMaskFilter);}
	.st9{fill-rule:evenodd;clip-rule:evenodd;fill:#FFFFFF;}
	.st10{mask:url(#mask-2_8_);fill-rule:evenodd;clip-rule:evenodd;}
	.st11{filter:url(#Adobe_OpacityMaskFilter_1_);}
	.st12{mask:url(#mask-2_7_);fill-rule:evenodd;clip-rule:evenodd;}
	.st13{filter:url(#Adobe_OpacityMaskFilter_2_);}
	.st14{mask:url(#mask-2_6_);fill-rule:evenodd;clip-rule:evenodd;}
	.st15{filter:url(#Adobe_OpacityMaskFilter_3_);}
	.st16{mask:url(#mask-2_5_);fill-rule:evenodd;clip-rule:evenodd;}
	.st17{filter:url(#Adobe_OpacityMaskFilter_4_);}
	.st18{mask:url(#mask-2_2_);fill:none;stroke:#000000;stroke-width:1.5;stroke-miterlimit:10;}
	.st19{fill:#B4A3EE;}
	.st20{fill:#434343;}
	.st21{fill:#434343;stroke:#F9F9F9;stroke-width:0.25;stroke-miterlimit:10;}
	.st22{fill:none;stroke:#FC6A55;stroke-width:0.5;stroke-miterlimit:10;}
	.st23{fill:none;stroke:#FC6A55;stroke-width:0.75;stroke-miterlimit:10;}
	.st24{fill:#FC6A55;stroke:#FC6A55;stroke-width:0.5;stroke-miterlimit:10;}
	.st25{opacity:0.153;fill:url(#Path_36_);enable-background:new    ;}
	.st26{opacity:0.1;fill:#590BB2;enable-background:new    ;}
	.st27{fill:#8E8CA8;}
	.st28{fill:#F5F4F9;}
	.st29{fill:#FFD5B8;}
	.st30{fill:#FC8473;}
	.st31{fill:#1C3475;}
	.st32{fill:#DDD9E4;}
	.st33{fill:#828FB3;}
	.st34{opacity:7.584635e-02;fill:url(#Path_37_);enable-background:new    ;}
	.st35{fill:#FFBE92;}
	.st36{fill:#FB8E7F;}
	.st37{fill:#FDB1A6;}
	.st38{fill:#FC806F;}
	.st39{fill:#FFE783;}
	.st40{fill:#104478;}
	.st41{fill:none;stroke:#FFFFFF;stroke-miterlimit:10;}
	.st42{fill:none;stroke:#000000;stroke-width:0.15;stroke-miterlimit:10;}
	.st43{opacity:0.1;fill:url(#Path_38_);enable-background:new    ;}
	.st44{opacity:0.1;fill:url(#Path_39_);enable-background:new    ;}
	.st45{fill-rule:evenodd;clip-rule:evenodd;fill:#FC6A55;}
	.st46{fill-rule:evenodd;clip-rule:evenodd;}
	.st47{fill:#FF6757;}
	.st48{fill:#666666;}
	.st49{fill:none;stroke:#FFFFFF;stroke-width:0.5;stroke-miterlimit:10;}
	.st50{fill:#F16A56;}
	.st51{fill:#515252;}
	.st52{fill:#F26A56;}
	.st53{fill:none;stroke:#F16A56;stroke-miterlimit:10;}
	.st54{fill:none;stroke:#929292;stroke-miterlimit:10;}
	.st55{fill:#929292;}
	.st56{fill:none;stroke:#000000;stroke-width:0.5;stroke-miterlimit:10;}
	.st57{fill:#A8A7A7;}
	.st58{fill:#F79F91;}
	.st59{fill:#9BDBD5;}
	.st60{fill:#222121;}
</style>
<g>
	<path class="st0" d="M31.8,30.7c0.6,0,1.2-0.5,1.2-1.2s-0.5-1.2-1.2-1.2s-1.2,0.5-1.2,1.2S31.1,30.7,31.8,30.7z"/>
	<path class="st0" d="M15,47.5h20.2c-0.5,2.6-2.9,4.6-5.6,4.6c-0.6,0-1.2,0.5-1.2,1.2v4.6c0,0.6,0.5,1.2,1.2,1.2h23
		c0.6,0,1.2-0.5,1.2-1.2v-4.6c0-0.6-0.5-1.2-1.2-1.2c-2.8,0-5.1-2-5.6-4.6H67c1.9,0,3.5-1.6,3.5-3.5V8.8c0-1.9-1.6-3.5-3.5-3.5h-8.8
		V1.2c0-0.6-0.5-1.2-1.2-1.2H24.9c-0.6,0-1.2,0.5-1.2,1.2v4.1H15c-1.9,0-3.5,1.6-3.5,3.5V44C11.5,45.9,13.1,47.5,15,47.5z
		 M30.6,56.7v-2.3h20.7v2.3H30.6z M46.9,52.1H35.1c1.2-1.2,2.1-2.8,2.3-4.6h7.1C44.8,49.3,45.6,50.9,46.9,52.1z M67,45.2H15
		c-0.6,0-1.2-0.5-1.2-1.2v-5.8h54.4V44C68.2,44.7,67.7,45.2,67,45.2z M67,7.6c0.6,0,1.2,0.5,1.2,1.2V36h-9.9V7.6H67z M26,2.3h30V36
		H26V2.3z M15,7.6h8.8V36h-9.9V8.8C13.8,8.1,14.3,7.6,15,7.6z"/>
	<path class="st0" d="M32.9,20.3h4.6v4.6c0,0.6,0.5,1.2,1.2,1.2h4.6c0.6,0,1.2-0.5,1.2-1.2v-4.6h4.6c0.6,0,1.2-0.5,1.2-1.2v-4.6
		c0-0.6-0.5-1.2-1.2-1.2h-4.6V8.8c0-0.6-0.5-1.2-1.2-1.2h-4.6c-0.6,0-1.2,0.5-1.2,1.2v4.6h-4.6c-0.6,0-1.2,0.5-1.2,1.2v4.6
		C31.8,19.8,32.3,20.3,32.9,20.3z M34.1,15.7h4.6c0.6,0,1.2-0.5,1.2-1.2V9.9h2.3v4.6c0,0.6,0.5,1.2,1.2,1.2h4.6V18h-4.6
		c-0.6,0-1.2,0.5-1.2,1.2v4.6h-2.3v-4.6c0-0.6-0.5-1.2-1.2-1.2h-4.6V15.7z"/>
	<path class="st0" d="M36.4,28.3c-0.6,0-1.2,0.5-1.2,1.2s0.5,1.2,1.2,1.2h13.8c0.6,0,1.2-0.5,1.2-1.2s-0.5-1.2-1.2-1.2H36.4z"/>
	<path class="st0" d="M43.3,40.6h-4.6c-0.6,0-1.2,0.5-1.2,1.2s0.5,1.2,1.2,1.2h4.6c0.6,0,1.2-0.5,1.2-1.2S43.9,40.6,43.3,40.6z"/>
</g>
</svg>
