<?xml version="1.0" encoding="utf-8"?>
<!-- Generator: Adobe Illustrator 24.1.1, SVG Export Plug-In . SVG Version: 6.00 Build 0)  -->
<svg version="1.1" id="Layer_1" xmlns="http://www.w3.org/2000/svg" xmlns:xlink="http://www.w3.org/1999/xlink" x="0px" y="0px"
	 viewBox="0 0 82 59" style="enable-background:new 0 0 82 59;" xml:space="preserve">
<style type="text/css">
	.st0{fill:#FC6A55;}
	.st1{fill:#EDEDED;}
	.st2{fill:none;stroke:#FC6A55;stroke-miterlimit:10;}
	.st3{fill:#222F3F;}
	.st4{fill:#383838;}
	.st5{fill:#FFFFFF;}
	.st6{fill:#656D7A;}
	.st7{fill:#C4C4C4;}
	.st8{filter:url(#Adobe_OpacityMaskFilter);}
	.st9{fill-rule:evenodd;clip-rule:evenodd;fill:#FFFFFF;}
	.st10{mask:url(#mask-2_8_);fill-rule:evenodd;clip-rule:evenodd;}
	.st11{filter:url(#Adobe_OpacityMaskFilter_1_);}
	.st12{mask:url(#mask-2_7_);fill-rule:evenodd;clip-rule:evenodd;}
	.st13{filter:url(#Adobe_OpacityMaskFilter_2_);}
	.st14{mask:url(#mask-2_6_);fill-rule:evenodd;clip-rule:evenodd;}
	.st15{filter:url(#Adobe_OpacityMaskFilter_3_);}
	.st16{mask:url(#mask-2_5_);fill-rule:evenodd;clip-rule:evenodd;}
	.st17{filter:url(#Adobe_OpacityMaskFilter_4_);}
	.st18{mask:url(#mask-2_2_);fill:none;stroke:#000000;stroke-width:1.5;stroke-miterlimit:10;}
	.st19{fill:#B4A3EE;}
	.st20{fill:#434343;}
	.st21{fill:#434343;stroke:#F9F9F9;stroke-width:0.25;stroke-miterlimit:10;}
	.st22{fill:none;stroke:#FC6A55;stroke-width:0.5;stroke-miterlimit:10;}
	.st23{fill:none;stroke:#FC6A55;stroke-width:0.75;stroke-miterlimit:10;}
	.st24{fill:#FC6A55;stroke:#FC6A55;stroke-width:0.5;stroke-miterlimit:10;}
	.st25{opacity:0.153;fill:url(#Path_36_);enable-background:new    ;}
	.st26{opacity:0.1;fill:#590BB2;enable-background:new    ;}
	.st27{fill:#8E8CA8;}
	.st28{fill:#F5F4F9;}
	.st29{fill:#FFD5B8;}
	.st30{fill:#FC8473;}
	.st31{fill:#1C3475;}
	.st32{fill:#DDD9E4;}
	.st33{fill:#828FB3;}
	.st34{opacity:7.584635e-02;fill:url(#Path_37_);enable-background:new    ;}
	.st35{fill:#FFBE92;}
	.st36{fill:#FB8E7F;}
	.st37{fill:#FDB1A6;}
	.st38{fill:#FC806F;}
	.st39{fill:#FFE783;}
	.st40{fill:#104478;}
	.st41{fill:none;stroke:#FFFFFF;stroke-miterlimit:10;}
	.st42{fill:none;stroke:#000000;stroke-width:0.15;stroke-miterlimit:10;}
	.st43{opacity:0.1;fill:url(#Path_38_);enable-background:new    ;}
	.st44{opacity:0.1;fill:url(#Path_39_);enable-background:new    ;}
	.st45{fill-rule:evenodd;clip-rule:evenodd;fill:#FC6A55;}
	.st46{fill-rule:evenodd;clip-rule:evenodd;}
	.st47{fill:#FF6757;}
	.st48{fill:#666666;}
	.st49{fill:none;stroke:#FFFFFF;stroke-width:0.5;stroke-miterlimit:10;}
	.st50{fill:#F16A56;}
	.st51{fill:#515252;}
	.st52{fill:#F26A56;}
	.st53{fill:none;stroke:#F16A56;stroke-miterlimit:10;}
	.st54{fill:none;stroke:#929292;stroke-miterlimit:10;}
	.st55{fill:#929292;}
	.st56{fill:none;stroke:#000000;stroke-width:0.5;stroke-miterlimit:10;}
	.st57{fill:#A8A7A7;}
	.st58{fill:#F79F91;}
	.st59{fill:#9BDBD5;}
	.st60{fill:#222121;}
</style>
<g>
	<path class="st0" d="M34.6,4.3c-1.4,0-2.5,1.1-2.5,2.5s1.1,2.5,2.5,2.5s2.5-1.1,2.5-2.5S36,4.3,34.6,4.3z M34.6,7.7
		c-0.5,0-0.9-0.4-0.9-0.9s0.4-0.9,0.9-0.9c0.5,0,0.9,0.4,0.9,0.9S35.1,7.7,34.6,7.7z"/>
	<path class="st0" d="M27.2,10.3c-0.4,0-0.8,0.4-0.8,0.8v1.3c0,0.4,0.4,0.8,0.8,0.8s0.8-0.4,0.8-0.8v-1.3
		C28,10.6,27.7,10.3,27.2,10.3z"/>
	<path class="st0" d="M42,10.3c-0.4,0-0.8,0.4-0.8,0.8v1.3c0,0.4,0.4,0.8,0.8,0.8c0.4,0,0.8-0.4,0.8-0.8v-1.3
		C42.8,10.6,42.5,10.3,42,10.3z"/>
	<path class="st0" d="M37,11.7c-0.3-0.3-0.8-0.3-1.1,0.1c-0.3,0.3-0.7,0.5-1.2,0.5s-0.9-0.2-1.2-0.5c-0.3-0.3-0.8-0.4-1.1-0.1
		c-0.3,0.3-0.4,0.8-0.1,1.1c0.6,0.7,1.5,1.1,2.4,1.1c0.9,0,1.8-0.4,2.4-1.1C37.3,12.5,37.3,12,37,11.7z"/>
	<path class="st0" d="M39.7,33.8H22c-0.4,0-0.8,0.4-0.8,0.8c0,0.4,0.4,0.8,0.8,0.8h17.7c0.4,0,0.8-0.4,0.8-0.8
		C40.6,34.1,40.2,33.8,39.7,33.8z"/>
	<path class="st0" d="M39.7,38.6H22c-0.4,0-0.8,0.4-0.8,0.8c0,0.4,0.4,0.8,0.8,0.8h17.7c0.4,0,0.8-0.4,0.8-0.8
		C40.6,39,40.2,38.6,39.7,38.6z"/>
	<path class="st0" d="M39.7,43.5H22c-0.4,0-0.8,0.4-0.8,0.8c0,0.4,0.4,0.8,0.8,0.8h17.7c0.4,0,0.8-0.4,0.8-0.8
		C40.6,43.8,40.2,43.5,39.7,43.5z"/>
	<path class="st0" d="M39.2,23.1h-2v-2c0-0.4-0.4-0.8-0.8-0.8h-3.4c-0.4,0-0.8,0.4-0.8,0.8v2h-2c-0.4,0-0.8,0.4-0.8,0.8v3.4
		c0,0.4,0.4,0.8,0.8,0.8h2v2c0,0.4,0.4,0.8,0.8,0.8h3.4c0.4,0,0.8-0.4,0.8-0.8v-2h2c0.4,0,0.8-0.4,0.8-0.8v-3.4
		C40,23.5,39.6,23.1,39.2,23.1z M38.4,26.5h-2c-0.4,0-0.8,0.4-0.8,0.8v2h-1.8v-2c0-0.4-0.4-0.8-0.8-0.8h-2v-1.8h2
		c0.4,0,0.8-0.4,0.8-0.8v-2h1.8v2c0,0.4,0.4,0.8,0.8,0.8h2V26.5z"/>
	<g>
		<path class="st0" d="M51.4,9.2h-3.6V7.9c0-1.4-1.1-2.5-2.5-2.5h-5.2c-0.4-2.8-2.8-4.9-5.7-4.9s-5.3,2.1-5.7,4.9h-5.2
			c-1.4,0-2.5,1.1-2.5,2.5v1.3h-3.6c-2.7,0-4.8,2.2-4.8,4.8v38.4c0,2.7,2.2,4.8,4.8,4.8h4c0.5,0,0.8-0.4,0.8-0.8
			c0-0.5-0.4-0.8-0.8-0.8h-4c-1.7,0-3.2-1.4-3.2-3.2V14.1c0-1.7,1.4-3.2,3.2-3.2h3.6V13h-3.6c-0.6,0-1,0.5-1,1v38.4c0,0.6,0.5,1,1,1
			h33.9c0.6,0,1-0.5,1-1V14.1c0-0.6-0.5-1-1-1h-3.6v-2.2h3.6c1.7,0,3.2,1.4,3.2,3.2v38.4c0,1.7-1.4,3.2-3.2,3.2H24.9
			c-0.5,0-0.8,0.4-0.8,0.8c0,0.5,0.4,0.8,0.8,0.8h26.5c2.7,0,4.8-2.2,4.8-4.8V14.1C56.2,11.4,54.1,9.2,51.4,9.2z M50.7,14.7v37.1
			H18.2V14.7h2.9v0.2c0,1.4,1.1,2.5,2.5,2.5h16.1c0.5,0,0.8-0.4,0.8-0.8s-0.4-0.8-0.8-0.8H23.6c-0.5,0-0.8-0.4-0.8-0.8v-7
			c0-0.5,0.4-0.8,0.8-0.8h6c0.5,0,0.8-0.4,0.8-0.8c0-2.3,1.8-4.1,4.1-4.1c2.3,0,4.1,1.8,4.1,4.1c0,0.5,0.4,0.8,0.8,0.8h6
			c0.5,0,0.8,0.4,0.8,0.8v7c0,0.5-0.4,0.8-0.8,0.8H43c-0.5,0-0.8,0.4-0.8,0.8s0.4,0.8,0.8,0.8h2.3c1.4,0,2.5-1.1,2.5-2.5v-0.2H50.7z
			"/>
		<g>
			<circle class="st0" cx="53.5" cy="48" r="11.5"/>
			<circle class="st5" cx="53.5" cy="48" r="9.6"/>
			<path class="st0" d="M54.5,50.7v-10c0-0.3-0.4-0.5-0.8-0.5c-0.5,0-0.8,0.2-0.8,0.5v10c0,0.3,0.4,0.5,0.8,0.5
				C54.2,51.2,54.5,51,54.5,50.7z"/>
			<circle class="st0" cx="53.7" cy="54.2" r="1.4"/>
		</g>
	</g>
</g>
</svg>
