<?xml version="1.0" encoding="utf-8"?>
<!-- Generator: Adobe Illustrator 24.1.1, SVG Export Plug-In . SVG Version: 6.00 Build 0)  -->
<svg version="1.1" id="Layer_1" xmlns="http://www.w3.org/2000/svg" xmlns:xlink="http://www.w3.org/1999/xlink" x="0px" y="0px"
	 viewBox="0 0 82 59" style="enable-background:new 0 0 82 59;" xml:space="preserve">
<style type="text/css">
	.st0{fill:#FC6A55;}
	.st1{fill:#EDEDED;}
	.st2{fill:none;stroke:#FC6A55;stroke-miterlimit:10;}
	.st3{fill:#222F3F;}
	.st4{fill:#383838;}
	.st5{fill:#FFFFFF;}
	.st6{fill:#656D7A;}
	.st7{fill:#C4C4C4;}
	.st8{filter:url(#Adobe_OpacityMaskFilter);}
	.st9{fill-rule:evenodd;clip-rule:evenodd;fill:#FFFFFF;}
	.st10{mask:url(#mask-2_8_);fill-rule:evenodd;clip-rule:evenodd;}
	.st11{filter:url(#Adobe_OpacityMaskFilter_1_);}
	.st12{mask:url(#mask-2_7_);fill-rule:evenodd;clip-rule:evenodd;}
	.st13{filter:url(#Adobe_OpacityMaskFilter_2_);}
	.st14{mask:url(#mask-2_6_);fill-rule:evenodd;clip-rule:evenodd;}
	.st15{filter:url(#Adobe_OpacityMaskFilter_3_);}
	.st16{mask:url(#mask-2_5_);fill-rule:evenodd;clip-rule:evenodd;}
	.st17{filter:url(#Adobe_OpacityMaskFilter_4_);}
	.st18{mask:url(#mask-2_2_);fill:none;stroke:#000000;stroke-width:1.5;stroke-miterlimit:10;}
	.st19{fill:#B4A3EE;}
	.st20{fill:#434343;}
	.st21{fill:#434343;stroke:#F9F9F9;stroke-width:0.25;stroke-miterlimit:10;}
	.st22{fill:none;stroke:#FC6A55;stroke-width:0.5;stroke-miterlimit:10;}
	.st23{fill:none;stroke:#FC6A55;stroke-width:0.75;stroke-miterlimit:10;}
	.st24{fill:#FC6A55;stroke:#FC6A55;stroke-width:0.5;stroke-miterlimit:10;}
	.st25{opacity:0.153;fill:url(#Path_36_);enable-background:new    ;}
	.st26{opacity:0.1;fill:#590BB2;enable-background:new    ;}
	.st27{fill:#8E8CA8;}
	.st28{fill:#F5F4F9;}
	.st29{fill:#FFD5B8;}
	.st30{fill:#FC8473;}
	.st31{fill:#1C3475;}
	.st32{fill:#DDD9E4;}
	.st33{fill:#828FB3;}
	.st34{opacity:7.584635e-02;fill:url(#Path_37_);enable-background:new    ;}
	.st35{fill:#FFBE92;}
	.st36{fill:#FB8E7F;}
	.st37{fill:#FDB1A6;}
	.st38{fill:#FC806F;}
	.st39{fill:#FFE783;}
	.st40{fill:#104478;}
	.st41{fill:none;stroke:#FFFFFF;stroke-miterlimit:10;}
	.st42{fill:none;stroke:#000000;stroke-width:0.15;stroke-miterlimit:10;}
	.st43{opacity:0.1;fill:url(#Path_38_);enable-background:new    ;}
	.st44{opacity:0.1;fill:url(#Path_39_);enable-background:new    ;}
	.st45{fill-rule:evenodd;clip-rule:evenodd;fill:#FC6A55;}
	.st46{fill-rule:evenodd;clip-rule:evenodd;}
	.st47{fill:#FF6757;}
	.st48{fill:#666666;}
	.st49{fill:none;stroke:#FFFFFF;stroke-width:0.5;stroke-miterlimit:10;}
	.st50{fill:#F16A56;}
	.st51{fill:#515252;}
	.st52{fill:#F26A56;}
	.st53{fill:none;stroke:#F16A56;stroke-miterlimit:10;}
	.st54{fill:none;stroke:#929292;stroke-miterlimit:10;}
	.st55{fill:#929292;}
	.st56{fill:none;stroke:#000000;stroke-width:0.5;stroke-miterlimit:10;}
	.st57{fill:#A8A7A7;}
	.st58{fill:#F79F91;}
	.st59{fill:#9BDBD5;}
	.st60{fill:#222121;}
</style>
<g>
	<g>
		<g>
			<path class="st0" d="M31.4,45.1c0-0.1,0-0.1-0.1-0.2c0-0.1-0.1-0.1-0.1-0.2c0-0.1-0.1-0.1-0.1-0.2c-0.1-0.1-0.1-0.1-0.2-0.1
				c-0.1,0-0.1-0.1-0.2-0.1c-0.1,0-0.1-0.1-0.2-0.1c-0.1,0-0.3,0-0.4,0c-0.1,0-0.1,0-0.2,0.1c-0.1,0-0.1,0.1-0.2,0.1
				c-0.1,0-0.1,0.1-0.2,0.1c-0.1,0.1-0.1,0.1-0.1,0.2c0,0.1-0.1,0.1-0.1,0.2c0,0.1-0.1,0.1-0.1,0.2c0,0.1,0,0.1,0,0.2s0,0.2,0,0.2
				c0,0.1,0,0.1,0.1,0.2c0,0.1,0.1,0.1,0.1,0.2c0,0.1,0.1,0.1,0.1,0.2c0.1,0.1,0.1,0.1,0.2,0.1c0.1,0,0.1,0.1,0.2,0.1
				c0.1,0,0.1,0.1,0.2,0.1c0.1,0,0.1,0,0.2,0c0.1,0,0.2,0,0.2,0c0.1,0,0.1,0,0.2-0.1c0.1,0,0.1-0.1,0.2-0.1c0.1,0,0.1-0.1,0.2-0.1
				c0.1-0.1,0.1-0.1,0.1-0.2c0-0.1,0.1-0.1,0.1-0.2c0-0.1,0.1-0.1,0.1-0.2c0-0.1,0-0.1,0-0.2C31.4,45.3,31.4,45.2,31.4,45.1z"/>
		</g>
	</g>
	<g>
		<g>
			<path class="st0" d="M64.4,45.5C64.4,45.5,64.4,45.4,64.4,45.5C63.4,43,60.9,42,57.9,43l-8,2.2c-0.5-1.4-1.6-2.6-3.2-3.2
				c0,0,0,0,0,0l-8.8-3c-0.7-0.9-3-3.4-7.3-3.4c-3,0-5.7,2.1-7.2,4.3H12.7c-0.6,0-1.1,0.5-1.1,1.1v14.5c0,0.6,0.5,1.1,1.1,1.1h6.8
				c0.6,0,1.1-0.5,1.1-1.1v-1h3.2c0.6,0,1.1-0.5,1.1-1.1v-0.3c1.9,0.2,2.5,0.5,4.2,1.5c1.3,0.8,3.3,1.9,6.9,3.5c0,0,0,0,0.1,0
				c0.7,0.3,2,0.7,3.7,0.7c1.2,0,2.5-0.2,3.8-0.8l17.7-6.3c0,0,0.1,0,0.1,0C63.2,50.9,65.7,48.7,64.4,45.5z M18.4,54.5h-4.5V42.3
				h4.5V54.5z M22.8,52.3h-2.1v-10h2.1V52.3z M60.6,49.6l-17.7,6.3c0,0,0,0-0.1,0c0,0,0,0,0,0c-2.5,1.1-4.8,0.5-5.7,0.1
				c-3.5-1.6-5.3-2.6-6.7-3.4c-1.9-1.1-2.8-1.6-5.3-1.8v-9.3c1.1-1.8,3.2-3.6,5.5-3.6c3.9,0,5.6,2.5,5.6,2.6
				c0.1,0.2,0.4,0.4,0.6,0.5l9.1,3.1c1.5,0.5,2.2,1.8,1.9,3c-0.2,0.6-0.5,1.1-1.1,1.3c-0.5,0.3-1.1,0.4-1.7,0.2l-10.3-3.3
				c-0.6-0.2-1.3,0.1-1.4,0.7c-0.2,0.6,0.1,1.3,0.7,1.4L44.4,51c0,0,0,0,0,0c0.4,0.1,0.8,0.2,1.2,0.2c0.8,0,1.5-0.2,2.2-0.6
				c1.1-0.6,1.8-1.6,2.2-2.7c0-0.1,0-0.2,0.1-0.3l8.6-2.4c1.2-0.4,2.9-0.6,3.6,1.1C63,48.3,61.1,49.4,60.6,49.6z"/>
		</g>
	</g>
	<g>
		<g>
			<path class="st0" d="M52.8,15.2c0-0.1,0-0.1-0.1-0.2c0-0.1-0.1-0.1-0.1-0.2c0-0.1-0.1-0.1-0.1-0.2c-0.1-0.1-0.1-0.1-0.2-0.1
				c-0.1,0-0.1-0.1-0.2-0.1c-0.1,0-0.1-0.1-0.2-0.1c-0.1,0-0.3,0-0.4,0c-0.1,0-0.1,0-0.2,0.1c-0.1,0-0.1,0.1-0.2,0.1
				c-0.1,0-0.1,0.1-0.2,0.1c-0.1,0.1-0.1,0.1-0.1,0.2c0,0.1-0.1,0.1-0.1,0.2c0,0.1-0.1,0.1-0.1,0.2c0,0.1,0,0.1,0,0.2s0,0.2,0,0.2
				c0,0.1,0,0.1,0.1,0.2c0,0.1,0.1,0.1,0.1,0.2c0,0.1,0.1,0.1,0.1,0.2c0.1,0.1,0.1,0.1,0.2,0.1c0.1,0,0.1,0.1,0.2,0.1
				c0.1,0,0.1,0.1,0.2,0.1c0.1,0,0.1,0,0.2,0c0.1,0,0.2,0,0.2,0c0.1,0,0.1,0,0.2-0.1c0.1,0,0.1-0.1,0.2-0.1c0.1,0,0.1-0.1,0.2-0.1
				c0.1-0.1,0.1-0.1,0.1-0.2c0-0.1,0.1-0.1,0.1-0.2c0-0.1,0.1-0.1,0.1-0.2c0-0.1,0-0.1,0-0.2S52.9,15.3,52.8,15.2z"/>
		</g>
	</g>
	<g>
		<g>
			<path class="st0" d="M69.3,4h-6.8c-0.6,0-1.1,0.5-1.1,1.1v1h-3.2c-0.6,0-1.1,0.5-1.1,1.1v0.3c-1.9-0.2-2.5-0.5-4.2-1.5
				c-1.3-0.8-3.3-1.9-6.9-3.5c0,0,0,0-0.1,0c-1.2-0.5-4.2-1.4-7.5,0.1l-4.6,1.7l-3.9-3.9c-0.4-0.4-1.2-0.4-1.6,0L15.3,13.2
				c-0.4,0.4-0.5,1.1,0,1.6l21.9,21.9c0.3,0.3,1.2,0.5,1.6,0L50.5,25c0.3,0,0.6,0,0.9,0c3,0,5.7-2.1,7.2-4.3h10.6
				c0.6,0,1.1-0.5,1.1-1.1V5.1C70.4,4.5,69.9,4,69.3,4z M29,2.9l2.6,2.6C30.8,6,29.9,6.2,29,6.2c-0.9,0-1.8-0.3-2.6-0.7L29,2.9z
				 M20.4,16.7L17.8,14l2.6-2.6c0.5,0.8,0.7,1.7,0.7,2.6S20.9,15.9,20.4,16.7z M38,34.3l-2.6-2.6c1.6-1,3.6-1,5.2,0L38,34.3z
				 M42.3,30c-2.5-1.8-6-1.8-8.5,0L22.1,18.3c0.9-1.2,1.4-2.7,1.4-4.3c0-1.6-0.5-3-1.4-4.3l2.6-2.6C25.9,8,27.4,8.5,29,8.5
				s3-0.5,4.3-1.4l2.5,2.5c-0.5,0.1-1.1,0.3-1.5,0.5c-0.8,0.5-1.5,1.1-1.9,2c-1.3,0.2-2.5,0.9-3.4,1.8c-2.6,2.6-2.6,6.7,0,9.3
				c1.3,1.3,3,1.9,4.6,1.9c1.7,0,3.4-0.6,4.6-1.9c0.8-0.8,1.4-1.9,1.7-3l3.9,1.3c-0.4,2,0,4.1,1.2,5.8L42.3,30z M35.3,18.7
				C35.3,18.7,35.3,18.7,35.3,18.7l2.3,0.8c-0.2,0.8-0.6,1.5-1.1,2.1c-1.7,1.7-4.4,1.7-6,0c-1.7-1.7-1.7-4.4,0-6
				c0.4-0.4,0.9-0.7,1.4-0.9C32.1,16.4,33.3,18,35.3,18.7z M46.6,25.7c-0.4-0.7-0.7-1.5-0.7-2.4c0.6,0.4,1.2,0.8,2,1.1L46.6,25.7z
				 M56.9,19.2c-1.1,1.8-3.2,3.6-5.5,3.6c-0.4,0-0.8,0-1.2-0.1c0,0,0,0,0,0c-2.5-0.4-3.8-1.8-4.3-2.3c0,0-0.1-0.2-0.1-0.2
				c-0.1-0.2-0.4-0.4-0.6-0.5l-9.1-3.1c-1.5-0.5-2.2-1.8-1.9-3c0,0,0,0,0,0c0,0,0,0,0,0c0.2-0.6,0.5-1,1.1-1.3
				c0.5-0.3,1.1-0.4,1.7-0.2l10.3,3.3c0.6,0.2,1.3-0.1,1.4-0.7c0.2-0.6-0.1-1.3-0.7-1.4l-8.2-2.6l-0.1-0.1c0,0,0,0,0,0l-4.2-4.2
				l3.6-1.3c0,0,0,0,0,0c0,0,0,0,0,0c0,0,0,0,0,0c2.5-1.1,4.8-0.5,5.7-0.1c3.5,1.6,5.3,2.6,6.7,3.4c1.9,1.1,2.8,1.6,5.3,1.8V19.2z
				 M61.3,18.5h-2.1v-10h2.1V18.5z M68.1,18.5h-4.5V6.3h4.5V18.5z"/>
		</g>
	</g>
</g>
</svg>
