<?xml version="1.0" encoding="utf-8"?>
<!-- Generator: Adobe Illustrator 24.1.1, SVG Export Plug-In . SVG Version: 6.00 Build 0)  -->
<svg version="1.1" id="Layer_1" xmlns="http://www.w3.org/2000/svg" xmlns:xlink="http://www.w3.org/1999/xlink" x="0px" y="0px"
	 viewBox="0 0 82 59" style="enable-background:new 0 0 82 59;" xml:space="preserve">
<style type="text/css">
	.st0{fill:#FC6A55;}
	.st1{fill:#EDEDED;}
	.st2{fill:none;stroke:#FC6A55;stroke-miterlimit:10;}
	.st3{fill:#222F3F;}
	.st4{fill:#383838;}
	.st5{fill:#FFFFFF;}
	.st6{fill:#656D7A;}
	.st7{fill:#C4C4C4;}
	.st8{filter:url(#Adobe_OpacityMaskFilter);}
	.st9{fill-rule:evenodd;clip-rule:evenodd;fill:#FFFFFF;}
	.st10{mask:url(#mask-2_8_);fill-rule:evenodd;clip-rule:evenodd;}
	.st11{filter:url(#Adobe_OpacityMaskFilter_1_);}
	.st12{mask:url(#mask-2_7_);fill-rule:evenodd;clip-rule:evenodd;}
	.st13{filter:url(#Adobe_OpacityMaskFilter_2_);}
	.st14{mask:url(#mask-2_6_);fill-rule:evenodd;clip-rule:evenodd;}
	.st15{filter:url(#Adobe_OpacityMaskFilter_3_);}
	.st16{mask:url(#mask-2_5_);fill-rule:evenodd;clip-rule:evenodd;}
	.st17{filter:url(#Adobe_OpacityMaskFilter_4_);}
	.st18{mask:url(#mask-2_2_);fill:none;stroke:#000000;stroke-width:1.5;stroke-miterlimit:10;}
	.st19{fill:#B4A3EE;}
	.st20{fill:#434343;}
	.st21{fill:#434343;stroke:#F9F9F9;stroke-width:0.25;stroke-miterlimit:10;}
	.st22{fill:none;stroke:#FC6A55;stroke-width:0.5;stroke-miterlimit:10;}
	.st23{fill:none;stroke:#FC6A55;stroke-width:0.75;stroke-miterlimit:10;}
	.st24{fill:#FC6A55;stroke:#FC6A55;stroke-width:0.5;stroke-miterlimit:10;}
	.st25{opacity:0.153;fill:url(#Path_36_);enable-background:new    ;}
	.st26{opacity:0.1;fill:#590BB2;enable-background:new    ;}
	.st27{fill:#8E8CA8;}
	.st28{fill:#F5F4F9;}
	.st29{fill:#FFD5B8;}
	.st30{fill:#FC8473;}
	.st31{fill:#1C3475;}
	.st32{fill:#DDD9E4;}
	.st33{fill:#828FB3;}
	.st34{opacity:7.584635e-02;fill:url(#Path_37_);enable-background:new    ;}
	.st35{fill:#FFBE92;}
	.st36{fill:#FB8E7F;}
	.st37{fill:#FDB1A6;}
	.st38{fill:#FC806F;}
	.st39{fill:#FFE783;}
	.st40{fill:#104478;}
	.st41{fill:none;stroke:#FFFFFF;stroke-miterlimit:10;}
	.st42{fill:none;stroke:#000000;stroke-width:0.15;stroke-miterlimit:10;}
	.st43{opacity:0.1;fill:url(#Path_38_);enable-background:new    ;}
	.st44{opacity:0.1;fill:url(#Path_39_);enable-background:new    ;}
	.st45{fill-rule:evenodd;clip-rule:evenodd;fill:#FC6A55;}
	.st46{fill-rule:evenodd;clip-rule:evenodd;}
	.st47{fill:#FF6757;}
	.st48{fill:#666666;}
	.st49{fill:none;stroke:#FFFFFF;stroke-width:0.5;stroke-miterlimit:10;}
	.st50{fill:#F16A56;}
	.st51{fill:#515252;}
	.st52{fill:#F26A56;}
	.st53{fill:none;stroke:#F16A56;stroke-miterlimit:10;}
	.st54{fill:none;stroke:#929292;stroke-miterlimit:10;}
	.st55{fill:#929292;}
	.st56{fill:none;stroke:#000000;stroke-width:0.5;stroke-miterlimit:10;}
	.st57{fill:#A8A7A7;}
	.st58{fill:#F79F91;}
	.st59{fill:#9BDBD5;}
	.st60{fill:#222121;}
</style>
<g>
	<path class="st0" d="M78.8,48.4l-5.1-5.1V0.1H1.6v48.1h24.9l-5.8,7.5c-0.8,0.9-0.6,3.1,1.6,3.2H53c2.2-0.2,2.3-2.4,1.6-3.2
		l-5.8-7.5h14.6l7.7,7.7c3.3,2.9,6.5,1,7.6,0C79.8,54.9,81.9,51.7,78.8,48.4z M51.7,56.2h-28l6.2-8h15.6L51.7,56.2z M4.3,45.5
		L4.3,45.5V2.8h66.8v37.9l-5-5l-0.9,0.9l-1.8-1.8c2.3-2.9,3.7-6.7,3.7-10.7c0-9.6-7.8-17.4-17.4-17.4s-17.4,7.8-17.4,17.4
		s7.8,17.4,17.4,17.4c2.6,0,5.1-0.6,7.4-1.7l2.5,2.5l-0.9,0.9l2.3,2.3L4.3,45.5L4.3,45.5z M39.7,25.5L39.7,25.5l2.9-3.9l4.2,11.3
		l4.2-8.4l3.8,7.6l4.9-6.5h4.6c-0.7,7.5-7,13.4-14.6,13.4s-14-5.9-14.6-13.4L39.7,25.5L39.7,25.5z M35.1,22.8
		c0.7-7.5,7-13.4,14.6-13.4s14,5.9,14.6,13.4h-5.9l-3.1,4.1L51,18.5l-3.8,7.7L43.4,16l-5.1,6.8H35.1z M59.5,38.5
		c0.7-0.5,1.4-1.1,2.1-1.7l1.7,1.7l-1.9,1.9L59.5,38.5z M76.9,54.1c-1,1-2.8,1-3.8,0L62.3,43.2l3.8-3.8l10.8,10.8
		C78.4,51.8,77.4,53.5,76.9,54.1z"/>
	<g>
		<g>
			<path class="st0" d="M29.3,10.3v-4h-8.1v4h-4v8.1h4v4h8.1v-4h4v-8.1H29.3z M30.6,15.7h-4v4h-2.7v-4h-4V13h4V9h2.7v4h4V15.7z"/>
		</g>
	</g>
	<g>
		<g>
			<rect x="17.3" y="29.1" class="st0" width="21.5" height="2.7"/>
		</g>
	</g>
	<g>
		<g>
			<rect x="17.3" y="37.1" class="st0" width="12.1" height="2.7"/>
		</g>
	</g>
	<ellipse class="st5" cx="50" cy="24" rx="15" ry="14.5"/>
	<path class="st0" d="M39,15.5h22v1H39V15.5z"/>
	<path class="st0" d="M39,18.5h22v1H39V18.5z"/>
	<path class="st0" d="M39,21.5h22v1H39V21.5z"/>
	<path class="st0" d="M39,24.5h22v1H39V24.5z"/>
	<path class="st0" d="M39,27.5h22v1H39V27.5z"/>
	<path class="st0" d="M39,30.5h11v1H39V30.5z"/>
</g>
</svg>
