<?xml version="1.0" encoding="utf-8"?>
<!-- Generator: Adobe Illustrator 24.1.1, SVG Export Plug-In . SVG Version: 6.00 Build 0)  -->
<svg version="1.1" id="Layer_1" xmlns="http://www.w3.org/2000/svg" xmlns:xlink="http://www.w3.org/1999/xlink" x="0px" y="0px"
	 viewBox="0 0 42 42" style="enable-background:new 0 0 42 42;" xml:space="preserve">
<style type="text/css">
	.st0{fill:#FC6A55;}
	.st1{fill:#EDEDED;}
	.st2{fill:none;stroke:#FC6A55;stroke-miterlimit:10;}
	.st3{fill:#222F3F;}
	.st4{fill:#383838;}
	.st5{fill:#FFFFFF;}
	.st6{stroke:#FFFFFF;stroke-width:0.25;stroke-miterlimit:10;}
	.st7{fill:#656D7A;}
	.st8{filter:url(#Adobe_OpacityMaskFilter);}
	.st9{fill-rule:evenodd;clip-rule:evenodd;fill:#FFFFFF;}
	.st10{mask:url(#mask-2_8_);fill-rule:evenodd;clip-rule:evenodd;}
	.st11{filter:url(#Adobe_OpacityMaskFilter_1_);}
	.st12{mask:url(#mask-2_7_);fill-rule:evenodd;clip-rule:evenodd;}
	.st13{filter:url(#Adobe_OpacityMaskFilter_2_);}
	.st14{mask:url(#mask-2_6_);fill-rule:evenodd;clip-rule:evenodd;}
	.st15{filter:url(#Adobe_OpacityMaskFilter_3_);}
	.st16{mask:url(#mask-2_5_);fill-rule:evenodd;clip-rule:evenodd;}
	.st17{filter:url(#Adobe_OpacityMaskFilter_4_);}
	.st18{mask:url(#mask-2_2_);fill:none;stroke:#000000;stroke-width:2;}
	.st19{fill:#B4A3EE;}
	.st20{fill:#434343;}
	.st21{fill:#434343;stroke:#F9F9F9;stroke-width:0.25;stroke-miterlimit:10;}
	.st22{fill:none;stroke:#FC6A55;stroke-width:0.5;stroke-miterlimit:10;}
	.st23{fill:none;stroke:#FC6A55;stroke-width:0.75;stroke-miterlimit:10;}
	.st24{fill:#FC6A55;stroke:#FC6A55;stroke-width:0.5;stroke-miterlimit:10;}
	.st25{opacity:0.153;fill:url(#Path_36_);enable-background:new    ;}
	.st26{opacity:0.1;fill:#590BB2;enable-background:new    ;}
	.st27{fill:#8E8CA8;}
	.st28{fill:#F5F4F9;}
	.st29{fill:#FFD5B8;}
	.st30{fill:#FC8473;}
	.st31{fill:#1C3475;}
	.st32{fill:#DDD9E4;}
	.st33{fill:#828FB3;}
	.st34{opacity:7.584635e-02;fill:url(#Path_37_);enable-background:new    ;}
	.st35{fill:#FFBE92;}
	.st36{fill:#FB8E7F;}
	.st37{fill:#FDB1A6;}
	.st38{fill:#FC806F;}
	.st39{fill:#FFE783;}
	.st40{fill:#104478;}
	.st41{fill:none;stroke:#FFFFFF;stroke-miterlimit:10;}
	.st42{fill:none;stroke:#000000;stroke-width:0.15;stroke-miterlimit:10;}
	.st43{opacity:0.1;fill:url(#Path_38_);enable-background:new    ;}
	.st44{opacity:0.1;fill:url(#Path_39_);enable-background:new    ;}
	.st45{fill-rule:evenodd;clip-rule:evenodd;fill:#FC6A55;}
	.st46{fill-rule:evenodd;clip-rule:evenodd;}
	.st47{fill:#FF6757;}
	.st48{fill:#666666;}
	.st49{fill:none;stroke:#FFFFFF;stroke-width:0.5;stroke-miterlimit:10;}
	.st50{fill:#F16A56;}
	.st51{fill:#515252;}
	.st52{fill:#F26A56;}
	.st53{fill:none;stroke:#F16A56;stroke-miterlimit:10;}
	.st54{fill:none;stroke:#929292;stroke-miterlimit:10;}
	.st55{fill:#929292;}
	.st56{fill:none;stroke:#000000;stroke-width:0.5;stroke-miterlimit:10;}
	.st57{fill:#A8A7A7;}
	.st58{fill:#F79F91;}
	.st59{fill:#9BDBD5;}
	.st60{fill:#222121;}
</style>
<g>
	<path class="st3" d="M16.7,31.8c-0.3,0.1-0.6,0.4-0.5,0.7c0.1,0.3,0.1,0.6,0.1,0.9V39H1.2v-5.5c0-2.9,2.3-5.2,5.2-5.2h0.8L5.6,34
		c-0.1,0.2,0,0.4,0.2,0.6l2.6,2.7c0.1,0.1,0.3,0.2,0.4,0.2s0.3-0.1,0.4-0.2l2.6-2.7C12,34.5,12,34.2,12,34l-1.7-5.7h0.8
		c1.7,0,3.3,0.8,4.3,2.3c0.2,0.3,0.6,0.4,0.9,0.2c0.3-0.2,0.4-0.6,0.2-0.9c-1.2-1.7-3.2-2.8-5.3-2.8H9.5H8.1H6.4
		c-3.5,0-6.4,2.9-6.4,6.4v6.1c0,0.3,0.3,0.6,0.6,0.6h16.3c0.3,0,0.6-0.3,0.6-0.6v-6.1c0-0.4,0-0.8-0.1-1.1
		C17.4,32,17.1,31.8,16.7,31.8z M9,28.3l1.7,5.7l-1.9,2l-1.9-2l1.7-5.7H9z"/>
	<path class="st3" d="M8.8,25.8c4,0,7.3-3.3,7.3-7.3v-1.9v-1.3c0-0.1,0-0.1,0-0.2c0,0,0,0,0,0c0-0.1,0-0.1,0-0.2c0,0,0,0,0,0
		c0-0.1,0-0.1,0-0.2c0,0,0,0,0,0c0-0.1,0-0.1,0-0.2c0,0,0,0,0,0c0-0.1,0-0.1,0-0.2c0,0,0,0,0,0c-0.1-0.7-0.3-1.4-0.6-2c0,0,0,0,0,0
		c0,0,0-0.1-0.1-0.1c0,0,0-0.1,0-0.1c0,0,0,0,0-0.1c0,0,0-0.1-0.1-0.1c0,0,0,0,0,0c0,0,0-0.1-0.1-0.1c0,0,0,0,0,0
		c-0.4-0.7-0.9-1.3-1.5-1.9c0,0,0,0,0,0c0,0-0.1,0-0.1-0.1c0,0,0,0-0.1,0c-0.1,0-0.1-0.1-0.2-0.1c0,0-0.1-0.1-0.1-0.1
		c0,0-0.1-0.1-0.1-0.1c-0.1,0-0.1-0.1-0.2-0.1c0,0,0,0-0.1,0c-0.1-0.1-0.2-0.1-0.2-0.1c0,0,0,0,0,0c-0.9-0.5-1.9-0.9-3-1
		c0,0,0,0,0,0c-0.1,0-0.2,0-0.3,0c0,0,0,0,0,0C9,8,8.9,8,8.8,8C7,8,5.3,8.7,3.9,9.9c-0.3,0.2-0.3,0.6,0,0.9c0.2,0.3,0.6,0.3,0.9,0
		c1.1-1,2.5-1.5,4-1.5c0.1,0,0.2,0,0.3,0c0,0,0.1,0,0.1,0c0.1,0,0.1,0,0.2,0c0.1,0,0.1,0,0.2,0c0,0,0.1,0,0.1,0c0.1,0,0.1,0,0.2,0
		c0,0,0,0,0.1,0c0.1,0,0.1,0,0.2,0c0,0,0,0,0,0c0.5,0.1,1,0.3,1.4,0.5c0,0,0,0,0.1,0c0.1,0,0.1,0.1,0.2,0.1c0,0,0.1,0,0.1,0.1
		c0,0,0.1,0.1,0.1,0.1c0,0,0.1,0.1,0.1,0.1c0,0,0.1,0,0.1,0.1c0.1,0,0.1,0.1,0.2,0.1c0,0,0,0,0.1,0c0.1,0,0.1,0.1,0.2,0.1
		c0,0,0,0,0,0c0,0,0.1,0.1,0.1,0.1c0,0,0.1,0.1,0.1,0.1c0,0,0.1,0.1,0.1,0.1c0,0,0.1,0.1,0.1,0.1c0,0,0.1,0.1,0.1,0.1
		c0,0,0.1,0.1,0.1,0.1c0,0,0.1,0.1,0.1,0.1c0,0,0,0.1,0.1,0.1c0.1,0.2,0.3,0.3,0.4,0.5c0,0,0.1,0.1,0.1,0.1c0,0,0,0.1,0.1,0.1
		c0,0.1,0.1,0.1,0.1,0.2c0,0,0,0.1,0.1,0.1c0,0.1,0.1,0.1,0.1,0.2c0,0,0,0.1,0,0.1c0,0.1,0.1,0.1,0.1,0.2c0,0,0,0.1,0,0.1
		c0,0.1,0.1,0.1,0.1,0.2c0,0,0,0.1,0,0.1c0,0.1,0,0.1,0.1,0.2c0,0,0,0.1,0,0.1c0,0.1,0,0.2,0.1,0.2c0,0,0,0,0,0.1c0,0.1,0,0.2,0,0.2
		c0,0,0,0,0,0.1c0,0.1,0,0.2,0,0.2c0,0,0,0.1,0,0.1c0,0.1,0,0.2,0,0.2c0,0,0,0,0,0.1c0,0.1,0,0.2,0,0.3v0.5
		c-1.3-0.3-2.4-1.1-3.1-2.2c-0.1-0.2-0.3-0.3-0.5-0.3c-0.2,0-0.4,0.1-0.5,0.2C9.4,15.1,7.4,16,5.3,16c-0.9,0-1.8-0.2-2.6-0.5v-0.2
		c0-0.9,0.2-1.8,0.6-2.7c0.1-0.3,0-0.7-0.3-0.8c-0.3-0.2-0.7,0-0.8,0.3c-0.5,1-0.7,2.1-0.7,3.2v0.6v2.6C1.5,22.5,4.8,25.8,8.8,25.8z
		 M2.7,16.8c0.8,0.3,1.7,0.4,2.6,0.4c2.2,0,4.2-0.8,5.8-2.3c0.9,1.1,2.2,1.9,3.7,2.2v1.4c0,3.3-2.7,6-6,6s-6-2.7-6-6L2.7,16.8
		L2.7,16.8z"/>
	<path class="st3" d="M8.8,21h0.8c0.3,0,0.6-0.3,0.6-0.6c0-0.3-0.3-0.6-0.6-0.6H9.4v-1.4c0-0.3-0.3-0.6-0.6-0.6
		c-0.3,0-0.6,0.3-0.6,0.6v2.1C8.2,20.8,8.4,21,8.8,21z"/>
	<path class="st3" d="M11.5,4.9c2.2,0,4.4,0.3,6.5,1c0.1,0,0.1,0,0.2,0c0.2,0,0.5-0.1,0.6-0.4L20,2.7c0.1-0.2,0.1-0.4-0.1-0.6
		c-0.1-0.2-0.3-0.3-0.5-0.3c-0.6,0-1.2,0.1-1.8,0.1c-2.2,0.3-4.3,0.9-6.4,1.8c-0.3,0.1-0.4,0.4-0.3,0.7C11,4.7,11.2,4.9,11.5,4.9z
		 M17.8,3.2c0.2,0,0.5-0.1,0.7-0.1l-0.6,1.5c-1.1-0.3-2.2-0.6-3.3-0.7C15.6,3.5,16.7,3.3,17.8,3.2z"/>
	<path class="st3" d="M42,22.6c0-0.2-0.1-0.3-0.2-0.4C41.6,22,41.5,22,41.3,22L32,23.1c-0.3,0-0.6,0.3-0.5,0.6c0,0.1,0,0.3,0,0.4
		c0,0.3,0.3,0.6,0.6,0.6c0.3,0,0.5-0.2,0.6-0.5l8.1-1c0,3.5-0.8,6.9-2.5,10l-6.4-2.7c0.2-0.5,0.3-1.1,0.4-1.7
		c1.9,0.5,3.2,0.8,3.5,0.9c0,0,0,0,0.1,0c0.1,0,0.1,0,0.2,0c0.3,0,0.6-0.1,0.8-0.4c0.2-0.2,0.3-0.5,0.2-0.8c0-0.3-0.2-0.5-0.4-0.7
		c-0.1,0-0.1-0.1-0.2-0.1c0,0,0,0-0.1,0c-0.7-0.3-8.1-3.4-12.6-5.3c-0.5-1.7-2.2-2.8-4-2.6c-2,0.3-3.5,2.1-3.2,4.1
		c0.2,1.9,1.8,3.3,3.7,3.3c0.2,0,0.3,0,0.5,0c0.6-0.1,1.2-0.3,1.8-0.7l8.6,2.1c-0.1,0.7-0.3,1.4-0.6,2.1c-0.1,0.3,0,0.6,0.3,0.8
		l7.5,3.2c0.1,0,0.2,0,0.2,0c0.2,0,0.4-0.1,0.5-0.3C41.2,30.8,42.2,26.7,42,22.6z M20.6,26c-0.1,0-0.2,0-0.3,0
		c-1.2,0-2.3-0.9-2.5-2.2c-0.2-1.4,0.8-2.6,2.2-2.8c0.1,0,0.2,0,0.3,0c1.2,0,2.2,0.8,2.4,2c0,0.1,0,0.1,0,0.2
		c0.1,0.8-0.2,1.6-0.8,2.1c0,0,0,0,0,0C21.6,25.7,21.1,25.9,20.6,26z M23.5,25.4C23.5,25.4,23.5,25.4,23.5,25.4
		c0.1-0.1,0.1-0.2,0.1-0.2c0,0,0-0.1,0-0.1c0,0,0-0.1,0.1-0.1c0,0,0-0.1,0-0.1c0,0,0-0.1,0-0.1c0,0,0-0.1,0-0.1c0,0,0-0.1,0-0.1
		c0,0,0-0.1,0-0.1c0,0,0-0.1,0-0.1c0,0,0-0.1,0-0.1c0,0,0-0.1,0-0.1c0,0,0-0.1,0-0.1c0,0,0-0.1,0-0.1c0,0,0-0.1,0-0.1c0,0,0,0,0-0.1
		c3.2,1.3,7.6,3.2,10.1,4.2c-0.7-0.2-1.5-0.4-2.4-0.6L23.5,25.4C23.5,25.4,23.5,25.4,23.5,25.4z"/>
	<path class="st3" d="M36.9,36.3L30,33.4c-0.3-0.1-0.6,0-0.8,0.3c-1.1,2.1-2.5,3.9-4.2,5.4c-0.2,0.2-0.3,0.4-0.2,0.7
		c0.1,0.2,0.3,0.4,0.6,0.4H34c0.1,0,0.3-0.1,0.4-0.1c1-0.8,1.9-1.8,2.7-2.8c0.1-0.1,0.2-0.3,0.1-0.5C37.2,36.5,37,36.4,36.9,36.3z
		 M33.7,39h-6.8c1.2-1.3,2.3-2.7,3.1-4.2l5.6,2.4C35,37.8,34.4,38.4,33.7,39z"/>
	<path class="st3" d="M21,7.2c2.1,1.1,3.9,2.5,5.5,4.3c0.1,0.1,0.3,0.2,0.5,0.2c0.1,0,0.3,0,0.4-0.1l5.9-4.5
		c0.2-0.1,0.2-0.3,0.2-0.5s-0.1-0.4-0.2-0.5c-3-2.2-6.5-3.7-10.2-4.1c-0.3,0-0.5,0.1-0.6,0.4l-1.7,4C20.6,6.7,20.7,7,21,7.2z
		 M23.4,3.3c3,0.5,5.9,1.6,8.5,3.3L27,10.2c-1.5-1.5-3.1-2.8-5-3.9L23.4,3.3z"/>
	<path class="st3" d="M28.5,14.1c1.3,2,2.1,4.2,2.6,6.5c0.1,0.3,0.3,0.5,0.6,0.5c0,0,0.1,0,0.1,0l9.3-1.1c0.2,0,0.3-0.1,0.4-0.3
		c0.1-0.1,0.1-0.3,0.1-0.5c-0.8-4-2.8-7.8-5.7-10.7c-0.2-0.2-0.6-0.3-0.8-0.1l-6.5,4.9C28.4,13.4,28.3,13.8,28.5,14.1z M35.4,9.7
		c2.4,2.6,4,5.7,4.8,9.1l-8,1c-0.5-2.1-1.3-4-2.4-5.8L35.4,9.7z"/>
</g>
</svg>
