<?xml version="1.0" encoding="utf-8"?>
<!-- Generator: Adobe Illustrator 24.1.1, SVG Export Plug-In . SVG Version: 6.00 Build 0)  -->
<svg version="1.1" id="Layer_1" xmlns="http://www.w3.org/2000/svg" xmlns:xlink="http://www.w3.org/1999/xlink" x="0px" y="0px"
	 viewBox="0 0 42 42" style="enable-background:new 0 0 42 42;" xml:space="preserve">
<style type="text/css">
	.st0{fill:#FC6A55;}
	.st1{fill:#EDEDED;}
	.st2{fill:none;stroke:#FC6A55;stroke-miterlimit:10;}
	.st3{fill:#222F3F;}
	.st4{fill:#383838;}
	.st5{fill:#FFFFFF;}
	.st6{stroke:#FFFFFF;stroke-width:0.25;stroke-miterlimit:10;}
	.st7{fill:#656D7A;}
	.st8{filter:url(#Adobe_OpacityMaskFilter);}
	.st9{fill-rule:evenodd;clip-rule:evenodd;fill:#FFFFFF;}
	.st10{mask:url(#mask-2_8_);fill-rule:evenodd;clip-rule:evenodd;}
	.st11{filter:url(#Adobe_OpacityMaskFilter_1_);}
	.st12{mask:url(#mask-2_7_);fill-rule:evenodd;clip-rule:evenodd;}
	.st13{filter:url(#Adobe_OpacityMaskFilter_2_);}
	.st14{mask:url(#mask-2_6_);fill-rule:evenodd;clip-rule:evenodd;}
	.st15{filter:url(#Adobe_OpacityMaskFilter_3_);}
	.st16{mask:url(#mask-2_5_);fill-rule:evenodd;clip-rule:evenodd;}
	.st17{filter:url(#Adobe_OpacityMaskFilter_4_);}
	.st18{mask:url(#mask-2_2_);fill:none;stroke:#000000;stroke-width:2;}
	.st19{fill:#B4A3EE;}
	.st20{fill:#434343;}
	.st21{fill:#434343;stroke:#F9F9F9;stroke-width:0.25;stroke-miterlimit:10;}
	.st22{fill:none;stroke:#FC6A55;stroke-width:0.5;stroke-miterlimit:10;}
	.st23{fill:none;stroke:#FC6A55;stroke-width:0.75;stroke-miterlimit:10;}
	.st24{fill:#FC6A55;stroke:#FC6A55;stroke-width:0.5;stroke-miterlimit:10;}
	.st25{opacity:0.153;fill:url(#Path_36_);enable-background:new    ;}
	.st26{opacity:0.1;fill:#590BB2;enable-background:new    ;}
	.st27{fill:#8E8CA8;}
	.st28{fill:#F5F4F9;}
	.st29{fill:#FFD5B8;}
	.st30{fill:#FC8473;}
	.st31{fill:#1C3475;}
	.st32{fill:#DDD9E4;}
	.st33{fill:#828FB3;}
	.st34{opacity:7.584635e-02;fill:url(#Path_37_);enable-background:new    ;}
	.st35{fill:#FFBE92;}
	.st36{fill:#FB8E7F;}
	.st37{fill:#FDB1A6;}
	.st38{fill:#FC806F;}
	.st39{fill:#FFE783;}
	.st40{fill:#104478;}
	.st41{fill:none;stroke:#FFFFFF;stroke-miterlimit:10;}
	.st42{fill:none;stroke:#000000;stroke-width:0.15;stroke-miterlimit:10;}
	.st43{opacity:0.1;fill:url(#Path_38_);enable-background:new    ;}
	.st44{opacity:0.1;fill:url(#Path_39_);enable-background:new    ;}
	.st45{fill-rule:evenodd;clip-rule:evenodd;fill:#FC6A55;}
	.st46{fill-rule:evenodd;clip-rule:evenodd;}
	.st47{fill:#FF6757;}
	.st48{fill:#666666;}
	.st49{fill:none;stroke:#FFFFFF;stroke-width:0.5;stroke-miterlimit:10;}
	.st50{fill:#F16A56;}
	.st51{fill:#515252;}
	.st52{fill:#F26A56;}
	.st53{fill:none;stroke:#F16A56;stroke-miterlimit:10;}
	.st54{fill:none;stroke:#929292;stroke-miterlimit:10;}
	.st55{fill:#929292;}
	.st56{fill:none;stroke:#000000;stroke-width:0.5;stroke-miterlimit:10;}
	.st57{fill:#A8A7A7;}
	.st58{fill:#F79F91;}
	.st59{fill:#9BDBD5;}
	.st60{fill:#222121;}
</style>
<g id="final-design_2_">
	<g id="invensis.net-2.0-index-page_2_" transform="translate(-940.000000, -6717.000000)">
		<g id="Group-32" transform="translate(412.000000, 6689.000000)">
			<g id="Group-31">
				<g id="email" transform="translate(528.000000, 28.000000)">
					<path id="Shape_10_" class="st5" d="M27.3,27l-2-2l-2.5,2.5L22.5,28l4.9,5l8.8-9l-2.9-3L27.3,27z M27.3,31l-2.9-3l1-1l2,2
						l5.9-6l1,1L27.3,31z"/>
					<path id="Shape_8_" class="st5" d="M42,3H0v27.4h17.9c1.3,5.1,5.7,8.6,10.8,8.6s9.6-3.6,10.8-8.6H42V3z M38.8,22.5
						c-0.1-0.1-0.1-0.2-0.2-0.3c-0.1-0.2-0.2-0.3-0.3-0.5c-0.1-0.1-0.1-0.2-0.2-0.3c0-0.1-0.1-0.1-0.1-0.2c-0.1-0.1-0.1-0.2-0.2-0.3
						c-0.1-0.1-0.1-0.2-0.2-0.3c-0.1-0.1-0.1-0.2-0.2-0.3c-0.1-0.1-0.2-0.2-0.3-0.3c-0.2-0.2-0.3-0.4-0.5-0.6
						c-0.1-0.1-0.2-0.2-0.2-0.2c-0.2-0.2-0.4-0.4-0.6-0.5c-0.1-0.1-0.1-0.1-0.2-0.2c-0.2-0.2-0.4-0.3-0.6-0.5
						c-0.1-0.1-0.2-0.2-0.4-0.2c-0.1-0.1-0.3-0.2-0.4-0.3c-0.1,0-0.1-0.1-0.2-0.1L34,17.3c-0.3-0.1-0.5-0.3-0.8-0.4c0,0-0.1,0-0.1,0
						c-0.1,0-0.1,0-0.2-0.1c-0.2-0.1-0.3-0.1-0.5-0.2c-0.1,0-0.1,0-0.2-0.1c-0.2-0.1-0.4-0.1-0.7-0.2c-0.2,0-0.3-0.1-0.5-0.1
						c-0.2,0-0.4-0.1-0.6-0.1c-0.1,0-0.3-0.1-0.4-0.1c-0.1,0-0.2,0-0.3,0c-0.1,0-0.1,0-0.2,0c-0.3,0-0.7-0.1-1.1-0.1h-0.1l-2.5-1.7
						L40.6,5v19L39,22.9C38.9,22.8,38.8,22.6,38.8,22.5L38.8,22.5z M15.9,14.3L1.4,24V5L15.9,14.3z M3.2,4.4h35.7L21,15.8L3.2,4.4z
						 M17.6,28.9H1.4v-3.2l15.8-10.6l0-0.1l3.9,2.5l3.9-2.5l0,0.1l1.6,1.1c-0.3,0.1-0.6,0.2-1,0.3c-0.1,0-0.2,0.1-0.3,0.1
						c-0.2,0.1-0.4,0.2-0.7,0.2c-0.1,0-0.2,0.1-0.3,0.1c-0.2,0.1-0.4,0.2-0.6,0.3c-0.1,0-0.2,0.1-0.3,0.1c-0.1,0-0.1,0.1-0.2,0.1
						c-0.1,0.1-0.2,0.1-0.3,0.2c-0.2,0.1-0.4,0.3-0.7,0.5c-0.1,0.1-0.3,0.2-0.4,0.3c-0.2,0.2-0.4,0.4-0.6,0.5
						c-0.1,0.1-0.2,0.2-0.3,0.3c-0.3,0.3-0.6,0.6-0.8,0.9c0,0-0.1,0.1-0.1,0.1c-0.2,0.3-0.4,0.6-0.6,0.9c0,0,0,0.1-0.1,0.1
						c-0.1,0.1-0.1,0.2-0.2,0.3l0,0.1c0,0,0,0.1-0.1,0.1c-0.1,0.2-0.3,0.5-0.4,0.8c-0.1,0.1-0.1,0.2-0.2,0.4
						c-0.2,0.4-0.3,0.7-0.4,1.1c0,0.1-0.1,0.3-0.1,0.4c-0.1,0.3-0.1,0.5-0.2,0.8c0,0.2-0.1,0.3-0.1,0.5c0,0.2-0.1,0.5-0.1,0.7
						c0,0.1,0,0.1,0,0.2c0,0.3,0,0.5,0,0.8c0,0.4,0,0.7,0.1,1.1c0,0.1,0,0.1,0,0.2C17.6,28.8,17.6,28.9,17.6,28.9L17.6,28.9z
						 M28.7,37.6c-5.4,0-9.8-4.5-9.8-10.1c0-0.3,0-0.6,0-0.9c0-0.2,0-0.4,0.1-0.6c0-0.2,0-0.3,0.1-0.5c0-0.2,0.1-0.4,0.2-0.6
						c0-0.1,0.1-0.3,0.1-0.4c0.1-0.3,0.2-0.7,0.4-1c0-0.1,0.1-0.2,0.1-0.3c0.1-0.2,0.2-0.5,0.3-0.7c0.1-0.2,0.2-0.3,0.3-0.5
						c0.2-0.3,0.4-0.6,0.6-0.9c0,0,0,0,0,0c0.2-0.3,0.5-0.6,0.7-0.8c0.1-0.1,0.2-0.2,0.2-0.2c0.2-0.2,0.4-0.3,0.6-0.5
						c0.1-0.1,0.2-0.2,0.3-0.3c0.2-0.1,0.4-0.3,0.6-0.4c0.1-0.1,0.2-0.2,0.4-0.2c0.1,0,0.2-0.1,0.3-0.1c0.2-0.1,0.4-0.2,0.5-0.3
						c0.1,0,0.2-0.1,0.3-0.1c0.2-0.1,0.4-0.2,0.6-0.2c0.1,0,0.2-0.1,0.3-0.1c0.6-0.2,1.2-0.3,1.8-0.4c0.1,0,0.3,0,0.4,0
						c0.2,0,0.4,0,0.6,0h0.1c0.3,0,0.6,0,0.9,0l0.1,0c0.2,0,0.4,0.1,0.6,0.1c0.2,0,0.3,0.1,0.5,0.1c0.1,0,0.3,0.1,0.4,0.1
						c0.2,0.1,0.4,0.1,0.6,0.2c0.2,0.1,0.4,0.1,0.6,0.2c0,0,0.1,0,0.1,0.1c0.3,0.1,0.5,0.2,0.8,0.4l0.1,0c0.2,0.1,0.4,0.2,0.5,0.3
						c0.1,0.1,0.2,0.1,0.3,0.2c0.2,0.1,0.4,0.3,0.5,0.4c0.1,0.1,0.1,0.1,0.2,0.2c0.2,0.2,0.3,0.3,0.5,0.5c0.1,0.1,0.1,0.1,0.2,0.2
						c0.1,0.2,0.3,0.3,0.4,0.5c0.1,0.1,0.2,0.2,0.2,0.3c0.1,0.2,0.3,0.3,0.4,0.5c0.1,0.1,0.1,0.2,0.2,0.3c0.1,0.1,0.1,0.2,0.2,0.4
						c0.1,0.2,0.2,0.3,0.3,0.5c0,0.1,0.1,0.2,0.1,0.2c0.1,0.2,0.2,0.4,0.3,0.6c0.1,0.1,0.1,0.3,0.2,0.4c0,0.1,0.1,0.2,0.1,0.3
						c0,0.1,0,0.2,0.1,0.3c0.1,0.2,0.1,0.4,0.2,0.6c0,0.1,0,0.2,0,0.3c0,0.2,0.1,0.5,0.1,0.7c0,0.1,0,0.2,0,0.3c0,0.3,0,0.6,0,0.9
						C38.5,33,34.1,37.6,28.7,37.6L28.7,37.6z M39.8,28.9c0-0.1,0-0.1,0-0.2c0-0.1,0-0.1,0-0.2c0-0.4,0.1-0.7,0.1-1.1
						c0-0.3,0-0.5,0-0.8c0-0.1,0-0.2,0-0.3c0-0.1,0-0.2,0-0.3c0-0.3-0.1-0.5-0.1-0.8c0-0.1,0-0.2-0.1-0.3l0.9,0.6v3.2H39.8z"/>
				</g>
			</g>
		</g>
	</g>
</g>
</svg>
