<?xml version="1.0" encoding="utf-8"?>
<!-- Generator: Adobe Illustrator 24.0.2, SVG Export Plug-In . SVG Version: 6.00 Build 0)  -->
<svg version="1.1" id="Layer_1" xmlns="http://www.w3.org/2000/svg" xmlns:xlink="http://www.w3.org/1999/xlink" x="0px" y="0px"
	 viewBox="0 0 18 24" style="enable-background:new 0 0 18 24;" xml:space="preserve">
<style type="text/css">
	.st0{fill:#FC6A55;}
	.st1{fill:#EDEDED;}
	.st2{fill:none;stroke:#FC6A55;stroke-miterlimit:10;}
	.st3{stroke:#FFFFFF;stroke-width:0.25;stroke-miterlimit:10;}
	.st4{fill:#656D7A;}
	.st5{fill:#FFFFFF;}
	.st6{filter:url(#Adobe_OpacityMaskFilter);}
	.st7{fill-rule:evenodd;clip-rule:evenodd;fill:#FFFFFF;}
	.st8{mask:url(#mask-2_8_);fill-rule:evenodd;clip-rule:evenodd;}
	.st9{filter:url(#Adobe_OpacityMaskFilter_1_);}
	.st10{mask:url(#mask-2_7_);fill-rule:evenodd;clip-rule:evenodd;}
	.st11{filter:url(#Adobe_OpacityMaskFilter_2_);}
	.st12{mask:url(#mask-2_6_);fill-rule:evenodd;clip-rule:evenodd;}
	.st13{filter:url(#Adobe_OpacityMaskFilter_3_);}
	.st14{mask:url(#mask-2_5_);fill-rule:evenodd;clip-rule:evenodd;}
	.st15{filter:url(#Adobe_OpacityMaskFilter_4_);}
	.st16{mask:url(#mask-2_2_);fill:none;stroke:#000000;stroke-width:2;}
	.st17{fill:#434343;}
	.st18{fill:#434343;stroke:#F9F9F9;stroke-width:0.25;stroke-miterlimit:10;}
	.st19{fill:none;stroke:#FC6A55;stroke-width:0.5;stroke-miterlimit:10;}
	.st20{fill:none;stroke:#FC6A55;stroke-width:0.75;stroke-miterlimit:10;}
	.st21{fill:#FC6A55;stroke:#FC6A55;stroke-width:0.5;stroke-miterlimit:10;}
	.st22{opacity:0.153;fill:url(#Path_146_);enable-background:new    ;}
	.st23{opacity:0.1;fill:#590BB2;enable-background:new    ;}
	.st24{fill:#8E8CA8;}
	.st25{fill:#F5F4F9;}
	.st26{fill:#FFD5B8;}
	.st27{fill:#FC8473;}
	.st28{fill:#1C3475;}
	.st29{fill:#DDD9E4;}
	.st30{fill:#828FB3;}
	.st31{opacity:7.584635e-02;fill:url(#Path_147_);enable-background:new    ;}
	.st32{fill:#FFBE92;}
	.st33{fill:#FB8E7F;}
	.st34{fill:#FDB1A6;}
	.st35{fill:#FC806F;}
	.st36{fill:#FFE783;}
	.st37{fill:#104478;}
	.st38{fill:none;stroke:#FFFFFF;stroke-miterlimit:10;}
	.st39{fill:none;stroke:#000000;stroke-width:0.15;stroke-miterlimit:10;}
	.st40{opacity:0.1;fill:url(#Path_148_);enable-background:new    ;}
	.st41{opacity:0.1;fill:url(#Path_149_);enable-background:new    ;}
</style>
<g>
	<path class="st0" d="M6.9,13.8c-1.7,0-3,1.3-3,3s1.3,3,3,3s3-1.3,3-3C9.9,15.1,8.6,13.8,6.9,13.8z M6.9,19.2
		c-1.3,0-2.4-1.1-2.4-2.4s1.1-2.4,2.4-2.4s2.4,1.1,2.4,2.4C9.3,18.1,8.2,19.2,6.9,19.2z"/>
	<path class="st0" d="M6.9,15.9c0.4,0,0.6,0.2,0.6,0.3h0.6c0-0.4-0.4-0.8-0.9-0.9V15H6.6v0.3c-0.5,0.1-0.9,0.4-0.9,0.9
		c0,0.5,0.5,0.9,1.2,0.9c0.4,0,0.6,0.2,0.6,0.3s-0.2,0.3-0.6,0.3c-0.4,0-0.6-0.2-0.6-0.3H5.7c0,0.4,0.4,0.8,0.9,0.9v0.3h0.6v-0.3
		c0.5-0.1,0.9-0.4,0.9-0.9c0-0.5-0.5-0.9-1.2-0.9c-0.4,0-0.6-0.2-0.6-0.3S6.5,15.9,6.9,15.9z"/>
	<path class="st0" d="M15.3,20.4H2.7v-7.2h4.8c0.5,0,0.9-0.4,0.9-0.9V4.8h3.3v3.6h3.6v4.2h0.6V8l-3.8-3.8H8.4V3.9C8.4,3.4,8,3,7.5,3
		H0.9C0.4,3,0,3.4,0,3.9v8.4c0,0.5,0.4,0.9,0.9,0.9h1.2V21h13.8v-4.2h-0.6V20.4z M12.3,5.2l2.6,2.6h-2.6V5.2z M0.6,12.3V3.9
		c0-0.2,0.1-0.3,0.3-0.3h6.6c0.2,0,0.3,0.1,0.3,0.3v8.4c0,0.2-0.1,0.3-0.3,0.3H0.9C0.7,12.6,0.6,12.5,0.6,12.3z"/>
	<path class="st0" d="M9.6,10.5h0.6v0.6H9.6V10.5z"/>
	<path class="st0" d="M10.8,10.5h3.6v0.6h-3.6V10.5z"/>
	<path class="st0" d="M9.6,9.3h0.6v0.6H9.6V9.3z"/>
	<path class="st0" d="M10.8,9.3h3.6v0.6h-3.6V9.3z"/>
	<path class="st0" d="M9.6,11.7h0.6v0.6H9.6V11.7z"/>
	<path class="st0" d="M10.8,11.7h3.6v0.6h-3.6V11.7z"/>
	<path class="st0" d="M9.6,12.9h0.6v0.6H9.6V12.9z"/>
	<path class="st0" d="M10.8,12.9h3.6v0.6h-3.6V12.9z"/>
	<path class="st0" d="M7.5,3.9H0.9V6h6.6V3.9z M6.9,5.4H1.5V4.5h5.4V5.4z"/>
	<path class="st0" d="M2.4,6.3H1.8c-0.3,0-0.6,0.3-0.6,0.6v0.6c0,0.3,0.3,0.6,0.6,0.6h0.6C2.7,8.1,3,7.8,3,7.5V6.9
		C3,6.6,2.7,6.3,2.4,6.3z M1.8,7.5V6.9h0.6v0.6H1.8z"/>
	<path class="st0" d="M4.5,6.3H3.9c-0.3,0-0.6,0.3-0.6,0.6v0.6c0,0.3,0.3,0.6,0.6,0.6h0.6c0.3,0,0.6-0.3,0.6-0.6V6.9
		C5.1,6.6,4.8,6.3,4.5,6.3z M3.9,7.5V6.9h0.6v0.6H3.9z"/>
	<path class="st0" d="M6.6,6.3H6c-0.3,0-0.6,0.3-0.6,0.6v0.6c0,0.3,0.3,0.6,0.6,0.6h0.6c0.3,0,0.6-0.3,0.6-0.6V6.9
		C7.2,6.6,6.9,6.3,6.6,6.3z M6,7.5V6.9h0.6v0.6H6z"/>
	<path class="st0" d="M2.4,8.4H1.8C1.5,8.4,1.2,8.7,1.2,9v0.6c0,0.3,0.3,0.6,0.6,0.6h0.6C2.7,10.2,3,9.9,3,9.6V9
		C3,8.7,2.7,8.4,2.4,8.4z M1.8,9.6V9h0.6v0.6H1.8z"/>
	<path class="st0" d="M4.5,8.4H3.9C3.6,8.4,3.3,8.7,3.3,9v0.6c0,0.3,0.3,0.6,0.6,0.6h0.6c0.3,0,0.6-0.3,0.6-0.6V9
		C5.1,8.7,4.8,8.4,4.5,8.4z M3.9,9.6V9h0.6v0.6H3.9z"/>
	<path class="st0" d="M6.6,8.4H6C5.7,8.4,5.4,8.7,5.4,9v0.6c0,0.3,0.3,0.6,0.6,0.6h0.6c0.3,0,0.6-0.3,0.6-0.6V9
		C7.2,8.7,6.9,8.4,6.6,8.4z M6,9.6V9h0.6v0.6H6z"/>
	<path class="st0" d="M2.4,10.5H1.8c-0.3,0-0.6,0.3-0.6,0.6v0.6c0,0.3,0.3,0.6,0.6,0.6h0.6C2.7,12.3,3,12,3,11.7v-0.6
		C3,10.8,2.7,10.5,2.4,10.5z M1.8,11.7v-0.6h0.6v0.6H1.8z"/>
	<path class="st0" d="M4.5,10.5H3.9c-0.3,0-0.6,0.3-0.6,0.6v0.6c0,0.3,0.3,0.6,0.6,0.6h0.6c0.3,0,0.6-0.3,0.6-0.6v-0.6
		C5.1,10.8,4.8,10.5,4.5,10.5z M3.9,11.7v-0.6h0.6v0.6H3.9z"/>
	<path class="st0" d="M6.6,10.5H6c-0.3,0-0.6,0.3-0.6,0.6v0.6c0,0.3,0.3,0.6,0.6,0.6h0.6c0.3,0,0.6-0.3,0.6-0.6v-0.6
		C7.2,10.8,6.9,10.5,6.6,10.5z M6,11.7v-0.6h0.6v0.6H6z"/>
	<path class="st0" d="M17.7,12.6c-0.4-0.3-0.9-0.3-1.3,0l-5.1,5.1c0,0,0,0.1-0.1,0.1l-0.7,1.6c-0.1,0.1,0,0.2,0.1,0.3
		c0.1,0.1,0.2,0.1,0.3,0.1l1.6-0.7c0,0,0.1,0,0.1-0.1l5.1-5.1C18.1,13.5,18.1,12.9,17.7,12.6z M12.2,18.5l-0.8,0.4l0.4-0.8l3.8-3.8
		l0.4,0.4L12.2,18.5z M16.5,14.3L16,13.8l0.2-0.2l0.4,0.4L16.5,14.3z M17.3,13.4l-0.2,0.2l-0.4-0.4l0.2-0.2c0.1-0.1,0.3-0.1,0.4,0
		C17.4,13.1,17.4,13.3,17.3,13.4z"/>
</g>
</svg>
