<?xml version="1.0" encoding="utf-8"?>
<!-- Generator: Adobe Illustrator 24.1.1, SVG Export Plug-In . SVG Version: 6.00 Build 0)  -->
<svg version="1.1" id="Layer_1" xmlns="http://www.w3.org/2000/svg" xmlns:xlink="http://www.w3.org/1999/xlink" x="0px" y="0px"
	 viewBox="0 0 38 31" style="enable-background:new 0 0 38 31;" xml:space="preserve">
<style type="text/css">
	.st0{fill:#FC6A55;}
	.st1{fill:#EDEDED;}
	.st2{fill:none;stroke:#FC6A55;stroke-miterlimit:10;}
	.st3{stroke:#FFFFFF;stroke-width:0.25;stroke-miterlimit:10;}
	.st4{fill:#656D7A;}
	.st5{fill:#FFFFFF;}
	.st6{filter:url(#Adobe_OpacityMaskFilter);}
	.st7{fill-rule:evenodd;clip-rule:evenodd;fill:#FFFFFF;}
	.st8{mask:url(#mask-2_8_);fill-rule:evenodd;clip-rule:evenodd;}
	.st9{filter:url(#Adobe_OpacityMaskFilter_1_);}
	.st10{mask:url(#mask-2_7_);fill-rule:evenodd;clip-rule:evenodd;}
	.st11{filter:url(#Adobe_OpacityMaskFilter_2_);}
	.st12{mask:url(#mask-2_6_);fill-rule:evenodd;clip-rule:evenodd;}
	.st13{filter:url(#Adobe_OpacityMaskFilter_3_);}
	.st14{mask:url(#mask-2_5_);fill-rule:evenodd;clip-rule:evenodd;}
	.st15{filter:url(#Adobe_OpacityMaskFilter_4_);}
	.st16{mask:url(#mask-2_2_);fill:none;stroke:#000000;stroke-width:2;}
	.st17{fill:#F79F91;}
	.st18{fill:#434343;}
	.st19{fill:#434343;stroke:#F9F9F9;stroke-width:0.25;stroke-miterlimit:10;}
	.st20{fill:none;stroke:#FC6A55;stroke-width:0.5;stroke-miterlimit:10;}
	.st21{fill:none;stroke:#FC6A55;stroke-width:0.75;stroke-miterlimit:10;}
	.st22{fill:#FC6A55;stroke:#FC6A55;stroke-width:0.5;stroke-miterlimit:10;}
	.st23{opacity:0.153;fill:url(#Path_36_);enable-background:new    ;}
	.st24{opacity:0.1;fill:#590BB2;enable-background:new    ;}
	.st25{fill:#8E8CA8;}
	.st26{fill:#F5F4F9;}
	.st27{fill:#FFD5B8;}
	.st28{fill:#FC8473;}
	.st29{fill:#1C3475;}
	.st30{fill:#DDD9E4;}
	.st31{fill:#828FB3;}
	.st32{opacity:7.584635e-02;fill:url(#Path_37_);enable-background:new    ;}
	.st33{fill:#FFBE92;}
	.st34{fill:#FB8E7F;}
	.st35{fill:#FDB1A6;}
	.st36{fill:#FC806F;}
	.st37{fill:#FFE783;}
	.st38{fill:#104478;}
	.st39{fill:none;stroke:#FFFFFF;stroke-miterlimit:10;}
	.st40{fill:none;stroke:#000000;stroke-width:0.15;stroke-miterlimit:10;}
	.st41{opacity:0.1;fill:url(#Path_38_);enable-background:new    ;}
	.st42{opacity:0.1;fill:url(#Path_39_);enable-background:new    ;}
	.st43{fill-rule:evenodd;clip-rule:evenodd;fill:#FC6A55;}
	.st44{fill-rule:evenodd;clip-rule:evenodd;}
	.st45{fill:#FF6757;}
	.st46{fill:#666666;}
	.st47{fill:none;stroke:#FFFFFF;stroke-width:0.5;stroke-miterlimit:10;}
	.st48{fill:#F16A56;}
	.st49{fill:#515252;}
	.st50{fill:#F26A56;}
	.st51{fill:none;stroke:#F16A56;stroke-miterlimit:10;}
	.st52{fill:none;stroke:#929292;stroke-miterlimit:10;}
	.st53{fill:#929292;}
	.st54{fill:none;stroke:#000000;stroke-width:0.5;stroke-miterlimit:10;}
	.st55{fill:#A8A7A7;}
	.st56{fill:#B4A3EE;}
	.st57{fill:#9BDBD5;}
	.st58{fill:#222121;}
</style>
<g>
	<g>
		<path id="Shape_112_" class="st17" d="M27.4,17c0.5,0,1-0.5,1-1V3.2c0-0.6-0.4-1-1-1H10.6c-0.5,0-1,0.5-1,1V16c0,0.6,0.4,1,1,1
			H27.4z M10.6,3.2h16.8V16H10.6V3.2z"/>
		<path class="st17" d="M5.7,30.9h26.7c0.5,0,1-0.3,1.2-0.7s0.3-1,0.1-1.5l-2.4-5c-0.4-1-1.3-1.6-2.3-1.6h-0.6v-1.6
			c1.2-0.2,2-1.3,2-2.5V2.7c0-1.4-1.1-2.6-2.5-2.6H10.1c-1.4,0-2.5,1.1-2.5,2.6v15.4c0,1.2,0.8,2.3,2,2.5v1.6H9
			c-1,0-1.9,0.6-2.3,1.6l-2.4,5c-0.2,0.5-0.1,1,0.1,1.4C4.7,30.6,5.2,30.9,5.7,30.9L5.7,30.9z M8.6,18.1V2.7c0-0.9,0.7-1.5,1.5-1.5
			h17.8c0.8,0,1.5,0.7,1.5,1.5v15.4c0,0.9-0.7,1.5-1.5,1.5H10.1C9.3,19.6,8.6,18.9,8.6,18.1z M10.6,20.6h1c0,0.3,0.2,0.5,0.5,0.5
			c0.3,0,0.5-0.2,0.5-0.5h1c0,0.3,0.2,0.5,0.5,0.5c0.3,0,0.5-0.2,0.5-0.5h1c0,0.3,0.2,0.5,0.5,0.5c0.3,0,0.5-0.2,0.5-0.5h1
			c0,0.3,0.2,0.5,0.5,0.5s0.5-0.2,0.5-0.5h1c0,0.3,0.2,0.5,0.5,0.5c0.3,0,0.5-0.2,0.5-0.5h1c0,0.3,0.2,0.5,0.5,0.5
			c0.3,0,0.5-0.2,0.5-0.5h1c0,0.3,0.2,0.5,0.5,0.5c0.3,0,0.5-0.2,0.5-0.5h1c0,0.3,0.2,0.5,0.5,0.5s0.5-0.2,0.5-0.5h1v1.5H10.6V20.6z
			 M5.2,29.2l2.4-5c0.2-0.6,0.8-1,1.4-1H29c0.6,0,1.2,0.4,1.4,1l2.4,5c0.1,0.2,0,0.3,0,0.5c-0.1,0.1-0.2,0.2-0.4,0.2H5.7
			c-0.2,0-0.3-0.1-0.4-0.2C5.2,29.5,5.1,29.4,5.2,29.2L5.2,29.2z"/>
		<path class="st17" d="M8.5,28.8H22c0.5,0,1-0.5,1-1v-2.6c0-0.6-0.4-1-1-1H9.6c-0.4,0-0.7,0.2-0.9,0.6l-1.1,2.5
			c-0.2,0.3-0.2,0.7,0,1C7.8,28.6,8.1,28.8,8.5,28.8z M9.6,25.2H22v2.5H8.5L9.6,25.2z"/>
		<path class="st17" d="M24.9,28.8h4.6c0.3,0,0.7-0.2,0.8-0.5c0.2-0.3,0.2-0.7,0-1l-1.1-2.6c-0.2-0.3-0.5-0.5-0.9-0.5h-3.5
			c-0.5,0-1,0.5-1,1v2.6C23.9,28.4,24.4,28.8,24.9,28.8L24.9,28.8z M24.9,25.2l3.4,0l1.1,2.6h-4.6V25.2z"/>
		<path class="st17" d="M12.4,4.3c-0.1-0.1-0.3-0.1-0.5-0.1c-0.2,0.1-0.3,0.2-0.3,0.4c0,0.2,0.1,0.4,0.2,0.5l1.5,1.1l-1.5,1.1
			c-0.2,0.1-0.2,0.4-0.2,0.6c0.1,0.2,0.3,0.4,0.5,0.4c0.2,0,0.1,0.1,2.3-1.6c0.1-0.1,0.2-0.2,0.2-0.4S14.5,6,14.4,5.9L12.4,4.3z"/>
		<path class="st17" d="M17,7.3h-1.5c-0.3,0-0.5,0.2-0.5,0.5c0,0.3,0.2,0.5,0.5,0.5H17c0.3,0,0.5-0.2,0.5-0.5
			C17.5,7.5,17.3,7.3,17,7.3z"/>
	</g>
</g>
</svg>
