<?xml version="1.0" encoding="utf-8"?>
<!-- Generator: Adobe Illustrator 24.0.2, SVG Export Plug-In . SVG Version: 6.00 Build 0)  -->
<svg version="1.1" id="Layer_1" xmlns="http://www.w3.org/2000/svg" xmlns:xlink="http://www.w3.org/1999/xlink" x="0px" y="0px"
	 viewBox="0 0 58.3 58.8" style="enable-background:new 0 0 58.3 58.8;" xml:space="preserve">
<style type="text/css">
	.st0{fill:#FC6A55;}
	.st1{stroke:#FFFFFF;stroke-width:0.25;stroke-miterlimit:10;}
	.st2{fill:#656D7A;}
	.st3{fill:#FFFFFF;}
	.st4{filter:url(#Adobe_OpacityMaskFilter);}
	.st5{fill-rule:evenodd;clip-rule:evenodd;fill:#FFFFFF;}
	.st6{mask:url(#mask-2_8_);fill-rule:evenodd;clip-rule:evenodd;}
	.st7{filter:url(#Adobe_OpacityMaskFilter_1_);}
	.st8{mask:url(#mask-2_7_);fill-rule:evenodd;clip-rule:evenodd;}
	.st9{filter:url(#Adobe_OpacityMaskFilter_2_);}
	.st10{mask:url(#mask-2_6_);fill-rule:evenodd;clip-rule:evenodd;}
	.st11{filter:url(#Adobe_OpacityMaskFilter_3_);}
	.st12{mask:url(#mask-2_5_);fill-rule:evenodd;clip-rule:evenodd;}
	.st13{filter:url(#Adobe_OpacityMaskFilter_4_);}
	.st14{mask:url(#mask-2_2_);fill:none;stroke:#000000;stroke-width:2;}
	.st15{fill:#434343;}
	.st16{fill:#434343;stroke:#F9F9F9;stroke-width:0.25;stroke-miterlimit:10;}
	.st17{fill:none;stroke:#FC6A55;stroke-width:0.5;stroke-miterlimit:10;}
	.st18{fill:none;stroke:#FC6A55;stroke-width:0.75;stroke-miterlimit:10;}
	.st19{fill:#FC6A55;stroke:#FC6A55;stroke-width:0.5;stroke-miterlimit:10;}
</style>
<g id="Content_4_">
	<path class="st0" d="M51.9,42c1.6,0,2.9-1.3,2.9-2.9V12c0-1.6-1.3-2.9-2.9-2.9H40.3V5.2c0-2.7-2.2-4.8-4.8-4.8H8.4
		c-2.7,0-4.8,2.2-4.8,4.8v48.3c0,2.7,2.2,4.8,4.8,4.8h27.1c2.7,0,4.8-2.2,4.8-4.8v-3.9h14.5v-1.9H40.3V42H51.9z M51.9,40H20.9
		c-0.5,0-1-0.4-1-1V16.8h32.9v22.2C52.8,39.6,52.4,40,51.9,40z M52.8,12v2.9H20V12c0-0.5,0.4-1,1-1h30.9C52.4,11,52.8,11.5,52.8,12z
		 M16.1,2.3h11.6v1.9H16.1V2.3z M38.3,47.8h-2.1c-0.5-1.5-2.2-2.3-3.7-1.8c-0.8,0.3-1.5,0.9-1.8,1.8h-6v1.9h6
		c0.5,1.5,2.2,2.3,3.7,1.8c0.8-0.3,1.5-0.9,1.8-1.8h2.1v3.9c0,1.6-1.3,2.9-2.9,2.9H8.4c-1.6,0-2.9-1.3-2.9-2.9V5.2
		c0-1.6,1.3-2.9,2.9-2.9h5.8v1.9c0,1.1,0.9,1.9,1.9,1.9h11.6c1.1,0,1.9-0.9,1.9-1.9V2.3h5.8c1.6,0,2.9,1.3,2.9,2.9v3.9H20.9
		c-1.6,0-2.9,1.3-2.9,2.9v27.1c0,1.6,1.3,2.9,2.9,2.9h17.4V47.8z M34.5,48.7c0,0.5-0.4,1-1,1s-1-0.4-1-1s0.4-1,1-1
		S34.5,48.2,34.5,48.7z"/>
	<path class="st0" d="M21.9,12h1.9v1.9h-1.9V12z"/>
	<path class="st0" d="M25.8,12h1.9v1.9h-1.9V12z"/>
	<path class="st0" d="M29.6,12h1.9v1.9h-1.9V12z"/>
	<path class="st0" d="M39.6,26.8l-3.1-2.1c-0.9-0.6-2.1-0.3-2.7,0.5c-0.2,0.3-0.3,0.7-0.3,1.1v4.1c0,1.1,0.9,1.9,1.9,1.9
		c0.4,0,0.8-0.1,1.1-0.3l3.1-2.1c0.9-0.6,1.1-1.8,0.5-2.7C40,27.2,39.8,27,39.6,26.8L39.6,26.8z M35.4,30.5v-4.1l3.1,2.1L35.4,30.5z
		"/>
	<path class="st0" d="M36.4,19.7c-4.8,0-8.7,3.9-8.7,8.7s3.9,8.7,8.7,8.7s8.7-3.9,8.7-8.7C45.1,23.6,41.2,19.7,36.4,19.7z
		 M36.4,35.2c-3.7,0-6.8-3-6.8-6.8s3-6.8,6.8-6.8c3.7,0,6.8,3,6.8,6.8C43.2,32.2,40.2,35.2,36.4,35.2z"/>
	<path class="st0" d="M20.9,46.8h1.9v3.9h-1.9V46.8z"/>
	<path class="st0" d="M18,46.8H20v3.9H18V46.8z"/>
	<path class="st0" d="M22.9,27.5h1.9v1.9h-1.9V27.5z"/>
	<path class="st0" d="M22.9,23.6h1.9v1.9h-1.9V23.6z"/>
	<path class="st0" d="M22.9,31.3h1.9v1.9h-1.9V31.3z"/>
</g>
</svg>
