<?xml version="1.0" encoding="utf-8"?>
<!-- Generator: Adobe Illustrator 24.1.1, SVG Export Plug-In . SVG Version: 6.00 Build 0)  -->
<svg version="1.1" id="Layer_1" xmlns="http://www.w3.org/2000/svg" xmlns:xlink="http://www.w3.org/1999/xlink" x="0px" y="0px"
	 viewBox="0 0 18 24" style="enable-background:new 0 0 18 24;" xml:space="preserve">
<style type="text/css">
	.st0{fill:#FC6A55;}
	.st1{fill:#EDEDED;}
	.st2{fill:none;stroke:#FC6A55;stroke-miterlimit:10;}
	.st3{fill:#222F3F;}
	.st4{fill:#383838;}
	.st5{fill:#FFFFFF;}
	.st6{fill:#656D7A;}
	.st7{fill:#C4C4C4;}
	.st8{filter:url(#Adobe_OpacityMaskFilter);}
	.st9{fill-rule:evenodd;clip-rule:evenodd;fill:#FFFFFF;}
	.st10{mask:url(#mask-2_8_);fill-rule:evenodd;clip-rule:evenodd;fill:#FFFFFF;}
	.st11{filter:url(#Adobe_OpacityMaskFilter_1_);}
	.st12{mask:url(#mask-2_7_);fill-rule:evenodd;clip-rule:evenodd;fill:#FFFFFF;}
	.st13{filter:url(#Adobe_OpacityMaskFilter_2_);}
	.st14{mask:url(#mask-2_6_);fill-rule:evenodd;clip-rule:evenodd;fill:#FFFFFF;}
	.st15{filter:url(#Adobe_OpacityMaskFilter_3_);}
	.st16{mask:url(#mask-2_5_);fill-rule:evenodd;clip-rule:evenodd;fill:#FFFFFF;}
	.st17{filter:url(#Adobe_OpacityMaskFilter_4_);}
	.st18{mask:url(#mask-2_2_);fill:none;stroke:#FFFFFF;stroke-width:1.5;stroke-miterlimit:10;}
	.st19{fill:#B4A3EE;}
	.st20{fill:#434343;}
	.st21{fill:#434343;stroke:#F9F9F9;stroke-width:0.25;stroke-miterlimit:10;}
	.st22{fill:none;stroke:#FC6A55;stroke-width:0.75;stroke-miterlimit:10;}
	.st23{fill:#FC6A55;stroke:#FC6A55;stroke-width:0.25;stroke-miterlimit:10;}
	.st24{fill:#FC6A55;stroke:#FC6A55;stroke-width:0.5;stroke-miterlimit:10;}
	.st25{opacity:0.153;fill:url(#Path_44_);enable-background:new    ;}
	.st26{opacity:0.1;fill:#590BB2;enable-background:new    ;}
	.st27{fill:#8E8CA8;}
	.st28{fill:#F5F4F9;}
	.st29{fill:#FFD5B8;}
	.st30{fill:#FC8473;}
	.st31{fill:#1C3475;}
	.st32{fill:#DDD9E4;}
	.st33{fill:#828FB3;}
	.st34{opacity:7.584635e-02;fill:url(#Path_45_);enable-background:new    ;}
	.st35{fill:#FFBE92;}
	.st36{fill:#FB8E7F;}
	.st37{fill:#FDB1A6;}
	.st38{fill:#FC806F;}
	.st39{fill:#FFE783;}
	.st40{fill:#104478;}
	.st41{fill:none;stroke:#FFFFFF;stroke-miterlimit:10;}
	.st42{fill:none;stroke:#000000;stroke-width:0.15;stroke-miterlimit:10;}
	.st43{opacity:0.1;fill:url(#Path_46_);enable-background:new    ;}
	.st44{opacity:0.1;fill:url(#Path_47_);enable-background:new    ;}
	.st45{fill-rule:evenodd;clip-rule:evenodd;fill:#FC6A55;}
	.st46{fill-rule:evenodd;clip-rule:evenodd;}
	.st47{fill:#FF6757;}
	.st48{fill:#6C973D;}
	.st49{fill:none;stroke:#FFFFFF;stroke-width:0.5;stroke-miterlimit:10;}
	.st50{fill:#606060;}
	.st51{fill:#F16A56;}
	.st52{fill:#515252;}
	.st53{fill:#656565;}
	.st54{fill:#F26A56;}
	.st55{fill:none;stroke:#F16A56;stroke-miterlimit:10;}
	.st56{fill:none;stroke:#929292;stroke-miterlimit:10;}
	.st57{fill:#929292;}
	.st58{fill:none;stroke:#000000;stroke-width:0.5;stroke-miterlimit:10;}
	.st59{fill:#A8A7A7;}
	.st60{fill:#F79F91;}
	.st61{fill:#9BDBD5;}
	.st62{fill:#222121;}
	.st63{stroke:#000000;stroke-width:0.25;stroke-miterlimit:10;}
</style>
<g transform="translate(0 1)">
	<g>
		<g>
			<path class="st0" d="M17.1,16.9c-1.8-0.9-3.2-1.5-4.4-1.7l0.1-0.2c0.1-0.1,0.1-0.2,0.1-0.2l-0.3-1.1c0.1-0.1,0.2-0.3,0.3-0.4
				c1.1-0.4,1.7-1,1.8-2c0.5,0,0.9-0.5,0.9-1V8.1c0-0.5-0.4-0.9-0.9-1C14.6,5.4,13.9,2,9,2C7.9,2,6.9,2.2,6,2.6C5.4,2.2,4.7,2,3.9,2
				C1.7,2,0,3.7,0,5.9c0,1.6,1,3,2.4,3.6v0.8c0,0.5,0.5,1,1,1h0.5c0.2,0,0.3,0,0.5-0.1c0.2,0.9,0.5,1.8,1.1,2.5l-0.3,1.1
				c0,0.1,0,0.2,0.1,0.2l0.1,0.2c-1.2,0.2-2.6,0.7-4.4,1.7C0.3,17.2,0,17.8,0,18.4v1.3C0,19.9,0.1,20,0.3,20h7.2h0.1h2.8h0.1h7.2
				c0.2,0,0.3-0.1,0.3-0.3v-1.3C18,17.8,17.6,17.2,17.1,16.9z M9,16.3l0.7,1.6H8.3L9,16.3z M8.1,18.5h1.9l0.2,0.9H7.9L8.1,18.5z
				 M12.2,14.3l0.1,0.5L12,15.3c0,0,0,0-0.1,0.1L10.7,17l-0.4,0.5l-0.8-1.8c1-0.1,1.9-0.6,2.6-1.3C12.1,14.4,12.1,14.3,12.2,14.3z
				 M13.3,12.4c0.2-0.4,0.3-0.8,0.4-1.3c0.1,0.1,0.2,0.1,0.4,0.1C14,11.7,13.8,12.1,13.3,12.4z M15,8.1v2.3c0,0.2-0.2,0.4-0.4,0.4
				h-0.5c-0.2,0-0.4-0.2-0.4-0.4v-0.2v-2c0-0.2,0.2-0.4,0.4-0.4h0.5C14.8,7.7,15,7.8,15,8.1z M9,2.6c1.8,0,5,0.6,5.1,4.5
				c-0.1,0-0.2,0.1-0.4,0.1c-0.4-2.3-2.4-4-4.7-4c-0.7,0-1.3,0.1-1.9,0.4C6.9,3.4,6.7,3.2,6.6,3C7.3,2.7,8.1,2.6,9,2.6z M0.6,5.9
				c0-1.8,1.5-3.3,3.3-3.3c1.2,0,2.2,0.6,2.8,1.5c0,0,0,0.1,0,0.1c0.3,0.5,0.5,1,0.5,1.6c0,0,0,0,0,0c0,0,0,0.1,0,0.1
				c0,0,0,0.1,0,0.1c0,0,0,0,0,0c0,0,0,0.1,0,0.1c0,0,0,0,0,0C7.1,7.7,5.9,8.9,4.4,9.1c0,0,0,0-0.1,0c-0.2,0-0.3,0-0.5,0
				C2.1,9.2,0.6,7.7,0.6,5.9z M4.2,10.3c0,0.2-0.2,0.4-0.4,0.4H3.4c-0.2,0-0.4-0.2-0.4-0.4V9.7c0.1,0,0.2,0,0.3,0.1
				c0.3,0.1,0.6,0.1,0.9,0L4.2,10.3z M4.8,9.7c1.6-0.4,2.8-1.8,3-3.4c0,0,0,0,0,0c0-0.1,0-0.1,0-0.2c0,0,0,0,0,0c0-0.1,0-0.1,0-0.2
				c0,0,0-0.1,0-0.1c0,0,0,0,0,0c0,0,0-0.1,0-0.1c0,0,0,0,0,0c0,0,0-0.1,0-0.1c0,0,0,0,0,0c0-0.4-0.1-0.8-0.3-1.1c0,0,0,0,0,0
				c0,0,0-0.1,0-0.1c0,0,0,0,0-0.1c0,0,0,0,0,0c0-0.1,0-0.1-0.1-0.2C7.9,3.9,8.4,3.8,9,3.8c2.3,0,4.2,1.9,4.2,4.2v2.1
				c0,1-0.3,1.9-0.7,2.7c-0.7,0.2-1.7,0.3-3.2,0.3c-0.2,0-0.3,0.1-0.3,0.3c0,0.2,0.1,0.3,0.3,0.3c1.1,0,2-0.1,2.7-0.2
				c0,0,0,0-0.1,0.1c-0.2,0.2-0.3,0.4-0.5,0.6c-0.7,0.7-1.5,1.1-2.4,1.1c0,0-0.1,0-0.1,0c0,0-0.1,0-0.1,0c-0.5,0-1-0.2-1.5-0.4
				c-0.5-0.3-0.9-0.7-1.4-1.2c0,0-0.1-0.1-0.1-0.1l0,0c-0.7-0.9-1.1-2-1.1-3.4L4.8,9.7L4.8,9.7z M8.5,15.8l-0.8,1.8L7.3,17l-1.2-1.7
				c0,0,0,0,0,0l-0.3-0.5l0.1-0.5c0,0,0.1,0.1,0.1,0.1C6.7,15.1,7.6,15.7,8.5,15.8z M0.6,18.4c0-0.4,0.2-0.7,0.6-0.9
				c1.9-1,3.3-1.5,4.5-1.7l1.8,2.5l-0.2,1.1H0.6V18.4z M17.4,19.4h-6.6l-0.2-1.1l1.8-2.5c1.2,0.2,2.6,0.7,4.5,1.7
				c0.4,0.2,0.6,0.6,0.6,1L17.4,19.4L17.4,19.4z"/>
			<path class="st0" d="M4.2,6.5h1.2v0.6c0,0.2,0.1,0.3,0.3,0.3S6,7.3,6,7.1V6.5h0.3c0.2,0,0.3-0.1,0.3-0.3c0-0.2-0.1-0.3-0.3-0.3H6
				V4.4c0-0.1-0.1-0.2-0.2-0.3c-0.1,0-0.2,0-0.3,0.1L4,6c-0.1,0.1-0.1,0.2,0,0.3S4.1,6.5,4.2,6.5z M5.4,5.2v0.7H4.8L5.4,5.2z"/>
			<path class="st0" d="M3.6,6.8H2.4l1.1-0.9c0.3-0.3,0.4-0.8,0.2-1.2c-0.2-0.4-0.5-0.7-1-0.7C2,4.1,1.5,4.6,1.5,5.3
				c0,0.2,0.1,0.3,0.3,0.3s0.3-0.1,0.3-0.3c0-0.3,0.3-0.6,0.6-0.6C3,4.7,3.1,4.9,3.1,5C3.2,5.1,3.2,5.3,3,5.5L1.6,6.6
				C1.5,6.8,1.5,6.9,1.5,7.1C1.6,7.3,1.8,7.4,2,7.4h1.6c0.2,0,0.3-0.1,0.3-0.3C3.9,6.9,3.8,6.8,3.6,6.8z"/>
		</g>
	</g>
</g>
</svg>
