<?xml version="1.0" encoding="utf-8"?>
<!-- Generator: Adobe Illustrator 24.1.1, SVG Export Plug-In . SVG Version: 6.00 Build 0)  -->
<svg version="1.1" id="Layer_1" xmlns="http://www.w3.org/2000/svg" xmlns:xlink="http://www.w3.org/1999/xlink" x="0px" y="0px"
	 viewBox="0 0 18 24" style="enable-background:new 0 0 18 24;" xml:space="preserve">
<style type="text/css">
	.st0{fill:#FC6A55;}
	.st1{fill:#EDEDED;}
	.st2{fill:none;stroke:#FC6A55;stroke-miterlimit:10;}
	.st3{fill:#222F3F;}
	.st4{fill:#383838;}
	.st5{fill:#FFFFFF;}
	.st6{fill:#656D7A;}
	.st7{fill:#C4C4C4;}
	.st8{filter:url(#Adobe_OpacityMaskFilter);}
	.st9{fill-rule:evenodd;clip-rule:evenodd;fill:#FFFFFF;}
	.st10{mask:url(#mask-2_8_);fill-rule:evenodd;clip-rule:evenodd;fill:#FFFFFF;}
	.st11{filter:url(#Adobe_OpacityMaskFilter_1_);}
	.st12{mask:url(#mask-2_7_);fill-rule:evenodd;clip-rule:evenodd;fill:#FFFFFF;}
	.st13{filter:url(#Adobe_OpacityMaskFilter_2_);}
	.st14{mask:url(#mask-2_6_);fill-rule:evenodd;clip-rule:evenodd;fill:#FFFFFF;}
	.st15{filter:url(#Adobe_OpacityMaskFilter_3_);}
	.st16{mask:url(#mask-2_5_);fill-rule:evenodd;clip-rule:evenodd;fill:#FFFFFF;}
	.st17{filter:url(#Adobe_OpacityMaskFilter_4_);}
	.st18{mask:url(#mask-2_2_);fill:none;stroke:#FFFFFF;stroke-width:1.5;stroke-miterlimit:10;}
	.st19{fill:#B4A3EE;}
	.st20{fill:#434343;}
	.st21{fill:#434343;stroke:#F9F9F9;stroke-width:0.25;stroke-miterlimit:10;}
	.st22{fill:none;stroke:#FC6A55;stroke-width:0.75;stroke-miterlimit:10;}
	.st23{fill:#FC6A55;stroke:#FC6A55;stroke-width:0.25;stroke-miterlimit:10;}
	.st24{fill:#FC6A55;stroke:#FC6A55;stroke-width:0.5;stroke-miterlimit:10;}
	.st25{opacity:0.153;fill:url(#Path_44_);enable-background:new    ;}
	.st26{opacity:0.1;fill:#590BB2;enable-background:new    ;}
	.st27{fill:#8E8CA8;}
	.st28{fill:#F5F4F9;}
	.st29{fill:#FFD5B8;}
	.st30{fill:#FC8473;}
	.st31{fill:#1C3475;}
	.st32{fill:#DDD9E4;}
	.st33{fill:#828FB3;}
	.st34{opacity:7.584635e-02;fill:url(#Path_45_);enable-background:new    ;}
	.st35{fill:#FFBE92;}
	.st36{fill:#FB8E7F;}
	.st37{fill:#FDB1A6;}
	.st38{fill:#FC806F;}
	.st39{fill:#FFE783;}
	.st40{fill:#104478;}
	.st41{fill:none;stroke:#FFFFFF;stroke-miterlimit:10;}
	.st42{fill:none;stroke:#000000;stroke-width:0.15;stroke-miterlimit:10;}
	.st43{opacity:0.1;fill:url(#Path_46_);enable-background:new    ;}
	.st44{opacity:0.1;fill:url(#Path_47_);enable-background:new    ;}
	.st45{fill-rule:evenodd;clip-rule:evenodd;fill:#FC6A55;}
	.st46{fill-rule:evenodd;clip-rule:evenodd;}
	.st47{fill:#FF6757;}
	.st48{fill:#6C973D;}
	.st49{fill:none;stroke:#FFFFFF;stroke-width:0.5;stroke-miterlimit:10;}
	.st50{fill:#606060;}
	.st51{fill:#F16A56;}
	.st52{fill:#515252;}
	.st53{fill:#656565;}
	.st54{fill:#F26A56;}
	.st55{fill:none;stroke:#F16A56;stroke-miterlimit:10;}
	.st56{fill:none;stroke:#929292;stroke-miterlimit:10;}
	.st57{fill:#929292;}
	.st58{fill:none;stroke:#000000;stroke-width:0.5;stroke-miterlimit:10;}
	.st59{fill:#A8A7A7;}
	.st60{fill:#F79F91;}
	.st61{fill:#9BDBD5;}
	.st62{fill:#222121;}
	.st63{stroke:#000000;stroke-width:0.25;stroke-miterlimit:10;}
</style>
<g>
	<path class="st0" d="M4.3,15.7c0.8,1.3,0.8,3,0,4.3l0.6,0.3c0.9-1.5,0.9-3.4,0-4.9L4.3,15.7z"/>
	<path class="st0" d="M6.2,14.7l-0.6,0.3c1,1.7,1,3.9,0,5.6L6.2,21C7.3,19,7.3,16.7,6.2,14.7L6.2,14.7z"/>
	<path class="st0" d="M6.9,14.4c1.2,2.2,1.2,4.8,0,6.9l0.6,0.3c1.3-2.4,1.3-5.2,0-7.6L6.9,14.4z"/>
	<path class="st0" d="M3,14.1v-0.9c0-1.6-1.3-3-3-3v0.7c1.3,0,2.3,1,2.3,2.3v0.9c0,0,0,0.1,0,0.1l0.8,1.9H3c-0.2,0-0.3,0.1-0.3,0.3
		v0.8l-0.5,0.2C2,17.6,1.9,17.8,2,18c0,0.1,0.1,0.1,0.1,0.1l0.5,0.2v0.5c0,0.2-0.1,0.3-0.3,0.3H0v0.7h2.3c0.5,0,1-0.4,1-1v-0.7
		c0-0.1-0.1-0.2-0.2-0.3l-0.1,0l0.1,0c0.1-0.1,0.2-0.2,0.2-0.3v-0.7h0.3c0.2,0,0.3-0.1,0.3-0.3c0,0,0-0.1,0-0.1L3,14.1z"/>
	<g>
		<path class="st0" d="M14.5,12.1v-1.5c0-0.5-0.4-0.9-0.9-0.9s-0.9,0.4-0.9,0.9v1.5c0,0.5,0.4,0.9,0.9,0.9
			C14.1,13,14.5,12.6,14.5,12.1z M13.9,12.1c0,0.2-0.1,0.3-0.3,0.3c-0.2,0-0.3-0.1-0.3-0.3v-1.5c0-0.2,0.1-0.3,0.3-0.3
			c0.2,0,0.3,0.1,0.3,0.3V12.1z"/>
		<path class="st0" d="M11.8,11.8v0.3c0,0.9,0.6,1.6,1.5,1.7v0.6H13c-0.2,0-0.3,0.1-0.3,0.3c0,0.2,0.1,0.3,0.3,0.3h1.2
			c0.2,0,0.3-0.1,0.3-0.3c0-0.2-0.1-0.3-0.3-0.3h-0.3v-0.6c0.8-0.1,1.5-0.9,1.5-1.7v-0.3c0-0.2-0.1-0.3-0.3-0.3
			c-0.2,0-0.3,0.1-0.3,0.3v0.3c0,0.7-0.5,1.2-1.2,1.2s-1.2-0.5-1.2-1.2v-0.3c0-0.2-0.1-0.3-0.3-0.3C11.9,11.5,11.8,11.6,11.8,11.8z"
			/>
		<path class="st0" d="M15,5.7c0,0,0-0.1,0-0.1c0-0.1,0-0.2-0.1-0.2c0,0-0.1,0-0.1-0.1c-0.1,0-0.2,0-0.3,0.1
			c-0.1,0.1-0.1,0.2-0.1,0.3c0,0.1,0.2,0.2,0.3,0.2c0,0,0.1,0,0.1,0C14.9,5.9,14.9,5.8,15,5.7C15,5.8,15,5.8,15,5.7z"/>
		<path class="st0" d="M1.5,4.1v4.1c0,1,0.8,1.8,1.8,1.8H5l4.2,2.2v6.3c0,0.8,0.7,1.5,1.5,1.5h5.9c0.8,0,1.5-0.7,1.5-1.5v-13
			c0-0.8-0.7-1.5-1.5-1.5h-3.2c0-1-0.8-1.8-1.8-1.8H3.3C2.3,2.4,1.5,3.2,1.5,4.1z M17.4,5.6v1.2c-0.3-0.2-0.6-0.3-0.9-0.3h-3.2V5.9
			h0.3c0.2,0,0.3-0.1,0.3-0.3c0-0.2-0.1-0.3-0.3-0.3h-0.3V4.7h3.2C17,4.7,17.4,5.1,17.4,5.6z M9.8,18.6v-0.3
			c0.3,0.2,0.6,0.3,0.9,0.3h5.9c0.3,0,0.6-0.1,0.9-0.3v0.3c0,0.5-0.4,0.9-0.9,0.9h-5.9C10.2,19.4,9.8,19.1,9.8,18.6z M9.8,12.6
			l0.2,0.1c0.1,0.1,0.2,0,0.3,0c0.1-0.1,0.1-0.2,0.1-0.3L9.6,10h1.9c1,0,1.8-0.8,1.8-1.8V7.1h3.2c0.5,0,0.9,0.4,0.9,0.9v9.1
			c0,0.5-0.4,0.9-0.9,0.9h-5.9c-0.5,0-0.9-0.4-0.9-0.9V12.6z M2.1,4.1C2.1,3.5,2.6,3,3.3,3h8.2c0.7,0,1.2,0.5,1.2,1.2v4.1
			c0,0.7-0.5,1.2-1.2,1.2H9.2c-0.1,0-0.2,0-0.2,0.1s-0.1,0.2,0,0.3l0.7,2L5.2,9.5c0,0-0.1,0-0.1,0H3.3c-0.7,0-1.2-0.5-1.2-1.2V4.1z"
			/>
		<path class="st0" d="M5.3,5v2.4c0,0.2,0.1,0.3,0.3,0.3c0.2,0,0.3-0.1,0.3-0.3V5c0-0.2-0.1-0.3-0.3-0.3C5.5,4.7,5.3,4.9,5.3,5z"/>
		<path class="st0" d="M8.9,5v2.4c0,0.2,0.1,0.3,0.3,0.3c0.2,0,0.3-0.1,0.3-0.3V5c0-0.2-0.1-0.3-0.3-0.3C9,4.7,8.9,4.9,8.9,5z"/>
		<path class="st0" d="M6.5,3.8v5c0,0.2,0.1,0.3,0.3,0.3C7,9.1,7.1,9,7.1,8.8v-5c0-0.2-0.1-0.3-0.3-0.3C6.6,3.5,6.5,3.7,6.5,3.8z"/>
		<path class="st0" d="M7.7,3.8v5C7.7,9,7.8,9.1,8,9.1c0.2,0,0.3-0.1,0.3-0.3v-5c0-0.2-0.1-0.3-0.3-0.3C7.8,3.5,7.7,3.7,7.7,3.8z"/>
		<path class="st0" d="M10,5.9v0.6c0,0.2,0.1,0.3,0.3,0.3c0.2,0,0.3-0.1,0.3-0.3V5.9c0-0.2-0.1-0.3-0.3-0.3C10.2,5.6,10,5.7,10,5.9z
			"/>
		<path class="st0" d="M11.2,5.3v1.8c0,0.2,0.1,0.3,0.3,0.3c0.2,0,0.3-0.1,0.3-0.3V5.3c0-0.2-0.1-0.3-0.3-0.3
			C11.4,5,11.2,5.2,11.2,5.3z"/>
		<path class="st0" d="M3,5.3v1.8c0,0.2,0.1,0.3,0.3,0.3c0.2,0,0.3-0.1,0.3-0.3V5.3C3.6,5.2,3.4,5,3.3,5C3.1,5,3,5.2,3,5.3z"/>
		<path class="st0" d="M4.2,5.9v0.6c0,0.2,0.1,0.3,0.3,0.3c0.2,0,0.3-0.1,0.3-0.3V5.9c0-0.2-0.1-0.3-0.3-0.3
			C4.3,5.6,4.2,5.7,4.2,5.9z"/>
	</g>
</g>
</svg>
