<?xml version="1.0" encoding="utf-8"?>
<!-- Generator: Adobe Illustrator 24.0.2, SVG Export Plug-In . SVG Version: 6.00 Build 0)  -->
<svg version="1.1" id="Layer_1" xmlns="http://www.w3.org/2000/svg" xmlns:xlink="http://www.w3.org/1999/xlink" x="0px" y="0px"
	 viewBox="0 0 18 24" style="enable-background:new 0 0 18 24;" xml:space="preserve">
<style type="text/css">
	.st0{fill:#FC6A55;}
	.st1{fill:#EDEDED;}
	.st2{fill:none;stroke:#FC6A55;stroke-miterlimit:10;}
	.st3{stroke:#FFFFFF;stroke-width:0.25;stroke-miterlimit:10;}
	.st4{fill:#656D7A;}
	.st5{fill:#FFFFFF;}
	.st6{filter:url(#Adobe_OpacityMaskFilter);}
	.st7{fill-rule:evenodd;clip-rule:evenodd;fill:#FFFFFF;}
	.st8{mask:url(#mask-2_8_);fill-rule:evenodd;clip-rule:evenodd;}
	.st9{filter:url(#Adobe_OpacityMaskFilter_1_);}
	.st10{mask:url(#mask-2_7_);fill-rule:evenodd;clip-rule:evenodd;}
	.st11{filter:url(#Adobe_OpacityMaskFilter_2_);}
	.st12{mask:url(#mask-2_6_);fill-rule:evenodd;clip-rule:evenodd;}
	.st13{filter:url(#Adobe_OpacityMaskFilter_3_);}
	.st14{mask:url(#mask-2_5_);fill-rule:evenodd;clip-rule:evenodd;}
	.st15{filter:url(#Adobe_OpacityMaskFilter_4_);}
	.st16{mask:url(#mask-2_2_);fill:none;stroke:#000000;stroke-width:2;}
	.st17{fill:#434343;}
	.st18{fill:#434343;stroke:#F9F9F9;stroke-width:0.25;stroke-miterlimit:10;}
	.st19{fill:none;stroke:#FC6A55;stroke-width:0.5;stroke-miterlimit:10;}
	.st20{fill:none;stroke:#FC6A55;stroke-width:0.75;stroke-miterlimit:10;}
	.st21{fill:#FC6A55;stroke:#FC6A55;stroke-width:0.5;stroke-miterlimit:10;}
	.st22{opacity:0.153;fill:url(#Path_146_);enable-background:new    ;}
	.st23{opacity:0.1;fill:#590BB2;enable-background:new    ;}
	.st24{fill:#8E8CA8;}
	.st25{fill:#F5F4F9;}
	.st26{fill:#FFD5B8;}
	.st27{fill:#FC8473;}
	.st28{fill:#1C3475;}
	.st29{fill:#DDD9E4;}
	.st30{fill:#828FB3;}
	.st31{opacity:7.584635e-02;fill:url(#Path_147_);enable-background:new    ;}
	.st32{fill:#FFBE92;}
	.st33{fill:#FB8E7F;}
	.st34{fill:#FDB1A6;}
	.st35{fill:#FC806F;}
	.st36{fill:#FFE783;}
	.st37{fill:#104478;}
	.st38{fill:none;stroke:#FFFFFF;stroke-miterlimit:10;}
	.st39{fill:none;stroke:#000000;stroke-width:0.15;stroke-miterlimit:10;}
	.st40{opacity:0.1;fill:url(#Path_148_);enable-background:new    ;}
	.st41{opacity:0.1;fill:url(#Path_149_);enable-background:new    ;}
	.st42{fill-rule:evenodd;clip-rule:evenodd;fill:#FC6A55;}
	.st43{fill-rule:evenodd;clip-rule:evenodd;}
</style>
<g>
	<g>
		<path d="M9.4,6.2c-0.5-0.4-1,0-1,0v-2C8.4,4.1,8.3,4,8.3,4C8.2,4,8.1,4.1,8.1,4.1v2.2c0,0-0.7,0.5-1,0.6V3.3C7.1,3.1,7.3,3,7.5,3
			h0.3c0.2,0,0.4,0.1,0.4,0.3v0.4c0,0.1,0.1,0.1,0.1,0.1c0.1,0,0.1-0.1,0.1-0.1V3.3c0-0.3-0.3-0.6-0.7-0.6H7.5
			C7.1,2.7,6.8,3,6.8,3.3V7C6.7,7,6.7,7,6.6,7V4.4c0-0.3-0.3-0.6-0.7-0.6H5.6C5.3,3.9,5,4.1,5,4.4v1.2L4.7,5.8V5.4
			c0-0.3-0.3-0.5-0.6-0.5H3.7c-0.3,0-0.6,0.2-0.6,0.5v1.1L2.7,6.7L1.3,7C1.1,7.1,0.9,7.2,0.8,7.4C0.7,7.6,0.6,7.8,0.7,8l0.1,0.5
			C0.9,8.5,1,8.6,1,8.6c0.1,0,0.1-0.1,0.1-0.1L1,7.9C0.9,7.6,1.1,7.4,1.4,7.3L2.6,7l0.9,2.1c0.1,0.1,0.1,0.5-0.4,0.7L2.2,9.9
			C1.9,10,1.6,9.8,1.5,9.5L1.3,8.9c0-0.1-0.1-0.1-0.2-0.1C1,8.9,1,8.9,1,9l0.2,0.6c0.1,0.3,0.5,0.6,0.9,0.6c0.3,0,1.1-0.2,1.1-0.2
			c0.3,0,0.5-0.2,0.6-0.4c0.1-0.2,0.1-0.3,0.1-0.5l3.2-0.7c0.3-0.1,0.5-0.2,0.7-0.3L9.3,7C9.8,6.7,9.5,6.3,9.4,6.2z M5.6,4.1h0.3
			c0.2,0,0.4,0.1,0.4,0.3V7L5.4,7c-0.1,0,0,0,0-0.1l0.3-0.2C5.8,6.6,6,6.4,6.1,6.1c0-0.2,0-0.4-0.2-0.5C5.7,5.5,5.5,5.5,5.3,5.6V4.4
			C5.3,4.3,5.4,4.1,5.6,4.1z M3.4,5.4c0-0.1,0.1-0.3,0.3-0.3h0.4c0.2,0,0.3,0.1,0.3,0.3v0.5l-1,0.4L3.4,5.4L3.4,5.4z M9.1,6.8
			L7.6,7.9C7.4,8,7.2,8.1,7,8.2L3.8,8.8L2.9,6.9l2.5-1.1c0.1,0,0.2,0,0.3,0C5.8,5.9,5.8,6,5.8,6.1C5.7,6.3,5.6,6.5,5.4,6.6L5.2,6.8
			C5,6.9,5,7,5,7.1c0,0.1,0.2,0.2,0.3,0.2l1.1,0h0c0.4,0,0.7-0.1,1-0.3l1.2-0.7c0.2-0.1,0.4-0.1,0.5,0C9.3,6.4,9.4,6.6,9.1,6.8z"/>
		<path d="M3,9.1c0-0.3-0.3-0.5-0.6-0.5S1.9,8.9,1.9,9.1c0,0.3,0.3,0.5,0.6,0.5S3,9.4,3,9.1z M2.1,9.1c0-0.1,0.1-0.2,0.3-0.2
			c0.2,0,0.3,0.1,0.3,0.2c0,0.1-0.1,0.2-0.3,0.2C2.3,9.4,2.1,9.3,2.1,9.1z"/>
		<path d="M1.4,5.6l2.1-1.8L4,4.1c0.2,0.1,0.4,0,0.5-0.1l1.2-0.9c0,0,0,0.5,0.4,0.5c0.2,0,0.4-0.2,0.4-0.4v-1c0,0,0,0,0,0
			c0-0.3-0.2-0.4-0.4-0.4H4.9C4.7,1.8,4.5,2,4.5,2.2C4.5,2.6,5,2.5,5,2.5L4.1,3.3L3.6,3C3.4,3,3.2,3,3.1,3.1l-2.3,2
			c-0.2,0.1-0.2,0.4,0,0.5C0.8,5.7,1.1,5.9,1.4,5.6z M1,5.3l2.3-2c0,0,0.1-0.1,0.2,0l0.6,0.3c0.1,0,0.1,0,0.2,0l1.2-1
			c0,0,0.1-0.1,0-0.1c0,0-0.1-0.1-0.1-0.1H4.9c-0.1,0-0.2-0.1-0.2-0.1C4.8,2.1,4.8,2,4.9,2h1.2c0,0,0.2,0,0.2,0.1c0,0,0,0,0,0v1
			c0,0.1-0.1,0.1-0.2,0.1C6,3.3,5.9,3.2,5.9,3.2V2.8c0,0,0-0.1-0.1-0.1c-0.1,0-0.1,0-0.2,0L4.3,3.8c0,0-0.1,0-0.2,0L3.5,3.6
			c-0.1,0-0.1,0-0.2,0L1.2,5.5C1.1,5.6,1,5.5,1,5.5C0.9,5.4,0.9,5.3,1,5.3z"/>
	</g>
	<g>
		<path d="M13.4,8.3c-0.2,0-0.3-0.1-0.3-0.3h-0.6c0,0.5,0.4,0.9,0.9,0.9v0.6h0.6V8.9h0.9V8c0-0.5-0.4-0.9-0.9-0.9h-0.6
			c-0.2,0-0.3-0.1-0.3-0.3V6.5h0.9c0.2,0,0.3,0.1,0.3,0.3h0.6c0-0.5-0.4-0.9-0.9-0.9V5.4h-0.6v0.6h-0.9v0.9c0,0.5,0.4,0.9,0.9,0.9
			h0.6c0.2,0,0.3,0.1,0.3,0.3v0.3H13.4z"/>
		<path d="M16.8,12.3v-1.2h-6.4v1.2H9.3v9.9H18v-9.9H16.8z M11,11.8h5.2v0.6H11V11.8z M15.1,18.7v2.9h-2.9v-2.9H15.1z M17.4,21.6
			h-1.7v-2.9h0.6v-0.6H11v0.6h0.6v2.9H9.9v-8.7h7.5V21.6z"/>
		<path d="M13.4,13.5h-2.9v1.7h2.9V13.5z M12.8,14.7H11v-0.6h1.7V14.7z"/>
		<path d="M16.8,13.5h-2.9v1.7h2.9V13.5z M16.3,14.7h-1.7v-0.6h1.7V14.7z"/>
		<path d="M13.4,15.8h-2.9v1.7h2.9V15.8z M12.8,17H11v-0.6h1.7V17z"/>
		<path d="M16.8,15.8h-2.9v1.7h2.9V15.8z M16.3,17h-1.7v-0.6h1.7V17z"/>
		<path d="M7.5,14.7H1.2v1.2H0v6.4h8.7v-6.4H7.5V14.7z M1.7,15.2H7v0.6H1.7V15.2z M5.8,19.9v1.7H2.9v-1.7H5.8z M8.1,21.6H6.4v-1.7H7
			v-0.6H1.7v0.6h0.6v1.7H0.6v-5.2h7.5V21.6z"/>
		<path d="M4.1,17H1.2v1.7h2.9V17z M3.5,18.1H1.7v-0.6h1.7V18.1z"/>
		<path d="M7.5,17H4.6v1.7h2.9V17z M7,18.1H5.2v-0.6H7V18.1z"/>
		<path d="M6.7,10.1l1.7,1.7L11,9.2c0.6,0.8,1.5,1.3,2.6,1.3c1.8,0,3.2-1.4,3.2-3.2s-1.4-3.2-3.2-3.2s-3.2,1.4-3.2,3.2
			c0,0.5,0.1,0.9,0.3,1.3l-2.3,2.3L6.7,9.3l-4.6,4.6l0.4,0.4L6.7,10.1z M13.6,4.8c1.4,0,2.6,1.2,2.6,2.6S15.1,10,13.6,10
			S11,8.8,11,7.4S12.2,4.8,13.6,4.8z"/>
	</g>
</g>
</svg>
