<?xml version="1.0" encoding="utf-8"?>
<!-- Generator: Adobe Illustrator 24.0.2, SVG Export Plug-In . SVG Version: 6.00 Build 0)  -->
<svg version="1.1" id="Layer_1" xmlns="http://www.w3.org/2000/svg" xmlns:xlink="http://www.w3.org/1999/xlink" x="0px" y="0px"
	 viewBox="0 0 18 24" style="enable-background:new 0 0 18 24;" xml:space="preserve">
<style type="text/css">
	.st0{fill:#FC6A55;}
	.st1{fill:#EDEDED;}
	.st2{fill:none;stroke:#FC6A55;stroke-miterlimit:10;}
	.st3{stroke:#FFFFFF;stroke-width:0.25;stroke-miterlimit:10;}
	.st4{fill:#656D7A;}
	.st5{fill:#FFFFFF;}
	.st6{filter:url(#Adobe_OpacityMaskFilter);}
	.st7{fill-rule:evenodd;clip-rule:evenodd;fill:#FFFFFF;}
	.st8{mask:url(#mask-2_8_);fill-rule:evenodd;clip-rule:evenodd;}
	.st9{filter:url(#Adobe_OpacityMaskFilter_1_);}
	.st10{mask:url(#mask-2_7_);fill-rule:evenodd;clip-rule:evenodd;}
	.st11{filter:url(#Adobe_OpacityMaskFilter_2_);}
	.st12{mask:url(#mask-2_6_);fill-rule:evenodd;clip-rule:evenodd;}
	.st13{filter:url(#Adobe_OpacityMaskFilter_3_);}
	.st14{mask:url(#mask-2_5_);fill-rule:evenodd;clip-rule:evenodd;}
	.st15{filter:url(#Adobe_OpacityMaskFilter_4_);}
	.st16{mask:url(#mask-2_2_);fill:none;stroke:#000000;stroke-width:2;}
	.st17{fill:#434343;}
	.st18{fill:#434343;stroke:#F9F9F9;stroke-width:0.25;stroke-miterlimit:10;}
	.st19{fill:none;stroke:#FC6A55;stroke-width:0.5;stroke-miterlimit:10;}
	.st20{fill:none;stroke:#FC6A55;stroke-width:0.75;stroke-miterlimit:10;}
	.st21{fill:#FC6A55;stroke:#FC6A55;stroke-width:0.5;stroke-miterlimit:10;}
	.st22{opacity:0.153;fill:url(#Path_146_);enable-background:new    ;}
	.st23{opacity:0.1;fill:#590BB2;enable-background:new    ;}
	.st24{fill:#8E8CA8;}
	.st25{fill:#F5F4F9;}
	.st26{fill:#FFD5B8;}
	.st27{fill:#FC8473;}
	.st28{fill:#1C3475;}
	.st29{fill:#DDD9E4;}
	.st30{fill:#828FB3;}
	.st31{opacity:7.584635e-02;fill:url(#Path_147_);enable-background:new    ;}
	.st32{fill:#FFBE92;}
	.st33{fill:#FB8E7F;}
	.st34{fill:#FDB1A6;}
	.st35{fill:#FC806F;}
	.st36{fill:#FFE783;}
	.st37{fill:#104478;}
	.st38{fill:none;stroke:#FFFFFF;stroke-miterlimit:10;}
	.st39{fill:none;stroke:#000000;stroke-width:0.15;stroke-miterlimit:10;}
	.st40{opacity:0.1;fill:url(#Path_148_);enable-background:new    ;}
	.st41{opacity:0.1;fill:url(#Path_149_);enable-background:new    ;}
	.st42{fill-rule:evenodd;clip-rule:evenodd;fill:#FC6A55;}
	.st43{fill-rule:evenodd;clip-rule:evenodd;}
</style>
<g>
	<path class="st0" d="M2.9,6.8c0-0.5,0.4-0.9,0.9-0.9s0.9,0.4,0.9,0.9v0.1c0,0.2-0.1,0.5-0.3,0.6L3.2,8.7v3.7l1.7-0.9V9.5l0.7-0.7
		c0.5-0.5,0.8-1.1,0.8-1.8V6.8c0-1.4-1.2-2.6-2.6-2.6S1.2,5.3,1.2,6.8v0.9h1.7V6.8z M2.3,6.8v0.3H1.7V6.8c0-1.1,0.9-2,2-2s2,0.9,2,2
		v0.1c0,0.5-0.2,1.1-0.6,1.4L4.4,9.2v2l-0.6,0.3V9l1-1c0.3-0.3,0.4-0.6,0.4-1V6.8c0-0.8-0.7-1.5-1.5-1.5S2.3,6,2.3,6.8z"/>
	<path class="st0" d="M3.2,13.7c0,0.5,0.4,0.9,0.9,0.9s0.9-0.4,0.9-0.9s-0.4-0.9-0.9-0.9S3.2,13.3,3.2,13.7z M4.4,13.7
		c0,0.2-0.1,0.3-0.3,0.3s-0.3-0.1-0.3-0.3s0.1-0.3,0.3-0.3S4.4,13.6,4.4,13.7z"/>
	<path class="st0" d="M1.2,18.7H7v-3.5H1.2V18.7z M1.7,15.8h4.6v2.3H1.7V15.8z"/>
	<path class="st0" d="M17,17.8L14.2,17v-0.6l0.3-0.2c0.4-0.3,0.7-0.6,0.8-1.1c0.6-0.1,1-0.6,1-1.1v-2c0-1.5-1-2.7-2.3-3.1V5.5
		L11.4,3H0v16.8h8.1V21H18v-1.8C18,18.5,17.6,18,17,17.8z M12.5,17.1v-0.3c0.2,0.1,0.4,0.1,0.6,0.1s0.4-0.1,0.6-0.1v0.3l-0.6,0.6
		L12.5,17.1z M12.1,17.6l0.6,0.6l-0.4,0.5l-0.3-1L12.1,17.6z M14,17.6l0.2,0l-0.3,1l-0.4-0.5L14,17.6z M14.8,14.6
		c0,0.5-0.2,0.9-0.6,1.2l-0.7,0.5c-0.2,0.1-0.5,0.1-0.7,0L12,15.8c-0.4-0.3-0.6-0.7-0.6-1.2v-1.7c0.6,0,1.2-0.2,1.7-0.5
		c0.5,0.3,1.1,0.5,1.7,0.5V14.6z M15.4,14.5v-1c0.2,0.1,0.3,0.3,0.3,0.5C15.7,14.2,15.6,14.4,15.4,14.5z M15.7,12v1
		c-0.1-0.1-0.2-0.1-0.3-0.1v-0.6H15c-0.6,0-1.2-0.2-1.8-0.5l-0.2-0.1l-0.2,0.1c-0.5,0.3-1.1,0.5-1.8,0.5h-0.4v0.6
		c-0.1,0-0.2,0.1-0.3,0.1v-1c0-1.4,1.2-2.6,2.6-2.6S15.7,10.6,15.7,12z M10.5,14c0-0.2,0.1-0.4,0.3-0.5v1
		C10.6,14.4,10.5,14.2,10.5,14z M9.9,12.3H7.5V10h3.1c-0.5,0.6-0.7,1.3-0.7,2V12.3z M12.2,5.9v1.7H7.5V5.3H11v0.6H12.2z M11.6,5.3V4
		l1.3,1.3H11.6z M8.1,19.2L8.1,19.2l-7.5,0.1V3.6H11v1.2H7v3.5h5.8V5.9h0.6v2.9c-0.1,0-0.2,0-0.3,0c-0.7,0-1.3,0.2-1.8,0.6H7v3.5
		h2.9V14c0,0.6,0.4,1.1,1,1.1c0.1,0.4,0.4,0.8,0.8,1.1l0.3,0.2V17l-2.7,0.8C8.6,18,8.1,18.5,8.1,19.2z M17.4,20.4h-1.5l-0.2-1.2
		l-0.6,0.1l0.2,1.1h-4.5l0.2-1.1l-0.6-0.1l-0.2,1.2H8.7v-1.2c0-0.4,0.3-0.7,0.6-0.8l2-0.6l0.7,2.1l1-1.3l1,1.3l0.7-2.1l2,0.6
		c0.4,0.1,0.6,0.5,0.6,0.8V20.4z"/>
</g>
</svg>
