<?xml version="1.0" encoding="utf-8"?>
<!-- Generator: Adobe Illustrator 24.2.0, SVG Export Plug-In . SVG Version: 6.00 Build 0)  -->
<svg version="1.1" id="Layer_1" xmlns="http://www.w3.org/2000/svg" xmlns:xlink="http://www.w3.org/1999/xlink" x="0px" y="0px"
	 viewBox="0 0 21 21" style="enable-background:new 0 0 21 21;" xml:space="preserve">
<style type="text/css">
	.st0{fill:#6F6F6F;stroke:#6F6F6F;stroke-width:0.25;stroke-miterlimit:10;}
	.st1{fill:#FC6A55;}
	.st2{fill:#EDEDED;}
	.st3{fill:none;stroke:#FC6A55;stroke-miterlimit:10;}
	.st4{fill:#222F3F;}
	.st5{fill:#383838;}
	.st6{fill:#FFFFFF;}
	.st7{fill:#B0B0B0;}
	.st8{fill:#656D7A;}
	.st9{fill:#C4C4C4;}
	.st10{filter:url(#Adobe_OpacityMaskFilter);}
	.st11{fill-rule:evenodd;clip-rule:evenodd;fill:#FFFFFF;}
	.st12{mask:url(#mask-2_8_);fill-rule:evenodd;clip-rule:evenodd;fill:#B0B0B0;}
	.st13{filter:url(#Adobe_OpacityMaskFilter_1_);}
	.st14{mask:url(#mask-2_7_);fill-rule:evenodd;clip-rule:evenodd;fill:#B0B0B0;}
	.st15{filter:url(#Adobe_OpacityMaskFilter_2_);}
	.st16{mask:url(#mask-2_6_);fill-rule:evenodd;clip-rule:evenodd;fill:#B0B0B0;}
	.st17{filter:url(#Adobe_OpacityMaskFilter_3_);}
	.st18{mask:url(#mask-2_5_);fill-rule:evenodd;clip-rule:evenodd;fill:#B0B0B0;}
	.st19{filter:url(#Adobe_OpacityMaskFilter_4_);}
	.st20{mask:url(#mask-2_2_);fill:none;stroke:#B0B0B0;stroke-width:1.5;stroke-miterlimit:10;}
	.st21{filter:url(#Adobe_OpacityMaskFilter_5_);}
	.st22{mask:url(#mask-2_10_);fill-rule:evenodd;clip-rule:evenodd;fill:#FC6A55;}
	.st23{filter:url(#Adobe_OpacityMaskFilter_6_);}
	.st24{mask:url(#mask-2_9_);fill-rule:evenodd;clip-rule:evenodd;fill:#FC6A55;}
	.st25{filter:url(#Adobe_OpacityMaskFilter_7_);}
	.st26{mask:url(#mask-2_4_);fill-rule:evenodd;clip-rule:evenodd;fill:#FC6A55;}
	.st27{filter:url(#Adobe_OpacityMaskFilter_8_);}
	.st28{mask:url(#mask-2_3_);fill-rule:evenodd;clip-rule:evenodd;fill:#FC6A55;}
	.st29{filter:url(#Adobe_OpacityMaskFilter_9_);}
	.st30{mask:url(#mask-2_1_);fill:none;stroke:#FC6A55;stroke-width:1.5;stroke-miterlimit:10;}
	.st31{fill:#B4A3EE;}
	.st32{fill:#222121;}
	.st33{fill:#434343;}
	.st34{fill:#434343;stroke:#F9F9F9;stroke-width:0.25;stroke-miterlimit:10;}
	.st35{fill:none;stroke:#FC6A55;stroke-width:0.75;stroke-miterlimit:10;}
	.st36{fill:#FC6A55;stroke:#FC6A55;stroke-width:0.25;stroke-miterlimit:10;}
	.st37{fill:#FC6A55;stroke:#FC6A55;stroke-width:0.5;stroke-miterlimit:10;}
	.st38{opacity:0.5;fill:#FC6A55;}
	.st39{fill:#F5F4F9;}
	.st40{opacity:0.153;fill:url(#Path_144_);enable-background:new    ;}
	.st41{opacity:0.1;fill:#590BB2;enable-background:new    ;}
	.st42{fill:#8E8CA8;}
	.st43{fill:#FFD5B8;}
	.st44{fill:#FC8473;}
	.st45{fill:#1C3475;}
	.st46{fill:#DDD9E4;}
	.st47{fill:#828FB3;}
	.st48{opacity:7.584635e-02;fill:url(#Path_145_);enable-background:new    ;}
	.st49{fill:#FFBE92;}
	.st50{fill:#FB8E7F;}
	.st51{fill:#FDB1A6;}
	.st52{fill:#FC806F;}
	.st53{fill:#FFE783;}
	.st54{fill:#104478;}
	.st55{fill:none;stroke:#FFFFFF;stroke-miterlimit:10;}
	.st56{fill:none;stroke:#000000;stroke-width:0.15;stroke-miterlimit:10;}
	.st57{opacity:0.3;fill:#FC6A55;}
	.st58{opacity:0.4;fill:#FC6A55;}
	.st59{opacity:0.1;fill:url(#Path_147_);enable-background:new    ;}
	.st60{opacity:0.1;fill:url(#Path_150_);enable-background:new    ;}
	.st61{fill-rule:evenodd;clip-rule:evenodd;fill:#FC6A55;}
	.st62{fill-rule:evenodd;clip-rule:evenodd;}
	.st63{fill:#FF6757;}
	.st64{fill:#6C973D;}
	.st65{fill:none;stroke:#FFFFFF;stroke-width:0.5;stroke-miterlimit:10;}
	.st66{fill:#606060;}
	.st67{fill:#F16A56;}
	.st68{fill:#515252;}
	.st69{fill:#656565;}
	.st70{fill:#F26A56;}
	.st71{fill:none;stroke:#F16A56;stroke-miterlimit:10;}
	.st72{fill:none;stroke:#929292;stroke-miterlimit:10;}
	.st73{fill:#929292;}
	.st74{fill:none;stroke:#000000;stroke-width:0.5;stroke-miterlimit:10;}
	.st75{fill:#A8A7A7;}
	.st76{fill:#F79F91;}
	.st77{fill:#9BDBD5;}
	.st78{stroke:#000000;stroke-width:0.25;stroke-miterlimit:10;}
	.st79{fill:#6F6F6F;}
	.st80{fill:none;stroke:#6F6F6F;stroke-width:0.75;stroke-miterlimit:10;}
</style>
<path class="st79" d="M1.3,20.8H3c0.3,0,0.6-0.1,0.7-0.3h8.6c0.5,0,1-0.1,1.4-0.4l6.4-3.9c0.3-0.2,0.5-0.5,0.6-0.9
	c0.1-0.3,0-0.7-0.2-1c-0.3-0.5-0.9-0.6-1.5-0.5l-5.3,1.8L20.4,9c0.1-0.1,0.1-0.3,0-0.5l-2.7-2.7c-0.5-0.5-1.4-0.5-1.9,0
	c-0.2,0.2-0.3,0.5-0.2,0.7c0.1,0.7-0.3,1.3-0.8,1.7c-0.5,0.3-1.1,0.3-1.7,0c-0.4-0.3-0.7-0.7-0.7-1.1c-0.1-0.5,0.1-1,0.5-1.4
	c0.4-0.3,0.9-0.5,1.4-0.5c0.3,0.1,0.5-0.1,0.7-0.2l-0.1-0.1c0.5-0.5,0.5-1.3,0-1.9l-2.7-2.7c-0.1-0.1-0.3-0.1-0.5,0L8.8,3.2
	C8.6,3.3,8.5,3.4,8.3,3.4S8,3.3,7.8,3.2V3.1C8,2.4,7.8,1.7,7.2,1.2S6,0.4,5.3,0.5c-0.7,0-1.3,0.4-1.7,1C3.1,2.3,3.1,3.2,3.5,3.9
	C4,4.7,4.9,5.2,5.9,5h0.1c0.2,0.2,0.3,0.3,0.3,0.5C6.2,5.7,6.1,5.8,6,6L3.1,8.8C3.1,8.9,3,9,3,9.1c0,0.1,0.1,0.2,0.1,0.3L7,13.2
	c-0.1-0.1-0.1-0.1-0.3-0.2c-0.6-0.5-1.4-0.7-2.2-0.7H3.9c-0.1-0.4-0.5-0.7-1-0.7H1.3c-0.6-0.1-1.1,0.3-1.1,0.9v7.2
	C0.2,20.3,0.7,20.8,1.3,20.8z M3.9,9l2.6-2.6c0.3-0.3,0.4-0.6,0.4-0.9S6.7,4.9,6.4,4.6C6.2,4.4,6,4.3,5.8,4.4
	C5.1,4.5,4.5,4.2,4.2,3.7c-0.3-0.6-0.3-1.3,0-1.7c0.3-0.5,0.7-0.7,1.3-0.8c0.5-0.1,1,0.1,1.3,0.5c0.3,0.3,0.5,0.9,0.4,1.3
	C7.1,3.2,7.2,3.5,7.4,3.6C7.6,3.9,8,4,8.3,4C8.6,4,9,3.9,9.2,3.6L11.8,1l2.5,2.5c0.3,0.3,0.3,0.7,0,0.9l-0.1,0.1h-0.1
	c-0.7-0.1-1.5,0.1-2,0.7c-0.5,0.5-0.8,1.3-0.7,1.9c0.1,0.7,0.5,1.3,1.1,1.7c0.7,0.5,1.7,0.4,2.4,0c0.8-0.5,1.3-1.4,1.1-2.3
	c0-0.1,0-0.1,0-0.1C16.4,6,16.8,6,17,6.3l2.5,2.5L12.4,16h-0.2c0.1-0.5,0.1-0.9-0.1-1.3v-0.1c-0.4-0.6-1.1-1-1.8-1H8.5H8.4L3.9,9z
	 M6.3,13.5c0.5,0.5,1.2,0.7,1.9,0.7h0.3h1.8c0.5,0,0.9,0.3,1.2,0.7v0.1c0.2,0.3,0.2,0.7-0.1,1H9.4c-0.7,0-1.3,0.2-1.9,0.6l-0.3,0.2
	C7,16.8,7,17,7.1,17.2c0.1,0.1,0.3,0.2,0.5,0.1L7.8,17c0.5-0.3,1-0.5,1.5-0.5h3h0.1h0.1c0.1,0,0.3-0.1,0.3-0.1l6.4-2.1
	c0.3-0.1,0.5,0,0.7,0.2c0.1,0.1,0.1,0.3,0.1,0.5s-0.1,0.3-0.3,0.4l-6.4,4c-0.3,0.2-0.7,0.3-1.1,0.3H4v-6.9h0.6
	C5.3,12.9,5.9,13.1,6.3,13.5z M0.9,12.5c0-0.2,0.1-0.3,0.3-0.3h1.7c0.2,0,0.3,0.1,0.3,0.3v7.2c0,0.2-0.1,0.3-0.3,0.3H1.3
	c-0.2,0-0.4-0.2-0.4-0.4L0.9,12.5z"/>
</svg>
