<?xml version="1.0" encoding="utf-8"?>
<!-- Generator: Adobe Illustrator 24.2.0, SVG Export Plug-In . SVG Version: 6.00 Build 0)  -->
<svg version="1.1" id="Layer_1" xmlns="http://www.w3.org/2000/svg" xmlns:xlink="http://www.w3.org/1999/xlink" x="0px" y="0px"
	 viewBox="0 0 21 21" style="enable-background:new 0 0 21 21;" xml:space="preserve">
<style type="text/css">
	.st0{fill:#6F6F6F;stroke:#6F6F6F;stroke-width:0.25;stroke-miterlimit:10;}
	.st1{fill:#FC6A55;}
	.st2{fill:#EDEDED;}
	.st3{fill:none;stroke:#FC6A55;stroke-miterlimit:10;}
	.st4{fill:#222F3F;}
	.st5{fill:#383838;}
	.st6{fill:#FFFFFF;}
	.st7{fill:#B0B0B0;}
	.st8{fill:#656D7A;}
	.st9{fill:#C4C4C4;}
	.st10{filter:url(#Adobe_OpacityMaskFilter);}
	.st11{fill-rule:evenodd;clip-rule:evenodd;fill:#FFFFFF;}
	.st12{mask:url(#mask-2_8_);fill-rule:evenodd;clip-rule:evenodd;fill:#B0B0B0;}
	.st13{filter:url(#Adobe_OpacityMaskFilter_1_);}
	.st14{mask:url(#mask-2_7_);fill-rule:evenodd;clip-rule:evenodd;fill:#B0B0B0;}
	.st15{filter:url(#Adobe_OpacityMaskFilter_2_);}
	.st16{mask:url(#mask-2_6_);fill-rule:evenodd;clip-rule:evenodd;fill:#B0B0B0;}
	.st17{filter:url(#Adobe_OpacityMaskFilter_3_);}
	.st18{mask:url(#mask-2_5_);fill-rule:evenodd;clip-rule:evenodd;fill:#B0B0B0;}
	.st19{filter:url(#Adobe_OpacityMaskFilter_4_);}
	.st20{mask:url(#mask-2_2_);fill:none;stroke:#B0B0B0;stroke-width:1.5;stroke-miterlimit:10;}
	.st21{filter:url(#Adobe_OpacityMaskFilter_5_);}
	.st22{mask:url(#mask-2_10_);fill-rule:evenodd;clip-rule:evenodd;fill:#FC6A55;}
	.st23{filter:url(#Adobe_OpacityMaskFilter_6_);}
	.st24{mask:url(#mask-2_9_);fill-rule:evenodd;clip-rule:evenodd;fill:#FC6A55;}
	.st25{filter:url(#Adobe_OpacityMaskFilter_7_);}
	.st26{mask:url(#mask-2_4_);fill-rule:evenodd;clip-rule:evenodd;fill:#FC6A55;}
	.st27{filter:url(#Adobe_OpacityMaskFilter_8_);}
	.st28{mask:url(#mask-2_3_);fill-rule:evenodd;clip-rule:evenodd;fill:#FC6A55;}
	.st29{filter:url(#Adobe_OpacityMaskFilter_9_);}
	.st30{mask:url(#mask-2_1_);fill:none;stroke:#FC6A55;stroke-width:1.5;stroke-miterlimit:10;}
	.st31{fill:#B4A3EE;}
	.st32{fill:#222121;}
	.st33{fill:#434343;}
	.st34{fill:#434343;stroke:#F9F9F9;stroke-width:0.25;stroke-miterlimit:10;}
	.st35{fill:none;stroke:#FC6A55;stroke-width:0.75;stroke-miterlimit:10;}
	.st36{fill:#FC6A55;stroke:#FC6A55;stroke-width:0.25;stroke-miterlimit:10;}
	.st37{fill:#FC6A55;stroke:#FC6A55;stroke-width:0.5;stroke-miterlimit:10;}
	.st38{opacity:0.5;fill:#FC6A55;}
	.st39{fill:#F5F4F9;}
	.st40{opacity:0.153;fill:url(#Path_144_);enable-background:new    ;}
	.st41{opacity:0.1;fill:#590BB2;enable-background:new    ;}
	.st42{fill:#8E8CA8;}
	.st43{fill:#FFD5B8;}
	.st44{fill:#FC8473;}
	.st45{fill:#1C3475;}
	.st46{fill:#DDD9E4;}
	.st47{fill:#828FB3;}
	.st48{opacity:7.584635e-02;fill:url(#Path_145_);enable-background:new    ;}
	.st49{fill:#FFBE92;}
	.st50{fill:#FB8E7F;}
	.st51{fill:#FDB1A6;}
	.st52{fill:#FC806F;}
	.st53{fill:#FFE783;}
	.st54{fill:#104478;}
	.st55{fill:none;stroke:#FFFFFF;stroke-miterlimit:10;}
	.st56{fill:none;stroke:#000000;stroke-width:0.15;stroke-miterlimit:10;}
	.st57{opacity:0.3;fill:#FC6A55;}
	.st58{opacity:0.4;fill:#FC6A55;}
	.st59{opacity:0.1;fill:url(#Path_147_);enable-background:new    ;}
	.st60{opacity:0.1;fill:url(#Path_150_);enable-background:new    ;}
	.st61{fill-rule:evenodd;clip-rule:evenodd;fill:#FC6A55;}
	.st62{fill-rule:evenodd;clip-rule:evenodd;}
	.st63{fill:#FF6757;}
	.st64{fill:#6C973D;}
	.st65{fill:none;stroke:#FFFFFF;stroke-width:0.5;stroke-miterlimit:10;}
	.st66{fill:#606060;}
	.st67{fill:#F16A56;}
	.st68{fill:#515252;}
	.st69{fill:#656565;}
	.st70{fill:#F26A56;}
	.st71{fill:none;stroke:#F16A56;stroke-miterlimit:10;}
	.st72{fill:none;stroke:#929292;stroke-miterlimit:10;}
	.st73{fill:#929292;}
	.st74{fill:none;stroke:#000000;stroke-width:0.5;stroke-miterlimit:10;}
	.st75{fill:#A8A7A7;}
	.st76{fill:#F79F91;}
	.st77{fill:#9BDBD5;}
	.st78{stroke:#000000;stroke-width:0.25;stroke-miterlimit:10;}
	.st79{fill:#6F6F6F;}
	.st80{fill:none;stroke:#6F6F6F;stroke-width:0.75;stroke-miterlimit:10;}
</style>
<g>
	<path class="st79" d="M18.1,8.2h-2.6l-0.7,5.3h-2.7V8.2h-1.3V6.9h-2V3.6H8.2L7.8,0.2H5.9L5.6,3.6H4.9V2.2H2.2v1.3H1.6v7.8
		c-0.8,0.8-1.3,1.9-1.3,3.1s0.5,2.3,1.3,3.1v3.2h18.5v-7.3h-1.4L18.1,8.2z M17.5,8.8l0.1,0.7H16l0.1-0.7H17.5z M15.9,10.2h1.7
		l0.4,3.3h-2.6L15.9,10.2z M11.5,13.5H8.7c-0.4-1.6-1.6-2.8-3.2-3.2V8.8h6V13.5z M5.8,17.9c0.2-0.3,0.3-0.7,0.5-1.1h1.1
		C6.9,17.3,6.4,17.7,5.8,17.9z M1.7,16.8h1.1c0.1,0.4,0.3,0.8,0.5,1.1C2.7,17.7,2.2,17.3,1.7,16.8z M3.3,11
		c-0.2,0.3-0.3,0.7-0.5,1.1H1.7C2.2,11.7,2.7,11.3,3.3,11z M3.6,6.2H2.2V5.5h1.3V6.2z M3.6,6.9v0.7H2.2V6.9H3.6z M3.6,8.2v0.7H2.2
		V8.2H3.6z M6.5,14.1c0-0.5-0.1-0.9-0.1-1.3h1.4c0.2,0.4,0.3,0.8,0.4,1.3H6.5z M3.2,14.1c0-0.5,0.1-0.9,0.2-1.3h2.3
		c0.1,0.4,0.1,0.8,0.2,1.3H3.2z M5.9,14.8c0,0.5-0.1,0.9-0.2,1.3H3.4c-0.1-0.4-0.1-0.8-0.2-1.3H5.9z M6.2,12.2
		C6.1,11.7,6,11.4,5.8,11c0.6,0.2,1.2,0.6,1.6,1.1H6.2z M5.5,12.2h-2c0.3-0.8,0.6-1.3,1-1.3C4.9,10.8,5.3,11.3,5.5,12.2z M2.7,12.8
		c-0.1,0.4-0.1,0.9-0.1,1.3H0.9c0-0.5,0.2-0.9,0.4-1.3H2.7z M2.6,14.8c0,0.5,0.1,0.9,0.1,1.3H1.3c-0.2-0.4-0.3-0.8-0.4-1.3H2.6z
		 M3.6,16.8h2c-0.3,0.8-0.6,1.3-1,1.3S3.8,17.6,3.6,16.8z M7.8,16.1H6.4c0.1-0.4,0.1-0.9,0.1-1.3h1.6C8.1,15.3,8,15.7,7.8,16.1
		L7.8,16.1z M10.2,8.2H6.9V7.5h3.3V8.2z M8.2,6.9h-2v1.3H4.9v2c-0.1,0-0.2,0-0.3,0s-0.2,0-0.3,0v-6h4V6.9z M6.5,0.9h0.7l0.3,2.6H6.2
		L6.5,0.9z M2.9,2.9h1.3v0.7H2.9V2.9z M3.6,4.2v0.7H2.2V4.2H3.6z M2.2,9.5h1.3v0.8c-0.5,0.1-0.9,0.3-1.3,0.6V9.5z M2.2,18.1
		c0.7,0.4,1.5,0.7,2.3,0.7s1.6-0.3,2.3-0.7v2H2.2L2.2,18.1z M10.2,20.1H8.8v-2.6h1.3V20.1z M14.1,20.1h-1.3v-2.6h1.3V20.1z
		 M18.1,20.1h-1.3v-2.6h1.3V20.1z M18.8,20.1v-3.3h-2.6v3.3h-1.3v-3.3h-2.6v3.3h-1.3v-3.3H8.2v3.3H7.5v-2.5c0.6-0.6,1-1.3,1.2-2.1
		h10.7v4.6H18.8z M19.4,14.8H8.8c0-0.1,0-0.2,0-0.3s0-0.2,0-0.3h10.6V14.8z"/>
	<path class="st79" d="M19.1,3.6h-0.7c-0.1-0.7-0.7-1.3-1.5-1.3h-0.8v0.7h0.8c0.5,0,0.8,0.4,0.8,0.8v0.5h1.3c0.5,0,1,0.4,1,1
		s-0.4,1-1,1h-1c-0.5,0-1,0.4-1,1v0.3h0.7V7.2c0-0.2,0.1-0.3,0.3-0.3h1c0.9,0,1.7-0.7,1.7-1.7S20,3.6,19.1,3.6z"/>
	<path class="st79" d="M13.1,6.9h2.3c0.2,0,0.3,0.1,0.3,0.3v0.3h0.7V7.2c0-0.5-0.4-1-1-1h-2.3c-0.2,0-0.3-0.1-0.3-0.3
		c0-0.2,0.1-0.3,0.3-0.3h2V4.9h-0.7c-0.5,0-1-0.4-1-1s0.4-1,1-1h1V2.2h-1c-0.9,0-1.7,0.7-1.7,1.7c0,0.4,0.1,0.7,0.3,1h0
		c-0.5,0-1,0.4-1,1S12.6,6.9,13.1,6.9z"/>
	<path class="st79" d="M10.2,9.5h0.7v0.7h-0.7V9.5z"/>
	<path class="st79" d="M7.5,9.5h0.7v0.7H7.5V9.5z"/>
	<path class="st79" d="M6.2,9.5h0.7v0.7H6.2V9.5z"/>
	<path class="st79" d="M8.8,9.5h0.7v0.7H8.8V9.5z"/>
	<path class="st79" d="M8.8,10.8h0.7v0.7H8.8V10.8z"/>
	<path class="st79" d="M10.2,10.8h0.7v0.7h-0.7V10.8z"/>
	<path class="st79" d="M8.8,12.2h0.7v0.7H8.8V12.2z"/>
	<path class="st79" d="M10.2,12.2h0.7v0.7h-0.7V12.2z"/>
</g>
</svg>
