<?xml version="1.0" encoding="utf-8"?>
<!-- Generator: Adobe Illustrator 24.2.0, SVG Export Plug-In . SVG Version: 6.00 Build 0)  -->
<svg version="1.1" id="Layer_1" xmlns="http://www.w3.org/2000/svg" xmlns:xlink="http://www.w3.org/1999/xlink" x="0px" y="0px"
	 viewBox="0 0 31 21" style="enable-background:new 0 0 31 21;" xml:space="preserve">
<style type="text/css">
	.st0{fill:#FC6A55;stroke:#FC6A55;stroke-width:0.25;stroke-miterlimit:10;}
	.st1{fill:#FC6A55;}
	.st2{fill:#EDEDED;}
	.st3{fill:none;stroke:#FC6A55;stroke-miterlimit:10;}
	.st4{fill:#222F3F;}
	.st5{fill:#383838;}
	.st6{fill:#FFFFFF;}
	.st7{fill:#B0B0B0;}
	.st8{fill:#656D7A;}
	.st9{fill:#C4C4C4;}
	.st10{filter:url(#Adobe_OpacityMaskFilter);}
	.st11{fill-rule:evenodd;clip-rule:evenodd;fill:#FFFFFF;}
	.st12{mask:url(#mask-2_8_);fill-rule:evenodd;clip-rule:evenodd;fill:#B0B0B0;}
	.st13{filter:url(#Adobe_OpacityMaskFilter_1_);}
	.st14{mask:url(#mask-2_7_);fill-rule:evenodd;clip-rule:evenodd;fill:#B0B0B0;}
	.st15{filter:url(#Adobe_OpacityMaskFilter_2_);}
	.st16{mask:url(#mask-2_6_);fill-rule:evenodd;clip-rule:evenodd;fill:#B0B0B0;}
	.st17{filter:url(#Adobe_OpacityMaskFilter_3_);}
	.st18{mask:url(#mask-2_5_);fill-rule:evenodd;clip-rule:evenodd;fill:#B0B0B0;}
	.st19{filter:url(#Adobe_OpacityMaskFilter_4_);}
	.st20{mask:url(#mask-2_2_);fill:none;stroke:#B0B0B0;stroke-width:1.5;stroke-miterlimit:10;}
	.st21{filter:url(#Adobe_OpacityMaskFilter_5_);}
	.st22{mask:url(#mask-2_10_);fill-rule:evenodd;clip-rule:evenodd;fill:#FC6A55;}
	.st23{filter:url(#Adobe_OpacityMaskFilter_6_);}
	.st24{mask:url(#mask-2_9_);fill-rule:evenodd;clip-rule:evenodd;fill:#FC6A55;}
	.st25{filter:url(#Adobe_OpacityMaskFilter_7_);}
	.st26{mask:url(#mask-2_4_);fill-rule:evenodd;clip-rule:evenodd;fill:#FC6A55;}
	.st27{filter:url(#Adobe_OpacityMaskFilter_8_);}
	.st28{mask:url(#mask-2_3_);fill-rule:evenodd;clip-rule:evenodd;fill:#FC6A55;}
	.st29{filter:url(#Adobe_OpacityMaskFilter_9_);}
	.st30{mask:url(#mask-2_1_);fill:none;stroke:#FC6A55;stroke-width:1.5;stroke-miterlimit:10;}
	.st31{fill:#B4A3EE;}
	.st32{fill:#222121;}
	.st33{fill:#434343;}
	.st34{fill:#434343;stroke:#F9F9F9;stroke-width:0.25;stroke-miterlimit:10;}
	.st35{fill:none;stroke:#FC6A55;stroke-width:0.75;stroke-miterlimit:10;}
	.st36{fill:#FC6A55;stroke:#FC6A55;stroke-width:0.5;stroke-miterlimit:10;}
	.st37{opacity:0.5;fill:#FC6A55;}
	.st38{fill:#F5F4F9;}
	.st39{opacity:0.153;fill:url(#Path_144_);enable-background:new    ;}
	.st40{opacity:0.1;fill:#590BB2;enable-background:new    ;}
	.st41{fill:#8E8CA8;}
	.st42{fill:#FFD5B8;}
	.st43{fill:#FC8473;}
	.st44{fill:#1C3475;}
	.st45{fill:#DDD9E4;}
	.st46{fill:#828FB3;}
	.st47{opacity:7.584635e-02;fill:url(#Path_145_);enable-background:new    ;}
	.st48{fill:#FFBE92;}
	.st49{fill:#FB8E7F;}
	.st50{fill:#FDB1A6;}
	.st51{fill:#FC806F;}
	.st52{fill:#FFE783;}
	.st53{fill:#104478;}
	.st54{fill:none;stroke:#FFFFFF;stroke-miterlimit:10;}
	.st55{fill:none;stroke:#000000;stroke-width:0.15;stroke-miterlimit:10;}
	.st56{opacity:0.3;fill:#FC6A55;}
	.st57{opacity:0.4;fill:#FC6A55;}
	.st58{opacity:0.1;fill:url(#Path_147_);enable-background:new    ;}
	.st59{opacity:0.1;fill:url(#Path_150_);enable-background:new    ;}
	.st60{fill-rule:evenodd;clip-rule:evenodd;fill:#FC6A55;}
	.st61{fill-rule:evenodd;clip-rule:evenodd;}
	.st62{fill:#FF6757;}
	.st63{fill:#6C973D;}
	.st64{fill:none;stroke:#FFFFFF;stroke-width:0.5;stroke-miterlimit:10;}
	.st65{fill:#606060;}
	.st66{fill:#F16A56;}
	.st67{fill:#515252;}
	.st68{fill:#656565;}
	.st69{fill:#F26A56;}
	.st70{fill:none;stroke:#F16A56;stroke-miterlimit:10;}
	.st71{fill:none;stroke:#929292;stroke-miterlimit:10;}
	.st72{fill:#929292;}
	.st73{fill:none;stroke:#000000;stroke-width:0.5;stroke-miterlimit:10;}
	.st74{fill:#A8A7A7;}
	.st75{fill:#F79F91;}
	.st76{fill:#9BDBD5;}
	.st77{stroke:#000000;stroke-width:0.25;stroke-miterlimit:10;}
</style>
<g>
	<path class="st1" d="M24.8,8.6V5l-1.3-0.3V4.6l0.7-1.2L21.6,1l-1.2,0.7h-0.1L20,0.3h-3.5l-0.3,1.3H16l-1.2-0.7l-2.5,2.5l0.7,1.2
		v0.1L11.7,5v3.5l1.3,0.3v0.1l-0.7,1.2l2.5,2.5l1.2-0.7h0.1l0.3,1.3H20l0.3-1.3h0.1l1.2,0.7l2.5-2.5l-0.7-1.2V8.8L24.8,8.6z
		 M22.9,10.1l-1.5,1.5l-1-0.6L20.1,11c-0.1,0.2-0.2,0.2-0.4,0.2l-0.2,0.1l-0.3,1.1h-2.1l-0.3-1.1l-0.2-0.1c-0.2-0.1-0.3-0.1-0.5-0.2
		L15.9,11l-1,0.6l-1.4-1.6l0.6-1l-0.2-0.2c-0.1-0.2-0.2-0.3-0.2-0.5l-0.1-0.2l-1.1-0.3v-2l1.1-0.3l0.1-0.2c0.1-0.2,0.1-0.3,0.2-0.5
		L14,4.6l-0.5-1l1.5-1.5l1,0.6l0.2-0.1c0.2-0.1,0.3-0.2,0.5-0.2l0.2-0.1l0.3-1.1h2.1l0.3,1.1h0.1c0.2,0.1,0.3,0.1,0.5,0.2l0.2,0.1
		l1-0.6l1.4,1.6l-0.6,1l0.1,0.2c0.1,0.2,0.2,0.3,0.2,0.5l0.1,0.2l1.1,0.3v2.1l-1.1,0.3l-0.1,0.2c-0.1,0.2-0.1,0.3-0.2,0.5l-0.1,0.2
		L22.9,10.1z"/>
	<path class="st1" d="M18.2,3.1c-2,0-3.8,1.6-3.8,3.8s1.6,3.8,3.8,3.8s3.8-1.6,3.8-3.8S20.3,3.1,18.2,3.1z M18.2,9.7
		c-1.6,0-2.8-1.3-2.8-2.8S16.6,4,18.2,4C19.7,4,21,5.3,21,6.8S19.7,9.7,18.2,9.7z"/>
	<path class="st1" d="M18.2,5c-1,0-1.9,0.9-1.9,1.9s0.9,1.9,1.9,1.9c1,0,1.9-0.9,1.9-1.9S19.2,5,18.2,5z M18.2,7.8
		c-0.5,0-0.9-0.4-0.9-0.9s0.4-0.9,0.9-0.9c0.5,0,0.9,0.4,0.9,0.9S18.7,7.8,18.2,7.8z"/>
	<path class="st1" d="M10.5,9.8c-0.2-0.1-0.2-0.2-0.3-0.2c-0.9-0.7-2-1.1-3.1-1.1H6.1C5.9,7.9,5.4,7.6,4.8,7.6H2.4
		C1.6,7.6,0.9,8.2,0.9,9v10.2c0,0.8,0.6,1.5,1.5,1.5h2.4c0.4,0,0.8-0.2,1.1-0.5h12.2c0.7,0,1.4-0.2,2-0.5l9.1-5.6
		c0.5-0.2,0.7-0.7,0.9-1.2c0.1-0.5,0-1-0.3-1.4c0,0,0,0,0-0.1c-0.5-0.6-1.3-0.9-2-0.6l-7.5,2.5L10.5,9.8z M9.5,10.4
		c0.8,0.6,1.7,1,2.7,1.1h0.3h2.5c0.7,0,1.3,0.4,1.6,0.9l0.1,0.1c0.2,0.5,0.2,1-0.1,1.4h-2.9c-0.9,0-1.9,0.3-2.7,0.8l-0.4,0.2
		c-0.2,0.2-0.3,0.5-0.2,0.7c0.2,0.2,0.5,0.3,0.7,0.2l0.4-0.2c0.6-0.4,1.4-0.6,2.1-0.6h4.3h0.2h0.1c0.2,0,0.3-0.1,0.5-0.1l9-3
		c0.3-0.1,0.7,0,0.9,0.2v0.1c0.2,0.2,0.2,0.5,0.2,0.7c-0.1,0.2-0.2,0.5-0.4,0.5L19.4,19c-0.5,0.3-0.9,0.4-1.5,0.4H6.1V9.5H7
		C7.9,9.5,8.8,9.8,9.5,10.4z M1.8,9c0-0.2,0.2-0.5,0.5-0.5h2.4C5,8.5,5.2,8.7,5.2,9v10.2c0,0.2-0.2,0.5-0.5,0.5H2.4
		c-0.2,0-0.5-0.2-0.5-0.5L1.8,9L1.8,9z"/>
</g>
</svg>
