<?xml version="1.0" encoding="utf-8"?>
<!-- Generator: Adobe Illustrator 24.2.0, SVG Export Plug-In . SVG Version: 6.00 Build 0)  -->
<svg version="1.1" id="Layer_1" xmlns="http://www.w3.org/2000/svg" xmlns:xlink="http://www.w3.org/1999/xlink" x="0px" y="0px"
	 viewBox="0 0 21 21" style="enable-background:new 0 0 21 21;" xml:space="preserve">
<style type="text/css">
	.st0{fill:#FC6A55;stroke:#FC6A55;stroke-width:0.25;stroke-miterlimit:10;}
	.st1{fill:#FC6A55;}
	.st2{fill:#EDEDED;}
	.st3{fill:none;stroke:#FC6A55;stroke-miterlimit:10;}
	.st4{fill:#222F3F;}
	.st5{fill:#383838;}
	.st6{fill:#FFFFFF;}
	.st7{fill:#B0B0B0;}
	.st8{fill:#656D7A;}
	.st9{fill:#C4C4C4;}
	.st10{filter:url(#Adobe_OpacityMaskFilter);}
	.st11{fill-rule:evenodd;clip-rule:evenodd;fill:#FFFFFF;}
	.st12{mask:url(#mask-2_8_);fill-rule:evenodd;clip-rule:evenodd;fill:#B0B0B0;}
	.st13{filter:url(#Adobe_OpacityMaskFilter_1_);}
	.st14{mask:url(#mask-2_7_);fill-rule:evenodd;clip-rule:evenodd;fill:#B0B0B0;}
	.st15{filter:url(#Adobe_OpacityMaskFilter_2_);}
	.st16{mask:url(#mask-2_6_);fill-rule:evenodd;clip-rule:evenodd;fill:#B0B0B0;}
	.st17{filter:url(#Adobe_OpacityMaskFilter_3_);}
	.st18{mask:url(#mask-2_5_);fill-rule:evenodd;clip-rule:evenodd;fill:#B0B0B0;}
	.st19{filter:url(#Adobe_OpacityMaskFilter_4_);}
	.st20{mask:url(#mask-2_2_);fill:none;stroke:#B0B0B0;stroke-width:1.5;stroke-miterlimit:10;}
	.st21{filter:url(#Adobe_OpacityMaskFilter_5_);}
	.st22{mask:url(#mask-2_10_);fill-rule:evenodd;clip-rule:evenodd;fill:#FC6A55;}
	.st23{filter:url(#Adobe_OpacityMaskFilter_6_);}
	.st24{mask:url(#mask-2_9_);fill-rule:evenodd;clip-rule:evenodd;fill:#FC6A55;}
	.st25{filter:url(#Adobe_OpacityMaskFilter_7_);}
	.st26{mask:url(#mask-2_4_);fill-rule:evenodd;clip-rule:evenodd;fill:#FC6A55;}
	.st27{filter:url(#Adobe_OpacityMaskFilter_8_);}
	.st28{mask:url(#mask-2_3_);fill-rule:evenodd;clip-rule:evenodd;fill:#FC6A55;}
	.st29{filter:url(#Adobe_OpacityMaskFilter_9_);}
	.st30{mask:url(#mask-2_1_);fill:none;stroke:#FC6A55;stroke-width:1.5;stroke-miterlimit:10;}
	.st31{fill:#B4A3EE;}
	.st32{fill:#222121;}
	.st33{fill:#434343;}
	.st34{fill:#434343;stroke:#F9F9F9;stroke-width:0.25;stroke-miterlimit:10;}
	.st35{fill:none;stroke:#FC6A55;stroke-width:0.75;stroke-miterlimit:10;}
	.st36{fill:#FC6A55;stroke:#FC6A55;stroke-width:0.5;stroke-miterlimit:10;}
	.st37{opacity:0.5;fill:#FC6A55;}
	.st38{fill:#F5F4F9;}
	.st39{opacity:0.153;fill:url(#Path_144_);enable-background:new    ;}
	.st40{opacity:0.1;fill:#590BB2;enable-background:new    ;}
	.st41{fill:#8E8CA8;}
	.st42{fill:#FFD5B8;}
	.st43{fill:#FC8473;}
	.st44{fill:#1C3475;}
	.st45{fill:#DDD9E4;}
	.st46{fill:#828FB3;}
	.st47{opacity:7.584635e-02;fill:url(#Path_145_);enable-background:new    ;}
	.st48{fill:#FFBE92;}
	.st49{fill:#FB8E7F;}
	.st50{fill:#FDB1A6;}
	.st51{fill:#FC806F;}
	.st52{fill:#FFE783;}
	.st53{fill:#104478;}
	.st54{fill:none;stroke:#FFFFFF;stroke-miterlimit:10;}
	.st55{fill:none;stroke:#000000;stroke-width:0.15;stroke-miterlimit:10;}
	.st56{opacity:0.3;fill:#FC6A55;}
	.st57{opacity:0.4;fill:#FC6A55;}
	.st58{opacity:0.1;fill:url(#Path_147_);enable-background:new    ;}
	.st59{opacity:0.1;fill:url(#Path_150_);enable-background:new    ;}
	.st60{fill-rule:evenodd;clip-rule:evenodd;fill:#FC6A55;}
	.st61{fill-rule:evenodd;clip-rule:evenodd;}
	.st62{fill:#FF6757;}
	.st63{fill:#6C973D;}
	.st64{fill:none;stroke:#FFFFFF;stroke-width:0.5;stroke-miterlimit:10;}
	.st65{fill:#606060;}
	.st66{fill:#F16A56;}
	.st67{fill:#515252;}
	.st68{fill:#656565;}
	.st69{fill:#F26A56;}
	.st70{fill:none;stroke:#F16A56;stroke-miterlimit:10;}
	.st71{fill:none;stroke:#929292;stroke-miterlimit:10;}
	.st72{fill:#929292;}
	.st73{fill:none;stroke:#000000;stroke-width:0.5;stroke-miterlimit:10;}
	.st74{fill:#A8A7A7;}
	.st75{fill:#F79F91;}
	.st76{fill:#9BDBD5;}
	.st77{stroke:#000000;stroke-width:0.25;stroke-miterlimit:10;}
</style>
<g>
	<path class="st1" d="M11.8,5.6c0.3,0,0.5-0.3,0.4-0.6c-0.1-0.2-0.3-0.3-0.4-0.2c-0.2,0-0.3,0.2-0.3,0.4C11.4,5.4,11.6,5.6,11.8,5.6
		z"/>
	<path class="st1" d="M10.5,11.8c2,0,3.6-1.6,3.6-3.6c0-0.8-0.3-1.6-0.8-2.3c-0.1-0.2-0.4-0.2-0.6-0.1c-0.2,0.1-0.2,0.4-0.1,0.6
		c0.4,0.5,0.6,1.1,0.6,1.8c0,1.6-1.3,2.8-2.8,2.8S7.7,9.7,7.7,8.2c0-1.5,1.2-2.7,2.7-2.8c0.1,0,0.2,0,0.2-0.1
		c0.3-0.2,0.1-0.7-0.3-0.7C8.4,4.6,6.9,6.2,6.9,8.2C6.9,10.2,8.5,11.8,10.5,11.8z"/>
	<path class="st1" d="M18.9,3h-2.4c-0.1-0.2-0.2-0.2-0.7-0.7c-0.5-0.5-1.4-0.5-2,0l-0.6,0.6c-0.3-0.2-0.6-0.3-1-0.4V1.6
		c0-0.8-0.6-1.4-1.4-1.4h-0.8c-0.8,0-1.4,0.6-1.4,1.4v0.9c-0.3,0.1-0.7,0.2-1,0.4L7.1,2.3c-0.5-0.5-1.4-0.5-2,0
		C4.7,2.8,4.6,2.9,4.5,3H2.1c-1,0-1.8,0.8-1.8,1.8v9.4c0,1,0.8,1.8,1.8,1.8H9l-0.5,1.9H7.3c-0.7,0-1.3,0.6-1.3,1.3v0.8H4.5
		c-0.2,0-0.4,0.2-0.4,0.4s0.2,0.4,0.4,0.4h12c0.2,0,0.4-0.2,0.4-0.4s-0.2-0.4-0.4-0.4H15v-0.8c0-0.7-0.6-1.3-1.3-1.3h-1.2L12,16h6.9
		c1,0,1.8-0.8,1.8-1.8c0-0.5,0-9.1,0-9.4C20.7,3.8,19.9,3,18.9,3L18.9,3z M18.9,3.8c0.5,0,1,0.4,1,1v7.6h-3.1c0-0.3-0.2-0.7-0.4-0.9
		l-0.6-0.6c0.2-0.3,0.3-0.6,0.4-1c0.9,0,0.9,0,1,0c0.7-0.1,1.2-0.7,1.2-1.4V7.8c0-0.8-0.6-1.4-1.4-1.4h-0.9c-0.1-0.3-0.2-0.7-0.4-1
		l0.6-0.6c0.3-0.3,0.4-0.6,0.4-1L18.9,3.8z M5.2,3.4l0.5-0.5c0.2-0.2,0.6-0.2,0.8,0l0.8,0.8c0.1,0.1,0.3,0.2,0.5,0.1
		c0.4-0.3,0.9-0.4,1.4-0.6c0.2,0,0.3-0.2,0.3-0.4V1.6c0-0.3,0.3-0.6,0.6-0.6h0.8c0.3,0,0.6,0.3,0.6,0.6v1.2c0,0.2,0.1,0.3,0.3,0.4
		c0.5,0.1,0.9,0.3,1.4,0.6c0.2,0.1,0.4,0.1,0.5-0.1l0.8-0.8c0.2-0.2,0.6-0.2,0.8,0c0.5,0.6,0.7,0.6,0.7,0.8c0,0.2,0,0.4-0.2,0.5
		L15,5.1c-0.1,0.1-0.2,0.3-0.1,0.5c0.2,0.4,0.4,0.8,0.5,1.2c0,0.1,0,0.1,0,0.2c0,0.2,0.2,0.3,0.4,0.3H17c0.3,0,0.6,0.3,0.6,0.6v0.8
		c0,0.3-0.3,0.6-0.6,0.6h-1.2c-0.2,0-0.3,0.1-0.4,0.3c-0.1,0.5-0.3,0.9-0.6,1.4c0,0,0,0,0,0c-0.1,0.2,0,0.3,0.1,0.5
		c0.7,0.8,1,0.8,1,1.2H5c0-0.1,0.1-0.2,0.2-0.3L6,11.3c0.1-0.1,0.2-0.3,0.1-0.5c-0.3-0.4-0.4-0.9-0.6-1.4c0-0.2-0.2-0.3-0.4-0.3H4
		c-0.3,0-0.6-0.3-0.6-0.6V7.8c0-0.3,0.3-0.6,0.6-0.6h1.2c0.2,0,0.3-0.1,0.4-0.3C5.6,6.4,5.8,6,6.1,5.5C6.2,5.4,6.2,5.2,6,5.1
		C5.2,4.2,5.2,4.2,5.1,4.1C5,3.9,5,3.6,5.2,3.4L5.2,3.4z M2.1,3.8h2.2c0,0.3,0.1,0.7,0.4,1l0.6,0.6c-0.2,0.3-0.3,0.6-0.4,1H4
		C3.2,6.4,2.6,7,2.6,7.8v0.8c0,0.8,0.6,1.4,1.4,1.4h0.9c0.1,0.3,0.2,0.7,0.4,1l-0.6,0.6c-0.2,0.2-0.4,0.6-0.4,0.9H1.1V4.8
		C1.1,4.3,1.5,3.8,2.1,3.8L2.1,3.8z M14.2,19.2v0.8H6.8v-0.8c0-0.3,0.2-0.5,0.5-0.5h6.5C14,18.6,14.2,18.9,14.2,19.2z M11.7,17.8
		H9.3L9.8,16h1.3L11.7,17.8z M19.9,14.2c0,0.5-0.4,1-1,1c-0.6,0-16.3,0-16.9,0c-0.5,0-1-0.4-1-1v-1h18.8L19.9,14.2L19.9,14.2z"/>
</g>
</svg>
