<?xml version="1.0" encoding="utf-8"?>
<!-- Generator: Adobe Illustrator 24.2.0, SVG Export Plug-In . SVG Version: 6.00 Build 0)  -->
<svg version="1.1" id="Layer_1" xmlns="http://www.w3.org/2000/svg" xmlns:xlink="http://www.w3.org/1999/xlink" x="0px" y="0px"
	 viewBox="0 0 26 21" style="enable-background:new 0 0 26 21;" xml:space="preserve">
<style type="text/css">
	.st0{fill:#FC6A55;stroke:#FC6A55;stroke-width:0.25;stroke-miterlimit:10;}
	.st1{fill:#FC6A55;}
	.st2{fill:#EDEDED;}
	.st3{fill:none;stroke:#FC6A55;stroke-miterlimit:10;}
	.st4{fill:#222F3F;}
	.st5{fill:#383838;}
	.st6{fill:#FFFFFF;}
	.st7{fill:#B0B0B0;}
	.st8{fill:#656D7A;}
	.st9{fill:#C4C4C4;}
	.st10{filter:url(#Adobe_OpacityMaskFilter);}
	.st11{fill-rule:evenodd;clip-rule:evenodd;fill:#FFFFFF;}
	.st12{mask:url(#mask-2_8_);fill-rule:evenodd;clip-rule:evenodd;fill:#B0B0B0;}
	.st13{filter:url(#Adobe_OpacityMaskFilter_1_);}
	.st14{mask:url(#mask-2_7_);fill-rule:evenodd;clip-rule:evenodd;fill:#B0B0B0;}
	.st15{filter:url(#Adobe_OpacityMaskFilter_2_);}
	.st16{mask:url(#mask-2_6_);fill-rule:evenodd;clip-rule:evenodd;fill:#B0B0B0;}
	.st17{filter:url(#Adobe_OpacityMaskFilter_3_);}
	.st18{mask:url(#mask-2_5_);fill-rule:evenodd;clip-rule:evenodd;fill:#B0B0B0;}
	.st19{filter:url(#Adobe_OpacityMaskFilter_4_);}
	.st20{mask:url(#mask-2_2_);fill:none;stroke:#B0B0B0;stroke-width:1.5;stroke-miterlimit:10;}
	.st21{filter:url(#Adobe_OpacityMaskFilter_5_);}
	.st22{mask:url(#mask-2_10_);fill-rule:evenodd;clip-rule:evenodd;fill:#FC6A55;}
	.st23{filter:url(#Adobe_OpacityMaskFilter_6_);}
	.st24{mask:url(#mask-2_9_);fill-rule:evenodd;clip-rule:evenodd;fill:#FC6A55;}
	.st25{filter:url(#Adobe_OpacityMaskFilter_7_);}
	.st26{mask:url(#mask-2_4_);fill-rule:evenodd;clip-rule:evenodd;fill:#FC6A55;}
	.st27{filter:url(#Adobe_OpacityMaskFilter_8_);}
	.st28{mask:url(#mask-2_3_);fill-rule:evenodd;clip-rule:evenodd;fill:#FC6A55;}
	.st29{filter:url(#Adobe_OpacityMaskFilter_9_);}
	.st30{mask:url(#mask-2_1_);fill:none;stroke:#FC6A55;stroke-width:1.5;stroke-miterlimit:10;}
	.st31{fill:#B4A3EE;}
	.st32{fill:#222121;}
	.st33{fill:#434343;}
	.st34{fill:#434343;stroke:#F9F9F9;stroke-width:0.25;stroke-miterlimit:10;}
	.st35{fill:none;stroke:#FC6A55;stroke-width:0.75;stroke-miterlimit:10;}
	.st36{fill:#FC6A55;stroke:#FC6A55;stroke-width:0.5;stroke-miterlimit:10;}
	.st37{opacity:0.5;fill:#FC6A55;}
	.st38{fill:#F5F4F9;}
	.st39{opacity:0.153;fill:url(#Path_144_);enable-background:new    ;}
	.st40{opacity:0.1;fill:#590BB2;enable-background:new    ;}
	.st41{fill:#8E8CA8;}
	.st42{fill:#FFD5B8;}
	.st43{fill:#FC8473;}
	.st44{fill:#1C3475;}
	.st45{fill:#DDD9E4;}
	.st46{fill:#828FB3;}
	.st47{opacity:7.584635e-02;fill:url(#Path_145_);enable-background:new    ;}
	.st48{fill:#FFBE92;}
	.st49{fill:#FB8E7F;}
	.st50{fill:#FDB1A6;}
	.st51{fill:#FC806F;}
	.st52{fill:#FFE783;}
	.st53{fill:#104478;}
	.st54{fill:none;stroke:#FFFFFF;stroke-miterlimit:10;}
	.st55{fill:none;stroke:#000000;stroke-width:0.15;stroke-miterlimit:10;}
	.st56{opacity:0.3;fill:#FC6A55;}
	.st57{opacity:0.4;fill:#FC6A55;}
	.st58{opacity:0.1;fill:url(#Path_147_);enable-background:new    ;}
	.st59{opacity:0.1;fill:url(#Path_150_);enable-background:new    ;}
	.st60{fill-rule:evenodd;clip-rule:evenodd;fill:#FC6A55;}
	.st61{fill-rule:evenodd;clip-rule:evenodd;}
	.st62{fill:#FF6757;}
	.st63{fill:#6C973D;}
	.st64{fill:none;stroke:#FFFFFF;stroke-width:0.5;stroke-miterlimit:10;}
	.st65{fill:#606060;}
	.st66{fill:#F16A56;}
	.st67{fill:#515252;}
	.st68{fill:#656565;}
	.st69{fill:#F26A56;}
	.st70{fill:none;stroke:#F16A56;stroke-miterlimit:10;}
	.st71{fill:none;stroke:#929292;stroke-miterlimit:10;}
	.st72{fill:#929292;}
	.st73{fill:none;stroke:#000000;stroke-width:0.5;stroke-miterlimit:10;}
	.st74{fill:#A8A7A7;}
	.st75{fill:#F79F91;}
	.st76{fill:#9BDBD5;}
	.st77{stroke:#000000;stroke-width:0.25;stroke-miterlimit:10;}
</style>
<g>
	<path class="st1" d="M11.3,3.9L11,5.5c0,0.2,0.1,0.3,0.2,0.3c0.1,0,0.1,0,0.2,0L13,5.1l1.5,0.8c0.1,0.1,0.3,0,0.4-0.1
		c0-0.1,0-0.1,0-0.2l-0.3-1.7l1.2-1.2c0.1-0.1,0.1-0.3,0-0.4c0,0-0.1-0.1-0.2-0.1L14,1.9l-0.7-1.5c-0.1-0.1-0.2-0.2-0.3-0.2h0
		c-0.1,0-0.2,0.1-0.3,0.2L12,1.9l-1.7,0.2c-0.2,0-0.3,0.2-0.3,0.3c0,0.1,0,0.1,0.1,0.2L11.3,3.9z M12.2,2.5c0.1,0,0.2-0.1,0.2-0.2
		L13,1.2l0.5,1.1c0,0.1,0.1,0.2,0.2,0.2L15,2.7l-0.9,0.9C14,3.6,14,3.7,14,3.8L14.2,5l-1.1-0.6c-0.1,0-0.2,0-0.3,0L11.7,5l0.2-1.2
		c0-0.1,0-0.2-0.1-0.3L11,2.7L12.2,2.5z"/>
	<path class="st1" d="M19.1,5l-0.3,1.5c0,0.2,0.1,0.3,0.2,0.3c0.1,0,0.1,0,0.2,0l1.3-0.7l1.3,0.7c0.1,0.1,0.3,0,0.4-0.1
		c0-0.1,0-0.1,0-0.2L22.1,5l1.1-1c0.1-0.1,0.1-0.3,0-0.4c0,0-0.1-0.1-0.2-0.1l-1.5-0.2l-0.7-1.3c-0.1-0.1-0.2-0.2-0.3-0.2h0
		c-0.1,0-0.2,0.1-0.3,0.2l-0.7,1.3l-1.5,0.2c-0.2,0-0.3,0.2-0.3,0.3c0,0.1,0,0.1,0.1,0.2L19.1,5z M19.9,3.8c0.1,0,0.2-0.1,0.2-0.2
		l0.5-0.9l0.5,0.9c0,0.1,0.1,0.2,0.2,0.2l1,0.2l-0.7,0.7c-0.1,0.1-0.1,0.2-0.1,0.3l0.2,1l-0.9-0.5c-0.1,0-0.2,0-0.3,0l-0.9,0.5
		l0.2-1c0-0.1,0-0.2-0.1-0.3l-0.7-0.7L19.9,3.8z"/>
	<path class="st1" d="M3.8,5L3.6,6.4c0,0.2,0.1,0.3,0.2,0.3c0.1,0,0.1,0,0.2,0l1.3-0.7l1.3,0.7C6.8,6.8,7,6.8,7,6.6
		c0-0.1,0-0.1,0-0.2L6.8,5l1.1-1C8,3.8,8,3.6,7.9,3.5c0,0-0.1-0.1-0.2-0.1L6.3,3.2L5.6,1.9C5.5,1.8,5.4,1.7,5.3,1.7h0
		c-0.1,0-0.2,0.1-0.3,0.2L4.4,3.2L2.9,3.4c-0.2,0-0.3,0.2-0.3,0.3c0,0.1,0,0.1,0.1,0.2L3.8,5z M4.6,3.8c0.1,0,0.2-0.1,0.2-0.2
		l0.5-0.9l0.5,0.9c0,0.1,0.1,0.2,0.2,0.2l1,0.2L6.3,4.7C6.2,4.7,6.2,4.8,6.2,4.9l0.2,1L5.5,5.5c-0.1,0-0.2,0-0.3,0L4.3,5.9l0.2-1
		c0-0.1,0-0.2-0.1-0.3L3.6,3.9L4.6,3.8z"/>
	<path class="st1" d="M13,7.1c-1.3,0-2.4,1.1-2.4,2.4v1.4c0,1.3,1.1,2.4,2.4,2.4s2.4-1.1,2.4-2.4V9.5C15.4,8.1,14.3,7.1,13,7.1z
		 M14.8,10.9c0,1-0.8,1.8-1.8,1.8c-1,0-1.8-0.8-1.8-1.8c0,0,0,0,0,0V9.5c0-1,0.8-1.8,1.8-1.8c1,0,1.8,0.8,1.8,1.8c0,0,0,0,0,0V10.9z
		"/>
	<path class="st1" d="M20.5,8.2c-1.2,0-2.2,1-2.2,2.2v1.3c0,1.2,1,2.2,2.2,2.2c1.2,0,2.2-1,2.2-2.2v-1.3C22.7,9.2,21.7,8.2,20.5,8.2
		z M22.1,11.7c0,0.9-0.7,1.6-1.6,1.6c-0.9,0-1.6-0.7-1.6-1.6v-1.3c0-0.9,0.7-1.6,1.6-1.6c0.9,0,1.6,0.7,1.6,1.6V11.7z"/>
	<path class="st1" d="M23,14.4h-0.8c-0.2,0-0.3-0.1-0.3-0.3c0-0.2-0.1-0.3-0.3-0.3c-0.1,0-0.2,0.1-0.3,0.2L21,14.9
		c-0.1,0.3-0.5,0.5-0.8,0.4c-0.2-0.1-0.3-0.2-0.4-0.4L19.6,14c-0.1-0.2-0.2-0.2-0.4-0.2c0,0-0.1,0-0.1,0.1l0,0
		C19,14,19,14.1,19,14.1c0,0.2-0.1,0.3-0.3,0.3h-0.8c-0.1,0-0.3,0-0.4,0c-0.5-0.4-1.1-0.6-1.7-0.6h-0.9c-0.2,0-0.3-0.1-0.3-0.3l0,0
		c0-0.2-0.1-0.3-0.3-0.3c-0.1,0-0.2,0.1-0.3,0.2l-0.4,1c-0.1,0.4-0.5,0.5-0.9,0.4c-0.2-0.1-0.4-0.2-0.4-0.4l-0.3-1
		c-0.1-0.2-0.2-0.2-0.4-0.2c0,0-0.1,0-0.1,0.1l0,0c-0.1,0.1-0.1,0.1-0.1,0.2c0,0.2-0.1,0.3-0.3,0.3h0h-0.9c-0.6,0-1.2,0.2-1.7,0.6
		c-0.1,0-0.3,0-0.4,0H7.3c-0.2,0-0.3-0.1-0.3-0.3c0-0.2-0.1-0.3-0.3-0.3c-0.1,0-0.2,0.1-0.3,0.2l-0.3,0.9c-0.1,0.3-0.5,0.5-0.8,0.4
		C5.2,15.2,5,15.1,5,14.9L4.7,14c-0.1-0.2-0.2-0.2-0.4-0.2c0,0-0.1,0-0.1,0.1l0,0c-0.1,0.1-0.1,0.1-0.1,0.2c0,0.2-0.1,0.3-0.3,0.3H3
		c-1.4,0-2.5,1.1-2.5,2.5v3.5c0,0.2,0.1,0.3,0.3,0.3l0,0h24.5c0.2,0,0.3-0.1,0.3-0.3l0,0v-3.5C25.6,15.5,24.4,14.4,23,14.4z
		 M7.4,16.6v3.6H1v-3.2C1,15.9,1.9,15,3,15h0.8c0.2,0,0.4-0.1,0.5-0.2l0.1,0.3c0.2,0.6,0.9,1,1.5,0.7c0.3-0.1,0.6-0.4,0.7-0.7
		l0.1-0.3C6.9,14.9,7.1,15,7.2,15c0,0,0,0,0,0h0.7C7.6,15.5,7.4,16,7.4,16.6z M18,20.1H8v-3.6c0-1.2,1-2.2,2.2-2.2h0.9
		c0.2,0,0.4-0.1,0.6-0.2l0.1,0.3c0.2,0.7,1,1,1.6,0.8c0.4-0.1,0.7-0.4,0.8-0.8l0.1-0.4c0.2,0.1,0.3,0.2,0.5,0.2c0,0,0,0,0,0h0.9
		c1.2,0,2.2,1,2.2,2.2L18,20.1z M25,20.1h-6.4v-3.6c0-0.6-0.2-1.1-0.5-1.6h0.7c0.2,0,0.4-0.1,0.5-0.2l0.1,0.3c0.2,0.6,0.9,1,1.5,0.7
		c0.3-0.1,0.6-0.4,0.7-0.7l0.1-0.3c0.1,0.1,0.3,0.2,0.5,0.2c0,0,0,0,0,0H23c1.1,0,1.9,0.9,1.9,1.9V20.1z"/>
	<path class="st1" d="M3.3,10.5v1.3c0,1.2,1,2.2,2.2,2.2c1.2,0,2.2-1,2.2-2.2c0,0,0,0,0,0v-1.3c0-1.2-1-2.2-2.2-2.2
		S3.3,9.2,3.3,10.5z M7.1,10.5v1.3c0,0.9-0.7,1.6-1.6,1.6c-0.9,0-1.6-0.7-1.6-1.6c0,0,0,0,0,0v-1.3c0-0.9,0.7-1.6,1.6-1.6
		C6.4,8.8,7.1,9.6,7.1,10.5z"/>
</g>
</svg>
