<?xml version="1.0" encoding="utf-8"?>
<!-- Generator: Adobe Illustrator 24.2.0, SVG Export Plug-In . SVG Version: 6.00 Build 0)  -->
<svg version="1.1" id="Layer_1" xmlns="http://www.w3.org/2000/svg" xmlns:xlink="http://www.w3.org/1999/xlink" x="0px" y="0px"
	 viewBox="0 0 21 21" style="enable-background:new 0 0 21 21;" xml:space="preserve">
<style type="text/css">
	.st0{fill:#FC6A55;stroke:#FC6A55;stroke-width:0.25;stroke-miterlimit:10;}
	.st1{fill:#FC6A55;}
	.st2{fill:#EDEDED;}
	.st3{fill:none;stroke:#FC6A55;stroke-miterlimit:10;}
	.st4{fill:#222F3F;}
	.st5{fill:#383838;}
	.st6{fill:#FFFFFF;}
	.st7{fill:#B0B0B0;}
	.st8{fill:#656D7A;}
	.st9{fill:#C4C4C4;}
	.st10{filter:url(#Adobe_OpacityMaskFilter);}
	.st11{fill-rule:evenodd;clip-rule:evenodd;fill:#FFFFFF;}
	.st12{mask:url(#mask-2_8_);fill-rule:evenodd;clip-rule:evenodd;fill:#B0B0B0;}
	.st13{filter:url(#Adobe_OpacityMaskFilter_1_);}
	.st14{mask:url(#mask-2_7_);fill-rule:evenodd;clip-rule:evenodd;fill:#B0B0B0;}
	.st15{filter:url(#Adobe_OpacityMaskFilter_2_);}
	.st16{mask:url(#mask-2_6_);fill-rule:evenodd;clip-rule:evenodd;fill:#B0B0B0;}
	.st17{filter:url(#Adobe_OpacityMaskFilter_3_);}
	.st18{mask:url(#mask-2_5_);fill-rule:evenodd;clip-rule:evenodd;fill:#B0B0B0;}
	.st19{filter:url(#Adobe_OpacityMaskFilter_4_);}
	.st20{mask:url(#mask-2_2_);fill:none;stroke:#B0B0B0;stroke-width:1.5;stroke-miterlimit:10;}
	.st21{filter:url(#Adobe_OpacityMaskFilter_5_);}
	.st22{mask:url(#mask-2_10_);fill-rule:evenodd;clip-rule:evenodd;fill:#FC6A55;}
	.st23{filter:url(#Adobe_OpacityMaskFilter_6_);}
	.st24{mask:url(#mask-2_9_);fill-rule:evenodd;clip-rule:evenodd;fill:#FC6A55;}
	.st25{filter:url(#Adobe_OpacityMaskFilter_7_);}
	.st26{mask:url(#mask-2_4_);fill-rule:evenodd;clip-rule:evenodd;fill:#FC6A55;}
	.st27{filter:url(#Adobe_OpacityMaskFilter_8_);}
	.st28{mask:url(#mask-2_3_);fill-rule:evenodd;clip-rule:evenodd;fill:#FC6A55;}
	.st29{filter:url(#Adobe_OpacityMaskFilter_9_);}
	.st30{mask:url(#mask-2_1_);fill:none;stroke:#FC6A55;stroke-width:1.5;stroke-miterlimit:10;}
	.st31{fill:#B4A3EE;}
	.st32{fill:#222121;}
	.st33{fill:#434343;}
	.st34{fill:#434343;stroke:#F9F9F9;stroke-width:0.25;stroke-miterlimit:10;}
	.st35{fill:none;stroke:#FC6A55;stroke-width:0.75;stroke-miterlimit:10;}
	.st36{fill:#FC6A55;stroke:#FC6A55;stroke-width:0.5;stroke-miterlimit:10;}
	.st37{opacity:0.5;fill:#FC6A55;}
	.st38{fill:#F5F4F9;}
	.st39{opacity:0.153;fill:url(#Path_144_);enable-background:new    ;}
	.st40{opacity:0.1;fill:#590BB2;enable-background:new    ;}
	.st41{fill:#8E8CA8;}
	.st42{fill:#FFD5B8;}
	.st43{fill:#FC8473;}
	.st44{fill:#1C3475;}
	.st45{fill:#DDD9E4;}
	.st46{fill:#828FB3;}
	.st47{opacity:7.584635e-02;fill:url(#Path_145_);enable-background:new    ;}
	.st48{fill:#FFBE92;}
	.st49{fill:#FB8E7F;}
	.st50{fill:#FDB1A6;}
	.st51{fill:#FC806F;}
	.st52{fill:#FFE783;}
	.st53{fill:#104478;}
	.st54{fill:none;stroke:#FFFFFF;stroke-miterlimit:10;}
	.st55{fill:none;stroke:#000000;stroke-width:0.15;stroke-miterlimit:10;}
	.st56{opacity:0.3;fill:#FC6A55;}
	.st57{opacity:0.4;fill:#FC6A55;}
	.st58{opacity:0.1;fill:url(#Path_147_);enable-background:new    ;}
	.st59{opacity:0.1;fill:url(#Path_150_);enable-background:new    ;}
	.st60{fill-rule:evenodd;clip-rule:evenodd;fill:#FC6A55;}
	.st61{fill-rule:evenodd;clip-rule:evenodd;}
	.st62{fill:#FF6757;}
	.st63{fill:#6C973D;}
	.st64{fill:none;stroke:#FFFFFF;stroke-width:0.5;stroke-miterlimit:10;}
	.st65{fill:#606060;}
	.st66{fill:#F16A56;}
	.st67{fill:#515252;}
	.st68{fill:#656565;}
	.st69{fill:#F26A56;}
	.st70{fill:none;stroke:#F16A56;stroke-miterlimit:10;}
	.st71{fill:none;stroke:#929292;stroke-miterlimit:10;}
	.st72{fill:#929292;}
	.st73{fill:none;stroke:#000000;stroke-width:0.5;stroke-miterlimit:10;}
	.st74{fill:#A8A7A7;}
	.st75{fill:#F79F91;}
	.st76{fill:#9BDBD5;}
	.st77{stroke:#000000;stroke-width:0.25;stroke-miterlimit:10;}
</style>
<g>
	<g>
		<g>
			<path class="st1" d="M15.7,1.9c-1.6,0-3,1.3-3,3c0,0.8,0.4,1.6,0.9,2.1c0,0,0,0,0,0c0.5,0.5,1.2,0.8,2,0.8c0.8,0,1.5-0.3,2-0.8
				c0,0,0,0,0,0c0.6-0.5,0.9-1.3,0.9-2.1C18.7,3.2,17.4,1.9,15.7,1.9z M15.7,7c-0.5,0-0.9-0.1-1.2-0.4c0.3-0.4,0.7-0.7,1.2-0.7
				c0.5,0,1,0.3,1.2,0.7C16.6,6.8,16.2,7,15.7,7z M15.3,4.7V4.5c0-0.2,0.2-0.4,0.4-0.4c0.2,0,0.4,0.2,0.4,0.4v0.2
				c0,0.2-0.2,0.4-0.4,0.4C15.5,5.1,15.3,4.9,15.3,4.7z M17.5,6c-0.2-0.3-0.5-0.5-0.8-0.7c0.1-0.2,0.2-0.4,0.2-0.7V4.5
				c0-0.7-0.5-1.2-1.2-1.2s-1.2,0.5-1.2,1.2v0.2c0,0.2,0.1,0.5,0.2,0.7c-0.3,0.2-0.6,0.4-0.8,0.7c-0.2-0.3-0.4-0.7-0.4-1.2
				c0-1.2,1-2.2,2.2-2.2s2.2,1,2.2,2.2C17.9,5.3,17.8,5.7,17.5,6z"/>
		</g>
	</g>
	<g>
		<g>
			<path class="st1" d="M20.3,15.8c-0.5-0.5-1.4-0.6-2-0.2c0,0,0,0,0,0l-2.3,1.7c-0.2,0.1-0.2,0.4-0.1,0.6c0.1,0.2,0.4,0.2,0.6,0.1
				l2.2-1.7c0.3-0.2,0.7-0.2,0.9,0.1c0.1,0.1,0.2,0.3,0.2,0.5c0,0.2-0.1,0.4-0.2,0.5L17.7,19c-0.8,0.6-1.8,1-2.8,1H9
				c-0.8,0-1.6-0.2-2.3-0.6l-1.6-1v-5.1h3.1c0.4,0,0.8,0.2,1.1,0.5l2.1,2.1c0.3,0.3,0.7,0.5,1.1,0.5h1.6c0.3,0,0.6,0.3,0.6,0.6
				s-0.3,0.6-0.6,0.6h-3c-0.3,0-0.5-0.1-0.8-0.2L9,16.5l0,0c-0.2-0.1-0.4-0.1-0.6,0.1c-0.1,0.2-0.1,0.4,0.1,0.6L9.9,18
				c0.4,0.2,0.8,0.4,1.2,0.4h3c0.8,0,1.4-0.6,1.4-1.4c0-0.8-0.6-1.4-1.4-1.4h-1.5l3.3-1.9H20c0.4,0,0.8-0.4,0.8-0.8V1.1
				c0-0.4-0.4-0.8-0.8-0.8h-8.5c-0.4,0-0.8,0.4-0.8,0.8v11.8c0,0.4,0.4,0.8,0.8,0.8h2.8l-2.5,1.5c0,0,0,0,0,0l-1.9-1.9
				c-0.5-0.5-1.1-0.7-1.7-0.7H5.1v-0.7c0-0.4-0.4-0.8-0.8-0.8H0.6c-0.2,0-0.4,0.2-0.4,0.4v9c0,0.2,0.2,0.4,0.4,0.4h3.6
				c0.4,0,0.8-0.4,0.8-0.8v-0.7L6.3,20C7.1,20.5,8,20.8,9,20.8h5.9c1.2,0,2.4-0.4,3.3-1.2l2.1-1.7c0.3-0.3,0.5-0.6,0.5-1.1
				C20.8,16.5,20.6,16.1,20.3,15.8z M11.5,12.8V1.1H20l0,11.8c0,0,0,0,0,0H11.5z M4.2,19.9H1v-8.2h3.2l0,1.1c0,0,0,0,0,0
				c0,0,0,0,0,0l0,5.7c0,0,0,0,0,0L4.2,19.9C4.2,19.9,4.2,19.9,4.2,19.9z"/>
		</g>
	</g>
	<g>
		<g>
			<path class="st1" d="M9.6,2.3C9.5,2.1,9.3,2,9.1,2.1L5.5,4.2C5.1,4.4,4.9,4.9,5.2,5.3l3.5,6.1c0.1,0.1,0.2,0.2,0.3,0.2
				c0.1,0,0.1,0,0.2-0.1c0.2-0.1,0.3-0.4,0.1-0.5L5.9,4.9l3.6-2.1C9.7,2.7,9.7,2.5,9.6,2.3z"/>
		</g>
	</g>
	<g>
		<g>
			<path class="st1" d="M18.2,8.7h-4.7c-0.2,0-0.4,0.2-0.4,0.4s0.2,0.4,0.4,0.4h4.7c0.2,0,0.4-0.2,0.4-0.4S18.4,8.7,18.2,8.7z"/>
		</g>
	</g>
	<g>
		<g>
			<path class="st1" d="M18.5,10.6c-0.1-0.1-0.2-0.1-0.3-0.1c-0.1,0-0.2,0-0.3,0.1c-0.1,0.1-0.1,0.2-0.1,0.3s0,0.2,0.1,0.3
				c0.1,0.1,0.2,0.1,0.3,0.1c0.1,0,0.2,0,0.3-0.1c0.1-0.1,0.1-0.2,0.1-0.3S18.6,10.7,18.5,10.6z"/>
		</g>
	</g>
	<g>
		<g>
			<path class="st1" d="M16.5,10.5h-3c-0.2,0-0.4,0.2-0.4,0.4s0.2,0.4,0.4,0.4h3c0.2,0,0.4-0.2,0.4-0.4S16.8,10.5,16.5,10.5z"/>
		</g>
	</g>
	<g>
		<g>
			<path class="st1" d="M2.6,15c-0.2,0-0.4,0.2-0.4,0.4V17c0,0.2,0.2,0.4,0.4,0.4C2.9,17.4,3,17.2,3,17v-1.6C3,15.2,2.9,15,2.6,15z"
				/>
		</g>
	</g>
	<g>
		<g>
			<path class="st1" d="M2.9,18.1C2.8,18,2.7,18,2.6,18c-0.1,0-0.2,0-0.3,0.1c-0.1,0.1-0.1,0.2-0.1,0.3c0,0.1,0,0.2,0.1,0.3
				c0.1,0.1,0.2,0.1,0.3,0.1c0.1,0,0.2,0,0.3-0.1C3,18.6,3,18.5,3,18.4C3,18.2,3,18.1,2.9,18.1z"/>
		</g>
	</g>
</g>
</svg>
