<?xml version="1.0" encoding="utf-8"?>
<!-- Generator: Adobe Illustrator 24.0.2, SVG Export Plug-In . SVG Version: 6.00 Build 0)  -->
<svg version="1.1" id="Layer_1" xmlns="http://www.w3.org/2000/svg" xmlns:xlink="http://www.w3.org/1999/xlink" x="0px" y="0px"
	 viewBox="0 0 42 42" style="enable-background:new 0 0 42 42;" xml:space="preserve">
<style type="text/css">
	.st0{fill:#FC6A55;}
	.st1{stroke:#FFFFFF;stroke-width:0.25;stroke-miterlimit:10;}
	.st2{fill:#656D7A;}
	.st3{fill:#FFFFFF;}
	.st4{filter:url(#Adobe_OpacityMaskFilter);}
	.st5{fill-rule:evenodd;clip-rule:evenodd;fill:#FFFFFF;}
	.st6{mask:url(#mask-2_8_);fill-rule:evenodd;clip-rule:evenodd;}
	.st7{filter:url(#Adobe_OpacityMaskFilter_1_);}
	.st8{mask:url(#mask-2_7_);fill-rule:evenodd;clip-rule:evenodd;}
	.st9{filter:url(#Adobe_OpacityMaskFilter_2_);}
	.st10{mask:url(#mask-2_6_);fill-rule:evenodd;clip-rule:evenodd;}
	.st11{filter:url(#Adobe_OpacityMaskFilter_3_);}
	.st12{mask:url(#mask-2_5_);fill-rule:evenodd;clip-rule:evenodd;}
	.st13{filter:url(#Adobe_OpacityMaskFilter_4_);}
	.st14{mask:url(#mask-2_2_);fill:none;stroke:#000000;stroke-width:2;}
	.st15{fill:#434343;}
	.st16{fill:#434343;stroke:#F9F9F9;stroke-width:0.25;stroke-miterlimit:10;}
	.st17{fill:none;stroke:#FC6A55;stroke-width:0.5;stroke-miterlimit:10;}
	.st18{fill:none;stroke:#FC6A55;stroke-width:0.75;stroke-miterlimit:10;}
	.st19{fill:#FC6A55;stroke:#FC6A55;stroke-width:0.5;stroke-miterlimit:10;}
	.st20{opacity:0.153;fill:url(#Path_146_);enable-background:new    ;}
	.st21{opacity:0.1;fill:#590BB2;enable-background:new    ;}
	.st22{fill:#8E8CA8;}
	.st23{fill:#F5F4F9;}
	.st24{fill:#FFD5B8;}
	.st25{fill:#FC8473;}
	.st26{fill:#1C3475;}
	.st27{fill:#DDD9E4;}
	.st28{fill:#828FB3;}
	.st29{opacity:7.584635e-02;fill:url(#Path_147_);enable-background:new    ;}
	.st30{fill:#FFBE92;}
	.st31{fill:#FB8E7F;}
	.st32{fill:#FDB1A6;}
	.st33{fill:#FC806F;}
	.st34{fill:#FFE783;}
	.st35{fill:#104478;}
	.st36{fill:none;stroke:#FFFFFF;stroke-miterlimit:10;}
	.st37{fill:none;stroke:#FC6A55;stroke-miterlimit:10;}
	.st38{fill:none;stroke:#000000;stroke-width:0.15;stroke-miterlimit:10;}
	.st39{opacity:0.1;fill:url(#Path_148_);enable-background:new    ;}
	.st40{opacity:0.1;fill:url(#Path_149_);enable-background:new    ;}
</style>
<g>
	<path class="st35" d="M16.5,17.8v-0.6h-1.3v0.6c0,0.7-0.6,1.3-1.3,1.3s-1.3-0.6-1.3-1.3v-0.6h-1.3v0.6c0,1.4,1.2,2.6,2.6,2.6
		S16.5,19.2,16.5,17.8z"/>
	<path class="st35" d="M33.3,7.5c-4.3,0-7.7,3.5-7.7,7.7s3.5,7.7,7.7,7.7s7.7-3.5,7.7-7.7S37.5,7.5,33.3,7.5z M33.3,21.6
		c-3.6,0-6.5-2.9-6.5-6.5s2.9-6.5,6.5-6.5s6.5,2.9,6.5,6.5S36.8,21.6,33.3,21.6z"/>
	<path class="st35" d="M26.8,24.2c-0.8,0-1.6,0.1-2.4,0.4c-1.6-1.8-3.9-2.8-6.3-2.9c1.8-1.2,3-3,3.4-5.2h0.1c1.4,0,2.6-1.2,2.6-2.6
		c0-1.2-0.9-2.3-2.1-2.5l0.6-0.9c0.9-1.4,1.4-3.1,1.4-4.8c0-2.6-2.1-4.7-4.7-4.7c-0.9,0-1.7,0.3-2.3,1l0,0L17.1,2
		c-0.6-0.6-1.5-1-2.3-1H9.2C6.1,1,3.6,3.5,3.6,6.6c0,1.1,0.3,2.2,0.9,3.1l1.1,1.7c-1.2,0.2-2.1,1.3-2.1,2.5c0,1.4,1.2,2.6,2.6,2.6
		h0.1c0.4,2.2,1.6,4,3.4,5.2c-4.8,0.2-8.7,4.2-8.7,9v9.7C1,40.7,1.3,41,1.6,41h25.2c4.6,0,8.4-3.8,8.4-8.4S31.4,24.2,26.8,24.2
		L26.8,24.2z M10.5,22.9l2.5,2l-1.4,1.4l-1.7-3.4c0.1,0,0.2,0,0.2,0H10.5z M15.3,22.9L13.9,24l-1.4-1.1H15.3z M13.1,28.2l0.4,0.4
		c0.3,0.3,0.7,0.3,0.9,0l0.4-0.4l1,6.8l-1.9,1.9L12,35L13.1,28.2z M13.9,27.2l-0.7-0.7l0.7-0.7l0.7,0.7L13.9,27.2z M14.9,24.9l2.5-2
		h0.4c0.1,0,0.2,0,0.2,0l-1.7,3.4L14.9,24.9z M15.2,11.3c-0.4,0-0.6,0.3-0.6,0.6v0.6h-1.3V12c0-0.4-0.3-0.6-0.6-0.6H7.5V10H10
		c1.6,0,3.1-0.9,3.9-2.2c0.8,1.3,2.2,2.2,3.9,2.2h2.6v1.3H15.2z M18.4,12.6v1.3h-2.6v-1.3H18.4z M12,12.6v1.3H9.4v-1.3H12z
		 M22.9,13.9c0,0.7-0.6,1.3-1.3,1.3v-2.6C22.4,12.6,22.9,13.2,22.9,13.9z M5.6,9C5.1,8.3,4.9,7.5,4.9,6.6c0-2.4,1.9-4.3,4.3-4.3h5.6
		c0.5,0,1.1,0.2,1.4,0.6l0.5,0.5c0.2,0.2,0.7,0.2,0.9,0l0.5-0.5c0.4-0.4,0.9-0.6,1.4-0.6c1.9,0,3.4,1.5,3.4,3.4c0,1.4-0.4,2.8-1.2,4
		l-0.1,0.1V9.4c0-0.4-0.3-0.6-0.6-0.6h-3.2c-1.8,0-3.2-1.4-3.2-3.2c0-0.4-0.3-0.6-0.6-0.6s-0.6,0.3-0.6,0.6c0,1.8-1.4,3.2-3.2,3.2
		H6.8C6.5,8.7,6.2,9,6.2,9.4v0.4L5.6,9z M4.9,13.9c0-0.7,0.6-1.3,1.3-1.3v2.6C5.4,15.2,4.9,14.6,4.9,13.9z M7.5,15.2v-2.6h0.6v1.9
		c0,0.4,0.3,0.6,0.6,0.6h3.9c0.4,0,0.6-0.3,0.6-0.6v-0.6h1.3v0.6c0,0.4,0.3,0.6,0.6,0.6h3.9c0.4,0,0.6-0.3,0.6-0.6v-1.9h0.6v2.6
		c0,3.6-2.9,6.5-6.5,6.5S7.5,18.8,7.5,15.2z M6.2,39.7V30H4.9v9.7H2.3v-9c0-3.7,2.6-6.8,6.1-7.6l2.3,4.6c0.1,0.2,0.3,0.3,0.5,0.3
		c0,0,0.1,0,0.1,0c0.2,0,0.3-0.1,0.5-0.2l0,0l-1.1,7.2c0,0.2,0,0.4,0.2,0.6l2.6,2.6c0.1,0.1,0.3,0.2,0.5,0.2c0.2,0,0.3-0.1,0.5-0.2
		l2.6-2.6c0.1-0.1,0.2-0.4,0.2-0.6L16,27.9l0,0c0.1,0.1,0.3,0.2,0.5,0.2c0,0,0.1,0,0.1,0c0.2,0,0.4-0.2,0.5-0.3l2.3-4.6
		c1.4,0.3,2.7,1,3.8,2c-2.8,1.4-4.7,4.2-4.7,7.5c0,3,1.6,5.6,3.9,7.1H6.2z M26.8,39.7c-3.9,0-7.1-3.2-7.1-7.1s3.2-7.1,7.1-7.1
		s7.1,3.2,7.1,7.1S30.7,39.7,26.8,39.7z"/>
	<g>
		<path class="st35" d="M29.3,13c-0.1-0.1-0.2-0.1-0.3,0l-1.9,1.9c-0.1,0.1-0.1,0.3,0,0.5l1.2,1.2c0.1,0.1,0.3,0.1,0.5,0l0.1-0.1
			c0.1,0.5,0.3,1.2,1,1.8c0.3,0.3,2.7,2.7,2.7,2.7c0.4,0.4,1.2,0.2,1.3-0.4c0.5,0.1,0.9-0.1,1-0.6c0.4,0.1,0.9-0.2,1-0.6
			c0.6,0.1,1.2-0.5,0.9-1.1c0.6-0.6,0.9-1.3,1-1.8l0.1,0.1c0.1,0.1,0.3,0.1,0.5,0l1.2-1.2c0.1-0.1,0.1-0.3,0-0.5l-3.1-3.1
			c-0.1-0.1-0.3-0.1-0.5,0l-1.2,1.2c-0.1,0.1-0.1,0.2-0.1,0.4c-0.4,0-0.8,0.1-1.2,0.3c-0.4-0.2-1-0.3-1.4-0.3c0-0.1,0-0.2-0.1-0.3
			l-1.2-1.2c-0.1-0.1-0.3-0.1-0.5,0l-0.4,0.4c-0.2,0.2,0.1,0.5,0.3,0.3l0.3-0.3l1,1l-2.9,2.9l-1-1l1.8-1.8
			C29.4,13.2,29.4,13.1,29.3,13z M36.4,17.9L33.5,15c0,0-0.1-0.1-0.2-0.1c-0.1,0-0.1,0-0.1,0c-0.3,0.3-0.6,0.5-0.8,0.9
			c-0.2,0.4-0.4,0.4-0.5,0.4c0,0-0.1,0-0.2-0.1c-0.1-0.2-0.1-0.4,0-0.6c0.3-0.7,0.9-1.2,1.6-1.5c0,0,0,0,0,0c0.5-0.2,1-0.3,1.6-0.2
			l2.2,2.2C37.3,16.3,37.2,17.1,36.4,17.9z M36.1,12.2l2.9,2.9l-1,1l-2.9-2.9L36.1,12.2z M31.4,15.3c-0.2,0.3-0.2,0.7,0,1
			c0.1,0.2,0.3,0.4,0.5,0.4c0.5,0.1,0.8-0.5,0.9-0.7c0,0,0,0,0,0c0.1-0.2,0.3-0.4,0.5-0.6l2.9,2.9c0.3,0.3-0.2,0.8-0.5,0.5l-1.9-1.9
			c-0.2-0.2-0.5,0.1-0.3,0.3l1.7,1.7c0.3,0.3-0.2,0.7-0.5,0.4l-1.7-1.7c-0.2-0.2-0.5,0.1-0.3,0.3l1.5,1.5c0.3,0.3-0.2,0.8-0.5,0.5
			l-1.6-1.6c-0.2-0.2-0.5,0.1-0.3,0.3l1.4,1.4c0.3,0.3-0.2,0.8-0.5,0.5c0,0-1.6-1.6-2.7-2.7c-0.8-0.8-0.9-1.7-0.9-1.9l2.3-2.3
			c0.2,0,0.7,0,1.2,0.1C32.2,14.2,31.7,14.7,31.4,15.3z"/>
	</g>
	<g>
		<path class="st35" d="M32.5,32.5c-0.6-0.6-1.2,0-1.2,0v-3c0-0.1-0.1-0.2-0.2-0.2c-0.1,0-0.2,0.1-0.2,0.2v3.2c0,0-0.9,0.7-1.2,0.8
			v-5.3c0-0.2,0.2-0.4,0.4-0.4h0.3c0.2,0,0.4,0.2,0.4,0.4v0.5c0,0.1,0.1,0.2,0.2,0.2c0.1,0,0.2-0.1,0.2-0.2v-0.5
			c0-0.4-0.4-0.8-0.8-0.8h-0.3c-0.4,0-0.8,0.4-0.8,0.8v5.5c-0.1,0-0.2,0.1-0.3,0.1V30c0-0.4-0.4-0.8-0.8-0.8h-0.3
			c-0.4,0-0.8,0.4-0.8,0.8v1.8L26.7,32v-0.6c0-0.4-0.3-0.7-0.7-0.7h-0.5c-0.4,0-0.7,0.3-0.7,0.7V33l-0.6,0.3l-1.6,0.5
			c-0.3,0.1-0.5,0.3-0.7,0.5c-0.1,0.3-0.2,0.6-0.1,0.8l0.2,0.7c0,0.1,0.1,0.2,0.2,0.1c0.1,0,0.2-0.1,0.1-0.2l-0.2-0.7
			c-0.1-0.4,0.1-0.8,0.5-0.9l1.5-0.4l1.1,3c0.1,0.2,0.1,0.8-0.5,1L23.6,38c-0.4,0.1-0.8-0.1-0.9-0.5l-0.2-0.9c0-0.1-0.1-0.2-0.2-0.1
			c-0.1,0-0.2,0.1-0.1,0.2l0.2,0.9c0.1,0.5,0.6,0.8,1.1,0.8c0.4,0,1.4-0.3,1.4-0.3c0.3-0.1,0.6-0.3,0.7-0.6c0.1-0.2,0.2-0.5,0.1-0.8
			l3.9-1c0.3-0.1,0.6-0.2,0.9-0.4l1.9-1.6C33,33.3,32.6,32.7,32.5,32.5z M27.8,29.5h0.3c0.2,0,0.5,0.2,0.5,0.5v3.8l-1.1,0
			c-0.1,0,0-0.1,0-0.1l0.3-0.3c0.3-0.2,0.5-0.6,0.6-1c0.1-0.3,0-0.5-0.3-0.7c-0.2-0.2-0.5-0.2-0.7-0.1V30
			C27.4,29.8,27.6,29.5,27.8,29.5z M25.1,31.4c0-0.2,0.2-0.4,0.4-0.4H26c0.2,0,0.4,0.2,0.4,0.4v0.8l-1.2,0.7L25.1,31.4L25.1,31.4z
			 M32.2,33.5l-1.9,1.6c-0.2,0.2-0.5,0.3-0.8,0.4l-4,1l-1.1-2.8l3-1.6c0.1-0.1,0.3-0.1,0.4,0c0.1,0.1,0.2,0.2,0.1,0.4
			c-0.1,0.3-0.2,0.6-0.5,0.8l-0.3,0.3c-0.1,0.1-0.2,0.3-0.1,0.4c0.1,0.2,0.2,0.3,0.4,0.3l1.3,0h0c0.5,0,0.9-0.1,1.3-0.4l1.5-1
			c0.2-0.1,0.5-0.1,0.7,0.1C32.3,32.9,32.5,33.2,32.2,33.5z"/>
		<path class="st35" d="M24.6,36.9c0-0.4-0.3-0.7-0.7-0.7c-0.4,0-0.7,0.3-0.7,0.7c0,0.4,0.3,0.7,0.7,0.7
			C24.2,37.6,24.6,37.3,24.6,36.9z M23.5,36.9c0-0.2,0.2-0.3,0.3-0.3c0.2,0,0.3,0.2,0.3,0.3c0,0.2-0.2,0.3-0.3,0.3
			S23.5,37.1,23.5,36.9z"/>
		<path class="st35" d="M22.6,31.8l2.6-2.6l0.6,0.3c0.2,0.1,0.5,0.1,0.6-0.1l1.4-1.4c0,0,0,0.7,0.6,0.7c0.3,0,0.6-0.2,0.6-0.6v-1.4
			c0,0,0,0,0,0c0-0.4-0.3-0.5-0.6-0.5h-1.4c-0.3,0-0.6,0.2-0.6,0.6c0,0.6,0.6,0.6,0.6,0.6l-1.1,1L25.3,28c-0.2-0.1-0.5-0.1-0.6,0.1
			L21.8,31c-0.2,0.2-0.2,0.6,0,0.8C21.9,31.9,22.2,32.1,22.6,31.8z M22,31.2l2.9-2.9c0,0,0.1-0.1,0.2,0l0.7,0.4c0.1,0,0.2,0,0.2,0
			l1.5-1.4c0.1-0.1,0.1-0.1,0-0.2c0-0.1-0.1-0.1-0.2-0.1h-0.5c-0.1,0-0.2-0.1-0.2-0.2c0-0.1,0.1-0.2,0.2-0.2h1.4
			c0.1,0,0.2,0,0.2,0.2c0,0,0,0,0,0v1.4c0,0.1-0.1,0.2-0.2,0.2c-0.1,0-0.2-0.1-0.2-0.2v-0.6c0-0.1,0-0.1-0.1-0.2c-0.1,0-0.1,0-0.2,0
			l-1.7,1.7c-0.1,0.1-0.1,0.1-0.2,0l-0.7-0.4c-0.1,0-0.2,0-0.2,0l-2.7,2.7c-0.1,0.1-0.2,0-0.3,0C22,31.4,22,31.3,22,31.2z"/>
	</g>
</g>
</svg>
