<?xml version="1.0" encoding="utf-8"?>
<!-- Generator: Adobe Illustrator 24.0.2, SVG Export Plug-In . SVG Version: 6.00 Build 0)  -->
<svg version="1.1" id="Layer_1" xmlns="http://www.w3.org/2000/svg" xmlns:xlink="http://www.w3.org/1999/xlink" x="0px" y="0px"
	 viewBox="0 0 42 42" style="enable-background:new 0 0 42 42;" xml:space="preserve">
<style type="text/css">
	.st0{fill:#FC6A55;}
	.st1{stroke:#FFFFFF;stroke-width:0.25;stroke-miterlimit:10;}
	.st2{fill:#656D7A;}
	.st3{fill:#FFFFFF;}
	.st4{filter:url(#Adobe_OpacityMaskFilter);}
	.st5{fill-rule:evenodd;clip-rule:evenodd;fill:#FFFFFF;}
	.st6{mask:url(#mask-2_8_);fill-rule:evenodd;clip-rule:evenodd;}
	.st7{filter:url(#Adobe_OpacityMaskFilter_1_);}
	.st8{mask:url(#mask-2_7_);fill-rule:evenodd;clip-rule:evenodd;}
	.st9{filter:url(#Adobe_OpacityMaskFilter_2_);}
	.st10{mask:url(#mask-2_6_);fill-rule:evenodd;clip-rule:evenodd;}
	.st11{filter:url(#Adobe_OpacityMaskFilter_3_);}
	.st12{mask:url(#mask-2_5_);fill-rule:evenodd;clip-rule:evenodd;}
	.st13{filter:url(#Adobe_OpacityMaskFilter_4_);}
	.st14{mask:url(#mask-2_2_);fill:none;stroke:#000000;stroke-width:2;}
	.st15{fill:#434343;}
	.st16{fill:#434343;stroke:#F9F9F9;stroke-width:0.25;stroke-miterlimit:10;}
	.st17{fill:none;stroke:#FC6A55;stroke-width:0.5;stroke-miterlimit:10;}
	.st18{fill:none;stroke:#FC6A55;stroke-width:0.75;stroke-miterlimit:10;}
	.st19{fill:#FC6A55;stroke:#FC6A55;stroke-width:0.5;stroke-miterlimit:10;}
	.st20{opacity:0.153;fill:url(#Path_146_);enable-background:new    ;}
	.st21{opacity:0.1;fill:#590BB2;enable-background:new    ;}
	.st22{fill:#8E8CA8;}
	.st23{fill:#F5F4F9;}
	.st24{fill:#FFD5B8;}
	.st25{fill:#FC8473;}
	.st26{fill:#1C3475;}
	.st27{fill:#DDD9E4;}
	.st28{fill:#828FB3;}
	.st29{opacity:7.584635e-02;fill:url(#Path_147_);enable-background:new    ;}
	.st30{fill:#FFBE92;}
	.st31{fill:#FB8E7F;}
	.st32{fill:#FDB1A6;}
	.st33{fill:#FC806F;}
	.st34{fill:#FFE783;}
	.st35{fill:#104478;}
	.st36{fill:none;stroke:#FFFFFF;stroke-miterlimit:10;}
	.st37{fill:none;stroke:#FC6A55;stroke-miterlimit:10;}
	.st38{fill:none;stroke:#000000;stroke-width:0.15;stroke-miterlimit:10;}
	.st39{opacity:0.1;fill:url(#Path_148_);enable-background:new    ;}
	.st40{opacity:0.1;fill:url(#Path_149_);enable-background:new    ;}
</style>
<g>
	<path class="st0" d="M41.3,32.6h-1.1V11.3c0-2.3-1.9-4.2-4.2-4.2h-1.4V4c0-1.2-1-2.2-2.2-2.2H21.8c-0.6,0-1.1,0.2-1.6,0.6
		s-0.6,1-0.6,1.6v3.1H6c-2.3,0-4.2,1.9-4.2,4.2v21.3H0.7C0.3,32.6,0,33,0,33.3V36c0,1.1,0.4,2.2,1.2,2.9C2,39.8,3,40.2,4.2,40.2
		h33.7c1.1,0,2.2-0.4,2.9-1.2c0.8-0.8,1.2-1.8,1.2-2.9v-2.7C42,33,41.7,32.6,41.3,32.6z M14.8,17.8c2.4,0,4.3-1.9,4.3-4.3
		c0-0.4-0.1-0.9-0.2-1.3h1.9c0.3,0.1,0.7,0.2,1,0.2h0.4l-0.8,2.2c-0.1,0.3,0,0.6,0.2,0.8c0.1,0.1,0.3,0.1,0.4,0.2
		c0.1,0,0.3-0.1,0.4-0.1l4.4-3h5.6v0c0.4,0,0.7-0.1,1-0.2h2v17.2H6.6V12.2h4.1c-0.1,0.4-0.2,0.9-0.2,1.3
		C10.5,15.9,12.5,17.8,14.8,17.8z M11.9,13.5c0-1.6,1.3-2.9,2.9-2.9c1.6,0,2.9,1.3,2.9,2.9c0,1.6-1.3,2.9-2.9,2.9
		C13.2,16.4,11.9,15.1,11.9,13.5z M21,4c0-0.2,0.1-0.4,0.2-0.6c0.2-0.2,0.4-0.2,0.6-0.2h10.6c0.5,0,0.8,0.4,0.8,0.8v6.2
		c0,0.5-0.4,0.8-0.8,0.8h-5.9c-0.1,0-0.3,0.1-0.4,0.1L23.4,13l0.4-1.1c0.1-0.2,0.1-0.5-0.1-0.7c-0.1-0.2-0.3-0.3-0.6-0.3h-1.4
		c-0.2,0-0.4-0.1-0.6-0.2c-0.2-0.1-0.2-0.4-0.2-0.6V4z M3.2,11.3c0-1.5,1.3-2.8,2.8-2.8h13.6v1.7c0,0.2,0,0.4,0.1,0.6h-1.5
		c-0.8-1-2-1.6-3.3-1.6s-2.5,0.6-3.3,1.6H6c-0.4,0-0.7,0.3-0.7,0.7v18.6c0,0.4,0.3,0.7,0.7,0.7H36c0.4,0,0.7-0.3,0.7-0.7V11.5
		c0-0.4-0.3-0.7-0.7-0.7h-1.5c0.1-0.2,0.1-0.4,0.1-0.6V8.5H36c1.5,0,2.8,1.2,2.8,2.8v21.3H26.1c-0.2,0-0.4,0.1-0.5,0.2l-0.7,0.8
		c-0.5,0.6-1.3,0.9-2.1,0.9h-3.7c-0.8,0-1.5-0.3-2.1-0.9l-0.7-0.8c-0.1-0.1-0.3-0.2-0.5-0.2H3.2V11.3z M40.6,36c0,0.7-0.3,1.5-0.8,2
		c-0.5,0.5-1.2,0.8-2,0.8H4.2c-0.7,0-1.4-0.3-2-0.8c-0.5-0.5-0.8-1.2-0.8-2v-2h14.2l0.5,0.5c0.8,0.9,1.9,1.3,3.1,1.3h3.7
		c1.2,0,2.3-0.5,3.1-1.3l0.5-0.5h14.2V36z"/>
	<path class="st0" d="M7.4,20.8v6.4c0,0.2,0.1,0.4,0.2,0.5c0.1,0.1,0.3,0.2,0.5,0.2h13.5c0.2,0,0.4-0.1,0.5-0.2
		c0.1-0.1,0.2-0.3,0.2-0.5v-6.4c0-2.2-1.8-4-4-4c-0.2,0-0.4,0.1-0.6,0.3c-0.7,0.9-1.8,1.5-2.9,1.5c-1.2,0-2.3-0.6-2.9-1.5
		c-0.1-0.2-0.3-0.3-0.6-0.3C9.2,16.8,7.4,18.6,7.4,20.8z M8.8,20.8c0-1.3,1-2.4,2.2-2.5c1,1.1,2.4,1.7,3.8,1.7s2.9-0.6,3.8-1.7
		c1.3,0.2,2.2,1.3,2.3,2.5v5.7H8.8V20.8z"/>
	<path class="st0" d="M23.6,6.5h3.2c0.4,0,0.7-0.3,0.7-0.7s-0.3-0.7-0.7-0.7h-3.2c-0.4,0-0.7,0.3-0.7,0.7S23.2,6.5,23.6,6.5z"/>
	<path class="st0" d="M23.6,8.9h7c0.4,0,0.7-0.3,0.7-0.7c0-0.4-0.3-0.7-0.7-0.7h-7c-0.4,0-0.7,0.3-0.7,0.7
		C22.9,8.6,23.2,8.9,23.6,8.9z"/>
</g>
</svg>
