<?xml version="1.0" encoding="utf-8"?>
<!-- Generator: Adobe Illustrator 24.0.2, SVG Export Plug-In . SVG Version: 6.00 Build 0)  -->
<svg version="1.1" id="Layer_1" xmlns="http://www.w3.org/2000/svg" xmlns:xlink="http://www.w3.org/1999/xlink" x="0px" y="0px"
	 viewBox="0 0 42 42" style="enable-background:new 0 0 42 42;" xml:space="preserve">
<style type="text/css">
	.st0{fill:#FC6A55;}
	.st1{stroke:#FFFFFF;stroke-width:0.25;stroke-miterlimit:10;}
	.st2{fill:#656D7A;}
	.st3{fill:#FFFFFF;}
	.st4{filter:url(#Adobe_OpacityMaskFilter);}
	.st5{fill-rule:evenodd;clip-rule:evenodd;fill:#FFFFFF;}
	.st6{mask:url(#mask-2_8_);fill-rule:evenodd;clip-rule:evenodd;}
	.st7{filter:url(#Adobe_OpacityMaskFilter_1_);}
	.st8{mask:url(#mask-2_7_);fill-rule:evenodd;clip-rule:evenodd;}
	.st9{filter:url(#Adobe_OpacityMaskFilter_2_);}
	.st10{mask:url(#mask-2_6_);fill-rule:evenodd;clip-rule:evenodd;}
	.st11{filter:url(#Adobe_OpacityMaskFilter_3_);}
	.st12{mask:url(#mask-2_5_);fill-rule:evenodd;clip-rule:evenodd;}
	.st13{filter:url(#Adobe_OpacityMaskFilter_4_);}
	.st14{mask:url(#mask-2_2_);fill:none;stroke:#000000;stroke-width:2;}
	.st15{fill:#434343;}
	.st16{fill:#434343;stroke:#F9F9F9;stroke-width:0.25;stroke-miterlimit:10;}
	.st17{fill:none;stroke:#FC6A55;stroke-width:0.5;stroke-miterlimit:10;}
	.st18{fill:none;stroke:#FC6A55;stroke-width:0.75;stroke-miterlimit:10;}
	.st19{fill:#FC6A55;stroke:#FC6A55;stroke-width:0.5;stroke-miterlimit:10;}
	.st20{opacity:0.153;fill:url(#Path_146_);enable-background:new    ;}
	.st21{opacity:0.1;fill:#590BB2;enable-background:new    ;}
	.st22{fill:#8E8CA8;}
	.st23{fill:#F5F4F9;}
	.st24{fill:#FFD5B8;}
	.st25{fill:#FC8473;}
	.st26{fill:#1C3475;}
	.st27{fill:#DDD9E4;}
	.st28{fill:#828FB3;}
	.st29{opacity:7.584635e-02;fill:url(#Path_147_);enable-background:new    ;}
	.st30{fill:#FFBE92;}
	.st31{fill:#FB8E7F;}
	.st32{fill:#FDB1A6;}
	.st33{fill:#FC806F;}
	.st34{fill:#FFE783;}
	.st35{fill:#104478;}
	.st36{fill:none;stroke:#FFFFFF;stroke-miterlimit:10;}
	.st37{fill:none;stroke:#FC6A55;stroke-miterlimit:10;}
	.st38{fill:none;stroke:#000000;stroke-width:0.15;stroke-miterlimit:10;}
	.st39{opacity:0.1;fill:url(#Path_148_);enable-background:new    ;}
	.st40{opacity:0.1;fill:url(#Path_149_);enable-background:new    ;}
</style>
<g>
	<path class="st0" d="M38.3,24.4l-5.1-1.2v-1.3c0.5-0.4,1-0.9,1.3-1.5h0.7c1.9,0,3.4-1.5,3.4-3.4c0-0.8-0.3-1.4-0.7-2v-2.7
		c0-4.5-3.6-8.1-8.1-8.1s-8.1,3.6-8.1,8.1v2.7c-0.4,0.6-0.7,1.3-0.7,2c0,1.9,1.5,3.4,3.4,3.4h0.7c0.3,0.6,0.8,1.1,1.3,1.5v1.3
		l-5.1,1.2c-0.3,0.1-0.7,0.2-1,0.3V21c0-1.1-0.9-2-2-2H2c-1.1,0-2,0.9-2,2v12.2c0,1.1,0.9,2,2,2h5.4v1.4H6.1v1.4H42v-9
		C42,26.8,40.5,24.9,38.3,24.4z M26.9,24.4l1.7,1.2l-1.7,1l-0.4-2.2L26.9,24.4z M29.1,29.8h1.5l0.6,6.8h-2.6L29.1,29.8z M30.7,28.5
		h-1.7l-0.4-1.2l1.3-0.8l1.3,0.8L30.7,28.5z M31,25.7l1.7-1.2l0.5,0.1l-0.4,2.1L31,25.7z M35.2,19H35c0.1-0.4,0.2-0.9,0.2-1.4v-2.7
		c1.1,0,2,0.9,2,2S36.3,19,35.2,19z M29.8,5.4c3.7,0,6.8,3,6.8,6.8v1.6c-0.4-0.2-0.9-0.3-1.4-0.3v-1.4h-1.4v0.4
		c-0.5,0.4-1,0.7-1.6,0.9c0,0,0.1,0,0.1-0.1l-1-1c-0.5,0.5-1.1,0.9-1.8,1c0,0,0.1,0,0.1-0.1l-1-1c-0.7,0.7-1.8,1.2-2.8,1.2h-0.1
		v-1.4h-1.4v1.4c-0.5,0-0.9,0.1-1.4,0.3v-1.6C23,8.5,26.1,5.4,29.8,5.4z M24.4,19c-1.1,0-2-0.9-2-2s0.9-2,2-2v2.7
		c0,0.5,0.1,0.9,0.2,1.4H24.4z M25.7,17.6v-2.7h0.1c0.7,0,1.3-0.1,1.9-0.4v0.4h0.8c0.7,0,1.3-0.1,1.9-0.4v0.4h0.8
		c0.9,0,1.8-0.2,2.6-0.7v3.4c0,0.5-0.1,0.9-0.2,1.4h-3.8v1.4h3c-0.7,0.8-1.8,1.4-3,1.4C27.6,21.7,25.7,19.9,25.7,17.6z M29.8,23
		c0.7,0,1.4-0.1,2-0.4v0.7l-2,1.5l-2-1.5v-0.7C28.4,22.9,29.1,23,29.8,23z M21.6,25.7l3.7-0.8l0.7,4l1.4-0.9l0.4,1.2l-0.6,7.4h-3.4
		v-7.5h-1.4v7.5H19v-1.5c0.8-0.3,1.4-1,1.4-1.9v-6.9C20.7,26,21.1,25.8,21.6,25.7z M12.9,35.2h4.7v1.4h-4.7V35.2z M2,33.9
		c-0.4,0-0.7-0.3-0.7-0.7V21c0-0.4,0.3-0.7,0.7-0.7h16.3c0.4,0,0.7,0.3,0.7,0.7v12.2c0,0.4-0.3,0.7-0.7,0.7h-5.4v-1.4
		c0-1.5-1.2-2.7-2.7-2.7S7.5,31,7.5,32.5v1.4H2z M8.8,32.5c0-0.7,0.6-1.4,1.4-1.4c0.7,0,1.4,0.6,1.4,1.4v4.1H8.8V32.5z M40.6,36.6
		h-3.4v-7.5h-1.4v7.5h-3.4l-0.6-7.4l0.4-1.2l1.4,0.9l0.8-4l3.6,0.8c1.5,0.4,2.6,1.7,2.6,3.3V36.6z"/>
	<g>
		<path class="st0" d="M0.1,12.6h1.1v1.1H0.1V12.6z"/>
		<path class="st0" d="M2.4,12.6h1.1v1.1H2.4V12.6z"/>
		<path class="st0" d="M4.7,12.6h1.1v1.1H4.7V12.6z"/>
		<g>
			<g>
				<path class="st0" d="M20.5,13.1l-4.1-4.1c-0.1-0.1-0.2-0.1-0.3-0.1c-0.1,0-0.2,0.1-0.2,0.3v0.6c0,0.1,0,0.1,0.1,0.2l2.8,2.8H7.6
					c-0.2,0-0.3,0.1-0.3,0.3v0.6c0,0.2,0.1,0.3,0.3,0.3h11.2L16,16.7c-0.1,0.1-0.1,0.1-0.1,0.2v0.6c0,0.1,0.1,0.2,0.2,0.3
					c0,0,0.1,0,0.1,0c0.1,0,0.1,0,0.2-0.1l4.1-4.1C20.6,13.4,20.6,13.2,20.5,13.1z"/>
			</g>
		</g>
	</g>
</g>
</svg>
