<?xml version="1.0" encoding="utf-8"?>
<!-- Generator: Adobe Illustrator 24.0.2, SVG Export Plug-In . SVG Version: 6.00 Build 0)  -->
<svg version="1.1" id="Layer_1" xmlns="http://www.w3.org/2000/svg" xmlns:xlink="http://www.w3.org/1999/xlink" x="0px" y="0px"
	 viewBox="0 0 42 42" style="enable-background:new 0 0 42 42;" xml:space="preserve">
<style type="text/css">
	.st0{fill:#FC6A55;}
	.st1{stroke:#FFFFFF;stroke-width:0.25;stroke-miterlimit:10;}
	.st2{fill:#656D7A;}
	.st3{fill:#FFFFFF;}
	.st4{filter:url(#Adobe_OpacityMaskFilter);}
	.st5{fill-rule:evenodd;clip-rule:evenodd;fill:#FFFFFF;}
	.st6{mask:url(#mask-2_8_);fill-rule:evenodd;clip-rule:evenodd;}
	.st7{filter:url(#Adobe_OpacityMaskFilter_1_);}
	.st8{mask:url(#mask-2_7_);fill-rule:evenodd;clip-rule:evenodd;}
	.st9{filter:url(#Adobe_OpacityMaskFilter_2_);}
	.st10{mask:url(#mask-2_6_);fill-rule:evenodd;clip-rule:evenodd;}
	.st11{filter:url(#Adobe_OpacityMaskFilter_3_);}
	.st12{mask:url(#mask-2_5_);fill-rule:evenodd;clip-rule:evenodd;}
	.st13{filter:url(#Adobe_OpacityMaskFilter_4_);}
	.st14{mask:url(#mask-2_2_);fill:none;stroke:#000000;stroke-width:2;}
	.st15{fill:#434343;}
	.st16{fill:#434343;stroke:#F9F9F9;stroke-width:0.25;stroke-miterlimit:10;}
	.st17{fill:none;stroke:#FC6A55;stroke-width:0.5;stroke-miterlimit:10;}
	.st18{fill:none;stroke:#FC6A55;stroke-width:0.75;stroke-miterlimit:10;}
	.st19{fill:#FC6A55;stroke:#FC6A55;stroke-width:0.5;stroke-miterlimit:10;}
	.st20{opacity:0.153;fill:url(#Path_146_);enable-background:new    ;}
	.st21{opacity:0.1;fill:#590BB2;enable-background:new    ;}
	.st22{fill:#8E8CA8;}
	.st23{fill:#F5F4F9;}
	.st24{fill:#FFD5B8;}
	.st25{fill:#FC8473;}
	.st26{fill:#1C3475;}
	.st27{fill:#DDD9E4;}
	.st28{fill:#828FB3;}
	.st29{opacity:7.584635e-02;fill:url(#Path_147_);enable-background:new    ;}
	.st30{fill:#FFBE92;}
	.st31{fill:#FB8E7F;}
	.st32{fill:#FDB1A6;}
	.st33{fill:#FC806F;}
	.st34{fill:#FFE783;}
	.st35{fill:#104478;}
	.st36{fill:none;stroke:#FFFFFF;stroke-miterlimit:10;}
	.st37{fill:none;stroke:#FC6A55;stroke-miterlimit:10;}
	.st38{fill:none;stroke:#000000;stroke-width:0.15;stroke-miterlimit:10;}
	.st39{opacity:0.1;fill:url(#Path_148_);enable-background:new    ;}
	.st40{opacity:0.1;fill:url(#Path_149_);enable-background:new    ;}
</style>
<g>
	<g id="Online_store">
		<path class="st0" d="M36.1,3.7c-0.2,0-0.4,0.2-0.4,0.4v15c0,0.7-0.6,1.3-1.3,1.3H12.2c-0.7,0-1.3-0.6-1.3-1.3V3.2
			c0-0.7,0.6-1.3,1.3-1.3h19c0.2,0,0.4-0.2,0.4-0.4S31.4,1,31.2,1h-19C11,1,10,2,10,3.2v15.9c0,1.2,1,2.2,2.2,2.2h7.5V24h-3.1
			c-1.2,0-2.2,1-2.2,2.2v0.9c0,0.2,0.2,0.4,0.4,0.4h16.8c0.2,0,0.4-0.2,0.4-0.4v-0.9c0-1.2-1-2.2-2.2-2.2h-3.1v-2.6h7.5
			c1.2,0,2.2-1,2.2-2.2v-15C36.5,3.8,36.3,3.7,36.1,3.7z M31.2,26.2v0.4H15.3v-0.4c0-0.7,0.6-1.3,1.3-1.3h13.3
			C30.6,24.9,31.2,25.4,31.2,26.2z M25.9,24h-5.3v-2.6h5.3V24z"/>
		<path class="st0" d="M34.7,17.3V4.1c0-0.2-0.2-0.4-0.4-0.4c-0.2,0-0.4,0.2-0.4,0.4v12.8H12.6V6.3h7.1c0.2,0,0.4-0.2,0.4-0.4
			S20,5.4,19.7,5.4h-7.1V3.7h18.6c0.2,0,0.4-0.2,0.4-0.4s-0.2-0.4-0.4-0.4h-19c-0.2,0-0.4,0.2-0.4,0.4v14.1c0,0.2,0.2,0.4,0.4,0.4
			h22.1C34.5,17.8,34.7,17.6,34.7,17.3z"/>
		<path class="st0" d="M24.6,19.1c0-0.7-0.6-1.3-1.3-1.3s-1.3,0.6-1.3,1.3s0.6,1.3,1.3,1.3S24.6,19.8,24.6,19.1z M23.3,19.5
			c-0.2,0-0.4-0.2-0.4-0.4s0.2-0.4,0.4-0.4s0.4,0.2,0.4,0.4S23.5,19.5,23.3,19.5z"/>
		<path class="st0" d="M21,4.5c-0.2,0-0.4,0.2-0.4,0.4c0,0,0,0.1,0,0.1l1.8,7.1c0,0.2,0.2,0.3,0.4,0.3h0.8c-0.5,0.5-0.5,1.4,0.1,1.9
			c0.5,0.5,1.4,0.5,1.9-0.1c0.5-0.5,0.5-1.3,0-1.8H28c-0.5,0.5-0.5,1.4,0.1,1.9c0.5,0.5,1.4,0.5,1.9-0.1c0.5-0.5,0.5-1.3,0-1.8h0.8
			c0,0,0,0,0,0c0,0,0,0,0,0c0.2,0,0.4-0.1,0.4-0.3l2.5-10.3h2.3c0.2,0,0.4-0.2,0.4-0.4S36.3,1,36.1,1h-2.6c-0.2,0-0.4,0.1-0.4,0.3
			l-0.8,3.2H21z M31.7,6.7H30l0.2-1.3H32L31.7,6.7z M31,9.4h-1.5l0.3-1.8h1.6L31,9.4z M30.5,11.6h-1.4l0.2-1.3h1.5L30.5,11.6z
			 M22.2,7.6h1.6l0.3,1.8h-1.5L22.2,7.6z M24.6,7.6h1.7v1.8H25L24.6,7.6z M26.3,6.7h-1.9l-0.3-1.3h2.1V6.7z M27.2,5.4h2.1l-0.2,1.3
			h-1.9V5.4z M27.2,7.6h1.7l-0.3,1.8h-1.4V7.6z M23.3,5.4l0.2,1.3h-1.6l-0.3-1.3H23.3z M22.8,10.3h1.4l0.2,1.3h-1.3L22.8,10.3z
			 M24.6,13.8c-0.2,0-0.4-0.2-0.4-0.4c0-0.2,0.2-0.4,0.4-0.4c0.2,0,0.4,0.2,0.4,0.4C25,13.6,24.8,13.8,24.6,13.8z M25.4,11.6
			l-0.2-1.3h1.2v1.3H25.4z M27.2,10.3h1.2l-0.2,1.3h-1V10.3z M29,13.8c-0.2,0-0.4-0.2-0.4-0.4c0-0.2,0.2-0.4,0.4-0.4
			s0.4,0.2,0.4,0.4C29.4,13.6,29.2,13.8,29,13.8z"/>
		<path class="st0" d="M13.5,4.1c-0.2,0-0.4,0.2-0.4,0.4S13.3,5,13.5,5H14c0.2,0,0.4-0.2,0.4-0.4S14.2,4.1,14,4.1H13.5z"/>
		<path class="st0" d="M15.3,4.1c-0.2,0-0.4,0.2-0.4,0.4S15.1,5,15.3,5h0.4c0.2,0,0.4-0.2,0.4-0.4S16,4.1,15.7,4.1H15.3z"/>
		<path class="st0" d="M17.1,4.1c-0.2,0-0.4,0.2-0.4,0.4S16.8,5,17.1,5h0.4C17.8,5,18,4.8,18,4.5s-0.2-0.4-0.4-0.4H17.1z"/>
		<path class="st0" d="M14.9,12.5h5.3c0.2,0,0.4-0.2,0.4-0.4V8.5c0-0.2-0.2-0.4-0.4-0.4h-5.3c-0.2,0-0.4,0.2-0.4,0.4V12
			C14.4,12.3,14.6,12.5,14.9,12.5z M15.3,8.9h4.4v2.7h-4.4V8.9z"/>
		<path class="st0" d="M14.9,14.3h7.1c0.2,0,0.4-0.2,0.4-0.4s-0.2-0.4-0.4-0.4h-7.1c-0.2,0-0.4,0.2-0.4,0.4S14.6,14.3,14.9,14.3z"/>
		<path class="st0" d="M14.9,16h8.8c0.2,0,0.4-0.2,0.4-0.4c0-0.2-0.2-0.4-0.4-0.4h-8.8c-0.2,0-0.4,0.2-0.4,0.4
			C14.4,15.8,14.6,16,14.9,16z"/>
		<path class="st0" d="M26.3,15.1c-0.2,0-0.4,0.2-0.4,0.4c0,0.2,0.2,0.4,0.4,0.4h6.2c0.2,0,0.4-0.2,0.4-0.4c0-0.2-0.2-0.4-0.4-0.4
			H26.3z"/>
	</g>
	<g>
		<path class="st0" d="M40.2,29.8c-0.7-1.3-2.3-1.7-3.6-1c0,0,0,0,0,0l-6.4,3.7c-0.3-0.5-0.9-0.9-1.5-1.1L19,28.9
			c-0.8-0.2-1.5-0.2-2.3,0l-3.4,0.9v-1.1c0-0.4-0.3-0.7-0.7-0.7H7.4c-0.4,0-0.7,0.3-0.7,0.7v0.7H2.1c-0.4,0-0.7,0.3-0.7,0.7V39
			c0,0.4,0.3,0.7,0.7,0.7h4.6v0.7C6.7,40.7,7,41,7.4,41h5.2c0.4,0,0.7-0.3,0.7-0.7v-0.9l0.8,0.4c0.6,0.3,1.3,0.5,2,0.5h9.8
			c0.8,0,1.6-0.2,2.3-0.6l11-6.3C40.5,32.7,40.9,31.1,40.2,29.8z M2.8,38.4v-7.8h3.9v7.8H2.8z M12,39.7H8V29.2H12V39.7z M38.6,32.3
			l-11,6.3c-0.5,0.3-1.1,0.4-1.6,0.4h-9.8c-0.5,0-1-0.1-1.5-0.3L13.3,38v-6.9l3.7-0.9c0.5-0.1,1.1-0.1,1.6,0l9.8,2.6
			c0.7,0.2,1.1,0.9,1,1.6c-0.2,0.7-0.9,1.1-1.6,1c0,0,0,0,0,0l-7.8-2.1c-0.3-0.1-0.7,0.1-0.8,0.5c-0.1,0.3,0.1,0.7,0.5,0.8l7.8,2.1
			c0.2,0.1,0.5,0.1,0.7,0.1c1.4,0,2.6-1.1,2.6-2.6c0-0.1,0-0.2,0-0.3l6.6-3.8c0.6-0.3,1.4-0.1,1.8,0.5
			C39.4,31.1,39.2,31.9,38.6,32.3z"/>
	</g>
</g>
</svg>
