<?xml version="1.0" encoding="utf-8"?>
<!-- Generator: Adobe Illustrator 24.0.2, SVG Export Plug-In . SVG Version: 6.00 Build 0)  -->
<svg version="1.1" id="Layer_1" xmlns="http://www.w3.org/2000/svg" xmlns:xlink="http://www.w3.org/1999/xlink" x="0px" y="0px"
	 viewBox="0 0 42 42" style="enable-background:new 0 0 42 42;" xml:space="preserve">
<style type="text/css">
	.st0{fill:#FC6A55;}
	.st1{stroke:#FFFFFF;stroke-width:0.25;stroke-miterlimit:10;}
	.st2{fill:#656D7A;}
	.st3{fill:#FFFFFF;}
	.st4{filter:url(#Adobe_OpacityMaskFilter);}
	.st5{fill-rule:evenodd;clip-rule:evenodd;fill:#FFFFFF;}
	.st6{mask:url(#mask-2_8_);fill-rule:evenodd;clip-rule:evenodd;}
	.st7{filter:url(#Adobe_OpacityMaskFilter_1_);}
	.st8{mask:url(#mask-2_7_);fill-rule:evenodd;clip-rule:evenodd;}
	.st9{filter:url(#Adobe_OpacityMaskFilter_2_);}
	.st10{mask:url(#mask-2_6_);fill-rule:evenodd;clip-rule:evenodd;}
	.st11{filter:url(#Adobe_OpacityMaskFilter_3_);}
	.st12{mask:url(#mask-2_5_);fill-rule:evenodd;clip-rule:evenodd;}
	.st13{filter:url(#Adobe_OpacityMaskFilter_4_);}
	.st14{mask:url(#mask-2_2_);fill:none;stroke:#000000;stroke-width:2;}
	.st15{fill:#434343;}
	.st16{fill:#434343;stroke:#F9F9F9;stroke-width:0.25;stroke-miterlimit:10;}
	.st17{fill:none;stroke:#FC6A55;stroke-width:0.5;stroke-miterlimit:10;}
	.st18{fill:none;stroke:#FC6A55;stroke-width:0.75;stroke-miterlimit:10;}
	.st19{fill:#FC6A55;stroke:#FC6A55;stroke-width:0.5;stroke-miterlimit:10;}
	.st20{opacity:0.153;fill:url(#Path_146_);enable-background:new    ;}
	.st21{opacity:0.1;fill:#590BB2;enable-background:new    ;}
	.st22{fill:#8E8CA8;}
	.st23{fill:#F5F4F9;}
	.st24{fill:#FFD5B8;}
	.st25{fill:#FC8473;}
	.st26{fill:#1C3475;}
	.st27{fill:#DDD9E4;}
	.st28{fill:#828FB3;}
	.st29{opacity:7.584635e-02;fill:url(#Path_147_);enable-background:new    ;}
	.st30{fill:#FFBE92;}
	.st31{fill:#FB8E7F;}
	.st32{fill:#FDB1A6;}
	.st33{fill:#FC806F;}
	.st34{fill:#FFE783;}
	.st35{fill:#104478;}
	.st36{fill:none;stroke:#FFFFFF;stroke-miterlimit:10;}
	.st37{fill:none;stroke:#FC6A55;stroke-miterlimit:10;}
	.st38{fill:none;stroke:#000000;stroke-width:0.15;stroke-miterlimit:10;}
	.st39{opacity:0.1;fill:url(#Path_148_);enable-background:new    ;}
	.st40{opacity:0.1;fill:url(#Path_149_);enable-background:new    ;}
</style>
<g>
	<path class="st0" d="M0.3,33.2V42h35.5v-1.3h-1.3v-1.3h5.4c1.1,0,2-0.9,2-2v-12c0-1.1-0.9-2-2-2H23.7c-1.1,0-2,0.9-2,2v3.7
		c-0.3-0.1-0.6-0.3-1-0.3l-5.1-1.2v-1.3c0.5-0.4,1-0.9,1.3-1.5h0.7c1.8,0,3.3-1.5,3.3-3.3c0-0.7-0.3-1.4-0.7-2v-2.7c0-4.4-3.6-8-8-8
		s-8,3.6-8,8v2.7c-0.4,0.6-0.7,1.2-0.7,2c0,1.8,1.5,3.3,3.3,3.3h0.7C8,25.2,8.4,25.7,9,26.1v1.3l-5.1,1.2C1.8,29.1,0.3,31,0.3,33.2z
		 M15.5,28.8l-0.4,2.1l-1.6-1l1.6-1.2L15.5,28.8z M13.6,40.7H11l0.6-6.7H13L13.6,40.7z M11.1,31.5l1.2-0.7l1.2,0.7l-0.4,1.2h-1.7
		L11.1,31.5z M9.4,30.9L9,28.8l0.5-0.1l1.6,1.2L9.4,30.9z M4.9,21.3c0-1.1,0.9-2,2-2v2.7c0,0.5,0.1,0.9,0.2,1.3H6.9
		C5.8,23.3,4.9,22.4,4.9,21.3z M19,16.6v1.6c-0.4-0.2-0.9-0.3-1.3-0.3v-1.3h-1.3v1.3h-0.1c-1,0-2-0.4-2.8-1.1l-0.9,0.9
		c0,0,0.1,0,0.1,0.1c-0.7-0.2-1.3-0.5-1.8-1l-0.9,0.9c0,0,0.1,0,0.1,0.1c-0.6-0.1-1.2-0.4-1.6-0.8v-0.4H6.9v1.3
		c-0.5,0-0.9,0.1-1.3,0.3v-1.6c0-3.7,3-6.7,6.7-6.7S19,12.9,19,16.6z M17.5,23.3c0.1-0.4,0.2-0.9,0.2-1.3v-2.7c1.1,0,2,0.9,2,2
		c0,1.1-0.9,2-2,2H17.5z M12.3,25.9c-1.2,0-2.2-0.5-3-1.3h3v-1.3H8.5c-0.1-0.4-0.2-0.9-0.2-1.3v-3.4c0.8,0.4,1.7,0.7,2.6,0.7h0.8
		v-0.4c0.6,0.2,1.2,0.4,1.9,0.4h0.8v-0.4c0.6,0.2,1.2,0.4,1.9,0.4h0.1v2.7C16.3,24.1,14.5,25.9,12.3,25.9z M14.3,26.9v0.7l-2,1.5
		l-2-1.5v-0.7c0.6,0.3,1.3,0.4,2,0.4S13.7,27.1,14.3,26.9z M21.7,30.5v6.8c0,0.9,0.6,1.6,1.3,1.9v1.5h-3.3v-7.4h-1.3v7.4h-3.4
		l-0.6-7.3l0.4-1.2l1.4,0.9l0.7-4l3.6,0.8C20.9,30,21.3,30.2,21.7,30.5z M29,40.7h-4.7v-1.3H29V40.7z M34.4,38v-1.3
		c0-1.5-1.2-2.7-2.7-2.7S29,35.2,29,36.6V38h-5.4c-0.4,0-0.7-0.3-0.7-0.7v-12c0-0.4,0.3-0.7,0.7-0.7h16.1c0.4,0,0.7,0.3,0.7,0.7v12
		c0,0.4-0.3,0.7-0.7,0.7H34.4z M33,40.7h-2.7v-4c0-0.7,0.6-1.3,1.3-1.3s1.3,0.6,1.3,1.3V40.7z M1.6,33.2c0-1.6,1.1-2.9,2.6-3.3
		l3.5-0.8L8.5,33l1.4-0.8l0.4,1.2l-0.6,7.3H6.3v-7.4H4.9v7.4H1.6V33.2z"/>
	<path class="st0" d="M25,17.9h12v-3.7c0-0.9-0.6-1.6-1.4-1.9L33,11.4v-0.9c0.8-0.6,1.3-1.6,1.3-2.7V6.5c0-1.8-1.5-3.3-3.3-3.3
		s-3.3,1.5-3.3,3.3v1.3c0,1.1,0.5,2,1.3,2.7v0.9l-2.6,0.9c-0.8,0.3-1.4,1-1.4,1.9V17.9z M33,7.9c0,1.1-0.9,2-2,2c-1.1,0-2-0.9-2-2
		V6.5c0-1.1,0.9-2,2-2c1.1,0,2,0.9,2,2V7.9z M26.4,14.2c0-0.3,0.2-0.5,0.5-0.6l3.6-1.2v-1.2c0.2,0,0.4,0.1,0.7,0.1s0.5,0,0.7-0.1
		v1.2l3.6,1.2c0.3,0.1,0.5,0.3,0.5,0.6v2.4h-9.4V14.2z"/>
	<path class="st0" d="M41.7,11.2c0-5.9-4.8-10.7-10.7-10.7S20.3,5.3,20.3,11.2S25.1,21.9,31,21.9S41.7,17.1,41.7,11.2z M40.4,11.2
		c0,5.2-4.2,9.4-9.4,9.4s-9.4-4.2-9.4-9.4s4.2-9.4,9.4-9.4S40.4,6.1,40.4,11.2z"/>
	<g>
		<path class="st0" d="M0.4,3.9h1.1V5H0.4V3.9z"/>
		<path class="st0" d="M2.7,3.9h1.1V5H2.7V3.9z"/>
		<path class="st0" d="M4.9,3.9H6V5H4.9V3.9z"/>
		<g>
			<g>
				<path class="st0" d="M20.5,4.2l-4.1-4.1C16.4,0,16.3,0,16.3,0c0,0-0.1,0-0.1,0C16,0.1,16,0.2,16,0.3v0.5C16,0.9,16,1,16.1,1
					l2.8,2.8H7.8c-0.2,0-0.3,0.1-0.3,0.3v0.5c0,0.2,0.1,0.3,0.3,0.3h11.1l-2.8,2.8C16,7.8,16,7.8,16,7.9v0.5c0,0.1,0.1,0.2,0.2,0.3
					c0.1,0,0.2,0,0.3-0.1l4.1-4.1C20.6,4.5,20.6,4.3,20.5,4.2z"/>
			</g>
		</g>
	</g>
</g>
</svg>
