<?xml version="1.0" encoding="utf-8"?>
<!-- Generator: Adobe Illustrator 24.1.1, SVG Export Plug-In . SVG Version: 6.00 Build 0)  -->
<svg version="1.1" id="Layer_1" xmlns="http://www.w3.org/2000/svg" xmlns:xlink="http://www.w3.org/1999/xlink" x="0px" y="0px"
	 viewBox="0 0 77 73" style="enable-background:new 0 0 77 73;" xml:space="preserve">
<style type="text/css">
	.st0{fill:#FC6A55;}
	.st1{fill:#EDEDED;}
	.st2{fill:none;stroke:#FC6A55;stroke-miterlimit:10;}
	.st3{fill:#222F3F;}
	.st4{fill:#383838;}
	.st5{fill:#FFFFFF;}
	.st6{fill:#656D7A;}
	.st7{fill:#C4C4C4;}
	.st8{filter:url(#Adobe_OpacityMaskFilter);}
	.st9{fill-rule:evenodd;clip-rule:evenodd;fill:#FFFFFF;}
	.st10{mask:url(#mask-2_8_);fill-rule:evenodd;clip-rule:evenodd;fill:#FFFFFF;}
	.st11{filter:url(#Adobe_OpacityMaskFilter_1_);}
	.st12{mask:url(#mask-2_7_);fill-rule:evenodd;clip-rule:evenodd;fill:#FFFFFF;}
	.st13{filter:url(#Adobe_OpacityMaskFilter_2_);}
	.st14{mask:url(#mask-2_6_);fill-rule:evenodd;clip-rule:evenodd;fill:#FFFFFF;}
	.st15{filter:url(#Adobe_OpacityMaskFilter_3_);}
	.st16{mask:url(#mask-2_5_);fill-rule:evenodd;clip-rule:evenodd;fill:#FFFFFF;}
	.st17{filter:url(#Adobe_OpacityMaskFilter_4_);}
	.st18{mask:url(#mask-2_2_);fill:none;stroke:#FFFFFF;stroke-width:1.5;stroke-miterlimit:10;}
	.st19{fill:#B4A3EE;}
	.st20{fill:#434343;}
	.st21{fill:#434343;stroke:#F9F9F9;stroke-width:0.25;stroke-miterlimit:10;}
	.st22{fill:none;stroke:#FC6A55;stroke-width:0.75;stroke-miterlimit:10;}
	.st23{fill:#FC6A55;stroke:#FC6A55;stroke-width:0.25;stroke-miterlimit:10;}
	.st24{fill:#FC6A55;stroke:#FC6A55;stroke-width:0.5;stroke-miterlimit:10;}
	.st25{opacity:0.5;fill:#FC6A55;}
	.st26{fill:#F5F4F9;}
	.st27{opacity:0.153;fill:url(#Path_144_);enable-background:new    ;}
	.st28{opacity:0.1;fill:#590BB2;enable-background:new    ;}
	.st29{fill:#8E8CA8;}
	.st30{fill:#FFD5B8;}
	.st31{fill:#FC8473;}
	.st32{fill:#1C3475;}
	.st33{fill:#DDD9E4;}
	.st34{fill:#828FB3;}
	.st35{opacity:7.584635e-02;fill:url(#Path_145_);enable-background:new    ;}
	.st36{fill:#FFBE92;}
	.st37{fill:#FB8E7F;}
	.st38{fill:#FDB1A6;}
	.st39{fill:#FC806F;}
	.st40{fill:#FFE783;}
	.st41{fill:#104478;}
	.st42{fill:none;stroke:#FFFFFF;stroke-miterlimit:10;}
	.st43{fill:none;stroke:#000000;stroke-width:0.15;stroke-miterlimit:10;}
	.st44{opacity:0.3;fill:#FC6A55;}
	.st45{opacity:0.1;fill:url(#Path_147_);enable-background:new    ;}
	.st46{opacity:0.1;fill:url(#Path_150_);enable-background:new    ;}
	.st47{fill-rule:evenodd;clip-rule:evenodd;fill:#FC6A55;}
	.st48{fill-rule:evenodd;clip-rule:evenodd;}
	.st49{fill:#FF6757;}
	.st50{fill:#6C973D;}
	.st51{fill:none;stroke:#FFFFFF;stroke-width:0.5;stroke-miterlimit:10;}
	.st52{fill:#606060;}
	.st53{fill:#F16A56;}
	.st54{fill:#515252;}
	.st55{fill:#656565;}
	.st56{fill:#F26A56;}
	.st57{fill:none;stroke:#F16A56;stroke-miterlimit:10;}
	.st58{fill:none;stroke:#929292;stroke-miterlimit:10;}
	.st59{fill:#929292;}
	.st60{fill:none;stroke:#000000;stroke-width:0.5;stroke-miterlimit:10;}
	.st61{fill:#A8A7A7;}
	.st62{opacity:0.4;fill:#FC6A55;}
	.st63{fill:#F79F91;}
	.st64{fill:#9BDBD5;}
	.st65{fill:#222121;}
	.st66{stroke:#000000;stroke-width:0.25;stroke-miterlimit:10;}
</style>
<path id="Path_167_" class="st5" d="M47.1,25.8H25.8c-0.9,0-1.6-0.7-1.6-1.6V6.8c0-0.9,0.7-1.6,1.6-1.6h21.3c0.9,0,1.6,0.7,1.6,1.6
	v17.3C48.7,25.1,48,25.8,47.1,25.8z"/>
<path id="Path_164_" class="st25" d="M38.5,20.6h-9.3c-0.4,0-0.8-0.4-0.8-0.8c0-0.4,0.4-0.8,0.8-0.8h9.3c0.4,0,0.8,0.4,0.8,0.8
	C39.3,20.3,39,20.6,38.5,20.6z"/>
<path id="Path_163_" class="st25" d="M34.2,17.3h-5c-0.4,0-0.8-0.4-0.8-0.8c0-0.4,0.4-0.8,0.8-0.8h5c0.4,0,0.8,0.4,0.8,0.8
	C35,17,34.7,17.3,34.2,17.3z"/>
<path id="Path_162_" class="st26" d="M19,50.4H2.4c-0.9,0-1.6-0.7-1.6-1.6V38.6c0-0.9,0.7-1.6,1.6-1.6H19c0.9,0,1.6,0.7,1.6,1.6
	v10.2C20.6,49.7,19.9,50.4,19,50.4z"/>
<path id="Path_161_" class="st5" d="M19,50.4H2.4c-0.9,0-1.6-0.7-1.6-1.6V38.6c0-0.9,0.7-1.6,1.6-1.6H19c0.9,0,1.6,0.7,1.6,1.6v10.2
	C20.6,49.7,19.9,50.4,19,50.4z"/>
<path id="Path_159_" class="st25" d="M15.6,46.8H5.8C5.4,46.8,5,46.4,5,46s0.4-0.8,0.8-0.8h9.8c0.4,0,0.8,0.4,0.8,0.8
	S16,46.8,15.6,46.8z"/>
<path id="Path_158_" class="st5" d="M44.8,50.4H28.2c-0.9,0-1.6-0.7-1.6-1.6V38.6c0-0.9,0.7-1.6,1.6-1.6h16.6c0.9,0,1.6,0.7,1.6,1.6
	v10.2C46.3,49.7,45.6,50.4,44.8,50.4z"/>
<path id="Path_156_" class="st25" d="M41.4,46.8h-9.8c-0.4,0-0.8-0.4-0.8-0.8s0.4-0.8,0.8-0.8h9.8c0.4,0,0.8,0.4,0.8,0.8
	S41.8,46.8,41.4,46.8z"/>
<path id="Path_155_" class="st5" d="M70.5,50.4H54c-0.9,0-1.6-0.7-1.6-1.6V38.6c0-0.9,0.7-1.6,1.6-1.6h16.6c0.9,0,1.6,0.7,1.6,1.6
	v10.2C72.1,49.7,71.4,50.4,70.5,50.4z"/>
<path id="Path_153_" class="st25" d="M67.1,46.8h-9.8c-0.4,0-0.8-0.4-0.8-0.8s0.4-0.8,0.8-0.8h9.8c0.4,0,0.8,0.4,0.8,0.8
	S67.6,46.8,67.1,46.8z"/>
<path id="Path_151_" class="st5" d="M30.9,72.1H14.4c-0.9,0-1.6-0.7-1.6-1.6V60.4c0-0.9,0.7-1.6,1.6-1.6h16.6c0.9,0,1.6,0.7,1.6,1.6
	v10.2C32.5,71.4,31.8,72.1,30.9,72.1L30.9,72.1z"/>
<path id="Path_149_" class="st25" d="M27.5,68.6h-9.8c-0.4,0-0.8-0.4-0.8-0.8s0.4-0.8,0.8-0.8h9.8c0.4,0,0.8,0.4,0.8,0.8
	S28,68.6,27.5,68.6z"/>
<path id="Path_148_" class="st5" d="M58.6,72.1H42c-0.9,0-1.6-0.7-1.6-1.6V60.4c0-0.9,0.7-1.6,1.6-1.6h16.6c0.9,0,1.6,0.7,1.6,1.6
	v10.2C60.2,71.4,59.5,72.1,58.6,72.1z"/>
<path id="Path_146_" class="st25" d="M55.2,68.6h-9.8c-0.4,0-0.8-0.4-0.8-0.8S45,67,45.4,67h9.8c0.4,0,0.8,0.4,0.8,0.8
	S55.7,68.6,55.2,68.6z"/>
<path id="Shape_104_" class="st0" d="M70.5,36.2H63c0-2.2-1.8-3.9-4-3.9H37.3v-5.7h9.9c1.3,0,2.4-1.1,2.4-2.4v-9.4
	c0-0.4-0.4-0.8-0.8-0.8s-0.8,0.4-0.8,0.8v9.4c0,0.4-0.4,0.8-0.8,0.8H25.8c-0.4,0-0.8-0.4-0.8-0.8V11.2h23.7c0.4,0,0.8-0.4,0.8-0.8
	V6.8c0-1.3-1.1-2.4-2.4-2.4H25.8c-1.3,0-2.4,1.1-2.4,2.4v17.3c0,1.3,1.1,2.4,2.4,2.4h9.9v5.7H13.9c-2.2,0-4,1.8-4,3.9H2.4
	c-1.3,0-2.4,1.1-2.4,2.4v10.2c0,1.3,1.1,2.4,2.4,2.4H19c1.3,0,2.4-1.1,2.4-2.4V38.6c0-1.3-1.1-2.4-2.4-2.4h-7.5
	c0-1.3,1.1-2.4,2.4-2.4h21.8v2.4h-7.5c-1.3,0-2.4,1.1-2.4,2.4v10.2c0,1.3,1.1,2.4,2.4,2.4h7.5V54h-9.9c-2.2,0-4,1.8-4,3.9h-7.5
	C13,58,12,59.1,12,60.4v10.2c0,1.3,1.1,2.4,2.4,2.4h16.6c1.3,0,2.4-1.1,2.4-2.4V60.4c0-1.3-1.1-2.4-2.4-2.4h-7.5
	c0-1.3,1.1-2.4,2.4-2.4h21.3c1.3,0,2.4,1.1,2.4,2.4H42c-1.3,0-2.4,1.1-2.4,2.4v10.2c0,1.3,1.1,2.4,2.4,2.4h16.6
	c1.3,0,2.4-1.1,2.4-2.4V60.4c0-1.3-1.1-2.4-2.4-2.4h-7.5c0-2.2-1.8-3.9-4-3.9h-9.9v-2.9h7.5c1.3,0,2.4-1.1,2.4-2.4V38.6
	c0-1.3-1.1-2.4-2.4-2.4h-7.5v-2.4h21.8c1.3,0,2.4,1.1,2.4,2.4H54c-1.3,0-2.4,1.1-2.4,2.4v10.2c0,1.3,1.1,2.4,2.4,2.4h16.6
	c1.3,0,2.4-1.1,2.4-2.4V38.6C72.9,37.3,71.8,36.2,70.5,36.2z M25,6.8C25,6.4,25.4,6,25.8,6h21.3c0.4,0,0.8,0.4,0.8,0.8v2.8H25V6.8
	L25,6.8z M19,49.6H2.4c-0.4,0-0.8-0.4-0.8-0.8V43h18.1v5.8C19.8,49.2,19.4,49.6,19,49.6z M19.8,38.6v2.8H1.6v-2.8
	c0-0.4,0.4-0.8,0.8-0.8H19C19.4,37.8,19.8,38.2,19.8,38.6z M31.7,60.4v10.2c0,0.4-0.4,0.8-0.8,0.8H14.4c-0.4,0-0.8-0.4-0.8-0.8v-5.8
	h14.6c0.4,0,0.8-0.4,0.8-0.8c0-0.4-0.4-0.8-0.8-0.8H13.6v-2.8c0-0.4,0.4-0.8,0.8-0.8h16.6C31.3,59.6,31.7,59.9,31.7,60.4z
	 M58.6,71.4H42c-0.4,0-0.8-0.4-0.8-0.8v-5.8h18.1v5.8C59.4,71,59,71.4,58.6,71.4z M59.4,60.4v2.8H41.2v-2.8c0-0.4,0.4-0.8,0.8-0.8
	h16.6C59,59.6,59.4,59.9,59.4,60.4z M44.8,49.6H28.2c-0.4,0-0.8-0.4-0.8-0.8V43h18.1v5.8C45.5,49.2,45.2,49.6,44.8,49.6z M45.5,38.6
	v2.8H27.4v-2.8c0-0.4,0.4-0.8,0.8-0.8h16.6C45.2,37.8,45.5,38.2,45.5,38.6z M54,37.8h16.6c0.4,0,0.8,0.4,0.8,0.8v2.8H53.2v-2.8
	C53.2,38.2,53.5,37.8,54,37.8z M70.5,49.6H54c-0.4,0-0.8-0.4-0.8-0.8V43h18.1v5.8C71.3,49.2,71,49.6,70.5,49.6z"/>
<ellipse id="Oval_21_" class="st0" cx="41.7" cy="15.7" rx="2.2" ry="2.2"/>
</svg>
