<?xml version="1.0" encoding="utf-8"?>
<!-- Generator: Adobe Illustrator 24.0.2, SVG Export Plug-In . SVG Version: 6.00 Build 0)  -->
<svg version="1.1" id="Layer_1" xmlns="http://www.w3.org/2000/svg" xmlns:xlink="http://www.w3.org/1999/xlink" x="0px" y="0px"
	 viewBox="0 0 42 42" style="enable-background:new 0 0 42 42;" xml:space="preserve">
<style type="text/css">
	.st0{fill:#FC6A55;}
	.st1{stroke:#FFFFFF;stroke-width:0.25;stroke-miterlimit:10;}
	.st2{fill:#656D7A;}
	.st3{fill:#FFFFFF;}
	.st4{filter:url(#Adobe_OpacityMaskFilter);}
	.st5{fill-rule:evenodd;clip-rule:evenodd;fill:#FFFFFF;}
	.st6{mask:url(#mask-2_8_);fill-rule:evenodd;clip-rule:evenodd;}
	.st7{filter:url(#Adobe_OpacityMaskFilter_1_);}
	.st8{mask:url(#mask-2_7_);fill-rule:evenodd;clip-rule:evenodd;}
	.st9{filter:url(#Adobe_OpacityMaskFilter_2_);}
	.st10{mask:url(#mask-2_6_);fill-rule:evenodd;clip-rule:evenodd;}
	.st11{filter:url(#Adobe_OpacityMaskFilter_3_);}
	.st12{mask:url(#mask-2_5_);fill-rule:evenodd;clip-rule:evenodd;}
	.st13{filter:url(#Adobe_OpacityMaskFilter_4_);}
	.st14{mask:url(#mask-2_2_);fill:none;stroke:#000000;stroke-width:2;}
	.st15{fill:#434343;}
	.st16{fill:#434343;stroke:#F9F9F9;stroke-width:0.25;stroke-miterlimit:10;}
	.st17{fill:none;stroke:#FC6A55;stroke-width:0.5;stroke-miterlimit:10;}
	.st18{fill:none;stroke:#FC6A55;stroke-width:0.75;stroke-miterlimit:10;}
	.st19{fill:#FC6A55;stroke:#FC6A55;stroke-width:0.5;stroke-miterlimit:10;}
	.st20{opacity:0.153;fill:url(#Path_144_);enable-background:new    ;}
	.st21{opacity:0.1;fill:#590BB2;enable-background:new    ;}
	.st22{fill:#8E8CA8;}
	.st23{fill:#F5F4F9;}
	.st24{fill:#FFD5B8;}
	.st25{fill:#FC8473;}
	.st26{fill:#1C3475;}
	.st27{fill:#DDD9E4;}
	.st28{fill:#828FB3;}
	.st29{opacity:7.584635e-02;fill:url(#Path_145_);enable-background:new    ;}
	.st30{fill:#FFBE92;}
	.st31{fill:#FB8E7F;}
	.st32{fill:#FDB1A6;}
	.st33{fill:#FC806F;}
	.st34{fill:#FFE783;}
	.st35{fill:#104478;}
</style>
<g>
	<path class="st0" d="M36.6,31.2c-2,0-3.7,1.1-4.7,2.7h-4.1c6.4-2.7,10.8-8.9,10.8-16.3C38.6,7.9,30.7,0,21,0
		C11.5,0,3.8,7.5,3.4,16.9H1.3l4.8,5.8l4.8-5.8H8.8C9.2,10.5,14.5,5.4,21,5.4c6.7,0,12.2,5.5,12.2,12.2S27.7,29.8,21,29.8h-7.5v8.1
		h17.8c0.6,2.3,2.7,4.1,5.2,4.1c3,0,5.4-2.4,5.4-5.4C42,33.6,39.6,31.2,36.6,31.2z M21,31.2c7.5,0,13.5-6.1,13.5-13.5
		S28.5,4.1,21,4.1S7.5,10.1,7.5,17.6v0.7H8l-1.9,2.3l-1.9-2.3h0.6v-0.7C4.7,8.6,12,1.4,21,1.4s16.3,7.3,16.3,16.3S30,33.9,21,33.9
		h-6.1v-2.7H21z M14.9,36.6v-1.4h16.4c-0.1,0.4-0.2,0.9-0.2,1.4H14.9z M36.6,40.6c-2.2,0-4.1-1.8-4.1-4.1c0-2.2,1.8-4.1,4.1-4.1
		c2.2,0,4.1,1.8,4.1,4.1C40.6,38.8,38.8,40.6,36.6,40.6z"/>
	<path class="st0" d="M38.8,34.7l-2.9,2.9L35,36.8l-1,1l1.8,1.8l3.9-3.9L38.8,34.7z"/>
	<path class="st0" d="M10.2,24.4H2c-1.1,0-2,0.9-2,2V40c0,1.1,0.9,2,2,2h8.1c1.1,0,2-0.9,2-2V26.4C12.2,25.3,11.3,24.4,10.2,24.4z
		 M10.8,40c0,0.4-0.3,0.7-0.7,0.7H2c-0.4,0-0.7-0.3-0.7-0.7V26.4c0-0.4,0.3-0.7,0.7-0.7h8.1c0.4,0,0.7,0.3,0.7,0.7V40z"/>
	<path class="st0" d="M21.7,22.4c2.6,0,4.7-2.1,4.7-4.7s-2.1-4.7-4.7-4.7s-4.7,2.1-4.7,4.7S19.1,22.4,21.7,22.4z M21.7,14.2
		c1.9,0,3.4,1.5,3.4,3.4S23.5,21,21.7,21s-3.4-1.5-3.4-3.4S19.8,14.2,21.7,14.2z"/>
	<path class="st0" d="M12.9,20.2l1.6,0.4L13.6,22l3.6,3.6l1.4-0.9l0.4,1.6h5.1l0.4-1.6l1.4,0.9l3.6-3.6l-0.9-1.4l1.6-0.4v-5.1
		l-1.6-0.4l0.9-1.4l-3.6-3.6l-1.4,0.9l-0.4-1.6h-5.1l-0.4,1.6l-1.4-0.9l-3.6,3.6l0.9,1.4l-1.6,0.4V20.2z M14.2,16.1l1.7-0.4l0.3-0.8
		l-0.9-1.5l2.1-2.1l1.5,0.9l0.8-0.3l0.4-1.7h3l0.4,1.7l0.8,0.3l1.5-0.9l2.1,2.1l-0.9,1.5l0.3,0.8l1.7,0.4v3l-1.3,0.3l-0.4,0.1
		l-0.3,0.8l0.9,1.5l-2.1,2.1l-1.5-0.9l-0.8,0.3l-0.4,1.7h-3l-0.3-1.3l-0.1-0.4l-0.8-0.3l-1.5,0.9l-2.1-2.1l0.9-1.5l-0.3-0.8
		l-1.7-0.4V16.1z"/>
	<path class="st0" d="M21.7,19.6c1.1,0,2-0.9,2-2s-0.9-2-2-2s-2,0.9-2,2S20.6,19.6,21.7,19.6z M21.7,16.9c0.4,0,0.7,0.3,0.7,0.7
		s-0.3,0.7-0.7,0.7S21,18,21,17.6S21.3,16.9,21.7,16.9z"/>
	<path class="st0" d="M2.7,27.1h6.8v1.4H2.7V27.1z"/>
	<path class="st0" d="M2.7,29.8h6.8v1.4H2.7V29.8z"/>
	<path class="st0" d="M2.7,32.5h6.8v1.4H2.7V32.5z"/>
	<path class="st0" d="M2.7,35.2h6.8v1.4H2.7V35.2z"/>
	<path class="st0" d="M8.1,37.9h1.4v1.4H8.1V37.9z"/>
	<path class="st0" d="M5.4,37.9h1.4v1.4H5.4V37.9z"/>
	<path class="st0" d="M2.7,37.9h1.4v1.4H2.7V37.9z"/>
</g>
</svg>
