<?xml version="1.0" encoding="utf-8"?>
<!-- Generator: Adobe Illustrator 24.0.2, SVG Export Plug-In . SVG Version: 6.00 Build 0)  -->
<svg version="1.1" id="Layer_1" xmlns="http://www.w3.org/2000/svg" xmlns:xlink="http://www.w3.org/1999/xlink" x="0px" y="0px"
	 viewBox="0 0 42 42" style="enable-background:new 0 0 42 42;" xml:space="preserve">
<style type="text/css">
	.st0{fill:#FC6A55;}
	.st1{stroke:#FFFFFF;stroke-width:0.25;stroke-miterlimit:10;}
	.st2{fill:#656D7A;}
	.st3{fill:#FFFFFF;}
	.st4{filter:url(#Adobe_OpacityMaskFilter);}
	.st5{fill-rule:evenodd;clip-rule:evenodd;fill:#FFFFFF;}
	.st6{mask:url(#mask-2_8_);fill-rule:evenodd;clip-rule:evenodd;}
	.st7{filter:url(#Adobe_OpacityMaskFilter_1_);}
	.st8{mask:url(#mask-2_7_);fill-rule:evenodd;clip-rule:evenodd;}
	.st9{filter:url(#Adobe_OpacityMaskFilter_2_);}
	.st10{mask:url(#mask-2_6_);fill-rule:evenodd;clip-rule:evenodd;}
	.st11{filter:url(#Adobe_OpacityMaskFilter_3_);}
	.st12{mask:url(#mask-2_5_);fill-rule:evenodd;clip-rule:evenodd;}
	.st13{filter:url(#Adobe_OpacityMaskFilter_4_);}
	.st14{mask:url(#mask-2_2_);fill:none;stroke:#000000;stroke-width:2;}
	.st15{fill:#434343;}
	.st16{fill:#434343;stroke:#F9F9F9;stroke-width:0.25;stroke-miterlimit:10;}
	.st17{fill:none;stroke:#FC6A55;stroke-width:0.5;stroke-miterlimit:10;}
	.st18{fill:none;stroke:#FC6A55;stroke-width:0.75;stroke-miterlimit:10;}
	.st19{fill:#FC6A55;stroke:#FC6A55;stroke-width:0.5;stroke-miterlimit:10;}
	.st20{opacity:0.153;fill:url(#Path_144_);enable-background:new    ;}
	.st21{opacity:0.1;fill:#590BB2;enable-background:new    ;}
	.st22{fill:#8E8CA8;}
	.st23{fill:#F5F4F9;}
	.st24{fill:#FFD5B8;}
	.st25{fill:#FC8473;}
	.st26{fill:#1C3475;}
	.st27{fill:#DDD9E4;}
	.st28{fill:#828FB3;}
	.st29{opacity:7.584635e-02;fill:url(#Path_145_);enable-background:new    ;}
	.st30{fill:#FFBE92;}
	.st31{fill:#FB8E7F;}
	.st32{fill:#FDB1A6;}
	.st33{fill:#FC806F;}
	.st34{fill:#FFE783;}
	.st35{fill:#104478;}
</style>
<g id="final-design_21_">
	<g id="invensis.net-2.0-solustion-detail-page-tab-1_12_" transform="translate(-1180.000000, -1404.000000)">
		<g id="cloud-computer_1_" transform="translate(1180.000000, 1404.000000)">
			<polygon id="Path_133_" class="st35" points="4.1,13.5 6.8,13.5 6.8,14.9 4.1,14.9 			"/>
			<path id="Shape_42_" class="st35" d="M40,10.8c1.1,0,2-0.9,2-2V2c0-1.1-0.9-2-2-2h-9.5c-1.1,0-2,0.9-2,2v6.8c0,1.1,0.9,2,2,2h2
				v1.4h-1.4v1.4h3.4v6.8h-2.8c-0.5-0.5-1.2-0.9-2-1.2c0-0.1,0-0.1,0-0.2c0-3-2.4-5.4-5.4-5.4c-1.9,0-3.6,1-4.6,2.5
				c-0.7-0.3-1.4-0.5-2.2-0.5c-2.2,0-4.3,1.4-5.1,3.5c-0.5,0.1-1,0.3-1.4,0.6h-5v-2h2.7c1.1,0,2-0.9,2-2V2c0-1.1-0.9-2-2-2H2
				C0.9,0,0,0.9,0,2v13.5c0,1.1,0.9,2,2,2h2.7V21h4.9c-0.3,0.4-0.5,0.9-0.7,1.4H6.1v7.5H3.4c-1.1,0-2,0.9-2,2v6.1H0v2
				c0,1.1,0.9,2,2,2h10.8c1.1,0,2-0.9,2-2v-2h-1.4v-6.1c0-1.1-0.9-2-2-2H7.5v-6.1h1.4c0,2.6,2.1,4.7,4.7,4.7h14.9
				c2.4,0,4.4-1.8,4.7-4.1h2.8v5.4h-4.7V42H42V29.8h-4.7V23h-4.1c-0.1-0.5-0.2-0.9-0.4-1.4h3.2v-8.1h3.4v-1.4h-1.4v-1.4H40z
				 M9.5,10.8H1.4V4.1h8.1V10.8z M2,1.4h6.8c0.4,0,0.7,0.3,0.7,0.7v0.7H1.4V2C1.4,1.7,1.7,1.4,2,1.4z M1.4,15.6v-3.4h8.1v3.4
				c0,0.4-0.3,0.7-0.7,0.7H2C1.7,16.3,1.4,16,1.4,15.6z M13.5,40c0,0.4-0.3,0.7-0.7,0.7H2c-0.4,0-0.7-0.3-0.7-0.7v-0.7h12.2V40z
				 M12.2,31.8v6.1H2.7v-6.1c0-0.4,0.3-0.7,0.7-0.7h8.1C11.9,31.2,12.2,31.5,12.2,31.8z M32.5,40.6v-4.1h8.1v4.1H32.5z M40.6,35.2
				h-8.1v-4.1h8.1V35.2z M28.5,27.1H13.5c-1.9,0-3.4-1.5-3.4-3.4c0-1.7,1.3-3.2,3-3.4l0.4-0.1l0.1-0.4c0.5-1.7,2.1-2.9,3.9-2.9
				c0.7,0,1.5,0.2,2.1,0.6l0.6,0.4l0.3-0.7c0.7-1.4,2.1-2.3,3.7-2.3c2.2,0,4.1,1.8,4.1,4.1c0,0.2,0,0.4-0.1,0.6l-0.1,0.7l0.7,0.1
				c1.6,0.3,2.9,1.7,2.9,3.3C31.8,25.6,30.3,27.1,28.5,27.1L28.5,27.1z M30.5,1.4H40c0.4,0,0.7,0.3,0.7,0.7v4.7H29.8V2
				C29.8,1.7,30.1,1.4,30.5,1.4z M29.8,8.8V8.1h10.8v0.7c0,0.4-0.3,0.7-0.7,0.7h-9.5C30.1,9.5,29.8,9.2,29.8,8.8z M36.6,12.2h-2.7
				v-1.4h2.7V12.2z"/>
			<polygon id="Path_132_" class="st35" points="33.9,32.5 35.2,32.5 35.2,33.9 33.9,33.9 			"/>
			<polygon id="Path_131_" class="st35" points="37.9,37.9 39.3,37.9 39.3,39.3 37.9,39.3 			"/>
			<polygon id="Path_130_" class="st35" points="36.6,32.5 39.3,32.5 39.3,33.9 36.6,33.9 			"/>
			<polygon id="Path_129_" class="st35" points="33.9,37.9 36.6,37.9 36.6,39.3 33.9,39.3 			"/>
		</g>
	</g>
</g>
</svg>
