<?xml version="1.0" encoding="utf-8"?>
<!-- Generator: Adobe Illustrator 24.0.2, SVG Export Plug-In . SVG Version: 6.00 Build 0)  -->
<svg version="1.1" id="Layer_1" xmlns="http://www.w3.org/2000/svg" xmlns:xlink="http://www.w3.org/1999/xlink" x="0px" y="0px"
	 viewBox="0 0 42 42" style="enable-background:new 0 0 42 42;" xml:space="preserve">
<style type="text/css">
	.st0{fill:#FC6A55;}
	.st1{stroke:#FFFFFF;stroke-width:0.25;stroke-miterlimit:10;}
	.st2{fill:#656D7A;}
	.st3{fill:#FFFFFF;}
	.st4{filter:url(#Adobe_OpacityMaskFilter);}
	.st5{fill-rule:evenodd;clip-rule:evenodd;fill:#FFFFFF;}
	.st6{mask:url(#mask-2_8_);fill-rule:evenodd;clip-rule:evenodd;}
	.st7{filter:url(#Adobe_OpacityMaskFilter_1_);}
	.st8{mask:url(#mask-2_7_);fill-rule:evenodd;clip-rule:evenodd;}
	.st9{filter:url(#Adobe_OpacityMaskFilter_2_);}
	.st10{mask:url(#mask-2_6_);fill-rule:evenodd;clip-rule:evenodd;}
	.st11{filter:url(#Adobe_OpacityMaskFilter_3_);}
	.st12{mask:url(#mask-2_5_);fill-rule:evenodd;clip-rule:evenodd;}
	.st13{filter:url(#Adobe_OpacityMaskFilter_4_);}
	.st14{mask:url(#mask-2_2_);fill:none;stroke:#000000;stroke-width:2;}
	.st15{fill:#434343;}
	.st16{fill:#434343;stroke:#F9F9F9;stroke-width:0.25;stroke-miterlimit:10;}
	.st17{fill:none;stroke:#FC6A55;stroke-width:0.5;stroke-miterlimit:10;}
	.st18{fill:none;stroke:#FC6A55;stroke-width:0.75;stroke-miterlimit:10;}
	.st19{fill:#FC6A55;stroke:#FC6A55;stroke-width:0.5;stroke-miterlimit:10;}
	.st20{opacity:0.153;fill:url(#Path_144_);enable-background:new    ;}
	.st21{opacity:0.1;fill:#590BB2;enable-background:new    ;}
	.st22{fill:#8E8CA8;}
	.st23{fill:#F5F4F9;}
	.st24{fill:#FFD5B8;}
	.st25{fill:#FC8473;}
	.st26{fill:#1C3475;}
	.st27{fill:#DDD9E4;}
	.st28{fill:#828FB3;}
	.st29{opacity:7.584635e-02;fill:url(#Path_145_);enable-background:new    ;}
	.st30{fill:#FFBE92;}
	.st31{fill:#FB8E7F;}
	.st32{fill:#FDB1A6;}
	.st33{fill:#FC806F;}
	.st34{fill:#FFE783;}
	.st35{fill:#104478;}
</style>
<g id="iso-file">
	<path class="st0" d="M41.3,2.8h-8.1l-2.6-2.6C30.5,0.1,30.3,0,30.1,0H10.5c-0.4,0-0.7,0.3-0.7,0.7v12.6H0.7C0.3,13.3,0,13.6,0,14
		v14c0,0.4,0.3,0.7,0.7,0.7h9.1v9.8c0,0.4,0.3,0.7,0.7,0.7h2.1v2.1c0,0.4,0.3,0.7,0.7,0.7h28c0.4,0,0.7-0.3,0.7-0.7V3.5
		C42,3.1,41.7,2.8,41.3,2.8z M30.8,2.4l6,6h-5.3c-0.4,0-0.7-0.3-0.7-0.7V2.4z M1.4,14.7H35v12.6H1.4V14.7z M11.2,28.7h24.5
		c0.4,0,0.7-0.3,0.7-0.7V14c0-0.4-0.3-0.7-0.7-0.7H11.2V1.4h18.2v6.3c0,1.2,0.9,2.1,2.1,2.1h6.3v28H11.2V28.7z M40.6,40.6H14v-1.4
		h24.5c0.4,0,0.7-0.3,0.7-0.7V9.1c0-0.2-0.1-0.4-0.2-0.5l-4.4-4.4h6V40.6z"/>
	<path class="st0" d="M7,17.5h2.8v7H7v1.4h7v-1.4h-2.8v-7H14v-1.4H7V17.5z"/>
	<path class="st0" d="M30.1,16.1h-5.6c-0.4,0-0.7,0.3-0.7,0.7v8.4c0,0.4,0.3,0.7,0.7,0.7h5.6c0.4,0,0.7-0.3,0.7-0.7v-8.4
		C30.8,16.4,30.5,16.1,30.1,16.1z M29.4,24.5h-4.2v-7h4.2V24.5z"/>
	<path class="st0" d="M21.7,16.1h-5.6c-0.4,0-0.7,0.3-0.7,0.7V21c0,0.4,0.3,0.7,0.7,0.7H21v2.8h-4.2v-1.4h-1.4v2.1
		c0,0.4,0.3,0.7,0.7,0.7h5.6c0.4,0,0.7-0.3,0.7-0.7V21c0-0.4-0.3-0.7-0.7-0.7h-4.9v-2.8H21v1.4h1.4v-2.1
		C22.4,16.4,22.1,16.1,21.7,16.1z"/>
</g>
</svg>
