<?xml version="1.0" encoding="utf-8"?>
<!-- Generator: Adobe Illustrator 24.0.2, SVG Export Plug-In . SVG Version: 6.00 Build 0)  -->
<svg version="1.1" id="Layer_1" xmlns="http://www.w3.org/2000/svg" xmlns:xlink="http://www.w3.org/1999/xlink" x="0px" y="0px"
	 viewBox="0 0 18 24" style="enable-background:new 0 0 18 24;" xml:space="preserve">
<style type="text/css">
	.st0{fill:#FC6A55;}
	.st1{fill:#EDEDED;}
	.st2{fill:none;stroke:#FC6A55;stroke-miterlimit:10;}
	.st3{stroke:#FFFFFF;stroke-width:0.25;stroke-miterlimit:10;}
	.st4{fill:#656D7A;}
	.st5{fill:#FFFFFF;}
	.st6{filter:url(#Adobe_OpacityMaskFilter);}
	.st7{fill-rule:evenodd;clip-rule:evenodd;fill:#FFFFFF;}
	.st8{mask:url(#mask-2_8_);fill-rule:evenodd;clip-rule:evenodd;}
	.st9{filter:url(#Adobe_OpacityMaskFilter_1_);}
	.st10{mask:url(#mask-2_7_);fill-rule:evenodd;clip-rule:evenodd;}
	.st11{filter:url(#Adobe_OpacityMaskFilter_2_);}
	.st12{mask:url(#mask-2_6_);fill-rule:evenodd;clip-rule:evenodd;}
	.st13{filter:url(#Adobe_OpacityMaskFilter_3_);}
	.st14{mask:url(#mask-2_5_);fill-rule:evenodd;clip-rule:evenodd;}
	.st15{filter:url(#Adobe_OpacityMaskFilter_4_);}
	.st16{mask:url(#mask-2_2_);fill:none;stroke:#000000;stroke-width:2;}
	.st17{fill:#434343;}
	.st18{fill:#434343;stroke:#F9F9F9;stroke-width:0.25;stroke-miterlimit:10;}
	.st19{fill:none;stroke:#FC6A55;stroke-width:0.5;stroke-miterlimit:10;}
	.st20{fill:none;stroke:#FC6A55;stroke-width:0.75;stroke-miterlimit:10;}
	.st21{fill:#FC6A55;stroke:#FC6A55;stroke-width:0.5;stroke-miterlimit:10;}
	.st22{opacity:0.153;fill:url(#Path_146_);enable-background:new    ;}
	.st23{opacity:0.1;fill:#590BB2;enable-background:new    ;}
	.st24{fill:#8E8CA8;}
	.st25{fill:#F5F4F9;}
	.st26{fill:#FFD5B8;}
	.st27{fill:#FC8473;}
	.st28{fill:#1C3475;}
	.st29{fill:#DDD9E4;}
	.st30{fill:#828FB3;}
	.st31{opacity:7.584635e-02;fill:url(#Path_147_);enable-background:new    ;}
	.st32{fill:#FFBE92;}
	.st33{fill:#FB8E7F;}
	.st34{fill:#FDB1A6;}
	.st35{fill:#FC806F;}
	.st36{fill:#FFE783;}
	.st37{fill:#104478;}
	.st38{fill:none;stroke:#FFFFFF;stroke-miterlimit:10;}
	.st39{fill:none;stroke:#000000;stroke-width:0.15;stroke-miterlimit:10;}
	.st40{opacity:0.1;fill:url(#Path_148_);enable-background:new    ;}
	.st41{opacity:0.1;fill:url(#Path_149_);enable-background:new    ;}
	.st42{fill-rule:evenodd;clip-rule:evenodd;fill:#FC6A55;}
	.st43{fill-rule:evenodd;clip-rule:evenodd;}
</style>
<g>
	<g>
		<g>
			<path class="st0" d="M12.2,14.2c-0.2,0-0.4,0.2-0.4,0.4V17c0,1-0.8,1.8-1.8,1.8H6.3c-0.2,0-0.4,0.2-0.4,0.4l0,0.7L5.1,19
				c-0.1-0.1-0.2-0.2-0.3-0.2H2.5c-1,0-1.8-0.8-1.8-1.8v-5.4c0-1,0.8-1.8,1.8-1.8H6c0.2,0,0.4-0.2,0.4-0.4c0-0.2-0.2-0.4-0.4-0.4
				H2.5C1.1,9.1,0,10.2,0,11.6V17c0,1.4,1.1,2.5,2.5,2.5h2.1L6,20.9C6.1,21,6.2,21,6.3,21c0,0,0.1,0,0.1,0c0.1-0.1,0.2-0.2,0.2-0.3
				l0-1.2h3.4c1.4,0,2.5-1.1,2.5-2.5v-2.4C12.5,14.4,12.4,14.2,12.2,14.2z"/>
		</g>
	</g>
	<g>
		<g>
			<path class="st0" d="M12.9,3H12C9.2,3,6.9,5.3,6.9,8.1s2.3,5.1,5.1,5.1h0.9c0.4,0,0.9-0.1,1.3-0.2l1.3,1.3
				c0.1,0.1,0.2,0.1,0.2,0.1c0,0,0.1,0,0.1,0c0.1-0.1,0.2-0.2,0.2-0.3v-2c0.6-0.5,1-1,1.3-1.7C17.8,9.7,18,8.9,18,8.1
				C18,5.3,15.7,3,12.9,3z M15.5,11.6c-0.1,0.1-0.1,0.2-0.1,0.3v1.4l-0.9-0.9c-0.1-0.1-0.2-0.1-0.2-0.1c0,0-0.1,0-0.1,0
				c-0.4,0.1-0.9,0.2-1.3,0.2H12c-2.4,0-4.4-2-4.4-4.4s2-4.4,4.4-4.4h0.9c2.4,0,4.4,2,4.4,4.4C17.3,9.5,16.7,10.8,15.5,11.6z"/>
		</g>
	</g>
	<g>
		<g>
			<path class="st0" d="M14,6.8c-0.1-0.7-0.6-1.3-1.4-1.4c-0.4,0-0.8,0.1-1.1,0.4c-0.3,0.3-0.5,0.7-0.5,1.1c0,0.2,0.2,0.4,0.4,0.4
				s0.4-0.2,0.4-0.4c0-0.2,0.1-0.4,0.2-0.6c0.2-0.2,0.4-0.2,0.6-0.2c0.4,0,0.7,0.3,0.7,0.7c0,0.4-0.2,0.7-0.6,0.8
				c-0.3,0.1-0.5,0.3-0.5,0.7v0.8c0,0.2,0.2,0.4,0.4,0.4c0.2,0,0.4-0.2,0.4-0.4V8.4C13.6,8.2,14.1,7.6,14,6.8z"/>
		</g>
	</g>
	<g>
		<g>
			<path class="st0" d="M12.8,10.4c-0.1-0.1-0.2-0.1-0.2-0.1c-0.1,0-0.2,0-0.2,0.1c-0.1,0.1-0.1,0.2-0.1,0.2c0,0.1,0,0.2,0.1,0.2
				c0.1,0.1,0.2,0.1,0.2,0.1c0.1,0,0.2,0,0.2-0.1c0.1-0.1,0.1-0.2,0.1-0.2C12.9,10.5,12.9,10.4,12.8,10.4z"/>
		</g>
	</g>
	<g>
		<g>
			<path class="st0" d="M9.7,13.9H2.3c-0.2,0-0.4,0.2-0.4,0.4c0,0.2,0.2,0.4,0.4,0.4h7.4c0.2,0,0.4-0.2,0.4-0.4
				C10,14.1,9.9,13.9,9.7,13.9z"/>
		</g>
	</g>
	<g>
		<g>
			<path class="st0" d="M9.9,16c-0.1-0.1-0.2-0.1-0.2-0.1s-0.2,0-0.2,0.1c-0.1,0.1-0.1,0.2-0.1,0.2c0,0.1,0,0.2,0.1,0.2
				c0.1,0.1,0.2,0.1,0.2,0.1s0.2,0,0.2-0.1c0.1-0.1,0.1-0.2,0.1-0.2C10,16.1,10,16,9.9,16z"/>
		</g>
	</g>
	<g>
		<g>
			<path class="st0" d="M8.3,15.9h-6c-0.2,0-0.4,0.2-0.4,0.4s0.2,0.4,0.4,0.4h6c0.2,0,0.4-0.2,0.4-0.4S8.5,15.9,8.3,15.9z"/>
		</g>
	</g>
	<g>
		<g>
			<path class="st0" d="M7.4,11.9H2.3c-0.2,0-0.4,0.2-0.4,0.4c0,0.2,0.2,0.4,0.4,0.4h5.1c0.2,0,0.4-0.2,0.4-0.4
				C7.7,12.1,7.6,11.9,7.4,11.9z"/>
		</g>
	</g>
</g>
</svg>
