<?xml version="1.0" encoding="utf-8"?>
<!-- Generator: Adobe Illustrator 24.0.2, SVG Export Plug-In . SVG Version: 6.00 Build 0)  -->
<svg version="1.1" id="Layer_1" xmlns="http://www.w3.org/2000/svg" xmlns:xlink="http://www.w3.org/1999/xlink" x="0px" y="0px"
	 viewBox="0 0 39.1 39.1" style="enable-background:new 0 0 39.1 39.1;" xml:space="preserve">
<style type="text/css">
	.st0{fill:#FC6A55;}
	.st1{fill:#EDEDED;}
	.st2{fill:none;stroke:#FC6A55;stroke-miterlimit:10;}
	.st3{stroke:#FFFFFF;stroke-width:0.25;stroke-miterlimit:10;}
	.st4{fill:#656D7A;}
	.st5{fill:#FFFFFF;}
	.st6{filter:url(#Adobe_OpacityMaskFilter);}
	.st7{fill-rule:evenodd;clip-rule:evenodd;fill:#FFFFFF;}
	.st8{mask:url(#mask-2_8_);fill-rule:evenodd;clip-rule:evenodd;}
	.st9{filter:url(#Adobe_OpacityMaskFilter_1_);}
	.st10{mask:url(#mask-2_7_);fill-rule:evenodd;clip-rule:evenodd;}
	.st11{filter:url(#Adobe_OpacityMaskFilter_2_);}
	.st12{mask:url(#mask-2_6_);fill-rule:evenodd;clip-rule:evenodd;}
	.st13{filter:url(#Adobe_OpacityMaskFilter_3_);}
	.st14{mask:url(#mask-2_5_);fill-rule:evenodd;clip-rule:evenodd;}
	.st15{filter:url(#Adobe_OpacityMaskFilter_4_);}
	.st16{mask:url(#mask-2_2_);fill:none;stroke:#000000;stroke-width:2;}
	.st17{fill:#434343;}
	.st18{fill:#434343;stroke:#F9F9F9;stroke-width:0.25;stroke-miterlimit:10;}
	.st19{fill:none;stroke:#FC6A55;stroke-width:0.5;stroke-miterlimit:10;}
	.st20{fill:none;stroke:#FC6A55;stroke-width:0.75;stroke-miterlimit:10;}
	.st21{fill:#FC6A55;stroke:#FC6A55;stroke-width:0.5;stroke-miterlimit:10;}
	.st22{opacity:0.153;fill:url(#Path_146_);enable-background:new    ;}
	.st23{opacity:0.1;fill:#590BB2;enable-background:new    ;}
	.st24{fill:#8E8CA8;}
	.st25{fill:#F5F4F9;}
	.st26{fill:#FFD5B8;}
	.st27{fill:#FC8473;}
	.st28{fill:#1C3475;}
	.st29{fill:#DDD9E4;}
	.st30{fill:#828FB3;}
	.st31{opacity:7.584635e-02;fill:url(#Path_147_);enable-background:new    ;}
	.st32{fill:#FFBE92;}
	.st33{fill:#FB8E7F;}
	.st34{fill:#FDB1A6;}
	.st35{fill:#FC806F;}
	.st36{fill:#FFE783;}
	.st37{fill:#104478;}
	.st38{fill:none;stroke:#FFFFFF;stroke-miterlimit:10;}
	.st39{fill:none;stroke:#000000;stroke-width:0.15;stroke-miterlimit:10;}
	.st40{opacity:0.1;fill:url(#Path_148_);enable-background:new    ;}
	.st41{opacity:0.1;fill:url(#Path_149_);enable-background:new    ;}
	.st42{fill-rule:evenodd;clip-rule:evenodd;fill:#FC6A55;}
	.st43{fill-rule:evenodd;clip-rule:evenodd;}
	.st44{fill:#FF6757;}
	.st45{fill:#666666;}
	.st46{fill:none;stroke:#FFFFFF;stroke-width:0.5;stroke-miterlimit:10;}
	.st47{fill:#F16A56;}
	.st48{fill:#515252;}
	.st49{fill:#F26A56;}
	.st50{fill:none;stroke:#F16A56;stroke-miterlimit:10;}
	.st51{fill:none;stroke:#929292;stroke-miterlimit:10;}
	.st52{fill:#929292;}
	.st53{fill:none;stroke:#000000;stroke-width:0.5;stroke-miterlimit:10;}
	.st54{fill:#A8A7A7;}
</style>
<circle class="st50" cx="19.5" cy="19.5" r="19"/>
<g>
	<path class="st47" d="M14.5,18.3c0,1,0,2,0,3c1.7,0.1,3.3,0,5,0.1c-0.7,3.7-5.7,4.9-8.4,2.5c-2.7-2.1-2.6-6.7,0.2-8.7
		c2-1.6,4.8-1.2,6.8,0.2c0.8-0.7,1.5-1.5,2.2-2.3c-1.6-1.3-3.7-2.2-5.8-2.1c-4.5-0.1-8.6,3.8-8.7,8.2c-0.3,3.7,2.1,7.2,5.5,8.5
		c3.4,1.3,7.7,0.4,9.9-2.6c1.4-1.9,1.7-4.4,1.6-6.7C20.1,18.3,17.3,18.3,14.5,18.3z"/>
	<path class="st47" d="M30.7,18.3c0-0.8,0-1.7,0-2.5c-0.8,0-1.6,0-2.5,0c0,0.8,0,1.7,0,2.5c-0.8,0-1.7,0-2.5,0c0,0.8,0,1.6,0,2.5
		c0.8,0,1.7,0,2.5,0c0,0.8,0,1.7,0,2.5c0.8,0,1.6,0,2.5,0c0-0.8,0-1.7,0-2.5c0.8,0,1.7,0,2.5,0c0-0.8,0-1.6,0-2.5
		C32.4,18.3,31.5,18.3,30.7,18.3z"/>
</g>
</svg>
