<?xml version="1.0" encoding="utf-8"?>
<!-- Generator: Adobe Illustrator 24.0.2, SVG Export Plug-In . SVG Version: 6.00 Build 0)  -->
<svg version="1.1" id="Layer_1" xmlns="http://www.w3.org/2000/svg" xmlns:xlink="http://www.w3.org/1999/xlink" x="0px" y="0px"
	 viewBox="0 0 39.1 39.1" style="enable-background:new 0 0 39.1 39.1;" xml:space="preserve">
<style type="text/css">
	.st0{fill:#FC6A55;}
	.st1{fill:#EDEDED;}
	.st2{fill:none;stroke:#FC6A55;stroke-miterlimit:10;}
	.st3{stroke:#FFFFFF;stroke-width:0.25;stroke-miterlimit:10;}
	.st4{fill:#656D7A;}
	.st5{fill:#FFFFFF;}
	.st6{filter:url(#Adobe_OpacityMaskFilter);}
	.st7{fill-rule:evenodd;clip-rule:evenodd;fill:#FFFFFF;}
	.st8{mask:url(#mask-2_8_);fill-rule:evenodd;clip-rule:evenodd;}
	.st9{filter:url(#Adobe_OpacityMaskFilter_1_);}
	.st10{mask:url(#mask-2_7_);fill-rule:evenodd;clip-rule:evenodd;}
	.st11{filter:url(#Adobe_OpacityMaskFilter_2_);}
	.st12{mask:url(#mask-2_6_);fill-rule:evenodd;clip-rule:evenodd;}
	.st13{filter:url(#Adobe_OpacityMaskFilter_3_);}
	.st14{mask:url(#mask-2_5_);fill-rule:evenodd;clip-rule:evenodd;}
	.st15{filter:url(#Adobe_OpacityMaskFilter_4_);}
	.st16{mask:url(#mask-2_2_);fill:none;stroke:#000000;stroke-width:2;}
	.st17{fill:#434343;}
	.st18{fill:#434343;stroke:#F9F9F9;stroke-width:0.25;stroke-miterlimit:10;}
	.st19{fill:none;stroke:#FC6A55;stroke-width:0.5;stroke-miterlimit:10;}
	.st20{fill:none;stroke:#FC6A55;stroke-width:0.75;stroke-miterlimit:10;}
	.st21{fill:#FC6A55;stroke:#FC6A55;stroke-width:0.5;stroke-miterlimit:10;}
	.st22{opacity:0.153;fill:url(#Path_146_);enable-background:new    ;}
	.st23{opacity:0.1;fill:#590BB2;enable-background:new    ;}
	.st24{fill:#8E8CA8;}
	.st25{fill:#F5F4F9;}
	.st26{fill:#FFD5B8;}
	.st27{fill:#FC8473;}
	.st28{fill:#1C3475;}
	.st29{fill:#DDD9E4;}
	.st30{fill:#828FB3;}
	.st31{opacity:7.584635e-02;fill:url(#Path_147_);enable-background:new    ;}
	.st32{fill:#FFBE92;}
	.st33{fill:#FB8E7F;}
	.st34{fill:#FDB1A6;}
	.st35{fill:#FC806F;}
	.st36{fill:#FFE783;}
	.st37{fill:#104478;}
	.st38{fill:none;stroke:#FFFFFF;stroke-miterlimit:10;}
	.st39{fill:none;stroke:#000000;stroke-width:0.15;stroke-miterlimit:10;}
	.st40{opacity:0.1;fill:url(#Path_148_);enable-background:new    ;}
	.st41{opacity:0.1;fill:url(#Path_149_);enable-background:new    ;}
	.st42{fill-rule:evenodd;clip-rule:evenodd;fill:#FC6A55;}
	.st43{fill-rule:evenodd;clip-rule:evenodd;}
	.st44{fill:#FF6757;}
	.st45{fill:#666666;}
	.st46{fill:none;stroke:#FFFFFF;stroke-width:0.5;stroke-miterlimit:10;}
	.st47{fill:#F16A56;}
	.st48{fill:#515252;}
	.st49{fill:#F26A56;}
	.st50{fill:none;stroke:#F16A56;stroke-miterlimit:10;}
	.st51{fill:none;stroke:#929292;stroke-miterlimit:10;}
	.st52{fill:#929292;}
	.st53{fill:none;stroke:#000000;stroke-width:0.5;stroke-miterlimit:10;}
	.st54{fill:#A8A7A7;}
</style>
<circle class="st51" cx="19.5" cy="19.5" r="19"/>
<path class="st52" d="M21.3,24.7c-1.5,0-2.8-0.8-3.3-1.7c0,0-0.8,3.1-0.9,3.7c-0.6,2.1-2.3,4.2-2.4,4.4c-0.1,0.1-0.3,0.1-0.3-0.1
	c0-0.3-0.5-2.9,0-5.1c0.3-1.1,1.7-7.3,1.7-7.3s-0.4-0.9-0.4-2.1c0-2,1.2-3.5,2.6-3.5c1.2,0,1.8,0.9,1.8,2c0,1.2-0.8,3.1-1.2,4.8
	c-0.3,1.4,0.7,2.6,2.1,2.6c2.5,0,4.3-3.3,4.3-7.2c0-2.9-2-5.2-5.6-5.2c-4.1,0-6.6,3-6.6,6.4c0,1.2,0.3,2,0.9,2.6
	c0.2,0.3,0.3,0.4,0.2,0.7c-0.1,0.2-0.2,0.8-0.3,1.1c-0.1,0.3-0.4,0.5-0.7,0.3c-1.9-0.8-2.8-2.8-2.8-5.1c0-3.8,3.2-8.4,9.6-8.4
	c5.1,0,8.5,3.7,8.5,7.7C28.6,20.8,25.7,24.7,21.3,24.7z"/>
</svg>
