<?xml version="1.0" encoding="utf-8"?>
<!-- Generator: Adobe Illustrator 24.1.1, SVG Export Plug-In . SVG Version: 6.00 Build 0)  -->
<svg version="1.1" id="Layer_1" xmlns="http://www.w3.org/2000/svg" xmlns:xlink="http://www.w3.org/1999/xlink" x="0px" y="0px"
	 viewBox="0 0 48 41" style="enable-background:new 0 0 48 41;" xml:space="preserve">
<style type="text/css">
	.st0{fill:#FC6A55;}
	.st1{fill:#EDEDED;}
	.st2{fill:none;stroke:#FC6A55;stroke-miterlimit:10;}
	.st3{fill:#222F3F;}
	.st4{fill:#383838;}
	.st5{fill:#FFFFFF;}
	.st6{fill:#656D7A;}
	.st7{fill:#C4C4C4;}
	.st8{filter:url(#Adobe_OpacityMaskFilter);}
	.st9{fill-rule:evenodd;clip-rule:evenodd;fill:#FFFFFF;}
	.st10{mask:url(#mask-2_8_);fill-rule:evenodd;clip-rule:evenodd;fill:#FFFFFF;}
	.st11{filter:url(#Adobe_OpacityMaskFilter_1_);}
	.st12{mask:url(#mask-2_7_);fill-rule:evenodd;clip-rule:evenodd;fill:#FFFFFF;}
	.st13{filter:url(#Adobe_OpacityMaskFilter_2_);}
	.st14{mask:url(#mask-2_6_);fill-rule:evenodd;clip-rule:evenodd;fill:#FFFFFF;}
	.st15{filter:url(#Adobe_OpacityMaskFilter_3_);}
	.st16{mask:url(#mask-2_5_);fill-rule:evenodd;clip-rule:evenodd;fill:#FFFFFF;}
	.st17{filter:url(#Adobe_OpacityMaskFilter_4_);}
	.st18{mask:url(#mask-2_2_);fill:none;stroke:#FFFFFF;stroke-width:1.5;stroke-miterlimit:10;}
	.st19{fill:#B4A3EE;}
	.st20{fill:#434343;}
	.st21{fill:#434343;stroke:#F9F9F9;stroke-width:0.25;stroke-miterlimit:10;}
	.st22{fill:none;stroke:#FC6A55;stroke-width:0.5;stroke-miterlimit:10;}
	.st23{fill:none;stroke:#FC6A55;stroke-width:0.75;stroke-miterlimit:10;}
	.st24{fill:#FC6A55;stroke:#FC6A55;stroke-width:0.5;stroke-miterlimit:10;}
	.st25{opacity:0.153;fill:url(#Path_44_);enable-background:new    ;}
	.st26{opacity:0.1;fill:#590BB2;enable-background:new    ;}
	.st27{fill:#8E8CA8;}
	.st28{fill:#F5F4F9;}
	.st29{fill:#FFD5B8;}
	.st30{fill:#FC8473;}
	.st31{fill:#1C3475;}
	.st32{fill:#DDD9E4;}
	.st33{fill:#828FB3;}
	.st34{opacity:7.584635e-02;fill:url(#Path_45_);enable-background:new    ;}
	.st35{fill:#FFBE92;}
	.st36{fill:#FB8E7F;}
	.st37{fill:#FDB1A6;}
	.st38{fill:#FC806F;}
	.st39{fill:#FFE783;}
	.st40{fill:#104478;}
	.st41{fill:none;stroke:#FFFFFF;stroke-miterlimit:10;}
	.st42{fill:none;stroke:#000000;stroke-width:0.15;stroke-miterlimit:10;}
	.st43{opacity:0.1;fill:url(#Path_46_);enable-background:new    ;}
	.st44{opacity:0.1;fill:url(#Path_47_);enable-background:new    ;}
	.st45{fill-rule:evenodd;clip-rule:evenodd;fill:#FC6A55;}
	.st46{fill-rule:evenodd;clip-rule:evenodd;}
	.st47{fill:#FF6757;}
	.st48{fill:#666666;}
	.st49{fill:none;stroke:#FFFFFF;stroke-width:0.5;stroke-miterlimit:10;}
	.st50{fill:#606060;}
	.st51{fill:#F16A56;}
	.st52{fill:#515252;}
	.st53{fill:#F26A56;}
	.st54{fill:none;stroke:#F16A56;stroke-miterlimit:10;}
	.st55{fill:none;stroke:#929292;stroke-miterlimit:10;}
	.st56{fill:#929292;}
	.st57{fill:none;stroke:#000000;stroke-width:0.5;stroke-miterlimit:10;}
	.st58{fill:#A8A7A7;}
	.st59{fill:#F79F91;}
	.st60{fill:#9BDBD5;}
	.st61{fill:#222121;}
	.st62{stroke:#000000;stroke-width:0.25;stroke-miterlimit:10;}
</style>
<g>
	<path id="Shape_2_" class="st5" d="M7.6,41h32.8c0.4,0,0.7-0.1,1-0.4c0.3-0.3,0.4-0.6,0.4-1v-2.8c-0.2-4.6-2.7-5.4-2.8-5.4
		l-8.8-2.6V25c0.9-0.8,1.5-2,1.6-3.2h1.9c1.1,0,2-0.9,2-2v-4.1c0-0.9-0.6-1.6-1.4-1.9V9.6C34.2,4.1,29.8,0,24,0S13.7,4.1,13.7,9.6
		v4.2c-0.8,0.3-1.4,1.1-1.4,1.9v4.1c0,0.9,0.6,1.6,1.4,1.9v0.8c0,1.5,1.2,2.7,2.7,2.7h1.4v3.6l-8.8,2.6c-0.1,0-2.6,0.8-2.8,5.4v2.7
		c0,0.4,0.1,0.7,0.4,1C6.9,40.9,7.2,41,7.6,41L7.6,41z M15.1,11C16,6.8,19.7,3.9,24,4.1c4.2-0.2,8,2.7,8.9,6.9v2.7H32
		c-0.7-2.9-2-3.8-2.2-3.9C28,8.7,22,8.9,19.8,9c-0.6,0-1.3,0.3-1.7,0.7c-1,1.1-1.7,2.5-2.1,3.9h-0.9V11z M19.2,26.5
		c1.1,1.4,1.6,2.9,3.7,2.9c3.1,0,3.7,0.3,5.3-2.1c0.2-0.3,0.4-0.5,0.6-0.8v2.8c-1.1,2.9-8.5,2.9-9.6,0L19.2,26.5z M28.9,24.3
		c-2.1,1.9-2.2,3.7-3.9,3.7c-3,0-2.9,0.3-4.1-1.5c-0.3-0.4-0.6-0.8-0.9-1.3h1.5c0.2,0.4,0.7,0.7,1.2,0.7h2.7c0.8,0,1.4-0.6,1.4-1.4
		v-1.4c0-0.8-0.6-1.4-1.4-1.4h-2.7c-0.8,0-1.4,0.6-1.4,1.4v0.7h-2.6c-1.1-1.2-1.1-2.2-1-3.5c0.1-1,0-2-0.2-3
		c-0.3-1.4-0.4-2.3-0.1-3.5c0.3-1.2,0.9-2.3,1.7-3.2c0.2-0.2,0.5-0.3,0.8-0.3c2.2-0.1,7.3-0.3,9.3,0.6c0.8,0.6,1.8,2.8,1.6,4.6
		c-0.2,1.6-0.5,2.5-0.5,3.8C30.3,21.4,30.7,22.7,28.9,24.3L28.9,24.3z M22.6,24.6v-1.4h2.7v1.4H22.6z M34.2,19.8
		c0,0.4-0.3,0.7-0.7,0.7h-1.8c-0.1-2.9,0.2-2.2,0.5-4.8c0-0.2,0-0.4,0-0.6h1.4c0.4,0,0.7,0.3,0.7,0.7V19.8z M32.4,6.8
		c-1.5-2-4-4.1-8.4-4.1s-7,2-8.4,4.1C18.1-0.5,29.9-0.5,32.4,6.8z M13.7,15.7c0-0.4,0.3-0.7,0.7-0.7h1.4c0,0.9,0.1,1.8,0.3,2.6
		c0.2,0.9,0.3,1.9,0.2,2.8h-1.8c-0.4,0-0.7-0.3-0.7-0.7L13.7,15.7z M15.1,22.5v-0.7h1.2c0.1,0.7,0.3,1.4,0.7,2h-0.5
		C15.7,23.9,15.1,23.3,15.1,22.5z M9.5,32.8l8.7-2.6c0.5,1,2,2.6,5.8,2.6s5.3-1.6,5.8-2.6l8.7,2.6c0.1,0,1.7,0.6,1.9,4.1v2.7H7.6
		v-2.7C7.8,33.4,9.4,32.8,9.5,32.8L9.5,32.8z"/>
</g>
</svg>
