<?xml version="1.0" encoding="utf-8"?>
<!-- Generator: Adobe Illustrator 24.1.1, SVG Export Plug-In . SVG Version: 6.00 Build 0)  -->
<svg version="1.1" id="Layer_1" xmlns="http://www.w3.org/2000/svg" xmlns:xlink="http://www.w3.org/1999/xlink" x="0px" y="0px"
	 viewBox="0 0 38 31" style="enable-background:new 0 0 38 31;" xml:space="preserve">
<style type="text/css">
	.st0{fill:#FC6A55;}
	.st1{fill:#EDEDED;}
	.st2{fill:none;stroke:#FC6A55;stroke-miterlimit:10;}
	.st3{stroke:#FFFFFF;stroke-width:0.25;stroke-miterlimit:10;}
	.st4{fill:#656D7A;}
	.st5{fill:#FFFFFF;}
	.st6{filter:url(#Adobe_OpacityMaskFilter);}
	.st7{fill-rule:evenodd;clip-rule:evenodd;fill:#FFFFFF;}
	.st8{mask:url(#mask-2_8_);fill-rule:evenodd;clip-rule:evenodd;}
	.st9{filter:url(#Adobe_OpacityMaskFilter_1_);}
	.st10{mask:url(#mask-2_7_);fill-rule:evenodd;clip-rule:evenodd;}
	.st11{filter:url(#Adobe_OpacityMaskFilter_2_);}
	.st12{mask:url(#mask-2_6_);fill-rule:evenodd;clip-rule:evenodd;}
	.st13{filter:url(#Adobe_OpacityMaskFilter_3_);}
	.st14{mask:url(#mask-2_5_);fill-rule:evenodd;clip-rule:evenodd;}
	.st15{filter:url(#Adobe_OpacityMaskFilter_4_);}
	.st16{mask:url(#mask-2_2_);fill:none;stroke:#000000;stroke-width:2;}
	.st17{fill:#222121;}
	.st18{fill:#434343;}
	.st19{fill:#434343;stroke:#F9F9F9;stroke-width:0.25;stroke-miterlimit:10;}
	.st20{fill:none;stroke:#FC6A55;stroke-width:0.5;stroke-miterlimit:10;}
	.st21{fill:none;stroke:#FC6A55;stroke-width:0.75;stroke-miterlimit:10;}
	.st22{fill:#FC6A55;stroke:#FC6A55;stroke-width:0.5;stroke-miterlimit:10;}
	.st23{opacity:0.153;fill:url(#Path_36_);enable-background:new    ;}
	.st24{opacity:0.1;fill:#590BB2;enable-background:new    ;}
	.st25{fill:#8E8CA8;}
	.st26{fill:#F5F4F9;}
	.st27{fill:#FFD5B8;}
	.st28{fill:#FC8473;}
	.st29{fill:#1C3475;}
	.st30{fill:#DDD9E4;}
	.st31{fill:#828FB3;}
	.st32{opacity:7.584635e-02;fill:url(#Path_37_);enable-background:new    ;}
	.st33{fill:#FFBE92;}
	.st34{fill:#FB8E7F;}
	.st35{fill:#FDB1A6;}
	.st36{fill:#FC806F;}
	.st37{fill:#FFE783;}
	.st38{fill:#104478;}
	.st39{fill:none;stroke:#FFFFFF;stroke-miterlimit:10;}
	.st40{fill:none;stroke:#000000;stroke-width:0.15;stroke-miterlimit:10;}
	.st41{opacity:0.1;fill:url(#Path_38_);enable-background:new    ;}
	.st42{opacity:0.1;fill:url(#Path_39_);enable-background:new    ;}
	.st43{fill-rule:evenodd;clip-rule:evenodd;fill:#FC6A55;}
	.st44{fill-rule:evenodd;clip-rule:evenodd;}
	.st45{fill:#FF6757;}
	.st46{fill:#666666;}
	.st47{fill:none;stroke:#FFFFFF;stroke-width:0.5;stroke-miterlimit:10;}
	.st48{fill:#F16A56;}
	.st49{fill:#515252;}
	.st50{fill:#F26A56;}
	.st51{fill:none;stroke:#F16A56;stroke-miterlimit:10;}
	.st52{fill:none;stroke:#929292;stroke-miterlimit:10;}
	.st53{fill:#929292;}
	.st54{fill:none;stroke:#000000;stroke-width:0.5;stroke-miterlimit:10;}
	.st55{fill:#A8A7A7;}
	.st56{fill:#F79F91;}
	.st57{fill:#B4A3EE;}
	.st58{fill:#9BDBD5;}
</style>
<g>
	<g>
		<path class="st17" d="M31.3,4.7h-0.9v-2c0-1.1-0.8-2-1.9-2h-19c-1,0-1.9,0.9-1.9,2v2H6.7c-1,0-1.9,0.9-1.9,2v16.7
			c0,1.1,0.8,2,1.9,2H16l-1.1,3.9h-1.1v1h10.4v-1h-1.1L22,25.3h9.3c1,0,1.9-0.9,1.9-2V6.6C33.2,5.6,32.4,4.7,31.3,4.7z M5.7,6.6
			c0-0.5,0.4-1,0.9-1h0.9v14.8h0.9V2.7c0-0.5,0.4-1,0.9-1h19c0.5,0,0.9,0.4,0.9,1v17.7h0.9V5.7h0.9c0.5,0,0.9,0.4,0.9,1v14.8H5.7
			V6.6z M22.2,29.3h-6.3l1.1-3.9h4L22.2,29.3z M32.3,23.4c0,0.5-0.4,1-0.9,1H6.7c-0.5,0-0.9-0.4-0.9-1v-1h26.5V23.4z"/>
		<path class="st17" d="M9.5,2.7h0.9v1H9.5V2.7z"/>
		<path class="st17" d="M11.4,2.7h0.9v1h-0.9V2.7z"/>
		<path class="st17" d="M13.3,2.7h0.9v1h-0.9V2.7z"/>
		<path class="st17" d="M25.2,9.3l2.4-0.6l0.2,1l-2.4,0.6L25.2,9.3z"/>
		<path class="st17" d="M23.9,4.8l1.4-1.5L26,4l-1.4,1.5L23.9,4.8z"/>
		<path class="st17" d="M25.9,14.5l0.4-0.9l1.9,1l-0.4,0.9L25.9,14.5z"/>
		<path class="st17" d="M22.9,3.9c-0.2-0.8-1-1.3-1.8-1.2s-1.3,1-1.1,1.8l0.1,0.7l-6,3.9l-2.4,0.5c-1.4,0.3-2.4,1.7-2.3,3.2
			c0.1,1.5,1.2,2.7,2.7,2.9l0.8,3.8c0.1,0.3,0.3,0.4,0.6,0.4l2-0.5c0.3-0.1,0.4-0.3,0.4-0.6l-0.8-3.6l0.4-0.1l7,0.9l0.1,0.7
			c0.2,0.7,0.7,1.2,1.4,1.2c0.4,0,0.9-0.2,1.2-0.6c0.3-0.4,0.4-0.8,0.3-1.3L22.9,3.9z M10.5,13.2c-0.2-1.1,0.4-2.3,1.5-2.5l2-0.5
			l0.4,2.1l0.4,2.1l-0.5,0.1L13,14.8C11.9,15,10.8,14.3,10.5,13.2L10.5,13.2z M14.9,18.6l-1,0.2l-0.7-3.1l0,0l1-0.2L14.9,18.6z
			 M15.9,14.3L15,9.8l5.5-3.6l1.9,8.8L15.9,14.3z M24.2,17c-0.1,0-0.3,0-0.4-0.1c-0.1-0.1-0.2-0.2-0.2-0.3L21,4.4
			c0-0.1,0-0.3,0.1-0.4c0.1-0.1,0.2-0.2,0.3-0.2C21.7,3.6,22,3.8,22,4.1l2.6,12.2C24.7,16.6,24.5,16.9,24.2,17L24.2,17z"/>
	</g>
</g>
</svg>
