<?xml version="1.0" encoding="utf-8"?>
<!-- Generator: Adobe Illustrator 24.1.1, SVG Export Plug-In . SVG Version: 6.00 Build 0)  -->
<svg version="1.1" id="Layer_1" xmlns="http://www.w3.org/2000/svg" xmlns:xlink="http://www.w3.org/1999/xlink" x="0px" y="0px"
	 viewBox="0 0 31 31" style="enable-background:new 0 0 31 31;" xml:space="preserve">
<style type="text/css">
	.st0{fill:#FC6A55;}
	.st1{fill:#EDEDED;}
	.st2{fill:none;stroke:#FC6A55;stroke-miterlimit:10;}
	.st3{fill:#222F3F;}
	.st4{fill:#383838;}
	.st5{fill:#FFFFFF;}
	.st6{fill:#656D7A;}
	.st7{fill:#C4C4C4;}
	.st8{filter:url(#Adobe_OpacityMaskFilter);}
	.st9{fill-rule:evenodd;clip-rule:evenodd;fill:#FFFFFF;}
	.st10{mask:url(#mask-2_8_);fill-rule:evenodd;clip-rule:evenodd;fill:#FFFFFF;}
	.st11{filter:url(#Adobe_OpacityMaskFilter_1_);}
	.st12{mask:url(#mask-2_7_);fill-rule:evenodd;clip-rule:evenodd;fill:#FFFFFF;}
	.st13{filter:url(#Adobe_OpacityMaskFilter_2_);}
	.st14{mask:url(#mask-2_6_);fill-rule:evenodd;clip-rule:evenodd;fill:#FFFFFF;}
	.st15{filter:url(#Adobe_OpacityMaskFilter_3_);}
	.st16{mask:url(#mask-2_5_);fill-rule:evenodd;clip-rule:evenodd;fill:#FFFFFF;}
	.st17{filter:url(#Adobe_OpacityMaskFilter_4_);}
	.st18{mask:url(#mask-2_2_);fill:none;stroke:#FFFFFF;stroke-width:1.5;stroke-miterlimit:10;}
	.st19{fill:#B4A3EE;}
	.st20{fill:#434343;}
	.st21{fill:#434343;stroke:#F9F9F9;stroke-width:0.25;stroke-miterlimit:10;}
	.st22{fill:none;stroke:#FC6A55;stroke-width:0.75;stroke-miterlimit:10;}
	.st23{fill:#FC6A55;stroke:#FC6A55;stroke-width:0.25;stroke-miterlimit:10;}
	.st24{fill:#FC6A55;stroke:#FC6A55;stroke-width:0.5;stroke-miterlimit:10;}
	.st25{opacity:0.153;fill:url(#Path_44_);enable-background:new    ;}
	.st26{opacity:0.1;fill:#590BB2;enable-background:new    ;}
	.st27{fill:#8E8CA8;}
	.st28{fill:#F5F4F9;}
	.st29{fill:#FFD5B8;}
	.st30{fill:#FC8473;}
	.st31{fill:#1C3475;}
	.st32{fill:#DDD9E4;}
	.st33{fill:#828FB3;}
	.st34{opacity:7.584635e-02;fill:url(#Path_45_);enable-background:new    ;}
	.st35{fill:#FFBE92;}
	.st36{fill:#FB8E7F;}
	.st37{fill:#FDB1A6;}
	.st38{fill:#FC806F;}
	.st39{fill:#FFE783;}
	.st40{fill:#104478;}
	.st41{fill:none;stroke:#FFFFFF;stroke-miterlimit:10;}
	.st42{fill:none;stroke:#000000;stroke-width:0.15;stroke-miterlimit:10;}
	.st43{opacity:0.1;fill:url(#Path_46_);enable-background:new    ;}
	.st44{opacity:0.1;fill:url(#Path_47_);enable-background:new    ;}
	.st45{fill-rule:evenodd;clip-rule:evenodd;fill:#FC6A55;}
	.st46{fill-rule:evenodd;clip-rule:evenodd;}
	.st47{fill:#FF6757;}
	.st48{fill:#666666;}
	.st49{fill:none;stroke:#FFFFFF;stroke-width:0.5;stroke-miterlimit:10;}
	.st50{fill:#606060;}
	.st51{fill:#F16A56;}
	.st52{fill:#515252;}
	.st53{fill:#F26A56;}
	.st54{fill:none;stroke:#F16A56;stroke-miterlimit:10;}
	.st55{fill:none;stroke:#929292;stroke-miterlimit:10;}
	.st56{fill:#929292;}
	.st57{fill:none;stroke:#000000;stroke-width:0.5;stroke-miterlimit:10;}
	.st58{fill:#A8A7A7;}
	.st59{fill:#F79F91;}
	.st60{fill:#9BDBD5;}
	.st61{fill:#222121;}
	.st62{stroke:#000000;stroke-width:0.25;stroke-miterlimit:10;}
</style>
<g>
	<g>
		<g>
			<path class="st0" d="M28.8,14L28,10.8c0.2,0,0.4-0.2,0.4-0.5V9.8c0-1.1-0.9-2-2-2h-3.7V6.7c0-0.6-0.4-1-1-1H3.1c-0.6,0-1,0.4-1,1
				v10.7c0,0.3,0.2,0.5,0.5,0.5c0.3,0,0.5-0.2,0.5-0.5V6.7c0,0,0,0,0,0h18.6c0,0,0,0,0,0v8.8c0,0.3,0.2,0.5,0.5,0.5
				c0.3,0,0.5-0.2,0.5-0.5V15h5.7c0,0,0,0,0,0c0,0,0,0,0,0c0.7,0,1.3,0.5,1.5,1.1h-1.5c-0.3,0-0.5,0.2-0.5,0.5v1
				c0,0.8,0.7,1.5,1.5,1.5H30v2.1h-1.3c-0.4-1.2-1.6-2.1-2.9-2.1s-2.5,0.9-2.9,2.1h-0.2V8.2c0-0.3-0.2-0.5-0.5-0.5
				c-0.3,0-0.5,0.2-0.5,0.5v13.1H11.7c-0.4-1.2-1.6-2.1-2.9-2.1S6.3,20,5.9,21.2H3.1c0,0,0,0,0,0v-1.1h2.1c0.3,0,0.5-0.2,0.5-0.5
				s-0.2-0.5-0.5-0.5H2.6c0,0,0,0,0,0c0,0,0,0,0,0H0.5c-0.3,0-0.5,0.2-0.5,0.5s0.2,0.5,0.5,0.5h1.6v1.1c0,0.6,0.4,1,1,1h2.6
				c0,0,0,0,0,0c0,1.7,1.4,3.1,3.1,3.1s3.1-1.4,3.1-3.1c0,0,0,0,0,0h10.9c0,0,0,0,0,0c0,1.7,1.4,3.1,3.1,3.1s3.1-1.4,3.1-3.1
				c0,0,0,0,0,0h1.6c0.3,0,0.5-0.2,0.5-0.5v-5.2C31,15.3,30.1,14.2,28.8,14z M22.7,8.7h3.7c0.6,0,1.1,0.5,1.1,1.1v0h-4.7V8.7z
				 M22.7,14v-3.2H27l0.8,3.2L22.7,14L22.7,14z M8.8,24.3c-1.2,0-2.1-0.9-2.1-2.1s0.9-2.1,2.1-2.1s2.1,0.9,2.1,2.1
				S9.9,24.3,8.8,24.3z M25.9,24.3c-1.2,0-2.1-0.9-2.1-2.1s0.9-2.1,2.1-2.1s2.1,0.9,2.1,2.1S27,24.3,25.9,24.3z M30,18.1h-0.6
				c-0.3,0-0.6-0.2-0.6-0.6V17H30L30,18.1L30,18.1z"/>
		</g>
	</g>
	<g>
		<g>
			<path class="st0" d="M8.8,21.2c-0.6,0-1,0.4-1,1s0.4,1,1,1c0.6,0,1-0.4,1-1C9.8,21.7,9.3,21.2,8.8,21.2z"/>
		</g>
	</g>
	<g>
		<g>
			<path class="st0" d="M25.9,21.2c-0.6,0-1,0.4-1,1s0.4,1,1,1s1-0.4,1-1S26.4,21.2,25.9,21.2z"/>
		</g>
	</g>
	<g>
		<g>
			<path class="st0" d="M20.2,19.2h-7.2c-0.3,0-0.5,0.2-0.5,0.5s0.2,0.5,0.5,0.5h7.2c0.3,0,0.5-0.2,0.5-0.5S20.4,19.2,20.2,19.2z"/>
		</g>
	</g>
	<g>
		<g>
			<path class="st0" d="M7.7,17.1H1.5c-0.3,0-0.5,0.2-0.5,0.5s0.2,0.5,0.5,0.5h6.2c0.3,0,0.5-0.2,0.5-0.5S8,17.1,7.7,17.1z"/>
		</g>
	</g>
	<g>
		<g>
			<path class="st0" d="M12.4,8.3c-2.6,0-4.6,2.1-4.6,4.6s2.1,4.6,4.6,4.6s4.6-2.1,4.6-4.6S14.9,8.3,12.4,8.3z M12.4,16.6
				c-2,0-3.7-1.6-3.7-3.7s1.6-3.7,3.7-3.7s3.7,1.6,3.7,3.7S14.4,16.6,12.4,16.6z"/>
		</g>
	</g>
	<g>
		<g>
			<path class="st0" d="M14.3,14.1l-1.4-1.4v-1.9c0-0.3-0.2-0.5-0.5-0.5s-0.5,0.2-0.5,0.5v2.1c0,0.1,0.1,0.3,0.1,0.3l1.6,1.6
				c0.1,0.1,0.2,0.1,0.3,0.1s0.2,0,0.3-0.1C14.5,14.6,14.5,14.3,14.3,14.1z"/>
		</g>
	</g>
</g>
</svg>
