<?xml version="1.0" encoding="utf-8"?>
<!-- Generator: Adobe Illustrator 24.1.1, SVG Export Plug-In . SVG Version: 6.00 Build 0)  -->
<svg version="1.1" id="Layer_1" xmlns="http://www.w3.org/2000/svg" xmlns:xlink="http://www.w3.org/1999/xlink" x="0px" y="0px"
	 viewBox="0 0 82 59" style="enable-background:new 0 0 82 59;" xml:space="preserve">
<style type="text/css">
	.st0{fill:#FC6A55;}
	.st1{fill:#EDEDED;}
	.st2{fill:none;stroke:#FC6A55;stroke-miterlimit:10;}
	.st3{fill:#222F3F;}
	.st4{fill:#383838;}
	.st5{fill:#FFFFFF;}
	.st6{fill:#656D7A;}
	.st7{fill:#C4C4C4;}
	.st8{filter:url(#Adobe_OpacityMaskFilter);}
	.st9{fill-rule:evenodd;clip-rule:evenodd;fill:#FFFFFF;}
	.st10{mask:url(#mask-2_8_);fill-rule:evenodd;clip-rule:evenodd;}
	.st11{filter:url(#Adobe_OpacityMaskFilter_1_);}
	.st12{mask:url(#mask-2_7_);fill-rule:evenodd;clip-rule:evenodd;}
	.st13{filter:url(#Adobe_OpacityMaskFilter_2_);}
	.st14{mask:url(#mask-2_6_);fill-rule:evenodd;clip-rule:evenodd;}
	.st15{filter:url(#Adobe_OpacityMaskFilter_3_);}
	.st16{mask:url(#mask-2_5_);fill-rule:evenodd;clip-rule:evenodd;}
	.st17{filter:url(#Adobe_OpacityMaskFilter_4_);}
	.st18{mask:url(#mask-2_2_);fill:none;stroke:#000000;stroke-width:1.5;stroke-miterlimit:10;}
	.st19{fill:#B4A3EE;}
	.st20{fill:#434343;}
	.st21{fill:#434343;stroke:#F9F9F9;stroke-width:0.25;stroke-miterlimit:10;}
	.st22{fill:none;stroke:#FC6A55;stroke-width:0.5;stroke-miterlimit:10;}
	.st23{fill:none;stroke:#FC6A55;stroke-width:0.75;stroke-miterlimit:10;}
	.st24{fill:#FC6A55;stroke:#FC6A55;stroke-width:0.5;stroke-miterlimit:10;}
	.st25{opacity:0.153;fill:url(#Path_36_);enable-background:new    ;}
	.st26{opacity:0.1;fill:#590BB2;enable-background:new    ;}
	.st27{fill:#8E8CA8;}
	.st28{fill:#F5F4F9;}
	.st29{fill:#FFD5B8;}
	.st30{fill:#FC8473;}
	.st31{fill:#1C3475;}
	.st32{fill:#DDD9E4;}
	.st33{fill:#828FB3;}
	.st34{opacity:7.584635e-02;fill:url(#Path_37_);enable-background:new    ;}
	.st35{fill:#FFBE92;}
	.st36{fill:#FB8E7F;}
	.st37{fill:#FDB1A6;}
	.st38{fill:#FC806F;}
	.st39{fill:#FFE783;}
	.st40{fill:#104478;}
	.st41{fill:none;stroke:#FFFFFF;stroke-miterlimit:10;}
	.st42{fill:none;stroke:#000000;stroke-width:0.15;stroke-miterlimit:10;}
	.st43{opacity:0.1;fill:url(#Path_38_);enable-background:new    ;}
	.st44{opacity:0.1;fill:url(#Path_39_);enable-background:new    ;}
	.st45{fill-rule:evenodd;clip-rule:evenodd;fill:#FC6A55;}
	.st46{fill-rule:evenodd;clip-rule:evenodd;}
	.st47{fill:#FF6757;}
	.st48{fill:#666666;}
	.st49{fill:none;stroke:#FFFFFF;stroke-width:0.5;stroke-miterlimit:10;}
	.st50{fill:#F16A56;}
	.st51{fill:#515252;}
	.st52{fill:#F26A56;}
	.st53{fill:none;stroke:#F16A56;stroke-miterlimit:10;}
	.st54{fill:none;stroke:#929292;stroke-miterlimit:10;}
	.st55{fill:#929292;}
	.st56{fill:none;stroke:#000000;stroke-width:0.5;stroke-miterlimit:10;}
	.st57{fill:#A8A7A7;}
	.st58{fill:#F79F91;}
	.st59{fill:#9BDBD5;}
	.st60{fill:#222121;}
</style>
<g>
	<path class="st7" d="M68.4,13.1L65,8.5L70.3,0h-3.6c-1.3,0-1.9,0.8-2.4,1.3c-0.4,0.5-0.6,0.6-1,0.6c-0.4,0-0.5-0.2-1-0.6
		C62,0.8,61.3,0,60,0s-1.9,0.8-2.4,1.3c-0.4,0.5-0.6,0.6-0.9,0.6s-0.5-0.2-0.9-0.6C55.3,0.8,54.6,0,53.4,0h-3.6l5.3,8.5l-3.4,4.6
		c-1.3,1.8-2.1,4-2.1,6.3V20c0,5.8,4.7,10.5,10.5,10.5S70.5,25.8,70.5,20v-0.6C70.5,17.1,69.8,14.9,68.4,13.1L68.4,13.1z M53.4,1.9
		c0.4,0,0.5,0.2,0.9,0.6c0.4,0.5,1.1,1.3,2.4,1.3c1.3,0,1.9-0.8,2.4-1.3c0.4-0.5,0.6-0.6,0.9-0.6c0.4,0,0.5,0.2,1,0.6
		c0.4,0.5,1.1,1.3,2.4,1.3c1.3,0,1.9-0.8,2.4-1.3c0.4-0.5,0.6-0.6,1-0.6h0.2l-3.6,5.7h-6.6l-3.6-5.7H53.4z M68.6,20
		c0,4.7-3.8,8.6-8.6,8.6s-8.6-3.8-8.6-8.6v-0.6c0-1.8,0.6-3.7,1.7-5.1l3.5-4.7h6.7l3.5,4.7c1.1,1.5,1.7,3.3,1.7,5.1V20z"/>
	<path class="st7" d="M61,15.2c0.5,0,1,0.4,1,1h1.9c0-1.6-1.3-2.9-2.9-2.9v-1.9h-1.9v1.9h-2.9v2.9c0,1.6,1.3,2.9,2.9,2.9H61
		c0.5,0,1,0.4,1,1v1h-2.9c-0.5,0-1-0.4-1-1h-1.9c0,1.6,1.3,2.9,2.9,2.9v1.9H61v-1.9h2.9V20c0-1.6-1.3-2.9-2.9-2.9h-1.9
		c-0.5,0-1-0.4-1-1v-1H61z"/>
	<path class="st7" d="M25.8,22.8c4.7,0,8.6-3.8,8.6-8.6s-3.8-8.6-8.6-8.6s-8.6,3.8-8.6,8.6S21.1,22.8,25.8,22.8z M25.8,7.6
		c3.7,0,6.7,3,6.7,6.7s-3,6.7-6.7,6.7s-6.7-3-6.7-6.7S22.1,7.6,25.8,7.6z"/>
	<path class="st7" d="M25.8,19c2.6,0,4.8-2.1,4.8-4.8s-2.1-4.8-4.8-4.8S21,11.7,21,14.3S23.2,19,25.8,19z M25.8,11.4
		c1.6,0,2.9,1.3,2.9,2.9s-1.3,2.9-2.9,2.9s-2.9-1.3-2.9-2.9S24.2,11.4,25.8,11.4z"/>
	<path class="st7" d="M64.8,36.2h-5.2l-2.5,2.5v12.8h-1.9V40h-5.2l-2.5,2.5v9h-1.9v-9.5h-5.2l-2.5,2.5v7.1h-1.9v-7.6h-5.2l-2.5,2.5
		v5.2h-9.5v-0.3L30.2,40h11.4l4.2-4.2l3.5,3.5l1.2-13.6L37,26.8l3.5,3.5l-2,2H27.1l-7.9,7.9V26.4l1.5-0.9c0.3,0.1,0.6,0.3,0.9,0.4
		l0.7,2.7h7.2l0.7-2.7c0.3-0.1,0.6-0.2,0.9-0.4l2.3,1.4l5.1-5.1L37,19.5c0.1-0.3,0.3-0.6,0.4-0.9l2.7-0.7v-7.2L37.4,10
		c-0.1-0.3-0.2-0.6-0.4-0.9l1.4-2.3l-5.1-5.1L31,3.1c-0.3-0.1-0.6-0.3-0.9-0.4L29.4,0h-7.2l-0.7,2.7c-0.3,0.1-0.6,0.2-0.9,0.4
		l-2.3-1.4l-5.1,5.1l1.4,2.3c-0.1,0.3-0.3,0.6-0.4,0.9l-2.7,0.7v5.5v1.7V59h59v-7.6h-5.7L64.8,36.2z M59.1,39.4l1.3-1.3h2.5v13.3
		h-3.8V39.4z M49.6,43.2l1.3-1.3h2.5v9.5h-3.8V43.2z M40,45.1l1.3-1.3h2.5v7.6H40V45.1z M30.5,47l1.3-1.3h2.5v5.7h-3.8V47z
		 M27.8,34.3h11.4l3.9-3.9l-2-2l7.3-0.7L47.8,35l-2-2l-5,5H29.4L19.1,48.4V43L27.8,34.3z M13.4,12.2l2.2-0.5l0.2-0.5
		c0.2-0.5,0.4-1.1,0.7-1.6L16.7,9l-1.2-2l3-3l2,1.2L21,5c0.5-0.3,1.1-0.5,1.6-0.7l0.5-0.2l0.5-2.2h4.2l0.5,2.2l0.5,0.2
		C29.5,4.5,30,4.7,30.6,5l0.5,0.2L33,4l3,3l-1.2,2l0.2,0.5c0.3,0.5,0.5,1.1,0.7,1.6l0.2,0.5l2.2,0.5v4.2l-2.2,0.5l-0.2,0.5
		c-0.2,0.5-0.4,1.1-0.7,1.6l-0.2,0.5l1.2,2l-3,3l-2-1.2l-0.5,0.2c-0.5,0.3-1.1,0.5-1.6,0.7l-0.5,0.2l-0.5,2.2h-4.2l-0.5-2.2
		l-0.5-0.2c-0.5-0.2-1.1-0.4-1.6-0.7l-0.5-0.2l-2,1.2l-3-3l1.2-2l-0.2-0.5c-0.3-0.5-0.5-1.1-0.7-1.6l-0.2-0.5l-2.2-0.5v-0.2V12.2z
		 M14.2,18.5c0.1,0.3,0.2,0.6,0.4,0.9l-1.2,1.9v-3L14.2,18.5z M68.6,53.3v3.8H13.4v-35l3.8,3.8v27.4h11.4h7.6h1.9h7.6h1.9h7.6h1.9
		h7.6H68.6z"/>
</g>
</svg>
