<?xml version="1.0" encoding="utf-8"?>
<!-- Generator: Adobe Illustrator 24.1.1, SVG Export Plug-In . SVG Version: 6.00 Build 0)  -->
<svg version="1.1" id="Layer_1" xmlns="http://www.w3.org/2000/svg" xmlns:xlink="http://www.w3.org/1999/xlink" x="0px" y="0px"
	 viewBox="0 0 82 59" style="enable-background:new 0 0 82 59;" xml:space="preserve">
<style type="text/css">
	.st0{fill:#FC6A55;}
	.st1{fill:#EDEDED;}
	.st2{fill:none;stroke:#FC6A55;stroke-miterlimit:10;}
	.st3{fill:#222F3F;}
	.st4{fill:#383838;}
	.st5{fill:#FFFFFF;}
	.st6{fill:#656D7A;}
	.st7{fill:#C4C4C4;}
	.st8{filter:url(#Adobe_OpacityMaskFilter);}
	.st9{fill-rule:evenodd;clip-rule:evenodd;fill:#FFFFFF;}
	.st10{mask:url(#mask-2_8_);fill-rule:evenodd;clip-rule:evenodd;}
	.st11{filter:url(#Adobe_OpacityMaskFilter_1_);}
	.st12{mask:url(#mask-2_7_);fill-rule:evenodd;clip-rule:evenodd;}
	.st13{filter:url(#Adobe_OpacityMaskFilter_2_);}
	.st14{mask:url(#mask-2_6_);fill-rule:evenodd;clip-rule:evenodd;}
	.st15{filter:url(#Adobe_OpacityMaskFilter_3_);}
	.st16{mask:url(#mask-2_5_);fill-rule:evenodd;clip-rule:evenodd;}
	.st17{filter:url(#Adobe_OpacityMaskFilter_4_);}
	.st18{mask:url(#mask-2_2_);fill:none;stroke:#000000;stroke-width:1.5;stroke-miterlimit:10;}
	.st19{fill:#B4A3EE;}
	.st20{fill:#434343;}
	.st21{fill:#434343;stroke:#F9F9F9;stroke-width:0.25;stroke-miterlimit:10;}
	.st22{fill:none;stroke:#FC6A55;stroke-width:0.5;stroke-miterlimit:10;}
	.st23{fill:none;stroke:#FC6A55;stroke-width:0.75;stroke-miterlimit:10;}
	.st24{fill:#FC6A55;stroke:#FC6A55;stroke-width:0.5;stroke-miterlimit:10;}
	.st25{opacity:0.153;fill:url(#Path_36_);enable-background:new    ;}
	.st26{opacity:0.1;fill:#590BB2;enable-background:new    ;}
	.st27{fill:#8E8CA8;}
	.st28{fill:#F5F4F9;}
	.st29{fill:#FFD5B8;}
	.st30{fill:#FC8473;}
	.st31{fill:#1C3475;}
	.st32{fill:#DDD9E4;}
	.st33{fill:#828FB3;}
	.st34{opacity:7.584635e-02;fill:url(#Path_37_);enable-background:new    ;}
	.st35{fill:#FFBE92;}
	.st36{fill:#FB8E7F;}
	.st37{fill:#FDB1A6;}
	.st38{fill:#FC806F;}
	.st39{fill:#FFE783;}
	.st40{fill:#104478;}
	.st41{fill:none;stroke:#FFFFFF;stroke-miterlimit:10;}
	.st42{fill:none;stroke:#000000;stroke-width:0.15;stroke-miterlimit:10;}
	.st43{opacity:0.1;fill:url(#Path_38_);enable-background:new    ;}
	.st44{opacity:0.1;fill:url(#Path_39_);enable-background:new    ;}
	.st45{fill-rule:evenodd;clip-rule:evenodd;fill:#FC6A55;}
	.st46{fill-rule:evenodd;clip-rule:evenodd;}
	.st47{fill:#FF6757;}
	.st48{fill:#666666;}
	.st49{fill:none;stroke:#FFFFFF;stroke-width:0.5;stroke-miterlimit:10;}
	.st50{fill:#F16A56;}
	.st51{fill:#515252;}
	.st52{fill:#F26A56;}
	.st53{fill:none;stroke:#F16A56;stroke-miterlimit:10;}
	.st54{fill:none;stroke:#929292;stroke-miterlimit:10;}
	.st55{fill:#929292;}
	.st56{fill:none;stroke:#000000;stroke-width:0.5;stroke-miterlimit:10;}
	.st57{fill:#A8A7A7;}
	.st58{fill:#F79F91;}
	.st59{fill:#9BDBD5;}
	.st60{fill:#222121;}
</style>
<g>
	<path class="st7" d="M66,6h-5v2h5c1.7,0,3,1.3,3,3v28h-9V8.6L51.4,0H22v39h-9V10c0-0.5,0-2,3-2h4V6h-4c-3.1,0-5,1.5-5,4v34
		c0,2.8,2.2,5,5,5h17v4h-5c-1.7,0-3,1.3-3,3v1h-2v2h36v-2h-2v-1c0-1.7-1.3-3-3-3h-5v-4h17c2.8,0,5-2.2,5-5V11C71,8.2,68.8,6,66,6z
		 M52,3.4L56.6,8H52V3.4z M24,2h26v8h8v29H24V2z M54,55c0.6,0,1,0.4,1,1v1H27v-1c0-0.6,0.4-1,1-1H54z M35,53v-4h12v4H35z M69,44
		c0,1.7-1.3,3-3,3H16c-1.7,0-3-1.3-3-3v-3h56V44z"/>
	<path class="st7" d="M31,27c0.6,0,1,0.4,1,1h2c0-1.3-0.8-2.4-2-2.8V24h-2v1.2c-1.6,0.5-2.4,2.3-1.8,3.8c0.4,1.2,1.6,2,2.8,2
		c0.6,0,1,0.4,1,1s-0.4,1-1,1s-1-0.4-1-1h-2c0,1.3,0.8,2.4,2,2.8V36h2v-1.2c1.6-0.5,2.4-2.3,1.8-3.8c-0.4-1.2-1.6-2-2.8-2
		c-0.6,0-1-0.4-1-1S30.4,27,31,27z"/>
	<path class="st7" d="M44,44c0-1.7-1.3-3-3-3c-1.7,0-3,1.3-3,3s1.3,3,3,3C42.7,47,44,45.7,44,44z M41,45c-0.6,0-1-0.4-1-1s0.4-1,1-1
		s1,0.4,1,1S41.6,45,41,45z"/>
	<path class="st7" d="M38,18h6v-4h4V8h-4V4h-6v4h-4v6h4V18z M36,12v-2h4V6h2v4h4v2h-4v4h-2v-4H36z"/>
	<path class="st7" d="M38,25h16v2H38V25z"/>
	<path class="st7" d="M38,29h16v2H38V29z"/>
	<path class="st7" d="M38,33h16v2H38V33z"/>
</g>
</svg>
