<?xml version="1.0" encoding="utf-8"?>
<!-- Generator: Adobe Illustrator 24.1.1, SVG Export Plug-In . SVG Version: 6.00 Build 0)  -->
<svg version="1.1" id="Layer_1" xmlns="http://www.w3.org/2000/svg" xmlns:xlink="http://www.w3.org/1999/xlink" x="0px" y="0px"
	 viewBox="0 0 82 59" style="enable-background:new 0 0 82 59;" xml:space="preserve">
<style type="text/css">
	.st0{fill:#FC6A55;}
	.st1{fill:#EDEDED;}
	.st2{fill:none;stroke:#FC6A55;stroke-miterlimit:10;}
	.st3{fill:#222F3F;}
	.st4{fill:#383838;}
	.st5{fill:#FFFFFF;}
	.st6{fill:#656D7A;}
	.st7{fill:#C4C4C4;}
	.st8{filter:url(#Adobe_OpacityMaskFilter);}
	.st9{fill-rule:evenodd;clip-rule:evenodd;fill:#FFFFFF;}
	.st10{mask:url(#mask-2_8_);fill-rule:evenodd;clip-rule:evenodd;}
	.st11{filter:url(#Adobe_OpacityMaskFilter_1_);}
	.st12{mask:url(#mask-2_7_);fill-rule:evenodd;clip-rule:evenodd;}
	.st13{filter:url(#Adobe_OpacityMaskFilter_2_);}
	.st14{mask:url(#mask-2_6_);fill-rule:evenodd;clip-rule:evenodd;}
	.st15{filter:url(#Adobe_OpacityMaskFilter_3_);}
	.st16{mask:url(#mask-2_5_);fill-rule:evenodd;clip-rule:evenodd;}
	.st17{filter:url(#Adobe_OpacityMaskFilter_4_);}
	.st18{mask:url(#mask-2_2_);fill:none;stroke:#000000;stroke-width:1.5;stroke-miterlimit:10;}
	.st19{fill:#B4A3EE;}
	.st20{fill:#434343;}
	.st21{fill:#434343;stroke:#F9F9F9;stroke-width:0.25;stroke-miterlimit:10;}
	.st22{fill:none;stroke:#FC6A55;stroke-width:0.5;stroke-miterlimit:10;}
	.st23{fill:none;stroke:#FC6A55;stroke-width:0.75;stroke-miterlimit:10;}
	.st24{fill:#FC6A55;stroke:#FC6A55;stroke-width:0.5;stroke-miterlimit:10;}
	.st25{opacity:0.153;fill:url(#Path_36_);enable-background:new    ;}
	.st26{opacity:0.1;fill:#590BB2;enable-background:new    ;}
	.st27{fill:#8E8CA8;}
	.st28{fill:#F5F4F9;}
	.st29{fill:#FFD5B8;}
	.st30{fill:#FC8473;}
	.st31{fill:#1C3475;}
	.st32{fill:#DDD9E4;}
	.st33{fill:#828FB3;}
	.st34{opacity:7.584635e-02;fill:url(#Path_37_);enable-background:new    ;}
	.st35{fill:#FFBE92;}
	.st36{fill:#FB8E7F;}
	.st37{fill:#FDB1A6;}
	.st38{fill:#FC806F;}
	.st39{fill:#FFE783;}
	.st40{fill:#104478;}
	.st41{fill:none;stroke:#FFFFFF;stroke-miterlimit:10;}
	.st42{fill:none;stroke:#000000;stroke-width:0.15;stroke-miterlimit:10;}
	.st43{opacity:0.1;fill:url(#Path_38_);enable-background:new    ;}
	.st44{opacity:0.1;fill:url(#Path_39_);enable-background:new    ;}
	.st45{fill-rule:evenodd;clip-rule:evenodd;fill:#FC6A55;}
	.st46{fill-rule:evenodd;clip-rule:evenodd;}
	.st47{fill:#FF6757;}
	.st48{fill:#666666;}
	.st49{fill:none;stroke:#FFFFFF;stroke-width:0.5;stroke-miterlimit:10;}
	.st50{fill:#F16A56;}
	.st51{fill:#515252;}
	.st52{fill:#F26A56;}
	.st53{fill:none;stroke:#F16A56;stroke-miterlimit:10;}
	.st54{fill:none;stroke:#929292;stroke-miterlimit:10;}
	.st55{fill:#929292;}
	.st56{fill:none;stroke:#000000;stroke-width:0.5;stroke-miterlimit:10;}
	.st57{fill:#A8A7A7;}
	.st58{fill:#F79F91;}
	.st59{fill:#9BDBD5;}
	.st60{fill:#222121;}
</style>
<g>
	<g>
		<g>
			<path class="st7" d="M70.3,37.8c-0.2-0.3-0.5-0.4-0.8-0.4h-8.8V8.8c0-0.5-0.4-1-1-1h-2.9V4.9c0-0.5-0.4-1-1-1H32.2
				c0-2.2-1.8-3.9-3.9-3.9s-3.9,1.8-3.9,3.9h-2.9c-0.5,0-1,0.4-1,1v32.4h-7.9c-0.5,0-1,0.4-1,1c0,0.2,0,0.3,0.1,0.5l10.8,19.7
				c0.2,0.3,0.5,0.5,0.9,0.5h39.3c0.4,0,0.8-0.3,0.9-0.7h0l6.9-19.7C70.5,38.4,70.5,38,70.3,37.8z M56.7,45.2V9.8h2v39L56.7,45.2
				L56.7,45.2z M28.2,2c1.1,0,2,0.9,2,2h-3.9C26.3,2.8,27.1,2,28.2,2z M22.3,5.9h7.9v2.9c0,0.5-0.4,1-1,1c-0.5,0-1-0.4-1-1v-1h-2v1
				c0,1.6,1.3,2.9,2.9,2.9s2.9-1.3,2.9-2.9V5.9h22.6v35.8l-2.1-3.8c-0.2-0.3-0.5-0.5-0.9-0.5H22.3C22.3,37.4,22.3,5.9,22.3,5.9z
				 M23.9,57l-9.7-17.7h37.1L61,57H23.9z M62.4,55.6l-1.8-3.2V39.3h7.5L62.4,55.6z"/>
		</g>
	</g>
	<g>
		<g>
			<path class="st7" d="M60.7,3.9h-2v2h2c1.1,0,2,0.9,2,2v13.8h2V7.9C64.6,5.7,62.8,3.9,60.7,3.9z"/>
		</g>
	</g>
	<g>
		<g>
			<rect x="62.6" y="23.6" class="st7" width="2" height="2"/>
		</g>
	</g>
	<g>
		<g>
			<rect x="16.4" y="19.7" class="st7" width="2" height="13.8"/>
		</g>
	</g>
	<g>
		<g>
			<rect x="16.4" y="15.7" class="st7" width="2" height="2"/>
		</g>
	</g>
	<g>
		<g>
			<path class="st7" d="M44.9,12.8H42V9.8c0-0.5-0.4-1-1-1h-3.9c-0.5,0-1,0.4-1,1v2.9h-2.9c-0.5,0-1,0.4-1,1v3.9c0,0.5,0.4,1,1,1
				h2.9v2.9c0,0.5,0.4,1,1,1H41c0.5,0,1-0.4,1-1v-2.9h2.9c0.5,0,1-0.4,1-1v-3.9C45.9,13.2,45.5,12.8,44.9,12.8z M44,16.7H41
				c-0.5,0-1,0.4-1,1v2.9h-2v-2.9c0-0.5-0.4-1-1-1h-2.9v-2h2.9c0.5,0,1-0.4,1-1v-2.9h2v2.9c0,0.5,0.4,1,1,1H44V16.7z"/>
		</g>
	</g>
	<g>
		<g>
			<rect x="27.2" y="24.6" class="st7" width="2" height="2"/>
		</g>
	</g>
	<g>
		<g>
			<rect x="31.2" y="24.6" class="st7" width="20.6" height="2"/>
		</g>
	</g>
	<g>
		<g>
			<rect x="25.3" y="28.5" class="st7" width="26.5" height="2"/>
		</g>
	</g>
	<g>
		<g>
			<rect x="25.3" y="32.4" class="st7" width="22.6" height="2"/>
		</g>
	</g>
	<g>
		<g>
			<rect x="50.7" y="8.8" class="st7" width="2" height="2"/>
		</g>
	</g>
	<g>
		<g>
			<rect x="50.8" y="12.8" class="st7" width="2" height="2"/>
		</g>
	</g>
</g>
</svg>
