<?xml version="1.0" encoding="utf-8"?>
<!-- Generator: Adobe Illustrator 24.1.1, SVG Export Plug-In . SVG Version: 6.00 Build 0)  -->
<svg version="1.1" id="Layer_1" xmlns="http://www.w3.org/2000/svg" xmlns:xlink="http://www.w3.org/1999/xlink" x="0px" y="0px"
	 viewBox="0 0 82 59" style="enable-background:new 0 0 82 59;" xml:space="preserve">
<style type="text/css">
	.st0{fill:#FC6A55;}
	.st1{fill:#EDEDED;}
	.st2{fill:none;stroke:#FC6A55;stroke-miterlimit:10;}
	.st3{fill:#222F3F;}
	.st4{fill:#383838;}
	.st5{fill:#FFFFFF;}
	.st6{fill:#656D7A;}
	.st7{fill:#C4C4C4;}
	.st8{filter:url(#Adobe_OpacityMaskFilter);}
	.st9{fill-rule:evenodd;clip-rule:evenodd;fill:#FFFFFF;}
	.st10{mask:url(#mask-2_8_);fill-rule:evenodd;clip-rule:evenodd;}
	.st11{filter:url(#Adobe_OpacityMaskFilter_1_);}
	.st12{mask:url(#mask-2_7_);fill-rule:evenodd;clip-rule:evenodd;}
	.st13{filter:url(#Adobe_OpacityMaskFilter_2_);}
	.st14{mask:url(#mask-2_6_);fill-rule:evenodd;clip-rule:evenodd;}
	.st15{filter:url(#Adobe_OpacityMaskFilter_3_);}
	.st16{mask:url(#mask-2_5_);fill-rule:evenodd;clip-rule:evenodd;}
	.st17{filter:url(#Adobe_OpacityMaskFilter_4_);}
	.st18{mask:url(#mask-2_2_);fill:none;stroke:#000000;stroke-width:1.5;stroke-miterlimit:10;}
	.st19{fill:#B4A3EE;}
	.st20{fill:#434343;}
	.st21{fill:#434343;stroke:#F9F9F9;stroke-width:0.25;stroke-miterlimit:10;}
	.st22{fill:none;stroke:#FC6A55;stroke-width:0.5;stroke-miterlimit:10;}
	.st23{fill:none;stroke:#FC6A55;stroke-width:0.75;stroke-miterlimit:10;}
	.st24{fill:#FC6A55;stroke:#FC6A55;stroke-width:0.5;stroke-miterlimit:10;}
	.st25{opacity:0.153;fill:url(#Path_36_);enable-background:new    ;}
	.st26{opacity:0.1;fill:#590BB2;enable-background:new    ;}
	.st27{fill:#8E8CA8;}
	.st28{fill:#F5F4F9;}
	.st29{fill:#FFD5B8;}
	.st30{fill:#FC8473;}
	.st31{fill:#1C3475;}
	.st32{fill:#DDD9E4;}
	.st33{fill:#828FB3;}
	.st34{opacity:7.584635e-02;fill:url(#Path_37_);enable-background:new    ;}
	.st35{fill:#FFBE92;}
	.st36{fill:#FB8E7F;}
	.st37{fill:#FDB1A6;}
	.st38{fill:#FC806F;}
	.st39{fill:#FFE783;}
	.st40{fill:#104478;}
	.st41{fill:none;stroke:#FFFFFF;stroke-miterlimit:10;}
	.st42{fill:none;stroke:#000000;stroke-width:0.15;stroke-miterlimit:10;}
	.st43{opacity:0.1;fill:url(#Path_38_);enable-background:new    ;}
	.st44{opacity:0.1;fill:url(#Path_39_);enable-background:new    ;}
	.st45{fill-rule:evenodd;clip-rule:evenodd;fill:#FC6A55;}
	.st46{fill-rule:evenodd;clip-rule:evenodd;}
	.st47{fill:#FF6757;}
	.st48{fill:#666666;}
	.st49{fill:none;stroke:#FFFFFF;stroke-width:0.5;stroke-miterlimit:10;}
	.st50{fill:#F16A56;}
	.st51{fill:#515252;}
	.st52{fill:#F26A56;}
	.st53{fill:none;stroke:#F16A56;stroke-miterlimit:10;}
	.st54{fill:none;stroke:#929292;stroke-miterlimit:10;}
	.st55{fill:#929292;}
	.st56{fill:none;stroke:#000000;stroke-width:0.5;stroke-miterlimit:10;}
	.st57{fill:#A8A7A7;}
	.st58{fill:#F79F91;}
	.st59{fill:#9BDBD5;}
	.st60{fill:#222121;}
</style>
<g>
	<g>
		<g>
			<g>
				<path class="st7" d="M13.4,11.1V7.9c0.7,0.2,1.1,0.7,1.1,1.1c0,0.5,0.4,0.9,0.9,0.9c0.5,0,0.9-0.4,0.9-0.9c0-1.5-1.2-2.7-3-3
					V5.9c0-0.5-0.4-0.9-0.9-0.9s-0.9,0.4-0.9,0.9V6c-1.7,0.3-3,1.5-3,3c0,2.1,1.6,2.9,3,3.4v3.2c-0.7-0.2-1.1-0.7-1.1-1.1
					c0-0.5-0.4-0.9-0.9-0.9c-0.5,0-0.9,0.4-0.9,0.9c0,1.5,1.2,2.7,3,3v0.1c0,0.5,0.4,0.9,0.9,0.9c0.5,0,0.9-0.4,0.9-0.9v-0.1
					c1.7-0.3,3-1.5,3-3C16.4,12.5,14.7,11.6,13.4,11.1z M11.6,10.4c-0.9-0.5-1.1-0.8-1.1-1.4c0-0.4,0.4-0.9,1.1-1.1V10.4z
					 M13.4,15.6v-2.5c0.9,0.5,1.1,0.8,1.1,1.4C14.5,15,14.1,15.4,13.4,15.6z"/>
			</g>
		</g>
		<g>
			<g>
				<path class="st7" d="M27.3,6.9h-7.9c-0.5,0-0.9,0.4-0.9,0.9c0,0.5,0.4,0.9,0.9,0.9h7.9c0.5,0,0.9-0.4,0.9-0.9
					C28.2,7.3,27.8,6.9,27.3,6.9z"/>
			</g>
		</g>
		<g>
			<g>
				<path class="st7" d="M20.4,14.8h-1c-0.5,0-0.9,0.4-0.9,0.9c0,0.5,0.4,0.9,0.9,0.9h1c0.5,0,0.9-0.4,0.9-0.9
					C21.3,15.2,20.9,14.8,20.4,14.8z"/>
			</g>
		</g>
		<g>
			<g>
				<path class="st7" d="M37.1,21.7H9.6c-0.5,0-0.9,0.4-0.9,0.9c0,0.5,0.4,0.9,0.9,0.9h27.6c0.5,0,0.9-0.4,0.9-0.9
					C38.1,22.1,37.7,21.7,37.1,21.7z"/>
			</g>
		</g>
		<g>
			<g>
				<path class="st7" d="M18.4,27.6h-3c-0.5,0-0.9,0.4-0.9,0.9s0.4,0.9,0.9,0.9h3c0.5,0,0.9-0.4,0.9-0.9S18.9,27.6,18.4,27.6z"/>
			</g>
		</g>
		<g>
			<g>
				<path class="st7" d="M11.5,27.6h-2c-0.5,0-0.9,0.4-0.9,0.9s0.4,0.9,0.9,0.9h2c0.5,0,0.9-0.4,0.9-0.9S12,27.6,11.5,27.6z"/>
			</g>
		</g>
		<g>
			<g>
				<path class="st7" d="M18.4,31.5h-3c-0.5,0-0.9,0.4-0.9,0.9c0,0.5,0.4,0.9,0.9,0.9h3c0.5,0,0.9-0.4,0.9-0.9
					C19.3,31.9,18.9,31.5,18.4,31.5z"/>
			</g>
		</g>
		<g>
			<g>
				<path class="st7" d="M11.5,31.5h-2c-0.5,0-0.9,0.4-0.9,0.9c0,0.5,0.4,0.9,0.9,0.9h2c0.5,0,0.9-0.4,0.9-0.9
					C12.4,31.9,12,31.5,11.5,31.5z"/>
			</g>
		</g>
		<g>
			<g>
				<path class="st7" d="M18.4,35.5h-3c-0.5,0-0.9,0.4-0.9,0.9c0,0.5,0.4,0.9,0.9,0.9h3c0.5,0,0.9-0.4,0.9-0.9
					C19.3,35.9,18.9,35.5,18.4,35.5z"/>
			</g>
		</g>
		<g>
			<g>
				<path class="st7" d="M11.5,35.5h-2c-0.5,0-0.9,0.4-0.9,0.9c0,0.5,0.4,0.9,0.9,0.9h2c0.5,0,0.9-0.4,0.9-0.9
					C12.4,35.9,12,35.5,11.5,35.5z"/>
			</g>
		</g>
		<g>
			<g>
				<path class="st7" d="M18.4,39.4h-3c-0.5,0-0.9,0.4-0.9,0.9c0,0.5,0.4,0.9,0.9,0.9h3c0.5,0,0.9-0.4,0.9-0.9
					C19.3,39.8,18.9,39.4,18.4,39.4z"/>
			</g>
		</g>
		<g>
			<g>
				<path class="st7" d="M11.5,39.4h-2c-0.5,0-0.9,0.4-0.9,0.9c0,0.5,0.4,0.9,0.9,0.9h2c0.5,0,0.9-0.4,0.9-0.9
					C12.4,39.8,12,39.4,11.5,39.4z"/>
			</g>
		</g>
		<g>
			<g>
				<path class="st7" d="M18.4,43.4h-3c-0.5,0-0.9,0.4-0.9,0.9s0.4,0.9,0.9,0.9h3c0.5,0,0.9-0.4,0.9-0.9S18.9,43.4,18.4,43.4z"/>
			</g>
		</g>
		<g>
			<g>
				<path class="st7" d="M11.5,43.4h-2c-0.5,0-0.9,0.4-0.9,0.9s0.4,0.9,0.9,0.9h2c0.5,0,0.9-0.4,0.9-0.9S12,43.4,11.5,43.4z"/>
			</g>
		</g>
		<g>
			<g>
				<path class="st7" d="M30.2,14.8h-1c-0.5,0-0.9,0.4-0.9,0.9c0,0.5,0.4,0.9,0.9,0.9h1c0.5,0,0.9-0.4,0.9-0.9
					C31.2,15.2,30.8,14.8,30.2,14.8z"/>
			</g>
		</g>
		<g>
			<g>
				<path class="st7" d="M35.2,14.8h-1c-0.5,0-0.9,0.4-0.9,0.9c0,0.5,0.4,0.9,0.9,0.9h1c0.5,0,0.9-0.4,0.9-0.9
					C36.1,15.2,35.7,14.8,35.2,14.8z"/>
			</g>
		</g>
		<g>
			<g>
				<path class="st7" d="M25.3,14.8h-1c-0.5,0-0.9,0.4-0.9,0.9c0,0.5,0.4,0.9,0.9,0.9h1c0.5,0,0.9-0.4,0.9-0.9
					C26.2,15.2,25.8,14.8,25.3,14.8z"/>
			</g>
		</g>
		<g>
			<g>
				<path class="st7" d="M29.3,10.8h-9.9c-0.5,0-0.9,0.4-0.9,0.9c0,0.5,0.4,0.9,0.9,0.9h9.9c0.5,0,0.9-0.4,0.9-0.9
					C30.2,11.3,29.8,10.8,29.3,10.8z"/>
			</g>
		</g>
		<g>
			<g>
				<path class="st7" d="M47,25.6h-4V10.8c0-0.2-0.1-0.5-0.3-0.7l-9.9-9.9C32.7,0.1,32.5,0,32.2,0H6.6C5,0,3.7,1.3,3.7,2.9v47.3
					c0,1.6,1.3,2.9,2.9,2.9h14.8v2c0,2.1,1.7,3.9,3.9,3.9H47c2.1,0,3.9-1.7,3.9-3.9V29.5C50.9,27.4,49.1,25.6,47,25.6z M33.1,3.2
					l6.7,6.7h-4.7c-1.1,0-2-0.9-2-2V3.2z M21.4,29.5v21.7H6.6c-0.6,0-1-0.5-1-1V2.9c0-0.6,0.5-1,1-1h24.7v6c0,2.1,1.7,3.9,3.9,3.9h6
					v13.9H25.3C23.2,25.6,21.4,27.4,21.4,29.5z M49,55.1c0,1.1-0.9,2-2,2H25.3c-1.1,0-2-0.9-2-2V29.5c0-1.1,0.9-2,2-2H47
					c1.1,0,2,0.9,2,2L49,55.1L49,55.1z"/>
			</g>
		</g>
		<g>
			<g>
				<path class="st7" d="M45,29.6H27.3c-1.1,0-1.9,0.9-1.9,1.9v3.9c0,1.1,0.9,1.9,1.9,1.9H45c1.1,0,1.9-0.9,1.9-1.9v-3.9
					C46.9,30.4,46.1,29.6,45,29.6z M45.1,35.4C45.1,35.4,45.1,35.5,45.1,35.4l-17.8,0.1c0,0-0.1,0-0.1-0.1v-3.9c0,0,0-0.1,0.1-0.1
					H45c0,0,0.1,0,0.1,0.1L45.1,35.4L45.1,35.4z"/>
			</g>
		</g>
		<g>
			<g>
				<path class="st7" d="M29.3,40.4h-2c-1.1,0-1.9,0.9-1.9,1.9v2c0,1.1,0.9,1.9,1.9,1.9h2c1.1,0,1.9-0.9,1.9-1.9v-2
					C31.2,41.3,30.3,40.4,29.3,40.4z M29.3,44.3C29.3,44.3,29.3,44.3,29.3,44.3l-2,0.1c0,0-0.1,0-0.1-0.1v-2c0,0,0-0.1,0.1-0.1h2
					c0,0,0.1,0,0.1,0.1L29.3,44.3L29.3,44.3z"/>
			</g>
		</g>
		<g>
			<g>
				<path class="st7" d="M45,40.4h-2c-1.1,0-1.9,0.9-1.9,1.9v2c0,1.1,0.9,1.9,1.9,1.9h2c1.1,0,1.9-0.9,1.9-1.9v-2
					C46.9,41.3,46.1,40.4,45,40.4z M45.1,44.3C45.1,44.3,45.1,44.3,45.1,44.3l-2,0.1c0,0-0.1,0-0.1-0.1v-2c0,0,0-0.1,0.1-0.1h2
					c0,0,0.1,0,0.1,0.1V44.3z"/>
			</g>
		</g>
		<g>
			<g>
				<path class="st7" d="M37.1,40.4h-2c-1.1,0-1.9,0.9-1.9,1.9v2c0,1.1,0.9,1.9,1.9,1.9h2c1.1,0,1.9-0.9,1.9-1.9v-2
					C39.1,41.3,38.2,40.4,37.1,40.4z M37.2,44.3C37.2,44.3,37.2,44.3,37.2,44.3l-2,0.1c0,0-0.1,0-0.1-0.1v-2c0,0,0-0.1,0.1-0.1h2
					c0,0,0.1,0,0.1,0.1V44.3z"/>
			</g>
		</g>
		<g>
			<g>
				<path class="st7" d="M29.3,48.3h-2c-1.1,0-1.9,0.9-1.9,1.9v2c0,1.1,0.9,1.9,1.9,1.9h2c1.1,0,1.9-0.9,1.9-1.9v-2
					C31.2,49.1,30.3,48.3,29.3,48.3z M29.3,52.2C29.3,52.2,29.3,52.2,29.3,52.2l-2,0.1c0,0-0.1,0-0.1-0.1v-2c0,0,0-0.1,0.1-0.1h2
					c0,0,0.1,0,0.1,0.1L29.3,52.2L29.3,52.2z"/>
			</g>
		</g>
		<g>
			<g>
				<path class="st7" d="M45,48.3h-2c-1.1,0-1.9,0.9-1.9,1.9v2c0,1.1,0.9,1.9,1.9,1.9h2c1.1,0,1.9-0.9,1.9-1.9v-2
					C46.9,49.1,46.1,48.3,45,48.3z M45.1,52.2C45.1,52.2,45.1,52.2,45.1,52.2l-2,0.1c0,0-0.1,0-0.1-0.1v-2c0,0,0-0.1,0.1-0.1h2
					c0,0,0.1,0,0.1,0.1V52.2z"/>
			</g>
		</g>
		<g>
			<g>
				<path class="st7" d="M37.1,48.3h-2c-1.1,0-1.9,0.9-1.9,1.9v2c0,1.1,0.9,1.9,1.9,1.9h2c1.1,0,1.9-0.9,1.9-1.9v-2
					C39.1,49.1,38.2,48.3,37.1,48.3z M37.2,52.2C37.2,52.2,37.2,52.2,37.2,52.2l-2,0.1c0,0-0.1,0-0.1-0.1v-2c0,0,0-0.1,0.1-0.1h2
					c0,0,0.1,0,0.1,0.1V52.2z"/>
			</g>
		</g>
	</g>
	<g>
		<circle class="st7" cx="63.2" cy="5.5" r="2"/>
		<circle class="st7" cx="52.8" cy="5.5" r="2"/>
		<path class="st7" d="M46.9,12.8l6.3,10.9c0.8,1.4,2.2,2.4,3.8,2.7v5.2c0,6.2,3.9,11.2,8.7,11.2c4.8,0,8.7-5,8.7-11.2v-6.2
			c2.2-0.5,3.9-2.4,3.9-4.8c0-2.7-2.2-4.9-4.9-4.9s-4.9,2.2-4.9,4.9c0,2.4,1.7,4.3,3.9,4.8v6.2c0,5.1-3,9.3-6.7,9.3
			c-3.7,0-6.7-4.2-6.7-9.3v-5.2c1.6-0.3,3-1.2,3.8-2.7L69,12.8c1-1.7,1-3.8,0-5.5c-1-1.7-2.8-2.8-4.8-2.8v2c1.3,0,2.5,0.7,3.1,1.8
			s0.6,2.5,0,3.6l-6.3,10.9c-0.6,1.1-1.8,1.8-3.1,1.8c-1.3,0-2.5-0.7-3.1-1.8l-6.3-10.9c-0.6-1.1-0.6-2.5,0-3.6
			c0.6-1.1,1.8-1.8,3.1-1.8v-2c-2,0-3.8,1-4.8,2.8C45.9,9,45.9,11.1,46.9,12.8z"/>
	</g>
</g>
</svg>
