<svg enable-background="new 0 0 18 29.1" viewBox="0 0 18 29.1" xmlns="http://www.w3.org/2000/svg"><path d="m12.2 11.8h5.2c.2 0 .3-.1.3-.3-.2-2.9-2.6-5.2-5.5-5.2-.2 0-.3.1-.3.3v4.9c0 .1.1.3.3.3zm4.9-.6h-4.6v-4.3c2.3.1 4.3 1.9 4.6 4.3z"/><path d="m16.8 14.9h-.7c.3-.6.4-1.3.4-2 0-.1 0-.2 0-.3 0-.2-.1-.3-.3-.3h-4.9v-4.6c0-.2-.1-.3-.3-.3-.3 0-.6 0-.9.1v-.9c0-.2-.1-.3-.3-.3h-6.9c-.1 0-.2 0-.2.1l-2.3 2.3s-.1.1-.1.2v14.4c0 .2.1.3.3.3h9.2c.2 0 .3-.1.3-.3v-5c.3 0 .6.1.9.1h.3v4.3c0 .5.4.9.9.9h4.6c.5 0 .9-.4.9-.9v-6.9c0-.5-.4-.9-.9-.9zm-14.2-7.6v1.3h-1.3zm7 15.7h-8.7v-13.8h2c.2 0 .3-.1.3-.3v-2h6.4v.8c-2.9.8-4.6 3.8-3.9 6.7.5 1.9 2 3.3 3.9 3.9zm1.4-5.2c-2.7 0-4.9-2.2-4.9-4.9 0-2.6 2-4.8 4.6-4.9v4.6c0 .2.1.3.3.3h4.9c0 .7-.2 1.4-.4 2h-3.3c-.5 0-.9.4-.9.9v2c-.1 0-.2 0-.3 0zm6.1 4.9c0 .2-.1.3-.3.3h-4.6c-.2 0-.3-.1-.3-.3v-6.9c0-.2.1-.3.3-.3h4.6c.2 0 .3.1.3.3z"/><path d="m16.2 16.1h-3.5c-.2 0-.3.1-.3.3v1.2c0 .2.1.3.3.3h3.5c.2 0 .3-.1.3-.3v-1.2c0-.2-.1-.3-.3-.3zm-.3 1.1h-2.9v-.6h2.9z"/><path d="m13.9 18.4h-1.2c-.2 0-.3.1-.3.3v1.2c0 .2.1.3.3.3h1.2c.2 0 .3-.1.3-.3v-1.2c0-.2-.1-.3-.3-.3zm-.3 1.2h-.6v-.6h.6z"/><path d="m16.2 18.4h-1.2c-.2 0-.3.1-.3.3v1.2c0 .2.1.3.3.3h1.2c.2 0 .3-.1.3-.3v-1.2c0-.2-.1-.3-.3-.3zm-.3 1.2h-.6v-.6h.6z"/><path d="m16.2 20.7h-1.2c-.2 0-.3.1-.3.3v1.2c0 .2.1.3.3.3h1.2c.2 0 .3-.1.3-.3v-1.2c0-.2-.1-.3-.3-.3zm-.3 1.2h-.6v-.6h.6z"/><path d="m13.9 20.7h-1.2c-.2 0-.3.1-.3.3v1.2c0 .2.1.3.3.3h1.2c.2 0 .3-.1.3-.3v-1.2c0-.2-.1-.3-.3-.3zm-.3 1.2h-.6v-.6h.6z"/><path d="m5.2 17.2c-1.4 0-2.6 1.2-2.6 2.6s1.2 2.6 2.6 2.6 2.6-1.2 2.6-2.6-1.1-2.6-2.6-2.6zm0 4.7c-1.1 0-2-.9-2-2s.9-2 2-2 2 .9 2 2c.1 1.1-.8 2-2 2z"/><path d="m5.2 19c.2 0 .3.1.3.3h.6c0-.4-.2-.7-.6-.8v-.3h-.5v.3c-.5.2-.7.7-.5 1.1.1.3.4.6.8.6.2 0 .3.1.3.3s-.1.3-.3.3-.3-.1-.3-.3h-.6c0 .4.2.7.6.8v.3h.6v-.3c.5-.2.7-.7.5-1.1-.1-.3-.4-.6-.8-.6-.2 0-.3-.1-.3-.3s.1-.3.2-.3z"/><path d="m2.1 10.3h2.9v.6h-2.9z"/><path d="m2.1 12.1h2.9v.6h-2.9z"/><path d="m2.1 13.8h2.9v.6h-2.9z"/><path d="m2.1 15.5h2.9v.6h-2.9z"/></svg>