<svg enable-background="new 0 0 18 24" viewBox="0 0 18 24" xmlns="http://www.w3.org/2000/svg"><g fill="#fc6a55"><path d="m17.9 11.3c-.2-.6-.7-1-1.3-.9h-.1c-.4 0-.7.2-1 .4l-2 2c0-.1-.1-.1-.2-.2-.3-.3-.6-.4-1-.4h-2.8c-.5 0-1-.1-1.5-.2-1.3-.4-2.5-.1-3.5.7-.4.4-.7.7-.9 1-.2-.2-.5-.2-.7-.2-.3 0-.7.1-.9.4l-1.8 1.9c-.1.1-.1.4 0 .5l1.5 1.4c.1.1.4.1.5 0s.1-.4 0-.5l-1.2-1.2 1.6-1.6c.1-.1.2-.2.4-.2s.3.1.4.2l2.6 2.6c.1.1.2.2.2.4 0 .1-.1.3-.2.4l-1.5 1.6-.4-.4c-.1-.1-.4-.1-.5 0s-.1.4 0 .5l.6.6c.1.1.2.1.2.1.1 0 .2 0 .3-.1l1.8-1.8c.2-.2.4-.6.4-.9 0-.2 0-.3-.1-.4l.6-.1c.3 0 .6-.1.9-.1h4.3.2.4c.4 0 .8-.2 1.2-.4.2-.1.3-.3.5-.4l2.9-3.4c.2-.4.3-.9.1-1.3zm-.8.8-2.9 3.4c-.1.1-.2.2-.3.3-.2.2-.5.3-.8.3h-.4-.1-4.3c-.3 0-.6 0-1 .1l-1 .1-2.3-2.2c.2-.2.4-.6.8-.9.9-.7 1.8-.9 2.9-.6.6.2 1.1.2 1.7.2h2.8c.2 0 .4.1.5.2s.2.2.2.3v.1c0 .2 0 .3-.2.5-.1.2-.3.3-.5.3h-2.3c-.2 0-.4.2-.4.4s.2.4.4.4h2.4c.4 0 .8-.2 1.1-.5.2-.3.3-.6.3-.9l2.3-2.2c.1-.1.3-.2.5-.2h.1c.3 0 .5.2.6.4.1.1.1.4-.1.5z"/><path d="m2.8 14.9c-.5 0-1 .4-1 1 0 .5.4 1 1 1s1-.4 1-1-.5-1-1-1zm0 1.2c-.1 0-.2-.1-.2-.2s.1-.2.2-.2.2.1.2.2c.1.1-.1.2-.2.2z"/><path d="m8.4 14.3c-.2 0-.3.2-.3.4s.2.3.3.3h.1c.2 0 .3-.2.3-.4s-.2-.4-.4-.3z"/><path d="m2.8 18c-.2 0-.3.2-.3.4s.2.3.3.3h.1c.2 0 .3-.2.3-.4-.1-.2-.3-.3-.4-.3z"/><path d="m10.3 11.2c2.1 0 3.7-1.7 3.7-3.7s-1.7-3.7-3.7-3.7c-.8 0-1.6.2-2.3.7-.1.2-.3.3-.4.4-.2.2-.4.5-.5.7-.3.6-.5 1.2-.5 1.9 0 2 1.7 3.7 3.7 3.7zm-2.6-5.2c.1-.2.3-.4.4-.6.1-.1.2-.2.3-.3.6-.4 1.2-.6 1.9-.6 1.7 0 3 1.4 3 3 0 1.7-1.4 3-3 3-1.7 0-3-1.4-3-3 0-.5.1-1.1.4-1.5z"/><path d="m10.6 8.7c-.1.1-.3.1-.5.1s-.4-.3-.4-.6c0-.2-.2-.4-.4-.4-.1.1-.3.2-.3.4 0 .6.4 1.1.9 1.3 0 .2.2.3.4.3s.3-.2.4-.3c.5-.1.9-.5.9-1.2 0-.8-.8-1.2-1.2-1.2 0 0-.5 0-.5-.4 0-.5.5-.5.5-.5.1 0 .2.1.3.2v.2c0 .2.2.4.4.4s.4-.2.4-.4 0-.5-.3-.7c-.2-.2-.3-.3-.5-.3 0-.2-.2-.3-.4-.3s-.4.2-.4.4c-.4 0-.8.3-.8 1 0 .8.8 1.1 1.2 1.1.1 0 .5.2.5.5 0 .2 0 .3-.2.4z"/></g></svg>