<?xml version="1.0" encoding="utf-8"?>
<!-- Generator: Adobe Illustrator 24.0.2, SVG Export Plug-In . SVG Version: 6.00 Build 0)  -->
<svg version="1.1" id="Layer_1" xmlns="http://www.w3.org/2000/svg" xmlns:xlink="http://www.w3.org/1999/xlink" x="0px" y="0px"
	 viewBox="0 0 18 24" style="enable-background:new 0 0 18 24;" xml:space="preserve">
<style type="text/css">
	.st0{fill:#FC6A55;}
	.st1{fill:#EDEDED;}
	.st2{fill:none;stroke:#FC6A55;stroke-miterlimit:10;}
	.st3{stroke:#FFFFFF;stroke-width:0.25;stroke-miterlimit:10;}
	.st4{fill:#656D7A;}
	.st5{fill:#FFFFFF;}
	.st6{filter:url(#Adobe_OpacityMaskFilter);}
	.st7{fill-rule:evenodd;clip-rule:evenodd;fill:#FFFFFF;}
	.st8{mask:url(#mask-2_8_);fill-rule:evenodd;clip-rule:evenodd;}
	.st9{filter:url(#Adobe_OpacityMaskFilter_1_);}
	.st10{mask:url(#mask-2_7_);fill-rule:evenodd;clip-rule:evenodd;}
	.st11{filter:url(#Adobe_OpacityMaskFilter_2_);}
	.st12{mask:url(#mask-2_6_);fill-rule:evenodd;clip-rule:evenodd;}
	.st13{filter:url(#Adobe_OpacityMaskFilter_3_);}
	.st14{mask:url(#mask-2_5_);fill-rule:evenodd;clip-rule:evenodd;}
	.st15{filter:url(#Adobe_OpacityMaskFilter_4_);}
	.st16{mask:url(#mask-2_2_);fill:none;stroke:#000000;stroke-width:2;}
	.st17{fill:#434343;}
	.st18{fill:#434343;stroke:#F9F9F9;stroke-width:0.25;stroke-miterlimit:10;}
	.st19{fill:none;stroke:#FC6A55;stroke-width:0.5;stroke-miterlimit:10;}
	.st20{fill:none;stroke:#FC6A55;stroke-width:0.75;stroke-miterlimit:10;}
	.st21{fill:#FC6A55;stroke:#FC6A55;stroke-width:0.5;stroke-miterlimit:10;}
	.st22{opacity:0.153;fill:url(#Path_146_);enable-background:new    ;}
	.st23{opacity:0.1;fill:#590BB2;enable-background:new    ;}
	.st24{fill:#8E8CA8;}
	.st25{fill:#F5F4F9;}
	.st26{fill:#FFD5B8;}
	.st27{fill:#FC8473;}
	.st28{fill:#1C3475;}
	.st29{fill:#DDD9E4;}
	.st30{fill:#828FB3;}
	.st31{opacity:7.584635e-02;fill:url(#Path_147_);enable-background:new    ;}
	.st32{fill:#FFBE92;}
	.st33{fill:#FB8E7F;}
	.st34{fill:#FDB1A6;}
	.st35{fill:#FC806F;}
	.st36{fill:#FFE783;}
	.st37{fill:#104478;}
	.st38{fill:none;stroke:#FFFFFF;stroke-miterlimit:10;}
	.st39{fill:none;stroke:#000000;stroke-width:0.15;stroke-miterlimit:10;}
	.st40{opacity:0.1;fill:url(#Path_148_);enable-background:new    ;}
	.st41{opacity:0.1;fill:url(#Path_149_);enable-background:new    ;}
</style>
<g>
	<circle id="Oval_6_" cx="3" cy="17.3" r="0.3"/>
	<circle id="Oval_2_" cx="15" cy="17.3" r="0.3"/>
	<path id="Shape_69_" d="M15.4,6.8c-0.2-0.2-0.4-0.4-0.7-0.4h-2.4V5.8c0-0.5-0.4-0.9-0.9-0.9H3.2c-0.4,0-0.8,0.3-0.9,0.7L2.2,6.2
		H1.5c-0.2,0-0.3,0.1-0.3,0.3c0,0.2,0.1,0.3,0.3,0.3H2l-1.4,5.4H0.3c-0.2,0-0.3,0.1-0.3,0.3c0,0.2,0.1,0.3,0.3,0.3h0.2l-0.5,2
		c0,0,0,0,0,0c0,0,0,0,0,0v0.9c0,0.5,0.4,0.9,0.9,0.9h0.4c-0.2,0.6-0.1,1.3,0.4,1.8H1.5c-0.2,0-0.3,0.1-0.3,0.3S1.3,19,1.5,19h16.2
		c0.2,0,0.3-0.1,0.3-0.3s-0.1-0.3-0.3-0.3h-1.4c0.4-0.5,0.6-1.2,0.4-1.8h0.4c0.5,0,0.9-0.4,0.9-0.9v-5.2c0-0.2-0.1-0.4-0.2-0.5
		L15.4,6.8z M17.4,13.4h-0.6v-0.6h0.6V13.4z M14.7,7.1c0.1,0,0.2,0,0.2,0.1l2.4,3.2c0,0.1,0.1,0.1,0.1,0.2v1.6h-0.6
		c-0.3,0-0.6,0.3-0.6,0.6v0.6c0,0.3,0.3,0.6,0.6,0.6h0.6v0.6h-5.1V7.1H14.7z M1.5,12.8c0.2,0,0.3-0.1,0.3-0.3c0-0.2-0.1-0.3-0.3-0.3
		H1.3l1.3-5.4h2.2c0.2,0,0.3-0.1,0.3-0.3c0-0.2-0.1-0.3-0.3-0.3h-2l0.1-0.4c0-0.1,0.2-0.2,0.3-0.2h8.2c0.2,0,0.3,0.1,0.3,0.3v8.7
		h-11l0.4-1.8H1.5z M1.8,17.3C1.8,16.6,2.3,16,3,16s1.2,0.5,1.2,1.2S3.7,18.5,3,18.5c-0.3,0-0.6-0.1-0.8-0.4S1.8,17.6,1.8,17.3z
		 M4.3,18.5c0.4-0.5,0.6-1.2,0.4-1.8h8.6c-0.2,0.6-0.1,1.3,0.4,1.8H4.3z M13.8,17.3c0-0.7,0.5-1.2,1.2-1.2s1.2,0.5,1.2,1.2
		s-0.5,1.2-1.2,1.2S13.8,17.9,13.8,17.3z M17.4,15.8c0,0.2-0.1,0.3-0.3,0.3h-0.8c-0.3-0.4-0.8-0.6-1.3-0.6s-1,0.2-1.3,0.6H4.3
		C4,15.7,3.5,15.5,3,15.5S2,15.7,1.7,16H0.9c-0.2,0-0.3-0.1-0.3-0.3v-0.6h16.8V15.8z"/>
	<path id="Shape_68_" d="M13.5,11.6h2.7c0.3,0,0.6-0.3,0.6-0.6v-0.1c0-0.1,0-0.3-0.1-0.4l-2-2.6c-0.1-0.2-0.3-0.2-0.5-0.2h-0.8
		c-0.3,0-0.6,0.3-0.6,0.6v2.7C12.9,11.3,13.2,11.6,13.5,11.6z M13.5,8.3h0.8l2,2.6v0.1h-2.7V8.3z"/>
	<path id="Shape_67_" d="M13.8,12.1h-0.6c-0.2,0-0.3,0.1-0.3,0.3c0,0.2,0.1,0.3,0.3,0.3h0.6c0.2,0,0.3-0.1,0.3-0.3
		C14.1,12.3,14,12.1,13.8,12.1z"/>
	<g>
		<path id="Shape_66_" d="M9,10.9c0.1,0,0.2,0.1,0.3,0.2c0,0.1,0,0.3-0.1,0.3v-0.1c0-0.1-0.1-0.1-0.1-0.1c-0.1,0-0.1,0.1-0.1,0.1
			v0.1c-0.1,0-0.1-0.1-0.1-0.2c0,0-0.1-0.1-0.1-0.1s-0.1,0-0.1,0s0,0.1,0,0.1c0.1,0.2,0.2,0.3,0.4,0.4v0.2C8.9,12,9,12.1,9,12.1
			c0.1,0,0.1-0.1,0.1-0.1v-0.2c0.3-0.1,0.5-0.3,0.4-0.6c0-0.3-0.3-0.5-0.6-0.5c-0.1,0-0.2-0.1-0.3-0.2s0-0.3,0.1-0.3v0.1
			c0,0.1,0.1,0.1,0.1,0.1c0.1,0,0.1-0.1,0.1-0.1v-0.1c0.1,0,0.1,0.1,0.1,0.2c0,0.1,0.1,0.1,0.2,0.1c0.1,0,0.1-0.1,0.1-0.2
			C9.5,10,9.4,9.8,9.2,9.8V9.6c0-0.1-0.1-0.1-0.1-0.1C9,9.5,8.9,9.5,8.9,9.6v0.2c-0.3,0.1-0.5,0.3-0.4,0.6C8.5,10.7,8.8,10.9,9,10.9
			z"/>
		<path id="Shape_65_" d="M10.2,7.3H3.4C3,7.3,2.7,7.7,2.7,8v5.5c0,0.4,0.3,0.7,0.7,0.7h6.8c0.4,0,0.7-0.3,0.7-0.7V8
			C10.9,7.7,10.6,7.3,10.2,7.3z M3.4,7.6h6.8c0.2,0,0.4,0.2,0.4,0.4v0.7H3V8C3,7.8,3.2,7.6,3.4,7.6z M10.2,13.9H3.4
			c-0.2,0-0.4-0.2-0.4-0.4V9h7.6v4.5C10.6,13.7,10.4,13.9,10.2,13.9z"/>
		<circle id="Oval_5_" cx="3.4" cy="8.3" r="0.1"/>
		<circle id="Oval_4_" cx="3.9" cy="8.3" r="0.1"/>
		<circle id="Oval_3_" cx="4.5" cy="8.3" r="0.1"/>
		<path id="Shape_64_" d="M7.9,8.4h2.3c0.1,0,0.1-0.1,0.1-0.1s-0.1-0.1-0.1-0.1H7.9c-0.1,0-0.1,0.1-0.1,0.1S7.8,8.4,7.9,8.4z"/>
		<path id="Shape_63_" d="M7.1,8.4h0.3c0.1,0,0.1-0.1,0.1-0.1S7.4,8.2,7.3,8.2H7.1C7,8.2,6.9,8.2,6.9,8.3S7,8.4,7.1,8.4z"/>
		<path id="Shape_62_" d="M7.3,9.3H3.8c-0.2,0-0.4,0.2-0.4,0.4v3.6c0,0.2,0.2,0.4,0.4,0.4h3.6c0.2,0,0.4-0.2,0.4-0.4V9.7
			C7.8,9.4,7.6,9.3,7.3,9.3z M7.5,13.2c0,0.1-0.1,0.1-0.1,0.1H3.8c-0.1,0-0.1-0.1-0.1-0.1V9.7c0-0.1,0.1-0.1,0.1-0.1h3.6
			c0.1,0,0.1,0.1,0.1,0.1V13.2z"/>
		<path id="Shape_61_" d="M9.9,12.8H8.4C8.2,12.8,8,13,8,13.2c0,0.2,0.2,0.4,0.4,0.4h1.5c0.2,0,0.4-0.2,0.4-0.4
			C10.3,13,10.2,12.8,9.9,12.8z M9.9,13.4H8.4c-0.1,0-0.1-0.1-0.1-0.1s0.1-0.1,0.1-0.1h1.5c0.1,0,0.1,0.1,0.1,0.1S10,13.4,9.9,13.4z
			"/>
		<path id="Shape_60_" d="M6.6,10.5h-2L4.5,10c0-0.1-0.1-0.1-0.1-0.1H4.1C4,9.9,3.9,10,3.9,10.1s0.1,0.1,0.1,0.1h0.2l0.2,0.5
			c0,0,0,0,0,0l0.4,1.1C4.9,11.9,5,12,5.1,12h1.2c0.1,0,0.2-0.1,0.3-0.2l0.3-1c0-0.1,0-0.2,0-0.2S6.7,10.5,6.6,10.5L6.6,10.5z
			 M6.3,11.7H5.1l-0.4-1h1.9L6.3,11.7z"/>
		<path id="Shape_59_" d="M5.4,11.4c0.1,0,0.1-0.1,0.1-0.1V11c0-0.1-0.1-0.1-0.1-0.1S5.3,11,5.3,11v0.3C5.3,11.4,5.4,11.4,5.4,11.4z
			"/>
		<path id="Shape_58_" d="M6,11.4c0.1,0,0.1-0.1,0.1-0.1V11c0-0.1-0.1-0.1-0.1-0.1S5.8,11,5.8,11v0.3C5.8,11.4,5.9,11.4,6,11.4z"/>
		<path id="Shape_57_" d="M5,12.1c-0.2,0-0.4,0.2-0.4,0.4c0,0.2,0.2,0.4,0.4,0.4s0.4-0.2,0.4-0.4C5.4,12.3,5.2,12.1,5,12.1z M5,12.7
			c-0.1,0-0.1-0.1-0.1-0.1s0.1-0.1,0.1-0.1s0.1,0.1,0.1,0.1S5.1,12.7,5,12.7z"/>
		<path id="Shape_56_" d="M6.4,12.1c-0.2,0-0.4,0.2-0.4,0.4c0,0.2,0.2,0.4,0.4,0.4s0.4-0.2,0.4-0.4C6.8,12.3,6.6,12.1,6.4,12.1z
			 M6.4,12.7c-0.1,0-0.1-0.1-0.1-0.1s0.1-0.1,0.1-0.1s0.1,0.1,0.1,0.1S6.5,12.7,6.4,12.7z"/>
	</g>
</g>
</svg>
