<?xml version="1.0" encoding="utf-8"?>
<!-- Generator: Adobe Illustrator 24.0.2, SVG Export Plug-In . SVG Version: 6.00 Build 0)  -->
<svg version="1.1" id="Layer_1" xmlns="http://www.w3.org/2000/svg" xmlns:xlink="http://www.w3.org/1999/xlink" x="0px" y="0px"
	 viewBox="0 0 18 24" style="enable-background:new 0 0 18 24;" xml:space="preserve">
<style type="text/css">
	.st0{fill:#FC6A55;}
	.st1{fill:#EDEDED;}
	.st2{fill:none;stroke:#FC6A55;stroke-miterlimit:10;}
	.st3{stroke:#FFFFFF;stroke-width:0.25;stroke-miterlimit:10;}
	.st4{fill:#656D7A;}
	.st5{fill:#FFFFFF;}
	.st6{filter:url(#Adobe_OpacityMaskFilter);}
	.st7{fill-rule:evenodd;clip-rule:evenodd;fill:#FFFFFF;}
	.st8{mask:url(#mask-2_8_);fill-rule:evenodd;clip-rule:evenodd;}
	.st9{filter:url(#Adobe_OpacityMaskFilter_1_);}
	.st10{mask:url(#mask-2_7_);fill-rule:evenodd;clip-rule:evenodd;}
	.st11{filter:url(#Adobe_OpacityMaskFilter_2_);}
	.st12{mask:url(#mask-2_6_);fill-rule:evenodd;clip-rule:evenodd;}
	.st13{filter:url(#Adobe_OpacityMaskFilter_3_);}
	.st14{mask:url(#mask-2_5_);fill-rule:evenodd;clip-rule:evenodd;}
	.st15{filter:url(#Adobe_OpacityMaskFilter_4_);}
	.st16{mask:url(#mask-2_2_);fill:none;stroke:#000000;stroke-width:2;}
	.st17{fill:#434343;}
	.st18{fill:#434343;stroke:#F9F9F9;stroke-width:0.25;stroke-miterlimit:10;}
	.st19{fill:none;stroke:#FC6A55;stroke-width:0.5;stroke-miterlimit:10;}
	.st20{fill:none;stroke:#FC6A55;stroke-width:0.75;stroke-miterlimit:10;}
	.st21{fill:#FC6A55;stroke:#FC6A55;stroke-width:0.5;stroke-miterlimit:10;}
	.st22{opacity:0.153;fill:url(#Path_146_);enable-background:new    ;}
	.st23{opacity:0.1;fill:#590BB2;enable-background:new    ;}
	.st24{fill:#8E8CA8;}
	.st25{fill:#F5F4F9;}
	.st26{fill:#FFD5B8;}
	.st27{fill:#FC8473;}
	.st28{fill:#1C3475;}
	.st29{fill:#DDD9E4;}
	.st30{fill:#828FB3;}
	.st31{opacity:7.584635e-02;fill:url(#Path_147_);enable-background:new    ;}
	.st32{fill:#FFBE92;}
	.st33{fill:#FB8E7F;}
	.st34{fill:#FDB1A6;}
	.st35{fill:#FC806F;}
	.st36{fill:#FFE783;}
	.st37{fill:#104478;}
	.st38{fill:none;stroke:#FFFFFF;stroke-miterlimit:10;}
	.st39{fill:none;stroke:#000000;stroke-width:0.15;stroke-miterlimit:10;}
	.st40{opacity:0.1;fill:url(#Path_148_);enable-background:new    ;}
	.st41{opacity:0.1;fill:url(#Path_149_);enable-background:new    ;}
</style>
<g>
	<path class="st0" d="M0.3,20.1h3.5C4.6,20.7,5.6,21,6.6,21h2.7c0.5,0,0.9-0.4,0.9-0.9c0-0.1,0-0.2-0.1-0.3h6.4
		c0.2,0,0.3-0.1,0.3-0.3v0v-5.7h0.9c0.2,0,0.3-0.1,0.3-0.3c0-0.1,0-0.1-0.1-0.2l-1.2-1.8c-0.1-0.1-0.1-0.1-0.2-0.1h-1.2L15,11.1
		c-0.1-0.1-0.1-0.3-0.1-0.4l0,0c0.1-0.1,0.2-0.2,0.3-0.2h1.2c0.2,0,0.3-0.1,0.3-0.3v0V7.8c0-0.2-0.1-0.3-0.3-0.3c0,0,0,0,0,0h-1.2
		c-0.1,0-0.3-0.1-0.3-0.2l0,0c-0.1-0.1,0-0.3,0.1-0.4L15.9,6c0.1-0.1,0.1-0.3,0-0.4c0,0,0,0,0,0l-1.7-1.7c-0.1-0.1-0.3-0.1-0.4,0
		l0,0l-0.9,0.9c-0.1,0.1-0.3,0.1-0.4,0.1l0,0c-0.1-0.1-0.2-0.2-0.2-0.3V3.3C12.3,3.1,12.2,3,12,3h0H9.6C9.4,3,9.3,3.1,9.3,3.3v0v1.2
		c0,0.1-0.1,0.3-0.2,0.3l0,0c-0.1,0.1-0.3,0-0.4-0.1L7.8,3.9c-0.1-0.1-0.3-0.1-0.4,0L5.7,5.6C5.6,5.7,5.6,5.9,5.7,6c0,0,0,0,0,0
		l0.9,0.9C6.7,7,6.7,7.1,6.6,7.3l0,0C6.6,7.4,6.5,7.5,6.3,7.5H5.1c-0.2,0-0.3,0.1-0.3,0.3v0v2.4c0,0.2,0.1,0.3,0.3,0.3h0h1.2
		c0.1,0,0.3,0.1,0.3,0.2l0,0c0.1,0.1,0,0.3-0.1,0.4l-0.3,0.3H4.5c-0.1,0-0.2,0.1-0.2,0.1l-1.2,1.8C3,13.5,3,13.7,3.1,13.7
		c0,0,0.1,0.1,0.2,0.1h0.9v3.3c0,0,0,0-0.1,0H3.3l-3-0.6c-0.2,0-0.3,0.1-0.4,0.2c0,0,0,0,0,0.1v3C0,20,0.1,20.1,0.3,20.1L0.3,20.1z
		 M16.2,19.2h-4.8v-6.5l0.7,1c0.1,0.1,0.1,0.1,0.2,0.1h3.9V19.2z M17.1,13.2h-4.7L11.7,12h4.7L17.1,13.2z M7.2,10.5
		C7.2,10.5,7.2,10.5,7.2,10.5L7.2,10.5C7,10.1,6.7,9.9,6.3,9.9H5.4V8.1h0.9c0.4,0,0.7-0.2,0.9-0.6l0,0l0,0c0.1-0.4,0.1-0.8-0.2-1
		L6.3,5.8l1.3-1.3l0.6,0.6c0.3,0.3,0.7,0.4,1,0.2l0,0c0.4-0.1,0.6-0.5,0.6-0.9V3.6h1.8v0.9c0,0.4,0.2,0.7,0.6,0.9l0,0
		c0.4,0.1,0.8,0.1,1-0.2L14,4.5l1.3,1.3l-0.6,0.6c-0.3,0.3-0.4,0.7-0.2,1c0,0,0,0,0,0l0,0c0.1,0.4,0.5,0.6,0.9,0.6h0.9v1.8h-0.9
		c-0.4,0-0.7,0.2-0.9,0.6l0,0l0,0c-0.1,0.3-0.1,0.6,0.1,0.9h-1.4c1.3-1.3,1.4-3.3,0.1-4.7c0,0,0,0,0,0l-0.4,0.4c1,1.1,1,2.8,0,3.8
		c-0.2,0.2-0.4,0.3-0.7,0.5H9.6c-0.6-0.3-1.1-0.9-1.3-1.6L7.7,10c0.2,0.5,0.5,1,0.9,1.4H7.1C7.3,11.1,7.3,10.8,7.2,10.5z M4.7,12
		h5.9l-0.8,1.2H3.9L4.7,12z M4.8,13.8h5.1c0.1,0,0.2-0.1,0.2-0.1l0.7-1v6.5l-2.5,0c0.2-0.5-0.1-1-0.5-1.1C7.7,18,7.6,18,7.5,18h0
		l-1.1,0c-0.5-0.4-1-0.7-1.6-0.8V13.8z M6.1,18.5c0.1,0.1,0.1,0.1,0.2,0.1h0l1.2,0c0.2,0,0.3,0.1,0.3,0.3s-0.1,0.3-0.3,0.3H6.3v0.6
		l3,0c0.2,0,0.3,0.1,0.3,0.3c0,0.2-0.1,0.3-0.3,0.3H6.6c-0.9,0-1.8-0.3-2.5-0.8c-0.1,0-0.1-0.1-0.2-0.1H3.6v-1.8h0.5
		C4.9,17.7,5.6,18,6.1,18.5z M0.6,17.2L3,17.6v1.9H0.6V17.2z"/>
	<path class="st0" d="M10.8,10.8c1,0,1.8-0.8,1.8-1.8s-0.8-1.8-1.8-1.8S9,8,9,9C9,10,9.8,10.8,10.8,10.8z M10.8,7.8
		C11.5,7.8,12,8.3,12,9c0,0.7-0.5,1.2-1.2,1.2S9.6,9.7,9.6,9C9.6,8.3,10.1,7.8,10.8,7.8z"/>
	<rect x="8.4" y="15" class="st0" width="0.6" height="0.6"/>
	<rect x="6.6" y="15" class="st0" width="1.2" height="0.6"/>
	<rect x="7.5" y="16.2" class="st0" width="2.1" height="0.6"/>
	<rect x="6" y="16.2" class="st0" width="0.9" height="0.6"/>
</g>
</svg>
