<?xml version="1.0" encoding="utf-8"?>
<!-- Generator: Adobe Illustrator 24.0.2, SVG Export Plug-In . SVG Version: 6.00 Build 0)  -->
<svg version="1.1" id="Layer_1" xmlns="http://www.w3.org/2000/svg" xmlns:xlink="http://www.w3.org/1999/xlink" x="0px" y="0px"
	 viewBox="0 0 18 24" style="enable-background:new 0 0 18 24;" xml:space="preserve">
<style type="text/css">
	.st0{fill:#FC6A55;}
	.st1{fill:#EDEDED;}
	.st2{fill:none;stroke:#FC6A55;stroke-miterlimit:10;}
	.st3{stroke:#FFFFFF;stroke-width:0.25;stroke-miterlimit:10;}
	.st4{fill:#656D7A;}
	.st5{fill:#FFFFFF;}
	.st6{filter:url(#Adobe_OpacityMaskFilter);}
	.st7{fill-rule:evenodd;clip-rule:evenodd;fill:#FFFFFF;}
	.st8{mask:url(#mask-2_8_);fill-rule:evenodd;clip-rule:evenodd;}
	.st9{filter:url(#Adobe_OpacityMaskFilter_1_);}
	.st10{mask:url(#mask-2_7_);fill-rule:evenodd;clip-rule:evenodd;}
	.st11{filter:url(#Adobe_OpacityMaskFilter_2_);}
	.st12{mask:url(#mask-2_6_);fill-rule:evenodd;clip-rule:evenodd;}
	.st13{filter:url(#Adobe_OpacityMaskFilter_3_);}
	.st14{mask:url(#mask-2_5_);fill-rule:evenodd;clip-rule:evenodd;}
	.st15{filter:url(#Adobe_OpacityMaskFilter_4_);}
	.st16{mask:url(#mask-2_2_);fill:none;stroke:#000000;stroke-width:2;}
	.st17{fill:#434343;}
	.st18{fill:#434343;stroke:#F9F9F9;stroke-width:0.25;stroke-miterlimit:10;}
	.st19{fill:none;stroke:#FC6A55;stroke-width:0.5;stroke-miterlimit:10;}
	.st20{fill:none;stroke:#FC6A55;stroke-width:0.75;stroke-miterlimit:10;}
	.st21{fill:#FC6A55;stroke:#FC6A55;stroke-width:0.5;stroke-miterlimit:10;}
	.st22{opacity:0.153;fill:url(#Path_146_);enable-background:new    ;}
	.st23{opacity:0.1;fill:#590BB2;enable-background:new    ;}
	.st24{fill:#8E8CA8;}
	.st25{fill:#F5F4F9;}
	.st26{fill:#FFD5B8;}
	.st27{fill:#FC8473;}
	.st28{fill:#1C3475;}
	.st29{fill:#DDD9E4;}
	.st30{fill:#828FB3;}
	.st31{opacity:7.584635e-02;fill:url(#Path_147_);enable-background:new    ;}
	.st32{fill:#FFBE92;}
	.st33{fill:#FB8E7F;}
	.st34{fill:#FDB1A6;}
	.st35{fill:#FC806F;}
	.st36{fill:#FFE783;}
	.st37{fill:#104478;}
	.st38{fill:none;stroke:#FFFFFF;stroke-miterlimit:10;}
	.st39{fill:none;stroke:#000000;stroke-width:0.15;stroke-miterlimit:10;}
	.st40{opacity:0.1;fill:url(#Path_148_);enable-background:new    ;}
	.st41{opacity:0.1;fill:url(#Path_149_);enable-background:new    ;}
	.st42{fill-rule:evenodd;clip-rule:evenodd;fill:#FC6A55;}
	.st43{fill-rule:evenodd;clip-rule:evenodd;}
</style>
<g>
	<g>
		<g>
			<path class="st0" d="M7.8,8.7c-0.5,0-0.9,0.4-0.9,0.9h0.6c0-0.2,0.1-0.3,0.3-0.3c0.2,0,0.3,0.1,0.3,0.3h0.6
				C8.7,9.1,8.3,8.7,7.8,8.7z"/>
		</g>
	</g>
	<g>
		<g>
			<path class="st0" d="M10.2,8.7c-0.5,0-0.9,0.4-0.9,0.9h0.6c0-0.2,0.1-0.3,0.3-0.3c0.2,0,0.3,0.1,0.3,0.3h0.6
				C11.1,9.1,10.7,8.7,10.2,8.7z"/>
		</g>
	</g>
	<g>
		<g>
			<path class="st0" d="M9,16.8c-0.7,0-1.2,0.5-1.2,1.2s0.5,1.2,1.2,1.2c0.7,0,1.2-0.5,1.2-1.2S9.7,16.8,9,16.8z M9,18.6
				c-0.3,0-0.6-0.3-0.6-0.6s0.3-0.6,0.6-0.6s0.6,0.3,0.6,0.6S9.3,18.6,9,18.6z"/>
		</g>
	</g>
	<g>
		<g>
			<path class="st0" d="M16.2,20.4v-3.9c0-2.5-2-4.5-4.5-4.5h-0.3c0.1-0.1,0.2-0.2,0.3-0.3H12c0.8,0,1.5-0.7,1.5-1.5V9.7
				c0.4-0.2,0.6-0.7,0.6-1.1c0-0.5-0.2-0.9-0.6-1.1C13.5,5,11.5,3,9,3S4.5,5,4.5,7.4C4.1,7.7,3.9,8.1,3.9,8.6c0,0.7,0.6,1.3,1.3,1.3
				h0.2C5.6,10.7,6,11.5,6.6,12H6.3c-2.5,0-4.5,2-4.5,4.5v3.9H0V21h2.1h1.5h10.8h1.5H18v-0.6H16.2z M12.9,10.2
				c0,0.5-0.3,0.8-0.8,0.9c0.2-0.4,0.4-0.8,0.4-1.2h0.2c0.1,0,0.1,0,0.1,0V10.2z M13.5,8.6c0,0.4-0.3,0.8-0.8,0.8h-0.1V7.8h0.1
				C13.2,7.8,13.5,8.1,13.5,8.6z M5.4,9.3H5.3C4.8,9.3,4.5,9,4.5,8.6c0-0.4,0.3-0.8,0.8-0.8h0.2V9.3z M5.3,7.2c0,0-0.1,0-0.1,0
				c0.1-2,1.8-3.6,3.9-3.6s3.7,1.6,3.9,3.6c0,0-0.1,0-0.1,0h-0.2c-0.3-1.7-1.8-3-3.5-3s-3.3,1.3-3.5,3H5.3z M12,7.8
				C9.8,7.7,8.4,6.8,8.4,6c0-0.2-0.1-0.3-0.3-0.3C7.9,5.7,7.8,5.8,7.8,6C7.8,6.7,7,7.4,6,7.5C6.2,6,7.5,4.8,9,4.8
				C10.7,4.8,12,6.1,12,7.8z M6,9.3V8.1C6.9,8,7.7,7.6,8.1,6.9c0.6,0.8,2.1,1.4,3.9,1.5v0.9c0,0.7-0.2,1.3-0.6,1.8H9v0.6h1.8
				c-0.2,0.1-0.4,0.2-0.6,0.3c-0.8,0.4-1.7,0.4-2.5,0C6.7,11.6,6,10.5,6,9.3z M8.1,12.8c0.3,0.1,0.6,0.1,0.9,0.1s0.6,0,0.9-0.1
				L9,14.6L8.1,12.8z M8.5,15H8l-1.2-2.4h0.5L8.5,15z M10.7,12.6h0.5L10,15H9.5L10.7,12.6z M3.3,16.5v3.9H2.4v-3.9
				c0-2.1,1.7-3.8,3.7-3.9L7.3,15H4.8C4,15,3.3,15.7,3.3,16.5z M14.1,20.4H3.9v-3.9c0-0.5,0.4-0.9,0.9-0.9h3H9h1.2h3
				c0.5,0,0.9,0.4,0.9,0.9V20.4z M15.6,20.4h-0.9v-3.9c0-0.8-0.7-1.5-1.5-1.5h-2.5l1.2-2.4c2.1,0.1,3.7,1.8,3.7,3.9V20.4z"/>
		</g>
	</g>
	<g>
		<g>
			<rect x="12.9" y="17.7" class="st0" width="0.6" height="2.1"/>
		</g>
	</g>
	<g>
		<g>
			<rect x="12.9" y="16.5" class="st0" width="0.6" height="0.6"/>
		</g>
	</g>
	<g>
		<g>
			<rect x="15.6" y="5.7" class="st0" width="0.6" height="0.6"/>
		</g>
	</g>
	<g>
		<g>
			<rect x="15.6" y="6.9" class="st0" width="0.6" height="0.6"/>
		</g>
	</g>
	<g>
		<g>
			<rect x="15.6" y="8.1" class="st0" width="0.6" height="0.6"/>
		</g>
	</g>
	<g>
		<g>
			<rect x="1.8" y="9.3" class="st0" width="0.6" height="0.6"/>
		</g>
	</g>
	<g>
		<g>
			<rect x="1.8" y="10.5" class="st0" width="0.6" height="0.6"/>
		</g>
	</g>
	<g>
		<g>
			<rect x="1.8" y="11.7" class="st0" width="0.6" height="0.6"/>
		</g>
	</g>
</g>
</svg>
