<?xml version="1.0" encoding="utf-8"?>
<!-- Generator: Adobe Illustrator 24.1.1, SVG Export Plug-In . SVG Version: 6.00 Build 0)  -->
<svg version="1.1" id="Layer_1" xmlns="http://www.w3.org/2000/svg" xmlns:xlink="http://www.w3.org/1999/xlink" x="0px" y="0px"
	 viewBox="0 0 58.8 58.8" style="enable-background:new 0 0 58.8 58.8;" xml:space="preserve">
<style type="text/css">
	.st0{fill:#FC6A55;}
	.st1{fill:#EDEDED;}
	.st2{fill:none;stroke:#FC6A55;stroke-miterlimit:10;}
	.st3{fill:#222F3F;}
	.st4{fill:#383838;}
	.st5{fill:#FFFFFF;}
	.st6{fill:#656D7A;}
	.st7{fill:#C4C4C4;}
	.st8{filter:url(#Adobe_OpacityMaskFilter);}
	.st9{fill-rule:evenodd;clip-rule:evenodd;fill:#FFFFFF;}
	.st10{mask:url(#mask-2_8_);fill-rule:evenodd;clip-rule:evenodd;}
	.st11{filter:url(#Adobe_OpacityMaskFilter_1_);}
	.st12{mask:url(#mask-2_7_);fill-rule:evenodd;clip-rule:evenodd;}
	.st13{filter:url(#Adobe_OpacityMaskFilter_2_);}
	.st14{mask:url(#mask-2_6_);fill-rule:evenodd;clip-rule:evenodd;}
	.st15{filter:url(#Adobe_OpacityMaskFilter_3_);}
	.st16{mask:url(#mask-2_5_);fill-rule:evenodd;clip-rule:evenodd;}
	.st17{filter:url(#Adobe_OpacityMaskFilter_4_);}
	.st18{mask:url(#mask-2_2_);fill:none;stroke:#000000;stroke-width:1.5;stroke-miterlimit:10;}
	.st19{fill:#B4A3EE;}
	.st20{fill:#434343;}
	.st21{fill:#434343;stroke:#F9F9F9;stroke-width:0.25;stroke-miterlimit:10;}
	.st22{fill:none;stroke:#FC6A55;stroke-width:0.5;stroke-miterlimit:10;}
	.st23{fill:none;stroke:#FC6A55;stroke-width:0.75;stroke-miterlimit:10;}
	.st24{fill:#FC6A55;stroke:#FC6A55;stroke-width:0.5;stroke-miterlimit:10;}
	.st25{opacity:0.153;fill:url(#Path_36_);enable-background:new    ;}
	.st26{opacity:0.1;fill:#590BB2;enable-background:new    ;}
	.st27{fill:#8E8CA8;}
	.st28{fill:#F5F4F9;}
	.st29{fill:#FFD5B8;}
	.st30{fill:#FC8473;}
	.st31{fill:#1C3475;}
	.st32{fill:#DDD9E4;}
	.st33{fill:#828FB3;}
	.st34{opacity:7.584635e-02;fill:url(#Path_37_);enable-background:new    ;}
	.st35{fill:#FFBE92;}
	.st36{fill:#FB8E7F;}
	.st37{fill:#FDB1A6;}
	.st38{fill:#FC806F;}
	.st39{fill:#FFE783;}
	.st40{fill:#104478;}
	.st41{fill:none;stroke:#FFFFFF;stroke-miterlimit:10;}
	.st42{fill:none;stroke:#000000;stroke-width:0.15;stroke-miterlimit:10;}
	.st43{opacity:0.1;fill:url(#Path_38_);enable-background:new    ;}
	.st44{opacity:0.1;fill:url(#Path_39_);enable-background:new    ;}
	.st45{fill-rule:evenodd;clip-rule:evenodd;fill:#FC6A55;}
	.st46{fill-rule:evenodd;clip-rule:evenodd;}
	.st47{fill:#FF6757;}
	.st48{fill:#666666;}
	.st49{fill:none;stroke:#FFFFFF;stroke-width:0.5;stroke-miterlimit:10;}
	.st50{fill:#F16A56;}
	.st51{fill:#515252;}
	.st52{fill:#F26A56;}
	.st53{fill:none;stroke:#F16A56;stroke-miterlimit:10;}
	.st54{fill:none;stroke:#929292;stroke-miterlimit:10;}
	.st55{fill:#929292;}
	.st56{fill:none;stroke:#000000;stroke-width:0.5;stroke-miterlimit:10;}
	.st57{fill:#A8A7A7;}
	.st58{fill:#F79F91;}
	.st59{fill:#9BDBD5;}
	.st60{fill:#222121;}
</style>
<g>
	<path class="st7" d="M2,58.8h5.9c1.1,0,2-0.9,2-2v-2H32c4.9,0,9.7-1.4,13.9-4c6.3-3.9,10.6-10.4,11.9-17.7l0.4-2.4
		c0.2-1.1-0.1-2.2-0.8-3c-0.7-0.8-1.7-1.3-2.8-1.3c-0.6,0-1.2,0.1-1.7,0.4v-4.3h1c0.4,0,0.8-0.2,0.9-0.6c0.2-0.4,0.1-0.8-0.2-1.1
		L46.8,13c-0.4-0.4-1-0.4-1.4,0l-2.2,2.2V2c0-0.5-0.4-1-1-1h-9.8c-0.5,0-1,0.4-1,1v10.8h-4c-0.7-1.6-1.3-2.6-1.7-3.2l2.5-6.1
		c0.3-0.7,0.1-1.4-0.4-1.9c-0.5-0.5-1.3-0.6-1.9-0.3l-1.9,0.9l-1.2-1.6c-0.3-0.4-0.7-0.6-1.2-0.7c-0.5,0-1,0.1-1.3,0.5L18.7,2
		l-1-1.3c-0.3-0.4-0.7-0.6-1.2-0.7c-0.5,0-1,0.1-1.3,0.5l-1.9,1.9l-2.8-0.8c-0.7-0.2-1.4,0-1.8,0.6C8.3,2.7,8.2,3.5,8.5,4.1l3,5.5
		c-2.1,1.9-4.6,7.2-4.6,12v3c0,3.2,2.6,5.9,5.9,5.9h10.8h8.8h7.8h10.2l-2.1,4.1l-5.4,2.3c-0.6-2-2.5-3.5-4.7-3.5H24.1
		c-5.1,0-10,1.4-14.3,4.1v-2.1c0-1.1-0.9-2-2-2H2c-1.1,0-2,0.9-2,2v21.6C0,57.9,0.9,58.8,2,58.8L2,58.8z M12.9,4.4
		c0.6,0.2,1.2,0,1.7-0.4l1.8-1.8l1,1.3c0.3,0.4,0.7,0.6,1.2,0.7c0.5,0,1-0.1,1.3-0.5l1.5-1.5l1.1,1.5c0.5,0.7,1.4,0.9,2.1,0.5
		l1.4-0.7l-2.2,5.4h-2.7l1.3-2.5l-1.8-0.9L19,8.8h-1.7L15.9,6l-1.8,0.8l1,2h-1.8l-2.8-5.1L12.9,4.4z M22.5,13.7v14.7h-9.8
		c-2.2,0-3.9-1.8-3.9-3.9v-3c0-5.2,3.2-10.1,4.2-10.7h11.1c0.2,0.2,0.5,0.7,1.1,2h-1.7C23,12.7,22.5,13.2,22.5,13.7L22.5,13.7z
		 M24.5,14.7h6.9v13.7h-6.9V14.7z M46.1,15.1l5.5,5.5H40.6L46.1,15.1z M33.3,2.9h7.8v14.3l-3.6,3.6c-0.3,0.3-0.4,0.7-0.2,1.1
		c0.2,0.4,0.5,0.6,0.9,0.6h1v5.9h-5.9V2.9z M41.2,22.5H51v5.9h-2v-3.9c0-0.5-0.4-1-1-1h-3.9c-0.5,0-1,0.4-1,1v3.9h-2V22.5z M47,28.4
		h-2v-2.9h2V28.4z M24.1,35.3h14.1c1.6,0,2.9,1.3,2.9,2.9c0,1.6-1.3,2.9-2.9,2.9H22.5v2h15.7c2.5,0,4.5-1.8,4.8-4.2l6.3-2.7
		c0.2-0.1,0.4-0.3,0.5-0.5l3.2-6.3c0.3-0.6,0.9-1,1.5-1c0.5,0,1,0.2,1.3,0.6c0.3,0.4,0.5,0.9,0.4,1.4l-0.4,2.4
		c-1.2,6.8-5.2,12.7-11,16.4c-3.9,2.4-8.3,3.7-12.9,3.7H9.8V39.7C14,36.8,19,35.3,24.1,35.3L24.1,35.3z M2,35.3h5.9l0,21.6H2L2,35.3
		z"/>
	<path class="st7" d="M3.9,38.2h2v2.9h-2V38.2z"/>
	<path class="st7" d="M35.3,4.9h1v2h-1V4.9z"/>
	<path class="st7" d="M38.2,4.9h1v2h-1V4.9z"/>
	<path class="st7" d="M35.3,8.8h1v2h-1V8.8z"/>
	<path class="st7" d="M38.2,8.8h1v2h-1V8.8z"/>
	<path class="st7" d="M35.3,12.7h1v2h-1V12.7z"/>
	<path class="st7" d="M38.2,12.7h1v2h-1V12.7z"/>
	<path class="st7" d="M26.5,16.7h1v2h-1V16.7z"/>
	<path class="st7" d="M29.4,16.7h1v2h-1V16.7z"/>
	<path class="st7" d="M26.5,20.6h1v2h-1V20.6z"/>
	<path class="st7" d="M29.4,20.6h1v2h-1V20.6z"/>
	<path class="st7" d="M26.5,24.5h1v2h-1V24.5z"/>
	<path class="st7" d="M29.4,24.5h1v2h-1V24.5z"/>
	<path class="st7" d="M35.3,16.7h1v2h-1V16.7z"/>
	<path class="st7" d="M38.2,16.7h1v2h-1V16.7z"/>
	<path class="st7" d="M19.6,15.7h-1v-1h-2v1h-1c-0.5,0-1,0.4-1,1v2.9c0,0.5,0.4,1,1,1h2.9v1h-3.9v1c0,0.5,0.4,1,1,1h1v1h2v-1h1
		c0.5,0,1-0.4,1-1v-2.9c0-0.5-0.4-1-1-1h-2.9v-1h3.9v-1C20.6,16.1,20.1,15.7,19.6,15.7z"/>
	<path class="st7" d="M50,2h2v2h-2V2z"/>
	<path class="st7" d="M51.9,0h2v2h-2V0z"/>
	<path class="st7" d="M53.9,2h2v2h-2V2z"/>
	<path class="st7" d="M51.9,3.9h2v2h-2V3.9z"/>
	<path class="st7" d="M56.8,6.9h2v2h-2V6.9z"/>
	<path class="st7" d="M50,9.8h2v2h-2V9.8z"/>
	<path class="st7" d="M0,8.8h2v2H0V8.8z"/>
	<path class="st7" d="M2,6.9h2v2H2V6.9z"/>
	<path class="st7" d="M3.9,8.8h2v2h-2V8.8z"/>
	<path class="st7" d="M2,10.8h2v2H2V10.8z"/>
	<path class="st7" d="M0,16.7h2v2H0V16.7z"/>
	<path class="st7" d="M3.9,0h2v2h-2V0z"/>
</g>
</svg>
