<?xml version="1.0" encoding="utf-8"?>
<!-- Generator: Adobe Illustrator 24.1.1, SVG Export Plug-In . SVG Version: 6.00 Build 0)  -->
<svg version="1.1" id="Layer_1" xmlns="http://www.w3.org/2000/svg" xmlns:xlink="http://www.w3.org/1999/xlink" x="0px" y="0px"
	 viewBox="0 0 58.3 58.8" style="enable-background:new 0 0 58.3 58.8;" xml:space="preserve">
<style type="text/css">
	.st0{fill:#FC6A55;}
	.st1{fill:#EDEDED;}
	.st2{fill:none;stroke:#FC6A55;stroke-miterlimit:10;}
	.st3{fill:#222F3F;}
	.st4{fill:#383838;}
	.st5{fill:#FFFFFF;}
	.st6{fill:#656D7A;}
	.st7{fill:#C4C4C4;}
	.st8{filter:url(#Adobe_OpacityMaskFilter);}
	.st9{fill-rule:evenodd;clip-rule:evenodd;fill:#FFFFFF;}
	.st10{mask:url(#mask-2_8_);fill-rule:evenodd;clip-rule:evenodd;}
	.st11{filter:url(#Adobe_OpacityMaskFilter_1_);}
	.st12{mask:url(#mask-2_7_);fill-rule:evenodd;clip-rule:evenodd;}
	.st13{filter:url(#Adobe_OpacityMaskFilter_2_);}
	.st14{mask:url(#mask-2_6_);fill-rule:evenodd;clip-rule:evenodd;}
	.st15{filter:url(#Adobe_OpacityMaskFilter_3_);}
	.st16{mask:url(#mask-2_5_);fill-rule:evenodd;clip-rule:evenodd;}
	.st17{filter:url(#Adobe_OpacityMaskFilter_4_);}
	.st18{mask:url(#mask-2_2_);fill:none;stroke:#000000;stroke-width:1.5;stroke-miterlimit:10;}
	.st19{fill:#B4A3EE;}
	.st20{fill:#434343;}
	.st21{fill:#434343;stroke:#F9F9F9;stroke-width:0.25;stroke-miterlimit:10;}
	.st22{fill:none;stroke:#FC6A55;stroke-width:0.5;stroke-miterlimit:10;}
	.st23{fill:none;stroke:#FC6A55;stroke-width:0.75;stroke-miterlimit:10;}
	.st24{fill:#FC6A55;stroke:#FC6A55;stroke-width:0.5;stroke-miterlimit:10;}
	.st25{opacity:0.153;fill:url(#Path_36_);enable-background:new    ;}
	.st26{opacity:0.1;fill:#590BB2;enable-background:new    ;}
	.st27{fill:#8E8CA8;}
	.st28{fill:#F5F4F9;}
	.st29{fill:#FFD5B8;}
	.st30{fill:#FC8473;}
	.st31{fill:#1C3475;}
	.st32{fill:#DDD9E4;}
	.st33{fill:#828FB3;}
	.st34{opacity:7.584635e-02;fill:url(#Path_37_);enable-background:new    ;}
	.st35{fill:#FFBE92;}
	.st36{fill:#FB8E7F;}
	.st37{fill:#FDB1A6;}
	.st38{fill:#FC806F;}
	.st39{fill:#FFE783;}
	.st40{fill:#104478;}
	.st41{fill:none;stroke:#FFFFFF;stroke-miterlimit:10;}
	.st42{fill:none;stroke:#000000;stroke-width:0.15;stroke-miterlimit:10;}
	.st43{opacity:0.1;fill:url(#Path_38_);enable-background:new    ;}
	.st44{opacity:0.1;fill:url(#Path_39_);enable-background:new    ;}
	.st45{fill-rule:evenodd;clip-rule:evenodd;fill:#FC6A55;}
	.st46{fill-rule:evenodd;clip-rule:evenodd;}
	.st47{fill:#FF6757;}
	.st48{fill:#666666;}
	.st49{fill:none;stroke:#FFFFFF;stroke-width:0.5;stroke-miterlimit:10;}
	.st50{fill:#F16A56;}
	.st51{fill:#515252;}
	.st52{fill:#F26A56;}
	.st53{fill:none;stroke:#F16A56;stroke-miterlimit:10;}
	.st54{fill:none;stroke:#929292;stroke-miterlimit:10;}
	.st55{fill:#929292;}
	.st56{fill:none;stroke:#000000;stroke-width:0.5;stroke-miterlimit:10;}
	.st57{fill:#A8A7A7;}
	.st58{fill:#F79F91;}
	.st59{fill:#9BDBD5;}
	.st60{fill:#222121;}
</style>
<g id="Safety_2_">
	<path class="st0" d="M55.2,18.5c-2.1-0.4-4.1,0.9-4.6,3l-2.3,8.6c-1.2-0.8-2.8-0.9-4.1-0.1L37.4,34c-2.7,1.6-4.4,4.5-4.4,7.6V49h-2
		c-0.5,0-1,0.4-1,1v7.8c0,0.5,0.4,1,1,1h17.6c0.5,0,1-0.4,1-1V50c0-0.5-0.4-1-1-1h-2v-1.1c0-0.9,0.4-1.7,1-2.2l4.6-3.9
		c0.8-0.6,1.3-1.5,1.5-2.4l4.3-15.9c0.1-0.3,0.1-0.7,0.1-1C58.3,20.5,57,18.9,55.2,18.5z M47.8,56.8H32.1V51h15.7V56.8z M56.3,22.9
		l-4.3,15.9c-0.2,0.6-0.5,1.1-0.9,1.5l-4.6,3.9c-1.1,0.9-1.7,2.3-1.7,3.7V49H35v-7.4c0-2.4,1.3-4.7,3.4-5.9l6.7-3.9
		c0.3-0.2,0.6-0.3,1-0.3c0.7,0,1.4,0.4,1.8,1.1c0.4,1,0.1,2.1-0.9,2.7l-5.5,3.2c-0.5,0.3-0.6,0.9-0.4,1.3s0.9,0.6,1.3,0.4l0,0
		l5.5-3.2c1.7-0.9,2.5-3,1.8-4.8l2.7-10c0.3-1.1,1.3-1.7,2.3-1.6c0.9,0.2,1.5,1,1.6,1.9C56.4,22.5,56.4,22.7,56.3,22.9L56.3,22.9z"
		/>
	<path class="st0" d="M27.2,49h-2v-7.4c0-3.1-1.7-6-4.4-7.6L14.2,30c-1.3-0.7-2.9-0.7-4.1,0.1l-2.3-8.6c-0.5-2.1-2.5-3.4-4.6-3
		c-2.1,0.4-3.5,2.5-3,4.7c0,0.1,0,0.1,0,0.2l4.3,15.9c0.3,1,0.8,1.8,1.5,2.4l4.6,3.9c0.7,0.6,1,1.4,1,2.2V49h-2c-0.5,0-1,0.4-1,1
		v7.8c0,0.5,0.4,1,1,1h17.6c0.5,0,1-0.4,1-1V50C28.2,49.4,27.7,49,27.2,49z M11.8,44.1l-4.6-3.9c-0.5-0.4-0.8-0.9-0.9-1.5L2,22.9
		C2,22.7,2,22.5,2,22.4c0-0.9,0.7-1.7,1.6-1.9C4.6,20.3,5.6,21,5.9,22l2.7,10c-0.6,1.8,0.1,3.9,1.8,4.8l5.5,3.2
		c0.5,0.3,1.1,0.1,1.3-0.4c0.3-0.5,0.1-1.1-0.4-1.3l-5.5-3.2c-0.9-0.5-1.3-1.7-0.9-2.7c0.3-0.7,1-1.1,1.7-1.1c0.3,0,0.7,0.1,1,0.3
		l6.7,3.9c2.1,1.2,3.4,3.5,3.4,5.9V49h-9.8v-1.1C13.5,46.4,12.9,45.1,11.8,44.1z M26.2,56.8H10.5V51h15.7V56.8z"/>
	<path class="st0" d="M44.8,13.3V1c0-0.5-0.4-1-1-1c-0.2,0-0.3,0-0.5,0.1L42,0.9C38.9,2.7,35,2.8,31.8,1.2l-2.2-1.1
		C29.3,0,29,0,28.7,0.1l-2.2,1.1c-3.2,1.6-7,1.5-10.2-0.3L15,0.1c-0.5-0.3-1.1-0.1-1.3,0.4c-0.1,0.1-0.1,0.3-0.1,0.5v12.3
		c0,9.1,5,17.4,13,21.6l2.2,1.2c0.3,0.2,0.6,0.2,0.9,0l2.2-1.2C39.9,30.7,44.9,22.4,44.8,13.3z M29.2,34.2l-1.8-1
		C20,29.3,15.4,21.7,15.4,13.3V2.7c3.7,2.1,8.2,2.2,11.9,0.3l1.8-0.9L30.9,3c3.8,1.9,8.3,1.8,11.9-0.3v10.7c0,8.3-4.6,16-11.9,19.9
		L29.2,34.2z"/>
	<path class="st0" d="M40.9,6.9c0-0.5-0.4-1-1-1c-0.1,0-0.1,0-0.2,0c-3.3,0.7-6.7,0.3-9.7-1.2l-0.5-0.2c-0.3-0.1-0.6-0.1-0.9,0
		l-0.5,0.2c-3,1.5-6.4,1.9-9.7,1.2c-0.5-0.1-1,0.2-1.2,0.8c0,0.1,0,0.1,0,0.2v6.4c0,7.6,4.2,14.6,10.9,18.2l0.4,0.2
		c0.3,0.2,0.6,0.2,0.9,0l0.4-0.2c6.7-3.6,10.9-10.6,10.9-18.2V6.9z M39,13.3c0,6.9-3.8,13.2-9.8,16.4c-6-3.2-9.8-9.5-9.8-16.4V8.1
		c3.3,0.5,6.8-0.1,9.8-1.6l0,0l0,0c3,1.5,6.4,2.1,9.8,1.6V13.3z"/>
	<path class="st0" d="M34.7,11.7l-7.5,7.5l-3.1-3.1c-0.4-0.4-1-0.4-1.4,0c-0.4,0.4-0.4,1,0,1.4l3.8,3.8c0.4,0.4,1,0.4,1.4,0l8.2-8.2
		c0.4-0.4,0.4-1,0-1.4C35.7,11.3,35.1,11.3,34.7,11.7C34.7,11.7,34.7,11.7,34.7,11.7L34.7,11.7z"/>
</g>
</svg>
