<?xml version="1.0" encoding="utf-8"?>
<!-- Generator: Adobe Illustrator 24.0.2, SVG Export Plug-In . SVG Version: 6.00 Build 0)  -->
<svg version="1.1" id="Layer_1" xmlns="http://www.w3.org/2000/svg" xmlns:xlink="http://www.w3.org/1999/xlink" x="0px" y="0px"
	 viewBox="0 0 18 24" style="enable-background:new 0 0 18 24;" xml:space="preserve">
<style type="text/css">
	.st0{fill:#FC6A55;}
	.st1{stroke:#FFFFFF;stroke-width:0.25;stroke-miterlimit:10;}
	.st2{fill:#656D7A;}
	.st3{fill:#FFFFFF;}
	.st4{filter:url(#Adobe_OpacityMaskFilter);}
	.st5{fill-rule:evenodd;clip-rule:evenodd;fill:#FFFFFF;}
	.st6{mask:url(#mask-2_8_);fill-rule:evenodd;clip-rule:evenodd;}
	.st7{filter:url(#Adobe_OpacityMaskFilter_1_);}
	.st8{mask:url(#mask-2_7_);fill-rule:evenodd;clip-rule:evenodd;}
	.st9{filter:url(#Adobe_OpacityMaskFilter_2_);}
	.st10{mask:url(#mask-2_6_);fill-rule:evenodd;clip-rule:evenodd;}
	.st11{filter:url(#Adobe_OpacityMaskFilter_3_);}
	.st12{mask:url(#mask-2_5_);fill-rule:evenodd;clip-rule:evenodd;}
	.st13{filter:url(#Adobe_OpacityMaskFilter_4_);}
	.st14{mask:url(#mask-2_2_);fill:none;stroke:#000000;stroke-width:2;}
	.st15{fill:#434343;}
	.st16{fill:#434343;stroke:#F9F9F9;stroke-width:0.25;stroke-miterlimit:10;}
	.st17{fill:none;stroke:#FC6A55;stroke-width:0.5;stroke-miterlimit:10;}
	.st18{fill:none;stroke:#FC6A55;stroke-width:0.75;stroke-miterlimit:10;}
	.st19{fill:#FC6A55;stroke:#FC6A55;stroke-width:0.5;stroke-miterlimit:10;}
	.st20{opacity:0.153;fill:url(#Path_146_);enable-background:new    ;}
	.st21{opacity:0.1;fill:#590BB2;enable-background:new    ;}
	.st22{fill:#8E8CA8;}
	.st23{fill:#F5F4F9;}
	.st24{fill:#FFD5B8;}
	.st25{fill:#FC8473;}
	.st26{fill:#1C3475;}
	.st27{fill:#DDD9E4;}
	.st28{fill:#828FB3;}
	.st29{opacity:7.584635e-02;fill:url(#Path_147_);enable-background:new    ;}
	.st30{fill:#FFBE92;}
	.st31{fill:#FB8E7F;}
	.st32{fill:#FDB1A6;}
	.st33{fill:#FC806F;}
	.st34{fill:#FFE783;}
	.st35{fill:#104478;}
	.st36{fill:none;stroke:#FFFFFF;stroke-miterlimit:10;}
	.st37{fill:none;stroke:#FC6A55;stroke-miterlimit:10;}
	.st38{fill:none;stroke:#000000;stroke-width:0.15;stroke-miterlimit:10;}
	.st39{opacity:0.1;fill:url(#Path_148_);enable-background:new    ;}
	.st40{opacity:0.1;fill:url(#Path_149_);enable-background:new    ;}
</style>
<g>
	<g id="XMLID_12_">
		<g id="XMLID_13_">
			<path id="XMLID_15_" d="M13.2,7.6c0-0.7-0.2-1.4-0.6-1.9c0-0.1-0.1-0.1-0.2,0c-0.1,0-0.1,0.1,0,0.2c0.2,0.2,0.3,0.5,0.4,0.7h-0.6
				c-0.1-0.2-0.2-0.4-0.5-0.4c-0.2-0.7-0.5-1.2-0.9-1.6c0.3,0.1,0.5,0.2,0.8,0.4c0.1,0,0.1,0,0.2,0c0-0.1,0-0.1,0-0.2
				c-0.6-0.4-1.2-0.6-1.9-0.6c-0.9,0-1.8,0.4-2.4,1c-0.6,0.6-1,1.5-1,2.4c0,1,0.4,1.9,1.1,2.5c0,0,0,0.1,0,0.1v0.7
				c0,0.1,0.1,0.1,0.1,0.1H12c0.1,0,0.1-0.1,0.1-0.1v-0.7c0,0,0-0.1,0-0.1C12.8,9.4,13.2,8.5,13.2,7.6z M13,7.6c0,0.3,0,0.5-0.1,0.8
				h-0.7c0-0.2-0.2-0.3-0.3-0.3c0-0.1,0-0.3,0-0.4s0-0.3,0-0.4c0.1-0.1,0.3-0.2,0.3-0.3h0.7C12.9,7,13,7.3,13,7.6z M9.8,9.8
				C9.7,9.6,9.5,9.5,9.3,9.5h0c0.1-0.1,0.1-0.2,0.1-0.3V9c0-0.2-0.1-0.4-0.2-0.5c0.1,0,0.1-0.1,0.2-0.1h1c0.1,0,0.2,0,0.2,0.1
				c-0.1,0.1-0.2,0.3-0.2,0.5v0.2c0,0.1,0,0.2,0.1,0.3h0C10.2,9.5,10,9.6,9.8,9.8L9.8,9.8z M7.5,8.3H6.8C6.7,8.1,6.7,7.8,6.7,7.6
				c0-0.3,0-0.5,0.1-0.8h0.7c0,0.2,0.2,0.3,0.3,0.3c0,0.1,0,0.3,0,0.4c0,0.1,0,0.3,0,0.4C7.7,8.1,7.6,8.2,7.5,8.3z M9.7,4.4v2.1H8.5
				c0-0.1-0.1-0.3-0.3-0.3c0.1-0.5,0.4-1,0.6-1.3C9.1,4.6,9.4,4.5,9.7,4.4z M11.2,6.8c0.1,0.2,0.2,0.3,0.4,0.4c0,0.1,0,0.3,0,0.4
				s0,0.3,0,0.4c-0.2,0-0.4,0.2-0.4,0.5c-0.1,0-0.2-0.1-0.2-0.1c0,0,0,0-0.1,0c-0.1-0.1-0.3-0.2-0.5-0.2h0c0.1-0.1,0.1-0.2,0.1-0.3
				V7.7c0-0.3-0.2-0.5-0.4-0.6V6.8H11.2z M9.5,7.9V7.7c0-0.2,0.1-0.3,0.3-0.3c0.2,0,0.3,0.1,0.3,0.3v0.2c0,0.2-0.1,0.3-0.3,0.3
				C9.7,8.2,9.5,8,9.5,7.9L9.5,7.9z M9.7,7.1C9.5,7.2,9.3,7.4,9.3,7.7v0.2c0,0.1,0,0.2,0.1,0.3h0c-0.2,0-0.4,0.1-0.5,0.2
				c0,0,0,0-0.1,0c-0.1,0-0.2,0-0.2,0.1C8.5,8.2,8.3,8,8.1,8c0-0.1,0-0.3,0-0.4c0-0.1,0-0.3,0-0.4c0.2,0,0.4-0.2,0.4-0.4h1.2V7.1z
				 M8,6.4c0.1,0,0.2,0.1,0.2,0.2c0,0.1-0.1,0.2-0.2,0.2c-0.1,0-0.2-0.1-0.2-0.2C7.8,6.5,7.9,6.4,8,6.4z M8,8.2
				c0.1,0,0.2,0.1,0.2,0.2c0,0.1-0.1,0.2-0.2,0.2c-0.1,0-0.2-0.1-0.2-0.2C7.8,8.3,7.9,8.2,8,8.2z M8.4,9.2V9c0-0.2,0.1-0.3,0.3-0.3
				S9.1,8.8,9.1,9v0.2c0,0.2-0.1,0.3-0.3,0.3S8.4,9.3,8.4,9.2z M10.6,9.2V9c0-0.2,0.1-0.3,0.3-0.3c0.2,0,0.3,0.1,0.3,0.3v0.2
				c0,0.2-0.1,0.3-0.3,0.3C10.8,9.5,10.6,9.3,10.6,9.2z M11.4,8.5c0-0.1,0.1-0.2,0.2-0.2c0.1,0,0.2,0.1,0.2,0.2
				c0,0.1-0.1,0.2-0.2,0.2C11.5,8.7,11.4,8.6,11.4,8.5z M11.9,6.7c0,0.1-0.1,0.2-0.2,0.2c-0.1,0-0.2-0.1-0.2-0.2s0.1-0.2,0.2-0.2
				C11.8,6.4,11.9,6.5,11.9,6.7z M11.4,6.2c-0.1,0.1-0.2,0.2-0.3,0.3H10V4.4c0.3,0,0.6,0.2,0.8,0.5C11.1,5.3,11.3,5.7,11.4,6.2z
				 M8.8,4.6C8.5,4.9,8.2,5.5,8,6.2c-0.2,0-0.4,0.2-0.5,0.4H6.9C7.2,5.6,7.9,4.9,8.8,4.6z M6.9,8.6h0.6C7.6,8.8,7.8,9,8,9
				c0.1,0,0.1,0,0.2,0c0,0,0,0,0,0.1v0.2c0,0.1,0,0.2,0.1,0.3h0C8,9.5,7.8,9.6,7.6,9.8C7.3,9.5,7,9,6.9,8.6L6.9,8.6z M9.7,10.7H7.8
				v-0.5c0-0.2,0.2-0.4,0.4-0.4h1c0.2,0,0.4,0.2,0.4,0.4L9.7,10.7L9.7,10.7z M11.9,10.7H10v-0.5c0-0.2,0.2-0.4,0.4-0.4h1
				c0.2,0,0.4,0.2,0.4,0.4L11.9,10.7L11.9,10.7z M11.5,9.5L11.5,9.5c0-0.1,0.1-0.2,0.1-0.3V9c0,0,0,0,0-0.1c0.1,0,0.1,0,0.2,0
				c0.2,0,0.4-0.2,0.5-0.4h0.6C12.6,9,12.4,9.5,12,9.8C11.9,9.6,11.7,9.5,11.5,9.5L11.5,9.5z"/>
			<path id="XMLID_14_" d="M12.2,5.4C12.2,5.4,12.2,5.4,12.2,5.4c0.1-0.1,0.1-0.1,0.1-0.1c0,0,0-0.1,0-0.1c0,0-0.1,0-0.1,0
				c0,0-0.1,0-0.1,0c0,0,0,0.1,0,0.1C12,5.3,12,5.3,12.2,5.4C12.1,5.4,12.1,5.4,12.2,5.4z"/>
		</g>
	</g>
	<path d="M8.1,2.4c-2.8,1-4.3,4-3.4,6.9c0.4,1.1,1.1,2.1,2.1,2.7c0.9,0.6,2.1,1,3.2,0.9c0,0,0.1,0,0.1,0c0.2-0.1,0.3-0.2,0.3-0.4
		c0-0.2-0.2-0.4-0.4-0.4C8,12.2,6.1,11,5.5,9.1C4.7,6.6,5.9,4,8.3,3.2c2.4-0.8,5,0.5,5.9,2.9c0.7,1.9,0,4.1-1.7,5.2
		c-0.2,0.1-0.2,0.4-0.1,0.6c0.1,0.2,0.4,0.2,0.6,0.1c0.9-0.7,1.6-1.6,2-2.7c0.4-1.1,0.4-2.3,0-3.4C14,3,10.9,1.5,8.1,2.4z"/>
	<path d="M11.3,11.9c-0.2,0.1-0.3,0.3-0.2,0.5l0,0c0.1,0.2,0.3,0.3,0.5,0.2c0.2-0.1,0.3-0.3,0.2-0.5l0,0
		C11.8,12,11.5,11.8,11.3,11.9z"/>
	<path d="M7.5,0.7C3.7,2,1.7,6.1,3,9.9c0.5,1.6,1.6,2.8,2.8,3.7L5,15.3L4.4,15c-0.1,0-0.2-0.1-0.3,0c-0.1,0-0.2,0.1-0.2,0.2
		l-2.7,5.6c-0.5,1-0.1,2.2,0.9,2.7c0.5,0.2,1,0.3,1.5,0.1c0,0,0,0,0,0c0.5-0.2,0.9-0.5,1.1-1L7.5,17c0.1-0.2,0-0.4-0.2-0.5l-0.6-0.3
		l0.8-1.7c1.5,0.5,3.1,0.5,4.6,0C16,13.1,18,9,16.7,5.2S11.3-0.6,7.5,0.7z M6.3,17.6l-0.9-0.5c-0.2-0.1-0.4,0-0.5,0.2
		c-0.1,0.2,0,0.4,0.2,0.5l0.9,0.5L4,22.2c-0.1,0.3-0.4,0.5-0.7,0.6c-0.3,0.1-0.6,0.1-0.9-0.1c-0.6-0.3-0.8-1-0.6-1.6l2.6-5.2L5,16.2
		c0,0,0,0,0,0l0.7,0.3L6.6,17L6.3,17.6z M6,15.8l-0.3-0.1L6.5,14c0.1,0,0.2,0.1,0.3,0.1L6,15.8z M11.9,13.6c-3.4,1.1-7-0.6-8.2-4
		c-1.1-3.4,0.6-7,4-8.2c3.4-1.1,7,0.6,8.2,4C17.1,8.8,15.3,12.5,11.9,13.6z"/>
</g>
</svg>
