<?xml version="1.0" encoding="utf-8"?>
<!-- Generator: Adobe Illustrator 24.2.0, SVG Export Plug-In . SVG Version: 6.00 Build 0)  -->
<svg version="1.1" id="Layer_1" xmlns="http://www.w3.org/2000/svg" xmlns:xlink="http://www.w3.org/1999/xlink" x="0px" y="0px"
	 viewBox="0 0 54 48" style="enable-background:new 0 0 54 48;" xml:space="preserve">
<style type="text/css">
	.st0{fill:#6F6F6F;stroke:#6F6F6F;stroke-width:0.25;stroke-miterlimit:10;}
	.st1{fill:#FC6A55;}
	.st2{fill:#EDEDED;}
	.st3{fill:none;stroke:#FC6A55;stroke-miterlimit:10;}
	.st4{fill:#222F3F;}
	.st5{fill:#383838;}
	.st6{fill:#FFFFFF;}
	.st7{fill:#B0B0B0;}
	.st8{fill:#656D7A;}
	.st9{fill:#C4C4C4;}
	.st10{filter:url(#Adobe_OpacityMaskFilter);}
	.st11{fill-rule:evenodd;clip-rule:evenodd;fill:#FFFFFF;}
	.st12{mask:url(#mask-2_8_);fill-rule:evenodd;clip-rule:evenodd;fill:#B0B0B0;}
	.st13{filter:url(#Adobe_OpacityMaskFilter_1_);}
	.st14{mask:url(#mask-2_7_);fill-rule:evenodd;clip-rule:evenodd;fill:#B0B0B0;}
	.st15{filter:url(#Adobe_OpacityMaskFilter_2_);}
	.st16{mask:url(#mask-2_6_);fill-rule:evenodd;clip-rule:evenodd;fill:#B0B0B0;}
	.st17{filter:url(#Adobe_OpacityMaskFilter_3_);}
	.st18{mask:url(#mask-2_5_);fill-rule:evenodd;clip-rule:evenodd;fill:#B0B0B0;}
	.st19{filter:url(#Adobe_OpacityMaskFilter_4_);}
	.st20{mask:url(#mask-2_2_);fill:none;stroke:#B0B0B0;stroke-width:1.5;stroke-miterlimit:10;}
	.st21{filter:url(#Adobe_OpacityMaskFilter_5_);}
	.st22{mask:url(#mask-2_10_);fill-rule:evenodd;clip-rule:evenodd;fill:#FC6A55;}
	.st23{filter:url(#Adobe_OpacityMaskFilter_6_);}
	.st24{mask:url(#mask-2_9_);fill-rule:evenodd;clip-rule:evenodd;fill:#FC6A55;}
	.st25{filter:url(#Adobe_OpacityMaskFilter_7_);}
	.st26{mask:url(#mask-2_4_);fill-rule:evenodd;clip-rule:evenodd;fill:#FC6A55;}
	.st27{filter:url(#Adobe_OpacityMaskFilter_8_);}
	.st28{mask:url(#mask-2_3_);fill-rule:evenodd;clip-rule:evenodd;fill:#FC6A55;}
	.st29{filter:url(#Adobe_OpacityMaskFilter_9_);}
	.st30{mask:url(#mask-2_1_);fill:none;stroke:#FC6A55;stroke-width:1.5;stroke-miterlimit:10;}
	.st31{fill:#B4A3EE;}
	.st32{fill:#222121;}
	.st33{fill:none;stroke:#FC6A55;stroke-width:0.75;stroke-miterlimit:10;}
	.st34{fill:#FC6A55;stroke:#FC6A55;stroke-width:0.25;stroke-miterlimit:10;}
	.st35{fill:#FC6A55;stroke:#FC6A55;stroke-width:0.5;stroke-miterlimit:10;}
	.st36{opacity:0.5;fill:#FC6A55;}
	.st37{fill:#F5F4F9;}
	.st38{opacity:0.153;fill:url(#Path_144_);enable-background:new    ;}
	.st39{opacity:0.1;fill:#590BB2;enable-background:new    ;}
	.st40{fill:#8E8CA8;}
	.st41{fill:#FFD5B8;}
	.st42{fill:#FC8473;}
	.st43{fill:#1C3475;}
	.st44{fill:#DDD9E4;}
	.st45{fill:#828FB3;}
	.st46{opacity:7.584635e-02;fill:url(#Path_145_);enable-background:new    ;}
	.st47{fill:#FFBE92;}
	.st48{fill:#FB8E7F;}
	.st49{fill:#FDB1A6;}
	.st50{fill:#FC806F;}
	.st51{fill:#FFE783;}
	.st52{fill:#104478;}
	.st53{fill:none;stroke:#FFFFFF;stroke-miterlimit:10;}
	.st54{fill:none;stroke:#000000;stroke-width:0.15;stroke-miterlimit:10;}
	.st55{opacity:0.3;fill:#FC6A55;}
	.st56{opacity:0.4;fill:#FC6A55;}
	.st57{opacity:0.1;fill:url(#Path_147_);enable-background:new    ;}
	.st58{opacity:0.1;fill:url(#Path_150_);enable-background:new    ;}
	.st59{fill-rule:evenodd;clip-rule:evenodd;fill:#FC6A55;}
	.st60{fill-rule:evenodd;clip-rule:evenodd;}
	.st61{fill:#FF6757;}
	.st62{fill:#6C973D;}
	.st63{fill:none;stroke:#FFFFFF;stroke-width:0.5;stroke-miterlimit:10;}
	.st64{fill:#606060;}
	.st65{fill:#F16A56;}
	.st66{fill:#515252;}
	.st67{fill:#656565;}
	.st68{fill:#F26A56;}
	.st69{fill:none;stroke:#F16A56;stroke-miterlimit:10;}
	.st70{fill:none;stroke:#929292;stroke-miterlimit:10;}
	.st71{fill:#929292;}
	.st72{fill:none;stroke:#000000;stroke-width:0.5;stroke-miterlimit:10;}
	.st73{fill:#A8A7A7;}
	.st74{fill:#F79F91;}
	.st75{fill:#9BDBD5;}
	.st76{stroke:#000000;stroke-width:0.25;stroke-miterlimit:10;}
	.st77{fill:#6F6F6F;}
	.st78{fill:none;stroke:#6F6F6F;stroke-width:0.75;stroke-miterlimit:10;}
</style>
<g>
	<path class="st1" d="M46.9,7.1h-1.5V4.1C45.4,2.4,44,1,42.3,1H11.7C10,1,8.6,2.4,8.6,4.1v3.1H7.1C5.4,7.1,4,8.5,4,10.2v26.1
		c0,1.7,1.4,3.1,3.1,3.1h15.1l-1.8,6.1h-1.7V47h16.9v-1.5h-1.7l-1.8-6.1h15.1c1.7,0,3.1-1.4,3.1-3.1V10.2C50,8.5,48.6,7.1,46.9,7.1z
		 M5.5,10.2c0-0.8,0.7-1.5,1.5-1.5h1.5v23h1.5V4.1c0-0.8,0.7-1.5,1.5-1.5h30.7c0.8,0,1.5,0.7,1.5,1.5v27.6h1.5v-23h1.5
		c0.8,0,1.5,0.7,1.5,1.5v23H5.5V10.2z M32.1,45.5H21.9l1.8-6.1h6.5L32.1,45.5z M48.5,36.3c0,0.8-0.7,1.5-1.5,1.5H7.1
		c-0.8,0-1.5-0.7-1.5-1.5v-1.5h42.9V36.3z"/>
	<path class="st1" d="M11.7,4.1h1.5v1.5h-1.5V4.1z"/>
	<path class="st1" d="M14.7,4.1h1.5v1.5h-1.5V4.1z"/>
	<path class="st1" d="M17.8,4.1h1.5v1.5h-1.5V4.1z"/>
	<path class="st1" d="M37,14.3l4-0.9l0.3,1.5l-4,0.9L37,14.3z"/>
	<path class="st1" d="M34.9,7.4l2.3-2.3l1.1,1.1L36,8.4L34.9,7.4z"/>
	<path class="st1" d="M38.2,22.4l0.7-1.4l3.1,1.5l-0.7,1.4L38.2,22.4z"/>
	<path class="st1" d="M33.4,5.9c-0.3-1.3-1.6-2.1-2.9-1.8S28.4,5.7,28.7,7L29,8l-9.6,6.1L15.5,15c-2.3,0.5-3.9,2.6-3.8,5
		c0.1,2.4,1.9,4.3,4.3,4.5l1.3,5.9c0.1,0.4,0.5,0.7,0.9,0.6l3.2-0.7c0.4-0.1,0.7-0.5,0.6-0.9l-1.2-5.6l0.7-0.2l11.3,1.4l0.2,1
		c0.2,1.1,1.2,1.9,2.3,1.9c0.7,0,1.4-0.3,1.9-0.9c0.5-0.6,0.6-1.3,0.5-2L33.4,5.9z M13.3,20.4c-0.4-1.8,0.7-3.5,2.5-3.9l3.2-0.7
		l0.7,3.2l0.7,3.2l-0.8,0.2l-2.4,0.5C15.5,23.3,13.7,22.2,13.3,20.4L13.3,20.4z M20.3,28.9l-1.7,0.4l-1.1-4.8l0,0l1.6-0.4L20.3,28.9
		z M22,22.1l-1.5-6.9l8.8-5.6l3.1,13.7L22,22.1z M35.5,26.3c-0.2,0.1-0.5,0-0.7-0.1c-0.2-0.1-0.3-0.3-0.4-0.5l-4.2-19
		c0-0.2,0-0.5,0.1-0.6s0.3-0.3,0.5-0.4c0.5-0.1,0.9,0.2,1,0.7l4.2,19C36.2,25.7,35.9,26.1,35.5,26.3L35.5,26.3z"/>
</g>
</svg>
