<?xml version="1.0" encoding="utf-8"?>
<!-- Generator: Adobe Illustrator 24.2.0, SVG Export Plug-In . SVG Version: 6.00 Build 0)  -->
<svg version="1.1" id="Layer_1" xmlns="http://www.w3.org/2000/svg" xmlns:xlink="http://www.w3.org/1999/xlink" x="0px" y="0px"
	 viewBox="0 0 54 48" style="enable-background:new 0 0 54 48;" xml:space="preserve">
<style type="text/css">
	.st0{fill:#6F6F6F;stroke:#6F6F6F;stroke-width:0.25;stroke-miterlimit:10;}
	.st1{fill:#FC6A55;}
	.st2{fill:#EDEDED;}
	.st3{fill:none;stroke:#FC6A55;stroke-miterlimit:10;}
	.st4{fill:#222F3F;}
	.st5{fill:#383838;}
	.st6{fill:#FFFFFF;}
	.st7{fill:#B0B0B0;}
	.st8{fill:#656D7A;}
	.st9{fill:#C4C4C4;}
	.st10{filter:url(#Adobe_OpacityMaskFilter);}
	.st11{fill-rule:evenodd;clip-rule:evenodd;fill:#FFFFFF;}
	.st12{mask:url(#mask-2_8_);fill-rule:evenodd;clip-rule:evenodd;fill:#B0B0B0;}
	.st13{filter:url(#Adobe_OpacityMaskFilter_1_);}
	.st14{mask:url(#mask-2_7_);fill-rule:evenodd;clip-rule:evenodd;fill:#B0B0B0;}
	.st15{filter:url(#Adobe_OpacityMaskFilter_2_);}
	.st16{mask:url(#mask-2_6_);fill-rule:evenodd;clip-rule:evenodd;fill:#B0B0B0;}
	.st17{filter:url(#Adobe_OpacityMaskFilter_3_);}
	.st18{mask:url(#mask-2_5_);fill-rule:evenodd;clip-rule:evenodd;fill:#B0B0B0;}
	.st19{filter:url(#Adobe_OpacityMaskFilter_4_);}
	.st20{mask:url(#mask-2_2_);fill:none;stroke:#B0B0B0;stroke-width:1.5;stroke-miterlimit:10;}
	.st21{filter:url(#Adobe_OpacityMaskFilter_5_);}
	.st22{mask:url(#mask-2_10_);fill-rule:evenodd;clip-rule:evenodd;fill:#FC6A55;}
	.st23{filter:url(#Adobe_OpacityMaskFilter_6_);}
	.st24{mask:url(#mask-2_9_);fill-rule:evenodd;clip-rule:evenodd;fill:#FC6A55;}
	.st25{filter:url(#Adobe_OpacityMaskFilter_7_);}
	.st26{mask:url(#mask-2_4_);fill-rule:evenodd;clip-rule:evenodd;fill:#FC6A55;}
	.st27{filter:url(#Adobe_OpacityMaskFilter_8_);}
	.st28{mask:url(#mask-2_3_);fill-rule:evenodd;clip-rule:evenodd;fill:#FC6A55;}
	.st29{filter:url(#Adobe_OpacityMaskFilter_9_);}
	.st30{mask:url(#mask-2_1_);fill:none;stroke:#FC6A55;stroke-width:1.5;stroke-miterlimit:10;}
	.st31{fill:#B4A3EE;}
	.st32{fill:#222121;}
	.st33{fill:none;stroke:#FC6A55;stroke-width:0.75;stroke-miterlimit:10;}
	.st34{fill:#FC6A55;stroke:#FC6A55;stroke-width:0.25;stroke-miterlimit:10;}
	.st35{fill:#FC6A55;stroke:#FC6A55;stroke-width:0.5;stroke-miterlimit:10;}
	.st36{opacity:0.5;fill:#FC6A55;}
	.st37{fill:#F5F4F9;}
	.st38{opacity:0.153;fill:url(#Path_144_);enable-background:new    ;}
	.st39{opacity:0.1;fill:#590BB2;enable-background:new    ;}
	.st40{fill:#8E8CA8;}
	.st41{fill:#FFD5B8;}
	.st42{fill:#FC8473;}
	.st43{fill:#1C3475;}
	.st44{fill:#DDD9E4;}
	.st45{fill:#828FB3;}
	.st46{opacity:7.584635e-02;fill:url(#Path_145_);enable-background:new    ;}
	.st47{fill:#FFBE92;}
	.st48{fill:#FB8E7F;}
	.st49{fill:#FDB1A6;}
	.st50{fill:#FC806F;}
	.st51{fill:#FFE783;}
	.st52{fill:#104478;}
	.st53{fill:none;stroke:#FFFFFF;stroke-miterlimit:10;}
	.st54{fill:none;stroke:#000000;stroke-width:0.15;stroke-miterlimit:10;}
	.st55{opacity:0.3;fill:#FC6A55;}
	.st56{opacity:0.4;fill:#FC6A55;}
	.st57{opacity:0.1;fill:url(#Path_147_);enable-background:new    ;}
	.st58{opacity:0.1;fill:url(#Path_150_);enable-background:new    ;}
	.st59{fill-rule:evenodd;clip-rule:evenodd;fill:#FC6A55;}
	.st60{fill-rule:evenodd;clip-rule:evenodd;}
	.st61{fill:#FF6757;}
	.st62{fill:#6C973D;}
	.st63{fill:none;stroke:#FFFFFF;stroke-width:0.5;stroke-miterlimit:10;}
	.st64{fill:#606060;}
	.st65{fill:#F16A56;}
	.st66{fill:#515252;}
	.st67{fill:#656565;}
	.st68{fill:#F26A56;}
	.st69{fill:none;stroke:#F16A56;stroke-miterlimit:10;}
	.st70{fill:none;stroke:#929292;stroke-miterlimit:10;}
	.st71{fill:#929292;}
	.st72{fill:none;stroke:#000000;stroke-width:0.5;stroke-miterlimit:10;}
	.st73{fill:#A8A7A7;}
	.st74{fill:#F79F91;}
	.st75{fill:#9BDBD5;}
	.st76{stroke:#000000;stroke-width:0.25;stroke-miterlimit:10;}
	.st77{fill:#6F6F6F;}
	.st78{fill:none;stroke:#6F6F6F;stroke-width:0.75;stroke-miterlimit:10;}
</style>
<g>
	<path class="st1" d="M45.4,32.5l-4-4l-1.6,1l-0.4-1.8h-2.1v-1.5H13.6v10.4H27v3.5l1.8,0.4l-0.9,1.6l4,4l1.6-1l0.4,1.8h5.6l0.4-1.8
		l1.6,1l4-4l-0.9-1.6l1.8-0.4v-5.6l-1.8-0.4L45.4,32.5z M37.4,37.4c0,0.4-0.3,0.7-0.7,0.7s-0.7-0.3-0.7-0.7s0.3-0.7,0.7-0.7
		S37.4,36.9,37.4,37.4z M35.9,35.1H21.1v-3h14.8V35.1z M33,36.6h1.5c-0.1,0.2-0.1,0.5-0.1,0.7c0,1.2,1,2.2,2.2,2.2s2.2-1,2.2-2.2
		c0-1-0.6-1.8-1.5-2.1v-1.5c1.7,0.3,3,1.8,3,3.6c0,2-1.7,3.7-3.7,3.7s-3.7-1.7-3.7-3.7C32.9,37.1,33,36.9,33,36.6z M35.9,30.7H21.1
		v-3h14.8V30.7z M19.6,27.7v3h-4.5v-3H19.6z M15.1,32.2h4.5v3h-4.5V32.2z M44.8,35.7V39l-1.4,0.4L43,39.5l-0.3,0.8l1,1.6l-2.3,2.3
		l-1.6-1l-0.9,0.4l-0.5,1.8H35l-0.5-1.8l-0.9-0.4l-1.6,1L29.7,42l1-1.6l-0.4-0.9L28.5,39v-2.4h3c0,0.2-0.1,0.5-0.1,0.7
		c0,2.9,2.3,5.2,5.2,5.2c2.9,0,5.2-2.3,5.2-5.2c0-2.6-1.9-4.8-4.5-5.1v-3h0.9l0.5,1.8l0.9,0.4l1.6-1l2.3,2.3l-1,1.6l0.4,0.9
		L44.8,35.7z"/>
	<path class="st1" d="M26.3,15.8v7.4H50v-7.4H26.3z M27.7,17.3h4.5v4.5h-4.5V17.3z M48.5,21.8H33.7v-4.5h14.8V21.8z"/>
	<path class="st1" d="M24,38.1h1.5v1.5H24V38.1z"/>
	<path class="st1" d="M21.1,38.1h1.5v1.5h-1.5V38.1z"/>
	<path class="st1" d="M5.5,35.9V22.5c0-1.2,1-2.2,2.2-2.2h9.6v3.4l8.3-4.2l-8.3-4.2v3.4H7.7c-2,0-3.7,1.7-3.7,3.7v13.4
		c0,2,1.7,3.7,3.7,3.7h11.9v-1.5H7.7C6.5,38.1,5.5,37.1,5.5,35.9z M18.8,17.8l3.5,1.8l-3.5,1.8V17.8z"/>
	<path class="st1" d="M32.2,1H8.5v10.4h23.7V1z M30.7,5.5H15.9v-3h14.8V5.5z M14.4,2.5v3H9.9v-3H14.4z M9.9,6.9h4.5v3H9.9V6.9z
		 M15.9,9.9v-3h14.8v3H15.9z"/>
	<path class="st1" d="M39.6,18.8h1.5v1.5h-1.5V18.8z"/>
	<path class="st1" d="M42.6,18.8h1.5v1.5h-1.5V18.8z"/>
	<path class="st1" d="M45.5,18.8H47v1.5h-1.5V18.8z"/>
	<path class="st1" d="M33.7,5.5h1.5v1.5h-1.5V5.5z"/>
	<path class="st1" d="M44.1,7.7v2.2h-3l3.7,4.9l3.7-4.9h-3V7.7c0-1.2-1-2.2-2.2-2.2h-6.7v1.5h6.7C43.7,6.9,44.1,7.3,44.1,7.7z
		 M44.8,12.4l-0.7-1h1.5L44.8,12.4z"/>
</g>
</svg>
