<?xml version="1.0" encoding="utf-8"?>
<!-- Generator: Adobe Illustrator 24.2.0, SVG Export Plug-In . SVG Version: 6.00 Build 0)  -->
<svg version="1.1" id="Layer_1" xmlns="http://www.w3.org/2000/svg" xmlns:xlink="http://www.w3.org/1999/xlink" x="0px" y="0px"
	 viewBox="0 0 42 42" style="enable-background:new 0 0 42 42;" xml:space="preserve">
<style type="text/css">
	.st0{fill:#6F6F6F;stroke:#6F6F6F;stroke-width:0.25;stroke-miterlimit:10;}
	.st1{fill:#FC6A55;}
	.st2{fill:#EDEDED;}
	.st3{fill:none;stroke:#FC6A55;stroke-miterlimit:10;}
	.st4{fill:#222F3F;}
	.st5{fill:#383838;}
	.st6{fill:#FFFFFF;}
	.st7{fill:#B0B0B0;}
	.st8{fill:#656D7A;}
	.st9{fill:#C4C4C4;}
	.st10{filter:url(#Adobe_OpacityMaskFilter);}
	.st11{fill-rule:evenodd;clip-rule:evenodd;fill:#FFFFFF;}
	.st12{mask:url(#mask-2_8_);fill-rule:evenodd;clip-rule:evenodd;fill:#B0B0B0;}
	.st13{filter:url(#Adobe_OpacityMaskFilter_1_);}
	.st14{mask:url(#mask-2_7_);fill-rule:evenodd;clip-rule:evenodd;fill:#B0B0B0;}
	.st15{filter:url(#Adobe_OpacityMaskFilter_2_);}
	.st16{mask:url(#mask-2_6_);fill-rule:evenodd;clip-rule:evenodd;fill:#B0B0B0;}
	.st17{filter:url(#Adobe_OpacityMaskFilter_3_);}
	.st18{mask:url(#mask-2_5_);fill-rule:evenodd;clip-rule:evenodd;fill:#B0B0B0;}
	.st19{filter:url(#Adobe_OpacityMaskFilter_4_);}
	.st20{mask:url(#mask-2_2_);fill:none;stroke:#B0B0B0;stroke-width:1.5;stroke-miterlimit:10;}
	.st21{filter:url(#Adobe_OpacityMaskFilter_5_);}
	.st22{mask:url(#mask-2_10_);fill-rule:evenodd;clip-rule:evenodd;fill:#FC6A55;}
	.st23{filter:url(#Adobe_OpacityMaskFilter_6_);}
	.st24{mask:url(#mask-2_9_);fill-rule:evenodd;clip-rule:evenodd;fill:#FC6A55;}
	.st25{filter:url(#Adobe_OpacityMaskFilter_7_);}
	.st26{mask:url(#mask-2_4_);fill-rule:evenodd;clip-rule:evenodd;fill:#FC6A55;}
	.st27{filter:url(#Adobe_OpacityMaskFilter_8_);}
	.st28{mask:url(#mask-2_3_);fill-rule:evenodd;clip-rule:evenodd;fill:#FC6A55;}
	.st29{filter:url(#Adobe_OpacityMaskFilter_9_);}
	.st30{mask:url(#mask-2_1_);fill:none;stroke:#FC6A55;stroke-width:1.5;stroke-miterlimit:10;}
	.st31{fill:#B4A3EE;}
	.st32{fill:#222121;}
	.st33{fill:none;stroke:#FC6A55;stroke-width:0.75;stroke-miterlimit:10;}
	.st34{fill:#FC6A55;stroke:#FC6A55;stroke-width:0.25;stroke-miterlimit:10;}
	.st35{fill:#FC6A55;stroke:#FC6A55;stroke-width:0.5;stroke-miterlimit:10;}
	.st36{opacity:0.5;fill:#FC6A55;}
	.st37{fill:#F5F4F9;}
	.st38{opacity:0.153;fill:url(#Path_144_);enable-background:new    ;}
	.st39{opacity:0.1;fill:#590BB2;enable-background:new    ;}
	.st40{fill:#8E8CA8;}
	.st41{fill:#FFD5B8;}
	.st42{fill:#FC8473;}
	.st43{fill:#1C3475;}
	.st44{fill:#DDD9E4;}
	.st45{fill:#828FB3;}
	.st46{opacity:7.584635e-02;fill:url(#Path_145_);enable-background:new    ;}
	.st47{fill:#FFBE92;}
	.st48{fill:#FB8E7F;}
	.st49{fill:#FDB1A6;}
	.st50{fill:#FC806F;}
	.st51{fill:#FFE783;}
	.st52{fill:#104478;}
	.st53{fill:none;stroke:#FFFFFF;stroke-miterlimit:10;}
	.st54{fill:none;stroke:#000000;stroke-width:0.15;stroke-miterlimit:10;}
	.st55{opacity:0.3;fill:#FC6A55;}
	.st56{opacity:0.4;fill:#FC6A55;}
	.st57{opacity:0.1;fill:url(#Path_147_);enable-background:new    ;}
	.st58{opacity:0.1;fill:url(#Path_150_);enable-background:new    ;}
	.st59{fill-rule:evenodd;clip-rule:evenodd;fill:#FC6A55;}
	.st60{fill-rule:evenodd;clip-rule:evenodd;}
	.st61{fill:#FF6757;}
	.st62{fill:#6C973D;}
	.st63{fill:none;stroke:#FFFFFF;stroke-width:0.5;stroke-miterlimit:10;}
	.st64{fill:#606060;}
	.st65{fill:#F16A56;}
	.st66{fill:#515252;}
	.st67{fill:#656565;}
	.st68{fill:#F26A56;}
	.st69{fill:none;stroke:#F16A56;stroke-miterlimit:10;}
	.st70{fill:none;stroke:#929292;stroke-miterlimit:10;}
	.st71{fill:#929292;}
	.st72{fill:none;stroke:#000000;stroke-width:0.5;stroke-miterlimit:10;}
	.st73{fill:#A8A7A7;}
	.st74{fill:#F79F91;}
	.st75{fill:#9BDBD5;}
	.st76{stroke:#000000;stroke-width:0.25;stroke-miterlimit:10;}
	.st77{fill:#6F6F6F;}
	.st78{fill:none;stroke:#6F6F6F;stroke-width:0.75;stroke-miterlimit:10;}
</style>
<path class="st6" d="M32.5,39.6h-23V9.5c0-1,0.8-1.8,1.8-1.8h19.5c1,0,1.8,0.8,1.8,1.8V39.6z"/>
<path class="st6" d="M2.4,39.6h7.1V13H4.2c-1,0-1.8,0.8-1.8,1.8V39.6z"/>
<path class="st6" d="M32.5,39.6h7.1V14.8c0-1-0.8-1.8-1.8-1.8h-5.3V39.6z"/>
<g>
	<circle class="st1" cx="5.9" cy="16.6" r="0.9"/>
	<circle class="st1" cx="5.9" cy="20.1" r="0.9"/>
	<circle class="st1" cx="5.9" cy="23.7" r="0.9"/>
	<circle class="st1" cx="5.9" cy="27.2" r="0.9"/>
	<circle class="st1" cx="5.9" cy="30.7" r="0.9"/>
</g>
<g>
	<circle class="st1" cx="36.1" cy="16.6" r="0.9"/>
	<circle class="st1" cx="36.1" cy="20.1" r="0.9"/>
	<circle class="st1" cx="36.1" cy="23.7" r="0.9"/>
	<circle class="st1" cx="36.1" cy="27.2" r="0.9"/>
	<circle class="st1" cx="36.1" cy="30.7" r="0.9"/>
</g>
<path class="st1" d="M37.8,12.1h-4.4V9.5c0-1.5-1.2-2.7-2.7-2.7H11.2C9.8,6.8,8.6,8,8.6,9.5v2.7H4.2c-1.5,0-2.7,1.2-2.7,2.7v24.8
	c0,0.5,0.4,0.9,0.9,0.9h37.2c0.5,0,0.9-0.4,0.9-0.9V14.8C40.5,13.3,39.3,12.1,37.8,12.1z M3.3,14.8c0-0.5,0.4-0.9,0.9-0.9h4.4v19.5
	H3.3V14.8z M3.3,35.2h5.3v3.5H3.3V35.2z M10.4,34.3V13V9.5c0-0.5,0.4-0.9,0.9-0.9h19.5c0.5,0,0.9,0.4,0.9,0.9V13v21.3v4.4H10.4V34.3
	z M38.7,38.7h-5.3v-3.5h5.3V38.7z M38.7,33.4h-5.3V13.9h4.4c0.5,0,0.9,0.4,0.9,0.9V33.4z"/>
<g>
	<circle class="st6" cx="21" cy="8.6" r="6.2"/>
	<circle class="st6" cx="21" cy="8.6" r="6.2"/>
</g>
<path class="st1" d="M21,15.7c-3.9,0-7.1-3.2-7.1-7.1s3.2-7.1,7.1-7.1s7.1,3.2,7.1,7.1S24.9,15.7,21,15.7z M21,3.3
	c-2.9,0-5.3,2.4-5.3,5.3s2.4,5.3,5.3,5.3s5.3-2.4,5.3-5.3S23.9,3.3,21,3.3z"/>
<g>
	<path class="st1" d="M21,20.2c-0.7,0-1.3,0.6-1.3,1.3c0,0.7,0.6,1.3,1.3,1.3s1.3-0.6,1.3-1.3S21.7,20.2,21,20.2z M21,22.2
		c-0.4,0-0.6-0.3-0.6-0.6s0.3-0.6,0.6-0.6s0.6,0.3,0.6,0.6S21.4,22.2,21,22.2z"/>
	<path class="st1" d="M30,30.9v-11c0-0.9-0.7-1.6-1.6-1.6h-4.3l-0.9-0.9l-1,1V17h-2.6v1.4l-1-1l-0.9,0.9h-4.3
		c-0.9,0-1.6,0.7-1.6,1.6v11c-0.6,0.1-1,0.6-1,1.2c0,0.7,0.6,1.3,1.3,1.3s1.3-0.6,1.3-1.3c0-0.6-0.4-1.1-1-1.2v-11c0-0.5,0.4-1,1-1
		h3.6l-0.3,0.3l1,1h-1.4v2.6h1.4l-0.3,0.3h-1.7c-0.7,0-1.3,0.6-1.3,1.3c0,0.3,0.1,0.6,0.3,0.8v2.4c-0.4,0.1-0.6,0.5-0.6,0.9
		c0,0.5,0.4,1,1,1s1-0.4,1-1c0-0.4-0.3-0.8-0.6-0.9v-2c0.1,0,0.2,0,0.3,0h2.7c-0.7,0.6-1.1,1.6-1.1,2.6v0.6c0,1.3,0.7,2.4,1.7,3
		l-1.4,0.2c-1.3,0.2-2.4,1.1-2.8,2.4L14.1,37h13.8l-0.8-2.5c-0.4-1.3-1.5-2.2-2.8-2.4l-1.4-0.2c1-0.6,1.7-1.7,1.7-3v-0.6
		c0-1-0.4-1.9-1.1-2.6h1.2l1.9-0.5V28c-0.4,0.1-0.6,0.5-0.6,0.9c0,0.5,0.4,1,1,1s1-0.4,1-1c0-0.4-0.3-0.8-0.6-0.9v-3
		c0.2-0.1,0.3-0.4,0.3-0.6c0-0.3-0.2-0.6-0.6-0.7l-2.3-0.6l-0.2,0l-0.3-0.3h1.4v-2.6h-1.4l1-1l-0.3-0.3h3.6c0.5,0,1,0.4,1,1v11
		c-0.6,0.1-1,0.6-1,1.2c0,0.7,0.6,1.3,1.3,1.3c0.7,0,1.3-0.6,1.3-1.3C31,31.6,30.6,31.1,30,30.9z M12.9,32.2c0,0.4-0.3,0.6-0.6,0.6
		s-0.6-0.3-0.6-0.6c0-0.4,0.3-0.6,0.6-0.6S12.9,31.8,12.9,32.2z M15.2,28.9c-0.2,0-0.3-0.1-0.3-0.3s0.1-0.3,0.3-0.3s0.3,0.1,0.3,0.3
		S15.4,28.9,15.2,28.9z M16.5,25.1h-0.6c-0.4,0-0.6-0.3-0.6-0.6s0.3-0.6,0.6-0.6h0.6V25.1z M17.8,25.1h-0.6v-1.3h0.6V25.1z
		 M27.1,28.9c0,0.2-0.1,0.3-0.3,0.3s-0.3-0.1-0.3-0.3s0.1-0.3,0.3-0.3S27.1,28.8,27.1,28.9z M24.9,23.9l1.9,0.5c0,0,0.1,0,0.1,0.1
		s0,0.1-0.1,0.1L24.9,25V23.9z M19.1,32.6l0.4-0.1c0.1,0.3,0.3,0.7,0.5,0.9l-0.9,0.3V32.6z M20,36.4h-2.8l0.2-1.2L16.8,35l-0.3,1.4
		H15l0.5-1.6c0.3-1,1.2-1.8,2.3-1.9l0.6-0.1v1.8l1.2-0.3l0.4,0.7V36.4z M21.3,36.4h-0.6v-1.3h0.6V36.4z M21.5,34.4h-0.9L20.2,34
		l0.8-0.2l0.8,0.2L21.5,34.4z M21,33.1c-0.5,0-0.9-0.3-0.9-0.8c0.3,0.1,0.6,0.1,0.9,0.1s0.6,0,0.9-0.1C21.9,32.8,21.5,33.1,21,33.1z
		 M23.6,32.7l0.6,0.1c1.1,0.2,1.9,0.9,2.3,1.9l0.5,1.6h-1.5L25.2,35l-0.6,0.1l0.2,1.2H22v-1.5l0.4-0.7l1.2,0.3V32.7z M22.9,32.6v1.1
		L22,33.4c0.3-0.2,0.5-0.5,0.5-0.9L22.9,32.6z M23.9,28.3v0.6c0,1.6-1.3,2.9-2.9,2.9s-2.9-1.3-2.9-2.9v-0.6c0-1.6,1.3-2.9,2.9-2.9
		S23.9,26.7,23.9,28.3z M23.2,20.2l0.1,0.2c0,0.1,0.1,0.2,0.1,0.2l0.1,0.2h1.4v1.3h-1.4l-0.1,0.2c0,0.1-0.1,0.2-0.1,0.2l-0.1,0.2
		l0.3,0.3l-3.8,0v0.6h4.5v1.3h-1.8c-0.4-0.2-0.9-0.3-1.5-0.3s-1,0.1-1.5,0.3h-1.1v-1.3h0.6v-0.6h-0.6l0.3-0.3l-0.1-0.2
		c0-0.1-0.1-0.2-0.1-0.2l-0.1-0.2h-1.4v-1.3h1.4l0.1-0.2c0-0.1,0.1-0.2,0.1-0.2l0.1-0.2l-1-1l0.9-0.9l1,1l0.2-0.1
		c0.1,0,0.2-0.1,0.2-0.1l0.2-0.1v-1.4h1.3V19l0.2,0.1c0.1,0,0.2,0.1,0.2,0.1l0.2,0.1l1-1l0.9,0.9L23.2,20.2z M29.7,32.8
		c-0.4,0-0.6-0.3-0.6-0.6c0-0.4,0.3-0.6,0.6-0.6c0.4,0,0.6,0.3,0.6,0.6C30.4,32.5,30.1,32.8,29.7,32.8z"/>
</g>
</svg>
