<?xml version="1.0" encoding="utf-8"?>
<!-- Generator: Adobe Illustrator 24.2.0, SVG Export Plug-In . SVG Version: 6.00 Build 0)  -->
<svg version="1.1" id="Layer_1" xmlns="http://www.w3.org/2000/svg" xmlns:xlink="http://www.w3.org/1999/xlink" x="0px" y="0px"
	 viewBox="0 0 54 48" style="enable-background:new 0 0 54 48;" xml:space="preserve">
<style type="text/css">
	.st0{fill:#6F6F6F;stroke:#6F6F6F;stroke-width:0.25;stroke-miterlimit:10;}
	.st1{fill:#FC6A55;}
	.st2{fill:#EDEDED;}
	.st3{fill:none;stroke:#FC6A55;stroke-miterlimit:10;}
	.st4{fill:#222F3F;}
	.st5{fill:#383838;}
	.st6{fill:#FFFFFF;}
	.st7{fill:#B0B0B0;}
	.st8{fill:#656D7A;}
	.st9{fill:#C4C4C4;}
	.st10{filter:url(#Adobe_OpacityMaskFilter);}
	.st11{fill-rule:evenodd;clip-rule:evenodd;fill:#FFFFFF;}
	.st12{mask:url(#mask-2_8_);fill-rule:evenodd;clip-rule:evenodd;fill:#B0B0B0;}
	.st13{filter:url(#Adobe_OpacityMaskFilter_1_);}
	.st14{mask:url(#mask-2_7_);fill-rule:evenodd;clip-rule:evenodd;fill:#B0B0B0;}
	.st15{filter:url(#Adobe_OpacityMaskFilter_2_);}
	.st16{mask:url(#mask-2_6_);fill-rule:evenodd;clip-rule:evenodd;fill:#B0B0B0;}
	.st17{filter:url(#Adobe_OpacityMaskFilter_3_);}
	.st18{mask:url(#mask-2_5_);fill-rule:evenodd;clip-rule:evenodd;fill:#B0B0B0;}
	.st19{filter:url(#Adobe_OpacityMaskFilter_4_);}
	.st20{mask:url(#mask-2_2_);fill:none;stroke:#B0B0B0;stroke-width:1.5;stroke-miterlimit:10;}
	.st21{filter:url(#Adobe_OpacityMaskFilter_5_);}
	.st22{mask:url(#mask-2_10_);fill-rule:evenodd;clip-rule:evenodd;fill:#FC6A55;}
	.st23{filter:url(#Adobe_OpacityMaskFilter_6_);}
	.st24{mask:url(#mask-2_9_);fill-rule:evenodd;clip-rule:evenodd;fill:#FC6A55;}
	.st25{filter:url(#Adobe_OpacityMaskFilter_7_);}
	.st26{mask:url(#mask-2_4_);fill-rule:evenodd;clip-rule:evenodd;fill:#FC6A55;}
	.st27{filter:url(#Adobe_OpacityMaskFilter_8_);}
	.st28{mask:url(#mask-2_3_);fill-rule:evenodd;clip-rule:evenodd;fill:#FC6A55;}
	.st29{filter:url(#Adobe_OpacityMaskFilter_9_);}
	.st30{mask:url(#mask-2_1_);fill:none;stroke:#FC6A55;stroke-width:1.5;stroke-miterlimit:10;}
	.st31{fill:#B4A3EE;}
	.st32{fill:#222121;}
	.st33{fill:none;stroke:#FC6A55;stroke-width:0.75;stroke-miterlimit:10;}
	.st34{fill:#FC6A55;stroke:#FC6A55;stroke-width:0.25;stroke-miterlimit:10;}
	.st35{fill:#FC6A55;stroke:#FC6A55;stroke-width:0.5;stroke-miterlimit:10;}
	.st36{opacity:0.5;fill:#FC6A55;}
	.st37{fill:#F5F4F9;}
	.st38{opacity:0.153;fill:url(#Path_144_);enable-background:new    ;}
	.st39{opacity:0.1;fill:#590BB2;enable-background:new    ;}
	.st40{fill:#8E8CA8;}
	.st41{fill:#FFD5B8;}
	.st42{fill:#FC8473;}
	.st43{fill:#1C3475;}
	.st44{fill:#DDD9E4;}
	.st45{fill:#828FB3;}
	.st46{opacity:7.584635e-02;fill:url(#Path_145_);enable-background:new    ;}
	.st47{fill:#FFBE92;}
	.st48{fill:#FB8E7F;}
	.st49{fill:#FDB1A6;}
	.st50{fill:#FC806F;}
	.st51{fill:#FFE783;}
	.st52{fill:#104478;}
	.st53{fill:none;stroke:#FFFFFF;stroke-miterlimit:10;}
	.st54{fill:none;stroke:#000000;stroke-width:0.15;stroke-miterlimit:10;}
	.st55{opacity:0.3;fill:#FC6A55;}
	.st56{opacity:0.4;fill:#FC6A55;}
	.st57{opacity:0.1;fill:url(#Path_147_);enable-background:new    ;}
	.st58{opacity:0.1;fill:url(#Path_150_);enable-background:new    ;}
	.st59{fill-rule:evenodd;clip-rule:evenodd;fill:#FC6A55;}
	.st60{fill-rule:evenodd;clip-rule:evenodd;}
	.st61{fill:#FF6757;}
	.st62{fill:#6C973D;}
	.st63{fill:none;stroke:#FFFFFF;stroke-width:0.5;stroke-miterlimit:10;}
	.st64{fill:#606060;}
	.st65{fill:#F16A56;}
	.st66{fill:#515252;}
	.st67{fill:#656565;}
	.st68{fill:#F26A56;}
	.st69{fill:none;stroke:#F16A56;stroke-miterlimit:10;}
	.st70{fill:none;stroke:#929292;stroke-miterlimit:10;}
	.st71{fill:#929292;}
	.st72{fill:none;stroke:#000000;stroke-width:0.5;stroke-miterlimit:10;}
	.st73{fill:#A8A7A7;}
	.st74{fill:#F79F91;}
	.st75{fill:#9BDBD5;}
	.st76{stroke:#000000;stroke-width:0.25;stroke-miterlimit:10;}
	.st77{fill:#6F6F6F;}
	.st78{fill:none;stroke:#6F6F6F;stroke-width:0.75;stroke-miterlimit:10;}
</style>
<g>
	<g>
		<g>
			<path class="st1" d="M50.4,1.5H3.6C1.8,1.5,0.3,3,0.3,4.8v31.7c0,1.8,1.5,3.3,3.3,3.3h15.8l-0.6,5.1h-2.7c-0.4,0-0.8,0.3-0.8,0.8
				c0,0.4,0.3,0.8,0.8,0.8h21.7c0.4,0,0.8-0.3,0.8-0.8c0-0.4-0.3-0.8-0.8-0.8h-2.7l-0.6-5.1h15.8c1.8,0,3.3-1.5,3.3-3.3V4.8
				C53.7,3,52.2,1.5,50.4,1.5z M20.4,44.9l0.6-5.1h2.9l0.3,1.1c0.3,1.3,1.5,2.2,2.8,2.2c1.3,0,2.5-0.9,2.8-2.2l0.3-1.1H33l0.6,5.1
				H20.4z M25.5,39.8h3l-0.2,0.7c-0.2,0.6-0.7,1-1.3,1s-1.2-0.4-1.3-1L25.5,39.8z M52.1,36.5L52.1,36.5c0,1-0.8,1.7-1.7,1.7H3.6
				c-1,0-1.7-0.8-1.7-1.7V4.8c0-1,0.8-1.7,1.7-1.7h46.8c1,0,1.7,0.8,1.7,1.7L52.1,36.5L52.1,36.5z"/>
		</g>
	</g>
	<g>
		<g>
			<path class="st1" d="M44.5,4.8H4.4C4,4.8,3.7,5.2,3.7,5.6v30.1c0,0.4,0.3,0.8,0.8,0.8h1.7c0.4,0,0.8-0.3,0.8-0.8
				c0-0.4-0.3-0.8-0.8-0.8H5.2V6.4h39.3c0.4,0,0.8-0.3,0.8-0.8C45.3,5.2,45,4.8,44.5,4.8z"/>
		</g>
	</g>
	<g>
		<g>
			<path class="st1" d="M49.6,4.8h-1.7c-0.4,0-0.8,0.3-0.8,0.8c0,0.4,0.3,0.8,0.8,0.8h0.9v28.5H9.5c-0.4,0-0.8,0.3-0.8,0.8
				c0,0.4,0.3,0.8,0.8,0.8h40.1c0.4,0,0.8-0.3,0.8-0.8V5.6C50.3,5.2,50,4.8,49.6,4.8z"/>
		</g>
	</g>
	<g>
		<g>
			<path class="st1" d="M37.6,13.5c-0.1-0.2-0.4-0.3-0.6-0.3l-18.4-0.8c0,0,0,0,0,0c-0.1-0.4-0.3-0.7-0.6-0.9L15.7,10
				c-0.4-0.2-0.8-0.1-1.1,0.2c-0.2,0.4-0.1,0.8,0.2,1.1l2.3,1.5c0,0,0,0,0,0l2.9,10c0.1,0.3,0.2,0.6,0.4,0.8l-1,2.1
				c-0.3,0.5-0.2,1.1,0.1,1.6c0.1,0.2,0.2,0.3,0.4,0.4c-0.2,0.4-0.3,0.8-0.3,1.2c0,1.4,1.1,2.5,2.5,2.5c1.4,0,2.5-1.1,2.5-2.5
				c0-0.3-0.1-0.6-0.2-0.9h7.1c-0.1,0.3-0.2,0.6-0.2,0.9c0,1.4,1.1,2.5,2.5,2.5s2.5-1.1,2.5-2.5c0-0.4-0.1-0.8-0.3-1.1
				c0.2-0.1,0.3-0.3,0.3-0.6c0-0.4-0.3-0.8-0.8-0.8H20.8c0,0,0,0,0,0c0,0,0,0,0-0.1l1-1.9c0.2,0.1,0.4,0.1,0.6,0.1
				c0.1,0,0.2,0,0.3,0l11-1.3c1.4-0.2,2.6-1.2,2.8-2.6l1.3-6.6C37.8,13.9,37.8,13.7,37.6,13.5z M33.7,28.1c0.5,0,0.9,0.4,0.9,0.9
				c0,0.5-0.4,0.9-0.9,0.9c-0.5,0-0.9-0.4-0.9-0.9C32.8,28.5,33.2,28.1,33.7,28.1z M22,28.1c0.5,0,0.9,0.4,0.9,0.9
				c0,0.5-0.4,0.9-0.9,0.9s-0.9-0.4-0.9-0.9C21.1,28.5,21.5,28.1,22,28.1z M20.1,17.4l-1-3.4l3.1,0.1l0.5,3.3H20.1z M22.5,23.1
				c-0.4,0.1-0.8-0.2-1-0.6l-1-3.5H23l0.7,4L22.5,23.1z M27.1,22.5l-1.8,0.2l-0.6-3.8h2.5V22.5z M27.1,17.4h-2.7l-0.5-3.2l3.2,0.1
				V17.4z M31,22.1l-2.4,0.3v-3.4h2.7L31,22.1z M31.4,17.4h-2.8v-3l3.1,0.1L31.4,17.4z M34.9,20.4c-0.1,0.7-0.7,1.3-1.5,1.4
				l-0.9,0.1l0.3-2.9h2.4L34.9,20.4z M35.5,17.4H33l0.3-2.8l2.8,0.1L35.5,17.4z"/>
		</g>
	</g>
</g>
</svg>
