<?xml version="1.0" encoding="utf-8"?>
<!-- Generator: Adobe Illustrator 24.2.0, SVG Export Plug-In . SVG Version: 6.00 Build 0)  -->
<svg version="1.1" id="Layer_1" xmlns="http://www.w3.org/2000/svg" xmlns:xlink="http://www.w3.org/1999/xlink" x="0px" y="0px"
	 viewBox="0 0 54 48" style="enable-background:new 0 0 54 48;" xml:space="preserve">
<style type="text/css">
	.st0{fill:#6F6F6F;stroke:#6F6F6F;stroke-width:0.25;stroke-miterlimit:10;}
	.st1{fill:#FC6A55;}
	.st2{fill:#EDEDED;}
	.st3{fill:none;stroke:#FC6A55;stroke-miterlimit:10;}
	.st4{fill:#222F3F;}
	.st5{fill:#383838;}
	.st6{fill:#FFFFFF;}
	.st7{fill:#B0B0B0;}
	.st8{fill:#656D7A;}
	.st9{fill:#C4C4C4;}
	.st10{filter:url(#Adobe_OpacityMaskFilter);}
	.st11{fill-rule:evenodd;clip-rule:evenodd;fill:#FFFFFF;}
	.st12{mask:url(#mask-2_8_);fill-rule:evenodd;clip-rule:evenodd;fill:#B0B0B0;}
	.st13{filter:url(#Adobe_OpacityMaskFilter_1_);}
	.st14{mask:url(#mask-2_7_);fill-rule:evenodd;clip-rule:evenodd;fill:#B0B0B0;}
	.st15{filter:url(#Adobe_OpacityMaskFilter_2_);}
	.st16{mask:url(#mask-2_6_);fill-rule:evenodd;clip-rule:evenodd;fill:#B0B0B0;}
	.st17{filter:url(#Adobe_OpacityMaskFilter_3_);}
	.st18{mask:url(#mask-2_5_);fill-rule:evenodd;clip-rule:evenodd;fill:#B0B0B0;}
	.st19{filter:url(#Adobe_OpacityMaskFilter_4_);}
	.st20{mask:url(#mask-2_2_);fill:none;stroke:#B0B0B0;stroke-width:1.5;stroke-miterlimit:10;}
	.st21{filter:url(#Adobe_OpacityMaskFilter_5_);}
	.st22{mask:url(#mask-2_10_);fill-rule:evenodd;clip-rule:evenodd;fill:#FC6A55;}
	.st23{filter:url(#Adobe_OpacityMaskFilter_6_);}
	.st24{mask:url(#mask-2_9_);fill-rule:evenodd;clip-rule:evenodd;fill:#FC6A55;}
	.st25{filter:url(#Adobe_OpacityMaskFilter_7_);}
	.st26{mask:url(#mask-2_4_);fill-rule:evenodd;clip-rule:evenodd;fill:#FC6A55;}
	.st27{filter:url(#Adobe_OpacityMaskFilter_8_);}
	.st28{mask:url(#mask-2_3_);fill-rule:evenodd;clip-rule:evenodd;fill:#FC6A55;}
	.st29{filter:url(#Adobe_OpacityMaskFilter_9_);}
	.st30{mask:url(#mask-2_1_);fill:none;stroke:#FC6A55;stroke-width:1.5;stroke-miterlimit:10;}
	.st31{fill:#B4A3EE;}
	.st32{fill:#222121;}
	.st33{fill:none;stroke:#FC6A55;stroke-width:0.75;stroke-miterlimit:10;}
	.st34{fill:#FC6A55;stroke:#FC6A55;stroke-width:0.25;stroke-miterlimit:10;}
	.st35{fill:#FC6A55;stroke:#FC6A55;stroke-width:0.5;stroke-miterlimit:10;}
	.st36{opacity:0.5;fill:#FC6A55;}
	.st37{fill:#F5F4F9;}
	.st38{opacity:0.153;fill:url(#Path_144_);enable-background:new    ;}
	.st39{opacity:0.1;fill:#590BB2;enable-background:new    ;}
	.st40{fill:#8E8CA8;}
	.st41{fill:#FFD5B8;}
	.st42{fill:#FC8473;}
	.st43{fill:#1C3475;}
	.st44{fill:#DDD9E4;}
	.st45{fill:#828FB3;}
	.st46{opacity:7.584635e-02;fill:url(#Path_145_);enable-background:new    ;}
	.st47{fill:#FFBE92;}
	.st48{fill:#FB8E7F;}
	.st49{fill:#FDB1A6;}
	.st50{fill:#FC806F;}
	.st51{fill:#FFE783;}
	.st52{fill:#104478;}
	.st53{fill:none;stroke:#FFFFFF;stroke-miterlimit:10;}
	.st54{fill:none;stroke:#000000;stroke-width:0.15;stroke-miterlimit:10;}
	.st55{opacity:0.3;fill:#FC6A55;}
	.st56{opacity:0.4;fill:#FC6A55;}
	.st57{opacity:0.1;fill:url(#Path_147_);enable-background:new    ;}
	.st58{opacity:0.1;fill:url(#Path_150_);enable-background:new    ;}
	.st59{fill-rule:evenodd;clip-rule:evenodd;fill:#FC6A55;}
	.st60{fill-rule:evenodd;clip-rule:evenodd;}
	.st61{fill:#FF6757;}
	.st62{fill:#6C973D;}
	.st63{fill:none;stroke:#FFFFFF;stroke-width:0.5;stroke-miterlimit:10;}
	.st64{fill:#606060;}
	.st65{fill:#F16A56;}
	.st66{fill:#515252;}
	.st67{fill:#656565;}
	.st68{fill:#F26A56;}
	.st69{fill:none;stroke:#F16A56;stroke-miterlimit:10;}
	.st70{fill:none;stroke:#929292;stroke-miterlimit:10;}
	.st71{fill:#929292;}
	.st72{fill:none;stroke:#000000;stroke-width:0.5;stroke-miterlimit:10;}
	.st73{fill:#A8A7A7;}
	.st74{fill:#F79F91;}
	.st75{fill:#9BDBD5;}
	.st76{stroke:#000000;stroke-width:0.25;stroke-miterlimit:10;}
	.st77{fill:#6F6F6F;}
	.st78{fill:none;stroke:#6F6F6F;stroke-width:0.75;stroke-miterlimit:10;}
</style>
<g>
	<g>
		<g>
			<path class="st1" d="M29,42.2h-4c-0.5,0-0.9,0.4-0.9,0.9S24.5,44,25,44h4c0.5,0,0.9-0.4,0.9-0.9S29.5,42.2,29,42.2z"/>
		</g>
	</g>
	<g>
		<g>
			<path class="st1" d="M36.3,7.8c-0.2-0.2-0.4-0.3-0.6-0.3S35.2,7.6,35,7.8s-0.3,0.4-0.3,0.6c0,0.2,0.1,0.5,0.3,0.6
				c0.2,0.2,0.4,0.3,0.6,0.3s0.5-0.1,0.6-0.3c0.2-0.2,0.3-0.4,0.3-0.6C36.5,8.2,36.4,7.9,36.3,7.8z"/>
		</g>
	</g>
	<g>
		<g>
			<path class="st1" d="M49.1,14.8c0.5,0,0.9-0.4,0.9-0.9V8.4c0-0.4-0.2-0.7-0.5-0.8c0,0,0,0,0,0L36,1.1c-0.2-0.1-0.5-0.1-0.8,0
				L21.8,7.6c-0.3,0.1-0.5,0.5-0.5,0.8s0.2,0.7,0.5,0.8l5.3,2.5v5.6c0,0,0,0.1,0,0.1h-0.2c-1.7,0-3,1.3-3,3c0,1.7,1.3,3,3,3h0.3
				c0.3,2.5,1.7,4.8,3.7,6.2h-8.4c-0.5,0-1,0.1-1.5,0.3V16.7c0-0.8,0.7-1.5,1.5-1.5h2.3c0.5,0,0.9-0.4,0.9-0.9s-0.4-0.9-0.9-0.9
				h-2.3c-0.9,0-1.8,0.4-2.4,1c-0.6-0.6-1.4-1-2.4-1H4.9c-0.5,0-0.9,0.4-0.9,0.9v16.2V34c0,0.5,0.4,0.9,0.9,0.9H6v4.4H4.9
				c-0.5,0-0.9,0.4-0.9,0.9v1.6C4,44.7,6.3,47,9.2,47h35.6c2.9,0,5.2-2.3,5.2-5.2v-1.6c0-0.5-0.4-0.9-0.9-0.9H48V26.1
				c0-0.5-0.4-0.9-0.9-0.9c-0.5,0-0.9,0.4-0.9,0.9v13.2H7.8v-4.4h27.3c0.5,0,0.9-0.4,0.9-0.9v-2.9c4.3-0.2,7.8-3.5,8.2-7.7h0.3
				c1.7,0,3-1.3,3-3c0-1.7-1.3-3-3-3h-0.2c0,0,0-0.1,0-0.1v-5.6l4-1.9v4.1C48.2,14.4,48.6,14.8,49.1,14.8z M27,21.6h-0.2
				c-0.7,0-1.2-0.5-1.2-1.2s0.5-1.2,1.2-1.2H27V21.6z M5.8,15.2h11.8c0.8,0,1.5,0.7,1.5,1.5v13.3c-0.4-0.2-0.9-0.3-1.5-0.3H5.8V15.2
				z M48.2,41.1v0.7c0,1.9-1.5,3.4-3.4,3.4H9.2c-1.9,0-3.4-1.5-3.4-3.4v-0.7H48.2z M5.8,33.1v-1.7h11.8c0.8,0,1.5,0.7,1.5,1.5
				c0,0.1,0,0.2,0,0.2H5.8z M44.2,19.2h0.2c0.7,0,1.2,0.5,1.2,1.2c0,0.7-0.5,1.2-1.2,1.2h-0.2V19.2z M34.2,33.1H20.9v0
				c0-0.1,0-0.2,0-0.2c0-0.8,0.7-1.5,1.5-1.5h11.8V33.1z M42.4,22.5c0,3.8-3.1,6.8-6.8,6.8s-6.8-3.1-6.8-6.8v-3.8l6.5,2.8
				c0.1,0.1,0.2,0.1,0.4,0.1c0.1,0,0.2,0,0.4-0.1l6.5-2.8V22.5z M42.4,16.7l-6.8,3l-6.8-3v-4.1l6.4,3.1c0.1,0.1,0.3,0.1,0.4,0.1
				c0.1,0,0.3,0,0.4-0.1l6.4-3.1L42.4,16.7L42.4,16.7z M38.2,9.3h7l-9.5,4.6L24.2,8.4l11.4-5.5l9.5,4.6h-7c-0.5,0-0.9,0.4-0.9,0.9
				C37.3,8.9,37.7,9.3,38.2,9.3z"/>
		</g>
	</g>
	<g>
		<g>
			<path class="st1" d="M49.7,17.3c-0.2-0.2-0.4-0.3-0.6-0.3s-0.5,0.1-0.6,0.3c-0.2,0.2-0.3,0.4-0.3,0.6c0,0.2,0.1,0.5,0.3,0.6
				c0.2,0.2,0.4,0.3,0.6,0.3s0.5-0.1,0.6-0.3c0.2-0.2,0.3-0.4,0.3-0.6C50,17.7,49.9,17.5,49.7,17.3z"/>
		</g>
	</g>
	<g>
		<g>
			<path class="st1" d="M16,23.9c-0.2-0.2-0.4-0.3-0.6-0.3s-0.5,0.1-0.6,0.3c-0.2,0.2-0.3,0.4-0.3,0.6c0,0.2,0.1,0.5,0.3,0.6
				c0.2,0.2,0.4,0.3,0.6,0.3c0.2,0,0.5-0.1,0.6-0.3c0.2-0.2,0.3-0.4,0.3-0.6C16.3,24.3,16.2,24.1,16,23.9z"/>
		</g>
	</g>
	<g>
		<g>
			<path class="st1" d="M12,23.6H9.1c-0.5,0-0.9,0.4-0.9,0.9c0,0.5,0.4,0.9,0.9,0.9H12c0.5,0,0.9-0.4,0.9-0.9
				C12.9,24,12.5,23.6,12,23.6z"/>
		</g>
	</g>
	<g>
		<g>
			<path class="st1" d="M15.4,19.3H9.1c-0.5,0-0.9,0.4-0.9,0.9c0,0.5,0.4,0.9,0.9,0.9h6.3c0.5,0,0.9-0.4,0.9-0.9
				S15.9,19.3,15.4,19.3z"/>
		</g>
	</g>
</g>
</svg>
