<?xml version="1.0" encoding="utf-8"?>
<!-- Generator: Adobe Illustrator 24.2.0, SVG Export Plug-In . SVG Version: 6.00 Build 0)  -->
<svg version="1.1" id="Layer_1" xmlns="http://www.w3.org/2000/svg" xmlns:xlink="http://www.w3.org/1999/xlink" x="0px" y="0px"
	 viewBox="0 0 54 48" style="enable-background:new 0 0 54 48;" xml:space="preserve">
<style type="text/css">
	.st0{fill:#6F6F6F;stroke:#6F6F6F;stroke-width:0.25;stroke-miterlimit:10;}
	.st1{fill:#FC6A55;}
	.st2{fill:#EDEDED;}
	.st3{fill:none;stroke:#FC6A55;stroke-miterlimit:10;}
	.st4{fill:#222F3F;}
	.st5{fill:#383838;}
	.st6{fill:#FFFFFF;}
	.st7{fill:#B0B0B0;}
	.st8{fill:#656D7A;}
	.st9{fill:#C4C4C4;}
	.st10{filter:url(#Adobe_OpacityMaskFilter);}
	.st11{fill-rule:evenodd;clip-rule:evenodd;fill:#FFFFFF;}
	.st12{mask:url(#mask-2_8_);fill-rule:evenodd;clip-rule:evenodd;fill:#B0B0B0;}
	.st13{filter:url(#Adobe_OpacityMaskFilter_1_);}
	.st14{mask:url(#mask-2_7_);fill-rule:evenodd;clip-rule:evenodd;fill:#B0B0B0;}
	.st15{filter:url(#Adobe_OpacityMaskFilter_2_);}
	.st16{mask:url(#mask-2_6_);fill-rule:evenodd;clip-rule:evenodd;fill:#B0B0B0;}
	.st17{filter:url(#Adobe_OpacityMaskFilter_3_);}
	.st18{mask:url(#mask-2_5_);fill-rule:evenodd;clip-rule:evenodd;fill:#B0B0B0;}
	.st19{filter:url(#Adobe_OpacityMaskFilter_4_);}
	.st20{mask:url(#mask-2_2_);fill:none;stroke:#B0B0B0;stroke-width:1.5;stroke-miterlimit:10;}
	.st21{filter:url(#Adobe_OpacityMaskFilter_5_);}
	.st22{mask:url(#mask-2_10_);fill-rule:evenodd;clip-rule:evenodd;fill:#FC6A55;}
	.st23{filter:url(#Adobe_OpacityMaskFilter_6_);}
	.st24{mask:url(#mask-2_9_);fill-rule:evenodd;clip-rule:evenodd;fill:#FC6A55;}
	.st25{filter:url(#Adobe_OpacityMaskFilter_7_);}
	.st26{mask:url(#mask-2_4_);fill-rule:evenodd;clip-rule:evenodd;fill:#FC6A55;}
	.st27{filter:url(#Adobe_OpacityMaskFilter_8_);}
	.st28{mask:url(#mask-2_3_);fill-rule:evenodd;clip-rule:evenodd;fill:#FC6A55;}
	.st29{filter:url(#Adobe_OpacityMaskFilter_9_);}
	.st30{mask:url(#mask-2_1_);fill:none;stroke:#FC6A55;stroke-width:1.5;stroke-miterlimit:10;}
	.st31{fill:#B4A3EE;}
	.st32{fill:#222121;}
	.st33{fill:none;stroke:#FC6A55;stroke-width:0.75;stroke-miterlimit:10;}
	.st34{fill:#FC6A55;stroke:#FC6A55;stroke-width:0.25;stroke-miterlimit:10;}
	.st35{fill:#FC6A55;stroke:#FC6A55;stroke-width:0.5;stroke-miterlimit:10;}
	.st36{opacity:0.5;fill:#FC6A55;}
	.st37{fill:#F5F4F9;}
	.st38{opacity:0.153;fill:url(#Path_144_);enable-background:new    ;}
	.st39{opacity:0.1;fill:#590BB2;enable-background:new    ;}
	.st40{fill:#8E8CA8;}
	.st41{fill:#FFD5B8;}
	.st42{fill:#FC8473;}
	.st43{fill:#1C3475;}
	.st44{fill:#DDD9E4;}
	.st45{fill:#828FB3;}
	.st46{opacity:7.584635e-02;fill:url(#Path_145_);enable-background:new    ;}
	.st47{fill:#FFBE92;}
	.st48{fill:#FB8E7F;}
	.st49{fill:#FDB1A6;}
	.st50{fill:#FC806F;}
	.st51{fill:#FFE783;}
	.st52{fill:#104478;}
	.st53{fill:none;stroke:#FFFFFF;stroke-miterlimit:10;}
	.st54{fill:none;stroke:#000000;stroke-width:0.15;stroke-miterlimit:10;}
	.st55{opacity:0.3;fill:#FC6A55;}
	.st56{opacity:0.4;fill:#FC6A55;}
	.st57{opacity:0.1;fill:url(#Path_147_);enable-background:new    ;}
	.st58{opacity:0.1;fill:url(#Path_150_);enable-background:new    ;}
	.st59{fill-rule:evenodd;clip-rule:evenodd;fill:#FC6A55;}
	.st60{fill-rule:evenodd;clip-rule:evenodd;}
	.st61{fill:#FF6757;}
	.st62{fill:#6C973D;}
	.st63{fill:none;stroke:#FFFFFF;stroke-width:0.5;stroke-miterlimit:10;}
	.st64{fill:#606060;}
	.st65{fill:#F16A56;}
	.st66{fill:#515252;}
	.st67{fill:#656565;}
	.st68{fill:#F26A56;}
	.st69{fill:none;stroke:#F16A56;stroke-miterlimit:10;}
	.st70{fill:none;stroke:#929292;stroke-miterlimit:10;}
	.st71{fill:#929292;}
	.st72{fill:none;stroke:#000000;stroke-width:0.5;stroke-miterlimit:10;}
	.st73{fill:#A8A7A7;}
	.st74{fill:#F79F91;}
	.st75{fill:#9BDBD5;}
	.st76{stroke:#000000;stroke-width:0.25;stroke-miterlimit:10;}
	.st77{fill:#6F6F6F;}
	.st78{fill:none;stroke:#6F6F6F;stroke-width:0.75;stroke-miterlimit:10;}
</style>
<g>
	<path class="st1" d="M21.4,28.8c-4.4,0-8,3.6-8,8s3.6,8,8,8s8-3.6,8-8C29.4,32.4,25.8,28.8,21.4,28.8z M21.4,43.2
		c-3.5,0-6.4-2.9-6.4-6.4c0-3.5,2.9-6.4,6.4-6.4s6.4,2.9,6.4,6.4C27.8,40.3,24.9,43.2,21.4,43.2z"/>
	<path class="st1" d="M21.4,34.4c1,0,1.6,0.5,1.6,0.8h1.6c0-1.1-1-2.1-2.4-2.3V32h-1.6v0.9c-1.4,0.3-2.4,1.2-2.4,2.3
		c0,1.3,1.4,2.4,3.2,2.4c1,0,1.6,0.5,1.6,0.8c0,0.3-0.6,0.8-1.6,0.8s-1.6-0.5-1.6-0.8h-1.6c0,1.1,1,2.1,2.4,2.3v0.9h1.6v-0.9
		c1.4-0.3,2.4-1.2,2.4-2.3c0-1.3-1.4-2.4-3.2-2.4c-1,0-1.6-0.5-1.6-0.8S20.4,34.4,21.4,34.4z"/>
	<path class="st1" d="M43.8,46.4H10.2V27.2H23c1.3,0,2.4-1.1,2.4-2.4v-20h8.8v9.6h9.6v11.2h1.6V13.3L35.3,3.2h-9.9V2.4
		C25.4,1.1,24.3,0,23,0H5.4C4.1,0,3,1.1,3,2.4v22.4c0,1.3,1.1,2.4,2.4,2.4h3.2V48h36.8V36.8h-1.6V46.4z M35.8,5.9l6.9,6.9h-6.9V5.9z
		 M4.6,24.8V2.4c0-0.4,0.4-0.8,0.8-0.8H23c0.4,0,0.8,0.4,0.8,0.8v22.4c0,0.4-0.4,0.8-0.8,0.8H5.4C5,25.6,4.6,25.2,4.6,24.8z"/>
	<path class="st1" d="M28.6,20h1.6v1.6h-1.6V20z"/>
	<path class="st1" d="M31.8,20h9.6v1.6h-9.6V20z"/>
	<path class="st1" d="M28.6,16.8h1.6v1.6h-1.6V16.8z"/>
	<path class="st1" d="M31.8,16.8h9.6v1.6h-9.6V16.8z"/>
	<path class="st1" d="M28.6,23.2h1.6v1.6h-1.6V23.2z"/>
	<path class="st1" d="M31.8,23.2h9.6v1.6h-9.6V23.2z"/>
	<path class="st1" d="M28.6,26.4h1.6V28h-1.6V26.4z"/>
	<path class="st1" d="M31.8,26.4h9.6V28h-9.6V26.4z"/>
	<path class="st1" d="M23,2.4H5.4V8H23V2.4z M21.4,6.4H7V4h14.4V6.4z"/>
	<path class="st1" d="M9.4,8.8H7.8c-0.9,0-1.6,0.7-1.6,1.6V12c0,0.9,0.7,1.6,1.6,1.6h1.6c0.9,0,1.6-0.7,1.6-1.6v-1.6
		C11,9.5,10.3,8.8,9.4,8.8z M7.8,12v-1.6h1.6V12H7.8z"/>
	<path class="st1" d="M15,8.8h-1.6c-0.9,0-1.6,0.7-1.6,1.6V12c0,0.9,0.7,1.6,1.6,1.6H15c0.9,0,1.6-0.7,1.6-1.6v-1.6
		C16.6,9.5,15.9,8.8,15,8.8z M13.4,12v-1.6H15V12H13.4z"/>
	<path class="st1" d="M20.6,8.8H19c-0.9,0-1.6,0.7-1.6,1.6V12c0,0.9,0.7,1.6,1.6,1.6h1.6c0.9,0,1.6-0.7,1.6-1.6v-1.6
		C22.2,9.5,21.5,8.8,20.6,8.8z M19,12v-1.6h1.6V12H19z"/>
	<path class="st1" d="M9.4,14.4H7.8c-0.9,0-1.6,0.7-1.6,1.6v1.6c0,0.9,0.7,1.6,1.6,1.6h1.6c0.9,0,1.6-0.7,1.6-1.6V16
		C11,15.1,10.3,14.4,9.4,14.4z M7.8,17.6V16h1.6v1.6H7.8z"/>
	<path class="st1" d="M15,14.4h-1.6c-0.9,0-1.6,0.7-1.6,1.6v1.6c0,0.9,0.7,1.6,1.6,1.6H15c0.9,0,1.6-0.7,1.6-1.6V16
		C16.6,15.1,15.9,14.4,15,14.4z M13.4,17.6V16H15v1.6H13.4z"/>
	<path class="st1" d="M20.6,14.4H19c-0.9,0-1.6,0.7-1.6,1.6v1.6c0,0.9,0.7,1.6,1.6,1.6h1.6c0.9,0,1.6-0.7,1.6-1.6V16
		C22.2,15.1,21.5,14.4,20.6,14.4z M19,17.6V16h1.6v1.6H19z"/>
	<path class="st1" d="M9.4,20H7.8c-0.9,0-1.6,0.7-1.6,1.6v1.6c0,0.9,0.7,1.6,1.6,1.6h1.6c0.9,0,1.6-0.7,1.6-1.6v-1.6
		C11,20.7,10.3,20,9.4,20z M7.8,23.2v-1.6h1.6v1.6H7.8z"/>
	<path class="st1" d="M15,20h-1.6c-0.9,0-1.6,0.7-1.6,1.6v1.6c0,0.9,0.7,1.6,1.6,1.6H15c0.9,0,1.6-0.7,1.6-1.6v-1.6
		C16.6,20.7,15.9,20,15,20z M13.4,23.2v-1.6H15v1.6H13.4z"/>
	<path class="st1" d="M20.6,20H19c-0.9,0-1.6,0.7-1.6,1.6v1.6c0,0.9,0.7,1.6,1.6,1.6h1.6c0.9,0,1.6-0.7,1.6-1.6v-1.6
		C22.2,20.7,21.5,20,20.6,20z M19,23.2v-1.6h1.6v1.6H19z"/>
	<path class="st1" d="M50.3,25.5c-1-0.9-2.4-0.9-3.4,0L33.2,39.2c-0.1,0.1-0.1,0.1-0.2,0.2l-1.9,4.2c-0.1,0.3-0.1,0.7,0.2,0.9
		c0.2,0.2,0.6,0.3,0.9,0.2l4.2-1.9c0.1,0,0.2-0.1,0.2-0.2l13.7-13.7C51.2,28,51.2,26.5,50.3,25.5z M35.5,41.4l-2.1,1l1-2.1L44.6,30
		l1.1,1.1L35.5,41.4z M46.9,30l-1.1-1.1l0.6-0.6l1.1,1.1L46.9,30z M49.2,27.8l-0.6,0.6l-1.1-1.1l0.6-0.6c0.3-0.3,0.8-0.3,1.1,0
		C49.5,27,49.5,27.5,49.2,27.8z"/>
</g>
</svg>
