<?xml version="1.0" encoding="utf-8"?>
<!-- Generator: Adobe Illustrator 24.2.0, SVG Export Plug-In . SVG Version: 6.00 Build 0)  -->
<svg version="1.1" id="Layer_1" xmlns="http://www.w3.org/2000/svg" xmlns:xlink="http://www.w3.org/1999/xlink" x="0px" y="0px"
	 viewBox="0 0 54 48" style="enable-background:new 0 0 54 48;" xml:space="preserve">
<style type="text/css">
	.st0{fill:#6F6F6F;stroke:#6F6F6F;stroke-width:0.25;stroke-miterlimit:10;}
	.st1{fill:#FC6A55;}
	.st2{fill:#EDEDED;}
	.st3{fill:none;stroke:#FC6A55;stroke-miterlimit:10;}
	.st4{fill:#222F3F;}
	.st5{fill:#383838;}
	.st6{fill:#FFFFFF;}
	.st7{fill:#B0B0B0;}
	.st8{fill:#656D7A;}
	.st9{fill:#C4C4C4;}
	.st10{filter:url(#Adobe_OpacityMaskFilter);}
	.st11{fill-rule:evenodd;clip-rule:evenodd;fill:#FFFFFF;}
	.st12{mask:url(#mask-2_8_);fill-rule:evenodd;clip-rule:evenodd;fill:#B0B0B0;}
	.st13{filter:url(#Adobe_OpacityMaskFilter_1_);}
	.st14{mask:url(#mask-2_7_);fill-rule:evenodd;clip-rule:evenodd;fill:#B0B0B0;}
	.st15{filter:url(#Adobe_OpacityMaskFilter_2_);}
	.st16{mask:url(#mask-2_6_);fill-rule:evenodd;clip-rule:evenodd;fill:#B0B0B0;}
	.st17{filter:url(#Adobe_OpacityMaskFilter_3_);}
	.st18{mask:url(#mask-2_5_);fill-rule:evenodd;clip-rule:evenodd;fill:#B0B0B0;}
	.st19{filter:url(#Adobe_OpacityMaskFilter_4_);}
	.st20{mask:url(#mask-2_2_);fill:none;stroke:#B0B0B0;stroke-width:1.5;stroke-miterlimit:10;}
	.st21{filter:url(#Adobe_OpacityMaskFilter_5_);}
	.st22{mask:url(#mask-2_10_);fill-rule:evenodd;clip-rule:evenodd;fill:#FC6A55;}
	.st23{filter:url(#Adobe_OpacityMaskFilter_6_);}
	.st24{mask:url(#mask-2_9_);fill-rule:evenodd;clip-rule:evenodd;fill:#FC6A55;}
	.st25{filter:url(#Adobe_OpacityMaskFilter_7_);}
	.st26{mask:url(#mask-2_4_);fill-rule:evenodd;clip-rule:evenodd;fill:#FC6A55;}
	.st27{filter:url(#Adobe_OpacityMaskFilter_8_);}
	.st28{mask:url(#mask-2_3_);fill-rule:evenodd;clip-rule:evenodd;fill:#FC6A55;}
	.st29{filter:url(#Adobe_OpacityMaskFilter_9_);}
	.st30{mask:url(#mask-2_1_);fill:none;stroke:#FC6A55;stroke-width:1.5;stroke-miterlimit:10;}
	.st31{fill:#B4A3EE;}
	.st32{fill:#222121;}
	.st33{fill:none;stroke:#FC6A55;stroke-width:0.75;stroke-miterlimit:10;}
	.st34{fill:#FC6A55;stroke:#FC6A55;stroke-width:0.25;stroke-miterlimit:10;}
	.st35{fill:#FC6A55;stroke:#FC6A55;stroke-width:0.5;stroke-miterlimit:10;}
	.st36{opacity:0.5;fill:#FC6A55;}
	.st37{fill:#F5F4F9;}
	.st38{opacity:0.153;fill:url(#Path_144_);enable-background:new    ;}
	.st39{opacity:0.1;fill:#590BB2;enable-background:new    ;}
	.st40{fill:#8E8CA8;}
	.st41{fill:#FFD5B8;}
	.st42{fill:#FC8473;}
	.st43{fill:#1C3475;}
	.st44{fill:#DDD9E4;}
	.st45{fill:#828FB3;}
	.st46{opacity:7.584635e-02;fill:url(#Path_145_);enable-background:new    ;}
	.st47{fill:#FFBE92;}
	.st48{fill:#FB8E7F;}
	.st49{fill:#FDB1A6;}
	.st50{fill:#FC806F;}
	.st51{fill:#FFE783;}
	.st52{fill:#104478;}
	.st53{fill:none;stroke:#FFFFFF;stroke-miterlimit:10;}
	.st54{fill:none;stroke:#000000;stroke-width:0.15;stroke-miterlimit:10;}
	.st55{opacity:0.3;fill:#FC6A55;}
	.st56{opacity:0.4;fill:#FC6A55;}
	.st57{opacity:0.1;fill:url(#Path_147_);enable-background:new    ;}
	.st58{opacity:0.1;fill:url(#Path_150_);enable-background:new    ;}
	.st59{fill-rule:evenodd;clip-rule:evenodd;fill:#FC6A55;}
	.st60{fill-rule:evenodd;clip-rule:evenodd;}
	.st61{fill:#FF6757;}
	.st62{fill:#6C973D;}
	.st63{fill:none;stroke:#FFFFFF;stroke-width:0.5;stroke-miterlimit:10;}
	.st64{fill:#606060;}
	.st65{fill:#F16A56;}
	.st66{fill:#515252;}
	.st67{fill:#656565;}
	.st68{fill:#F26A56;}
	.st69{fill:none;stroke:#F16A56;stroke-miterlimit:10;}
	.st70{fill:none;stroke:#929292;stroke-miterlimit:10;}
	.st71{fill:#929292;}
	.st72{fill:none;stroke:#000000;stroke-width:0.5;stroke-miterlimit:10;}
	.st73{fill:#A8A7A7;}
	.st74{fill:#F79F91;}
	.st75{fill:#9BDBD5;}
	.st76{stroke:#000000;stroke-width:0.25;stroke-miterlimit:10;}
	.st77{fill:#6F6F6F;}
	.st78{fill:none;stroke:#6F6F6F;stroke-width:0.75;stroke-miterlimit:10;}
</style>
<g>
	<g>
		<path class="st1" d="M39.4,33.9L35,32.4l-1.6-3.1c1.4-1.4,2.4-3.3,2.7-5.3l0.2-1.2H38c1.5,0,2.8-1.2,2.8-2.8v-5.8
			c0-7.6-6.2-13.8-13.8-13.8c-7.6,0-13.8,6.2-13.8,13.8v5.8c0,1.2,0.8,2.2,1.8,2.6v1.1c0,1.5,1.2,2.8,2.8,2.8h0.8
			c0.4,0.9,0.9,1.7,1.5,2.4c0.1,0.1,0.3,0.3,0.4,0.4L19,32.4l-4.4,1.5c-5.1,1.7-8.8,7-8.8,12.7c0,0.5,0.4,0.9,0.9,0.9h40.4
			c0.5,0,0.9-0.4,0.9-0.9C48.1,40.9,44.4,35.6,39.4,33.9z M38.9,20.1c0,0.5-0.4,0.9-0.9,0.9h-1.4c0.2-1.8,0.4-3.7,0.5-5.6
			c0-0.1,0-0.1,0-0.2h1.9V20.1z M16,21c-0.5,0-0.9-0.4-0.9-0.9v-4.9h1.9c0,0.1,0,0.2,0,0.3c0,0,0,0,0,0c0,0,0,0,0,0
			c0.1,1.8,0.2,3.7,0.4,5.5L16,21L16,21z M17.8,24.6c-0.5,0-0.9-0.4-0.9-0.9v-0.9h0.8l0.2,1.2c0,0.2,0.1,0.4,0.1,0.7H17.8z
			 M16.9,13.4h-1.8c0.5-6.2,5.6-11,11.9-11c6.3,0,11.4,4.9,11.9,11h-1.8c-0.1-5.1-4.2-9.2-9.3-9.2h-1.6C21.1,4.2,17,8.3,16.9,13.4z
			 M26.2,6h1.6c4.1,0,7.4,3.4,7.4,7.5c0,0.3,0,0.5,0,0.8c0,0,0,0,0,0l-1.1-0.2c-3.1-0.4-6.1-1.9-8.3-4.1c-0.2-0.2-0.4-0.3-0.6-0.3
			c-2.5,0-4.8,1.1-6.4,3C19.2,9,22.3,6,26.2,6z M19.9,24.6c-0.5-1.5-1-6-1.1-8.9l1.2-1.6c1.1-1.5,2.9-2.5,4.8-2.6
			c2.5,2.4,5.7,3.9,9,4.4l1.4,0.2c-0.1,1.9-0.3,3.8-0.5,5.6c0,0,0,0,0,0c-0.1,0.6-0.2,0.9-0.3,2c-0.5,2.9-2.7,5.6-5.5,6.3
			c-1.2,0.3-2.4,0.3-3.6,0c-1.8-0.4-3.4-1.7-4.5-3.5h1.9c0.4,1.1,1.4,1.8,2.6,1.8H27c1.5,0,2.8-1.2,2.8-2.8c0-1.5-1.2-2.8-2.8-2.8
			h-1.8c-1.2,0-2.2,0.8-2.6,1.8H19.9z M25.1,31.8c0.6,0.1,1.3,0.2,1.9,0.2c0.5,0,1,0,1.5-0.1l-1.6,1.7L25.1,31.8z M25.6,34.9
			L22.7,38c-0.8-1.5-1.5-3.1-2.1-4.8l1.1-2.2L25.6,34.9z M32.1,30.7l1.2,2.5c-0.6,1.6-1.3,3.2-2.1,4.8l-3.1-3.1L32.1,30.7z
			 M24.2,25.6c0-0.5,0.4-0.9,0.9-0.9H27c0.5,0,0.9,0.4,0.9,0.9c0,0.5-0.4,0.9-0.9,0.9h-1.8C24.7,26.5,24.2,26.1,24.2,25.6z
			 M7.8,45.7c0.4-4.5,3.4-8.7,7.5-10l3.9-1.3c0.7,2,1.6,3.9,2.6,5.7c0,0,0,0,0,0c0,0,0,0,0,0c0.8,1.3,1.6,2.6,2.5,3.8l1.1,1.8H7.8z
			 M27,44.8l-1.2-2c0,0,0,0,0-0.1c-0.7-1-1.4-2-2.1-3.1l3.3-3.5l3.4,3.4c-0.6,1.1-1.3,2.1-2.1,3.1C28.2,42.8,28.3,42.7,27,44.8z
			 M28.7,45.7l1.1-1.8c0.9-1.2,1.8-2.5,2.5-3.9c0,0,0,0,0,0c0,0,0,0,0,0c1-1.8,1.9-3.7,2.6-5.6l3.9,1.3c4.1,1.4,7.1,5.5,7.5,10
			L28.7,45.7L28.7,45.7z"/>
	</g>
</g>
</svg>
