<?xml version="1.0" encoding="utf-8"?>
<!-- Generator: Adobe Illustrator 24.0.2, SVG Export Plug-In . SVG Version: 6.00 Build 0)  -->
<svg version="1.1" id="Layer_1" xmlns="http://www.w3.org/2000/svg" xmlns:xlink="http://www.w3.org/1999/xlink" x="0px" y="0px"
	 viewBox="0 0 18 24" style="enable-background:new 0 0 18 24;" xml:space="preserve">
<style type="text/css">
	.st0{fill:#FC6A55;}
	.st1{fill:#EDEDED;}
	.st2{fill:none;stroke:#FC6A55;stroke-miterlimit:10;}
	.st3{stroke:#FFFFFF;stroke-width:0.25;stroke-miterlimit:10;}
	.st4{fill:#656D7A;}
	.st5{fill:#FFFFFF;}
	.st6{filter:url(#Adobe_OpacityMaskFilter);}
	.st7{fill-rule:evenodd;clip-rule:evenodd;fill:#FFFFFF;}
	.st8{mask:url(#mask-2_8_);fill-rule:evenodd;clip-rule:evenodd;}
	.st9{filter:url(#Adobe_OpacityMaskFilter_1_);}
	.st10{mask:url(#mask-2_7_);fill-rule:evenodd;clip-rule:evenodd;}
	.st11{filter:url(#Adobe_OpacityMaskFilter_2_);}
	.st12{mask:url(#mask-2_6_);fill-rule:evenodd;clip-rule:evenodd;}
	.st13{filter:url(#Adobe_OpacityMaskFilter_3_);}
	.st14{mask:url(#mask-2_5_);fill-rule:evenodd;clip-rule:evenodd;}
	.st15{filter:url(#Adobe_OpacityMaskFilter_4_);}
	.st16{mask:url(#mask-2_2_);fill:none;stroke:#000000;stroke-width:2;}
	.st17{fill:#434343;}
	.st18{fill:#434343;stroke:#F9F9F9;stroke-width:0.25;stroke-miterlimit:10;}
	.st19{fill:none;stroke:#FC6A55;stroke-width:0.5;stroke-miterlimit:10;}
	.st20{fill:none;stroke:#FC6A55;stroke-width:0.75;stroke-miterlimit:10;}
	.st21{fill:#FC6A55;stroke:#FC6A55;stroke-width:0.5;stroke-miterlimit:10;}
	.st22{opacity:0.153;fill:url(#Path_146_);enable-background:new    ;}
	.st23{opacity:0.1;fill:#590BB2;enable-background:new    ;}
	.st24{fill:#8E8CA8;}
	.st25{fill:#F5F4F9;}
	.st26{fill:#FFD5B8;}
	.st27{fill:#FC8473;}
	.st28{fill:#1C3475;}
	.st29{fill:#DDD9E4;}
	.st30{fill:#828FB3;}
	.st31{opacity:7.584635e-02;fill:url(#Path_147_);enable-background:new    ;}
	.st32{fill:#FFBE92;}
	.st33{fill:#FB8E7F;}
	.st34{fill:#FDB1A6;}
	.st35{fill:#FC806F;}
	.st36{fill:#FFE783;}
	.st37{fill:#104478;}
	.st38{fill:none;stroke:#FFFFFF;stroke-miterlimit:10;}
	.st39{fill:none;stroke:#000000;stroke-width:0.15;stroke-miterlimit:10;}
	.st40{opacity:0.1;fill:url(#Path_148_);enable-background:new    ;}
	.st41{opacity:0.1;fill:url(#Path_149_);enable-background:new    ;}
	.st42{fill-rule:evenodd;clip-rule:evenodd;}
</style>
<g>
	<g>
		<g>
			<path d="M16.3,4.3h-3.2c-0.1,0-0.3,0.1-0.3,0.3s0.1,0.3,0.3,0.3h3.2c0.1,0,0.3-0.1,0.3-0.3S16.5,4.3,16.3,4.3z"/>
			<path d="M16.3,5.5h-3.2c-0.1,0-0.3,0.1-0.3,0.3s0.1,0.3,0.3,0.3h3.2c0.1,0,0.3-0.1,0.3-0.3S16.5,5.5,16.3,5.5z"/>
			<path d="M16.5,2.9h-1.8c-0.1,0-0.3,0.1-0.3,0.3c0,0.1,0.1,0.3,0.3,0.3h1.8c0.6,0,1,0.4,1,1V6c0,0.6-0.4,1-1,1h-2
				c-0.2,0-0.4,0.1-0.5,0.3l-0.7,1V7.6c0-0.3-0.2-0.6-0.5-0.6c-0.5-0.1-0.8-0.5-0.8-1V4.4c0-0.6,0.4-1,1-1h0.5
				c0.1,0,0.3-0.1,0.3-0.3s-0.1-0.3-0.3-0.3h-0.5c-0.8,0-1.5,0.7-1.5,1.5V6c0,0.7,0.5,1.3,1.2,1.5c0,0,0.1,0.1,0.1,0.1v1.1
				c0,0.4,0.5,0.5,0.7,0.2l1-1.4c0,0,0.1,0,0.1,0h2C17.3,7.5,18,6.8,18,6V4.4C18,3.6,17.3,2.9,16.5,2.9L16.5,2.9z"/>
			<path d="M9.4,17.4H7.8c-0.2,0-0.4,0.2-0.4,0.4v0.6c0,0.2,0.2,0.4,0.4,0.4h1.5c0.2,0,0.4-0.2,0.4-0.4v-0.6
				C9.8,17.6,9.6,17.4,9.4,17.4z M9.3,18.4H7.9v-0.4h1.3V18.4z"/>
		</g>
		<path d="M11.1,14.4c-0.7-0.3-2.1-0.6-2.8-0.7c0,0,0,0,0,0c0,0,0,0,0,0c0,0,0,0,0,0c-0.1,0-0.2-0.1-0.2-0.2v-1c0.5-0.4,1.1-1,1.1-2
			H10c0.6,0,1.2-0.5,1.2-1.2l0-0.8c0-2.7-2.2-4.9-4.9-4.9c-2.7,0-4.9,2.2-4.9,4.9l0,0.8c0,0.5,0.4,1,0.9,1.1V11
			c0,0.4,0.3,0.8,0.8,0.8h0.6c0.2,0.3,0.5,0.6,0.7,0.8v1c0,0.1-0.1,0.2-0.2,0.2c-0.7,0.1-2.1,0.3-2.8,0.7C0.6,14.8,0,15.7,0,16.7
			v0.9c0,0.1,0.1,0.3,0.3,0.3s0.3-0.1,0.3-0.3v-0.9c0-0.8,0.4-1.5,1.1-1.8c0.4-0.2,0.9-0.3,1.4-0.4l0.8,1.4c0.2,0.3,0.5,0.5,0.9,0.5
			c0.1,0,0.1,0,1.3-0.2v4.4H2.4v-1.2c0-0.1-0.1-0.3-0.3-0.3s-0.3,0.1-0.3,0.3v1.2h-1c-0.1,0-0.3-0.1-0.3-0.3v-1.5
			c0-0.1-0.1-0.3-0.3-0.3S0,18.6,0,18.8v1.5c0,0.4,0.4,0.8,0.8,0.8h10.9c0.4,0,0.8-0.4,0.8-0.8v-3.6C12.5,15.7,12,14.8,11.1,14.4
			L11.1,14.4z M8.3,14.3c0.2,0,0.4,0.1,0.6,0.1l-0.7,1.2c-0.1,0.2-0.3,0.3-0.5,0.2l-0.9-0.1L8.3,14.3z M9.2,7.9
			c-0.1-0.7-0.4-1-1-1.5c-0.4-0.4-1-0.3-1.4,0C6.5,6.8,6,7,5.6,7H4.4C4,7,3.5,7.3,3.3,7.9H2.9c0.3-1.6,1.6-2.8,3.3-2.8
			c1.7,0,3.2,1.2,3.5,2.8L9.2,7.9L9.2,7.9z M2.8,8.5h0.5l0,1.5H2.8C2.8,8.5,2.8,8.6,2.8,8.5z M9.7,10H9.2l0-1.5h0.5
			C9.7,8.6,9.7,8.5,9.7,10L9.7,10z M1.9,9.4l0-0.8c0-2.4,1.9-4.3,4.3-4.3c2.4,0,4.3,1.9,4.3,4.3l0,0.8c0,0.3-0.1,0.5-0.4,0.6l0-1.3
			c0-2.2-1.8-4-4.1-4C4,4.7,2.3,6.4,2.3,8.6l0,1.3C2.1,9.8,1.9,9.6,1.9,9.4L1.9,9.4z M3.1,11.2c-0.1,0-0.2-0.1-0.2-0.2v-0.5h0.5
			c0,0.3,0,0.5,0.1,0.7L3.1,11.2z M3.9,11c0-0.1-0.1-0.3-0.1-0.5l0-2.3c0-0.4,0.4-0.7,0.6-0.7h1.1c0.6,0,1.2-0.2,1.6-0.7
			c0.2-0.2,0.5-0.2,0.7,0c0.5,0.5,0.8,0.7,0.8,1.4l0,2.3c0,0.8-0.5,1.3-1,1.7c0,0,0,0,0,0c-0.5,0.3-1.1,0.5-1.4,0.5
			c-0.3,0-0.8-0.2-1.3-0.4h0.5c0.4,0,0.8-0.3,0.8-0.8s-0.3-0.8-0.8-0.8h-1C4.2,10.8,4,10.8,3.9,11L3.9,11z M4.4,11.7
			c-0.1,0-0.2-0.1-0.2-0.2c0-0.1,0.1-0.2,0.2-0.2h1c0.1,0,0.2,0.1,0.2,0.2s-0.1,0.2-0.2,0.2H4.4z M4.8,15.8c-0.2,0-0.4-0.1-0.5-0.2
			l-0.7-1.2c0.2,0,0.4-0.1,0.6-0.1l1.5,1.4L4.8,15.8z M4.7,14.1C4.9,13.9,5,13.7,5,13.5v-0.7c0.5,0.2,1,0.4,1.3,0.4c0,0,0,0,0,0
			c0,0,0,0,0,0c0.3,0,0.8-0.1,1.3-0.4v0.7c0,0.2,0.1,0.4,0.2,0.5l-1.5,1.5L4.7,14.1z M12,20.3c0,0.2-0.1,0.3-0.3,0.3h-1v-1.2
			c0-0.1-0.1-0.3-0.3-0.3c-0.1,0-0.3,0.1-0.3,0.3v1.2H6.5v-4.4c1.2,0.2,1.2,0.2,1.3,0.2c0.4,0,0.7-0.2,0.9-0.5l0.8-1.4
			c0.5,0.1,1,0.2,1.4,0.4c0.7,0.3,1.1,1,1.1,1.8L12,20.3L12,20.3z"/>
	</g>
</g>
</svg>
