<?xml version="1.0" encoding="utf-8"?>
<!-- Generator: Adobe Illustrator 24.0.2, SVG Export Plug-In . SVG Version: 6.00 Build 0)  -->
<svg version="1.1" id="Layer_1" xmlns="http://www.w3.org/2000/svg" xmlns:xlink="http://www.w3.org/1999/xlink" x="0px" y="0px"
	 viewBox="0 0 18 24" style="enable-background:new 0 0 18 24;" xml:space="preserve">
<style type="text/css">
	.st0{fill:#FC6A55;}
	.st1{fill:#EDEDED;}
	.st2{fill:none;stroke:#FC6A55;stroke-miterlimit:10;}
	.st3{stroke:#FFFFFF;stroke-width:0.25;stroke-miterlimit:10;}
	.st4{fill:#656D7A;}
	.st5{fill:#FFFFFF;}
	.st6{filter:url(#Adobe_OpacityMaskFilter);}
	.st7{fill-rule:evenodd;clip-rule:evenodd;fill:#FFFFFF;}
	.st8{mask:url(#mask-2_8_);fill-rule:evenodd;clip-rule:evenodd;}
	.st9{filter:url(#Adobe_OpacityMaskFilter_1_);}
	.st10{mask:url(#mask-2_7_);fill-rule:evenodd;clip-rule:evenodd;}
	.st11{filter:url(#Adobe_OpacityMaskFilter_2_);}
	.st12{mask:url(#mask-2_6_);fill-rule:evenodd;clip-rule:evenodd;}
	.st13{filter:url(#Adobe_OpacityMaskFilter_3_);}
	.st14{mask:url(#mask-2_5_);fill-rule:evenodd;clip-rule:evenodd;}
	.st15{filter:url(#Adobe_OpacityMaskFilter_4_);}
	.st16{mask:url(#mask-2_2_);fill:none;stroke:#000000;stroke-width:2;}
	.st17{fill:#434343;}
	.st18{fill:#434343;stroke:#F9F9F9;stroke-width:0.25;stroke-miterlimit:10;}
	.st19{fill:none;stroke:#FC6A55;stroke-width:0.5;stroke-miterlimit:10;}
	.st20{fill:none;stroke:#FC6A55;stroke-width:0.75;stroke-miterlimit:10;}
	.st21{fill:#FC6A55;stroke:#FC6A55;stroke-width:0.5;stroke-miterlimit:10;}
	.st22{opacity:0.153;fill:url(#Path_146_);enable-background:new    ;}
	.st23{opacity:0.1;fill:#590BB2;enable-background:new    ;}
	.st24{fill:#8E8CA8;}
	.st25{fill:#F5F4F9;}
	.st26{fill:#FFD5B8;}
	.st27{fill:#FC8473;}
	.st28{fill:#1C3475;}
	.st29{fill:#DDD9E4;}
	.st30{fill:#828FB3;}
	.st31{opacity:7.584635e-02;fill:url(#Path_147_);enable-background:new    ;}
	.st32{fill:#FFBE92;}
	.st33{fill:#FB8E7F;}
	.st34{fill:#FDB1A6;}
	.st35{fill:#FC806F;}
	.st36{fill:#FFE783;}
	.st37{fill:#104478;}
	.st38{fill:none;stroke:#FFFFFF;stroke-miterlimit:10;}
	.st39{fill:none;stroke:#000000;stroke-width:0.15;stroke-miterlimit:10;}
	.st40{opacity:0.1;fill:url(#Path_148_);enable-background:new    ;}
	.st41{opacity:0.1;fill:url(#Path_149_);enable-background:new    ;}
	.st42{fill-rule:evenodd;clip-rule:evenodd;fill:#FC6A55;}
	.st43{fill-rule:evenodd;clip-rule:evenodd;}
</style>
<g id="XMLID_2603_">
	<g id="XMLID_636_">
		<path id="XMLID_1699_" class="st0" d="M3.3,9.5C5,9.5,6.5,8,6.5,6.3S5,3,3.3,3S0,4.5,0,6.3S1.5,9.5,3.3,9.5z M3.3,3.7
			c1.4,0,2.6,1.1,2.6,2.6S4.7,8.8,3.3,8.8S0.7,7.7,0.7,6.3S1.8,3.7,3.3,3.7z"/>
		<path id="XMLID_1701_" class="st0" d="M3.5,7c0.1,0.1,0.2,0.1,0.2,0.1C3.9,7.1,4,7.1,4,7c0.1-0.1,0.1-0.4,0-0.5L3.6,6.1V4.5
			c0-0.2-0.2-0.4-0.4-0.4c-0.2,0-0.4,0.2-0.4,0.4v1.7c0,0.1,0,0.2,0.1,0.2L3.5,7z"/>
		<path id="XMLID_1706_" class="st0" d="M17.6,14.7h-2.2c-0.3-0.4-0.7-0.7-1.3-0.8l-1.5-0.3c0.6-0.4,1-1.1,1-2v-0.9v-0.4v-0.1
			c0-1.3-1.1-2.4-2.4-2.4S9,8.9,9,10.2v0.1v0.4v0.9c0,0.8,0.4,1.5,1,2l-1.5,0.3c-0.1,0-0.1,0-0.2,0.1V11c0-0.2-0.2-0.4-0.4-0.4H5.6
			c-0.2,0-0.4,0.2-0.4,0.4s0.2,0.4,0.4,0.4h2v4.9H5.2v-1.8c0-0.6-0.5-1.1-1.1-1.1s-1.1,0.5-1.1,1.1v1.8H0.7v-4.9h2
			c0.2,0,0.4-0.2,0.4-0.4s-0.2-0.4-0.4-0.4H0.4C0.2,10.6,0,10.8,0,11v5.6C0,16.8,0.2,17,0.4,17h2.7v0.7h0c-0.6,0-1.1,0.5-1.1,1.1
			v0.2H0.4C0.2,18.9,0,19,0,19.2v1.4C0,20.8,0.2,21,0.4,21h17.3c0.2,0,0.4-0.2,0.4-0.4v-1.4v-1.4v-1.4V15
			C18,14.8,17.8,14.7,17.6,14.7z M15.5,18.9h-2v-0.7h3.8v0.7H15.5z M17.3,17.5h-3.8v-0.7h3.8V17.5z M17.3,16.1h-3.8v-0.7h1.8
			c0,0,0,0,0,0c0,0,0,0,0,0h2V16.1z M9.7,10.2c0-0.9,0.7-1.7,1.7-1.7c0.9,0,1.6,0.7,1.7,1.5l-0.8-0.5c-0.1-0.1-0.3-0.1-0.4,0.1
			c-0.4,0.4-0.9,0.7-1.4,0.7H9.7L9.7,10.2L9.7,10.2L9.7,10.2z M9.7,11h0.6c0.7,0,1.3-0.3,1.8-0.7l0.9,0.6v0.7c0,0.9-0.7,1.7-1.7,1.7
			c-0.9,0-1.7-0.7-1.7-1.7L9.7,11L9.7,11z M11.9,13.8l-0.6,1.5l-0.6-1.5c0.2,0,0.4,0.1,0.6,0.1C11.6,13.9,11.7,13.9,11.9,13.8z
			 M7.9,17c0.2,0,0.4-0.2,0.4-0.4v-2c0.1-0.1,0.2-0.1,0.3-0.1l1.5-0.3l0.8,2.3c0.1,0.1,0.2,0.2,0.3,0.2c0.1,0,0.3-0.1,0.3-0.2
			l0.8-2.3l1.5,0.3c0.1,0,0.3,0.1,0.4,0.1h-1.3c-0.2,0-0.4,0.2-0.4,0.4v1.4v1.4v1.1H7.6V17L7.9,17L7.9,17z M6.9,17v1.9H6.3v-0.2
			c0-0.6-0.5-1.1-1.1-1.1h0V17H6.9z M3.8,14.5c0-0.2,0.2-0.4,0.4-0.4s0.4,0.2,0.4,0.4v3.1H3.8V14.5z M2.7,18.7
			c0-0.2,0.2-0.4,0.4-0.4h0.4h1.4h0.4c0.2,0,0.4,0.2,0.4,0.4v0.2h-3V18.7z M17.3,20.3H0.7v-0.7h16.6V20.3z"/>
		<path id="XMLID_1768_" class="st0" d="M3.9,10.7c-0.1,0.1-0.1,0.2-0.1,0.2s0,0.2,0.1,0.2c0.1,0.1,0.2,0.1,0.2,0.1s0.2,0,0.2-0.1
			c0.1-0.1,0.1-0.2,0.1-0.2s0-0.2-0.1-0.2c-0.1-0.1-0.2-0.1-0.2-0.1S4,10.7,3.9,10.7z"/>
	</g>
</g>
</svg>
