<?xml version="1.0" encoding="utf-8"?>
<!-- Generator: Adobe Illustrator 24.0.2, SVG Export Plug-In . SVG Version: 6.00 Build 0)  -->
<svg version="1.1" id="Layer_1" xmlns="http://www.w3.org/2000/svg" xmlns:xlink="http://www.w3.org/1999/xlink" x="0px" y="0px"
	 viewBox="0 0 18 24" style="enable-background:new 0 0 18 24;" xml:space="preserve">
<style type="text/css">
	.st0{fill:#FC6A55;}
	.st1{fill:#EDEDED;}
	.st2{fill:none;stroke:#FC6A55;stroke-miterlimit:10;}
	.st3{stroke:#FFFFFF;stroke-width:0.25;stroke-miterlimit:10;}
	.st4{fill:#656D7A;}
	.st5{fill:#FFFFFF;}
	.st6{filter:url(#Adobe_OpacityMaskFilter);}
	.st7{fill-rule:evenodd;clip-rule:evenodd;fill:#FFFFFF;}
	.st8{mask:url(#mask-2_8_);fill-rule:evenodd;clip-rule:evenodd;}
	.st9{filter:url(#Adobe_OpacityMaskFilter_1_);}
	.st10{mask:url(#mask-2_7_);fill-rule:evenodd;clip-rule:evenodd;}
	.st11{filter:url(#Adobe_OpacityMaskFilter_2_);}
	.st12{mask:url(#mask-2_6_);fill-rule:evenodd;clip-rule:evenodd;}
	.st13{filter:url(#Adobe_OpacityMaskFilter_3_);}
	.st14{mask:url(#mask-2_5_);fill-rule:evenodd;clip-rule:evenodd;}
	.st15{filter:url(#Adobe_OpacityMaskFilter_4_);}
	.st16{mask:url(#mask-2_2_);fill:none;stroke:#000000;stroke-width:2;}
	.st17{fill:#434343;}
	.st18{fill:#434343;stroke:#F9F9F9;stroke-width:0.25;stroke-miterlimit:10;}
	.st19{fill:none;stroke:#FC6A55;stroke-width:0.5;stroke-miterlimit:10;}
	.st20{fill:none;stroke:#FC6A55;stroke-width:0.75;stroke-miterlimit:10;}
	.st21{fill:#FC6A55;stroke:#FC6A55;stroke-width:0.5;stroke-miterlimit:10;}
	.st22{opacity:0.153;fill:url(#Path_146_);enable-background:new    ;}
	.st23{opacity:0.1;fill:#590BB2;enable-background:new    ;}
	.st24{fill:#8E8CA8;}
	.st25{fill:#F5F4F9;}
	.st26{fill:#FFD5B8;}
	.st27{fill:#FC8473;}
	.st28{fill:#1C3475;}
	.st29{fill:#DDD9E4;}
	.st30{fill:#828FB3;}
	.st31{opacity:7.584635e-02;fill:url(#Path_147_);enable-background:new    ;}
	.st32{fill:#FFBE92;}
	.st33{fill:#FB8E7F;}
	.st34{fill:#FDB1A6;}
	.st35{fill:#FC806F;}
	.st36{fill:#FFE783;}
	.st37{fill:#104478;}
	.st38{fill:none;stroke:#FFFFFF;stroke-miterlimit:10;}
	.st39{fill:none;stroke:#000000;stroke-width:0.15;stroke-miterlimit:10;}
	.st40{opacity:0.1;fill:url(#Path_148_);enable-background:new    ;}
	.st41{opacity:0.1;fill:url(#Path_149_);enable-background:new    ;}
	.st42{fill-rule:evenodd;clip-rule:evenodd;fill:#FC6A55;}
	.st43{fill-rule:evenodd;clip-rule:evenodd;}
</style>
<g>
	<path class="st0" d="M0,17.3l0,3.8h15.4v-0.6h-0.6V20h2.3c0.5,0,0.9-0.4,0.9-0.9v-5.2c0-0.5-0.4-0.9-0.9-0.9h-7
		c-0.5,0-0.9,0.4-0.9,0.9v1.6c-0.1-0.1-0.3-0.1-0.4-0.1l-2.2-0.5v-0.6c0.2-0.2,0.4-0.4,0.6-0.6h0.3c0.8,0,1.5-0.7,1.5-1.5
		c0-0.3-0.1-0.6-0.3-0.9v-1.2c0-1.9-1.6-3.5-3.5-3.5s-3.5,1.6-3.5,3.5v1.2c-0.2,0.2-0.3,0.5-0.3,0.9c0,0.8,0.7,1.5,1.5,1.5h0.3
		c0.1,0.2,0.3,0.5,0.6,0.6v0.6l-2.2,0.5C0.6,15.5,0,16.3,0,17.3z M6.6,15.4l-0.2,0.9l-0.7-0.4l0.7-0.5L6.6,15.4z M5.8,20.5H4.7
		l0.2-2.9h0.6L5.8,20.5z M4.7,16.5l0.5-0.3l0.5,0.3L5.6,17H4.9L4.7,16.5z M4,16.3l-0.2-0.9l0.2,0l0.7,0.5L4,16.3z M2,12.1
		c0-0.5,0.4-0.9,0.9-0.9v1.2c0,0.2,0,0.4,0.1,0.6H2.9C2.4,13,2,12.6,2,12.1z M8.1,10.1v0.7c-0.2-0.1-0.4-0.1-0.6-0.1v-0.6H7v0.6h0
		c-0.4,0-0.9-0.2-1.2-0.5l-0.4,0.4c0,0,0,0,0,0c-0.3-0.1-0.6-0.2-0.8-0.4l-0.4,0.4c0,0,0,0,0,0c-0.3-0.1-0.5-0.2-0.7-0.4v-0.2H2.9
		v0.6c-0.2,0-0.4,0-0.6,0.1v-0.7c0-1.6,1.3-2.9,2.9-2.9S8.1,8.5,8.1,10.1z M7.5,13c0-0.2,0.1-0.4,0.1-0.6v-1.2
		c0.5,0,0.9,0.4,0.9,0.9S8,13,7.5,13L7.5,13z M5.2,14.1c-0.5,0-1-0.2-1.3-0.6h1.3V13H3.6c-0.1-0.2-0.1-0.4-0.1-0.6v-1.5
		c0.3,0.2,0.7,0.3,1.1,0.3h0.3v-0.2c0.3,0.1,0.5,0.2,0.8,0.2h0.3v-0.2c0.3,0.1,0.5,0.2,0.8,0.2h0v1.2C7,13.4,6.2,14.1,5.2,14.1z
		 M6.1,14.6v0.3l-0.9,0.7l-0.9-0.7v-0.3c0.3,0.1,0.6,0.2,0.9,0.2C5.5,14.7,5.8,14.7,6.1,14.6z M9.3,16.1v3c0,0.4,0.2,0.7,0.6,0.8
		v0.6H8.4v-3.2H7.8v3.2H6.4l-0.3-3.2l0.2-0.5l0.6,0.4l0.3-1.7l1.6,0.4C8.9,15.9,9.1,16,9.3,16.1z M12.5,20.5h-2V20h2V20.5z
		 M14.8,19.4v-0.6c0-0.6-0.5-1.2-1.2-1.2c-0.6,0-1.2,0.5-1.2,1.2v0.6h-2.3c-0.2,0-0.3-0.1-0.3-0.3v-5.2c0-0.2,0.1-0.3,0.3-0.3h7
		c0.2,0,0.3,0.1,0.3,0.3v5.2c0,0.2-0.1,0.3-0.3,0.3H14.8z M14.2,20.5h-1.2v-1.7c0-0.3,0.3-0.6,0.6-0.6c0.3,0,0.6,0.3,0.6,0.6V20.5z
		 M0.6,17.3c0-0.7,0.5-1.3,1.1-1.4l1.5-0.4l0.3,1.7l0.6-0.4l0.2,0.5l-0.3,3.2H2.6v-3.2H2v3.2H0.6V17.3z"/>
	<path class="st0" d="M10.7,10.7H16V9c0-0.4-0.2-0.7-0.6-0.8l-1.1-0.4V7.5c0.4-0.3,0.6-0.7,0.6-1.2V5.7c0-0.8-0.7-1.5-1.5-1.5
		c-0.8,0-1.5,0.7-1.5,1.5v0.6c0,0.5,0.2,0.9,0.6,1.2v0.4l-1.1,0.4C11,8.3,10.7,8.7,10.7,9V10.7z M14.2,6.3c0,0.5-0.4,0.9-0.9,0.9
		c-0.5,0-0.9-0.4-0.9-0.9V5.7c0-0.5,0.4-0.9,0.9-0.9c0.5,0,0.9,0.4,0.9,0.9V6.3z M11.3,9c0-0.1,0.1-0.2,0.2-0.3l1.5-0.5V7.7
		c0.1,0,0.2,0,0.3,0c0.1,0,0.2,0,0.3,0v0.5l1.5,0.5c0.1,0,0.2,0.2,0.2,0.3v1h-4.1V9z"/>
	<path class="st0" d="M18,7.8c0-2.6-2.1-4.6-4.6-4.6S8.7,5.2,8.7,7.8s2.1,4.6,4.6,4.6S18,10.3,18,7.8z M17.4,7.8
		c0,2.2-1.8,4.1-4.1,4.1S9.3,10,9.3,7.8s1.8-4.1,4.1-4.1S17.4,5.5,17.4,7.8z"/>
	<g>
		<path class="st0" d="M0.1,4.6h0.5V5H0.1V4.6z"/>
		<path class="st0" d="M1,4.6h0.5V5H1V4.6z"/>
		<path class="st0" d="M2,4.6h0.5V5H2V4.6z"/>
		<g>
			<g>
				<path class="st0" d="M8.8,4.7L7,2.9c0,0-0.1,0-0.1,0c0,0,0,0,0,0c0,0-0.1,0.1-0.1,0.1v0.2c0,0,0,0.1,0,0.1l1.2,1.2H3.3
					c-0.1,0-0.1,0.1-0.1,0.1v0.2C3.2,5,3.2,5,3.3,5h4.8L6.9,6.2c0,0,0,0.1,0,0.1v0.2c0,0,0,0.1,0.1,0.1c0,0,0.1,0,0.1,0l1.8-1.8
					C8.8,4.8,8.8,4.7,8.8,4.7z"/>
			</g>
		</g>
	</g>
</g>
</svg>
