<?xml version="1.0" encoding="utf-8"?>
<!-- Generator: Adobe Illustrator 24.0.2, SVG Export Plug-In . SVG Version: 6.00 Build 0)  -->
<svg version="1.1" id="Layer_1" xmlns="http://www.w3.org/2000/svg" xmlns:xlink="http://www.w3.org/1999/xlink" x="0px" y="0px"
	 viewBox="0 0 18 24" style="enable-background:new 0 0 18 24;" xml:space="preserve">
<style type="text/css">
	.st0{fill:#FC6A55;}
	.st1{fill:#EDEDED;}
	.st2{fill:none;stroke:#FC6A55;stroke-miterlimit:10;}
	.st3{stroke:#FFFFFF;stroke-width:0.25;stroke-miterlimit:10;}
	.st4{fill:#656D7A;}
	.st5{fill:#FFFFFF;}
	.st6{filter:url(#Adobe_OpacityMaskFilter);}
	.st7{fill-rule:evenodd;clip-rule:evenodd;fill:#FFFFFF;}
	.st8{mask:url(#mask-2_8_);fill-rule:evenodd;clip-rule:evenodd;}
	.st9{filter:url(#Adobe_OpacityMaskFilter_1_);}
	.st10{mask:url(#mask-2_7_);fill-rule:evenodd;clip-rule:evenodd;}
	.st11{filter:url(#Adobe_OpacityMaskFilter_2_);}
	.st12{mask:url(#mask-2_6_);fill-rule:evenodd;clip-rule:evenodd;}
	.st13{filter:url(#Adobe_OpacityMaskFilter_3_);}
	.st14{mask:url(#mask-2_5_);fill-rule:evenodd;clip-rule:evenodd;}
	.st15{filter:url(#Adobe_OpacityMaskFilter_4_);}
	.st16{mask:url(#mask-2_2_);fill:none;stroke:#000000;stroke-width:2;}
	.st17{fill:#434343;}
	.st18{fill:#434343;stroke:#F9F9F9;stroke-width:0.25;stroke-miterlimit:10;}
	.st19{fill:none;stroke:#FC6A55;stroke-width:0.5;stroke-miterlimit:10;}
	.st20{fill:none;stroke:#FC6A55;stroke-width:0.75;stroke-miterlimit:10;}
	.st21{fill:#FC6A55;stroke:#FC6A55;stroke-width:0.5;stroke-miterlimit:10;}
	.st22{opacity:0.153;fill:url(#Path_146_);enable-background:new    ;}
	.st23{opacity:0.1;fill:#590BB2;enable-background:new    ;}
	.st24{fill:#8E8CA8;}
	.st25{fill:#F5F4F9;}
	.st26{fill:#FFD5B8;}
	.st27{fill:#FC8473;}
	.st28{fill:#1C3475;}
	.st29{fill:#DDD9E4;}
	.st30{fill:#828FB3;}
	.st31{opacity:7.584635e-02;fill:url(#Path_147_);enable-background:new    ;}
	.st32{fill:#FFBE92;}
	.st33{fill:#FB8E7F;}
	.st34{fill:#FDB1A6;}
	.st35{fill:#FC806F;}
	.st36{fill:#FFE783;}
	.st37{fill:#104478;}
	.st38{fill:none;stroke:#FFFFFF;stroke-miterlimit:10;}
	.st39{fill:none;stroke:#000000;stroke-width:0.15;stroke-miterlimit:10;}
	.st40{opacity:0.1;fill:url(#Path_148_);enable-background:new    ;}
	.st41{opacity:0.1;fill:url(#Path_149_);enable-background:new    ;}
	.st42{fill-rule:evenodd;clip-rule:evenodd;fill:#FC6A55;}
	.st43{fill-rule:evenodd;clip-rule:evenodd;}
</style>
<g>
	<path class="st0" d="M5.6,4.1h11.3v0.6H5.6V4.1z"/>
	<path class="st0" d="M1.1,4.1h0.6v0.6H1.1V4.1z"/>
	<path class="st0" d="M2.3,4.1h0.6v0.6H2.3V4.1z"/>
	<path class="st0" d="M3.4,4.1h0.6v0.6H3.4V4.1z"/>
	<path class="st0" d="M9.3,16.5H8.7v-0.6h0.6V16.5z M9.3,15.4H8.7v-0.6h0.6V15.4z"/>
	<path class="st0" d="M8.7,17.1h0.6v3.4H8.7V17.1z"/>
	<path class="st0" d="M0,3v14.6h3.6c0.4,1.6,1.7,2.8,3.3,3.2s3.3,0,4.4-1.2l2.1-2H18V3H0z M6.8,20.2c-0.2-0.1-0.4-0.1-0.6-0.2v-3.2
		h0.6V20.2z M11.8,18.3l-0.6,0.6v-2.1h0.6V18.3z M11.8,16.2h-0.6v-0.8h-0.6v4c-0.9,0.8-2.2,1.2-3.4,0.9v-5H6.8v0.8H6.2v-1.5
		c0-0.1,0.1-0.2,0.2-0.3L8,14c0.1,0.3,0.4,0.5,1,0.5s0.9-0.3,1-0.5l1.6,0.4c0.1,0,0.2,0.1,0.2,0.3V16.2z M9.3,12.6H8.7l-0.6-0.4
		v-1.3h1.1v-0.6H7.7C8,10,8.3,9.8,8.8,9.8h0.8c0.2,0,0.3,0.1,0.3,0.3v2.1L9.3,12.6z M9.6,13.1v0.6c0,0.1,0,0.3-0.6,0.3
		c-0.5,0-0.6-0.2-0.6-0.3v-0.6l0.1,0.1L9.6,13.1L9.6,13.1z M17.4,17.1h-3.6l1.9-1.9v1.3h0.6v-2.3h-0.4l-3.5,3.5v-3.1
		c0-0.4-0.3-0.7-0.6-0.8l-1.6-0.4v-0.8l0.3-0.2V10c0-0.5-0.4-0.8-0.8-0.8H8.8c-0.8,0-1.5,0.6-1.7,1.3L7,10.9h0.6v1.5l0.3,0.2v0.8
		l-1.6,0.4c-0.4,0.1-0.6,0.4-0.6,0.8v5c-0.2-0.1-0.3-0.3-0.5-0.4c-1.6-1.6-1.6-4.2,0-5.7l-0.4-0.4c-1,1-1.5,2.5-1.3,4H0.6V5.8h16.9
		V17.1z M17.4,5.3H0.6V3.6h16.9V5.3z"/>
	<path class="st0" d="M7.1,8.1c1.6-1.6,4.2-1.6,5.8,0s1.6,4.2,0,5.8l0.4,0.4c1.8-1.8,1.7-4.7,0-6.5S8.5,6,6.7,7.7l-4.5,4.5v-1.3H1.7
		v2.3h0.4L7.1,8.1z"/>
</g>
</svg>
