<?xml version="1.0" encoding="utf-8"?>
<!-- Generator: Adobe Illustrator 24.0.2, SVG Export Plug-In . SVG Version: 6.00 Build 0)  -->
<svg version="1.1" id="Layer_1" xmlns="http://www.w3.org/2000/svg" xmlns:xlink="http://www.w3.org/1999/xlink" x="0px" y="0px"
	 viewBox="0 0 18 24" style="enable-background:new 0 0 18 24;" xml:space="preserve">
<style type="text/css">
	.st0{fill:#FC6A55;}
	.st1{fill:#EDEDED;}
	.st2{fill:none;stroke:#FC6A55;stroke-miterlimit:10;}
	.st3{stroke:#FFFFFF;stroke-width:0.25;stroke-miterlimit:10;}
	.st4{fill:#656D7A;}
	.st5{fill:#FFFFFF;}
	.st6{filter:url(#Adobe_OpacityMaskFilter);}
	.st7{fill-rule:evenodd;clip-rule:evenodd;fill:#FFFFFF;}
	.st8{mask:url(#mask-2_8_);fill-rule:evenodd;clip-rule:evenodd;}
	.st9{filter:url(#Adobe_OpacityMaskFilter_1_);}
	.st10{mask:url(#mask-2_7_);fill-rule:evenodd;clip-rule:evenodd;}
	.st11{filter:url(#Adobe_OpacityMaskFilter_2_);}
	.st12{mask:url(#mask-2_6_);fill-rule:evenodd;clip-rule:evenodd;}
	.st13{filter:url(#Adobe_OpacityMaskFilter_3_);}
	.st14{mask:url(#mask-2_5_);fill-rule:evenodd;clip-rule:evenodd;}
	.st15{filter:url(#Adobe_OpacityMaskFilter_4_);}
	.st16{mask:url(#mask-2_2_);fill:none;stroke:#000000;stroke-width:2;}
	.st17{fill:#434343;}
	.st18{fill:#434343;stroke:#F9F9F9;stroke-width:0.25;stroke-miterlimit:10;}
	.st19{fill:none;stroke:#FC6A55;stroke-width:0.5;stroke-miterlimit:10;}
	.st20{fill:none;stroke:#FC6A55;stroke-width:0.75;stroke-miterlimit:10;}
	.st21{fill:#FC6A55;stroke:#FC6A55;stroke-width:0.5;stroke-miterlimit:10;}
	.st22{opacity:0.153;fill:url(#Path_146_);enable-background:new    ;}
	.st23{opacity:0.1;fill:#590BB2;enable-background:new    ;}
	.st24{fill:#8E8CA8;}
	.st25{fill:#F5F4F9;}
	.st26{fill:#FFD5B8;}
	.st27{fill:#FC8473;}
	.st28{fill:#1C3475;}
	.st29{fill:#DDD9E4;}
	.st30{fill:#828FB3;}
	.st31{opacity:7.584635e-02;fill:url(#Path_147_);enable-background:new    ;}
	.st32{fill:#FFBE92;}
	.st33{fill:#FB8E7F;}
	.st34{fill:#FDB1A6;}
	.st35{fill:#FC806F;}
	.st36{fill:#FFE783;}
	.st37{fill:#104478;}
	.st38{fill:none;stroke:#FFFFFF;stroke-miterlimit:10;}
	.st39{fill:none;stroke:#000000;stroke-width:0.15;stroke-miterlimit:10;}
	.st40{opacity:0.1;fill:url(#Path_148_);enable-background:new    ;}
	.st41{opacity:0.1;fill:url(#Path_149_);enable-background:new    ;}
	.st42{fill-rule:evenodd;clip-rule:evenodd;fill:#FC6A55;}
	.st43{fill-rule:evenodd;clip-rule:evenodd;}
</style>
<g>
	<path class="st0" d="M17.7,14.6c0.1,0,0.3-0.1,0.3-0.3V5.3c0-0.6-0.5-1.1-1.1-1.1h-1.3V4.1c0-0.5-0.4-0.9-0.9-0.9h-0.3
		c-0.5,0-0.9,0.4-0.9,0.9v0.1H8.4c-0.1,0-0.3,0.1-0.3,0.3c0,0.1,0.1,0.3,0.3,0.3h5.2v0.7c0,0.5,0.4,0.9,0.9,0.9h0.3
		c0.5,0,0.9-0.4,0.9-0.9V4.7h1.3c0.3,0,0.5,0.2,0.5,0.5v1.6H1.5V5.3c0-0.3,0.2-0.5,0.5-0.5h1.3v0.7c0,0.5,0.4,0.9,0.9,0.9h0.3
		c0.5,0,0.9-0.4,0.9-0.9V4.7h1.3C6.9,4.7,7,4.6,7,4.5c0-0.1-0.1-0.3-0.3-0.3H5.5V4.1c0-0.5-0.4-0.9-0.9-0.9H4.3
		c-0.5,0-0.9,0.4-0.9,0.9v0.1H2.1C1.5,4.2,1,4.7,1,5.3v12.4H0.6c-0.2,0-0.3,0.1-0.5,0.2C0,18,0,18.2,0,18.4c0.2,2.1,1.7,2.4,1.7,2.4
		c0,0,0,0,0.1,0h14.6c0,0,0,0,0,0h0.6c0.6,0,1.1-0.5,1.1-1.1V16c0-0.1-0.1-0.3-0.3-0.3c-0.1,0-0.3,0.1-0.3,0.3v3.7
		c0,0.3-0.2,0.5-0.5,0.5h-0.4c0,0,0,0,0,0c-0.1,0-0.4-0.2-0.7-0.5c-0.3-0.4-0.5-0.9-0.6-1.5c0-0.3-0.3-0.6-0.6-0.6H1.5V7.5h15.9v6.9
		C17.5,14.5,17.6,14.6,17.7,14.6z M15.1,5.5c0,0.2-0.2,0.4-0.4,0.4h-0.3c-0.2,0-0.4-0.2-0.4-0.4V4.1c0-0.2,0.2-0.4,0.4-0.4h0.3
		c0.2,0,0.4,0.2,0.4,0.4V5.5z M3.9,4.1c0-0.2,0.2-0.4,0.4-0.4h0.3c0.2,0,0.4,0.2,0.4,0.4v1.3c0,0.2-0.2,0.4-0.4,0.4H4.3
		c-0.2,0-0.4-0.2-0.4-0.4V4.1z M14.7,18.3c0.1,1,0.5,1.6,0.8,1.9c0,0-12.5,0-12.5,0H1.8c-0.3-0.1-0.5-0.2-0.7-0.4
		c-0.2-0.2-0.3-0.4-0.4-0.7c-0.1-0.1-0.3-0.9-0.1-0.9L14.7,18.3C14.6,18.2,14.7,18.3,14.7,18.3z"/>
	<path class="st0" d="M3.4,9.1c-0.6,0-1,0.4-1,1c0,0.6,0.4,1,1,1s1-0.4,1-1C4.4,9.5,4,9.1,3.4,9.1z M3.4,10.5
		c-0.3,0-0.5-0.2-0.5-0.5c0-0.3,0.2-0.5,0.5-0.5s0.5,0.2,0.5,0.5C3.9,10.3,3.7,10.5,3.4,10.5z"/>
	<path class="st0" d="M6.5,11.1c0.6,0,1-0.4,1-1s-0.4-1-1-1c-0.6,0-1,0.4-1,1S5.9,11.1,6.5,11.1z M6.5,9.6c0.3,0,0.5,0.2,0.5,0.5
		c0,0.3-0.2,0.5-0.5,0.5c-0.3,0-0.5-0.2-0.5-0.5C6,9.8,6.2,9.6,6.5,9.6z"/>
	<path class="st0" d="M9.5,9.1c-0.6,0-1,0.4-1,1c0,0.6,0.4,1,1,1s1-0.4,1-1C10.5,9.5,10.1,9.1,9.5,9.1z M9.5,10.5
		c-0.3,0-0.5-0.2-0.5-0.5c0-0.3,0.2-0.5,0.5-0.5c0.3,0,0.5,0.2,0.5,0.5C10,10.3,9.8,10.5,9.5,10.5z"/>
	<path class="st0" d="M12.5,9.1c-0.6,0-1,0.4-1,1c0,0.6,0.4,1,1,1s1-0.4,1-1C13.5,9.5,13.1,9.1,12.5,9.1z M12.5,10.5
		c-0.3,0-0.5-0.2-0.5-0.5c0-0.3,0.2-0.5,0.5-0.5c0.3,0,0.5,0.2,0.5,0.5C13,10.3,12.8,10.5,12.5,10.5z"/>
	<path class="st0" d="M15.6,9.1c-0.6,0-1,0.4-1,1c0,0.6,0.4,1,1,1c0.6,0,1-0.4,1-1C16.6,9.5,16.1,9.1,15.6,9.1z M15.6,10.5
		c-0.3,0-0.5-0.2-0.5-0.5c0-0.3,0.2-0.5,0.5-0.5c0.3,0,0.5,0.2,0.5,0.5C16,10.3,15.8,10.5,15.6,10.5z"/>
	<path class="st0" d="M3.4,11.9c-0.6,0-1,0.4-1,1s0.4,1,1,1s1-0.4,1-1S4,11.9,3.4,11.9z M3.4,13.4c-0.3,0-0.5-0.2-0.5-0.5
		c0-0.3,0.2-0.5,0.5-0.5s0.5,0.2,0.5,0.5C3.9,13.2,3.7,13.4,3.4,13.4z"/>
	<path class="st0" d="M9.5,11.9c-0.6,0-1,0.4-1,1s0.4,1,1,1s1-0.4,1-1S10.1,11.9,9.5,11.9z M9.5,13.4c-0.3,0-0.5-0.2-0.5-0.5
		c0-0.3,0.2-0.5,0.5-0.5c0.3,0,0.5,0.2,0.5,0.5C10,13.2,9.8,13.4,9.5,13.4z"/>
	<path class="st0" d="M12.5,11.9c-0.6,0-1,0.4-1,1s0.4,1,1,1s1-0.4,1-1S13.1,11.9,12.5,11.9z M12.5,13.4c-0.3,0-0.5-0.2-0.5-0.5
		c0-0.3,0.2-0.5,0.5-0.5c0.3,0,0.5,0.2,0.5,0.5C13,13.2,12.8,13.4,12.5,13.4z"/>
	<path class="st0" d="M15.6,11.9c-0.6,0-1,0.4-1,1s0.4,1,1,1c0.6,0,1-0.4,1-1S16.1,11.9,15.6,11.9z M15.6,13.4
		c-0.3,0-0.5-0.2-0.5-0.5c0-0.3,0.2-0.5,0.5-0.5c0.3,0,0.5,0.2,0.5,0.5C16,13.2,15.8,13.4,15.6,13.4z"/>
	<path class="st0" d="M3.4,14.8c-0.6,0-1,0.4-1,1s0.4,1,1,1s1-0.4,1-1C4.4,15.2,4,14.8,3.4,14.8z M3.4,16.2C3.2,16.2,3,16,3,15.8
		c0-0.3,0.2-0.5,0.5-0.5s0.5,0.2,0.5,0.5C3.9,16,3.7,16.2,3.4,16.2z"/>
	<path class="st0" d="M6.5,14.8c-0.6,0-1,0.4-1,1s0.4,1,1,1c0.6,0,1-0.4,1-1C7.5,15.2,7,14.8,6.5,14.8z M6.5,16.2
		C6.2,16.2,6,16,6,15.8c0-0.3,0.2-0.5,0.5-0.5c0.3,0,0.5,0.2,0.5,0.5C6.9,16,6.7,16.2,6.5,16.2z"/>
	<path class="st0" d="M9.5,14.8c-0.6,0-1,0.4-1,1s0.4,1,1,1s1-0.4,1-1C10.5,15.2,10.1,14.8,9.5,14.8z M9.5,16.2
		C9.2,16.2,9,16,9,15.8c0-0.3,0.2-0.5,0.5-0.5c0.3,0,0.5,0.2,0.5,0.5C10,16,9.8,16.2,9.5,16.2z"/>
	<path class="st0" d="M12.5,14.8c-0.6,0-1,0.4-1,1s0.4,1,1,1s1-0.4,1-1C13.5,15.2,13.1,14.8,12.5,14.8z M12.5,16.2
		c-0.3,0-0.5-0.2-0.5-0.5c0-0.3,0.2-0.5,0.5-0.5c0.3,0,0.5,0.2,0.5,0.5C13,16,12.8,16.2,12.5,16.2z"/>
	<path class="st0" d="M15.6,14.8c-0.6,0-1,0.4-1,1s0.4,1,1,1c0.6,0,1-0.4,1-1C16.6,15.2,16.1,14.8,15.6,14.8z M15.6,16.2
		c-0.3,0-0.5-0.2-0.5-0.5c0-0.3,0.2-0.5,0.5-0.5c0.3,0,0.5,0.2,0.5,0.5C16,16,15.8,16.2,15.6,16.2z"/>
	<path class="st0" d="M7.4,12.2c-0.1-0.1-0.3-0.1-0.4,0l-0.6,0.5l-0.6-0.5c-0.1-0.1-0.3-0.1-0.4,0c-0.1,0.1-0.1,0.3,0,0.4L6,13
		l-0.5,0.4c-0.1,0.1-0.1,0.3,0,0.4c0.1,0.1,0.1,0.1,0.2,0.1c0.1,0,0.1,0,0.2-0.1l0.6-0.5l0.6,0.5c0,0,0.1,0.1,0.2,0.1
		c0.1,0,0.2,0,0.2-0.1c0.1-0.1,0.1-0.3,0-0.4L6.9,13l0.5-0.4C7.5,12.5,7.5,12.3,7.4,12.2z"/>
</g>
</svg>
