<?xml version="1.0" encoding="utf-8"?>
<!-- Generator: Adobe Illustrator 24.0.2, SVG Export Plug-In . SVG Version: 6.00 Build 0)  -->
<svg version="1.1" id="Layer_1" xmlns="http://www.w3.org/2000/svg" xmlns:xlink="http://www.w3.org/1999/xlink" x="0px" y="0px"
	 viewBox="0 0 18 24" style="enable-background:new 0 0 18 24;" xml:space="preserve">
<style type="text/css">
	.st0{fill:#FC6A55;}
	.st1{fill:#EDEDED;}
	.st2{fill:none;stroke:#FC6A55;stroke-miterlimit:10;}
	.st3{stroke:#FFFFFF;stroke-width:0.25;stroke-miterlimit:10;}
	.st4{fill:#656D7A;}
	.st5{fill:#FFFFFF;}
	.st6{filter:url(#Adobe_OpacityMaskFilter);}
	.st7{fill-rule:evenodd;clip-rule:evenodd;fill:#FFFFFF;}
	.st8{mask:url(#mask-2_8_);fill-rule:evenodd;clip-rule:evenodd;}
	.st9{filter:url(#Adobe_OpacityMaskFilter_1_);}
	.st10{mask:url(#mask-2_7_);fill-rule:evenodd;clip-rule:evenodd;}
	.st11{filter:url(#Adobe_OpacityMaskFilter_2_);}
	.st12{mask:url(#mask-2_6_);fill-rule:evenodd;clip-rule:evenodd;}
	.st13{filter:url(#Adobe_OpacityMaskFilter_3_);}
	.st14{mask:url(#mask-2_5_);fill-rule:evenodd;clip-rule:evenodd;}
	.st15{filter:url(#Adobe_OpacityMaskFilter_4_);}
	.st16{mask:url(#mask-2_2_);fill:none;stroke:#000000;stroke-width:2;}
	.st17{fill:#434343;}
	.st18{fill:#434343;stroke:#F9F9F9;stroke-width:0.25;stroke-miterlimit:10;}
	.st19{fill:none;stroke:#FC6A55;stroke-width:0.5;stroke-miterlimit:10;}
	.st20{fill:none;stroke:#FC6A55;stroke-width:0.75;stroke-miterlimit:10;}
	.st21{fill:#FC6A55;stroke:#FC6A55;stroke-width:0.5;stroke-miterlimit:10;}
	.st22{opacity:0.153;fill:url(#Path_146_);enable-background:new    ;}
	.st23{opacity:0.1;fill:#590BB2;enable-background:new    ;}
	.st24{fill:#8E8CA8;}
	.st25{fill:#F5F4F9;}
	.st26{fill:#FFD5B8;}
	.st27{fill:#FC8473;}
	.st28{fill:#1C3475;}
	.st29{fill:#DDD9E4;}
	.st30{fill:#828FB3;}
	.st31{opacity:7.584635e-02;fill:url(#Path_147_);enable-background:new    ;}
	.st32{fill:#FFBE92;}
	.st33{fill:#FB8E7F;}
	.st34{fill:#FDB1A6;}
	.st35{fill:#FC806F;}
	.st36{fill:#FFE783;}
	.st37{fill:#104478;}
	.st38{fill:none;stroke:#FFFFFF;stroke-miterlimit:10;}
	.st39{fill:none;stroke:#000000;stroke-width:0.15;stroke-miterlimit:10;}
	.st40{opacity:0.1;fill:url(#Path_148_);enable-background:new    ;}
	.st41{opacity:0.1;fill:url(#Path_149_);enable-background:new    ;}
	.st42{fill-rule:evenodd;clip-rule:evenodd;fill:#FC6A55;}
	.st43{fill-rule:evenodd;clip-rule:evenodd;}
</style>
<g>
	<path class="st0" d="M11.5,20.8h-0.7v-3.2c0-0.2-0.1-0.3-0.3-0.3s-0.3,0.1-0.3,0.3v3.2H1.6v-6.6h2.7c0.2,0,0.3-0.1,0.3-0.3
		s-0.1-0.3-0.3-0.3H1.3c-0.2,0-0.3,0.1-0.3,0.3v6.9H0.3c-0.2,0-0.3,0.1-0.3,0.3v0.7c0,0.9,0.7,1.6,1.6,1.6h8.5
		c0.9,0,1.6-0.7,1.6-1.6v-0.7C11.8,20.9,11.7,20.8,11.5,20.8z M11.2,21.8c0,0.5-0.4,1-1,1H9.5v-0.3c0-0.2-0.1-0.3-0.3-0.3
		s-0.3,0.1-0.3,0.3v0.3H3v-0.3c0-0.2-0.1-0.3-0.3-0.3s-0.3,0.1-0.3,0.3v0.3H1.6c-0.5,0-1-0.4-1-1v-0.3h10.5V21.8z"/>
	<path class="st0" d="M13.7,22.4h3.9c0.2,0,0.3-0.1,0.3-0.3v-5.3c0-0.2-0.1-0.3-0.3-0.3h-3.9c-0.2,0-0.3,0.1-0.3,0.3v5.3
		C13.4,22.3,13.5,22.4,13.7,22.4z M14.1,17.2h3.3v4.6h-3.3V17.2z"/>
	<path class="st0" d="M16.4,17.8h-0.7c-0.2,0-0.3,0.1-0.3,0.3c0,0.2,0.1,0.3,0.3,0.3h0.7c0.2,0,0.3-0.1,0.3-0.3
		C16.7,18,16.5,17.8,16.4,17.8z"/>
	<path class="st0" d="M16.4,19.2H15c-0.2,0-0.3,0.1-0.3,0.3c0,0.2,0.1,0.3,0.3,0.3h1.3c0.2,0,0.3-0.1,0.3-0.3
		C16.7,19.3,16.5,19.2,16.4,19.2z"/>
	<path class="st0" d="M16.4,20.5H15c-0.2,0-0.3,0.1-0.3,0.3c0,0.2,0.1,0.3,0.3,0.3h1.3c0.2,0,0.3-0.1,0.3-0.3
		C16.7,20.6,16.5,20.5,16.4,20.5z"/>
	<g>
		<path class="st0" d="M11.9,10.9c0.1,0,0.2,0,0.3-0.1l1.1-1.2c0.1-0.1,0.1-0.3,0-0.5C13.2,9,13,9,12.9,9.2l-1.1,1.2
			c-0.1,0.1-0.1,0.3,0,0.5C11.8,10.9,11.9,10.9,11.9,10.9z"/>
		<path class="st0" d="M12.5,12.2c0.1,0.1,0.1,0.1,0.2,0.2c0.1,0,0.1,0,0.2,0l1.4-0.8c0.2-0.1,0.2-0.3,0.1-0.4
			c-0.1-0.2-0.3-0.2-0.4-0.1l-1.4,0.8C12.5,11.8,12.4,12,12.5,12.2L12.5,12.2z"/>
		<path class="st0" d="M15.6,13.3c0-0.2-0.2-0.3-0.3-0.3c0,0,0,0,0,0l-1.7,0.1c-0.2,0-0.3,0.1-0.3,0.3c0,0.2,0.1,0.3,0.3,0.3l0.1,0
			l1.7-0.1C15.5,13.6,15.6,13.5,15.6,13.3C15.6,13.3,15.6,13.3,15.6,13.3z"/>
		<path class="st0" d="M11.4,12.7c-0.1-0.2-0.3-0.2-0.4-0.2c-0.2,0.1-0.2,0.3-0.2,0.4l1.1,2.7L6.5,17c0,0,0,0,0,0l0,0l-0.9,0.4
			l-0.6,0.3c-0.2,0.1-0.3,0.1-0.5,0c-0.2-0.1-0.3-0.2-0.4-0.4l-0.5-1.2c-0.1-0.3,0-0.7,0.3-0.8l1.2-0.5l0.6,1.5
			c0,0.1,0.1,0.2,0.3,0.2c0.2,0,0.3-0.1,0.4-0.3c0-0.1,0-0.1,0-0.2l-0.7-1.6l4.5-2.9l0.1,0.2c0.1,0.2,0.3,0.2,0.4,0.2
			c0.2-0.1,0.2-0.3,0.2-0.4l-0.3-0.6c0-0.1-0.1-0.2-0.2-0.2c-0.1,0-0.2,0-0.3,0l-5,3.2l-1.5,0.6c-0.5,0.2-0.9,0.8-0.8,1.4l-0.3,0.1
			C2,16.4,1.8,17,2,17.5c0.1,0.2,0.3,0.4,0.5,0.5c0.1,0,0.2,0.1,0.3,0.1c0.2,0,0.3,0,0.5-0.1l0.3-0.1C3.8,18,4,18.2,4.2,18.3
			c0.1,0,0.2,0.1,0.3,0.1c0.2,0,0.5,0,0.7-0.1l0.3-0.1L6,19.3c0.2,0.5,0.8,0.7,1.3,0.5c0.5-0.2,0.7-0.8,0.5-1.3c0,0,0,0,0,0
			l-0.5-1.1l5.1-1.2c0.1,0,0.2-0.1,0.2-0.2c0-0.1,0-0.2,0-0.3L11.4,12.7z M3,17.4c-0.1,0-0.2,0-0.3,0c-0.1,0-0.1-0.1-0.2-0.2
			c0-0.1,0-0.2,0-0.3c0-0.1,0.1-0.1,0.2-0.2l0.3-0.1l0.3,0.6L3,17.4z M7.2,18.8c0,0.1,0,0.2,0,0.3c0,0.1-0.1,0.1-0.2,0.2
			c-0.2,0.1-0.4,0-0.4-0.2l-0.5-1.2l0.6-0.2l0,0L7.2,18.8z"/>
	</g>
	<g>
		<path class="st0" d="M11.3,3V2.2c0-1-0.8-1.7-1.8-1.7c-1,0-1.7,0.8-1.7,1.7V3c0,1,0.8,1.7,1.8,1.7C10.5,4.7,11.3,3.9,11.3,3z
			 M8.2,3V2.2c0-0.7,0.6-1.3,1.3-1.3c0.7,0,1.3,0.6,1.3,1.3V3c0,0.7-0.6,1.3-1.3,1.3C8.8,4.2,8.2,3.7,8.2,3z"/>
		<path class="st0" d="M6.7,9.5h5.6c0.1,0,0.2-0.1,0.2-0.2l0,0V8.7h3.9c0.1,0,0.2-0.1,0.2-0.2V7c0-0.9-0.7-1.7-1.6-1.7
			c-0.1,0-0.2,0.1-0.2,0.1c-0.4,0.5-1,0.5-1.5,0.1c-0.1-0.1-0.1-0.1-0.2-0.2c0-0.1-0.1-0.1-0.2-0.1c-0.3,0-0.6,0.1-0.8,0.2
			c-0.3-0.4-0.8-0.6-1.4-0.7c-0.1,0-0.2,0.1-0.2,0.1c-0.4,0.5-1.2,0.6-1.7,0.2C8.7,5.1,8.6,5,8.6,4.9c0-0.1-0.1-0.1-0.2-0.1
			C7.9,4.8,7.4,5,7,5.4c0,0-0.1,0.1-0.1,0.1C6.7,5.4,6.4,5.3,6.2,5.3C6,5.2,6,5.3,5.9,5.4c-0.4,0.5-1,0.5-1.5,0.1
			C4.4,5.5,4.3,5.4,4.2,5.3c0-0.1-0.1-0.1-0.2-0.1C3.1,5.3,2.4,6,2.4,7v1.5c0,0.1,0.1,0.2,0.2,0.2h3.9v0.5C6.5,9.4,6.6,9.5,6.7,9.5z
			 M12.9,5.7c0.6,0.6,1.5,0.7,2.1,0.1c0,0,0.1-0.1,0.1-0.1c0.6,0.1,1.1,0.6,1.1,1.3v1.3h-3.6V6.8c0-0.3-0.1-0.6-0.2-0.9
			C12.5,5.8,12.7,5.7,12.9,5.7L12.9,5.7z M8.3,5.3C8.9,6,10,6.1,10.7,5.5c0.1-0.1,0.1-0.1,0.2-0.2c0.7,0.1,1.3,0.7,1.3,1.5V9H6.9
			V6.8C6.9,6,7.5,5.4,8.3,5.3z M2.8,8.2V7c0-0.6,0.5-1.2,1.1-1.3c0.6,0.6,1.5,0.7,2.1,0.1c0,0,0.1-0.1,0.1-0.1
			c0.2,0,0.3,0.1,0.4,0.2C6.5,6.2,6.5,6.5,6.5,6.8v1.5L2.8,8.2z"/>
		<path class="st0" d="M15.5,3.7V3c0-0.9-0.7-1.6-1.6-1.6c-0.9,0-1.6,0.7-1.6,1.6v0.7c0,0.9,0.7,1.6,1.6,1.6
			C14.8,5.2,15.5,4.5,15.5,3.7z M12.9,3.7V3c0-0.6,0.5-1.1,1.1-1.1c0.6,0,1.1,0.5,1.1,1.1c0,0,0,0,0,0v0.7c0,0.6-0.5,1.1-1.1,1.1
			C13.4,4.8,12.9,4.3,12.9,3.7C12.9,3.7,12.9,3.7,12.9,3.7z"/>
		<path class="st0" d="M6.6,3.7V3c0-0.9-0.7-1.6-1.6-1.6S3.5,2.1,3.5,3v0.7c0,0.9,0.7,1.6,1.6,1.6S6.6,4.5,6.6,3.7z M4,3.7V3
			c0-0.6,0.5-1.1,1.1-1.1c0.6,0,1.1,0.5,1.1,1.1c0,0,0,0,0,0v0.7c0,0.6-0.5,1.1-1.1,1.1S4,4.3,4,3.7C4,3.7,4,3.7,4,3.7z"/>
	</g>
</g>
</svg>
