<?xml version="1.0" encoding="utf-8"?>
<!-- Generator: Adobe Illustrator 24.1.1, SVG Export Plug-In . SVG Version: 6.00 Build 0)  -->
<svg version="1.1" id="Layer_1" xmlns="http://www.w3.org/2000/svg" xmlns:xlink="http://www.w3.org/1999/xlink" x="0px" y="0px"
	 viewBox="0 0 48 41" style="enable-background:new 0 0 48 41;" xml:space="preserve">
<style type="text/css">
	.st0{fill:#FC6A55;}
	.st1{fill:#EDEDED;}
	.st2{fill:none;stroke:#FC6A55;stroke-miterlimit:10;}
	.st3{fill:#222F3F;}
	.st4{fill:#383838;}
	.st5{fill:#FFFFFF;}
	.st6{fill:#656D7A;}
	.st7{fill:#C4C4C4;}
	.st8{filter:url(#Adobe_OpacityMaskFilter);}
	.st9{fill-rule:evenodd;clip-rule:evenodd;fill:#FFFFFF;}
	.st10{mask:url(#mask-2_8_);fill-rule:evenodd;clip-rule:evenodd;fill:#FFFFFF;}
	.st11{filter:url(#Adobe_OpacityMaskFilter_1_);}
	.st12{mask:url(#mask-2_7_);fill-rule:evenodd;clip-rule:evenodd;fill:#FFFFFF;}
	.st13{filter:url(#Adobe_OpacityMaskFilter_2_);}
	.st14{mask:url(#mask-2_6_);fill-rule:evenodd;clip-rule:evenodd;fill:#FFFFFF;}
	.st15{filter:url(#Adobe_OpacityMaskFilter_3_);}
	.st16{mask:url(#mask-2_5_);fill-rule:evenodd;clip-rule:evenodd;fill:#FFFFFF;}
	.st17{filter:url(#Adobe_OpacityMaskFilter_4_);}
	.st18{mask:url(#mask-2_2_);fill:none;stroke:#FFFFFF;stroke-width:1.5;stroke-miterlimit:10;}
	.st19{fill:#B4A3EE;}
	.st20{fill:#434343;}
	.st21{fill:#434343;stroke:#F9F9F9;stroke-width:0.25;stroke-miterlimit:10;}
	.st22{fill:none;stroke:#FC6A55;stroke-width:0.5;stroke-miterlimit:10;}
	.st23{fill:none;stroke:#FC6A55;stroke-width:0.75;stroke-miterlimit:10;}
	.st24{fill:#FC6A55;stroke:#FC6A55;stroke-width:0.5;stroke-miterlimit:10;}
	.st25{opacity:0.153;fill:url(#Path_44_);enable-background:new    ;}
	.st26{opacity:0.1;fill:#590BB2;enable-background:new    ;}
	.st27{fill:#8E8CA8;}
	.st28{fill:#F5F4F9;}
	.st29{fill:#FFD5B8;}
	.st30{fill:#FC8473;}
	.st31{fill:#1C3475;}
	.st32{fill:#DDD9E4;}
	.st33{fill:#828FB3;}
	.st34{opacity:7.584635e-02;fill:url(#Path_45_);enable-background:new    ;}
	.st35{fill:#FFBE92;}
	.st36{fill:#FB8E7F;}
	.st37{fill:#FDB1A6;}
	.st38{fill:#FC806F;}
	.st39{fill:#FFE783;}
	.st40{fill:#104478;}
	.st41{fill:none;stroke:#FFFFFF;stroke-miterlimit:10;}
	.st42{fill:none;stroke:#000000;stroke-width:0.15;stroke-miterlimit:10;}
	.st43{opacity:0.1;fill:url(#Path_46_);enable-background:new    ;}
	.st44{opacity:0.1;fill:url(#Path_47_);enable-background:new    ;}
	.st45{fill-rule:evenodd;clip-rule:evenodd;fill:#FC6A55;}
	.st46{fill-rule:evenodd;clip-rule:evenodd;}
	.st47{fill:#FF6757;}
	.st48{fill:#666666;}
	.st49{fill:none;stroke:#FFFFFF;stroke-width:0.5;stroke-miterlimit:10;}
	.st50{fill:#606060;}
	.st51{fill:#F16A56;}
	.st52{fill:#515252;}
	.st53{fill:#F26A56;}
	.st54{fill:none;stroke:#F16A56;stroke-miterlimit:10;}
	.st55{fill:none;stroke:#929292;stroke-miterlimit:10;}
	.st56{fill:#929292;}
	.st57{fill:none;stroke:#000000;stroke-width:0.5;stroke-miterlimit:10;}
	.st58{fill:#A8A7A7;}
	.st59{fill:#F79F91;}
	.st60{fill:#9BDBD5;}
	.st61{fill:#222121;}
	.st62{stroke:#000000;stroke-width:0.25;stroke-miterlimit:10;}
</style>
<g id="final-design_1_">
	<g id="invensis.net-2.0-index-page_1_" transform="translate(-1432.000000, -2403.000000)">
		<g id="Group-3" transform="translate(1431.000000, 2400.000000)">
			<defs>
				<filter id="Adobe_OpacityMaskFilter" filterUnits="userSpaceOnUse" x="4" y="4" width="38.9" height="39.2">
					<feColorMatrix  type="matrix" values="1 0 0 0 0  0 1 0 0 0  0 0 1 0 0  0 0 0 1 0"/>
				</filter>
			</defs>
			<mask maskUnits="userSpaceOnUse" x="4" y="4" width="38.9" height="39.2" id="mask-2_2_">
				<g class="st8">
					<polygon id="path-1_2_" class="st9" points="2.2,1.1 46.2,1.1 46.2,45 2.2,45 					"/>
				</g>
			</mask>
			<path id="Fill-1_1_" class="st18" d="M8,42.4c1,0,2,0,3,0c0.3,0,0.3-0.1,0.3-0.3c0-0.7,0-1.3,0-2c0-0.9-0.7-1.7-1.7-1.9
				c-1-0.1-2-0.1-3,0c-1.2,0.1-1.9,1-1.9,2.2c0,0.6,0,1.1,0,1.7c0,0.3,0.1,0.3,0.3,0.3C6.1,42.4,7,42.4,8,42.4L8,42.4z M20.5,37.6
				L20.5,37.6c0-1.5,0-2.9,0-4.4c0-1-0.7-1.8-1.7-1.9c-1-0.1-2-0.1-3,0c-1.2,0.1-1.9,1-1.9,2.2c0,2.9,0,5.7,0,8.6
				c0,0.3,0.1,0.4,0.4,0.4c1.9,0,3.9,0,5.8,0c0.3,0,0.4-0.1,0.4-0.4C20.5,40.5,20.5,39.1,20.5,37.6L20.5,37.6z M29.8,34.2L29.8,34.2
				c0-2.6,0-5.1,0-7.7c0-1.2-0.9-2.1-2.1-2.1c-0.8,0-1.5,0-2.3,0c-1.2,0-2.1,0.9-2.1,2.1c0,5.2,0,10.3,0,15.5c0,0.3,0.1,0.4,0.4,0.4
				c1.9,0,3.8,0,5.7,0c0.4,0,0.4,0,0.4-0.4V34.2z M39,28.4v-9.1c0-1.5,0-3,0-4.5c0-0.8,0.6-1.4,1.4-1.4c0.5,0,1.1,0,1.6,0
				c0.1,0,0.2,0.1,0.3-0.1c0-0.1-0.1-0.1-0.1-0.2C40,10.5,38,7.7,35.9,4.9c-0.2-0.3-0.3-0.2-0.4,0c-0.8,1.1-1.7,2.3-2.5,3.4
				c-1.2,1.6-2.4,3.2-3.6,4.8c-0.1,0.1-0.2,0.1-0.1,0.2c0,0.1,0.2,0,0.2,0c0.6,0,1.1,0,1.7,0c0.6,0,1,0.4,1.2,0.9
				c0.1,0.2,0.1,0.5,0.1,0.7c0,8.9,0,17.9,0,26.8c0,0.5,0,0.5,0.5,0.5h5.6c0.5,0,0.5,0,0.5-0.5V28.4z"/>
		</g>
	</g>
</g>
</svg>
