<?xml version="1.0" encoding="utf-8"?>
<!-- Generator: Adobe Illustrator 24.0.2, SVG Export Plug-In . SVG Version: 6.00 Build 0)  -->
<svg version="1.1" id="Layer_1" xmlns="http://www.w3.org/2000/svg" xmlns:xlink="http://www.w3.org/1999/xlink" x="0px" y="0px"
	 viewBox="0 0 42 42" style="enable-background:new 0 0 42 42;" xml:space="preserve">
<style type="text/css">
	.st0{fill:#FC6A55;}
	.st1{fill:#EDEDED;}
	.st2{fill:none;stroke:#FC6A55;stroke-miterlimit:10;}
	.st3{stroke:#FFFFFF;stroke-width:0.25;stroke-miterlimit:10;}
	.st4{fill:#656D7A;}
	.st5{fill:#FFFFFF;}
	.st6{filter:url(#Adobe_OpacityMaskFilter);}
	.st7{fill-rule:evenodd;clip-rule:evenodd;fill:#FFFFFF;}
	.st8{mask:url(#mask-2_8_);fill-rule:evenodd;clip-rule:evenodd;}
	.st9{filter:url(#Adobe_OpacityMaskFilter_1_);}
	.st10{mask:url(#mask-2_7_);fill-rule:evenodd;clip-rule:evenodd;}
	.st11{filter:url(#Adobe_OpacityMaskFilter_2_);}
	.st12{mask:url(#mask-2_6_);fill-rule:evenodd;clip-rule:evenodd;}
	.st13{filter:url(#Adobe_OpacityMaskFilter_3_);}
	.st14{mask:url(#mask-2_5_);fill-rule:evenodd;clip-rule:evenodd;}
	.st15{filter:url(#Adobe_OpacityMaskFilter_4_);}
	.st16{mask:url(#mask-2_2_);fill:none;stroke:#000000;stroke-width:2;}
	.st17{fill:#434343;}
	.st18{fill:#434343;stroke:#F9F9F9;stroke-width:0.25;stroke-miterlimit:10;}
	.st19{fill:none;stroke:#FC6A55;stroke-width:0.5;stroke-miterlimit:10;}
	.st20{fill:none;stroke:#FC6A55;stroke-width:0.75;stroke-miterlimit:10;}
	.st21{fill:#FC6A55;stroke:#FC6A55;stroke-width:0.5;stroke-miterlimit:10;}
	.st22{opacity:0.153;fill:url(#Path_146_);enable-background:new    ;}
	.st23{opacity:0.1;fill:#590BB2;enable-background:new    ;}
	.st24{fill:#8E8CA8;}
	.st25{fill:#F5F4F9;}
	.st26{fill:#FFD5B8;}
	.st27{fill:#FC8473;}
	.st28{fill:#1C3475;}
	.st29{fill:#DDD9E4;}
	.st30{fill:#828FB3;}
	.st31{opacity:7.584635e-02;fill:url(#Path_147_);enable-background:new    ;}
	.st32{fill:#FFBE92;}
	.st33{fill:#FB8E7F;}
	.st34{fill:#FDB1A6;}
	.st35{fill:#FC806F;}
	.st36{fill:#FFE783;}
	.st37{fill:#104478;}
	.st38{fill:none;stroke:#FFFFFF;stroke-miterlimit:10;}
	.st39{fill:none;stroke:#000000;stroke-width:0.15;stroke-miterlimit:10;}
	.st40{opacity:0.1;fill:url(#Path_148_);enable-background:new    ;}
	.st41{opacity:0.1;fill:url(#Path_149_);enable-background:new    ;}
</style>
<g>
	<path class="st0" d="M35.3,24.1c0.2-1,0.3-2.1,0.3-3.1c0-8.1-6.6-14.7-14.7-14.7c-1.1,0-2.1,0.1-3.2,0.3C16.5,1.8,11.5-1,6.6,0.3
		C2.7,1.4,0,5,0,9.1c0,3.9,3.7,9,6.3,12c0,8.1,6.6,14.7,14.7,14.6c1,0,2.1-0.1,3.1-0.3c1.4,4.8,6.4,7.7,11.2,6.3
		c4.8-1.4,7.7-6.4,6.3-11.2C40.8,27.4,38.4,25,35.3,24.1z M32.9,23.8c-2.2,0-4.3,0.8-6,2.3c0.2-1.4,0.3-2.9,0.4-4.4h7
		c0,0.7-0.1,1.5-0.3,2.2C33.6,23.8,33.3,23.8,32.9,23.8z M23.9,31.5c-0.9,1.8-1.9,2.8-2.9,2.8c-1.4,0-2.8-1.9-3.8-5
		c2.4-0.7,5-0.7,7.4-0.1C24.3,29.9,24,30.7,23.9,31.5z M18,33.9c-1.9-0.4-3.6-1.3-5.1-2.4c0.9-0.7,2-1.3,3-1.8
		C16.3,31.2,17,32.7,18,33.9L18,33.9z M12.5,20.3c0.8-0.9,1.6-2,2.4-3.2c-0.1,1-0.2,2.1-0.2,3.2H12.5z M18,10.6
		c0.9-1.8,1.9-2.9,3-2.9c1.4,0,2.8,1.9,3.8,5c-1.2,0.4-2.5,0.6-3.8,0.6c-1.2,0-2.5-0.2-3.7-0.5C17.6,12.1,17.9,11.3,18,10.6z
		 M24,8.1c1.9,0.4,3.6,1.3,5.1,2.4c-0.9,0.7-2,1.3-3,1.8C25.7,10.8,25,9.3,24,8.1z M16.9,14.1c1.3,0.4,2.7,0.6,4.1,0.6
		c1.4,0,2.8-0.2,4.1-0.6c0.5,2,0.7,4.1,0.7,6.2h-9.8C16.2,18.2,16.4,16.1,16.9,14.1z M25.9,21.7c0,2.1-0.3,4.2-0.7,6.2
		c-2.7-0.8-5.6-0.8-8.3,0c-0.5-2-0.7-4.1-0.7-6.2H25.9z M34.3,20.3h-7c0-2.2-0.3-4.5-0.8-6.7c1.3-0.5,2.6-1.3,3.7-2.2
		C32.6,13.8,34.1,16.9,34.3,20.3z M9.1,1.4c4.2,0,7.7,3.4,7.7,7.7c0,4.5-5.9,11.1-7.7,13c-1.8-1.9-7.7-8.5-7.7-13
		C1.4,4.9,4.9,1.4,9.1,1.4z M7.8,22.8c0.4,0.5,0.7,0.7,0.8,0.8c0.3,0.3,0.7,0.3,1,0c0.1-0.1,0.8-0.8,1.8-1.9h3.4
		c0,2.2,0.3,4.5,0.8,6.7c-1.3,0.5-2.6,1.3-3.7,2.2C9.6,28.5,8.2,25.8,7.8,22.8z M32.9,40.6c-4.3,0-7.7-3.4-7.7-7.7s3.4-7.7,7.7-7.7
		s7.7,3.4,7.7,7.7C40.6,37.1,37.1,40.6,32.9,40.6z"/>
	<path class="st0" d="M2.8,21H1.4c0,10.8,8.8,19.6,19.6,19.6v-1.4C11,39.2,2.8,31,2.8,21z"/>
	<path class="st0" d="M39.2,21h1.4c0-10.8-8.8-19.6-19.6-19.6v1.4C31,2.8,39.2,11,39.2,21z"/>
	<circle class="st0" cx="8.4" cy="10.2" r="1.4"/>
	<g>
		<g>
			<path class="st0" d="M37.2,36.5c-0.1,0-0.2,0.1-0.2,0.2v1.8c0,0.1,0,0.1-0.1,0.1h-1v-3.8c0-0.1-0.1-0.2-0.2-0.2
				c-0.1,0-0.2,0.1-0.2,0.2v3.8h-2.1L34,38c0.1-0.1,0.1-0.2,0.1-0.3c0,0,0,0,0,0l-0.6-3.4l0.2-0.2c0.1,0.1,0.2,0.1,0.3,0.1
				c0.1,0,0.2-0.1,0.3-0.2v0l0.6-1.2l1.4,0.5c0,0,0.8,0.3,0.8,1.2v1.3c0,0.1,0.1,0.2,0.2,0.2c0.1,0,0.2-0.1,0.2-0.2v-1.3
				c0-1.1-1-1.5-1-1.6c0,0,0,0,0,0l-2.3-0.9v-0.5c0.4-0.3,0.6-0.7,0.7-1.2c0.2,0,0.4-0.1,0.5-0.2c0.2-0.2,0.3-0.4,0.3-0.6
				c0-0.2-0.1-0.4-0.2-0.5v-0.7c0-1.3-1.1-2.4-2.4-2.4c-1.3,0-2.4,1.1-2.4,2.4V29c-0.1,0.1-0.2,0.3-0.2,0.5c0,0.2,0.1,0.5,0.3,0.6
				c0.1,0.1,0.3,0.2,0.5,0.2c0.1,0.5,0.3,0.9,0.7,1.2v0.5L29.6,33c0,0,0,0,0,0c0,0-1,0.4-1,1.6v4c0,0.3,0.2,0.5,0.5,0.5h1.8
				c0.1,0,0.2-0.1,0.2-0.2c0-0.1-0.1-0.2-0.2-0.2h-0.4v-3.8c0-0.1-0.1-0.2-0.2-0.2s-0.2,0.1-0.2,0.2v3.8h-1c-0.1,0-0.1,0-0.1-0.1v-4
				c0-0.9,0.7-1.2,0.8-1.2l1.4-0.5l0.6,1.2c0.1,0.1,0.2,0.2,0.3,0.2c0.1,0,0.2-0.1,0.3-0.1l0.2,0.2l-0.6,3.4c0,0,0,0,0,0
				c0,0.1,0,0.2,0.1,0.3l0.6,0.7h-0.8c-0.1,0-0.2,0.1-0.2,0.2c0,0.1,0.1,0.2,0.2,0.2h5.1c0.3,0,0.5-0.2,0.5-0.5v-1.8
				C37.4,36.6,37.3,36.5,37.2,36.5z M34.5,32.6L34,33.8c0,0-0.3-0.2-0.7-0.5c0.2-0.2,0,0,0.7-0.9L34.5,32.6z M33.4,33.8l-0.1,0.2
				h-0.5l-0.1-0.2l0.4-0.3L33.4,33.8z M32.3,32.1v-0.4c0.2,0.1,0.5,0.1,0.7,0.1c0.3,0,0.5-0.1,0.7-0.1v0.4L33,33L32.3,32.1z
				 M35.2,29.5c0,0.1-0.1,0.2-0.1,0.3c-0.1,0.1-0.1,0.1-0.2,0.1v-0.9C35,29.1,35.2,29.3,35.2,29.5z M31.2,30c-0.2,0-0.4-0.2-0.4-0.4
				c0-0.2,0.2-0.4,0.4-0.4V30z M31.2,28.7c-0.1,0-0.1,0-0.2,0v-0.5c0-1.1,0.9-2,2-2c1.1,0,2,0.9,2,2v0.5c-0.1,0-0.1,0-0.2,0
				c0-0.2,0-0.1-0.6-0.8c-0.1-0.1-0.3-0.1-0.4-0.1c-0.7,0.4-1.5,0.7-2.2,0.6C31.4,28.4,31.2,28.6,31.2,28.7z M31.5,30.1v-1.2v-0.1
				c0.8,0,1.7-0.2,2.4-0.6c0.3,0.3,0.4,0.5,0.5,0.5c0,0.2,0,1.2,0,1.4c0,0.8-0.6,1.4-1.4,1.4C32.1,31.5,31.5,30.8,31.5,30.1z
				 M32,33.8l-0.6-1.1l0.5-0.2l0.7,0.9C32.4,33.5,32.1,33.8,32,33.8z M32.3,37.7l0.6-3.3h0.4l0.6,3.3L33,38.5L32.3,37.7z"/>
		</g>
	</g>
</g>
</svg>
