<?xml version="1.0" encoding="utf-8"?>
<!-- Generator: Adobe Illustrator 24.0.2, SVG Export Plug-In . SVG Version: 6.00 Build 0)  -->
<svg version="1.1" id="Layer_1" xmlns="http://www.w3.org/2000/svg" xmlns:xlink="http://www.w3.org/1999/xlink" x="0px" y="0px"
	 viewBox="0 0 42 42" style="enable-background:new 0 0 42 42;" xml:space="preserve">
<style type="text/css">
	.st0{fill:#FC6A55;}
	.st1{fill:#EDEDED;}
	.st2{fill:none;stroke:#FC6A55;stroke-miterlimit:10;}
	.st3{stroke:#FFFFFF;stroke-width:0.25;stroke-miterlimit:10;}
	.st4{fill:#656D7A;}
	.st5{fill:#FFFFFF;}
	.st6{filter:url(#Adobe_OpacityMaskFilter);}
	.st7{fill-rule:evenodd;clip-rule:evenodd;fill:#FFFFFF;}
	.st8{mask:url(#mask-2_8_);fill-rule:evenodd;clip-rule:evenodd;}
	.st9{filter:url(#Adobe_OpacityMaskFilter_1_);}
	.st10{mask:url(#mask-2_7_);fill-rule:evenodd;clip-rule:evenodd;}
	.st11{filter:url(#Adobe_OpacityMaskFilter_2_);}
	.st12{mask:url(#mask-2_6_);fill-rule:evenodd;clip-rule:evenodd;}
	.st13{filter:url(#Adobe_OpacityMaskFilter_3_);}
	.st14{mask:url(#mask-2_5_);fill-rule:evenodd;clip-rule:evenodd;}
	.st15{filter:url(#Adobe_OpacityMaskFilter_4_);}
	.st16{mask:url(#mask-2_2_);fill:none;stroke:#000000;stroke-width:2;}
	.st17{fill:#434343;}
	.st18{fill:#434343;stroke:#F9F9F9;stroke-width:0.25;stroke-miterlimit:10;}
	.st19{fill:none;stroke:#FC6A55;stroke-width:0.5;stroke-miterlimit:10;}
	.st20{fill:none;stroke:#FC6A55;stroke-width:0.75;stroke-miterlimit:10;}
	.st21{fill:#FC6A55;stroke:#FC6A55;stroke-width:0.5;stroke-miterlimit:10;}
	.st22{opacity:0.153;fill:url(#Path_146_);enable-background:new    ;}
	.st23{opacity:0.1;fill:#590BB2;enable-background:new    ;}
	.st24{fill:#8E8CA8;}
	.st25{fill:#F5F4F9;}
	.st26{fill:#FFD5B8;}
	.st27{fill:#FC8473;}
	.st28{fill:#1C3475;}
	.st29{fill:#DDD9E4;}
	.st30{fill:#828FB3;}
	.st31{opacity:7.584635e-02;fill:url(#Path_147_);enable-background:new    ;}
	.st32{fill:#FFBE92;}
	.st33{fill:#FB8E7F;}
	.st34{fill:#FDB1A6;}
	.st35{fill:#FC806F;}
	.st36{fill:#FFE783;}
	.st37{fill:#104478;}
	.st38{fill:none;stroke:#FFFFFF;stroke-miterlimit:10;}
	.st39{fill:none;stroke:#000000;stroke-width:0.15;stroke-miterlimit:10;}
	.st40{opacity:0.1;fill:url(#Path_148_);enable-background:new    ;}
	.st41{opacity:0.1;fill:url(#Path_149_);enable-background:new    ;}
</style>
<g>
	<g>
		<g>
			<path class="st0" d="M22,0.7v0.9l-2.3,0.6c-0.1,0-0.2,0.1-0.2,0.1l-1.8,1.2L14,1.5l-0.6,1.3l4.2,2.1c0.1,0,0.2,0.1,0.3,0.1
				c0.1,0,0.3,0,0.4-0.1l2-1.3l2.7-0.7c0.3-0.1,0.5-0.4,0.5-0.7V0.7H22z"/>
		</g>
	</g>
	<g>
		<g>
			<path class="st0" d="M40.7,14.5C37.3,3.6,25.7-2.5,14.8,0.9C4,4.3-2.1,16,1.3,26.8l1.3-0.4c-3.2-10.1,2.5-21,12.6-24.1
				c4.9-1.5,10.1-1.1,14.7,1.3c4.6,2.4,7.9,6.4,9.4,11.3c1.5,4.9,1.1,10.1-1.3,14.7c-2.4,4.6-6.4,7.9-11.3,9.4
				c-8.2,2.6-17.2-0.7-21.9-7.9l-1.2,0.8c3.9,6,10.5,9.4,17.4,9.4c2,0,4.1-0.3,6.1-0.9c5.3-1.6,9.6-5.2,12.1-10.1
				C41.9,25.3,42.4,19.8,40.7,14.5z"/>
		</g>
	</g>
	<g>
		<g>
			<path class="st0" d="M13.7,38.6c-5,2.4-8.9,2.7-10.7,0.8C-0.2,36.2,3.2,27,11,18l-1.1-0.9C1.4,27-1.9,36.6,2,40.4
				C3,41.5,4.5,42,6.4,42c2.2,0,4.8-0.7,7.9-2.2L13.7,38.6z"/>
		</g>
	</g>
	<g>
		<g>
			<path class="st0" d="M37.4,24.2c-0.1-0.2-0.4-0.4-0.6-0.4h-2.4L32.5,20c-0.1-0.2-0.4-0.4-0.6-0.4h-7c-0.4,0-0.7,0.3-0.7,0.7v5.6
				c0,0.4,0.3,0.7,0.7,0.7h2.1v7.7c0,0.4,0.3,0.7,0.7,0.7h3.5c0.2,0,0.4-0.1,0.5-0.2l2.8-2.8c0.1-0.1,0.2-0.3,0.2-0.5v-2.6l2.7-4
				C37.5,24.7,37.5,24.4,37.4,24.2z M33.4,28.3c-0.1,0.1-0.1,0.3-0.1,0.4v2.5l-2.4,2.4h-2.5h0v-7.7c0-0.4-0.3-0.7-0.7-0.7h-2.1V21
				h5.9l1.9,3.8c0.1,0.2,0.4,0.4,0.6,0.4h1.5L33.4,28.3z"/>
		</g>
	</g>
	<g>
		<g>
			<path class="st0" d="M37.8,18.2l-2.6-4.5c-0.1-0.2-0.4-0.4-0.6-0.4h-4.2c-0.2,0-0.5,0.1-0.6,0.3l-1.2,1.8h-1.7v-3.5h3.5
				c0.2,0,0.4-0.1,0.5-0.2l2.6-2.6h3.2V7.7h-3.5c-0.2,0-0.4,0.1-0.5,0.2l-2.6,2.6h-3.9c-0.4,0-0.7,0.3-0.7,0.7v4.9
				c0,0.4,0.3,0.7,0.7,0.7H29c0.2,0,0.5-0.1,0.6-0.3l1.2-1.8h3.4l2.6,4.5c0.1,0.2,0.4,0.4,0.6,0.4h2.8v-1.4L37.8,18.2L37.8,18.2z"/>
		</g>
	</g>
	<g>
		<g>
			<path class="st0" d="M20.6,25.2h-3.9l-1.9-1.9c-0.1-0.1-0.3-0.2-0.5-0.2h-3.5c-0.4,0-0.7,0.3-0.7,0.7v4.9c0,0.4,0.3,0.7,0.7,0.7
				h2.8v7c0,0.3,0.1,0.5,0.4,0.6c0.1,0,0.2,0.1,0.3,0.1c0.1,0,0.3,0,0.4-0.1l2.8-2.1c0.2-0.1,0.3-0.3,0.3-0.6v-1.8l3.2-2.6
				c0.2-0.1,0.3-0.3,0.3-0.5v-3.5C21.3,25.5,21,25.2,20.6,25.2z M19.9,29.1l-3.2,2.6c-0.2,0.1-0.3,0.3-0.3,0.5V34L15,35v-6.3
				c0-0.4-0.3-0.7-0.7-0.7h-2.8v-3.5h2.5l1.9,1.9c0.1,0.1,0.3,0.2,0.5,0.2h3.5V29.1L19.9,29.1z"/>
		</g>
	</g>
	<g>
		<g>
			<path class="st0" d="M6.5,15.1l-2.1-3.5c-0.1-0.2-0.4-0.3-0.6-0.3H3.1v1.4h0.3l1.6,2.7L3.4,17c-0.1,0.1-0.2,0.3-0.2,0.5v2.1H1.1
				V21h2.8c0.4,0,0.7-0.3,0.7-0.7v-2.5l1.9-1.9C6.7,15.7,6.7,15.3,6.5,15.1z"/>
		</g>
	</g>
	<g>
		<path class="st0" d="M18.1,8.4V7.5c0-1.1-0.9-2.1-2.1-2c-1.1,0-2,0.9-2,2v0.9c0,1.1,0.9,2.1,2.1,2C17.2,10.4,18.1,9.5,18.1,8.4z
			 M14.5,8.4V7.5C14.5,6.6,15.2,6,16,6c0.8,0,1.5,0.7,1.5,1.5v0.9c0,0.8-0.7,1.5-1.5,1.5C15.2,9.9,14.5,9.2,14.5,8.4z"/>
		<path class="st0" d="M12.7,16h6.6c0.1,0,0.3-0.1,0.3-0.3l0,0v-0.6h4.5c0.1,0,0.3-0.1,0.3-0.3v-1.8c0-1.1-0.8-2-1.9-2
			c-0.1,0-0.2,0.1-0.3,0.2c-0.4,0.5-1.2,0.6-1.7,0.2c-0.1-0.1-0.2-0.1-0.2-0.2c-0.1-0.1-0.1-0.1-0.2-0.1c-0.4,0-0.7,0.1-1,0.3
			c-0.4-0.5-1-0.8-1.6-0.8c-0.1,0-0.2,0.1-0.3,0.2c-0.5,0.6-1.4,0.7-2.1,0.2c-0.1-0.1-0.2-0.2-0.2-0.3c-0.1-0.1-0.1-0.1-0.2-0.1
			c-0.6,0-1.2,0.3-1.6,0.7c0,0-0.1,0.1-0.1,0.1c-0.3-0.2-0.6-0.3-0.9-0.3c-0.1,0-0.2,0.1-0.3,0.2c-0.4,0.5-1.2,0.6-1.7,0.2
			c-0.1-0.1-0.2-0.1-0.2-0.2c-0.1-0.1-0.1-0.1-0.2-0.1c-1.1,0-2,0.9-2,2v1.8c0,0.1,0.1,0.3,0.3,0.3h4.5v0.6
			C12.4,15.9,12.6,16,12.7,16z M19.9,11.6c0.7,0.7,1.8,0.8,2.5,0.2c0.1,0,0.1-0.1,0.2-0.2c0.7,0.1,1.3,0.7,1.3,1.5v1.5h-4.3v-1.7
			c0-0.4-0.1-0.7-0.3-1C19.5,11.7,19.7,11.6,19.9,11.6L19.9,11.6z M14.5,11.1c0.7,0.8,2,0.9,2.8,0.2c0.1-0.1,0.1-0.1,0.2-0.2
			c0.9,0.1,1.5,0.9,1.5,1.7v2.6H13v-2.6C13,11.9,13.7,11.2,14.5,11.1z M8.2,14.6v-1.5c0-0.8,0.6-1.4,1.3-1.5
			c0.7,0.7,1.8,0.8,2.5,0.2c0.1,0,0.1-0.1,0.2-0.2c0.2,0,0.4,0.1,0.5,0.2c-0.2,0.3-0.2,0.7-0.2,1v1.7H8.2z"/>
		<path class="st0" d="M23.1,9.2V8.4c0-1-0.8-1.8-1.8-1.8c-1,0-1.8,0.8-1.8,1.8v0.8c0,1,0.8,1.8,1.8,1.8C22.3,11,23.1,10.2,23.1,9.2
			z M19.9,9.2V8.4c0-0.7,0.6-1.3,1.3-1.3s1.3,0.6,1.3,1.3c0,0,0,0,0,0v0.8c0,0.7-0.6,1.3-1.3,1.3S19.9,9.9,19.9,9.2
			C19.9,9.2,19.9,9.2,19.9,9.2z"/>
		<path class="st0" d="M12.6,9.2V8.4c0-1-0.8-1.8-1.8-1.8S9,7.4,9,8.4v0.8c0,1,0.8,1.8,1.8,1.8S12.6,10.2,12.6,9.2z M9.5,9.2V8.4
			c0-0.7,0.6-1.3,1.3-1.3c0.7,0,1.3,0.6,1.3,1.3c0,0,0,0,0,0v0.8c0,0.7-0.6,1.3-1.3,1.3S9.5,9.9,9.5,9.2C9.5,9.2,9.5,9.2,9.5,9.2z"
			/>
	</g>
</g>
</svg>
