<?xml version="1.0" encoding="utf-8"?>
<!-- Generator: Adobe Illustrator 24.1.1, SVG Export Plug-In . SVG Version: 6.00 Build 0)  -->
<svg version="1.1" id="Layer_1" xmlns="http://www.w3.org/2000/svg" xmlns:xlink="http://www.w3.org/1999/xlink" x="0px" y="0px"
	 viewBox="0 0 18 24" style="enable-background:new 0 0 18 24;" xml:space="preserve">
<style type="text/css">
	.st0{fill:#FC6A55;}
	.st1{fill:#EDEDED;}
	.st2{fill:none;stroke:#FC6A55;stroke-miterlimit:10;}
	.st3{fill:#222F3F;}
	.st4{fill:#383838;}
	.st5{fill:#FFFFFF;}
	.st6{fill:#656D7A;}
	.st7{fill:#C4C4C4;}
	.st8{filter:url(#Adobe_OpacityMaskFilter);}
	.st9{fill-rule:evenodd;clip-rule:evenodd;fill:#FFFFFF;}
	.st10{mask:url(#mask-2_8_);fill-rule:evenodd;clip-rule:evenodd;fill:#FFFFFF;}
	.st11{filter:url(#Adobe_OpacityMaskFilter_1_);}
	.st12{mask:url(#mask-2_7_);fill-rule:evenodd;clip-rule:evenodd;fill:#FFFFFF;}
	.st13{filter:url(#Adobe_OpacityMaskFilter_2_);}
	.st14{mask:url(#mask-2_6_);fill-rule:evenodd;clip-rule:evenodd;fill:#FFFFFF;}
	.st15{filter:url(#Adobe_OpacityMaskFilter_3_);}
	.st16{mask:url(#mask-2_5_);fill-rule:evenodd;clip-rule:evenodd;fill:#FFFFFF;}
	.st17{filter:url(#Adobe_OpacityMaskFilter_4_);}
	.st18{mask:url(#mask-2_2_);fill:none;stroke:#FFFFFF;stroke-width:1.5;stroke-miterlimit:10;}
	.st19{fill:#B4A3EE;}
	.st20{fill:#434343;}
	.st21{fill:#434343;stroke:#F9F9F9;stroke-width:0.25;stroke-miterlimit:10;}
	.st22{fill:none;stroke:#FC6A55;stroke-width:0.75;stroke-miterlimit:10;}
	.st23{fill:#FC6A55;stroke:#FC6A55;stroke-width:0.25;stroke-miterlimit:10;}
	.st24{fill:#FC6A55;stroke:#FC6A55;stroke-width:0.5;stroke-miterlimit:10;}
	.st25{opacity:0.153;fill:url(#Path_44_);enable-background:new    ;}
	.st26{opacity:0.1;fill:#590BB2;enable-background:new    ;}
	.st27{fill:#8E8CA8;}
	.st28{fill:#F5F4F9;}
	.st29{fill:#FFD5B8;}
	.st30{fill:#FC8473;}
	.st31{fill:#1C3475;}
	.st32{fill:#DDD9E4;}
	.st33{fill:#828FB3;}
	.st34{opacity:7.584635e-02;fill:url(#Path_45_);enable-background:new    ;}
	.st35{fill:#FFBE92;}
	.st36{fill:#FB8E7F;}
	.st37{fill:#FDB1A6;}
	.st38{fill:#FC806F;}
	.st39{fill:#FFE783;}
	.st40{fill:#104478;}
	.st41{fill:none;stroke:#FFFFFF;stroke-miterlimit:10;}
	.st42{fill:none;stroke:#000000;stroke-width:0.15;stroke-miterlimit:10;}
	.st43{opacity:0.1;fill:url(#Path_46_);enable-background:new    ;}
	.st44{opacity:0.1;fill:url(#Path_47_);enable-background:new    ;}
	.st45{fill-rule:evenodd;clip-rule:evenodd;fill:#FC6A55;}
	.st46{fill-rule:evenodd;clip-rule:evenodd;}
	.st47{fill:#FF6757;}
	.st48{fill:#6C973D;}
	.st49{fill:none;stroke:#FFFFFF;stroke-width:0.5;stroke-miterlimit:10;}
	.st50{fill:#606060;}
	.st51{fill:#F16A56;}
	.st52{fill:#515252;}
	.st53{fill:#656565;}
	.st54{fill:#F26A56;}
	.st55{fill:none;stroke:#F16A56;stroke-miterlimit:10;}
	.st56{fill:none;stroke:#929292;stroke-miterlimit:10;}
	.st57{fill:#929292;}
	.st58{fill:none;stroke:#000000;stroke-width:0.5;stroke-miterlimit:10;}
	.st59{fill:#A8A7A7;}
	.st60{fill:#F79F91;}
	.st61{fill:#9BDBD5;}
	.st62{fill:#222121;}
	.st63{stroke:#000000;stroke-width:0.25;stroke-miterlimit:10;}
</style>
<g>
	<g>
		<g>
			<path class="st0" d="M13.7,2.8H1.5C0.7,2.8,0,3.5,0,4.4v9.8c0,0.7,0.5,1.3,1.1,1.5L1.3,15c-0.4-0.1-0.7-0.5-0.7-0.9V4.4
				c0-0.5,0.4-0.9,0.9-0.9h12.2c0.5,0,0.9,0.4,0.9,0.9v0.3h0.6V4.4C15.3,3.5,14.6,2.8,13.7,2.8z"/>
		</g>
	</g>
	<g>
		<g>
			<rect x="1.2" y="4.1" class="st0" width="0.6" height="0.6"/>
		</g>
	</g>
	<g>
		<g>
			<rect x="2.4" y="4.1" class="st0" width="0.6" height="0.6"/>
		</g>
	</g>
	<g>
		<g>
			<rect x="3.7" y="4.1" class="st0" width="0.6" height="0.6"/>
		</g>
	</g>
	<g>
		<g>
			<path class="st0" d="M17.9,19.7L15,16.8c0.2-0.3,0.3-0.6,0.4-0.9h0.5v-0.6h-0.4c0.1-0.7,0-1.5-0.3-2.2v-3h-0.6v1.9
				c-0.2-0.2-0.4-0.4-0.6-0.6V8.9h-0.6v2.1c-0.2-0.1-0.4-0.2-0.6-0.3v-3h-0.6v2.8c-0.2,0-0.4-0.1-0.6-0.1V8.3H11v2.2
				c-0.2,0-0.4,0-0.6,0.1v-1H9.8v1.2c-0.2,0.1-0.4,0.2-0.6,0.3V9.3H8.5v2.2c-0.2,0.2-0.4,0.4-0.6,0.6V9.9H7.3v3.3
				C7,13.9,7,14.6,7.1,15.4h-4V16h4.1c0.7,2.3,3,3.5,5.3,2.9c0.4-0.1,0.9-0.3,1.2-0.6l2.8,2.8c0.1,0.1,0.3,0.1,0.4,0l0.9-0.9
				C18,20,18,19.8,17.9,19.7z M11.3,18.4c-2,0-3.7-1.6-3.7-3.7c0-2,1.6-3.7,3.7-3.7s3.7,1.6,3.7,3.7S13.3,18.4,11.3,18.4z
				 M16.8,20.4l-2.6-2.6c0.2-0.2,0.3-0.3,0.5-0.5l2.6,2.6L16.8,20.4z"/>
		</g>
	</g>
	<g>
		<g>
			<path class="st0" d="M11.3,11.7c-1.7,0-3.1,1.4-3.1,3.1s1.4,3.1,3.1,3.1s3.1-1.4,3.1-3.1C14.3,13.1,13,11.7,11.3,11.7z
				 M11.3,17.2c-0.9,0-1.7-0.5-2.1-1.2h4.2C13,16.7,12.2,17.2,11.3,17.2z M8.9,15.4c-0.2-0.9,0.1-1.9,0.8-2.5v1.9h0.6v-2.3
				c0.2-0.1,0.4-0.1,0.6-0.2v2.4h0.6v-2.4c0.2,0,0.4,0.1,0.6,0.2v2.3h0.6v-1.9c0.8,0.6,1.1,1.6,0.8,2.5H8.9z"/>
		</g>
	</g>
	<g>
		<g>
			<path class="st0" d="M15.6,5.3H3.4C2.5,5.3,1.8,6,1.8,6.8v9.8c0,0.8,0.7,1.5,1.5,1.5h4v-0.6h-4c-0.5,0-0.9-0.4-0.9-0.9V6.8
				c0-0.5,0.4-0.9,0.9-0.9h12.2c0.5,0,0.9,0.4,0.9,0.9v9.8c0,0.2-0.1,0.4-0.2,0.6l0.5,0.4c0.2-0.3,0.4-0.6,0.4-1V6.8
				C17.1,6,16.4,5.3,15.6,5.3z"/>
		</g>
	</g>
	<g>
		<g>
			<rect x="3.1" y="6.5" class="st0" width="0.6" height="0.6"/>
		</g>
	</g>
	<g>
		<g>
			<rect x="4.3" y="6.5" class="st0" width="0.6" height="0.6"/>
		</g>
	</g>
	<g>
		<g>
			<rect x="5.5" y="6.5" class="st0" width="0.6" height="0.6"/>
		</g>
	</g>
	<g>
		<g>
			<rect x="3.7" y="12.9" class="st0" width="0.6" height="1.8"/>
		</g>
	</g>
	<g>
		<g>
			<rect x="4.9" y="11.1" class="st0" width="0.6" height="3.7"/>
		</g>
	</g>
	<g>
		<g>
			<rect x="6.1" y="12" class="st0" width="0.6" height="2.7"/>
		</g>
	</g>
</g>
</svg>
