<?xml version="1.0" encoding="utf-8"?>
<!-- Generator: Adobe Illustrator 24.0.2, SVG Export Plug-In . SVG Version: 6.00 Build 0)  -->
<svg version="1.1" id="Layer_1" xmlns="http://www.w3.org/2000/svg" xmlns:xlink="http://www.w3.org/1999/xlink" x="0px" y="0px"
	 viewBox="0 0 42 42" style="enable-background:new 0 0 42 42;" xml:space="preserve">
<style type="text/css">
	.st0{fill:#FC6A55;}
	.st1{stroke:#FFFFFF;stroke-width:0.25;stroke-miterlimit:10;}
	.st2{fill:#656D7A;}
	.st3{fill:#FFFFFF;}
	.st4{filter:url(#Adobe_OpacityMaskFilter);}
	.st5{fill-rule:evenodd;clip-rule:evenodd;fill:#FFFFFF;}
	.st6{mask:url(#mask-2_8_);fill-rule:evenodd;clip-rule:evenodd;}
	.st7{filter:url(#Adobe_OpacityMaskFilter_1_);}
	.st8{mask:url(#mask-2_7_);fill-rule:evenodd;clip-rule:evenodd;}
	.st9{filter:url(#Adobe_OpacityMaskFilter_2_);}
	.st10{mask:url(#mask-2_6_);fill-rule:evenodd;clip-rule:evenodd;}
	.st11{filter:url(#Adobe_OpacityMaskFilter_3_);}
	.st12{mask:url(#mask-2_5_);fill-rule:evenodd;clip-rule:evenodd;}
	.st13{filter:url(#Adobe_OpacityMaskFilter_4_);}
	.st14{mask:url(#mask-2_2_);fill:none;stroke:#000000;stroke-width:2;}
	.st15{fill:#434343;}
	.st16{fill:#434343;stroke:#F9F9F9;stroke-width:0.25;stroke-miterlimit:10;}
	.st17{fill:none;stroke:#FC6A55;stroke-width:0.5;stroke-miterlimit:10;}
	.st18{fill:none;stroke:#FC6A55;stroke-width:0.75;stroke-miterlimit:10;}
	.st19{fill:#FC6A55;stroke:#FC6A55;stroke-width:0.5;stroke-miterlimit:10;}
	.st20{opacity:0.153;fill:url(#Path_144_);enable-background:new    ;}
	.st21{opacity:0.1;fill:#590BB2;enable-background:new    ;}
	.st22{fill:#8E8CA8;}
	.st23{fill:#F5F4F9;}
	.st24{fill:#FFD5B8;}
	.st25{fill:#FC8473;}
	.st26{fill:#1C3475;}
	.st27{fill:#DDD9E4;}
	.st28{fill:#828FB3;}
	.st29{opacity:7.584635e-02;fill:url(#Path_145_);enable-background:new    ;}
	.st30{fill:#FFBE92;}
	.st31{fill:#FB8E7F;}
	.st32{fill:#FDB1A6;}
	.st33{fill:#FC806F;}
	.st34{fill:#FFE783;}
	.st35{fill:#104478;}
</style>
<g id="final-design_14_">
	<g id="invensis.net-2.0-solustion-detail-page-tab-1_5_" transform="translate(-693.000000, -1002.000000)">
		<g id="software-2" transform="translate(693.000000, 1002.000000)">
			<g id="software">
				<path id="XMLID_710_" class="st0" d="M20,30c-0.3,0-0.5,0.1-0.7,0.3C19.1,30.5,19,30.7,19,31c0,0.3,0.1,0.5,0.3,0.7
					c0.2,0.2,0.4,0.3,0.7,0.3s0.5-0.1,0.7-0.3c0.2-0.2,0.3-0.4,0.3-0.7c0-0.3-0.1-0.5-0.3-0.7C20.5,30.1,20.3,30,20,30z"/>
				<path id="XMLID_734_" class="st0" d="M35,27c-0.3,0-0.5,0.1-0.7,0.3C34.1,27.5,34,27.7,34,28c0,0.3,0.1,0.5,0.3,0.7
					c0.2,0.2,0.4,0.3,0.7,0.3c0.3,0,0.5-0.1,0.7-0.3c0.2-0.2,0.3-0.4,0.3-0.7s-0.1-0.5-0.3-0.7C35.5,27.1,35.3,27,35,27z"/>
				<path id="XMLID_735_" class="st0" d="M11,23c-0.3,0-0.5,0.1-0.7,0.3C10.1,23.5,10,23.7,10,24s0.1,0.5,0.3,0.7
					c0.2,0.2,0.4,0.3,0.7,0.3s0.5-0.1,0.7-0.3c0.2-0.2,0.3-0.4,0.3-0.7s-0.1-0.5-0.3-0.7C11.5,23.1,11.3,23,11,23z"/>
				<path id="XMLID_744_" class="st0" d="M42,8.9c0-0.5-0.4-0.8-0.8-0.8h-1.3c-0.2-0.6-0.4-1.1-0.7-1.7l0.9-0.9
					c0.3-0.3,0.3-0.8,0-1.2l-2.5-2.5c-0.3-0.3-0.8-0.3-1.2,0l-0.9,0.9c-0.5-0.3-1.1-0.5-1.7-0.7V0.8c0-0.5-0.4-0.8-0.8-0.8h-3.5
					c-0.5,0-0.8,0.4-0.8,0.8v1.3c-0.6,0.2-1.1,0.4-1.7,0.7l-0.9-0.9c-0.3-0.3-0.8-0.3-1.2,0l-2.5,2.5c-0.2,0.2-0.3,0.5-0.2,0.7h-19
					C1.5,5.1,0,6.6,0,8.4V31c0,1.8,1.5,3.3,3.3,3.3h13v2.8h-2c-1.6,0-3,1.3-3,3v1.1c0,0.5,0.4,0.8,0.8,0.8h15.1
					c0.5,0,0.8-0.4,0.8-0.8V40c0-1.6-1.3-3-3-3h-2v-2.8h13c1.8,0,3.3-1.5,3.3-3.3V17.6l0.6-0.6c0.2-0.2,0.2-0.4,0.2-0.6
					c0-0.2-0.1-0.4-0.2-0.6l-0.9-0.9c0.3-0.5,0.5-1.1,0.7-1.7h1.3c0.2,0,0.4-0.1,0.6-0.2s0.2-0.4,0.2-0.6V8.9z M26.5,40v0.3H13V40
					c0-0.7,0.6-1.3,1.3-1.3h10.8C25.9,38.7,26.5,39.3,26.5,40z M21.6,37.1H18v-2.8h3.6V37.1z M37.9,31c0,0.9-0.7,1.6-1.6,1.6h-33
					c-0.9,0-1.6-0.7-1.6-1.6v-1.9h30.5c0.5,0,0.8-0.4,0.8-0.8s-0.4-0.8-0.8-0.8H1.6v-2.3h6.3c0.5,0,0.8-0.4,0.8-0.8
					s-0.4-0.8-0.8-0.8H1.6V8.4c0-0.9,0.7-1.6,1.6-1.6h20c-0.2,0.4-0.4,0.9-0.5,1.4h-1.3c-0.2,0-0.4,0.1-0.6,0.2s-0.2,0.4-0.2,0.6
					l0,3.5c0,0.5,0.4,0.8,0.8,0.8h1.3c0.2,0.6,0.4,1.1,0.7,1.7l-0.9,0.9c-0.3,0.3-0.3,0.8,0,1.2l2.5,2.5c0.3,0.3,0.8,0.3,1.2,0
					l0.9-0.9c0.5,0.3,1.1,0.5,1.7,0.7l0,1.3c0,0.5,0.4,0.8,0.8,0.8l3.5,0c0.5,0,0.8-0.4,0.8-0.8v-1.3c0.6-0.2,1.1-0.4,1.7-0.7
					l0.9,0.9c0.2,0.2,0.4,0.2,0.6,0.2c0.2,0,0.4-0.1,0.6-0.2l0.2-0.2V31z M40.4,11.6h-1.1c-0.4,0-0.7,0.3-0.8,0.6
					c-0.2,0.8-0.5,1.6-1,2.3c-0.2,0.3-0.2,0.8,0.1,1l0.8,0.8l-1.3,1.3l-0.8-0.8c-0.2-0.2-0.6-0.3-0.9-0.2c0,0-0.1,0-0.1,0
					c-0.7,0.5-1.5,0.8-2.3,1c-0.4,0.1-0.6,0.4-0.6,0.8v1.1h-1.9v-1.1c0-0.4-0.3-0.7-0.6-0.8c-0.8-0.2-1.6-0.5-2.3-1
					c-0.1-0.1-0.3-0.1-0.4-0.1c-0.2,0-0.4,0.1-0.6,0.2l-0.8,0.8l-1.3-1.3l0.8-0.8c0.3-0.3,0.3-0.7,0.1-1c-0.5-0.7-0.8-1.5-1-2.3
					c-0.1-0.4-0.4-0.6-0.8-0.6h-1.1V9.7h1.1c0.4,0,0.7-0.3,0.8-0.6c0.2-0.8,0.5-1.6,1-2.3c0.2-0.3,0.2-0.8-0.1-1l-0.8-0.8l1.3-1.3
					l0.8,0.8c0.3,0.3,0.7,0.3,1,0.1c0.7-0.5,1.5-0.8,2.3-1c0.4-0.1,0.6-0.4,0.6-0.8l0-1.1h1.9v1.1c0,0.4,0.3,0.7,0.6,0.8
					c0.8,0.2,1.6,0.5,2.3,1c0,0,0,0,0.1,0c0.3,0.2,0.7,0.1,0.9-0.2l0.8-0.8l1.3,1.3l-0.8,0.8c0,0-0.1,0.1-0.1,0.1
					c-0.2,0.3-0.2,0.6,0,0.9c0.5,0.7,0.8,1.5,1,2.3c0.1,0.4,0.4,0.6,0.8,0.6h1.1V11.6L40.4,11.6z"/>
				<path id="XMLID_999_" class="st0" d="M31,6c-2.8,0-5,2.2-5,5s2.2,5,5,5s5-2.2,5-5S33.8,6,31,6z M31,14.4c-1.9,0-3.4-1.5-3.4-3.4
					s1.5-3.4,3.4-3.4s3.4,1.5,3.4,3.4S32.9,14.4,31,14.4z"/>
				<path id="XMLID_1012_" class="st0" d="M13,15c-0.3,0-0.5,0.1-0.7,0.3C12.1,15.5,12,15.7,12,16c0,0.3,0.1,0.5,0.3,0.7
					c0.2,0.2,0.4,0.3,0.7,0.3c0.3,0,0.5-0.1,0.7-0.3c0.2-0.2,0.3-0.4,0.3-0.7c0-0.3-0.1-0.5-0.3-0.7S13.3,15,13,15z"/>
				<path id="XMLID_1094_" class="st0" d="M20,15.1c0.1-0.2,0-0.4-0.1-0.6l-1.4-2.4c-0.2-0.4-0.7-0.5-1.1-0.3l-0.8,0.5
					c-0.3-0.2-0.5-0.3-0.8-0.5v-0.9c0-0.5-0.4-0.8-0.8-0.8h-2.8c-0.5,0-0.8,0.4-0.8,0.8v0.9c-0.3,0.1-0.6,0.3-0.8,0.5l-0.8-0.5
					c-0.2-0.1-0.4-0.1-0.6-0.1c-0.2,0.1-0.4,0.2-0.5,0.4l-1.4,2.4c-0.2,0.4-0.1,0.9,0.3,1.1L8.2,16c0,0.2,0,0.3,0,0.5s0,0.3,0,0.5
					l-0.8,0.5c-0.4,0.2-0.5,0.7-0.3,1.1l1.4,2.4c0.1,0.2,0.3,0.3,0.5,0.4c0.2,0.1,0.4,0,0.6-0.1l0.8-0.5c0.3,0.2,0.5,0.3,0.8,0.5
					v0.9c0,0.5,0.4,0.8,0.8,0.8h2.8c0.5,0,0.8-0.4,0.8-0.8v-0.9c0.3-0.1,0.6-0.3,0.8-0.5l0.8,0.5c0.4,0.2,0.9,0.1,1.1-0.3l1.4-2.4
					c0.1-0.2,0.1-0.4,0.1-0.6c-0.1-0.2-0.2-0.4-0.4-0.5L18.8,17c0-0.2,0-0.3,0-0.5s0-0.3,0-0.5l0.8-0.5C19.8,15.5,19.9,15.3,20,15.1
					z M17.1,15.8c0.1,0.2,0.1,0.5,0.1,0.7s0,0.5-0.1,0.7c-0.1,0.3,0.1,0.7,0.4,0.9l0.6,0.3l-0.6,1l-0.6-0.3c-0.3-0.2-0.7-0.1-1,0.1
					c-0.4,0.3-0.8,0.6-1.3,0.7c-0.3,0.1-0.6,0.4-0.6,0.8v0.6h-1.1v-0.6c0-0.4-0.2-0.7-0.6-0.8c-0.5-0.2-0.9-0.4-1.3-0.7
					c-0.3-0.2-0.7-0.3-1-0.1l-0.6,0.3l-0.6-1l0.6-0.3c0.3-0.2,0.5-0.5,0.4-0.9c-0.1-0.2-0.1-0.5-0.1-0.7s0-0.5,0.1-0.7
					c0.1-0.3-0.1-0.7-0.4-0.9L9,14.6l0.6-1l0.6,0.3c0.3,0.2,0.7,0.1,1-0.1c0.4-0.3,0.8-0.6,1.3-0.7c0.3-0.1,0.6-0.4,0.6-0.8v-0.6
					h1.1v0.6c0,0.4,0.2,0.7,0.6,0.8c0.5,0.2,0.9,0.4,1.3,0.7c0.3,0.2,0.7,0.3,1,0.1l0.6-0.3l0.6,1l-0.6,0.3
					C17.2,15.1,17,15.4,17.1,15.8z"/>
			</g>
		</g>
	</g>
</g>
</svg>
