<?xml version="1.0" encoding="utf-8"?>
<!-- Generator: Adobe Illustrator 24.0.2, SVG Export Plug-In . SVG Version: 6.00 Build 0)  -->
<svg version="1.1" id="Layer_1" xmlns="http://www.w3.org/2000/svg" xmlns:xlink="http://www.w3.org/1999/xlink" x="0px" y="0px"
	 viewBox="0 0 42 51" style="enable-background:new 0 0 42 51;" xml:space="preserve">
<style type="text/css">
	.st0{fill:#FC6A55;}
	.st1{stroke:#FFFFFF;stroke-width:0.25;stroke-miterlimit:10;}
	.st2{fill:#656D7A;}
	.st3{fill:#FFFFFF;}
	.st4{filter:url(#Adobe_OpacityMaskFilter);}
	.st5{fill-rule:evenodd;clip-rule:evenodd;fill:#FFFFFF;}
	.st6{mask:url(#mask-2_8_);fill-rule:evenodd;clip-rule:evenodd;}
	.st7{filter:url(#Adobe_OpacityMaskFilter_1_);}
	.st8{mask:url(#mask-2_7_);fill-rule:evenodd;clip-rule:evenodd;}
	.st9{filter:url(#Adobe_OpacityMaskFilter_2_);}
	.st10{mask:url(#mask-2_6_);fill-rule:evenodd;clip-rule:evenodd;}
	.st11{filter:url(#Adobe_OpacityMaskFilter_3_);}
	.st12{mask:url(#mask-2_5_);fill-rule:evenodd;clip-rule:evenodd;}
	.st13{filter:url(#Adobe_OpacityMaskFilter_4_);}
	.st14{mask:url(#mask-2_2_);fill:none;stroke:#000000;stroke-width:2;}
	.st15{fill:#434343;}
	.st16{fill:#434343;stroke:#F9F9F9;stroke-width:0.25;stroke-miterlimit:10;}
	.st17{fill:none;stroke:#FC6A55;stroke-width:0.5;stroke-miterlimit:10;}
	.st18{fill:none;stroke:#FC6A55;stroke-width:0.75;stroke-miterlimit:10;}
	.st19{fill:#FC6A55;stroke:#FC6A55;stroke-width:0.5;stroke-miterlimit:10;}
	.st20{opacity:0.153;fill:url(#Path_144_);enable-background:new    ;}
	.st21{opacity:0.1;fill:#590BB2;enable-background:new    ;}
	.st22{fill:#8E8CA8;}
	.st23{fill:#F5F4F9;}
	.st24{fill:#FFD5B8;}
	.st25{fill:#FC8473;}
	.st26{fill:#1C3475;}
	.st27{fill:#DDD9E4;}
	.st28{fill:#828FB3;}
	.st29{opacity:7.584635e-02;fill:url(#Path_145_);enable-background:new    ;}
	.st30{fill:#FFBE92;}
	.st31{fill:#FB8E7F;}
	.st32{fill:#FDB1A6;}
	.st33{fill:#FC806F;}
	.st34{fill:#FFE783;}
	.st35{fill:#104478;}
</style>
<g id="final-design_9_">
	<g id="invensis.net-2.0-solustion-detail-page-tab-1" transform="translate(-644.000000, -1199.000000)">
		<g id="app" transform="translate(644.000000, 1199.000000)">
			<path id="Shape_20_" class="st0" d="M5.3,50.8h18.3c2.9,0,5.3-2.4,5.3-5.3v-6.2h1.3c0.4,0,0.6-0.3,0.7-0.6l0.2-2.4
				c1-0.3,1.9-0.7,2.8-1.2l1.8,1.5c0.3,0.2,0.7,0.2,0.9,0l2.7-2.7c0.3-0.3,0.3-0.7,0-0.9l-1.5-1.8c0.5-0.9,0.9-1.8,1.2-2.8l2.3-0.2
				c0.4,0,0.6-0.3,0.6-0.7v-3.9c0-0.4-0.3-0.7-0.6-0.7L39,22.7c-0.3-1-0.7-1.9-1.2-2.8l1.5-1.8c0.2-0.3,0.2-0.7,0-0.9l-2.7-2.7
				c-0.3-0.3-0.7-0.3-0.9,0l-1.8,1.5C33,15.3,32,14.9,31,14.6l-0.2-2.4c0-0.4-0.3-0.6-0.7-0.6h-1.3V5.4c0-2.9-2.4-5.3-5.3-5.3H5.3
				C2.4,0.2,0,2.5,0,5.4v40.1C0,48.5,2.4,50.8,5.3,50.8z M29.7,15.2c0,0.3,0.2,0.5,0.5,0.6c1.2,0.3,2.3,0.7,3.3,1.4
				c0.3,0.2,0.6,0.1,0.8,0l1.7-1.4l1.8,1.8l-1.4,1.7c-0.2,0.2-0.2,0.6,0,0.8c0.7,1,1.1,2.1,1.4,3.3c0.1,0.3,0.3,0.5,0.6,0.5l2.2,0.2
				v2.6L38.4,27c-0.3,0-0.5,0.2-0.6,0.5c-0.3,1.2-0.7,2.3-1.4,3.3c-0.2,0.3-0.1,0.6,0,0.8l1.4,1.7l-1.8,1.8l-1.7-1.4
				c-0.2-0.2-0.6-0.2-0.8,0c-1,0.7-2.1,1.1-3.3,1.4c-0.3,0.1-0.5,0.3-0.5,0.6L29.5,38h-2.6l-0.2-2.2c0-0.3-0.2-0.5-0.5-0.6
				c-1.2-0.3-2.3-0.7-3.3-1.4c-0.3-0.2-0.6-0.1-0.8,0l-1.7,1.4l-1.8-1.8l1.4-1.7c0.2-0.2,0.2-0.6,0-0.8c-0.7-1-1.1-2.1-1.4-3.3
				c-0.1-0.3-0.3-0.5-0.6-0.5l-2.2-0.2v-2.6l2.2-0.2c0.3,0,0.5-0.2,0.6-0.5c0.3-1.2,0.7-2.3,1.4-3.3c0.2-0.3,0.1-0.6,0-0.8l-1.4-1.7
				l1.8-1.8l1.7,1.4c0.2,0.2,0.6,0.2,0.8,0c1-0.7,2.1-1.1,3.3-1.4c0.3-0.1,0.5-0.3,0.5-0.6l0.2-2.2h2.6L29.7,15.2z M5.3,1.5h18.3
				c2.1,0,3.9,1.7,3.9,3.9V7h-1.6c-0.4,0-0.7,0.3-0.7,0.7s0.3,0.7,0.7,0.7h1.6v3.2h-1.2c-0.4,0-0.6,0.3-0.7,0.6l-0.2,2.4
				c-1,0.3-1.9,0.7-2.8,1.2l-1.8-1.5c-0.3-0.2-0.7-0.2-0.9,0L17,17.1c-0.3,0.3-0.3,0.7,0,0.9l1.5,1.8c-0.5,0.9-0.9,1.8-1.2,2.8
				l-2.4,0.2c-0.4,0-0.6,0.3-0.6,0.7v3.9c0,0.4,0.3,0.7,0.6,0.7l2.4,0.2c0.3,1,0.7,1.9,1.2,2.8L17,33c-0.2,0.3-0.2,0.7,0,0.9
				l2.7,2.7c0.3,0.3,0.7,0.3,0.9,0l1.8-1.5c0.9,0.5,1.8,0.9,2.8,1.2l0.2,2.4c0,0.4,0.3,0.6,0.7,0.6h1.2v1.8H1.4V8.4H20
				c0.4,0,0.7-0.3,0.7-0.7S20.4,7,20,7H1.4V5.4C1.4,3.3,3.1,1.5,5.3,1.5z M1.4,42.6h26.1v3c0,2.2-1.7,3.9-3.9,3.9H5.3
				c-2.1,0-3.9-1.7-3.9-3.9V42.6z"/>
			<path id="Path" class="st0" d="M22.2,8.5h1.3c0.4,0,0.7-0.3,0.7-0.7S23.9,7,23.6,7h-1.3c-0.4,0-0.7,0.3-0.7,0.7
				S21.9,8.5,22.2,8.5z"/>
			<path id="Shape_19_" class="st0" d="M14.4,48.5c1.3,0,2.4-1.1,2.4-2.4c0-1.3-1.1-2.4-2.4-2.4s-2.4,1.1-2.4,2.4
				C11.9,47.4,13,48.5,14.4,48.5z M14.4,45c0.6,0,1,0.5,1,1c0,0.6-0.5,1-1,1c-0.6,0-1-0.5-1-1C13.3,45.5,13.8,45,14.4,45L14.4,45z"
				/>
			<path id="Shape_18_" class="st0" d="M19.9,25.4c0,4.5,3.7,8.2,8.2,8.2s8.2-3.7,8.2-8.2s-3.7-8.2-8.2-8.2
				C23.6,17.2,19.9,20.9,19.9,25.4z M28.2,18.6c3.8,0,6.9,3.1,6.9,6.9s-3.1,6.9-6.9,6.9s-6.9-3.1-6.9-6.9
				C21.3,21.6,24.4,18.6,28.2,18.6L28.2,18.6z"/>
			<path id="Path_16_" class="st0" d="M26.7,27.8c0.3,0.3,0.7,0.3,1,0l4-3.9c0.2-0.2,0.2-0.4,0.2-0.7c-0.1-0.2-0.2-0.4-0.5-0.5
				c-0.2-0.1-0.5,0-0.7,0.2l-3.5,3.4l-1.7-1.7c-0.3-0.3-0.7-0.3-1,0c-0.3,0.3-0.3,0.7,0,1L26.7,27.8z"/>
			<path id="Path_15_" class="st0" d="M12.2,23.3h-1c-0.4,0-0.7,0.3-0.7,0.7c0,0.4,0.3,0.7,0.7,0.7h1c0.4,0,0.7-0.3,0.7-0.7
				C12.9,23.7,12.5,23.3,12.2,23.3z"/>
			<path id="Path_14_" class="st0" d="M4,24.8h4.2c0.4,0,0.7-0.3,0.7-0.7c0-0.4-0.3-0.7-0.7-0.7H4c-0.4,0-0.7,0.3-0.7,0.7
				C3.3,24.5,3.6,24.8,4,24.8z"/>
			<path id="Path_4_" class="st0" d="M12.2,28.9H7.8c-0.4,0-0.7,0.3-0.7,0.7c0,0.4,0.3,0.7,0.7,0.7h4.4c0.4,0,0.7-0.3,0.7-0.7
				C12.9,29.3,12.5,28.9,12.2,28.9z"/>
			<path id="Path_5_" class="st0" d="M4,30.4h0.7c0.4,0,0.7-0.3,0.7-0.7c0-0.4-0.3-0.7-0.7-0.7H4c-0.4,0-0.7,0.3-0.7,0.7
				C3.3,30.1,3.6,30.4,4,30.4z"/>
			<path id="Path_6_" class="st0" d="M11.6,35.5c0,0.4,0.3,0.7,0.7,0.7h3.2c0.4,0,0.7-0.3,0.7-0.7c0-0.4-0.3-0.7-0.7-0.7h-3.2
				C11.9,34.7,11.6,35.1,11.6,35.5z"/>
			<path id="Path_3_" class="st0" d="M9.3,34.7H3.9c-0.4,0-0.7,0.3-0.7,0.7c0,0.4,0.3,0.7,0.7,0.7h5.3c0.4,0,0.7-0.3,0.7-0.7
				C10,35.1,9.6,34.7,9.3,34.7L9.3,34.7z"/>
			<path id="Path_2_" class="st0" d="M8.8,18.6h4.4c0.4,0,0.7-0.3,0.7-0.7c0-0.4-0.3-0.7-0.7-0.7H8.8c-0.4,0-0.7,0.3-0.7,0.7
				C8.1,18.3,8.5,18.6,8.8,18.6z"/>
			<path id="Path_1_" class="st0" d="M4,18.6h1.9c0.4,0,0.7-0.3,0.7-0.7c0-0.4-0.3-0.7-0.7-0.7H4c-0.4,0-0.7,0.3-0.7,0.7
				C3.3,18.3,3.6,18.6,4,18.6z"/>
		</g>
	</g>
</g>
</svg>
