<?xml version="1.0" encoding="utf-8"?>
<!-- Generator: Adobe Illustrator 24.0.2, SVG Export Plug-In . SVG Version: 6.00 Build 0)  -->
<svg version="1.1" id="Layer_1" xmlns="http://www.w3.org/2000/svg" xmlns:xlink="http://www.w3.org/1999/xlink" x="0px" y="0px"
	 viewBox="0 0 42 42" style="enable-background:new 0 0 42 42;" xml:space="preserve">
<style type="text/css">
	.st0{fill:#FC6A55;}
	.st1{stroke:#FFFFFF;stroke-width:0.25;stroke-miterlimit:10;}
	.st2{fill:#656D7A;}
	.st3{fill:#FFFFFF;}
	.st4{filter:url(#Adobe_OpacityMaskFilter);}
	.st5{fill-rule:evenodd;clip-rule:evenodd;fill:#FFFFFF;}
	.st6{mask:url(#mask-2_8_);fill-rule:evenodd;clip-rule:evenodd;}
	.st7{filter:url(#Adobe_OpacityMaskFilter_1_);}
	.st8{mask:url(#mask-2_7_);fill-rule:evenodd;clip-rule:evenodd;}
	.st9{filter:url(#Adobe_OpacityMaskFilter_2_);}
	.st10{mask:url(#mask-2_6_);fill-rule:evenodd;clip-rule:evenodd;}
	.st11{filter:url(#Adobe_OpacityMaskFilter_3_);}
	.st12{mask:url(#mask-2_5_);fill-rule:evenodd;clip-rule:evenodd;}
	.st13{filter:url(#Adobe_OpacityMaskFilter_4_);}
	.st14{mask:url(#mask-2_2_);fill:none;stroke:#000000;stroke-width:2;}
	.st15{fill:#434343;}
	.st16{fill:#434343;stroke:#F9F9F9;stroke-width:0.25;stroke-miterlimit:10;}
	.st17{fill:none;stroke:#FC6A55;stroke-width:0.5;stroke-miterlimit:10;}
	.st18{fill:none;stroke:#FC6A55;stroke-width:0.75;stroke-miterlimit:10;}
	.st19{fill:#FC6A55;stroke:#FC6A55;stroke-width:0.5;stroke-miterlimit:10;}
	.st20{opacity:0.153;fill:url(#Path_144_);enable-background:new    ;}
	.st21{opacity:0.1;fill:#590BB2;enable-background:new    ;}
	.st22{fill:#8E8CA8;}
	.st23{fill:#F5F4F9;}
	.st24{fill:#FFD5B8;}
	.st25{fill:#FC8473;}
	.st26{fill:#1C3475;}
	.st27{fill:#DDD9E4;}
	.st28{fill:#828FB3;}
	.st29{opacity:7.584635e-02;fill:url(#Path_145_);enable-background:new    ;}
	.st30{fill:#FFBE92;}
	.st31{fill:#FB8E7F;}
	.st32{fill:#FDB1A6;}
	.st33{fill:#FC806F;}
	.st34{fill:#FFE783;}
	.st35{fill:#104478;}
</style>
<g id="final-design_16_">
	<g id="invensis.net-2.0-solustion-detail-page-tab-1_7_" transform="translate(-1180.000000, -1012.000000)">
		<g id="web-development" transform="translate(1180.000000, 1012.000000)">
			<path id="Shape_32_" class="st0" d="M41.7,27.4l-1.5-2.1c0,0,0-0.1,0-0.1l1.5-2.1c0.3-0.4,0.3-1,0.1-1.4
				c-0.2-0.5-0.7-0.7-1.2-0.7h-2.9v-3.3c0-0.7-0.6-1.4-1.4-1.4h-1.1c-1-2.9-2.8-5.4-5.3-7.3c-2.6-2-5.8-3-9.1-3c-0.1,0-0.1,0-0.2,0
				c0,0,0,0,0,0c0,0,0,0,0,0c-2.4,0-4.6,0.6-6.7,1.7c-2,1.1-3.9,2.6-5.2,4.4c-0.2,0.3-0.1,0.7,0.1,0.9c0.3,0.2,0.7,0.1,0.9-0.1
				c0.3-0.5,0.7-0.9,1.1-1.3c0.4,0.2,0.8,0.5,1.2,0.7c-0.7,1.2-1.2,2.6-1.5,4.1H8c0.2-0.4,0.3-0.9,0.5-1.3c0.1-0.3,0-0.7-0.3-0.8
				s-0.7,0-0.8,0.3c-0.3,0.6-0.5,1.2-0.7,1.8H5.6c-0.7,0-1.4,0.6-1.4,1.4v3.3H1.4c-0.5,0-1,0.3-1.2,0.7c-0.2,0.5-0.2,1,0.1,1.4
				l1.5,2.1c0,0,0,0.1,0,0.1l-1.5,2.1c-0.3,0.4-0.3,1-0.1,1.4c0.2,0.5,0.7,0.7,1.2,0.7h7.2c0.9,1.4,2.1,2.6,3.4,3.6
				c2.6,2,5.8,3,9.1,3c3.3,0,6.4-1,9.1-3c1.3-1,2.5-2.2,3.4-3.6h1.8c0.3,0,0.6-0.3,0.6-0.6c0-0.3-0.3-0.6-0.6-0.6h-1.1
				c0.4-0.8,0.8-1.6,1.1-2.5h1.1c0.7,0,1.4-0.6,1.4-1.4v-2.3h2.9c0,0,0.1,0,0.1,0.1c0,0,0,0.1,0,0.1l-1.5,2.1
				c-0.4,0.5-0.4,1.1,0,1.6l1.5,2.1c0,0,0,0.1,0,0.1c0,0-0.1,0.1-0.1,0.1H38c-0.3,0-0.6,0.3-0.6,0.6c0,0.3,0.3,0.6,0.6,0.6h2.6
				c0.5,0,1-0.3,1.2-0.7C42.1,28.3,42,27.8,41.7,27.4z M34,16.2h-2.7c-0.4-1.5-0.9-2.9-1.5-4.1c0.4-0.2,0.8-0.5,1.2-0.7
				C32.3,12.7,33.4,14.4,34,16.2z M23.6,9.3c-0.2-0.8-0.5-1.4-0.8-1.9c2,0.6,3.9,2,5.3,4.2c-1.2,0.5-2.4,0.9-3.8,1.1
				C24.1,11.4,23.9,10.2,23.6,9.3z M19.1,7.4c-0.3,0.5-0.5,1.2-0.8,1.9c-0.3,1-0.5,2.1-0.7,3.3c-1.3-0.2-2.6-0.6-3.8-1.1
				C15.3,9.4,17.1,7.9,19.1,7.4z M19.6,9.7c0.6-2,1.2-2.5,1.4-2.5c0,0,0,0,0,0h0h0c0,0,0,0,0,0c0.2,0,0.8,0.6,1.4,2.5
				c0.3,0.9,0.5,2,0.7,3.2c-0.7,0.1-1.4,0.1-2.1,0.1c-0.7,0-1.4,0-2.1-0.1C19.1,11.6,19.3,10.5,19.6,9.7L19.6,9.7z M21,14.2
				c0.8,0,1.5,0,2.3-0.1c0.1,0.7,0.2,1.4,0.2,2.2h-5.1c0.1-0.7,0.1-1.5,0.2-2.2C19.5,14.1,20.2,14.2,21,14.2z M24.8,16.2
				c-0.1-0.8-0.1-1.6-0.2-2.3c1.5-0.3,2.9-0.7,4.2-1.2c0.6,1.1,1,2.3,1.4,3.6H24.8z M30.1,10.5c-0.3,0.2-0.6,0.3-0.9,0.5
				c-0.5-0.7-1-1.4-1.5-2c-0.2-0.2-0.3-0.3-0.5-0.5C28.3,9.1,29.3,9.8,30.1,10.5z M11.9,10.5c0.9-0.7,1.8-1.4,2.8-1.9
				c-0.1,0.1-0.3,0.3-0.4,0.4c-0.6,0.6-1.1,1.3-1.5,2C12.5,10.9,12.2,10.7,11.9,10.5z M13.3,12.6c1.3,0.6,2.7,1,4.2,1.2
				c-0.1,0.7-0.2,1.5-0.2,2.3h-5.3C12.2,14.9,12.7,13.7,13.3,12.6z M1.4,28.3c0,0-0.1,0-0.1-0.1c0,0,0-0.1,0-0.1L2.8,26
				c0.4-0.5,0.4-1.1,0-1.6l-1.5-2.1c0,0,0-0.1,0-0.1c0,0,0.1-0.1,0.1-0.1h2.9v2.3c0,0.7,0.6,1.4,1.4,1.4h1.1
				c0.3,0.9,0.7,1.7,1.1,2.5H1.4z M8,25.8h2.7c0.4,1.5,0.9,2.8,1.5,4c-0.4,0.2-0.8,0.5-1.2,0.7C9.6,29.2,8.6,27.6,8,25.8L8,25.8z
				 M18.4,32.7c0.2,0.8,0.5,1.4,0.8,1.9c-2.1-0.6-3.9-2.1-5.3-4.3c1.2-0.5,2.5-0.9,3.8-1.1C17.8,30.6,18.1,31.7,18.4,32.7z
				 M22.9,34.6c0.3-0.5,0.5-1.1,0.8-1.9c0.3-1,0.5-2.1,0.8-3.4c1.3,0.2,2.6,0.6,3.8,1.1C26.8,32.5,24.9,34.1,22.9,34.6z M21,34.9
				C21,34.9,21,34.9,21,34.9C21,34.9,21,34.9,21,34.9C21,34.9,21,34.9,21,34.9C21,34.9,21,34.9,21,34.9c-0.5,0-1.5-1.6-2.2-5.8
				C19.6,29,20.3,29,21,29s1.4,0,2.1,0.1C22.5,33.3,21.5,34.8,21,34.9z M21,27.7c-0.8,0-1.6,0-2.3,0.1c-0.1-0.6-0.1-1.3-0.2-2.1h5.1
				c-0.1,0.7-0.1,1.4-0.2,2.1C22.6,27.8,21.8,27.7,21,27.7z M17.2,25.8c0.1,0.8,0.1,1.5,0.2,2.2c-1.5,0.3-2.9,0.7-4.2,1.3
				c-0.5-1.1-1-2.2-1.3-3.5H17.2z M11.8,31.4c0.3-0.2,0.6-0.4,0.9-0.5c0.6,0.9,1.3,1.8,2,2.5C13.7,32.9,12.7,32.2,11.8,31.4z
				 M27.3,33.4c0.7-0.7,1.4-1.6,2-2.5c0.3,0.2,0.6,0.3,0.9,0.5C29.3,32.2,28.3,32.9,27.3,33.4L27.3,33.4z M31.1,30.5
				c-0.4-0.3-0.8-0.5-1.2-0.7c0.6-1.2,1.1-2.6,1.5-4H34C33.4,27.6,32.4,29.2,31.1,30.5z M36.6,24.5c0,0.1-0.1,0.1-0.1,0.1H29
				c-0.3,0-0.6,0.3-0.6,0.6c0,0.3,0.3,0.6,0.6,0.6h1.1c-0.3,1.3-0.8,2.4-1.3,3.5c-1.3-0.6-2.8-1-4.2-1.3c0.1-0.7,0.2-1.5,0.2-2.2
				h1.6c0.3,0,0.6-0.3,0.6-0.6c0-0.3-0.3-0.6-0.6-0.6H5.6c-0.1,0-0.1-0.1-0.1-0.1v-6.9c0-0.1,0.1-0.1,0.1-0.1h30.9
				c0.1,0,0.1,0.1,0.1,0.1V24.5z"/>
			<path id="Path_101_" class="st0" d="M17,18.6c-0.3-0.1-0.7,0.1-0.8,0.4L15,22.6c-0.1,0.3,0.1,0.7,0.4,0.8c0.1,0,0.1,0,0.2,0
				c0.3,0,0.5-0.2,0.6-0.4l1.2-3.6C17.5,19.1,17.3,18.7,17,18.6z"/>
			<path id="Path_100_" class="st0" d="M15.5,18.6c-0.3-0.1-0.7,0.1-0.8,0.4l-1.2,3.6c-0.1,0.3,0.1,0.7,0.4,0.8c0.1,0,0.1,0,0.2,0
				c0.3,0,0.5-0.2,0.6-0.4l1.2-3.6C15.9,19.1,15.8,18.7,15.5,18.6z"/>
			<path id="Path_99_" class="st0" d="M13.5,21.3L12.7,19c-0.1-0.3-0.5-0.5-0.8-0.4s-0.5,0.5-0.4,0.8l0.8,2.3
				c0.1,0.3,0.3,0.4,0.6,0.4c0.1,0,0.1,0,0.2,0C13.4,22,13.6,21.6,13.5,21.3z"/>
			<path id="Path_98_" class="st0" d="M23.6,18.6c-0.3-0.1-0.7,0.1-0.8,0.4l-1.2,3.6c-0.1,0.3,0.1,0.7,0.4,0.8c0.1,0,0.1,0,0.2,0
				c0.3,0,0.5-0.2,0.6-0.4l1.2-3.6C24.1,19.1,23.9,18.7,23.6,18.6L23.6,18.6z"/>
			<path id="Path_97_" class="st0" d="M22,18.6c-0.3-0.1-0.7,0.1-0.8,0.4L20,22.6c-0.1,0.3,0.1,0.7,0.4,0.8c0.1,0,0.1,0,0.2,0
				c0.3,0,0.5-0.2,0.6-0.4l1.2-3.6C22.5,19.1,22.3,18.7,22,18.6z"/>
			<path id="Path_96_" class="st0" d="M20,21.3L19.2,19c-0.1-0.3-0.5-0.5-0.8-0.4c-0.3,0.1-0.5,0.5-0.4,0.8l0.8,2.3
				c0.1,0.3,0.3,0.4,0.6,0.4c0.1,0,0.1,0,0.2,0C20,22,20.1,21.6,20,21.3z"/>
			<path id="Path_95_" class="st0" d="M30.1,18.6c-0.3-0.1-0.7,0.1-0.8,0.4l-1.2,3.6c-0.1,0.3,0.1,0.7,0.4,0.8c0.1,0,0.1,0,0.2,0
				c0.3,0,0.5-0.2,0.6-0.4l1.2-3.6C30.6,19.1,30.4,18.7,30.1,18.6L30.1,18.6z"/>
			<path id="Path_94_" class="st0" d="M28.5,18.6c-0.3-0.1-0.7,0.1-0.8,0.4l-1.2,3.6c-0.1,0.3,0.1,0.7,0.4,0.8c0.1,0,0.1,0,0.2,0
				c0.3,0,0.5-0.2,0.6-0.4l1.2-3.6C29,19.1,28.8,18.7,28.5,18.6z"/>
			<path id="Path_93_" class="st0" d="M26.6,21.3L25.8,19c-0.1-0.3-0.5-0.5-0.8-0.4c-0.3,0.1-0.5,0.5-0.4,0.8l0.8,2.3
				c0.1,0.3,0.3,0.4,0.6,0.4c0.1,0,0.1,0,0.2,0C26.5,22,26.7,21.6,26.6,21.3L26.6,21.3z"/>
		</g>
	</g>
</g>
</svg>
