<?xml version="1.0" encoding="utf-8"?>
<!-- Generator: Adobe Illustrator 24.0.2, SVG Export Plug-In . SVG Version: 6.00 Build 0)  -->
<svg version="1.1" id="Layer_1" xmlns="http://www.w3.org/2000/svg" xmlns:xlink="http://www.w3.org/1999/xlink" x="0px" y="0px"
	 viewBox="0 0 42 42" style="enable-background:new 0 0 42 42;" xml:space="preserve">
<style type="text/css">
	.st0{fill:#FC6A55;}
	.st1{stroke:#FFFFFF;stroke-width:0.25;stroke-miterlimit:10;}
	.st2{fill:#656D7A;}
	.st3{fill:#FFFFFF;}
	.st4{filter:url(#Adobe_OpacityMaskFilter);}
	.st5{fill-rule:evenodd;clip-rule:evenodd;fill:#FFFFFF;}
	.st6{mask:url(#mask-2_8_);fill-rule:evenodd;clip-rule:evenodd;}
	.st7{filter:url(#Adobe_OpacityMaskFilter_1_);}
	.st8{mask:url(#mask-2_7_);fill-rule:evenodd;clip-rule:evenodd;}
	.st9{filter:url(#Adobe_OpacityMaskFilter_2_);}
	.st10{mask:url(#mask-2_6_);fill-rule:evenodd;clip-rule:evenodd;}
	.st11{filter:url(#Adobe_OpacityMaskFilter_3_);}
	.st12{mask:url(#mask-2_5_);fill-rule:evenodd;clip-rule:evenodd;}
	.st13{filter:url(#Adobe_OpacityMaskFilter_4_);}
	.st14{mask:url(#mask-2_2_);fill:none;stroke:#000000;stroke-width:2;}
	.st15{fill:#434343;}
	.st16{fill:#434343;stroke:#F9F9F9;stroke-width:0.25;stroke-miterlimit:10;}
	.st17{fill:none;stroke:#FC6A55;stroke-width:0.5;stroke-miterlimit:10;}
	.st18{fill:none;stroke:#FC6A55;stroke-width:0.75;stroke-miterlimit:10;}
	.st19{fill:#FC6A55;stroke:#FC6A55;stroke-width:0.5;stroke-miterlimit:10;}
	.st20{opacity:0.153;fill:url(#Path_144_);enable-background:new    ;}
	.st21{opacity:0.1;fill:#590BB2;enable-background:new    ;}
	.st22{fill:#8E8CA8;}
	.st23{fill:#F5F4F9;}
	.st24{fill:#FFD5B8;}
	.st25{fill:#FC8473;}
	.st26{fill:#1C3475;}
	.st27{fill:#DDD9E4;}
	.st28{fill:#828FB3;}
	.st29{opacity:7.584635e-02;fill:url(#Path_145_);enable-background:new    ;}
	.st30{fill:#FFBE92;}
	.st31{fill:#FB8E7F;}
	.st32{fill:#FDB1A6;}
	.st33{fill:#FC806F;}
	.st34{fill:#FFE783;}
	.st35{fill:#104478;}
</style>
<g id="final-design_13_">
	<g id="invensis.net-2.0-solustion-detail-page-tab-1_4_" transform="translate(-1230.000000, -1202.000000)">
		<g id="saas" transform="translate(1230.000000, 1202.000000)">
			<path id="Shape_30_" class="st0" d="M33.6,28.7c4.6,0,8.4-3.8,8.4-8.4s-3.8-8.4-8.4-8.4c-1,0-2,0.2-2.9,0.5
				c-0.4-1.9-2.1-3.3-4.1-3.3c0,0,0,0,0,0c-0.2-5-4.3-9.1-9.4-9.1c-5.2,0-9.4,4.2-9.4,9.4c0,0.4,0,0.8,0.1,1.2
				c-4.4,0.6-7.8,4.5-7.8,9c0,5,4.1,9.1,9.1,9.1h5.6v3.5h-3.5v1.4h4.2c0.4,0,0.7-0.3,0.7-0.7v-4.2h1.4v1.4h1.4v-1.4h1.4v9.1h-1.4
				v1.4H21c0.4,0,0.7-0.3,0.7-0.7v-9.8h1.4v2.8h1.4v-2.8h1.4v7c0,0.4,0.3,0.7,0.7,0.7h3.5V35h-2.8v-6.3h1.4v4.2
				c0,0.4,0.3,0.7,0.7,0.7h4.2v-1.4h-3.5v-3.5H33.6z M1.4,19.6c0-4.1,3.2-7.4,7.2-7.7c0.2,0,0.4-0.1,0.5-0.3
				c0.1-0.2,0.2-0.4,0.1-0.6C9.2,10.5,9.1,10,9.1,9.4c0-4.4,3.6-8.1,8-8.1s8.1,3.6,8.1,8.1c0,0.1,0,0.2,0,0.2l0,0.2
				c0,0.2,0.1,0.4,0.2,0.6c0.2,0.1,0.4,0.2,0.6,0.2c1.8-0.4,3.4,1,3.4,2.7c0,0,0,0.1,0,0.1c0,0.2,0.1,0.5,0.3,0.6
				c0.2,0.1,0.5,0.1,0.7,0c1-0.5,2.1-0.8,3.2-0.8c3.9,0,7,3.1,7,7s-3.1,7-7,7H9.1C4.9,27.3,1.4,23.8,1.4,19.6L1.4,19.6z"/>
			<path id="Path_88_" class="st0" d="M19.1,3.8c-0.6-0.2-1.3-0.3-2-0.3v1.4c0.5,0,1,0.1,1.5,0.3L19.1,3.8z"/>
			<path id="Path_87_" class="st0" d="M15.6,5.2l-0.5-1.3c-2.4,0.8-4,3.1-4,5.6h1.4C12.6,7.5,13.8,5.8,15.6,5.2z"/>
			<path id="Shape_29_" class="st0" d="M24,16.7l-1.2-0.5c-0.1-0.2-0.2-0.5-0.3-0.7l0.5-1.2c0.1-0.2,0.1-0.5-0.1-0.7
				c-0.4-0.5-0.9-1-1.4-1.4C21.3,12,21,11.9,20.8,12l-1.2,0.5c-0.2-0.1-0.5-0.2-0.7-0.3L18.3,11c-0.1-0.2-0.3-0.4-0.6-0.4
				c-0.7-0.1-1.2-0.1-2,0c-0.2,0-0.5,0.2-0.6,0.4l-0.5,1.2c-0.2,0.1-0.5,0.2-0.7,0.3L12.8,12c-0.2-0.1-0.5-0.1-0.7,0.1
				c-0.5,0.4-1,0.9-1.4,1.4c-0.2,0.2-0.2,0.5-0.1,0.7l0.5,1.2c-0.1,0.2-0.2,0.5-0.3,0.7l-1.2,0.5c-0.2,0.1-0.4,0.3-0.4,0.6
				c0,0.4-0.1,0.7-0.1,1c0,0.3,0,0.6,0.1,1c0,0.2,0.2,0.5,0.4,0.6l1.2,0.5c0.1,0.2,0.2,0.5,0.3,0.7l-0.5,1.2
				c-0.1,0.2-0.1,0.5,0.1,0.7c0.4,0.5,0.9,1,1.4,1.4c0.2,0.2,0.5,0.2,0.7,0.1l1.2-0.5c0.2,0.1,0.5,0.2,0.7,0.3l0.5,1.2
				c0.1,0.2,0.3,0.4,0.6,0.4c0.4,0,0.7,0.1,1,0.1c0.3,0,0.6,0,1-0.1c0.2,0,0.5-0.2,0.6-0.4l0.5-1.2c0.2-0.1,0.5-0.2,0.7-0.3l1.2,0.5
				c0.2,0.1,0.5,0.1,0.7-0.1c0.5-0.4,1-0.9,1.4-1.4c0.2-0.2,0.2-0.5,0.1-0.7L22.5,21c0.1-0.2,0.2-0.5,0.3-0.7l1.2-0.5
				c0.2-0.1,0.4-0.3,0.4-0.6c0-0.4,0.1-0.7,0.1-1c0-0.3,0-0.6-0.1-1C24.4,17,24.2,16.8,24,16.7L24,16.7z M23.1,18.6l-1.2,0.5
				c-0.2,0.1-0.3,0.2-0.4,0.5c-0.1,0.4-0.3,0.7-0.4,1.1C21,20.8,21,21,21,21.2l0.5,1.2c-0.2,0.2-0.4,0.4-0.6,0.6l-1.2-0.5
				c-0.2-0.1-0.4-0.1-0.6,0c-0.3,0.2-0.7,0.3-1.1,0.4c-0.2,0.1-0.4,0.2-0.5,0.4l-0.5,1.2c-0.3,0-0.5,0-0.8,0l-0.5-1.2
				c-0.1-0.2-0.2-0.3-0.5-0.4c-0.4-0.1-0.7-0.3-1.1-0.4c-0.2-0.1-0.4-0.1-0.6,0l-1.2,0.5c-0.2-0.2-0.4-0.4-0.6-0.6l0.5-1.2
				c0.1-0.2,0.1-0.4,0-0.6c-0.2-0.3-0.3-0.7-0.4-1.1c-0.1-0.2-0.2-0.4-0.4-0.5l-1.2-0.5c0-0.1,0-0.3,0-0.4c0-0.1,0-0.3,0-0.4
				l1.2-0.5c0.2-0.1,0.3-0.2,0.4-0.5c0.1-0.4,0.3-0.7,0.4-1.1c0.1-0.2,0.1-0.4,0-0.6L12.1,14c0.2-0.2,0.4-0.4,0.6-0.6l1.2,0.5
				c0.2,0.1,0.4,0.1,0.6,0c0.3-0.2,0.7-0.3,1.1-0.4c0.2-0.1,0.4-0.2,0.5-0.4l0.5-1.2c0.3,0,0.5,0,0.8,0l0.5,1.2
				c0.1,0.2,0.2,0.3,0.5,0.4c0.4,0.1,0.7,0.3,1.1,0.4c0.2,0.1,0.4,0.1,0.6,0l1.2-0.5c0.2,0.2,0.4,0.4,0.6,0.6L21,15.2
				c-0.1,0.2-0.1,0.4,0,0.6c0.2,0.3,0.3,0.7,0.4,1.1c0.1,0.2,0.2,0.4,0.4,0.5l1.2,0.5c0,0.1,0,0.3,0,0.4
				C23.1,18.3,23.1,18.5,23.1,18.6L23.1,18.6z"/>
			<path id="Shape_28_" class="st0" d="M32.7,24l0.7,0.4l0.7-1.2l-0.7-0.4c0-0.1,0.1-0.3,0.1-0.4h0.8V21h-0.8c0-0.1-0.1-0.3-0.1-0.4
				l0.7-0.4L33.4,19l-0.7,0.4c-0.1-0.1-0.2-0.2-0.3-0.3l0.4-0.7l-1.2-0.7l-0.4,0.7c-0.1,0-0.3-0.1-0.4-0.1v-0.8h-1.4v0.8
				c-0.1,0-0.3,0.1-0.4,0.1l-0.4-0.7l-1.2,0.7l0.4,0.7c-0.1,0.1-0.2,0.2-0.3,0.3L26.8,19l-0.7,1.2l0.7,0.4c0,0.1-0.1,0.3-0.1,0.4
				h-0.8v1.4h0.8c0,0.1,0.1,0.3,0.1,0.4l-0.7,0.4l0.7,1.2l0.7-0.4c0.1,0.1,0.2,0.2,0.3,0.3L27.4,25l1.2,0.7L29,25
				c0.1,0,0.3,0.1,0.4,0.1v0.8h1.4v-0.8c0.1,0,0.3-0.1,0.4-0.1l0.4,0.7l1.2-0.7l-0.4-0.7C32.5,24.2,32.6,24.1,32.7,24z M30.1,23.8
				c-1.2,0-2.1-0.9-2.1-2.1c0-1.2,0.9-2.1,2.1-2.1c1.2,0,2.1,0.9,2.1,2.1C32.2,22.9,31.3,23.8,30.1,23.8z"/>
			<path id="Shape_27_" class="st0" d="M16.8,14.7c-1.9,0-3.5,1.6-3.5,3.5s1.6,3.5,3.5,3.5s3.5-1.6,3.5-3.5S18.7,14.7,16.8,14.7z
				 M16.8,20.3c-1.2,0-2.1-0.9-2.1-2.1c0-1.2,0.9-2.1,2.1-2.1c1.2,0,2.1,0.9,2.1,2.1C18.9,19.4,18,20.3,16.8,20.3z"/>
			<polygon id="Path_86_" class="st0" points="7.7,32.2 9.8,32.2 9.8,33.6 7.7,33.6 			"/>
			<path id="Path_85_" class="st0" d="M18.9,35.7v-4.2h-1.4V35h-2.8v1.4h3.5C18.6,36.4,18.9,36.1,18.9,35.7z"/>
			<polygon id="Path_84_" class="st0" points="11.2,35 13.3,35 13.3,36.4 11.2,36.4 			"/>
			<polygon id="Path_83_" class="st0" points="7.7,35 9.8,35 9.8,36.4 7.7,36.4 			"/>
			<polygon id="Path_82_" class="st0" points="11.9,37.8 17.5,37.8 17.5,39.2 11.9,39.2 			"/>
			<polygon id="Path_81_" class="st0" points="9.1,40.6 10.5,40.6 10.5,42 9.1,42 			"/>
			<polygon id="Path_80_" class="st0" points="11.9,40.6 13.3,40.6 13.3,42 11.9,42 			"/>
			<polygon id="Path_79_" class="st0" points="14.7,40.6 16.1,40.6 16.1,42 14.7,42 			"/>
			<path id="Path_78_" class="st0" d="M23.1,40.6h-5.6V42h6.3c0.4,0,0.7-0.3,0.7-0.7v-3.5h-1.4V40.6z"/>
			<polygon id="Path_77_" class="st0" points="23.1,32.9 24.5,32.9 24.5,36.4 23.1,36.4 			"/>
			<path id="Shape_26_" class="st0" d="M4.1,33.6h2.2v-1.4H4.1c-0.3-0.8-1.1-1.4-2-1.4c-1.2,0-2.1,0.9-2.1,2.1C0,34.1,0.9,35,2.1,35
				C3,35,3.8,34.4,4.1,33.6z M1.4,32.9c0-0.4,0.3-0.7,0.7-0.7s0.7,0.3,0.7,0.7s-0.3,0.7-0.7,0.7S1.4,33.3,1.4,32.9z"/>
			<polygon id="Path_76_" class="st0" points="31.5,35 33.6,35 33.6,36.4 31.5,36.4 			"/>
			<polygon id="Path_75_" class="st0" points="35,35 37.1,35 37.1,36.4 35,36.4 			"/>
			<path id="Shape_25_" class="st0" d="M39.9,30.8c-0.9,0-1.7,0.6-2,1.4H35v1.4h2.9c0.3,0.8,1.1,1.4,2,1.4c1.2,0,2.1-0.9,2.1-2.1
				C42,31.7,41.1,30.8,39.9,30.8z M39.9,33.6c-0.4,0-0.7-0.3-0.7-0.7s0.3-0.7,0.7-0.7s0.7,0.3,0.7,0.7S40.3,33.6,39.9,33.6z"/>
			<path id="Shape_24_" class="st0" d="M4.2,36.4c-1.2,0-2.1,0.9-2.1,2.1s0.9,2.1,2.1,2.1c0.9,0,1.7-0.6,2-1.4h4.3v-1.4H6.2
				C5.9,37,5.1,36.4,4.2,36.4z M4.2,39.2c-0.4,0-0.7-0.3-0.7-0.7s0.3-0.7,0.7-0.7c0.4,0,0.7,0.3,0.7,0.7S4.6,39.2,4.2,39.2z"/>
		</g>
	</g>
</g>
</svg>
