<?xml version="1.0" encoding="utf-8"?>
<!-- Generator: Adobe Illustrator 24.2.0, SVG Export Plug-In . SVG Version: 6.00 Build 0)  -->
<svg version="1.1" id="Layer_1" xmlns="http://www.w3.org/2000/svg" xmlns:xlink="http://www.w3.org/1999/xlink" x="0px" y="0px"
	 viewBox="0 0 48 41" style="enable-background:new 0 0 48 41;" xml:space="preserve">
<style type="text/css">
	.st0{fill:#FC6A55;}
	.st1{fill:#EDEDED;}
	.st2{fill:none;stroke:#FC6A55;stroke-miterlimit:10;}
	.st3{fill:#222F3F;}
	.st4{fill:#383838;}
	.st5{fill:#FFFFFF;}
	.st6{fill:#B0B0B0;}
	.st7{fill:#656D7A;}
	.st8{fill:#C4C4C4;}
	.st9{filter:url(#Adobe_OpacityMaskFilter);}
	.st10{fill-rule:evenodd;clip-rule:evenodd;fill:#FFFFFF;}
	.st11{mask:url(#mask-2_8_);fill-rule:evenodd;clip-rule:evenodd;fill:#B0B0B0;}
	.st12{filter:url(#Adobe_OpacityMaskFilter_1_);}
	.st13{mask:url(#mask-2_7_);fill-rule:evenodd;clip-rule:evenodd;fill:#B0B0B0;}
	.st14{filter:url(#Adobe_OpacityMaskFilter_2_);}
	.st15{mask:url(#mask-2_6_);fill-rule:evenodd;clip-rule:evenodd;fill:#B0B0B0;}
	.st16{filter:url(#Adobe_OpacityMaskFilter_3_);}
	.st17{mask:url(#mask-2_5_);fill-rule:evenodd;clip-rule:evenodd;fill:#B0B0B0;}
	.st18{filter:url(#Adobe_OpacityMaskFilter_4_);}
	.st19{mask:url(#mask-2_2_);fill:none;stroke:#B0B0B0;stroke-width:1.5;stroke-miterlimit:10;}
	.st20{filter:url(#Adobe_OpacityMaskFilter_5_);}
	.st21{mask:url(#mask-2_10_);fill-rule:evenodd;clip-rule:evenodd;fill:#FC6A55;}
	.st22{filter:url(#Adobe_OpacityMaskFilter_6_);}
	.st23{mask:url(#mask-2_9_);fill-rule:evenodd;clip-rule:evenodd;fill:#FC6A55;}
	.st24{filter:url(#Adobe_OpacityMaskFilter_7_);}
	.st25{mask:url(#mask-2_4_);fill-rule:evenodd;clip-rule:evenodd;fill:#FC6A55;}
	.st26{filter:url(#Adobe_OpacityMaskFilter_8_);}
	.st27{mask:url(#mask-2_3_);fill-rule:evenodd;clip-rule:evenodd;fill:#FC6A55;}
	.st28{filter:url(#Adobe_OpacityMaskFilter_9_);}
	.st29{mask:url(#mask-2_1_);fill:none;stroke:#FC6A55;stroke-width:1.5;stroke-miterlimit:10;}
	.st30{fill:#B4A3EE;}
	.st31{fill:#222121;}
	.st32{fill:#434343;}
	.st33{fill:#434343;stroke:#F9F9F9;stroke-width:0.25;stroke-miterlimit:10;}
	.st34{fill:none;stroke:#FC6A55;stroke-width:0.75;stroke-miterlimit:10;}
	.st35{fill:#FC6A55;stroke:#FC6A55;stroke-width:0.25;stroke-miterlimit:10;}
	.st36{fill:#FC6A55;stroke:#FC6A55;stroke-width:0.5;stroke-miterlimit:10;}
	.st37{opacity:0.5;fill:#FC6A55;}
	.st38{fill:#F5F4F9;}
	.st39{opacity:0.153;fill:url(#Path_144_);enable-background:new    ;}
	.st40{opacity:0.1;fill:#590BB2;enable-background:new    ;}
	.st41{fill:#8E8CA8;}
	.st42{fill:#FFD5B8;}
	.st43{fill:#FC8473;}
	.st44{fill:#1C3475;}
	.st45{fill:#DDD9E4;}
	.st46{fill:#828FB3;}
	.st47{opacity:7.584635e-02;fill:url(#Path_145_);enable-background:new    ;}
	.st48{fill:#FFBE92;}
	.st49{fill:#FB8E7F;}
	.st50{fill:#FDB1A6;}
	.st51{fill:#FC806F;}
	.st52{fill:#FFE783;}
	.st53{fill:#104478;}
	.st54{fill:none;stroke:#FFFFFF;stroke-miterlimit:10;}
	.st55{fill:none;stroke:#000000;stroke-width:0.15;stroke-miterlimit:10;}
	.st56{opacity:0.3;fill:#FC6A55;}
	.st57{opacity:0.4;fill:#FC6A55;}
	.st58{opacity:0.1;fill:url(#Path_147_);enable-background:new    ;}
	.st59{opacity:0.1;fill:url(#Path_150_);enable-background:new    ;}
	.st60{fill-rule:evenodd;clip-rule:evenodd;fill:#FC6A55;}
	.st61{fill-rule:evenodd;clip-rule:evenodd;}
	.st62{fill:#FF6757;}
	.st63{fill:#6C973D;}
	.st64{fill:none;stroke:#FFFFFF;stroke-width:0.5;stroke-miterlimit:10;}
	.st65{fill:#606060;}
	.st66{fill:#F16A56;}
	.st67{fill:#515252;}
	.st68{fill:#656565;}
	.st69{fill:#F26A56;}
	.st70{fill:none;stroke:#F16A56;stroke-miterlimit:10;}
	.st71{fill:none;stroke:#929292;stroke-miterlimit:10;}
	.st72{fill:#929292;}
	.st73{fill:none;stroke:#000000;stroke-width:0.5;stroke-miterlimit:10;}
	.st74{fill:#A8A7A7;}
	.st75{fill:#F79F91;}
	.st76{fill:#9BDBD5;}
	.st77{stroke:#000000;stroke-width:0.25;stroke-miterlimit:10;}
</style>
<g>
	<path class="st0" d="M39.1,24.1l-0.2,0.1c-0.8-1-2.2-1.4-3.3-0.8c0,0,0,0,0,0l-0.5,0.3c-1.2-1-2.8-1.1-4.1-0.4l-2.5,1.4h-3.4
		c-0.7,0-1.5-0.2-2.1-0.5l-0.5-0.2c-2.7-1.3-5.9-1-8.3,0.8c0,0,0,0,0,0l-1.1,1c-0.4,0.4-0.9,0.7-1.5,0.8l-0.6-2.1
		c-0.1-0.2-0.3-0.4-0.5-0.4H5c-0.3,0-0.5,0.2-0.5,0.5c0,0,0,0,0,0.1l1.8,14.9c0,0.3,0.2,0.4,0.5,0.4H15c0.3,0,0.5-0.2,0.5-0.5
		c0-0.1,0-0.1,0-0.1l-1.1-3.5l3.3-2.1c0.4-0.2,1-0.3,1.5-0.2c0,0,0,0,0,0l6.8,1.3c1.8,0.3,3.8,0.1,5.4-0.8c0,0,0,0,0.1,0l11.8-8.1
		c0.2-0.2,0.3-0.4,0.1-0.7C42.5,23.8,40.6,23.2,39.1,24.1z M36.1,24.2c0.6-0.3,1.4-0.1,1.9,0.4l-4.5,2.4l-0.3,0.1
		c-0.1-0.4-0.3-0.8-0.6-1.1L36.1,24.2z M31.5,24.1C31.5,24.1,31.5,24.1,31.5,24.1c0.8-0.5,1.8-0.5,2.6,0l-2.3,1.2
		c-0.4-0.3-0.9-0.5-1.4-0.7L31.5,24.1z M7.3,39L5.6,25.1h4.5L14.3,39H7.3z M31,33.1c-1.5,0.7-3.1,1-4.8,0.7l-6.8-1.2
		c-0.7-0.2-1.5-0.1-2.2,0.3c0,0,0,0,0,0l-3.1,2l-2.2-7.3c0.7-0.2,1.3-0.6,1.9-1l1.1-1c2.1-1.6,4.9-1.8,7.3-0.7l0.5,0.2
		c0.8,0.4,1.7,0.6,2.6,0.6h4.5c1.4,0,2.5,1,2.8,2.3l-3.3-0.1c-1.2-0.1-2.4,0-3.6,0.2c-0.3,0-0.5,0.3-0.4,0.6c0,0.3,0.3,0.5,0.6,0.4
		c1.1-0.2,2.3-0.2,3.4-0.2L33,29c0,0,0,0,0,0c0.3,0,0.5-0.2,0.5-0.5c0-0.1,0-0.2,0-0.2L34,28l5.6-3c0.9-0.5,2-0.3,2.7,0.4L31,33.1z"
		/>
	<path class="st0" d="M8.9,36.9c0,0.9,0.7,1.6,1.6,1.6c0.9,0,1.6-0.7,1.6-1.6c0-0.9-0.7-1.6-1.6-1.6C9.6,35.3,8.9,36,8.9,36.9z
		 M10.5,36.3c0.3,0,0.6,0.3,0.6,0.6c0,0.3-0.3,0.6-0.6,0.6c-0.3,0-0.6-0.3-0.6-0.6C9.9,36.6,10.2,36.3,10.5,36.3L10.5,36.3z"/>
	<path class="st0" d="M27.9,6.5V4.8C27.8,2.7,26.1,1,24,1c-2.1,0-3.8,1.7-3.8,3.8v1.7c0,2.1,1.7,3.8,3.9,3.8
		C26.1,10.3,27.8,8.6,27.9,6.5z M21.2,6.5V4.8C21.2,3.3,22.5,2,24,2c1.6,0,2.8,1.3,2.8,2.8v1.7c0,1.6-1.3,2.8-2.8,2.8
		C22.4,9.3,21.2,8.1,21.2,6.5z"/>
	<path class="st0" d="M17.8,20.8h12.4c0.3,0,0.5-0.2,0.5-0.5l0,0v-1.2h8.5c0.3,0,0.5-0.2,0.5-0.5v-3.3c0-2-1.6-3.7-3.6-3.8
		c-0.3,0-0.4,0.2-0.5,0.3c-0.8,1-2.3,1.1-3.3,0.3c-0.1-0.1-0.3-0.3-0.4-0.4c-0.1-0.1-0.3-0.2-0.4-0.2c-0.7,0-1.3,0.2-1.9,0.5
		c-0.8-0.9-1.8-1.4-3-1.5c-0.3,0-0.4,0.1-0.5,0.3c-1,1.2-2.7,1.3-3.8,0.4c-0.2-0.1-0.3-0.3-0.5-0.5c-0.1-0.1-0.3-0.2-0.4-0.2
		c-1.1,0-2.2,0.5-2.9,1.3c-0.1,0.1-0.1,0.1-0.2,0.2c-0.5-0.3-1.1-0.5-1.7-0.5c-0.3,0-0.4,0.2-0.5,0.3c-0.8,1-2.3,1.1-3.3,0.3
		c-0.1-0.1-0.3-0.3-0.4-0.4c-0.1-0.1-0.3-0.2-0.4-0.2c-2.1,0.1-3.7,1.7-3.7,3.8v3.3c0,0.3,0.2,0.5,0.5,0.5h8.5v1.2
		C17.3,20.6,17.5,20.8,17.8,20.8z M31.3,12.5c1.2,1.4,3.3,1.5,4.7,0.3c0.1-0.1,0.2-0.2,0.3-0.3c1.4,0.2,2.4,1.4,2.4,2.8v2.8h-8v-3.3
		c0-0.7-0.2-1.3-0.5-1.9C30.6,12.7,30.9,12.6,31.3,12.5L31.3,12.5z M21.2,11.6c1.4,1.6,3.7,1.7,5.3,0.4c0.1-0.1,0.3-0.2,0.4-0.4
		c1.6,0.2,2.8,1.6,2.8,3.2v4.9H18.3v-4.9C18.3,13.2,19.6,11.8,21.2,11.6z M9.3,18.1v-2.8c0-1.4,1.1-2.6,2.5-2.8
		c1.2,1.4,3.3,1.5,4.7,0.3c0.1-0.1,0.2-0.2,0.3-0.3c0.3,0.1,0.7,0.2,1,0.3c-0.3,0.6-0.5,1.3-0.5,1.9v3.3H9.3z"/>
	<path class="st0" d="M37.2,8V6.5c0-1.9-1.5-3.4-3.4-3.4c-1.9,0-3.4,1.5-3.4,3.4V8c0,1.9,1.5,3.4,3.4,3.4C35.7,11.4,37.2,9.9,37.2,8
		z M31.4,8V6.5c0-1.3,1.1-2.4,2.4-2.4c1.3,0,2.4,1.1,2.4,2.4c0,0,0,0,0,0V8c0,1.3-1.1,2.4-2.4,2.4C32.4,10.4,31.4,9.3,31.4,8
		C31.4,8,31.4,8,31.4,8z"/>
	<path class="st0" d="M17.7,8V6.5c0-1.9-1.5-3.4-3.4-3.4s-3.4,1.5-3.4,3.4V8c0,1.9,1.5,3.4,3.4,3.4S17.7,9.9,17.7,8z M11.8,8V6.5
		c0-1.3,1.1-2.4,2.4-2.4c1.3,0,2.4,1.1,2.4,2.4c0,0,0,0,0,0V8c0,1.3-1.1,2.4-2.4,2.4S11.8,9.3,11.8,8C11.8,8,11.8,8,11.8,8z"/>
</g>
</svg>
