<?xml version="1.0" encoding="utf-8"?>
<!-- Generator: Adobe Illustrator 24.2.0, SVG Export Plug-In . SVG Version: 6.00 Build 0)  -->
<svg version="1.1" id="Layer_1" xmlns="http://www.w3.org/2000/svg" xmlns:xlink="http://www.w3.org/1999/xlink" x="0px" y="0px"
	 viewBox="0 0 48 41" style="enable-background:new 0 0 48 41;" xml:space="preserve">
<style type="text/css">
	.st0{fill:#FC6A55;}
	.st1{fill:#EDEDED;}
	.st2{fill:none;stroke:#FC6A55;stroke-miterlimit:10;}
	.st3{fill:#222F3F;}
	.st4{fill:#383838;}
	.st5{fill:#FFFFFF;}
	.st6{fill:#B0B0B0;}
	.st7{fill:#656D7A;}
	.st8{fill:#C4C4C4;}
	.st9{filter:url(#Adobe_OpacityMaskFilter);}
	.st10{fill-rule:evenodd;clip-rule:evenodd;fill:#FFFFFF;}
	.st11{mask:url(#mask-2_8_);fill-rule:evenodd;clip-rule:evenodd;fill:#B0B0B0;}
	.st12{filter:url(#Adobe_OpacityMaskFilter_1_);}
	.st13{mask:url(#mask-2_7_);fill-rule:evenodd;clip-rule:evenodd;fill:#B0B0B0;}
	.st14{filter:url(#Adobe_OpacityMaskFilter_2_);}
	.st15{mask:url(#mask-2_6_);fill-rule:evenodd;clip-rule:evenodd;fill:#B0B0B0;}
	.st16{filter:url(#Adobe_OpacityMaskFilter_3_);}
	.st17{mask:url(#mask-2_5_);fill-rule:evenodd;clip-rule:evenodd;fill:#B0B0B0;}
	.st18{filter:url(#Adobe_OpacityMaskFilter_4_);}
	.st19{mask:url(#mask-2_2_);fill:none;stroke:#B0B0B0;stroke-width:1.5;stroke-miterlimit:10;}
	.st20{filter:url(#Adobe_OpacityMaskFilter_5_);}
	.st21{mask:url(#mask-2_10_);fill-rule:evenodd;clip-rule:evenodd;fill:#FC6A55;}
	.st22{filter:url(#Adobe_OpacityMaskFilter_6_);}
	.st23{mask:url(#mask-2_9_);fill-rule:evenodd;clip-rule:evenodd;fill:#FC6A55;}
	.st24{filter:url(#Adobe_OpacityMaskFilter_7_);}
	.st25{mask:url(#mask-2_4_);fill-rule:evenodd;clip-rule:evenodd;fill:#FC6A55;}
	.st26{filter:url(#Adobe_OpacityMaskFilter_8_);}
	.st27{mask:url(#mask-2_3_);fill-rule:evenodd;clip-rule:evenodd;fill:#FC6A55;}
	.st28{filter:url(#Adobe_OpacityMaskFilter_9_);}
	.st29{mask:url(#mask-2_1_);fill:none;stroke:#FC6A55;stroke-width:1.5;stroke-miterlimit:10;}
	.st30{fill:#B4A3EE;}
	.st31{fill:#222121;}
	.st32{fill:#434343;}
	.st33{fill:#434343;stroke:#F9F9F9;stroke-width:0.25;stroke-miterlimit:10;}
	.st34{fill:none;stroke:#FC6A55;stroke-width:0.75;stroke-miterlimit:10;}
	.st35{fill:#FC6A55;stroke:#FC6A55;stroke-width:0.25;stroke-miterlimit:10;}
	.st36{fill:#FC6A55;stroke:#FC6A55;stroke-width:0.5;stroke-miterlimit:10;}
	.st37{opacity:0.5;fill:#FC6A55;}
	.st38{fill:#F5F4F9;}
	.st39{opacity:0.153;fill:url(#Path_144_);enable-background:new    ;}
	.st40{opacity:0.1;fill:#590BB2;enable-background:new    ;}
	.st41{fill:#8E8CA8;}
	.st42{fill:#FFD5B8;}
	.st43{fill:#FC8473;}
	.st44{fill:#1C3475;}
	.st45{fill:#DDD9E4;}
	.st46{fill:#828FB3;}
	.st47{opacity:7.584635e-02;fill:url(#Path_145_);enable-background:new    ;}
	.st48{fill:#FFBE92;}
	.st49{fill:#FB8E7F;}
	.st50{fill:#FDB1A6;}
	.st51{fill:#FC806F;}
	.st52{fill:#FFE783;}
	.st53{fill:#104478;}
	.st54{fill:none;stroke:#FFFFFF;stroke-miterlimit:10;}
	.st55{fill:none;stroke:#000000;stroke-width:0.15;stroke-miterlimit:10;}
	.st56{opacity:0.3;fill:#FC6A55;}
	.st57{opacity:0.4;fill:#FC6A55;}
	.st58{opacity:0.1;fill:url(#Path_147_);enable-background:new    ;}
	.st59{opacity:0.1;fill:url(#Path_150_);enable-background:new    ;}
	.st60{fill-rule:evenodd;clip-rule:evenodd;fill:#FC6A55;}
	.st61{fill-rule:evenodd;clip-rule:evenodd;}
	.st62{fill:#FF6757;}
	.st63{fill:#6C973D;}
	.st64{fill:none;stroke:#FFFFFF;stroke-width:0.5;stroke-miterlimit:10;}
	.st65{fill:#606060;}
	.st66{fill:#F16A56;}
	.st67{fill:#515252;}
	.st68{fill:#656565;}
	.st69{fill:#F26A56;}
	.st70{fill:none;stroke:#F16A56;stroke-miterlimit:10;}
	.st71{fill:none;stroke:#929292;stroke-miterlimit:10;}
	.st72{fill:#929292;}
	.st73{fill:none;stroke:#000000;stroke-width:0.5;stroke-miterlimit:10;}
	.st74{fill:#A8A7A7;}
	.st75{fill:#F79F91;}
	.st76{fill:#9BDBD5;}
	.st77{stroke:#000000;stroke-width:0.25;stroke-miterlimit:10;}
</style>
<g id="final-design_24_">
	<g id="invensis.net-2.0-index-page_10_" transform="translate(-1202.000000, -2405.000000)">
		<g id="Group-2-Copy-3_1_" transform="translate(1202.000000, 2405.000000)">
			<defs>
				<filter id="Adobe_OpacityMaskFilter" filterUnits="userSpaceOnUse" x="5.9" y="0.7" width="39.2" height="39">
					<feColorMatrix  type="matrix" values="1 0 0 0 0  0 1 0 0 0  0 0 1 0 0  0 0 0 1 0"/>
				</filter>
			</defs>
			<mask maskUnits="userSpaceOnUse" x="5.9" y="0.7" width="39.2" height="39" id="mask-2_10_">
				<g class="st9">
					<polygon id="path-1_10_" class="st10" points="5.9,0.7 45.1,0.7 45.1,39.7 5.9,39.7 					"/>
				</g>
			</mask>
			<path id="Fill-1_3_" class="st21" d="M43.1,37.7c-0.6,0.6-1.5,0.6-2,0l-7.1-7l2-2l7.1,7.1C43.7,36.3,43.7,37.2,43.1,37.7
				L43.1,37.7z M31.5,28.2l2-2l1.4,1.4l-2,2L31.5,28.2z M44.2,34.7l-7.1-7.1c0.2-0.3,0.2-0.7-0.1-1c-0.3-0.3-0.7-0.3-1-0.1l-1.9-1.9
				c1.4-2.1,2.3-4.5,2.6-7c0.4-3.5-0.5-7-2.4-9.9c-0.2-0.4-0.7-0.5-1.1-0.2c-0.4,0.2-0.5,0.7-0.2,1.1c3.5,5.4,2.7,12.7-1.9,17.3
				c-5.4,5.4-14.3,5.4-19.7,0C6,20.5,6,11.7,11.5,6.3c4.6-4.6,11.7-5.4,17.2-2C29,4.5,29.5,4.4,29.7,4c0.2-0.4,0.1-0.8-0.2-1
				c-2.9-1.8-6.4-2.6-9.8-2.2c-3.5,0.4-6.8,1.9-9.3,4.4c-6,6-6,15.8,0,21.8c3,3,7,4.5,10.9,4.5c3,0,6-0.9,8.6-2.6l1.9,1.9
				c-0.3,0.3-0.3,0.8,0,1.1c0.1,0.1,0.3,0.2,0.5,0.2c0.2,0,0.4-0.1,0.5-0.2l7.1,7.1c0.6,0.6,1.3,0.9,2.1,0.9c0.8,0,1.5-0.3,2.1-0.9
				C45.3,37.7,45.3,35.8,44.2,34.7L44.2,34.7z"/>
			<defs>
				<filter id="Adobe_OpacityMaskFilter_1_" filterUnits="userSpaceOnUse" x="31" y="5" width="1.5" height="1.5">
					<feColorMatrix  type="matrix" values="1 0 0 0 0  0 1 0 0 0  0 0 1 0 0  0 0 0 1 0"/>
				</filter>
			</defs>
			<mask maskUnits="userSpaceOnUse" x="31" y="5" width="1.5" height="1.5" id="mask-2_9_">
				<g class="st12">
					<polygon id="path-1_9_" class="st10" points="5.9,0.7 45.1,0.7 45.1,39.7 5.9,39.7 					"/>
				</g>
			</mask>
			<path id="Fill-4_1_" class="st23" d="M32.3,5.2L32.3,5.2c-0.3-0.3-0.8-0.3-1.1,0c-0.3,0.3-0.3,0.8,0,1.1l0,0
				c0.1,0.1,0.3,0.2,0.5,0.2c0.2,0,0.4-0.1,0.5-0.2C32.6,6,32.6,5.5,32.3,5.2"/>
			<defs>
				<filter id="Adobe_OpacityMaskFilter_2_" filterUnits="userSpaceOnUse" x="9.5" y="4.3" width="23.6" height="23.5">
					<feColorMatrix  type="matrix" values="1 0 0 0 0  0 1 0 0 0  0 0 1 0 0  0 0 0 1 0"/>
				</filter>
			</defs>
			<mask maskUnits="userSpaceOnUse" x="9.5" y="4.3" width="23.6" height="23.5" id="mask-2_4_">
				<g class="st14">
					<polygon id="path-1_4_" class="st10" points="5.9,0.7 45.1,0.7 45.1,39.7 5.9,39.7 					"/>
				</g>
			</mask>
			<path id="Fill-6_1_" class="st25" d="M21.3,26.3c-5.7,0-10.3-4.6-10.3-10.2S15.7,5.9,21.3,5.9s10.3,4.6,10.3,10.2
				S27,26.3,21.3,26.3 M21.3,4.3c-6.5,0-11.8,5.3-11.8,11.7s5.3,11.7,11.8,11.7s11.8-5.3,11.8-11.7S27.8,4.3,21.3,4.3"/>
			<defs>
				<filter id="Adobe_OpacityMaskFilter_3_" filterUnits="userSpaceOnUse" x="14.1" y="8.2" width="14.4" height="13.2">
					<feColorMatrix  type="matrix" values="1 0 0 0 0  0 1 0 0 0  0 0 1 0 0  0 0 0 1 0"/>
				</filter>
			</defs>
			<mask maskUnits="userSpaceOnUse" x="14.1" y="8.2" width="14.4" height="13.2" id="mask-2_3_">
				<g class="st16">
					<polygon id="path-1_3_" class="st10" points="5.9,0.7 45.1,0.7 45.1,39.7 5.9,39.7 					"/>
				</g>
			</mask>
			<path id="Fill-8_1_" class="st27" d="M15.7,19.8c0.2-1.9,1.8-3.3,3.7-3.3h3.9c1.9,0,3.5,1.5,3.7,3.3H15.7z M19.2,11.8
				c0-1.2,1-2.1,2.1-2.1c1.2,0,2.1,1,2.1,2.1v1c0,1.2-1,2.1-2.1,2.1c-1.2,0-2.1-1-2.1-2.1V11.8z M25,12.8v-1c0-2-1.6-3.7-3.7-3.7
				s-3.7,1.6-3.7,3.7v1c0,0.8,0.3,1.6,0.8,2.2c-2.4,0.5-4.3,2.6-4.3,5.1v0.4c0,0.4,0.3,0.8,0.8,0.8h12.9c0.4,0,0.8-0.3,0.8-0.8v-0.4
				c0-2.6-1.8-4.7-4.3-5.1C24.7,14.4,25,13.7,25,12.8z"/>
		</g>
	</g>
</g>
</svg>
