<?xml version="1.0" encoding="utf-8"?>
<!-- Generator: Adobe Illustrator 24.2.0, SVG Export Plug-In . SVG Version: 6.00 Build 0)  -->
<svg version="1.1" id="Layer_1" xmlns="http://www.w3.org/2000/svg" xmlns:xlink="http://www.w3.org/1999/xlink" x="0px" y="0px"
	 viewBox="0 0 48 41" style="enable-background:new 0 0 48 41;" xml:space="preserve">
<style type="text/css">
	.st0{fill:#FC6A55;}
	.st1{fill:#EDEDED;}
	.st2{fill:none;stroke:#FC6A55;stroke-miterlimit:10;}
	.st3{fill:#222F3F;}
	.st4{fill:#383838;}
	.st5{fill:#FFFFFF;}
	.st6{fill:#B0B0B0;}
	.st7{fill:#656D7A;}
	.st8{fill:#C4C4C4;}
	.st9{filter:url(#Adobe_OpacityMaskFilter);}
	.st10{fill-rule:evenodd;clip-rule:evenodd;fill:#FFFFFF;}
	.st11{mask:url(#mask-2_8_);fill-rule:evenodd;clip-rule:evenodd;fill:#B0B0B0;}
	.st12{filter:url(#Adobe_OpacityMaskFilter_1_);}
	.st13{mask:url(#mask-2_7_);fill-rule:evenodd;clip-rule:evenodd;fill:#B0B0B0;}
	.st14{filter:url(#Adobe_OpacityMaskFilter_2_);}
	.st15{mask:url(#mask-2_6_);fill-rule:evenodd;clip-rule:evenodd;fill:#B0B0B0;}
	.st16{filter:url(#Adobe_OpacityMaskFilter_3_);}
	.st17{mask:url(#mask-2_5_);fill-rule:evenodd;clip-rule:evenodd;fill:#B0B0B0;}
	.st18{filter:url(#Adobe_OpacityMaskFilter_4_);}
	.st19{mask:url(#mask-2_2_);fill:none;stroke:#B0B0B0;stroke-width:1.5;stroke-miterlimit:10;}
	.st20{filter:url(#Adobe_OpacityMaskFilter_5_);}
	.st21{mask:url(#mask-2_10_);fill-rule:evenodd;clip-rule:evenodd;fill:#FC6A55;}
	.st22{filter:url(#Adobe_OpacityMaskFilter_6_);}
	.st23{mask:url(#mask-2_9_);fill-rule:evenodd;clip-rule:evenodd;fill:#FC6A55;}
	.st24{filter:url(#Adobe_OpacityMaskFilter_7_);}
	.st25{mask:url(#mask-2_4_);fill-rule:evenodd;clip-rule:evenodd;fill:#FC6A55;}
	.st26{filter:url(#Adobe_OpacityMaskFilter_8_);}
	.st27{mask:url(#mask-2_3_);fill-rule:evenodd;clip-rule:evenodd;fill:#FC6A55;}
	.st28{filter:url(#Adobe_OpacityMaskFilter_9_);}
	.st29{mask:url(#mask-2_1_);fill:none;stroke:#FC6A55;stroke-width:1.5;stroke-miterlimit:10;}
	.st30{fill:#B4A3EE;}
	.st31{fill:#222121;}
	.st32{fill:#434343;}
	.st33{fill:#434343;stroke:#F9F9F9;stroke-width:0.25;stroke-miterlimit:10;}
	.st34{fill:none;stroke:#FC6A55;stroke-width:0.75;stroke-miterlimit:10;}
	.st35{fill:#FC6A55;stroke:#FC6A55;stroke-width:0.25;stroke-miterlimit:10;}
	.st36{fill:#FC6A55;stroke:#FC6A55;stroke-width:0.5;stroke-miterlimit:10;}
	.st37{opacity:0.5;fill:#FC6A55;}
	.st38{fill:#F5F4F9;}
	.st39{opacity:0.153;fill:url(#Path_144_);enable-background:new    ;}
	.st40{opacity:0.1;fill:#590BB2;enable-background:new    ;}
	.st41{fill:#8E8CA8;}
	.st42{fill:#FFD5B8;}
	.st43{fill:#FC8473;}
	.st44{fill:#1C3475;}
	.st45{fill:#DDD9E4;}
	.st46{fill:#828FB3;}
	.st47{opacity:7.584635e-02;fill:url(#Path_145_);enable-background:new    ;}
	.st48{fill:#FFBE92;}
	.st49{fill:#FB8E7F;}
	.st50{fill:#FDB1A6;}
	.st51{fill:#FC806F;}
	.st52{fill:#FFE783;}
	.st53{fill:#104478;}
	.st54{fill:none;stroke:#FFFFFF;stroke-miterlimit:10;}
	.st55{fill:none;stroke:#000000;stroke-width:0.15;stroke-miterlimit:10;}
	.st56{opacity:0.3;fill:#FC6A55;}
	.st57{opacity:0.4;fill:#FC6A55;}
	.st58{opacity:0.1;fill:url(#Path_147_);enable-background:new    ;}
	.st59{opacity:0.1;fill:url(#Path_150_);enable-background:new    ;}
	.st60{fill-rule:evenodd;clip-rule:evenodd;fill:#FC6A55;}
	.st61{fill-rule:evenodd;clip-rule:evenodd;}
	.st62{fill:#FF6757;}
	.st63{fill:#6C973D;}
	.st64{fill:none;stroke:#FFFFFF;stroke-width:0.5;stroke-miterlimit:10;}
	.st65{fill:#606060;}
	.st66{fill:#F16A56;}
	.st67{fill:#515252;}
	.st68{fill:#656565;}
	.st69{fill:#F26A56;}
	.st70{fill:none;stroke:#F16A56;stroke-miterlimit:10;}
	.st71{fill:none;stroke:#929292;stroke-miterlimit:10;}
	.st72{fill:#929292;}
	.st73{fill:none;stroke:#000000;stroke-width:0.5;stroke-miterlimit:10;}
	.st74{fill:#A8A7A7;}
	.st75{fill:#F79F91;}
	.st76{fill:#9BDBD5;}
	.st77{stroke:#000000;stroke-width:0.25;stroke-miterlimit:10;}
</style>
<g>
	<path id="Shape_119_" class="st0" d="M8.4,40h31.2c0.3,0,0.7-0.1,0.9-0.4c0.2-0.2,0.4-0.6,0.4-0.9v-2.6c-0.2-4.4-2.6-5.1-2.7-5.1
		l-8.3-2.5v-3.6c0.9-0.8,1.4-1.9,1.5-3h1.8c1.1,0,1.9-0.9,1.9-1.9v-3.9c0-0.8-0.5-1.6-1.3-1.8v-4C33.7,4.9,29.6,1,24,1
		s-9.7,3.9-9.7,9.1v4c-0.8,0.3-1.3,1-1.3,1.8v3.9c0,0.8,0.5,1.6,1.3,1.8v0.8c0,1.4,1.2,2.6,2.6,2.6h1.3v3.4l-8.3,2.5
		c-0.1,0-2.5,0.8-2.7,5.2v2.6c0,0.3,0.1,0.7,0.4,0.9C7.7,39.9,8.1,40,8.4,40L8.4,40z M15.5,11.5c0.8-4,4.4-6.7,8.4-6.6
		c4-0.2,7.6,2.6,8.4,6.6V14h-0.8c-0.6-2.7-1.9-3.6-2-3.7c-1.8-1.1-7.5-0.9-9.6-0.8c-0.6,0-1.2,0.3-1.6,0.7c-1,1.1-1.6,2.3-2,3.7
		h-0.9V11.5z M19.4,26.2c1.1,1.4,1.6,2.7,3.5,2.7c2.9,0,3.5,0.3,5-2c0.2-0.3,0.4-0.5,0.6-0.8v2.6c-1,2.8-8.1,2.7-9.1,0L19.4,26.2z
		 M28.7,24.1c-2,1.8-2.1,3.5-3.7,3.5c-2.8,0-2.8,0.3-3.9-1.4c-0.2-0.4-0.5-0.8-0.9-1.2h1.4c0.2,0.4,0.7,0.6,1.1,0.6h2.6
		c0.7,0,1.3-0.6,1.3-1.3v-1.3c0-0.7-0.6-1.3-1.3-1.3h-2.6c-0.7,0-1.3,0.6-1.3,1.3v0.6h-2.5c-1-1.1-1-2.1-1-3.4c0.1-1,0-1.9-0.2-2.8
		c-0.3-1.3-0.4-2.2-0.1-3.3c0.3-1.1,0.8-2.2,1.6-3.1c0.2-0.2,0.5-0.3,0.8-0.3c2.1-0.1,6.9-0.3,8.8,0.6c0.8,0.6,1.7,2.7,1.6,4.3
		c-0.1,1.6-0.5,2.3-0.5,3.6C30,21.4,30.4,22.6,28.7,24.1L28.7,24.1z M22.7,24.4v-1.3h2.6v1.3H22.7z M33.7,19.8
		c0,0.4-0.3,0.6-0.6,0.6h-1.8c-0.1-2.8,0.2-2.1,0.4-4.6c0-0.2,0-0.4,0-0.6h1.3c0.4,0,0.6,0.3,0.6,0.6V19.8z M32,7.5
		c-1.4-1.9-3.8-3.9-8-3.9s-6.6,1.9-8,3.9C18.4,0.5,29.6,0.6,32,7.5z M14.2,15.9c0-0.4,0.3-0.6,0.6-0.6h1.3c0,0.8,0.1,1.7,0.3,2.5
		c0.2,0.9,0.2,1.8,0.2,2.7h-1.8c-0.4,0-0.6-0.3-0.6-0.6V15.9z M15.5,22.4v-0.6h1.1c0.1,0.7,0.3,1.4,0.6,2h-0.4
		C16.1,23.7,15.5,23.2,15.5,22.4z M10.2,32.2l8.3-2.4c0.5,0.9,1.9,2.5,5.6,2.5s5-1.6,5.6-2.5l8.3,2.4c0.1,0,1.6,0.6,1.8,3.9v2.6H8.4
		v-2.6C8.6,32.8,10.1,32.2,10.2,32.2L10.2,32.2z"/>
</g>
</svg>
