<?xml version="1.0" encoding="utf-8"?>
<!-- Generator: Adobe Illustrator 24.1.1, SVG Export Plug-In . SVG Version: 6.00 Build 0)  -->
<svg version="1.1" id="Layer_1" xmlns="http://www.w3.org/2000/svg" xmlns:xlink="http://www.w3.org/1999/xlink" x="0px" y="0px"
	 viewBox="0 0 48 41" style="enable-background:new 0 0 48 41;" xml:space="preserve">
<style type="text/css">
	.st0{fill:#FC6A55;}
	.st1{fill:#EDEDED;}
	.st2{fill:none;stroke:#FC6A55;stroke-miterlimit:10;}
	.st3{fill:#222F3F;}
	.st4{fill:#383838;}
	.st5{fill:#FFFFFF;}
	.st6{fill:#656D7A;}
	.st7{fill:#C4C4C4;}
	.st8{filter:url(#Adobe_OpacityMaskFilter);}
	.st9{fill-rule:evenodd;clip-rule:evenodd;fill:#FFFFFF;}
	.st10{mask:url(#mask-2_8_);fill-rule:evenodd;clip-rule:evenodd;fill:#FC6A55;}
	.st11{filter:url(#Adobe_OpacityMaskFilter_1_);}
	.st12{mask:url(#mask-2_7_);fill-rule:evenodd;clip-rule:evenodd;fill:#FC6A55;}
	.st13{filter:url(#Adobe_OpacityMaskFilter_2_);}
	.st14{mask:url(#mask-2_6_);fill-rule:evenodd;clip-rule:evenodd;fill:#FC6A55;}
	.st15{filter:url(#Adobe_OpacityMaskFilter_3_);}
	.st16{mask:url(#mask-2_5_);fill-rule:evenodd;clip-rule:evenodd;fill:#FC6A55;}
	.st17{filter:url(#Adobe_OpacityMaskFilter_4_);}
	.st18{mask:url(#mask-2_2_);fill:none;stroke:#FC6A55;stroke-width:1.5;stroke-miterlimit:10;}
	.st19{fill:#B4A3EE;}
	.st20{fill:#434343;}
	.st21{fill:#434343;stroke:#F9F9F9;stroke-width:0.25;stroke-miterlimit:10;}
	.st22{fill:none;stroke:#FC6A55;stroke-width:0.5;stroke-miterlimit:10;}
	.st23{fill:none;stroke:#FC6A55;stroke-width:0.75;stroke-miterlimit:10;}
	.st24{fill:#FC6A55;stroke:#FC6A55;stroke-width:0.5;stroke-miterlimit:10;}
	.st25{opacity:0.153;fill:url(#Path_44_);enable-background:new    ;}
	.st26{opacity:0.1;fill:#590BB2;enable-background:new    ;}
	.st27{fill:#8E8CA8;}
	.st28{fill:#F5F4F9;}
	.st29{fill:#FFD5B8;}
	.st30{fill:#FC8473;}
	.st31{fill:#1C3475;}
	.st32{fill:#DDD9E4;}
	.st33{fill:#828FB3;}
	.st34{opacity:7.584635e-02;fill:url(#Path_45_);enable-background:new    ;}
	.st35{fill:#FFBE92;}
	.st36{fill:#FB8E7F;}
	.st37{fill:#FDB1A6;}
	.st38{fill:#FC806F;}
	.st39{fill:#FFE783;}
	.st40{fill:#104478;}
	.st41{fill:none;stroke:#FFFFFF;stroke-miterlimit:10;}
	.st42{fill:none;stroke:#000000;stroke-width:0.15;stroke-miterlimit:10;}
	.st43{opacity:0.1;fill:url(#Path_46_);enable-background:new    ;}
	.st44{opacity:0.1;fill:url(#Path_47_);enable-background:new    ;}
	.st45{fill-rule:evenodd;clip-rule:evenodd;fill:#FC6A55;}
	.st46{fill-rule:evenodd;clip-rule:evenodd;}
	.st47{fill:#FF6757;}
	.st48{fill:#666666;}
	.st49{fill:none;stroke:#FFFFFF;stroke-width:0.5;stroke-miterlimit:10;}
	.st50{fill:#606060;}
	.st51{fill:#F16A56;}
	.st52{fill:#515252;}
	.st53{fill:#F26A56;}
	.st54{fill:none;stroke:#F16A56;stroke-miterlimit:10;}
	.st55{fill:none;stroke:#929292;stroke-miterlimit:10;}
	.st56{fill:#929292;}
	.st57{fill:none;stroke:#000000;stroke-width:0.5;stroke-miterlimit:10;}
	.st58{fill:#A8A7A7;}
	.st59{fill:#F79F91;}
	.st60{fill:#9BDBD5;}
	.st61{fill:#222121;}
	.st62{stroke:#000000;stroke-width:0.25;stroke-miterlimit:10;}
</style>
<g>
	<path class="st0" d="M39.9,24.2l-0.2,0.1c-0.9-1-2.3-1.4-3.4-0.9c0,0,0,0,0,0l-0.5,0.3c-1.2-1-2.9-1.2-4.3-0.4l-2.7,1.5h-3.6
		c-0.8,0-1.5-0.2-2.2-0.5l-0.5-0.2c-2.8-1.4-6.2-1.1-8.7,0.9c0,0,0,0,0,0L12.5,26c-0.4,0.4-1,0.7-1.5,0.9l-0.7-2.2
		c-0.1-0.2-0.3-0.4-0.5-0.4H4c-0.3,0-0.5,0.2-0.5,0.5c0,0,0,0,0,0.1l1.9,15.6c0,0.3,0.3,0.5,0.5,0.5h8.6c0.3,0,0.5-0.2,0.5-0.5
		c0-0.1,0-0.1,0-0.2l-1.1-3.7l3.5-2.2c0.5-0.3,1-0.3,1.5-0.2c0,0,0,0,0,0l7.1,1.3c1.9,0.3,3.9,0.1,5.7-0.8c0,0,0,0,0.1,0l12.4-8.5
		c0.2-0.2,0.3-0.5,0.2-0.7C43.5,23.9,41.5,23.4,39.9,24.2z M36.7,24.4c0.6-0.3,1.5-0.1,2,0.4L34,27.4l-0.3,0.1
		c-0.1-0.4-0.4-0.8-0.6-1.2L36.7,24.4z M31.9,24.3C31.9,24.3,31.9,24.3,31.9,24.3c0.9-0.5,1.9-0.5,2.8,0l-2.4,1.3
		c-0.5-0.3-1-0.6-1.5-0.7L31.9,24.3z M6.4,39.9L4.6,25.4h4.7l4.4,14.6H6.4z M31.3,33.8c-1.6,0.8-3.3,1-5,0.7l-7.1-1.3
		c-0.8-0.2-1.6-0.1-2.3,0.3c0,0,0,0,0,0l-3.3,2.1l-2.3-7.7c0.7-0.2,1.4-0.6,1.9-1.1l1.2-1c2.2-1.7,5.1-1.9,7.6-0.7l0.5,0.2
		c0.8,0.4,1.8,0.6,2.7,0.6h4.8c1.4,0,2.7,1,2.9,2.4l-3.4-0.2c-1.3-0.1-2.5,0-3.7,0.2c-0.3,0-0.5,0.3-0.4,0.6c0,0.3,0.3,0.5,0.6,0.5
		c1.2-0.2,2.4-0.2,3.6-0.2l4.1,0.2c0,0,0,0,0,0c0.3,0,0.5-0.2,0.5-0.5c0-0.1,0-0.2,0-0.3l0.6-0.3l5.9-3.2c0.9-0.5,2.1-0.3,2.8,0.4
		L31.3,33.8z"/>
	<path class="st0" d="M8.1,37.7c0,0.9,0.8,1.7,1.7,1.7c0.9,0,1.7-0.8,1.7-1.7c0-0.9-0.8-1.7-1.7-1.7C8.9,36.1,8.1,36.8,8.1,37.7z
		 M9.8,37.1c0.3,0,0.6,0.3,0.6,0.6c0,0.3-0.3,0.6-0.6,0.6c-0.3,0-0.6-0.3-0.6-0.6C9.2,37.4,9.4,37.1,9.8,37.1L9.8,37.1z"/>
	<path class="st0" d="M28.1,5.8V4c0-2.2-1.8-4-4.1-4c-2.2,0-4,1.8-4,4v1.8c0,2.2,1.8,4,4.1,4C26.2,9.8,28,8,28.1,5.8z M21,5.8V4
		c0-1.6,1.3-3,3-3c1.6,0,3,1.3,3,3v1.8c0,1.6-1.3,3-3,3C22.4,8.7,21,7.4,21,5.8z"/>
	<path class="st0" d="M17.5,20.8h13c0.3,0,0.5-0.2,0.5-0.5l0,0V19H40c0.3,0,0.5-0.2,0.5-0.5V15c0-2.1-1.6-3.8-3.7-4
		c-0.3,0-0.4,0.2-0.5,0.3c-0.9,1-2.4,1.2-3.4,0.3c-0.2-0.1-0.3-0.3-0.4-0.4c-0.1-0.1-0.3-0.2-0.4-0.2c-0.7,0-1.4,0.2-2,0.6
		c-0.8-0.9-1.9-1.5-3.1-1.6c-0.3,0-0.4,0.2-0.5,0.3c-1,1.2-2.8,1.4-4,0.4c-0.2-0.2-0.3-0.3-0.5-0.5c-0.1-0.1-0.3-0.2-0.4-0.2
		c-1.2,0-2.3,0.5-3.1,1.3c-0.1,0.1-0.1,0.1-0.2,0.2c-0.6-0.3-1.2-0.5-1.8-0.6c-0.3,0-0.4,0.2-0.5,0.3c-0.9,1-2.4,1.2-3.4,0.3
		c-0.2-0.1-0.3-0.3-0.4-0.4c-0.1-0.1-0.3-0.2-0.4-0.2c-2.2,0.1-3.9,1.8-3.9,4v3.5C7.5,18.8,7.7,19,8,19H17v1.2
		C17,20.6,17.2,20.8,17.5,20.8z M31.7,12.1c1.3,1.5,3.5,1.6,5,0.3c0.1-0.1,0.2-0.2,0.3-0.3c1.4,0.2,2.5,1.4,2.5,2.9V18h-8.4v-3.4
		c0-0.7-0.2-1.4-0.5-2C30.9,12.3,31.3,12.2,31.7,12.1L31.7,12.1z M21.1,11.2c1.4,1.6,3.9,1.8,5.5,0.4c0.1-0.1,0.3-0.3,0.4-0.4
		c1.7,0.2,3,1.7,3,3.4v5.2H18v-5.2C18,12.8,19.4,11.3,21.1,11.2z M8.6,18V15c0-1.5,1.1-2.7,2.6-2.9c1.3,1.5,3.5,1.6,5,0.3
		c0.1-0.1,0.2-0.2,0.3-0.3c0.4,0.1,0.7,0.2,1,0.4c-0.3,0.6-0.5,1.3-0.5,2V18L8.6,18z"/>
	<path class="st0" d="M37.9,7.4V5.8c0-2-1.6-3.6-3.6-3.6c-2,0-3.6,1.6-3.6,3.6v1.5c0,2,1.6,3.6,3.6,3.6C36.3,11,37.9,9.4,37.9,7.4z
		 M31.7,7.4V5.8c0-1.4,1.1-2.5,2.5-2.5c1.4,0,2.5,1.1,2.5,2.5c0,0,0,0,0,0v1.5c0,1.4-1.1,2.5-2.5,2.5C32.9,9.9,31.7,8.8,31.7,7.4
		C31.7,7.4,31.7,7.4,31.7,7.4z"/>
	<path class="st0" d="M17.3,7.4V5.8c0-2-1.6-3.6-3.6-3.6s-3.6,1.6-3.6,3.6v1.5c0,2,1.6,3.6,3.6,3.6S17.3,9.4,17.3,7.4z M11.2,7.4
		V5.8c0-1.4,1.1-2.5,2.5-2.5c1.4,0,2.5,1.1,2.5,2.5c0,0,0,0,0,0v1.5c0,1.4-1.1,2.5-2.5,2.5C12.3,9.9,11.2,8.8,11.2,7.4
		C11.2,7.4,11.2,7.4,11.2,7.4z"/>
</g>
</svg>
