<?xml version="1.0" encoding="utf-8"?>
<!-- Generator: Adobe Illustrator 24.2.0, SVG Export Plug-In . SVG Version: 6.00 Build 0)  -->
<svg version="1.1" id="Layer_1" xmlns="http://www.w3.org/2000/svg" xmlns:xlink="http://www.w3.org/1999/xlink" x="0px" y="0px"
	 viewBox="0 0 48 41" style="enable-background:new 0 0 48 41;" xml:space="preserve">
<style type="text/css">
	.st0{fill:#FC6A55;}
	.st1{fill:#EDEDED;}
	.st2{fill:none;stroke:#FC6A55;stroke-miterlimit:10;}
	.st3{fill:#222F3F;}
	.st4{fill:#383838;}
	.st5{fill:#FFFFFF;}
	.st6{fill:#B0B0B0;}
	.st7{fill:#656D7A;}
	.st8{fill:#C4C4C4;}
	.st9{filter:url(#Adobe_OpacityMaskFilter);}
	.st10{fill-rule:evenodd;clip-rule:evenodd;fill:#FFFFFF;}
	.st11{mask:url(#mask-2_8_);fill-rule:evenodd;clip-rule:evenodd;fill:#B0B0B0;}
	.st12{filter:url(#Adobe_OpacityMaskFilter_1_);}
	.st13{mask:url(#mask-2_7_);fill-rule:evenodd;clip-rule:evenodd;fill:#B0B0B0;}
	.st14{filter:url(#Adobe_OpacityMaskFilter_2_);}
	.st15{mask:url(#mask-2_6_);fill-rule:evenodd;clip-rule:evenodd;fill:#B0B0B0;}
	.st16{filter:url(#Adobe_OpacityMaskFilter_3_);}
	.st17{mask:url(#mask-2_5_);fill-rule:evenodd;clip-rule:evenodd;fill:#B0B0B0;}
	.st18{filter:url(#Adobe_OpacityMaskFilter_4_);}
	.st19{mask:url(#mask-2_2_);fill:none;stroke:#B0B0B0;stroke-width:1.5;stroke-miterlimit:10;}
	.st20{filter:url(#Adobe_OpacityMaskFilter_5_);}
	.st21{mask:url(#mask-2_10_);fill-rule:evenodd;clip-rule:evenodd;fill:#FC6A55;}
	.st22{filter:url(#Adobe_OpacityMaskFilter_6_);}
	.st23{mask:url(#mask-2_9_);fill-rule:evenodd;clip-rule:evenodd;fill:#FC6A55;}
	.st24{filter:url(#Adobe_OpacityMaskFilter_7_);}
	.st25{mask:url(#mask-2_4_);fill-rule:evenodd;clip-rule:evenodd;fill:#FC6A55;}
	.st26{filter:url(#Adobe_OpacityMaskFilter_8_);}
	.st27{mask:url(#mask-2_3_);fill-rule:evenodd;clip-rule:evenodd;fill:#FC6A55;}
	.st28{filter:url(#Adobe_OpacityMaskFilter_9_);}
	.st29{mask:url(#mask-2_1_);fill:none;stroke:#FC6A55;stroke-width:1.5;stroke-miterlimit:10;}
	.st30{fill:#B4A3EE;}
	.st31{fill:#222121;}
	.st32{fill:#434343;}
	.st33{fill:#434343;stroke:#F9F9F9;stroke-width:0.25;stroke-miterlimit:10;}
	.st34{fill:none;stroke:#FC6A55;stroke-width:0.75;stroke-miterlimit:10;}
	.st35{fill:#FC6A55;stroke:#FC6A55;stroke-width:0.25;stroke-miterlimit:10;}
	.st36{fill:#FC6A55;stroke:#FC6A55;stroke-width:0.5;stroke-miterlimit:10;}
	.st37{opacity:0.5;fill:#FC6A55;}
	.st38{fill:#F5F4F9;}
	.st39{opacity:0.153;fill:url(#Path_144_);enable-background:new    ;}
	.st40{opacity:0.1;fill:#590BB2;enable-background:new    ;}
	.st41{fill:#8E8CA8;}
	.st42{fill:#FFD5B8;}
	.st43{fill:#FC8473;}
	.st44{fill:#1C3475;}
	.st45{fill:#DDD9E4;}
	.st46{fill:#828FB3;}
	.st47{opacity:7.584635e-02;fill:url(#Path_145_);enable-background:new    ;}
	.st48{fill:#FFBE92;}
	.st49{fill:#FB8E7F;}
	.st50{fill:#FDB1A6;}
	.st51{fill:#FC806F;}
	.st52{fill:#FFE783;}
	.st53{fill:#104478;}
	.st54{fill:none;stroke:#FFFFFF;stroke-miterlimit:10;}
	.st55{fill:none;stroke:#000000;stroke-width:0.15;stroke-miterlimit:10;}
	.st56{opacity:0.3;fill:#FC6A55;}
	.st57{opacity:0.4;fill:#FC6A55;}
	.st58{opacity:0.1;fill:url(#Path_147_);enable-background:new    ;}
	.st59{opacity:0.1;fill:url(#Path_150_);enable-background:new    ;}
	.st60{fill-rule:evenodd;clip-rule:evenodd;fill:#FC6A55;}
	.st61{fill-rule:evenodd;clip-rule:evenodd;}
	.st62{fill:#FF6757;}
	.st63{fill:#6C973D;}
	.st64{fill:none;stroke:#FFFFFF;stroke-width:0.5;stroke-miterlimit:10;}
	.st65{fill:#606060;}
	.st66{fill:#F16A56;}
	.st67{fill:#515252;}
	.st68{fill:#656565;}
	.st69{fill:#F26A56;}
	.st70{fill:none;stroke:#F16A56;stroke-miterlimit:10;}
	.st71{fill:none;stroke:#929292;stroke-miterlimit:10;}
	.st72{fill:#929292;}
	.st73{fill:none;stroke:#000000;stroke-width:0.5;stroke-miterlimit:10;}
	.st74{fill:#A8A7A7;}
	.st75{fill:#F79F91;}
	.st76{fill:#9BDBD5;}
	.st77{stroke:#000000;stroke-width:0.25;stroke-miterlimit:10;}
</style>
<g id="final-design_23_">
	<g id="invensis.net-2.0-index-page_9_" transform="translate(-1432.000000, -2403.000000)">
		<g id="Group-3_1_" transform="translate(1431.000000, 2400.000000)">
			<defs>
				<filter id="Adobe_OpacityMaskFilter" filterUnits="userSpaceOnUse" x="3.8" y="3.8" width="39.3" height="39.5">
					<feColorMatrix  type="matrix" values="1 0 0 0 0  0 1 0 0 0  0 0 1 0 0  0 0 0 1 0"/>
				</filter>
			</defs>
			<mask maskUnits="userSpaceOnUse" x="3.8" y="3.8" width="39.3" height="39.5" id="mask-2_1_">
				<g class="st9">
					<polygon id="path-1_1_" class="st10" points="2,0.9 46.4,0.9 46.4,45.2 2,45.2 					"/>
				</g>
			</mask>
			<path id="Fill-1_2_" class="st29" d="M7.9,42.6c1,0,2,0,3,0c0.3,0,0.3-0.1,0.3-0.3c0-0.7,0-1.3,0-2c0-0.9-0.8-1.8-1.7-1.9
				c-1-0.1-2-0.1-3,0c-1.2,0.1-1.9,1-1.9,2.2c0,0.6,0,1.1,0,1.7c0,0.3,0.1,0.3,0.3,0.3C5.9,42.6,6.9,42.6,7.9,42.6L7.9,42.6z
				 M20.5,37.8L20.5,37.8c0-1.5,0-3,0-4.4c0-1-0.8-1.8-1.7-1.9c-1-0.1-2-0.1-3,0c-1.2,0.1-1.9,1-1.9,2.2c0,2.9,0,5.8,0,8.6
				c0,0.3,0.1,0.4,0.4,0.4c2,0,3.9,0,5.9,0c0.3,0,0.4-0.1,0.4-0.4C20.5,40.7,20.5,39.2,20.5,37.8L20.5,37.8z M29.8,34.3L29.8,34.3
				c0-2.6,0-5.2,0-7.8c0-1.2-0.9-2.1-2.1-2.1c-0.8,0-1.6,0-2.3,0c-1.2,0-2.1,0.9-2.1,2.1c0,5.2,0,10.4,0,15.6c0,0.3,0.1,0.4,0.4,0.4
				c1.9,0,3.9,0,5.8,0c0.4,0,0.4,0,0.4-0.4V34.3z M39.1,28.5v-9.1c0-1.5,0-3,0-4.5c0-0.8,0.6-1.4,1.4-1.4c0.5,0,1.1,0,1.6,0
				c0.1,0,0.2,0.1,0.3-0.1c0-0.1-0.1-0.2-0.1-0.2c-2.1-2.8-4.2-5.6-6.2-8.4c-0.2-0.3-0.3-0.2-0.4,0c-0.9,1.2-1.7,2.3-2.6,3.5
				c-1.2,1.6-2.4,3.3-3.6,4.9c-0.1,0.1-0.2,0.1-0.1,0.2c0,0.1,0.2,0,0.2,0c0.6,0,1.1,0,1.7,0c0.6,0,1.1,0.4,1.2,0.9
				c0.1,0.2,0.1,0.5,0.1,0.7c0,9,0,18,0,27.1c0,0.5,0,0.5,0.5,0.5h5.7c0.5,0,0.5,0,0.5-0.5V28.5z"/>
		</g>
	</g>
</g>
</svg>
