<?xml version="1.0" encoding="utf-8"?>
<!-- Generator: Adobe Illustrator 24.2.0, SVG Export Plug-In . SVG Version: 6.00 Build 0)  -->
<svg version="1.1" id="Layer_1" xmlns="http://www.w3.org/2000/svg" xmlns:xlink="http://www.w3.org/1999/xlink" x="0px" y="0px"
	 viewBox="0 0 55 41" style="enable-background:new 0 0 55 41;" xml:space="preserve">
<style type="text/css">
	.st0{fill:#FC6A55;}
	.st1{fill:#EDEDED;}
	.st2{fill:none;stroke:#FC6A55;stroke-miterlimit:10;}
	.st3{fill:#222F3F;}
	.st4{fill:#383838;}
	.st5{fill:#FFFFFF;}
	.st6{fill:#B0B0B0;}
	.st7{fill:#656D7A;}
	.st8{fill:#C4C4C4;}
	.st9{filter:url(#Adobe_OpacityMaskFilter);}
	.st10{fill-rule:evenodd;clip-rule:evenodd;fill:#FFFFFF;}
	.st11{mask:url(#mask-2_8_);fill-rule:evenodd;clip-rule:evenodd;fill:#B0B0B0;}
	.st12{filter:url(#Adobe_OpacityMaskFilter_1_);}
	.st13{mask:url(#mask-2_7_);fill-rule:evenodd;clip-rule:evenodd;fill:#B0B0B0;}
	.st14{filter:url(#Adobe_OpacityMaskFilter_2_);}
	.st15{mask:url(#mask-2_6_);fill-rule:evenodd;clip-rule:evenodd;fill:#B0B0B0;}
	.st16{filter:url(#Adobe_OpacityMaskFilter_3_);}
	.st17{mask:url(#mask-2_5_);fill-rule:evenodd;clip-rule:evenodd;fill:#B0B0B0;}
	.st18{filter:url(#Adobe_OpacityMaskFilter_4_);}
	.st19{mask:url(#mask-2_2_);fill:none;stroke:#B0B0B0;stroke-width:1.5;stroke-miterlimit:10;}
	.st20{filter:url(#Adobe_OpacityMaskFilter_5_);}
	.st21{mask:url(#mask-2_10_);fill-rule:evenodd;clip-rule:evenodd;fill:#FC6A55;}
	.st22{filter:url(#Adobe_OpacityMaskFilter_6_);}
	.st23{mask:url(#mask-2_9_);fill-rule:evenodd;clip-rule:evenodd;fill:#FC6A55;}
	.st24{filter:url(#Adobe_OpacityMaskFilter_7_);}
	.st25{mask:url(#mask-2_4_);fill-rule:evenodd;clip-rule:evenodd;fill:#FC6A55;}
	.st26{filter:url(#Adobe_OpacityMaskFilter_8_);}
	.st27{mask:url(#mask-2_3_);fill-rule:evenodd;clip-rule:evenodd;fill:#FC6A55;}
	.st28{filter:url(#Adobe_OpacityMaskFilter_9_);}
	.st29{mask:url(#mask-2_1_);fill:none;stroke:#FC6A55;stroke-width:1.5;stroke-miterlimit:10;}
	.st30{fill:#B4A3EE;}
	.st31{fill:#222121;}
	.st32{fill:#434343;}
	.st33{fill:#434343;stroke:#F9F9F9;stroke-width:0.25;stroke-miterlimit:10;}
	.st34{fill:none;stroke:#FC6A55;stroke-width:0.75;stroke-miterlimit:10;}
	.st35{fill:#FC6A55;stroke:#FC6A55;stroke-width:0.25;stroke-miterlimit:10;}
	.st36{fill:#FC6A55;stroke:#FC6A55;stroke-width:0.5;stroke-miterlimit:10;}
	.st37{opacity:0.5;fill:#FC6A55;}
	.st38{fill:#F5F4F9;}
	.st39{opacity:0.153;fill:url(#Path_144_);enable-background:new    ;}
	.st40{opacity:0.1;fill:#590BB2;enable-background:new    ;}
	.st41{fill:#8E8CA8;}
	.st42{fill:#FFD5B8;}
	.st43{fill:#FC8473;}
	.st44{fill:#1C3475;}
	.st45{fill:#DDD9E4;}
	.st46{fill:#828FB3;}
	.st47{opacity:7.584635e-02;fill:url(#Path_145_);enable-background:new    ;}
	.st48{fill:#FFBE92;}
	.st49{fill:#FB8E7F;}
	.st50{fill:#FDB1A6;}
	.st51{fill:#FC806F;}
	.st52{fill:#FFE783;}
	.st53{fill:#104478;}
	.st54{fill:none;stroke:#FFFFFF;stroke-miterlimit:10;}
	.st55{fill:none;stroke:#000000;stroke-width:0.15;stroke-miterlimit:10;}
	.st56{opacity:0.3;fill:#FC6A55;}
	.st57{opacity:0.4;fill:#FC6A55;}
	.st58{opacity:0.1;fill:url(#Path_147_);enable-background:new    ;}
	.st59{opacity:0.1;fill:url(#Path_150_);enable-background:new    ;}
	.st60{fill-rule:evenodd;clip-rule:evenodd;fill:#FC6A55;}
	.st61{fill-rule:evenodd;clip-rule:evenodd;}
	.st62{fill:#FF6757;}
	.st63{fill:#6C973D;}
	.st64{fill:none;stroke:#FFFFFF;stroke-width:0.5;stroke-miterlimit:10;}
	.st65{fill:#606060;}
	.st66{fill:#F16A56;}
	.st67{fill:#515252;}
	.st68{fill:#656565;}
	.st69{fill:#F26A56;}
	.st70{fill:none;stroke:#F16A56;stroke-miterlimit:10;}
	.st71{fill:none;stroke:#929292;stroke-miterlimit:10;}
	.st72{fill:#929292;}
	.st73{fill:none;stroke:#000000;stroke-width:0.5;stroke-miterlimit:10;}
	.st74{fill:#A8A7A7;}
	.st75{fill:#F79F91;}
	.st76{fill:#9BDBD5;}
	.st77{stroke:#000000;stroke-width:0.25;stroke-miterlimit:10;}
</style>
<g>
	<path class="st0" d="M47.7,22h-1.5h-1.4h-1.5c-1.9,0-3.6,0.8-4.8,2.2c-0.3,0.3-0.2,0.8,0.1,1.1c0.3,0.3,0.8,0.2,1.1-0.1
		c0.9-1.1,2.2-1.7,3.6-1.7h0.5l-1.2,5c-0.1,0.3,0,0.5,0.2,0.7l2.1,2.2c0.1,0.2,0.4,0.2,0.6,0.2c0.2,0,0.4-0.1,0.6-0.2l2.1-2.2
		c0.2-0.2,0.3-0.5,0.2-0.7l-1.2-5h0.5c2.6,0,4.7,2.1,4.7,4.7v5h-11c-0.4,0-0.8,0.3-0.8,0.8c0,0.4,0.3,0.8,0.8,0.8h11.4
		c0.7,0,1.2-0.5,1.2-1.2v-5.3C54,24.9,51.2,22,47.7,22z M46.8,28.6l-1.3,1.3l-1.3-1.3l1.2-5h0.2L46.8,28.6z"/>
	<path class="st0" d="M45.5,20.9c3.5,0,6.4-2.9,6.4-6.4v-2.4v-1.3c0-0.3,0-0.6-0.1-0.9c-0.4-2.9-2.9-5-5.9-5h-0.8
		c-3,0-5.4,2.2-5.9,5c0,0.3-0.1,0.6-0.1,0.9v1v2.6C39.2,18,42,20.9,45.5,20.9z M45.1,6.5h0.8c2.4,0,4.4,2,4.4,4.4v0.2
		c-1-0.4-1.8-1-1.9-1.6C48.3,9.2,48.1,9,47.8,9c-0.3,0-0.6,0.1-0.8,0.3c-0.9,1.2-4,2.3-6.3,2v-0.4C40.7,8.4,42.7,6.5,45.1,6.5z
		 M40.7,12.8c2.3,0.3,5.2-0.5,6.8-1.8c0.8,0.9,2,1.4,2.8,1.7v1.8c0,2.7-2.2,4.8-4.8,4.8s-4.8-2.2-4.8-4.8L40.7,12.8L40.7,12.8z"/>
	<path class="st0" d="M16.4,25.4c0.3-0.3,0.4-0.8,0.1-1.1c-1.2-1.4-3-2.3-4.8-2.3h-1.5H8.8H7.3C3.8,22,1,24.9,1,28.3v5.3
		c0,0.7,0.5,1.2,1.2,1.2h11.4c0.4,0,0.8-0.3,0.8-0.8c0-0.4-0.3-0.8-0.8-0.8h-11v-5c0-2.6,2.1-4.7,4.7-4.7h0.5l-1.2,5
		c-0.1,0.3,0,0.5,0.2,0.7l2.1,2.2c0.1,0.2,0.4,0.2,0.6,0.2c0.2,0,0.4-0.1,0.6-0.2l2.1-2.2c0.2-0.2,0.3-0.5,0.2-0.7l-1.2-5h0.5
		c1.4,0,2.7,0.6,3.6,1.7C15.6,25.6,16.1,25.7,16.4,25.4z M10.7,28.6l-1.3,1.3l-1.3-1.3l1.2-5h0.2L10.7,28.6z"/>
	<path class="st0" d="M3.1,14.5c0,3.5,2.9,6.4,6.4,6.4c3.5,0,6.4-2.9,6.4-6.4v-3.6c0-0.1,0-0.2,0-0.3c1.3-1,2.1-2.5,2.1-4.2V4.6
		c0-0.4-0.3-0.8-0.8-0.8H8.4c-0.4,0-0.7,0-1,0.1C6.9,4,6.7,4.4,6.7,4.8c0.1,0.4,0.5,0.7,0.9,0.6c0.2,0,0.5-0.1,0.7-0.1h8v1
		c0,2.1-1.7,3.7-3.7,3.7h-8v-1c0-0.9,0.3-1.7,0.9-2.4c0.3-0.3,0.2-0.8-0.1-1.1C5.1,5.3,4.6,5.4,4.3,5.7C3.5,6.6,3.1,7.8,3.1,9.1v1.8
		c0,0,0,0,0,0V14.5z M14.3,11.4v3.1c0,2.7-2.2,4.8-4.8,4.8c-2.6,0-4.8-2.2-4.8-4.8v-2.9h8C13.2,11.7,13.8,11.6,14.3,11.4z"/>
	<path class="st0" d="M34.2,23.4C34.2,23.4,34.2,23.4,34.2,23.4c-0.1-0.1-0.2-0.1-0.3-0.1c0,0,0,0,0,0c-0.5-0.2-1-0.4-1.6-0.5
		c0,0,0,0,0,0c-0.1,0-0.3-0.1-0.4-0.1c0,0,0,0,0,0c-0.1,0-0.3,0-0.4-0.1c0,0,0,0,0,0c-0.1,0-0.3,0-0.4,0c0,0,0,0,0,0
		c-0.1,0-0.3,0-0.4,0h0h-6.1h0c-0.1,0-0.3,0-0.4,0c0,0,0,0,0,0c-0.1,0-0.3,0-0.4,0c0,0,0,0,0,0c-0.1,0-0.3,0-0.4,0.1c0,0,0,0,0,0
		c-0.7,0.1-1.4,0.3-2,0.6c0,0,0,0,0,0c-0.1,0-0.2,0.1-0.3,0.1c0,0,0,0,0,0c-2.9,1.4-4.9,4.3-4.9,7.7v7c0,1,0.8,1.8,1.8,1.8h19.6
		c1,0,1.8-0.8,1.8-1.8v-7C39.1,27.7,37.1,24.8,34.2,23.4z M30,29.5l-0.5-2.8c0.9-0.5,1.5-1.4,1.8-2.5c0,0,0,0,0,0c0,0,0,0,0.1,0
		c0.2,0,0.4,0.1,0.7,0.1c0,0,0,0,0,0c0.1,0,0.2,0,0.3,0.1c0,0,0,0,0.1,0c0.1,0,0.2,0,0.3,0.1c0,0,0,0,0.1,0c0,0,0,0,0.1,0L30,29.5z
		 M22.3,24.5C22.3,24.5,22.3,24.5,22.3,24.5c0.1,0,0.1,0,0.1,0c0.1,0,0.2-0.1,0.3-0.1c0,0,0,0,0.1,0c0.1,0,0.2,0,0.3-0.1
		c0,0,0,0,0,0c0.2,0,0.4-0.1,0.7-0.1c0,0,0,0,0.1,0c0,0,0,0,0,0c0.2,1,0.8,1.9,1.8,2.5L25,29.5L22.3,24.5z M27.9,26.4l1,5.3
		l-1.3,2.4l-1.3-2.4l1-5.3c0.1-0.4-0.1-0.7-0.5-0.9c-0.6-0.2-1.1-0.7-1.3-1.3h4.3c-0.2,0.6-0.7,1.1-1.3,1.3
		C28,25.7,27.8,26,27.9,26.4z M37.6,38.2c0,0.1-0.1,0.3-0.3,0.3H17.7c-0.1,0-0.3-0.1-0.3-0.3v-7c0-2.5,1.4-4.8,3.4-6l6,10.9
		c0.1,0.2,0.4,0.4,0.7,0.4c0.3,0,0.5-0.2,0.7-0.4l6-10.9c2,1.2,3.4,3.4,3.4,6V38.2z"/>
	<path class="st0" d="M27.5,21.2c1.9,0,3.7-0.7,5.1-1.9c0.3-0.3,0.4-0.8,0.1-1.1c-0.3-0.3-0.8-0.4-1.1-0.1c-1.2,1-2.6,1.5-4.1,1.5
		c-3.6,0-6.5-2.9-6.5-6.5v-3c1.1,0.9,2.4,1.6,3.5,1.9c0.3,0.1,0.6,0,0.8-0.3c0.2-0.2,0.2-0.6,0.1-0.8c-0.2-0.5-0.6-1.2-0.7-2
		c1.1,0.8,2.4,1.5,3.3,1.9c2,1,4.1,1.8,6,2.3v0.1c0,1-0.2,1.9-0.6,2.7c-0.2,0.4,0,0.9,0.4,1c0.4,0.2,0.9,0,1-0.4
		c0.5-1.1,0.7-2.2,0.7-3.4v-0.7v-4C35.5,4.3,32.2,1,28,1h-1.1c-0.1,0-0.3,0-0.4,0c0,0-0.1,0-0.1,0c-0.1,0-0.2,0-0.3,0c0,0,0,0-0.1,0
		c-0.1,0-0.2,0-0.3,0c0,0,0,0,0,0c-1.5,0.2-3,0.9-4.1,2.1c-0.9,0.9-1.5,1.9-1.9,3.1c0,0,0,0,0,0c0,0.1-0.1,0.2-0.1,0.3
		c0,0.1,0,0.1,0,0.2c0,0.1,0,0.1,0,0.2c0,0.1,0,0.2-0.1,0.3c0,0,0,0.1,0,0.1c0,0.1,0,0.2,0,0.3c0,0,0,0,0,0c0,0.1,0,0.2,0,0.3
		c0,0,0,0,0,0c0,0.1,0,0.2,0,0.3c0,0,0,0,0,0c0,0,0,0,0,0c0,0,0,0.1,0,0.1v4.7C19.4,17.6,23,21.2,27.5,21.2z M28,2.6
		c3.3,0,5.9,2.7,5.9,5.9v3c-3.7-1.1-8.4-3.4-9.4-4.7c-0.1-0.2-0.4-0.3-0.6-0.3c-0.1,0-0.1,0-0.2,0c-0.3,0.1-0.5,0.3-0.6,0.6
		c-0.1,0.5-0.2,1.5,0.1,2.9c-0.8-0.5-1.7-1.1-2.3-1.8c0.2-2.8,2.3-5.1,5-5.5c0,0,0,0,0,0c0.1,0,0.2,0,0.3,0c0,0,0.1,0,0.1,0
		c0.1,0,0.1,0,0.2,0c0.1,0,0.2,0,0.3,0H28z"/>
</g>
</svg>
