<?xml version="1.0" encoding="utf-8"?>
<!-- Generator: Adobe Illustrator 23.0.0, SVG Export Plug-In . SVG Version: 6.00 Build 0)  -->
<svg version="1.1" id="Layer_1" xmlns="http://www.w3.org/2000/svg" xmlns:xlink="http://www.w3.org/1999/xlink" x="0px" y="0px"
	 viewBox="0 0 21 21" style="enable-background:new 0 0 21 21;" xml:space="preserve">
<style type="text/css">
	.st0{fill:#FC6A55;}
</style>
<g>
	<g>
		<path class="st0" d="M3.8,16.1c-0.3,0-0.6,0.1-0.8,0.2c-1.3-1.7-2-3.7-2-5.9C1,5.2,5.2,1,10.5,1c0.6,0,1.3,0.1,1.9,0.2
			c0.2,0,0.4-0.1,0.5-0.3c0-0.2-0.1-0.4-0.3-0.5c-0.7-0.1-1.4-0.2-2.1-0.2c-2.8,0-5.4,1.1-7.3,3s-3,4.5-3,7.3c0,2.3,0.8,4.6,2.2,6.4
			c-0.2,0.3-0.3,0.6-0.3,0.9c0,0.5,0.2,0.9,0.5,1.2c0.3,0.3,0.7,0.5,1.2,0.5S4.7,19.4,5,19c0.3-0.3,0.5-0.7,0.5-1.2
			c0-0.5-0.2-0.9-0.5-1.2C4.7,16.3,4.3,16.1,3.8,16.1z M4.4,18.5c-0.2,0.2-0.4,0.3-0.6,0.3s-0.5-0.1-0.6-0.3s-0.3-0.4-0.3-0.6
			c0-0.2,0.1-0.5,0.3-0.6C3.3,17,3.6,17,3.8,17s0.5,0.1,0.6,0.3c0.2,0.2,0.3,0.4,0.3,0.6C4.7,18.1,4.6,18.3,4.4,18.5z"/>
		<path class="st0" d="M18.6,4.1C19,3.4,19,2.5,18.4,2c-0.3-0.3-0.7-0.5-1.2-0.5c-0.5,0-0.9,0.2-1.2,0.5c-0.3,0.3-0.5,0.7-0.5,1.2
			S15.7,4,16,4.4c0.3,0.3,0.7,0.5,1.2,0.5c0.3,0,0.6-0.1,0.8-0.2c1.3,1.7,2,3.7,2,5.9c0,5.3-4.3,9.5-9.5,9.5c-0.6,0-1.3-0.1-1.9-0.2
			c-0.2,0-0.4,0.1-0.5,0.3c0,0.2,0.1,0.4,0.3,0.5c0.7,0.1,1.4,0.2,2,0.2c2.8,0,5.4-1.1,7.3-3s3-4.5,3-7.3C20.8,8.2,20,5.9,18.6,4.1z
			 M16.6,3.8c-0.2-0.2-0.3-0.4-0.3-0.6c0-0.2,0.1-0.5,0.3-0.6c0.2-0.2,0.4-0.3,0.6-0.3c0.2,0,0.5,0.1,0.6,0.3c0.3,0.3,0.3,0.9,0,1.3
			C17.7,4,17.4,4,17.2,4C17,4,16.7,4,16.6,3.8z"/>
		<path class="st0" d="M8.8,17.4c0,0.2,0.2,0.4,0.4,0.4h2.5c0.2,0,0.4-0.2,0.4-0.4v-0.8c0.5-0.1,1-0.4,1.5-0.6l0.6,0.6
			c0.1,0.1,0.2,0.1,0.3,0.1c0.1,0,0.2,0,0.3-0.1l1.8-1.8c0.2-0.2,0.2-0.4,0-0.6L16,13.7c0.3-0.5,0.5-1,0.6-1.5h0.8
			c0.2,0,0.4-0.2,0.4-0.4V9.2c0-0.2-0.2-0.4-0.4-0.4h-0.8c-0.1-0.5-0.4-1-0.6-1.5l0.5-0.5c0.1-0.1,0.1-0.2,0.1-0.3
			c0-0.1,0-0.2-0.1-0.3l-1.8-1.8c-0.2-0.2-0.4-0.2-0.6,0L13.7,5c-0.5-0.3-1-0.5-1.5-0.6V3.6c0-0.2-0.2-0.4-0.4-0.4H9.2
			C9,3.2,8.8,3.3,8.8,3.6v0.8C8.3,4.5,7.8,4.7,7.3,5L6.8,4.4c-0.2-0.2-0.4-0.2-0.6,0L4.4,6.2C4.3,6.3,4.3,6.4,4.3,6.5
			c0,0.1,0,0.2,0.1,0.3L5,7.3c-0.3,0.5-0.5,1-0.6,1.5H3.6C3.3,8.8,3.2,9,3.2,9.2l0,2.5c0,0.1,0,0.2,0.1,0.3s0.2,0.1,0.3,0.1h0.8
			c0.1,0.5,0.4,1,0.6,1.5l-0.6,0.6c-0.2,0.2-0.2,0.4,0,0.6l1.8,1.8c0.1,0.1,0.2,0.1,0.3,0.1h0c0.1,0,0.2,0,0.3-0.1L7.3,16
			c0.5,0.3,1,0.5,1.5,0.6V17.4z M7.5,15.2c-0.2-0.1-0.4-0.1-0.5,0.1l-0.5,0.5l-1.2-1.2L5.8,14c0.1-0.1,0.2-0.3,0.1-0.5
			C5.4,13,5.2,12.3,5,11.7c0-0.2-0.2-0.3-0.4-0.3H4l0-1.7h0.7C4.8,9.6,5,9.5,5,9.3C5.2,8.7,5.4,8,5.8,7.5C5.9,7.3,5.9,7.1,5.8,7
			L5.3,6.5l1.2-1.2L7,5.8c0.1,0.1,0.3,0.2,0.5,0.1C8,5.4,8.7,5.2,9.3,5c0.2,0,0.3-0.2,0.3-0.4V4h1.7v0.7c0,0.2,0.1,0.4,0.3,0.4
			c0.7,0.1,1.3,0.4,1.8,0.8c0.2,0.1,0.4,0.1,0.5-0.1l0.5-0.5l1.2,1.2L15.2,7c-0.1,0.1-0.2,0.3-0.1,0.5C15.6,8,15.8,8.7,16,9.3
			c0,0.2,0.2,0.3,0.4,0.3H17v1.7h-0.7c-0.2,0-0.4,0.1-0.4,0.3c-0.1,0.7-0.4,1.3-0.8,1.8c-0.1,0.2-0.1,0.4,0.1,0.5l0.5,0.5l-1.2,1.2
			L14,15.2c-0.1-0.1-0.3-0.2-0.5-0.1c-0.6,0.4-1.2,0.6-1.8,0.8c-0.2,0-0.3,0.2-0.3,0.4V17H9.6v-0.7c0-0.2-0.1-0.4-0.3-0.4
			C8.7,15.8,8,15.5,7.5,15.2z"/>
		<path class="st0" d="M13.8,10.5c0-1.8-1.5-3.3-3.3-3.3s-3.3,1.5-3.3,3.3s1.5,3.3,3.3,3.3S13.8,12.3,13.8,10.5z M8,10.5
			C8,9.1,9.1,8,10.5,8S13,9.1,13,10.5S11.9,13,10.5,13S8,11.9,8,10.5z"/>
		<path class="st0" d="M14.2,1.7c0.1,0,0.2,0,0.3-0.1c0.1-0.1,0.1-0.2,0.1-0.3c0-0.1,0-0.2-0.1-0.3c-0.1-0.1-0.2-0.1-0.3-0.1
			c-0.1,0-0.2,0-0.3,0.1c-0.1,0.1-0.1,0.2-0.1,0.3c0,0.1,0,0.2,0.1,0.3C14,1.6,14.1,1.7,14.2,1.7z"/>
		<path class="st0" d="M6.8,19.3c-0.1,0-0.2,0-0.3,0.1s-0.1,0.2-0.1,0.3c0,0.1,0,0.2,0.1,0.3s0.2,0.1,0.3,0.1c0.1,0,0.2,0,0.3-0.1
			c0.1-0.1,0.1-0.2,0.1-0.3s0-0.2-0.1-0.3C7,19.4,6.9,19.3,6.8,19.3z"/>
	</g>
</g>
</svg>
