<?xml version="1.0" encoding="utf-8"?>
<!-- Generator: Adobe Illustrator 24.0.2, SVG Export Plug-In . SVG Version: 6.00 Build 0)  -->
<svg version="1.1" id="Layer_1" xmlns="http://www.w3.org/2000/svg" xmlns:xlink="http://www.w3.org/1999/xlink" x="0px" y="0px"
	 viewBox="0 0 42 42" style="enable-background:new 0 0 42 42;" xml:space="preserve">
<style type="text/css">
	.st0{fill:#FC6A55;}
	.st1{fill:#EDEDED;}
	.st2{fill:none;stroke:#FC6A55;stroke-miterlimit:10;}
	.st3{stroke:#FFFFFF;stroke-width:0.25;stroke-miterlimit:10;}
	.st4{fill:#656D7A;}
	.st5{fill:#FFFFFF;}
	.st6{filter:url(#Adobe_OpacityMaskFilter);}
	.st7{fill-rule:evenodd;clip-rule:evenodd;fill:#FFFFFF;}
	.st8{mask:url(#mask-2_8_);fill-rule:evenodd;clip-rule:evenodd;}
	.st9{filter:url(#Adobe_OpacityMaskFilter_1_);}
	.st10{mask:url(#mask-2_7_);fill-rule:evenodd;clip-rule:evenodd;}
	.st11{filter:url(#Adobe_OpacityMaskFilter_2_);}
	.st12{mask:url(#mask-2_6_);fill-rule:evenodd;clip-rule:evenodd;}
	.st13{filter:url(#Adobe_OpacityMaskFilter_3_);}
	.st14{mask:url(#mask-2_5_);fill-rule:evenodd;clip-rule:evenodd;}
	.st15{filter:url(#Adobe_OpacityMaskFilter_4_);}
	.st16{mask:url(#mask-2_2_);fill:none;stroke:#000000;stroke-width:2;}
	.st17{fill:#434343;}
	.st18{fill:#434343;stroke:#F9F9F9;stroke-width:0.25;stroke-miterlimit:10;}
	.st19{fill:none;stroke:#FC6A55;stroke-width:0.5;stroke-miterlimit:10;}
	.st20{fill:none;stroke:#FC6A55;stroke-width:0.75;stroke-miterlimit:10;}
	.st21{fill:#FC6A55;stroke:#FC6A55;stroke-width:0.5;stroke-miterlimit:10;}
	.st22{opacity:0.153;fill:url(#Path_146_);enable-background:new    ;}
	.st23{opacity:0.1;fill:#590BB2;enable-background:new    ;}
	.st24{fill:#8E8CA8;}
	.st25{fill:#F5F4F9;}
	.st26{fill:#FFD5B8;}
	.st27{fill:#FC8473;}
	.st28{fill:#1C3475;}
	.st29{fill:#DDD9E4;}
	.st30{fill:#828FB3;}
	.st31{opacity:7.584635e-02;fill:url(#Path_147_);enable-background:new    ;}
	.st32{fill:#FFBE92;}
	.st33{fill:#FB8E7F;}
	.st34{fill:#FDB1A6;}
	.st35{fill:#FC806F;}
	.st36{fill:#FFE783;}
	.st37{fill:#104478;}
	.st38{fill:none;stroke:#FFFFFF;stroke-miterlimit:10;}
	.st39{fill:none;stroke:#000000;stroke-width:0.15;stroke-miterlimit:10;}
	.st40{opacity:0.1;fill:url(#Path_148_);enable-background:new    ;}
	.st41{opacity:0.1;fill:url(#Path_149_);enable-background:new    ;}
</style>
<g id="Management-Hand_1_">
	<path class="st0" d="M16.5,33.3l-0.7,0.1L15,28.7c0-0.1-0.1-0.2-0.2-0.3L8.7,21c-0.6-0.7-1.4-1-2.3-1l-0.8-4.5
		C5.4,14,3.9,13,2.4,13.3c-1.5,0.3-2.5,1.7-2.3,3.2c0,0,0,0,0,0l2.6,15c0,0.2,0.1,0.3,0.2,0.4l3.1,2.8l0.1,0.4l-0.7,0.1
		C5.2,35.3,5,35.6,5,36c0,0,0,0,0,0l1,5.4C6,41.8,6.3,42,6.7,42c0,0,0.1,0,0.1,0l10.9-1.9c0.4-0.1,0.6-0.4,0.6-0.8l-1-5.4
		C17.2,33.4,16.8,33.2,16.5,33.3C16.5,33.3,16.5,33.3,16.5,33.3L16.5,33.3z M7.5,34.1c0-0.2-0.1-0.3-0.2-0.4L4.1,31L1.5,16.2
		c-0.1-0.8,0.4-1.5,1.1-1.6s1.5,0.4,1.6,1.1l0.8,4.7c-1.3,0.8-1.7,2.5-0.9,3.8c0.1,0.1,0.1,0.2,0.2,0.3l5.1,6.1l1.1-0.9l-5.1-6.1
		c-0.5-0.6-0.4-1.5,0.2-1.9c0.1-0.1,0.3-0.2,0.4-0.2c0,0,0.2-0.1,0.2-0.1c0.5-0.1,1,0.1,1.3,0.5l6,7.2l0.8,4.5l-6.8,1.2L7.5,34.1z
		 M7.2,40.5l-0.7-4.1l9.5-1.7l0.7,4.1L7.2,40.5z"/>
	<path class="st0" d="M39.6,13.3c-1.5-0.3-2.9,0.7-3.2,2.2L35.6,20c-0.9,0-1.7,0.3-2.3,1l-6.1,7.3c-0.1,0.1-0.1,0.2-0.2,0.3
		l-0.8,4.7l-0.7-0.1c-0.4-0.1-0.7,0.2-0.8,0.6l-1,5.4c-0.1,0.4,0.2,0.7,0.6,0.8L35.2,42c0,0,0.1,0,0.1,0c0.3,0,0.6-0.2,0.7-0.6
		l1-5.4c0.1-0.4-0.2-0.7-0.6-0.8c0,0,0,0,0,0l-0.7-0.1l0.1-0.4l3.1-2.8c0.1-0.1,0.2-0.2,0.2-0.4l2.6-15C42.1,15,41.1,13.6,39.6,13.3
		L39.6,13.3z M34.8,40.5l-9.5-1.7l0.7-4.1l9.5,1.7L34.8,40.5z M40.5,16.2L37.9,31l-3.1,2.8c-0.1,0.1-0.2,0.2-0.2,0.4l-0.1,0.7
		l-6.8-1.2l0.8-4.5l6-7.2c0.3-0.4,0.8-0.6,1.3-0.5c0,0,0.2,0.1,0.2,0.1c0.1,0.1,0.3,0.1,0.4,0.2c0.6,0.5,0.7,1.4,0.2,1.9l-5.1,6.1
		l1.1,0.9l5.1-6.1c1-1.2,0.8-2.9-0.3-3.9c-0.1-0.1-0.2-0.2-0.3-0.2l0.8-4.7c0.1-0.8,0.8-1.3,1.6-1.1C40.1,14.8,40.6,15.5,40.5,16.2
		L40.5,16.2z"/>
	<path class="st0" d="M24.5,19.2l1.5,1.1c0.3,0.2,0.7,0.2,0.9-0.1l2-2c0.2-0.2,0.3-0.6,0.1-0.9l-1.1-1.5c0.2-0.4,0.3-0.7,0.5-1.1
		l1.9-0.3c0.3,0,0.6-0.3,0.6-0.7v-2.8c0-0.3-0.3-0.6-0.6-0.7l-1.9-0.3c-0.1-0.4-0.3-0.8-0.5-1.1l1.1-1.5c0.2-0.3,0.2-0.7-0.1-0.9
		l-2-2c-0.2-0.2-0.6-0.3-0.9-0.1l-1.5,1.1c-0.4-0.2-0.7-0.3-1.1-0.5l-0.3-1.9c0-0.3-0.3-0.6-0.7-0.6h-2.8c-0.3,0-0.6,0.3-0.7,0.6
		l-0.3,1.9c-0.4,0.1-0.8,0.3-1.1,0.5L16,4.6c-0.3-0.2-0.7-0.2-0.9,0.1l-2,2c-0.2,0.2-0.3,0.6-0.1,0.9L14.2,9
		c-0.2,0.4-0.3,0.7-0.5,1.1l-1.9,0.3c-0.3,0-0.6,0.3-0.6,0.7v2.8c0,0.3,0.3,0.6,0.6,0.7l1.9,0.3c0.1,0.4,0.3,0.8,0.5,1.1l-1.1,1.5
		c-0.2,0.3-0.2,0.7,0.1,0.9l2,2c0.2,0.2,0.6,0.3,0.9,0.1l1.5-1.1c0.4,0.2,0.7,0.3,1.1,0.5l0.3,1.9c0,0.3,0.3,0.6,0.7,0.6h2.8
		c0.3,0,0.6-0.3,0.7-0.6l0.3-1.9C23.7,19.5,24.1,19.4,24.5,19.2z M22.5,18.5c-0.3,0.1-0.5,0.3-0.5,0.6l-0.2,1.7h-1.6L20,19
		c0-0.3-0.2-0.5-0.5-0.6c-0.6-0.1-1.1-0.4-1.6-0.7c-0.2-0.1-0.5-0.1-0.8,0l-1.4,1l-1.1-1.1l1-1.4c0.2-0.2,0.2-0.5,0-0.8
		c-0.3-0.5-0.5-1.1-0.7-1.6c-0.1-0.3-0.3-0.5-0.6-0.5l-1.7-0.2v-1.6l1.7-0.2c0.3,0,0.5-0.2,0.6-0.5c0.1-0.6,0.4-1.1,0.7-1.6
		c0.1-0.2,0.1-0.5,0-0.8l-1-1.4L15.7,6l1.4,1c0.2,0.2,0.5,0.2,0.8,0c0.5-0.3,1.1-0.5,1.6-0.7c0.3-0.1,0.5-0.3,0.5-0.6l0.2-1.7h1.6
		L22,5.8c0,0.3,0.2,0.5,0.5,0.6c0.6,0.1,1.1,0.4,1.6,0.7c0.2,0.1,0.5,0.1,0.8,0l1.4-1l1.1,1.1l-1,1.4c-0.2,0.2-0.2,0.5,0,0.8
		c0.3,0.5,0.5,1.1,0.7,1.6c0.1,0.3,0.3,0.5,0.6,0.5l1.7,0.2v1.6l-1.7,0.2c-0.3,0-0.5,0.2-0.6,0.5c-0.1,0.6-0.4,1.1-0.7,1.6
		c-0.1,0.2-0.1,0.5,0,0.8l1,1.4l-1.1,1.1l-1.4-1c-0.2-0.2-0.5-0.2-0.8,0C23.7,18.1,23.1,18.3,22.5,18.5z"/>
	<path class="st0" d="M21,8.3c-2.3,0-4.1,1.9-4.1,4.1s1.9,4.1,4.1,4.1s4.1-1.9,4.1-4.1C25.1,10.1,23.3,8.3,21,8.3z M21,15.2
		c-1.5,0-2.8-1.2-2.8-2.8s1.2-2.8,2.8-2.8s2.8,1.2,2.8,2.8S22.5,15.2,21,15.2z"/>
	<path class="st0" d="M20.3,5.5h1.4v1.4h-1.4V5.5z"/>
	<path class="st0" d="M15.6,8l1-1l1,1l-1,1L15.6,8z"/>
	<path class="st0" d="M14.1,11.7h1.4v1.4h-1.4V11.7z"/>
	<path class="st0" d="M15.6,16.8l1-1l1,1l-1,1L15.6,16.8z"/>
	<path class="st0" d="M20.3,18h1.4v1.4h-1.4V18z"/>
	<path class="st0" d="M24.4,16.8l1-1l1,1l-1,1L24.4,16.8z"/>
	<path class="st0" d="M26.5,11.7h1.4v1.4h-1.4V11.7z"/>
	<path class="st0" d="M24.4,8l1-1l1,1l-1,1L24.4,8z"/>
	<path class="st0" d="M20.3,0h1.4v1.4h-1.4V0z"/>
	<path class="st0" d="M17.1,0.6l1.3-0.4l0.4,1.3l-1.3,0.4L17.1,0.6z"/>
	<path class="st0" d="M14.2,2l1.2-0.7l0.7,1.2l-1.2,0.7L14.2,2z"/>
	<path class="st0" d="M11.7,4.1l1-1l1,1l-1,1L11.7,4.1z"/>
	<path class="st0" d="M9.9,6.8l0.7-1.2l1.2,0.7l-0.7,1.2L9.9,6.8z"/>
	<path class="st0" d="M8.8,9.9l0.4-1.3l1.3,0.4l-0.4,1.3L8.8,9.9z"/>
	<path class="st0" d="M8.6,11.7h1.4v1.4H8.6V11.7z"/>
	<path class="st0" d="M8.8,15l1.3-0.4l0.4,1.3l-1.3,0.4L8.8,15z"/>
	<path class="st0" d="M9.9,18.1l1.2-0.7l0.7,1.2l-1.2,0.7L9.9,18.1z"/>
	<path class="st0" d="M11.7,20.7l1-1l1,1l-1,1L11.7,20.7z"/>
	<path class="st0" d="M14.2,22.9l0.7-1.2l1.2,0.7l-0.7,1.2L14.2,22.9z"/>
	<path class="st0" d="M17.1,24.3l0.4-1.3l1.3,0.4l-0.4,1.3L17.1,24.3z"/>
	<path class="st0" d="M20.3,23.5h1.4v1.4h-1.4V23.5z"/>
	<path class="st0" d="M23.2,23.3l1.3-0.4l0.4,1.3l-1.3,0.4L23.2,23.3z"/>
	<path class="st0" d="M25.9,22.4l1.2-0.7l0.7,1.2l-1.2,0.7L25.9,22.4z"/>
	<path class="st0" d="M28.3,20.7l1-1l1,1l-1,1L28.3,20.7z"/>
	<path class="st0" d="M30.2,18.6l0.7-1.2l1.2,0.7l-0.7,1.2L30.2,18.6z"/>
	<path class="st0" d="M31.5,16l0.4-1.3l1.3,0.4l-0.4,1.3L31.5,16z"/>
	<path class="st0" d="M32.1,11.7h1.4v1.4h-1.4V11.7z"/>
	<path class="st0" d="M31.5,8.9l1.3-0.4l0.4,1.3l-1.3,0.4L31.5,8.9z"/>
	<path class="st0" d="M30.2,6.3l1.2-0.7l0.7,1.2l-1.2,0.7L30.2,6.3z"/>
	<path class="st0" d="M28.3,4.1l1-1l1,1l-1,1L28.3,4.1z"/>
	<path class="st0" d="M25.9,2.5l0.7-1.2L27.8,2l-0.7,1.2L25.9,2.5z"/>
	<path class="st0" d="M23.2,1.6l0.4-1.3l1.3,0.4l-0.4,1.3L23.2,1.6z"/>
</g>
</svg>
