<?xml version="1.0" encoding="utf-8"?>
<!-- Generator: Adobe Illustrator 24.0.2, SVG Export Plug-In . SVG Version: 6.00 Build 0)  -->
<svg version="1.1" id="Layer_1" xmlns="http://www.w3.org/2000/svg" xmlns:xlink="http://www.w3.org/1999/xlink" x="0px" y="0px"
	 viewBox="0 0 42 42" style="enable-background:new 0 0 42 42;" xml:space="preserve">
<style type="text/css">
	.st0{fill:#FC6A55;}
	.st1{fill:#EDEDED;}
	.st2{fill:none;stroke:#FC6A55;stroke-miterlimit:10;}
	.st3{stroke:#FFFFFF;stroke-width:0.25;stroke-miterlimit:10;}
	.st4{fill:#656D7A;}
	.st5{fill:#FFFFFF;}
	.st6{filter:url(#Adobe_OpacityMaskFilter);}
	.st7{fill-rule:evenodd;clip-rule:evenodd;fill:#FFFFFF;}
	.st8{mask:url(#mask-2_8_);fill-rule:evenodd;clip-rule:evenodd;}
	.st9{filter:url(#Adobe_OpacityMaskFilter_1_);}
	.st10{mask:url(#mask-2_7_);fill-rule:evenodd;clip-rule:evenodd;}
	.st11{filter:url(#Adobe_OpacityMaskFilter_2_);}
	.st12{mask:url(#mask-2_6_);fill-rule:evenodd;clip-rule:evenodd;}
	.st13{filter:url(#Adobe_OpacityMaskFilter_3_);}
	.st14{mask:url(#mask-2_5_);fill-rule:evenodd;clip-rule:evenodd;}
	.st15{filter:url(#Adobe_OpacityMaskFilter_4_);}
	.st16{mask:url(#mask-2_2_);fill:none;stroke:#000000;stroke-width:2;}
	.st17{fill:#434343;}
	.st18{fill:#434343;stroke:#F9F9F9;stroke-width:0.25;stroke-miterlimit:10;}
	.st19{fill:none;stroke:#FC6A55;stroke-width:0.5;stroke-miterlimit:10;}
	.st20{fill:none;stroke:#FC6A55;stroke-width:0.75;stroke-miterlimit:10;}
	.st21{fill:#FC6A55;stroke:#FC6A55;stroke-width:0.5;stroke-miterlimit:10;}
	.st22{opacity:0.153;fill:url(#Path_146_);enable-background:new    ;}
	.st23{opacity:0.1;fill:#590BB2;enable-background:new    ;}
	.st24{fill:#8E8CA8;}
	.st25{fill:#F5F4F9;}
	.st26{fill:#FFD5B8;}
	.st27{fill:#FC8473;}
	.st28{fill:#1C3475;}
	.st29{fill:#DDD9E4;}
	.st30{fill:#828FB3;}
	.st31{opacity:7.584635e-02;fill:url(#Path_147_);enable-background:new    ;}
	.st32{fill:#FFBE92;}
	.st33{fill:#FB8E7F;}
	.st34{fill:#FDB1A6;}
	.st35{fill:#FC806F;}
	.st36{fill:#FFE783;}
	.st37{fill:#104478;}
	.st38{fill:none;stroke:#FFFFFF;stroke-miterlimit:10;}
	.st39{fill:none;stroke:#000000;stroke-width:0.15;stroke-miterlimit:10;}
	.st40{opacity:0.1;fill:url(#Path_148_);enable-background:new    ;}
	.st41{opacity:0.1;fill:url(#Path_149_);enable-background:new    ;}
</style>
<g>
	<path class="st0" d="M41.9,19.4c0-0.1,0-0.1,0-0.2c0-0.1,0-0.1,0-0.2l-0.1-0.2c-0.6-5.5-3.3-10.6-7.6-14.1c-0.3-0.3-0.6-0.5-1-0.7
		c0,0,0,0,0,0c0,0,0,0,0,0C29.7,1.4,25.4,0,21,0c-0.2,0-0.4,0-0.5,0c-2.3,0-4.7,0.5-6.9,1.3C11.7-0.1,9.1-0.4,7,0.6S3.4,3.9,3.4,6.3
		c0,0.8,0.2,1.6,0.6,2.3c-0.7,1-1.3,2-1.9,3.1c0,0,0,0,0,0.1c-5,10.3-0.8,22.7,9.3,27.9C21.6,44.9,34,41.1,39.5,31
		c1.5-2.8,2.3-5.8,2.5-9c0-0.3,0-0.7,0-1C42,20.5,42,20,41.9,19.4z M39.9,15.8c-0.1-0.1-0.2-0.2-0.3-0.2c-0.9-0.7-2-1.2-3.1-1.5
		c-1-0.3-2.1-0.3-3.1,0c-0.9,0.2-1.8,0.2-2.6,0c-1.7-0.4-3-0.7-3.7-1.8c-1-1.6-0.5-3.9,0.5-4.7c0.4-0.2,0.8-0.3,1.2-0.3
		c0.7,0.1,1.5-0.1,2.2-0.4c0.7-0.3,1.4-0.8,1.9-1.4c0.1,0.1,0.3,0.2,0.4,0.3C36.5,8.4,38.8,11.9,39.9,15.8z M9.8,1.4
		c2.7,0,4.9,2.2,4.9,4.9c0,2.1-3.2,6.9-4.9,9.3C8.1,13.4,6.6,11,5.4,8.5C5.1,7.8,4.9,7.1,4.8,6.3C4.8,3.6,7,1.4,9.8,1.4z M1.3,21
		c0-1.3,0.1-2.6,0.4-3.9c0.1,1,0.2,1.8,0.3,2.6c0.4,2.9,0.8,5.6,3,8.1c0.9,1,2.4,2.8,4.7,3s5.2-1.1,6-1.5l0.3-0.2
		c0.4-0.3,0.9-0.4,1.5-0.5c0.9,0.1,1.7,0.5,2.3,1.2c1.2,1.3,1.5,3.5,0.6,4.7c-0.3,0.4-0.6,0.6-1.1,0.7c-0.7,0.2-1.4,0.7-1.8,1.4
		c-0.6,1.1-0.7,2.3-0.3,3.5C8,38.5,1.4,30.5,1.3,21z M21,40.7c-0.7,0-1.4,0-2-0.1c-0.1-0.1-0.1-0.2-0.2-0.2c-0.5-0.9-0.5-1.9,0-2.8
		c0.3-0.4,0.6-0.7,1.1-0.8c0.7-0.2,1.3-0.7,1.7-1.2c1.2-1.7,0.9-4.7-0.8-6.5c-0.8-1-2-1.6-3.3-1.6h0c-0.7,0-1.5,0.2-2.1,0.6
		l-0.3,0.2c-1.5,0.8-3.7,1.5-5.2,1.3c-1.7-0.2-3-1.6-3.8-2.6c-1.9-2.2-2.2-4.6-2.6-7.4C3,17.2,3,14.7,3.4,12.3
		c0.4-0.8,0.8-1.5,1.3-2.2c0,0,0,0.1,0.1,0.1c0,0.1,0.1,0.2,0.1,0.3c0.1,0.1,0.1,0.3,0.2,0.4c0,0.1,0.1,0.2,0.1,0.3
		c0.1,0.1,0.1,0.3,0.2,0.4c0.1,0.1,0.1,0.2,0.2,0.3c0.1,0.1,0.2,0.3,0.2,0.4c0.1,0.1,0.1,0.2,0.2,0.3c0.1,0.1,0.2,0.3,0.3,0.4
		c0,0.1,0.1,0.2,0.1,0.2c0.1,0.2,0.2,0.3,0.3,0.5c0,0,0.1,0.1,0.1,0.1C6.9,14,7,14.2,7.2,14.4c0,0.1,0.1,0.1,0.1,0.2
		c0.1,0.1,0.2,0.2,0.2,0.3l0.2,0.2c0.1,0.1,0.1,0.2,0.2,0.3L8,15.7c0.1,0.1,0.1,0.1,0.2,0.2c0,0.1,0.1,0.2,0.2,0.2
		c0.1,0.1,0.1,0.1,0.1,0.2l0.1,0.2l0.1,0.2l0.1,0.2l0.1,0.1L9,17l0.1,0.1c0.1,0.1,0.1,0.1,0.1,0.2c0.1,0.2,0.3,0.3,0.6,0.3
		s0.4-0.1,0.6-0.3c0.6-0.8,5.8-7.7,5.8-10.9c0-0.2,0-0.4,0-0.6c0-0.1,0-0.1,0-0.2c0-0.1,0-0.3-0.1-0.4c0-0.1,0-0.1,0-0.2
		c0-0.1-0.1-0.3-0.1-0.4c0-0.1,0-0.1-0.1-0.2c-0.1-0.2-0.1-0.4-0.2-0.6c0,0,0-0.1-0.1-0.1c-0.1-0.1-0.1-0.3-0.2-0.4
		c0-0.1-0.1-0.1-0.1-0.2c-0.1-0.1-0.1-0.2-0.2-0.3c0-0.1-0.1-0.1-0.1-0.2c0,0,0-0.1-0.1-0.1c1.5-0.5,3-0.8,4.5-0.9
		c-1.1,2.1-1.5,4-1,5.7c0.3,1.1,0.9,2.2,1.7,3.1c0.7,0.8,1.1,1.4,1.1,2.4c-0.1,2-2.4,3.7-3.2,4.4c-1.1,0.8-2.4,1.4-3.8,1.8
		c-1.3,0.4-2.4,0.8-2.8,2c-0.4,1.7,0.3,3.4,1.7,4.3c0.9,0.5,1.9,0.6,2.8,0.2c1-0.2,2.1-0.3,3.1-0.1c1.3,0.2,2.5,0.4,3,1.1
		c0.3,0.5,0.3,0.9,0.2,1.8c-0.1,1.2,0,2.5,0.4,3.6c0.3,1,0.8,2.4,2,2.6c0.1,0,0.2,0,0.2,0c0.8,0,1.3-0.7,1.9-1.5
		c0.2-0.3,0.5-0.7,0.8-1.1c1.4,2.3,2.9,4.3,3,4.4c0.1,0.2,0.3,0.3,0.6,0.3c0.2,0,0.4-0.1,0.6-0.3c1.5-2,2.9-4.2,4.2-6.4
		c0.9,0.2,1.7,0.6,2.4,1.1C34.4,37,28,40.7,21,40.7z M34.1,21.6c1,0.9,1.6,2.3,1.6,3.7c0,0.5-0.2,1.5-1.2,3.4
		c-1.1,2.1-2.4,4-3.7,5.9C30.1,33.7,29,32,28,30.3c-0.6-0.9-1.1-1.9-1.5-2.9c-0.3-0.7-0.5-1.4-0.6-2.1c0-2.7,2.2-4.9,4.9-4.9
		c0.2,0,0.3,0,0.5,0C32.3,20.5,33.3,20.9,34.1,21.6z M40.6,22c-0.1,2.7-0.8,5.3-2,7.7c-0.8-0.5-1.6-0.9-2.5-1.1c0.5-1,0.9-2.1,1-3.3
		c0-2.4-1.4-4.6-3.5-5.7l0,0c-0.2-0.1-0.3-0.1-0.5-0.2c-0.1,0-0.2-0.1-0.3-0.1c-0.1,0-0.1,0-0.2-0.1c-0.2-0.1-0.4-0.1-0.5-0.1h0
		c-0.1,0-0.2,0-0.3,0c-1.8-0.2-3.6,0.3-5,1.5c-1.4,1.2-2.1,2.9-2.1,4.8c0.1,0.9,0.3,1.9,0.7,2.7c0.4,0.9,0.8,1.8,1.3,2.6
		c-0.4,0.5-0.8,1-1.2,1.5c-0.2,0.3-0.4,0.6-0.7,0.9c-0.1,0-0.4-0.3-0.8-1.6c-0.3-1-0.4-2.1-0.3-3.1c0.2-0.9,0-1.9-0.5-2.7
		c-0.9-1.3-2.5-1.5-4-1.7c-1.2-0.2-2.4-0.1-3.5,0.2c-0.9,0.2-1.3,0.2-1.8-0.1c-0.9-0.6-1.3-1.7-1.1-2.7c0.2-0.6,0.7-0.8,1.9-1.1
		c1.5-0.4,2.9-1.1,4.2-2c1-0.7,3.7-2.7,3.8-5.5c0-1.5-0.7-2.4-1.4-3.3c-0.7-0.7-1.1-1.6-1.4-2.5c-0.4-1.6,0.1-3.4,1.3-5.4H21
		c3.9,0,7.6,1.1,10.9,3.3c-0.4,0.4-0.8,0.8-1.3,1C30,5.9,29.5,6,29,5.9c-0.7-0.1-1.5,0.1-2.1,0.5c-1.6,1.2-2.3,4.3-0.9,6.5
		c1,1.6,2.8,2,4.7,2.4c1,0.2,2.1,0.2,3.1,0c0.8-0.2,1.7-0.2,2.5,0c0.9,0.3,1.8,0.7,2.5,1.3c0.8,0.7,1.4,1.5,1.7,2.5
		c0.1,0.6,0.1,1.2,0.1,1.9C40.6,21.4,40.6,21.7,40.6,22L40.6,22z"/>
	<path class="st0" d="M9.8,8.4c1.5,0,2.8-1.3,2.8-2.8c0-1.5-1.3-2.8-2.8-2.8S7,4.1,7,5.6C7,7.2,8.2,8.4,9.8,8.4z M9.8,4.2
		c0.8,0,1.4,0.6,1.4,1.4S10.5,7,9.8,7C9,7,8.4,6.4,8.4,5.6S9,4.2,9.8,4.2z"/>
	<path class="st0" d="M28,24.5c0,1.5,1.3,2.8,2.8,2.8c1.5,0,2.8-1.3,2.8-2.8c0-1.5-1.3-2.8-2.8-2.8C29.2,21.7,28,23,28,24.5z
		 M32.2,24.5c0,0.8-0.6,1.4-1.4,1.4c-0.8,0-1.4-0.6-1.4-1.4c0-0.8,0.6-1.4,1.4-1.4C31.6,23.1,32.2,23.8,32.2,24.5z"/>
</g>
</svg>
