<?xml version="1.0" encoding="utf-8"?>
<!-- Generator: Adobe Illustrator 24.1.1, SVG Export Plug-In . SVG Version: 6.00 Build 0)  -->
<svg version="1.1" id="Layer_1" xmlns="http://www.w3.org/2000/svg" xmlns:xlink="http://www.w3.org/1999/xlink" x="0px" y="0px"
	 viewBox="0 0 42 42" style="enable-background:new 0 0 42 42;" xml:space="preserve">
<style type="text/css">
	.st0{fill:#FC6A55;}
	.st1{fill:#EDEDED;}
	.st2{fill:none;stroke:#FC6A55;stroke-miterlimit:10;}
	.st3{fill:#222F3F;}
	.st4{fill:#383838;}
	.st5{fill:#FFFFFF;}
	.st6{fill:#656D7A;}
	.st7{fill:#C4C4C4;}
	.st8{filter:url(#Adobe_OpacityMaskFilter);}
	.st9{fill-rule:evenodd;clip-rule:evenodd;fill:#FFFFFF;}
	.st10{mask:url(#mask-2_8_);fill-rule:evenodd;clip-rule:evenodd;fill:#FFFFFF;}
	.st11{filter:url(#Adobe_OpacityMaskFilter_1_);}
	.st12{mask:url(#mask-2_7_);fill-rule:evenodd;clip-rule:evenodd;fill:#FFFFFF;}
	.st13{filter:url(#Adobe_OpacityMaskFilter_2_);}
	.st14{mask:url(#mask-2_6_);fill-rule:evenodd;clip-rule:evenodd;fill:#FFFFFF;}
	.st15{filter:url(#Adobe_OpacityMaskFilter_3_);}
	.st16{mask:url(#mask-2_5_);fill-rule:evenodd;clip-rule:evenodd;fill:#FFFFFF;}
	.st17{filter:url(#Adobe_OpacityMaskFilter_4_);}
	.st18{mask:url(#mask-2_2_);fill:none;stroke:#FFFFFF;stroke-width:1.5;stroke-miterlimit:10;}
	.st19{fill:#B4A3EE;}
	.st20{fill:#434343;}
	.st21{fill:#434343;stroke:#F9F9F9;stroke-width:0.25;stroke-miterlimit:10;}
	.st22{fill:none;stroke:#FC6A55;stroke-width:0.75;stroke-miterlimit:10;}
	.st23{fill:#FC6A55;stroke:#FC6A55;stroke-width:0.25;stroke-miterlimit:10;}
	.st24{fill:#FC6A55;stroke:#FC6A55;stroke-width:0.5;stroke-miterlimit:10;}
	.st25{opacity:0.153;fill:url(#Path_44_);enable-background:new    ;}
	.st26{opacity:0.1;fill:#590BB2;enable-background:new    ;}
	.st27{fill:#8E8CA8;}
	.st28{fill:#F5F4F9;}
	.st29{fill:#FFD5B8;}
	.st30{fill:#FC8473;}
	.st31{fill:#1C3475;}
	.st32{fill:#DDD9E4;}
	.st33{fill:#828FB3;}
	.st34{opacity:7.584635e-02;fill:url(#Path_45_);enable-background:new    ;}
	.st35{fill:#FFBE92;}
	.st36{fill:#FB8E7F;}
	.st37{fill:#FDB1A6;}
	.st38{fill:#FC806F;}
	.st39{fill:#FFE783;}
	.st40{fill:#104478;}
	.st41{fill:none;stroke:#FFFFFF;stroke-miterlimit:10;}
	.st42{fill:none;stroke:#000000;stroke-width:0.15;stroke-miterlimit:10;}
	.st43{opacity:0.1;fill:url(#Path_46_);enable-background:new    ;}
	.st44{opacity:0.1;fill:url(#Path_47_);enable-background:new    ;}
	.st45{font-family:'Roboto-Regular';}
	.st46{font-size:4.9486px;}
	.st47{font-family:'Roboto-Bold';}
	.st48{font-size:7.5367px;}
	.st49{font-size:4px;}
	.st50{fill-rule:evenodd;clip-rule:evenodd;fill:#FC6A55;}
	.st51{fill-rule:evenodd;clip-rule:evenodd;}
	.st52{fill:#FF6757;}
	.st53{fill:#666666;}
	.st54{fill:none;stroke:#FFFFFF;stroke-width:0.5;stroke-miterlimit:10;}
	.st55{fill:#606060;}
	.st56{fill:#F16A56;}
	.st57{fill:#515252;}
	.st58{fill:#F26A56;}
	.st59{fill:none;stroke:#F16A56;stroke-miterlimit:10;}
	.st60{fill:none;stroke:#929292;stroke-miterlimit:10;}
	.st61{fill:#929292;}
	.st62{fill:none;stroke:#000000;stroke-width:0.5;stroke-miterlimit:10;}
	.st63{fill:#A8A7A7;}
	.st64{fill:#F79F91;}
	.st65{fill:#9BDBD5;}
	.st66{fill:#222121;}
	.st67{stroke:#000000;stroke-width:0.25;stroke-miterlimit:10;}
</style>
<g>
	<polygon class="st0" points="39.6,23.4 42,21 39.6,18.6 41.3,15.6 38.3,13.8 39.2,10.5 35.8,9.6 35.8,6.2 32.4,6.2 31.5,2.8 
		28.2,3.7 26.4,0.7 23.4,2.4 21,0 18.6,2.4 15.6,0.7 13.8,3.7 10.5,2.8 9.6,6.2 6.2,6.2 6.2,9.6 2.8,10.5 3.7,13.8 0.7,15.6 
		2.4,18.6 0,21 2.4,23.4 0.7,26.4 3.7,28.2 2.8,31.5 6.2,32.4 6.2,35.8 9.6,35.8 10.5,39.2 13.8,38.3 15.6,41.3 18.6,39.6 21,42 
		23.4,39.6 26.4,41.3 28.2,38.3 31.5,39.2 32.4,35.8 35.8,35.8 35.8,32.4 39.2,31.5 38.3,28.2 41.3,26.4 	"/>
	<circle class="st1" cx="21" cy="21" r="17.3"/>
	<ellipse transform="matrix(0.1677 -0.9858 0.9858 0.1677 -3.2235 38.182)" class="st2" cx="21" cy="21" rx="16.5" ry="16.5"/>
	<polygon class="st0" points="21.1,5.2 21.4,5.8 22,5.9 21.5,6.4 21.6,7 21.1,6.7 20.5,7 20.6,6.4 20.1,5.9 20.8,5.8 	"/>
	<polygon class="st0" points="17,5.8 17.4,6.2 18.1,6.2 17.7,6.7 18,7.3 17.4,7.2 16.9,7.6 16.8,7 16.3,6.6 16.9,6.4 	"/>
	<polygon class="st0" points="13.2,7.3 13.7,7.7 14.3,7.4 14.2,8.1 14.6,8.6 13.9,8.6 13.6,9.1 13.3,8.5 12.7,8.4 13.2,8 	"/>
	<polygon class="st0" points="9.9,9.8 10.5,10 11,9.6 11,10.3 11.6,10.6 10.9,10.8 10.8,11.5 10.4,10.9 9.7,10.9 10.1,10.4 	"/>
	<polygon class="st0" points="7.4,13.1 8,13.1 8.4,12.6 8.6,13.2 9.2,13.4 8.7,13.8 8.6,14.4 8.1,14 7.5,14.2 7.7,13.6 	"/>
	<polygon class="st0" points="5.8,16.8 6.4,16.7 6.7,16.1 7,16.7 7.6,16.8 7.2,17.2 7.4,17.9 6.8,17.6 6.2,17.9 6.3,17.3 	"/>
	<polygon class="st0" points="5.2,20.9 5.8,20.6 5.9,20 6.4,20.5 7,20.4 6.7,20.9 7,21.5 6.4,21.4 5.9,21.9 5.8,21.2 	"/>
	<polygon class="st0" points="5.8,25 6.2,24.6 6.2,23.9 6.7,24.3 7.3,24 7.2,24.6 7.6,25.1 7,25.2 6.6,25.7 6.4,25.1 	"/>
	<polygon class="st0" points="7.3,28.8 7.7,28.3 7.4,27.7 8.1,27.8 8.6,27.4 8.6,28.1 9.1,28.4 8.5,28.7 8.4,29.3 8,28.8 	"/>
	<polygon class="st0" points="9.8,32.1 10,31.5 9.6,31 10.3,31 10.6,30.4 10.8,31.1 11.5,31.2 10.9,31.6 10.9,32.3 10.4,31.9 	"/>
	<polygon class="st0" points="13.1,34.6 13.1,34 12.6,33.6 13.2,33.4 13.4,32.8 13.8,33.3 14.4,33.4 14,33.9 14.2,34.5 13.6,34.3 	
		"/>
	<polygon class="st0" points="16.8,36.2 16.7,35.6 16.1,35.3 16.7,35 16.8,34.4 17.2,34.8 17.9,34.6 17.6,35.2 17.9,35.8 17.3,35.7 
			"/>
	<polygon class="st0" points="20.9,36.8 20.6,36.2 20,36.1 20.5,35.6 20.4,35 20.9,35.3 21.5,35 21.4,35.6 21.9,36.1 21.2,36.2 	"/>
	<polygon class="st0" points="25,36.2 24.6,35.8 23.9,35.8 24.3,35.3 24,34.7 24.6,34.8 25.1,34.4 25.2,35 25.7,35.4 25.1,35.6 	"/>
	<polygon class="st0" points="28.8,34.7 28.3,34.3 27.7,34.6 27.8,33.9 27.4,33.4 28.1,33.4 28.4,32.9 28.7,33.5 29.3,33.6 28.8,34 
			"/>
	<polygon class="st0" points="32.1,32.2 31.5,32 31,32.4 31,31.7 30.4,31.4 31.1,31.2 31.2,30.5 31.6,31.1 32.3,31.1 31.9,31.6 	"/>
	<polygon class="st0" points="34.6,28.9 34,28.9 33.6,29.4 33.4,28.8 32.8,28.6 33.3,28.2 33.4,27.6 33.9,28 34.5,27.8 34.3,28.4 	
		"/>
	<polygon class="st0" points="36.2,25.2 35.6,25.3 35.3,25.9 35,25.3 34.4,25.2 34.8,24.8 34.6,24.1 35.2,24.4 35.8,24.1 35.7,24.7 
			"/>
	<polygon class="st0" points="36.8,21.1 36.2,21.4 36.1,22 35.6,21.5 35,21.6 35.3,21.1 35,20.5 35.6,20.6 36.1,20.1 36.2,20.8 	"/>
	<polygon class="st0" points="36.2,17 35.8,17.4 35.8,18.1 35.3,17.7 34.7,18 34.8,17.4 34.4,16.9 35,16.8 35.4,16.3 35.6,16.9 	"/>
	<polygon class="st0" points="34.7,13.2 34.3,13.7 34.6,14.3 33.9,14.2 33.4,14.6 33.4,13.9 32.9,13.6 33.5,13.3 33.6,12.7 34,13.2 
			"/>
	<polygon class="st0" points="32.2,9.9 32,10.5 32.4,11 31.7,11 31.4,11.6 31.2,10.9 30.5,10.8 31.1,10.4 31.1,9.7 31.6,10.1 	"/>
	<polygon class="st0" points="28.9,7.4 28.9,8 29.4,8.4 28.8,8.6 28.6,9.2 28.2,8.7 27.6,8.6 28,8.1 27.8,7.5 28.4,7.7 	"/>
	<polygon class="st0" points="25.2,5.8 25.3,6.4 25.9,6.7 25.3,7 25.2,7.6 24.8,7.2 24.1,7.4 24.4,6.8 24.1,6.2 24.7,6.3 	"/>
</g>
<g>
	<g>
		<text transform="matrix(1 0 0 1 9.9009 15.5762)" class="st0 st45 st46">Achieved</text>
	</g>
	<g>
		<text transform="matrix(1 0 0 1 10.6475 23.958)" class="st0 st47 st48">HIPAA</text>
	</g>
	<g>
		<text transform="matrix(1 0 0 1 10.6548 29.958)" class="st0 st45 st49">Compliance</text>
	</g>
</g>
</svg>
