<?xml version="1.0" encoding="utf-8"?>
<!-- Generator: Adobe Illustrator 24.1.1, SVG Export Plug-In . SVG Version: 6.00 Build 0)  -->
<svg version="1.1" id="Layer_1" xmlns="http://www.w3.org/2000/svg" xmlns:xlink="http://www.w3.org/1999/xlink" x="0px" y="0px"
	 viewBox="0 0 86 73" style="enable-background:new 0 0 86 73;" xml:space="preserve">
<style type="text/css">
	.st0{fill:#FC6A55;}
	.st1{fill:#EDEDED;}
	.st2{fill:none;stroke:#FC6A55;stroke-miterlimit:10;}
	.st3{fill:#222F3F;}
	.st4{fill:#383838;}
	.st5{fill:#FFFFFF;}
	.st6{fill:#656D7A;}
	.st7{fill:#C4C4C4;}
	.st8{filter:url(#Adobe_OpacityMaskFilter);}
	.st9{fill-rule:evenodd;clip-rule:evenodd;fill:#FFFFFF;}
	.st10{mask:url(#mask-2_8_);fill-rule:evenodd;clip-rule:evenodd;fill:#FFFFFF;}
	.st11{filter:url(#Adobe_OpacityMaskFilter_1_);}
	.st12{mask:url(#mask-2_7_);fill-rule:evenodd;clip-rule:evenodd;fill:#FFFFFF;}
	.st13{filter:url(#Adobe_OpacityMaskFilter_2_);}
	.st14{mask:url(#mask-2_6_);fill-rule:evenodd;clip-rule:evenodd;fill:#FFFFFF;}
	.st15{filter:url(#Adobe_OpacityMaskFilter_3_);}
	.st16{mask:url(#mask-2_5_);fill-rule:evenodd;clip-rule:evenodd;fill:#FFFFFF;}
	.st17{filter:url(#Adobe_OpacityMaskFilter_4_);}
	.st18{mask:url(#mask-2_2_);fill:none;stroke:#FFFFFF;stroke-width:1.5;stroke-miterlimit:10;}
	.st19{fill:#B4A3EE;}
	.st20{fill:#434343;}
	.st21{fill:#434343;stroke:#F9F9F9;stroke-width:0.25;stroke-miterlimit:10;}
	.st22{fill:none;stroke:#FC6A55;stroke-width:0.75;stroke-miterlimit:10;}
	.st23{fill:#FC6A55;stroke:#FC6A55;stroke-width:0.25;stroke-miterlimit:10;}
	.st24{fill:#FC6A55;stroke:#FC6A55;stroke-width:0.5;stroke-miterlimit:10;}
	.st25{opacity:0.5;fill:#FC6A55;}
	.st26{fill:#F5F4F9;}
	.st27{opacity:0.153;fill:url(#Path_144_);enable-background:new    ;}
	.st28{opacity:0.1;fill:#590BB2;enable-background:new    ;}
	.st29{fill:#8E8CA8;}
	.st30{fill:#FFD5B8;}
	.st31{fill:#FC8473;}
	.st32{fill:#1C3475;}
	.st33{fill:#DDD9E4;}
	.st34{fill:#828FB3;}
	.st35{opacity:7.584635e-02;fill:url(#Path_145_);enable-background:new    ;}
	.st36{fill:#FFBE92;}
	.st37{fill:#FB8E7F;}
	.st38{fill:#FDB1A6;}
	.st39{fill:#FC806F;}
	.st40{fill:#FFE783;}
	.st41{fill:#104478;}
	.st42{fill:none;stroke:#FFFFFF;stroke-miterlimit:10;}
	.st43{fill:none;stroke:#000000;stroke-width:0.15;stroke-miterlimit:10;}
	.st44{opacity:0.3;fill:#FC6A55;}
	.st45{opacity:0.1;fill:url(#Path_147_);enable-background:new    ;}
	.st46{opacity:0.1;fill:url(#Path_150_);enable-background:new    ;}
	.st47{fill-rule:evenodd;clip-rule:evenodd;fill:#FC6A55;}
	.st48{fill-rule:evenodd;clip-rule:evenodd;}
	.st49{fill:#FF6757;}
	.st50{fill:#6C973D;}
	.st51{fill:none;stroke:#FFFFFF;stroke-width:0.5;stroke-miterlimit:10;}
	.st52{fill:#606060;}
	.st53{fill:#F16A56;}
	.st54{fill:#515252;}
	.st55{fill:#656565;}
	.st56{fill:#F26A56;}
	.st57{fill:none;stroke:#F16A56;stroke-miterlimit:10;}
	.st58{fill:none;stroke:#929292;stroke-miterlimit:10;}
	.st59{fill:#929292;}
	.st60{fill:none;stroke:#000000;stroke-width:0.5;stroke-miterlimit:10;}
	.st61{fill:#A8A7A7;}
	.st62{opacity:0.4;fill:#FC6A55;}
	.st63{fill:#F79F91;}
	.st64{fill:#9BDBD5;}
	.st65{fill:#222121;}
	.st66{stroke:#000000;stroke-width:0.25;stroke-miterlimit:10;}
</style>
<polygon id="Path_196_" class="st5" points="52.5,72 33.5,72 37.3,56.9 48.7,56.9 "/>
<path id="Path_194_" class="st5" d="M76.6,14.5v42.7c0,1.4-1.1,2.5-2.5,2.5H11.9c-1.4,0-2.5-1.1-2.5-2.5V14.5c0-1.4,1.1-2.5,2.5-2.5
	h62.1C75.5,12,76.6,13.2,76.6,14.5z"/>
<polygon id="Path_192_" class="st5" points="38.2,27.8 47.8,27.8 47.8,51.3 38.2,51.3 "/>
<path id="Path_190_" class="st5" d="M76.6,20.1v-5.6c0-1.4-1.1-2.5-2.5-2.5H11.9c-1.4,0-2.5,1.1-2.5,2.5v5.6H76.6z"/>
<path id="Path_189_" class="st5" d="M9.4,51.3v5.9c0,1.4,1.1,2.5,2.5,2.5h62.1c1.4,0,2.5-1.1,2.5-2.5v-5.9H9.4z"/>
<path id="Path_188_" class="st5" d="M56.6,20c0,7.5-6.1,13.6-13.6,13.6c-7.5,0-13.7-6.3-13.6-13.8c0.1-4.3,2.1-8.2,5.4-10.6
	c1.1-0.8,2.7-0.1,2.7,1.3v5.8c0,0.9,0.8,1.7,1.7,1.7h7.7c0.9,0,1.7-0.8,1.7-1.7v-5.8c0-1.4,1.6-2.2,2.7-1.3
	C54.5,11.6,56.6,15.6,56.6,20L56.6,20z"/>
<path id="Path_187_" class="st0" d="M15.8,16.9c0.5,0,0.8-0.4,0.8-0.8v0c0-0.5-0.4-0.8-0.8-0.8c-0.5,0-0.8,0.4-0.8,0.8v0
	C15,16.5,15.3,16.9,15.8,16.9z"/>
<path id="Path_186_" class="st0" d="M19,16.9c0.5,0,0.8-0.4,0.8-0.8v0c0-0.5-0.4-0.8-0.8-0.8s-0.8,0.4-0.8,0.8v0
	C18.2,16.5,18.6,16.9,19,16.9z"/>
<path id="Path_185_" class="st0" d="M22.3,16.9c0.5,0,0.8-0.4,0.8-0.8v0c0-0.5-0.4-0.8-0.8-0.8c-0.5,0-0.8,0.4-0.8,0.8v0
	C21.5,16.5,21.8,16.9,22.3,16.9z"/>
<path id="Shape_105_" class="st0" d="M74.1,11.2H54.5c-0.8-1-1.7-1.9-2.7-2.7C51,7.9,50,7.8,49.1,8.2c-0.9,0.4-1.4,1.3-1.4,2.3v0.7
	h-5.6c-0.5,0-0.8,0.4-0.8,0.8c0,0.5,0.4,0.8,0.8,0.8h5.6v3.4c0,0.5-0.4,0.8-0.8,0.8h-7.7c-0.5,0-0.8-0.4-0.8-0.8v-5.8
	c0-1-0.5-1.8-1.4-2.3C36,7.8,35,7.9,34.2,8.5c-1,0.8-1.9,1.7-2.7,2.7H11.9c-1.9,0-3.4,1.5-3.4,3.4v42.7c0,1.9,1.5,3.4,3.4,3.4h23.6
	l-2.7,10.5h-2.6c-0.5,0-0.8,0.4-0.8,0.8s0.4,0.8,0.8,0.8h25.5c0.5,0,0.8-0.4,0.8-0.8s-0.4-0.8-0.8-0.8h-2.6l-2.7-10.5h23.6
	c1.9,0,3.4-1.5,3.4-3.4V14.5C77.4,12.7,75.9,11.2,74.1,11.2z M10.2,50.5V21h18.3c0.2,3.4,1.7,6.6,4.2,9.1c1.4,1.4,2.9,2.4,4.6,3.2
	v17.2H10.2z M39.1,33.8c1.3,0.4,2.6,0.6,3.9,0.6c1.4,0,2.7-0.2,3.9-0.6v12.8c0,0.5,0.4,0.8,0.8,0.8s0.8-0.4,0.8-0.8V33.3
	c4.9-2.1,8.4-6.8,8.8-12.3h18.3v29.5H39.1V33.8z M74.1,12.9c0.9,0,1.7,0.8,1.7,1.7v4.7H57.4c-0.1-2.3-0.7-4.5-1.8-6.4H74.1z
	 M35.3,9.8c0.2-0.1,0.3-0.2,0.5-0.2c0.1,0,0.3,0,0.4,0.1c0.1,0.1,0.5,0.3,0.5,0.7v5.8c0,1.4,1.1,2.5,2.5,2.5h7.7
	c1.4,0,2.5-1.1,2.5-2.5v-5.8c0-0.5,0.3-0.7,0.5-0.7c0.3-0.1,0.6-0.1,0.9,0.1c3.2,2.4,5,6.1,5,10.1c0,7-5.7,12.8-12.8,12.8
	c-3.4,0-6.6-1.4-9.1-3.8c-2.4-2.5-3.8-5.7-3.7-9.1C30.3,15.8,32.1,12.2,35.3,9.8z M11.9,12.9h18.5c-1.1,1.9-1.7,4.1-1.8,6.4H10.2
	v-4.7C10.2,13.6,11,12.9,11.9,12.9L11.9,12.9z M51.4,71.1H34.6l2.7-10.5h11.6L51.4,71.1z M74.1,58.9H11.9c-0.9,0-1.7-0.8-1.7-1.7
	v-5.1h65.5v5.1C75.8,58.2,75,58.9,74.1,58.9z"/>
<path id="Path_184_" class="st25" d="M27,34.1h-2.5c-0.5,0-0.9-0.4-0.9-0.9c0-0.5,0.4-0.9,0.9-0.9H27c0.5,0,0.9,0.4,0.9,0.9
	C27.9,33.7,27.5,34.1,27,34.1z"/>
<path id="Path_183_" class="st0" d="M31.4,34.1h-1.1c-0.5,0-0.9-0.4-0.9-0.9c0-0.5,0.4-0.9,0.9-0.9h1.1c0.5,0,0.9,0.4,0.9,0.9
	C32.2,33.7,31.8,34.1,31.4,34.1z"/>
<path id="Path_182_" class="st25" d="M31.4,37.5h-6.9c-0.5,0-0.9-0.4-0.9-0.9c0-0.5,0.4-0.9,0.9-0.9h6.9c0.5,0,0.9,0.4,0.9,0.9
	C32.2,37.1,31.8,37.5,31.4,37.5L31.4,37.5z"/>
<path id="Path_181_" class="st0" d="M16.7,36.7c-0.2,0-0.4-0.1-0.6-0.2l-1.2-1.2c-0.3-0.3-0.3-0.9,0-1.2c0.3-0.3,0.9-0.3,1.2,0
	l0.6,0.6l2.1-2.1c0.3-0.3,0.9-0.3,1.2,0c0.3,0.3,0.3,0.9,0,1.2l-2.7,2.7C17.1,36.6,16.9,36.7,16.7,36.7z"/>
<path id="Path_180_" class="st25" d="M27,43.3h-2.5c-0.5,0-0.9-0.4-0.9-0.9c0-0.5,0.4-0.9,0.9-0.9H27c0.5,0,0.9,0.4,0.9,0.9
	C27.9,42.9,27.5,43.3,27,43.3z"/>
<path id="Path_179_" class="st0" d="M31.4,43.3h-1.1c-0.5,0-0.9-0.4-0.9-0.9c0-0.5,0.4-0.9,0.9-0.9h1.1c0.5,0,0.9,0.4,0.9,0.9
	C32.2,42.9,31.8,43.3,31.4,43.3z"/>
<path id="Path_178_" class="st25" d="M31.4,46.7h-6.9c-0.5,0-0.9-0.4-0.9-0.9c0-0.5,0.4-0.9,0.9-0.9h6.9c0.5,0,0.9,0.4,0.9,0.9
	C32.2,46.3,31.8,46.7,31.4,46.7L31.4,46.7z"/>
<path id="Path_177_" class="st0" d="M16.7,45.9c-0.2,0-0.4-0.1-0.6-0.2l-1.2-1.2c-0.3-0.3-0.3-0.9,0-1.2c0.3-0.3,0.9-0.3,1.2,0
	l0.6,0.6l2.1-2.1c0.3-0.3,0.9-0.3,1.2,0c0.3,0.3,0.3,0.9,0,1.2l-2.7,2.7C17.1,45.8,16.9,45.9,16.7,45.9z"/>
<path id="Path_176_" class="st25" d="M66.1,34.1h-2.5c-0.5,0-0.9-0.4-0.9-0.9c0-0.5,0.4-0.9,0.9-0.9h2.5c0.5,0,0.9,0.4,0.9,0.9
	C67,33.7,66.6,34.1,66.1,34.1z"/>
<path id="Path_175_" class="st0" d="M70.4,34.1h-1.1c-0.5,0-0.9-0.4-0.9-0.9c0-0.5,0.4-0.9,0.9-0.9h1.1c0.5,0,0.9,0.4,0.9,0.9
	C71.3,33.7,70.9,34.1,70.4,34.1z"/>
<path id="Path_174_" class="st25" d="M70.4,37.5h-6.9c-0.5,0-0.9-0.4-0.9-0.9c0-0.5,0.4-0.9,0.9-0.9h6.9c0.5,0,0.9,0.4,0.9,0.9
	C71.3,37.1,70.9,37.5,70.4,37.5z"/>
<path id="Path_173_" class="st0" d="M55.8,36.7c-0.2,0-0.4-0.1-0.6-0.2L54,35.3c-0.3-0.3-0.3-0.9,0-1.2c0.3-0.3,0.9-0.3,1.2,0
	l0.6,0.6l2.1-2.1c0.3-0.3,0.9-0.3,1.2,0c0.3,0.3,0.3,0.9,0,1.2l-2.7,2.7C56.2,36.6,56,36.7,55.8,36.7L55.8,36.7z"/>
<path id="Path_172_" class="st25" d="M66.1,43.3h-2.5c-0.5,0-0.9-0.4-0.9-0.9c0-0.5,0.4-0.9,0.9-0.9h2.5c0.5,0,0.9,0.4,0.9,0.9
	C67,42.9,66.6,43.3,66.1,43.3z"/>
<path id="Path_171_" class="st0" d="M70.4,43.3h-1.1c-0.5,0-0.9-0.4-0.9-0.9c0-0.5,0.4-0.9,0.9-0.9h1.1c0.5,0,0.9,0.4,0.9,0.9
	C71.3,42.9,70.9,43.3,70.4,43.3z"/>
<path id="Path_170_" class="st25" d="M70.4,46.7h-6.9c-0.5,0-0.9-0.4-0.9-0.9c0-0.5,0.4-0.9,0.9-0.9h6.9c0.5,0,0.9,0.4,0.9,0.9
	C71.3,46.3,70.9,46.7,70.4,46.7z"/>
<path id="Path_169_" class="st0" d="M55.8,45.9c-0.2,0-0.4-0.1-0.6-0.2L54,44.5c-0.3-0.3-0.3-0.9,0-1.2c0.3-0.3,0.9-0.3,1.2,0
	l0.6,0.6l2.1-2.1c0.3-0.3,0.9-0.3,1.2,0c0.3,0.3,0.3,0.9,0,1.2l-2.7,2.7C56.2,45.8,56,45.9,55.8,45.9L55.8,45.9z"/>
</svg>
