<?xml version="1.0" encoding="utf-8"?>
<!-- Generator: Adobe Illustrator 24.0.2, SVG Export Plug-In . SVG Version: 6.00 Build 0)  -->
<svg version="1.1" id="Layer_1" xmlns="http://www.w3.org/2000/svg" xmlns:xlink="http://www.w3.org/1999/xlink" x="0px" y="0px"
	 viewBox="0 0 42 42" style="enable-background:new 0 0 42 42;" xml:space="preserve">
<style type="text/css">
	.st0{fill:#FC6A55;}
	.st1{stroke:#FFFFFF;stroke-width:0.25;stroke-miterlimit:10;}
	.st2{fill:#656D7A;}
	.st3{fill:#FFFFFF;}
	.st4{filter:url(#Adobe_OpacityMaskFilter);}
	.st5{fill-rule:evenodd;clip-rule:evenodd;fill:#FFFFFF;}
	.st6{mask:url(#mask-2_8_);fill-rule:evenodd;clip-rule:evenodd;}
	.st7{filter:url(#Adobe_OpacityMaskFilter_1_);}
	.st8{mask:url(#mask-2_7_);fill-rule:evenodd;clip-rule:evenodd;}
	.st9{filter:url(#Adobe_OpacityMaskFilter_2_);}
	.st10{mask:url(#mask-2_6_);fill-rule:evenodd;clip-rule:evenodd;}
	.st11{filter:url(#Adobe_OpacityMaskFilter_3_);}
	.st12{mask:url(#mask-2_5_);fill-rule:evenodd;clip-rule:evenodd;}
	.st13{filter:url(#Adobe_OpacityMaskFilter_4_);}
	.st14{mask:url(#mask-2_2_);fill:none;stroke:#000000;stroke-width:2;}
	.st15{fill:#434343;}
	.st16{fill:#434343;stroke:#F9F9F9;stroke-width:0.25;stroke-miterlimit:10;}
	.st17{fill:none;stroke:#FC6A55;stroke-width:0.5;stroke-miterlimit:10;}
	.st18{fill:none;stroke:#FC6A55;stroke-width:0.75;stroke-miterlimit:10;}
	.st19{fill:#FC6A55;stroke:#FC6A55;stroke-width:0.5;stroke-miterlimit:10;}
	.st20{opacity:0.153;fill:url(#Path_144_);enable-background:new    ;}
	.st21{opacity:0.1;fill:#590BB2;enable-background:new    ;}
	.st22{fill:#8E8CA8;}
	.st23{fill:#F5F4F9;}
	.st24{fill:#FFD5B8;}
	.st25{fill:#FC8473;}
	.st26{fill:#1C3475;}
	.st27{fill:#DDD9E4;}
	.st28{fill:#828FB3;}
	.st29{opacity:7.584635e-02;fill:url(#Path_145_);enable-background:new    ;}
	.st30{fill:#FFBE92;}
	.st31{fill:#FB8E7F;}
	.st32{fill:#FDB1A6;}
	.st33{fill:#FC806F;}
	.st34{fill:#FFE783;}
	.st35{fill:#104478;}
</style>
<g>
	<path class="st0" d="M42,10V6.3l-1.8-0.5c-0.1-0.2-0.1-0.3-0.2-0.5l0.9-1.6l-2.6-2.6L36.7,2c-0.2-0.1-0.3-0.1-0.5-0.2L35.7,0H32
		l-0.5,1.8C31.4,1.8,31.2,1.9,31,2l-1.6-0.9l-2.6,2.6l0.9,1.6c0,0.1-0.1,0.2-0.1,0.3c-0.7,0.1-1.4,0.3-2,0.6c-2.2-3-5.6-4.8-9.3-4.8
		C9.9,1.4,4.7,6.5,4.7,12.9c0,0,0,0,0,0C2.1,13.3,0,15.5,0,18.3c0,3,2.4,5.4,5.4,5.4h0.4l9.1,9.1V42h12.2v-9.2l9.1-9.1h0.4
		c3,0,5.4-2.4,5.4-5.4c0-1.8-0.9-3.5-2.3-4.5l1.3-1.3L40,11c0.1-0.2,0.1-0.3,0.2-0.5L42,10z M25.7,32.2v8.4h-9.5v-8.4l-9.8-9.8
		c-0.2-0.2-0.4-0.5-0.4-0.9c0-0.7,0.6-1.2,1.2-1.2c0.3,0,0.6,0.1,0.9,0.4l5.3,5.3c1.1,1.1,2.6,1.9,4.2,2.1l1.8,0.3l-0.5,6.5l2.1,2.1
		l2.1-2.1l-0.5-6.5l1.8-0.2c1.6-0.2,3.1-1,4.2-2.1l5.3-5.3c0.2-0.2,0.5-0.4,0.9-0.4c0.7,0,1.2,0.6,1.2,1.2c0,0.3-0.1,0.6-0.4,0.9
		L25.7,32.2z M15.6,23.7c0.1,1,0.6,2,1.2,2.8c-0.9-0.3-1.7-0.8-2.4-1.5l-1.3-1.3H15.6z M26.4,23.7h2.5L27.5,25
		c-0.7,0.7-1.5,1.2-2.4,1.5C25.8,25.7,26.2,24.8,26.4,23.7L26.4,23.7z M21.7,34.3L21,34.9l-0.7-0.7l0.5-5.8l0.1,0c0,0,0,0,0.1,0h0.2
		L21.7,34.3z M21,27.1c-2.2,0-4.1-1.8-4.1-4.1S18.8,19,21,19s4.1,1.8,4.1,4.1S23.2,27.1,21,27.1z M40.6,18.3c0,2.1-1.5,3.8-3.5,4
		c0.1-0.2,0.1-0.5,0.1-0.8c0-1.4-1.2-2.6-2.6-2.6c-0.7,0-1.3,0.3-1.8,0.8l-2.6,2.6h-3.8c-0.3-2.7-2.6-4.7-5.4-4.7s-5,2.1-5.4,4.7
		h-3.8l-2.6-2.6C8.7,19.2,8,19,7.3,19c-1.4,0-2.6,1.2-2.6,2.6c0,0.3,0,0.5,0.1,0.8c-2-0.3-3.5-2-3.5-4c0-2.2,1.8-4.1,4.1-4.1
		c1.3,0,2.6,0.7,3.3,1.7l1.1-0.8c-0.9-1.3-2.3-2.1-3.8-2.3c0,0,0,0,0,0c0-5.6,4.6-10.2,10.2-10.2c3.5,0,6.7,1.7,8.5,4.7l0.3,0.5
		l0.5-0.3c1.1-0.6,2.2-0.8,3.4-0.8c3.6,0,6.7,2.6,7.3,6.1c-2.9,0.1-5.3,2.5-5.3,5.4h1.4c0-2.2,1.8-4.1,4.1-4.1
		C38.8,14.2,40.6,16,40.6,18.3z M36.3,9.2c-1-1.5-2.5-2.6-4.1-3.2c0.5-0.4,1-0.6,1.7-0.6c1.5,0,2.7,1.2,2.7,2.7
		C36.6,8.5,36.5,8.9,36.3,9.2z M39.3,12.3l-0.9,0.9c-0.2-0.1-0.4-0.1-0.5-0.2c-0.1-0.9-0.4-1.7-0.7-2.5c0.5-0.7,0.8-1.5,0.8-2.4
		c0-2.2-1.8-4.1-4.1-4.1c-1.2,0-2.4,0.6-3.2,1.5c-0.5-0.1-1-0.1-1.5-0.1l0.1-0.1l-0.8-1.3l1.2-1.2L31,3.5l0.3-0.2
		C31.6,3.2,32,3,32.3,3l0.4-0.1L33,1.4h1.7l0.4,1.5l0.4,0.1c0.3,0.1,0.6,0.2,0.9,0.4l0.3,0.2l1.3-0.8l1.2,1.2l-0.8,1.3l0.2,0.3
		C38.8,5.9,39,6.2,39,6.5l0.1,0.4l1.5,0.4V9l-1.5,0.4l-0.1,0.4c-0.1,0.3-0.2,0.6-0.4,0.9L38.5,11L39.3,12.3z"/>
	<path class="st0" d="M27.3,14l0.9,0.9H13.8l0.9-0.9l-1-1l-2.5,2.5l2.5,2.5l1-1l-0.9-0.9h14.3l-0.9,0.9l1,1l2.5-2.5l-2.5-2.5
		L27.3,14z"/>
	<path class="st0" d="M19.2,4.6c-0.5-0.2-1-0.3-1.5-0.4l-0.2,1.3c0.4,0.1,0.8,0.2,1.2,0.3L19.2,4.6z"/>
	<path class="st0" d="M16.3,4.1c-4.3,0-8,3.1-8.7,7.3l1.3,0.2c0.6-3.6,3.7-6.2,7.3-6.2V4.1z"/>
</g>
</svg>
