<?xml version="1.0" encoding="utf-8"?>
<!-- Generator: Adobe Illustrator 24.0.2, SVG Export Plug-In . SVG Version: 6.00 Build 0)  -->
<svg version="1.1" id="Layer_1" xmlns="http://www.w3.org/2000/svg" xmlns:xlink="http://www.w3.org/1999/xlink" x="0px" y="0px"
	 viewBox="0 0 42 42" style="enable-background:new 0 0 42 42;" xml:space="preserve">
<style type="text/css">
	.st0{fill:#FC6A55;}
	.st1{stroke:#FFFFFF;stroke-width:0.25;stroke-miterlimit:10;}
	.st2{fill:#656D7A;}
	.st3{fill:#FFFFFF;}
	.st4{filter:url(#Adobe_OpacityMaskFilter);}
	.st5{fill-rule:evenodd;clip-rule:evenodd;fill:#FFFFFF;}
	.st6{mask:url(#mask-2_8_);fill-rule:evenodd;clip-rule:evenodd;}
	.st7{filter:url(#Adobe_OpacityMaskFilter_1_);}
	.st8{mask:url(#mask-2_7_);fill-rule:evenodd;clip-rule:evenodd;}
	.st9{filter:url(#Adobe_OpacityMaskFilter_2_);}
	.st10{mask:url(#mask-2_6_);fill-rule:evenodd;clip-rule:evenodd;}
	.st11{filter:url(#Adobe_OpacityMaskFilter_3_);}
	.st12{mask:url(#mask-2_5_);fill-rule:evenodd;clip-rule:evenodd;}
	.st13{filter:url(#Adobe_OpacityMaskFilter_4_);}
	.st14{mask:url(#mask-2_2_);fill:none;stroke:#000000;stroke-width:2;}
	.st15{fill:#434343;}
	.st16{fill:#434343;stroke:#F9F9F9;stroke-width:0.25;stroke-miterlimit:10;}
	.st17{fill:none;stroke:#FC6A55;stroke-width:0.5;stroke-miterlimit:10;}
	.st18{fill:none;stroke:#FC6A55;stroke-width:0.75;stroke-miterlimit:10;}
	.st19{fill:#FC6A55;stroke:#FC6A55;stroke-width:0.5;stroke-miterlimit:10;}
	.st20{opacity:0.153;fill:url(#Path_144_);enable-background:new    ;}
	.st21{opacity:0.1;fill:#590BB2;enable-background:new    ;}
	.st22{fill:#8E8CA8;}
	.st23{fill:#F5F4F9;}
	.st24{fill:#FFD5B8;}
	.st25{fill:#FC8473;}
	.st26{fill:#1C3475;}
	.st27{fill:#DDD9E4;}
	.st28{fill:#828FB3;}
	.st29{opacity:7.584635e-02;fill:url(#Path_145_);enable-background:new    ;}
	.st30{fill:#FFBE92;}
	.st31{fill:#FB8E7F;}
	.st32{fill:#FDB1A6;}
	.st33{fill:#FC806F;}
	.st34{fill:#FFE783;}
	.st35{fill:#104478;}
</style>
<g>
	<path class="st3" d="M26.8,30.3c-0.4-2.1-2.3-3.7-4.5-3.7c-0.4,0-0.8,0.1-1.2,0.2c0.3,0.2,0.6,0.5,0.9,0.8c0.1,0,0.2,0,0.4,0
		c1.7,0,3.1,1.1,3.5,2.7C26.2,30.3,26.5,30.3,26.8,30.3z"/>
	<g>
		<path class="st3" d="M6.5,15.5l1,0.1l-0.6,0.8c-0.2,0.3-0.2,0.7,0.1,1L8,18.5c0.3,0.3,0.7,0.3,1,0.1L9.8,18l0.1,1
			c0,0.4,0.4,0.7,0.7,0.7h0.4l1.8,4.6l-0.7,0.7c0.2,0,0.3,0,0.5,0c0.3,0,0.6,0,0.9,0l1.4-1.4l2.4,1.9c0.2,0.1,0.4,0.1,0.5,0.1
			c0.3-0.1,0.5-0.2,0.8-0.3c0.2-0.1,0.3-0.2,0.3-0.4l0.4-3h3.2l0.4,3c0,0.2,0.2,0.4,0.3,0.4c0.3,0.1,0.6,0.2,0.8,0.3
			c0.2,0.1,0.4,0.1,0.5-0.1l2.4-1.9l2.2,2.2l-1.9,2.4c-0.1,0.2-0.1,0.4-0.1,0.5c0.1,0.3,0.2,0.5,0.3,0.8c0.1,0.2,0.2,0.3,0.4,0.3
			l2.8,0.3c0.4-0.1,0.8-0.2,1.2-0.2c-0.1-0.4-0.4-0.7-0.9-0.7l-2.7-0.3c0-0.1-0.1-0.2-0.1-0.4l1.7-2.2c0.3-0.4,0.3-1-0.1-1.4l-1-1
			l1.9-4.4h0.6c0.4,0,0.7-0.3,0.7-0.7l0.1-1l0.8,0.6c0.3,0.2,0.7,0.2,1-0.1l1.1-1.1c0.3-0.3,0.3-0.7,0.1-1l-0.6-0.8l1-0.1
			c0.4,0,0.7-0.4,0.7-0.7v-1.5c0-0.4-0.3-0.7-0.7-0.7l-1-0.1l0.6-0.8c0.2-0.3,0.2-0.7-0.1-1l-1.1-1.1c-0.3-0.3-0.7-0.3-1-0.1
			l-0.8,0.6l-0.1-1c0-0.4-0.4-0.7-0.7-0.7H30c-0.4,0-0.7,0.3-0.7,0.7l-0.1,1l-0.8-0.6c-0.2-0.2-0.6-0.2-0.8,0l-1.1-0.7
			c0.2-0.1,0.3-0.4,0.3-0.6V6.7c0-0.4-0.3-0.7-0.7-0.7l-1-0.1L25.6,5c0.2-0.3,0.2-0.7-0.1-1L24.5,3c-0.3-0.3-0.7-0.3-1-0.1l-0.8,0.6
			l-0.1-1c0-0.4-0.4-0.7-0.7-0.7h-1.5c-0.4,0-0.7,0.3-0.7,0.7l-0.1,1l-0.8-0.6c-0.3-0.2-0.7-0.2-1,0.1L16.6,4
			c-0.3,0.3-0.3,0.7-0.1,1l0.6,0.8l-1,0.1c-0.4,0-0.7,0.4-0.7,0.7v1.5c0,0.2,0.1,0.5,0.3,0.6l-1.1,0.7c-0.3-0.2-0.6-0.1-0.8,0
			l-0.8,0.6l-0.1-1c0-0.4-0.4-0.7-0.7-0.7h-1.5c-0.4,0-0.7,0.3-0.7,0.7l-0.1,1L9,9.5C8.7,9.3,8.3,9.3,8,9.6l-1.1,1.1
			c-0.3,0.3-0.3,0.7-0.1,1l0.6,0.8l-1,0.1c-0.4,0-0.7,0.4-0.7,0.7v1.5C5.8,15.2,6.1,15.5,6.5,15.5z M28.3,23.2l-0.4-0.4
			c-0.4-0.4-0.9-0.4-1.3-0.1l0,0l-2.2,1.7c-0.1-0.1-0.2-0.1-0.4-0.1l-0.3-2.7c-0.1-0.5-0.5-0.9-1-0.9h-3.2c-0.5,0-0.9,0.4-1,0.9
			l-0.3,2.7c-0.1,0-0.2,0.1-0.4,0.1l-2.2-1.7c-0.4-0.3-1-0.3-1.4,0.1l-0.6,0.6l-1.5-3.8h0c0.4,0,0.7-0.3,0.7-0.7l0.1-1l0.8,0.6
			c0.3,0.2,0.7,0.2,1-0.1l1.1-1.1c0.3-0.3,0.3-0.7,0.1-1l-0.6-0.8l1-0.1c0.4,0,0.7-0.4,0.7-0.7v-1.5c0-0.2-0.1-0.5-0.3-0.6l1.1-0.7
			c0.3,0.2,0.6,0.1,0.8,0l0.8-0.6l0.1,1c0,0.4,0.4,0.7,0.7,0.7h1.5c0.4,0,0.7-0.3,0.7-0.7l0.1-1l0.8,0.6c0.2,0.2,0.6,0.2,0.8,0
			l1.1,0.7c-0.2,0.1-0.3,0.4-0.3,0.6v1.5c0,0.4,0.3,0.7,0.7,0.7l1,0.1l-0.6,0.8c-0.2,0.3-0.2,0.7,0.1,1l1.1,1.1
			c0.3,0.3,0.7,0.3,1,0.1l0.8-0.6l0.1,1c0,0.3,0.3,0.6,0.6,0.6L28.3,23.2z M27.9,10.4l1,0.7c0.2,0.1,0.4,0.1,0.5,0.1
			c0.1-0.1,0.2-0.1,0.4-0.1c0.2-0.1,0.3-0.2,0.4-0.4l0.1-1.2h1l0.1,1.2c0,0.2,0.2,0.4,0.4,0.4c0.1,0,0.2,0.1,0.4,0.1
			c0.2,0.1,0.4,0.1,0.5-0.1l1-0.7l0.7,0.7l-0.7,1c-0.1,0.2-0.1,0.4-0.1,0.5c0.1,0.1,0.1,0.2,0.1,0.4c0.1,0.2,0.2,0.3,0.4,0.4
			l1.2,0.1v1l-1.2,0.1c-0.2,0-0.4,0.2-0.4,0.4c0,0.1-0.1,0.2-0.1,0.4c-0.1,0.2-0.1,0.4,0.1,0.5l0.7,1l-0.7,0.7l-1-0.7
			c-0.2-0.1-0.4-0.1-0.5-0.1c-0.1,0.1-0.2,0.1-0.4,0.1c-0.2,0.1-0.3,0.2-0.4,0.4l-0.1,1.2h-1L30,17.4c0-0.2-0.2-0.4-0.4-0.4
			c-0.1,0-0.2-0.1-0.4-0.1c-0.2-0.1-0.4-0.1-0.5,0.1l-1,0.7l-0.7-0.7l0.7-1c0.1-0.2,0.1-0.4,0.1-0.5c-0.1-0.1-0.1-0.2-0.1-0.4
			c-0.1-0.2-0.2-0.3-0.4-0.4l-1.2-0.1v-1l1.2-0.1c0.2,0,0.4-0.2,0.4-0.4c0-0.1,0.1-0.2,0.1-0.4c0.1-0.2,0.1-0.4-0.1-0.5l-0.7-1
			L27.9,10.4z M26.7,10.2l-0.4,0.4c-0.3,0.3-0.3,0.7-0.1,1l0.5,0.6l-1.5-0.9l0.4-0.4c0.3-0.3,0.3-0.7,0.1-1l-0.5-0.6L26.7,10.2z
			 M16.5,6.9l1.2-0.2c0.2,0,0.4-0.2,0.4-0.3c0-0.1,0.1-0.2,0.2-0.4c0.1-0.2,0.1-0.4-0.1-0.5l-0.7-1l0.7-0.7l1,0.7
			c0.2,0.1,0.4,0.1,0.5,0.1c0.1-0.1,0.2-0.1,0.4-0.2c0.2-0.1,0.3-0.2,0.3-0.4l0.2-1.2l1,0l0.2,1.2c0,0.2,0.2,0.4,0.3,0.4
			c0.1,0,0.2,0.1,0.4,0.2c0.2,0.1,0.4,0.1,0.5-0.1l1-0.7l0.7,0.7l-0.7,1c-0.1,0.2-0.1,0.4-0.1,0.5C23.9,6.2,24,6.3,24,6.4
			c0.1,0.2,0.2,0.3,0.4,0.3l1.2,0.2v1l-1.2,0.2c-0.2,0-0.4,0.2-0.4,0.3c0,0.1-0.1,0.2-0.2,0.4c-0.1,0.2-0.1,0.4,0.1,0.5l0.7,1
			L23.9,11l-1-0.7c-0.2-0.1-0.4-0.1-0.5-0.1c-0.1,0.1-0.2,0.1-0.4,0.2c-0.2,0.1-0.3,0.2-0.3,0.4L21.6,12h-1l-0.2-1.2
			c0-0.2-0.2-0.4-0.3-0.4c-0.1,0-0.2-0.1-0.4-0.2c-0.2-0.1-0.4-0.1-0.5,0.1l-1,0.7l-0.7-0.7l0.7-1c0.1-0.2,0.1-0.4,0.1-0.5
			c-0.1-0.1-0.1-0.2-0.2-0.4c-0.1-0.2-0.2-0.3-0.4-0.3L16.5,8V6.9z M17,9.3l-0.5,0.6c-0.2,0.3-0.2,0.7,0.1,1l0.4,0.4l-1.5,0.9
			l0.5-0.6c0.2-0.3,0.2-0.7-0.1-1l-0.4-0.4L17,9.3z M6.9,13.5l1.2-0.2c0.2,0,0.4-0.2,0.4-0.3c0-0.1,0.1-0.2,0.2-0.4
			c0.1-0.2,0.1-0.4-0.1-0.5l-0.7-1l0.7-0.7l1,0.7c0.2,0.1,0.4,0.1,0.5,0.1c0.1-0.1,0.2-0.1,0.4-0.2c0.2-0.1,0.3-0.2,0.3-0.4l0.2-1.2
			h1l0.2,1.2c0,0.2,0.2,0.4,0.3,0.4c0.1,0,0.2,0.1,0.4,0.2c0.2,0.1,0.4,0.1,0.5-0.1l1-0.7l0.7,0.7l-0.7,1c-0.1,0.2-0.1,0.4-0.1,0.5
			c0.1,0.1,0.1,0.2,0.2,0.4c0.1,0.2,0.2,0.3,0.4,0.3l1.2,0.2v1l-1.2,0.2c-0.2,0-0.4,0.2-0.4,0.3c0,0.1-0.1,0.2-0.2,0.4
			c-0.1,0.2-0.1,0.4,0.1,0.5l0.7,1l-0.7,0.7l-1-0.7c-0.2-0.1-0.4-0.1-0.5-0.1c-0.1,0.1-0.2,0.1-0.4,0.2c-0.2,0.1-0.3,0.2-0.3,0.4
			l-0.2,1.2h-1l-0.2-1.2c0-0.2-0.2-0.4-0.3-0.4c-0.1,0-0.2-0.1-0.4-0.2c-0.2-0.1-0.4-0.1-0.5,0.1l-1,0.7l-0.7-0.7l0.7-1
			c0.1-0.2,0.1-0.4,0.1-0.5c-0.1-0.1-0.1-0.2-0.2-0.4c-0.1-0.2-0.2-0.3-0.4-0.3l-1.2-0.2V13.5z"/>
		<path class="st3" d="M18.5,7.4c0,1.4,1.1,2.5,2.5,2.5s2.5-1.1,2.5-2.5s-1.1-2.5-2.5-2.5C19.7,4.8,18.5,6,18.5,7.4z M22.6,7.4
			c0,0.8-0.7,1.5-1.5,1.5s-1.5-0.7-1.5-1.5s0.7-1.5,1.5-1.5S22.6,6.5,22.6,7.4z"/>
		<path class="st3" d="M14,14c0-1.4-1.1-2.5-2.5-2.5S8.9,12.6,8.9,14s1.1,2.5,2.5,2.5C12.8,16.5,14,15.4,14,14z M9.9,14
			c0-0.8,0.7-1.5,1.5-1.5S13,13.1,13,14s-0.7,1.5-1.5,1.5S9.9,14.8,9.9,14z"/>
		<path class="st3" d="M28.2,14c0,1,0.6,1.9,1.5,2.3c0.9,0.4,2,0.2,2.7-0.5l0,0c0.8-0.8,1-2.1,0.5-3.1c-0.6-1-1.7-1.5-2.9-1.2
			C29,11.8,28.2,12.8,28.2,14z M32.2,14c0,0.4-0.2,0.8-0.5,1.1l0.3,0.4l-0.4-0.4c-0.3,0.3-0.7,0.4-1,0.4c-0.8,0-1.5-0.7-1.5-1.5
			s0.7-1.5,1.5-1.5S32.2,13.1,32.2,14z"/>
	</g>
	<g>
		<path class="st3" d="M39.6,27.5c-0.6,0,0.5-0.1-14.6,3.6c-0.1-0.4-0.3-0.8-0.7-1.1l-4.5-4.5c-0.6-0.6-1.3-0.9-2.1-0.9h-9
			c-0.2-1.6-1.5-2.8-3.1-2.8H3.1c-1.7,0-3.1,1.4-3.1,3.1v11C0,37.6,1.4,39,3.1,39h2.3c1.7,0,3.1-1.4,3.1-3.1v-1.1
			c1.5,0.3,3.3,0.3,5.6,1.5c4.7,2.3,4.9,2.3,5.7,2.9c2.1,1.3,4.7,1.3,6.8,0l11.7-6c0.3-0.2,0.4-0.5,0.3-0.8
			c-0.2-0.3-0.5-0.4-0.8-0.3c-12.3,6.2-11.8,6-11.8,6c-1.7,1.1-3.8,1.1-5.5,0c-0.9-0.6-1.2-0.7-5.8-2.9c-2.6-1.3-4.5-1.3-6.2-1.7
			v-7.7h9c0.5,0,0.9,0.2,1.2,0.5l4.5,4.5c0.9,0.9,0.3,2.4-0.9,2.4c-0.4,0-0.7-0.1-1-0.4l-4.1-4.1c-0.2-0.2-0.6-0.2-0.9,0
			s-0.2,0.6,0,0.9l4.1,4.1c1.5,1.5,4,0.7,4.4-1.3l14.4-3.6c0.7-0.1,1.3,0.5,1.3,1.2c0,0.8-0.6,1.1-0.6,1.1c-0.3,0.2-0.4,0.5-0.3,0.8
			c0.2,0.3,0.5,0.4,0.8,0.3l0.1-0.1c0.6-0.3,1.2-1.2,1.2-2.1C42,28.6,40.9,27.5,39.6,27.5z M7.3,35.9c0,1-0.8,1.9-1.9,1.9H3.1
			c-1,0-1.9-0.8-1.9-1.9v-11c0-1,0.8-1.9,1.9-1.9h2.3c0.9,0,1.7,0.7,1.9,1.5C7.4,24.8,7.3,35.8,7.3,35.9z"/>
		<path class="st3" d="M5.1,32.5c-0.3-0.1-0.7,0-0.8,0.3c-0.1,0.3,0,0.7,0.3,0.8c0.9,0.4,0.6,1.7-0.3,1.7c-0.6,0-1-0.6-0.8-1.1
			c0.1-0.3-0.1-0.7-0.4-0.8c-0.3-0.1-0.7,0.1-0.8,0.4c-0.4,1.4,0.6,2.7,2,2.7c1.2,0,2.1-0.9,2.1-2.1C6.4,33.6,5.9,32.8,5.1,32.5z"/>
	</g>
</g>
</svg>
