<?xml version="1.0" encoding="utf-8"?>
<!-- Generator: Adobe Illustrator 24.0.2, SVG Export Plug-In . SVG Version: 6.00 Build 0)  -->
<svg version="1.1" id="Layer_1" xmlns="http://www.w3.org/2000/svg" xmlns:xlink="http://www.w3.org/1999/xlink" x="0px" y="0px"
	 viewBox="0 0 18 24" style="enable-background:new 0 0 18 24;" xml:space="preserve">
<style type="text/css">
	.st0{fill:#FC6A55;}
	.st1{fill:#EDEDED;}
	.st2{fill:none;stroke:#FC6A55;stroke-miterlimit:10;}
	.st3{stroke:#FFFFFF;stroke-width:0.25;stroke-miterlimit:10;}
	.st4{fill:#656D7A;}
	.st5{fill:#FFFFFF;}
	.st6{filter:url(#Adobe_OpacityMaskFilter);}
	.st7{fill-rule:evenodd;clip-rule:evenodd;fill:#FFFFFF;}
	.st8{mask:url(#mask-2_8_);fill-rule:evenodd;clip-rule:evenodd;}
	.st9{filter:url(#Adobe_OpacityMaskFilter_1_);}
	.st10{mask:url(#mask-2_7_);fill-rule:evenodd;clip-rule:evenodd;}
	.st11{filter:url(#Adobe_OpacityMaskFilter_2_);}
	.st12{mask:url(#mask-2_6_);fill-rule:evenodd;clip-rule:evenodd;}
	.st13{filter:url(#Adobe_OpacityMaskFilter_3_);}
	.st14{mask:url(#mask-2_5_);fill-rule:evenodd;clip-rule:evenodd;}
	.st15{filter:url(#Adobe_OpacityMaskFilter_4_);}
	.st16{mask:url(#mask-2_2_);fill:none;stroke:#000000;stroke-width:2;}
	.st17{fill:#434343;}
	.st18{fill:#434343;stroke:#F9F9F9;stroke-width:0.25;stroke-miterlimit:10;}
	.st19{fill:none;stroke:#FC6A55;stroke-width:0.5;stroke-miterlimit:10;}
	.st20{fill:none;stroke:#FC6A55;stroke-width:0.75;stroke-miterlimit:10;}
	.st21{fill:#FC6A55;stroke:#FC6A55;stroke-width:0.5;stroke-miterlimit:10;}
	.st22{opacity:0.153;fill:url(#Path_146_);enable-background:new    ;}
	.st23{opacity:0.1;fill:#590BB2;enable-background:new    ;}
	.st24{fill:#8E8CA8;}
	.st25{fill:#F5F4F9;}
	.st26{fill:#FFD5B8;}
	.st27{fill:#FC8473;}
	.st28{fill:#1C3475;}
	.st29{fill:#DDD9E4;}
	.st30{fill:#828FB3;}
	.st31{opacity:7.584635e-02;fill:url(#Path_147_);enable-background:new    ;}
	.st32{fill:#FFBE92;}
	.st33{fill:#FB8E7F;}
	.st34{fill:#FDB1A6;}
	.st35{fill:#FC806F;}
	.st36{fill:#FFE783;}
	.st37{fill:#104478;}
	.st38{fill:none;stroke:#FFFFFF;stroke-miterlimit:10;}
	.st39{fill:none;stroke:#000000;stroke-width:0.15;stroke-miterlimit:10;}
	.st40{opacity:0.1;fill:url(#Path_148_);enable-background:new    ;}
	.st41{opacity:0.1;fill:url(#Path_149_);enable-background:new    ;}
	.st42{fill-rule:evenodd;clip-rule:evenodd;fill:#FC6A55;}
	.st43{fill-rule:evenodd;clip-rule:evenodd;}
</style>
<g>
	<path d="M12.6,11.1c0.2,0,0.4-0.1,0.5-0.2l1-1h3.1c0.5,0,0.9-0.4,0.9-0.9V5c0-0.5-0.4-0.9-0.9-0.9H11V3.6C11,3.3,10.8,3,10.5,3h-8
		C2.3,3,2.1,3.1,2,3.2L0.2,5C0.1,5.1,0,5.3,0,5.4v15C0,20.7,0.3,21,0.6,21h9.9c0.3,0,0.6-0.3,0.6-0.6v-2.3h2.8l1,1
		c0.1,0.1,0.3,0.2,0.5,0.2c0.4,0,0.7-0.3,0.7-0.7v-0.5h1.2c0.5,0,0.9-0.4,0.9-0.9v-4.1c0-0.5-0.4-0.9-0.9-0.9H11V10h0.9v0.5
		C11.9,10.8,12.2,11.1,12.6,11.1z M2,4v1H1L2,4z M0.6,20.4V5.6h2v-2h7.8v0.6C10.1,4.3,9.9,4.7,9.9,5v4.1c0,0.4,0.2,0.7,0.6,0.8v2.4
		c-0.3,0.1-0.6,0.4-0.6,0.8v4.1c0,0.4,0.2,0.7,0.6,0.8v2.4H0.6z M17.4,13.2v4.1c0,0.2-0.1,0.3-0.3,0.3h-1.7v1c0,0.1-0.1,0.2-0.2,0.1
		l-1.1-1.1h-3.3c-0.2,0-0.3-0.1-0.3-0.3v-4.1c0-0.2,0.1-0.3,0.3-0.3h6.4C17.3,12.9,17.4,13,17.4,13.2L17.4,13.2z M10.7,9.4
		c-0.2,0-0.3-0.1-0.3-0.3V5c0-0.2,0.1-0.3,0.3-0.3h6.4c0.2,0,0.3,0.1,0.3,0.3v4.1c0,0.2-0.1,0.3-0.3,0.3h-3.3l-1.1,1.1
		c-0.1,0.1-0.2,0-0.2-0.1v-1H10.7z"/>
	<path d="M16.5,5.8l-0.4-0.4l-3,2.7l-0.7-0.7L12,7.9l1.1,1.1L16.5,5.8z"/>
	<path d="M7.5,12.9H1.2v2.3h6.4V12.9z M7,14.6H1.7v-1.2H7V14.6z"/>
	<path d="M1.2,15.8h6.4v0.6H1.2V15.8z"/>
	<path d="M1.2,16.9h7.5v0.6H1.2V16.9z"/>
	<path d="M1.2,18.1h7.5v0.6H1.2V18.1z"/>
	<path d="M1.2,19.3h1.7v0.6H1.2V19.3z"/>
	<path d="M3.5,19.3h1.7v0.6H3.5V19.3z"/>
	<path d="M5.8,19.3h1.7v0.6H5.8V19.3z"/>
	<path d="M5.5,4.7c-2.1,0-3.8,1.7-3.8,3.8s1.7,3.8,3.8,3.8s3.8-1.7,3.8-3.8S7.6,4.7,5.5,4.7z M5.5,11.7c-0.9,0-1.7-0.4-2.3-1
		c0.2-0.4,0.5-0.7,0.9-0.9l1.4,1.4L7,9.8c0.4,0.2,0.6,0.5,0.9,0.9C7.2,11.3,6.4,11.7,5.5,11.7L5.5,11.7z M4.4,7.6
		c0-0.6,0.5-1.2,1.2-1.2S6.7,7,6.7,7.6S6.2,8.8,5.5,8.8S4.4,8.3,4.4,7.6z M4.6,9.5c0.3-0.1,0.6-0.2,0.9-0.2c0.3,0,0.6,0.1,0.9,0.2
		l-0.9,0.9L4.6,9.5z M8.2,10.2c-0.4-0.6-1-1-1.6-1.2C7,8.7,7.3,8.2,7.3,7.6c0-1-0.8-1.7-1.7-1.7S3.8,6.7,3.8,7.6
		c0,0.5,0.3,1,0.6,1.4c-0.6,0.2-1.2,0.7-1.6,1.2C2.5,9.7,2.3,9.1,2.3,8.5c0-1.8,1.4-3.2,3.2-3.2s3.2,1.4,3.2,3.2
		C8.7,9.1,8.5,9.7,8.2,10.2L8.2,10.2z"/>
	<path d="M12.7,16.9l1.2-1.2l1.2,1.2l0.4-0.4l-1.2-1.2l1.2-1.2l-0.4-0.4l-1.2,1.2l-1.2-1.2l-0.4,0.4l1.2,1.2l-1.2,1.2L12.7,16.9z"/>
</g>
</svg>
