<?xml version="1.0" encoding="utf-8"?>
<!-- Generator: Adobe Illustrator 24.1.1, SVG Export Plug-In . SVG Version: 6.00 Build 0)  -->
<svg version="1.1" id="Layer_1" xmlns="http://www.w3.org/2000/svg" xmlns:xlink="http://www.w3.org/1999/xlink" x="0px" y="0px"
	 viewBox="0 0 23 22.9" style="enable-background:new 0 0 23 22.9;" xml:space="preserve">
<style type="text/css">
	.st0{fill:#FC6A55;}
	.st1{fill:#EDEDED;}
	.st2{fill:none;stroke:#FC6A55;stroke-miterlimit:10;}
	.st3{fill:#222F3F;}
	.st4{fill:#383838;}
	.st5{fill:#FFFFFF;}
	.st6{fill:#656D7A;}
	.st7{fill:#C4C4C4;}
	.st8{filter:url(#Adobe_OpacityMaskFilter);}
	.st9{fill-rule:evenodd;clip-rule:evenodd;fill:#FFFFFF;}
	.st10{mask:url(#mask-2_8_);fill-rule:evenodd;clip-rule:evenodd;fill:#FFFFFF;}
	.st11{filter:url(#Adobe_OpacityMaskFilter_1_);}
	.st12{mask:url(#mask-2_7_);fill-rule:evenodd;clip-rule:evenodd;fill:#FFFFFF;}
	.st13{filter:url(#Adobe_OpacityMaskFilter_2_);}
	.st14{mask:url(#mask-2_6_);fill-rule:evenodd;clip-rule:evenodd;fill:#FFFFFF;}
	.st15{filter:url(#Adobe_OpacityMaskFilter_3_);}
	.st16{mask:url(#mask-2_5_);fill-rule:evenodd;clip-rule:evenodd;fill:#FFFFFF;}
	.st17{filter:url(#Adobe_OpacityMaskFilter_4_);}
	.st18{mask:url(#mask-2_2_);fill:none;stroke:#FFFFFF;stroke-width:1.5;stroke-miterlimit:10;}
	.st19{fill:#B4A3EE;}
	.st20{fill:#434343;}
	.st21{fill:#434343;stroke:#F9F9F9;stroke-width:0.25;stroke-miterlimit:10;}
	.st22{fill:none;stroke:#FC6A55;stroke-width:0.75;stroke-miterlimit:10;}
	.st23{fill:#FC6A55;stroke:#FC6A55;stroke-width:0.25;stroke-miterlimit:10;}
	.st24{fill:#FC6A55;stroke:#FC6A55;stroke-width:0.5;stroke-miterlimit:10;}
	.st25{opacity:0.153;fill:url(#Path_44_);enable-background:new    ;}
	.st26{opacity:0.1;fill:#590BB2;enable-background:new    ;}
	.st27{fill:#8E8CA8;}
	.st28{fill:#F5F4F9;}
	.st29{fill:#FFD5B8;}
	.st30{fill:#FC8473;}
	.st31{fill:#1C3475;}
	.st32{fill:#DDD9E4;}
	.st33{fill:#828FB3;}
	.st34{opacity:7.584635e-02;fill:url(#Path_45_);enable-background:new    ;}
	.st35{fill:#FFBE92;}
	.st36{fill:#FB8E7F;}
	.st37{fill:#FDB1A6;}
	.st38{fill:#FC806F;}
	.st39{fill:#FFE783;}
	.st40{fill:#104478;}
	.st41{fill:none;stroke:#FFFFFF;stroke-miterlimit:10;}
	.st42{fill:none;stroke:#000000;stroke-width:0.15;stroke-miterlimit:10;}
	.st43{opacity:0.1;fill:url(#Path_46_);enable-background:new    ;}
	.st44{opacity:0.1;fill:url(#Path_47_);enable-background:new    ;}
	.st45{fill-rule:evenodd;clip-rule:evenodd;fill:#FC6A55;}
	.st46{fill-rule:evenodd;clip-rule:evenodd;}
	.st47{fill:#FF6757;}
	.st48{fill:#6C973D;}
	.st49{fill:none;stroke:#FFFFFF;stroke-width:0.5;stroke-miterlimit:10;}
	.st50{fill:#606060;}
	.st51{fill:#F16A56;}
	.st52{fill:#515252;}
	.st53{fill:#656565;}
	.st54{fill:#F26A56;}
	.st55{fill:none;stroke:#F16A56;stroke-miterlimit:10;}
	.st56{fill:none;stroke:#929292;stroke-miterlimit:10;}
	.st57{fill:#929292;}
	.st58{fill:none;stroke:#000000;stroke-width:0.5;stroke-miterlimit:10;}
	.st59{fill:#A8A7A7;}
	.st60{fill:#F79F91;}
	.st61{fill:#9BDBD5;}
	.st62{fill:#222121;}
	.st63{stroke:#000000;stroke-width:0.25;stroke-miterlimit:10;}
</style>
<g>
	<path class="st47" d="M0.3,21.4h18v1.3h-18L0.3,21.4z"/>
	<path class="st47" d="M15.7,4.2H2.8c-0.4,0-0.7-0.3-0.7-0.6s0.3-0.6,0.7-0.6h12.8c0.4,0,0.7,0.3,0.7,0.6S16,4.2,15.7,4.2z"/>
	<path class="st47" d="M21.3,19.3l-2.6-2.5c-0.3-0.3-0.3-0.8,0-1.1c0,0,0,0,0,0l-0.6,0.6c-0.3,0.3-0.3,0.8,0,1.2l2.6,2.5
		c0.3,0.3,0.9,0.3,1.2,0l0.6-0.6c0,0,0,0,0,0C22.2,19.6,21.6,19.6,21.3,19.3L21.3,19.3z"/>
	<g>
		<path class="st47" d="M18.3,19.2c-0.2,0-0.3,0.1-0.3,0.3v2.9H0.6V0.6H18v5.1C18,5.8,18.1,6,18.3,6c0.2,0,0.3-0.1,0.3-0.3V0.3
			c0-0.2-0.1-0.3-0.3-0.3h-18C0.1,0,0,0.1,0,0.3v22.4c0,0.2,0.1,0.3,0.3,0.3h18c0.2,0,0.3-0.1,0.3-0.3v-3.2
			C18.5,19.3,18.4,19.2,18.3,19.2z"/>
		<path class="st47" d="M2.6,17.4h6.6c0.2,0,0.3-0.1,0.3-0.3c0-0.2-0.1-0.3-0.3-0.3H2.6c-0.2,0-0.3,0.1-0.3,0.3
			C2.3,17.3,2.4,17.4,2.6,17.4z"/>
		<path class="st47" d="M9.4,18.6c0-0.2-0.1-0.3-0.3-0.3H2.6c-0.2,0-0.3,0.1-0.3,0.3c0,0.2,0.1,0.3,0.3,0.3h6.6
			C9.3,18.9,9.4,18.8,9.4,18.6z"/>
		<path class="st47" d="M2.6,19.8c-0.2,0-0.3,0.1-0.3,0.3c0,0.2,0.1,0.3,0.3,0.3h3c0.2,0,0.3-0.1,0.3-0.3c0-0.2-0.1-0.3-0.3-0.3H2.6
			z"/>
		<path class="st47" d="M16,18.6c0-0.2-0.1-0.3-0.3-0.3h-5.4c-0.2,0-0.3,0.1-0.3,0.3c0,0.2,0.1,0.3,0.3,0.3h5.4
			C15.9,18.9,16,18.8,16,18.6z"/>
		<path class="st47" d="M6.7,20.3h3c0.2,0,0.3-0.1,0.3-0.3c0-0.2-0.1-0.3-0.3-0.3h-3c-0.2,0-0.3,0.1-0.3,0.3
			C6.5,20.2,6.6,20.3,6.7,20.3L6.7,20.3z"/>
		<path class="st47" d="M11,19.8c-0.2,0-0.3,0.1-0.3,0.3c0,0.2,0.1,0.3,0.3,0.3h3c0.2,0,0.3-0.1,0.3-0.3c0-0.2-0.1-0.3-0.3-0.3H11z"
			/>
		<path class="st47" d="M2.6,11.8h3c0.2,0,0.3-0.1,0.3-0.3s-0.1-0.3-0.3-0.3h-3c-0.2,0-0.3,0.1-0.3,0.3S2.4,11.8,2.6,11.8z"/>
		<path class="st47" d="M2.6,13.3h3c0.2,0,0.3-0.1,0.3-0.3c0-0.2-0.1-0.3-0.3-0.3h-3c-0.2,0-0.3,0.1-0.3,0.3
			C2.3,13.2,2.4,13.3,2.6,13.3z"/>
		<path class="st47" d="M2.6,14.7h4.7c0.2,0,0.3-0.1,0.3-0.3c0-0.2-0.1-0.3-0.3-0.3H2.6c-0.2,0-0.3,0.1-0.3,0.3
			C2.3,14.6,2.4,14.7,2.6,14.7z"/>
		<path class="st47" d="M2.6,7.7h4.5c0.2,0,0.3-0.1,0.3-0.3c0-0.2-0.1-0.3-0.3-0.3H2.6c-0.2,0-0.3,0.1-0.3,0.3
			C2.3,7.6,2.4,7.7,2.6,7.7z"/>
		<path class="st47" d="M2.6,9.2h4.2C6.9,9.2,7,9,7,8.9c0-0.2-0.1-0.3-0.3-0.3H2.6c-0.2,0-0.3,0.1-0.3,0.3C2.3,9,2.4,9.2,2.6,9.2z"
			/>
		<path class="st47" d="M22.7,17.9l-2.6-2.5c-0.4-0.4-1.1-0.4-1.6,0L17.9,16c-0.2,0.2-0.3,0.5-0.3,0.8c0,0.3,0.1,0.6,0.3,0.8
			l2.6,2.5c0.2,0.2,0.5,0.3,0.8,0.3c0.3,0,0.6-0.1,0.8-0.3l0.6-0.6C23.1,19.1,23.1,18.4,22.7,17.9z M22.3,19.1l-0.6,0.6
			c-0.1,0.1-0.2,0.2-0.4,0.2s-0.3-0.1-0.4-0.2l-2.6-2.5c-0.1-0.1-0.2-0.2-0.2-0.4c0-0.1,0.1-0.3,0.2-0.4l0.6-0.6
			c0.1-0.1,0.2-0.2,0.4-0.2c0.1,0,0.3,0.1,0.4,0.2l2.6,2.5C22.5,18.5,22.5,18.9,22.3,19.1z"/>
		<path class="st47" d="M13.4,5.1c-3.3,0-6.1,2.7-6.1,5.9c0,3.3,2.7,5.9,6.1,5.9c1.2,0,2.4-0.4,3.4-1l0.2,0.2c0.1,0.1,0.3,0.1,0.4,0
			c0.1-0.1,0.1-0.3,0-0.4l-0.4-0.4c-0.1-0.1-0.3-0.1-0.4,0c-1,0.7-2.1,1.1-3.3,1.1c-3,0-5.5-2.4-5.5-5.4s2.5-5.4,5.5-5.4
			S18.9,8,18.9,11c0,1.2-0.4,2.3-1.1,3.2c-0.1,0.1-0.1,0.3,0,0.4l0.4,0.4c0.1,0.1,0.3,0.1,0.4,0c0.1-0.1,0.1-0.3,0-0.4l-0.2-0.2
			c0.7-1,1.1-2.1,1.1-3.3C19.5,7.7,16.7,5.1,13.4,5.1L13.4,5.1z"/>
		<path class="st47" d="M13.4,6.5c-2.5,0-4.6,2-4.6,4.5c0,2.5,2.1,4.5,4.6,4.5s4.6-2,4.6-4.5C18,8.5,15.9,6.5,13.4,6.5L13.4,6.5z
			 M13.4,14.9c-2.2,0-4-1.8-4-3.9s1.8-3.9,4-3.9s4,1.8,4,3.9S15.6,14.9,13.4,14.9L13.4,14.9z"/>
	</g>
	<g>
		<path class="st47" d="M13.3,9.9h-1.4c-0.2,0-0.4-0.2-0.4-0.4c0-0.2,0.2-0.4,0.4-0.4h1.4c0.2,0,0.4,0.2,0.4,0.4
			C13.7,9.8,13.6,9.9,13.3,9.9z"/>
		<path class="st47" d="M14.9,11.4h-3c-0.2,0-0.4-0.2-0.4-0.4s0.2-0.4,0.4-0.4h3c0.2,0,0.4,0.2,0.4,0.4S15.1,11.4,14.9,11.4z"/>
		<path class="st47" d="M14.9,12.9h-3c-0.2,0-0.4-0.2-0.4-0.4c0-0.2,0.2-0.4,0.4-0.4h3c0.2,0,0.4,0.2,0.4,0.4
			C15.3,12.7,15.1,12.9,14.9,12.9z"/>
	</g>
</g>
</svg>
