<?xml version="1.0" encoding="UTF-8"?>
<svg width="64px" height="77px" viewBox="0 0 64 77" version="1.1" xmlns="http://www.w3.org/2000/svg" xmlns:xlink="http://www.w3.org/1999/xlink">
    <!-- Generator: Sketch 63.1 (92452) - https://sketch.com -->
    <title>android</title>
    <desc>Created with Sketch.</desc>
    <g id="final-design" stroke="none" stroke-width="1" fill="none" fill-rule="evenodd">
        <g id="invensis.net-2.0-solustion-detail-page-tab-1-copy" transform="translate(-480.000000, -917.000000)" fill="#AAC148" fill-rule="nonzero">
            <g id="android" transform="translate(480.000000, 917.000000)">
                <path d="M51.4024215,25.3793103 L12.5973934,25.3793103 C11.7341912,25.3793103 11.0344828,26.0724354 11.0344828,26.927516 L11.0344828,59.1625104 C11.0344828,60.0175909 11.7341912,60.710716 12.5973934,60.710716 L19.515416,60.710716 L19.515416,71.5740168 C19.515416,74.0945051 21.5780655,76.137931 24.1226787,76.137931 L24.1226787,76.137931 C26.6671068,76.137931 28.7299414,74.0946885 28.7299414,71.5740168 L28.7299414,60.710716 L35.173962,60.710716 L35.173962,71.5740168 C35.173962,74.0945051 37.2366115,76.137931 39.7812248,76.137931 L39.7812248,76.137931 C42.3256529,76.137931 44.3884875,74.0946885 44.3884875,71.5740168 L44.3884875,60.710716 L51.4026066,60.710716 C52.2658088,60.710716 52.9655172,60.0175909 52.9655172,59.1625104 L52.9655172,26.927516 C52.9655172,26.0724354 52.2656236,25.3793103 51.4024215,25.3793103 Z" id="Path"></path>
                <path d="M4.4137931,25.3793103 L4.4137931,25.3793103 C1.97621143,25.3793103 0,27.4167585 0,29.9302819 L0,48.4145457 C0,50.9278862 1.97603405,52.9655172 4.4137931,52.9655172 L4.4137931,52.9655172 C6.85137478,52.9655172 8.82758621,50.9280691 8.82758621,48.4145457 L8.82758621,29.9302819 C8.82740883,27.4169414 6.85137478,25.3793103 4.4137931,25.3793103 Z" id="Path"></path>
                <path d="M59.5862069,25.3793103 L59.5862069,25.3793103 C57.1486252,25.3793103 55.1724138,27.4167585 55.1724138,29.9302819 L55.1724138,48.4145457 C55.1724138,50.9278862 57.1484478,52.9655172 59.5862069,52.9655172 L59.5862069,52.9655172 C62.0237886,52.9655172 64,50.9280691 64,48.4145457 L64,29.9302819 C64,27.4169414 62.023966,25.3793103 59.5862069,25.3793103 Z" id="Path"></path>
                <path d="M12.5843337,23.1724138 L50.312273,23.1724138 C51.2965025,23.1724138 52.0305476,22.2492098 51.8284192,21.2682939 C50.5804324,15.211717 46.7935519,10.1076669 41.6550525,7.15912928 L44.8803023,1.23347813 C45.0985716,0.832296218 44.956238,0.326709883 44.5622527,0.104453608 C44.1673504,-0.118362978 43.6715673,0.0271308361 43.453298,0.428312752 L40.2036534,6.39860192 C37.5420519,5.14089288 34.5757905,4.43845099 31.4483034,4.43845099 C28.3206328,4.43845099 25.3543714,5.14089288 22.6927699,6.39860192 L19.4431253,0.428125982 C19.2246726,0.0267572961 18.7281558,-0.117989438 18.334354,0.104266838 C17.9403687,0.326523113 17.7980351,0.832109448 18.0163044,1.23329136 L21.2415543,7.15894251 C16.1030548,10.1076669 12.3161743,15.2115302 11.0681875,21.2682939 C10.8658757,22.2492098 11.5999209,23.1724138 12.5843337,23.1724138 Z M42.7058632,14.3413688 C42.7058632,15.3278879 41.9204606,16.1278237 40.951455,16.1278237 C39.9826328,16.1278237 39.1970467,15.3280746 39.1970467,14.3413688 C39.1970467,13.3548498 39.9824494,12.554914 40.951455,12.554914 C41.9204606,12.554914 42.7058632,13.3548498 42.7058632,14.3413688 Z M21.9447849,12.554914 C22.9136071,12.554914 23.6991931,13.354663 23.6991931,14.3413688 C23.6991931,15.3278879 22.9137905,16.1278237 21.9447849,16.1278237 C20.9759627,16.1278237 20.1903767,15.3280746 20.1903767,14.3413688 C20.1903767,13.3548498 20.9757793,12.554914 21.9447849,12.554914 Z" id="Shape"></path>
            </g>
        </g>
    </g>
</svg>