<?xml version="1.0" encoding="UTF-8"?>
<svg width="64px" height="74px" viewBox="0 0 64 74" version="1.1" xmlns="http://www.w3.org/2000/svg" xmlns:xlink="http://www.w3.org/1999/xlink">
    <!-- Generator: Sketch 63.1 (92452) - https://sketch.com -->
    <title>html-5</title>
    <desc>Created with Sketch.</desc>
    <g id="final-design" stroke="none" stroke-width="1" fill="none" fill-rule="evenodd">
        <g id="invensis.net-2.0-solustion-detail-page-tab-1-copy" transform="translate(-1380.000000, -939.000000)" fill="#FC490B" fill-rule="nonzero">
            <g id="html-5" transform="translate(1380.000000, 939.000000)">
                <path d="M0.00695781906,2.42939043 L4.7580884,63.3625998 C4.82941353,64.2775936 5.44722743,65.0578654 6.31999075,65.335254 L31.3205454,73.2813148 C31.76266,73.421784 32.2373178,73.421784 32.6794325,73.2813148 L57.6799871,65.335254 C58.5527505,65.0578654 59.1705644,64.2775936 59.2418895,63.3625998 L63.9930201,2.42939043 C64.0952022,1.11935871 63.062421,0 61.7517585,0 L2.24838802,0 C0.937725494,0 -0.0950556671,1.11935871 0.00695781906,2.42939043 Z M51.8090689,21.334923 L20.845025,21.334923 L21.7795023,29.9735256 L51.1356112,29.9735256 L49.2152284,54.6009386 L32.0000733,60.0724763 L14.7849181,54.6009386 L13.7816449,41.7345678 L22.8175106,41.7345678 L22.8175106,48.045709 L32.2415333,50.5812542 L41.6092378,48.045709 L42.3359785,37.987539 L13.4894311,37.987539 L11.5742754,13.4246979 L52.4257024,13.4246979 L51.8090689,21.334923 Z" id="Shape"></path>
            </g>
        </g>
    </g>
</svg>