<?xml version="1.0" encoding="UTF-8"?>
<svg width="55px" height="66px" viewBox="0 0 55 66" version="1.1" xmlns="http://www.w3.org/2000/svg" xmlns:xlink="http://www.w3.org/1999/xlink">
    <!-- Generator: Sketch 63.1 (92452) - https://sketch.com -->
    <title>Group 8</title>
    <desc>Created with Sketch.</desc>
    <g id="final-design" stroke="none" stroke-width="1" fill="none" fill-rule="evenodd">
        <g id="invensis.net-2.0-solustion-detail-page-tab-1-copy" transform="translate(-478.000000, -1141.000000)" fill="#707070" fill-rule="nonzero">
            <g id="Group-8" transform="translate(478.000000, 1141.000000)">
                <path d="M2.83834483,24.5523036 C-2.85141328,34.1674403 0.765670874,48.7589393 7.05761436,57.6062833 C10.1982902,62.0295255 13.3780232,66 17.7332202,66 C17.8153063,66 17.8976131,65.9984958 17.9819058,65.9952725 C20.0281004,65.9157641 21.5067534,65.3022606 22.9364196,64.7093863 C24.5415118,64.0432353 26.2015486,63.3545212 28.8053549,63.3545212 C31.2825015,63.3545212 32.8633209,64.0208871 34.3920641,64.6651195 C35.8987412,65.2998969 37.4506539,65.9565927 39.7437687,65.9146897 C44.6495163,65.8257263 47.6615465,61.5413014 50.3189736,57.7616469 C53.0920273,53.8152398 54.4830777,49.9835826 54.9524249,48.5193399 L54.9714018,48.4611054 C55.0607697,48.2008767 54.9345513,47.9167956 54.6783632,47.8022606 C54.671302,47.7990373 54.645264,47.7885078 54.6379821,47.7854994 C53.7740922,47.4414647 46.1961332,44.1676551 46.1164743,35.2446708 C46.0425527,27.9952295 51.8013779,24.1562661 52.9563205,23.4604607 L53.0101619,23.4277978 C53.135277,23.3493639 53.2224383,23.2249441 53.2520069,23.0826887 C53.2815756,22.9406481 53.250683,22.7928056 53.1668316,22.6733282 C49.1918344,17.0084666 43.0993689,16.1547189 40.6464951,16.0520028 C40.290568,16.0174059 39.9231666,16 39.5542204,16 C36.6732632,16 33.9134492,17.0596098 31.6962419,17.9109936 C30.1657334,18.4987107 28.84375,19.0062747 27.9319765,19.0062747 C26.9074449,19.0062747 25.5779591,18.4924789 24.0384034,17.8976706 C21.9796311,17.1019426 19.6461352,16.2002751 17.1758292,16.2002751 C17.1169125,16.2002751 17.0588785,16.2009197 17.0017272,16.2019942 C11.257907,16.284296 5.83051547,19.4843992 2.83834483,24.5523036 Z" id="XMLID_229_"></path>
                <path d="M40.3369512,0.000414024722 C36.7435325,0.138750153 32.4329348,2.22952189 29.8564698,5.08200423 C27.6668622,7.47961498 25.5278628,11.4771412 26.0913933,15.506558 C26.1267279,15.7586659 26.343751,15.9532415 26.6120663,15.9728499 C26.8546214,15.9907345 27.1021919,15.9997845 27.3488504,16 C30.8624811,16 34.6528619,14.162629 37.241409,11.2041321 C39.9658235,8.08014892 41.3434184,4.07098692 40.9266976,0.479849983 C40.8938706,0.198437236 40.6319384,-0.0105752939 40.3369512,0.000414024722 Z" id="XMLID_230_"></path>
            </g>
        </g>
    </g>
</svg>