<?xml version="1.0" encoding="UTF-8"?>
<svg width="64px" height="87px" viewBox="0 0 64 87" version="1.1" xmlns="http://www.w3.org/2000/svg" xmlns:xlink="http://www.w3.org/1999/xlink">
    <!-- Generator: Sketch 63.1 (92452) - https://sketch.com -->
    <title>java</title>
    <desc>Created with Sketch.</desc>
    <g id="final-design" stroke="none" stroke-width="1" fill="none" fill-rule="evenodd">
        <g id="invensis.net-2.0-solustion-detail-page-tab-1-copy" transform="translate(-778.000000, -1131.000000)" fill-rule="nonzero">
            <g id="java" transform="translate(778.000000, 1131.000000)">
                <g id="Group" transform="translate(19.705263, 0.000000)" fill="#DB380E">
                    <path d="M11.8676211,15.9779368 C7.88311579,18.7802947 3.36724211,21.9565474 0.947536842,27.2114526 C-3.25524211,36.3794526 9.54745263,46.3797895 10.0946526,46.8010105 C10.2218105,46.8988632 10.3740632,46.9477053 10.5258105,46.9477053 C10.6869895,46.9477053 10.8483368,46.8926316 10.9793684,46.7828211 C11.2335158,46.5702737 11.3056,46.2091789 11.1530105,45.9151158 C11.1066947,45.8258526 6.51115789,36.8995368 6.68193684,30.4958316 C6.7424,28.2654316 9.86374737,25.7352421 13.1681684,23.0565053 C16.1946947,20.6029474 19.6254316,17.8221474 21.6326737,14.5690947 C26.0392421,7.40850526 21.1415579,0.367494737 21.0915368,0.297094737 C20.8970105,0.0239157895 20.5379368,-0.0749473684 20.2309053,0.0596210526 C19.9242105,0.195031579 19.7542737,0.526652632 19.8243368,0.854568421 C19.8342737,0.901221053 20.7866947,5.55738947 18.1364211,10.3545263 C17.0447158,12.3368421 14.6457263,14.0240842 11.8676211,15.9779368 Z" id="Path"></path>
                    <path d="M28.6546526,19.1354947 C28.9357474,18.9237895 29.0182737,18.5376 28.8483368,18.2293895 C28.6780632,17.9211789 28.3075368,17.7852632 27.9784421,17.9102316 C27.3015579,18.1675789 11.4031158,24.2959158 11.4031158,31.7005474 C11.4031158,36.8048842 13.5834947,39.5013053 15.1755789,41.4704842 C15.8000842,42.2428632 16.3392,42.9098105 16.5168842,43.4792421 C17.0170947,45.1201684 15.8320842,48.0860632 15.3337263,49.0905263 C15.1900632,49.3792 15.2604632,49.7291789 15.5048421,49.9400421 C15.6368842,50.0540632 15.8017684,50.112 15.9668211,50.112 C16.1072842,50.112 16.2484211,50.0702316 16.3703579,49.9853474 C16.6437053,49.7953684 23.0511158,45.2651789 21.9019789,39.8071579 C21.4738526,37.7325474 20.4544,36.2167579 19.5548632,34.8791579 C18.1613474,32.8067368 17.1548632,31.3098105 18.6817684,28.5450105 C20.4707368,25.3200842 28.5726316,19.1968 28.6546526,19.1354947 Z" id="Path"></path>
                </g>
                <g id="Group" transform="translate(0.000000, 45.305263)" fill="#73A1FB">
                    <path d="M6.97566316,4.92395789 C6.70315789,5.73995789 6.83183158,6.54938947 7.34736842,7.26551579 C9.07082105,9.65827368 15.1755789,10.9756632 24.5377684,10.9756632 C24.5382737,10.9756632 24.5386105,10.9756632 24.5389474,10.9756632 C25.8074947,10.9756632 27.1467789,10.9507368 28.5185684,10.9015579 C43.4869895,10.3658105 49.0388211,5.70256842 49.2678737,5.50433684 C49.5174737,5.28825263 49.5841684,4.92850526 49.4290526,4.63747368 C49.2737684,4.34661053 48.9391158,4.20042105 48.6192842,4.28850526 C43.3475368,5.72783158 33.5038316,6.23882105 26.6760421,6.23882105 C19.0359579,6.23882105 15.1450947,5.68842105 14.1925053,5.28202105 C14.6812632,4.61086316 17.696,3.41237895 21.4317474,2.67755789 C21.7888,2.60749474 22.0341895,2.27772632 21.9988211,1.91562105 C21.9634526,1.55351579 21.6592842,1.27730526 21.2953263,1.27730526 C19.1055158,1.27730526 8.12362105,1.45313684 6.97566316,4.92395789 Z" id="Path"></path>
                    <path d="M57.0630737,0.120926316 C53.9757474,0.120926316 51.0480842,1.66837895 50.9248,1.73389474 C50.6393263,1.88682105 50.4944842,2.21423158 50.5728,2.52884211 C50.6514526,2.84294737 50.9338947,3.06374737 51.2577684,3.06408421 C51.3232842,3.06408421 57.8433684,3.11747368 58.4338526,6.84277895 C58.9569684,10.0565895 52.2647579,15.2638316 49.6419368,16.9992421 C49.3586526,17.1866947 49.2486737,17.5488 49.3802105,17.8620632 C49.4922105,18.1286737 49.7517474,18.2954105 50.0316632,18.2954105 C50.0805053,18.2954105 50.1300211,18.2903579 50.1792,18.2799158 C50.8016842,18.1466947 65.4054737,14.9285053 63.8613895,6.42576842 C62.9194105,1.21482105 59.6442947,0.120926316 57.0630737,0.120926316 Z" id="Path"></path>
                    <path d="M47.0479158,15.9587368 C47.0987789,15.6864 46.9854316,15.4093474 46.7587368,15.2501895 L43.2570947,12.7974737 C43.0863158,12.6778947 42.8705684,12.6403368 42.6701474,12.6933895 C42.6336,12.7026526 38.9717895,13.6653474 33.6554105,14.2556632 C31.5454316,14.4922947 29.1821474,14.6172632 26.8205474,14.6172632 C21.5055158,14.6172632 18.0303158,13.9927579 17.5242105,13.5346526 C17.4571789,13.4059789 17.4784,13.3475368 17.4903579,13.3150316 C17.5823158,13.0593684 18.0751158,12.7555368 18.3927579,12.6352842 C18.7435789,12.5054316 18.9327158,12.1244632 18.8235789,11.7667368 C18.7147789,11.4085053 18.3457684,11.1978105 17.9816421,11.2852211 C14.4690526,12.1328842 12.7514947,13.3182316 12.8764632,14.8082526 C13.0984421,17.4501053 19.2175158,18.8060632 24.3905684,19.1644632 C25.1344842,19.2153263 25.9390316,19.2410947 26.7813053,19.2410947 C26.7818105,19.2410947 26.7821474,19.2410947 26.7826526,19.2410947 C35.3845895,19.2410947 46.4121263,16.5421474 46.5222737,16.5146947 C46.7915789,16.4490105 46.9968842,16.2315789 47.0479158,15.9587368 Z" id="Path"></path>
                    <path d="M20.6487579,21.6284632 C20.9140211,21.456 21.0315789,21.1280842 20.9374316,20.8261053 C20.8436211,20.5241263 20.5611789,20.3257263 20.2438737,20.3298711 C19.7731368,20.3424 15.6377263,20.5290105 15.3482105,23.1619368 C15.2606316,23.9488 15.4859789,24.6677895 16.0183579,25.2985263 C17.5031579,27.0581895 21.5112421,28.1040842 28.2694737,28.4958316 C29.0689684,28.5438316 29.8810947,28.5679158 30.6836211,28.5679158 C39.2756211,28.5679158 45.0622316,25.8777263 45.3045895,25.7632 C45.5395368,25.6520421 45.6944842,25.4211368 45.7082947,25.1617684 C45.7221053,24.9024 45.5925895,24.6563368 45.3709474,24.5207579 L40.9456842,21.8192842 C40.7920842,21.7256421 40.6083368,21.6946526 40.4331789,21.7305263 C40.4052211,21.7364211 37.5954526,22.3191579 33.3551158,22.8948211 C32.5527579,23.0039579 31.5479579,23.0593684 30.3690105,23.0593684 C26.1332211,23.0593684 21.4218105,22.3673263 20.5182316,21.9141053 C20.5050947,21.8295579 20.5217684,21.7221053 20.6487579,21.6284632 Z" id="Path"></path>
                    <path d="M26.6792421,36.6905263 C46.3599158,36.6738526 56.9227789,33.1738947 58.9576421,30.9714526 C59.6779789,30.1923368 59.7557895,29.4546526 59.6946526,28.9728 C59.5434105,27.7871158 58.4633263,27.0612211 58.3408842,26.9824 C58.0454737,26.7924211 57.6490105,26.8421053 57.4186105,27.1078737 C57.1887158,27.3736421 57.1833263,27.7620211 57.4140632,28.0276211 C57.5381895,28.1872842 57.6099368,28.4545684 57.2469895,28.8178526 C56.4335158,29.5776 48.2288842,31.8837895 34.5680842,32.5766737 C32.6967579,32.6738526 30.7339789,32.7233684 28.7346526,32.7237053 C16.5034105,32.7237053 7.552,31.0482526 6.37692632,30.0720842 C6.82981053,29.4213053 9.99612632,28.3816421 13.3633684,27.7935158 C13.7428211,27.7273263 13.9991579,27.3697684 13.9403789,26.9891368 C13.8816,26.6086737 13.5307789,26.3467789 13.1472842,26.3964632 C13.0522947,26.4094316 12.7299368,26.4286316 12.3567158,26.4515368 C6.80084211,26.7907368 0.380463158,27.5467789 0.0454736842,30.4094316 C-0.0562526316,31.2816842 0.202947368,32.0736 0.816168421,32.7627789 C2.31663158,34.4486737 6.62938947,36.6901895 26.6785684,36.6901895 C26.6789053,36.6905263 26.6789053,36.6905263 26.6792421,36.6905263 Z" id="Path"></path>
                    <path d="M62.8232421,31.5920842 C62.5450105,31.4634105 62.2162526,31.5284211 62.0087579,31.7524211 C61.9799579,31.7835789 59.0209684,34.8776421 50.1242947,36.6945684 C46.7183158,37.3770105 40.3250526,37.7231158 31.1220211,37.7231158 C21.9018105,37.7231158 13.1282526,37.3603368 13.0408421,37.3566316 C12.6743579,37.3387789 12.3609263,37.6052211 12.3110737,37.9659789 C12.2610526,38.3264 12.4934737,38.6662737 12.8473263,38.7504842 C12.9386105,38.7720421 22.1332211,40.9261474 34.7048421,40.9261474 C40.7344842,40.9261474 46.6019368,40.4365474 52.1445053,39.4701474 C62.4789895,37.6584421 63.2025263,32.5340632 63.2282947,32.3168 C63.2643368,32.0131368 63.1009684,31.7207579 62.8232421,31.5920842 Z" id="Path"></path>
                </g>
            </g>
        </g>
    </g>
</svg>