<?xml version="1.0" encoding="UTF-8"?>
<svg width="64px" height="75px" viewBox="0 0 64 75" version="1.1" xmlns="http://www.w3.org/2000/svg" xmlns:xlink="http://www.w3.org/1999/xlink">
    <!-- Generator: Sketch 63.1 (92452) - https://sketch.com -->
    <title>linux</title>
    <desc>Created with Sketch.</desc>
    <g id="final-design" stroke="none" stroke-width="1" fill="none" fill-rule="evenodd">
        <g id="invensis.net-2.0-solustion-detail-page-tab-1-copy" transform="translate(-1079.000000, -1143.000000)" fill-rule="nonzero">
            <g id="linux" transform="translate(1079.000000, 1143.000000)">
                <g id="Group" transform="translate(15.780822, 10.812785)" fill="#FFFFFF">
                    <path d="M16.7079452,5.28672146 C16.6968402,5.17143379 16.6915799,5.05614612 16.6915799,4.94056621 C16.6915799,3.24880365 17.7997443,1.87251142 19.1614247,1.87251142 C20.5549589,1.87251142 21.6464658,3.22016438 21.6464658,4.94056621 C21.6464658,5.33011872 21.5878721,5.70564384 21.4787215,6.05252968 C21.8871233,5.40347032 22.1233973,4.58666667 22.1233973,3.73041096 C22.1233973,1.67320548 20.8083288,-0.000730593607 19.1922557,-0.000730593607 C17.5757443,-0.000730593607 16.2611142,1.67305936 16.2611142,3.73041096 C16.2611142,4.23612785 16.3403105,4.73117808 16.4970959,5.20606393 C16.5653333,5.23207306 16.6357626,5.25910502 16.7079452,5.28672146 Z" id="Path"></path>
                    <path d="M9.41106849,2.03455708 C9.4993242,2.02111416 9.58012785,2.01497717 9.66049315,2.01497717 C10.7444018,2.01497717 11.7162374,3.07886758 11.9709224,4.54443836 C11.9964932,4.70516895 12.0125662,4.86531507 12.019726,5.02326941 C12.0901553,4.98747032 12.1617534,4.95386301 12.2346667,4.92273973 C12.2704658,4.66863927 12.2878539,4.43046575 12.2878539,4.19126941 C12.2878539,2.29377169 11.2827032,0.690703196 10.0932968,0.690703196 C9.08025571,0.690703196 8.22663014,1.80646575 7.98334247,3.31353425 C8.26038356,2.62619178 8.76610046,2.1416621 9.41106849,2.03455708 Z" id="Path"></path>
                    <path d="M29.8218082,40.3081644 C30.0943196,39.1526575 30.6364201,36.2022283 30.1232511,32.6332785 C29.4747763,28.1225936 23.1278174,14.0770776 22.0355799,12.5087854 C21.3985023,12.5977717 19.7055708,13.5760365 18.3326393,14.3693151 C16.7405297,15.2891324 15.0937717,16.2406575 13.9740639,16.5638721 C13.740274,16.6300639 13.4958174,16.6627945 13.2439087,16.6627945 C11.6075251,16.6627945 9.83642009,15.2793425 8.69450228,14.189589 C8.49505023,16.3042192 7.36803653,18.9873973 6.1486758,20.3664658 C5.37848402,21.2497534 4.69011872,23.2675068 4.02440183,25.2190685 C3.40778082,27.0261187 2.77026484,28.8949772 1.98969863,30.1274886 C0.41030137,32.5884201 -0.495634703,37.3684018 0.653589041,40.0867945 C1.20971689,41.4044932 3.22820091,42.9606575 5.00894977,44.3332968 C7.18684932,46.012347 9.06754338,47.462137 9.27503196,48.9242009 C9.51715068,50.6529315 8.59777169,51.611032 7.67839269,52.0653151 L10.0105936,54.7338813 C10.3709224,54.7885297 11.2387215,54.8932968 12.5986484,54.8932968 C14.1892968,54.8932968 15.9549954,54.7541918 17.8453333,54.4791963 C22.4865023,53.7917078 25.7190868,49.9670502 26.3583562,49.1549224 C26.3617169,48.0790502 26.3945936,43.2922009 26.7084566,41.7955068 C26.8303196,41.2190685 27.2983379,40.2543927 29.0662283,40.2543927 C29.3410776,40.2539543 29.6027763,40.2780639 29.8218082,40.3081644 Z" id="Path"></path>
                </g>
                <g id="Group" transform="translate(3.652968, 18.264840)" fill="#E69629">
                    <path d="M21.6968767,3.22644749 C21.7879087,3.58034703 22.5934612,4.48555251 23.8462831,5.30747032 C24.0241096,5.42158904 24.1909772,5.53512329 24.3476164,5.64149772 C25.0425571,6.11375342 25.3515982,6.30765297 25.8511781,6.24029224 C26.5867397,6.14385388 29.2965114,4.50089498 30.4537717,3.79923288 L30.7417717,3.62476712 C31.1726758,3.3623379 31.5170776,3.18305023 31.7938265,3.03897717 C32.3417717,2.75389954 32.3913059,2.70787215 32.4146849,2.60383562 C32.3525845,2.44266667 31.8410228,2.01117808 30.8598356,1.67393607 C30.5480183,1.56230137 30.1055708,1.38549772 29.5929863,1.18093151 C28.4840913,0.738191781 26.9651872,0.132383562 26.349589,0.0233789954 C26.3232877,0.0184109589 26.2985936,0.016803653 26.2708311,0.016803653 C25.7468493,0.016803653 24.6882192,0.674191781 23.6361644,1.65245662 C23.117589,2.120621 22.1052785,2.91068493 21.6968767,3.22644749 Z" id="Path"></path>
                    <path d="M12.441863,39.52979 C11.9861187,38.766758 11.5921826,38.1073242 11.3795799,37.7787032 C10.5411507,36.4737169 9.08610046,35.0160365 8.392621,35.0160365 C8.33183562,35.0160365 8.29983562,35.03021 8.27908676,35.042484 C7.90896804,35.2531872 7.59788128,35.895379 7.29673059,36.5159452 C6.88073059,37.3743927 6.40905936,38.3475434 5.53804566,38.8751781 C4.8936621,39.2661918 3.90852968,39.4798174 2.95642009,39.6868676 C2.27886758,39.8340091 0.69260274,40.1781187 0.618082192,40.4995799 C0.515360731,40.9332603 0.610922374,41.3811142 0.732200913,41.9480548 C0.874958904,42.6169863 1.05307763,43.4492785 0.901406393,44.4710868 C0.794447489,45.1119635 0.59996347,45.7240548 0.411324201,46.3161279 C0.149333333,47.1397991 -0.147726027,48.0739361 0.108420091,48.3610594 C0.424328767,48.64 2.33044749,48.9483105 3.72208219,49.1737717 C5.47141553,49.4568037 7.28021918,49.7497717 8.38794521,50.2138447 L8.68149772,50.3374612 C10.6656438,51.1712146 14.3587945,52.7234338 16.2244384,52.7234338 C16.3942283,52.7234338 16.5388858,52.7096986 16.6556347,52.6833973 C16.9773881,52.4668493 18.3405297,51.4875616 18.5966758,50.2835434 C18.946484,48.7319087 17.5244566,46.9220822 16.646137,45.9812237 C15.6712329,44.9342831 13.8048584,41.810411 12.441863,39.52979 Z" id="Path"></path>
                    <path d="M54.6134795,43.2473425 L54.3861187,43.1276712 C52.8244018,42.3021005 52.0033607,40.061516 52.1120731,38.3726758 C52.1323836,38.061589 52.0936621,37.820347 52.0306849,37.6355068 C51.7422466,38.1099543 51.3303379,38.7091872 50.8408402,39.1985388 C50.0092785,40.0302466 47.9792511,40.9275616 46.1496986,40.9275616 C45.4673242,40.9275616 44.8452968,40.8073059 44.3010046,40.569863 C42.4748128,39.7733699 42.2258265,37.4895342 42.2211507,36.3445479 C42.1941187,36.3521461 42.1694247,36.3609132 42.1473607,36.3712877 C42.035726,36.7659543 42.1438539,38.0963653 42.2167671,38.9919269 C42.2557808,39.4710502 42.2959635,39.9663927 42.3197808,40.420968 C42.4232329,42.4239635 41.7852785,45.8212237 41.2316347,48.3185388 C40.7060457,50.7633973 41.6841644,52.4776621 42.8716712,52.8477808 C42.9783379,52.8816804 43.0983014,52.8983379 43.2301005,52.8983379 C44.3240913,52.8983379 46.1358174,51.7660639 47.7375708,50.0804384 C48.8755434,48.8838721 51.4083653,47.5905753 53.643105,46.4493881 C54.9029406,45.8061735 56.205589,45.1407489 56.5758539,44.802484 C56.6582648,44.7257717 56.6705388,44.6828128 56.6708311,44.6825205 C56.6474521,44.3151781 55.1697534,43.5392877 54.6134795,43.2473425 Z" id="Path"></path>
                </g>
                <path d="M61.9647123,60.0683836 C59.7708858,59.1701918 58.8323653,57.9777169 58.923105,56.1984292 C59.016621,54.12179 57.8384658,52.6009863 57.2789772,52 C57.6169498,50.7087489 58.6047123,46.2420457 57.28,42.3621553 C55.8563653,38.2094612 51.5097717,31.8671781 47.0249498,25.6327306 C45.188968,23.0724384 45.1021735,20.2891689 45.00179,17.0665205 C44.9056438,13.9927671 44.7972237,10.5087123 43.083105,6.63554338 C41.2193607,2.41826484 37.4795982,0 32.8223562,0 C30.0517991,0 27.2078904,0.865899543 25.0194703,2.37545205 C20.5380091,5.46834703 21.1303744,12.2115799 21.522411,16.6733151 C21.5761826,17.2843836 21.6265936,17.8615525 21.6561096,18.3542648 C21.9170776,22.7243836 21.6796347,25.0277991 21.3691324,25.7278539 C21.1682192,26.1853516 20.1792877,27.4872694 19.1326393,28.8658995 C18.0501918,30.291726 16.8229406,31.9075068 15.8170594,33.4132603 C14.6168402,35.2252785 13.6479269,37.9948128 12.7110137,40.6730228 C12.0254247,42.632621 11.3778265,44.4837991 10.7474703,45.5906484 C9.55265753,47.7187215 9.85000913,49.7031598 10.0981187,50.620347 C9.64573516,50.9345023 8.99229224,51.5534612 8.44069406,52.7194886 C7.77395434,54.1421005 6.42118721,54.9064475 3.60825571,55.447379 C2.31554338,55.7118539 1.42421918,56.2554155 0.958100457,57.0628676 C0.279817352,58.2381005 0.649351598,59.7146301 0.98630137,60.7240183 C1.48427397,62.2072694 1.17391781,63.1462283 0.609753425,64.8512877 C0.479707763,65.2444932 0.332273973,65.6901553 0.182940639,66.1812603 C-0.0523105023,66.9568584 0.0325844749,67.661589 0.434557078,68.2767489 C1.49684018,69.9005662 4.59689498,70.4733516 7.78812785,70.8503379 C9.69351598,71.0765297 11.7789224,71.8385388 13.7959452,72.5757078 C15.7722009,73.2978265 17.8158174,74.0447854 19.6732785,74.2714155 C19.9555799,74.3069224 20.2352511,74.3246027 20.5048402,74.3246027 C23.3094429,74.3246027 24.5765845,72.4637808 24.978411,71.6992877 C25.9857534,71.4936986 29.4603105,70.8354338 33.0413881,70.7468858 C36.6167671,70.6450411 40.0759817,71.3510868 41.056,71.5702648 C41.3640183,72.16 42.1762922,73.5067763 43.4709041,74.2009863 C44.1825023,74.5899543 45.1727489,74.8129315 46.1869589,74.8129315 C46.1872511,74.8129315 46.1869589,74.8129315 46.1872511,74.8129315 C47.2704292,74.8129315 49.3311416,74.5567854 50.9621187,72.8407671 C52.5888584,71.1171507 56.6532968,68.9161644 59.6212603,67.3092968 C60.2836164,66.9507215 60.9031598,66.6150868 61.4464292,66.3124749 C63.1136438,65.388274 64.023379,64.0677991 63.9422831,62.6896073 C63.874484,61.5443288 63.1167123,60.5402009 61.9647123,60.0683836 Z M34.9727854,10.8120548 C36.5890046,10.8120548 37.9039269,12.4858447 37.9039269,14.5431963 C37.9039269,15.3993059 37.667653,16.2161096 37.2592511,16.8653151 C37.3681096,16.5184292 37.4269954,16.1429041 37.4269954,15.7533516 C37.4269954,14.0329498 36.3354886,12.6852968 34.9419543,12.6852968 C33.5801279,12.6852968 32.4721096,14.061589 32.4721096,15.7533516 C32.4721096,15.8689315 32.4778082,15.9842192 32.4884749,16.0995068 C32.4162922,16.0720365 32.3460091,16.0448584 32.2773333,16.0188493 C32.1205479,15.5439635 32.0413516,15.0489132 32.0413516,14.5431963 C32.0414977,12.4859909 33.356274,10.8120548 34.9727854,10.8120548 Z M30.002411,18.2888037 C30.6181553,18.397516 32.136621,19.0036164 33.2458082,19.4463562 C33.7583927,19.6509224 34.2012785,19.827726 34.5126575,19.9393607 C35.4938447,20.2766027 36.0055525,20.7080913 36.0675068,20.8692603 C36.044274,20.9734429 35.9945936,21.0193242 35.4466484,21.3044018 C35.1698995,21.4483288 34.8256438,21.6274703 34.3945936,21.8901918 L34.1065936,22.0646575 C32.9493333,22.7664658 30.2395616,24.4095708 29.504,24.5057169 C29.004274,24.5729315 28.6952329,24.3788858 28.0004384,23.9069224 C27.843653,23.8002557 27.6769315,23.6868676 27.499105,23.572895 C26.2464292,22.7506849 25.4405845,21.8457717 25.3496986,21.4918721 C25.7581005,21.1762557 26.770411,20.3860457 27.2886941,19.9180274 C28.3407489,18.9397626 29.399379,18.2823134 29.9233607,18.2823134 C29.9511233,18.2819361 29.9762557,18.2838356 30.002411,18.2888037 Z M25.8736804,11.5030502 C27.063379,11.5030502 28.0682374,13.1059726 28.0682374,15.0036164 C28.0682374,15.2429589 28.0509954,15.4809863 28.0150502,15.7350868 C27.942137,15.76621 27.8705388,15.8001096 27.8001096,15.8356164 C27.7929498,15.6773699 27.7765845,15.517516 27.7513059,15.3567854 C27.4967671,13.8912146 26.5247854,12.8273242 25.4408767,12.8273242 C25.3606575,12.8273242 25.28,12.8334612 25.1914521,12.8469041 C24.5466301,12.9543014 24.0407671,13.4385388 23.7635799,14.125589 C24.0071598,12.6186667 24.8609315,11.5030502 25.8736804,11.5030502 Z M22.2496438,68.5483836 C21.9934977,69.7525479 20.63021,70.7316895 20.3086027,70.9482374 C20.1918539,70.9745388 20.0473425,70.988274 19.8774064,70.988274 C18.0117626,70.988274 14.3186119,69.4360548 12.3344658,68.6023014 L12.0409132,68.4786849 C10.932895,68.0143196 9.12423744,67.72179 7.37505023,67.4386119 C5.98326941,67.2131507 4.07744292,66.9048402 3.76138813,66.6258995 C3.50524201,66.3386301 3.80230137,65.4046393 4.06429224,64.580968 C4.25293151,63.988895 4.44770776,63.3768037 4.55437443,62.7359269 C4.70575342,61.7141187 4.52792694,60.8815342 4.38516895,60.212895 C4.26403653,59.6458082 4.16832877,59.1981005 4.27105023,58.7644201 C4.34557078,58.443105 5.93183562,58.0989954 6.60938813,57.9517078 C7.56178995,57.7446575 8.54692237,57.531032 9.1910137,57.1400183 C10.0620274,56.6123836 10.5336986,55.639379 10.9496986,54.7807854 C11.2508493,54.1602192 11.5619361,53.5180274 11.9320548,53.3073242 C11.9529498,53.294758 11.9848037,53.2808767 12.045589,53.2808767 C12.7390685,53.2808767 14.1941187,54.738411 15.0325479,56.0435434 C15.2451507,56.3721644 15.6390868,57.0313059 16.0948311,57.7946301 C17.4579726,60.0753973 19.324347,63.1991233 20.299105,64.2459178 C21.1774247,65.1869224 22.5993059,66.9966027 22.2496438,68.5483836 Z M42.4894247,52.6081461 C42.176,54.1048402 42.1428311,58.8916895 42.1393242,59.9675616 C41.5000548,60.7796895 38.2674703,64.6042009 33.6263014,65.2918356 C31.7358174,65.5665388 29.9705571,65.7059361 28.3796164,65.7059361 C27.0196895,65.7059361 26.1518904,65.6008767 25.7915616,65.5465205 L23.4593607,62.8779543 C24.3787397,62.4236712 25.2981187,61.4655708 25.056,59.7368402 C24.8485114,58.2749224 22.9678174,56.8249863 20.7899178,55.1459361 C19.0091689,53.7732968 16.9906849,52.2174247 16.4345571,50.8994338 C15.2853333,48.1813333 16.1912694,43.4013516 17.7706667,40.9401279 C18.5512329,39.7077626 19.1887489,37.838758 19.8053699,36.0317078 C20.4710868,34.0801461 21.1595982,32.0622466 21.9296438,31.179105 C23.1490046,29.8000365 24.2758721,27.1168584 24.4754703,25.0022283 C25.617242,26.0919817 27.3884932,27.4754338 29.0248767,27.4754338 C29.2767854,27.4754338 29.5213881,27.4425571 29.755032,27.3765114 C30.8745936,27.0531507 32.5212055,26.1017717 34.1136073,25.1819543 C35.4865388,24.3886758 37.1794703,23.410411 37.8165479,23.3214247 C38.9087854,24.889863 45.2557443,38.935379 45.9042192,43.4459178 C46.4173881,47.0148676 45.8752877,49.9651507 45.6027763,51.1208037 C45.3834521,51.0907032 45.1220457,51.0665936 44.8473425,51.0665936 C43.0793059,51.0667397 42.6112877,52.0317078 42.4894247,52.6081461 Z M60.2292603,63.0679087 C59.8591416,63.4061735 58.556347,64.0715982 57.2965114,64.7148128 C55.0616256,65.8557078 52.5285114,67.1492968 51.3909772,68.345863 C49.7892237,70.0314886 47.9774977,71.1637626 46.8835068,71.1637626 C46.7518539,71.1637626 46.6318904,71.147105 46.5250776,71.1132055 C45.3374247,70.7430868 44.3594521,69.0286758 44.8850411,66.5839635 C45.4386849,64.0863562 46.076347,60.6893881 45.9731872,58.6863927 C45.9493699,58.2316712 45.9091872,57.7363288 45.8701735,57.2573516 C45.7972603,56.3620822 45.6891324,55.0315251 45.8007671,54.6367123 C45.8228311,54.6263379 45.847379,54.6175708 45.8745571,54.6099726 C45.8792329,55.7549589 46.1279269,58.0389406 47.954411,58.8352877 C48.4987032,59.0727306 49.1207306,59.1929863 49.803105,59.1929863 C51.6326575,59.1929863 53.6626849,58.2956712 54.4942466,57.4639635 C54.9838904,56.9746119 55.395653,56.375379 55.6840913,55.9009315 C55.7470685,56.0856256 55.7859361,56.3270137 55.7654795,56.6379543 C55.6567671,58.3267945 56.477516,60.5672329 58.0395251,61.3929498 L58.2668858,61.512621 C58.8231598,61.804274 60.3008584,62.5803105 60.3246758,62.9480913 C60.3239452,62.9480913 60.3116712,62.9913425 60.2292603,63.0679087 Z" id="Shape" fill="#000000"></path>
            </g>
        </g>
    </g>
</svg>