<?xml version="1.0" encoding="UTF-8"?>
<svg width="51px" height="70px" viewBox="0 0 51 70" version="1.1" xmlns="http://www.w3.org/2000/svg" xmlns:xlink="http://www.w3.org/1999/xlink">
    <!-- Generator: Sketch 63.1 (92452) - https://sketch.com -->
    <title>php-file 2</title>
    <desc>Created with Sketch.</desc>
    <g id="final-design" stroke="none" stroke-width="1" fill="none" fill-rule="evenodd">
        <g id="invensis.net-2.0-solustion-detail-page-tab-1-copy" transform="translate(-485.000000, -1360.000000)" fill="#0076FF" fill-rule="nonzero">
            <g id="php-file-2" transform="translate(485.000000, 1360.000000)">
                <g id="php-file">
                    <path d="M38.1860769,30.6116447 L37.0476923,30.6116447 L37.0476923,35.3896053 L38.1860769,35.3896053 C41.2451538,35.3896053 41.2451538,33.6216447 41.2451538,32.9561842 C41.2451538,32.3149013 41.2451538,30.6116447 38.1860769,30.6116447 Z" id="Path"></path>
                    <path d="M11.1168462,30.6116447 L9.97846154,30.6116447 L9.97846154,35.3896053 L11.1168462,35.3896053 C14.1756963,35.3896053 14.1756963,33.6216447 14.1756963,32.9561842 C14.1759231,32.3149013 14.1759231,30.6116447 11.1168462,30.6116447 Z" id="Path"></path>
                    <path d="M37.0624615,0 L3.70107692,0 C1.78269231,0 0.227076923,1.55197368 0.227076923,3.46615132 L0.227076923,66.5267105 C0.227076923,68.4408882 1.78246154,69.9928618 3.70107692,69.9928618 L47.5225385,69.9928618 C49.4411538,69.9928618 50.9965385,68.4408882 50.9965385,66.5267105 L50.9965385,13.9035197 L37.0624615,0 Z M11.1168462,38.7311842 L9.97846154,38.7311842 L9.97846154,41.3057566 C9.97846154,42.2284211 9.22869231,42.9765461 8.304,42.9765461 C7.37930769,42.9765461 6.62953846,42.2284211 6.62953846,41.3057566 L6.62953846,28.9410855 C6.62953846,28.0184211 7.37930769,27.2702961 8.304,27.2702961 L11.1168462,27.2702961 C15.0692308,27.2702961 17.5246154,29.4490461 17.5246154,32.9561842 C17.5246154,36.5183553 15.0694615,38.7311842 11.1168462,38.7311842 Z M31.9211538,41.0517763 C31.9211538,41.9744408 31.1716154,42.7225658 30.2466923,42.7225658 C29.322,42.7225658 28.5722308,41.9744408 28.5722308,41.0517763 L28.5722308,36.3012171 L22.2946154,36.3012171 L22.2946154,41.0517763 C22.2946154,41.9744408 21.5450769,42.7225658 20.6201538,42.7225658 C19.6954615,42.7225658 18.9456923,41.9744408 18.9456923,41.0517763 L18.9456923,28.6871053 C18.9456923,27.7644408 19.6954615,27.0163158 20.6201538,27.0163158 C21.5448462,27.0163158 22.2946154,27.7644408 22.2946154,28.6871053 L22.2946154,32.9598684 L28.5724615,32.9598684 L28.5724615,28.6871053 C28.5724615,27.7644408 29.322,27.0163158 30.2469231,27.0163158 C31.1716154,27.0163158 31.9213846,27.7644408 31.9213846,28.6871053 L31.9213846,41.0517763 L31.9211538,41.0517763 Z M38.1860769,38.7311842 L37.0476923,38.7311842 L37.0476923,41.3057566 C37.0476923,42.2284211 36.2979231,42.9765461 35.3732308,42.9765461 C34.4485385,42.9765461 33.6987692,42.2284211 33.6987692,41.3057566 L33.6987692,28.9410855 C33.6987692,28.0184211 34.4485385,27.2702961 35.3732308,27.2702961 L38.1860769,27.2702961 C42.1384615,27.2702961 44.5940769,29.4490461 44.5940769,32.9561842 C44.5938462,36.5183553 42.1384615,38.7311842 38.1860769,38.7311842 Z M35.7623077,16.0887171 C35.1507692,16.0887171 34.6550769,15.5945724 34.6550769,14.9841447 L34.6550769,4.37638158 L46.3968462,16.0887171 L35.7623077,16.0887171 L35.7623077,16.0887171 Z" id="Shape"></path>
                </g>
            </g>
        </g>
    </g>
</svg>