<?xml version="1.0" encoding="UTF-8"?>
<svg width="64px" height="61px" viewBox="0 0 64 61" version="1.1" xmlns="http://www.w3.org/2000/svg" xmlns:xlink="http://www.w3.org/1999/xlink">
    <!-- Generator: Sketch 63.1 (92452) - https://sketch.com -->
    <title>icon</title>
    <desc>Created with Sketch.</desc>
    <g id="final-design" stroke="none" stroke-width="1" fill="none" fill-rule="evenodd">
        <g id="invensis.net-2.0-solustion-detail-page-tab-1-copy" transform="translate(-778.000000, -1357.000000)" fill-rule="nonzero">
            <g id="icon" transform="translate(778.000000, 1357.000000)">
                <path d="M42.1688447,28.4372036 C47.0022393,26.2261167 47.7225831,9.3962424 44.8710669,4.43918899 C41.1461805,-2.0321011 23.4399071,-0.732569619 17.8488452,3.89300909 C17.2068808,6.19073142 17.2740632,10.3605324 17.303922,13.6752794 L34.8534367,13.6752794 L34.8534367,15.2271836 L17.3076543,15.2271836 C17.3076543,15.2497842 9.49584356,15.2761515 9.49584356,15.2761515 C-3.97421141,15.2761515 -3.69428508,44.8 14.0791707,44.8 C14.0791707,44.8 14.7323321,38.2609083 15.8744315,34.9838289 C19.4015033,24.8700839 34.218937,32.0758918 42.1688447,28.4372036 Z M23.7944805,11.2796214 C21.7715462,11.2796214 20.1330441,9.62601463 20.1330441,7.58066509 C20.1330441,5.5390823 21.7715462,3.88170882 23.7944805,3.88170882 C25.8211471,3.88170882 27.4596556,5.5390823 27.4596556,7.58066509 C27.4633816,9.62224788 25.8211471,11.2796214 23.7944805,11.2796214 Z" id="Shape" fill="#336B9D"></path>
                <path d="M48.9337974,15.7090909 C48.9337974,15.7090909 48.4656914,22.2515373 47.3197681,25.5246438 C43.7808872,35.6339852 28.9175872,28.4323977 20.9373171,32.0708567 C16.0914844,34.2818043 15.3612391,51.1106186 18.2260475,56.0673598 C21.9596605,62.5420089 39.7252173,61.2425592 45.3387437,56.6135053 C45.9828575,54.3196942 45.9154503,50.1501559 45.8854915,46.8356177 L28.2734734,46.8356177 L28.2734734,45.2838112 L45.8780018,45.2838112 C45.8780018,45.261212 54.5548136,45.2348464 54.5548136,45.2348464 C67.0101765,45.2348464 68.1261411,15.7090909 48.9337974,15.7090909 Z M38.7403223,48.5870498 C40.7700297,48.5870498 42.4177626,50.2405524 42.4177626,52.2857731 C42.4177626,54.3272273 40.7700297,55.9807299 38.7403223,55.9807299 C36.710615,55.9807299 35.0666269,54.3272273 35.0666269,52.2857731 C35.0666269,50.2405524 36.710615,48.5870498 38.7403223,48.5870498 Z" id="Shape" fill="#FFD32D"></path>
            </g>
        </g>
    </g>
</svg>