<?xml version="1.0" encoding="utf-8"?>
<!-- Generator: Adobe Illustrator 24.1.2, SVG Export Plug-In . SVG Version: 6.00 Build 0)  -->
<svg version="1.1" id="Layer_1" xmlns="http://www.w3.org/2000/svg" xmlns:xlink="http://www.w3.org/1999/xlink" x="0px" y="0px"
	 viewBox="0 0 64 62" style="enable-background:new 0 0 64 62;" xml:space="preserve">
<style type="text/css">
	.st0{fill:#CE0000;}
</style>
<g>
	<path class="st0" d="M13.42,61.49c-3.45,0-6.88,0-10.33,0c-0.7,0-0.72-0.06-0.6-1.15c0.65-6.05,1.82-11.83,3.38-17.44
		c1.99-7.17,4.5-13.82,7.83-19.67C17.69,16.2,22.27,10.44,27.92,7c2.19-1.33,4.47-1.97,6.82-2.08c5.04-0.24,9.76,1.7,14.31,4.9
		c5.25,3.69,9.92,8.74,14.16,14.79c0.48,0.69,0.48,0.69-0.03,1.3c-0.58,0.7-0.58,0.69-1.15,0.04c-3.1-3.49-6.39-6.48-10.01-8.51
		c-3.06-1.7-6.19-2.54-9.43-2.21c-2.46,0.25-4.79,1.3-7.04,2.91c-5.82,4.18-9.18,11.47-10.75,20.98c-0.66,4.02-0.9,8.11-0.89,12.26
		c0.01,3.09,0.16,6.15,0.49,9.2c0.1,0.88,0.09,0.91-0.51,0.91C20.4,61.49,16.92,61.49,13.42,61.49z"/>
	<path class="st0" d="M5.09,40.59c-0.42,1.55-0.85,3.18-1.29,4.79c-0.08,0.25-0.26,0.13-0.38,0.06c-0.87-0.49-1.72-1-2.59-1.48
		c-0.29-0.16-0.3-0.42-0.2-0.81c0.38-1.42,0.76-2.84,1.14-4.27c0.09-0.33,0.2-0.48,0.44-0.34c0.9,0.52,1.79,1.03,2.68,1.54
		C4.98,40.16,5.12,40.23,5.09,40.59z"/>
	<path class="st0" d="M28.93,59.6c0.03,0.42-0.1,0.42-0.27,0.33c-0.97-0.55-1.93-1.11-2.9-1.66c-0.14-0.09-0.23-0.25-0.25-0.51
		c-0.15-1.49-0.23-3-0.29-4.53c-0.02-0.61,0.15-0.66,0.47-0.48c0.76,0.45,1.51,0.87,2.28,1.3c0.17,0.09,0.32,0.21,0.36,0.52
		C28.51,56.29,28.68,57.98,28.93,59.6z"/>
	<path class="st0" d="M28.48,39.66c-0.12,1.06-0.28,2.3-0.41,3.55c-0.13,1.19-0.13,1.21-0.76,0.43c-0.46-0.57-0.91-1.16-1.38-1.72
		c-0.2-0.24-0.29-0.49-0.23-0.88c0.2-1.28,0.4-2.55,0.66-3.81c0.1-0.46,0.21-0.55,0.46-0.22c0.49,0.63,0.99,1.24,1.49,1.85
		C28.45,39.02,28.56,39.19,28.48,39.66z"/>
	<path class="st0" d="M11.6,24.22c-0.1-0.1-0.2-0.19-0.29-0.3c-0.53-0.7-1.06-1.43-1.59-2.12c-0.23-0.3-0.28-0.54-0.04-0.9
		c0.53-0.81,1.06-1.64,1.57-2.48c0.19-0.31,0.36-0.33,0.57-0.04c0.5,0.7,1,1.37,1.5,2.06c0.16,0.21,0.21,0.42,0.06,0.69
		c-0.53,0.96-1.06,1.91-1.59,2.87C11.75,24.09,11.67,24.15,11.6,24.22z"/>
	<path class="st0" d="M31.07,30.55c-0.15-0.06-0.2-0.22-0.26-0.37c-0.31-0.75-0.63-1.49-0.95-2.23c-0.14-0.33-0.15-0.6,0.02-0.93
		c0.4-0.76,0.84-1.48,1.29-2.18c0.19-0.3,0.33-0.3,0.49,0.07c0.3,0.73,0.61,1.45,0.91,2.17c0.1,0.25,0.13,0.48-0.01,0.73
		c-0.47,0.81-0.92,1.63-1.33,2.51C31.19,30.43,31.11,30.49,31.07,30.55z"/>
	<path class="st0" d="M22.68,4.85c0.14-0.01,0.21,0.15,0.27,0.28c0.31,0.75,0.63,1.49,0.94,2.24c0.13,0.31,0.11,0.52-0.1,0.72
		c-0.54,0.48-1.08,0.96-1.6,1.45c-0.21,0.19-0.37,0.21-0.51-0.16c-0.31-0.78-0.64-1.54-0.96-2.3c-0.1-0.24-0.12-0.46,0.07-0.63
		c0.6-0.52,1.19-1.03,1.79-1.55C22.6,4.88,22.65,4.88,22.68,4.85z"/>
	<path class="st0" d="M45.51,5.03c0.1-2.49,0.08-1.94,1.22-1.42c0.46,0.21,0.89,0.52,1.33,0.78c0.27,0.15,0.35,0.46,0.32,0.88
		c-0.04,0.6-0.07,1.18-0.08,1.78c-0.01,0.49-0.13,0.6-0.42,0.42c-0.68-0.42-1.36-0.82-2.05-1.18C45.37,6.05,45.55,5.48,45.51,5.03z"
		/>
	<path class="st0" d="M39.65,20.35c0.06,0.49-0.08,0.58-0.21,0.66c-0.63,0.34-1.25,0.72-1.85,1.18c-0.24,0.18-0.38,0.1-0.47-0.31
		c-0.14-0.7-0.3-1.42-0.45-2.12c-0.08-0.36-0.01-0.57,0.21-0.7c0.64-0.36,1.28-0.73,1.91-1.09c0.13-0.07,0.3-0.12,0.36,0.16
		C39.35,18.93,39.52,19.73,39.65,20.35z"/>
	<path class="st0" d="M48.36,18.22c-0.01,0.36-0.04,0.91-0.05,1.45c-0.01,0.39-0.11,0.54-0.36,0.46c-0.7-0.22-1.41-0.33-2.11-0.4
		c-0.33-0.03-0.43-0.33-0.38-0.81c0.02-0.22,0.05-0.45,0.06-0.67c0.07-1.45,0.07-1.46,0.97-1.34c0.52,0.07,1.04,0.22,1.55,0.34
		C48.3,17.32,48.43,17.58,48.36,18.22z"/>
	<path class="st0" d="M33.03,3.49c-0.06,0.01-0.19-0.1-0.25-0.37c-0.13-0.61-0.26-1.22-0.38-1.84c-0.08-0.34,0.01-0.49,0.24-0.54
		c0.69-0.15,1.38-0.21,2.08-0.24c0.14-0.01,0.31,0,0.37,0.25c0.17,0.75,0.34,1.49,0.48,2.26c0.06,0.36-0.17,0.34-0.32,0.36
		C34.53,3.4,33.84,3.31,33.03,3.49z"/>
</g>
</svg>
