<?xml version="1.0" encoding="utf-8"?>
<!-- Generator: Adobe Illustrator 24.1.1, SVG Export Plug-In . SVG Version: 6.00 Build 0)  -->
<svg version="1.1" id="Layer_1" xmlns="http://www.w3.org/2000/svg" xmlns:xlink="http://www.w3.org/1999/xlink" x="0px" y="0px"
	 viewBox="0 0 37 42" style="enable-background:new 0 0 37 42;" xml:space="preserve">
<style type="text/css">
	.st0{fill:#FC6A55;}
	.st1{fill:#EDEDED;}
	.st2{fill:none;stroke:#FC6A55;stroke-miterlimit:10;}
	.st3{fill:#383838;}
	.st4{stroke:#FFFFFF;stroke-width:0.25;stroke-miterlimit:10;}
	.st5{fill:#656D7A;}
	.st6{fill:#FFFFFF;}
	.st7{filter:url(#Adobe_OpacityMaskFilter);}
	.st8{fill-rule:evenodd;clip-rule:evenodd;fill:#FFFFFF;}
	.st9{mask:url(#mask-2_8_);fill-rule:evenodd;clip-rule:evenodd;}
	.st10{filter:url(#Adobe_OpacityMaskFilter_1_);}
	.st11{mask:url(#mask-2_7_);fill-rule:evenodd;clip-rule:evenodd;}
	.st12{filter:url(#Adobe_OpacityMaskFilter_2_);}
	.st13{mask:url(#mask-2_6_);fill-rule:evenodd;clip-rule:evenodd;}
	.st14{filter:url(#Adobe_OpacityMaskFilter_3_);}
	.st15{mask:url(#mask-2_5_);fill-rule:evenodd;clip-rule:evenodd;}
	.st16{filter:url(#Adobe_OpacityMaskFilter_4_);}
	.st17{mask:url(#mask-2_2_);fill:none;stroke:#000000;stroke-width:2;}
	.st18{fill:#B4A3EE;}
	.st19{fill:#434343;}
	.st20{fill:#434343;stroke:#F9F9F9;stroke-width:0.25;stroke-miterlimit:10;}
	.st21{fill:none;stroke:#FC6A55;stroke-width:0.5;stroke-miterlimit:10;}
	.st22{fill:none;stroke:#FC6A55;stroke-width:0.75;stroke-miterlimit:10;}
	.st23{fill:#FC6A55;stroke:#FC6A55;stroke-width:0.5;stroke-miterlimit:10;}
	.st24{opacity:0.153;fill:url(#Path_36_);enable-background:new    ;}
	.st25{opacity:0.1;fill:#590BB2;enable-background:new    ;}
	.st26{fill:#8E8CA8;}
	.st27{fill:#F5F4F9;}
	.st28{fill:#FFD5B8;}
	.st29{fill:#FC8473;}
	.st30{fill:#1C3475;}
	.st31{fill:#DDD9E4;}
	.st32{fill:#828FB3;}
	.st33{opacity:7.584635e-02;fill:url(#Path_37_);enable-background:new    ;}
	.st34{fill:#FFBE92;}
	.st35{fill:#FB8E7F;}
	.st36{fill:#FDB1A6;}
	.st37{fill:#FC806F;}
	.st38{fill:#FFE783;}
	.st39{fill:#104478;}
	.st40{fill:none;stroke:#FFFFFF;stroke-miterlimit:10;}
	.st41{fill:none;stroke:#000000;stroke-width:0.15;stroke-miterlimit:10;}
	.st42{opacity:0.1;fill:url(#Path_38_);enable-background:new    ;}
	.st43{opacity:0.1;fill:url(#Path_39_);enable-background:new    ;}
	.st44{fill-rule:evenodd;clip-rule:evenodd;fill:#FC6A55;}
	.st45{fill-rule:evenodd;clip-rule:evenodd;}
	.st46{fill:#FF6757;}
	.st47{fill:#666666;}
	.st48{fill:none;stroke:#FFFFFF;stroke-width:0.5;stroke-miterlimit:10;}
	.st49{fill:#F16A56;}
	.st50{fill:#515252;}
	.st51{fill:#F26A56;}
	.st52{fill:none;stroke:#F16A56;stroke-miterlimit:10;}
	.st53{fill:none;stroke:#929292;stroke-miterlimit:10;}
	.st54{fill:#929292;}
	.st55{fill:none;stroke:#000000;stroke-width:0.5;stroke-miterlimit:10;}
	.st56{fill:#A8A7A7;}
	.st57{fill:#F79F91;}
	.st58{fill:#9BDBD5;}
	.st59{fill:#222121;}
</style>
<g id="Content_2_">
	<g>
		<path class="st3" d="M34.9,30.1c1.2,0,2.1-0.9,2.1-2.1V8.4c0-1.2-0.9-2.1-2.1-2.1h-8.4V3.5c0-1.9-1.6-3.5-3.5-3.5H3.5
			C1.6,0.1,0,1.6,0,3.5v34.9c0,1.9,1.6,3.5,3.5,3.5H23c1.9,0,3.5-1.6,3.5-3.5v-2.8H37v-1.4H26.5v-4.2H34.9z M34.9,28.7H12.6
			c-0.4,0-0.7-0.3-0.7-0.7V11.9h23.7V28C35.6,28.4,35.3,28.7,34.9,28.7z M35.6,8.4v2.1H11.9V8.4c0-0.4,0.3-0.7,0.7-0.7h22.3
			C35.3,7.7,35.6,8,35.6,8.4z M9.1,1.5h8.4v1.4H9.1V1.5z M25.1,34.3h-1.5C23.2,33.2,22,32.6,21,33c-0.6,0.2-1.1,0.7-1.3,1.3h-4.3
			v1.4h4.3c0.4,1.1,1.6,1.7,2.7,1.3c0.6-0.2,1.1-0.7,1.3-1.3h1.5v2.8c0,1.2-0.9,2.1-2.1,2.1H3.5c-1.2,0-2.1-0.9-2.1-2.1V3.5
			c0-1.2,0.9-2.1,2.1-2.1h4.2v1.4c0,0.8,0.6,1.4,1.4,1.4h8.4c0.8,0,1.4-0.6,1.4-1.4V1.5H23c1.2,0,2.1,0.9,2.1,2.1v2.8H12.6
			c-1.2,0-2.1,0.9-2.1,2.1V28c0,1.2,0.9,2.1,2.1,2.1h12.6V34.3z M22.3,35c0,0.4-0.3,0.7-0.7,0.7s-0.7-0.3-0.7-0.7
			c0-0.4,0.3-0.7,0.7-0.7S22.3,34.6,22.3,35z"/>
		<path class="st3" d="M13.3,8.4h1.4v1.4h-1.4V8.4z"/>
		<path class="st3" d="M16.1,8.4h1.4v1.4h-1.4V8.4z"/>
		<path class="st3" d="M18.8,8.4h1.4v1.4h-1.4V8.4z"/>
		<path class="st3" d="M26,19.1l-2.2-1.5c-0.6-0.4-1.5-0.3-1.9,0.4c-0.2,0.2-0.2,0.5-0.2,0.8v3c0,0.8,0.6,1.4,1.4,1.4
			c0.3,0,0.5-0.1,0.8-0.2l2.2-1.5c0.6-0.4,0.8-1.3,0.4-1.9C26.3,19.4,26.2,19.2,26,19.1L26,19.1z M23,21.8v-3l2.2,1.5L23,21.8z"/>
		<path class="st3" d="M23.7,14c-3.5,0-6.3,2.8-6.3,6.3s2.8,6.3,6.3,6.3s6.3-2.8,6.3-6.3C30,16.8,27.2,14,23.7,14z M23.7,25.2
			c-2.7,0-4.9-2.2-4.9-4.9s2.2-4.9,4.9-4.9s4.9,2.2,4.9,4.9C28.6,23,26.4,25.2,23.7,25.2z"/>
		<path class="st3" d="M12.6,33.6H14v2.8h-1.4V33.6z"/>
		<path class="st3" d="M10.5,33.6h1.4v2.8h-1.4V33.6z"/>
		<path class="st3" d="M14,19.6h1.4V21H14V19.6z"/>
		<path class="st3" d="M14,16.8h1.4v1.4H14V16.8z"/>
		<path class="st3" d="M14,22.4h1.4v1.4H14V22.4z"/>
	</g>
</g>
</svg>
