<?xml version="1.0" encoding="utf-8"?>
<!-- Generator: Adobe Illustrator 24.1.1, SVG Export Plug-In . SVG Version: 6.00 Build 0)  -->
<svg version="1.1" id="Layer_1" xmlns="http://www.w3.org/2000/svg" xmlns:xlink="http://www.w3.org/1999/xlink" x="0px" y="0px"
	 viewBox="0 0 37 42" style="enable-background:new 0 0 37 42;" xml:space="preserve">
<style type="text/css">
	.st0{fill:#FC6A55;}
	.st1{fill:#EDEDED;}
	.st2{fill:none;stroke:#FC6A55;stroke-miterlimit:10;}
	.st3{fill:#383838;}
	.st4{stroke:#FFFFFF;stroke-width:0.25;stroke-miterlimit:10;}
	.st5{fill:#656D7A;}
	.st6{fill:#FFFFFF;}
	.st7{filter:url(#Adobe_OpacityMaskFilter);}
	.st8{fill-rule:evenodd;clip-rule:evenodd;fill:#FFFFFF;}
	.st9{mask:url(#mask-2_8_);fill-rule:evenodd;clip-rule:evenodd;}
	.st10{filter:url(#Adobe_OpacityMaskFilter_1_);}
	.st11{mask:url(#mask-2_7_);fill-rule:evenodd;clip-rule:evenodd;}
	.st12{filter:url(#Adobe_OpacityMaskFilter_2_);}
	.st13{mask:url(#mask-2_6_);fill-rule:evenodd;clip-rule:evenodd;}
	.st14{filter:url(#Adobe_OpacityMaskFilter_3_);}
	.st15{mask:url(#mask-2_5_);fill-rule:evenodd;clip-rule:evenodd;}
	.st16{filter:url(#Adobe_OpacityMaskFilter_4_);}
	.st17{mask:url(#mask-2_2_);fill:none;stroke:#000000;stroke-width:2;}
	.st18{fill:#B4A3EE;}
	.st19{fill:#434343;}
	.st20{fill:#434343;stroke:#F9F9F9;stroke-width:0.25;stroke-miterlimit:10;}
	.st21{fill:none;stroke:#FC6A55;stroke-width:0.5;stroke-miterlimit:10;}
	.st22{fill:none;stroke:#FC6A55;stroke-width:0.75;stroke-miterlimit:10;}
	.st23{fill:#FC6A55;stroke:#FC6A55;stroke-width:0.5;stroke-miterlimit:10;}
	.st24{opacity:0.153;fill:url(#Path_36_);enable-background:new    ;}
	.st25{opacity:0.1;fill:#590BB2;enable-background:new    ;}
	.st26{fill:#8E8CA8;}
	.st27{fill:#F5F4F9;}
	.st28{fill:#FFD5B8;}
	.st29{fill:#FC8473;}
	.st30{fill:#1C3475;}
	.st31{fill:#DDD9E4;}
	.st32{fill:#828FB3;}
	.st33{opacity:7.584635e-02;fill:url(#Path_37_);enable-background:new    ;}
	.st34{fill:#FFBE92;}
	.st35{fill:#FB8E7F;}
	.st36{fill:#FDB1A6;}
	.st37{fill:#FC806F;}
	.st38{fill:#FFE783;}
	.st39{fill:#104478;}
	.st40{fill:none;stroke:#FFFFFF;stroke-miterlimit:10;}
	.st41{fill:none;stroke:#000000;stroke-width:0.15;stroke-miterlimit:10;}
	.st42{opacity:0.1;fill:url(#Path_38_);enable-background:new    ;}
	.st43{opacity:0.1;fill:url(#Path_39_);enable-background:new    ;}
	.st44{fill-rule:evenodd;clip-rule:evenodd;fill:#FC6A55;}
	.st45{fill-rule:evenodd;clip-rule:evenodd;}
	.st46{fill:#FF6757;}
	.st47{fill:#666666;}
	.st48{fill:none;stroke:#FFFFFF;stroke-width:0.5;stroke-miterlimit:10;}
	.st49{fill:#F16A56;}
	.st50{fill:#515252;}
	.st51{fill:#F26A56;}
	.st52{fill:none;stroke:#F16A56;stroke-miterlimit:10;}
	.st53{fill:none;stroke:#929292;stroke-miterlimit:10;}
	.st54{fill:#929292;}
	.st55{fill:none;stroke:#000000;stroke-width:0.5;stroke-miterlimit:10;}
	.st56{fill:#A8A7A7;}
	.st57{fill:#F79F91;}
	.st58{fill:#9BDBD5;}
	.st59{fill:#222121;}
</style>
<g id="Page-1">
	<g>
		<g id="_x30_33---Insurance_9_">
			<path id="Shape_188_" class="st3" d="M28,6.6l-9.3-4c-0.2-0.1-0.3-0.1-0.5,0L9,6.6C8.8,6.7,8.6,6.9,8.6,7.2v9.7
				c0,2.2,1,4.2,2.8,5.5l6.4,4.6c0.4,0.3,0.9,0.3,1.3,0l6.4-4.6c1.8-1.3,2.8-3.3,2.8-5.5V7.2C28.4,6.9,28.2,6.7,28,6.6z M27.1,16.8
				c0,1.8-0.9,3.5-2.3,4.5l-6.3,4.6l-6.3-4.6c-1.4-1-2.3-2.7-2.3-4.5V7.6l8.6-3.8l8.6,3.8V16.8z"/>
			<path id="Shape_187_" class="st3" d="M18.2,5.2l-6.8,3c-0.2,0.1-0.4,0.3-0.4,0.6v8.1c0,1.4,0.7,2.7,1.8,3.5l5.3,3.8
				c0.2,0.2,0.5,0.2,0.7,0l5.3-3.8c1.1-0.8,1.8-2.1,1.8-3.5V8.8c0-0.2-0.1-0.5-0.4-0.6l-6.8-3C18.6,5.2,18.4,5.2,18.2,5.2z
				 M24.7,9.2v7.7c0,1-0.5,1.9-1.3,2.5l-4.9,3.5l-4.9-3.5c-0.8-0.6-1.3-1.5-1.3-2.5V9.2l6.2-2.7L24.7,9.2z"/>
			<path id="Shape_186_" class="st3" d="M5.1,23l-1.3-3.1c-0.3-0.6-0.9-1.1-1.6-1.2s-1.4,0.2-1.8,0.8s-0.5,1.3-0.2,2l2.4,5.3
				c0.3,0.7,0.8,1.4,1.3,1.9l3.8,3.8c-0.2,0.2-0.3,0.5-0.3,0.8v4.9c0,0.7,0.6,1.2,1.2,1.2h6.8c0.7,0,1.2-0.6,1.2-1.2v-4.9
				c0-0.7-0.6-1.2-1.2-1.2V31c0-1.5-0.5-2.9-1.4-4c-0.5-0.7-1.2-1.2-2.1-1.5c-1.3-0.5-2.5-1.3-3.5-2.3C7.5,22.4,6.1,22.3,5.1,23z
				 M15.4,38.3H8.6v-4.9h6.8V38.3z M13.1,27.7c0.7,0.9,1.1,2.1,1.1,3.3v1.1H9.1l-4.3-4.3c-0.5-0.5-0.8-1-1.1-1.6l-2.4-5.3
				c-0.1-0.2-0.1-0.5,0.1-0.7s0.4-0.3,0.6-0.3c0.3,0,0.6,0.2,0.7,0.4L4,23.6c0.4,0.9,0.9,1.6,1.6,2.3l2.8,2.8
				c0.2,0.2,0.4,0.2,0.6,0.2c0.2-0.1,0.4-0.2,0.4-0.4c0.1-0.2,0-0.4-0.2-0.6L6.4,25c-0.3-0.3-0.5-0.6-0.8-0.9c0.6-0.5,1.4-0.4,2,0
				c1.2,1.1,2.5,1.9,3.9,2.5C12.2,26.8,12.7,27.2,13.1,27.7z"/>
			<path id="Shape_185_" class="st3" d="M13.6,35.2h-0.6c-0.3,0-0.6,0.3-0.6,0.6c0,0.3,0.3,0.6,0.6,0.6h0.6c0.3,0,0.6-0.3,0.6-0.6
				C14.2,35.5,13.9,35.2,13.6,35.2z"/>
			<path id="Shape_184_" class="st3" d="M34.4,26.8l2.4-5.3c0.3-0.6,0.2-1.4-0.2-2c-0.4-0.6-1.1-0.9-1.8-0.8
				c-0.7,0.1-1.3,0.5-1.6,1.2L31.9,23c-1-0.7-2.4-0.6-3.4,0.2c-1,1-2.2,1.7-3.5,2.3c-0.8,0.3-1.5,0.8-2.1,1.5
				c-0.9,1.2-1.4,2.6-1.4,4v1.1c-0.7,0-1.2,0.6-1.2,1.2v4.9c0,0.7,0.6,1.2,1.2,1.2h6.8c0.7,0,1.2-0.6,1.2-1.2v-4.9
				c0-0.3-0.1-0.6-0.3-0.8l3.8-3.8C33.6,28.1,34.1,27.5,34.4,26.8z M28.4,38.3h-6.8v-4.9h6.8V38.3z M27.9,32.1h-5.1V31
				c0-1.2,0.4-2.3,1.1-3.3c0.4-0.5,0.9-0.9,1.5-1.1c1.4-0.6,2.8-1.4,3.9-2.5c0.6-0.5,1.4-0.5,2,0c-0.2,0.3-0.5,0.6-0.8,0.9l-2.8,2.8
				c-0.2,0.2-0.2,0.6,0,0.9s0.6,0.2,0.9,0l2.8-2.8c0.7-0.7,1.2-1.4,1.6-2.3l1.4-3.2c0.1-0.3,0.4-0.4,0.7-0.4c0.2,0,0.5,0.1,0.6,0.3
				c0.1,0.2,0.2,0.5,0.1,0.7l-2.4,5.3c-0.3,0.6-0.6,1.1-1.1,1.6L27.9,32.1z"/>
			<path id="Shape_183_" class="st3" d="M24,35.2h-0.6c-0.3,0-0.6,0.3-0.6,0.6c0,0.3,0.3,0.6,0.6,0.6H24c0.3,0,0.6-0.3,0.6-0.6
				C24.7,35.5,24.4,35.2,24,35.2z"/>
			<path id="Shape_182_" class="st3" d="M15.2,15.6c-0.3-0.2-0.7-0.1-0.9,0.1c-0.2,0.3-0.1,0.7,0.1,0.9l2.5,1.9
				c0.1,0.1,0.2,0.1,0.4,0.1c0,0,0.1,0,0.1,0c0.2,0,0.3-0.1,0.4-0.3l4.9-7.4c0.1-0.2,0.1-0.4,0-0.6c-0.1-0.2-0.3-0.3-0.5-0.3
				s-0.4,0.1-0.6,0.3L17.1,17L15.2,15.6z"/>
		</g>
	</g>
</g>
</svg>
