<?xml version="1.0" encoding="utf-8"?>
<!-- Generator: Adobe Illustrator 24.1.1, SVG Export Plug-In . SVG Version: 6.00 Build 0)  -->
<svg version="1.1" id="Layer_1" xmlns="http://www.w3.org/2000/svg" xmlns:xlink="http://www.w3.org/1999/xlink" x="0px" y="0px"
	 viewBox="0 0 37 42" style="enable-background:new 0 0 37 42;" xml:space="preserve">
<style type="text/css">
	.st0{fill:#FC6A55;}
	.st1{fill:#EDEDED;}
	.st2{fill:none;stroke:#FC6A55;stroke-miterlimit:10;}
	.st3{fill:#383838;}
	.st4{stroke:#FFFFFF;stroke-width:0.25;stroke-miterlimit:10;}
	.st5{fill:#656D7A;}
	.st6{fill:#FFFFFF;}
	.st7{filter:url(#Adobe_OpacityMaskFilter);}
	.st8{fill-rule:evenodd;clip-rule:evenodd;fill:#FFFFFF;}
	.st9{mask:url(#mask-2_8_);fill-rule:evenodd;clip-rule:evenodd;}
	.st10{filter:url(#Adobe_OpacityMaskFilter_1_);}
	.st11{mask:url(#mask-2_7_);fill-rule:evenodd;clip-rule:evenodd;}
	.st12{filter:url(#Adobe_OpacityMaskFilter_2_);}
	.st13{mask:url(#mask-2_6_);fill-rule:evenodd;clip-rule:evenodd;}
	.st14{filter:url(#Adobe_OpacityMaskFilter_3_);}
	.st15{mask:url(#mask-2_5_);fill-rule:evenodd;clip-rule:evenodd;}
	.st16{filter:url(#Adobe_OpacityMaskFilter_4_);}
	.st17{mask:url(#mask-2_2_);fill:none;stroke:#000000;stroke-width:2;}
	.st18{fill:#B4A3EE;}
	.st19{fill:#434343;}
	.st20{fill:#434343;stroke:#F9F9F9;stroke-width:0.25;stroke-miterlimit:10;}
	.st21{fill:none;stroke:#FC6A55;stroke-width:0.5;stroke-miterlimit:10;}
	.st22{fill:none;stroke:#FC6A55;stroke-width:0.75;stroke-miterlimit:10;}
	.st23{fill:#FC6A55;stroke:#FC6A55;stroke-width:0.5;stroke-miterlimit:10;}
	.st24{opacity:0.153;fill:url(#Path_36_);enable-background:new    ;}
	.st25{opacity:0.1;fill:#590BB2;enable-background:new    ;}
	.st26{fill:#8E8CA8;}
	.st27{fill:#F5F4F9;}
	.st28{fill:#FFD5B8;}
	.st29{fill:#FC8473;}
	.st30{fill:#1C3475;}
	.st31{fill:#DDD9E4;}
	.st32{fill:#828FB3;}
	.st33{opacity:7.584635e-02;fill:url(#Path_37_);enable-background:new    ;}
	.st34{fill:#FFBE92;}
	.st35{fill:#FB8E7F;}
	.st36{fill:#FDB1A6;}
	.st37{fill:#FC806F;}
	.st38{fill:#FFE783;}
	.st39{fill:#104478;}
	.st40{fill:none;stroke:#FFFFFF;stroke-miterlimit:10;}
	.st41{fill:none;stroke:#000000;stroke-width:0.15;stroke-miterlimit:10;}
	.st42{opacity:0.1;fill:url(#Path_38_);enable-background:new    ;}
	.st43{opacity:0.1;fill:url(#Path_39_);enable-background:new    ;}
	.st44{fill-rule:evenodd;clip-rule:evenodd;fill:#FC6A55;}
	.st45{fill-rule:evenodd;clip-rule:evenodd;}
	.st46{fill:#FF6757;}
	.st47{fill:#666666;}
	.st48{fill:none;stroke:#FFFFFF;stroke-width:0.5;stroke-miterlimit:10;}
	.st49{fill:#F16A56;}
	.st50{fill:#515252;}
	.st51{fill:#F26A56;}
	.st52{fill:none;stroke:#F16A56;stroke-miterlimit:10;}
	.st53{fill:none;stroke:#929292;stroke-miterlimit:10;}
	.st54{fill:#929292;}
	.st55{fill:none;stroke:#000000;stroke-width:0.5;stroke-miterlimit:10;}
	.st56{fill:#A8A7A7;}
	.st57{fill:#F79F91;}
	.st58{fill:#9BDBD5;}
	.st59{fill:#222121;}
</style>
<g>
	<g>
		<g>
			<g>
				<path class="st3" d="M36.4,2.5C36.4,2.5,36.4,2.5,36.4,2.5H0.6C0.3,2.5,0,2.8,0,3.1c0,0,0,0,0,0v12.3h1.2V3.7h34.5v13.6H14.2
					v1.2h22.2c0.3,0,0.6-0.3,0.6-0.6c0,0,0,0,0,0V3.1C37,2.8,36.7,2.5,36.4,2.5z"/>
			</g>
		</g>
		<g>
			<g>
				<rect x="20.4" y="5.6" class="st3" width="12.3" height="1.2"/>
			</g>
		</g>
		<g>
			<g>
				<rect x="22.2" y="9.3" class="st3" width="12.3" height="1.2"/>
			</g>
		</g>
		<g>
			<g>
				<rect x="19.7" y="13" class="st3" width="12.3" height="1.2"/>
			</g>
		</g>
		<g>
			<g>
				<path class="st3" d="M19.7,7.8c-0.4-1-1.6-1.5-2.6-1.1c0,0,0,0-0.1,0l-5,2.6c0.2-0.4,0.3-0.9,0.3-1.3C12.3,6.3,11,5,9.3,5
					S6.2,6.3,6.2,8.1c0,0.7,0.2,1.3,0.6,1.8h0C5,9.9,3.5,11,2.8,12.6l-1.6,5.7c-0.4,1,0.1,2.2,1.1,2.6c0.5,0.2,1,0.2,1.4,0
					c0.5-0.2,0.9-0.6,1.1-1.2l0.6-2.1v8.9c-0.5-0.4-1.2-0.6-1.9-0.6c-1.7,0-3.1,1.4-3.1,3.1c0,0.8,0.3,1.6,0.9,2.2
					C0.6,31.7,0,32.7,0,33.7v5.2c0,0.3,0.3,0.6,0.6,0.6c0,0,0,0,0,0h6.2c0.3,0,0.6-0.3,0.6-0.6c0,0,0,0,0,0v-5.2
					c0-0.9-0.4-1.7-1.1-2.2H11c-0.7,0.5-1.1,1.4-1.1,2.2v5.2c0,0.3,0.3,0.6,0.6,0.6c0,0,0,0,0,0h6.2c0.3,0,0.6-0.3,0.6-0.6
					c0,0,0,0,0,0v-5.2c0-1.1-0.6-2-1.5-2.5c1.2-1.2,1.2-3.1,0.1-4.4C15,26.1,14,25.8,13,26V13.4l5.7-2.9C19.6,10,20.1,8.8,19.7,7.8z
					 M9.3,6.2c1,0,1.9,0.8,1.9,1.9s-0.8,1.8-1.9,1.8c-1,0-1.8-0.8-1.8-1.8C7.4,7,8.2,6.2,9.3,6.2z M3.7,27.1c1,0,1.9,0.8,1.9,1.8
					s-0.8,1.9-1.9,1.9S1.9,30,1.9,29C1.9,28,2.7,27.1,3.7,27.1z M6.2,38.3H1.2v-4.6c0-0.9,0.7-1.6,1.6-1.6h1.7
					c0.9,0,1.6,0.7,1.6,1.6V38.3z M16,33.7v4.6h-4.9v-4.6c0-0.9,0.7-1.6,1.6-1.6h1.7C15.3,32.1,16,32.8,16,33.7z M13.6,27.1
					c1,0,1.8,0.8,1.9,1.8c0,1-0.8,1.9-1.9,1.9S11.7,30,11.7,29S12.5,27.1,13.6,27.1z M18.6,8.8c-0.1,0.2-0.3,0.4-0.5,0.5l-6,3.1
					c-0.2,0.1-0.3,0.3-0.3,0.5v13.6c-1.2,0.9-1.6,2.4-1,3.7H9.9V19.8H8.6v10.5H6.5c0.2-0.4,0.3-0.8,0.3-1.2h0V13.6
					c0-0.3-0.3-0.6-0.6-0.6c-0.3,0-0.5,0.2-0.6,0.4l-1.8,5.9c-0.1,0.4-0.6,0.6-0.9,0.4c0,0-0.1,0-0.1,0c-0.4-0.2-0.5-0.6-0.3-1L4,13
					c0.4-1.1,1.5-1.9,2.8-1.9h4.4c0.1,0,0.2,0,0.3-0.1l6.1-3.2c0.4-0.2,0.8,0,1,0.4C18.6,8.4,18.6,8.6,18.6,8.8z"/>
			</g>
		</g>
		<g>
			<g>
				<path class="st3" d="M25.6,31.2c1.2-1.2,1.2-3.1,0.1-4.4c-1.2-1.2-3.1-1.2-4.4-0.1c-1.2,1.2-1.2,3.1-0.1,4.4c0,0,0,0,0.1,0.1
					c-0.9,0.5-1.5,1.5-1.5,2.5v5.2c0,0.3,0.3,0.6,0.6,0.6c0,0,0,0,0,0h6.2c0.3,0,0.6-0.3,0.6-0.6c0,0,0,0,0,0v-5.2
					C27.1,32.7,26.5,31.7,25.6,31.2z M23.4,27.1c1,0,1.9,0.8,1.9,1.8s-0.8,1.9-1.9,1.9S21.6,30,21.6,29C21.6,28,22.4,27.1,23.4,27.1
					z M25.9,38.3H21v-4.6c0-0.9,0.7-1.6,1.6-1.6h1.7c0.9,0,1.6,0.7,1.6,1.6V38.3z"/>
			</g>
		</g>
		<g>
			<g>
				<path class="st3" d="M35.5,31.2c1.2-1.2,1.2-3.1,0.1-4.4c-1.2-1.2-3.1-1.2-4.4-0.1c-1.2,1.2-1.2,3.1-0.1,4.4c0,0,0,0,0.1,0.1
					c-0.9,0.5-1.5,1.5-1.5,2.5v5.2c0,0.3,0.3,0.6,0.6,0.6c0,0,0,0,0,0h6.2c0.3,0,0.6-0.3,0.6-0.6c0,0,0,0,0,0v-5.2
					C37,32.7,36.4,31.7,35.5,31.2z M33.3,27.1c1,0,1.9,0.8,1.9,1.8s-0.8,1.9-1.9,1.9S31.5,30,31.5,29C31.5,28,32.3,27.1,33.3,27.1z
					 M35.8,38.3h-4.9v-4.6c0-0.9,0.7-1.6,1.6-1.6h1.7c0.9,0,1.6,0.7,1.6,1.6V38.3z"/>
			</g>
		</g>
	</g>
</g>
</svg>
