<?xml version="1.0" encoding="utf-8"?>
<!-- Generator: Adobe Illustrator 24.0.2, SVG Export Plug-In . SVG Version: 6.00 Build 0)  -->
<svg version="1.1" id="Layer_1" xmlns="http://www.w3.org/2000/svg" xmlns:xlink="http://www.w3.org/1999/xlink" x="0px" y="0px"
	 viewBox="0 0 18 24" style="enable-background:new 0 0 18 24;" xml:space="preserve">
<style type="text/css">
	.st0{fill:#FC6A55;}
	.st1{stroke:#FFFFFF;stroke-width:0.25;stroke-miterlimit:10;}
	.st2{fill:#656D7A;}
	.st3{fill:#FFFFFF;}
	.st4{filter:url(#Adobe_OpacityMaskFilter);}
	.st5{fill-rule:evenodd;clip-rule:evenodd;fill:#FFFFFF;}
	.st6{mask:url(#mask-2_8_);fill-rule:evenodd;clip-rule:evenodd;}
	.st7{filter:url(#Adobe_OpacityMaskFilter_1_);}
	.st8{mask:url(#mask-2_7_);fill-rule:evenodd;clip-rule:evenodd;}
	.st9{filter:url(#Adobe_OpacityMaskFilter_2_);}
	.st10{mask:url(#mask-2_6_);fill-rule:evenodd;clip-rule:evenodd;}
	.st11{filter:url(#Adobe_OpacityMaskFilter_3_);}
	.st12{mask:url(#mask-2_5_);fill-rule:evenodd;clip-rule:evenodd;}
	.st13{filter:url(#Adobe_OpacityMaskFilter_4_);}
	.st14{mask:url(#mask-2_2_);fill:none;stroke:#000000;stroke-width:2;}
	.st15{fill:#434343;}
	.st16{fill:#434343;stroke:#F9F9F9;stroke-width:0.25;stroke-miterlimit:10;}
	.st17{fill:none;stroke:#FC6A55;stroke-width:0.5;stroke-miterlimit:10;}
	.st18{fill:none;stroke:#FC6A55;stroke-width:0.75;stroke-miterlimit:10;}
	.st19{fill:#FC6A55;stroke:#FC6A55;stroke-width:0.5;stroke-miterlimit:10;}
	.st20{opacity:0.153;fill:url(#Path_146_);enable-background:new    ;}
	.st21{opacity:0.1;fill:#590BB2;enable-background:new    ;}
	.st22{fill:#8E8CA8;}
	.st23{fill:#F5F4F9;}
	.st24{fill:#FFD5B8;}
	.st25{fill:#FC8473;}
	.st26{fill:#1C3475;}
	.st27{fill:#DDD9E4;}
	.st28{fill:#828FB3;}
	.st29{opacity:7.584635e-02;fill:url(#Path_147_);enable-background:new    ;}
	.st30{fill:#FFBE92;}
	.st31{fill:#FB8E7F;}
	.st32{fill:#FDB1A6;}
	.st33{fill:#FC806F;}
	.st34{fill:#FFE783;}
	.st35{fill:#104478;}
	.st36{fill:none;stroke:#FFFFFF;stroke-miterlimit:10;}
	.st37{fill:none;stroke:#FC6A55;stroke-miterlimit:10;}
	.st38{fill:none;stroke:#000000;stroke-width:0.15;stroke-miterlimit:10;}
	.st39{opacity:0.1;fill:url(#Path_148_);enable-background:new    ;}
	.st40{opacity:0.1;fill:url(#Path_149_);enable-background:new    ;}
</style>
<g>
	<path d="M17.4,7l-1-1.4L17.9,3h-1.1c-0.4,0-0.6,0.2-0.7,0.4c-0.1,0.1-0.2,0.2-0.3,0.2c-0.1,0-0.2,0-0.3-0.2C15.4,3.2,15.2,3,14.8,3
		s-0.6,0.2-0.7,0.4c-0.1,0.1-0.2,0.2-0.3,0.2c-0.1,0-0.2,0-0.3-0.2C13.4,3.2,13.2,3,12.8,3h-1.1l1.6,2.6l-1,1.4
		c-0.4,0.5-0.6,1.2-0.6,1.9v0.2c0,1.8,1.4,3.2,3.2,3.2S18,10.9,18,9.1V8.9C18,8.2,17.8,7.5,17.4,7L17.4,7z M12.8,3.6
		c0.1,0,0.2,0,0.3,0.2c0.1,0.2,0.3,0.4,0.7,0.4c0.4,0,0.6-0.2,0.7-0.4c0.1-0.1,0.2-0.2,0.3-0.2c0.1,0,0.2,0,0.3,0.2
		c0.1,0.2,0.3,0.4,0.7,0.4c0.4,0,0.6-0.2,0.7-0.4c0.1-0.1,0.2-0.2,0.3-0.2h0.1l-1.1,1.7h-2L12.8,3.6L12.8,3.6z M17.4,9.1
		c0,1.4-1.2,2.6-2.6,2.6s-2.6-1.2-2.6-2.6V8.9c0-0.6,0.2-1.1,0.5-1.6l1.1-1.4h2l1.1,1.4c0.3,0.4,0.5,1,0.5,1.6V9.1z"/>
	<path d="M15.1,7.6c0.2,0,0.3,0.1,0.3,0.3H16c0-0.5-0.4-0.9-0.9-0.9V6.5h-0.6v0.6h-0.9v0.9c0,0.5,0.4,0.9,0.9,0.9h0.6
		c0.2,0,0.3,0.1,0.3,0.3v0.3h-0.9c-0.2,0-0.3-0.1-0.3-0.3h-0.6c0,0.5,0.4,0.9,0.9,0.9v0.6h0.6V10H16V9.1c0-0.5-0.4-0.9-0.9-0.9h-0.6
		c-0.2,0-0.3-0.1-0.3-0.3V7.6H15.1z"/>
	<path d="M4.4,10C5.8,10,7,8.8,7,7.4S5.8,4.7,4.4,4.7S1.7,5.9,1.7,7.4S2.9,10,4.4,10z M4.4,5.3c1.1,0,2,0.9,2,2s-0.9,2-2,2
		s-2-0.9-2-2S3.2,5.3,4.4,5.3z"/>
	<path d="M4.4,8.8c0.8,0,1.5-0.7,1.5-1.5S5.2,5.9,4.4,5.9S2.9,6.6,2.9,7.4S3.6,8.8,4.4,8.8z M4.4,6.5c0.5,0,0.9,0.4,0.9,0.9
		S4.8,8.2,4.4,8.2S3.5,7.8,3.5,7.4S3.9,6.5,4.4,6.5z"/>
	<path d="M16.3,14h-1.6l-0.8,0.8v3.9h-0.6v-3.5h-1.6L11,15.9v2.7h-0.6v-2.9H8.9l-0.8,0.8v2.2H7.5v-2.3H6l-0.8,0.8v1.6H2.3v-0.1
		l3.4-3.4h3.5l1.3-1.3l1.1,1.1l0.4-4.2l-4.2,0.4l1.1,1.1l-0.6,0.6H4.7l-2.4,2.4V11l0.4-0.3c0.1,0,0.2,0.1,0.3,0.1l0.2,0.8h2.2
		l0.2-0.8c0.1,0,0.2-0.1,0.3-0.1l0.7,0.4l1.6-1.6L7.8,8.9c0-0.1,0.1-0.2,0.1-0.3l0.8-0.2V6.3L7.9,6.1c0-0.1-0.1-0.2-0.1-0.3l0.4-0.7
		L6.7,3.5L5.9,3.9c-0.1,0-0.2-0.1-0.3-0.1L5.5,3H3.3L3.1,3.8C3,3.8,2.9,3.9,2.8,3.9L2.1,3.5L0.5,5.1l0.4,0.7c0,0.1-0.1,0.2-0.1,0.3
		L0,6.3v1.7v0.5V21h18v-2.3h-1.7L16.3,14z M14.5,15l0.4-0.4h0.8v4.1h-1.2V15z M11.6,16.2l0.4-0.4h0.8v2.9h-1.2V16.2z M8.7,16.8
		l0.4-0.4h0.8v2.3H8.7V16.8z M5.8,17.3l0.4-0.4H7v1.7H5.8V17.3z M5,13.5h3.5l1.2-1.2l-0.6-0.6l2.2-0.2l-0.2,2.2l-0.6-0.6L9,14.6H5.5
		l-3.1,3.1v-1.6L5,13.5z M0.6,6.7l0.7-0.2l0-0.2c0.1-0.2,0.1-0.3,0.2-0.5l0.1-0.1L1.2,5.1l0.9-0.9l0.6,0.4l0.1-0.1
		c0.2-0.1,0.3-0.2,0.5-0.2l0.2,0l0.2-0.7H5l0.2,0.7l0.2,0c0.2,0.1,0.3,0.1,0.5,0.2L6,4.6l0.6-0.4l0.9,0.9L7.1,5.7l0.1,0.1
		c0.1,0.2,0.2,0.3,0.2,0.5l0,0.2l0.7,0.2V8L7.4,8.2l0,0.2C7.3,8.5,7.3,8.7,7.2,8.8L7.1,9l0.4,0.6l-0.9,0.9L6,10.1l-0.1,0.1
		c-0.2,0.1-0.3,0.2-0.5,0.2l-0.2,0L5,11.1H3.7l-0.2-0.7l-0.2,0c-0.2-0.1-0.3-0.1-0.5-0.2l-0.1-0.1l-0.6,0.4L1.2,9.6L1.6,9L1.5,8.8
		C1.4,8.7,1.4,8.5,1.3,8.3l0-0.2L0.6,8V7.9L0.6,6.7z M0.8,8.7c0,0.1,0.1,0.2,0.1,0.3L0.6,9.5V8.6L0.8,8.7z M17.4,19.3v1.2H0.6V9.7
		l1.2,1.2v8.4h3.5h2.3h0.6h2.3H11h2.3h0.6h2.3H17.4z"/>
</g>
</svg>
