<?xml version="1.0" encoding="utf-8"?>
<!-- Generator: Adobe Illustrator 24.0.2, SVG Export Plug-In . SVG Version: 6.00 Build 0)  -->
<svg version="1.1" id="Layer_1" xmlns="http://www.w3.org/2000/svg" xmlns:xlink="http://www.w3.org/1999/xlink" x="0px" y="0px"
	 viewBox="0 0 18 24" style="enable-background:new 0 0 18 24;" xml:space="preserve">
<style type="text/css">
	.st0{fill:#FC6A55;}
	.st1{stroke:#FFFFFF;stroke-width:0.25;stroke-miterlimit:10;}
	.st2{fill:#656D7A;}
	.st3{fill:#FFFFFF;}
	.st4{filter:url(#Adobe_OpacityMaskFilter);}
	.st5{fill-rule:evenodd;clip-rule:evenodd;fill:#FFFFFF;}
	.st6{mask:url(#mask-2_8_);fill-rule:evenodd;clip-rule:evenodd;}
	.st7{filter:url(#Adobe_OpacityMaskFilter_1_);}
	.st8{mask:url(#mask-2_7_);fill-rule:evenodd;clip-rule:evenodd;}
	.st9{filter:url(#Adobe_OpacityMaskFilter_2_);}
	.st10{mask:url(#mask-2_6_);fill-rule:evenodd;clip-rule:evenodd;}
	.st11{filter:url(#Adobe_OpacityMaskFilter_3_);}
	.st12{mask:url(#mask-2_5_);fill-rule:evenodd;clip-rule:evenodd;}
	.st13{filter:url(#Adobe_OpacityMaskFilter_4_);}
	.st14{mask:url(#mask-2_2_);fill:none;stroke:#000000;stroke-width:2;}
	.st15{fill:#434343;}
	.st16{fill:#434343;stroke:#F9F9F9;stroke-width:0.25;stroke-miterlimit:10;}
	.st17{fill:none;stroke:#FC6A55;stroke-width:0.5;stroke-miterlimit:10;}
	.st18{fill:none;stroke:#FC6A55;stroke-width:0.75;stroke-miterlimit:10;}
	.st19{fill:#FC6A55;stroke:#FC6A55;stroke-width:0.5;stroke-miterlimit:10;}
	.st20{opacity:0.153;fill:url(#Path_146_);enable-background:new    ;}
	.st21{opacity:0.1;fill:#590BB2;enable-background:new    ;}
	.st22{fill:#8E8CA8;}
	.st23{fill:#F5F4F9;}
	.st24{fill:#FFD5B8;}
	.st25{fill:#FC8473;}
	.st26{fill:#1C3475;}
	.st27{fill:#DDD9E4;}
	.st28{fill:#828FB3;}
	.st29{opacity:7.584635e-02;fill:url(#Path_147_);enable-background:new    ;}
	.st30{fill:#FFBE92;}
	.st31{fill:#FB8E7F;}
	.st32{fill:#FDB1A6;}
	.st33{fill:#FC806F;}
	.st34{fill:#FFE783;}
	.st35{fill:#104478;}
	.st36{fill:none;stroke:#FFFFFF;stroke-miterlimit:10;}
	.st37{fill:none;stroke:#FC6A55;stroke-miterlimit:10;}
	.st38{fill:none;stroke:#000000;stroke-width:0.15;stroke-miterlimit:10;}
	.st39{opacity:0.1;fill:url(#Path_148_);enable-background:new    ;}
	.st40{opacity:0.1;fill:url(#Path_149_);enable-background:new    ;}
</style>
<g>
	<path class="st0" d="M16.6,6.9V6.6c0-1.6-0.6-3.2-1.7-4.4c-0.1-0.1-0.4-0.2-0.5,0c-0.1,0.1-0.2,0.4,0,0.5c1,1.1,1.5,2.5,1.5,3.9
		v0.3h-0.5c0-0.3,0-0.7-0.1-1c-0.3-1.3-0.8-2.3-1.6-2.9C12.7,2.1,11.1,1.7,9,1.7S5.3,2.1,4.2,3C3.4,3.6,2.9,4.6,2.7,5.9
		c-0.1,0.3-0.1,0.7-0.1,1H2.1V6.7c0-3.3,2.7-6,6-6h1.9c1.2,0,2.3,0.4,3.3,1c0.2,0.1,0.4,0.1,0.5-0.1s0.1-0.4-0.1-0.5
		C12.7,0.4,11.4,0,10.1,0H8.1C4.4,0,1.4,3,1.4,6.7v0.2C0.6,7.1,0,7.8,0,8.6v3c0,0.9,0.7,1.7,1.7,1.7h0.1v0.5c0,0.5,0.4,0.8,0.8,0.8
		h0.3v4.8c-0.2,0.2-0.4,0.5-0.6,0.8c-0.1,0.2-0.1,0.4,0.1,0.5c0.2,0.1,0.4,0.1,0.5-0.1c0.7-1.2,2-1.8,3.4-1.8h0.1l1.3,1.4
		c0.2,0.2,0.6,0.2,0.7-0.1L9,19l0.6,1c0.2,0.3,0.5,0.3,0.7,0.1l1.3-1.4h0.1c2.2,0,4,1.8,4,4v0.7h-1.6v-0.9c0-0.3-0.2-0.5-0.5-0.5h-3
		c-0.3,0-0.5,0.2-0.5,0.5v0.9H2.3v-0.7c0-0.3,0-0.6,0.1-0.8c0-0.2-0.1-0.4-0.3-0.4c-0.2,0-0.4,0.1-0.4,0.3c-0.1,0.3-0.1,0.6-0.1,1
		v0.8c0,0.3,0.3,0.6,0.6,0.6h13.5c0.3,0,0.6-0.3,0.6-0.6v-0.8c0-1.3-0.5-2.4-1.3-3.2v-2.9c0-0.2-0.2-0.4-0.4-0.4s-0.4,0.2-0.4,0.4
		v2.3c-0.8-0.5-1.7-0.8-2.7-0.8h-0.1l-0.8-0.7v-0.9c1.6-0.5,2.8-1.8,3.4-3.4c0.1,0.1,0.2,0.1,0.2,0.1V15c0,0.2,0.2,0.4,0.4,0.4
		s0.4-0.2,0.4-0.4v-1.8h1.2c0.9,0,1.7-0.7,1.7-1.7v-3C18,7.8,17.4,7.1,16.6,6.9L16.6,6.9z M10.8,23.3v-0.7h2.7v0.7H10.8z M3.3,6
		C3.7,4.2,4.6,2.4,9,2.4s5.3,1.9,5.7,3.7c0.1,0.3,0.1,0.6,0.1,0.9h0c-0.5,0-1,0.4-1,1v2.3c0,0,0,0,0,0c0-0.1-0.1-0.2-0.3-0.4
		c-0.8-1-2.9-3.7-3.9-6.1C9.4,3.5,9.2,3.4,9,3.4c-0.2,0-0.4,0.1-0.5,0.3c-1,2.3-3.1,5-3.9,6.1c-0.2,0.3-0.3,0.4-0.3,0.4c0,0,0,0,0,0
		V7.9c0-0.5-0.4-1-1-1h0C3.3,6.6,3.3,6.3,3.3,6L3.3,6z M3.6,13.2c0.1,0,0.2-0.1,0.2-0.1c0.1,0.3,0.2,0.5,0.4,0.8H3.6V13.2z
		 M0.7,11.6v-3c0-0.5,0.4-1,1-1h1.6c0.2,0,0.3,0.1,0.3,0.3v2.5c0,0,0,0,0,0v1.8c0,0.2-0.1,0.3-0.3,0.3H1.7
		C1.1,12.5,0.7,12.1,0.7,11.6z M2.6,13.9c-0.1,0-0.1-0.1-0.1-0.1v-0.5h0.4v0.6H2.6z M4.7,14.6c0.6,0.9,1.5,1.5,2.6,1.9v0.9L6.4,18
		H6.3c-1,0-1.9,0.3-2.7,0.8v-4.2H4.7z M8,19.3l-0.9-1l0.6-0.5l0.9,0.5L8,19.3z M10,19.3l-0.6-0.9l0.9-0.5l0.6,0.5L10,19.3z
		 M10.1,17.3L9,17.9l-1.1-0.7v-0.6c0.3,0.1,0.7,0.1,1.1,0.1h0c0.4,0,0.7,0,1.1-0.1V17.3z M9,16L9,16c-1.3,0-2.5-0.6-3.4-1.4h1.6v0
		c0,0.4,0.3,0.7,0.7,0.7H10c0.4,0,0.7-0.3,0.7-0.7v-0.8c0-0.4-0.3-0.7-0.7-0.7H8c-0.4,0-0.7,0.3-0.7,0.7v0H5
		c-0.5-0.7-0.8-1.6-0.8-2.6v-0.4c0.4,0,0.5-0.2,0.6-0.3c0,0,0.2-0.2,0.3-0.4C6,9.2,7.9,6.7,9,4.3c1.1,2.3,3,4.8,3.8,5.8
		c0.1,0.2,0.3,0.3,0.3,0.4c0.1,0.1,0.3,0.3,0.6,0.3v0.4C13.7,13.9,11.6,16,9,16L9,16z M7.9,13.8C7.9,13.8,8,13.8,7.9,13.8l2.1,0
		c0,0,0,0,0,0v0.8c0,0,0,0,0,0H8c0,0,0,0,0,0C7.9,14.6,7.9,13.8,7.9,13.8z M17.3,11.6c0,0.5-0.4,1-1,1h-1.6c-0.2,0-0.3-0.1-0.3-0.3
		v-1.8c0,0,0,0,0,0V7.9c0-0.2,0.1-0.3,0.3-0.3h1.6c0.5,0,1,0.4,1,1V11.6z"/>
</g>
</svg>
