<?xml version="1.0" encoding="utf-8"?>
<!-- Generator: Adobe Illustrator 24.1.1, SVG Export Plug-In . SVG Version: 6.00 Build 0)  -->
<svg version="1.1" id="Layer_1" xmlns="http://www.w3.org/2000/svg" xmlns:xlink="http://www.w3.org/1999/xlink" x="0px" y="0px"
	 viewBox="0 0 18 24" style="enable-background:new 0 0 18 24;" xml:space="preserve">
<style type="text/css">
	.st0{fill:#FC6A55;}
	.st1{fill:#EDEDED;}
	.st2{fill:none;stroke:#FC6A55;stroke-miterlimit:10;}
	.st3{fill:#222F3F;}
	.st4{fill:#383838;}
	.st5{fill:#FFFFFF;}
	.st6{fill:#656D7A;}
	.st7{fill:#C4C4C4;}
	.st8{filter:url(#Adobe_OpacityMaskFilter);}
	.st9{fill-rule:evenodd;clip-rule:evenodd;fill:#FFFFFF;}
	.st10{mask:url(#mask-2_8_);fill-rule:evenodd;clip-rule:evenodd;}
	.st11{filter:url(#Adobe_OpacityMaskFilter_1_);}
	.st12{mask:url(#mask-2_7_);fill-rule:evenodd;clip-rule:evenodd;}
	.st13{filter:url(#Adobe_OpacityMaskFilter_2_);}
	.st14{mask:url(#mask-2_6_);fill-rule:evenodd;clip-rule:evenodd;}
	.st15{filter:url(#Adobe_OpacityMaskFilter_3_);}
	.st16{mask:url(#mask-2_5_);fill-rule:evenodd;clip-rule:evenodd;}
	.st17{filter:url(#Adobe_OpacityMaskFilter_4_);}
	.st18{mask:url(#mask-2_2_);fill:none;stroke:#000000;stroke-width:1.5;stroke-miterlimit:10;}
	.st19{fill:#B4A3EE;}
	.st20{fill:#434343;}
	.st21{fill:#434343;stroke:#F9F9F9;stroke-width:0.25;stroke-miterlimit:10;}
	.st22{fill:none;stroke:#FC6A55;stroke-width:0.5;stroke-miterlimit:10;}
	.st23{fill:none;stroke:#FC6A55;stroke-width:0.75;stroke-miterlimit:10;}
	.st24{fill:#FC6A55;stroke:#FC6A55;stroke-width:0.5;stroke-miterlimit:10;}
	.st25{opacity:0.153;fill:url(#Path_44_);enable-background:new    ;}
	.st26{opacity:0.1;fill:#590BB2;enable-background:new    ;}
	.st27{fill:#8E8CA8;}
	.st28{fill:#F5F4F9;}
	.st29{fill:#FFD5B8;}
	.st30{fill:#FC8473;}
	.st31{fill:#1C3475;}
	.st32{fill:#DDD9E4;}
	.st33{fill:#828FB3;}
	.st34{opacity:7.584635e-02;fill:url(#Path_45_);enable-background:new    ;}
	.st35{fill:#FFBE92;}
	.st36{fill:#FB8E7F;}
	.st37{fill:#FDB1A6;}
	.st38{fill:#FC806F;}
	.st39{fill:#FFE783;}
	.st40{fill:#104478;}
	.st41{fill:none;stroke:#FFFFFF;stroke-miterlimit:10;}
	.st42{fill:none;stroke:#000000;stroke-width:0.15;stroke-miterlimit:10;}
	.st43{opacity:0.1;fill:url(#Path_46_);enable-background:new    ;}
	.st44{opacity:0.1;fill:url(#Path_47_);enable-background:new    ;}
	.st45{fill-rule:evenodd;clip-rule:evenodd;fill:#FC6A55;}
	.st46{fill-rule:evenodd;clip-rule:evenodd;}
	.st47{fill:#FF6757;}
	.st48{fill:#666666;}
	.st49{fill:none;stroke:#FFFFFF;stroke-width:0.5;stroke-miterlimit:10;}
	.st50{fill:#F16A56;}
	.st51{fill:#515252;}
	.st52{fill:#F26A56;}
	.st53{fill:none;stroke:#F16A56;stroke-miterlimit:10;}
	.st54{fill:none;stroke:#929292;stroke-miterlimit:10;}
	.st55{fill:#929292;}
	.st56{fill:none;stroke:#000000;stroke-width:0.5;stroke-miterlimit:10;}
	.st57{fill:#A8A7A7;}
	.st58{fill:#F79F91;}
	.st59{fill:#9BDBD5;}
	.st60{fill:#222121;}
	.st61{stroke:#000000;stroke-width:0.25;stroke-miterlimit:10;}
</style>
<g>
	<path d="M6.1,20.9c0.1,0.1,0.3,0.1,0.4,0L8,19.4L7.6,19l-1.3,1.3l-5.6-5.6l3.4-3.4l-0.4-0.4l-3.6,3.6c-0.1,0.1-0.1,0.3,0,0.4
		L6.1,20.9z"/>
	<path d="M18,9.3l-0.6-5.4c0-0.1-0.1-0.2-0.3-0.3L11.7,3c-0.1,0-0.2,0-0.2,0.1L9.4,5.2l0.4,0.4l2-2l5,0.6l0.6,5l-1.2,1.2l-0.6-3.8
		c0.4-0.2,0.6-0.6,0.6-1c-0.1-0.4-0.5-0.7-0.9-0.7c-0.4,0-0.8,0.3-0.9,0.8c-0.1,0.4,0.2,0.9,0.6,1l0.5,3.1l-4.2-4.2
		c-0.1-0.1-0.3-0.1-0.4,0L9.4,7l0.4,0.4l1.3-1.3l3.8,3.8l-0.7,0.7l0.4,0.4l0.9-0.9c0,0,0,0,0-0.1l0.1,0.8l-0.6,0.6l0.4,0.4l0.3-0.3
		l0.2,1.3c0,0.4,0.3,0.7,0.6,0.8c0.3,0.1,0.7,0.1,1-0.2c0.3-0.2,0.4-0.6,0.3-1L17.4,10l0.5-0.5C18,9.4,18,9.4,18,9.3z M15.3,5.4
		c0.2,0,0.3,0.1,0.3,0.3S15.5,6,15.3,6S15,5.9,15,5.7S15.1,5.4,15.3,5.4z M17.4,12.7c0,0.1,0,0.3-0.1,0.4c-0.1,0.1-0.3,0.1-0.4,0.1
		s-0.2-0.2-0.3-0.3l-0.3-1.7l0.6-0.6L17.4,12.7z"/>
	<path d="M2.2,14.7l1.9-1.9l0.4,0.4l-1.9,1.9L2.2,14.7z"/>
	<path d="M3.1,15.6l1.9-1.9l0.4,0.4L3.5,16L3.1,15.6z"/>
	<path d="M4,16.5l1.1-1.1l0.4,0.4L4.5,17L4,16.5z"/>
	<path d="M5,17.5l0.8-0.8l0.4,0.4l-0.8,0.8L5,17.5z"/>
	<path d="M5.9,18.4l0.6-0.6l0.4,0.4l-0.6,0.6L5.9,18.4z"/>
	<path d="M10.8,19.5c1,0,2-0.3,2.8-0.9l2.2,2.2c0.4,0.4,1,0.4,1.3,0s0.4-1,0-1.3l-2.2-2.2l0,0c1.1-1.9,0.9-4.3-0.6-5.8
		c-1.5-1.6-3.9-1.9-5.8-0.9c-1.9,1.1-2.9,3.3-2.3,5.4C6.7,18,8.6,19.5,10.8,19.5z M16.7,19.8c0.1,0.1,0.1,0.3,0,0.5
		c-0.1,0.1-0.3,0.1-0.5,0l-2.1-2.1c0.2-0.2,0.3-0.3,0.5-0.5L16.7,19.8z M10.8,10.5c2.3,0,4.2,1.9,4.2,4.2s-1.9,4.2-4.2,4.2
		S6.6,17,6.6,14.7C6.6,12.4,8.5,10.5,10.8,10.5z"/>
	<path d="M10.8,18.3c2,0,3.6-1.6,3.6-3.6s-1.6-3.6-3.6-3.6s-3.6,1.6-3.6,3.6C7.2,16.7,8.8,18.3,10.8,18.3z M10.8,11.7
		c1.7,0,3,1.3,3,3s-1.3,3-3,3s-3-1.3-3-3C7.8,13,9.1,11.7,10.8,11.7z"/>
	<path d="M11.1,15.9h-0.6c-0.2,0-0.3-0.1-0.3-0.3H9.6c0,0.5,0.4,0.9,0.9,0.9v0.6h0.6v-0.6c0.5,0,0.9-0.4,0.9-0.9v-0.3
		c0-0.5-0.4-0.9-0.9-0.9h-0.6c-0.2,0-0.3-0.1-0.3-0.3v-0.3c0-0.2,0.1-0.3,0.3-0.3h0.6c0.2,0,0.3,0.1,0.3,0.3H12
		c0-0.5-0.4-0.9-0.9-0.9v-0.6h-0.6v0.6c-0.5,0-0.9,0.4-0.9,0.9v0.3c0,0.5,0.4,0.9,0.9,0.9h0.6c0.2,0,0.3,0.1,0.3,0.3v0.3
		C11.4,15.8,11.3,15.9,11.1,15.9z"/>
	<path d="M1.5,10.2h2l2,1.4c0.1,0,0.1,0.1,0.2,0.1c0.1,0,0.1,0,0.2,0C6,11.6,6,11.5,6,11.3l-0.2-1.1h1.7C8.3,10.2,9,9.5,9,8.7V4.5
		C9,3.7,8.3,3,7.5,3h-6C0.7,3,0,3.7,0,4.5v4.2C0,9.5,0.7,10.2,1.5,10.2z M0.6,4.5C0.6,4,1,3.6,1.5,3.6h6C8,3.6,8.4,4,8.4,4.5v4.2
		c0,0.5-0.4,0.9-0.9,0.9H5.4c-0.1,0-0.2,0-0.2,0.1C5.1,9.8,5.1,9.9,5.1,10l0.1,0.8L3.8,9.7c-0.1,0-0.1-0.1-0.2-0.1H1.5
		C1,9.6,0.6,9.2,0.6,8.7V4.5z"/>
	<path d="M1.5,9h6.3V8.4h-6V7.6l0.6-0.8l0.7,0.9c0.1,0.1,0.2,0.1,0.2,0.1c0.1,0,0.2-0.1,0.2-0.1l1-1.5l1.2,1.5
		C5.8,7.8,5.9,7.8,6,7.8c0,0,0,0,0,0c0.1,0,0.2-0.1,0.2-0.2l1.5-2.7L7.2,4.7L6,7L4.7,5.5C4.7,5.4,4.6,5.4,4.5,5.4
		c-0.1,0-0.2,0.1-0.2,0.1L3.3,7L2.6,6.1C2.6,6,2.5,6,2.4,6C2.3,6,2.2,6,2.2,6.1L1.8,6.6V4.5H1.2v4.2C1.2,8.9,1.3,9,1.5,9z"/>
</g>
</svg>
