<?xml version="1.0" encoding="utf-8"?>
<!-- Generator: Adobe Illustrator 24.1.1, SVG Export Plug-In . SVG Version: 6.00 Build 0)  -->
<svg version="1.1" id="Layer_1" xmlns="http://www.w3.org/2000/svg" xmlns:xlink="http://www.w3.org/1999/xlink" x="0px" y="0px"
	 viewBox="0 0 18 24" style="enable-background:new 0 0 18 24;" xml:space="preserve">
<style type="text/css">
	.st0{fill:#FC6A55;}
	.st1{fill:#EDEDED;}
	.st2{fill:none;stroke:#FC6A55;stroke-miterlimit:10;}
	.st3{fill:#222F3F;}
	.st4{fill:#383838;}
	.st5{fill:#FFFFFF;}
	.st6{fill:#656D7A;}
	.st7{fill:#C4C4C4;}
	.st8{filter:url(#Adobe_OpacityMaskFilter);}
	.st9{fill-rule:evenodd;clip-rule:evenodd;fill:#FFFFFF;}
	.st10{mask:url(#mask-2_8_);fill-rule:evenodd;clip-rule:evenodd;}
	.st11{filter:url(#Adobe_OpacityMaskFilter_1_);}
	.st12{mask:url(#mask-2_7_);fill-rule:evenodd;clip-rule:evenodd;}
	.st13{filter:url(#Adobe_OpacityMaskFilter_2_);}
	.st14{mask:url(#mask-2_6_);fill-rule:evenodd;clip-rule:evenodd;}
	.st15{filter:url(#Adobe_OpacityMaskFilter_3_);}
	.st16{mask:url(#mask-2_5_);fill-rule:evenodd;clip-rule:evenodd;}
	.st17{filter:url(#Adobe_OpacityMaskFilter_4_);}
	.st18{mask:url(#mask-2_2_);fill:none;stroke:#000000;stroke-width:1.5;stroke-miterlimit:10;}
	.st19{fill:#B4A3EE;}
	.st20{fill:#434343;}
	.st21{fill:#434343;stroke:#F9F9F9;stroke-width:0.25;stroke-miterlimit:10;}
	.st22{fill:none;stroke:#FC6A55;stroke-width:0.5;stroke-miterlimit:10;}
	.st23{fill:none;stroke:#FC6A55;stroke-width:0.75;stroke-miterlimit:10;}
	.st24{fill:#FC6A55;stroke:#FC6A55;stroke-width:0.5;stroke-miterlimit:10;}
	.st25{opacity:0.153;fill:url(#Path_44_);enable-background:new    ;}
	.st26{opacity:0.1;fill:#590BB2;enable-background:new    ;}
	.st27{fill:#8E8CA8;}
	.st28{fill:#F5F4F9;}
	.st29{fill:#FFD5B8;}
	.st30{fill:#FC8473;}
	.st31{fill:#1C3475;}
	.st32{fill:#DDD9E4;}
	.st33{fill:#828FB3;}
	.st34{opacity:7.584635e-02;fill:url(#Path_45_);enable-background:new    ;}
	.st35{fill:#FFBE92;}
	.st36{fill:#FB8E7F;}
	.st37{fill:#FDB1A6;}
	.st38{fill:#FC806F;}
	.st39{fill:#FFE783;}
	.st40{fill:#104478;}
	.st41{fill:none;stroke:#FFFFFF;stroke-miterlimit:10;}
	.st42{fill:none;stroke:#000000;stroke-width:0.15;stroke-miterlimit:10;}
	.st43{opacity:0.1;fill:url(#Path_46_);enable-background:new    ;}
	.st44{opacity:0.1;fill:url(#Path_47_);enable-background:new    ;}
	.st45{fill-rule:evenodd;clip-rule:evenodd;fill:#FC6A55;}
	.st46{fill-rule:evenodd;clip-rule:evenodd;}
	.st47{fill:#FF6757;}
	.st48{fill:#666666;}
	.st49{fill:none;stroke:#FFFFFF;stroke-width:0.5;stroke-miterlimit:10;}
	.st50{fill:#F16A56;}
	.st51{fill:#515252;}
	.st52{fill:#F26A56;}
	.st53{fill:none;stroke:#F16A56;stroke-miterlimit:10;}
	.st54{fill:none;stroke:#929292;stroke-miterlimit:10;}
	.st55{fill:#929292;}
	.st56{fill:none;stroke:#000000;stroke-width:0.5;stroke-miterlimit:10;}
	.st57{fill:#A8A7A7;}
	.st58{fill:#F79F91;}
	.st59{fill:#9BDBD5;}
	.st60{fill:#222121;}
	.st61{stroke:#000000;stroke-width:0.25;stroke-miterlimit:10;}
</style>
<g>
	<g>
		<path class="st0" d="M11.7,20h-0.8c-0.3,0-0.6,0.2-0.6,0.5v0.6c0,0.2,0.3,0.5,0.6,0.5h0.8c0.3,0,0.6-0.2,0.6-0.5v-0.6
			C12.3,20.2,12,20,11.7,20z M11.9,21.1c0,0.1-0.1,0.1-0.2,0.1h-0.8c-0.1,0-0.2-0.1-0.2-0.1v-0.6c0-0.1,0.1-0.1,0.2-0.1h0.8
			c0.1,0,0.2,0.1,0.2,0.1V21.1z"/>
		<path class="st0" d="M14.4,20h-0.8c-0.3,0-0.6,0.2-0.6,0.5v0.6c0,0.2,0.3,0.5,0.6,0.5h0.8c0.3,0,0.6-0.2,0.6-0.5v-0.6
			C15,20.2,14.8,20,14.4,20z M14.6,21.1c0,0.1-0.1,0.1-0.2,0.1h-0.8c-0.1,0-0.2-0.1-0.2-0.1v-0.6c0-0.1,0.1-0.1,0.2-0.1h0.8
			c0.1,0,0.2,0.1,0.2,0.1V21.1z"/>
		<path class="st0" d="M3.4,17.3h0.9c0.3,0,0.5-0.1,0.5-0.3v-1c0-0.2-0.2-0.3-0.5-0.3H3.4c-0.3,0-0.5,0.1-0.5,0.3v1
			C2.9,17.2,3.1,17.3,3.4,17.3z M3.3,16C3.3,16,3.4,16,3.3,16l0.9,0c0,0,0,0,0,0v1c0,0,0,0,0,0H3.4c0,0,0,0,0,0V16z"/>
		<path class="st0" d="M7,16.3h0.9c0.3,0,0.5-0.1,0.5-0.3v-1c0-0.2-0.2-0.3-0.5-0.3H7c-0.3,0-0.5,0.1-0.5,0.3v1
			C6.5,16.2,6.7,16.3,7,16.3z M6.9,15C6.9,15,7,15,6.9,15l0.9,0c0,0,0,0,0,0v1c0,0,0,0,0,0H7c0,0,0,0,0,0V15z"/>
		<path class="st0" d="M7,18.5h0.9c0.3,0,0.5-0.1,0.5-0.3v-1c0-0.2-0.2-0.3-0.5-0.3H7c-0.3,0-0.5,0.1-0.5,0.3v1
			C6.5,18.3,6.7,18.5,7,18.5z M6.9,17.2C6.9,17.1,7,17.1,6.9,17.2l0.9,0c0,0,0,0,0,0v1c0,0,0,0,0,0H7c0,0,0,0,0,0V17.2z"/>
		<path class="st0" d="M10.1,16.3H11c0.3,0,0.5-0.1,0.5-0.3v-1c0-0.2-0.2-0.3-0.5-0.3h-0.9c-0.3,0-0.5,0.1-0.5,0.3v1
			C9.6,16.2,9.9,16.3,10.1,16.3z M10.1,15C10.1,15,10.1,15,10.1,15l0.9,0c0,0,0,0,0,0v1c0,0,0,0,0,0h-0.9c0,0,0,0,0,0V15z"/>
		<path class="st0" d="M10.1,18.5H11c0.3,0,0.5-0.1,0.5-0.3v-1c0-0.2-0.2-0.3-0.5-0.3h-0.9c-0.3,0-0.5,0.1-0.5,0.3v1
			C9.6,18.3,9.9,18.5,10.1,18.5z M10.1,17.2C10.1,17.1,10.1,17.1,10.1,17.2l0.9,0c0,0,0,0,0,0v1c0,0,0,0,0,0h-0.9c0,0,0,0,0,0V17.2z
			"/>
		<path class="st0" d="M4.3,19.5c0.3,0,0.5-0.1,0.5-0.3v-1c0-0.2-0.2-0.3-0.5-0.3H3.4c-0.3,0-0.5,0.1-0.5,0.3v1
			c0,0.2,0.2,0.3,0.5,0.3H4.3z M3.3,19.2v-1c0,0,0,0,0,0h0.9c0,0,0,0,0,0v1c0,0,0,0,0,0L3.3,19.2C3.4,19.2,3.3,19.2,3.3,19.2z"/>
		<path class="st0" d="M14.6,15.7h-0.9c-0.3,0-0.5,0.1-0.5,0.3v1c0,0.2,0.2,0.3,0.5,0.3h0.9c0.3,0,0.5-0.1,0.5-0.3v-1
			C15.1,15.8,14.9,15.7,14.6,15.7z M14.7,17C14.7,17,14.6,17,14.7,17l-0.9,0c0,0,0,0,0,0v-1c0,0,0,0,0,0h0.9c0,0,0,0,0,0V17z"/>
		<path class="st0" d="M15.3,14.8h-2.7v-0.7c0.2-0.1,0.4-0.2,0.4-0.4v-0.4c0-0.2-0.3-0.4-0.6-0.4H7.5c-0.1,0-0.2,0.1-0.2,0.2
			s0.1,0.2,0.2,0.2h4.8c0.1,0,0.1,0,0.1,0.1v0.4c0,0.1-0.1,0.1-0.1,0.1H5.6c-0.1,0-0.1,0-0.1-0.1v-0.4c0-0.1,0.1-0.1,0.1-0.1h1.1
			c0.1,0,0.2-0.1,0.2-0.2S6.8,13,6.7,13H5.6c-0.3,0-0.6,0.2-0.6,0.4v0.4c0,0.2,0.1,0.3,0.4,0.4v0.7H2.7c-0.5,0-0.9,0.3-0.9,0.6v7.7
			c0,0.1,0.1,0.2,0.2,0.2H16c0.1,0,0.2-0.1,0.2-0.2v-7.7C16.2,15.1,15.8,14.8,15.3,14.8z M5.8,14.2h6.3V19H8c-0.5,0-1,0.1-1.4,0.2
			c-0.2,0.1-0.5,0.1-0.7,0.2V14.2z M5.5,20c0.3-0.2,0.6-0.3,0.9-0.5v0.7c0,0.5-0.6,0.9-1.3,0.9H3.9C4,21.1,4.1,21,4.3,20.9
			c0,0,0,0,0,0C4.3,20.9,5.4,20,5.5,20z M2.3,15.5c0-0.2,0.2-0.3,0.4-0.3h2.7v4.5c-0.1,0.1-0.2,0.1-0.3,0.2c0,0-1.1,0.8-1.1,0.8
			C3.5,21,3.2,21.5,3.2,22H2.3V15.5z M15.7,22h-2.5c-0.1,0-0.2,0.1-0.2,0.2c0,0.1,0.1,0.2,0.2,0.2h2.5V23H2.3v-0.7l10.2,0
			c0.1,0,0.2-0.1,0.2-0.2S12.5,22,12.4,22H9.7v-1.4c0-0.3-0.3-0.6-0.8-0.6H8.2c-0.4,0-0.8,0.3-0.8,0.6V22H3.6c0,0,0,0,0,0
			c0-0.2,0.1-0.3,0.1-0.5h1.4c0.9,0,1.7-0.5,1.7-1.2v-0.8c0,0,0,0,0,0c0.4-0.1,0.7-0.1,1.1-0.1c0,0,7.8,0,7.8,0V22z M7.8,22v-1.4
			c0-0.1,0.2-0.3,0.4-0.3h0.7c0.2,0,0.4,0.1,0.4,0.3V22H7.8z M13.7,19v-0.8c0,0,0,0,0,0h0.9c0,0,0,0,0,0V19H13.7z M15.7,19h-0.7
			v-0.8c0-0.2-0.2-0.3-0.5-0.3h-0.9c-0.3,0-0.5,0.1-0.5,0.3V19h-0.7v-3.8h2.7c0.2,0,0.4,0.1,0.4,0.3V19z"/>
	</g>
	<g>
		<g>
			<path class="st0" d="M7.9,6.4C7.4,6.4,7,6.8,7,7.3h0.6C7.6,7.1,7.7,7,7.9,7s0.3,0.1,0.3,0.3h0.6C8.8,6.8,8.4,6.4,7.9,6.4z"/>
		</g>
	</g>
	<g>
		<g>
			<path class="st0" d="M10.3,6.4c-0.5,0-0.9,0.4-0.9,0.9H10C10,7.1,10.1,7,10.3,7c0.2,0,0.3,0.1,0.3,0.3h0.6
				C11.2,6.8,10.8,6.4,10.3,6.4z"/>
		</g>
	</g>
	<g>
		<g>
			<path class="st0" d="M11.8,9.7h-0.3c0.1-0.1,0.2-0.2,0.3-0.3h0.3c0.8,0,1.5-0.7,1.5-1.5V7.3c0.4-0.2,0.6-0.7,0.6-1.1
				c0-0.5-0.2-0.9-0.6-1.1c0-2.4-2-4.4-4.5-4.4c-2.5,0-4.5,2-4.5,4.4C4.2,5.3,4,5.8,4,6.2C4,7,4.6,7.6,5.3,7.6h0.2
				c0.1,0.8,0.6,1.6,1.2,2.1H6.4c-2.2,0-4,1.5-4.4,3.6c0.2,0,0.4,0.1,0.6,0.1c0.4-1.7,1.8-3,3.6-3.1l1.2,2.4H4.9
				c-0.7,0-1.2,0.4-1.4,1C3.7,13.8,3.8,13.9,4,14c0.1-0.4,0.4-0.7,0.9-0.7h8.4c0.3,0,0.6,0.2,0.8,0.5c0.2-0.1,0.3-0.3,0.5-0.4
				c-0.3-0.4-0.7-0.7-1.3-0.7h-2.5l1.2-2.4c1.6,0.1,3,1.2,3.5,2.6c0.2-0.1,0.4-0.1,0.6-0.2C15.4,11,13.8,9.7,11.8,9.7z M13,7.9
				c0,0.5-0.3,0.8-0.8,0.9c0.2-0.4,0.4-0.8,0.4-1.2h0.2c0.1,0,0.1,0,0.1,0V7.9z M13.6,6.2c0,0.4-0.3,0.8-0.8,0.8h-0.2V5.5h0.2
				C13.2,5.5,13.6,5.8,13.6,6.2z M5.5,7H5.3C4.9,7,4.6,6.6,4.6,6.2s0.3-0.8,0.8-0.8h0.1V7z M5.3,4.9c0,0-0.1,0-0.1,0
				c0.1-2,1.8-3.6,3.9-3.6c2.1,0,3.7,1.6,3.9,3.6c0,0-0.1,0-0.1,0h-0.2c-0.3-1.7-1.8-3-3.5-3c-1.8,0-3.3,1.3-3.5,3H5.3z M12.1,5.5
				c-2.2-0.1-3.6-1-3.6-1.8c0-0.2-0.1-0.3-0.3-0.3C8,3.4,7.9,3.5,7.9,3.7c0,0.7-0.8,1.4-1.8,1.5c0.2-1.5,1.4-2.7,3-2.7
				C10.7,2.5,12.1,3.8,12.1,5.5z M6.1,7V5.8C7,5.7,7.8,5.2,8.2,4.6c0.6,0.8,2.1,1.4,3.9,1.5V7c0,0.7-0.2,1.3-0.6,1.8H9.1v0.6h1.8
				c-0.2,0.1-0.4,0.2-0.6,0.3c-0.8,0.4-1.7,0.4-2.5,0C6.8,9.2,6.1,8.2,6.1,7z M8.1,12.7l-1.2-2.4h0.5l1.2,2.4H8.1z M8.2,10.4
				c0.3,0.1,0.6,0.1,0.9,0.1c0.3,0,0.6,0,0.9-0.1l-0.9,1.9L8.2,10.4z M10.1,12.7H9.6l1.2-2.4h0.5L10.1,12.7z"/>
		</g>
	</g>
</g>
</svg>
