<?xml version="1.0" encoding="utf-8"?>
<!-- Generator: Adobe Illustrator 24.1.1, SVG Export Plug-In . SVG Version: 6.00 Build 0)  -->
<svg version="1.1" id="Layer_1" xmlns="http://www.w3.org/2000/svg" xmlns:xlink="http://www.w3.org/1999/xlink" x="0px" y="0px"
	 viewBox="0 0 18 24" style="enable-background:new 0 0 18 24;" xml:space="preserve">
<style type="text/css">
	.st0{fill:#FC6A55;}
	.st1{fill:#EDEDED;}
	.st2{fill:none;stroke:#FC6A55;stroke-miterlimit:10;}
	.st3{fill:#222F3F;}
	.st4{fill:#383838;}
	.st5{fill:#FFFFFF;}
	.st6{fill:#656D7A;}
	.st7{fill:#C4C4C4;}
	.st8{filter:url(#Adobe_OpacityMaskFilter);}
	.st9{fill-rule:evenodd;clip-rule:evenodd;fill:#FFFFFF;}
	.st10{mask:url(#mask-2_8_);fill-rule:evenodd;clip-rule:evenodd;}
	.st11{filter:url(#Adobe_OpacityMaskFilter_1_);}
	.st12{mask:url(#mask-2_7_);fill-rule:evenodd;clip-rule:evenodd;}
	.st13{filter:url(#Adobe_OpacityMaskFilter_2_);}
	.st14{mask:url(#mask-2_6_);fill-rule:evenodd;clip-rule:evenodd;}
	.st15{filter:url(#Adobe_OpacityMaskFilter_3_);}
	.st16{mask:url(#mask-2_5_);fill-rule:evenodd;clip-rule:evenodd;}
	.st17{filter:url(#Adobe_OpacityMaskFilter_4_);}
	.st18{mask:url(#mask-2_2_);fill:none;stroke:#000000;stroke-width:1.5;stroke-miterlimit:10;}
	.st19{fill:#B4A3EE;}
	.st20{fill:#434343;}
	.st21{fill:#434343;stroke:#F9F9F9;stroke-width:0.25;stroke-miterlimit:10;}
	.st22{fill:none;stroke:#FC6A55;stroke-width:0.5;stroke-miterlimit:10;}
	.st23{fill:none;stroke:#FC6A55;stroke-width:0.75;stroke-miterlimit:10;}
	.st24{fill:#FC6A55;stroke:#FC6A55;stroke-width:0.5;stroke-miterlimit:10;}
	.st25{opacity:0.153;fill:url(#Path_44_);enable-background:new    ;}
	.st26{opacity:0.1;fill:#590BB2;enable-background:new    ;}
	.st27{fill:#8E8CA8;}
	.st28{fill:#F5F4F9;}
	.st29{fill:#FFD5B8;}
	.st30{fill:#FC8473;}
	.st31{fill:#1C3475;}
	.st32{fill:#DDD9E4;}
	.st33{fill:#828FB3;}
	.st34{opacity:7.584635e-02;fill:url(#Path_45_);enable-background:new    ;}
	.st35{fill:#FFBE92;}
	.st36{fill:#FB8E7F;}
	.st37{fill:#FDB1A6;}
	.st38{fill:#FC806F;}
	.st39{fill:#FFE783;}
	.st40{fill:#104478;}
	.st41{fill:none;stroke:#FFFFFF;stroke-miterlimit:10;}
	.st42{fill:none;stroke:#000000;stroke-width:0.15;stroke-miterlimit:10;}
	.st43{opacity:0.1;fill:url(#Path_46_);enable-background:new    ;}
	.st44{opacity:0.1;fill:url(#Path_47_);enable-background:new    ;}
	.st45{fill-rule:evenodd;clip-rule:evenodd;fill:#FC6A55;}
	.st46{fill-rule:evenodd;clip-rule:evenodd;}
	.st47{fill:#FF6757;}
	.st48{fill:#666666;}
	.st49{fill:none;stroke:#FFFFFF;stroke-width:0.5;stroke-miterlimit:10;}
	.st50{fill:#F16A56;}
	.st51{fill:#515252;}
	.st52{fill:#F26A56;}
	.st53{fill:none;stroke:#F16A56;stroke-miterlimit:10;}
	.st54{fill:none;stroke:#929292;stroke-miterlimit:10;}
	.st55{fill:#929292;}
	.st56{fill:none;stroke:#000000;stroke-width:0.5;stroke-miterlimit:10;}
	.st57{fill:#A8A7A7;}
	.st58{fill:#F79F91;}
	.st59{fill:#9BDBD5;}
	.st60{fill:#222121;}
	.st61{stroke:#000000;stroke-width:0.25;stroke-miterlimit:10;}
</style>
<g>
	<path class="st0" d="M5.4,13.5L5,13.9l1.4,1.4l3.1-3.7l-0.4-0.4l-2.7,3.2L5.4,13.5z"/>
	<path class="st0" d="M2,5.9c0.5,0,0.9-0.4,0.9-0.9S2.5,4.2,2,4.2S1.2,4.6,1.2,5S1.6,5.9,2,5.9z M2,4.7c0.2,0,0.3,0.1,0.3,0.3
		S2.2,5.3,2,5.3S1.7,5.2,1.7,5C1.7,4.9,1.9,4.7,2,4.7z"/>
	<path class="st0" d="M4.4,5.9c0.5,0,0.9-0.4,0.9-0.9S4.8,4.2,4.4,4.2S3.5,4.6,3.5,5S3.9,5.9,4.4,5.9z M4.4,4.7
		c0.2,0,0.3,0.1,0.3,0.3S4.5,5.3,4.4,5.3S4.1,5.2,4.1,5C4.1,4.9,4.2,4.7,4.4,4.7z"/>
	<path class="st0" d="M6.7,5.9c0.5,0,0.9-0.4,0.9-0.9S7.2,4.2,6.7,4.2S5.8,4.6,5.8,5S6.2,5.9,6.7,5.9z M6.7,4.7C6.8,4.7,7,4.9,7,5
		S6.8,5.3,6.7,5.3S6.4,5.2,6.4,5C6.4,4.9,6.5,4.7,6.7,4.7z"/>
	<path class="st0" d="M18,10.3c0-2-1.5-3.6-3.5-3.8V3.9c0-0.5-0.4-0.9-0.9-0.9H0.9C0.4,3,0,3.4,0,3.9v16.3C0,20.6,0.4,21,0.9,21
		h13.4c0.8,0,1.5-0.7,1.5-1.5v-4.4c0-0.3-0.3-0.6-0.6-0.6v-0.7C16.8,13.5,18,12,18,10.3z M17.4,10.3c0,1.8-1.4,3.2-3.2,3.2
		S11,12,11,10.3s1.4-3.2,3.2-3.2S17.4,8.5,17.4,10.3z M10.5,10.7c0.1,0.6,0.3,1.1,0.5,1.5V13c0,2.3-1.5,4.4-3.8,5.1
		C5,17.4,3.5,15.4,3.5,13v-2.2c1.4-0.2,2.7-0.5,3.8-1.1C8.2,10.2,9.3,10.6,10.5,10.7L10.5,10.7z M10.5,10.1c-1.1-0.2-2.2-0.5-3.1-1
		L7.3,9.1L7.1,9.1c-1.1,0.6-2.5,1-4,1.1l-0.3,0V13c0,2.6,1.8,5,4.3,5.6l0.1,0l0.1,0c2.5-0.7,4.3-3,4.3-5.6V13
		c0.2,0.2,0.4,0.3,0.6,0.4c-0.2,2.8-2.2,5.2-4.9,5.8C4.3,18.6,2.3,16,2.3,13V9.7c1.7,0,3.4-0.5,4.9-1.4c1,0.6,2.1,1,3.3,1.2
		C10.5,9.7,10.5,9.9,10.5,10.1L10.5,10.1z M0.9,3.6h12.8c0.2,0,0.3,0.1,0.3,0.3v2.6H0.6V3.9C0.6,3.7,0.7,3.6,0.9,3.6z M0.6,20.1V7.1
		h11.6c-0.7,0.4-1.2,1.1-1.5,1.9C9.5,8.7,8.4,8.3,7.4,7.7L7.3,7.6L7.1,7.7C5.6,8.6,3.9,9.1,2.2,9.1H1.7V13c0,3.3,2.2,6.1,5.5,6.8
		l0.1,0l0.1,0c3-0.7,5.1-3.1,5.4-6.1c0.2,0.1,0.4,0.2,0.6,0.2v0.7c-0.3,0-0.6,0.3-0.6,0.6v4.4c0,0.3,0.1,0.6,0.3,0.9H0.9
		C0.7,20.4,0.6,20.3,0.6,20.1z M15.1,15.2v0.6h-1.7v-0.6H15.1z M14.2,20.4c-0.5,0-0.9-0.4-0.9-0.9v-3.2h1.7v3.2
		C15.1,20,14.7,20.4,14.2,20.4z M14.5,14.6h-0.6V14c0.1,0,0.2,0,0.3,0s0.2,0,0.3,0V14.6z"/>
	<path class="st0" d="M13.9,10h0.6v0.6h-0.6V10z"/>
	<path class="st0" d="M15.1,10h0.6v0.6h-0.6V10z"/>
	<path class="st0" d="M12.8,10h0.6v0.6h-0.6V10z"/>
</g>
</svg>
