<?xml version="1.0" encoding="utf-8"?>
<!-- Generator: Adobe Illustrator 24.0.2, SVG Export Plug-In . SVG Version: 6.00 Build 0)  -->
<svg version="1.1" id="Layer_1" xmlns="http://www.w3.org/2000/svg" xmlns:xlink="http://www.w3.org/1999/xlink" x="0px" y="0px"
	 viewBox="0 0 58.3 58.8" style="enable-background:new 0 0 58.3 58.8;" xml:space="preserve">
<style type="text/css">
	.st0{fill:#FC6A55;}
	.st1{stroke:#FFFFFF;stroke-width:0.25;stroke-miterlimit:10;}
	.st2{fill:#656D7A;}
	.st3{fill:#FFFFFF;}
	.st4{filter:url(#Adobe_OpacityMaskFilter);}
	.st5{fill-rule:evenodd;clip-rule:evenodd;fill:#FFFFFF;}
	.st6{mask:url(#mask-2_8_);fill-rule:evenodd;clip-rule:evenodd;}
	.st7{filter:url(#Adobe_OpacityMaskFilter_1_);}
	.st8{mask:url(#mask-2_7_);fill-rule:evenodd;clip-rule:evenodd;}
	.st9{filter:url(#Adobe_OpacityMaskFilter_2_);}
	.st10{mask:url(#mask-2_6_);fill-rule:evenodd;clip-rule:evenodd;}
	.st11{filter:url(#Adobe_OpacityMaskFilter_3_);}
	.st12{mask:url(#mask-2_5_);fill-rule:evenodd;clip-rule:evenodd;}
	.st13{filter:url(#Adobe_OpacityMaskFilter_4_);}
	.st14{mask:url(#mask-2_2_);fill:none;stroke:#000000;stroke-width:2;}
	.st15{fill:#434343;}
	.st16{fill:#434343;stroke:#F9F9F9;stroke-width:0.25;stroke-miterlimit:10;}
	.st17{fill:none;stroke:#FC6A55;stroke-width:0.5;stroke-miterlimit:10;}
	.st18{fill:none;stroke:#FC6A55;stroke-width:0.75;stroke-miterlimit:10;}
	.st19{fill:#FC6A55;stroke:#FC6A55;stroke-width:0.5;stroke-miterlimit:10;}
</style>
<g>
	<path class="st0" d="M29.2,4.1c-3.6,0-6.5,2.9-6.5,6.5h1.9c0-2.6,2.1-4.7,4.7-4.7s4.7,2.1,4.7,4.7h1.9C35.7,7.1,32.8,4.1,29.2,4.1z
		"/>
	<path class="st0" d="M29.2,2.3c4.6,0,8.4,3.8,8.4,8.4h1.9c0-5.7-4.6-10.3-10.3-10.3S18.9,5,18.9,10.7h1.9C20.7,6,24.5,2.3,29.2,2.3
		z"/>
	<path class="st0" d="M52.6,28.5h-1.9v-3.7H37.2l-3.7-7.5h-3.4v-3.9c1.1-0.4,1.9-1.4,1.9-2.6c0-1.5-1.3-2.8-2.8-2.8
		c-1.5,0-2.8,1.3-2.8,2.8c0,1.2,0.8,2.2,1.9,2.6v3.9h-3.5l-3.4,12.3l-3.4-3.4L5.8,38.4v18.2H3.9v1.9h50.5v-1.9h-1.9V28.5z M29.2,9.8
		c0.5,0,0.9,0.4,0.9,0.9c0,0.5-0.4,0.9-0.9,0.9c-0.5,0-0.9-0.4-0.9-0.9C28.2,10.2,28.7,9.8,29.2,9.8z M48.8,26.6v1.9H37.6v-1.9H48.8
		z M37.6,37.8H20.7v-1.9h16.8V37.8z M27.3,26.1l-3.7,2.1l1-3.6L27.3,26.1z M25.4,22.9h7.5L29.2,25L25.4,22.9z M33.8,29.9L29,33.4
		l-5.4-3.1l5.6-3.2L33.8,29.9L33.8,29.9z M22.6,31.9l3.8,2.2H22L22.6,31.9z M31.3,34.1l2.5-1.9v1.9H31.3z M35.3,28.5l-4.2-2.4
		l3.7-2.1l1,1.9v2.6H35.3z M32.3,19.1l0.9,1.9h-7.6l0.5-1.9H32.3z M20.7,31.6L20,34.1h-1.2v3.7H9l9-9L20.7,31.6z M11.4,45.3v-1.9
		h1.9v1.9H11.4z M15.1,43.4H17v1.9h-1.9V43.4z M7.6,39.7H17v1.9H9.5v5.6H17V49h-3.7v7.5H7.6V39.7z M15.1,56.5v-5.6H17v5.6H15.1z
		 M26.4,56.5h-1.9v-5.6h1.9V56.5z M33.8,56.5H32v-5.6h1.9V56.5z M35.7,56.5V49h-5.6v7.5h-1.9V49h-5.6v7.5h-3.7V39.7h20.6v16.8H35.7z
		 M41.3,56.5V37.8h-1.9v-3.7h-3.7v-3.7h15v26.2H41.3z"/>
	<path class="st0" d="M20.7,47.2h16.8v-5.6H20.7V47.2z M28.2,45.3h-1.9v-1.9h1.9V45.3z M30.1,43.4H32v1.9h-1.9V43.4z M35.7,45.3
		h-1.9v-1.9h1.9V45.3z M22.6,43.4h1.9v1.9h-1.9V43.4z"/>
	<path class="st0" d="M43.2,37.8h5.6v-5.6h-5.6V37.8z M45.1,34.1h1.9v1.9h-1.9V34.1z"/>
	<path class="st0" d="M43.2,45.3h5.6v-5.6h-5.6V45.3z M45.1,41.6h1.9v1.9h-1.9V41.6z"/>
	<path class="st0" d="M43.2,52.8h5.6v-5.6h-5.6V52.8z M45.1,49h1.9v1.9h-1.9V49z"/>
	<path class="st0" d="M0.2,56.5H2v1.9H0.2V56.5z"/>
	<path class="st0" d="M56.3,56.5h1.9v1.9h-1.9V56.5z"/>
</g>
</svg>
