<?xml version="1.0" encoding="utf-8"?>
<!-- Generator: Adobe Illustrator 24.0.2, SVG Export Plug-In . SVG Version: 6.00 Build 0)  -->
<svg version="1.1" id="Layer_1" xmlns="http://www.w3.org/2000/svg" xmlns:xlink="http://www.w3.org/1999/xlink" x="0px" y="0px"
	 viewBox="0 0 51.2 58" style="enable-background:new 0 0 51.2 58;" xml:space="preserve">
<style type="text/css">
	.st0{fill:#FC6A55;}
	.st1{stroke:#FFFFFF;stroke-width:0.25;stroke-miterlimit:10;}
	.st2{fill:#656D7A;}
	.st3{fill:#FFFFFF;}
	.st4{filter:url(#Adobe_OpacityMaskFilter);}
	.st5{fill-rule:evenodd;clip-rule:evenodd;fill:#FFFFFF;}
	.st6{mask:url(#mask-2_8_);fill-rule:evenodd;clip-rule:evenodd;}
	.st7{filter:url(#Adobe_OpacityMaskFilter_1_);}
	.st8{mask:url(#mask-2_7_);fill-rule:evenodd;clip-rule:evenodd;}
	.st9{filter:url(#Adobe_OpacityMaskFilter_2_);}
	.st10{mask:url(#mask-2_6_);fill-rule:evenodd;clip-rule:evenodd;}
	.st11{filter:url(#Adobe_OpacityMaskFilter_3_);}
	.st12{mask:url(#mask-2_5_);fill-rule:evenodd;clip-rule:evenodd;}
	.st13{filter:url(#Adobe_OpacityMaskFilter_4_);}
	.st14{mask:url(#mask-2_2_);fill:none;stroke:#000000;stroke-width:2;}
	.st15{fill:#434343;}
	.st16{fill:#434343;stroke:#F9F9F9;stroke-width:0.25;stroke-miterlimit:10;}
	.st17{fill:none;stroke:#FC6A55;stroke-width:0.5;stroke-miterlimit:10;}
	.st18{fill:none;stroke:#FC6A55;stroke-width:0.75;stroke-miterlimit:10;}
	.st19{fill:#FC6A55;stroke:#FC6A55;stroke-width:0.5;stroke-miterlimit:10;}
</style>
<g id="Content_4_">
	<path class="st0" d="M48.3,41.6c1.6,0,2.9-1.3,2.9-2.9V11.6c0-1.6-1.3-2.9-2.9-2.9H36.7V4.8c0-2.7-2.2-4.8-4.8-4.8H4.8
		C2.2,0,0,2.2,0,4.8v48.3C0,55.8,2.2,58,4.8,58h27.1c2.7,0,4.8-2.2,4.8-4.8v-3.9h14.5v-1.9H36.7v-5.8H48.3z M48.3,39.6H17.4
		c-0.5,0-1-0.4-1-1V16.4h32.9v22.2C49.3,39.2,48.9,39.6,48.3,39.6z M49.3,11.6v2.9H16.4v-2.9c0-0.5,0.4-1,1-1h30.9
		C48.9,10.6,49.3,11.1,49.3,11.6z M12.6,1.9h11.6v1.9H12.6V1.9z M34.8,47.4h-2.1c-0.5-1.5-2.2-2.3-3.7-1.8c-0.8,0.3-1.5,0.9-1.8,1.8
		h-6v1.9h6c0.5,1.5,2.2,2.3,3.7,1.8c0.8-0.3,1.5-0.9,1.8-1.8h2.1v3.9c0,1.6-1.3,2.9-2.9,2.9H4.8c-1.6,0-2.9-1.3-2.9-2.9V4.8
		c0-1.6,1.3-2.9,2.9-2.9h5.8v1.9c0,1.1,0.9,1.9,1.9,1.9h11.6c1.1,0,1.9-0.9,1.9-1.9V1.9h5.8c1.6,0,2.9,1.3,2.9,2.9v3.9H17.4
		c-1.6,0-2.9,1.3-2.9,2.9v27.1c0,1.6,1.3,2.9,2.9,2.9h17.4V47.4z M30.9,48.3c0,0.5-0.4,1-1,1s-1-0.4-1-1s0.4-1,1-1
		S30.9,47.8,30.9,48.3z"/>
	<path class="st0" d="M18.4,11.6h1.9v1.9h-1.9V11.6z"/>
	<path class="st0" d="M22.2,11.6h1.9v1.9h-1.9V11.6z"/>
	<path class="st0" d="M26.1,11.6H28v1.9h-1.9V11.6z"/>
	<path class="st0" d="M36.1,26.4L33,24.4c-0.9-0.6-2.1-0.3-2.7,0.5C30.1,25.2,30,25.6,30,26v4.1c0,1.1,0.9,1.9,1.9,1.9
		c0.4,0,0.8-0.1,1.1-0.3l3.1-2.1c0.9-0.6,1.1-1.8,0.5-2.7C36.5,26.8,36.3,26.6,36.1,26.4L36.1,26.4z M31.9,30.1V26L35,28L31.9,30.1z
		"/>
	<path class="st0" d="M32.9,19.3c-4.8,0-8.7,3.9-8.7,8.7s3.9,8.7,8.7,8.7s8.7-3.9,8.7-8.7C41.6,23.2,37.7,19.3,32.9,19.3z
		 M32.9,34.8c-3.7,0-6.8-3-6.8-6.8s3-6.8,6.8-6.8c3.7,0,6.8,3,6.8,6.8C39.6,31.8,36.6,34.8,32.9,34.8z"/>
	<path class="st0" d="M17.4,46.4h1.9v3.9h-1.9V46.4z"/>
	<path class="st0" d="M14.5,46.4h1.9v3.9h-1.9V46.4z"/>
	<path class="st0" d="M19.3,27.1h1.9V29h-1.9V27.1z"/>
	<path class="st0" d="M19.3,23.2h1.9v1.9h-1.9V23.2z"/>
	<path class="st0" d="M19.3,30.9h1.9v1.9h-1.9V30.9z"/>
</g>
</svg>
