<?xml version="1.0" encoding="utf-8"?>
<!-- Generator: Adobe Illustrator 24.2.0, SVG Export Plug-In . SVG Version: 6.00 Build 0)  -->
<svg version="1.1" id="Layer_1" xmlns="http://www.w3.org/2000/svg" xmlns:xlink="http://www.w3.org/1999/xlink" x="0px" y="0px"
	 viewBox="0 0 42.3 42.3" style="enable-background:new 0 0 42.3 42.3;" xml:space="preserve">
<style type="text/css">
	.st0{fill:#6F6F6F;stroke:#6F6F6F;stroke-width:0.25;stroke-miterlimit:10;}
	.st1{fill:#FC6A55;}
	.st2{fill:#EDEDED;}
	.st3{fill:none;stroke:#FC6A55;stroke-miterlimit:10;}
	.st4{fill:#222F3F;}
	.st5{fill:#383838;}
	.st6{fill:#FFFFFF;}
	.st7{fill:#B0B0B0;}
	.st8{fill:#656D7A;}
	.st9{fill:#C4C4C4;}
	.st10{filter:url(#Adobe_OpacityMaskFilter);}
	.st11{fill-rule:evenodd;clip-rule:evenodd;fill:#FFFFFF;}
	.st12{mask:url(#mask-2_8_);fill-rule:evenodd;clip-rule:evenodd;fill:#B0B0B0;}
	.st13{filter:url(#Adobe_OpacityMaskFilter_1_);}
	.st14{mask:url(#mask-2_7_);fill-rule:evenodd;clip-rule:evenodd;fill:#B0B0B0;}
	.st15{filter:url(#Adobe_OpacityMaskFilter_2_);}
	.st16{mask:url(#mask-2_6_);fill-rule:evenodd;clip-rule:evenodd;fill:#B0B0B0;}
	.st17{filter:url(#Adobe_OpacityMaskFilter_3_);}
	.st18{mask:url(#mask-2_5_);fill-rule:evenodd;clip-rule:evenodd;fill:#B0B0B0;}
	.st19{filter:url(#Adobe_OpacityMaskFilter_4_);}
	.st20{mask:url(#mask-2_2_);fill:none;stroke:#B0B0B0;stroke-width:1.5;stroke-miterlimit:10;}
	.st21{filter:url(#Adobe_OpacityMaskFilter_5_);}
	.st22{mask:url(#mask-2_10_);fill-rule:evenodd;clip-rule:evenodd;fill:#FC6A55;}
	.st23{filter:url(#Adobe_OpacityMaskFilter_6_);}
	.st24{mask:url(#mask-2_9_);fill-rule:evenodd;clip-rule:evenodd;fill:#FC6A55;}
	.st25{filter:url(#Adobe_OpacityMaskFilter_7_);}
	.st26{mask:url(#mask-2_4_);fill-rule:evenodd;clip-rule:evenodd;fill:#FC6A55;}
	.st27{filter:url(#Adobe_OpacityMaskFilter_8_);}
	.st28{mask:url(#mask-2_3_);fill-rule:evenodd;clip-rule:evenodd;fill:#FC6A55;}
	.st29{filter:url(#Adobe_OpacityMaskFilter_9_);}
	.st30{mask:url(#mask-2_1_);fill:none;stroke:#FC6A55;stroke-width:1.5;stroke-miterlimit:10;}
	.st31{fill:#B4A3EE;}
	.st32{fill:#222121;}
	.st33{fill:none;stroke:#FC6A55;stroke-width:0.75;stroke-miterlimit:10;}
	.st34{fill:#FC6A55;stroke:#FC6A55;stroke-width:0.25;stroke-miterlimit:10;}
	.st35{fill:#FC6A55;stroke:#FC6A55;stroke-width:0.5;stroke-miterlimit:10;}
	.st36{opacity:0.5;fill:#FC6A55;}
	.st37{fill:#F5F4F9;}
	.st38{opacity:0.153;fill:url(#Path_144_);enable-background:new    ;}
	.st39{opacity:0.1;fill:#590BB2;enable-background:new    ;}
	.st40{fill:#8E8CA8;}
	.st41{fill:#FFD5B8;}
	.st42{fill:#FC8473;}
	.st43{fill:#1C3475;}
	.st44{fill:#DDD9E4;}
	.st45{fill:#828FB3;}
	.st46{opacity:7.584635e-02;fill:url(#Path_145_);enable-background:new    ;}
	.st47{fill:#FFBE92;}
	.st48{fill:#FB8E7F;}
	.st49{fill:#FDB1A6;}
	.st50{fill:#FC806F;}
	.st51{fill:#FFE783;}
	.st52{fill:#104478;}
	.st53{fill:none;stroke:#FFFFFF;stroke-miterlimit:10;}
	.st54{fill:none;stroke:#000000;stroke-width:0.15;stroke-miterlimit:10;}
	.st55{opacity:0.3;fill:#FC6A55;}
	.st56{opacity:0.4;fill:#FC6A55;}
	.st57{opacity:0.1;fill:url(#Path_147_);enable-background:new    ;}
	.st58{opacity:0.1;fill:url(#Path_150_);enable-background:new    ;}
	.st59{fill-rule:evenodd;clip-rule:evenodd;fill:#FC6A55;}
	.st60{fill-rule:evenodd;clip-rule:evenodd;}
	.st61{fill:#FF6757;}
	.st62{fill:#6C973D;}
	.st63{fill:none;stroke:#FFFFFF;stroke-width:0.5;stroke-miterlimit:10;}
	.st64{fill:#606060;}
	.st65{fill:#F16A56;}
	.st66{fill:#515252;}
	.st67{fill:#656565;}
	.st68{fill:#F26A56;}
	.st69{fill:none;stroke:#F16A56;stroke-miterlimit:10;}
	.st70{fill:none;stroke:#929292;stroke-miterlimit:10;}
	.st71{fill:#929292;}
	.st72{fill:none;stroke:#000000;stroke-width:0.5;stroke-miterlimit:10;}
	.st73{fill:#A8A7A7;}
	.st74{fill:#F79F91;}
	.st75{fill:#9BDBD5;}
	.st76{stroke:#000000;stroke-width:0.25;stroke-miterlimit:10;}
	.st77{fill:#6F6F6F;}
	.st78{fill:none;stroke:#6F6F6F;stroke-width:0.75;stroke-miterlimit:10;}
</style>
<g>
	<g>
		<g>
			<path class="st1" d="M41.4,0.1C41.4,0.1,41.4,0.1,41.4,0.1H0.8c-0.4,0-0.7,0.3-0.7,0.7c0,0,0,0,0,0v14h1.4V1.5h39.2v15.4H16.2
				v1.4h25.2c0.4,0,0.7-0.3,0.7-0.7c0,0,0,0,0,0V0.8C42.1,0.4,41.8,0.1,41.4,0.1z"/>
		</g>
	</g>
	<g>
		<g>
			<rect x="23.2" y="3.6" class="st1" width="14" height="1.4"/>
		</g>
	</g>
	<g>
		<g>
			<rect x="25.3" y="7.8" class="st1" width="14" height="1.4"/>
		</g>
	</g>
	<g>
		<g>
			<rect x="22.5" y="12" class="st1" width="14" height="1.4"/>
		</g>
	</g>
	<g>
		<g>
			<path class="st1" d="M22.5,6.2c-0.5-1.2-1.8-1.7-3-1.2c0,0,0,0-0.1,0l-5.7,2.9c0.2-0.5,0.3-1,0.3-1.5c0-1.9-1.6-3.5-3.5-3.5
				S7.1,4.5,7.1,6.4c0,0.8,0.3,1.5,0.7,2.1h0c-2,0-3.8,1.2-4.5,3.1l-1.9,6.4C1,19.2,1.6,20.5,2.8,21c0.5,0.2,1.1,0.2,1.6,0
				c0.6-0.2,1.1-0.7,1.3-1.3l0.7-2.3v10.1c-0.6-0.5-1.3-0.7-2.1-0.7c-1.9,0-3.5,1.6-3.5,3.5c0,0.9,0.4,1.9,1.1,2.5
				c-1.1,0.5-1.8,1.7-1.8,2.9v5.9c0,0.4,0.3,0.7,0.7,0.7c0,0,0,0,0,0h7c0.4,0,0.7-0.3,0.7-0.7c0,0,0,0,0,0v-5.9c0-1-0.5-1.9-1.2-2.5
				h5.3c-0.8,0.6-1.2,1.5-1.2,2.5v5.9c0,0.4,0.3,0.7,0.7,0.7c0,0,0,0,0,0h7c0.4,0,0.7-0.3,0.7-0.7c0,0,0,0,0,0v-5.9
				c0-1.2-0.7-2.3-1.8-2.9c1.4-1.3,1.4-3.6,0.1-4.9c-0.8-0.9-2-1.2-3.2-1V12.5l6.4-3.3C22.4,8.6,22.9,7.3,22.5,6.2z M10.6,4.3
				c1.2,0,2.1,0.9,2.1,2.1s-0.9,2.1-2.1,2.1c-1.2,0-2.1-0.9-2.1-2.1C8.5,5.3,9.5,4.3,10.6,4.3z M4.3,28.1c1.2,0,2.1,0.9,2.1,2.1
				s-0.9,2.1-2.1,2.1s-2.1-0.9-2.1-2.1C2.2,29,3.2,28.1,4.3,28.1z M7.1,40.7H1.5v-5.2c0-1,0.8-1.8,1.8-1.8h1.9c1,0,1.8,0.8,1.8,1.8
				V40.7z M18.3,35.6v5.2h-5.6v-5.2c0-1,0.8-1.8,1.8-1.8h1.9C17.5,33.7,18.3,34.5,18.3,35.6z M15.5,28.1c1.2,0,2.1,0.9,2.1,2.1
				c0,1.2-0.9,2.1-2.1,2.1s-2.1-0.9-2.1-2.1S14.4,28.1,15.5,28.1z M21.2,7.3c-0.1,0.2-0.3,0.4-0.5,0.5l-6.9,3.6
				c-0.2,0.1-0.4,0.4-0.4,0.6v15.4c-1.3,1-1.8,2.7-1.1,4.2h-1V19.7H9.9v11.9H7.5c0.2-0.4,0.3-0.9,0.3-1.4h0V12.7
				c0-0.4-0.3-0.7-0.7-0.7c-0.3,0-0.6,0.2-0.7,0.5l-2.1,6.7c-0.2,0.4-0.6,0.7-1.1,0.5c0,0-0.1,0-0.1,0c-0.4-0.2-0.6-0.7-0.4-1.1
				l1.9-6.4c0.5-1.3,1.7-2.1,3.1-2.2h5c0.1,0,0.2,0,0.3-0.1l7-3.6c0.4-0.2,0.9,0,1.1,0.4C21.3,6.9,21.3,7.1,21.2,7.3z"/>
		</g>
	</g>
	<g>
		<g>
			<path class="st1" d="M29.2,32.7c1.4-1.3,1.4-3.6,0.1-4.9s-3.6-1.4-4.9-0.1c-1.4,1.3-1.4,3.6-0.1,4.9c0,0,0,0,0.1,0.1
				c-1.1,0.5-1.8,1.7-1.8,2.9v5.9c0,0.4,0.3,0.7,0.7,0.7c0,0,0,0,0,0h7c0.4,0,0.7-0.3,0.7-0.7c0,0,0,0,0,0v-5.9
				C30.9,34.4,30.2,33.2,29.2,32.7z M26.7,28.1c1.2,0,2.1,0.9,2.1,2.1s-0.9,2.1-2.1,2.1s-2.1-0.9-2.1-2.1
				C24.6,29,25.6,28.1,26.7,28.1z M29.5,40.7h-5.6v-5.2c0-1,0.8-1.8,1.8-1.8h1.9c1,0,1.8,0.8,1.8,1.8V40.7z"/>
		</g>
	</g>
	<g>
		<g>
			<path class="st1" d="M40.4,32.7c1.4-1.3,1.4-3.6,0.1-4.9c-1.3-1.4-3.6-1.4-4.9-0.1s-1.4,3.6-0.1,4.9c0,0,0,0,0.1,0.1
				c-1.1,0.5-1.8,1.7-1.8,2.9v5.9c0,0.4,0.3,0.7,0.7,0.7c0,0,0,0,0,0h7c0.4,0,0.7-0.3,0.7-0.7c0,0,0,0,0,0v-5.9
				C42.1,34.4,41.4,33.2,40.4,32.7z M37.9,28.1c1.2,0,2.1,0.9,2.1,2.1s-0.9,2.1-2.1,2.1s-2.1-0.9-2.1-2.1
				C35.8,29,36.8,28.1,37.9,28.1z M40.7,40.7h-5.6v-5.2c0-1,0.8-1.8,1.8-1.8h1.9c1,0,1.8,0.8,1.8,1.8V40.7z"/>
		</g>
	</g>
</g>
</svg>
