<?xml version="1.0" encoding="utf-8"?>
<!-- Generator: Adobe Illustrator 24.2.0, SVG Export Plug-In . SVG Version: 6.00 Build 0)  -->
<svg version="1.1" id="Layer_1" xmlns="http://www.w3.org/2000/svg" xmlns:xlink="http://www.w3.org/1999/xlink" x="0px" y="0px"
	 viewBox="0 0 37 42" style="enable-background:new 0 0 37 42;" xml:space="preserve">
<style type="text/css">
	.st0{fill:#6F6F6F;stroke:#6F6F6F;stroke-width:0.25;stroke-miterlimit:10;}
	.st1{fill:#FC6A55;}
	.st2{fill:#EDEDED;}
	.st3{fill:none;stroke:#FC6A55;stroke-miterlimit:10;}
	.st4{fill:#222F3F;}
	.st5{fill:#383838;}
	.st6{fill:#FFFFFF;}
	.st7{fill:#B0B0B0;}
	.st8{fill:#656D7A;}
	.st9{fill:#C4C4C4;}
	.st10{filter:url(#Adobe_OpacityMaskFilter);}
	.st11{fill-rule:evenodd;clip-rule:evenodd;fill:#FFFFFF;}
	.st12{mask:url(#mask-2_8_);fill-rule:evenodd;clip-rule:evenodd;fill:#B0B0B0;}
	.st13{filter:url(#Adobe_OpacityMaskFilter_1_);}
	.st14{mask:url(#mask-2_7_);fill-rule:evenodd;clip-rule:evenodd;fill:#B0B0B0;}
	.st15{filter:url(#Adobe_OpacityMaskFilter_2_);}
	.st16{mask:url(#mask-2_6_);fill-rule:evenodd;clip-rule:evenodd;fill:#B0B0B0;}
	.st17{filter:url(#Adobe_OpacityMaskFilter_3_);}
	.st18{mask:url(#mask-2_5_);fill-rule:evenodd;clip-rule:evenodd;fill:#B0B0B0;}
	.st19{filter:url(#Adobe_OpacityMaskFilter_4_);}
	.st20{mask:url(#mask-2_2_);fill:none;stroke:#B0B0B0;stroke-width:1.5;stroke-miterlimit:10;}
	.st21{filter:url(#Adobe_OpacityMaskFilter_5_);}
	.st22{mask:url(#mask-2_10_);fill-rule:evenodd;clip-rule:evenodd;fill:#FC6A55;}
	.st23{filter:url(#Adobe_OpacityMaskFilter_6_);}
	.st24{mask:url(#mask-2_9_);fill-rule:evenodd;clip-rule:evenodd;fill:#FC6A55;}
	.st25{filter:url(#Adobe_OpacityMaskFilter_7_);}
	.st26{mask:url(#mask-2_4_);fill-rule:evenodd;clip-rule:evenodd;fill:#FC6A55;}
	.st27{filter:url(#Adobe_OpacityMaskFilter_8_);}
	.st28{mask:url(#mask-2_3_);fill-rule:evenodd;clip-rule:evenodd;fill:#FC6A55;}
	.st29{filter:url(#Adobe_OpacityMaskFilter_9_);}
	.st30{mask:url(#mask-2_1_);fill:none;stroke:#FC6A55;stroke-width:1.5;stroke-miterlimit:10;}
	.st31{fill:#B4A3EE;}
	.st32{fill:#222121;}
	.st33{fill:none;stroke:#FC6A55;stroke-width:0.75;stroke-miterlimit:10;}
	.st34{fill:#FC6A55;stroke:#FC6A55;stroke-width:0.25;stroke-miterlimit:10;}
	.st35{fill:#FC6A55;stroke:#FC6A55;stroke-width:0.5;stroke-miterlimit:10;}
	.st36{opacity:0.5;fill:#FC6A55;}
	.st37{fill:#F5F4F9;}
	.st38{opacity:0.153;fill:url(#Path_144_);enable-background:new    ;}
	.st39{opacity:0.1;fill:#590BB2;enable-background:new    ;}
	.st40{fill:#8E8CA8;}
	.st41{fill:#FFD5B8;}
	.st42{fill:#FC8473;}
	.st43{fill:#1C3475;}
	.st44{fill:#DDD9E4;}
	.st45{fill:#828FB3;}
	.st46{opacity:7.584635e-02;fill:url(#Path_145_);enable-background:new    ;}
	.st47{fill:#FFBE92;}
	.st48{fill:#FB8E7F;}
	.st49{fill:#FDB1A6;}
	.st50{fill:#FC806F;}
	.st51{fill:#FFE783;}
	.st52{fill:#104478;}
	.st53{fill:none;stroke:#FFFFFF;stroke-miterlimit:10;}
	.st54{fill:none;stroke:#000000;stroke-width:0.15;stroke-miterlimit:10;}
	.st55{opacity:0.3;fill:#FC6A55;}
	.st56{opacity:0.4;fill:#FC6A55;}
	.st57{opacity:0.1;fill:url(#Path_147_);enable-background:new    ;}
	.st58{opacity:0.1;fill:url(#Path_150_);enable-background:new    ;}
	.st59{fill-rule:evenodd;clip-rule:evenodd;fill:#FC6A55;}
	.st60{fill-rule:evenodd;clip-rule:evenodd;}
	.st61{fill:#FF6757;}
	.st62{fill:#6C973D;}
	.st63{fill:none;stroke:#FFFFFF;stroke-width:0.5;stroke-miterlimit:10;}
	.st64{fill:#606060;}
	.st65{fill:#F16A56;}
	.st66{fill:#515252;}
	.st67{fill:#656565;}
	.st68{fill:#F26A56;}
	.st69{fill:none;stroke:#F16A56;stroke-miterlimit:10;}
	.st70{fill:none;stroke:#929292;stroke-miterlimit:10;}
	.st71{fill:#929292;}
	.st72{fill:none;stroke:#000000;stroke-width:0.5;stroke-miterlimit:10;}
	.st73{fill:#A8A7A7;}
	.st74{fill:#F79F91;}
	.st75{fill:#9BDBD5;}
	.st76{stroke:#000000;stroke-width:0.25;stroke-miterlimit:10;}
	.st77{fill:#6F6F6F;}
	.st78{fill:none;stroke:#6F6F6F;stroke-width:0.75;stroke-miterlimit:10;}
</style>
<g>
	<g>
		<path class="st1" d="M14.4,15.4v-1.8h0.6v-0.5h-3.8v0.5h0.6v1.8c-0.2,0.1-0.4,0.2-0.6,0.3l-1.9-2.9v-1.2h0.6v-0.5H9.4v-0.8
			c0-0.1-0.1-0.3-0.3-0.3H8.8V9.3C8.8,9.1,8.7,9,8.5,9H6.6C6.5,9,6.3,9.1,6.3,9.3v0.8H6c-0.2,0-0.3,0.1-0.3,0.3v0.8H5.1v0.5h0.6v1.2
			l-3.6,5.3c-0.1,0.2-0.2,0.4-0.2,0.6V19c0,0.7,0.7,1.3,1.6,1.3h8.1c0.2,0,0.4,0,0.6-0.1c0.3,0.1,0.6,0.1,0.9,0.1
			c1.7,0,3.1-1.1,3.1-2.6C16.3,16.7,15.6,15.8,14.4,15.4z M13.8,13.6v0.5h-1.3v-0.5H13.8z M12.4,15.8c0.1,0,0.2-0.1,0.2-0.2v-0.9
			h1.3v0.9c0,0.1,0.1,0.2,0.2,0.2c0.8,0.2,1.4,0.8,1.6,1.4c-0.2,0-0.5,0.1-0.6,0.2l-0.3,0.2c-0.1,0-0.1,0.1-0.2,0.1h-0.1
			c-0.1,0-0.2,0-0.2-0.1l-0.3-0.2c-0.2-0.1-0.4-0.2-0.7-0.2h-0.1c-0.3,0-0.5,0.1-0.7,0.2l-0.3,0.2c-0.1,0-0.1,0.1-0.2,0.1h-0.1
			c-0.1,0-0.2,0-0.2-0.1l-0.3-0.2c-0.2-0.1-0.4-0.2-0.6-0.2C11,16.6,11.6,16,12.4,15.8z M6.9,9.5h1.3v0.5H6.9V9.5z M6.3,10.6h2.5
			v0.5H6.3V10.6z M6.3,13c0,0,0-0.1,0-0.1v-1.3h2.5v1.3c0,0,0,0.1,0,0.1l1.1,1.7c-0.2,0-0.5,0.1-0.6,0.2l-0.3,0.2
			c-0.1,0-0.1,0.1-0.2,0.1H8.8c-0.1,0-0.2,0-0.2-0.1l-0.3-0.2c-0.2-0.1-0.4-0.2-0.7-0.2H7.5c-0.3,0-0.5,0.1-0.7,0.2l-0.3,0.2
			c-0.1,0-0.1,0.1-0.2,0.1H6.3c-0.1,0-0.2,0-0.2-0.1l-0.3-0.2c-0.2-0.1-0.4-0.2-0.6-0.2L6.3,13z M3.5,19.8c-0.5,0-0.9-0.3-0.9-0.8
			v-0.3c0-0.1,0-0.3,0.1-0.4l2.1-3.2h0.3c0.1,0,0.2,0,0.2,0.1l0.3,0.2c0.2,0.1,0.4,0.2,0.7,0.2h0.1c0.3,0,0.5-0.1,0.7-0.2l0.3-0.2
			c0.1,0,0.1-0.1,0.2-0.1h0.1c0.1,0,0.2,0,0.2,0.1l0.3,0.2c0.2,0.1,0.4,0.2,0.7,0.2h0.1c0.3,0,0.5-0.1,0.7-0.2l0.3-0.2
			c0.1,0,0.1-0.1,0.2-0.1h0.3l0.6,0.8c-0.5,0.5-0.8,1.1-0.8,1.7c0,0.8,0.5,1.6,1.3,2H3.5z M13.2,19.8c-1.4,0-2.5-0.9-2.5-2h0.1
			c0.1,0,0.2,0,0.2,0.1l0.3,0.2c0.2,0.1,0.4,0.2,0.7,0.2H12c0.3,0,0.5-0.1,0.7-0.2l0.3-0.2c0.1,0,0.1-0.1,0.2-0.1h0.1
			c0.1,0,0.2,0,0.2,0.1l0.3,0.2c0.2,0.1,0.4,0.2,0.7,0.2h0.1c0.3,0,0.5-0.1,0.7-0.2l0.3-0.2c0.1,0,0.1-0.1,0.2-0.1h0.1
			C15.7,18.9,14.6,19.8,13.2,19.8z"/>
		<path class="st1" d="M4.1,17.7c-0.5,0-0.9,0.3-0.9,0.8c0,0.4,0.4,0.8,0.9,0.8s0.9-0.3,0.9-0.8C5.1,18.1,4.6,17.7,4.1,17.7z
			 M4.1,18.8c-0.2,0-0.3-0.1-0.3-0.3s0.1-0.3,0.3-0.3c0.2,0,0.3,0.1,0.3,0.3S4.3,18.8,4.1,18.8z"/>
		<path class="st1" d="M6.6,17.2c-0.5,0-0.9,0.3-0.9,0.8c0,0.4,0.4,0.8,0.9,0.8s0.9-0.3,0.9-0.8C7.6,17.6,7.1,17.2,6.6,17.2z
			 M6.6,18.2c-0.2,0-0.3-0.1-0.3-0.3s0.1-0.3,0.3-0.3s0.3,0.1,0.3,0.3S6.8,18.2,6.6,18.2z"/>
		<path class="st1" d="M8.8,16.2c-0.5,0-0.9,0.3-0.9,0.8c0,0.4,0.4,0.8,0.9,0.8s0.9-0.3,0.9-0.8C9.8,16.5,9.3,16.2,8.8,16.2z
			 M8.8,17.2c-0.2,0-0.3-0.1-0.3-0.3s0.1-0.3,0.3-0.3s0.3,0.1,0.3,0.3S9,17.2,8.8,17.2z"/>
		<path class="st1" d="M9.1,18.8h0.6v0.5H9.1V18.8z"/>
		<path class="st1" d="M8.5,18.2h0.6v0.5H8.5V18.2z"/>
		<path class="st1" d="M7.9,18.8h0.6v0.5H7.9V18.8z"/>
		<path class="st1" d="M5.4,16.5H6V17H5.4V16.5z"/>
		<path class="st1" d="M21,8h-4.4c-0.2,0-0.3,0.1-0.3,0.3v1c0,0.1,0.1,0.3,0.3,0.3h0.3v9.2c0,0.8,0.8,1.5,1.9,1.5
			c1,0,1.9-0.7,1.9-1.5V9.5H21c0.2,0,0.3-0.1,0.3-0.3v-1C21.3,8.1,21.2,8,21,8z M18.8,19.8c-0.7,0-1.3-0.5-1.3-1v-5.6h2.5v5.6
			C20.1,19.3,19.5,19.8,18.8,19.8z M20.1,12.6h-2.5V9.5h2.5V12.6z M20.7,9h-3.8V8.5h3.8V9z"/>
		<path class="st1" d="M18.2,18.5h0.6V19h-0.6V18.5z"/>
		<path class="st1" d="M18.8,17.5h0.6V18h-0.6V17.5z"/>
		<path class="st1" d="M18.2,16.5h0.6V17h-0.6V16.5z"/>
		<path class="st1" d="M18.8,15.4h0.6v0.5h-0.6V15.4z"/>
		<path class="st1" d="M18.2,14.4h0.6v0.5h-0.6V14.4z"/>
		<path class="st1" d="M6.9,7.2C6.9,7.1,7.1,7,7.3,7h0.9v1.5h0.6V7h3.1v5.6h0.6V7h0.9c0.2,0,0.3,0.1,0.3,0.3v5.4h0.6V7.2
			c0-0.4-0.4-0.8-0.9-0.8h-0.9V6.2c0-0.1,0.1-0.3,0.3-0.3h3.8c0.2,0,0.3,0.1,0.3,0.3v1.3h0.6V6.2c0-0.4-0.4-0.8-0.9-0.8h-3.8
			c-0.5,0-0.9,0.3-0.9,0.8v0.3H8.8V5.2c0-0.1,0.1-0.3,0.3-0.3h10.6c0.2,0,0.3,0.1,0.3,0.3v2.3h0.6V5.2c0-0.4-0.4-0.8-0.9-0.8H9.1
			c-0.5,0-0.9,0.3-0.9,0.8v1.3H7.3c-0.5,0-0.9,0.3-0.9,0.8v1.3h0.6V7.2z"/>
		<path class="st1" d="M3.8,8.3C3.8,8.7,4.2,9,4.8,9s0.9-0.3,0.9-0.8c0-0.4-0.4-0.8-0.9-0.8S3.8,7.8,3.8,8.3z M5.1,8.3
			c0,0.1-0.1,0.3-0.3,0.3c-0.2,0-0.3-0.1-0.3-0.3S4.6,8,4.8,8C4.9,8,5.1,8.1,5.1,8.3z"/>
		<path class="st1" d="M3.5,7c0.9,0,1.6-0.6,1.6-1.3S4.4,4.4,3.5,4.4S1.9,5,1.9,5.7S2.6,7,3.5,7z M3.5,4.9c0.5,0,0.9,0.3,0.9,0.8
			S4,6.5,3.5,6.5S2.6,6.1,2.6,5.7S3,4.9,3.5,4.9z"/>
		<path class="st1" d="M3.2,11.6c0.7,0,1.3-0.5,1.3-1s-0.6-1-1.3-1s-1.3,0.5-1.3,1S2.5,11.6,3.2,11.6z M3.2,10.1
			c0.3,0,0.6,0.2,0.6,0.5s-0.3,0.5-0.6,0.5s-0.6-0.2-0.6-0.5S2.8,10.1,3.2,10.1z"/>
	</g>
	<g id="surface1_5_">
		<path class="st1" d="M36.4,25.1h-1.9l-1.2-14c0-0.3-0.3-0.5-0.6-0.5H29c-0.3,0-0.6,0.2-0.6,0.5l-1.2,14h-1.3v-3
			c0-0.3-0.3-0.5-0.6-0.5c-0.1,0-0.3,0-0.4,0.1L19.7,25v-3c0-0.3-0.3-0.5-0.6-0.5c-0.1,0-0.3,0-0.4,0.1L13.6,25v-3
			c0-0.3-0.3-0.5-0.6-0.5c-0.1,0-0.3,0-0.4,0.1L7.4,25v-3c0-0.3-0.3-0.5-0.6-0.5c-0.1,0-0.2,0-0.3,0.1l-6.2,3
			C0.1,24.7,0,24.9,0,25.1v12c0,0.3,0.3,0.5,0.6,0.5h35.8c0.3,0,0.6-0.2,0.6-0.5V25.6C37,25.3,36.7,25.1,36.4,25.1z M29.6,11.6h2.5
			l1.1,13.5h-4.8L29.6,11.6z M21,36.6v-6h3.7v6H21z M35.8,36.6h-9.9v-6.5c0-0.3-0.3-0.5-0.6-0.5h-4.9c-0.3,0-0.6,0.2-0.6,0.5v6.5
			H1.2V25.4L6.2,23v3.1c0,0.3,0.3,0.5,0.6,0.5c0.1,0,0.3,0,0.4-0.1l5.2-3.3v3c0,0.3,0.3,0.5,0.6,0.5c0.1,0,0.3,0,0.4-0.1l5.2-3.3v3
			c0,0.3,0.3,0.5,0.6,0.5c0.1,0,0.3,0,0.4-0.1l5.2-3.3v2.5c0,0.3,0.3,0.5,0.6,0.5h10.5L35.8,36.6L35.8,36.6z"/>
		<path class="st1" d="M22.7,7.1c0.2,0.1,0.4,0.3,0.6,0.5c0.3,0.4,0.8,0.7,1.4,0.8c0.6-0.1,1.1-0.4,1.5-0.8c0.2-0.2,0.3-0.3,0.5-0.4
			c0.1,0,0.5,0.3,0.6,0.5c0.3,0.4,0.8,0.7,1.3,0.7c0.6-0.1,1.2-0.4,1.5-0.8c0.2-0.1,0.4-0.4,0.4-0.4c0.3,0,0.4,0.1,0.6,0.4
			C31.5,8,32,8.3,32.6,8.3c0.3,0,0.6-0.3,0.6-0.6c0-0.3-0.3-0.6-0.6-0.6c-0.1,0-0.1,0-0.3-0.3c-0.3-0.6-1-0.9-1.6-0.9
			c-0.5,0.1-1,0.3-1.3,0.7c-0.2,0.2-0.5,0.5-0.7,0.5c-0.2-0.1-0.4-0.3-0.5-0.4c-0.4-0.5-0.9-0.7-1.5-0.8c-0.5,0.1-1,0.3-1.4,0.8
			c-0.2,0.2-0.4,0.3-0.6,0.5c-0.2-0.1-0.4-0.3-0.6-0.4c-0.4-0.4-0.9-0.7-1.4-0.8c-0.3,0-0.6,0.3-0.6,0.6C22.1,6.8,22.4,7.1,22.7,7.1
			z"/>
		<path class="st1" d="M6.8,28.9H4.3c-0.3,0-0.6,0.3-0.6,0.6v3.7c0,0.3,0.3,0.6,0.6,0.6h2.5c0.3,0,0.6-0.3,0.6-0.6v-3.7
			C7.4,29.2,7.1,28.9,6.8,28.9z M6.2,32.6H4.9v-2.5h1.2V32.6z"/>
		<path class="st1" d="M11.7,28.9H9.3c-0.3,0-0.6,0.3-0.6,0.6v3.7c0,0.3,0.3,0.6,0.6,0.6h2.5c0.3,0,0.6-0.3,0.6-0.6v-3.7
			C12.3,29.2,12.1,28.9,11.7,28.9z M11.1,32.6H9.9v-2.5h1.2V32.6z"/>
		<path class="st1" d="M16.7,28.9h-2.5c-0.3,0-0.6,0.3-0.6,0.6v3.7c0,0.3,0.3,0.6,0.6,0.6h2.5c0.3,0,0.6-0.3,0.6-0.6v-3.7
			C17.3,29.2,17,28.9,16.7,28.9z M16,32.6h-1.2v-2.5H16V32.6z"/>
	</g>
</g>
</svg>
