<?xml version="1.0" encoding="utf-8"?>
<!-- Generator: Adobe Illustrator 24.2.0, SVG Export Plug-In . SVG Version: 6.00 Build 0)  -->
<svg version="1.1" id="Layer_1" xmlns="http://www.w3.org/2000/svg" xmlns:xlink="http://www.w3.org/1999/xlink" x="0px" y="0px"
	 viewBox="0 0 37 42" style="enable-background:new 0 0 37 42;" xml:space="preserve">
<style type="text/css">
	.st0{fill:#6F6F6F;stroke:#6F6F6F;stroke-width:0.25;stroke-miterlimit:10;}
	.st1{fill:#FC6A55;}
	.st2{fill:#EDEDED;}
	.st3{fill:none;stroke:#FC6A55;stroke-miterlimit:10;}
	.st4{fill:#222F3F;}
	.st5{fill:#383838;}
	.st6{fill:#FFFFFF;}
	.st7{fill:#B0B0B0;}
	.st8{fill:#656D7A;}
	.st9{fill:#C4C4C4;}
	.st10{filter:url(#Adobe_OpacityMaskFilter);}
	.st11{fill-rule:evenodd;clip-rule:evenodd;fill:#FFFFFF;}
	.st12{mask:url(#mask-2_8_);fill-rule:evenodd;clip-rule:evenodd;fill:#B0B0B0;}
	.st13{filter:url(#Adobe_OpacityMaskFilter_1_);}
	.st14{mask:url(#mask-2_7_);fill-rule:evenodd;clip-rule:evenodd;fill:#B0B0B0;}
	.st15{filter:url(#Adobe_OpacityMaskFilter_2_);}
	.st16{mask:url(#mask-2_6_);fill-rule:evenodd;clip-rule:evenodd;fill:#B0B0B0;}
	.st17{filter:url(#Adobe_OpacityMaskFilter_3_);}
	.st18{mask:url(#mask-2_5_);fill-rule:evenodd;clip-rule:evenodd;fill:#B0B0B0;}
	.st19{filter:url(#Adobe_OpacityMaskFilter_4_);}
	.st20{mask:url(#mask-2_2_);fill:none;stroke:#B0B0B0;stroke-width:1.5;stroke-miterlimit:10;}
	.st21{filter:url(#Adobe_OpacityMaskFilter_5_);}
	.st22{mask:url(#mask-2_10_);fill-rule:evenodd;clip-rule:evenodd;fill:#FC6A55;}
	.st23{filter:url(#Adobe_OpacityMaskFilter_6_);}
	.st24{mask:url(#mask-2_9_);fill-rule:evenodd;clip-rule:evenodd;fill:#FC6A55;}
	.st25{filter:url(#Adobe_OpacityMaskFilter_7_);}
	.st26{mask:url(#mask-2_4_);fill-rule:evenodd;clip-rule:evenodd;fill:#FC6A55;}
	.st27{filter:url(#Adobe_OpacityMaskFilter_8_);}
	.st28{mask:url(#mask-2_3_);fill-rule:evenodd;clip-rule:evenodd;fill:#FC6A55;}
	.st29{filter:url(#Adobe_OpacityMaskFilter_9_);}
	.st30{mask:url(#mask-2_1_);fill:none;stroke:#FC6A55;stroke-width:1.5;stroke-miterlimit:10;}
	.st31{fill:#B4A3EE;}
	.st32{fill:#222121;}
	.st33{fill:none;stroke:#FC6A55;stroke-width:0.75;stroke-miterlimit:10;}
	.st34{fill:#FC6A55;stroke:#FC6A55;stroke-width:0.25;stroke-miterlimit:10;}
	.st35{fill:#FC6A55;stroke:#FC6A55;stroke-width:0.5;stroke-miterlimit:10;}
	.st36{opacity:0.5;fill:#FC6A55;}
	.st37{fill:#F5F4F9;}
	.st38{opacity:0.153;fill:url(#Path_144_);enable-background:new    ;}
	.st39{opacity:0.1;fill:#590BB2;enable-background:new    ;}
	.st40{fill:#8E8CA8;}
	.st41{fill:#FFD5B8;}
	.st42{fill:#FC8473;}
	.st43{fill:#1C3475;}
	.st44{fill:#DDD9E4;}
	.st45{fill:#828FB3;}
	.st46{opacity:7.584635e-02;fill:url(#Path_145_);enable-background:new    ;}
	.st47{fill:#FFBE92;}
	.st48{fill:#FB8E7F;}
	.st49{fill:#FDB1A6;}
	.st50{fill:#FC806F;}
	.st51{fill:#FFE783;}
	.st52{fill:#104478;}
	.st53{fill:none;stroke:#FFFFFF;stroke-miterlimit:10;}
	.st54{fill:none;stroke:#000000;stroke-width:0.15;stroke-miterlimit:10;}
	.st55{opacity:0.3;fill:#FC6A55;}
	.st56{opacity:0.4;fill:#FC6A55;}
	.st57{opacity:0.1;fill:url(#Path_147_);enable-background:new    ;}
	.st58{opacity:0.1;fill:url(#Path_150_);enable-background:new    ;}
	.st59{fill-rule:evenodd;clip-rule:evenodd;fill:#FC6A55;}
	.st60{fill-rule:evenodd;clip-rule:evenodd;}
	.st61{fill:#FF6757;}
	.st62{fill:#6C973D;}
	.st63{fill:none;stroke:#FFFFFF;stroke-width:0.5;stroke-miterlimit:10;}
	.st64{fill:#606060;}
	.st65{fill:#F16A56;}
	.st66{fill:#515252;}
	.st67{fill:#656565;}
	.st68{fill:#F26A56;}
	.st69{fill:none;stroke:#F16A56;stroke-miterlimit:10;}
	.st70{fill:none;stroke:#929292;stroke-miterlimit:10;}
	.st71{fill:#929292;}
	.st72{fill:none;stroke:#000000;stroke-width:0.5;stroke-miterlimit:10;}
	.st73{fill:#A8A7A7;}
	.st74{fill:#F79F91;}
	.st75{fill:#9BDBD5;}
	.st76{stroke:#000000;stroke-width:0.25;stroke-miterlimit:10;}
	.st77{fill:#6F6F6F;}
	.st78{fill:none;stroke:#6F6F6F;stroke-width:0.75;stroke-miterlimit:10;}
</style>
<g>
	<path class="st1" d="M29.7,37.5h-2.1l-6.3-24.1c1.1-0.8,1.9-2.2,1.9-3.7c0-2.6-2.1-4.6-4.6-4.6s-4.6,2.1-4.6,4.6
		c0,1.5,0.7,2.9,1.9,3.7L9.4,37.5H7.3c-0.4,0-0.7,0.3-0.7,0.7v2.6c0,0.4,0.3,0.7,0.7,0.7h22.5c0.4,0,0.7-0.3,0.7-0.7v-2.6
		C30.4,37.8,30.1,37.5,29.7,37.5z M14.1,24.8l0.4-1.4l4-3l4,3l0.4,1.4l-4.4,2.8L14.1,24.8z M17.3,28.3l-4.9,3.1l1.4-5.3L17.3,28.3z
		 M15,21.3l0.8-3l1.6,1.2L15,21.3z M19.6,19.5l1.6-1.2l0.8,3L19.6,19.5z M23.2,26.1l1.4,5.3l-4.9-3.1L23.2,26.1z M15.2,9.8
		c0-1.8,1.5-3.3,3.3-3.3s3.3,1.5,3.3,3.3s-1.5,3.3-3.3,3.3S15.2,11.6,15.2,9.8z M18.5,14.4c0.6,0,1.1-0.1,1.6-0.3l0.7,2.8l-2.3,1.7
		l-2.3-1.7l0.7-2.8C17.4,14.3,17.9,14.4,18.5,14.4z M11.9,33.3l6.6-4.2l6.6,4.2l1.1,4.3H10.8L11.9,33.3z M29.1,40.2H7.9v-1.3h21.2
		V40.2z"/>
	<path class="st1" d="M18.5,11.7c1.1,0,2-0.9,2-2s-0.9-2-2-2s-2,0.9-2,2S17.4,11.7,18.5,11.7z M18.5,9.1c0.4,0,0.7,0.3,0.7,0.7
		s-0.3,0.7-0.7,0.7s-0.7-0.3-0.7-0.7S18.1,9.1,18.5,9.1z"/>
	<path class="st1" d="M25.1,7.8h1.3c0-1.1-0.9-2-2-2v1.3C24.8,7.1,25.1,7.4,25.1,7.8z"/>
	<path class="st1" d="M27.8,7.8h1.3c0-2.6-2.1-4.6-4.6-4.6v1.3C26.3,4.5,27.8,6,27.8,7.8z"/>
	<path class="st1" d="M24.5,0.5v1.3c3.3,0,6,2.7,6,6h1.3C31.7,3.8,28.5,0.5,24.5,0.5z"/>
	<path class="st1" d="M11.9,7.8c0-0.4,0.3-0.7,0.7-0.7V5.8c-1.1,0-2,0.9-2,2H11.9z"/>
	<path class="st1" d="M12.5,3.1c-2.6,0-4.6,2.1-4.6,4.6h1.3c0-1.8,1.5-3.3,3.3-3.3V3.1z"/>
	<path class="st1" d="M12.5,1.8V0.5c-4,0-7.3,3.3-7.3,7.3h1.3C6.6,4.5,9.3,1.8,12.5,1.8z"/>
</g>
</svg>
