<?xml version="1.0" encoding="utf-8"?>
<!-- Generator: Adobe Illustrator 24.2.0, SVG Export Plug-In . SVG Version: 6.00 Build 0)  -->
<svg version="1.1" id="Layer_1" xmlns="http://www.w3.org/2000/svg" xmlns:xlink="http://www.w3.org/1999/xlink" x="0px" y="0px"
	 viewBox="0 0 37 42" style="enable-background:new 0 0 37 42;" xml:space="preserve">
<style type="text/css">
	.st0{fill:#6F6F6F;stroke:#6F6F6F;stroke-width:0.25;stroke-miterlimit:10;}
	.st1{fill:#FC6A55;}
	.st2{fill:#EDEDED;}
	.st3{fill:none;stroke:#FC6A55;stroke-miterlimit:10;}
	.st4{fill:#222F3F;}
	.st5{fill:#383838;}
	.st6{fill:#FFFFFF;}
	.st7{fill:#B0B0B0;}
	.st8{fill:#656D7A;}
	.st9{fill:#C4C4C4;}
	.st10{filter:url(#Adobe_OpacityMaskFilter);}
	.st11{fill-rule:evenodd;clip-rule:evenodd;fill:#FFFFFF;}
	.st12{mask:url(#mask-2_8_);fill-rule:evenodd;clip-rule:evenodd;fill:#B0B0B0;}
	.st13{filter:url(#Adobe_OpacityMaskFilter_1_);}
	.st14{mask:url(#mask-2_7_);fill-rule:evenodd;clip-rule:evenodd;fill:#B0B0B0;}
	.st15{filter:url(#Adobe_OpacityMaskFilter_2_);}
	.st16{mask:url(#mask-2_6_);fill-rule:evenodd;clip-rule:evenodd;fill:#B0B0B0;}
	.st17{filter:url(#Adobe_OpacityMaskFilter_3_);}
	.st18{mask:url(#mask-2_5_);fill-rule:evenodd;clip-rule:evenodd;fill:#B0B0B0;}
	.st19{filter:url(#Adobe_OpacityMaskFilter_4_);}
	.st20{mask:url(#mask-2_2_);fill:none;stroke:#B0B0B0;stroke-width:1.5;stroke-miterlimit:10;}
	.st21{filter:url(#Adobe_OpacityMaskFilter_5_);}
	.st22{mask:url(#mask-2_10_);fill-rule:evenodd;clip-rule:evenodd;fill:#FC6A55;}
	.st23{filter:url(#Adobe_OpacityMaskFilter_6_);}
	.st24{mask:url(#mask-2_9_);fill-rule:evenodd;clip-rule:evenodd;fill:#FC6A55;}
	.st25{filter:url(#Adobe_OpacityMaskFilter_7_);}
	.st26{mask:url(#mask-2_4_);fill-rule:evenodd;clip-rule:evenodd;fill:#FC6A55;}
	.st27{filter:url(#Adobe_OpacityMaskFilter_8_);}
	.st28{mask:url(#mask-2_3_);fill-rule:evenodd;clip-rule:evenodd;fill:#FC6A55;}
	.st29{filter:url(#Adobe_OpacityMaskFilter_9_);}
	.st30{mask:url(#mask-2_1_);fill:none;stroke:#FC6A55;stroke-width:1.5;stroke-miterlimit:10;}
	.st31{fill:#B4A3EE;}
	.st32{fill:#222121;}
	.st33{fill:none;stroke:#FC6A55;stroke-width:0.75;stroke-miterlimit:10;}
	.st34{fill:#FC6A55;stroke:#FC6A55;stroke-width:0.25;stroke-miterlimit:10;}
	.st35{fill:#FC6A55;stroke:#FC6A55;stroke-width:0.5;stroke-miterlimit:10;}
	.st36{opacity:0.5;fill:#FC6A55;}
	.st37{fill:#F5F4F9;}
	.st38{opacity:0.153;fill:url(#Path_144_);enable-background:new    ;}
	.st39{opacity:0.1;fill:#590BB2;enable-background:new    ;}
	.st40{fill:#8E8CA8;}
	.st41{fill:#FFD5B8;}
	.st42{fill:#FC8473;}
	.st43{fill:#1C3475;}
	.st44{fill:#DDD9E4;}
	.st45{fill:#828FB3;}
	.st46{opacity:7.584635e-02;fill:url(#Path_145_);enable-background:new    ;}
	.st47{fill:#FFBE92;}
	.st48{fill:#FB8E7F;}
	.st49{fill:#FDB1A6;}
	.st50{fill:#FC806F;}
	.st51{fill:#FFE783;}
	.st52{fill:#104478;}
	.st53{fill:none;stroke:#FFFFFF;stroke-miterlimit:10;}
	.st54{fill:none;stroke:#000000;stroke-width:0.15;stroke-miterlimit:10;}
	.st55{opacity:0.3;fill:#FC6A55;}
	.st56{opacity:0.4;fill:#FC6A55;}
	.st57{opacity:0.1;fill:url(#Path_147_);enable-background:new    ;}
	.st58{opacity:0.1;fill:url(#Path_150_);enable-background:new    ;}
	.st59{fill-rule:evenodd;clip-rule:evenodd;fill:#FC6A55;}
	.st60{fill-rule:evenodd;clip-rule:evenodd;}
	.st61{fill:#FF6757;}
	.st62{fill:#6C973D;}
	.st63{fill:none;stroke:#FFFFFF;stroke-width:0.5;stroke-miterlimit:10;}
	.st64{fill:#606060;}
	.st65{fill:#F16A56;}
	.st66{fill:#515252;}
	.st67{fill:#656565;}
	.st68{fill:#F26A56;}
	.st69{fill:none;stroke:#F16A56;stroke-miterlimit:10;}
	.st70{fill:none;stroke:#929292;stroke-miterlimit:10;}
	.st71{fill:#929292;}
	.st72{fill:none;stroke:#000000;stroke-width:0.5;stroke-miterlimit:10;}
	.st73{fill:#A8A7A7;}
	.st74{fill:#F79F91;}
	.st75{fill:#9BDBD5;}
	.st76{stroke:#000000;stroke-width:0.25;stroke-miterlimit:10;}
	.st77{fill:#6F6F6F;}
	.st78{fill:none;stroke:#6F6F6F;stroke-width:0.75;stroke-miterlimit:10;}
</style>
<g>
	<g>
		<path class="st1" d="M37,39.7l-1.8-10.8c-0.2-1.2-1-2.1-2.2-2.4L28,25c-0.1-1.2-0.6-2.4-1.4-3.3c-0.7-0.7-1.5-1.3-2.4-1.5
			c0.2-0.2,0.3-0.3,0.4-0.5c1.2-1.5,1.8-3.2,2-4.3h0.4c1,0,1.8-0.8,1.8-1.8v-0.9c0-0.7-0.4-1.3-0.9-1.6V8.8c0-0.3-0.3-0.6-0.6-0.6
			c-0.3,0-0.6,0.3-0.6,0.6v2.5c-0.2,0-0.5,0.1-0.8,0.2c0,0-0.1,0-0.1,0c-0.1,0-0.1,0.1-0.2,0.1V6.7c0-1.4-1.1-2.5-2.5-2.5h-1.7
			c-0.6,0-1.1,0.2-1.6,0.6L19.6,5c-0.3,0.2-0.7,0.4-1.1,0.4S17.7,5.2,17.4,5l-0.2-0.1c-0.5-0.4-1-0.6-1.6-0.6H14
			c-1.4,0-2.5,1.1-2.5,2.5v4.9c-0.1,0-0.1-0.1-0.2-0.1c0,0-0.1,0-0.1,0c-0.3-0.1-0.6-0.2-0.8-0.2V5c0-2,1.6-3.6,3.6-3.6h9
			c2,0,3.6,1.6,3.6,3.6v1c0,0.3,0.3,0.6,0.6,0.6c0.3,0,0.6-0.3,0.6-0.6V5c0-2.7-2.2-4.8-4.8-4.8h-9c-2.7,0-4.8,2.2-4.8,4.8V11
			c-0.6,0.3-0.9,0.9-0.9,1.6v0.9c0,1,0.8,1.8,1.8,1.8h0.4c0.2,1.1,0.8,2.8,2,4.3c0.1,0.2,0.3,0.3,0.4,0.5C10.7,20.8,9.2,22.7,9,25
			l-5,1.5c-1.1,0.3-2,1.3-2.2,2.4l-0.7,4.4C1.1,33.6,1.3,34,1.6,34c0.3,0.1,0.6-0.2,0.7-0.5l0.7-4.4c0.1-0.7,0.6-1.3,1.3-1.5L9,26.3
			v1.2c-1.1,0.2-2,0.9-2.3,1.9c-0.1,0.3-0.2,0.5-0.2,0.8L6,35.9c0,0.4,0.1,0.9,0.4,1.2c0.3,0.3,0.7,0.5,1.1,0.5h0.8
			C8.7,37.6,9,37.3,9,37s-0.3-0.6-0.6-0.6H7.6c-0.1,0-0.2,0-0.2-0.1c-0.1-0.1-0.1-0.2-0.1-0.3l0.4-5.7c0-0.2,0.1-0.3,0.1-0.5
			c0.3-0.7,1-1.2,1.7-1.2l0.1,0c0,0,0,0,0,0c0.8,0,1.4,0.4,1.7,1.1c0.1,0.2,0.1,0.4,0.1,0.6l0.4,5.7c0,0.1,0,0.2-0.1,0.3
			c-0.1,0.1-0.2,0.1-0.2,0.1h-0.8c-0.3,0-0.6,0.3-0.6,0.6c0,0.3,0.3,0.6,0.6,0.6h0.8c0.4,0,0.8-0.2,1.1-0.5c0.3-0.3,0.4-0.7,0.4-1.2
			l-0.4-5.7c0-0.3-0.1-0.7-0.2-1c-0.4-0.9-1.3-1.6-2.3-1.8v-1.6l2.1-0.6c0.2,0.4,0.6,1.3,1.3,3.1c0.8,1.9,1.7,4.3,2.6,6.7
			c0,0,0,0,0,0.1c0.6,1.6,1.2,3.1,1.7,4.4c0.1,0.2,0.3,0.4,0.6,0.4c0.3,0,0.5-0.2,0.6-0.4c0.5-1.3,1.1-2.9,1.7-4.4c0,0,0,0,0-0.1
			c0.9-2.4,1.8-4.8,2.6-6.7c0.8-1.9,1.1-2.7,1.3-3.2l2.1,0.6v3.6c-1.5,0.3-2.6,1.6-2.6,3.1c0,1.7,1.4,3.2,3.2,3.2
			c1.7,0,3.2-1.4,3.2-3.2c0-1.5-1.1-2.8-2.5-3.1v-3.2l4.6,1.4c0.7,0.2,1.2,0.8,1.3,1.5l1.8,10.8c0,0.2,0,0.4-0.1,0.5
			c-0.1,0.1-0.3,0.2-0.5,0.2H1.8c-0.2,0-0.3-0.1-0.5-0.2c-0.1-0.1-0.2-0.3-0.1-0.5l0.6-3.6c0.1-0.3-0.2-0.6-0.5-0.7
			c-0.3-0.1-0.6,0.2-0.7,0.5L0,39.7c-0.1,0.5,0.1,1.1,0.4,1.5c0.3,0.4,0.9,0.6,1.4,0.6h33.3c0.5,0,1-0.2,1.4-0.6
			C36.9,40.8,37.1,40.3,37,39.7z M26.6,12.5c0.3-0.1,0.6-0.1,0.6-0.1c0.1,0,0.2,0,0.3-0.1c0,0.1,0,0.1,0,0.2v0.9
			c0,0.3-0.3,0.6-0.6,0.6h-0.3L26.6,12.5L26.6,12.5z M10.4,14.1L10.4,14.1h-0.3c-0.3,0-0.6-0.3-0.6-0.6v-0.9c0-0.1,0-0.1,0-0.2
			c0.1,0,0.2,0.1,0.3,0.1c0,0,0.3,0,0.6,0.1L10.4,14.1L10.4,14.1z M11.6,14.8v-1.6c0.2,0.1,0.4,0,0.6,0c0.3-0.1,0.5-0.4,0.5-0.8V6.7
			c0-0.7,0.6-1.2,1.2-1.2h1.7c0.3,0,0.6,0.1,0.8,0.3l0.2,0.1c0.5,0.4,1.2,0.7,1.9,0.7s1.3-0.2,1.9-0.7l0.2-0.1
			c0.2-0.2,0.5-0.3,0.8-0.3H23c0.7,0,1.2,0.6,1.2,1.2v5.6c0,0.3,0.2,0.7,0.5,0.8c0.1,0,0.2,0.1,0.3,0.1c0.1,0,0.2,0,0.2,0v1.6
			c0,0.9-0.6,2.6-1.8,4.1c-0.4,0.5-0.9,1-1.5,1.5c0,0,0,0-0.1,0c-0.9,0.7-2.1,1.2-3.6,1.2s-2.7-0.5-3.6-1.2c0,0,0,0-0.1,0
			c-0.6-0.5-1.1-1-1.5-1.5C12.2,17.4,11.6,15.7,11.6,14.8z M22.5,24.7l-4,3l-4-3c0.4-0.5,0.6-1.2,0.6-1.7v-1
			c0.9,0.5,2.1,0.8,3.4,0.8c1.3,0,2.4-0.3,3.4-0.8v1C21.9,23.5,22.1,24.2,22.5,24.7z M13.5,24c-0.3-0.1-0.7-0.1-1-0.1c0,0,0,0,0,0
			l-2.1,0.6c0.4-1.8,1.8-3.2,3.6-3.4v1.8C13.9,23.3,13.7,23.7,13.5,24z M15.1,28.9C15.1,28.9,15.1,28.9,15.1,28.9
			c0-0.1-0.1-0.2-0.1-0.2c0,0,0,0,0,0c0-0.1-0.1-0.1-0.1-0.2c0,0,0,0,0,0c-0.1-0.2-0.2-0.4-0.3-0.7c0,0,0,0,0,0c0-0.1,0-0.1-0.1-0.2
			c0,0,0,0,0-0.1c0-0.1,0-0.1-0.1-0.2c0,0,0,0,0,0c0-0.1-0.1-0.2-0.1-0.3c0,0,0-0.1,0-0.1c0,0,0-0.1,0-0.1c0,0,0-0.1,0-0.1
			c0,0,0,0,0,0c0,0,0,0,0,0c-0.1-0.2-0.1-0.3-0.2-0.5c0,0,0,0,0,0c0-0.1-0.1-0.2-0.1-0.2c0,0,0-0.1,0-0.1l3.4,2.6l-1.4,0.6
			c0,0,0,0,0,0l-0.6,0.3C15.2,29.1,15.2,29,15.1,28.9z M16.6,32.6c-0.1-0.3-0.2-0.6-0.4-0.9c-0.2-0.5-0.4-1-0.5-1.4l0.2-0.1l0.9,1.1
			L16.6,32.6z M18.5,37.6c0,0,0-0.1-0.1-0.1c-0.3-0.7-0.6-1.7-1-2.7l0.6-3.1h1l0.6,3.1C19.2,35.9,18.8,36.9,18.5,37.6z M19.2,30.5
			h-1.4l-0.7-0.8l1.4-0.6l1.4,0.6L19.2,30.5z M20.8,31.7c-0.1,0.3-0.2,0.6-0.4,0.9l-0.2-1.4l0.9-1.1l0.2,0.1
			C21.1,30.7,21,31.2,20.8,31.7z M23.1,25.8c0,0.1-0.1,0.1-0.1,0.2c0,0,0,0,0,0c0,0.1-0.1,0.2-0.1,0.2c0,0,0,0,0,0
			c0,0.1-0.1,0.1-0.1,0.2c0,0,0,0,0,0c0,0,0,0,0,0.1c0,0,0,0.1,0,0.1c0,0,0,0.1-0.1,0.1c0,0,0,0,0,0c0,0.1-0.1,0.2-0.1,0.3
			c0,0,0,0,0,0.1c0,0.1,0,0.1-0.1,0.2c0,0,0,0,0,0.1c0,0.1,0,0.1-0.1,0.2c0,0,0,0,0,0.1c-0.1,0.2-0.2,0.4-0.3,0.6c0,0,0,0,0,0
			c0,0.1-0.1,0.1-0.1,0.2c0,0,0,0,0,0c0,0.1-0.1,0.2-0.1,0.2c0,0,0,0,0,0c0,0.1-0.1,0.2-0.1,0.3l-0.6-0.3c0,0,0,0,0,0l-1.4-0.6
			l3.4-2.6C23.1,25.7,23.1,25.8,23.1,25.8z M24.6,24C24.6,24,24.6,24,24.6,24C24.6,24,24.6,24,24.6,24c-0.4-0.1-0.7-0.1-1.1,0
			c-0.2-0.3-0.4-0.7-0.4-1v-1.8c1.8,0.3,3.3,1.7,3.6,3.4L24.6,24z M29.3,32.6c0,1.1-0.9,1.9-1.9,1.9s-1.9-0.9-1.9-1.9
			c0-1.1,0.9-1.9,1.9-1.9S29.3,31.5,29.3,32.6z"/>
	</g>
</g>
</svg>
