<?xml version="1.0" encoding="utf-8"?>
<!-- Generator: Adobe Illustrator 24.2.0, SVG Export Plug-In . SVG Version: 6.00 Build 0)  -->
<svg version="1.1" id="Layer_1" xmlns="http://www.w3.org/2000/svg" xmlns:xlink="http://www.w3.org/1999/xlink" x="0px" y="0px"
	 viewBox="0 0 37 42" style="enable-background:new 0 0 37 42;" xml:space="preserve">
<style type="text/css">
	.st0{fill:#6F6F6F;stroke:#6F6F6F;stroke-width:0.25;stroke-miterlimit:10;}
	.st1{fill:#FC6A55;}
	.st2{fill:#EDEDED;}
	.st3{fill:none;stroke:#FC6A55;stroke-miterlimit:10;}
	.st4{fill:#222F3F;}
	.st5{fill:#383838;}
	.st6{fill:#FFFFFF;}
	.st7{fill:#B0B0B0;}
	.st8{fill:#656D7A;}
	.st9{fill:#C4C4C4;}
	.st10{filter:url(#Adobe_OpacityMaskFilter);}
	.st11{fill-rule:evenodd;clip-rule:evenodd;fill:#FFFFFF;}
	.st12{mask:url(#mask-2_8_);fill-rule:evenodd;clip-rule:evenodd;fill:#B0B0B0;}
	.st13{filter:url(#Adobe_OpacityMaskFilter_1_);}
	.st14{mask:url(#mask-2_7_);fill-rule:evenodd;clip-rule:evenodd;fill:#B0B0B0;}
	.st15{filter:url(#Adobe_OpacityMaskFilter_2_);}
	.st16{mask:url(#mask-2_6_);fill-rule:evenodd;clip-rule:evenodd;fill:#B0B0B0;}
	.st17{filter:url(#Adobe_OpacityMaskFilter_3_);}
	.st18{mask:url(#mask-2_5_);fill-rule:evenodd;clip-rule:evenodd;fill:#B0B0B0;}
	.st19{filter:url(#Adobe_OpacityMaskFilter_4_);}
	.st20{mask:url(#mask-2_2_);fill:none;stroke:#B0B0B0;stroke-width:1.5;stroke-miterlimit:10;}
	.st21{filter:url(#Adobe_OpacityMaskFilter_5_);}
	.st22{mask:url(#mask-2_10_);fill-rule:evenodd;clip-rule:evenodd;fill:#FC6A55;}
	.st23{filter:url(#Adobe_OpacityMaskFilter_6_);}
	.st24{mask:url(#mask-2_9_);fill-rule:evenodd;clip-rule:evenodd;fill:#FC6A55;}
	.st25{filter:url(#Adobe_OpacityMaskFilter_7_);}
	.st26{mask:url(#mask-2_4_);fill-rule:evenodd;clip-rule:evenodd;fill:#FC6A55;}
	.st27{filter:url(#Adobe_OpacityMaskFilter_8_);}
	.st28{mask:url(#mask-2_3_);fill-rule:evenodd;clip-rule:evenodd;fill:#FC6A55;}
	.st29{filter:url(#Adobe_OpacityMaskFilter_9_);}
	.st30{mask:url(#mask-2_1_);fill:none;stroke:#FC6A55;stroke-width:1.5;stroke-miterlimit:10;}
	.st31{fill:#B4A3EE;}
	.st32{fill:#222121;}
	.st33{fill:none;stroke:#FC6A55;stroke-width:0.75;stroke-miterlimit:10;}
	.st34{fill:#FC6A55;stroke:#FC6A55;stroke-width:0.25;stroke-miterlimit:10;}
	.st35{fill:#FC6A55;stroke:#FC6A55;stroke-width:0.5;stroke-miterlimit:10;}
	.st36{opacity:0.5;fill:#FC6A55;}
	.st37{fill:#F5F4F9;}
	.st38{opacity:0.153;fill:url(#Path_144_);enable-background:new    ;}
	.st39{opacity:0.1;fill:#590BB2;enable-background:new    ;}
	.st40{fill:#8E8CA8;}
	.st41{fill:#FFD5B8;}
	.st42{fill:#FC8473;}
	.st43{fill:#1C3475;}
	.st44{fill:#DDD9E4;}
	.st45{fill:#828FB3;}
	.st46{opacity:7.584635e-02;fill:url(#Path_145_);enable-background:new    ;}
	.st47{fill:#FFBE92;}
	.st48{fill:#FB8E7F;}
	.st49{fill:#FDB1A6;}
	.st50{fill:#FC806F;}
	.st51{fill:#FFE783;}
	.st52{fill:#104478;}
	.st53{fill:none;stroke:#FFFFFF;stroke-miterlimit:10;}
	.st54{fill:none;stroke:#000000;stroke-width:0.15;stroke-miterlimit:10;}
	.st55{opacity:0.3;fill:#FC6A55;}
	.st56{opacity:0.4;fill:#FC6A55;}
	.st57{opacity:0.1;fill:url(#Path_147_);enable-background:new    ;}
	.st58{opacity:0.1;fill:url(#Path_150_);enable-background:new    ;}
	.st59{fill-rule:evenodd;clip-rule:evenodd;fill:#FC6A55;}
	.st60{fill-rule:evenodd;clip-rule:evenodd;}
	.st61{fill:#FF6757;}
	.st62{fill:#6C973D;}
	.st63{fill:none;stroke:#FFFFFF;stroke-width:0.5;stroke-miterlimit:10;}
	.st64{fill:#606060;}
	.st65{fill:#F16A56;}
	.st66{fill:#515252;}
	.st67{fill:#656565;}
	.st68{fill:#F26A56;}
	.st69{fill:none;stroke:#F16A56;stroke-miterlimit:10;}
	.st70{fill:none;stroke:#929292;stroke-miterlimit:10;}
	.st71{fill:#929292;}
	.st72{fill:none;stroke:#000000;stroke-width:0.5;stroke-miterlimit:10;}
	.st73{fill:#A8A7A7;}
	.st74{fill:#F79F91;}
	.st75{fill:#9BDBD5;}
	.st76{stroke:#000000;stroke-width:0.25;stroke-miterlimit:10;}
	.st77{fill:#6F6F6F;}
	.st78{fill:none;stroke:#6F6F6F;stroke-width:0.75;stroke-miterlimit:10;}
</style>
<g id="Page-1">
	<g id="_x30_33---Insurance">
		<path id="Shape" class="st1" d="M28,6.6l-9.3-4c-0.2-0.1-0.3-0.1-0.5,0L9,6.6C8.8,6.7,8.6,6.9,8.6,7.2v9.7c0,2.2,1,4.2,2.8,5.5
			l6.4,4.6c0.4,0.3,0.9,0.3,1.3,0l6.4-4.6c1.8-1.3,2.8-3.3,2.8-5.5V7.2C28.4,6.9,28.2,6.7,28,6.6z M27.1,16.8c0,1.8-0.9,3.5-2.3,4.5
			l-6.3,4.6l-6.3-4.6c-1.4-1-2.3-2.7-2.3-4.5V7.6l8.6-3.8l8.6,3.8V16.8z"/>
		<path id="Shape_7_" class="st1" d="M18.2,5.2l-6.8,3c-0.2,0.1-0.4,0.3-0.4,0.6v8.1c0,1.4,0.7,2.7,1.8,3.5l5.3,3.8
			c0.2,0.2,0.5,0.2,0.7,0l5.3-3.8c1.1-0.8,1.8-2.1,1.8-3.5V8.8c0-0.2-0.1-0.5-0.4-0.6l-6.8-3C18.6,5.2,18.4,5.2,18.2,5.2z M24.7,9.2
			v7.7c0,1-0.5,1.9-1.3,2.5l-4.9,3.5l-4.9-3.5c-0.8-0.6-1.3-1.5-1.3-2.5V9.2l6.2-2.7L24.7,9.2z"/>
		<path id="Shape_1_" class="st1" d="M5.1,23l-1.3-3.1c-0.3-0.6-0.9-1.1-1.6-1.2s-1.4,0.2-1.8,0.8s-0.5,1.3-0.2,2l2.4,5.3
			c0.3,0.7,0.8,1.4,1.3,1.9l3.8,3.8c-0.2,0.2-0.3,0.5-0.3,0.8v4.9c0,0.7,0.6,1.2,1.2,1.2h6.8c0.7,0,1.2-0.6,1.2-1.2v-4.9
			c0-0.7-0.6-1.2-1.2-1.2V31c0-1.5-0.5-2.9-1.4-4c-0.5-0.7-1.2-1.2-2.1-1.5c-1.3-0.5-2.5-1.3-3.5-2.3C7.5,22.4,6.1,22.3,5.1,23z
			 M15.4,38.3H8.6v-4.9h6.8V38.3z M13.1,27.7c0.7,0.9,1.1,2.1,1.1,3.3v1.1H9.1l-4.3-4.3c-0.5-0.5-0.8-1-1.1-1.6l-2.4-5.3
			c-0.1-0.2-0.1-0.5,0.1-0.7s0.4-0.3,0.6-0.3c0.3,0,0.6,0.2,0.7,0.4L4,23.6c0.4,0.9,0.9,1.6,1.6,2.3l2.8,2.8
			c0.2,0.2,0.4,0.2,0.6,0.2c0.2-0.1,0.4-0.2,0.4-0.4c0.1-0.2,0-0.4-0.2-0.6L6.4,25c-0.3-0.3-0.5-0.6-0.8-0.9c0.6-0.5,1.4-0.4,2,0
			c1.2,1.1,2.5,1.9,3.9,2.5C12.2,26.8,12.7,27.2,13.1,27.7z"/>
		<path id="Shape_3_" class="st1" d="M13.6,35.2h-0.6c-0.3,0-0.6,0.3-0.6,0.6c0,0.3,0.3,0.6,0.6,0.6h0.6c0.3,0,0.6-0.3,0.6-0.6
			C14.2,35.5,13.9,35.2,13.6,35.2z"/>
		<path id="Shape_4_" class="st1" d="M34.4,26.8l2.4-5.3c0.3-0.6,0.2-1.4-0.2-2c-0.4-0.6-1.1-0.9-1.8-0.8c-0.7,0.1-1.3,0.5-1.6,1.2
			L31.9,23c-1-0.7-2.4-0.6-3.4,0.2c-1,1-2.2,1.7-3.5,2.3c-0.8,0.3-1.5,0.8-2.1,1.5c-0.9,1.2-1.4,2.6-1.4,4v1.1
			c-0.7,0-1.2,0.6-1.2,1.2v4.9c0,0.7,0.6,1.2,1.2,1.2h6.8c0.7,0,1.2-0.6,1.2-1.2v-4.9c0-0.3-0.1-0.6-0.3-0.8l3.8-3.8
			C33.6,28.1,34.1,27.5,34.4,26.8z M28.4,38.3h-6.8v-4.9h6.8V38.3z M27.9,32.1h-5.1V31c0-1.2,0.4-2.3,1.1-3.3
			c0.4-0.5,0.9-0.9,1.5-1.1c1.4-0.6,2.8-1.4,3.9-2.5c0.6-0.5,1.4-0.5,2,0c-0.2,0.3-0.5,0.6-0.8,0.9l-2.8,2.8c-0.2,0.2-0.2,0.6,0,0.9
			s0.6,0.2,0.9,0l2.8-2.8c0.7-0.7,1.2-1.4,1.6-2.3l1.4-3.2c0.1-0.3,0.4-0.4,0.7-0.4c0.2,0,0.5,0.1,0.6,0.3c0.1,0.2,0.2,0.5,0.1,0.7
			l-2.4,5.3c-0.3,0.6-0.6,1.1-1.1,1.6L27.9,32.1z"/>
		<path id="Shape_5_" class="st1" d="M24,35.2h-0.6c-0.3,0-0.6,0.3-0.6,0.6c0,0.3,0.3,0.6,0.6,0.6H24c0.3,0,0.6-0.3,0.6-0.6
			C24.7,35.5,24.4,35.2,24,35.2z"/>
		<path id="Shape_6_" class="st1" d="M15.2,15.6c-0.3-0.2-0.7-0.1-0.9,0.1c-0.2,0.3-0.1,0.7,0.1,0.9l2.5,1.9
			c0.1,0.1,0.2,0.1,0.4,0.1c0,0,0.1,0,0.1,0c0.2,0,0.3-0.1,0.4-0.3l4.9-7.4c0.1-0.2,0.1-0.4,0-0.6c-0.1-0.2-0.3-0.3-0.5-0.3
			s-0.4,0.1-0.6,0.3L17.1,17L15.2,15.6z"/>
	</g>
</g>
</svg>
