<?xml version="1.0" encoding="utf-8"?>
<!-- Generator: Adobe Illustrator 24.2.0, SVG Export Plug-In . SVG Version: 6.00 Build 0)  -->
<svg version="1.1" id="Layer_1" xmlns="http://www.w3.org/2000/svg" xmlns:xlink="http://www.w3.org/1999/xlink" x="0px" y="0px"
	 viewBox="0 0 37 42" style="enable-background:new 0 0 37 42;" xml:space="preserve">
<style type="text/css">
	.st0{fill:#6F6F6F;stroke:#6F6F6F;stroke-width:0.25;stroke-miterlimit:10;}
	.st1{fill:#FC6A55;}
	.st2{fill:#EDEDED;}
	.st3{fill:none;stroke:#FC6A55;stroke-miterlimit:10;}
	.st4{fill:#222F3F;}
	.st5{fill:#383838;}
	.st6{fill:#FFFFFF;}
	.st7{fill:#B0B0B0;}
	.st8{fill:#656D7A;}
	.st9{fill:#C4C4C4;}
	.st10{filter:url(#Adobe_OpacityMaskFilter);}
	.st11{fill-rule:evenodd;clip-rule:evenodd;fill:#FFFFFF;}
	.st12{mask:url(#mask-2_8_);fill-rule:evenodd;clip-rule:evenodd;fill:#B0B0B0;}
	.st13{filter:url(#Adobe_OpacityMaskFilter_1_);}
	.st14{mask:url(#mask-2_7_);fill-rule:evenodd;clip-rule:evenodd;fill:#B0B0B0;}
	.st15{filter:url(#Adobe_OpacityMaskFilter_2_);}
	.st16{mask:url(#mask-2_6_);fill-rule:evenodd;clip-rule:evenodd;fill:#B0B0B0;}
	.st17{filter:url(#Adobe_OpacityMaskFilter_3_);}
	.st18{mask:url(#mask-2_5_);fill-rule:evenodd;clip-rule:evenodd;fill:#B0B0B0;}
	.st19{filter:url(#Adobe_OpacityMaskFilter_4_);}
	.st20{mask:url(#mask-2_2_);fill:none;stroke:#B0B0B0;stroke-width:1.5;stroke-miterlimit:10;}
	.st21{filter:url(#Adobe_OpacityMaskFilter_5_);}
	.st22{mask:url(#mask-2_10_);fill-rule:evenodd;clip-rule:evenodd;fill:#FC6A55;}
	.st23{filter:url(#Adobe_OpacityMaskFilter_6_);}
	.st24{mask:url(#mask-2_9_);fill-rule:evenodd;clip-rule:evenodd;fill:#FC6A55;}
	.st25{filter:url(#Adobe_OpacityMaskFilter_7_);}
	.st26{mask:url(#mask-2_4_);fill-rule:evenodd;clip-rule:evenodd;fill:#FC6A55;}
	.st27{filter:url(#Adobe_OpacityMaskFilter_8_);}
	.st28{mask:url(#mask-2_3_);fill-rule:evenodd;clip-rule:evenodd;fill:#FC6A55;}
	.st29{filter:url(#Adobe_OpacityMaskFilter_9_);}
	.st30{mask:url(#mask-2_1_);fill:none;stroke:#FC6A55;stroke-width:1.5;stroke-miterlimit:10;}
	.st31{fill:#B4A3EE;}
	.st32{fill:#222121;}
	.st33{fill:none;stroke:#FC6A55;stroke-width:0.75;stroke-miterlimit:10;}
	.st34{fill:#FC6A55;stroke:#FC6A55;stroke-width:0.25;stroke-miterlimit:10;}
	.st35{fill:#FC6A55;stroke:#FC6A55;stroke-width:0.5;stroke-miterlimit:10;}
	.st36{opacity:0.5;fill:#FC6A55;}
	.st37{fill:#F5F4F9;}
	.st38{opacity:0.153;fill:url(#Path_144_);enable-background:new    ;}
	.st39{opacity:0.1;fill:#590BB2;enable-background:new    ;}
	.st40{fill:#8E8CA8;}
	.st41{fill:#FFD5B8;}
	.st42{fill:#FC8473;}
	.st43{fill:#1C3475;}
	.st44{fill:#DDD9E4;}
	.st45{fill:#828FB3;}
	.st46{opacity:7.584635e-02;fill:url(#Path_145_);enable-background:new    ;}
	.st47{fill:#FFBE92;}
	.st48{fill:#FB8E7F;}
	.st49{fill:#FDB1A6;}
	.st50{fill:#FC806F;}
	.st51{fill:#FFE783;}
	.st52{fill:#104478;}
	.st53{fill:none;stroke:#FFFFFF;stroke-miterlimit:10;}
	.st54{fill:none;stroke:#000000;stroke-width:0.15;stroke-miterlimit:10;}
	.st55{opacity:0.3;fill:#FC6A55;}
	.st56{opacity:0.4;fill:#FC6A55;}
	.st57{opacity:0.1;fill:url(#Path_147_);enable-background:new    ;}
	.st58{opacity:0.1;fill:url(#Path_150_);enable-background:new    ;}
	.st59{fill-rule:evenodd;clip-rule:evenodd;fill:#FC6A55;}
	.st60{fill-rule:evenodd;clip-rule:evenodd;}
	.st61{fill:#FF6757;}
	.st62{fill:#6C973D;}
	.st63{fill:none;stroke:#FFFFFF;stroke-width:0.5;stroke-miterlimit:10;}
	.st64{fill:#606060;}
	.st65{fill:#F16A56;}
	.st66{fill:#515252;}
	.st67{fill:#656565;}
	.st68{fill:#F26A56;}
	.st69{fill:none;stroke:#F16A56;stroke-miterlimit:10;}
	.st70{fill:none;stroke:#929292;stroke-miterlimit:10;}
	.st71{fill:#929292;}
	.st72{fill:none;stroke:#000000;stroke-width:0.5;stroke-miterlimit:10;}
	.st73{fill:#A8A7A7;}
	.st74{fill:#F79F91;}
	.st75{fill:#9BDBD5;}
	.st76{stroke:#000000;stroke-width:0.25;stroke-miterlimit:10;}
	.st77{fill:#6F6F6F;}
	.st78{fill:none;stroke:#6F6F6F;stroke-width:0.75;stroke-miterlimit:10;}
</style>
<g>
	<g>
		<g>
			<rect x="26.4" y="15.4" class="st1" width="1" height="1.2"/>
		</g>
	</g>
	<g>
		<g>
			<rect x="28.7" y="15.4" class="st1" width="1" height="1.2"/>
		</g>
	</g>
	<g>
		<g>
			<g>
				<polygon class="st1" points="28.7,20 28.7,24.4 29.1,24.4 29.1,20.4 29.5,20.4 29.5,20 				"/>
			</g>
		</g>
		<g>
			<g>
				<polygon class="st1" points="30.1,20 30.1,24.4 30.5,24.4 30.5,20.4 31,20.4 31,20 				"/>
			</g>
		</g>
		<g>
			<g>
				<polygon class="st1" points="31.6,20 31.6,24.4 32,24.4 32,20.4 32.4,20.4 32.4,20 				"/>
			</g>
		</g>
		<g>
			<g>
				<polygon class="st1" points="33,20 33,24.4 33.4,24.4 33.4,20.4 33.9,20.4 33.9,20 				"/>
			</g>
		</g>
		<g>
			<g>
				<rect x="28.9" y="25.2" class="st1" width="0.6" height="0.4"/>
			</g>
		</g>
		<g>
			<g>
				<g>
					
						<rect x="28.1" y="13.3" transform="matrix(2.048460e-03 -1 1 2.048460e-03 8.8762 47.6494)" class="st1" width="0.3" height="12.2"/>
				</g>
			</g>
			<g>
				<g>
					<polygon class="st1" points="23.3,20.3 23.3,24.2 23.7,24.2 23.7,20.7 24.1,20.7 24.1,20.3 					"/>
				</g>
			</g>
			<g>
				<g>
					<polygon class="st1" points="24.6,20.3 24.6,24.2 25,24.2 25,20.7 25.4,20.7 25.4,20.3 					"/>
				</g>
			</g>
			<g>
				<g>
					<polygon class="st1" points="26,20.3 26,24.2 26.4,24.2 26.4,20.7 26.7,20.7 26.7,20.3 					"/>
				</g>
			</g>
			<g>
				<g>
					<polygon class="st1" points="27.3,20.3 27.3,24.2 27.7,24.2 27.7,20.7 28,20.7 28,20.3 					"/>
				</g>
			</g>
			<g>
				<g>
					<path class="st1" d="M34.4,24.6v-4.8H22.2v4.8h-0.4v1.2h1.3c0,0.4,0.4,0.8,0.9,0.8c0.3,0,0.6-0.1,0.8-0.3
						c0.2,0.2,0.4,0.3,0.8,0.3c0.5,0,0.9-0.3,0.9-0.8h3.5c0,0.4,0.4,0.8,0.9,0.8c0.3,0,0.6-0.1,0.8-0.3c0.2,0.2,0.4,0.3,0.8,0.3
						c0.5,0,0.9-0.3,0.9-0.8h1.3v-1.2H34.4z M22.6,20H34v4.5H22.6V20z M24.1,26.3c-0.3,0-0.6-0.2-0.6-0.5c0-0.3,0.2-0.5,0.6-0.5
						c0.3,0,0.6,0.2,0.6,0.5C24.6,26,24.4,26.3,24.1,26.3z M25.6,26.3c-0.3,0-0.6-0.2-0.6-0.5c0-0.3,0.2-0.5,0.6-0.5
						c0.3,0,0.6,0.2,0.6,0.5C26.1,26,25.9,26.3,25.6,26.3z M31,26.3c-0.3,0-0.6-0.2-0.6-0.5c0-0.3,0.2-0.5,0.6-0.5
						c0.3,0,0.6,0.2,0.6,0.5C31.6,26,31.3,26.3,31,26.3z M32.5,26.3c-0.3,0-0.6-0.2-0.6-0.5c0-0.3,0.2-0.5,0.6-0.5s0.6,0.2,0.6,0.5
						C33.1,26,32.8,26.3,32.5,26.3z M34.4,25h-0.3v0.3h0.3v0.1h-1c-0.1-0.3-0.5-0.5-0.9-0.5c-0.3,0-0.6,0.1-0.8,0.3
						C31.6,25.1,31.3,25,31,25c-0.4,0-0.7,0.2-0.9,0.5h-3.7C26.3,25.2,26,25,25.6,25c-0.3,0-0.6,0.1-0.8,0.3
						c-0.2-0.2-0.4-0.3-0.8-0.3c-0.4,0-0.7,0.2-0.9,0.5h-1v-0.1h0.7V25h-0.7v-0.1h12.2V25z"/>
				</g>
			</g>
			<g>
				<g>
					<rect x="23.9" y="25.6" class="st1" width="0.3" height="0.3"/>
				</g>
			</g>
			<g>
				<g>
					<rect x="25.4" y="25.6" class="st1" width="0.4" height="0.3"/>
				</g>
			</g>
			<g>
				<g>
					<rect x="28" y="25" class="st1" width="0.6" height="0.3"/>
				</g>
			</g>
			<g>
				<g>
					<rect x="27.3" y="25" class="st1" width="0.6" height="0.3"/>
				</g>
			</g>
		</g>
	</g>
	<g>
		<path class="st1" d="M31.4,12.3l3.6-1.8l-3.6-1.8v0.7h-5.2V10h5.7V9.6l1.8,0.9l-1.8,0.9v-0.4H24v0.5h7.4V12.3z"/>
		<path class="st1" d="M25.1,9.4h0.5V10h-0.5V9.4z"/>
		<path class="st1" d="M24,9.4h0.5V10H24V9.4z"/>
	</g>
	<g>
		<path class="st1" d="M27.6,29.7L24,31.5l3.6,1.8v-0.7h5.2V32h-5.7v0.4l-1.8-0.9l1.8-0.9v0.4H35v-0.5h-7.4V29.7z"/>
		<path class="st1" d="M33.9,32.6h-0.5V32h0.5V32.6z"/>
		<path class="st1" d="M35,32.6h-0.5V32H35V32.6z"/>
	</g>
	<path class="st1" d="M35.2,13.2H31h-6H21c-2.3-2.7-5.6-4.2-9.1-4.2C5.4,9.1,0,14.4,0,21s5.4,11.9,11.9,11.9c3.5,0,6.8-1.5,9.1-4.2
		h14.2c1,0,1.8-0.8,1.8-1.8V15C37,14,36.2,13.2,35.2,13.2z M30.5,14.4v3.1h-5v-3.1H30.5z M19.8,13.6c-0.3,0.2-0.4,0.5-0.6,0.8H16
		c-0.4-1.6-0.9-3-1.6-3.9C16.4,11,18.3,12.1,19.8,13.6z M19.1,26.4h-2.9c0.3-1.5,0.5-3.1,0.5-4.8h2.4V26.4z M11.9,31.7
		c-1,0-2.1-1.6-2.8-4.2h5.6C14,30.2,12.9,31.7,11.9,31.7z M8.9,26.4c-0.3-1.4-0.5-3-0.5-4.8h7.1c0,1.8-0.2,3.4-0.5,4.8H8.9z
		 M1.2,21.6h5.9c0,1.6,0.2,3.3,0.5,4.8h-5C1.8,24.9,1.3,23.3,1.2,21.6z M11.9,10.2c1,0,2.1,1.6,2.8,4.2H9.1
		C9.9,11.8,10.9,10.2,11.9,10.2z M15,15.6c0.3,1.4,0.5,3,0.5,4.8H8.4c0-1.8,0.2-3.4,0.5-4.8H15z M7.2,20.4H1.2
		c0.1-1.7,0.6-3.4,1.4-4.8h5C7.4,17.1,7.2,18.8,7.2,20.4z M19.1,20.4h-2.4c0-1.6-0.2-3.3-0.5-4.8h2.9V20.4z M9.6,10.5
		c-0.7,1-1.2,2.3-1.6,3.9H3.5C5,12.5,7.1,11.1,9.6,10.5z M3.5,27.6h4.5c0.4,1.6,0.9,2.9,1.6,3.9C7.1,30.9,5,29.5,3.5,27.6z
		 M14.3,31.5c0.7-1,1.2-2.3,1.6-3.9h3.3c0.1,0.3,0.3,0.6,0.6,0.8C18.3,29.9,16.4,31,14.3,31.5z M35.8,27c0,0.3-0.3,0.6-0.6,0.6H20.9
		c-0.3,0-0.6-0.3-0.6-0.6V15c0-0.3,0.3-0.6,0.6-0.6h4.2V18h6v-3.6h4.2c0.3,0,0.6,0.3,0.6,0.6V27z"/>
</g>
</svg>
