<?xml version="1.0" encoding="utf-8"?>
<!-- Generator: Adobe Illustrator 24.0.2, SVG Export Plug-In . SVG Version: 6.00 Build 0)  -->
<svg version="1.1" id="Layer_1" xmlns="http://www.w3.org/2000/svg" xmlns:xlink="http://www.w3.org/1999/xlink" x="0px" y="0px"
	 viewBox="0 0 18 24" style="enable-background:new 0 0 18 24;" xml:space="preserve">
<style type="text/css">
	.st0{fill:#FC6A55;}
	.st1{fill:#EDEDED;}
	.st2{fill:none;stroke:#FC6A55;stroke-miterlimit:10;}
	.st3{stroke:#FFFFFF;stroke-width:0.25;stroke-miterlimit:10;}
	.st4{fill:#656D7A;}
	.st5{fill:#FFFFFF;}
	.st6{filter:url(#Adobe_OpacityMaskFilter);}
	.st7{fill-rule:evenodd;clip-rule:evenodd;fill:#FFFFFF;}
	.st8{mask:url(#mask-2_8_);fill-rule:evenodd;clip-rule:evenodd;}
	.st9{filter:url(#Adobe_OpacityMaskFilter_1_);}
	.st10{mask:url(#mask-2_7_);fill-rule:evenodd;clip-rule:evenodd;}
	.st11{filter:url(#Adobe_OpacityMaskFilter_2_);}
	.st12{mask:url(#mask-2_6_);fill-rule:evenodd;clip-rule:evenodd;}
	.st13{filter:url(#Adobe_OpacityMaskFilter_3_);}
	.st14{mask:url(#mask-2_5_);fill-rule:evenodd;clip-rule:evenodd;}
	.st15{filter:url(#Adobe_OpacityMaskFilter_4_);}
	.st16{mask:url(#mask-2_2_);fill:none;stroke:#000000;stroke-width:2;}
	.st17{fill:#434343;}
	.st18{fill:#434343;stroke:#F9F9F9;stroke-width:0.25;stroke-miterlimit:10;}
	.st19{fill:none;stroke:#FC6A55;stroke-width:0.5;stroke-miterlimit:10;}
	.st20{fill:none;stroke:#FC6A55;stroke-width:0.75;stroke-miterlimit:10;}
	.st21{fill:#FC6A55;stroke:#FC6A55;stroke-width:0.5;stroke-miterlimit:10;}
	.st22{opacity:0.153;fill:url(#Path_146_);enable-background:new    ;}
	.st23{opacity:0.1;fill:#590BB2;enable-background:new    ;}
	.st24{fill:#8E8CA8;}
	.st25{fill:#F5F4F9;}
	.st26{fill:#FFD5B8;}
	.st27{fill:#FC8473;}
	.st28{fill:#1C3475;}
	.st29{fill:#DDD9E4;}
	.st30{fill:#828FB3;}
	.st31{opacity:7.584635e-02;fill:url(#Path_147_);enable-background:new    ;}
	.st32{fill:#FFBE92;}
	.st33{fill:#FB8E7F;}
	.st34{fill:#FDB1A6;}
	.st35{fill:#FC806F;}
	.st36{fill:#FFE783;}
	.st37{fill:#104478;}
	.st38{fill:none;stroke:#FFFFFF;stroke-miterlimit:10;}
	.st39{fill:none;stroke:#000000;stroke-width:0.15;stroke-miterlimit:10;}
	.st40{opacity:0.1;fill:url(#Path_148_);enable-background:new    ;}
	.st41{opacity:0.1;fill:url(#Path_149_);enable-background:new    ;}
	.st42{fill-rule:evenodd;clip-rule:evenodd;fill:#FC6A55;}
	.st43{fill-rule:evenodd;clip-rule:evenodd;}
</style>
<g>
	<g>
		<g>
			<path class="st0" d="M17.2,3.8H0.8C0.4,3.8,0,4.2,0,4.7v11.3c0,0.5,0.4,0.8,0.8,0.8h5.9v1.7H5.6c-0.3,0-0.5,0.2-0.5,0.5v0.6
				c0,0.3,0.2,0.5,0.5,0.5h6.8c0.3,0,0.5-0.2,0.5-0.5V19c0-0.3-0.2-0.5-0.5-0.5h-1.1v-1.7h5.9c0.5,0,0.8-0.4,0.8-0.8V4.7
				C18,4.2,17.6,3.8,17.2,3.8z M12.4,19C12.4,19,12.4,19,12.4,19l0,0.6c0,0,0,0,0,0H5.6c0,0,0,0,0,0V19c0,0,0,0,0,0h3.7
				c0.1,0,0.3-0.1,0.3-0.3s-0.1-0.3-0.3-0.3h-2v-1.7h3.4v1.7h-0.3c-0.1,0-0.3,0.1-0.3,0.3s0.1,0.3,0.3,0.3H12.4z M17.5,15.9
				L17.5,15.9c0,0.2-0.1,0.3-0.3,0.3H0.8c-0.2,0-0.3-0.1-0.3-0.3V4.7c0-0.2,0.1-0.3,0.3-0.3h16.3c0.2,0,0.3,0.1,0.3,0.3L17.5,15.9
				L17.5,15.9z"/>
		</g>
	</g>
	<g>
		<g>
			<path class="st0" d="M16.6,5H1.4C1.2,5,1.1,5.1,1.1,5.2v10.1c0,0.1,0.1,0.3,0.3,0.3h15.2c0.1,0,0.3-0.1,0.3-0.3V5.2
				C16.9,5.1,16.8,5,16.6,5z M6.2,6.6h3.1v0.6H6.2L6.2,6.6L6.2,6.6z M5.6,15.1h-4V6.6h4V15.1z M5.6,6.1h-4V5.5h4V6.1z M16.3,15.1
				H6.2V7.8h10.2V15.1z M9.8,7.2V6.6h2.9v0.6H9.8z M16.3,6.1h-0.9c-0.1,0-0.3,0.1-0.3,0.3s0.1,0.3,0.3,0.3h0.9v0.6h-3.1V6.6h1.1
				c0.1,0,0.3-0.1,0.3-0.3s-0.1-0.3-0.3-0.3H6.2V5.5h10.2V6.1z"/>
		</g>
	</g>
	<g>
		<g>
			<path class="st0" d="M2.8,7.2H2.5c-0.1,0-0.3,0.1-0.3,0.3s0.1,0.3,0.3,0.3h0.3c0.1,0,0.3-0.1,0.3-0.3S2.9,7.2,2.8,7.2z"/>
		</g>
	</g>
	<g>
		<g>
			<path class="st0" d="M4.8,7.2H3.9c-0.1,0-0.3,0.1-0.3,0.3s0.1,0.3,0.3,0.3h0.8C4.9,7.8,5,7.6,5,7.5S4.9,7.2,4.8,7.2z"/>
		</g>
	</g>
	<g>
		<g>
			<path class="st0" d="M2.8,8.4H2.5c-0.1,0-0.3,0.1-0.3,0.3s0.1,0.3,0.3,0.3h0.3c0.1,0,0.3-0.1,0.3-0.3S2.9,8.4,2.8,8.4z"/>
		</g>
	</g>
	<g>
		<g>
			<path class="st0" d="M4.8,8.4H3.9c-0.1,0-0.3,0.1-0.3,0.3s0.1,0.3,0.3,0.3h0.8C4.9,8.9,5,8.8,5,8.6S4.9,8.4,4.8,8.4z"/>
		</g>
	</g>
	<g>
		<g>
			<path class="st0" d="M2.8,9.5H2.5c-0.1,0-0.3,0.1-0.3,0.3c0,0.1,0.1,0.3,0.3,0.3h0.3c0.1,0,0.3-0.1,0.3-0.3
				C3.1,9.6,2.9,9.5,2.8,9.5z"/>
		</g>
	</g>
	<g>
		<g>
			<path class="st0" d="M4.8,9.5H3.9c-0.1,0-0.3,0.1-0.3,0.3c0,0.1,0.1,0.3,0.3,0.3h0.8C4.9,10,5,9.9,5,9.7C5,9.6,4.9,9.5,4.8,9.5z"
				/>
		</g>
	</g>
	<g>
		<g>
			<path class="st0" d="M2.8,10.6H2.5c-0.1,0-0.3,0.1-0.3,0.3s0.1,0.3,0.3,0.3h0.3c0.1,0,0.3-0.1,0.3-0.3S2.9,10.6,2.8,10.6z"/>
		</g>
	</g>
	<g>
		<g>
			<path class="st0" d="M4.8,10.6H3.9c-0.1,0-0.3,0.1-0.3,0.3s0.1,0.3,0.3,0.3h0.8C4.9,11.1,5,11,5,10.9S4.9,10.6,4.8,10.6z"/>
		</g>
	</g>
	<g>
		<g>
			<path class="st0" d="M2.8,11.7H2.5c-0.1,0-0.3,0.1-0.3,0.3c0,0.1,0.1,0.3,0.3,0.3h0.3c0.1,0,0.3-0.1,0.3-0.3S2.9,11.7,2.8,11.7z"
				/>
		</g>
	</g>
	<g>
		<g>
			<path class="st0" d="M4.8,11.7H3.9c-0.1,0-0.3,0.1-0.3,0.3c0,0.1,0.1,0.3,0.3,0.3h0.8C4.9,12.3,5,12.1,5,12S4.9,11.7,4.8,11.7z"
				/>
		</g>
	</g>
	<g>
		<path class="st0" d="M12.5,11.1c0.1,0,0.1,0,0.2-0.1l0.4-0.4h1.2c0.2,0,0.3-0.1,0.3-0.3V8.8c0-0.2-0.1-0.3-0.3-0.3h-2.3V8.3
			c0-0.1-0.1-0.2-0.2-0.2H8.6c-0.1,0-0.1,0-0.2,0.1L7.7,8.8c0,0-0.1,0.1-0.1,0.2v5.7c0,0.1,0.1,0.2,0.2,0.2h3.8
			c0.1,0,0.2-0.1,0.2-0.2v-0.9h1.1l0.4,0.4c0.1,0.1,0.1,0.1,0.2,0.1c0.1,0,0.3-0.1,0.3-0.3v-0.2h0.4c0.2,0,0.3-0.1,0.3-0.3v-1.6
			c0-0.2-0.1-0.3-0.3-0.3h-2.3v-0.9h0.3v0.2C12.2,11,12.3,11.1,12.5,11.1z M8.4,8.4v0.4H8L8.4,8.4z M7.9,14.7V9h0.8V8.3h3v0.2
			c-0.1,0-0.2,0.2-0.2,0.3v1.6c0,0.1,0.1,0.3,0.2,0.3v0.9c-0.1,0-0.2,0.2-0.2,0.3v1.6c0,0.1,0.1,0.3,0.2,0.3v0.9H7.9z M14.3,11.9
			v1.6c0,0.1,0,0.1-0.1,0.1h-0.7V14c0,0-0.1,0.1-0.1,0L13,13.6h-1.3c-0.1,0-0.1,0-0.1-0.1v-1.6c0-0.1,0-0.1,0.1-0.1h2.4
			C14.3,11.8,14.3,11.9,14.3,11.9L14.3,11.9z M11.8,10.5c-0.1,0-0.1,0-0.1-0.1V8.8c0-0.1,0-0.1,0.1-0.1h2.4c0.1,0,0.1,0,0.1,0.1v1.6
			c0,0.1,0,0.1-0.1,0.1h-1.3l-0.4,0.4c0,0-0.1,0-0.1,0v-0.4H11.8z"/>
		<path class="st0" d="M13.9,9.1L13.8,9l-1.1,1l-0.3-0.3l-0.2,0.2l0.4,0.4L13.9,9.1z"/>
		<path class="st0" d="M10.5,11.8H8.1v0.9h2.4V11.8z M10.3,12.5h-2V12h2V12.5z"/>
		<path class="st0" d="M8.1,12.9h2.4v0.2H8.1V12.9z"/>
		<path class="st0" d="M8.1,13.4H11v0.2H8.1V13.4z"/>
		<path class="st0" d="M8.1,13.8H11V14H8.1V13.8z"/>
		<path class="st0" d="M8.1,14.3h0.7v0.2H8.1V14.3z"/>
		<path class="st0" d="M9,14.3h0.7v0.2H9V14.3z"/>
		<path class="st0" d="M9.9,14.3h0.7v0.2H9.9V14.3z"/>
		<path class="st0" d="M9.8,8.7c-0.8,0-1.4,0.6-1.4,1.4c0,0.8,0.6,1.4,1.4,1.4c0.8,0,1.4-0.6,1.4-1.4C11.2,9.3,10.6,8.7,9.8,8.7z
			 M9.8,11.4c-0.3,0-0.7-0.1-0.9-0.4c0.1-0.1,0.2-0.3,0.3-0.3l0.6,0.5l0.6-0.5c0.1,0.1,0.2,0.2,0.3,0.3
			C10.4,11.2,10.1,11.4,9.8,11.4L9.8,11.4z M9.3,9.8c0-0.2,0.2-0.4,0.4-0.4s0.4,0.2,0.4,0.4c0,0.2-0.2,0.4-0.4,0.4S9.3,10.1,9.3,9.8
			z M9.4,10.5c0.1,0,0.2-0.1,0.3-0.1c0.1,0,0.2,0,0.3,0.1l-0.3,0.3L9.4,10.5z M10.8,10.8c-0.1-0.2-0.4-0.4-0.6-0.5
			c0.2-0.1,0.2-0.3,0.2-0.5c0-0.4-0.3-0.7-0.7-0.7c-0.4,0-0.7,0.3-0.7,0.7c0,0.2,0.1,0.4,0.2,0.5c-0.2,0.1-0.5,0.3-0.6,0.5
			c-0.1-0.2-0.2-0.4-0.2-0.7c0-0.7,0.5-1.2,1.2-1.2c0.7,0,1.2,0.5,1.2,1.2C11,10.4,10.9,10.6,10.8,10.8L10.8,10.8z"/>
		<path class="st0" d="M12.5,13.3l0.5-0.5l0.5,0.5l0.2-0.2l-0.5-0.5l0.5-0.5l-0.2-0.2L13,12.5l-0.5-0.5l-0.2,0.2l0.5,0.5l-0.5,0.5
			L12.5,13.3z"/>
	</g>
</g>
</svg>
