<?xml version="1.0" encoding="utf-8"?>
<!-- Generator: Adobe Illustrator 24.0.2, SVG Export Plug-In . SVG Version: 6.00 Build 0)  -->
<svg version="1.1" id="Layer_1" xmlns="http://www.w3.org/2000/svg" xmlns:xlink="http://www.w3.org/1999/xlink" x="0px" y="0px"
	 viewBox="0 0 18 24" style="enable-background:new 0 0 18 24;" xml:space="preserve">
<style type="text/css">
	.st0{fill:#FC6A55;}
	.st1{fill:#EDEDED;}
	.st2{fill:none;stroke:#FC6A55;stroke-miterlimit:10;}
	.st3{stroke:#FFFFFF;stroke-width:0.25;stroke-miterlimit:10;}
	.st4{fill:#656D7A;}
	.st5{fill:#FFFFFF;}
	.st6{filter:url(#Adobe_OpacityMaskFilter);}
	.st7{fill-rule:evenodd;clip-rule:evenodd;fill:#FFFFFF;}
	.st8{mask:url(#mask-2_8_);fill-rule:evenodd;clip-rule:evenodd;}
	.st9{filter:url(#Adobe_OpacityMaskFilter_1_);}
	.st10{mask:url(#mask-2_7_);fill-rule:evenodd;clip-rule:evenodd;}
	.st11{filter:url(#Adobe_OpacityMaskFilter_2_);}
	.st12{mask:url(#mask-2_6_);fill-rule:evenodd;clip-rule:evenodd;}
	.st13{filter:url(#Adobe_OpacityMaskFilter_3_);}
	.st14{mask:url(#mask-2_5_);fill-rule:evenodd;clip-rule:evenodd;}
	.st15{filter:url(#Adobe_OpacityMaskFilter_4_);}
	.st16{mask:url(#mask-2_2_);fill:none;stroke:#000000;stroke-width:2;}
	.st17{fill:#434343;}
	.st18{fill:#434343;stroke:#F9F9F9;stroke-width:0.25;stroke-miterlimit:10;}
	.st19{fill:none;stroke:#FC6A55;stroke-width:0.5;stroke-miterlimit:10;}
	.st20{fill:none;stroke:#FC6A55;stroke-width:0.75;stroke-miterlimit:10;}
	.st21{fill:#FC6A55;stroke:#FC6A55;stroke-width:0.5;stroke-miterlimit:10;}
	.st22{opacity:0.153;fill:url(#Path_146_);enable-background:new    ;}
	.st23{opacity:0.1;fill:#590BB2;enable-background:new    ;}
	.st24{fill:#8E8CA8;}
	.st25{fill:#F5F4F9;}
	.st26{fill:#FFD5B8;}
	.st27{fill:#FC8473;}
	.st28{fill:#1C3475;}
	.st29{fill:#DDD9E4;}
	.st30{fill:#828FB3;}
	.st31{opacity:7.584635e-02;fill:url(#Path_147_);enable-background:new    ;}
	.st32{fill:#FFBE92;}
	.st33{fill:#FB8E7F;}
	.st34{fill:#FDB1A6;}
	.st35{fill:#FC806F;}
	.st36{fill:#FFE783;}
	.st37{fill:#104478;}
	.st38{fill:none;stroke:#FFFFFF;stroke-miterlimit:10;}
	.st39{fill:none;stroke:#000000;stroke-width:0.15;stroke-miterlimit:10;}
	.st40{opacity:0.1;fill:url(#Path_148_);enable-background:new    ;}
	.st41{opacity:0.1;fill:url(#Path_149_);enable-background:new    ;}
	.st42{fill-rule:evenodd;clip-rule:evenodd;fill:#FC6A55;}
	.st43{fill-rule:evenodd;clip-rule:evenodd;}
</style>
<g>
	<g>
		<g>
			<g>
				<path class="st0" d="M17.1,3h-3.5c-0.5,0-0.9,0.4-0.9,0.9v3C11.7,6,10.4,5.6,9,5.6c-0.2,0-0.4,0-0.6,0V4.5C8.4,3.7,7.8,3,7,3
					H1.5C0.7,3,0,3.7,0,4.5v3.5c0,0.8,0.7,1.5,1.5,1.5H2V10H1.5v0.6h1.3c-0.1,0.5-0.2,1-0.2,1.5c0,2.7,1.7,5,4.1,6
					c0.2,0.3,0.5,0.6,0.8,0.9c0.2,0.1,0.2,0.3,0.2,0.5v0.5C7.8,20.5,8.4,21,9,21c0.6,0,1.2-0.5,1.2-1.2v-0.5c0-0.2,0.1-0.4,0.3-0.5
					c0.3-0.2,0.6-0.5,0.8-0.9c2.5-0.9,4.1-3.3,4.1-6c0-0.3,0-0.6-0.1-0.9h1.8c0.5,0,0.9-0.4,0.9-0.9V3.9C18,3.4,17.6,3,17.1,3z
					 M13.6,3.6h3.5c0.2,0,0.3,0.1,0.3,0.3v0.3h-4.1V3.9C13.4,3.7,13.5,3.6,13.6,3.6z M17.4,4.7v4.6h-4.1V4.7H17.4z M12.8,8.8H11
					c-0.2-1-0.5-1.9-0.9-2.5c1,0.2,1.9,0.6,2.7,1.3V8.8z M14.8,12.3c0,0.8-0.3,1.6-0.6,2.3h-3.1c0.1-0.7,0.2-1.5,0.2-2.3H14.8z
					 M10.5,14.5C10,14.2,9.4,14,8.7,14c-0.5,0.1-0.9,0.2-1.2,0.5c-0.1-0.7-0.2-1.5-0.2-2.3h3.5C10.7,13.1,10.7,13.8,10.5,14.5z
					 M3.2,12.3h3.5c0,0.8,0.1,1.6,0.2,2.3H3.8C3.5,13.9,3.2,13.1,3.2,12.3z M6.9,9.4c0,0.2-0.1,0.4-0.1,0.6H6.4V9.4H6.9z M7.3,11.7
					c0-0.8,0.1-1.6,0.2-2.3h3.1c0.1,0.7,0.2,1.5,0.2,2.3H7.3z M8.1,8.8c0.2-0.2,0.3-0.5,0.3-0.9V6.6C8.6,6.4,8.8,6.2,9,6.2
					c0.5,0,1.1,1,1.4,2.6H8.1z M1.5,3.6H7c0.5,0,0.9,0.4,0.9,0.9v3.2H0.6V4.5C0.6,4,1,3.6,1.5,3.6z M0.6,8.2h7.2
					C7.7,8.6,7.3,8.8,7,8.8H1.5C1.1,8.8,0.8,8.6,0.6,8.2z M2.6,9.4h3.2V10H2.6V9.4z M6.7,10.5c0,0.4,0,0.8-0.1,1.2H3.2
					c0-0.4,0.1-0.8,0.2-1.2H6.7z M4.2,15.2h2.7c-0.2,0.3-0.4,0.7-0.4,1.1c0,0.3,0,0.6,0,0.9C5.5,16.8,4.7,16,4.2,15.2z M9,20.4
					c-0.3,0-0.6-0.3-0.6-0.6h1.2C9.6,20.2,9.3,20.4,9,20.4z M10.1,18.4c-0.3,0.2-0.5,0.5-0.5,0.9H9.3v-2H8.7v2H8.4
					c0-0.4-0.2-0.7-0.5-0.9c-0.7-0.4-1-1.2-0.9-2c0.1-0.9,0.9-1.6,1.8-1.7c0.1,0,0.2,0,0.2,0c0.5,0,1,0.2,1.4,0.5
					c0.4,0.4,0.7,0.9,0.7,1.5C11,17.3,10.7,18,10.1,18.4L10.1,18.4z M11.5,17.2c0-0.2,0.1-0.4,0.1-0.6c0-0.5-0.2-1-0.4-1.5h2.7
					C13.3,16,12.5,16.8,11.5,17.2z M14.8,11.7h-3.5c0-0.8-0.1-1.6-0.2-2.3h1.6v0.9c0,0.5,0.4,0.9,0.9,0.9h1.1
					C14.8,11.3,14.8,11.5,14.8,11.7z M17.1,10.5h-3.5c-0.2,0-0.3-0.1-0.3-0.3V10h4.1v0.3C17.4,10.4,17.3,10.5,17.1,10.5z"/>
				<path class="st0" d="M11.2,18.6l0.2,0.6c0.2-0.1,0.3-0.1,0.5-0.2l-0.2-0.5C11.5,18.5,11.4,18.6,11.2,18.6L11.2,18.6z"/>
				<path class="st0" d="M12.2,18.2l0.3,0.5c0.2-0.1,0.4-0.2,0.5-0.3l-0.3-0.5C12.5,18,12.4,18.1,12.2,18.2L12.2,18.2z"/>
				<path class="st0" d="M13.1,17.6l0.3,0.5c0.2-0.1,0.3-0.2,0.5-0.4l-0.4-0.4C13.4,17.4,13.3,17.5,13.1,17.6L13.1,17.6z"/>
				<path class="st0" d="M14,16.9l0.4,0.4c0.1-0.1,0.3-0.3,0.4-0.4l-0.4-0.4C14.2,16.6,14.1,16.7,14,16.9L14,16.9z"/>
				<path class="st0" d="M4,17.6c0.2,0.1,0.3,0.3,0.5,0.4l0.4-0.5c-0.1-0.1-0.3-0.2-0.4-0.4L4,17.6z"/>
				<path class="st0" d="M3.2,16.8c0.1,0.1,0.2,0.3,0.4,0.4L4,16.8c-0.1-0.1-0.2-0.2-0.3-0.4L3.2,16.8z"/>
				<path class="st0" d="M6,18.9c0.2,0.1,0.4,0.2,0.6,0.2l0.2-0.6c-0.2-0.1-0.4-0.1-0.5-0.2L6,18.9z"/>
				<path class="st0" d="M5,18.4c0.2,0.1,0.3,0.2,0.5,0.3l0.3-0.5c-0.2-0.1-0.3-0.2-0.5-0.3L5,18.4z"/>
			</g>
		</g>
		<g>
			<g>
				<path class="st0" d="M5.1,5.7L4.7,5.2c0.1-0.1,0.2-0.3,0.2-0.5h0.6v0.1c-0.1,0-0.2,0.1-0.2,0.3c0,0.2,0.1,0.3,0.3,0.3
					c0.2,0,0.3-0.1,0.3-0.3c0-0.1-0.1-0.3-0.2-0.3V4.7c0,0,0-0.1-0.1-0.1H4.9c0-0.2-0.1-0.3-0.2-0.4l0.1-0.1h0.7
					c0,0.1,0.1,0.1,0.2,0.1c0.1,0,0.1-0.1,0.1-0.2S5.7,3.8,5.6,3.9C5.6,3.9,5.5,3.9,5.5,4H4.8c0,0,0,0,0,0L4.7,4.1
					c-0.3-0.3-0.8-0.3-1.2,0C3.4,4.2,3.3,4.4,3.3,4.6H2.8L2.6,4.2c0.1,0,0.1-0.2,0.1-0.2c0-0.1-0.2-0.1-0.2-0.1
					C2.3,3.9,2.3,4,2.3,4.1c0,0,0.1,0.1,0.1,0.1l0.2,0.5c0,0,0,0,0.1,0h0.5c0,0.2,0.1,0.4,0.2,0.5L3,5.7c-0.3,0-0.6,0.2-0.7,0.5
					s0.2,0.6,0.5,0.7c0,0,0,0,0,0v0.3c0,0,0,0.1,0.1,0.1h0.5c0,0.1,0.1,0.1,0.2,0.1c0.1,0,0.1-0.1,0.1-0.2S3.7,7,3.6,7
					c-0.1,0-0.1,0.1-0.1,0.1H3V6.9c0.3,0,0.6-0.3,0.5-0.6c0-0.2-0.2-0.4-0.4-0.5l0.5-0.5c0.3,0.2,0.7,0.2,1,0l0.3,0.4
					C4.5,5.8,4.2,6.2,4.2,6.7c0.1,0.5,0.5,0.8,0.9,0.7c0.5-0.1,0.8-0.5,0.7-0.9C5.8,6,5.5,5.7,5.1,5.7z M5.7,5.1
					c0,0.1-0.1,0.2-0.2,0.2S5.4,5.2,5.4,5.1s0.1-0.2,0.2-0.2S5.7,5,5.7,5.1z M5.7,4C5.7,4,5.7,4,5.7,4c0.1,0.1,0,0.1,0,0.1
					C5.7,4.1,5.6,4.1,5.7,4C5.6,4,5.7,4,5.7,4z M2.5,4.1C2.5,4.1,2.4,4.1,2.5,4.1C2.4,4,2.5,4,2.5,4S2.6,4,2.5,4.1
					C2.6,4.1,2.5,4.1,2.5,4.1z M3.6,7.1C3.7,7.1,3.7,7.2,3.6,7.1c0.1,0.1,0,0.1,0,0.1C3.6,7.3,3.6,7.2,3.6,7.1
					C3.6,7.2,3.6,7.1,3.6,7.1z M3.2,6.7C3,6.8,2.8,6.8,2.7,6.7V6.6c0-0.1,0.1-0.2,0.2-0.2c0.1,0,0.2,0.1,0.2,0.2V6.7z M2.8,6.1
					C2.8,6.1,2.8,6,2.9,6S3,6.1,3,6.1C3,6.2,3,6.3,2.9,6.3S2.8,6.2,2.8,6.1z M3.3,6c0.1,0.1,0.1,0.2,0.1,0.3c0,0.1,0,0.2-0.1,0.3v0
					c0-0.1-0.1-0.2-0.2-0.3c0.1-0.1,0.1-0.2,0-0.3C3,5.9,2.8,5.9,2.7,6c-0.1,0.1-0.1,0.2,0,0.3C2.6,6.4,2.6,6.5,2.6,6.6v0
					C2.4,6.4,2.4,6.1,2.6,6C2.8,5.8,3.1,5.8,3.3,6z M4.5,5.2c-0.2,0.2-0.6,0.2-0.8,0V5.1c0-0.1,0.1-0.2,0.2-0.2H4L3.9,5.1
					c0,0,0,0,0,0.1l0.1,0.1c0,0,0.1,0,0.1,0l0.1-0.1c0,0,0,0,0-0.1L4.2,4.9h0.1c0.1,0,0.2,0.1,0.2,0.2V5.2L4.5,5.2z M4.1,4.3
					C4.1,4.3,4.1,4.3,4.1,4.3c0,0.1-0.2,0.1-0.3,0.1c0-0.2,0.1-0.3,0.3-0.3c0.2,0,0.3,0.1,0.3,0.2L4.1,4.3C4.2,4.2,4.1,4.3,4.1,4.3z
					 M4.2,4.4l0.2,0.1c0,0.1-0.2,0.3-0.3,0.3C4,4.8,3.9,4.7,3.8,4.5C3.9,4.5,4.1,4.5,4.2,4.4z M4.1,5.1L4.1,5.1L4.1,5.1l0-0.1
					L4.1,5.1z M4.3,4.8c0.1-0.1,0.1-0.2,0.2-0.3C4.5,4.1,4.3,4,4.1,4C3.9,4,3.7,4.1,3.7,4.5c0,0.1,0.1,0.2,0.2,0.3
					c-0.2,0-0.3,0.2-0.3,0.3v0c-0.3-0.3-0.2-0.7,0.1-1s0.7-0.2,1,0.1c0.2,0.3,0.2,0.7,0,0.9v0C4.6,4.9,4.5,4.8,4.3,4.8z M5.4,7.1
					c-0.2,0.2-0.6,0.2-0.8,0V7c0-0.1,0.1-0.2,0.2-0.2h0.1L4.9,7c0,0,0,0,0,0.1L5,7.2c0,0,0.1,0,0.1,0l0.1-0.1c0,0,0,0,0-0.1L5.1,6.8
					h0.1c0.1,0,0.2,0.1,0.2,0.2V7.1z M5.1,6.3L5.1,6.3l0.2,0.1c0,0.1-0.2,0.3-0.3,0.3c-0.1,0-0.2-0.1-0.3-0.2C4.8,6.4,5,6.4,5.1,6.3
					z M4.7,6.3L4.7,6.3C4.8,6.1,4.9,6,5,6c0.2,0,0.3,0.1,0.3,0.2L5.1,6.1c0,0-0.1,0-0.1,0c0,0,0,0,0,0C5,6.3,4.8,6.3,4.7,6.3z
					 M5.1,7L5.1,7L5.1,7l0-0.1L5.1,7z M5.6,7L5.6,7c0-0.2-0.1-0.3-0.3-0.3c0.1-0.1,0.1-0.2,0.2-0.3C5.4,6,5.2,5.9,5,5.9
					C4.8,5.9,4.6,6,4.6,6.4c0,0.1,0.1,0.2,0.2,0.3C4.6,6.7,4.5,6.8,4.5,7v0C4.2,6.7,4.3,6.3,4.6,6c0.3-0.3,0.7-0.2,1,0.1
					c0.1,0.1,0.2,0.3,0.2,0.5C5.7,6.7,5.7,6.9,5.6,7z"/>
			</g>
		</g>
	</g>
	<g>
		<g>
			<path class="st0" d="M10.4,16.3l-0.2,0c0-0.1-0.1-0.2-0.1-0.2l0.1-0.2c0-0.1,0-0.1,0-0.2L10,15.3c0,0-0.1-0.1-0.2,0l-0.2,0.1
				c-0.1,0-0.2-0.1-0.2-0.1l0-0.2c0-0.1-0.1-0.1-0.1-0.1H8.8c-0.1,0-0.1,0.1-0.1,0.1l0,0.2c-0.1,0-0.2,0.1-0.2,0.1l-0.2-0.1
				c-0.1,0-0.1,0-0.2,0l-0.3,0.3c0,0-0.1,0.1,0,0.2L7.9,16c0,0.1-0.1,0.2-0.1,0.2l-0.2,0c-0.1,0-0.1,0.1-0.1,0.1v0.4
				c0,0.1,0.1,0.1,0.1,0.1l0.2,0c0,0.1,0.1,0.2,0.1,0.2l-0.1,0.2c0,0.1,0,0.1,0,0.2L8,17.9c0,0,0.1,0.1,0.2,0l0.2-0.1
				c0.1,0,0.2,0.1,0.2,0.1l0,0.2c0,0.1,0.1,0.1,0.1,0.1h0.4c0.1,0,0.1-0.1,0.1-0.1l0-0.2c0.1,0,0.2-0.1,0.2-0.1l0.2,0.1
				c0.1,0,0.1,0,0.2,0l0.3-0.3c0,0,0.1-0.1,0-0.2l-0.1-0.2c0-0.1,0.1-0.2,0.1-0.2l0.2,0c0.1,0,0.1-0.1,0.1-0.1v-0.4
				C10.6,16.3,10.5,16.3,10.4,16.3z M10.3,16.7l-0.2,0c-0.1,0-0.1,0-0.1,0.1c0,0.1-0.1,0.2-0.1,0.3c0,0,0,0.1,0,0.2l0.1,0.1
				l-0.1,0.1l-0.1-0.1c0,0-0.1,0-0.2,0c-0.1,0.1-0.2,0.1-0.3,0.1c-0.1,0-0.1,0.1-0.1,0.1l0,0.2H8.9l0-0.2c0-0.1,0-0.1-0.1-0.1
				c-0.1,0-0.2-0.1-0.3-0.1c0,0-0.1,0-0.2,0l-0.1,0.1L8,17.5l0.1-0.1c0,0,0-0.1,0-0.2C8.1,17,8,16.9,8,16.8c0-0.1-0.1-0.1-0.1-0.1
				l-0.2,0v-0.2l0.2,0c0.1,0,0.1,0,0.1-0.1c0-0.1,0.1-0.2,0.1-0.3c0,0,0-0.1,0-0.2L8,15.7l0.1-0.1l0.1,0.1c0,0,0.1,0,0.2,0
				c0.1-0.1,0.2-0.1,0.3-0.1c0.1,0,0.1-0.1,0.1-0.1l0-0.2h0.2l0,0.2c0,0.1,0,0.1,0.1,0.1c0.1,0,0.2,0.1,0.3,0.1c0,0,0.1,0,0.2,0
				l0.1-0.1l0.1,0.1l-0.1,0.1c0,0,0,0.1,0,0.2c0.1,0.1,0.1,0.2,0.1,0.3c0,0.1,0.1,0.1,0.1,0.1l0.2,0L10.3,16.7z"/>
		</g>
		<path class="st0" d="M9,15.8c-0.4,0-0.8,0.3-0.8,0.8c0,0.4,0.3,0.8,0.8,0.8c0.4,0,0.8-0.3,0.8-0.8C9.8,16.2,9.4,15.8,9,15.8z
			 M9,17.1c-0.3,0-0.5-0.2-0.5-0.5c0-0.3,0.2-0.5,0.5-0.5c0.3,0,0.5,0.2,0.5,0.5C9.5,16.9,9.3,17.1,9,17.1z"/>
	</g>
</g>
</svg>
