<?xml version="1.0" encoding="utf-8"?>
<!-- Generator: Adobe Illustrator 24.0.2, SVG Export Plug-In . SVG Version: 6.00 Build 0)  -->
<svg version="1.1" id="Layer_1" xmlns="http://www.w3.org/2000/svg" xmlns:xlink="http://www.w3.org/1999/xlink" x="0px" y="0px"
	 viewBox="0 0 58.3 58.8" style="enable-background:new 0 0 58.3 58.8;" xml:space="preserve">
<style type="text/css">
	.st0{fill:#FC6A55;}
	.st1{stroke:#FFFFFF;stroke-width:0.25;stroke-miterlimit:10;}
	.st2{fill:#656D7A;}
	.st3{fill:#FFFFFF;}
	.st4{filter:url(#Adobe_OpacityMaskFilter);}
	.st5{fill-rule:evenodd;clip-rule:evenodd;fill:#FFFFFF;}
	.st6{mask:url(#mask-2_8_);fill-rule:evenodd;clip-rule:evenodd;}
	.st7{filter:url(#Adobe_OpacityMaskFilter_1_);}
	.st8{mask:url(#mask-2_7_);fill-rule:evenodd;clip-rule:evenodd;}
	.st9{filter:url(#Adobe_OpacityMaskFilter_2_);}
	.st10{mask:url(#mask-2_6_);fill-rule:evenodd;clip-rule:evenodd;}
	.st11{filter:url(#Adobe_OpacityMaskFilter_3_);}
	.st12{mask:url(#mask-2_5_);fill-rule:evenodd;clip-rule:evenodd;}
	.st13{filter:url(#Adobe_OpacityMaskFilter_4_);}
	.st14{mask:url(#mask-2_2_);fill:none;stroke:#000000;stroke-width:2;}
	.st15{fill:#434343;}
	.st16{fill:#434343;stroke:#F9F9F9;stroke-width:0.25;stroke-miterlimit:10;}
	.st17{fill:none;stroke:#FC6A55;stroke-width:0.5;stroke-miterlimit:10;}
	.st18{fill:none;stroke:#FC6A55;stroke-width:0.75;stroke-miterlimit:10;}
	.st19{fill:#FC6A55;stroke:#FC6A55;stroke-width:0.5;stroke-miterlimit:10;}
</style>
<g>
	<g>
		<g>
			<path class="st0" d="M57.2,0.4C57.2,0.4,57.2,0.4,57.2,0.4H1.1c-0.5,0-1,0.4-1,1c0,0,0,0,0,0v19.3h1.9V2.3h54.1v21.3H22.4v1.9
				h34.8c0.5,0,1-0.4,1-1c0,0,0,0,0,0V1.4C58.2,0.8,57.7,0.4,57.2,0.4z"/>
		</g>
	</g>
	<g>
		<g>
			<rect x="32.1" y="5.2" class="st0" width="19.3" height="1.9"/>
		</g>
	</g>
	<g>
		<g>
			<rect x="35" y="11" class="st0" width="19.3" height="1.9"/>
		</g>
	</g>
	<g>
		<g>
			<rect x="31.1" y="16.8" class="st0" width="19.3" height="1.9"/>
		</g>
	</g>
	<g>
		<g>
			<path class="st0" d="M31,8.7c-0.7-1.6-2.5-2.3-4.1-1.7c0,0-0.1,0-0.1,0L19,11.2c0.3-0.6,0.5-1.3,0.5-2.1c0-2.7-2.2-4.8-4.8-4.8
				S9.8,6.4,9.8,9.1c0,1,0.4,2.1,1,2.9h0c-2.7,0-5.2,1.7-6.2,4.3L2,25.2c-0.6,1.6,0.2,3.4,1.8,4c0.7,0.3,1.5,0.3,2.3,0
				c0.8-0.3,1.5-1,1.8-1.9l1-3.2v14c-0.8-0.6-1.9-1-2.9-1c-2.7,0-4.8,2.2-4.8,4.8c0,1.3,0.5,2.6,1.5,3.5c-1.5,0.8-2.4,2.3-2.4,4v8.1
				c0,0.5,0.4,1,1,1c0,0,0,0,0,0h9.7c0.5,0,1-0.4,1-1c0,0,0,0,0,0v-8.1c0-1.4-0.6-2.7-1.7-3.5h7.3c-1.1,0.8-1.7,2.1-1.7,3.5v8.1
				c0,0.5,0.4,1,1,1c0,0,0,0,0,0h9.7c0.5,0,1-0.4,1-1c0,0,0,0,0,0v-8.1c0-1.7-0.9-3.2-2.4-4c1.9-1.9,1.9-4.9,0.1-6.8
				c-1.1-1.2-2.8-1.7-4.4-1.4V17.4l8.9-4.6C30.9,12.2,31.7,10.3,31,8.7z M14.7,6.2c1.6,0,2.9,1.3,2.9,2.9S16.3,12,14.7,12
				c-1.6,0-2.9-1.3-2.9-2.9C11.8,7.5,13.1,6.2,14.7,6.2z M6,39c1.6,0,2.9,1.3,2.9,2.9S7.6,44.8,6,44.8s-2.9-1.3-2.9-2.9
				C3.1,40.3,4.4,39,6,39z M9.8,56.5H2.1v-7.1c0-1.4,1.1-2.5,2.5-2.5h2.7c1.4,0,2.5,1.1,2.5,2.5V56.5z M25.3,49.3v7.1h-7.7v-7.1
				c0-1.4,1.1-2.5,2.5-2.5h2.7C24.2,46.8,25.3,47.9,25.3,49.3z M21.4,39c1.6,0,2.9,1.3,2.9,2.9c0,1.6-1.3,2.9-2.9,2.9
				s-2.9-1.3-2.9-2.9S19.8,39,21.4,39z M29.3,10.3c-0.1,0.3-0.4,0.6-0.7,0.7L19.1,16c-0.3,0.2-0.5,0.5-0.5,0.9v21.3
				c-1.8,1.3-2.4,3.8-1.5,5.8h-1.4V27.5h-1.9v16.4h-3.3c0.3-0.6,0.4-1.3,0.4-1.9h0V17.8c0-0.5-0.4-1-1-1c-0.4,0-0.8,0.3-0.9,0.7
				L6,26.7c-0.2,0.6-0.9,0.9-1.5,0.7c0,0-0.1,0-0.1-0.1c-0.6-0.3-0.8-1-0.5-1.5l2.6-8.9c0.7-1.8,2.4-3,4.3-3h6.8
				c0.2,0,0.3,0,0.4-0.1l9.6-5c0.6-0.2,1.2,0,1.5,0.6C29.4,9.7,29.4,10,29.3,10.3z"/>
		</g>
	</g>
	<g>
		<g>
			<path class="st0" d="M40.3,45.4c1.9-1.9,2-4.9,0.1-6.8c-1.9-1.9-4.9-2-6.8-0.1c-1.9,1.9-2,4.9-0.1,6.8c0,0,0.1,0.1,0.1,0.1
				c-1.5,0.8-2.4,2.3-2.4,4v8.1c0,0.5,0.4,1,1,1c0,0,0,0,0,0h9.7c0.5,0,1-0.4,1-1c0,0,0,0,0,0v-8.1C42.7,47.7,41.8,46.1,40.3,45.4z
				 M36.9,39c1.6,0,2.9,1.3,2.9,2.9s-1.3,2.9-2.9,2.9S34,43.5,34,41.9C34,40.3,35.3,39,36.9,39z M40.8,56.5H33v-7.1
				c0-1.4,1.1-2.5,2.5-2.5h2.7c1.4,0,2.5,1.1,2.5,2.5V56.5z"/>
		</g>
	</g>
	<g>
		<g>
			<path class="st0" d="M55.7,45.4c1.9-1.9,2-4.9,0.1-6.8c-1.9-1.9-4.9-2-6.8-0.1c-1.9,1.9-2,4.9-0.1,6.8c0,0,0.1,0.1,0.1,0.1
				c-1.5,0.8-2.4,2.3-2.4,4v8.1c0,0.5,0.4,1,1,1c0,0,0,0,0,0h9.7c0.5,0,1-0.4,1-1c0,0,0,0,0,0v-8.1C58.2,47.7,57.2,46.1,55.7,45.4z
				 M52.4,39c1.6,0,2.9,1.3,2.9,2.9s-1.3,2.9-2.9,2.9s-2.9-1.3-2.9-2.9C49.5,40.3,50.8,39,52.4,39z M56.2,56.5h-7.7v-7.1
				c0-1.4,1.1-2.5,2.5-2.5h2.7c1.4,0,2.5,1.1,2.5,2.5V56.5z"/>
		</g>
	</g>
</g>
</svg>
