<?xml version="1.0" encoding="utf-8"?>
<!-- Generator: Adobe Illustrator 24.1.1, SVG Export Plug-In . SVG Version: 6.00 Build 0)  -->
<svg version="1.1" id="Layer_1" xmlns="http://www.w3.org/2000/svg" xmlns:xlink="http://www.w3.org/1999/xlink" x="0px" y="0px"
	 viewBox="0 0 38 31" style="enable-background:new 0 0 38 31;" xml:space="preserve">
<style type="text/css">
	.st0{fill:#FC6A55;}
	.st1{fill:#EDEDED;}
	.st2{fill:none;stroke:#FC6A55;stroke-miterlimit:10;}
	.st3{stroke:#FFFFFF;stroke-width:0.25;stroke-miterlimit:10;}
	.st4{fill:#656D7A;}
	.st5{fill:#FFFFFF;}
	.st6{filter:url(#Adobe_OpacityMaskFilter);}
	.st7{fill-rule:evenodd;clip-rule:evenodd;fill:#FFFFFF;}
	.st8{mask:url(#mask-2_8_);fill-rule:evenodd;clip-rule:evenodd;}
	.st9{filter:url(#Adobe_OpacityMaskFilter_1_);}
	.st10{mask:url(#mask-2_7_);fill-rule:evenodd;clip-rule:evenodd;}
	.st11{filter:url(#Adobe_OpacityMaskFilter_2_);}
	.st12{mask:url(#mask-2_6_);fill-rule:evenodd;clip-rule:evenodd;}
	.st13{filter:url(#Adobe_OpacityMaskFilter_3_);}
	.st14{mask:url(#mask-2_5_);fill-rule:evenodd;clip-rule:evenodd;}
	.st15{filter:url(#Adobe_OpacityMaskFilter_4_);}
	.st16{mask:url(#mask-2_2_);fill:none;stroke:#000000;stroke-width:2;}
	.st17{fill:#B4A3EE;}
	.st18{fill:#434343;}
	.st19{fill:#434343;stroke:#F9F9F9;stroke-width:0.25;stroke-miterlimit:10;}
	.st20{fill:none;stroke:#FC6A55;stroke-width:0.5;stroke-miterlimit:10;}
	.st21{fill:none;stroke:#FC6A55;stroke-width:0.75;stroke-miterlimit:10;}
	.st22{fill:#FC6A55;stroke:#FC6A55;stroke-width:0.5;stroke-miterlimit:10;}
	.st23{opacity:0.153;fill:url(#Path_36_);enable-background:new    ;}
	.st24{opacity:0.1;fill:#590BB2;enable-background:new    ;}
	.st25{fill:#8E8CA8;}
	.st26{fill:#F5F4F9;}
	.st27{fill:#FFD5B8;}
	.st28{fill:#FC8473;}
	.st29{fill:#1C3475;}
	.st30{fill:#DDD9E4;}
	.st31{fill:#828FB3;}
	.st32{opacity:7.584635e-02;fill:url(#Path_37_);enable-background:new    ;}
	.st33{fill:#FFBE92;}
	.st34{fill:#FB8E7F;}
	.st35{fill:#FDB1A6;}
	.st36{fill:#FC806F;}
	.st37{fill:#FFE783;}
	.st38{fill:#104478;}
	.st39{fill:none;stroke:#FFFFFF;stroke-miterlimit:10;}
	.st40{fill:none;stroke:#000000;stroke-width:0.15;stroke-miterlimit:10;}
	.st41{opacity:0.1;fill:url(#Path_38_);enable-background:new    ;}
	.st42{opacity:0.1;fill:url(#Path_39_);enable-background:new    ;}
	.st43{fill-rule:evenodd;clip-rule:evenodd;fill:#FC6A55;}
	.st44{fill-rule:evenodd;clip-rule:evenodd;}
	.st45{fill:#FF6757;}
	.st46{fill:#666666;}
	.st47{fill:none;stroke:#FFFFFF;stroke-width:0.5;stroke-miterlimit:10;}
	.st48{fill:#F16A56;}
	.st49{fill:#515252;}
	.st50{fill:#F26A56;}
	.st51{fill:none;stroke:#F16A56;stroke-miterlimit:10;}
	.st52{fill:none;stroke:#929292;stroke-miterlimit:10;}
	.st53{fill:#929292;}
	.st54{fill:none;stroke:#000000;stroke-width:0.5;stroke-miterlimit:10;}
	.st55{fill:#A8A7A7;}
	.st56{fill:#F79F91;}
	.st57{fill:#9BDBD5;}
	.st58{fill:#222121;}
</style>
<g>
	<g>
		<g>
			<g>
				<path class="st17" d="M20.2,27.2h-2.5c-0.3,0-0.6,0.3-0.6,0.6c0,0.3,0.2,0.6,0.6,0.6h2.5c0.3,0,0.6-0.3,0.6-0.6
					C20.8,27.5,20.5,27.2,20.2,27.2z"/>
			</g>
		</g>
		<g>
			<g>
				<path class="st17" d="M24.7,5.1c-0.1-0.1-0.2-0.2-0.4-0.2S24,5,23.9,5.1c-0.1,0.1-0.2,0.3-0.2,0.4c0,0.2,0.1,0.3,0.2,0.4
					C24,6,24.2,6.1,24.3,6.1s0.3-0.1,0.4-0.2c0.1-0.1,0.2-0.3,0.2-0.4S24.8,5.2,24.7,5.1z"/>
			</g>
		</g>
		<g>
			<g>
				<path class="st17" d="M32.7,9.6c0.3,0,0.6-0.3,0.6-0.6V5.5c0-0.2-0.1-0.4-0.3-0.5c0,0,0,0,0,0l-8.3-4.2c-0.2-0.1-0.3-0.1-0.5,0
					L15.8,5c-0.2,0.1-0.3,0.3-0.3,0.5c0,0.2,0.1,0.4,0.3,0.5L19,7.6v3.6c0,0,0,0.1,0,0.1h-0.2c-1,0-1.9,0.9-1.9,1.9
					c0,1.1,0.8,1.9,1.9,1.9H19c0.2,1.6,1,3.1,2.3,3.9h-5.2c-0.3,0-0.6,0.1-0.9,0.2v-8.5c0-0.5,0.4-0.9,0.9-0.9h1.4
					c0.3,0,0.6-0.3,0.6-0.6s-0.2-0.6-0.6-0.6h-1.4c-0.6,0-1.1,0.3-1.5,0.7c-0.4-0.4-0.9-0.7-1.5-0.7H5.3C5,8.7,4.8,9,4.8,9.3v10.4
					v2.2c0,0.3,0.2,0.6,0.6,0.6H6v2.8H5.3c-0.3,0-0.6,0.3-0.6,0.6v1c0,1.8,1.4,3.3,3.2,3.3h22c1.8,0,3.2-1.5,3.2-3.3v-1
					c0-0.3-0.2-0.6-0.6-0.6H32v-8.5c0-0.3-0.2-0.6-0.6-0.6s-0.6,0.3-0.6,0.6v8.5H7.1v-2.8H24c0.3,0,0.6-0.3,0.6-0.6v-1.8
					c2.6-0.1,4.8-2.2,5.1-4.9h0.2c1,0,1.9-0.9,1.9-1.9c0-1.1-0.8-1.9-1.9-1.9h-0.2c0,0,0-0.1,0-0.1V7.6l2.4-1.2V9
					C32.1,9.4,32.4,9.6,32.7,9.6z M19,14h-0.1c-0.4,0-0.7-0.3-0.7-0.8c0-0.4,0.3-0.8,0.7-0.8H19V14z M5.9,9.9h7.3
					c0.5,0,0.9,0.4,0.9,0.9v8.5c-0.3-0.1-0.6-0.2-0.9-0.2H5.9V9.9z M32.1,26.4v0.5c0,1.2-0.9,2.2-2.1,2.2H8c-1.2,0-2.1-1-2.1-2.2
					v-0.5H32.1z M5.9,21.3v-1.1h7.3c0.5,0,0.9,0.4,0.9,0.9c0,0.1,0,0.1,0,0.2H5.9z M29.7,12.4h0.1c0.4,0,0.7,0.3,0.7,0.8
					c0,0.4-0.3,0.8-0.7,0.8h-0.1V12.4z M23.4,21.3h-8.2v0c0-0.1,0-0.1,0-0.2c0-0.5,0.4-0.9,0.9-0.9h7.3V21.3z M28.5,14.5
					c0,2.4-1.9,4.4-4.2,4.4s-4.2-2-4.2-4.4v-2.4l4,1.8c0.1,0,0.1,0,0.2,0c0.1,0,0.2,0,0.2,0l4-1.8V14.5z M28.5,10.8l-4.2,1.9
					l-4.2-1.9V8.2l4,2c0.1,0,0.2,0.1,0.2,0.1c0.1,0,0.2,0,0.2-0.1l4-2L28.5,10.8L28.5,10.8z M25.9,6.1h4.3l-5.9,3l-7.1-3.5L24.3,2
					l5.9,3h-4.3c-0.3,0-0.6,0.3-0.6,0.6C25.3,5.8,25.6,6.1,25.9,6.1z"/>
			</g>
		</g>
		<g>
			<g>
				<path class="st17" d="M33.1,11.2c-0.1-0.1-0.2-0.2-0.4-0.2s-0.3,0.1-0.4,0.2c-0.1,0.1-0.2,0.3-0.2,0.4c0,0.2,0.1,0.3,0.2,0.4
					c0.1,0.1,0.2,0.2,0.4,0.2s0.3-0.1,0.4-0.2c0.1-0.1,0.2-0.3,0.2-0.4C33.2,11.5,33.2,11.3,33.1,11.2z"/>
			</g>
		</g>
		<g>
			<g>
				<path class="st17" d="M12.2,15.4c-0.1-0.1-0.2-0.2-0.4-0.2s-0.3,0.1-0.4,0.2c-0.1,0.1-0.2,0.3-0.2,0.4c0,0.2,0.1,0.3,0.2,0.4
					c0.1,0.1,0.2,0.2,0.4,0.2c0.1,0,0.3-0.1,0.4-0.2c0.1-0.1,0.2-0.3,0.2-0.4C12.4,15.7,12.3,15.5,12.2,15.4z"/>
			</g>
		</g>
		<g>
			<g>
				<path class="st17" d="M9.7,15.3H8c-0.3,0-0.6,0.3-0.6,0.6c0,0.3,0.2,0.6,0.6,0.6h1.8c0.3,0,0.6-0.3,0.6-0.6
					C10.3,15.5,10,15.3,9.7,15.3z"/>
			</g>
		</g>
		<g>
			<g>
				<path class="st17" d="M11.8,12.5H8c-0.3,0-0.6,0.3-0.6,0.6s0.2,0.6,0.6,0.6h3.9c0.3,0,0.6-0.3,0.6-0.6
					C12.4,12.8,12.1,12.5,11.8,12.5z"/>
			</g>
		</g>
	</g>
</g>
</svg>
