<?xml version="1.0" encoding="utf-8"?>
<!-- Generator: Adobe Illustrator 24.1.1, SVG Export Plug-In . SVG Version: 6.00 Build 0)  -->
<svg version="1.1" id="Layer_1" xmlns="http://www.w3.org/2000/svg" xmlns:xlink="http://www.w3.org/1999/xlink" x="0px" y="0px"
	 viewBox="0 0 38 31" style="enable-background:new 0 0 38 31;" xml:space="preserve">
<style type="text/css">
	.st0{fill:#FC6A55;}
	.st1{fill:#EDEDED;}
	.st2{fill:none;stroke:#FC6A55;stroke-miterlimit:10;}
	.st3{stroke:#FFFFFF;stroke-width:0.25;stroke-miterlimit:10;}
	.st4{fill:#656D7A;}
	.st5{fill:#FFFFFF;}
	.st6{filter:url(#Adobe_OpacityMaskFilter);}
	.st7{fill-rule:evenodd;clip-rule:evenodd;fill:#FFFFFF;}
	.st8{mask:url(#mask-2_8_);fill-rule:evenodd;clip-rule:evenodd;}
	.st9{filter:url(#Adobe_OpacityMaskFilter_1_);}
	.st10{mask:url(#mask-2_7_);fill-rule:evenodd;clip-rule:evenodd;}
	.st11{filter:url(#Adobe_OpacityMaskFilter_2_);}
	.st12{mask:url(#mask-2_6_);fill-rule:evenodd;clip-rule:evenodd;}
	.st13{filter:url(#Adobe_OpacityMaskFilter_3_);}
	.st14{mask:url(#mask-2_5_);fill-rule:evenodd;clip-rule:evenodd;}
	.st15{filter:url(#Adobe_OpacityMaskFilter_4_);}
	.st16{mask:url(#mask-2_2_);fill:none;stroke:#000000;stroke-width:2;}
	.st17{fill:#B4A3EE;}
	.st18{fill:#434343;}
	.st19{fill:#434343;stroke:#F9F9F9;stroke-width:0.25;stroke-miterlimit:10;}
	.st20{fill:none;stroke:#FC6A55;stroke-width:0.5;stroke-miterlimit:10;}
	.st21{fill:none;stroke:#FC6A55;stroke-width:0.75;stroke-miterlimit:10;}
	.st22{fill:#FC6A55;stroke:#FC6A55;stroke-width:0.5;stroke-miterlimit:10;}
	.st23{opacity:0.153;fill:url(#Path_36_);enable-background:new    ;}
	.st24{opacity:0.1;fill:#590BB2;enable-background:new    ;}
	.st25{fill:#8E8CA8;}
	.st26{fill:#F5F4F9;}
	.st27{fill:#FFD5B8;}
	.st28{fill:#FC8473;}
	.st29{fill:#1C3475;}
	.st30{fill:#DDD9E4;}
	.st31{fill:#828FB3;}
	.st32{opacity:7.584635e-02;fill:url(#Path_37_);enable-background:new    ;}
	.st33{fill:#FFBE92;}
	.st34{fill:#FB8E7F;}
	.st35{fill:#FDB1A6;}
	.st36{fill:#FC806F;}
	.st37{fill:#FFE783;}
	.st38{fill:#104478;}
	.st39{fill:none;stroke:#FFFFFF;stroke-miterlimit:10;}
	.st40{fill:none;stroke:#000000;stroke-width:0.15;stroke-miterlimit:10;}
	.st41{opacity:0.1;fill:url(#Path_38_);enable-background:new    ;}
	.st42{opacity:0.1;fill:url(#Path_39_);enable-background:new    ;}
	.st43{fill-rule:evenodd;clip-rule:evenodd;fill:#FC6A55;}
	.st44{fill-rule:evenodd;clip-rule:evenodd;}
	.st45{fill:#FF6757;}
	.st46{fill:#666666;}
	.st47{fill:none;stroke:#FFFFFF;stroke-width:0.5;stroke-miterlimit:10;}
	.st48{fill:#F16A56;}
	.st49{fill:#515252;}
	.st50{fill:#F26A56;}
	.st51{fill:none;stroke:#F16A56;stroke-miterlimit:10;}
	.st52{fill:none;stroke:#929292;stroke-miterlimit:10;}
	.st53{fill:#929292;}
	.st54{fill:none;stroke:#000000;stroke-width:0.5;stroke-miterlimit:10;}
	.st55{fill:#A8A7A7;}
	.st56{fill:#F79F91;}
	.st57{fill:#9BDBD5;}
	.st58{fill:#222121;}
</style>
<g>
	<g>
		<path class="st17" d="M15.5,18.6c-2.7,0-4.9,2.3-4.9,5.1s2.2,5.1,4.9,5.1s4.9-2.3,4.9-5.1C20.5,20.9,18.3,18.6,15.5,18.6z
			 M15.5,27.8c-2.2,0-4-1.8-4-4.1s1.8-4.1,4-4.1s4,1.8,4,4.1C19.5,26,17.7,27.8,15.5,27.8z"/>
		<path class="st17" d="M15.5,22.2c0.6,0,1,0.3,1,0.5h1c0-0.7-0.6-1.3-1.5-1.5v-0.6h-1v0.6c-0.9,0.2-1.5,0.8-1.5,1.5
			c0,0.9,0.9,1.5,2,1.5c0.6,0,1,0.3,1,0.5c0,0.2-0.4,0.5-1,0.5s-1-0.3-1-0.5h-1c0,0.7,0.6,1.3,1.5,1.5v0.6h1v-0.6
			c0.9-0.2,1.5-0.8,1.5-1.5c0-0.9-0.9-1.5-2-1.5c-0.6,0-1-0.3-1-0.5C14.6,22.5,14.9,22.2,15.5,22.2z"/>
		<path class="st17" d="M29.4,29.9H8.6V17.6h7.9c0.8,0,1.5-0.7,1.5-1.5V3.2h5.4v6.2h5.9v7.2h1V8.6l-6.2-6.5H18V1.6
			c0-0.9-0.7-1.5-1.5-1.5H5.7c-0.8,0-1.5,0.7-1.5,1.5V16c0,0.9,0.7,1.5,1.5,1.5h2v13.3h22.8v-7.2h-1V29.9z M24.4,3.9l4.2,4.4h-4.2
			V3.9z M5.2,16V1.6c0-0.3,0.2-0.5,0.5-0.5h10.9c0.3,0,0.5,0.2,0.5,0.5V16c0,0.3-0.2,0.5-0.5,0.5H5.7C5.4,16.5,5.2,16.3,5.2,16z"/>
		<path class="st17" d="M20,12.9h1v1h-1V12.9z"/>
		<path class="st17" d="M22,12.9h5.9v1H22V12.9z"/>
		<path class="st17" d="M20,10.9h1v1h-1V10.9z"/>
		<path class="st17" d="M22,10.9h5.9v1H22V10.9z"/>
		<path class="st17" d="M20,15h1v1h-1V15z"/>
		<path class="st17" d="M22,15h5.9v1H22V15z"/>
		<path class="st17" d="M20,17h1v1h-1V17z"/>
		<path class="st17" d="M22,17h5.9v1H22V17z"/>
		<path class="st17" d="M16.5,1.6H5.7v3.6h10.9V1.6z M15.5,4.2H6.6V2.7h8.9V4.2z"/>
		<path class="st17" d="M8.1,5.7h-1c-0.5,0-1,0.5-1,1v1c0,0.6,0.4,1,1,1h1c0.5,0,1-0.5,1-1v-1C9.1,6.2,8.7,5.7,8.1,5.7z M7.1,7.8v-1
			h1v1H7.1z"/>
		<path class="st17" d="M11.6,5.7h-1c-0.5,0-1,0.5-1,1v1c0,0.6,0.4,1,1,1h1c0.5,0,1-0.5,1-1v-1C12.6,6.2,12.1,5.7,11.6,5.7z
			 M10.6,7.8v-1h1v1H10.6z"/>
		<path class="st17" d="M15.1,5.7h-1c-0.5,0-1,0.5-1,1v1c0,0.6,0.4,1,1,1h1c0.5,0,1-0.5,1-1v-1C16,6.2,15.6,5.7,15.1,5.7z M14.1,7.8
			v-1h1v1H14.1z"/>
		<path class="st17" d="M8.1,9.3h-1c-0.5,0-1,0.5-1,1v1c0,0.6,0.4,1,1,1h1c0.5,0,1-0.5,1-1v-1C9.1,9.8,8.7,9.3,8.1,9.3z M7.1,11.4
			v-1h1v1H7.1z"/>
		<path class="st17" d="M11.6,9.3h-1c-0.5,0-1,0.5-1,1v1c0,0.6,0.4,1,1,1h1c0.5,0,1-0.5,1-1v-1C12.6,9.8,12.1,9.3,11.6,9.3z
			 M10.6,11.4v-1h1v1H10.6z"/>
		<path class="st17" d="M15.1,9.3h-1c-0.5,0-1,0.5-1,1v1c0,0.6,0.4,1,1,1h1c0.5,0,1-0.5,1-1v-1C16,9.8,15.6,9.3,15.1,9.3z
			 M14.1,11.4v-1h1v1H14.1z"/>
		<path class="st17" d="M8.1,12.9h-1c-0.5,0-1,0.5-1,1v1c0,0.6,0.4,1,1,1h1c0.5,0,1-0.5,1-1v-1C9.1,13.4,8.7,12.9,8.1,12.9z M7.1,15
			v-1h1v1H7.1z"/>
		<path class="st17" d="M11.6,12.9h-1c-0.5,0-1,0.5-1,1v1c0,0.6,0.4,1,1,1h1c0.5,0,1-0.5,1-1v-1C12.6,13.4,12.1,12.9,11.6,12.9z
			 M10.6,15v-1h1v1H10.6z"/>
		<path class="st17" d="M15.1,12.9h-1c-0.5,0-1,0.5-1,1v1c0,0.6,0.4,1,1,1h1c0.5,0,1-0.5,1-1v-1C16,13.4,15.6,12.9,15.1,12.9z
			 M14.1,15v-1h1v1H14.1z"/>
		<path class="st17" d="M33.4,16.5c-0.6-0.6-1.5-0.6-2.1,0l-8.5,8.8c0,0-0.1,0.1-0.1,0.1l-1.2,2.7c-0.1,0.2,0,0.4,0.1,0.6
			c0.1,0.2,0.4,0.2,0.6,0.1l2.6-1.2c0.1,0,0.1-0.1,0.1-0.1l8.5-8.8C34,18.1,34,17.1,33.4,16.5z M24.3,26.7L23,27.3l0.6-1.3l6.3-6.6
			l0.7,0.7L24.3,26.7z M31.3,19.4l-0.7-0.7l0.3-0.4l0.7,0.7L31.3,19.4z M32.7,17.9l-0.3,0.4l-0.7-0.7l0.4-0.4c0.2-0.2,0.5-0.2,0.7,0
			C32.9,17.4,32.9,17.7,32.7,17.9z"/>
	</g>
</g>
</svg>
