<?xml version="1.0" encoding="utf-8"?>
<!-- Generator: Adobe Illustrator 24.0.2, SVG Export Plug-In . SVG Version: 6.00 Build 0)  -->
<svg version="1.1" id="Layer_1" xmlns="http://www.w3.org/2000/svg" xmlns:xlink="http://www.w3.org/1999/xlink" x="0px" y="0px"
	 viewBox="0 0 18 24" style="enable-background:new 0 0 18 24;" xml:space="preserve">
<style type="text/css">
	.st0{fill:#FC6A55;}
	.st1{stroke:#FFFFFF;stroke-width:0.25;stroke-miterlimit:10;}
	.st2{fill:#656D7A;}
	.st3{fill:#FFFFFF;}
	.st4{filter:url(#Adobe_OpacityMaskFilter);}
	.st5{fill-rule:evenodd;clip-rule:evenodd;fill:#FFFFFF;}
	.st6{mask:url(#mask-2_8_);fill-rule:evenodd;clip-rule:evenodd;}
	.st7{filter:url(#Adobe_OpacityMaskFilter_1_);}
	.st8{mask:url(#mask-2_7_);fill-rule:evenodd;clip-rule:evenodd;}
	.st9{filter:url(#Adobe_OpacityMaskFilter_2_);}
	.st10{mask:url(#mask-2_6_);fill-rule:evenodd;clip-rule:evenodd;}
	.st11{filter:url(#Adobe_OpacityMaskFilter_3_);}
	.st12{mask:url(#mask-2_5_);fill-rule:evenodd;clip-rule:evenodd;}
	.st13{filter:url(#Adobe_OpacityMaskFilter_4_);}
	.st14{mask:url(#mask-2_2_);fill:none;stroke:#000000;stroke-width:2;}
	.st15{fill:#434343;}
	.st16{fill:#434343;stroke:#F9F9F9;stroke-width:0.25;stroke-miterlimit:10;}
	.st17{fill:none;stroke:#FC6A55;stroke-width:0.5;stroke-miterlimit:10;}
	.st18{fill:none;stroke:#FC6A55;stroke-width:0.75;stroke-miterlimit:10;}
	.st19{fill:#FC6A55;stroke:#FC6A55;stroke-width:0.5;stroke-miterlimit:10;}
	.st20{opacity:0.153;fill:url(#Path_144_);enable-background:new    ;}
	.st21{opacity:0.1;fill:#590BB2;enable-background:new    ;}
	.st22{fill:#8E8CA8;}
	.st23{fill:#F5F4F9;}
	.st24{fill:#FFD5B8;}
	.st25{fill:#FC8473;}
	.st26{fill:#1C3475;}
	.st27{fill:#DDD9E4;}
	.st28{fill:#828FB3;}
	.st29{opacity:7.584635e-02;fill:url(#Path_145_);enable-background:new    ;}
	.st30{fill:#FFBE92;}
	.st31{fill:#FB8E7F;}
	.st32{fill:#FDB1A6;}
	.st33{fill:#FC806F;}
	.st34{fill:#FFE783;}
	.st35{fill:#104478;}
	.st36{fill:none;stroke:#FFFFFF;stroke-miterlimit:10;}
	.st37{fill:none;stroke:#FC6A55;stroke-miterlimit:10;}
	.st38{fill:none;stroke:#000000;stroke-width:0.15;stroke-miterlimit:10;}
</style>
<g>
	<g>
		<g>
			<path d="M16.9,5.2V3.3c0-0.1-0.1-0.3-0.3-0.3h-5.6C10.2,3,9.4,3.5,9,4.3C8.6,3.5,7.8,3,6.9,3H1.3C1.2,3,1.1,3.1,1.1,3.3v1.9
				C0.5,5.3,0,5.9,0,6.5V17c0,0.7,0.6,1.3,1.3,1.3h5.6v0.8c0,0.7-0.6,1.3-1.3,1.3H3.4c-0.1,0-0.3,0.1-0.3,0.3S3.3,21,3.4,21h11.1
				c0.1,0,0.3-0.1,0.3-0.3s-0.1-0.3-0.3-0.3h-2.2c-0.7,0-1.3-0.6-1.3-1.3v-0.8h5.6c0.7,0,1.3-0.6,1.3-1.3V6.5
				C18,5.9,17.5,5.3,16.9,5.2z M1.6,3.5h5.3c1,0,1.8,0.8,1.8,1.8c0,0.1,0.1,0.3,0.3,0.3s0.3-0.1,0.3-0.3c0-1,0.8-1.8,1.8-1.8h5.3
				v10.1h-5.3c-0.7,0-1.4,0.3-1.8,0.9V6.4c0-0.1-0.1-0.3-0.3-0.3S8.7,6.3,8.7,6.4v8.1c-0.4-0.5-1.1-0.9-1.8-0.9H1.6V3.5z M11.1,14.7
				c-0.7,0-1.3,0.3-1.8,0.8c0.2-0.8,0.9-1.3,1.8-1.3h5.3v0.5H11.1z M16.4,15.2v0.5H9.8c0.3-0.3,0.8-0.5,1.3-0.5H16.4z M1.6,14.1h5.3
				c0.8,0,1.5,0.6,1.8,1.3c-0.4-0.5-1.1-0.8-1.8-0.8H1.6V14.1z M0.5,6.5c0-0.3,0.2-0.6,0.5-0.7v10H0.5V6.5z M11.1,20.5H6.9
				c0.3-0.3,0.6-0.8,0.6-1.3v-0.8h3.1v0.8C10.5,19.7,10.7,20.1,11.1,20.5z M17.5,17c0,0.4-0.4,0.8-0.8,0.8H1.3
				c-0.4,0-0.8-0.4-0.8-0.8v-0.8h0.8c0.1,0,0.3-0.1,0.3-0.3v-0.8h5.3c0.5,0,0.9,0.2,1.3,0.5H2.4c-0.1,0-0.3,0.1-0.3,0.3
				s0.1,0.3,0.3,0.3h15.1V17z M17.5,15.7h-0.5v-10c0.3,0.1,0.5,0.4,0.5,0.7V15.7z"/>
		</g>
	</g>
	<g>
		<g>
			<path d="M5.6,6.9l0.3-0.3C6,6.5,6,6.3,5.9,6.2c-0.1-0.1-0.3-0.1-0.4,0L5.2,6.6L4.9,6.2c-0.1-0.1-0.3-0.1-0.4,0
				c-0.1,0.1-0.1,0.3,0,0.4l0.3,0.3L4.5,7.3c-0.1,0.1-0.1,0.3,0,0.4c0.1,0.1,0.1,0.1,0.2,0.1s0.1,0,0.2-0.1l0.3-0.3l0.3,0.3
				c0.1,0.1,0.1,0.1,0.2,0.1s0.1,0,0.2-0.1C6,7.5,6,7.4,5.9,7.3L5.6,6.9z"/>
		</g>
	</g>
	<g>
		<g>
			<path d="M6.9,5.1H3.4c-0.1,0-0.3,0.1-0.3,0.3v3.1c0,0.1,0.1,0.3,0.3,0.3h3.5c0.1,0,0.3-0.1,0.3-0.3V5.4C7.2,5.2,7.1,5.1,6.9,5.1z
				 M6.7,8.2h-3V5.6h3V8.2z"/>
		</g>
	</g>
	<g>
		<g>
			<path d="M6.9,9.3H3.4c-0.1,0-0.3,0.1-0.3,0.3s0.1,0.3,0.3,0.3h3.5c0.1,0,0.3-0.1,0.3-0.3S7.1,9.3,6.9,9.3z"/>
		</g>
	</g>
	<g>
		<g>
			<path d="M6.9,10.4H3.4c-0.1,0-0.3,0.1-0.3,0.3s0.1,0.3,0.3,0.3h3.5c0.1,0,0.3-0.1,0.3-0.3S7.1,10.4,6.9,10.4z"/>
		</g>
	</g>
	<g>
		<g>
			<path d="M13.5,7.3l-0.3-0.3l0.3-0.3c0.1-0.1,0.1-0.3,0-0.4c-0.1-0.1-0.3-0.1-0.4,0l-0.3,0.3l-0.3-0.3c-0.1-0.1-0.3-0.1-0.4,0
				c-0.1,0.1-0.1,0.3,0,0.4l0.3,0.3l-0.3,0.3c-0.1,0.1-0.1,0.3,0,0.4c0.1,0.1,0.1,0.1,0.2,0.1c0.1,0,0.1,0,0.2-0.1l0.3-0.3l0.3,0.3
				c0.1,0.1,0.1,0.1,0.2,0.1c0.1,0,0.1,0,0.2-0.1C13.6,7.5,13.6,7.4,13.5,7.3z"/>
		</g>
	</g>
	<g>
		<g>
			<path d="M14.6,5.1h-3.5c-0.1,0-0.3,0.1-0.3,0.3v3.1c0,0.1,0.1,0.3,0.3,0.3h3.5c0.1,0,0.3-0.1,0.3-0.3V5.4
				C14.8,5.2,14.7,5.1,14.6,5.1z M14.3,8.2h-3V5.6h3V8.2z"/>
		</g>
	</g>
	<g>
		<g>
			<path d="M14.6,9.3h-3.5c-0.1,0-0.3,0.1-0.3,0.3s0.1,0.3,0.3,0.3h3.5c0.1,0,0.3-0.1,0.3-0.3S14.7,9.3,14.6,9.3z"/>
		</g>
	</g>
	<g>
		<g>
			<path d="M14.6,10.4h-3.5c-0.1,0-0.3,0.1-0.3,0.3s0.1,0.3,0.3,0.3h3.5c0.1,0,0.3-0.1,0.3-0.3S14.7,10.4,14.6,10.4z"/>
		</g>
	</g>
	<g>
		<g>
			<path d="M6.9,11.5H3.4c-0.1,0-0.3,0.1-0.3,0.3S3.3,12,3.4,12h3.5c0.1,0,0.3-0.1,0.3-0.3S7.1,11.5,6.9,11.5z"/>
		</g>
	</g>
	<g>
		<g>
			<path d="M14.6,11.5h-3.5c-0.1,0-0.3,0.1-0.3,0.3s0.1,0.3,0.3,0.3h3.5c0.1,0,0.3-0.1,0.3-0.3S14.7,11.5,14.6,11.5z"/>
		</g>
	</g>
</g>
</svg>
