<?xml version="1.0" encoding="utf-8"?>
<!-- Generator: Adobe Illustrator 24.0.2, SVG Export Plug-In . SVG Version: 6.00 Build 0)  -->
<svg version="1.1" id="Layer_1" xmlns="http://www.w3.org/2000/svg" xmlns:xlink="http://www.w3.org/1999/xlink" x="0px" y="0px"
	 viewBox="0 0 18 24" style="enable-background:new 0 0 18 24;" xml:space="preserve">
<style type="text/css">
	.st0{fill:#FC6A55;}
	.st1{stroke:#FFFFFF;stroke-width:0.25;stroke-miterlimit:10;}
	.st2{fill:#656D7A;}
	.st3{fill:#FFFFFF;}
	.st4{filter:url(#Adobe_OpacityMaskFilter);}
	.st5{fill-rule:evenodd;clip-rule:evenodd;fill:#FFFFFF;}
	.st6{mask:url(#mask-2_8_);fill-rule:evenodd;clip-rule:evenodd;}
	.st7{filter:url(#Adobe_OpacityMaskFilter_1_);}
	.st8{mask:url(#mask-2_7_);fill-rule:evenodd;clip-rule:evenodd;}
	.st9{filter:url(#Adobe_OpacityMaskFilter_2_);}
	.st10{mask:url(#mask-2_6_);fill-rule:evenodd;clip-rule:evenodd;}
	.st11{filter:url(#Adobe_OpacityMaskFilter_3_);}
	.st12{mask:url(#mask-2_5_);fill-rule:evenodd;clip-rule:evenodd;}
	.st13{filter:url(#Adobe_OpacityMaskFilter_4_);}
	.st14{mask:url(#mask-2_2_);fill:none;stroke:#000000;stroke-width:2;}
	.st15{fill:#434343;}
	.st16{fill:#434343;stroke:#F9F9F9;stroke-width:0.25;stroke-miterlimit:10;}
	.st17{fill:none;stroke:#FC6A55;stroke-width:0.5;stroke-miterlimit:10;}
	.st18{fill:none;stroke:#FC6A55;stroke-width:0.75;stroke-miterlimit:10;}
	.st19{fill:#FC6A55;stroke:#FC6A55;stroke-width:0.5;stroke-miterlimit:10;}
	.st20{opacity:0.153;fill:url(#Path_144_);enable-background:new    ;}
	.st21{opacity:0.1;fill:#590BB2;enable-background:new    ;}
	.st22{fill:#8E8CA8;}
	.st23{fill:#F5F4F9;}
	.st24{fill:#FFD5B8;}
	.st25{fill:#FC8473;}
	.st26{fill:#1C3475;}
	.st27{fill:#DDD9E4;}
	.st28{fill:#828FB3;}
	.st29{opacity:7.584635e-02;fill:url(#Path_145_);enable-background:new    ;}
	.st30{fill:#FFBE92;}
	.st31{fill:#FB8E7F;}
	.st32{fill:#FDB1A6;}
	.st33{fill:#FC806F;}
	.st34{fill:#FFE783;}
	.st35{fill:#104478;}
	.st36{fill:none;stroke:#FFFFFF;stroke-miterlimit:10;}
	.st37{fill:none;stroke:#FC6A55;stroke-miterlimit:10;}
	.st38{fill:none;stroke:#000000;stroke-width:0.15;stroke-miterlimit:10;}
</style>
<g>
	<path d="M5.4,13.4h3.9v0.6H5.4V13.4z"/>
	<path d="M5.4,11.9h3.3v0.6H5.4V11.9z"/>
	<path d="M17.1,5.3h-3.3V4.1c0-0.2-0.1-0.3-0.3-0.3h-9c-0.2,0-0.3,0.1-0.3,0.3v1.2H0.9C0.4,5.3,0,5.7,0,6.2v9C0,15.6,0.4,16,0.9,16
		h6.6v1.8H4.8c-0.2,0-0.3,0.1-0.3,0.3v1.5H3.9v0.6h10.2v-0.6h-0.6v-1.5c0-0.2-0.1-0.3-0.3-0.3h-2.7V16h6.6c0.5,0,0.9-0.4,0.9-0.9v-9
		C18,5.7,17.6,5.3,17.1,5.3z M17.1,5.8c0.2,0,0.3,0.1,0.3,0.3v7.5h-3.6v-3.4l1.5-1.7c0.4-0.4,0.4-1.1,0-1.5c-0.4-0.4-1-0.6-1.5-0.3
		V5.8H17.1z M11.5,12.1l-0.9-0.8l2.7-3.2l0.9,0.8L11.5,12.1z M10.4,11.9l0.6,0.5l-0.7,0.2L10.4,11.9z M14.8,8.2l-0.2,0.2l-0.9-0.8
		l0.2-0.2c0.2-0.3,0.6-0.3,0.8-0.1C15,7.5,15,7.9,14.8,8.2z M4.8,4.3h8.4v2.9l-3.3,3.9c0,0-0.1,0.1-0.1,0.1L9.6,13
		c0,0.1,0,0.2,0.1,0.3c0.1,0.1,0.2,0.1,0.3,0.1l1.7-0.6c0.1,0,0.1,0,0.1-0.1l1.4-1.7v3.6H4.8V4.3z M0.9,5.8h3.3v7.8H0.6V6.2
		C0.6,6,0.7,5.8,0.9,5.8z M12.9,19.6H5.1v-1.2h7.8V19.6z M9.9,17.9H8.1V16h1.8V17.9z M17.1,15.4H0.9c-0.2,0-0.3-0.1-0.3-0.3v-0.9
		h3.6v0.6c0,0.2,0.1,0.3,0.3,0.3h9c0.2,0,0.3-0.1,0.3-0.3v-0.6h3.6v0.9C17.4,15.3,17.3,15.4,17.1,15.4z"/>
	<path d="M16.2,14.6h0.6v0.6h-0.6V14.6z"/>
	<path d="M5.4,4.9h1.2v0.6H5.4V4.9z"/>
	<path d="M7.2,4.9h5.1v0.6H7.2V4.9z"/>
	<path d="M5.4,6.4h6.9v0.6H5.4V6.4z"/>
	<path d="M5.4,7.9H6v0.6H5.4V7.9z"/>
	<path d="M6.6,7.9h0.6v0.6H6.6V7.9z"/>
	<path d="M7.8,7.9h3.3v0.6H7.8V7.9z"/>
	<path d="M5.4,9.4h1.8v0.6H5.4V9.4z"/>
	<path d="M7.8,9.4h2.1v0.6H7.8V9.4z"/>
</g>
</svg>
