<?xml version="1.0" encoding="utf-8"?>
<!-- Generator: Adobe Illustrator 24.0.2, SVG Export Plug-In . SVG Version: 6.00 Build 0)  -->
<svg version="1.1" id="Layer_1" xmlns="http://www.w3.org/2000/svg" xmlns:xlink="http://www.w3.org/1999/xlink" x="0px" y="0px"
	 viewBox="0 0 18 24" style="enable-background:new 0 0 18 24;" xml:space="preserve">
<style type="text/css">
	.st0{fill:#FC6A55;}
	.st1{stroke:#FFFFFF;stroke-width:0.25;stroke-miterlimit:10;}
	.st2{fill:#656D7A;}
	.st3{fill:#FFFFFF;}
	.st4{filter:url(#Adobe_OpacityMaskFilter);}
	.st5{fill-rule:evenodd;clip-rule:evenodd;fill:#FFFFFF;}
	.st6{mask:url(#mask-2_8_);fill-rule:evenodd;clip-rule:evenodd;}
	.st7{filter:url(#Adobe_OpacityMaskFilter_1_);}
	.st8{mask:url(#mask-2_7_);fill-rule:evenodd;clip-rule:evenodd;}
	.st9{filter:url(#Adobe_OpacityMaskFilter_2_);}
	.st10{mask:url(#mask-2_6_);fill-rule:evenodd;clip-rule:evenodd;}
	.st11{filter:url(#Adobe_OpacityMaskFilter_3_);}
	.st12{mask:url(#mask-2_5_);fill-rule:evenodd;clip-rule:evenodd;}
	.st13{filter:url(#Adobe_OpacityMaskFilter_4_);}
	.st14{mask:url(#mask-2_2_);fill:none;stroke:#000000;stroke-width:2;}
	.st15{fill:#434343;}
	.st16{fill:#434343;stroke:#F9F9F9;stroke-width:0.25;stroke-miterlimit:10;}
	.st17{fill:none;stroke:#FC6A55;stroke-width:0.5;stroke-miterlimit:10;}
	.st18{fill:none;stroke:#FC6A55;stroke-width:0.75;stroke-miterlimit:10;}
	.st19{fill:#FC6A55;stroke:#FC6A55;stroke-width:0.5;stroke-miterlimit:10;}
	.st20{opacity:0.153;fill:url(#Path_144_);enable-background:new    ;}
	.st21{opacity:0.1;fill:#590BB2;enable-background:new    ;}
	.st22{fill:#8E8CA8;}
	.st23{fill:#F5F4F9;}
	.st24{fill:#FFD5B8;}
	.st25{fill:#FC8473;}
	.st26{fill:#1C3475;}
	.st27{fill:#DDD9E4;}
	.st28{fill:#828FB3;}
	.st29{opacity:7.584635e-02;fill:url(#Path_145_);enable-background:new    ;}
	.st30{fill:#FFBE92;}
	.st31{fill:#FB8E7F;}
	.st32{fill:#FDB1A6;}
	.st33{fill:#FC806F;}
	.st34{fill:#FFE783;}
	.st35{fill:#104478;}
	.st36{fill:none;stroke:#FFFFFF;stroke-miterlimit:10;}
	.st37{fill:none;stroke:#FC6A55;stroke-miterlimit:10;}
	.st38{fill:none;stroke:#000000;stroke-width:0.15;stroke-miterlimit:10;}
</style>
<g>
	<path d="M2.8,2.6c-0.2,0-0.4,0.1-0.4,0.2c0,0.1,0.2,0.2,0.4,0.2C3,3.1,3.2,3,3.2,2.8C3.2,2.7,3,2.6,2.8,2.6z M2.8,2.9
		c-0.1,0-0.1,0-0.1-0.1c0,0,0.1-0.1,0.1-0.1c0.1,0,0.1,0,0.1,0.1C2.9,2.9,2.8,2.9,2.8,2.9z"/>
	<path d="M3.8,2.6c-0.2,0-0.4,0.1-0.4,0.2c0,0.1,0.2,0.2,0.4,0.2C4,3.1,4.2,3,4.2,2.8C4.2,2.7,4,2.6,3.8,2.6z M3.8,2.9
		c-0.1,0-0.1,0-0.1-0.1c0,0,0.1-0.1,0.1-0.1c0.1,0,0.1,0,0.1,0.1C3.9,2.9,3.9,2.9,3.8,2.9z"/>
	<path d="M4.8,2.6c-0.2,0-0.4,0.1-0.4,0.2c0,0.1,0.2,0.2,0.4,0.2c0.2,0,0.4-0.1,0.4-0.2C5.3,2.7,5.1,2.6,4.8,2.6z M4.8,2.9
		c-0.1,0-0.1,0-0.1-0.1c0,0,0.1-0.1,0.1-0.1c0.1,0,0.1,0,0.1,0.1C5,2.9,4.9,2.9,4.8,2.9z"/>
	<path d="M5.1,3.8H2.8c-0.1,0-0.1,0-0.1,0.1c0,0,0.1,0.1,0.1,0.1h2.4c0.1,0,0.1,0,0.1-0.1C5.3,3.8,5.2,3.8,5.1,3.8z"/>
	<path d="M5.1,4.2H2.8c-0.1,0-0.1,0-0.1,0.1c0,0,0.1,0.1,0.1,0.1h2.4c0.1,0,0.1,0,0.1-0.1C5.3,4.2,5.2,4.2,5.1,4.2z"/>
	<path d="M10.1,4.6H7.8c-0.1,0-0.1,0-0.1,0.1c0,0,0.1,0.1,0.1,0.1h2.4c0.1,0,0.1,0,0.1-0.1C10.3,4.6,10.2,4.6,10.1,4.6z"/>
	<path d="M10.1,5.6H7.8c-0.1,0-0.1,0-0.1,0.1c0,0,0.1,0.1,0.1,0.1h2.4c0.1,0,0.1,0,0.1-0.1C10.3,5.6,10.2,5.6,10.1,5.6z"/>
	<path d="M5.1,5H2.8C2.7,5,2.6,5,2.6,5.1c0,0,0.1,0.1,0.1,0.1h2.4c0.1,0,0.1,0,0.1-0.1C5.3,5,5.2,5,5.1,5z"/>
	<path d="M5.1,5.4H2.8c-0.1,0-0.1,0-0.1,0.1c0,0,0.1,0.1,0.1,0.1h2.4c0.1,0,0.1,0,0.1-0.1C5.3,5.4,5.2,5.4,5.1,5.4z"/>
	<path d="M5.1,5.8H2.8c-0.1,0-0.1,0-0.1,0.1c0,0,0.1,0.1,0.1,0.1h2.4c0.1,0,0.1,0,0.1-0.1C5.3,5.8,5.2,5.8,5.1,5.8z"/>
	<path d="M5.1,6.1H2.8c-0.1,0-0.1,0-0.1,0.1c0,0,0.1,0.1,0.1,0.1h2.4c0.1,0,0.1,0,0.1-0.1C5.3,6.2,5.2,6.1,5.1,6.1z"/>
	<path d="M5.1,6.5H2.8c-0.1,0-0.1,0-0.1,0.1c0,0,0.1,0.1,0.1,0.1h2.4c0.1,0,0.1,0,0.1-0.1C5.3,6.6,5.2,6.5,5.1,6.5z"/>
	<path d="M5.1,6.9H2.8C2.7,6.9,2.6,7,2.6,7c0,0,0.1,0.1,0.1,0.1h2.4c0.1,0,0.1,0,0.1-0.1C5.3,7,5.2,6.9,5.1,6.9z"/>
	<path d="M5.1,7.3H2.8c-0.1,0-0.1,0-0.1,0.1c0,0,0.1,0.1,0.1,0.1h2.4c0.1,0,0.1,0,0.1-0.1C5.3,7.4,5.2,7.3,5.1,7.3z"/>
	<path d="M5.8,3.7v3.8c0,0,0,0.1-0.1,0.1c0,0-0.1,0-0.1-0.1V3.7C5.7,3.7,5.7,3.7,5.8,3.7C5.8,3.7,5.8,3.7,5.8,3.7z"/>
	<path d="M10.7,2.3H2.3C2,2.3,1.7,2.4,1.7,2.6v5C1.7,7.8,2,8,2.3,8h4.2c0.1,0,0.1,0,0.1-0.1c0,0-0.1-0.1-0.1-0.1H2.3
		C2.2,7.8,2,7.7,2,7.6V3.4h9v4.2c0,0.1-0.2,0.2-0.3,0.2H7.4c-0.1,0-0.1,0-0.1,0.1c0,0,0.1,0.1,0.1,0.1h3.3c0.3,0,0.6-0.2,0.6-0.4v-5
		C11.3,2.4,11,2.3,10.7,2.3z M11,3.2H2V2.6c0-0.1,0.2-0.2,0.3-0.2h8.3c0.2,0,0.3,0.1,0.3,0.2V3.2z"/>
	<path d="M10.1,2.6H9.3c-0.1,0-0.1,0-0.1,0.1c0,0,0.1,0.1,0.1,0.1h0.8c0.1,0,0.1,0,0.1,0.1s-0.1,0.1-0.1,0.1H6.4
		c-0.1,0-0.1,0-0.1-0.1s0.1-0.1,0.1-0.1h2c0.1,0,0.1,0,0.1-0.1c0,0-0.1-0.1-0.1-0.1h-2C6.1,2.6,6,2.7,6,2.8C6,3,6.1,3.1,6.4,3.1h3.7
		c0.2,0,0.4-0.1,0.4-0.2C10.5,2.7,10.3,2.6,10.1,2.6z"/>
</g>
<path d="M0.9,10.3h11.2c0.5,0,0.9-0.4,0.9-0.9V8.4h-0.6V2.2c0-0.5-0.4-0.9-0.9-0.9H1.6C1,1.3,0.6,1.7,0.6,2.2v6.2H0v0.9
	C0,9.9,0.4,10.3,0.9,10.3z M7.9,9.7H5.2L4.8,9h3.3L7.9,9.7z M12.4,9v0.3c0,0.2-0.1,0.3-0.3,0.3H8.6L8.9,9H12.4z M1.2,2.2
	c0-0.2,0.1-0.3,0.3-0.3h9.9c0.2,0,0.3,0.1,0.3,0.3v6.2H1.2V2.2z M0.6,9h3.5l0.3,0.6H0.9c-0.2,0-0.3-0.1-0.3-0.3V9z"/>
<path d="M15.3,2.9c-0.1,0-0.2,0-0.3,0.1l-1.9,1.9c-0.1,0.1-0.1,0.3,0,0.4L15,7.1c0.1,0.1,0.3,0.1,0.4,0C15.5,7,15.5,7,15.5,6.9V5.9
	h0.3c0.2,0,0.3,0.1,0.3,0.3V10c0,0.2,0.1,0.3,0.3,0.3h1.2c0.2,0,0.3-0.1,0.3-0.3V6.3c0-1.2-1-2.2-2.2-2.2h-0.3V3.2
	C15.5,3,15.4,2.9,15.3,2.9z M15.8,4.7c0.9,0,1.6,0.7,1.6,1.6v3.4h-0.6V6.3c0-0.5-0.4-0.9-0.9-0.9h-0.6c-0.2,0-0.3,0.1-0.3,0.3v0.5
	L13.8,5l1.1-1.1v0.5c0,0.2,0.1,0.3,0.3,0.3H15.8z"/>
<path d="M3.3,18.3c0.1,0,0.2,0,0.3-0.1l1.9-1.9c0.1-0.1,0.1-0.3,0-0.4l-1.9-1.9c-0.1-0.1-0.3-0.1-0.4,0c-0.1,0.1-0.1,0.1-0.1,0.2
	v0.9H2.8c-0.2,0-0.3-0.1-0.3-0.3v-3.7c0-0.2-0.1-0.3-0.3-0.3H0.9c-0.2,0-0.3,0.1-0.3,0.3v3.7c0,1.2,1,2.2,2.2,2.2h0.3V18
	C3.1,18.2,3.2,18.3,3.3,18.3z M2.8,16.5c-0.9,0-1.6-0.7-1.6-1.6v-3.4h0.6v3.4c0,0.5,0.4,0.9,0.9,0.9h0.6c0.2,0,0.3-0.1,0.3-0.3v-0.5
	l1.1,1.1l-1.1,1.1v-0.5c0-0.2-0.1-0.3-0.3-0.3H2.8z"/>
<g>
	<path d="M7.5,13.2c-0.1,0-0.2,0.1-0.2,0.2c0,0,0,0,0,0v0.8c0,0.1,0.1,0.2,0.2,0.2s0.2-0.1,0.2-0.2v-0.8C7.7,13.3,7.6,13.2,7.5,13.2
		C7.5,13.2,7.5,13.2,7.5,13.2z"/>
	<path d="M17.6,14.4l-1.1-1.1c0,0-0.1,0-0.1,0H16v-0.6c0-0.1-0.1-0.2-0.2-0.2c0,0,0,0,0,0h-1.5v-0.6c0-0.1-0.1-0.2-0.2-0.2
		c0,0,0,0,0,0H7c-0.1,0-0.2,0.1-0.2,0.2c0,0,0,0,0,0v10C6.8,22,6.9,22,7,22c0,0,0,0,0,0h1.5v0.2c0,0.1,0.1,0.2,0.2,0.2c0,0,0,0,0,0
		h1.5v0.2c0,0.1,0.1,0.2,0.2,0.2c0,0,0,0,0,0h7.2c0.1,0,0.2-0.1,0.2-0.2c0,0,0,0,0,0v-8C17.7,14.5,17.6,14.5,17.6,14.4z M17.1,14.4
		h-0.6v-0.6L17.1,14.4z M7.1,21.7V12H14v0.5H8.6c-0.1,0-0.2,0.1-0.2,0.2c0,0,0,0,0,0v9.1H7.1z M8.8,22.1v-9.2h6.9v0.5h-5.4
		c-0.1,0-0.2,0.1-0.2,0.2c0,0,0,0,0,0v8.6H8.8z M10.4,22.4v-8.8h5.8v1c0,0.1,0.1,0.2,0.2,0.2h0h0.9v7.7H10.4z"/>
	<path d="M16.4,15.2h-5c-0.1,0-0.2,0.1-0.2,0.2c0,0.1,0.1,0.2,0.2,0.2h5c0.1,0,0.2-0.1,0.2-0.2C16.6,15.3,16.5,15.2,16.4,15.2z"/>
	<path d="M16.4,16h-5c-0.1,0-0.2,0.1-0.2,0.2c0,0.1,0.1,0.2,0.2,0.2h5c0.1,0,0.2-0.1,0.2-0.2C16.6,16,16.5,16,16.4,16z"/>
	<path d="M16.4,16.7h-5c-0.1,0-0.2,0.1-0.2,0.2c0,0.1,0.1,0.2,0.2,0.2h5c0.1,0,0.2-0.1,0.2-0.2C16.6,16.8,16.5,16.7,16.4,16.7z"/>
	<path d="M16.4,17.5h-5c-0.1,0-0.2,0.1-0.2,0.2s0.1,0.2,0.2,0.2h5c0.1,0,0.2-0.1,0.2-0.2S16.5,17.5,16.4,17.5z"/>
	<path d="M16.4,18.2h-5c-0.1,0-0.2,0.1-0.2,0.2s0.1,0.2,0.2,0.2h5c0.1,0,0.2-0.1,0.2-0.2S16.5,18.2,16.4,18.2z"/>
	<path d="M16.4,19h-5c-0.1,0-0.2,0.1-0.2,0.2c0,0.1,0.1,0.2,0.2,0.2h5c0.1,0,0.2-0.1,0.2-0.2C16.6,19,16.5,19,16.4,19z"/>
	<path d="M16.4,19.7h-5c-0.1,0-0.2,0.1-0.2,0.2c0,0.1,0.1,0.2,0.2,0.2h5c0.1,0,0.2-0.1,0.2-0.2C16.6,19.8,16.5,19.7,16.4,19.7z"/>
	<path d="M16.4,20.5h-5c-0.1,0-0.2,0.1-0.2,0.2s0.1,0.2,0.2,0.2h5c0.1,0,0.2-0.1,0.2-0.2S16.5,20.5,16.4,20.5z"/>
	<path d="M16.4,21.2h-5c-0.1,0-0.2,0.1-0.2,0.2s0.1,0.2,0.2,0.2h5c0.1,0,0.2-0.1,0.2-0.2S16.5,21.2,16.4,21.2z"/>
</g>
<rect x="6.7" y="4" class="st38" width="4" height="3"/>
</svg>
