<?xml version="1.0" encoding="utf-8"?>
<!-- Generator: Adobe Illustrator 24.0.2, SVG Export Plug-In . SVG Version: 6.00 Build 0)  -->
<svg version="1.1" id="Layer_1" xmlns="http://www.w3.org/2000/svg" xmlns:xlink="http://www.w3.org/1999/xlink" x="0px" y="0px"
	 viewBox="0 0 18 24" style="enable-background:new 0 0 18 24;" xml:space="preserve">
<style type="text/css">
	.st0{fill:#FC6A55;}
	.st1{stroke:#FFFFFF;stroke-width:0.25;stroke-miterlimit:10;}
	.st2{fill:#656D7A;}
	.st3{fill:#FFFFFF;}
	.st4{filter:url(#Adobe_OpacityMaskFilter);}
	.st5{fill-rule:evenodd;clip-rule:evenodd;fill:#FFFFFF;}
	.st6{mask:url(#mask-2_8_);fill-rule:evenodd;clip-rule:evenodd;}
	.st7{filter:url(#Adobe_OpacityMaskFilter_1_);}
	.st8{mask:url(#mask-2_7_);fill-rule:evenodd;clip-rule:evenodd;}
	.st9{filter:url(#Adobe_OpacityMaskFilter_2_);}
	.st10{mask:url(#mask-2_6_);fill-rule:evenodd;clip-rule:evenodd;}
	.st11{filter:url(#Adobe_OpacityMaskFilter_3_);}
	.st12{mask:url(#mask-2_5_);fill-rule:evenodd;clip-rule:evenodd;}
	.st13{filter:url(#Adobe_OpacityMaskFilter_4_);}
	.st14{mask:url(#mask-2_2_);fill:none;stroke:#000000;stroke-width:2;}
	.st15{fill:#434343;}
	.st16{fill:#434343;stroke:#F9F9F9;stroke-width:0.25;stroke-miterlimit:10;}
	.st17{fill:none;stroke:#FC6A55;stroke-width:0.5;stroke-miterlimit:10;}
	.st18{fill:none;stroke:#FC6A55;stroke-width:0.75;stroke-miterlimit:10;}
	.st19{fill:#FC6A55;stroke:#FC6A55;stroke-width:0.5;stroke-miterlimit:10;}
	.st20{opacity:0.153;fill:url(#Path_144_);enable-background:new    ;}
	.st21{opacity:0.1;fill:#590BB2;enable-background:new    ;}
	.st22{fill:#8E8CA8;}
	.st23{fill:#F5F4F9;}
	.st24{fill:#FFD5B8;}
	.st25{fill:#FC8473;}
	.st26{fill:#1C3475;}
	.st27{fill:#DDD9E4;}
	.st28{fill:#828FB3;}
	.st29{opacity:7.584635e-02;fill:url(#Path_145_);enable-background:new    ;}
	.st30{fill:#FFBE92;}
	.st31{fill:#FB8E7F;}
	.st32{fill:#FDB1A6;}
	.st33{fill:#FC806F;}
	.st34{fill:#FFE783;}
	.st35{fill:#104478;}
	.st36{fill:none;stroke:#FFFFFF;stroke-miterlimit:10;}
	.st37{fill:none;stroke:#FC6A55;stroke-miterlimit:10;}
	.st38{fill:none;stroke:#000000;stroke-width:0.15;stroke-miterlimit:10;}
</style>
<g>
	<path class="st0" d="M8.7,15.8h0.7v0.7H8.7V15.8z"/>
	<path class="st0" d="M16.6,1.6H1.4C0.6,1.6,0,2.2,0,3v13.5c0,0.8,0.6,1.4,1.4,1.4h5.1l-0.8,2.4H3.8c-0.6,0-1,0.5-1,1s0.5,1,1,1
		h10.4c0.6,0,1-0.5,1-1s-0.5-1-1-1h-1.8l-0.8-2.4h5.1c0.8,0,1.4-0.6,1.4-1.4V3C18,2.2,17.4,1.6,16.6,1.6z M1.4,2.3h15.2
		c0.4,0,0.7,0.3,0.7,0.7v1.4H0.7V3C0.7,2.6,1,2.3,1.4,2.3z M17.3,5.1v9.3H0.7V5.1H17.3z M14.5,21.3c0,0.2-0.2,0.3-0.3,0.3H3.8
		c-0.2,0-0.3-0.2-0.3-0.3S3.6,21,3.8,21h10.4C14.4,21,14.5,21.2,14.5,21.3z M11.6,20.3H6.4l0.8-2.4h3.7L11.6,20.3z M16.6,17.2H1.4
		c-0.4,0-0.7-0.3-0.7-0.7v-1.4h16.6v1.4C17.3,16.9,17,17.2,16.6,17.2z"/>
	<path class="st0" d="M1.4,3h0.7v0.7H1.4V3z"/>
	<path class="st0" d="M2.8,3h0.7v0.7H2.8V3z"/>
	<path class="st0" d="M4.2,3h0.7v0.7H4.2V3z"/>
	<path class="st0" d="M11.7,11.5h0.6v0.6h-0.6V11.5z"/>
	<path class="st0" d="M12.9,11.5h3.7v0.6h-3.7V11.5z"/>
	<path class="st0" d="M11,12.8h5.5v0.6H11V12.8z"/>
	<path class="st0" d="M16.6,10H16V7.2h-0.6V10h-0.6V8.8h-0.6V10h-0.6V8.2h-0.6V10h-0.6V9.1h-0.6V10H11v0.6h5.5V10z"/>
	<g>
		<path class="st0" d="M9.9,11.3l-0.4-0.1c0-0.1-0.1-0.2-0.1-0.4l0.2-0.4c0-0.1,0-0.1,0-0.2L9.1,9.8c0,0-0.1-0.1-0.2,0L8.5,10
			C8.4,10,8.4,10,8.3,10c-0.1,0-0.1-0.1-0.2-0.1L8,9.4C8,9.4,8,9.3,7.9,9.3H7.3c-0.1,0-0.1,0-0.1,0.1L7,9.9C6.9,9.9,6.8,10,6.7,10
			L6.3,9.8c-0.1,0-0.1,0-0.2,0l-0.4,0.4c0,0-0.1,0.1,0,0.2l0.2,0.4c-0.1,0.1-0.1,0.2-0.1,0.4l-0.4,0.1c-0.1,0-0.1,0.1-0.1,0.1v0.6
			c0,0.1,0,0.1,0.1,0.1l0.4,0.1c0,0.1,0.1,0.2,0.1,0.4l-0.2,0.4c0,0.1,0,0.1,0,0.2l0.4,0.4c0,0,0.1,0.1,0.2,0l0.4-0.2
			c0.1,0.1,0.2,0.1,0.4,0.1l0.1,0.4c0,0.1,0.1,0.1,0.1,0.1h0.6c0.1,0,0.1,0,0.1-0.1l0.1-0.4c0.1,0,0.2-0.1,0.4-0.1l0.4,0.2
			c0.1,0,0.1,0,0.2,0l0.4-0.4c0,0,0.1-0.1,0-0.2l-0.2-0.4c0.1-0.1,0.1-0.2,0.1-0.4l0.4-0.1c0.1,0,0.1-0.1,0.1-0.1v-0.6
			C10,11.4,10,11.3,9.9,11.3z M9.7,12l-0.4,0.1c-0.1,0-0.1,0.1-0.1,0.1c0,0.2-0.1,0.3-0.2,0.4c0,0,0,0.1,0,0.1l0.2,0.4l-0.3,0.3
			l-0.4-0.2c0,0-0.1,0-0.1,0c-0.1,0.1-0.3,0.1-0.4,0.2c-0.1,0-0.1,0.1-0.1,0.1l-0.1,0.4H7.4l-0.1-0.4c0-0.1-0.1-0.1-0.1-0.1
			c-0.2,0-0.3-0.1-0.4-0.2c0,0-0.1,0-0.1,0l-0.4,0.2l-0.3-0.3l0.2-0.4c0,0,0-0.1,0-0.1C6.1,12.5,6,12.3,6,12.2
			c0-0.1-0.1-0.1-0.1-0.1L5.4,12v-0.4l0.4-0.1c0.1,0,0.1-0.1,0.1-0.1c0-0.2,0.1-0.3,0.2-0.4c0,0,0-0.1,0-0.1l-0.2-0.4l0.3-0.3
			l0.4,0.2c0,0,0.1,0,0.1,0c0.1-0.1,0.3-0.1,0.4-0.2c0.1,0,0.1-0.1,0.1-0.1l0.1-0.4h0.4L7.9,10c0,0.1,0.1,0.1,0.1,0.1
			c0.2,0,0.3,0.1,0.4,0.2c0,0,0.1,0,0.1,0l0.4-0.2l0.3,0.3L9,10.7c0,0,0,0.1,0,0.1c0.1,0.1,0.1,0.3,0.2,0.4c0,0.1,0.1,0.1,0.1,0.1
			l0.4,0.1V12z"/>
		<path class="st0" d="M7.6,10.6c-0.6,0-1.1,0.5-1.1,1.1c0,0.6,0.5,1.1,1.1,1.1c0.6,0,1.1-0.5,1.1-1.1C8.7,11.1,8.2,10.6,7.6,10.6z
			 M7.6,12.6c-0.5,0-0.9-0.4-0.9-0.9c0-0.5,0.4-0.9,0.9-0.9c0.5,0,0.9,0.4,0.9,0.9C8.4,12.2,8,12.6,7.6,12.6z"/>
		<path class="st0" d="M8.3,7.3h0.3v2.3H8.3V7.3z"/>
		<path class="st0" d="M2.3,12.9v0.6c0,0.1,0.1,0.1,0.1,0.1h3v-0.3H2.6v-0.4h1.7c0,0,0,0,0.1,0l0.6-0.3c0,0,0.1-0.1,0.1-0.1
			c0-0.1,0-0.1-0.1-0.1L4.4,12c0,0,0,0-0.1,0H2.6V7.2H8c0.3,0,0.6-0.3,0.6-0.6V6.3c0-0.1-0.1-0.1-0.1-0.1H8v0.3h0.3v0.1
			c0,0.2-0.1,0.3-0.3,0.3c-0.2,0-0.3-0.1-0.3-0.3V6.2C7.7,6,7.8,5.9,8,5.9h0.6c0.2,0,0.3,0.1,0.3,0.3v3.3h0.3V6.2
			c0-0.3-0.3-0.6-0.6-0.6H2.3C2,5.6,1.7,5.9,1.7,6.2v0.4c0,0.3,0.3,0.6,0.6,0.6V12H2.2c-0.2,0-0.4,0.2-0.4,0.4
			c0,0.2,0.2,0.4,0.4,0.4H2.3z M2,6.6V6.2C2,6,2.1,5.9,2.3,5.9h5.2C7.5,6,7.4,6.1,7.4,6.2v0.4c0,0.1,0,0.2,0.1,0.3H2.3
			C2.1,6.9,2,6.8,2,6.6z M4.5,12.5l-0.3,0.1H4.2v-0.3h0.1L4.5,12.5z M2,12.5c0-0.1,0.1-0.1,0.1-0.1h1.7v0.3H2.2
			C2.1,12.6,2,12.5,2,12.5z"/>
		<path class="st0" d="M1.7,7.8H2v2.9H1.7V7.8z"/>
		<path class="st0" d="M7.3,7.9V7.6H5.4c0,0-0.1,0-0.1,0L5.1,7.9C4.5,7.5,3.6,7.5,3,8.1C3,8.1,3,8.2,3,8.3l1,1c0,0,0.1,0,0.1,0h1.4
			c0.1,0,0.1-0.1,0.1-0.1c0-0.4-0.2-0.8-0.4-1.1l0.2-0.2H7.3z M5.4,9H4.2L3.4,8.2c0.4-0.4,1.1-0.4,1.5-0.1L4.5,8.5l0.2,0.2l0.4-0.4
			C5.3,8.5,5.4,8.8,5.4,9z"/>
		<path class="st0" d="M7.6,7.6h0.3v0.3H7.6V7.6z"/>
		<path class="st0" d="M3.3,9.8h0.3V10H3.3V9.8z"/>
		<path class="st0" d="M3.9,9.8h1.4V10H3.9V9.8z"/>
		<path class="st0" d="M3,10.3h2.3v0.3H3V10.3z"/>
		<path class="st0" d="M6.2,8.2h0.3v0.3H6.2V8.2z"/>
		<path class="st0" d="M6.7,8.2h1.1v0.3H6.7V8.2z"/>
		<path class="st0" d="M6.2,8.8h1.7V9H6.2V8.8z"/>
		<path class="st0" d="M3,10.9h1.9v0.3H3V10.9z"/>
	</g>
</g>
</svg>
