<?xml version="1.0" encoding="utf-8"?>
<!-- Generator: Adobe Illustrator 24.0.2, SVG Export Plug-In . SVG Version: 6.00 Build 0)  -->
<svg version="1.1" id="Layer_1" xmlns="http://www.w3.org/2000/svg" xmlns:xlink="http://www.w3.org/1999/xlink" x="0px" y="0px"
	 viewBox="0 0 18 24" style="enable-background:new 0 0 18 24;" xml:space="preserve">
<style type="text/css">
	.st0{fill:#FC6A55;}
	.st1{stroke:#FFFFFF;stroke-width:0.25;stroke-miterlimit:10;}
	.st2{fill:#656D7A;}
	.st3{fill:#FFFFFF;}
	.st4{filter:url(#Adobe_OpacityMaskFilter);}
	.st5{fill-rule:evenodd;clip-rule:evenodd;fill:#FFFFFF;}
	.st6{mask:url(#mask-2_8_);fill-rule:evenodd;clip-rule:evenodd;}
	.st7{filter:url(#Adobe_OpacityMaskFilter_1_);}
	.st8{mask:url(#mask-2_7_);fill-rule:evenodd;clip-rule:evenodd;}
	.st9{filter:url(#Adobe_OpacityMaskFilter_2_);}
	.st10{mask:url(#mask-2_6_);fill-rule:evenodd;clip-rule:evenodd;}
	.st11{filter:url(#Adobe_OpacityMaskFilter_3_);}
	.st12{mask:url(#mask-2_5_);fill-rule:evenodd;clip-rule:evenodd;}
	.st13{filter:url(#Adobe_OpacityMaskFilter_4_);}
	.st14{mask:url(#mask-2_2_);fill:none;stroke:#000000;stroke-width:2;}
	.st15{fill:#434343;}
	.st16{fill:#434343;stroke:#F9F9F9;stroke-width:0.25;stroke-miterlimit:10;}
	.st17{fill:none;stroke:#FC6A55;stroke-width:0.5;stroke-miterlimit:10;}
	.st18{fill:none;stroke:#FC6A55;stroke-width:0.75;stroke-miterlimit:10;}
	.st19{fill:#FC6A55;stroke:#FC6A55;stroke-width:0.5;stroke-miterlimit:10;}
	.st20{opacity:0.153;fill:url(#Path_144_);enable-background:new    ;}
	.st21{opacity:0.1;fill:#590BB2;enable-background:new    ;}
	.st22{fill:#8E8CA8;}
	.st23{fill:#F5F4F9;}
	.st24{fill:#FFD5B8;}
	.st25{fill:#FC8473;}
	.st26{fill:#1C3475;}
	.st27{fill:#DDD9E4;}
	.st28{fill:#828FB3;}
	.st29{opacity:7.584635e-02;fill:url(#Path_145_);enable-background:new    ;}
	.st30{fill:#FFBE92;}
	.st31{fill:#FB8E7F;}
	.st32{fill:#FDB1A6;}
	.st33{fill:#FC806F;}
	.st34{fill:#FFE783;}
	.st35{fill:#104478;}
	.st36{fill:none;stroke:#FFFFFF;stroke-miterlimit:10;}
	.st37{fill:none;stroke:#FC6A55;stroke-miterlimit:10;}
	.st38{fill:none;stroke:#000000;stroke-width:0.15;stroke-miterlimit:10;}
</style>
<g id="GD001">
	<path class="st0" d="M17,14V7.1c0-0.7-0.6-1.3-1.3-1.3H3.3C2.5,5.8,2,6.4,2,7.1v3.9H1.3c-0.7,0-1.3,0.6-1.3,1.3v7.2
		c0,0.7,0.6,1.3,1.3,1.3h8.5v-0.7H2.4c0.1-0.2,0.2-0.4,0.2-0.7V9.1h13.7V14H17z M0.7,19.5v-7.2c0-0.4,0.3-0.7,0.7-0.7H2v7.8
		c0,0.4-0.3,0.7-0.7,0.7S0.7,19.9,0.7,19.5z M2.6,8.4V7.1c0-0.4,0.3-0.7,0.7-0.7h12.4c0.4,0,0.7,0.3,0.7,0.7v1.3H2.6z"/>
	<path class="st0" d="M15.6,15.9c-0.8-1.2-2.4-1.6-3.6-0.8s-1.6,2.4-0.8,3.6c0.8,1.2,2.4,1.6,3.6,0.8C16,18.7,16.3,17.1,15.6,15.9z
		 M14.4,18.9c-0.9,0.6-2.1,0.3-2.7-0.6c-0.6-0.9-0.3-2.1,0.6-2.7c0.9-0.6,2.1-0.3,2.7,0.6c0,0,0,0,0,0
		C15.6,17.1,15.3,18.3,14.4,18.9L14.4,18.9z"/>
	<path class="st0" d="M16.2,19.9c1.5-1.6,1.4-4-0.2-5.5c-1.6-1.5-4-1.4-5.5,0.2s-1.4,4,0.2,5.5c1,1,2.5,1.3,3.9,0.9l1.6,2.6
		c0.3,0.5,0.9,0.6,1.4,0.3c0.4-0.3,0.6-0.9,0.3-1.3L16.2,19.9z M10.6,19c-1-1.5-0.5-3.5,1-4.5s3.5-0.5,4.5,1c1,1.5,0.5,3.5-1,4.5
		C13.6,21,11.6,20.5,10.6,19z M17.3,23.1c0,0.2-0.2,0.3-0.4,0.2c-0.1,0-0.2-0.1-0.2-0.1l-1.6-2.5c0.1,0,0.2-0.1,0.3-0.2
		c0.1-0.1,0.2-0.1,0.3-0.2l1.6,2.5C17.4,22.9,17.4,23,17.3,23.1L17.3,23.1z"/>
	<path class="st0" d="M3.3,7.1h0.7v0.7H3.3V7.1z"/>
	<path class="st0" d="M4.6,7.1h0.7v0.7H4.6V7.1z"/>
	<path class="st0" d="M5.9,7.1h0.7v0.7H5.9V7.1z"/>
	<path class="st0" d="M3.6,21.5h6.8v0.7H3.6V21.5z"/>
	<path class="st0" d="M11.1,21.5h0.7v0.7h-0.7V21.5z"/>
	<path class="st0" d="M14,10.7v-0.7H9.8c-0.1,0-0.1,0-0.2,0L8.2,11c-0.9-1.1-2.6-1.2-3.7-0.3s-1.2,2.6-0.3,3.7s2.6,1.2,3.7,0.3
		c0.9-0.8,1.2-2,0.7-3.1l1.3-0.8H14z M4.2,12.7c0-0.7,0.4-1.4,1-1.7l0.6,1.7L5,14.3C4.5,13.9,4.2,13.3,4.2,12.7L4.2,12.7z M5.6,14.6
		l0.7-1.3l1,1C6.8,14.6,6.2,14.7,5.6,14.6L5.6,14.6z M8.2,12.7c0,0.4-0.1,0.8-0.4,1.1l-1.3-1.3l-0.6-1.8c0.6-0.1,1.3,0.1,1.7,0.6
		L7,11.8l0.3,0.6L8,11.9C8.1,12.1,8.2,12.4,8.2,12.7L8.2,12.7z"/>
	<path class="st0" d="M14.7,10.1h0.7v0.7h-0.7V10.1z"/>
	<path class="st0" d="M10.8,11.4h4.6V12h-4.6V11.4z"/>
	<path class="st0" d="M4.6,16.3h0.7v0.7H4.6V16.3z"/>
	<path class="st0" d="M5.9,16.3h2.6v0.7H5.9V16.3z"/>
	<path class="st0" d="M3.9,17.6h3.9v0.7H3.9V17.6z"/>
</g>
</svg>
