<?xml version="1.0" encoding="utf-8"?>
<!-- Generator: Adobe Illustrator 24.0.2, SVG Export Plug-In . SVG Version: 6.00 Build 0)  -->
<svg version="1.1" id="Layer_1" xmlns="http://www.w3.org/2000/svg" xmlns:xlink="http://www.w3.org/1999/xlink" x="0px" y="0px"
	 viewBox="0 0 18 24" style="enable-background:new 0 0 18 24;" xml:space="preserve">
<style type="text/css">
	.st0{fill:#FC6A55;}
	.st1{stroke:#FFFFFF;stroke-width:0.25;stroke-miterlimit:10;}
	.st2{fill:#656D7A;}
	.st3{fill:#FFFFFF;}
	.st4{filter:url(#Adobe_OpacityMaskFilter);}
	.st5{fill-rule:evenodd;clip-rule:evenodd;fill:#FFFFFF;}
	.st6{mask:url(#mask-2_8_);fill-rule:evenodd;clip-rule:evenodd;}
	.st7{filter:url(#Adobe_OpacityMaskFilter_1_);}
	.st8{mask:url(#mask-2_7_);fill-rule:evenodd;clip-rule:evenodd;}
	.st9{filter:url(#Adobe_OpacityMaskFilter_2_);}
	.st10{mask:url(#mask-2_6_);fill-rule:evenodd;clip-rule:evenodd;}
	.st11{filter:url(#Adobe_OpacityMaskFilter_3_);}
	.st12{mask:url(#mask-2_5_);fill-rule:evenodd;clip-rule:evenodd;}
	.st13{filter:url(#Adobe_OpacityMaskFilter_4_);}
	.st14{mask:url(#mask-2_2_);fill:none;stroke:#000000;stroke-width:2;}
	.st15{fill:#434343;}
	.st16{fill:#434343;stroke:#F9F9F9;stroke-width:0.25;stroke-miterlimit:10;}
	.st17{fill:none;stroke:#FC6A55;stroke-width:0.5;stroke-miterlimit:10;}
	.st18{fill:none;stroke:#FC6A55;stroke-width:0.75;stroke-miterlimit:10;}
	.st19{fill:#FC6A55;stroke:#FC6A55;stroke-width:0.5;stroke-miterlimit:10;}
	.st20{opacity:0.153;fill:url(#Path_144_);enable-background:new    ;}
	.st21{opacity:0.1;fill:#590BB2;enable-background:new    ;}
	.st22{fill:#8E8CA8;}
	.st23{fill:#F5F4F9;}
	.st24{fill:#FFD5B8;}
	.st25{fill:#FC8473;}
	.st26{fill:#1C3475;}
	.st27{fill:#DDD9E4;}
	.st28{fill:#828FB3;}
	.st29{opacity:7.584635e-02;fill:url(#Path_145_);enable-background:new    ;}
	.st30{fill:#FFBE92;}
	.st31{fill:#FB8E7F;}
	.st32{fill:#FDB1A6;}
	.st33{fill:#FC806F;}
	.st34{fill:#FFE783;}
	.st35{fill:#104478;}
	.st36{fill:none;stroke:#FFFFFF;stroke-miterlimit:10;}
	.st37{fill:none;stroke:#FC6A55;stroke-miterlimit:10;}
	.st38{fill:none;stroke:#000000;stroke-width:0.15;stroke-miterlimit:10;}
</style>
<g>
	<path class="st0" d="M16.4,5.9h-1.6V3.6c0-0.9-0.7-1.6-1.6-1.6H2.3C1.4,2,0.6,2.8,0.6,3.6v1.6h2.6v0.6H1.6C0.7,5.9,0,6.6,0,7.5v9.6
		c0,0.9,0.7,1.6,1.6,1.6h4.6L5.6,20H4.5c-0.5,0-1,0.4-1,1s0.4,1,1,1h9c0.5,0,1-0.4,1-1s-0.4-1-1-1h-1.1l-0.6-1.3h1.4h1.9h1.3
		c0.9,0,1.6-0.7,1.6-1.6V7.5C18,6.6,17.3,5.9,16.4,5.9z M14.1,14.7v0.9h-0.9C13.6,15.3,13.9,15,14.1,14.7z M11.3,15.5
		c-1.6,0-2.9-1.3-2.9-2.9s1.3-2.9,2.9-2.9s2.9,1.3,2.9,2.9S12.8,15.5,11.3,15.5z M14.8,7.8h1.3v7.7h-1.3V7.8z M14.1,3.6v7
		c-0.6-0.9-1.7-1.5-2.9-1.5c-1.9,0-3.5,1.6-3.5,3.5c0,1.2,0.6,2.3,1.5,2.9H3.9V3.6c0-0.4-0.1-0.7-0.3-1h9.7
		C13.7,2.7,14.1,3.1,14.1,3.6z M3.2,15.5H1.9V7.8h1.3V15.5z M1.3,4.6v-1c0-0.5,0.4-1,1-1s1,0.4,1,1v1H1.3z M13.8,21
		c0,0.2-0.1,0.3-0.3,0.3h-9c-0.2,0-0.3-0.1-0.3-0.3s0.1-0.3,0.3-0.3h9C13.7,20.7,13.8,20.8,13.8,21z M11.7,20H6.3l0.6-1.3h4.1
		L11.7,20z M13.2,18.1c-0.2,0-0.3-0.1-0.3-0.3s0.1-0.3,0.3-0.3h1.9c0.2,0,0.3,0.1,0.3,0.3s-0.1,0.3-0.3,0.3H13.2z M17.4,17.1
		c0,0.5-0.4,1-1,1H16c0-0.1,0.1-0.2,0.1-0.3c0-0.5-0.4-1-1-1h-1.9c-0.5,0-1,0.4-1,1c0,0.1,0,0.2,0.1,0.3H1.6c-0.5,0-1-0.4-1-1V7.5
		c0-0.5,0.4-1,1-1h1.6v0.6H1.9c-0.4,0-0.6,0.3-0.6,0.6v7.7c0,0.4,0.3,0.6,0.6,0.6h14.1c0.4,0,0.6-0.3,0.6-0.6V7.8
		c0-0.4-0.3-0.6-0.6-0.6h-1.3V6.5h1.6c0.5,0,1,0.4,1,1V17.1z"/>
	<path class="st0" d="M1.9,16.8h0.6v0.6H1.9V16.8z"/>
	<path class="st0" d="M3.2,16.8h0.6v0.6H3.2V16.8z"/>
	<path class="st0" d="M4.5,16.8h0.6v0.6H4.5V16.8z"/>
	<path class="st0" d="M11.3,11.7c0.2,0,0.3,0.1,0.3,0.3h0.6c0-0.4-0.3-0.8-0.6-0.9v-0.7h-0.6V11h-0.6v1c0,0.5,0.4,1,1,1
		c0.2,0,0.3,0.1,0.3,0.3v0.3h-0.3c-0.2,0-0.3-0.1-0.3-0.3h-0.6c0,0.4,0.3,0.8,0.6,0.9v0.7h0.6v-0.6h0.6v-1c0-0.5-0.4-1-1-1
		c-0.2,0-0.3-0.1-0.3-0.3v-0.3H11.3z"/>
	<circle class="st0" cx="9.3" cy="12.6" r="0.3"/>
	<circle class="st0" cx="13.2" cy="12.6" r="0.3"/>
	<path class="st0" d="M13.5,3.3h-1.9v4.5h-0.6V4.6H9v3.2H8.4V5.9H6.4v2.6h7.1V3.3z M7.7,7.8H7.1V6.5h0.6V7.8z M9.6,5.3h0.6v2.6H9.6
		V5.3z M12.9,7.8h-0.6V4h0.6V7.8z"/>
	<path class="st0" d="M4.5,14.3h2.6v0.6H4.5V14.3z"/>
	<path class="st0" d="M4.5,13h2.6v0.6H4.5V13z"/>
	<path class="st0" d="M4.5,11.7h2.6v0.6H4.5V11.7z"/>
	<path class="st0" d="M4.5,10.4h2.6V11H4.5V10.4z"/>
	<path class="st0" d="M4.5,9.1h2.6v0.6H4.5V9.1z"/>
	<path class="st0" d="M4.5,3.3h0.6V4H4.5V3.3z"/>
	<path class="st0" d="M4.5,4.6h0.6v0.6H4.5V4.6z"/>
	<path class="st0" d="M4.5,5.9h0.6v0.6H4.5V5.9z"/>
</g>
</svg>
