<?xml version="1.0" encoding="utf-8"?>
<!-- Generator: Adobe Illustrator 24.0.2, SVG Export Plug-In . SVG Version: 6.00 Build 0)  -->
<svg version="1.1" id="Layer_1" xmlns="http://www.w3.org/2000/svg" xmlns:xlink="http://www.w3.org/1999/xlink" x="0px" y="0px"
	 viewBox="0 0 42 42" style="enable-background:new 0 0 42 42;" xml:space="preserve">
<style type="text/css">
	.st0{fill:#FC6A55;}
	.st1{stroke:#FFFFFF;stroke-width:0.25;stroke-miterlimit:10;}
	.st2{fill:#656D7A;}
	.st3{fill:#FFFFFF;}
	.st4{filter:url(#Adobe_OpacityMaskFilter);}
	.st5{fill-rule:evenodd;clip-rule:evenodd;fill:#FFFFFF;}
	.st6{mask:url(#mask-2_8_);fill-rule:evenodd;clip-rule:evenodd;}
	.st7{filter:url(#Adobe_OpacityMaskFilter_1_);}
	.st8{mask:url(#mask-2_7_);fill-rule:evenodd;clip-rule:evenodd;}
	.st9{filter:url(#Adobe_OpacityMaskFilter_2_);}
	.st10{mask:url(#mask-2_6_);fill-rule:evenodd;clip-rule:evenodd;}
	.st11{filter:url(#Adobe_OpacityMaskFilter_3_);}
	.st12{mask:url(#mask-2_5_);fill-rule:evenodd;clip-rule:evenodd;}
	.st13{filter:url(#Adobe_OpacityMaskFilter_4_);}
	.st14{mask:url(#mask-2_2_);fill:none;stroke:#000000;stroke-width:2;}
</style>
<g id="final-design_3_">
	<g id="invensis.net-2.0-index-page_3_" transform="translate(-550.000000, -6711.000000)">
		<g id="Group-32_1_" transform="translate(412.000000, 6689.000000)">
			<g id="Group-31_1_">
				<g id="inquiry_1_" transform="translate(138.000000, 22.000000)">
					<path id="Path_13_" d="M28.2,26.1c-0.5,0-0.8,0.4-0.8,0.8v5.7c0,2.3-1.8,4.1-4.1,4.1h-8.8c-0.5,0-0.8,0.4-0.8,0.8l0,1.6l-1.9-2
						c-0.1-0.3-0.4-0.5-0.7-0.5H5.7c-2.2,0-4.1-1.8-4.1-4.1V20c0-2.3,1.8-4.1,4.1-4.1h8.2c0.5,0,0.8-0.4,0.8-0.8s-0.4-0.8-0.8-0.8
						H5.7C2.6,14.2,0,16.8,0,20v12.7c0,3.2,2.6,5.8,5.7,5.8h4.9l3.3,3.4c0.2,0.2,0.4,0.2,0.6,0.2c0.1,0,0.2,0,0.3-0.1
						c0.3-0.1,0.5-0.4,0.5-0.8l0-2.8h8c3.1,0,5.7-2.6,5.7-5.8V27C29,26.5,28.7,26.1,28.2,26.1z"/>
					<path id="Shape_9_" d="M30.1,0H28c-6.6,0-11.9,5.3-11.9,11.8S21.4,23.7,28,23.7h2.1c1,0,2-0.1,3-0.4l3.1,3
						c0.2,0.2,0.4,0.2,0.6,0.2c0.1,0,0.2,0,0.3-0.1c0.3-0.1,0.5-0.4,0.5-0.8V21c1.3-1,2.4-2.4,3.1-3.8c0.9-1.7,1.3-3.5,1.3-5.4
						C42,5.3,36.6,0,30.1,0z M36.3,20c-0.2,0.2-0.3,0.4-0.3,0.7v3.1l-2-2c-0.2-0.2-0.4-0.2-0.6-0.2c-0.1,0-0.2,0-0.2,0
						c-1,0.3-2,0.4-3,0.4H28c-5.7,0-10.3-4.6-10.3-10.2S22.3,1.6,28,1.6h2.1c5.7,0,10.3,4.6,10.3,10.2C40.4,15.1,38.9,18,36.3,20z"
						/>
					<path id="Path_12_" d="M32.7,8.9c-0.1-1.8-1.5-3.2-3.1-3.3c-1-0.1-1.9,0.3-2.6,1c-0.7,0.7-1.1,1.6-1.1,2.6
						c0,0.5,0.4,0.8,0.8,0.8c0.4,0,0.8-0.4,0.8-0.8c0-0.5,0.2-1,0.6-1.4c0.4-0.4,0.8-0.5,1.4-0.5c0.9,0.1,1.6,0.8,1.7,1.8
						c0.1,0.9-0.5,1.8-1.4,2c-0.7,0.2-1.2,0.8-1.2,1.6v2c0,0.5,0.4,0.8,0.8,0.8c0.4,0,0.8-0.4,0.8-0.8v-2
						C31.8,12.2,32.8,10.7,32.7,8.9z"/>
					<path id="Path_11_" d="M30,16.9c-0.2-0.2-0.4-0.3-0.7-0.3s-0.5,0.1-0.7,0.3c-0.2,0.2-0.3,0.4-0.3,0.7c0,0.2,0.1,0.5,0.3,0.7
						c0.2,0.2,0.4,0.3,0.7,0.3s0.5-0.1,0.7-0.3c0.2-0.2,0.3-0.4,0.3-0.7C30.3,17.4,30.2,17.1,30,16.9z"/>
					<path id="Path_10_" d="M22.6,25.3H5.2c-0.5,0-0.8,0.4-0.8,0.9s0.4,0.9,0.8,0.9h17.5c0.5,0,0.8-0.4,0.8-0.9S23.1,25.3,22.6,25.3
						z"/>
					<path id="Path_9_" d="M23.2,29.9c-0.2-0.2-0.4-0.3-0.7-0.3s-0.5,0.1-0.7,0.3c-0.2,0.2-0.3,0.4-0.3,0.7s0.1,0.5,0.3,0.7
						s0.4,0.3,0.7,0.3s0.5-0.1,0.7-0.3c0.2-0.2,0.3-0.4,0.3-0.7C23.5,30.3,23.4,30.1,23.2,29.9z"/>
					<path id="Path_8_" d="M19,29.6H5.1c-0.4,0-0.8,0.4-0.8,0.9c0,0.5,0.4,0.9,0.8,0.9H19c0.4,0,0.8-0.4,0.8-0.9
						C19.8,30.1,19.4,29.6,19,29.6z"/>
					<path id="Path_7_" d="M17.1,21h-12c-0.5,0-0.8,0.4-0.8,0.9c0,0.5,0.4,0.9,0.8,0.9h12c0.5,0,0.8-0.4,0.8-0.9
						C17.9,21.4,17.5,21,17.1,21z"/>
				</g>
			</g>
		</g>
	</g>
</g>
</svg>
