<?xml version="1.0" encoding="utf-8"?>
<!-- Generator: Adobe Illustrator 24.0.2, SVG Export Plug-In . SVG Version: 6.00 Build 0)  -->
<svg version="1.1" id="Layer_1" xmlns="http://www.w3.org/2000/svg" xmlns:xlink="http://www.w3.org/1999/xlink" x="0px" y="0px"
	 viewBox="0 0 31 31" style="enable-background:new 0 0 31 31;" xml:space="preserve">
<style type="text/css">
	.st0{fill:#FC6A55;}
	.st1{stroke:#FFFFFF;stroke-width:0.25;stroke-miterlimit:10;}
	.st2{fill:#656D7A;}
	.st3{fill:#FFFFFF;}
	.st4{filter:url(#Adobe_OpacityMaskFilter);}
	.st5{fill-rule:evenodd;clip-rule:evenodd;fill:#FFFFFF;}
	.st6{mask:url(#mask-2_8_);fill-rule:evenodd;clip-rule:evenodd;}
	.st7{filter:url(#Adobe_OpacityMaskFilter_1_);}
	.st8{mask:url(#mask-2_7_);fill-rule:evenodd;clip-rule:evenodd;}
	.st9{filter:url(#Adobe_OpacityMaskFilter_2_);}
	.st10{mask:url(#mask-2_6_);fill-rule:evenodd;clip-rule:evenodd;}
	.st11{filter:url(#Adobe_OpacityMaskFilter_3_);}
	.st12{mask:url(#mask-2_5_);fill-rule:evenodd;clip-rule:evenodd;}
	.st13{filter:url(#Adobe_OpacityMaskFilter_4_);}
	.st14{mask:url(#mask-2_2_);fill:none;stroke:#000000;stroke-width:2;}
	.st15{fill:#434343;}
	.st16{fill:#434343;stroke:#F9F9F9;stroke-width:0.25;stroke-miterlimit:10;}
	.st17{fill:none;stroke:#FC6A55;stroke-width:0.5;stroke-miterlimit:10;}
</style>
<g>
	<path class="st17" d="M6.6,21.9l-1.1-3.5c-0.1-0.2-0.2-0.3-0.4-0.3H0.7c-0.2,0-0.4,0.2-0.4,0.4c0,0,0,0,0,0l1.5,12
		C1.8,30.8,2,31,2.2,31h6.6c0.2,0,0.4-0.2,0.4-0.4c0,0,0-0.1,0-0.1l-1.2-4 M25.7,18.3c0.5-0.2,1.1,0,1.5,0.3l-3.6,1.9l-0.2,0.1
		c-0.1-0.3-0.3-0.6-0.5-0.9L25.7,18.3z M22.1,18.2C22.1,18.2,22.1,18.2,22.1,18.2c0.7-0.4,1.5-0.4,2.1,0l-1.8,1
		c-0.3-0.3-0.7-0.4-1.2-0.5L22.1,18.2z M21.6,25.5c-1.2,0.6-2.5,0.8-3.8,0.5l-5.5-1c-0.6-0.1-1.2-0.1-1.8,0.2c0,0,0,0,0,0l-2.5,1.6
		l-1.8-5.9c0.5-0.2,1-0.4,1.4-0.8l0.9-0.8c1.7-1.3,3.9-1.5,5.8-0.6l0.4,0.2c0.6,0.3,1.3,0.5,2.1,0.5h3.6c1.1,0,2,0.8,2.3,1.9
		l-2.6-0.1c-1,0-1.9,0-2.9,0.1c-0.2,0-0.4,0.2-0.3,0.5c0,0.2,0.2,0.4,0.5,0.3c0.9-0.1,1.8-0.2,2.7-0.1l3.1,0.1c0,0,0,0,0,0
		c0.2,0,0.4-0.2,0.4-0.4c0-0.1,0-0.1,0-0.2l0.4-0.2l4.5-2.4c0.7-0.4,1.6-0.2,2.1,0.3L21.6,25.5z"/>
	<g id="Consult-Talk">
		<path class="st0" d="M23.9,9.9l-1.1-0.2c-0.1-0.2-0.1-0.3-0.2-0.5l0.7-0.9c0.1-0.1,0.1-0.3,0-0.4L22,6.7c0,0-0.1-0.1-0.2-0.1V3.9
			c0.5-0.4,0.9-1.1,0.9-1.8c0-0.9-0.5-1.7-1.3-2.1C21.2,0,21,0,21,0.2c0,0,0,0.1,0,0.1v1.6l-0.6,0.2l-0.6-0.2V0.3
			c0-0.2-0.1-0.3-0.3-0.3c0,0-0.1,0-0.1,0c-0.8,0.4-1.3,1.2-1.3,2.1c0,0.7,0.3,1.4,0.9,1.8v1.9h-0.9c-0.1,0-0.3,0.1-0.3,0.2
			l-0.2,1.3l0.6,0.1l0.2-1.1h1.2l0.2,1.1c0,0.1,0.1,0.2,0.2,0.2c0.2,0.1,0.5,0.2,0.7,0.3c0.1,0.1,0.2,0,0.3,0l0.8-0.6l0.9,0.9L22,9
			c-0.1,0.1-0.1,0.2,0,0.3c0.1,0.2,0.2,0.4,0.3,0.7c0,0.1,0.1,0.2,0.2,0.2l1.1,0.2v1.2l-1.1,0.2c-0.1,0-0.2,0.1-0.2,0.2
			c-0.1,0.2-0.2,0.5-0.3,0.7c-0.1,0.1,0,0.2,0,0.3l0.6,0.8l-0.9,0.9L20.9,14c-0.1-0.1-0.2-0.1-0.3,0c-0.2,0.1-0.4,0.2-0.7,0.3
			c-0.1,0-0.2,0.1-0.2,0.2l-0.1,1.1h-1.2v-1.2c0-0.3,0-0.6-0.1-0.9c1.4,0.4,2.8-0.4,3.2-1.8c0.4-1.4-0.4-2.8-1.8-3.2
			s-2.8,0.4-3.2,1.8c-0.1,0.4-0.1,0.8-0.1,1.2c0,0,0,0,0,0l-2.3-0.9v-0.4c0.4-0.2,0.7-0.5,1-0.8h0.7c0.5,0,0.9-0.4,0.9-0.9V7.8
			C17,7.7,17.2,7.3,17.2,7V6.1c0-0.4-0.2-0.7-0.6-0.8V5c0-2.2-1.8-4-4-4s-4,1.8-4,4v0.3C8.3,5.4,8,5.8,8,6.1V7
			c0,0.5,0.4,0.9,0.9,0.9h0.6c0,0,0,0,0.1,0c0.2,1,0.8,1.8,1.7,2.2v0.4l-2.3,0.9c-1.2,0.5-2,1.6-2,2.9V17c0,0.2,0.1,0.3,0.3,0.3
			h10.9c0.2,0,0.3-0.1,0.3-0.3v-0.9h1.4c0.1,0,0.3-0.1,0.3-0.2l0.2-1.1c0.2-0.1,0.3-0.1,0.5-0.2l0.9,0.7c0.1,0.1,0.3,0.1,0.4,0
			l1.2-1.2c0.1-0.1,0.1-0.3,0-0.4l-0.7-0.9c0.1-0.1,0.1-0.3,0.2-0.5l1.1-0.2c0.1,0,0.2-0.1,0.2-0.3v-1.7C24.1,10,24,9.9,23.9,9.9z
			 M20.7,7.4C20.7,7.4,20.7,7.4,20.7,7.4l0-3.6h-0.6v2.3l0,0c0-0.1-0.1-0.2-0.3-0.2h-0.3V3.7c0-0.1,0-0.2-0.1-0.2
			c-0.8-0.5-1-1.6-0.4-2.4C19,1,19.1,0.9,19.2,0.8v1.3c0,0.1,0.1,0.2,0.2,0.3l0.9,0.3c0.1,0,0.1,0,0.2,0l0.9-0.3
			c0.1,0,0.2-0.1,0.2-0.3V0.8c0.7,0.6,0.8,1.7,0.1,2.4c-0.1,0.1-0.2,0.2-0.3,0.3c-0.1,0.1-0.1,0.1-0.1,0.2V7L20.7,7.4z M16.9,11
			c0-1.1,0.9-2,2-2c1.1,0,2,0.9,2,2c0,1.1-0.9,2-2,2c-0.4,0-0.8-0.1-1.1-0.3c-0.2-0.3-0.5-0.6-0.7-0.8C17,11.6,16.9,11.3,16.9,11z
			 M15.8,8.7h-0.3c0.1-0.3,0.2-0.6,0.3-0.9c0,0,0,0,0.1,0h0.3v0.6C16.1,8.6,15.9,8.7,15.8,8.7z M15.2,5.5c-0.3,0-0.5-0.1-0.7-0.3
			L14,4.5c0-0.1-0.1-0.1-0.2-0.1c-0.1,0-0.2,0-0.2,0.1l-1,0.8c-0.3,0.2-0.6,0.3-0.9,0.3H10V5.3c0-1.4,1.2-2.6,2.6-2.6
			s2.6,1.2,2.6,2.6V5.5z M16.6,7c0,0.2-0.1,0.3-0.3,0.3h-0.6V5.8h0.6c0.2,0,0.3,0.1,0.3,0.3V7z M12.6,1.5c1.9,0,3.4,1.5,3.4,3.4v0.3
			h-0.3c0-1.7-1.4-3.2-3.2-3.2S9.5,3.5,9.5,5.3H9.2V5C9.2,3.1,10.7,1.5,12.6,1.5z M8.9,7.3C8.7,7.3,8.6,7.1,8.6,7V6.1
			c0-0.2,0.1-0.3,0.3-0.3h0.6v1.4H8.9z M10,7.3V6.1h1.7c0.5,0,0.9-0.2,1.3-0.4l0.7-0.6l0.3,0.5c0.3,0.4,0.7,0.6,1.1,0.6v1.1
			c0,0.5-0.2,1-0.4,1.4h-2.1v0.6h1.6c-1.1,0.9-2.7,0.7-3.6-0.4C10.2,8.4,10,7.9,10,7.3z M12.6,10.4c0.3,0,0.6,0,0.9-0.1v0.4
			c0,0.5-0.4,0.9-0.9,0.9s-0.9-0.4-0.9-0.9v-0.4C12,10.4,12.3,10.4,12.6,10.4z M17.8,16.7h-1.7v-3.2h-0.6v3.2H9.8v-3.2H9.2v3.2H7.5
			v-2.4c0-1.1,0.6-2,1.6-2.4l2.2-0.9c0.2,0.8,1,1.2,1.8,1c0.5-0.1,0.8-0.5,1-1l2.2,0.9c1,0.4,1.6,1.3,1.6,2.4V16.7z"/>
		<rect x="18.7" y="7" class="st0" width="0.6" height="0.6"/>
		<rect x="18.7" y="14.4" class="st0" width="0.6" height="0.6"/>
		
			<rect x="21.3" y="13.3" transform="matrix(0.7071 -0.7071 0.7071 0.7071 -3.3216 19.2546)" class="st0" width="0.6" height="0.6"/>
		<rect x="22.4" y="10.7" class="st0" width="0.6" height="0.6"/>
		<rect x="21.3" y="8.1" transform="matrix(0.7071 -0.7071 0.7071 0.7071 0.4091 17.7094)" class="st0" width="0.6" height="0.6"/>
	</g>
</g>
</svg>
