<?xml version="1.0" encoding="utf-8"?>
<!-- Generator: Adobe Illustrator 24.0.2, SVG Export Plug-In . SVG Version: 6.00 Build 0)  -->
<svg version="1.1" id="Layer_1" xmlns="http://www.w3.org/2000/svg" xmlns:xlink="http://www.w3.org/1999/xlink" x="0px" y="0px"
	 viewBox="0 0 54 48" style="enable-background:new 0 0 54 48;" xml:space="preserve">
<style type="text/css">
	.st0{fill:#FC6A55;}
	.st1{stroke:#FFFFFF;stroke-width:0.25;stroke-miterlimit:10;}
	.st2{fill:#656D7A;}
	.st3{fill:#FFFFFF;}
	.st4{filter:url(#Adobe_OpacityMaskFilter);}
	.st5{fill-rule:evenodd;clip-rule:evenodd;fill:#FFFFFF;}
	.st6{mask:url(#mask-2_8_);fill-rule:evenodd;clip-rule:evenodd;}
	.st7{filter:url(#Adobe_OpacityMaskFilter_1_);}
	.st8{mask:url(#mask-2_7_);fill-rule:evenodd;clip-rule:evenodd;}
	.st9{filter:url(#Adobe_OpacityMaskFilter_2_);}
	.st10{mask:url(#mask-2_6_);fill-rule:evenodd;clip-rule:evenodd;}
	.st11{filter:url(#Adobe_OpacityMaskFilter_3_);}
	.st12{mask:url(#mask-2_5_);fill-rule:evenodd;clip-rule:evenodd;}
	.st13{filter:url(#Adobe_OpacityMaskFilter_4_);}
	.st14{mask:url(#mask-2_2_);fill:none;stroke:#000000;stroke-width:2;}
	.st15{fill:#434343;}
	.st16{fill:#434343;stroke:#F9F9F9;stroke-width:0.25;stroke-miterlimit:10;}
	.st17{fill:none;stroke:#FC6A55;stroke-width:0.5;stroke-miterlimit:10;}
</style>
<g>
	<path class="st15" d="M46,32.1l-5.6-1.3v-1.5c0.6-0.5,1.1-1,1.4-1.7h0.8c2,0,3.7-1.7,3.7-3.7c0-0.8-0.3-1.6-0.7-2.2v-3
		c0-4.9-4-8.9-8.9-8.9s-8.9,4-8.9,8.9v3C27.3,22.4,27,23.2,27,24c0,2,1.7,3.7,3.7,3.7h0.8c0.4,0.6,0.9,1.2,1.4,1.7v1.5l-5.6,1.3
		c-0.4,0.1-0.7,0.2-1.1,0.4v-4.1c0-1.2-1-2.2-2.2-2.2H6.2c-1.2,0-2.2,1-2.2,2.2v13.4C4,43,5,44,6.2,44h5.9v1.5h-1.5V47H50v-9.8
		C50,34.8,48.3,32.7,46,32.1z M33.5,32.2l1.8,1.4l-1.8,1.1l-0.4-2.4L33.5,32.2z M35.8,38.1h1.6l0.6,7.4h-2.8L35.8,38.1z M37.6,36.6
		h-1.9l-0.4-1.3l1.4-0.8l1.4,0.8L37.6,36.6z M38,33.6l1.8-1.4l0.5,0.1l-0.5,2.4L38,33.6z M42.6,26.2h-0.2c0.1-0.5,0.2-1,0.2-1.5v-3
		c1.2,0,2.2,1,2.2,2.2S43.8,26.2,42.6,26.2z M36.6,11.4c4.1,0,7.4,3.3,7.4,7.4v1.8c-0.5-0.2-1-0.3-1.5-0.3v-1.5h-1.5v0.4
		c-0.5,0.4-1.1,0.8-1.8,0.9c0,0,0.1-0.1,0.1-0.1l-1-1c-0.6,0.6-1.3,0.9-2,1.1c0,0,0.1-0.1,0.1-0.1l-1-1c-0.8,0.8-1.9,1.3-3.1,1.3
		h-0.1v-1.5h-1.5v1.5c-0.5,0-1,0.1-1.5,0.3v-1.8C29.2,14.7,32.6,11.4,36.6,11.4z M30.7,26.2c-1.2,0-2.2-1-2.2-2.2s1-2.2,2.2-2.2v3
		c0,0.5,0.1,1,0.2,1.5H30.7z M32.2,24.7v-3h0.1c0.7,0,1.4-0.1,2.1-0.4v0.4h0.9c0.7,0,1.4-0.1,2.1-0.4v0.4h0.9c1,0,2-0.3,2.8-0.8v3.7
		c0,0.5-0.1,1-0.3,1.5h-4.2v1.5H40c-0.8,0.9-2,1.5-3.3,1.5C34.2,29.2,32.2,27.2,32.2,24.7z M36.6,30.7c0.8,0,1.5-0.2,2.2-0.4V31
		l-2.2,1.7L34.4,31v-0.8C35.1,30.5,35.9,30.7,36.6,30.7z M27.6,33.6l4-0.9l0.7,4.4l1.6-1l0.4,1.3l-0.7,8.1H30v-8.2h-1.5v8.2h-3.7
		v-1.6c0.9-0.3,1.5-1.1,1.5-2.1v-7.6C26.7,33.9,27.1,33.7,27.6,33.6z M18.1,44h5.2v1.5h-5.2V44z M6.2,42.5c-0.4,0-0.7-0.3-0.7-0.7
		V28.5c0-0.4,0.3-0.7,0.7-0.7H24c0.4,0,0.7,0.3,0.7,0.7v13.4c0,0.4-0.3,0.7-0.7,0.7h-5.9v-1.5c0-1.6-1.3-3-3-3s-3,1.3-3,3v1.5H6.2z
		 M13.6,41.1c0-0.8,0.7-1.5,1.5-1.5c0.8,0,1.5,0.7,1.5,1.5v4.5h-3V41.1z M48.5,45.5h-3.7v-8.2h-1.5v8.2h-3.8l-0.7-8.1l0.4-1.3
		l1.6,0.9l0.9-4.4l3.9,0.9c1.7,0.4,2.9,1.9,2.9,3.6V45.5z"/>
	<path class="st15" d="M22.5,16.2c0-1-0.6-1.8-1.5-2.1l-2.9-1v-1c0.9-0.7,1.5-1.7,1.5-2.9V7.7c0-2-1.7-3.7-3.7-3.7s-3.7,1.7-3.7,3.7
		v1.5c0,1.2,0.6,2.3,1.5,2.9v1l-2.9,1c-0.9,0.3-1.5,1.2-1.5,2.1v4.1h13.4V16.2z M13.6,7.7c0-1.2,1-2.2,2.2-2.2s2.2,1,2.2,2.2v1.5
		c0,1.2-1,2.2-2.2,2.2s-2.2-1-2.2-2.2V7.7z M21.1,18.8H10.7v-2.6c0-0.3,0.2-0.6,0.5-0.7l3.9-1.3v-1.4c0.2,0,0.5,0.1,0.7,0.1
		s0.5,0,0.7-0.1v1.4l3.9,1.3c0.3,0.1,0.5,0.4,0.5,0.7V18.8z"/>
	<path class="st15" d="M15.9,24.7c6.5,0,11.9-5.3,11.9-11.9S22.4,1,15.9,1S4,6.3,4,12.9S9.3,24.7,15.9,24.7z M15.9,2.5
		c5.7,0,10.4,4.7,10.4,10.4s-4.7,10.4-10.4,10.4S5.5,18.6,5.5,12.9S10.1,2.5,15.9,2.5z"/>
	<path class="st15" d="M31.5,5.5h1.5v1.5h-1.5V5.5z"/>
	<path class="st15" d="M35.9,5.5h1.5v1.5h-1.5V5.5z"/>
	<path class="st15" d="M40.4,5.5h1.5v1.5h-1.5V5.5z"/>
</g>
</svg>
