<?xml version="1.0" encoding="utf-8"?>
<!-- Generator: Adobe Illustrator 24.1.1, SVG Export Plug-In . SVG Version: 6.00 Build 0)  -->
<svg version="1.1" id="Layer_1" xmlns="http://www.w3.org/2000/svg" xmlns:xlink="http://www.w3.org/1999/xlink" x="0px" y="0px"
	 viewBox="0 0 18 24" style="enable-background:new 0 0 18 24;" xml:space="preserve">
<style type="text/css">
	.st0{fill:#FC6A55;}
	.st1{fill:#EDEDED;}
	.st2{fill:none;stroke:#FC6A55;stroke-miterlimit:10;}
	.st3{fill:#222F3F;}
	.st4{fill:#383838;}
	.st5{fill:#FFFFFF;}
	.st6{fill:#656D7A;}
	.st7{fill:#C4C4C4;}
	.st8{filter:url(#Adobe_OpacityMaskFilter);}
	.st9{fill-rule:evenodd;clip-rule:evenodd;fill:#FFFFFF;}
	.st10{mask:url(#mask-2_8_);fill-rule:evenodd;clip-rule:evenodd;}
	.st11{filter:url(#Adobe_OpacityMaskFilter_1_);}
	.st12{mask:url(#mask-2_7_);fill-rule:evenodd;clip-rule:evenodd;}
	.st13{filter:url(#Adobe_OpacityMaskFilter_2_);}
	.st14{mask:url(#mask-2_6_);fill-rule:evenodd;clip-rule:evenodd;}
	.st15{filter:url(#Adobe_OpacityMaskFilter_3_);}
	.st16{mask:url(#mask-2_5_);fill-rule:evenodd;clip-rule:evenodd;}
	.st17{filter:url(#Adobe_OpacityMaskFilter_4_);}
	.st18{mask:url(#mask-2_2_);fill:none;stroke:#000000;stroke-width:1.5;stroke-miterlimit:10;}
	.st19{fill:#B4A3EE;}
	.st20{fill:#434343;}
	.st21{fill:#434343;stroke:#F9F9F9;stroke-width:0.25;stroke-miterlimit:10;}
	.st22{fill:none;stroke:#FC6A55;stroke-width:0.5;stroke-miterlimit:10;}
	.st23{fill:none;stroke:#FC6A55;stroke-width:0.75;stroke-miterlimit:10;}
	.st24{fill:#FC6A55;stroke:#FC6A55;stroke-width:0.5;stroke-miterlimit:10;}
	.st25{opacity:0.153;fill:url(#Path_44_);enable-background:new    ;}
	.st26{opacity:0.1;fill:#590BB2;enable-background:new    ;}
	.st27{fill:#8E8CA8;}
	.st28{fill:#F5F4F9;}
	.st29{fill:#FFD5B8;}
	.st30{fill:#FC8473;}
	.st31{fill:#1C3475;}
	.st32{fill:#DDD9E4;}
	.st33{fill:#828FB3;}
	.st34{opacity:7.584635e-02;fill:url(#Path_45_);enable-background:new    ;}
	.st35{fill:#FFBE92;}
	.st36{fill:#FB8E7F;}
	.st37{fill:#FDB1A6;}
	.st38{fill:#FC806F;}
	.st39{fill:#FFE783;}
	.st40{fill:#104478;}
	.st41{fill:none;stroke:#FFFFFF;stroke-miterlimit:10;}
	.st42{fill:none;stroke:#000000;stroke-width:0.15;stroke-miterlimit:10;}
	.st43{opacity:0.1;fill:url(#Path_46_);enable-background:new    ;}
	.st44{opacity:0.1;fill:url(#Path_47_);enable-background:new    ;}
	.st45{fill-rule:evenodd;clip-rule:evenodd;fill:#FC6A55;}
	.st46{fill-rule:evenodd;clip-rule:evenodd;}
	.st47{fill:#FF6757;}
	.st48{fill:#666666;}
	.st49{fill:none;stroke:#FFFFFF;stroke-width:0.5;stroke-miterlimit:10;}
	.st50{fill:#F16A56;}
	.st51{fill:#515252;}
	.st52{fill:#F26A56;}
	.st53{fill:none;stroke:#F16A56;stroke-miterlimit:10;}
	.st54{fill:none;stroke:#929292;stroke-miterlimit:10;}
	.st55{fill:#929292;}
	.st56{fill:none;stroke:#000000;stroke-width:0.5;stroke-miterlimit:10;}
	.st57{fill:#A8A7A7;}
	.st58{fill:#F79F91;}
	.st59{fill:#9BDBD5;}
	.st60{fill:#222121;}
	.st61{stroke:#000000;stroke-width:0.25;stroke-miterlimit:10;}
</style>
<g>
	<path class="st0" d="M9,15c-0.1,0-0.2,0.1-0.2,0.2c0,0.1,0.1,0.2,0.2,0.2s0.2-0.1,0.2-0.2C9.2,15.1,9.1,15,9,15z M16.7,4.8h-5
		C11.6,3.8,10.8,3,9.8,3H8.2C7.1,3,6.3,3.9,6.3,4.9v1H1.5C1.3,6,1.2,6.1,1.2,6.3v10c0,0.1,0.1,0.3,0.3,0.3h15c0.1,0,0.3-0.1,0.3-0.3
		v-10c0-0.1-0.1-0.3-0.3-0.3h-3.9c-0.1,0-0.3,0.1-0.3,0.3s0.1,0.3,0.3,0.3h3.6V16h-1.2v-1.4c0-0.9-0.6-1.8-1.4-2.2l-2.5-1.1
		c-0.4-0.2-0.6-0.5-0.6-1v0c0.7-0.5,1.2-1.3,1.2-2.3V5.3h4.9c0.4,0,0.8,0.4,0.8,0.8v10.4c0,0.4-0.4,0.8-0.8,0.8H1.3
		c-0.4,0-0.8-0.4-0.8-0.8V6.1c0-0.4,0.4-0.8,0.8-0.8h4.1c0.1,0,0.3-0.1,0.3-0.3S5.5,4.8,5.4,4.8H1.3C0.6,4.8,0,5.3,0,6.1v10.4
		c0,0.7,0.6,1.3,1.3,1.3h5.8l-0.8,1.7H6.2c-0.4,0-0.8,0.4-0.8,0.8S5.8,21,6.2,21h5.6c0.4,0,0.8-0.4,0.8-0.8s-0.4-0.8-0.8-0.8h-0.1
		l-0.8-1.7h5.8c0.7,0,1.3-0.6,1.3-1.3V6.1C18,5.3,17.4,4.8,16.7,4.8z M2.9,16H1.8V6.5h4.5c0,0.4,0,1.2,0,1.6c0,1,0.5,1.8,1.2,2.3v0
		c0,0.4-0.2,0.8-0.6,1l-2.5,1.1c-0.9,0.4-1.4,1.2-1.4,2.2L2.9,16z M11.1,11.9l2.4,1c0.7,0.3,1.1,0.9,1.1,1.7V16H3.4v-1.4
		c0-0.7,0.4-1.4,1.1-1.7l2.4-1l1.7,1.2c0.1,0.1,0.3,0.1,0.4,0.1c0.2,0,0.3,0,0.4-0.1L11.1,11.9z M10.6,11.6l-1.4,1
		c-0.1,0-0.2,0-0.2,0l-1.5-1c0.3-0.2,0.5-0.6,0.6-1c0.3,0.1,0.6,0.2,1,0.2c0.4,0,0.7-0.1,1-0.2C10.1,11.1,10.3,11.4,10.6,11.6
		L10.6,11.6z M11.2,7.6c-0.1,0.2-0.2,0.5-0.5,0.7c-0.1,0.1-0.2,0.2-0.4,0.2C10.2,8.3,10,8.2,9.7,8.2H9.1c-0.4,0-0.7,0.3-0.7,0.7
		s0.3,0.7,0.7,0.7h0.6c0.3,0,0.6-0.2,0.7-0.5c0.3-0.1,0.5-0.3,0.8-0.5c-0.2,1-1.1,1.7-2.1,1.7c-1.2,0-2.2-1-2.2-2.2V6.9
		c0-0.2,0.1-0.4,0.2-0.5c0.2-0.1,0.4-0.1,0.5-0.1l1.2,0.5c0.8,0.3,1.7,0.2,2.5-0.3V7.6z M9.9,8.9c0,0.1-0.1,0.2-0.2,0.2H9.1
		C9,9.1,9,9,9,8.9C9,8.8,9,8.7,9.1,8.7h0.6C9.8,8.7,9.9,8.8,9.9,8.9C9.9,8.9,9.9,8.9,9.9,8.9L9.9,8.9z M11.2,5.9l-0.4,0.3
		c-0.5,0.3-1.2,0.4-1.8,0.1L7.8,5.9c-0.3-0.1-0.7-0.1-1,0.1v-1c0-0.8,0.6-1.4,1.4-1.4h1.6c0.8,0,1.4,0.6,1.4,1.4L11.2,5.9L11.2,5.9z
		 M11.8,19.9c0.1,0,0.3,0.1,0.3,0.3s-0.1,0.3-0.3,0.3H6.2c-0.1,0-0.3-0.1-0.3-0.3s0.1-0.3,0.3-0.3H11.8z M11.1,19.4H6.9l0.8-1.7h2.6
		L11.1,19.4z M9,14c-0.1,0-0.2,0.1-0.2,0.2c0,0.1,0.1,0.2,0.2,0.2c0.1,0,0.2-0.1,0.2-0.2C9.2,14.1,9.1,14,9,14z"/>
</g>
</svg>
