<?xml version="1.0" encoding="utf-8"?>
<!-- Generator: Adobe Illustrator 24.0.2, SVG Export Plug-In . SVG Version: 6.00 Build 0)  -->
<svg version="1.1" id="Layer_1" xmlns="http://www.w3.org/2000/svg" xmlns:xlink="http://www.w3.org/1999/xlink" x="0px" y="0px"
	 viewBox="0 0 18 24" style="enable-background:new 0 0 18 24;" xml:space="preserve">
<style type="text/css">
	.st0{fill:#FC6A55;}
	.st1{fill:#EDEDED;}
	.st2{fill:none;stroke:#FC6A55;stroke-miterlimit:10;}
	.st3{stroke:#FFFFFF;stroke-width:0.25;stroke-miterlimit:10;}
	.st4{fill:#656D7A;}
	.st5{fill:#FFFFFF;}
	.st6{filter:url(#Adobe_OpacityMaskFilter);}
	.st7{fill-rule:evenodd;clip-rule:evenodd;fill:#FFFFFF;}
	.st8{mask:url(#mask-2_8_);fill-rule:evenodd;clip-rule:evenodd;}
	.st9{filter:url(#Adobe_OpacityMaskFilter_1_);}
	.st10{mask:url(#mask-2_7_);fill-rule:evenodd;clip-rule:evenodd;}
	.st11{filter:url(#Adobe_OpacityMaskFilter_2_);}
	.st12{mask:url(#mask-2_6_);fill-rule:evenodd;clip-rule:evenodd;}
	.st13{filter:url(#Adobe_OpacityMaskFilter_3_);}
	.st14{mask:url(#mask-2_5_);fill-rule:evenodd;clip-rule:evenodd;}
	.st15{filter:url(#Adobe_OpacityMaskFilter_4_);}
	.st16{mask:url(#mask-2_2_);fill:none;stroke:#000000;stroke-width:2;}
	.st17{fill:#434343;}
	.st18{fill:#434343;stroke:#F9F9F9;stroke-width:0.25;stroke-miterlimit:10;}
	.st19{fill:none;stroke:#FC6A55;stroke-width:0.5;stroke-miterlimit:10;}
	.st20{fill:none;stroke:#FC6A55;stroke-width:0.75;stroke-miterlimit:10;}
	.st21{fill:#FC6A55;stroke:#FC6A55;stroke-width:0.5;stroke-miterlimit:10;}
	.st22{opacity:0.153;fill:url(#Path_146_);enable-background:new    ;}
	.st23{opacity:0.1;fill:#590BB2;enable-background:new    ;}
	.st24{fill:#8E8CA8;}
	.st25{fill:#F5F4F9;}
	.st26{fill:#FFD5B8;}
	.st27{fill:#FC8473;}
	.st28{fill:#1C3475;}
	.st29{fill:#DDD9E4;}
	.st30{fill:#828FB3;}
	.st31{opacity:7.584635e-02;fill:url(#Path_147_);enable-background:new    ;}
	.st32{fill:#FFBE92;}
	.st33{fill:#FB8E7F;}
	.st34{fill:#FDB1A6;}
	.st35{fill:#FC806F;}
	.st36{fill:#FFE783;}
	.st37{fill:#104478;}
	.st38{fill:none;stroke:#FFFFFF;stroke-miterlimit:10;}
	.st39{fill:none;stroke:#000000;stroke-width:0.15;stroke-miterlimit:10;}
	.st40{opacity:0.1;fill:url(#Path_148_);enable-background:new    ;}
	.st41{opacity:0.1;fill:url(#Path_149_);enable-background:new    ;}
	.st42{fill-rule:evenodd;clip-rule:evenodd;fill:#FC6A55;}
	.st43{fill-rule:evenodd;clip-rule:evenodd;}
</style>
<g id="Consult-Talk_20_">
	<rect x="4.2" y="7.9" width="0.6" height="0.6"/>
	<rect x="7.2" y="7.9" width="0.6" height="0.6"/>
	<path d="M17.7,11.3l-1.2-0.2c-0.1-0.2-0.1-0.3-0.2-0.5l0.7-0.9c0.1-0.1,0.1-0.3,0-0.4L15.8,8c0,0-0.1-0.1-0.2-0.1V5
		c0.6-0.5,0.9-1.1,0.9-1.9c0-0.9-0.5-1.8-1.4-2.2c-0.1-0.1-0.3,0-0.4,0.1c0,0,0,0.1,0,0.1v1.7l-0.6,0.2l-0.6-0.2V1.3
		c0-0.2-0.1-0.3-0.3-0.3c0,0-0.1,0-0.1,0c-0.8,0.4-1.4,1.2-1.4,2.2c0,0.7,0.3,1.4,0.9,1.9v2h-0.9c-0.1,0-0.3,0.1-0.3,0.3l-0.2,1.4
		l0.6,0.1L12,7.6h1.3l0.2,1.1c0,0.1,0.1,0.2,0.2,0.2c0.3,0.1,0.5,0.2,0.7,0.3c0.1,0.1,0.2,0,0.3,0l0.9-0.7l0.9,0.9l-0.7,0.9
		c-0.1,0.1-0.1,0.2,0,0.3c0.1,0.2,0.2,0.5,0.3,0.7c0,0.1,0.1,0.2,0.2,0.2l1.1,0.2v1.3l-1.1,0.2c-0.1,0-0.2,0.1-0.2,0.2
		c-0.1,0.3-0.2,0.5-0.3,0.7c-0.1,0.1,0,0.2,0,0.3l0.7,0.9l-0.9,0.9l-0.9-0.7c-0.1-0.1-0.2-0.1-0.3,0c-0.2,0.1-0.5,0.2-0.7,0.3
		c-0.1,0-0.2,0.1-0.2,0.2l-0.2,1.1H12V16c0-0.3,0-0.6-0.1-0.9c1.4,0.4,3-0.4,3.4-1.9c0.4-1.4-0.4-3-1.9-3.4s-3,0.4-3.4,1.9
		c-0.1,0.4-0.1,0.8-0.1,1.3c0,0,0,0,0,0l-2.4-1v-0.5c0.4-0.2,0.8-0.5,1-0.8h0.8c0.5,0,0.9-0.4,0.9-0.9V9.1c0.4-0.1,0.6-0.5,0.6-0.8
		V7.3c0-0.4-0.2-0.7-0.6-0.8V6.1c0-2.3-1.9-4.2-4.2-4.2S1.8,3.8,1.8,6.1v0.4C1.4,6.6,1.2,7,1.2,7.3v0.9c0,0.5,0.4,0.9,0.9,0.9h0.6
		c0,0,0,0,0.1,0c0.2,1,0.8,1.9,1.7,2.3v0.5l-2.4,1C0.8,13.4,0,14.6,0,16v2.8C0,18.9,0.1,19,0.3,19h11.4c0.2,0,0.3-0.1,0.3-0.3v-0.9
		h1.5c0.1,0,0.3-0.1,0.3-0.3l0.2-1.2c0.2-0.1,0.3-0.1,0.5-0.2l0.9,0.7c0.1,0.1,0.3,0.1,0.4,0l1.3-1.3c0.1-0.1,0.1-0.3,0-0.4
		l-0.7-0.9c0.1-0.2,0.1-0.3,0.2-0.5l1.2-0.2c0.1,0,0.3-0.1,0.3-0.3v-1.8C18,11.4,17.9,11.3,17.7,11.3z M14.4,8.7
		C14.4,8.7,14.4,8.7,14.4,8.7l0-3.7h-0.6v2.4l0,0c0-0.1-0.1-0.3-0.3-0.3h-0.3V4.9c0-0.1,0-0.2-0.1-0.2c-0.8-0.6-1-1.7-0.4-2.5
		c0.1-0.1,0.2-0.2,0.3-0.3v1.3c0,0.1,0.1,0.2,0.2,0.3L14,3.7c0.1,0,0.1,0,0.2,0l0.9-0.3c0.1,0,0.2-0.2,0.2-0.3V1.8
		c0.7,0.7,0.8,1.8,0.1,2.5c-0.1,0.1-0.2,0.2-0.3,0.3C15,4.7,15,4.8,15,4.9v3.4L14.4,8.7z M10.5,12.4c0-1.2,0.9-2.1,2.1-2.1
		c1.2,0,2.1,0.9,2.1,2.1s-0.9,2.1-2.1,2.1c-0.4,0-0.8-0.1-1.1-0.3c-0.2-0.3-0.5-0.6-0.8-0.9C10.6,13.1,10.5,12.8,10.5,12.4z M9.3,10
		H8.9c0.1-0.3,0.2-0.6,0.3-0.9c0,0,0,0,0.1,0h0.3v0.6C9.6,9.9,9.5,10,9.3,10z M8.7,6.7C8.4,6.7,8.2,6.6,8,6.4L7.4,5.7
		c0-0.1-0.1-0.1-0.2-0.1c-0.1,0-0.2,0-0.2,0.1L6,6.4C5.7,6.6,5.4,6.7,5.1,6.7H3.3V6.4C3.3,5,4.5,3.7,6,3.7S8.7,5,8.7,6.4V6.7z
		 M10.2,8.2c0,0.2-0.1,0.3-0.3,0.3H9.3V7h0.6c0.2,0,0.3,0.1,0.3,0.3V8.2z M6,2.5c2,0,3.6,1.6,3.6,3.6v0.3H9.3c0-1.8-1.5-3.3-3.3-3.3
		S2.7,4.6,2.7,6.4H2.4V6.1C2.4,4.2,4,2.6,6,2.5z M2.1,8.5c-0.2,0-0.3-0.1-0.3-0.3V7.3C1.8,7.2,1.9,7,2.1,7h0.6v1.5H2.1z M3.3,8.5
		V7.3h1.8c0.5,0,0.9-0.2,1.3-0.5l0.8-0.6l0.4,0.5c0.3,0.4,0.7,0.6,1.2,0.6v1.2c0,0.5-0.2,1.1-0.5,1.5H6v0.6h1.7
		c-1.2,0.9-2.9,0.8-3.8-0.4C3.5,9.8,3.3,9.2,3.3,8.5z M6,11.8c0.3,0,0.6,0,0.9-0.1v0.4C6.9,12.6,6.5,13,6,13s-0.9-0.4-0.9-0.9v-0.4
		C5.4,11.8,5.7,11.8,6,11.8z M11.4,18.4H9.6v-3.3H9v3.3H3v-3.3H2.4v3.3H0.6V16c0-1.1,0.7-2.1,1.7-2.5l2.3-0.9c0.2,0.8,1,1.3,1.8,1
		c0.5-0.1,0.9-0.5,1-1l2.3,0.9c1,0.4,1.7,1.4,1.7,2.5V18.4z"/>
	<rect x="12.3" y="8.2" width="0.6" height="0.6"/>
	<rect x="12.3" y="16" width="0.6" height="0.6"/>
	<rect x="15.1" y="14.9" transform="matrix(0.7071 -0.7071 0.7071 0.7071 -6.254 15.313)" width="0.6" height="0.6"/>
	<rect x="16.2" y="12.1" width="0.6" height="0.6"/>
	<rect x="15.1" y="9.4" transform="matrix(0.7071 -0.7071 0.7071 0.7071 -2.354 13.6977)" width="0.6" height="0.6"/>
</g>
</svg>
