<?xml version="1.0" encoding="utf-8"?>
<!-- Generator: Adobe Illustrator 24.0.2, SVG Export Plug-In . SVG Version: 6.00 Build 0)  -->
<svg version="1.1" id="Layer_1" xmlns="http://www.w3.org/2000/svg" xmlns:xlink="http://www.w3.org/1999/xlink" x="0px" y="0px"
	 viewBox="0 0 18 24" style="enable-background:new 0 0 18 24;" xml:space="preserve">
<style type="text/css">
	.st0{fill:#FC6A55;}
	.st1{fill:#EDEDED;}
	.st2{fill:none;stroke:#FC6A55;stroke-miterlimit:10;}
	.st3{stroke:#FFFFFF;stroke-width:0.25;stroke-miterlimit:10;}
	.st4{fill:#656D7A;}
	.st5{fill:#FFFFFF;}
	.st6{filter:url(#Adobe_OpacityMaskFilter);}
	.st7{fill-rule:evenodd;clip-rule:evenodd;fill:#FFFFFF;}
	.st8{mask:url(#mask-2_8_);fill-rule:evenodd;clip-rule:evenodd;}
	.st9{filter:url(#Adobe_OpacityMaskFilter_1_);}
	.st10{mask:url(#mask-2_7_);fill-rule:evenodd;clip-rule:evenodd;}
	.st11{filter:url(#Adobe_OpacityMaskFilter_2_);}
	.st12{mask:url(#mask-2_6_);fill-rule:evenodd;clip-rule:evenodd;}
	.st13{filter:url(#Adobe_OpacityMaskFilter_3_);}
	.st14{mask:url(#mask-2_5_);fill-rule:evenodd;clip-rule:evenodd;}
	.st15{filter:url(#Adobe_OpacityMaskFilter_4_);}
	.st16{mask:url(#mask-2_2_);fill:none;stroke:#000000;stroke-width:2;}
	.st17{fill:#434343;}
	.st18{fill:#434343;stroke:#F9F9F9;stroke-width:0.25;stroke-miterlimit:10;}
	.st19{fill:none;stroke:#FC6A55;stroke-width:0.5;stroke-miterlimit:10;}
	.st20{fill:none;stroke:#FC6A55;stroke-width:0.75;stroke-miterlimit:10;}
	.st21{fill:#FC6A55;stroke:#FC6A55;stroke-width:0.5;stroke-miterlimit:10;}
	.st22{opacity:0.153;fill:url(#Path_146_);enable-background:new    ;}
	.st23{opacity:0.1;fill:#590BB2;enable-background:new    ;}
	.st24{fill:#8E8CA8;}
	.st25{fill:#F5F4F9;}
	.st26{fill:#FFD5B8;}
	.st27{fill:#FC8473;}
	.st28{fill:#1C3475;}
	.st29{fill:#DDD9E4;}
	.st30{fill:#828FB3;}
	.st31{opacity:7.584635e-02;fill:url(#Path_147_);enable-background:new    ;}
	.st32{fill:#FFBE92;}
	.st33{fill:#FB8E7F;}
	.st34{fill:#FDB1A6;}
	.st35{fill:#FC806F;}
	.st36{fill:#FFE783;}
	.st37{fill:#104478;}
	.st38{fill:none;stroke:#FFFFFF;stroke-miterlimit:10;}
	.st39{fill:none;stroke:#000000;stroke-width:0.15;stroke-miterlimit:10;}
	.st40{opacity:0.1;fill:url(#Path_148_);enable-background:new    ;}
	.st41{opacity:0.1;fill:url(#Path_149_);enable-background:new    ;}
	.st42{fill-rule:evenodd;clip-rule:evenodd;fill:#FC6A55;}
	.st43{fill-rule:evenodd;clip-rule:evenodd;}
</style>
<g>
	<path d="M16.4,14.4l-2.2-0.5v-0.6c0.2-0.2,0.4-0.4,0.6-0.6h0.3c0.8,0,1.5-0.7,1.5-1.5c0-0.3-0.1-0.6-0.3-0.9V9.1
		c0-1.9-1.6-3.5-3.5-3.5S9.3,7.2,9.3,9.1v1.2C9.1,10.6,9,10.9,9,11.2c0,0.8,0.7,1.5,1.5,1.5h0.3c0.1,0.2,0.3,0.5,0.6,0.6v0.6
		l-2.2,0.5c-0.1,0-0.3,0.1-0.4,0.1v-1.6c0-0.5-0.4-0.9-0.9-0.9h-7c-0.5,0-0.9,0.4-0.9,0.9v5.2C0,18.6,0.4,19,0.9,19h2.3v0.6H2.6v0.6
		H18v-3.8C18,15.4,17.4,14.6,16.4,14.4z M11.5,14.4l0.7,0.5l-0.7,0.4l-0.2-0.9L11.5,14.4z M12.5,16.7h0.6l0.2,2.9h-1.1L12.5,16.7z
		 M13.1,16.1h-0.7l-0.2-0.5l0.5-0.3l0.5,0.3L13.1,16.1z M13.3,14.9l0.7-0.5l0.2,0L14,15.4L13.3,14.9z M15.1,12.1L15.1,12.1
		c0-0.2,0-0.4,0-0.6v-1.2c0.5,0,0.9,0.4,0.9,0.9S15.6,12.1,15.1,12.1z M12.8,6.2c1.6,0,2.9,1.3,2.9,2.9v0.7
		c-0.2-0.1-0.4-0.1-0.6-0.1V9.1h-0.6v0.2c-0.2,0.2-0.4,0.3-0.7,0.4c0,0,0,0,0,0l-0.4-0.4c-0.2,0.2-0.5,0.4-0.8,0.4c0,0,0,0,0,0
		l-0.4-0.4c-0.3,0.3-0.8,0.5-1.2,0.5h0V9.1h-0.6v0.6c-0.2,0-0.4,0-0.6,0.1V9.1C9.9,7.5,11.2,6.2,12.8,6.2z M10.5,12.1
		c-0.5,0-0.9-0.4-0.9-0.9s0.4-0.9,0.9-0.9v1.2C10.5,11.7,10.5,11.9,10.5,12.1L10.5,12.1z M11,11.5v-1.2h0c0.3,0,0.6-0.1,0.8-0.2v0.2
		h0.3c0.3,0,0.6-0.1,0.8-0.2v0.2h0.3c0.4,0,0.8-0.1,1.1-0.3v1.5c0,0.2,0,0.4-0.1,0.6h-1.6v0.6h1.3c-0.3,0.4-0.8,0.6-1.3,0.6
		C11.8,13.2,11,12.4,11,11.5z M12.8,13.8c0.3,0,0.6-0.1,0.9-0.2v0.3l-0.9,0.7l-0.9-0.7v-0.3C12.2,13.7,12.5,13.8,12.8,13.8z
		 M9.3,14.9l1.6-0.4l0.3,1.7l0.6-0.4l0.2,0.5l-0.3,3.2h-1.5v-3.2H9.6v3.2H8.1V19c0.3-0.1,0.6-0.4,0.6-0.8v-3
		C8.9,15.1,9.1,15,9.3,14.9z M5.5,19h2v0.6h-2V19z M0.9,18.4c-0.2,0-0.3-0.1-0.3-0.3v-5.2c0-0.2,0.1-0.3,0.3-0.3h7
		c0.2,0,0.3,0.1,0.3,0.3v5.2c0,0.2-0.1,0.3-0.3,0.3H5.5v-0.6c0-0.6-0.5-1.2-1.2-1.2s-1.2,0.5-1.2,1.2v0.6H0.9z M3.8,17.9
		c0-0.3,0.3-0.6,0.6-0.6s0.6,0.3,0.6,0.6v1.7H3.8V17.9z M17.4,19.6H16v-3.2h-0.6v3.2h-1.5l-0.3-3.2l0.2-0.5l0.6,0.4l0.3-1.7l1.5,0.4
		c0.7,0.2,1.1,0.7,1.1,1.4V19.6z"/>
	<g>
		<path d="M8.2,6.8c0-1-0.8-1.9-1.9-1.9C6,5,5.8,5,5.6,5.1V4.2c0-0.2-0.2-0.4-0.4-0.4H3.4c-0.1,0-0.1,0.1-0.1,0.1
			c0,0.1,0.1,0.1,0.1,0.1h1.7c0.1,0,0.1,0.1,0.1,0.1v1.1c0,0,0,0,0,0v0.6c0,0.1-0.1,0.1-0.1,0.1H4.3c-0.1,0-0.1,0-0.2,0.1L3.9,6.5
			L3.5,6.1c0,0-0.1-0.1-0.2-0.1H2.5C2.5,6.1,2.4,6,2.4,5.9V4.2c0-0.1,0.1-0.1,0.1-0.1h0.4C3,4.1,3.1,4,3.1,3.9
			c0-0.1-0.1-0.1-0.1-0.1H2.5C2.3,3.8,2.1,4,2.1,4.2v1.7c0,0.2,0.2,0.4,0.4,0.4h0.8l0.3,0.3c0,0,0.1,0.1,0.2,0.1
			c0.1,0,0.1,0,0.2-0.1l0.3-0.3h0.1C4.4,6.5,4.4,6.7,4.4,6.8c0,0.2,0,0.4,0.1,0.6H1.3C1,7.5,0.8,7.7,0.8,8v2.5C0.8,10.8,1,11,1.3,11
			l1.2,0L3,11.5c0.1,0.1,0.1,0.1,0.2,0.1c0.1,0,0.1,0,0.2-0.1L3.9,11h1.2c0.3,0,0.5-0.2,0.5-0.5V9.4c0-0.1-0.1-0.1-0.1-0.1
			c-0.1,0-0.1,0.1-0.1,0.1v1.1c0,0.1-0.1,0.3-0.3,0.3H3.9c-0.1,0-0.1,0-0.2,0.1l-0.5,0.5l-0.5-0.5c0,0-0.1-0.1-0.2-0.1H1.3
			c-0.1,0-0.3-0.1-0.3-0.3V8c0-0.1,0.1-0.3,0.3-0.3h3.9c0.1,0,0.3,0.1,0.3,0.3v0.8C5.4,8.9,5.5,9,5.5,9c0.1,0,0.1-0.1,0.1-0.1V8.6
			c0.2,0.1,0.4,0.1,0.6,0.1C7.3,8.7,8.2,7.9,8.2,6.8z M5.1,7.5H4.8C4.7,7.3,4.7,7.1,4.7,6.8c0-0.2,0-0.4,0.1-0.5h0.4
			c0.2,0,0.4-0.2,0.4-0.4V5.4C5.8,5.3,6,5.2,6.3,5.2c0.9,0,1.6,0.7,1.6,1.6c0,0.9-0.7,1.6-1.6,1.6c-0.2,0-0.4,0-0.6-0.1V8
			C5.7,7.7,5.4,7.5,5.1,7.5z"/>
		<path d="M3.5,9.2L3.5,9.2l0.1-0.1c0,0,0,0,0.1-0.1S3.7,9,3.7,9s0-0.1,0-0.1c0,0,0-0.1,0-0.1c0-0.1-0.1-0.2-0.2-0.3
			C3.5,8.3,3.4,8.3,3.2,8.3c-0.2,0-0.3,0-0.4,0.1C2.8,8.4,2.7,8.5,2.7,8.6c0,0,0,0.1,0,0.1c0,0,0.1,0,0.1,0c0,0,0.1,0,0.1,0
			c0,0,0,0,0.1-0.1c0,0,0,0,0.1-0.1c0,0,0.1,0,0.1,0c0.1,0,0.2,0,0.2,0.1c0.1,0,0.1,0.1,0.1,0.2c0,0,0,0.1,0,0.1c0,0,0,0.1-0.1,0.1
			c0,0-0.1,0-0.1,0.1L3.2,9.1C3.1,9.2,3.1,9.4,3.1,9.6c0,0.1,0,0.1,0,0.1s0.1,0,0.1,0c0.1,0,0.1,0,0.1-0.1c0-0.1,0-0.2,0-0.2
			C3.4,9.3,3.4,9.3,3.5,9.2z"/>
		<path d="M3.2,9.9c-0.1,0-0.1,0-0.1,0.1c0,0,0,0.1,0,0.1c0,0,0,0.1,0,0.1c0,0,0.1,0.1,0.1,0.1c0.1,0,0.1,0,0.1-0.1
			c0,0,0.1-0.1,0.1-0.1c0-0.1,0-0.1-0.1-0.1C3.3,9.9,3.2,9.9,3.2,9.9z"/>
		<path d="M6.1,7c0,0.1,0,0.1,0.1,0.1c0,0,0.1,0,0.1,0c0,0,0,0,0-0.1c0-0.1,0-0.3,0-0.6c0-0.3,0-0.5,0-0.6c0,0,0-0.1-0.1-0.1
			c0,0-0.1,0-0.1,0s-0.1,0-0.1,0c0,0,0,0.1,0,0.1c0,0.1,0,0.3,0,0.6C6.1,6.7,6.1,6.9,6.1,7z"/>
		<path d="M6.3,7.7c0.1,0,0.1,0,0.1-0.1c0,0,0.1-0.1,0.1-0.1c0-0.1,0-0.1-0.1-0.1c0,0-0.1-0.1-0.1-0.1c-0.1,0-0.1,0-0.1,0.1
			c0,0-0.1,0.1-0.1,0.1c0,0.1,0,0.1,0.1,0.1C6.2,7.7,6.2,7.7,6.3,7.7z"/>
		<path d="M4.9,4.4h-2c-0.1,0-0.1,0.1-0.1,0.1s0.1,0.1,0.1,0.1h2C4.9,4.6,5,4.6,5,4.5S4.9,4.4,4.9,4.4z"/>
		<path d="M5,5c0-0.1-0.1-0.1-0.1-0.1h-2C2.8,4.9,2.7,4.9,2.7,5c0,0.1,0.1,0.1,0.1,0.1h2C4.9,5.1,5,5.1,5,5z"/>
		<path d="M2.8,5.4c-0.1,0-0.1,0.1-0.1,0.1c0,0.1,0.1,0.1,0.1,0.1h1C3.9,5.6,4,5.6,4,5.5c0-0.1-0.1-0.1-0.1-0.1H2.8z"/>
	</g>
</g>
</svg>
