<?xml version="1.0" encoding="utf-8"?>
<!-- Generator: Adobe Illustrator 24.0.2, SVG Export Plug-In . SVG Version: 6.00 Build 0)  -->
<svg version="1.1" id="Layer_1" xmlns="http://www.w3.org/2000/svg" xmlns:xlink="http://www.w3.org/1999/xlink" x="0px" y="0px"
	 viewBox="0 0 42 42" style="enable-background:new 0 0 42 42;" xml:space="preserve">
<style type="text/css">
	.st0{fill:#FC6A55;}
	.st1{stroke:#FFFFFF;stroke-width:0.25;stroke-miterlimit:10;}
	.st2{fill:#656D7A;}
	.st3{fill:#FFFFFF;}
	.st4{filter:url(#Adobe_OpacityMaskFilter);}
	.st5{fill-rule:evenodd;clip-rule:evenodd;fill:#FFFFFF;}
	.st6{mask:url(#mask-2_8_);fill-rule:evenodd;clip-rule:evenodd;}
	.st7{filter:url(#Adobe_OpacityMaskFilter_1_);}
	.st8{mask:url(#mask-2_7_);fill-rule:evenodd;clip-rule:evenodd;}
	.st9{filter:url(#Adobe_OpacityMaskFilter_2_);}
	.st10{mask:url(#mask-2_6_);fill-rule:evenodd;clip-rule:evenodd;}
	.st11{filter:url(#Adobe_OpacityMaskFilter_3_);}
	.st12{mask:url(#mask-2_5_);fill-rule:evenodd;clip-rule:evenodd;}
	.st13{filter:url(#Adobe_OpacityMaskFilter_4_);}
	.st14{mask:url(#mask-2_2_);fill:none;stroke:#000000;stroke-width:2;}
	.st15{fill:#434343;}
	.st16{fill:#434343;stroke:#F9F9F9;stroke-width:0.25;stroke-miterlimit:10;}
	.st17{fill:none;stroke:#FC6A55;stroke-width:0.5;stroke-miterlimit:10;}
	.st18{fill:none;stroke:#FC6A55;stroke-width:0.75;stroke-miterlimit:10;}
	.st19{fill:#FC6A55;stroke:#FC6A55;stroke-width:0.5;stroke-miterlimit:10;}
	.st20{opacity:0.153;fill:url(#Path_146_);enable-background:new    ;}
	.st21{opacity:0.1;fill:#590BB2;enable-background:new    ;}
	.st22{fill:#8E8CA8;}
	.st23{fill:#F5F4F9;}
	.st24{fill:#FFD5B8;}
	.st25{fill:#FC8473;}
	.st26{fill:#1C3475;}
	.st27{fill:#DDD9E4;}
	.st28{fill:#828FB3;}
	.st29{opacity:7.584635e-02;fill:url(#Path_147_);enable-background:new    ;}
	.st30{fill:#FFBE92;}
	.st31{fill:#FB8E7F;}
	.st32{fill:#FDB1A6;}
	.st33{fill:#FC806F;}
	.st34{fill:#FFE783;}
	.st35{fill:#104478;}
	.st36{fill:none;stroke:#FFFFFF;stroke-miterlimit:10;}
	.st37{fill:none;stroke:#FC6A55;stroke-miterlimit:10;}
	.st38{fill:none;stroke:#000000;stroke-width:0.15;stroke-miterlimit:10;}
	.st39{opacity:0.1;fill:url(#Path_148_);enable-background:new    ;}
	.st40{opacity:0.1;fill:url(#Path_149_);enable-background:new    ;}
</style>
<g>
	<g>
		<path class="st35" d="M41.2,24.8h-0.3v-9h0.3c0.2,0,0.3-0.2,0.3-0.3s-0.1-0.3-0.3-0.3h-5v-1l0.2,0.1c0.2,0.1,0.3,0,0.4-0.2
			c0.1-0.2,0-0.4-0.2-0.4l-1.3-0.5v-2.3h0.3c0.2,0,0.3-0.2,0.3-0.3c0-0.2-0.1-0.3-0.3-0.3h-0.3c-0.2-2.3-1.9-4.1-4-4.2V5.4h2.5
			c0.4,0,0.7-0.4,0.7-0.8V3.3c0-0.4-0.3-0.8-0.7-0.8H31c-0.2,0-0.3,0.2-0.3,0.3v3.1c-0.9,0-1.8,0.4-2.5,1c-0.1,0.1-0.2,0.3,0,0.5
			c0.1,0.1,0.3,0.2,0.4,0.1c0.6-0.6,1.4-0.9,2.2-0.9h0.3c1.8,0,3.4,1.6,3.5,3.5h-7.4c0.1-0.7,0.3-1.3,0.6-1.9
			C28,8.1,28,7.9,27.9,7.8c-0.1-0.1-0.3-0.1-0.4,0.1c-0.4,0.7-0.7,1.5-0.7,2.3h-0.3c-0.2,0-0.3,0.2-0.3,0.3s0.1,0.3,0.3,0.3h0.3v2.3
			l-1.3,0.5c-0.2,0.1-0.2,0.3-0.2,0.4c0.1,0.2,0.2,0.3,0.4,0.2l0.2-0.1v1h-5c-0.2,0-0.3,0.2-0.3,0.3s0.1,0.3,0.3,0.3h0.3v9h-0.3
			c-0.2,0-0.3,0.2-0.3,0.3s0.1,0.3,0.3,0.3h20.4c0.2,0,0.3-0.2,0.3-0.3S41.4,24.8,41.2,24.8z M31.3,3.2h2.5c0.1,0,0.1,0.1,0.1,0.1
			v1.3c0,0.1,0,0.1-0.1,0.1h-2.5V3.2z M27.3,10.8h7.4v2.1l-3.1-1.1c-0.4-0.1-0.8-0.1-1.2,0l-3.1,1.1V10.8z M26.4,13.9l4.1-1.5
			c0.3-0.1,0.6-0.1,0.9,0l4.1,1.5v1.2h-9.1V13.9z M24.5,24.8H23v-1.3h1.5V24.8z M24.5,22.8H23v-1.1c0-0.5,0.3-0.8,0.8-0.8
			c0.4,0,0.8,0.4,0.8,0.8V22.8z M25.7,24.8h-0.6v-3.2c0-0.8-0.6-1.5-1.4-1.5s-1.4,0.7-1.4,1.5v3.2h-0.6v-5.3h4V24.8z M25.7,18.8h-4
			v-3h3v0.7c0,0.6,0.4,1,0.9,1h0.1L25.7,18.8L25.7,18.8z M27.6,24.8h-1.3v-7.3h1.3L27.6,24.8L27.6,24.8z M29.6,24.8h-1.4v-7.3h1.4
			V24.8z M31.6,24.8h-1.3v-7.3h1.3V24.8z M33.7,24.8h-1.6v-7.3h0.1c0.2,0,0.3-0.2,0.3-0.3s-0.1-0.3-0.3-0.3h-6.6
			c-0.2,0-0.3-0.2-0.3-0.3v-0.7h11.3v0.7c0,0.2-0.1,0.3-0.3,0.3h-2.9c-0.2,0-0.3,0.2-0.3,0.3s0.1,0.3,0.3,0.3h0.3L33.7,24.8
			L33.7,24.8z M35.6,24.8h-1.3v-7.3h1.3L35.6,24.8L35.6,24.8z M39,24.8h-1.5v-1.3H39V24.8z M39,22.8h-1.5v-1.1
			c0-0.5,0.3-0.8,0.8-0.8s0.8,0.4,0.8,0.8V22.8z M40.3,24.8h-0.6v-3.2c0-0.8-0.6-1.5-1.4-1.5c-0.8,0-1.4,0.7-1.4,1.5v3.2h-0.6v-5.3
			h4V24.8z M40.3,18.8h-4v-1.3h0.1c0.5,0,0.9-0.5,0.9-1v-0.7h3V18.8z"/>
	</g>
	<path class="st35" d="M20.8,28.9v-1.1c0-4.9-4-8.8-8.8-8.8s-8.8,4-8.8,8.8v1.1c-1.6,0.8-2.7,2.4-2.7,4.3c0,2.6,2.1,4.7,4.7,4.7
		c0.4,0,0.7-0.3,0.7-0.7v-8.1c0-0.4-0.3-0.7-0.7-0.7c-0.2,0-0.5,0-0.7,0.1v-0.7c0-4.1,3.3-7.5,7.5-7.5s7.5,3.3,7.5,7.5v0.7
		c-0.2,0-0.4-0.1-0.7-0.1c-0.4,0-0.7,0.3-0.7,0.7v8.1c0,0.4,0.3,0.7,0.7,0.7c0.2,0,0.4,0,0.6,0c-0.3,0.8-1,1.4-1.9,1.4h-3.5
		c-0.3-0.8-1-1.4-1.9-1.4c-1.1,0-2,0.9-2,2c0,1.1,0.9,2,2,2c0.9,0,1.6-0.6,1.9-1.4h3.5c1.8,0,3.2-1.4,3.4-3.2
		c1.6-0.8,2.7-2.4,2.7-4.3C23.5,31.3,22.4,29.7,20.8,28.9z M4.6,36.5c-1.5-0.3-2.7-1.7-2.7-3.3c0-1.6,1.2-3,2.7-3.3V36.5z M12,40.6
		c-0.4,0-0.7-0.3-0.7-0.7c0-0.4,0.3-0.7,0.7-0.7c0.4,0,0.7,0.3,0.7,0.7C12.7,40.3,12.4,40.6,12,40.6z M19.5,36.5v-6.6
		c1.5,0.3,2.7,1.7,2.7,3.3C22.2,34.8,21,36.2,19.5,36.5z"/>
	<g>
		<path class="st35" d="M15.1,25.6h-0.6c0-0.1-0.1-0.2-0.1-0.3l0.6-0.6c0.1-0.1,0.1-0.4,0-0.5l-1.1-1.1c-0.1-0.1-0.4-0.1-0.5,0
			l-0.6,0.6c-0.1,0-0.2-0.1-0.3-0.1v-0.6c0-0.2-0.2-0.4-0.4-0.4h-1.4c-0.2,0-0.4,0.2-0.4,0.4v0.6c-0.1,0-0.2,0.1-0.3,0.1l-0.6-0.6
			c-0.1-0.1-0.2-0.1-0.3-0.1s-0.2,0-0.3,0.1L8,24.3c-0.1,0.1-0.1,0.4,0,0.5l0.6,0.6c0,0.1-0.1,0.2-0.1,0.3H7.9
			c-0.2,0-0.4,0.2-0.4,0.4v1.4c0,0.2,0.2,0.4,0.4,0.4h0.6c0,0.1,0.1,0.2,0.1,0.3L8,28.6c-0.1,0.1-0.1,0.4,0,0.5l1.1,1.1
			c0.1,0.1,0.4,0.1,0.5,0l0.6-0.6c0.1,0,0.2,0.1,0.3,0.1v0.6c0,0.2,0.2,0.4,0.4,0.4h1.4c0.2,0,0.4-0.2,0.4-0.4v-0.6
			c0.1,0,0.2-0.1,0.3-0.1l0.6,0.6c0.1,0.1,0.2,0.1,0.3,0.1s0.2,0,0.3-0.1l1.1-1.1c0.1-0.1,0.1-0.4,0-0.5l-0.6-0.6
			c0-0.1,0.1-0.2,0.1-0.3h0.6c0.2,0,0.4-0.2,0.4-0.4V26C15.5,25.8,15.3,25.6,15.1,25.6z M14.8,27.1h-0.5c-0.2,0-0.3,0.1-0.4,0.3
			c-0.1,0.2-0.1,0.4-0.2,0.6c-0.1,0.1-0.1,0.3,0.1,0.4l0.5,0.5l-0.6,0.6L13.2,29c-0.1-0.1-0.3-0.1-0.4-0.1c-0.2,0.1-0.4,0.2-0.6,0.2
			c-0.2,0-0.3,0.2-0.3,0.4V30h-0.7v-0.5c0-0.2-0.1-0.3-0.3-0.4c-0.2-0.1-0.4-0.1-0.6-0.2c-0.1-0.1-0.3-0.1-0.4,0.1l-0.5,0.5
			l-0.6-0.6l0.5-0.5c0.1-0.1,0.1-0.3,0.1-0.4c-0.1-0.2-0.2-0.4-0.2-0.6c0-0.2-0.2-0.3-0.4-0.3H8.3v-0.7h0.5c0.2,0,0.3-0.1,0.4-0.3
			c0.1-0.2,0.1-0.4,0.2-0.6c0.1-0.1,0.1-0.3-0.1-0.4l-0.5-0.5l0.6-0.6l0.5,0.5c0.1,0.1,0.3,0.1,0.4,0.1c0.2-0.1,0.4-0.2,0.6-0.2
			c0.2,0,0.3-0.2,0.3-0.4v-0.5h0.7v0.5c0,0.2,0.1,0.3,0.3,0.4c0.2,0.1,0.4,0.1,0.6,0.2c0.1,0.1,0.3,0.1,0.4-0.1l0.5-0.5l0.6,0.6
			L13.8,25c-0.1,0.1-0.1,0.3-0.1,0.4c0.1,0.2,0.2,0.4,0.2,0.6c0,0.2,0.2,0.3,0.4,0.3h0.5V27.1z"/>
		<path class="st35" d="M11.5,24.9c-1,0-1.8,0.8-1.8,1.8s0.8,1.8,1.8,1.8s1.8-0.8,1.8-1.8S12.5,24.9,11.5,24.9z M11.5,27.8
			c-0.6,0-1.1-0.5-1.1-1.1c0-0.6,0.5-1.1,1.1-1.1c0.6,0,1.1,0.5,1.1,1.1C12.6,27.3,12.1,27.8,11.5,27.8z"/>
	</g>
	<path class="st35" d="M2.5,14.9h5.8l2.5,2.5c0.1,0.1,0.3,0.2,0.5,0.2c0.1,0,0.2,0,0.3-0.1c0.3-0.1,0.4-0.4,0.4-0.6v-2h2.7
		c1.1,0,2-0.9,2-2V2c0-1.1-0.9-2-2-2H2.5c-1.1,0-2,0.9-2,2v10.8C0.5,14,1.4,14.9,2.5,14.9z M1.9,2c0-0.4,0.3-0.7,0.7-0.7h12.2
		c0.4,0,0.7,0.3,0.7,0.7v10.8c0,0.4-0.3,0.7-0.7,0.7h-3.4c-0.4,0-0.7,0.3-0.7,0.7v1.1l-1.6-1.6c-0.1-0.1-0.3-0.2-0.5-0.2H2.5
		c-0.4,0-0.7-0.3-0.7-0.7V2z"/>
	<path class="st35" d="M3.2,2.7H14v1.4H3.2V2.7z"/>
	<path class="st35" d="M4.6,5.4h8.1v1.4H4.6V5.4z"/>
	<path class="st35" d="M3.2,8.1H14v1.4H3.2V8.1z"/>
	<path class="st35" d="M4.6,10.8h8.1v1.4H4.6V10.8z"/>
</g>
</svg>
