<?xml version="1.0" encoding="utf-8"?>
<!-- Generator: Adobe Illustrator 24.0.2, SVG Export Plug-In . SVG Version: 6.00 Build 0)  -->
<svg version="1.1" id="Layer_1" xmlns="http://www.w3.org/2000/svg" xmlns:xlink="http://www.w3.org/1999/xlink" x="0px" y="0px"
	 viewBox="0 0 42 42" style="enable-background:new 0 0 42 42;" xml:space="preserve">
<style type="text/css">
	.st0{fill:#FC6A55;}
	.st1{stroke:#FFFFFF;stroke-width:0.25;stroke-miterlimit:10;}
	.st2{fill:#656D7A;}
	.st3{fill:#FFFFFF;}
	.st4{filter:url(#Adobe_OpacityMaskFilter);}
	.st5{fill-rule:evenodd;clip-rule:evenodd;fill:#FFFFFF;}
	.st6{mask:url(#mask-2_8_);fill-rule:evenodd;clip-rule:evenodd;}
	.st7{filter:url(#Adobe_OpacityMaskFilter_1_);}
	.st8{mask:url(#mask-2_7_);fill-rule:evenodd;clip-rule:evenodd;}
	.st9{filter:url(#Adobe_OpacityMaskFilter_2_);}
	.st10{mask:url(#mask-2_6_);fill-rule:evenodd;clip-rule:evenodd;}
	.st11{filter:url(#Adobe_OpacityMaskFilter_3_);}
	.st12{mask:url(#mask-2_5_);fill-rule:evenodd;clip-rule:evenodd;}
	.st13{filter:url(#Adobe_OpacityMaskFilter_4_);}
	.st14{mask:url(#mask-2_2_);fill:none;stroke:#000000;stroke-width:2;}
	.st15{fill:#434343;}
	.st16{fill:#434343;stroke:#F9F9F9;stroke-width:0.25;stroke-miterlimit:10;}
	.st17{fill:none;stroke:#FC6A55;stroke-width:0.5;stroke-miterlimit:10;}
	.st18{fill:none;stroke:#FC6A55;stroke-width:0.75;stroke-miterlimit:10;}
	.st19{fill:#FC6A55;stroke:#FC6A55;stroke-width:0.5;stroke-miterlimit:10;}
	.st20{opacity:0.153;fill:url(#Path_146_);enable-background:new    ;}
	.st21{opacity:0.1;fill:#590BB2;enable-background:new    ;}
	.st22{fill:#8E8CA8;}
	.st23{fill:#F5F4F9;}
	.st24{fill:#FFD5B8;}
	.st25{fill:#FC8473;}
	.st26{fill:#1C3475;}
	.st27{fill:#DDD9E4;}
	.st28{fill:#828FB3;}
	.st29{opacity:7.584635e-02;fill:url(#Path_147_);enable-background:new    ;}
	.st30{fill:#FFBE92;}
	.st31{fill:#FB8E7F;}
	.st32{fill:#FDB1A6;}
	.st33{fill:#FC806F;}
	.st34{fill:#FFE783;}
	.st35{fill:#104478;}
	.st36{fill:none;stroke:#FFFFFF;stroke-miterlimit:10;}
	.st37{fill:none;stroke:#FC6A55;stroke-miterlimit:10;}
	.st38{fill:none;stroke:#000000;stroke-width:0.15;stroke-miterlimit:10;}
	.st39{opacity:0.1;fill:url(#Path_148_);enable-background:new    ;}
	.st40{opacity:0.1;fill:url(#Path_149_);enable-background:new    ;}
</style>
<g>
	<g id="surface1_4_">
		<path class="st35" d="M41.3,24.8h-2.1L37.8,8.9c0-0.3-0.3-0.5-0.7-0.5h-4.2c-0.4,0-0.7,0.2-0.7,0.5l-1.4,15.9h-1.4v-3.4
			c0-0.3-0.3-0.6-0.7-0.6c-0.2,0-0.3,0-0.4,0.1l-5.9,3.8v-3.4c0-0.3-0.3-0.6-0.7-0.6c-0.2,0-0.3,0-0.4,0.1l-5.9,3.8v-3.4
			c0-0.3-0.3-0.6-0.7-0.6c-0.2,0-0.3,0-0.4,0.1l-5.9,3.8v-3.4c0-0.3-0.3-0.6-0.7-0.6c-0.1,0-0.3,0-0.4,0.1l-7,3.4
			C0.1,24.4,0,24.6,0,24.8v13.6C0,38.7,0.3,39,0.7,39h40.6c0.4,0,0.7-0.3,0.7-0.6v-13C42,25.1,41.7,24.8,41.3,24.8z M33.6,9.5h2.9
			l1.3,15.3h-5.5L33.6,9.5z M23.8,37.9v-6.8H28v6.8H23.8z M40.6,37.9H29.4v-7.4c0-0.3-0.3-0.6-0.7-0.6h-5.6c-0.4,0-0.7,0.3-0.7,0.6
			v7.4h-21V25.1L7,22.4V26c0,0.3,0.3,0.6,0.7,0.6c0.2,0,0.3,0,0.4-0.1l5.9-3.8V26c0,0.3,0.3,0.6,0.7,0.6c0.2,0,0.3,0,0.4-0.1
			l5.9-3.8V26c0,0.3,0.3,0.6,0.7,0.6c0.2,0,0.3,0,0.4-0.1l5.9-3.8v2.8c0,0.3,0.3,0.6,0.7,0.6h11.9L40.6,37.9L40.6,37.9z"/>
		<path class="st35" d="M25.8,4.4c0.3,0.1,0.5,0.3,0.7,0.5c0.4,0.5,1,0.8,1.6,0.9c0.6-0.1,1.2-0.4,1.6-0.9c0.2-0.2,0.4-0.4,0.6-0.5
			c0.1,0,0.5,0.4,0.7,0.5c0.4,0.5,0.9,0.8,1.5,0.9c0.7-0.1,1.3-0.4,1.8-1c0.2-0.2,0.4-0.4,0.5-0.4c0.4,0,0.5,0.1,0.7,0.5
			c0.3,0.6,0.9,0.9,1.5,0.9c0.4,0,0.7-0.3,0.7-0.7c0-0.4-0.3-0.7-0.7-0.7c-0.1,0-0.2,0-0.4-0.3C36.2,3.4,35.5,3,34.8,3
			c-0.6,0.1-1.1,0.4-1.4,0.8c-0.2,0.2-0.6,0.6-0.8,0.6c-0.2-0.1-0.4-0.3-0.6-0.5c-0.4-0.5-1-0.8-1.7-0.9c-0.6,0.1-1.2,0.4-1.5,0.9
			c-0.2,0.2-0.4,0.4-0.7,0.5c-0.2-0.1-0.4-0.3-0.6-0.5c-0.4-0.5-1-0.8-1.6-0.9c-0.4,0-0.7,0.3-0.7,0.7C25.1,4.1,25.4,4.4,25.8,4.4z"
			/>
		<path class="st35" d="M7.7,29.2H4.9c-0.4,0-0.7,0.3-0.7,0.7v4.2c0,0.4,0.3,0.7,0.7,0.7h2.8c0.4,0,0.7-0.3,0.7-0.7v-4.2
			C8.4,29.5,8.1,29.2,7.7,29.2z M7,33.4H5.6v-2.8H7V33.4z"/>
		<path class="st35" d="M13.3,29.2h-2.8c-0.4,0-0.7,0.3-0.7,0.7v4.2c0,0.4,0.3,0.7,0.7,0.7h2.8c0.4,0,0.7-0.3,0.7-0.7v-4.2
			C14,29.5,13.7,29.2,13.3,29.2z M12.6,33.4h-1.4v-2.8h1.4V33.4z"/>
		<path class="st35" d="M18.9,29.2h-2.8c-0.4,0-0.7,0.3-0.7,0.7v4.2c0,0.4,0.3,0.7,0.7,0.7h2.8c0.4,0,0.7-0.3,0.7-0.7v-4.2
			C19.6,29.5,19.3,29.2,18.9,29.2z M18.2,33.4h-1.4v-2.8h1.4V33.4z"/>
	</g>
	<g>
		<path class="st35" d="M14.1,16.8l0.1-1.2c0.5-0.1,0.9-0.3,1.4-0.6l0.9,0.7c0.2,0.2,0.5,0.1,0.6,0l1.4-1.4c0.2-0.2,0.2-0.4,0-0.6
			l-0.8-0.9c0.3-0.4,0.4-0.9,0.6-1.4l1.2-0.1c0.2,0,0.4-0.2,0.4-0.5v-2c0-0.2-0.2-0.4-0.4-0.5l-1.2-0.1c-0.1-0.5-0.3-0.9-0.6-1.4
			L18.6,6c0.2-0.2,0.1-0.5,0-0.6l-1.4-1.4c-0.2-0.2-0.4-0.2-0.6,0l-0.9,0.8c-0.4-0.3-0.9-0.4-1.4-0.6l-0.1-1.2
			c0-0.2-0.2-0.4-0.5-0.4h-2c-0.2,0-0.4,0.2-0.5,0.4L11,4.1c-0.5,0.1-0.9,0.3-1.4,0.6L8.7,3.9c-0.2-0.2-0.5-0.1-0.6,0L6.7,5.4
			C6.5,5.5,6.5,5.8,6.7,6l0.8,0.9C7.2,7.3,7,7.8,6.8,8.3L5.6,8.4c-0.2,0-0.4,0.2-0.4,0.5v2c0,0.2,0.2,0.4,0.4,0.5l1.2,0.1
			c0.1,0.5,0.3,0.9,0.6,1.4l-0.8,0.9c-0.2,0.2-0.1,0.5,0,0.6l1.4,1.4c0.2,0.2,0.4,0.2,0.6,0l0.9-0.8c0.4,0.3,0.9,0.4,1.4,0.6
			l0.1,1.2c0,0.2,0.2,0.4,0.5,0.4h2C13.9,17.3,14.1,17.1,14.1,16.8z M13.3,15.2l-0.1,1.1H12l-0.1-1.1c0-0.2-0.2-0.4-0.4-0.4
			c-0.6-0.1-1.2-0.4-1.7-0.7c-0.2-0.1-0.4-0.1-0.5,0l-0.8,0.7L7.6,14l0.7-0.8c0.1-0.2,0.1-0.4,0-0.6c-0.3-0.5-0.6-1.1-0.7-1.7
			c0-0.2-0.2-0.3-0.4-0.4l-1.1-0.1V9.3l1.1-0.1c0.2,0,0.4-0.2,0.4-0.4C7.8,8.2,8,7.6,8.4,7.1c0.1-0.2,0.1-0.4,0-0.5L7.6,5.7l0.8-0.8
			l0.8,0.7c0.2,0.1,0.4,0.1,0.5,0C10.4,5.3,11,5,11.6,4.9c0.2,0,0.3-0.2,0.4-0.4L12,3.4h1.2l0.1,1.1c0,0.2,0.2,0.4,0.4,0.4
			c0.6,0.1,1.2,0.4,1.7,0.7c0.2,0.1,0.4,0.1,0.5,0l0.8-0.7l0.8,0.8l-0.7,0.8c-0.1,0.2-0.1,0.4,0,0.5c0.3,0.5,0.6,1.1,0.7,1.7
			c0,0.2,0.2,0.3,0.4,0.4l1.1,0.1v1.2L18,10.6c-0.2,0-0.4,0.2-0.4,0.4c-0.1,0.6-0.4,1.2-0.7,1.7c-0.1,0.2-0.1,0.4,0,0.5l0.7,0.8
			l-0.8,0.8l-0.8-0.7c-0.2-0.1-0.4-0.1-0.5,0c-0.5,0.3-1.1,0.6-1.7,0.7C13.5,14.9,13.3,15,13.3,15.2z"/>
		<path class="st35" d="M17,9.9c0-2.4-2-4.4-4.4-4.4c-2.4,0-4.4,2-4.4,4.4c0,2.4,2,4.4,4.4,4.4C15,14.3,17,12.3,17,9.9z M12.6,13.3
			c-1.9,0-3.5-1.6-3.5-3.5c0-1.9,1.6-3.5,3.5-3.5s3.5,1.6,3.5,3.5C16.1,11.8,14.5,13.3,12.6,13.3z"/>
	</g>
</g>
</svg>
