<?xml version="1.0" encoding="utf-8"?>
<!-- Generator: Adobe Illustrator 24.0.2, SVG Export Plug-In . SVG Version: 6.00 Build 0)  -->
<svg version="1.1" id="Layer_1" xmlns="http://www.w3.org/2000/svg" xmlns:xlink="http://www.w3.org/1999/xlink" x="0px" y="0px"
	 viewBox="0 0 42 42" style="enable-background:new 0 0 42 42;" xml:space="preserve">
<style type="text/css">
	.st0{fill:#FC6A55;}
	.st1{stroke:#FFFFFF;stroke-width:0.25;stroke-miterlimit:10;}
	.st2{fill:#656D7A;}
	.st3{fill:#FFFFFF;}
	.st4{filter:url(#Adobe_OpacityMaskFilter);}
	.st5{fill-rule:evenodd;clip-rule:evenodd;fill:#FFFFFF;}
	.st6{mask:url(#mask-2_8_);fill-rule:evenodd;clip-rule:evenodd;}
	.st7{filter:url(#Adobe_OpacityMaskFilter_1_);}
	.st8{mask:url(#mask-2_7_);fill-rule:evenodd;clip-rule:evenodd;}
	.st9{filter:url(#Adobe_OpacityMaskFilter_2_);}
	.st10{mask:url(#mask-2_6_);fill-rule:evenodd;clip-rule:evenodd;}
	.st11{filter:url(#Adobe_OpacityMaskFilter_3_);}
	.st12{mask:url(#mask-2_5_);fill-rule:evenodd;clip-rule:evenodd;}
	.st13{filter:url(#Adobe_OpacityMaskFilter_4_);}
	.st14{mask:url(#mask-2_2_);fill:none;stroke:#000000;stroke-width:2;}
	.st15{fill:#434343;}
	.st16{fill:#434343;stroke:#F9F9F9;stroke-width:0.25;stroke-miterlimit:10;}
	.st17{fill:none;stroke:#FC6A55;stroke-width:0.5;stroke-miterlimit:10;}
	.st18{fill:none;stroke:#FC6A55;stroke-width:0.75;stroke-miterlimit:10;}
	.st19{fill:#FC6A55;stroke:#FC6A55;stroke-width:0.5;stroke-miterlimit:10;}
	.st20{opacity:0.153;fill:url(#Path_146_);enable-background:new    ;}
	.st21{opacity:0.1;fill:#590BB2;enable-background:new    ;}
	.st22{fill:#8E8CA8;}
	.st23{fill:#F5F4F9;}
	.st24{fill:#FFD5B8;}
	.st25{fill:#FC8473;}
	.st26{fill:#1C3475;}
	.st27{fill:#DDD9E4;}
	.st28{fill:#828FB3;}
	.st29{opacity:7.584635e-02;fill:url(#Path_147_);enable-background:new    ;}
	.st30{fill:#FFBE92;}
	.st31{fill:#FB8E7F;}
	.st32{fill:#FDB1A6;}
	.st33{fill:#FC806F;}
	.st34{fill:#FFE783;}
	.st35{fill:#104478;}
	.st36{fill:none;stroke:#FFFFFF;stroke-miterlimit:10;}
	.st37{fill:none;stroke:#FC6A55;stroke-miterlimit:10;}
	.st38{fill:none;stroke:#000000;stroke-width:0.15;stroke-miterlimit:10;}
	.st39{opacity:0.1;fill:url(#Path_148_);enable-background:new    ;}
	.st40{opacity:0.1;fill:url(#Path_149_);enable-background:new    ;}
</style>
<g>
	<path class="st35" d="M10.8,6.9c0-2.2-1.8-4.1-4.1-4.1S2.7,4.6,2.7,6.9s1.8,4.1,4.1,4.1S10.8,9.1,10.8,6.9z M4.1,6.9
		c0-1.5,1.2-2.7,2.7-2.7s2.7,1.2,2.7,2.7S8.2,9.6,6.8,9.6S4.1,8.3,4.1,6.9z"/>
	<path class="st35" d="M36.4,4.6l1-1l1,1l-1,1L36.4,4.6z"/>
	<path class="st35" d="M34.5,6.5l1-1l1,1l-1,1L34.5,6.5z"/>
	<path class="st35" d="M32.6,8.4l0.9-0.9l1,1l-0.9,0.9L32.6,8.4z"/>
	<path class="st35" d="M39.9,28.5h-3.7c1.1-2.3,1.7-4.8,1.7-7.4c0-3.4-1-6.7-2.9-9.5c0.5-0.4,1-0.7,1.5-1.1l4.2,4.2l1.4-1.4L40,7
		l0.2-0.2c0.7-0.7,1-1.6,1-2.5c0-2-1.6-3.5-3.5-3.5c-0.9,0-1.8,0.4-2.5,1L35,2l-6.1-2l-1.4,1.4l4.2,4.2c-0.4,0.5-0.8,1-1.1,1.5
		c-2.8-1.9-6.1-2.9-9.5-2.9c-2.6,0-5.2,0.6-7.5,1.8C13,2.6,10.2,0.1,6.8,0.1C3,0.1,0,3.1,0,6.9V7c0,1.3,0.4,2.6,1.1,3.7l3.6,5.4
		c-0.5,1.6-0.7,3.2-0.7,4.8c0,2.1,0.4,4.1,1.1,6.1H4.7c-1.1,0-2,0.9-2,2c0,0.9,0.6,1.6,1.4,1.9v1.5H0v2.3c0,4,3.2,7.2,7.2,7.2h7.5
		c2.8,0,5.3-1.6,6.5-4.1c2,0,4-0.4,5.9-1.1V40c0,1.1,0.9,2,2,2h10.8c1.1,0,2-0.9,2-2v-9.5C41.9,29.4,41,28.5,39.9,28.5z M32.4,29.8
		h4.1v1.4h-4.1V29.8z M29.1,28.5h-2c0.4-2,0.6-4.3,0.7-6.8h8.8c-0.1,2.4-0.7,4.7-1.9,6.8H29.1z M21.6,36.5l0-1.2h-3l-2.2-4.3
		c0.4-0.2,0.8-0.6,0.9-1.1h7.9C24.4,33.5,23,35.9,21.6,36.5z M17.4,28.5c-0.2-0.6-0.8-1.1-1.4-1.3c-0.3-1.7-0.4-3.6-0.5-5.5h10.8
		c0,2.5-0.3,4.8-0.7,6.8H17.4z M5.4,20.4c0-1,0.2-2,0.4-2.9c0.3,0.2,0.6,0.2,0.9,0.2c0.6,0,1.3-0.3,1.6-0.9l2.1-3.2h4.4
		c-0.4,2-0.6,4.3-0.7,6.8L5.4,20.4z M16.2,13.6h9.4c0.4,2.1,0.6,4.4,0.7,6.8H15.6C15.6,17.9,15.8,15.6,16.2,13.6L16.2,13.6z M21,5.5
		c1.2,0,2.4,1.4,3.4,3.7l-0.5,0.5l0.9,0.4c0.2,0.7,0.4,1.3,0.6,2.1h-8.8C17.6,8.1,19.3,5.5,21,5.5z M28.4,10.5l-2.3-1.1L26.6,9
		l2.4,0.6C28.8,9.9,28.6,10.2,28.4,10.5z M27.9,11.7C27.9,11.8,27.9,11.8,27.9,11.7c-0.1,0.2-0.1,0.4-0.1,0.5h-1
		c-0.1-0.4-0.2-0.8-0.3-1.2L27.9,11.7z M36.5,20.4h-8.8c0-2.4-0.3-4.7-0.7-6.8h1.1c0.3,0.4,0.8,0.7,1.4,0.7c0.2,0,0.5,0,0.7-0.1
		c0,0,0,0,0,0l2,4l2.3-2.3l-0.9-3.5c0,0,0.1,0,0.1-0.1C35.4,14.7,36.3,17.5,36.5,20.4L36.5,20.4z M32.5,13.1l0.6,2.4l-0.4,0.4
		l-1.1-2.3C31.8,13.4,32.1,13.2,32.5,13.1z M40.4,12.5l-2.9-2.9c0.3-0.3,0.7-0.6,1-0.9l0.5-0.5L40.4,12.5z M37.7,2.1
		c1.2,0,2.2,1,2.2,2.2c0,0.6-0.2,1.1-0.6,1.5l-1.8,1.8c-2.2,2.2-4.9,4-7.8,5.3c-0.3,0.1-0.6-0.1-0.6-0.4c0-0.1,0-0.1,0-0.2
		c1.3-2.9,3-5.5,5.3-7.8l1.8-1.8v0C36.5,2.4,37.1,2.1,37.7,2.1z M29.5,1.6l4.4,1.5l-0.5,0.5c-0.3,0.3-0.6,0.7-0.9,1L29.5,1.6z
		 M29.6,8.3l-3.5-0.9l-0.7,0.7c-0.4-1-0.9-1.8-1.5-2.4C26,6.2,28,7,29.7,8.2C29.7,8.3,29.7,8.3,29.6,8.3L29.6,8.3z M13.5,7.4
		c1.4-0.8,2.9-1.3,4.5-1.6c-1.2,1.4-2.2,3.7-2.9,6.5h-3.7l1-1.5C13.1,9.8,13.4,8.6,13.5,7.4z M1.4,7V6.9c0-3,2.4-5.4,5.4-5.4
		s5.4,2.4,5.4,5.4V7c0,1.1-0.3,2.1-0.9,3l-4,6c-0.2,0.3-0.8,0.3-1,0l-4-6C1.7,9.2,1.4,8.1,1.4,7z M5.4,21.7h8.8
		c0,1.9,0.2,3.7,0.4,5.4h-8C5.9,25.4,5.5,23.6,5.4,21.7z M4.7,28.5h10.8c0.4,0,0.7,0.3,0.7,0.7s-0.3,0.7-0.7,0.7H4.7
		c-0.4,0-0.7-0.3-0.7-0.7S4.4,28.5,4.7,28.5z M5.4,31.2h9.7l2,4.1H7.9l-1.4-2.7H5.4V31.2z M14.7,40.6H7.2c-3.2,0-5.8-2.6-5.8-5.8
		v-0.9h4.3L7,36.6h13.2C19.5,39,17.2,40.6,14.7,40.6z M23.9,36.3c1.2-1.4,2.2-3.7,2.9-6.5h0.4C27.1,30,27,30.3,27,30.5v4.8
		C26,35.8,25,36.1,23.9,36.3z M40.6,40c0,0.4-0.3,0.7-0.7,0.7H29.1c-0.4,0-0.7-0.3-0.7-0.7v-9.5c0-0.4,0.3-0.7,0.7-0.7h2v2.7h6.8
		v-2.7h2c0.4,0,0.7,0.3,0.7,0.7V40z"/>
	<path class="st35" d="M37.8,37.9h1.4v1.4h-1.4V37.9z"/>
	<path class="st35" d="M35.1,37.9h1.4v1.4h-1.4V37.9z"/>
	<path class="st35" d="M10.8,32.5h1.4v1.4h-1.4V32.5z"/>
	<path class="st35" d="M13.5,32.5h1.4v1.4h-1.4V32.5z"/>
	<path class="st35" d="M8.1,32.5h1.4v1.4H8.1V32.5z"/>
	<path class="st35" d="M17.6,23.1h1.4v1.4h-1.4V23.1z"/>
	<path class="st35" d="M23,23.1h1.4v1.4H23V23.1z"/>
	<path class="st35" d="M20.3,23.1h1.4v1.4h-1.4V23.1z"/>
	<path class="st35" d="M23,17.7h1.4V19H23V17.7z"/>
	<path class="st35" d="M20.3,17.7h1.4V19h-1.4V17.7z"/>
	<path class="st35" d="M17.6,17.7h1.4V19h-1.4V17.7z"/>
</g>
</svg>
