<?xml version="1.0" encoding="utf-8"?>
<!-- Generator: Adobe Illustrator 24.0.2, SVG Export Plug-In . SVG Version: 6.00 Build 0)  -->
<svg version="1.1" id="Layer_1" xmlns="http://www.w3.org/2000/svg" xmlns:xlink="http://www.w3.org/1999/xlink" x="0px" y="0px"
	 viewBox="0 0 42 42" style="enable-background:new 0 0 42 42;" xml:space="preserve">
<style type="text/css">
	.st0{fill:#FC6A55;}
	.st1{stroke:#FFFFFF;stroke-width:0.25;stroke-miterlimit:10;}
	.st2{fill:#656D7A;}
	.st3{fill:#FFFFFF;}
	.st4{filter:url(#Adobe_OpacityMaskFilter);}
	.st5{fill-rule:evenodd;clip-rule:evenodd;fill:#FFFFFF;}
	.st6{mask:url(#mask-2_8_);fill-rule:evenodd;clip-rule:evenodd;}
	.st7{filter:url(#Adobe_OpacityMaskFilter_1_);}
	.st8{mask:url(#mask-2_7_);fill-rule:evenodd;clip-rule:evenodd;}
	.st9{filter:url(#Adobe_OpacityMaskFilter_2_);}
	.st10{mask:url(#mask-2_6_);fill-rule:evenodd;clip-rule:evenodd;}
	.st11{filter:url(#Adobe_OpacityMaskFilter_3_);}
	.st12{mask:url(#mask-2_5_);fill-rule:evenodd;clip-rule:evenodd;}
	.st13{filter:url(#Adobe_OpacityMaskFilter_4_);}
	.st14{mask:url(#mask-2_2_);fill:none;stroke:#000000;stroke-width:2;}
	.st15{fill:#434343;}
	.st16{fill:#434343;stroke:#F9F9F9;stroke-width:0.25;stroke-miterlimit:10;}
	.st17{fill:none;stroke:#FC6A55;stroke-width:0.5;stroke-miterlimit:10;}
	.st18{fill:none;stroke:#FC6A55;stroke-width:0.75;stroke-miterlimit:10;}
	.st19{fill:#FC6A55;stroke:#FC6A55;stroke-width:0.5;stroke-miterlimit:10;}
	.st20{opacity:0.153;fill:url(#Path_146_);enable-background:new    ;}
	.st21{opacity:0.1;fill:#590BB2;enable-background:new    ;}
	.st22{fill:#8E8CA8;}
	.st23{fill:#F5F4F9;}
	.st24{fill:#FFD5B8;}
	.st25{fill:#FC8473;}
	.st26{fill:#1C3475;}
	.st27{fill:#DDD9E4;}
	.st28{fill:#828FB3;}
	.st29{opacity:7.584635e-02;fill:url(#Path_147_);enable-background:new    ;}
	.st30{fill:#FFBE92;}
	.st31{fill:#FB8E7F;}
	.st32{fill:#FDB1A6;}
	.st33{fill:#FC806F;}
	.st34{fill:#FFE783;}
	.st35{fill:#104478;}
	.st36{fill:none;stroke:#FFFFFF;stroke-miterlimit:10;}
	.st37{fill:none;stroke:#FC6A55;stroke-miterlimit:10;}
	.st38{fill:none;stroke:#000000;stroke-width:0.15;stroke-miterlimit:10;}
	.st39{opacity:0.1;fill:url(#Path_148_);enable-background:new    ;}
	.st40{opacity:0.1;fill:url(#Path_149_);enable-background:new    ;}
</style>
<g>
	<g>
		<g>
			<path class="st35" d="M34.1,36.6l-1.6-4.7c-0.5-1.6-2-2.9-3.7-3.2l-4.5-0.8v-0.4c0.8-0.5,1.5-1.1,2-1.8h1.4c1.1,0,2-0.9,2-2v-8.1
				c0-4.9-4-8.8-8.8-8.8s-8.8,4-8.8,8.8v4.8c0,1.3,0.9,2.4,2.2,2.7c0.4,2,1.6,3.6,3.3,4.6v0.4L13,28.7c-1.7,0.3-3.1,1.5-3.7,3.2
				l-0.3,0.8l-2.3-2.3c-0.3-0.3-0.3-0.7,0-1l2.7-2.7l-5-5l-3,3C0.5,25.7,0,26.8,0,28.1s0.5,2.5,1.4,3.4l9.2,9.2
				c0.9,0.9,2.1,1.4,3.4,1.4s2.5-0.5,3.3-1.4l3.3-3l-1-1H34.1z M28.4,23.7c0,0.4-0.3,0.7-0.7,0.7h-0.6c0.2-0.4,0.3-0.9,0.4-1.4
				c0.3-0.1,0.6-0.2,0.8-0.3V23.7z M27.7,21.5v-2.3c0.4,0.2,0.7,0.7,0.7,1.2S28.1,21.3,27.7,21.5z M14.2,21.5
				c-0.4-0.2-0.7-0.7-0.7-1.2s0.3-0.9,0.7-1.2V21.5z M14.2,16.9v0.8c-0.2,0.1-0.5,0.2-0.7,0.3v-2.4c0-4.1,3.4-7.5,7.5-7.5
				s7.5,3.4,7.5,7.5V18c-0.2-0.1-0.4-0.2-0.7-0.3v-0.8h-0.7c-2,0-3.9-0.8-5.3-2.2L21,13.9l-0.8,0.8c-1.4,1.4-3.3,2.2-5.3,2.2H14.2z
				 M15.5,21.7v-3.4c2-0.2,3.9-1,5.4-2.4c1.5,1.4,3.4,2.3,5.4,2.4v3.4c0,1-0.3,1.9-0.7,2.7H21v1.4h3.6c-1,0.8-2.2,1.4-3.6,1.4
				C18,27.1,15.5,24.7,15.5,21.7z M23,28.2L23,28.2l-2,2.1l-2-2v0c0.6,0.2,1.3,0.3,2,0.3C21.7,28.5,22.3,28.4,23,28.2z M10.6,32.3
				c0.4-1.2,1.4-2,2.6-2.3l4.7-0.9l2.9,2.9l2.9-2.9l4.7,0.9c1.2,0.2,2.2,1.1,2.6,2.3l1,2.9h-14l-2.6-2.6l-2.9,2.7
				c-0.3,0.3-0.7,0.3-1,0l-1.5-1.5L10.6,32.3z M4.4,23.6l3.1,3.1l-0.7,0.7l-3.1-3.1L4.4,23.6z M16.3,39.7c-0.6,0.6-1.5,1-2.4,1
				c-0.9,0-1.8-0.4-2.4-1l-9.2-9.2c-0.6-0.6-1-1.5-1-2.4c0-0.9,0.4-1.8,1-2.4l0.4-0.4l3.1,3.1l0,0c-0.8,0.8-0.8,2.1,0,2.9l4.9,4.9
				c0.4,0.4,0.9,0.6,1.4,0.6c0.5,0,1.1-0.2,1.4-0.6l0.1,0l3.1,3.1L16.3,39.7z M17.7,38.4l-3.1-3.1l0.9-0.8l3.1,3.1L17.7,38.4z"/>
		</g>
	</g>
	<g>
		<g>
			<path class="st35" d="M40,0h-9.5c-1.1,0-2,0.9-2,2v5.4c0,1.1,0.9,2,2,2h1.8l-0.7,4.1l6.6-4.1H40c1.1,0,2-0.9,2-2V2
				C42,0.9,41.1,0,40,0z M40.6,7.4c0,0.4-0.3,0.7-0.7,0.7h-2.2l-4.3,2.7l0.5-2.7h-3.4c-0.4,0-0.7-0.3-0.7-0.7V2
				c0-0.4,0.3-0.7,0.7-0.7H40c0.4,0,0.7,0.3,0.7,0.7V7.4z"/>
		</g>
	</g>
	<g>
		<g>
			<rect x="31.1" y="2.7" class="st35" width="8.1" height="1.4"/>
		</g>
	</g>
	<g>
		<g>
			<rect x="31.1" y="5.4" class="st35" width="5.4" height="1.4"/>
		</g>
	</g>
	<g>
		<g>
			<rect x="37.9" y="5.4" class="st35" width="1.4" height="1.4"/>
		</g>
	</g>
	<g>
		<g>
			<path class="st35" d="M21,2C12.1,2,4.4,8.1,2.5,16.7l-1.3-2.1L0,15.2l2.4,4l4-2.4l-0.7-1.2l-1.8,1.1C5.7,8.9,12.8,3.3,21,3.3
				c1.8,0,3.5,0.3,5.2,0.8l0.4-1.3C24.8,2.3,22.9,2,21,2z"/>
		</g>
	</g>
	<g>
		<g>
			<path class="st35" d="M41.7,15l-4-2.4l-2.4,4l1.2,0.7l1.2-2c0.6,1.8,0.9,3.7,0.9,5.7c0,4-1.4,8-3.9,11.1l1.1,0.9
				c2.7-3.4,4.2-7.6,4.2-12c0-2.1-0.3-4.1-1-6l2,1.2L41.7,15z"/>
		</g>
	</g>
</g>
</svg>
