<?xml version="1.0" encoding="utf-8"?>
<!-- Generator: Adobe Illustrator 24.0.2, SVG Export Plug-In . SVG Version: 6.00 Build 0)  -->
<svg version="1.1" id="Layer_1" xmlns="http://www.w3.org/2000/svg" xmlns:xlink="http://www.w3.org/1999/xlink" x="0px" y="0px"
	 viewBox="0 0 42 42" style="enable-background:new 0 0 42 42;" xml:space="preserve">
<style type="text/css">
	.st0{fill:#FC6A55;}
	.st1{stroke:#FFFFFF;stroke-width:0.25;stroke-miterlimit:10;}
	.st2{fill:#656D7A;}
	.st3{fill:#FFFFFF;}
	.st4{filter:url(#Adobe_OpacityMaskFilter);}
	.st5{fill-rule:evenodd;clip-rule:evenodd;fill:#FFFFFF;}
	.st6{mask:url(#mask-2_8_);fill-rule:evenodd;clip-rule:evenodd;}
	.st7{filter:url(#Adobe_OpacityMaskFilter_1_);}
	.st8{mask:url(#mask-2_7_);fill-rule:evenodd;clip-rule:evenodd;}
	.st9{filter:url(#Adobe_OpacityMaskFilter_2_);}
	.st10{mask:url(#mask-2_6_);fill-rule:evenodd;clip-rule:evenodd;}
	.st11{filter:url(#Adobe_OpacityMaskFilter_3_);}
	.st12{mask:url(#mask-2_5_);fill-rule:evenodd;clip-rule:evenodd;}
	.st13{filter:url(#Adobe_OpacityMaskFilter_4_);}
	.st14{mask:url(#mask-2_2_);fill:none;stroke:#000000;stroke-width:2;}
	.st15{fill:#434343;}
	.st16{fill:#434343;stroke:#F9F9F9;stroke-width:0.25;stroke-miterlimit:10;}
	.st17{fill:none;stroke:#FC6A55;stroke-width:0.5;stroke-miterlimit:10;}
	.st18{fill:none;stroke:#FC6A55;stroke-width:0.75;stroke-miterlimit:10;}
	.st19{fill:#FC6A55;stroke:#FC6A55;stroke-width:0.5;stroke-miterlimit:10;}
	.st20{opacity:0.153;fill:url(#Path_146_);enable-background:new    ;}
	.st21{opacity:0.1;fill:#590BB2;enable-background:new    ;}
	.st22{fill:#8E8CA8;}
	.st23{fill:#F5F4F9;}
	.st24{fill:#FFD5B8;}
	.st25{fill:#FC8473;}
	.st26{fill:#1C3475;}
	.st27{fill:#DDD9E4;}
	.st28{fill:#828FB3;}
	.st29{opacity:7.584635e-02;fill:url(#Path_147_);enable-background:new    ;}
	.st30{fill:#FFBE92;}
	.st31{fill:#FB8E7F;}
	.st32{fill:#FDB1A6;}
	.st33{fill:#FC806F;}
	.st34{fill:#FFE783;}
	.st35{fill:#104478;}
	.st36{fill:none;stroke:#FFFFFF;stroke-miterlimit:10;}
	.st37{fill:none;stroke:#FC6A55;stroke-miterlimit:10;}
	.st38{fill:none;stroke:#000000;stroke-width:0.15;stroke-miterlimit:10;}
	.st39{opacity:0.1;fill:url(#Path_148_);enable-background:new    ;}
	.st40{opacity:0.1;fill:url(#Path_149_);enable-background:new    ;}
</style>
<g>
	<path class="st35" d="M21.8,23.4c0.7-0.4,1.2-1.2,1.2-2.1c0-0.9-0.5-1.7-1.3-2.1l-7.1-3.6c-0.9-0.5-1.9-0.7-2.9-0.8
		c1.1-1,1.9-2.5,1.9-4.1c0-3-2.4-5.4-5.4-5.4s-5.4,2.4-5.4,5.4c0,1.7,0.8,3.2,2,4.2C2,15.7,0,18.1,0,21v6.8c0,1.9,1.5,3.4,3.4,3.4
		v8.1c0,1.5,1.2,2.7,2.7,2.7c0.8,0,1.5-0.4,2-0.9c0.5,0.6,1.2,0.9,2,0.9c1.5,0,2.7-1.2,2.7-2.7V20.4l6.8,3.1
		c0.2,0.1,0.5,0.2,0.8,0.2l3.1,10.4c-0.7,0.3-1.2,1-1.2,1.8c0,0.8,0.5,1.5,1.2,1.8c-0.3,0.4-0.5,1-0.5,1.6c0,1.5,1.2,2.7,2.7,2.7
		s2.7-1.2,2.7-2.7c0-0.5-0.1-1-0.4-1.4h7.5c-0.2,0.4-0.4,0.9-0.4,1.4c0,1.5,1.2,2.7,2.7,2.7c1.5,0,2.7-1.2,2.7-2.7s-1.2-2.7-2.7-2.7
		H24.4c-0.4,0-0.7-0.3-0.7-0.7s0.3-0.7,0.7-0.7h16.1l1.5-6.6l0-1.5H22.9L21.8,23.4z M4.1,10.8c0-2.2,1.8-4.1,4.1-4.1
		s4.1,1.8,4.1,4.1s-1.8,4.1-4.1,4.1S4.1,13.1,4.1,10.8z M13,19h-1.5v20.3c0,0.7-0.6,1.4-1.4,1.4c-0.7,0-1.4-0.6-1.4-1.4V26.4H7.5
		v12.9c0,0.7-0.6,1.4-1.4,1.4S4.7,40,4.7,39.3V19.6H3.4v10.2c-1.1,0-2-0.9-2-2V21c0-2.6,2.1-4.7,4.7-4.7h5.2c0.9,0,1.9,0.2,2.7,0.6
		l7.1,3.6c0.3,0.2,0.5,0.5,0.5,0.9c0,0.5-0.4,1-1,1c-0.1,0-0.3,0-0.4-0.1L13,19z M27.1,39.3c0,0.7-0.6,1.4-1.4,1.4s-1.4-0.6-1.4-1.4
		c0-0.7,0.6-1.4,1.4-1.4S27.1,38.5,27.1,39.3z M39.3,39.3c0,0.7-0.6,1.4-1.4,1.4c-0.7,0-1.4-0.6-1.4-1.4c0-0.7,0.6-1.4,1.4-1.4
		C38.7,37.9,39.3,38.5,39.3,39.3z M40.6,28.5l-1.2,5.4H24.9l-1.6-5.4H40.6z"/>
	<path class="st35" d="M31.8,17.6c4.1,0,7.5-3.3,7.5-7.5s-3.3-7.5-7.5-7.5s-7.5,3.3-7.5,7.5S27.7,17.6,31.8,17.6z M31.8,4.1
		c3.4,0,6.1,2.7,6.1,6.1s-2.7,6.1-6.1,6.1c-3.4,0-6.1-2.7-6.1-6.1S28.5,4.1,31.8,4.1z"/>
	<path class="st35" d="M31.8,12.2c-0.4,0-0.7-0.3-0.7-0.7h-1.4c0,0.9,0.6,1.6,1.4,1.9v1.5h1.4v-1.4h1.4v-2c0-1.1-0.9-2-2-2
		c-0.4,0-0.7-0.3-0.7-0.7V8.1h0.7c0.4,0,0.7,0.3,0.7,0.7h1.4c0-0.9-0.6-1.6-1.4-1.9V5.4h-1.4v1.4h-1.4v2c0,1.1,0.9,2,2,2
		c0.4,0,0.7,0.3,0.7,0.7v0.7H31.8z"/>
	<path class="st35" d="M35.2,9.5h1.4v1.4h-1.4V9.5z"/>
	<path class="st35" d="M27.1,9.5h1.4v1.4h-1.4V9.5z"/>
	<path class="st35" d="M27.1,19.1v7.7l4.7-2.4l4.7,2.4v-7.7c3.2-1.7,5.4-5.1,5.4-9C42,4.6,37.4,0,31.8,0S21.7,4.6,21.7,10.2
		C21.7,14.1,23.9,17.4,27.1,19.1z M28.5,19.7c0.9,0.3,1.8,0.5,2.7,0.6v3l-2.7,1.4V19.7z M35.2,24.6l-2.7-1.4v-3
		c0.9-0.1,1.9-0.3,2.7-0.6V24.6z M31.8,1.4c4.9,0,8.8,4,8.8,8.8s-4,8.8-8.8,8.8S23,15,23,10.2S27,1.4,31.8,1.4z"/>
	<path class="st35" d="M35.2,29.8h1.4v2.7h-1.4V29.8z"/>
	<path class="st35" d="M31.2,29.8h1.4v2.7h-1.4V29.8z"/>
	<path class="st35" d="M27.1,29.8h1.4v2.7h-1.4V29.8z"/>
</g>
</svg>
