<?xml version="1.0" encoding="utf-8"?>
<!-- Generator: Adobe Illustrator 24.0.2, SVG Export Plug-In . SVG Version: 6.00 Build 0)  -->
<svg version="1.1" id="Layer_1" xmlns="http://www.w3.org/2000/svg" xmlns:xlink="http://www.w3.org/1999/xlink" x="0px" y="0px"
	 viewBox="0 0 42 42" style="enable-background:new 0 0 42 42;" xml:space="preserve">
<style type="text/css">
	.st0{fill:#FC6A55;}
	.st1{stroke:#FFFFFF;stroke-width:0.25;stroke-miterlimit:10;}
	.st2{fill:#656D7A;}
	.st3{fill:#FFFFFF;}
	.st4{filter:url(#Adobe_OpacityMaskFilter);}
	.st5{fill-rule:evenodd;clip-rule:evenodd;fill:#FFFFFF;}
	.st6{mask:url(#mask-2_8_);fill-rule:evenodd;clip-rule:evenodd;}
	.st7{filter:url(#Adobe_OpacityMaskFilter_1_);}
	.st8{mask:url(#mask-2_7_);fill-rule:evenodd;clip-rule:evenodd;}
	.st9{filter:url(#Adobe_OpacityMaskFilter_2_);}
	.st10{mask:url(#mask-2_6_);fill-rule:evenodd;clip-rule:evenodd;}
	.st11{filter:url(#Adobe_OpacityMaskFilter_3_);}
	.st12{mask:url(#mask-2_5_);fill-rule:evenodd;clip-rule:evenodd;}
	.st13{filter:url(#Adobe_OpacityMaskFilter_4_);}
	.st14{mask:url(#mask-2_2_);fill:none;stroke:#000000;stroke-width:2;}
	.st15{fill:#434343;}
	.st16{fill:#434343;stroke:#F9F9F9;stroke-width:0.25;stroke-miterlimit:10;}
	.st17{fill:none;stroke:#FC6A55;stroke-width:0.5;stroke-miterlimit:10;}
	.st18{fill:none;stroke:#FC6A55;stroke-width:0.75;stroke-miterlimit:10;}
	.st19{fill:#FC6A55;stroke:#FC6A55;stroke-width:0.5;stroke-miterlimit:10;}
	.st20{opacity:0.153;fill:url(#Path_146_);enable-background:new    ;}
	.st21{opacity:0.1;fill:#590BB2;enable-background:new    ;}
	.st22{fill:#8E8CA8;}
	.st23{fill:#F5F4F9;}
	.st24{fill:#FFD5B8;}
	.st25{fill:#FC8473;}
	.st26{fill:#1C3475;}
	.st27{fill:#DDD9E4;}
	.st28{fill:#828FB3;}
	.st29{opacity:7.584635e-02;fill:url(#Path_147_);enable-background:new    ;}
	.st30{fill:#FFBE92;}
	.st31{fill:#FB8E7F;}
	.st32{fill:#FDB1A6;}
	.st33{fill:#FC806F;}
	.st34{fill:#FFE783;}
	.st35{fill:#104478;}
	.st36{fill:none;stroke:#FFFFFF;stroke-miterlimit:10;}
	.st37{fill:none;stroke:#FC6A55;stroke-miterlimit:10;}
	.st38{fill:none;stroke:#000000;stroke-width:0.15;stroke-miterlimit:10;}
	.st39{opacity:0.1;fill:url(#Path_148_);enable-background:new    ;}
	.st40{opacity:0.1;fill:url(#Path_149_);enable-background:new    ;}
</style>
<g id="outline_2_">
	<circle class="st35" cx="18.4" cy="13" r="0.9"/>
	<circle class="st35" cx="23.3" cy="13" r="0.9"/>
	<path class="st35" d="M20.3,15.8h1.4c0.4,0,0.7-0.3,0.7-0.7c0-0.4-0.3-0.7-0.7-0.7h-0.4l0.4-1.2c0.1-0.4-0.1-0.8-0.4-0.9
		s-0.8,0.1-0.9,0.4l-0.7,2.1c-0.1,0.4,0.1,0.8,0.4,0.9C20.1,15.7,20.2,15.8,20.3,15.8z"/>
	<path class="st35" d="M22.1,16.2c-0.7,0.3-1.5,0.3-2.2,0c-0.3-0.2-0.8,0-0.9,0.3s0,0.8,0.3,0.9c1.1,0.5,2.3,0.5,3.4,0
		c0.3-0.2,0.5-0.6,0.3-0.9C22.9,16.2,22.4,16,22.1,16.2z"/>
	<path class="st35" d="M41.3,1.8h-7.7c-0.4,0-0.7,0.3-0.7,0.7v14c0,0.4,0.3,0.7,0.7,0.7h2.8c0.2,0,0.4-0.1,0.5-0.2
		c0.5-0.5,1.3-0.5,1.8,0c0.1,0.1,0.3,0.2,0.5,0.2h2.1c0.4,0,0.7-0.3,0.7-0.7v-14C42,2.1,41.7,1.8,41.3,1.8z M34.3,3.2h6.3v9.1h-6.3
		V3.2z M40.6,15.8h-1.1c-1-0.8-2.4-0.8-3.3,0h-1.8v-2.1h6.3V15.8z"/>
	<path class="st35" d="M39.2,6c-0.4,0-0.7,0.3-0.7,0.7h-2.8C35.3,6.7,35,7,35,7.4c0,0.4,0.3,0.7,0.7,0.7h1.1L38,9.2
		c0.3,0.3,0.7,0.3,1,0c0.3-0.3,0.3-0.7,0-1l-0.2-0.2h0.4c0.4,0,0.7-0.3,0.7-0.7V6.7C39.9,6.3,39.6,6,39.2,6z"/>
	<path class="st35" d="M1.9,19.7l2.6,2.2c0.3,0.2,0.6,0.2,0.9,0l2.6-2.2c1.2-1,1.9-2.4,1.9-4c0-2.7-2.2-4.9-4.9-4.9S0,13,0,15.8
		C0,17.3,0.7,18.7,1.9,19.7z M4.9,12.3c1.9,0,3.5,1.6,3.5,3.5c0,1.1-0.5,2.2-1.4,2.9l0,0l-2.1,1.8l-2.1-1.8
		c-0.9-0.7-1.4-1.8-1.4-2.9C1.4,13.8,3,12.3,4.9,12.3z"/>
	<path class="st35" d="M3.6,17.4c0.4,0.3,0.8,0.4,1.3,0.4c0.1,0,0.2,0,0.3,0c1.1-0.2,1.9-1.2,1.8-2.4s-1.2-1.9-2.4-1.8
		c-1.1,0.2-1.9,1.2-1.8,2.4C2.9,16.6,3.2,17.1,3.6,17.4L3.6,17.4z M4.3,15.3c0.1-0.1,0.3-0.2,0.5-0.3c0,0,0.1,0,0.1,0
		c0.4,0,0.7,0.3,0.7,0.7c0,0.4-0.3,0.7-0.7,0.7c-0.4,0-0.7-0.3-0.7-0.7C4.2,15.6,4.2,15.4,4.3,15.3L4.3,15.3z"/>
	<rect x="4.2" y="23.4" class="st35" width="1.4" height="1.4"/>
	<path class="st35" d="M28.5,32.7c0.3-0.4,0.4-0.9,0.5-1.4l0.1,0.1c1.4,2,4.2,2.5,6.3,1c0.9-0.6,1.5-1.5,1.7-2.6l1.3-5.1l1.8-0.4
		c1.2-0.2,2-1.4,1.8-2.6c-0.2-1-1.1-1.8-2.2-1.8h-3.5c-1.1,0-2,0.7-2.3,1.8l-1.3,4.7l-0.3-0.7l0,0L32,24.9c-0.5-0.9-1.2-1.7-2-2.2
		c1.3-2.5,1.1-5.5-0.6-7.8c-0.4-0.6-0.6-1.2-0.6-1.9V9.5c0-4.3-3.4-7.7-7.7-7.7s-7.7,3.4-7.7,7.7v1.9c-0.8,0.7-0.9,2-0.2,2.9
		c-0.1,0.3-0.2,0.5-0.4,0.7c-1.5,2.1-1.9,4.8-0.9,7.1c0.1,0.2,0.2,0.4,0.2,0.5c-1.4,0.8-2.2,2.2-2.2,3.8v1.2H5.6v-1.4H4.2v1.4H2.1
		c-0.4,0-0.7,0.3-0.7,0.7c0,0.1,0,0.2,0.1,0.3l2.4,6H1.7c-1,0-1.7,0.8-1.7,1.7v3.1c0,0.4,0.3,0.7,0.7,0.7h40.6
		c0.4,0,0.7-0.3,0.7-0.7v-3.1c0-1-0.8-1.7-1.7-1.7H28v-1.2L28.5,32.7z M31.5,27.2l0.7,1.5c0.2,0.3,0.6,0.5,0.9,0.3
		c0.2-0.1,0.3-0.2,0.4-0.4l1.8-6.5c0.1-0.4,0.5-0.7,1-0.7h3.5c0.5,0,0.8,0.4,0.8,0.8c0,0.4-0.3,0.7-0.7,0.8l-2.3,0.5
		c-0.3,0.1-0.5,0.3-0.5,0.5l-1.4,5.5c-0.4,1.7-2.1,2.7-3.7,2.2c-0.7-0.2-1.3-0.6-1.8-1.2l-0.9-1.2L31.5,27.2z M14.7,9.5
		c0-3.5,2.8-6.3,6.3-6.3s6.3,2.8,6.3,6.3V13c0,1,0.3,2,0.9,2.8c1.4,1.9,1.6,4.4,0.4,6.4c-0.4-0.1-0.9-0.2-1.3-0.2h-2.8
		c-0.4,0-0.7-0.3-0.7-0.7c0,0,0,0,0,0v-1.5c1.7-1,2.8-2.8,2.8-4.8v-3.5c0-0.4-0.3-0.7-0.7-0.7c-1.6,0-3.2-0.6-4.5-1.6l-2-1.7
		c-0.3-0.2-0.7-0.2-1,0.1c-0.1,0.1-0.1,0.1-0.1,0.2c-0.4,1.2-1.2,2.3-2.3,3l-0.1,0.1h-1.2V9.5z M21,28.2l-1-1.9H22L21,28.2z
		 M21,19.3c-2.3,0-4.2-1.9-4.2-4.2v-3.1c1-0.7,1.8-1.6,2.4-2.7l1.3,1.1c1.3,1.1,3,1.8,4.7,1.9v2.8C25.2,17.4,23.3,19.2,21,19.3z
		 M21,20.7c0.5,0,0.9-0.1,1.4-0.2v0.9c0,0.6,0.2,1.1,0.6,1.5c0.1,0.1,0.3,0.3,0.5,0.4l-0.8,1.7h-3.3l-0.8-1.7
		c0.7-0.4,1.1-1.1,1.1-1.8v-0.9C20.1,20.6,20.5,20.7,21,20.7z M17.8,24.9l1.1,2.2L17.6,26L17.8,24.9z M24.2,24.9l0.2,1.1l-1.3,1.1
		L24.2,24.9z M14,13c0-0.4,0.3-0.7,0.7-0.7h0.7v1.4h-0.7C14.3,13.6,14,13.3,14,13z M13,21.6c-0.8-1.9-0.5-4.1,0.7-5.8
		c0.2-0.3,0.4-0.5,0.5-0.8c0.1,0,0.3,0,0.4,0h0.7c0,2,1.1,3.8,2.8,4.8v1.5c0,0.4-0.3,0.7-0.7,0.7h-3.3c-0.3,0-0.6,0-0.9,0.1
		C13.2,22,13.1,21.8,13,21.6z M3.1,29h11.7l1.7,5.6H5.4L3.1,29z M23.1,34.6H18l-0.4-1.4h5c0.3,0,0.5,0.2,0.5,0.5V34.6z M40.6,36.4
		v2.4H1.4v-2.4c0-0.2,0.2-0.3,0.3-0.3h38.5C40.4,36,40.6,36.2,40.6,36.4z M24.5,34.6v-0.9c0-1.1-0.9-1.9-1.9-1.9h-5.4l-1.1-3.7
		c-0.1-0.3-0.4-0.5-0.7-0.5h-4.2v-1.2c0-1.6,1.3-3,3-3h2.5l-0.5,2.7c-0.1,0.3,0,0.5,0.2,0.7l4.2,3.5c0.3,0.2,0.6,0.2,0.9,0
		c0,0,0,0,0,0l0,0l4.2-3.5c0.2-0.2,0.3-0.4,0.2-0.7L25.5,24l0,0l-0.1-0.6h2c1.4,0,2.8,0.8,3.4,2.1l0.2,0.3l-2.3,2.3
		c-0.3-0.3-0.7-0.3-1-0.1c-0.2,0.2-0.3,0.5-0.2,0.8c0.5,0.9,0.4,2.1-0.1,3l-0.6,1c-0.1,0.1-0.1,0.2-0.1,0.4v1.4H24.5z"/>
</g>
</svg>
