<?xml version="1.0" encoding="utf-8"?>
<!-- Generator: Adobe Illustrator 24.0.2, SVG Export Plug-In . SVG Version: 6.00 Build 0)  -->
<svg version="1.1" id="Layer_1" xmlns="http://www.w3.org/2000/svg" xmlns:xlink="http://www.w3.org/1999/xlink" x="0px" y="0px"
	 viewBox="0 0 42 42" style="enable-background:new 0 0 42 42;" xml:space="preserve">
<style type="text/css">
	.st0{fill:#FC6A55;}
	.st1{stroke:#FFFFFF;stroke-width:0.25;stroke-miterlimit:10;}
	.st2{fill:#656D7A;}
	.st3{fill:#FFFFFF;}
	.st4{filter:url(#Adobe_OpacityMaskFilter);}
	.st5{fill-rule:evenodd;clip-rule:evenodd;fill:#FFFFFF;}
	.st6{mask:url(#mask-2_8_);fill-rule:evenodd;clip-rule:evenodd;}
	.st7{filter:url(#Adobe_OpacityMaskFilter_1_);}
	.st8{mask:url(#mask-2_7_);fill-rule:evenodd;clip-rule:evenodd;}
	.st9{filter:url(#Adobe_OpacityMaskFilter_2_);}
	.st10{mask:url(#mask-2_6_);fill-rule:evenodd;clip-rule:evenodd;}
	.st11{filter:url(#Adobe_OpacityMaskFilter_3_);}
	.st12{mask:url(#mask-2_5_);fill-rule:evenodd;clip-rule:evenodd;}
	.st13{filter:url(#Adobe_OpacityMaskFilter_4_);}
	.st14{mask:url(#mask-2_2_);fill:none;stroke:#000000;stroke-width:2;}
	.st15{fill:#434343;}
	.st16{fill:#434343;stroke:#F9F9F9;stroke-width:0.25;stroke-miterlimit:10;}
	.st17{fill:none;stroke:#FC6A55;stroke-width:0.5;stroke-miterlimit:10;}
	.st18{fill:none;stroke:#FC6A55;stroke-width:0.75;stroke-miterlimit:10;}
	.st19{fill:#FC6A55;stroke:#FC6A55;stroke-width:0.5;stroke-miterlimit:10;}
	.st20{opacity:0.153;fill:url(#Path_146_);enable-background:new    ;}
	.st21{opacity:0.1;fill:#590BB2;enable-background:new    ;}
	.st22{fill:#8E8CA8;}
	.st23{fill:#F5F4F9;}
	.st24{fill:#FFD5B8;}
	.st25{fill:#FC8473;}
	.st26{fill:#1C3475;}
	.st27{fill:#DDD9E4;}
	.st28{fill:#828FB3;}
	.st29{opacity:7.584635e-02;fill:url(#Path_147_);enable-background:new    ;}
	.st30{fill:#FFBE92;}
	.st31{fill:#FB8E7F;}
	.st32{fill:#FDB1A6;}
	.st33{fill:#FC806F;}
	.st34{fill:#FFE783;}
	.st35{fill:#104478;}
	.st36{fill:none;stroke:#FFFFFF;stroke-miterlimit:10;}
	.st37{fill:none;stroke:#FC6A55;stroke-miterlimit:10;}
	.st38{fill:none;stroke:#000000;stroke-width:0.15;stroke-miterlimit:10;}
	.st39{opacity:0.1;fill:url(#Path_148_);enable-background:new    ;}
	.st40{opacity:0.1;fill:url(#Path_149_);enable-background:new    ;}
</style>
<g>
	<path class="st0" d="M1.4,42h4.2C6.4,42,7,41.4,7,40.6v-1.4h15.8c3.5,0,7-1,9.9-2.8c4.5-2.8,7.6-7.4,8.5-12.6l0.3-1.7
		c0.1-0.8-0.1-1.6-0.6-2.2c-0.5-0.6-1.2-0.9-2-0.9c-0.4,0-0.8,0.1-1.2,0.3v-3.1h0.7c0.3,0,0.5-0.2,0.6-0.4c0.1-0.3,0-0.6-0.2-0.8
		l-5.6-5.6c-0.3-0.3-0.7-0.3-1,0l-1.6,1.6V1.4c0-0.4-0.3-0.7-0.7-0.7h-7c-0.4,0-0.7,0.3-0.7,0.7v7.7h-2.8c-0.5-1.2-0.9-1.9-1.2-2.3
		l1.8-4.3c0.2-0.5,0.1-1-0.3-1.4c-0.4-0.4-0.9-0.4-1.4-0.2l-1.3,0.7l-0.8-1.1c-0.2-0.3-0.5-0.5-0.9-0.5c-0.4,0-0.7,0.1-0.9,0.4
		l-1.1,1.1l-0.7-0.9c-0.2-0.3-0.5-0.5-0.9-0.5c-0.4,0-0.7,0.1-0.9,0.4L9.5,1.7l-2-0.6C7,1,6.5,1.2,6.2,1.6C5.9,1.9,5.8,2.5,6.1,2.9
		l2.1,3.9c-1.5,1.3-3.3,5.1-3.3,8.5v2.1c0,2.3,1.9,4.2,4.2,4.2h7.7h6.3h5.6H36l-1.5,3l-3.8,1.6c-0.4-1.4-1.8-2.5-3.3-2.5H17.2
		c-3.6,0-7.1,1-10.2,2.9v-1.5c0-0.8-0.6-1.4-1.4-1.4H1.4c-0.8,0-1.4,0.6-1.4,1.4v15.4C0,41.4,0.6,42,1.4,42L1.4,42z M9.2,3.1
		c0.4,0.1,0.9,0,1.2-0.3l1.3-1.3l0.7,0.9c0.2,0.3,0.5,0.5,0.9,0.5c0.4,0,0.7-0.1,0.9-0.4l1.1-1.1l0.8,1.1c0.4,0.5,1,0.6,1.5,0.4
		l1-0.5L17,6.3h-1.9L16,4.5l-1.3-0.6l-1.2,2.4h-1.2l-1-2l-1.3,0.6l0.7,1.4H9.5l-2-3.7L9.2,3.1z M16.1,9.8v10.5h-7
		c-1.5,0-2.8-1.3-2.8-2.8v-2.1c0-3.7,2.3-7.2,3-7.7h7.9c0.1,0.1,0.4,0.5,0.8,1.4h-1.2C16.4,9.1,16.1,9.4,16.1,9.8L16.1,9.8z
		 M17.5,10.5h4.9v9.8h-4.9V10.5z M32.9,10.8l3.9,3.9H29L32.9,10.8z M23.8,2.1h5.6v10.2l-2.6,2.6c-0.2,0.2-0.3,0.5-0.2,0.8
		c0.1,0.3,0.4,0.4,0.6,0.4H28v4.2h-4.2V2.1z M29.4,16.1h7v4.2H35v-2.8c0-0.4-0.3-0.7-0.7-0.7h-2.8c-0.4,0-0.7,0.3-0.7,0.7v2.8h-1.4
		V16.1z M33.6,20.3h-1.4v-2.1h1.4V20.3z M17.2,25.2h10.1c1.2,0,2.1,0.9,2.1,2.1c0,1.2-0.9,2.1-2.1,2.1H16.1v1.4h11.2
		c1.8,0,3.2-1.3,3.5-3l4.5-1.9c0.2-0.1,0.3-0.2,0.4-0.3l2.3-4.5c0.2-0.4,0.6-0.7,1.1-0.7c0.4,0,0.7,0.2,0.9,0.4s0.3,0.6,0.3,1
		l-0.3,1.7c-0.9,4.8-3.7,9.1-7.9,11.7c-2.8,1.7-5.9,2.6-9.2,2.6H7v-9.4C10,26.3,13.5,25.2,17.2,25.2L17.2,25.2z M1.4,25.2h4.2
		l0,15.4H1.4L1.4,25.2z"/>
	<path class="st0" d="M2.8,27.3h1.4v2.1H2.8V27.3z"/>
	<path class="st0" d="M25.2,3.5h0.7v1.4h-0.7V3.5z"/>
	<path class="st0" d="M27.3,3.5H28v1.4h-0.7V3.5z"/>
	<path class="st0" d="M25.2,6.3h0.7v1.4h-0.7V6.3z"/>
	<path class="st0" d="M27.3,6.3H28v1.4h-0.7V6.3z"/>
	<path class="st0" d="M25.2,9.1h0.7v1.4h-0.7V9.1z"/>
	<path class="st0" d="M27.3,9.1H28v1.4h-0.7V9.1z"/>
	<path class="st0" d="M18.9,11.9h0.7v1.4h-0.7V11.9z"/>
	<path class="st0" d="M21,11.9h0.7v1.4H21V11.9z"/>
	<path class="st0" d="M18.9,14.7h0.7v1.4h-0.7V14.7z"/>
	<path class="st0" d="M21,14.7h0.7v1.4H21V14.7z"/>
	<path class="st0" d="M18.9,17.5h0.7v1.4h-0.7V17.5z"/>
	<path class="st0" d="M21,17.5h0.7v1.4H21V17.5z"/>
	<path class="st0" d="M25.2,11.9h0.7v1.4h-0.7V11.9z"/>
	<path class="st0" d="M27.3,11.9H28v1.4h-0.7V11.9z"/>
	<path class="st0" d="M14,11.2h-0.7v-0.7h-1.4v0.7h-0.7c-0.4,0-0.7,0.3-0.7,0.7V14c0,0.4,0.3,0.7,0.7,0.7h2.1v0.7h-2.8v0.7
		c0,0.4,0.3,0.7,0.7,0.7h0.7v0.7h1.4v-0.7H14c0.4,0,0.7-0.3,0.7-0.7V14c0-0.4-0.3-0.7-0.7-0.7h-2.1v-0.7h2.8v-0.7
		C14.7,11.5,14.4,11.2,14,11.2z"/>
	<path class="st0" d="M35.7,1.4h1.4v1.4h-1.4V1.4z"/>
	<path class="st0" d="M37.1,0h1.4v1.4h-1.4V0z"/>
	<path class="st0" d="M38.5,1.4h1.4v1.4h-1.4V1.4z"/>
	<path class="st0" d="M37.1,2.8h1.4v1.4h-1.4V2.8z"/>
	<path class="st0" d="M40.6,4.9H42v1.4h-1.4V4.9z"/>
	<path class="st0" d="M35.7,7h1.4v1.4h-1.4V7z"/>
	<path class="st0" d="M0,6.3h1.4v1.4H0V6.3z"/>
	<path class="st0" d="M1.4,4.9h1.4v1.4H1.4V4.9z"/>
	<path class="st0" d="M2.8,6.3h1.4v1.4H2.8V6.3z"/>
	<path class="st0" d="M1.4,7.7h1.4v1.4H1.4V7.7z"/>
	<path class="st0" d="M0,11.9h1.4v1.4H0V11.9z"/>
	<path class="st0" d="M2.8,0h1.4v1.4H2.8V0z"/>
</g>
</svg>
