<?xml version="1.0" encoding="utf-8"?>
<!-- Generator: Adobe Illustrator 24.0.2, SVG Export Plug-In . SVG Version: 6.00 Build 0)  -->
<svg version="1.1" id="Layer_1" xmlns="http://www.w3.org/2000/svg" xmlns:xlink="http://www.w3.org/1999/xlink" x="0px" y="0px"
	 viewBox="0 0 42 42" style="enable-background:new 0 0 42 42;" xml:space="preserve">
<style type="text/css">
	.st0{fill:#FC6A55;}
	.st1{stroke:#FFFFFF;stroke-width:0.25;stroke-miterlimit:10;}
	.st2{fill:#656D7A;}
	.st3{fill:#FFFFFF;}
	.st4{filter:url(#Adobe_OpacityMaskFilter);}
	.st5{fill-rule:evenodd;clip-rule:evenodd;fill:#FFFFFF;}
	.st6{mask:url(#mask-2_8_);fill-rule:evenodd;clip-rule:evenodd;}
	.st7{filter:url(#Adobe_OpacityMaskFilter_1_);}
	.st8{mask:url(#mask-2_7_);fill-rule:evenodd;clip-rule:evenodd;}
	.st9{filter:url(#Adobe_OpacityMaskFilter_2_);}
	.st10{mask:url(#mask-2_6_);fill-rule:evenodd;clip-rule:evenodd;}
	.st11{filter:url(#Adobe_OpacityMaskFilter_3_);}
	.st12{mask:url(#mask-2_5_);fill-rule:evenodd;clip-rule:evenodd;}
	.st13{filter:url(#Adobe_OpacityMaskFilter_4_);}
	.st14{mask:url(#mask-2_2_);fill:none;stroke:#000000;stroke-width:2;}
	.st15{fill:#434343;}
	.st16{fill:#434343;stroke:#F9F9F9;stroke-width:0.25;stroke-miterlimit:10;}
	.st17{fill:none;stroke:#FC6A55;stroke-width:0.5;stroke-miterlimit:10;}
	.st18{fill:none;stroke:#FC6A55;stroke-width:0.75;stroke-miterlimit:10;}
	.st19{fill:#FC6A55;stroke:#FC6A55;stroke-width:0.5;stroke-miterlimit:10;}
	.st20{opacity:0.153;fill:url(#Path_146_);enable-background:new    ;}
	.st21{opacity:0.1;fill:#590BB2;enable-background:new    ;}
	.st22{fill:#8E8CA8;}
	.st23{fill:#F5F4F9;}
	.st24{fill:#FFD5B8;}
	.st25{fill:#FC8473;}
	.st26{fill:#1C3475;}
	.st27{fill:#DDD9E4;}
	.st28{fill:#828FB3;}
	.st29{opacity:7.584635e-02;fill:url(#Path_147_);enable-background:new    ;}
	.st30{fill:#FFBE92;}
	.st31{fill:#FB8E7F;}
	.st32{fill:#FDB1A6;}
	.st33{fill:#FC806F;}
	.st34{fill:#FFE783;}
	.st35{fill:#104478;}
	.st36{fill:none;stroke:#FFFFFF;stroke-miterlimit:10;}
	.st37{fill:none;stroke:#FC6A55;stroke-miterlimit:10;}
	.st38{fill:none;stroke:#000000;stroke-width:0.15;stroke-miterlimit:10;}
	.st39{opacity:0.1;fill:url(#Path_148_);enable-background:new    ;}
	.st40{opacity:0.1;fill:url(#Path_149_);enable-background:new    ;}
</style>
<g>
	<g>
		<g>
			<path class="st0" d="M21.3,0c-0.3,0-0.6,0.3-0.6,0.6v0.8c0,0.3,0.3,0.6,0.6,0.6c0.3,0,0.6-0.3,0.6-0.6V0.6
				C21.9,0.3,21.6,0,21.3,0z"/>
		</g>
	</g>
	<g>
		<g>
			<path class="st0" d="M18.2,2.5l-0.6-0.6c-0.2-0.2-0.6-0.2-0.9,0c-0.2,0.2-0.2,0.6,0,0.9l0.6,0.6c0.1,0.1,0.3,0.2,0.4,0.2
				s0.3-0.1,0.4-0.2C18.5,3.1,18.5,2.7,18.2,2.5z"/>
		</g>
	</g>
	<g>
		<g>
			<path class="st0" d="M16.3,5h-0.8c-0.3,0-0.6,0.3-0.6,0.6c0,0.3,0.3,0.6,0.6,0.6h0.8c0.3,0,0.6-0.3,0.6-0.6S16.7,5,16.3,5z"/>
		</g>
	</g>
	<g>
		<g>
			<path class="st0" d="M27.1,5h-0.8c-0.3,0-0.6,0.3-0.6,0.6s0.3,0.6,0.6,0.6h0.8c0.3,0,0.6-0.3,0.6-0.6S27.4,5,27.1,5z"/>
		</g>
	</g>
	<g>
		<g>
			<path class="st0" d="M25.8,1.9c-0.2-0.2-0.6-0.2-0.9,0l-0.6,0.6c-0.2,0.2-0.2,0.6,0,0.9c0.1,0.1,0.3,0.2,0.4,0.2s0.3-0.1,0.4-0.2
				l0.6-0.6C26.1,2.5,26.1,2.1,25.8,1.9z"/>
		</g>
	</g>
	<g>
		<g>
			<path class="st0" d="M38.2,31.7C38.2,31.6,38.2,31.6,38.2,31.7C38.2,31.6,38.2,31.6,38.2,31.7C38.2,31.6,38.2,31.6,38.2,31.7
				l-1.1-5.3c0,0,0,0,0,0L36,21.1c0,0,0,0,0,0l-1.1-5.2c-0.1-0.3-0.3-0.5-0.6-0.5H7.7c-0.3,0-0.5,0.2-0.6,0.5L6,21.1c0,0,0,0,0,0
				l-1.1,5.2c0,0,0,0,0,0l-1.1,5.2c0,0,0,0,0,0.1c0,0,0,0,0,0c0,0,0,0,0,0v2.5c0,0.3,0.3,0.6,0.6,0.6h14.7v3.5h-4.8
				c-0.3,0-0.6,0.3-0.6,0.6v1.9h-6c-0.3,0-0.6,0.3-0.6,0.6c0,0.3,0.3,0.6,0.6,0.6h6.6h13.3h6.6c0.3,0,0.6-0.3,0.6-0.6
				c0-0.3-0.3-0.6-0.6-0.6h-6v-1.9c0-0.3-0.3-0.6-0.6-0.6h-4.8v-3.5h14.7c0.3,0,0.6-0.3,0.6-0.6L38.2,31.7
				C38.2,31.7,38.2,31.7,38.2,31.7L38.2,31.7C38.2,31.7,38.2,31.7,38.2,31.7z M36.8,31.1h-9.7l-0.3-4H36L36.8,31.1z M34.9,21.8
				l0.8,4h-9l-0.3-4H34.9z M33.8,16.6l0.8,4h-8.2l-0.3-4H33.8z M17.2,16.6h7.7l0.3,4h-8.2L17.2,16.6z M16.8,21.8h8.4l0.3,4h-9
				L16.8,21.8z M16.4,27.1h9.2l0.3,4h-9.7L16.4,27.1z M8.2,16.6h7.7l-0.3,4H7.4L8.2,16.6z M7.1,21.8h8.4l-0.3,4h-9L7.1,21.8z
				 M27,39.5v1.2H15v-1.2h4.8h2.5H27z M20.4,38.3v-3.5h1.2v3.5H20.4z M22.3,33.5C22.2,33.5,22.2,33.5,22.3,33.5l-2.5,0c0,0,0,0,0,0
				H5v-1.2h3c0.3,0,0.6-0.3,0.6-0.6c0-0.3-0.3-0.6-0.6-0.6H5.2l0.8-4h9.1l-0.3,4h-4.2h0c-0.3,0-0.6,0.3-0.6,0.6
				c0,0.3,0.3,0.6,0.6,0.6h0h4.8c0,0,0,0,0,0c0,0,0,0,0,0h11.1c0,0,0,0,0,0c0,0,0,0,0,0H37v1.2L22.3,33.5L22.3,33.5z"/>
		</g>
	</g>
	<path class="st3" d="M28.3,15.9c-0.2,0-0.3,0.2-0.3,0.3c-0.2,0.6-0.4,1.1-0.7,1.7c-0.1,0.1-0.1,0.3,0,0.4l1.1,1.8l-1.6,1.6
		l-1.8-1.1c-0.1-0.1-0.3-0.1-0.4,0c-0.5,0.3-1.1,0.5-1.7,0.7c-0.2,0-0.3,0.2-0.3,0.3l-0.5,2H20l-0.5-2c0-0.2-0.2-0.3-0.3-0.3
		c-0.6-0.2-1.1-0.4-1.7-0.7c-0.1-0.1-0.3-0.1-0.4,0l-1.8,1.1l-1.6-1.6l1.1-1.8c0.1-0.1,0.1-0.3,0-0.4c-0.3-0.5-0.5-1.1-0.7-1.7
		c0-0.2-0.2-0.3-0.3-0.3l-2-0.5v-2.2l2-0.5c0.2,0,0.3-0.2,0.3-0.3c0.2-0.6,0.4-1.1,0.7-1.7c0.1-0.1,0.1-0.3,0-0.4l-1.1-1.8L15.3,7
		l0.9,0.5c0,0.2-0.1,0.4-0.1,0.7l0,0c0,0,0,0,0,0c0,0,0,0,0,0c0,0,0,0,0,0c0,0,0,0,0,0c0,0,0,0,0,0c0,0.5,11.2,7.5,11,7.5
		c-0.2-0.1-0.5,0.1-0.5,0.3c-0.8,2.4-3,4-5.5,4c-3.2,0-5.8-2.6-5.8-5.8c0-1.4,0.5-2.7,1.4-3.7c0.1,0.2,0.3,0.5,0.4,0.7
		c-0.7,0.9-1,1.9-1,3c0,1.2,0.4,2.3,1.2,3.2c0.6,0.7,1.3,1.2,2.2,1.5c0,0,1.4,0.3,1.6,0.3c0,0,0.1,0,0.1,0c0.5,0,1.5-0.3,1.5-0.3
		C23.5,18.8,26,9.4,26,8.4c0,0,0,0,0,0c0,0,0,0,0,0c0,0,0,0,0,0c0,0,0,0,0,0c0,0,0,0,0,0c0,0,0,0,0,0c0,0,0,0,0,0
		C26,8,26,7.8,26,7.6L26.8,7l1.6,1.6l-1.1,1.8c-0.1,0.1-0.1,0.3,0,0.4c0.3,0.5,0.5,1.1,0.7,1.7c0,0.2,0.2,0.3,0.3,0.3l2,0.5v2.2h0
		L28.3,15.9z"/>
	<polygon class="st0" points="19,4.2 21.3,2.9 23.6,4.2 23.6,6.9 21.3,8.2 19,6.9 19,4.2 	"/>
	<path class="st0" d="M17.2,7.8C17.2,7.8,17.2,7.8,17.2,7.8C17.2,7.8,17.2,7.8,17.2,7.8C17.2,7.8,17.2,7.8,17.2,7.8
		c0-0.3,0-0.6,0.1-0.9c0,0,0,0,0,0c0.1-0.6,0.4-1.2,0.8-1.6v1.9c0,0,0,0,0,0.1c0,0.1,0.1,0.2,0.2,0.3c0,0,0,0,0,0l2.7,1.6
		c0,0,0,0,0,0c0.1,0.1,0.2,0.1,0.4,0c0,0,0,0,0,0l2.7-1.6c0.1-0.1,0.2-0.2,0.2-0.4V5.3c0.4,0.5,0.7,1,0.8,1.6c0,0,0,0,0,0
		c0.1,0.3,0.1,0.6,0.1,0.8c0,0,0,0,0,0c0,0,0,0,0,0c0,0,0,0,0,0c0,0,0,0,0,0c0,1-0.4,1.9-1,2.7c-0.5,0.5-1.1,1-1.8,1.2
		c-0.2,0.1-0.3,0.2-0.3,0.4c0,0,0,0,0,0v5.6c-0.2,0-0.4,0.1-0.6,0.1v-4c0-0.2-0.2-0.4-0.4-0.4c-0.2,0-0.4,0.2-0.4,0.4v4
		c-0.2,0-0.4-0.1-0.6-0.1v-5.6c0,0,0,0,0,0c0,0,0,0,0,0c0,0,0,0,0,0c0,0,0,0,0,0c0,0,0-0.1,0-0.1c0,0,0,0,0,0c0,0,0,0,0-0.1
		c0-0.1-0.1-0.2-0.3-0.3c-0.3-0.1-0.5-0.2-0.8-0.4c0,0,0,0,0,0c0,0,0,0,0,0c-0.4-0.2-0.7-0.5-1-0.8C17.6,9.8,17.2,8.8,17.2,7.8
		C17.2,7.9,17.2,7.8,17.2,7.8z"/>
	<path class="st0" d="M24.7,11.5c0.5,0.7,0.7,1.5,0.7,2.4c0,1-0.4,1.9-1,2.7c-0.3,0.4-0.8,0.7-1.2,1v-5.1c0,0,0,0,0,0c0,0,0,0,0,0
		c0,0,0,0,0,0c0,0,0,0,0,0c0,0,0,0,0,0c0,0,0,0,0,0c0,0,0,0,0,0c0,0,0,0,0,0c0,0,0,0,0,0c0,0,0,0,0,0c0,0,0,0,0,0c0,0,0,0,0,0
		c0,0,0,0,0,0c0,0,0,0,0,0c0,0,0,0,0,0c0,0,0,0,0,0c0,0,0,0,0,0c0,0,0,0,0,0c0,0,0,0,0,0c0,0,0,0,0,0c0,0,0,0,0,0c0,0,0,0,0,0
		c0,0,0,0,0,0c0,0,0,0,0,0c0,0,0,0,0,0c0,0,0,0,0,0c0,0,0,0,0,0c0,0,0,0,0,0c0,0,0,0,0,0c0,0,0,0,0,0c0,0,0,0,0,0c0,0,0,0,0,0
		c0,0,0,0,0,0c0,0,0,0,0,0c0,0,0,0,0,0c0,0,0,0,0,0c0,0,0,0,0,0c0,0,0,0,0,0c0,0,0,0,0,0c0,0,0,0,0,0c0,0,0,0,0,0c0,0,0,0,0,0
		c0,0,0,0,0,0c0,0,0,0,0,0c0,0,0,0,0,0c0,0,0,0,0,0c0,0,0,0,0,0c0,0,0,0,0,0c0,0,0,0,0.1,0c0,0,0,0,0,0c0,0,0,0,0,0c0,0,0,0,0,0
		c0,0,0,0,0,0c0,0,0,0,0,0c0,0,0,0,0,0c0,0,0,0,0,0c0,0,0,0,0,0c0,0,0,0,0,0c0,0,0,0,0,0c0,0,0,0,0,0c0,0,0,0,0.1,0c0,0,0,0,0,0
		c0,0,0,0,0,0c0,0,0,0,0,0c0,0,0.1,0,0.1-0.1c0,0,0,0,0,0c0,0,0,0,0,0c0,0,0,0,0,0c0,0,0,0,0.1,0c0,0,0,0,0,0c0,0,0,0,0,0
		c0,0,0,0,0,0c0,0,0.1,0,0.1-0.1c0,0,0,0,0,0c0,0,0,0,0,0c0,0,0,0,0,0C24.5,11.6,24.6,11.6,24.7,11.5C24.6,11.6,24.6,11.6,24.7,11.5
		C24.6,11.5,24.6,11.5,24.7,11.5C24.6,11.5,24.6,11.5,24.7,11.5C24.6,11.5,24.6,11.5,24.7,11.5L24.7,11.5
		C24.6,11.5,24.6,11.5,24.7,11.5C24.7,11.5,24.7,11.5,24.7,11.5z"/>
	<path class="st0" d="M19.4,12.4v5.1c-0.5-0.2-0.9-0.6-1.2-1c-0.6-0.7-1-1.7-1-2.7c0-0.8,0.3-1.7,0.7-2.4c0,0,0,0,0,0c0,0,0,0,0,0
		c0,0,0,0,0,0c0,0,0,0,0,0c0,0,0,0,0,0c0,0,0,0,0,0c0,0,0,0,0,0c0,0,0,0,0,0c0,0,0,0,0,0c0,0,0,0,0,0c0,0,0,0,0,0c0,0,0,0,0,0
		c0,0,0,0,0,0c0,0,0,0,0,0c0,0,0,0,0,0c0,0,0,0,0,0c0,0,0,0,0,0c0,0,0,0,0,0c0,0,0,0,0,0c0,0,0,0,0,0c0,0,0,0,0,0c0,0,0,0,0,0
		c0,0,0,0,0,0c0,0,0,0,0,0c0,0,0,0,0,0c0,0,0,0,0,0c0,0,0,0,0,0c0,0,0,0,0,0c0,0,0,0,0,0c0,0,0,0,0,0c0,0,0,0,0,0c0,0,0,0,0,0
		c0,0,0,0,0,0c0,0,0,0,0,0c0,0,0,0,0,0c0,0,0,0,0,0c0,0,0,0,0,0c0,0,0,0,0,0c0,0,0,0,0,0c0,0,0,0,0,0c0,0,0,0,0,0c0,0,0,0,0,0
		c0,0,0,0,0,0c0,0,0,0,0,0c0,0,0,0,0,0c0,0,0,0,0,0c0,0,0,0,0,0c0,0,0,0,0,0c0,0,0,0,0,0c0,0,0,0,0,0c0,0,0,0,0,0c0,0,0,0,0,0
		c0,0,0,0,0,0c0,0,0,0,0,0c0,0,0,0,0,0c0,0,0,0,0,0c0,0,0,0,0,0c0,0,0,0,0,0c0,0,0,0,0,0c0,0,0,0,0,0c0,0,0,0,0,0c0,0,0,0,0,0
		c0,0,0,0,0,0c0,0,0,0,0,0c0,0,0,0,0,0c0,0,0,0,0,0c0,0,0,0,0,0c0,0,0,0,0,0c0,0,0,0,0,0c0,0,0,0,0,0c0,0,0,0,0,0c0,0,0,0,0,0
		c0,0,0,0,0,0c0,0,0,0,0,0c0,0,0,0,0,0c0,0,0,0,0,0c0,0,0,0,0,0c0,0,0,0,0,0c0,0,0,0,0,0c0,0,0,0,0,0c0,0,0,0,0,0c0,0,0,0,0,0
		c0,0,0,0,0,0c0,0,0,0,0,0c0,0,0,0,0,0c0,0,0,0,0,0c0,0,0,0,0,0c0,0,0,0,0,0c0,0,0,0,0,0c0,0,0,0,0,0c0,0,0,0,0,0
		C19.3,12.4,19.3,12.4,19.4,12.4C19.3,12.4,19.3,12.4,19.4,12.4C19.3,12.4,19.4,12.4,19.4,12.4C19.4,12.4,19.4,12.4,19.4,12.4
		C19.4,12.4,19.4,12.4,19.4,12.4C19.4,12.4,19.4,12.4,19.4,12.4z"/>
	<path class="st0" d="M28.5,15.4c-0.2,0-0.3,0.2-0.3,0.3c-0.2,0.6-0.4,1.1-0.7,1.7c-0.1,0.1-0.1,0.3,0,0.4l1.1,1.8L27,21.1L25.3,20
		C25.1,20,25,20,24.8,20c-0.5,0.3-1.1,0.5-1.7,0.7c-0.2,0-0.3,0.2-0.3,0.3l-0.5,2h-2.2l-0.5-2c0-0.2-0.2-0.3-0.3-0.3
		c-0.6-0.2-1.1-0.4-1.7-0.7c-0.1-0.1-0.3-0.1-0.4,0l-1.8,1.1L14,19.6l1.1-1.8c0.1-0.1,0.1-0.3,0-0.4c-0.3-0.5-0.5-1.1-0.7-1.7
		c0-0.2-0.2-0.3-0.3-0.3l-2-0.5v-2.2l2-0.5c0.2,0,0.3-0.2,0.3-0.3c0.2-0.6,0.4-1.1,0.7-1.7c0.1-0.1,0.1-0.3,0-0.4L14,8.1l1.6-1.6
		l0.9,0.5c0,0.2-0.1,0.4-0.1,0.7l0,0c0,0,0,0,0,0c0,0,0,0,0,0c0,0,0,0,0,0c0,0,0,0,0,0c0,0,0,0,0,0c0,0,0,0,0,0
		c0,0.5,0.1,0.9,0.2,1.4c-1.2,1.2-1.9,2.9-1.9,4.6c0,3.6,3,6.6,6.6,6.6c1.4,0,2.8-0.4,3.9-1.3c1.1-0.8,1.9-2,2.4-3.3
		c0.1-0.2-0.1-0.5-0.3-0.5s-0.5,0.1-0.5,0.3c-0.8,2.4-3,4-5.5,4c-3.2,0-5.8-2.6-5.8-5.8c0-1.4,0.5-2.7,1.4-3.7
		c0.1,0.2,0.3,0.5,0.4,0.7c-0.7,0.9-1,1.9-1,3c0,1.2,0.4,2.3,1.2,3.2c0.6,0.7,1.3,1.2,2.2,1.5c0,0,0,0,0,0c0.4,0.1,0.7,0.2,1.1,0.2
		c0.2,0,0.3,0,0.5,0c0,0,0.1,0,0.1,0c0.5,0,1-0.1,1.5-0.3c0,0,0,0,0,0c0.8-0.3,1.6-0.8,2.2-1.5c0.8-0.9,1.2-2.1,1.2-3.2
		c0-1.1-0.4-2.1-1-3c0.6-0.9,1-1.9,1-3c0,0,0,0,0,0c0,0,0,0,0,0c0,0,0,0,0,0c0,0,0,0,0,0c0,0,0,0,0,0c0,0,0,0,0,0c0,0,0,0,0,0
		c0-0.2,0-0.5-0.1-0.7L27,6.5l1.6,1.6l-1.1,1.8c-0.1,0.1-0.1,0.3,0,0.4c0.3,0.5,0.5,1.1,0.7,1.7c0,0.2,0.2,0.3,0.3,0.3l2,0.5v2.2h0
		L28.5,15.4z"/>
</g>
</svg>
