<?xml version="1.0" encoding="utf-8"?>
<!-- Generator: Adobe Illustrator 24.0.2, SVG Export Plug-In . SVG Version: 6.00 Build 0)  -->
<svg version="1.1" id="Layer_1" xmlns="http://www.w3.org/2000/svg" xmlns:xlink="http://www.w3.org/1999/xlink" x="0px" y="0px"
	 viewBox="0 0 42 42" style="enable-background:new 0 0 42 42;" xml:space="preserve">
<style type="text/css">
	.st0{fill:#FC6A55;}
	.st1{stroke:#FFFFFF;stroke-width:0.25;stroke-miterlimit:10;}
	.st2{fill:#656D7A;}
	.st3{fill:#FFFFFF;}
	.st4{filter:url(#Adobe_OpacityMaskFilter);}
	.st5{fill-rule:evenodd;clip-rule:evenodd;fill:#FFFFFF;}
	.st6{mask:url(#mask-2_8_);fill-rule:evenodd;clip-rule:evenodd;}
	.st7{filter:url(#Adobe_OpacityMaskFilter_1_);}
	.st8{mask:url(#mask-2_7_);fill-rule:evenodd;clip-rule:evenodd;}
	.st9{filter:url(#Adobe_OpacityMaskFilter_2_);}
	.st10{mask:url(#mask-2_6_);fill-rule:evenodd;clip-rule:evenodd;}
	.st11{filter:url(#Adobe_OpacityMaskFilter_3_);}
	.st12{mask:url(#mask-2_5_);fill-rule:evenodd;clip-rule:evenodd;}
	.st13{filter:url(#Adobe_OpacityMaskFilter_4_);}
	.st14{mask:url(#mask-2_2_);fill:none;stroke:#000000;stroke-width:2;}
	.st15{fill:#434343;}
	.st16{fill:#434343;stroke:#F9F9F9;stroke-width:0.25;stroke-miterlimit:10;}
	.st17{fill:none;stroke:#FC6A55;stroke-width:0.5;stroke-miterlimit:10;}
	.st18{fill:none;stroke:#FC6A55;stroke-width:0.75;stroke-miterlimit:10;}
	.st19{fill:#FC6A55;stroke:#FC6A55;stroke-width:0.5;stroke-miterlimit:10;}
	.st20{opacity:0.153;fill:url(#Path_146_);enable-background:new    ;}
	.st21{opacity:0.1;fill:#590BB2;enable-background:new    ;}
	.st22{fill:#8E8CA8;}
	.st23{fill:#F5F4F9;}
	.st24{fill:#FFD5B8;}
	.st25{fill:#FC8473;}
	.st26{fill:#1C3475;}
	.st27{fill:#DDD9E4;}
	.st28{fill:#828FB3;}
	.st29{opacity:7.584635e-02;fill:url(#Path_147_);enable-background:new    ;}
	.st30{fill:#FFBE92;}
	.st31{fill:#FB8E7F;}
	.st32{fill:#FDB1A6;}
	.st33{fill:#FC806F;}
	.st34{fill:#FFE783;}
	.st35{fill:#104478;}
	.st36{fill:none;stroke:#FFFFFF;stroke-miterlimit:10;}
	.st37{fill:none;stroke:#FC6A55;stroke-miterlimit:10;}
	.st38{fill:none;stroke:#000000;stroke-width:0.15;stroke-miterlimit:10;}
	.st39{opacity:0.1;fill:url(#Path_148_);enable-background:new    ;}
	.st40{opacity:0.1;fill:url(#Path_149_);enable-background:new    ;}
</style>
<g id="Content_3_">
	<path class="st0" d="M37.5,30.1c1.2,0,2.1-0.9,2.1-2.1V8.4c0-1.2-0.9-2.1-2.1-2.1H29V3.5C29,1.6,27.5,0,25.5,0H5.9
		C4,0,2.5,1.6,2.5,3.5v35C2.5,40.4,4,42,5.9,42h19.6c1.9,0,3.5-1.6,3.5-3.5v-2.8h10.5v-1.4H29v-4.2H37.5z M37.5,28.7H15.1
		c-0.4,0-0.7-0.3-0.7-0.7V11.9h23.8V28C38.2,28.4,37.8,28.7,37.5,28.7z M38.2,8.4v2.1H14.4V8.4c0-0.4,0.3-0.7,0.7-0.7h22.4
		C37.8,7.7,38.2,8,38.2,8.4z M11.6,1.4H20v1.4h-8.4V1.4z M27.6,34.3h-1.5c-0.4-1.1-1.6-1.7-2.7-1.3c-0.6,0.2-1.1,0.7-1.3,1.3h-4.3
		v1.4h4.3c0.4,1.1,1.6,1.7,2.7,1.3c0.6-0.2,1.1-0.7,1.3-1.3h1.5v2.8c0,1.2-0.9,2.1-2.1,2.1H5.9c-1.2,0-2.1-0.9-2.1-2.1v-35
		c0-1.2,0.9-2.1,2.1-2.1h4.2v1.4c0,0.8,0.6,1.4,1.4,1.4H20c0.8,0,1.4-0.6,1.4-1.4V1.4h4.2c1.2,0,2.1,0.9,2.1,2.1v2.8H15.1
		c-1.2,0-2.1,0.9-2.1,2.1V28c0,1.2,0.9,2.1,2.1,2.1h12.6V34.3z M24.9,35c0,0.4-0.3,0.7-0.7,0.7s-0.7-0.3-0.7-0.7s0.3-0.7,0.7-0.7
		S24.9,34.6,24.9,35z"/>
	<path class="st0" d="M15.8,8.4h1.4v1.4h-1.4V8.4z"/>
	<path class="st0" d="M18.5,8.4H20v1.4h-1.4V8.4z"/>
	<path class="st0" d="M21.4,8.4h1.4v1.4h-1.4V8.4z"/>
	<path class="st0" d="M28.6,19.1l-2.2-1.5c-0.6-0.4-1.5-0.3-1.9,0.4c-0.2,0.2-0.2,0.5-0.2,0.8v3c0,0.8,0.6,1.4,1.4,1.4
		c0.3,0,0.5-0.1,0.8-0.2l2.2-1.5c0.6-0.4,0.8-1.3,0.4-1.9C28.9,19.4,28.7,19.2,28.6,19.1L28.6,19.1z M25.5,21.8v-3l2.2,1.5
		L25.5,21.8z"/>
	<path class="st0" d="M26.3,14c-3.5,0-6.3,2.8-6.3,6.3s2.8,6.3,6.3,6.3s6.3-2.8,6.3-6.3C32.5,16.8,29.7,14,26.3,14z M26.3,25.2
		c-2.7,0-4.9-2.2-4.9-4.9s2.2-4.9,4.9-4.9s4.9,2.2,4.9,4.9C31.1,23,29,25.2,26.3,25.2z"/>
	<path class="st0" d="M15.1,33.6h1.4v2.8h-1.4V33.6z"/>
	<path class="st0" d="M12.9,33.6h1.4v2.8h-1.4V33.6z"/>
	<path class="st0" d="M16.5,19.6h1.4V21h-1.4V19.6z"/>
	<path class="st0" d="M16.5,16.8h1.4v1.4h-1.4V16.8z"/>
	<path class="st0" d="M16.5,22.4h1.4v1.4h-1.4V22.4z"/>
</g>
</svg>
