<?xml version="1.0" encoding="utf-8"?>
<!-- Generator: Adobe Illustrator 24.1.1, SVG Export Plug-In . SVG Version: 6.00 Build 0)  -->
<svg version="1.1" id="Layer_1" xmlns="http://www.w3.org/2000/svg" xmlns:xlink="http://www.w3.org/1999/xlink" x="0px" y="0px"
	 viewBox="0 0 10 10" style="enable-background:new 0 0 10 10;" xml:space="preserve">
<style type="text/css">
	.st0{fill:#FC6A55;}
	.st1{fill:#EDEDED;}
	.st2{fill:none;stroke:#FC6A55;stroke-miterlimit:10;}
	.st3{fill:#222F3F;}
	.st4{fill:#383838;}
	.st5{fill:#FFFFFF;}
	.st6{fill:#656D7A;}
	.st7{fill:#C4C4C4;}
	.st8{filter:url(#Adobe_OpacityMaskFilter);}
	.st9{fill-rule:evenodd;clip-rule:evenodd;fill:#FFFFFF;}
	.st10{mask:url(#mask-2_8_);fill-rule:evenodd;clip-rule:evenodd;fill:#FFFFFF;}
	.st11{filter:url(#Adobe_OpacityMaskFilter_1_);}
	.st12{mask:url(#mask-2_7_);fill-rule:evenodd;clip-rule:evenodd;fill:#FFFFFF;}
	.st13{filter:url(#Adobe_OpacityMaskFilter_2_);}
	.st14{mask:url(#mask-2_6_);fill-rule:evenodd;clip-rule:evenodd;fill:#FFFFFF;}
	.st15{filter:url(#Adobe_OpacityMaskFilter_3_);}
	.st16{mask:url(#mask-2_5_);fill-rule:evenodd;clip-rule:evenodd;fill:#FFFFFF;}
	.st17{filter:url(#Adobe_OpacityMaskFilter_4_);}
	.st18{mask:url(#mask-2_2_);fill:none;stroke:#FFFFFF;stroke-width:1.5;stroke-miterlimit:10;}
	.st19{fill:#B4A3EE;}
	.st20{fill:#434343;}
	.st21{fill:#434343;stroke:#F9F9F9;stroke-width:0.25;stroke-miterlimit:10;}
	.st22{fill:none;stroke:#FC6A55;stroke-width:0.5;stroke-miterlimit:10;}
	.st23{fill:none;stroke:#FC6A55;stroke-width:0.75;stroke-miterlimit:10;}
	.st24{fill:#FC6A55;stroke:#FC6A55;stroke-width:0.5;stroke-miterlimit:10;}
	.st25{opacity:0.153;fill:url(#Path_44_);enable-background:new    ;}
	.st26{opacity:0.1;fill:#590BB2;enable-background:new    ;}
	.st27{fill:#8E8CA8;}
	.st28{fill:#F5F4F9;}
	.st29{fill:#FFD5B8;}
	.st30{fill:#FC8473;}
	.st31{fill:#1C3475;}
	.st32{fill:#DDD9E4;}
	.st33{fill:#828FB3;}
	.st34{opacity:7.584635e-02;fill:url(#Path_45_);enable-background:new    ;}
	.st35{fill:#FFBE92;}
	.st36{fill:#FB8E7F;}
	.st37{fill:#FDB1A6;}
	.st38{fill:#FC806F;}
	.st39{fill:#FFE783;}
	.st40{fill:#104478;}
	.st41{fill:none;stroke:#FFFFFF;stroke-miterlimit:10;}
	.st42{fill:none;stroke:#000000;stroke-width:0.15;stroke-miterlimit:10;}
	.st43{opacity:0.1;fill:url(#Path_46_);enable-background:new    ;}
	.st44{opacity:0.1;fill:url(#Path_47_);enable-background:new    ;}
	.st45{fill-rule:evenodd;clip-rule:evenodd;fill:#FC6A55;}
	.st46{fill-rule:evenodd;clip-rule:evenodd;}
	.st47{fill:#FF6757;}
	.st48{fill:#666666;}
	.st49{fill:none;stroke:#FFFFFF;stroke-width:0.5;stroke-miterlimit:10;}
	.st50{fill:#606060;}
	.st51{fill:#F16A56;}
	.st52{fill:#515252;}
	.st53{fill:#F26A56;}
	.st54{fill:none;stroke:#F16A56;stroke-miterlimit:10;}
	.st55{fill:none;stroke:#929292;stroke-miterlimit:10;}
	.st56{fill:#929292;}
	.st57{fill:none;stroke:#000000;stroke-width:0.5;stroke-miterlimit:10;}
	.st58{fill:#A8A7A7;}
	.st59{fill:#F79F91;}
	.st60{fill:#9BDBD5;}
	.st61{fill:#222121;}
	.st62{stroke:#000000;stroke-width:0.25;stroke-miterlimit:10;}
</style>
<g>
	<g>
		<path d="M9,0.9H8.1V0.6C8.1,0.3,7.8,0,7.5,0S6.9,0.3,6.9,0.6v0.3H3.6V0.6C3.6,0.3,3.4,0,3.1,0S2.5,0.3,2.5,0.6v0.3c0,0,0,0-0.1,0
			H1.6c-0.5,0-1,0.4-1,1v3.3c0,0.1,0.1,0.2,0.2,0.2s0.2-0.1,0.2-0.2V2.9h7c0.1,0,0.2-0.1,0.2-0.2S8.2,2.5,8.1,2.5h-7V1.8
			c0-0.3,0.3-0.6,0.6-0.6h0.8c0,0,0,0,0.1,0v0.3c0,0.3,0.3,0.6,0.6,0.6s0.6-0.3,0.6-0.6V1.3h3.3v0.2c0,0.3,0.3,0.6,0.6,0.6
			s0.6-0.3,0.6-0.6V1.3H9c0.3,0,0.6,0.3,0.6,0.6v7.4c0,0.2-0.2,0.4-0.4,0.4S8.9,9.5,8.9,9.3V8.8c0-0.1-0.1-0.2-0.2-0.2H6.4
			c-0.1,0-0.2,0.1-0.2,0.2s0.1,0.2,0.2,0.2h2.1v0.3c0,0.1,0,0.2,0.1,0.4H0.7c-0.2,0-0.4-0.2-0.4-0.4V8.9h4.4C4.9,8.9,5,8.9,5,8.8
			S4.9,8.6,4.8,8.6h-2c0.3-0.3,0.6-0.7,0.6-1.2c0-0.9-0.7-1.6-1.6-1.6S0.2,6.5,0.2,7.3c0,0.5,0.2,0.9,0.6,1.2H0.2
			C0.1,8.6,0,8.6,0,8.8v0.5C0,9.7,0.3,10,0.7,10h8.5C9.7,10,10,9.7,10,9.3V1.8C10,1.3,9.6,0.9,9,0.9z M3.2,1.5
			c0,0.1-0.1,0.2-0.2,0.2S2.9,1.6,2.9,1.5V0.6c0-0.1,0.1-0.2,0.2-0.2s0.2,0.1,0.2,0.2V1.5z M7.7,1.5c0,0.1-0.1,0.2-0.2,0.2
			S7.3,1.6,7.3,1.5V0.6c0-0.1,0.1-0.2,0.2-0.2s0.2,0.1,0.2,0.2V1.5z M0.6,7.3c0-0.7,0.5-1.2,1.2-1.2S3,6.7,3,7.3S2.4,8.6,1.8,8.6
			S0.6,8,0.6,7.3z"/>
	</g>
	<g>
		<path d="M9.1,2.5c0,0-0.1-0.1-0.1-0.1c-0.1,0-0.1,0-0.1,0.1c0,0-0.1,0.1-0.1,0.1s0,0.1,0.1,0.1S9,2.9,9,2.9c0.1,0,0.1,0,0.1-0.1
			c0,0,0.1-0.1,0.1-0.1S9.2,2.6,9.1,2.5z"/>
	</g>
	<g>
		<path d="M5.8,8.6c0,0-0.1-0.1-0.1-0.1s-0.1,0-0.1,0.1c0,0-0.1,0.1-0.1,0.1c0,0.1,0,0.1,0.1,0.1c0,0,0.1,0.1,0.1,0.1s0.1,0,0.1-0.1
			c0,0,0.1-0.1,0.1-0.1S5.9,8.7,5.8,8.6z"/>
	</g>
	<g>
		<path d="M4.4,5.9C4,5.9,3.7,6.3,3.7,6.7S4,7.4,4.4,7.4s0.7-0.3,0.7-0.7S4.8,5.9,4.4,5.9z M4.4,7C4.2,7,4.1,6.9,4.1,6.7
			s0.2-0.4,0.4-0.4s0.4,0.2,0.4,0.4S4.6,7,4.4,7z"/>
	</g>
	<g>
		<path d="M6.2,5.9c-0.4,0-0.7,0.3-0.7,0.7s0.3,0.7,0.7,0.7S7,7.1,7,6.7S6.7,5.9,6.2,5.9z M6.2,7C6,7,5.9,6.9,5.9,6.7S6,6.3,6.2,6.3
			s0.4,0.2,0.4,0.4S6.4,7,6.2,7z"/>
	</g>
	<g>
		<path d="M8.1,5.9c-0.4,0-0.7,0.3-0.7,0.7s0.3,0.7,0.7,0.7c0.4,0,0.7-0.3,0.7-0.7S8.5,5.9,8.1,5.9z M8.1,7C7.9,7,7.7,6.9,7.7,6.7
			s0.2-0.4,0.4-0.4c0.2,0,0.4,0.2,0.4,0.4S8.3,7,8.1,7z"/>
	</g>
	<g>
		<path d="M2.6,3.9c-0.4,0-0.7,0.3-0.7,0.7s0.3,0.7,0.7,0.7s0.7-0.3,0.7-0.7S3,3.9,2.6,3.9z M2.6,5C2.4,5,2.2,4.8,2.2,4.6
			s0.2-0.4,0.4-0.4s0.4,0.2,0.4,0.4S2.8,5,2.6,5z"/>
	</g>
	<g>
		<path d="M6.2,3.9c-0.4,0-0.7,0.3-0.7,0.7s0.3,0.7,0.7,0.7S7,5.1,7,4.6S6.7,3.9,6.2,3.9z M6.2,5C6,5,5.9,4.8,5.9,4.6S6,4.3,6.2,4.3
			s0.4,0.2,0.4,0.4S6.4,5,6.2,5z"/>
	</g>
	<g>
		<path d="M8.1,3.9c-0.4,0-0.7,0.3-0.7,0.7s0.3,0.7,0.7,0.7c0.4,0,0.7-0.3,0.7-0.7S8.5,3.9,8.1,3.9z M8.1,5C7.9,5,7.7,4.8,7.7,4.6
			s0.2-0.4,0.4-0.4c0.2,0,0.4,0.2,0.4,0.4S8.3,5,8.1,5z"/>
	</g>
	<path d="M4.4,3.9C4,3.9,3.7,4.2,3.7,4.6S4,5.4,4.4,5.4s0.7-0.3,0.7-0.7S4.8,3.9,4.4,3.9z M4.4,5C4.2,5,4.1,4.8,4.1,4.6
		s0.2-0.4,0.4-0.4s0.4,0.2,0.4,0.4S4.6,5,4.4,5z"/>
	<path d="M2.5,6.9c-0.1-0.1-0.2-0.1-0.3,0L1.6,7.5L1.3,7.3c-0.1-0.1-0.2-0.1-0.3,0C1,7.4,1,7.5,1.1,7.6l0.4,0.4C1.4,8,1.5,8,1.6,8
		c0.1,0,0.1,0,0.1-0.1l0.8-0.8C2.5,7.1,2.5,6.9,2.5,6.9z"/>
</g>
</svg>
