<?xml version="1.0" encoding="utf-8"?>
<!-- Generator: Adobe Illustrator 24.1.1, SVG Export Plug-In . SVG Version: 6.00 Build 0)  -->
<svg version="1.1" id="Layer_1" xmlns="http://www.w3.org/2000/svg" xmlns:xlink="http://www.w3.org/1999/xlink" x="0px" y="0px"
	 viewBox="0 0 14 14" style="enable-background:new 0 0 14 14;" xml:space="preserve">
<style type="text/css">
	.st0{fill:#FC6A55;}
	.st1{fill:#EDEDED;}
	.st2{fill:none;stroke:#FC6A55;stroke-miterlimit:10;}
	.st3{fill:#222F3F;}
	.st4{fill:#383838;}
	.st5{fill:#FFFFFF;}
	.st6{fill:#656D7A;}
	.st7{fill:#C4C4C4;}
	.st8{filter:url(#Adobe_OpacityMaskFilter);}
	.st9{fill-rule:evenodd;clip-rule:evenodd;fill:#FFFFFF;}
	.st10{mask:url(#mask-2_8_);fill-rule:evenodd;clip-rule:evenodd;fill:#FFFFFF;}
	.st11{filter:url(#Adobe_OpacityMaskFilter_1_);}
	.st12{mask:url(#mask-2_7_);fill-rule:evenodd;clip-rule:evenodd;fill:#FFFFFF;}
	.st13{filter:url(#Adobe_OpacityMaskFilter_2_);}
	.st14{mask:url(#mask-2_6_);fill-rule:evenodd;clip-rule:evenodd;fill:#FFFFFF;}
	.st15{filter:url(#Adobe_OpacityMaskFilter_3_);}
	.st16{mask:url(#mask-2_5_);fill-rule:evenodd;clip-rule:evenodd;fill:#FFFFFF;}
	.st17{filter:url(#Adobe_OpacityMaskFilter_4_);}
	.st18{mask:url(#mask-2_2_);fill:none;stroke:#FFFFFF;stroke-width:1.5;stroke-miterlimit:10;}
	.st19{fill:#B4A3EE;}
	.st20{fill:#434343;}
	.st21{fill:#434343;stroke:#F9F9F9;stroke-width:0.25;stroke-miterlimit:10;}
	.st22{fill:none;stroke:#FC6A55;stroke-width:0.5;stroke-miterlimit:10;}
	.st23{fill:none;stroke:#FC6A55;stroke-width:0.75;stroke-miterlimit:10;}
	.st24{fill:#FC6A55;stroke:#FC6A55;stroke-width:0.5;stroke-miterlimit:10;}
	.st25{opacity:0.153;fill:url(#Path_44_);enable-background:new    ;}
	.st26{opacity:0.1;fill:#590BB2;enable-background:new    ;}
	.st27{fill:#8E8CA8;}
	.st28{fill:#F5F4F9;}
	.st29{fill:#FFD5B8;}
	.st30{fill:#FC8473;}
	.st31{fill:#1C3475;}
	.st32{fill:#DDD9E4;}
	.st33{fill:#828FB3;}
	.st34{opacity:7.584635e-02;fill:url(#Path_45_);enable-background:new    ;}
	.st35{fill:#FFBE92;}
	.st36{fill:#FB8E7F;}
	.st37{fill:#FDB1A6;}
	.st38{fill:#FC806F;}
	.st39{fill:#FFE783;}
	.st40{fill:#104478;}
	.st41{fill:none;stroke:#FFFFFF;stroke-miterlimit:10;}
	.st42{fill:none;stroke:#000000;stroke-width:0.15;stroke-miterlimit:10;}
	.st43{opacity:0.1;fill:url(#Path_46_);enable-background:new    ;}
	.st44{opacity:0.1;fill:url(#Path_47_);enable-background:new    ;}
	.st45{fill-rule:evenodd;clip-rule:evenodd;fill:#FC6A55;}
	.st46{fill-rule:evenodd;clip-rule:evenodd;}
	.st47{fill:#FF6757;}
	.st48{fill:#666666;}
	.st49{fill:none;stroke:#FFFFFF;stroke-width:0.5;stroke-miterlimit:10;}
	.st50{fill:#606060;}
	.st51{fill:#F16A56;}
	.st52{fill:#515252;}
	.st53{fill:#F26A56;}
	.st54{fill:none;stroke:#F16A56;stroke-miterlimit:10;}
	.st55{fill:none;stroke:#929292;stroke-miterlimit:10;}
	.st56{fill:#929292;}
	.st57{fill:none;stroke:#000000;stroke-width:0.5;stroke-miterlimit:10;}
	.st58{fill:#A8A7A7;}
	.st59{fill:#F79F91;}
	.st60{fill:#9BDBD5;}
	.st61{fill:#222121;}
	.st62{stroke:#000000;stroke-width:0.25;stroke-miterlimit:10;}
</style>
<g>
	<g>
		<path class="st5" d="M12.6,1.2h-1.3V0.8C11.3,0.4,11,0,10.5,0S9.7,0.4,9.7,0.8v0.4H5.1V0.8C5.1,0.4,4.7,0,4.3,0S3.5,0.4,3.5,0.8
			v0.4c0,0,0,0-0.1,0H2.3c-0.8,0-1.4,0.6-1.4,1.4v4.7c0,0.2,0.1,0.3,0.3,0.3s0.3-0.1,0.3-0.3V4h9.9c0.2,0,0.3-0.1,0.3-0.3
			s-0.1-0.3-0.3-0.3H1.5V2.6c0-0.5,0.4-0.8,0.8-0.8h1.1c0,0,0,0,0.1,0v0.4c0,0.5,0.4,0.8,0.8,0.8s0.8-0.4,0.8-0.8V1.8h4.6v0.3
			c0,0.5,0.4,0.8,0.8,0.8s0.8-0.4,0.8-0.8V1.8h1.3c0.5,0,0.8,0.4,0.8,0.8V13c0,0.3-0.2,0.5-0.5,0.5c-0.3,0-0.5-0.2-0.5-0.5v-0.7
			c0-0.2-0.1-0.3-0.3-0.3H9c-0.2,0-0.3,0.1-0.3,0.3s0.1,0.3,0.3,0.3h2.9V13c0,0.2,0,0.3,0.1,0.5H1c-0.3,0-0.5-0.2-0.5-0.5v-0.4h6.1
			c0.2,0,0.3-0.1,0.3-0.3S6.8,12,6.7,12H3.9c0.5-0.4,0.8-1,0.8-1.7C4.7,9,3.7,8,2.5,8s-2.2,1-2.2,2.2C0.2,11,0.5,11.6,1,12H0.3
			C0.1,12,0,12.1,0,12.3V13c0,0.6,0.5,1,1,1H13c0.6,0,1-0.5,1-1V2.6C14,1.8,13.4,1.2,12.6,1.2z M4.5,2.1c0,0.2-0.1,0.3-0.3,0.3
			S4,2.2,4,2.1V0.8c0-0.2,0.1-0.3,0.3-0.3s0.3,0.1,0.3,0.3V2.1z M10.8,2.1c0,0.2-0.1,0.3-0.3,0.3s-0.3-0.1-0.3-0.3V0.8
			c0-0.2,0.1-0.3,0.3-0.3s0.3,0.1,0.3,0.3V2.1z M0.8,10.3c0-0.9,0.8-1.7,1.7-1.7s1.7,0.8,1.7,1.7S3.4,12,2.5,12S0.8,11.2,0.8,10.3z"
			/>
	</g>
	<g>
		<path class="st5" d="M12.8,3.6c-0.1-0.1-0.1-0.1-0.2-0.1c-0.1,0-0.1,0-0.2,0.1s-0.1,0.1-0.1,0.2s0,0.1,0.1,0.2
			C12.5,4,12.5,4,12.6,4c0.1,0,0.1,0,0.2-0.1c0.1-0.1,0.1-0.1,0.1-0.2S12.9,3.6,12.8,3.6z"/>
	</g>
	<g>
		<path class="st5" d="M8.2,12.1C8.1,12,8,12,8,12s-0.1,0-0.2,0.1c-0.1,0.1-0.1,0.1-0.1,0.2c0,0.1,0,0.1,0.1,0.2
			c0.1,0.1,0.1,0.1,0.2,0.1s0.1,0,0.2-0.1c0.1-0.1,0.1-0.1,0.1-0.2S8.2,12.1,8.2,12.1z"/>
	</g>
	<g>
		<path class="st5" d="M6.2,8.3c-0.6,0-1,0.5-1,1s0.5,1,1,1s1-0.5,1-1S6.8,8.3,6.2,8.3z M6.2,9.8c-0.3,0-0.5-0.2-0.5-0.5
			s0.2-0.5,0.5-0.5s0.5,0.2,0.5,0.5S6.5,9.8,6.2,9.8z"/>
	</g>
	<g>
		<path class="st5" d="M8.7,8.3c-0.6,0-1,0.5-1,1s0.5,1,1,1c0.6,0,1-0.5,1-1S9.3,8.3,8.7,8.3z M8.7,9.8c-0.3,0-0.5-0.2-0.5-0.5
			s0.2-0.5,0.5-0.5c0.3,0,0.5,0.2,0.5,0.5S9,9.8,8.7,9.8z"/>
	</g>
	<g>
		<path class="st5" d="M11.3,8.3c-0.6,0-1,0.5-1,1s0.5,1,1,1c0.6,0,1-0.5,1-1S11.9,8.3,11.3,8.3z M11.3,9.8c-0.3,0-0.5-0.2-0.5-0.5
			s0.2-0.5,0.5-0.5c0.3,0,0.5,0.2,0.5,0.5S11.6,9.8,11.3,9.8z"/>
	</g>
	<g>
		<path class="st5" d="M3.6,5.5c-0.6,0-1,0.5-1,1s0.5,1,1,1s1-0.5,1-1S4.2,5.5,3.6,5.5z M3.6,7C3.4,7,3.1,6.8,3.1,6.5S3.4,6,3.6,6
			s0.5,0.2,0.5,0.5S3.9,7,3.6,7z"/>
	</g>
	<g>
		<path class="st5" d="M8.7,5.5c-0.6,0-1,0.5-1,1s0.5,1,1,1c0.6,0,1-0.5,1-1S9.3,5.5,8.7,5.5z M8.7,7C8.5,7,8.2,6.8,8.2,6.5
			S8.5,6,8.7,6C9,6,9.2,6.2,9.2,6.5S9,7,8.7,7z"/>
	</g>
	<g>
		<path class="st5" d="M11.3,5.5c-0.6,0-1,0.5-1,1s0.5,1,1,1c0.6,0,1-0.5,1-1S11.9,5.5,11.3,5.5z M11.3,7c-0.3,0-0.5-0.2-0.5-0.5
			S11,6,11.3,6c0.3,0,0.5,0.2,0.5,0.5S11.6,7,11.3,7z"/>
	</g>
	<path class="st5" d="M6.2,5.5c-0.6,0-1,0.5-1,1s0.5,1,1,1s1-0.5,1-1S6.8,5.5,6.2,5.5z M6.2,7C5.9,7,5.7,6.8,5.7,6.5S5.9,6,6.2,6
		s0.5,0.2,0.5,0.5S6.5,7,6.2,7z"/>
	<path class="st5" d="M3.4,9.6c-0.1-0.1-0.3-0.1-0.4,0l-0.9,0.9l-0.3-0.3c-0.1-0.1-0.3-0.1-0.4,0c-0.1,0.1-0.1,0.3,0,0.4L2,11.1
		c0.1,0.1,0.1,0.1,0.2,0.1c0.1,0,0.1,0,0.2-0.1L3.4,10C3.6,9.9,3.6,9.7,3.4,9.6z"/>
</g>
</svg>
