<?xml version="1.0" encoding="utf-8"?>
<!-- Generator: Adobe Illustrator 24.0.2, SVG Export Plug-In . SVG Version: 6.00 Build 0)  -->
<svg version="1.1" id="Layer_1" xmlns="http://www.w3.org/2000/svg" xmlns:xlink="http://www.w3.org/1999/xlink" x="0px" y="0px"
	 viewBox="0 0 15.2 19" style="enable-background:new 0 0 15.2 19;" xml:space="preserve">
<style type="text/css">
	.st0{fill:#FC6A55;}
	.st1{fill:#EDEDED;}
	.st2{fill:none;stroke:#FC6A55;stroke-miterlimit:10;}
	.st3{stroke:#FFFFFF;stroke-width:0.25;stroke-miterlimit:10;}
	.st4{fill:#656D7A;}
	.st5{fill:#FFFFFF;}
	.st6{filter:url(#Adobe_OpacityMaskFilter);}
	.st7{fill-rule:evenodd;clip-rule:evenodd;fill:#FFFFFF;}
	.st8{mask:url(#mask-2_8_);fill-rule:evenodd;clip-rule:evenodd;}
	.st9{filter:url(#Adobe_OpacityMaskFilter_1_);}
	.st10{mask:url(#mask-2_7_);fill-rule:evenodd;clip-rule:evenodd;}
	.st11{filter:url(#Adobe_OpacityMaskFilter_2_);}
	.st12{mask:url(#mask-2_6_);fill-rule:evenodd;clip-rule:evenodd;}
	.st13{filter:url(#Adobe_OpacityMaskFilter_3_);}
	.st14{mask:url(#mask-2_5_);fill-rule:evenodd;clip-rule:evenodd;}
	.st15{filter:url(#Adobe_OpacityMaskFilter_4_);}
	.st16{mask:url(#mask-2_2_);fill:none;stroke:#000000;stroke-width:2;}
	.st17{fill:#434343;}
	.st18{fill:#434343;stroke:#F9F9F9;stroke-width:0.25;stroke-miterlimit:10;}
	.st19{fill:none;stroke:#FC6A55;stroke-width:0.5;stroke-miterlimit:10;}
	.st20{fill:none;stroke:#FC6A55;stroke-width:0.75;stroke-miterlimit:10;}
	.st21{fill:#FC6A55;stroke:#FC6A55;stroke-width:0.5;stroke-miterlimit:10;}
	.st22{opacity:0.153;fill:url(#Path_146_);enable-background:new    ;}
	.st23{opacity:0.1;fill:#590BB2;enable-background:new    ;}
	.st24{fill:#8E8CA8;}
	.st25{fill:#F5F4F9;}
	.st26{fill:#FFD5B8;}
	.st27{fill:#FC8473;}
	.st28{fill:#1C3475;}
	.st29{fill:#DDD9E4;}
	.st30{fill:#828FB3;}
	.st31{opacity:7.584635e-02;fill:url(#Path_147_);enable-background:new    ;}
	.st32{fill:#FFBE92;}
	.st33{fill:#FB8E7F;}
	.st34{fill:#FDB1A6;}
	.st35{fill:#FC806F;}
	.st36{fill:#FFE783;}
	.st37{fill:#104478;}
	.st38{fill:none;stroke:#FFFFFF;stroke-miterlimit:10;}
	.st39{fill:none;stroke:#000000;stroke-width:0.15;stroke-miterlimit:10;}
	.st40{opacity:0.1;fill:url(#Path_148_);enable-background:new    ;}
	.st41{opacity:0.1;fill:url(#Path_149_);enable-background:new    ;}
	.st42{fill-rule:evenodd;clip-rule:evenodd;fill:#FC6A55;}
	.st43{fill-rule:evenodd;clip-rule:evenodd;}
	.st44{fill:#FF6757;}
	.st45{fill:#666666;}
	.st46{fill:none;stroke:#FFFFFF;stroke-width:0.5;stroke-miterlimit:10;}
	.st47{fill:#F16A56;}
	.st48{fill:#515252;}
	.st49{fill:#F26A56;}
	.st50{fill:none;stroke:#F16A56;stroke-miterlimit:10;}
	.st51{fill:none;stroke:#929292;stroke-miterlimit:10;}
	.st52{fill:#929292;}
	.st53{fill:none;stroke:#000000;stroke-width:0.5;stroke-miterlimit:10;}
	.st54{fill:#A8A7A7;}
</style>
<g>
	<g>
		<path class="st5" d="M14.6,2.2H6.3C6.2,1,5.2,0,3.9,0S1.6,1,1.5,2.2H0.6C0.2,2.2,0,2.5,0,2.8v15.7C0,18.8,0.2,19,0.6,19h9.6
			c0.1,0,0.3-0.1,0.4-0.2l4.4-4.5c0.1-0.1,0.2-0.2,0.2-0.4V2.8C15.2,2.5,14.9,2.2,14.6,2.2z M3.9,1.1c0.7,0,1.2,0.5,1.3,1.1H2.6
			C2.7,1.6,3.2,1.1,3.9,1.1z M1.1,3.3h4.1v2.4c0,0.3-0.2,0.6-0.6,0.6S4.1,6.1,4.1,5.8V5c0-0.3-0.2-0.6-0.6-0.6S3,4.7,3,5v0.7
			c0,0.9,0.7,1.7,1.7,1.7s1.7-0.7,1.7-1.7V3.3h7.8v10.1h-3.9c-0.3,0-0.6,0.2-0.6,0.6v3.9H1.1V3.3z M12,15.8l-1.3,1.3v-2.6h2.5
			L12,15.8z"/>
		<path class="st5" d="M2.8,10.1h9.6c0.3,0,0.6-0.2,0.6-0.6S12.7,9,12.4,9H2.8C2.5,9,2.2,9.2,2.2,9.5S2.5,10.1,2.8,10.1z"/>
		<path class="st5" d="M7.6,7.9h4.8c0.3,0,0.6-0.2,0.6-0.6s-0.2-0.6-0.6-0.6H7.6C7.3,6.8,7,7,7,7.3S7.3,7.9,7.6,7.9z"/>
		<path class="st5" d="M7.6,5.6h4.8c0.3,0,0.6-0.2,0.6-0.6s-0.2-0.6-0.6-0.6H7.6C7.3,4.5,7,4.8,7,5.1S7.3,5.6,7.6,5.6z"/>
		<path class="st5" d="M2.8,12.3h9.6c0.3,0,0.6-0.2,0.6-0.6s-0.2-0.6-0.6-0.6H2.8c-0.3,0-0.6,0.2-0.6,0.6S2.5,12.3,2.8,12.3z"/>
		<path class="st5" d="M2.8,14.6H8c0.3,0,0.6-0.2,0.6-0.6S8.3,13.4,8,13.4H2.8c-0.3,0-0.6,0.2-0.6,0.6S2.5,14.6,2.8,14.6z"/>
		<path class="st5" d="M8,15.7H2.8c-0.3,0-0.6,0.2-0.6,0.6s0.2,0.6,0.6,0.6H8c0.3,0,0.6-0.2,0.6-0.6S8.3,15.7,8,15.7z"/>
	</g>
</g>
</svg>
