<?xml version="1.0" encoding="utf-8"?>
<!-- Generator: Adobe Illustrator 24.0.2, SVG Export Plug-In . SVG Version: 6.00 Build 0)  -->
<svg version="1.1" id="Layer_1" xmlns="http://www.w3.org/2000/svg" xmlns:xlink="http://www.w3.org/1999/xlink" x="0px" y="0px"
	 viewBox="0 0 31 31" style="enable-background:new 0 0 31 31;" xml:space="preserve">
<style type="text/css">
	.st0{fill:#5D5D5D;}
	.st1{fill:#FC6A55;}
	.st2{stroke:#FFFFFF;stroke-width:0.25;stroke-miterlimit:10;}
	.st3{fill:#656D7A;}
	.st4{fill:#FFFFFF;}
</style>
<g>
	<path class="st0" d="M12.3,23.5c-0.2,0-0.4,0.3-0.4,0.5c0,0.2,0.1,0.5,0.1,0.7v4H0.9v-4c0-2.1,1.7-3.8,3.8-3.8h0.6l-1.2,4.2
		c0,0.2,0,0.3,0.1,0.4l1.9,2c0.1,0.1,0.2,0.1,0.3,0.1c0.1,0,0.2,0,0.3-0.1l1.9-2c0.1-0.1,0.2-0.3,0.1-0.4l-1.2-4.2h0.6
		c1.3,0,2.4,0.6,3.2,1.7c0.1,0.2,0.4,0.3,0.6,0.1c0.2-0.1,0.3-0.4,0.1-0.6C11.2,20.7,9.8,20,8.2,20H7H6H4.7C2.1,20,0,22.1,0,24.7
		v4.5c0,0.3,0.2,0.5,0.5,0.5h12c0.3,0,0.5-0.2,0.5-0.5v-4.5c0-0.3,0-0.6-0.1-0.8C12.8,23.6,12.6,23.5,12.3,23.5z M6.6,20.9l1.2,4.2
		l-1.4,1.5l-1.4-1.5l1.2-4.2H6.6z"/>
	<path class="st0" d="M6.5,19c3,0,5.4-2.4,5.4-5.4v-1.4v-0.9c0,0,0-0.1,0-0.1c0,0,0,0,0,0c0,0,0-0.1,0-0.1c0,0,0,0,0,0
		c0,0,0-0.1,0-0.1c0,0,0,0,0,0c0,0,0-0.1,0-0.1c0,0,0,0,0,0c0,0,0-0.1,0-0.1c0,0,0,0,0,0c-0.1-0.5-0.2-1-0.4-1.5c0,0,0,0,0,0
		c0,0,0-0.1,0-0.1c0,0,0,0,0-0.1c0,0,0,0,0-0.1c0,0,0-0.1,0-0.1c0,0,0,0,0,0c0,0,0-0.1-0.1-0.1c0,0,0,0,0,0c-0.3-0.5-0.7-1-1.1-1.4
		c0,0,0,0,0,0c0,0,0,0-0.1-0.1c0,0,0,0,0,0c0,0-0.1-0.1-0.1-0.1c0,0-0.1,0-0.1-0.1c0,0-0.1,0-0.1-0.1c0,0-0.1-0.1-0.1-0.1
		c0,0,0,0,0,0c-0.1,0-0.1-0.1-0.2-0.1c0,0,0,0,0,0C8.5,6.3,7.8,6,7,6c0,0,0,0,0,0c-0.1,0-0.1,0-0.2,0c0,0,0,0,0,0
		c-0.1,0-0.1,0-0.2,0c-1.3,0-2.6,0.5-3.6,1.4c-0.2,0.2-0.2,0.5,0,0.6C3,8.1,3.3,8.1,3.5,8c0.8-0.7,1.9-1.1,3-1.1c0.1,0,0.1,0,0.2,0
		c0,0,0.1,0,0.1,0c0,0,0.1,0,0.1,0c0,0,0.1,0,0.1,0c0,0,0.1,0,0.1,0c0,0,0.1,0,0.1,0c0,0,0,0,0.1,0c0.1,0,0.1,0,0.2,0c0,0,0,0,0,0
		c0.4,0.1,0.7,0.2,1,0.4c0,0,0,0,0,0c0,0,0.1,0,0.1,0.1c0,0,0,0,0.1,0c0,0,0.1,0,0.1,0.1c0,0,0.1,0,0.1,0.1c0,0,0,0,0.1,0
		c0,0,0.1,0.1,0.1,0.1c0,0,0,0,0,0c0,0,0.1,0.1,0.1,0.1c0,0,0,0,0,0c0,0,0.1,0.1,0.1,0.1C9.4,8,9.5,8,9.5,8c0,0,0.1,0.1,0.1,0.1
		c0,0,0,0,0.1,0.1c0,0,0.1,0.1,0.1,0.1c0,0,0,0,0.1,0.1c0,0,0.1,0.1,0.1,0.1c0,0,0,0,0.1,0.1c0.1,0.1,0.2,0.2,0.3,0.4
		c0,0,0,0.1,0.1,0.1c0,0,0,0.1,0,0.1c0,0,0,0.1,0.1,0.1c0,0,0,0.1,0,0.1c0,0,0,0.1,0.1,0.1c0,0,0,0,0,0.1c0,0,0,0.1,0.1,0.1
		c0,0,0,0,0,0.1c0,0.1,0,0.1,0.1,0.2c0,0,0,0,0,0.1c0,0.1,0,0.1,0.1,0.2c0,0,0,0,0,0.1c0,0.1,0,0.1,0,0.2c0,0,0,0,0,0.1
		c0,0.1,0,0.1,0,0.2c0,0,0,0,0,0.1c0,0.1,0,0.1,0,0.2c0,0,0,0,0,0.1c0,0.1,0,0.1,0,0.2c0,0,0,0,0,0.1c0,0.1,0,0.2,0,0.2v0.4
		c-0.9-0.2-1.7-0.8-2.3-1.6C8.6,9.9,8.5,9.9,8.3,9.9c-0.1,0-0.3,0-0.4,0.1c-1,1.1-2.5,1.8-4,1.8c-0.7,0-1.3-0.1-1.9-0.3v-0.1
		c0-0.7,0.2-1.3,0.5-2c0.1-0.2,0-0.5-0.2-0.6C2,8.6,1.8,8.7,1.7,8.9c-0.4,0.7-0.5,1.5-0.5,2.4v0.5v1.9C1.1,16.6,3.5,19,6.5,19z
		 M2,12.4c0.6,0.2,1.3,0.3,1.9,0.3c1.6,0,3.1-0.6,4.3-1.7c0.7,0.8,1.6,1.4,2.7,1.6v1c0,2.5-2,4.4-4.4,4.4S2,16.1,2,13.7L2,12.4
		L2,12.4z"/>
	<path class="st0" d="M6.5,15.5h0.6c0.3,0,0.5-0.2,0.5-0.5s-0.2-0.5-0.5-0.5H6.9v-1.1c0-0.3-0.2-0.5-0.5-0.5c-0.3,0-0.5,0.2-0.5,0.5
		v1.5C6,15.3,6.2,15.5,6.5,15.5z"/>
	<path class="st0" d="M8.5,3.6c1.6,0,3.2,0.2,4.8,0.7c0,0,0.1,0,0.1,0c0.2,0,0.3-0.1,0.4-0.3L14.8,2c0.1-0.1,0-0.3,0-0.4
		c-0.1-0.1-0.2-0.2-0.4-0.2c-0.4,0-0.9,0.1-1.3,0.1c-1.6,0.2-3.2,0.6-4.7,1.3C8.1,2.9,8,3.1,8.1,3.3C8.1,3.5,8.3,3.6,8.5,3.6z
		 M13.1,2.3c0.2,0,0.3,0,0.5-0.1l-0.5,1.1c-0.8-0.2-1.6-0.4-2.5-0.5C11.5,2.6,12.3,2.4,13.1,2.3z"/>
	<path class="st0" d="M31,16.7c0-0.1-0.1-0.2-0.2-0.3c-0.1-0.1-0.2-0.1-0.3-0.1l-6.8,0.8c-0.2,0-0.4,0.2-0.4,0.5c0,0.1,0,0.2,0,0.3
		c0,0.3,0.2,0.5,0.5,0.4c0.2,0,0.4-0.1,0.4-0.3l6-0.7c0,2.6-0.6,5.1-1.8,7.4l-4.8-2c0.1-0.4,0.2-0.8,0.3-1.2
		c1.4,0.3,2.4,0.6,2.6,0.6c0,0,0,0,0,0c0,0,0.1,0,0.1,0c0.2,0,0.5-0.1,0.6-0.3c0.1-0.2,0.2-0.4,0.2-0.6c0-0.2-0.1-0.4-0.3-0.5
		c0,0-0.1-0.1-0.1-0.1c0,0,0,0,0,0c-0.5-0.2-6-2.5-9.3-3.9c-0.4-1.3-1.6-2.1-3-1.9c-1.5,0.2-2.6,1.6-2.4,3c0.2,1.4,1.4,2.4,2.7,2.4
		c0.1,0,0.2,0,0.3,0c0.5-0.1,0.9-0.2,1.3-0.5l6.3,1.5c-0.1,0.5-0.3,1-0.4,1.6c-0.1,0.2,0,0.5,0.3,0.6l5.5,2.3c0.1,0,0.1,0,0.2,0
		c0.2,0,0.3-0.1,0.4-0.2C30.4,22.7,31.1,19.7,31,16.7z M15.2,19.2c-0.1,0-0.2,0-0.2,0c-0.9,0-1.7-0.7-1.8-1.6c-0.1-1,0.6-1.9,1.6-2
		c0.1,0,0.1,0,0.2,0c0.9,0,1.6,0.6,1.8,1.5c0,0,0,0.1,0,0.1c0.1,0.6-0.1,1.2-0.6,1.6c0,0,0,0,0,0C15.9,19,15.6,19.1,15.2,19.2z
		 M17.3,18.8C17.3,18.7,17.3,18.7,17.3,18.8c0.1-0.1,0.1-0.1,0.1-0.1c0,0,0,0,0-0.1c0,0,0-0.1,0-0.1c0,0,0,0,0-0.1c0,0,0-0.1,0-0.1
		c0,0,0,0,0-0.1c0,0,0-0.1,0-0.1c0,0,0,0,0-0.1c0,0,0-0.1,0-0.1c0,0,0,0,0-0.1c0,0,0-0.1,0-0.1c0,0,0-0.1,0-0.1c0,0,0-0.1,0-0.1
		c0,0,0-0.1,0-0.1c0,0,0,0,0,0c2.4,1,5.6,2.3,7.4,3.1c-0.5-0.1-1.1-0.3-1.8-0.4L17.3,18.8C17.3,18.8,17.3,18.8,17.3,18.8z"/>
	<path class="st0" d="M27.2,26.8l-5-2.1c-0.2-0.1-0.5,0-0.6,0.2c-0.8,1.5-1.8,2.9-3.1,4c-0.1,0.1-0.2,0.3-0.1,0.5
		c0.1,0.2,0.2,0.3,0.4,0.3h6.3c0.1,0,0.2,0,0.3-0.1c0.7-0.6,1.4-1.3,2-2.1c0.1-0.1,0.1-0.3,0.1-0.4C27.4,27,27.3,26.8,27.2,26.8z
		 M24.9,28.8h-5c0.9-0.9,1.7-2,2.3-3.1l4.1,1.7C25.9,27.9,25.4,28.3,24.9,28.8z"/>
	<path class="st0" d="M15.5,5.3c1.5,0.8,2.9,1.9,4.1,3.2c0.1,0.1,0.2,0.2,0.3,0.2c0.1,0,0.2,0,0.3-0.1l4.4-3.3
		c0.1-0.1,0.2-0.2,0.2-0.4s-0.1-0.3-0.2-0.4c-2.2-1.6-4.8-2.7-7.5-3c-0.2,0-0.4,0.1-0.5,0.3l-1.3,3C15.2,4.9,15.3,5.2,15.5,5.3z
		 M17.3,2.4c2.2,0.3,4.4,1.2,6.3,2.5L20,7.6c-1.1-1.1-2.3-2.1-3.7-2.9L17.3,2.4z"/>
	<path class="st0" d="M21,10.4c0.9,1.5,1.6,3.1,1.9,4.8c0,0.2,0.2,0.4,0.4,0.4c0,0,0,0,0.1,0l6.8-0.8c0.1,0,0.2-0.1,0.3-0.2
		c0.1-0.1,0.1-0.2,0.1-0.4c-0.6-3-2.1-5.7-4.2-7.9c-0.2-0.2-0.4-0.2-0.6,0l-4.8,3.6C20.9,9.9,20.9,10.2,21,10.4z M26.1,7.1
		c1.7,1.9,3,4.2,3.6,6.7l-5.9,0.7c-0.4-1.5-0.9-3-1.7-4.3L26.1,7.1z"/>
</g>
</svg>
