<?xml version="1.0" encoding="utf-8"?>
<!-- Generator: Adobe Illustrator 24.0.2, SVG Export Plug-In . SVG Version: 6.00 Build 0)  -->
<svg version="1.1" id="Layer_1" xmlns="http://www.w3.org/2000/svg" xmlns:xlink="http://www.w3.org/1999/xlink" x="0px" y="0px"
	 viewBox="0 0 42.3 42.3" style="enable-background:new 0 0 42.3 42.3;" xml:space="preserve">
<style type="text/css">
	.st0{fill:#FC6A55;}
	.st1{stroke:#FFFFFF;stroke-width:0.25;stroke-miterlimit:10;}
	.st2{fill:#656D7A;}
	.st3{fill:#FFFFFF;}
	.st4{filter:url(#Adobe_OpacityMaskFilter);}
	.st5{fill-rule:evenodd;clip-rule:evenodd;fill:#FFFFFF;}
	.st6{mask:url(#mask-2_8_);fill-rule:evenodd;clip-rule:evenodd;}
	.st7{filter:url(#Adobe_OpacityMaskFilter_1_);}
	.st8{mask:url(#mask-2_7_);fill-rule:evenodd;clip-rule:evenodd;}
	.st9{filter:url(#Adobe_OpacityMaskFilter_2_);}
	.st10{mask:url(#mask-2_6_);fill-rule:evenodd;clip-rule:evenodd;}
	.st11{filter:url(#Adobe_OpacityMaskFilter_3_);}
	.st12{mask:url(#mask-2_5_);fill-rule:evenodd;clip-rule:evenodd;}
	.st13{filter:url(#Adobe_OpacityMaskFilter_4_);}
	.st14{mask:url(#mask-2_2_);fill:none;stroke:#000000;stroke-width:2;}
</style>
<g>
	<g>
		<g>
			<path d="M21.4,0.1c-0.3,0-0.6,0.3-0.6,0.6v0.8c0,0.3,0.3,0.6,0.6,0.6c0.3,0,0.6-0.3,0.6-0.6V0.7C22,0.4,21.8,0.1,21.4,0.1z"/>
		</g>
	</g>
	<g>
		<g>
			<path d="M18.3,2.6L17.8,2c-0.2-0.2-0.6-0.2-0.9,0c-0.2,0.2-0.2,0.6,0,0.9l0.6,0.6c0.1,0.1,0.3,0.2,0.4,0.2s0.3-0.1,0.4-0.2
				C18.6,3.2,18.6,2.8,18.3,2.6z"/>
		</g>
	</g>
	<g>
		<g>
			<path d="M16.4,5.1h-0.8c-0.3,0-0.6,0.3-0.6,0.6c0,0.3,0.3,0.6,0.6,0.6h0.8c0.3,0,0.6-0.3,0.6-0.6S16.8,5.1,16.4,5.1z"/>
		</g>
	</g>
	<g>
		<g>
			<path d="M27.2,5.1h-0.8c-0.3,0-0.6,0.3-0.6,0.6s0.3,0.6,0.6,0.6h0.8c0.3,0,0.6-0.3,0.6-0.6S27.6,5.1,27.2,5.1z"/>
		</g>
	</g>
	<g>
		<g>
			<path d="M26,2c-0.2-0.2-0.6-0.2-0.9,0l-0.6,0.6c-0.2,0.2-0.2,0.6,0,0.9c0.1,0.1,0.3,0.2,0.4,0.2s0.3-0.1,0.4-0.2L26,2.9
				C26.2,2.6,26.2,2.2,26,2z"/>
		</g>
	</g>
	<g>
		<g>
			<path d="M38.3,31.8C38.3,31.8,38.3,31.8,38.3,31.8C38.3,31.7,38.3,31.7,38.3,31.8C38.3,31.7,38.3,31.7,38.3,31.8l-1.1-5.3
				c0,0,0,0,0,0l-1.1-5.2c0,0,0,0,0,0L35,15.9c-0.1-0.3-0.3-0.5-0.6-0.5H7.9c-0.3,0-0.5,0.2-0.6,0.5l-1.1,5.2c0,0,0,0,0,0L5,26.4
				c0,0,0,0,0,0l-1.1,5.2c0,0,0,0,0,0.1c0,0,0,0,0,0c0,0,0,0,0,0v2.5c0,0.3,0.3,0.6,0.6,0.6h14.7v3.5h-4.8c-0.3,0-0.6,0.3-0.6,0.6
				v1.9h-6c-0.3,0-0.6,0.3-0.6,0.6c0,0.3,0.3,0.6,0.6,0.6h6.6h13.3h6.6c0.3,0,0.6-0.3,0.6-0.6c0-0.3-0.3-0.6-0.6-0.6h-6V39
				c0-0.3-0.3-0.6-0.6-0.6H23v-3.5h14.7c0.3,0,0.6-0.3,0.6-0.6L38.3,31.8C38.3,31.8,38.3,31.8,38.3,31.8L38.3,31.8
				C38.3,31.8,38.3,31.8,38.3,31.8z M36.9,31.2h-9.7l-0.3-4h9.1L36.9,31.2z M35,21.9l0.8,4h-9l-0.3-4H35z M33.9,16.7l0.8,4h-8.2
				l-0.3-4H33.9z M17.3,16.7H25l0.3,4H17L17.3,16.7z M16.9,21.9h8.4l0.3,4h-9L16.9,21.9z M16.5,27.2h9.2l0.3,4h-9.7L16.5,27.2z
				 M8.4,16.7H16l-0.3,4H7.5L8.4,16.7z M7.3,21.9h8.4l-0.3,4h-9L7.3,21.9z M27.1,39.6v1.2h-12v-1.2h4.8h2.5H27.1z M20.5,38.4v-3.5
				h1.2v3.5H20.5z M22.4,33.7C22.4,33.7,22.4,33.7,22.4,33.7l-2.5,0c0,0,0,0,0,0H5.2v-1.2h3c0.3,0,0.6-0.3,0.6-0.6
				c0-0.3-0.3-0.6-0.6-0.6H5.3l0.8-4h9.1l-0.3,4h-4.2h0c-0.3,0-0.6,0.3-0.6,0.6c0,0.3,0.3,0.6,0.6,0.6h0h4.8c0,0,0,0,0,0
				c0,0,0,0,0,0h11.1c0,0,0,0,0,0c0,0,0,0,0,0h10.4v1.2L22.4,33.7L22.4,33.7z"/>
		</g>
	</g>
	<path class="st3" d="M28.4,16.1c-0.2,0-0.3,0.2-0.3,0.3c-0.2,0.6-0.4,1.1-0.7,1.7c-0.1,0.1-0.1,0.3,0,0.4l1.1,1.8l-1.6,1.6
		l-1.8-1.1c-0.1-0.1-0.3-0.1-0.4,0c-0.5,0.3-1.1,0.5-1.7,0.7c-0.2,0-0.3,0.2-0.3,0.3l-0.5,2h-2.2l-0.5-2c0-0.2-0.2-0.3-0.3-0.3
		c-0.6-0.2-1.1-0.4-1.7-0.7c-0.1-0.1-0.3-0.1-0.4,0l-1.8,1.1l-1.6-1.6l1.1-1.8c0.1-0.1,0.1-0.3,0-0.4c-0.3-0.5-0.5-1.1-0.7-1.7
		c0-0.2-0.2-0.3-0.3-0.3l-2-0.5v-2.2l2-0.5c0.2,0,0.3-0.2,0.3-0.3c0.2-0.6,0.4-1.1,0.7-1.7c0.1-0.1,0.1-0.3,0-0.4l-1.1-1.8l1.6-1.6
		l0.9,0.5c0,0.2-0.1,0.4-0.1,0.7l0,0c0,0,0,0,0,0c0,0,0,0,0,0c0,0,0,0,0,0c0,0,0,0,0,0c0,0,0,0,0,0c0,0.5,11.2,7.5,11,7.5
		c-0.2-0.1-0.5,0.1-0.5,0.3c-0.8,2.4-3,4-5.5,4c-3.2,0-5.8-2.6-5.8-5.8c0-1.4,0.5-2.7,1.4-3.7c0.1,0.2,0.3,0.5,0.4,0.7
		c-0.7,0.9-1,1.9-1,3c0,1.2,0.4,2.3,1.2,3.2c0.6,0.7,1.3,1.2,2.2,1.5c0,0,1.4,0.3,1.6,0.3c0,0,0.1,0,0.1,0c0.5,0,1.5-0.3,1.5-0.3
		c0.8-0.3,3.4-9.6,3.4-10.7c0,0,0,0,0,0c0,0,0,0,0,0c0,0,0,0,0,0c0,0,0,0,0,0c0,0,0,0,0,0c0,0,0,0,0,0c0,0,0,0,0,0
		c0-0.2,0-0.5-0.1-0.7l0.9-0.5l1.6,1.6l-1.1,1.8c-0.1,0.1-0.1,0.3,0,0.4c0.3,0.5,0.5,1.1,0.7,1.7c0,0.2,0.2,0.3,0.3,0.3l2,0.5v2.2h0
		L28.4,16.1z"/>
	<g>
		<polygon points="19.1,4.4 21.4,3 23.7,4.4 23.7,7 21.4,8.4 19.1,7 19.1,4.4 		"/>
		<path d="M17.3,8C17.3,8,17.3,8,17.3,8C17.3,7.9,17.3,7.9,17.3,8C17.3,7.9,17.3,7.9,17.3,8c0-0.3,0-0.6,0.1-0.9c0,0,0,0,0,0
			c0.1-0.6,0.4-1.2,0.8-1.6v1.9c0,0,0,0,0,0.1c0,0.1,0.1,0.2,0.2,0.3c0,0,0,0,0,0l2.7,1.6c0,0,0,0,0,0c0.1,0.1,0.2,0.1,0.4,0
			c0,0,0,0,0,0l2.7-1.6c0.1-0.1,0.2-0.2,0.2-0.4V5.4c0.4,0.5,0.7,1,0.8,1.6c0,0,0,0,0,0c0.1,0.3,0.1,0.6,0.1,0.8c0,0,0,0,0,0
			c0,0,0,0,0,0c0,0,0,0,0,0c0,0,0,0,0,0c0,1-0.4,1.9-1,2.7c-0.5,0.5-1.1,1-1.8,1.2c-0.2,0.1-0.3,0.2-0.3,0.4c0,0,0,0,0,0v5.6
			c-0.2,0-0.4,0.1-0.6,0.1v-4c0-0.2-0.2-0.4-0.4-0.4c-0.2,0-0.4,0.2-0.4,0.4v4c-0.2,0-0.4-0.1-0.6-0.1v-5.6c0,0,0,0,0,0c0,0,0,0,0,0
			c0,0,0,0,0,0c0,0,0,0,0,0c0,0,0-0.1,0-0.1c0,0,0,0,0,0c0,0,0,0,0-0.1c0-0.1-0.1-0.2-0.3-0.3c-0.3-0.1-0.5-0.2-0.8-0.4c0,0,0,0,0,0
			c0,0,0,0,0,0c-0.4-0.2-0.7-0.5-1-0.8C17.7,9.9,17.3,9,17.3,8C17.3,8,17.3,8,17.3,8z"/>
		<path d="M24.8,11.6c0.5,0.7,0.7,1.5,0.7,2.4c0,1-0.4,1.9-1,2.7c-0.3,0.4-0.8,0.7-1.2,1v-5.1c0,0,0,0,0,0c0,0,0,0,0,0c0,0,0,0,0,0
			c0,0,0,0,0,0c0,0,0,0,0,0c0,0,0,0,0,0c0,0,0,0,0,0c0,0,0,0,0,0c0,0,0,0,0,0c0,0,0,0,0,0c0,0,0,0,0,0c0,0,0,0,0,0c0,0,0,0,0,0
			c0,0,0,0,0,0c0,0,0,0,0,0c0,0,0,0,0,0c0,0,0,0,0,0c0,0,0,0,0,0c0,0,0,0,0,0c0,0,0,0,0,0c0,0,0,0,0,0c0,0,0,0,0,0c0,0,0,0,0,0
			c0,0,0,0,0,0c0,0,0,0,0,0c0,0,0,0,0,0c0,0,0,0,0,0c0,0,0,0,0,0c0,0,0,0,0,0c0,0,0,0,0,0c0,0,0,0,0,0c0,0,0,0,0,0c0,0,0,0,0,0
			c0,0,0,0,0,0c0,0,0,0,0,0c0,0,0,0,0,0c0,0,0,0,0,0c0,0,0,0,0,0c0,0,0,0,0,0c0,0,0,0,0,0c0,0,0,0,0,0c0,0,0,0,0,0c0,0,0,0,0,0
			c0,0,0,0,0,0c0,0,0,0,0,0c0,0,0,0,0,0c0,0,0,0,0,0c0,0,0,0,0,0c0,0,0,0,0.1,0c0,0,0,0,0,0c0,0,0,0,0,0c0,0,0,0,0,0c0,0,0,0,0,0
			c0,0,0,0,0,0c0,0,0,0,0,0c0,0,0,0,0,0c0,0,0,0,0,0c0,0,0,0,0,0c0,0,0,0,0,0c0,0,0,0,0,0c0,0,0,0,0.1,0c0,0,0,0,0,0c0,0,0,0,0,0
			c0,0,0,0,0,0c0,0,0.1,0,0.1-0.1c0,0,0,0,0,0c0,0,0,0,0,0c0,0,0,0,0,0c0,0,0,0,0.1,0c0,0,0,0,0,0c0,0,0,0,0,0c0,0,0,0,0,0
			c0,0,0.1,0,0.1-0.1c0,0,0,0,0,0c0,0,0,0,0,0c0,0,0,0,0,0C24.7,11.7,24.7,11.7,24.8,11.6C24.7,11.7,24.7,11.7,24.8,11.6
			C24.7,11.7,24.7,11.7,24.8,11.6C24.7,11.7,24.7,11.7,24.8,11.6C24.7,11.6,24.7,11.6,24.8,11.6L24.8,11.6
			C24.8,11.6,24.8,11.6,24.8,11.6C24.8,11.6,24.8,11.6,24.8,11.6z"/>
		<path d="M19.5,12.6v5.1c-0.5-0.2-0.9-0.6-1.2-1c-0.6-0.7-1-1.7-1-2.7c0-0.8,0.3-1.7,0.7-2.4c0,0,0,0,0,0c0,0,0,0,0,0c0,0,0,0,0,0
			c0,0,0,0,0,0c0,0,0,0,0,0c0,0,0,0,0,0c0,0,0,0,0,0c0,0,0,0,0,0c0,0,0,0,0,0c0,0,0,0,0,0c0,0,0,0,0,0c0,0,0,0,0,0c0,0,0,0,0,0
			c0,0,0,0,0,0c0,0,0,0,0,0c0,0,0,0,0,0c0,0,0,0,0,0c0,0,0,0,0,0c0,0,0,0,0,0c0,0,0,0,0,0c0,0,0,0,0,0c0,0,0,0,0,0c0,0,0,0,0,0
			c0,0,0,0,0,0c0,0,0,0,0,0c0,0,0,0,0,0c0,0,0,0,0,0c0,0,0,0,0,0c0,0,0,0,0,0c0,0,0,0,0,0c0,0,0,0,0,0c0,0,0,0,0,0c0,0,0,0,0,0
			c0,0,0,0,0,0c0,0,0,0,0,0c0,0,0,0,0,0c0,0,0,0,0,0c0,0,0,0,0,0c0,0,0,0,0,0c0,0,0,0,0,0c0,0,0,0,0,0c0,0,0,0,0,0c0,0,0,0,0,0
			c0,0,0,0,0,0c0,0,0,0,0,0c0,0,0,0,0,0c0,0,0,0,0,0c0,0,0,0,0,0c0,0,0,0,0,0c0,0,0,0,0,0c0,0,0,0,0,0c0,0,0,0,0,0c0,0,0,0,0,0
			c0,0,0,0,0,0c0,0,0,0,0,0c0,0,0,0,0,0c0,0,0,0,0,0c0,0,0,0,0,0c0,0,0,0,0,0c0,0,0,0,0,0c0,0,0,0,0,0c0,0,0,0,0,0c0,0,0,0,0,0
			c0,0,0,0,0,0c0,0,0,0,0,0c0,0,0,0,0,0c0,0,0,0,0,0c0,0,0,0,0,0c0,0,0,0,0,0c0,0,0,0,0,0c0,0,0,0,0,0c0,0,0,0,0,0c0,0,0,0,0,0
			c0,0,0,0,0,0c0,0,0,0,0,0c0,0,0,0,0,0c0,0,0,0,0,0c0,0,0,0,0,0c0,0,0,0,0,0c0,0,0,0,0,0c0,0,0,0,0,0c0,0,0,0,0,0c0,0,0,0,0,0
			c0,0,0,0,0,0c0,0,0,0,0,0c0,0,0,0,0,0c0,0,0,0,0,0c0,0,0,0,0,0c0,0,0,0,0,0c0,0,0,0,0,0c0,0,0,0,0,0
			C19.4,12.5,19.4,12.5,19.5,12.6C19.5,12.5,19.5,12.5,19.5,12.6C19.5,12.5,19.5,12.5,19.5,12.6C19.5,12.5,19.5,12.5,19.5,12.6
			C19.5,12.5,19.5,12.5,19.5,12.6C19.5,12.5,19.5,12.6,19.5,12.6z"/>
		<path d="M28.6,15.5c-0.2,0-0.3,0.2-0.3,0.3c-0.2,0.6-0.4,1.1-0.7,1.7c-0.1,0.1-0.1,0.3,0,0.4l1.1,1.8l-1.6,1.6l-1.8-1.1
			c-0.1-0.1-0.3-0.1-0.4,0c-0.5,0.3-1.1,0.5-1.7,0.7c-0.2,0-0.3,0.2-0.3,0.3l-0.5,2h-2.2l-0.5-2c0-0.2-0.2-0.3-0.3-0.3
			c-0.6-0.2-1.1-0.4-1.7-0.7c-0.1-0.1-0.3-0.1-0.4,0l-1.8,1.1l-1.6-1.6l1.1-1.8c0.1-0.1,0.1-0.3,0-0.4c-0.3-0.5-0.5-1.1-0.7-1.7
			c0-0.2-0.2-0.3-0.3-0.3l-2-0.5v-2.2l2-0.5c0.2,0,0.3-0.2,0.3-0.3c0.2-0.6,0.4-1.1,0.7-1.7c0.1-0.1,0.1-0.3,0-0.4l-1.1-1.8l1.6-1.6
			l0.9,0.5c0,0.2-0.1,0.4-0.1,0.7l0,0c0,0,0,0,0,0c0,0,0,0,0,0c0,0,0,0,0,0c0,0,0,0,0,0c0,0,0,0,0,0c0,0,0,0,0,0
			c0,0.5,0.1,0.9,0.2,1.4c-1.2,1.2-1.9,2.9-1.9,4.6c0,3.6,3,6.6,6.6,6.6c1.4,0,2.8-0.4,3.9-1.3c1.1-0.8,1.9-2,2.4-3.3
			c0.1-0.2-0.1-0.5-0.3-0.5s-0.5,0.1-0.5,0.3c-0.8,2.4-3,4-5.5,4c-3.2,0-5.8-2.6-5.8-5.8c0-1.4,0.5-2.7,1.4-3.7
			c0.1,0.2,0.3,0.5,0.4,0.7c-0.7,0.9-1,1.9-1,3c0,1.2,0.4,2.3,1.2,3.2c0.6,0.7,1.3,1.2,2.2,1.5c0,0,0,0,0,0c0.4,0.1,0.7,0.2,1.1,0.2
			c0.2,0,0.3,0,0.5,0c0,0,0.1,0,0.1,0c0.5,0,1-0.1,1.5-0.3c0,0,0,0,0,0c0.8-0.3,1.6-0.8,2.2-1.5c0.8-0.9,1.2-2.1,1.2-3.2
			c0-1.1-0.4-2.1-1-3c0.6-0.9,1-1.9,1-3c0,0,0,0,0,0c0,0,0,0,0,0c0,0,0,0,0,0c0,0,0,0,0,0c0,0,0,0,0,0c0,0,0,0,0,0c0,0,0,0,0,0
			c0-0.2,0-0.5-0.1-0.7l0.9-0.5l1.6,1.6L27.6,10c-0.1,0.1-0.1,0.3,0,0.4c0.3,0.5,0.5,1.1,0.7,1.7c0,0.2,0.2,0.3,0.3,0.3l2,0.5v2.2h0
			L28.6,15.5z"/>
	</g>
</g>
</svg>
