<?xml version="1.0" encoding="utf-8"?>
<!-- Generator: Adobe Illustrator 24.0.2, SVG Export Plug-In . SVG Version: 6.00 Build 0)  -->
<svg version="1.1" id="Layer_1" xmlns="http://www.w3.org/2000/svg" xmlns:xlink="http://www.w3.org/1999/xlink" x="0px" y="0px"
	 viewBox="0 0 42.3 42.3" style="enable-background:new 0 0 42.3 42.3;" xml:space="preserve">
<style type="text/css">
	.st0{fill:#FC6A55;}
	.st1{stroke:#FFFFFF;stroke-width:0.25;stroke-miterlimit:10;}
	.st2{fill:#656D7A;}
	.st3{fill:#FFFFFF;}
	.st4{filter:url(#Adobe_OpacityMaskFilter);}
	.st5{fill-rule:evenodd;clip-rule:evenodd;fill:#FFFFFF;}
	.st6{mask:url(#mask-2_8_);fill-rule:evenodd;clip-rule:evenodd;}
	.st7{filter:url(#Adobe_OpacityMaskFilter_1_);}
	.st8{mask:url(#mask-2_7_);fill-rule:evenodd;clip-rule:evenodd;}
	.st9{filter:url(#Adobe_OpacityMaskFilter_2_);}
	.st10{mask:url(#mask-2_6_);fill-rule:evenodd;clip-rule:evenodd;}
	.st11{filter:url(#Adobe_OpacityMaskFilter_3_);}
	.st12{mask:url(#mask-2_5_);fill-rule:evenodd;clip-rule:evenodd;}
	.st13{filter:url(#Adobe_OpacityMaskFilter_4_);}
	.st14{mask:url(#mask-2_2_);fill:none;stroke:#000000;stroke-width:2;}
</style>
<g>
	<path d="M1.5,42.1h4.2c0.8,0,1.4-0.6,1.4-1.4v-1.4h15.8c3.5,0,7-1,9.9-2.8c4.5-2.8,7.6-7.4,8.5-12.6l0.3-1.7
		c0.1-0.8-0.1-1.6-0.6-2.2c-0.5-0.6-1.2-0.9-2-0.9c-0.4,0-0.8,0.1-1.2,0.3v-3.1h0.7c0.3,0,0.5-0.2,0.6-0.4c0.1-0.3,0-0.6-0.2-0.8
		l-5.6-5.6c-0.3-0.3-0.7-0.3-1,0L30.9,11V1.5c0-0.4-0.3-0.7-0.7-0.7h-7c-0.4,0-0.7,0.3-0.7,0.7v7.7h-2.8c-0.5-1.2-0.9-1.9-1.2-2.3
		l1.8-4.3c0.2-0.5,0.1-1-0.3-1.4c-0.4-0.4-0.9-0.4-1.4-0.2l-1.3,0.7l-0.8-1.1c-0.2-0.3-0.5-0.5-0.9-0.5c-0.4,0-0.7,0.1-0.9,0.4
		l-1.1,1.1l-0.7-0.9c-0.2-0.3-0.5-0.5-0.9-0.5c-0.4,0-0.7,0.1-0.9,0.4L9.6,1.9l-2-0.6c-0.5-0.1-1,0-1.3,0.4C6,2.1,6,2.6,6.2,3
		l2.1,3.9C6.8,8.3,5,12.1,5,15.5v2.1c0,2.3,1.9,4.2,4.2,4.2h7.7h6.3h5.6h7.3l-1.5,3l-3.8,1.6c-0.4-1.4-1.8-2.5-3.3-2.5H17.3
		c-3.6,0-7.1,1-10.2,2.9v-1.5c0-0.8-0.6-1.4-1.4-1.4H1.5c-0.8,0-1.4,0.6-1.4,1.4v15.4C0.1,41.5,0.8,42.1,1.5,42.1L1.5,42.1z
		 M9.3,3.2c0.4,0.1,0.9,0,1.2-0.3l1.3-1.3l0.7,0.9C12.7,2.9,13,3,13.4,3.1c0.4,0,0.7-0.1,0.9-0.4l1.1-1.1l0.8,1.1
		c0.4,0.5,1,0.6,1.5,0.4l1-0.5l-1.6,3.9h-1.9l0.9-1.8L14.9,4l-1.2,2.4h-1.2l-1-2L10.2,5l0.7,1.4H9.6l-2-3.7L9.3,3.2z M16.2,9.9v10.5
		h-7c-1.5,0-2.8-1.3-2.8-2.8v-2.1c0-3.7,2.3-7.2,3-7.7h7.9c0.1,0.1,0.4,0.5,0.8,1.4h-1.2C16.5,9.2,16.2,9.5,16.2,9.9L16.2,9.9z
		 M17.6,10.6h4.9v9.8h-4.9V10.6z M33,10.9l3.9,3.9h-7.8L33,10.9z M23.9,2.2h5.6v10.2L26.9,15c-0.2,0.2-0.3,0.5-0.2,0.8
		c0.1,0.3,0.4,0.4,0.6,0.4h0.7v4.2h-4.2V2.2z M29.5,16.2h7v4.2h-1.4v-2.8c0-0.4-0.3-0.7-0.7-0.7h-2.8c-0.4,0-0.7,0.3-0.7,0.7v2.8
		h-1.4V16.2z M33.7,20.4h-1.4v-2.1h1.4V20.4z M17.3,25.3h10.1c1.2,0,2.1,0.9,2.1,2.1c0,1.2-0.9,2.1-2.1,2.1H16.2v1.4h11.2
		c1.8,0,3.2-1.3,3.5-3l4.5-1.9c0.2-0.1,0.3-0.2,0.4-0.3l2.3-4.5c0.2-0.4,0.6-0.7,1.1-0.7c0.4,0,0.7,0.2,0.9,0.4s0.3,0.6,0.3,1
		L40,23.6c-0.9,4.8-3.7,9.1-7.9,11.7c-2.8,1.7-5.9,2.6-9.2,2.6H7.1v-9.4C10.1,26.4,13.7,25.3,17.3,25.3L17.3,25.3z M1.5,25.3h4.2
		l0,15.4H1.5L1.5,25.3z"/>
	<path d="M2.9,27.4h1.4v2.1H2.9V27.4z"/>
	<path d="M25.3,3.6H26V5h-0.7V3.6z"/>
	<path d="M27.4,3.6h0.7V5h-0.7V3.6z"/>
	<path d="M25.3,6.4H26v1.4h-0.7V6.4z"/>
	<path d="M27.4,6.4h0.7v1.4h-0.7V6.4z"/>
	<path d="M25.3,9.2H26v1.4h-0.7V9.2z"/>
	<path d="M27.4,9.2h0.7v1.4h-0.7V9.2z"/>
	<path d="M19,12h0.7v1.4H19V12z"/>
	<path d="M21.1,12h0.7v1.4h-0.7V12z"/>
	<path d="M19,14.8h0.7v1.4H19V14.8z"/>
	<path d="M21.1,14.8h0.7v1.4h-0.7V14.8z"/>
	<path d="M19,17.6h0.7V19H19V17.6z"/>
	<path d="M21.1,17.6h0.7V19h-0.7V17.6z"/>
	<path d="M25.3,12H26v1.4h-0.7V12z"/>
	<path d="M27.4,12h0.7v1.4h-0.7V12z"/>
	<path d="M14.1,11.3h-0.7v-0.7H12v0.7h-0.7c-0.4,0-0.7,0.3-0.7,0.7v2.1c0,0.4,0.3,0.7,0.7,0.7h2.1v0.7h-2.8v0.7
		c0,0.4,0.3,0.7,0.7,0.7H12v0.7h1.4v-0.7h0.7c0.4,0,0.7-0.3,0.7-0.7v-2.1c0-0.4-0.3-0.7-0.7-0.7H12v-0.7h2.8V12
		C14.8,11.6,14.5,11.3,14.1,11.3z"/>
	<path d="M35.8,1.5h1.4v1.4h-1.4V1.5z"/>
	<path d="M37.2,0.1h1.4v1.4h-1.4V0.1z"/>
	<path d="M38.6,1.5H40v1.4h-1.4V1.5z"/>
	<path d="M37.2,2.9h1.4v1.4h-1.4V2.9z"/>
	<path d="M40.7,5h1.4v1.4h-1.4V5z"/>
	<path d="M35.8,7.1h1.4v1.4h-1.4V7.1z"/>
	<path d="M0.1,6.4h1.4v1.4H0.1V6.4z"/>
	<path d="M1.5,5h1.4v1.4H1.5V5z"/>
	<path d="M2.9,6.4h1.4v1.4H2.9V6.4z"/>
	<path d="M1.5,7.8h1.4v1.4H1.5V7.8z"/>
	<path d="M0.1,12h1.4v1.4H0.1V12z"/>
	<path d="M2.9,0.1h1.4v1.4H2.9V0.1z"/>
</g>
</svg>
