<?xml version="1.0" encoding="utf-8"?>
<!-- Generator: Adobe Illustrator 24.0.2, SVG Export Plug-In . SVG Version: 6.00 Build 0)  -->
<svg version="1.1" id="Layer_1" xmlns="http://www.w3.org/2000/svg" xmlns:xlink="http://www.w3.org/1999/xlink" x="0px" y="0px"
	 viewBox="0 0 42.3 42.3" style="enable-background:new 0 0 42.3 42.3;" xml:space="preserve">
<style type="text/css">
	.st0{fill:#FC6A55;}
	.st1{stroke:#FFFFFF;stroke-width:0.25;stroke-miterlimit:10;}
	.st2{fill:#656D7A;}
	.st3{fill:#FFFFFF;}
	.st4{filter:url(#Adobe_OpacityMaskFilter);}
	.st5{fill-rule:evenodd;clip-rule:evenodd;fill:#FFFFFF;}
	.st6{mask:url(#mask-2_8_);fill-rule:evenodd;clip-rule:evenodd;}
	.st7{filter:url(#Adobe_OpacityMaskFilter_1_);}
	.st8{mask:url(#mask-2_7_);fill-rule:evenodd;clip-rule:evenodd;}
	.st9{filter:url(#Adobe_OpacityMaskFilter_2_);}
	.st10{mask:url(#mask-2_6_);fill-rule:evenodd;clip-rule:evenodd;}
	.st11{filter:url(#Adobe_OpacityMaskFilter_3_);}
	.st12{mask:url(#mask-2_5_);fill-rule:evenodd;clip-rule:evenodd;}
	.st13{filter:url(#Adobe_OpacityMaskFilter_4_);}
	.st14{mask:url(#mask-2_2_);fill:none;stroke:#000000;stroke-width:2;}
</style>
<g>
	<g>
		<g>
			<rect x="30.1" y="14.8" width="1.1" height="1.3"/>
		</g>
	</g>
	<g>
		<g>
			<rect x="32.7" y="14.8" width="1.1" height="1.3"/>
		</g>
	</g>
	<g>
		<g>
			<g>
				<polygon points="32.6,20 32.6,25 33.1,25 33.1,20.4 33.6,20.4 33.6,20 				"/>
			</g>
		</g>
		<g>
			<g>
				<polygon points="34.3,20 34.3,25 34.8,25 34.8,20.4 35.3,20.4 35.3,20 				"/>
			</g>
		</g>
		<g>
			<g>
				<polygon points="36,20 36,25 36.5,25 36.5,20.4 36.9,20.4 36.9,20 				"/>
			</g>
		</g>
		<g>
			<g>
				<polygon points="37.6,20 37.6,25 38.1,25 38.1,20.4 38.6,20.4 38.6,20 				"/>
			</g>
		</g>
		<g>
			<g>
				<rect x="32.9" y="25.9" width="0.7" height="0.4"/>
			</g>
		</g>
		<g>
			<g>
				<g>
					<rect x="32.1" y="12.4" transform="matrix(2.048460e-03 -1 1 2.048460e-03 12.9133 51.5062)" width="0.4" height="13.8"/>
				</g>
			</g>
			<g>
				<g>
					<polygon points="26.6,20.4 26.6,24.8 27,24.8 27,20.7 27.5,20.7 27.5,20.4 					"/>
				</g>
			</g>
			<g>
				<g>
					<polygon points="28.1,20.4 28.1,24.8 28.5,24.8 28.5,20.7 29,20.7 29,20.4 					"/>
				</g>
			</g>
			<g>
				<g>
					<polygon points="29.6,20.4 29.6,24.8 30.1,24.8 30.1,20.7 30.4,20.7 30.4,20.4 					"/>
				</g>
			</g>
			<g>
				<g>
					<polygon points="31.1,20.4 31.1,24.8 31.6,24.8 31.6,20.7 31.9,20.7 31.9,20.4 					"/>
				</g>
			</g>
			<g>
				<g>
					<path d="M39.2,25.2v-5.5H25.3v5.5h-0.4v1.4h1.5c0,0.5,0.5,0.9,1.1,0.9c0.3,0,0.7-0.1,0.9-0.3c0.2,0.2,0.5,0.3,0.9,0.3
						c0.6,0,1.1-0.4,1.1-0.9h4c0,0.5,0.5,0.9,1.1,0.9c0.3,0,0.7-0.1,0.9-0.3c0.2,0.2,0.5,0.3,0.9,0.3c0.6,0,1.1-0.4,1.1-0.9h1.5
						v-1.4H39.2z M25.8,20h13v5.1h-13V20z M27.5,27.1c-0.3,0-0.6-0.2-0.6-0.5c0-0.3,0.3-0.5,0.6-0.5c0.3,0,0.6,0.2,0.6,0.5
						C28.1,26.9,27.8,27.1,27.5,27.1z M29.2,27.1c-0.3,0-0.6-0.2-0.6-0.5c0-0.3,0.3-0.5,0.6-0.5c0.3,0,0.6,0.2,0.6,0.5
						C29.8,26.9,29.5,27.1,29.2,27.1z M35.4,27.1c-0.3,0-0.6-0.2-0.6-0.5c0-0.3,0.3-0.5,0.6-0.5c0.3,0,0.6,0.2,0.6,0.5
						C36,26.9,35.7,27.1,35.4,27.1z M37.1,27.1c-0.3,0-0.6-0.2-0.6-0.5c0-0.3,0.3-0.5,0.6-0.5c0.3,0,0.6,0.2,0.6,0.5
						C37.7,26.9,37.4,27.1,37.1,27.1z M39.2,25.7h-0.4v0.4h0.4v0.1H38c-0.2-0.3-0.5-0.5-1-0.5c-0.3,0-0.7,0.1-0.9,0.3
						c-0.2-0.2-0.5-0.3-0.9-0.3c-0.4,0-0.8,0.2-1,0.5h-4.2c-0.2-0.3-0.5-0.5-1-0.5c-0.3,0-0.7,0.1-0.9,0.3c-0.2-0.2-0.5-0.3-0.9-0.3
						c-0.4,0-0.8,0.2-1,0.5h-1.1v-0.1h0.8v-0.4h-0.8v-0.1h13.8V25.7z"/>
				</g>
			</g>
			<g>
				<g>
					<rect x="27.3" y="26.4" width="0.4" height="0.4"/>
				</g>
			</g>
			<g>
				<g>
					<rect x="29" y="26.4" width="0.4" height="0.4"/>
				</g>
			</g>
			<g>
				<g>
					<rect x="31.9" y="25.7" width="0.7" height="0.4"/>
				</g>
			</g>
			<g>
				<g>
					<rect x="31.1" y="25.7" width="0.6" height="0.4"/>
				</g>
			</g>
		</g>
	</g>
	<g>
		<path d="M35.7,11.3l4.1-2l-4.1-2V8h-5.9v0.6h6.5V8.2l2.1,1l-2.1,1V9.9h-9v0.6h8.4V11.3z"/>
		<path d="M28.6,8h0.6v0.6h-0.6V8z"/>
		<path d="M27.4,8H28v0.6h-0.6V8z"/>
	</g>
	<g>
		<path d="M31.5,31l-4.1,2l4.1,2v-0.8h5.9v-0.6h-6.5v0.4l-2.1-1l2.1-1v0.4h9v-0.6h-8.4V31z"/>
		<path d="M38.6,34.2H38v-0.6h0.6V34.2z"/>
		<path d="M39.8,34.2h-0.6v-0.6h0.6V34.2z"/>
	</g>
	<path d="M40.1,12.3h-4.7h-6.8H24c-2.6-3-6.3-4.7-10.3-4.7c-7.5,0-13.5,6.1-13.5,13.5s6.1,13.5,13.5,13.5c4,0,7.7-1.7,10.3-4.7h16.1
		c1.1,0,2-0.9,2-2V14.3C42.1,13.2,41.2,12.3,40.1,12.3z M34.8,13.7v3.5h-5.6v-3.5H34.8z M22.6,12.8c-0.3,0.2-0.5,0.5-0.6,0.9h-3.7
		c-0.5-1.8-1.1-3.4-1.9-4.4C18.7,9.8,20.9,11,22.6,12.8z M21.8,27.2h-3.3c0.3-1.7,0.5-3.6,0.5-5.4h2.7V27.2z M13.7,33.3
		c-1.1,0-2.4-1.8-3.2-4.7h6.3C16,31.5,14.8,33.3,13.7,33.3z M10.2,27.2c-0.3-1.6-0.5-3.4-0.6-5.4h8.1c0,2-0.2,3.8-0.6,5.4H10.2z
		 M1.5,21.8h6.7c0,1.8,0.2,3.7,0.5,5.4H3.1C2.2,25.6,1.6,23.8,1.5,21.8z M13.7,8.9c1.1,0,2.4,1.8,3.2,4.7h-6.3
		C11.3,10.7,12.5,8.9,13.7,8.9z M17.2,15c0.3,1.6,0.5,3.4,0.6,5.4H9.6c0-2,0.2-3.8,0.6-5.4H17.2z M8.3,20.4H1.5
		c0.1-2,0.7-3.8,1.6-5.4h5.7C8.5,16.7,8.3,18.6,8.3,20.4z M21.8,20.4h-2.7c0-1.8-0.2-3.7-0.5-5.4h3.3V20.4z M11,9.2
		c-0.8,1.1-1.4,2.6-1.9,4.4H4C5.7,11.5,8.2,9.9,11,9.2z M4,28.6h5.1c0.4,1.8,1.1,3.3,1.9,4.4C8.2,32.4,5.7,30.8,4,28.6z M16.4,33
		c0.8-1.1,1.4-2.6,1.9-4.4h3.7c0.1,0.4,0.3,0.7,0.6,0.9C20.9,31.2,18.7,32.5,16.4,33z M40.8,27.9c0,0.4-0.3,0.7-0.7,0.7H23.8
		c-0.4,0-0.7-0.3-0.7-0.7V14.3c0-0.4,0.3-0.7,0.7-0.7h4.7v4.1h6.8v-4.1h4.7c0.4,0,0.7,0.3,0.7,0.7V27.9z"/>
</g>
</svg>
