<?xml version="1.0" encoding="utf-8"?>
<!-- Generator: Adobe Illustrator 24.1.1, SVG Export Plug-In . SVG Version: 6.00 Build 0)  -->
<svg version="1.1" id="Layer_1" xmlns="http://www.w3.org/2000/svg" xmlns:xlink="http://www.w3.org/1999/xlink" x="0px" y="0px"
	 viewBox="0 0 23 23" style="enable-background:new 0 0 23 23;" xml:space="preserve">
<style type="text/css">
	.st0{fill:#FC6A55;}
	.st1{fill:#EDEDED;}
	.st2{fill:none;stroke:#FC6A55;stroke-miterlimit:10;}
	.st3{fill:#222F3F;}
	.st4{fill:#383838;}
	.st5{fill:#FFFFFF;}
	.st6{fill:#656D7A;}
	.st7{fill:#C4C4C4;}
	.st8{filter:url(#Adobe_OpacityMaskFilter);}
	.st9{fill-rule:evenodd;clip-rule:evenodd;fill:#FFFFFF;}
	.st10{mask:url(#mask-2_8_);fill-rule:evenodd;clip-rule:evenodd;fill:#FFFFFF;}
	.st11{filter:url(#Adobe_OpacityMaskFilter_1_);}
	.st12{mask:url(#mask-2_7_);fill-rule:evenodd;clip-rule:evenodd;fill:#FFFFFF;}
	.st13{filter:url(#Adobe_OpacityMaskFilter_2_);}
	.st14{mask:url(#mask-2_6_);fill-rule:evenodd;clip-rule:evenodd;fill:#FFFFFF;}
	.st15{filter:url(#Adobe_OpacityMaskFilter_3_);}
	.st16{mask:url(#mask-2_5_);fill-rule:evenodd;clip-rule:evenodd;fill:#FFFFFF;}
	.st17{filter:url(#Adobe_OpacityMaskFilter_4_);}
	.st18{mask:url(#mask-2_2_);fill:none;stroke:#FFFFFF;stroke-width:1.5;stroke-miterlimit:10;}
	.st19{fill:#B4A3EE;}
	.st20{fill:#434343;}
	.st21{fill:#434343;stroke:#F9F9F9;stroke-width:0.25;stroke-miterlimit:10;}
	.st22{fill:none;stroke:#FC6A55;stroke-width:0.75;stroke-miterlimit:10;}
	.st23{fill:#FC6A55;stroke:#FC6A55;stroke-width:0.25;stroke-miterlimit:10;}
	.st24{fill:#FC6A55;stroke:#FC6A55;stroke-width:0.5;stroke-miterlimit:10;}
	.st25{opacity:0.153;fill:url(#Path_44_);enable-background:new    ;}
	.st26{opacity:0.1;fill:#590BB2;enable-background:new    ;}
	.st27{fill:#8E8CA8;}
	.st28{fill:#F5F4F9;}
	.st29{fill:#FFD5B8;}
	.st30{fill:#FC8473;}
	.st31{fill:#1C3475;}
	.st32{fill:#DDD9E4;}
	.st33{fill:#828FB3;}
	.st34{opacity:7.584635e-02;fill:url(#Path_45_);enable-background:new    ;}
	.st35{fill:#FFBE92;}
	.st36{fill:#FB8E7F;}
	.st37{fill:#FDB1A6;}
	.st38{fill:#FC806F;}
	.st39{fill:#FFE783;}
	.st40{fill:#104478;}
	.st41{fill:none;stroke:#FFFFFF;stroke-miterlimit:10;}
	.st42{fill:none;stroke:#000000;stroke-width:0.15;stroke-miterlimit:10;}
	.st43{opacity:0.1;fill:url(#Path_46_);enable-background:new    ;}
	.st44{opacity:0.1;fill:url(#Path_47_);enable-background:new    ;}
	.st45{fill-rule:evenodd;clip-rule:evenodd;fill:#FC6A55;}
	.st46{fill-rule:evenodd;clip-rule:evenodd;}
	.st47{fill:#FF6757;}
	.st48{fill:#6C973D;}
	.st49{fill:none;stroke:#FFFFFF;stroke-width:0.5;stroke-miterlimit:10;}
	.st50{fill:#606060;}
	.st51{fill:#F16A56;}
	.st52{fill:#515252;}
	.st53{fill:#656565;}
	.st54{fill:#F26A56;}
	.st55{fill:none;stroke:#F16A56;stroke-miterlimit:10;}
	.st56{fill:none;stroke:#929292;stroke-miterlimit:10;}
	.st57{fill:#929292;}
	.st58{fill:none;stroke:#000000;stroke-width:0.5;stroke-miterlimit:10;}
	.st59{fill:#A8A7A7;}
	.st60{fill:#F79F91;}
	.st61{fill:#9BDBD5;}
	.st62{fill:#222121;}
	.st63{stroke:#000000;stroke-width:0.25;stroke-miterlimit:10;}
</style>
<g>
	<path d="M22.7,5C22.8,5,23,4.8,23,4.7V3.4C23,2.1,22,1,20.7,1H7.3C6.1,1,5,2.1,5,3.4v1.9H3.7c-0.2,0-0.3,0.2-0.3,0.3S3.5,6,3.7,6H5
		v2.9H2.2C2,8.9,1.9,9,1.9,9.2c0,0.2,0.2,0.3,0.3,0.3H5v1.5H2.2c-0.2,0-0.3,0.2-0.3,0.3s0.2,0.3,0.3,0.3H5v1.5H2.2
		c-0.2,0-0.3,0.2-0.3,0.3S2,14,2.2,14H5v1.5H2.2c-0.2,0-0.3,0.2-0.3,0.3s0.2,0.3,0.3,0.3H5v1.5H2.2c-0.2,0-0.3,0.2-0.3,0.3
		c0,0.2,0.2,0.3,0.3,0.3H5v0.7c0,1.2-1,2.2-2.2,2.2c-1.2,0-2.2-1-2.2-2.2V7.6C0.7,6.7,1.4,6,2.3,6c0.2,0,0.3-0.2,0.3-0.3
		S2.5,5.3,2.3,5.3C1,5.3,0,6.4,0,7.6v11.4C0,20.7,1.3,22,2.8,22h17.3c1.6,0,2.8-1.3,2.8-2.9V6c0-0.2-0.2-0.3-0.3-0.3
		S22.3,5.8,22.3,6v13.1c0,1.2-1,2.2-2.2,2.2H4.7c0.6-0.5,1-1.3,1-2.2V3.4c0-0.9,0.7-1.7,1.6-1.7h13.4c0.9,0,1.6,0.7,1.6,1.7v1.3
		C22.3,4.8,22.5,5,22.7,5L22.7,5z"/>
	<path d="M20.7,2.8H7.3C7.1,2.8,7,2.9,7,3.1c0,0.2,0.2,0.3,0.3,0.3h13.4c0.2,0,0.3-0.2,0.3-0.3C21,2.9,20.9,2.8,20.7,2.8z"/>
	<path d="M20.7,8.5H7.3C7.1,8.5,7,8.7,7,8.9C7,9,7.1,9.2,7.3,9.2h13.4C20.9,9.2,21,9,21,8.9C21,8.7,20.9,8.5,20.7,8.5z"/>
	<path d="M21,12.2c0-0.8-0.7-1.5-1.5-1.5h-3.5c-0.8,0-1.5,0.7-1.5,1.5v4.4c0,0.8,0.7,1.5,1.5,1.5h3.5c0.8,0,1.5-0.7,1.5-1.5L21,12.2
		z M20.3,16.5c0,0.4-0.4,0.8-0.8,0.8h-3.5c-0.4,0-0.8-0.4-0.8-0.8v-4.4c0-0.4,0.4-0.8,0.8-0.8h3.5c0.4,0,0.8,0.4,0.8,0.8L20.3,16.5z
		"/>
	<path d="M14.9,19.5c-0.2,0-0.3,0.2-0.3,0.3s0.2,0.3,0.3,0.3h5.7c0.2,0,0.3-0.2,0.3-0.3s-0.2-0.3-0.3-0.3H14.9z"/>
	<path d="M13.1,10.7H7.3c-0.2,0-0.3,0.2-0.3,0.3s0.2,0.3,0.3,0.3h5.7c0.2,0,0.3-0.2,0.3-0.3S13.3,10.7,13.1,10.7z"/>
	<path d="M13.1,12.9H7.3c-0.2,0-0.3,0.2-0.3,0.3c0,0.2,0.2,0.3,0.3,0.3h5.7c0.2,0,0.3-0.2,0.3-0.3C13.4,13.1,13.3,12.9,13.1,12.9z"
		/>
	<path d="M13.1,15.1H7.3c-0.2,0-0.3,0.2-0.3,0.3s0.2,0.3,0.3,0.3h5.7c0.2,0,0.3-0.2,0.3-0.3S13.3,15.1,13.1,15.1z"/>
	<path d="M13.1,17.3H7.3c-0.2,0-0.3,0.2-0.3,0.3C7,17.9,7.1,18,7.3,18h5.7c0.2,0,0.3-0.2,0.3-0.3C13.4,17.5,13.3,17.3,13.1,17.3z"/>
	<path d="M13.1,19.5H7.3c-0.2,0-0.3,0.2-0.3,0.3s0.2,0.3,0.3,0.3h5.7c0.2,0,0.3-0.2,0.3-0.3S13.3,19.5,13.1,19.5z"/>
	<path d="M7.5,4c-0.1,0-0.2,0.2-0.2,0.3v3.3C7.3,7.8,7.4,8,7.6,8C7.8,8,8,7.8,8,7.6V5.4l1.6,2.3C9.6,7.9,9.8,8,10,7.9
		c0.2-0.1,0.3-0.2,0.3-0.4l0-3.2C10.2,4.2,10,4,9.9,4c0,0,0,0,0,0C9.7,4,9.5,4.2,9.5,4.3l0,2.2L7.9,4.2C7.8,4,7.7,4,7.5,4L7.5,4z"/>
	<path d="M13,4.7c0.2,0,0.3-0.2,0.3-0.3S13.2,4,13,4h-1.4c-0.2,0-0.3,0.2-0.3,0.3v3.3c0,0.2,0.2,0.3,0.3,0.3H13
		c0.2,0,0.3-0.2,0.3-0.3S13.2,7.3,13,7.3h-1V6.3h0.9c0.2,0,0.3-0.2,0.3-0.3c0-0.2-0.2-0.3-0.3-0.3H12V4.7L13,4.7L13,4.7z"/>
	<path d="M19.5,7.3c-0.3,0-0.7-0.1-0.9-0.4c-0.1-0.1-0.3-0.2-0.5,0C18,7,18,7.2,18.1,7.4C18.5,7.7,19,8,19.5,8c0.6,0,1.2-0.4,1.3-1
		c0.1-0.4-0.1-1-0.9-1.3c-0.4-0.2-0.8-0.3-0.9-0.4c-0.1-0.1-0.1-0.2-0.1-0.3c0-0.1,0.1-0.2,0.3-0.3c0.5-0.2,0.9,0.2,1,0.2
		c0.1,0.1,0.4,0.1,0.5,0c0.1-0.1,0.1-0.4,0-0.5c0,0-0.7-0.6-1.6-0.4c-0.4,0.1-0.7,0.5-0.8,0.9c-0.1,0.4,0.1,0.8,0.4,1c0,0,0,0,0,0
		c0,0,0.5,0.2,1,0.4c0.3,0.1,0.5,0.3,0.5,0.5C20.1,7.1,19.8,7.3,19.5,7.3L19.5,7.3z"/>
	<path d="M14.3,7.7C14.4,7.9,14.6,8,14.7,8h0c0.2,0,0.3-0.1,0.4-0.3c0,0,0,0,0,0l0.7-2.2l0.7,2.2c0,0,0,0,0,0
		C16.5,7.9,16.7,8,16.8,8c0.2,0,0.3-0.1,0.4-0.3c0,0,0,0,0,0l0.6-3.2c0-0.2-0.1-0.4-0.3-0.4c-0.2,0-0.4,0.1-0.4,0.3l-0.4,2.2
		l-0.7-2.2c0-0.2-0.2-0.3-0.4-0.2c-0.1,0-0.3,0.1-0.3,0.3l-0.7,2.2l-0.4-2.2C14.3,4.1,14.1,4,14,4c-0.2,0-0.3,0.2-0.3,0.4L14.3,7.7
		C14.3,7.7,14.3,7.7,14.3,7.7L14.3,7.7z"/>
</g>
</svg>
