<?xml version="1.0" encoding="utf-8"?>
<!-- Generator: Adobe Illustrator 24.1.1, SVG Export Plug-In . SVG Version: 6.00 Build 0)  -->
<svg version="1.1" id="Layer_1" xmlns="http://www.w3.org/2000/svg" xmlns:xlink="http://www.w3.org/1999/xlink" x="0px" y="0px"
	 viewBox="0 0 23 23" style="enable-background:new 0 0 23 23;" xml:space="preserve">
<style type="text/css">
	.st0{fill:#FC6A55;}
	.st1{fill:#EDEDED;}
	.st2{fill:none;stroke:#FC6A55;stroke-miterlimit:10;}
	.st3{fill:#222F3F;}
	.st4{fill:#383838;}
	.st5{fill:#FFFFFF;}
	.st6{fill:#656D7A;}
	.st7{fill:#C4C4C4;}
	.st8{filter:url(#Adobe_OpacityMaskFilter);}
	.st9{fill-rule:evenodd;clip-rule:evenodd;fill:#FFFFFF;}
	.st10{mask:url(#mask-2_8_);fill-rule:evenodd;clip-rule:evenodd;fill:#FFFFFF;}
	.st11{filter:url(#Adobe_OpacityMaskFilter_1_);}
	.st12{mask:url(#mask-2_7_);fill-rule:evenodd;clip-rule:evenodd;fill:#FFFFFF;}
	.st13{filter:url(#Adobe_OpacityMaskFilter_2_);}
	.st14{mask:url(#mask-2_6_);fill-rule:evenodd;clip-rule:evenodd;fill:#FFFFFF;}
	.st15{filter:url(#Adobe_OpacityMaskFilter_3_);}
	.st16{mask:url(#mask-2_5_);fill-rule:evenodd;clip-rule:evenodd;fill:#FFFFFF;}
	.st17{filter:url(#Adobe_OpacityMaskFilter_4_);}
	.st18{mask:url(#mask-2_2_);fill:none;stroke:#FFFFFF;stroke-width:1.5;stroke-miterlimit:10;}
	.st19{fill:#B4A3EE;}
	.st20{fill:#434343;}
	.st21{fill:#434343;stroke:#F9F9F9;stroke-width:0.25;stroke-miterlimit:10;}
	.st22{fill:none;stroke:#FC6A55;stroke-width:0.75;stroke-miterlimit:10;}
	.st23{fill:#FC6A55;stroke:#FC6A55;stroke-width:0.25;stroke-miterlimit:10;}
	.st24{fill:#FC6A55;stroke:#FC6A55;stroke-width:0.5;stroke-miterlimit:10;}
	.st25{opacity:0.153;fill:url(#Path_44_);enable-background:new    ;}
	.st26{opacity:0.1;fill:#590BB2;enable-background:new    ;}
	.st27{fill:#8E8CA8;}
	.st28{fill:#F5F4F9;}
	.st29{fill:#FFD5B8;}
	.st30{fill:#FC8473;}
	.st31{fill:#1C3475;}
	.st32{fill:#DDD9E4;}
	.st33{fill:#828FB3;}
	.st34{opacity:7.584635e-02;fill:url(#Path_45_);enable-background:new    ;}
	.st35{fill:#FFBE92;}
	.st36{fill:#FB8E7F;}
	.st37{fill:#FDB1A6;}
	.st38{fill:#FC806F;}
	.st39{fill:#FFE783;}
	.st40{fill:#104478;}
	.st41{fill:none;stroke:#FFFFFF;stroke-miterlimit:10;}
	.st42{fill:none;stroke:#000000;stroke-width:0.15;stroke-miterlimit:10;}
	.st43{opacity:0.1;fill:url(#Path_46_);enable-background:new    ;}
	.st44{opacity:0.1;fill:url(#Path_47_);enable-background:new    ;}
	.st45{fill-rule:evenodd;clip-rule:evenodd;fill:#FC6A55;}
	.st46{fill-rule:evenodd;clip-rule:evenodd;}
	.st47{fill:#FF6757;}
	.st48{fill:#6C973D;}
	.st49{fill:none;stroke:#FFFFFF;stroke-width:0.5;stroke-miterlimit:10;}
	.st50{fill:#606060;}
	.st51{fill:#F16A56;}
	.st52{fill:#515252;}
	.st53{fill:#656565;}
	.st54{fill:#F26A56;}
	.st55{fill:none;stroke:#F16A56;stroke-miterlimit:10;}
	.st56{fill:none;stroke:#929292;stroke-miterlimit:10;}
	.st57{fill:#929292;}
	.st58{fill:none;stroke:#000000;stroke-width:0.5;stroke-miterlimit:10;}
	.st59{fill:#A8A7A7;}
	.st60{fill:#F79F91;}
	.st61{fill:#9BDBD5;}
	.st62{fill:#222121;}
	.st63{stroke:#000000;stroke-width:0.25;stroke-miterlimit:10;}
</style>
<g>
	<path d="M0.2,22.4c0.1,0,0.1,0,0.2,0c0.1,0,0.1,0,0.2,0l7.3-3.7l7.1,3.7c0.1,0.1,0.2,0.1,0.3,0l7.6-3.8c0.1-0.1,0.2-0.2,0.2-0.3
		V0.9c0-0.1-0.1-0.2-0.2-0.3c-0.1-0.1-0.2-0.1-0.3,0l-7.4,3.7L8,0.6c-0.1-0.1-0.2-0.1-0.3,0L0.2,4.4C0.1,4.4,0,4.6,0,4.7v17.4
		C0,22.2,0.1,22.4,0.2,22.4z M14.7,21.5l-6.5-3.4V1.5l6.5,3.4V21.5z M22.3,18.1l-6.9,3.5V4.9l6.9-3.5V18.1z M0.7,4.9l6.8-3.4v16.6
		l-6.8,3.5V4.9z"/>
	<path d="M16.8,8.4c0.1,0,0.1,0,0.2,0l4.2-2.1c0.1-0.1,0.2-0.2,0.2-0.3c0-0.1-0.1-0.2-0.2-0.3s-0.2-0.1-0.3,0l-4.2,2.1
		c-0.1,0.1-0.2,0.2-0.2,0.4C16.5,8.3,16.6,8.4,16.8,8.4z"/>
	<path d="M16.8,10.8c0.1,0,0.1,0,0.2,0l4.2-2.1c0.1-0.1,0.2-0.2,0.2-0.3s-0.1-0.2-0.2-0.3C21.1,8,21,8,20.9,8l-4.2,2.1
		c-0.1,0.1-0.2,0.2-0.2,0.4S16.6,10.8,16.8,10.8z"/>
	<path d="M20.9,10.5l-4.2,2.1c-0.1,0.1-0.2,0.2-0.2,0.3c0,0.1,0.1,0.2,0.2,0.3c0.1,0.1,0.2,0.1,0.3,0l4.2-2.1
		c0.1-0.1,0.2-0.2,0.2-0.3c0-0.1-0.1-0.2-0.2-0.3C21.1,10.4,21,10.4,20.9,10.5z"/>
	<path d="M6,11.5l-4.2,2.1c-0.1,0.1-0.2,0.2-0.2,0.3c0,0.1,0.1,0.2,0.2,0.3c0.1,0.1,0.2,0.1,0.3,0l4.2-2.1c0.1-0.1,0.2-0.2,0.2-0.3
		c0-0.1-0.1-0.2-0.2-0.3C6.3,11.4,6.1,11.4,6,11.5z"/>
	<path d="M6,13.9L1.8,16c-0.1,0.1-0.2,0.2-0.2,0.3c0,0.1,0.1,0.2,0.2,0.3c0.1,0.1,0.2,0.1,0.3,0l4.2-2.1c0.1-0.1,0.2-0.2,0.2-0.3
		c0-0.1-0.1-0.2-0.2-0.3C6.3,13.8,6.1,13.8,6,13.9z"/>
	<path d="M13.6,10.3l-3.9-2c-0.2-0.1-0.4,0-0.5,0.1s0,0.4,0.1,0.5l3.9,2c0.1,0.1,0.2,0.1,0.3,0c0.1-0.1,0.2-0.2,0.2-0.3
		C13.8,10.4,13.7,10.3,13.6,10.3z"/>
	<path d="M9.4,6l3.9,2C13.4,8,13.5,8,13.6,8s0.2-0.2,0.2-0.3c0-0.1-0.1-0.2-0.2-0.3l-3.9-2c-0.2-0.1-0.4,0-0.5,0.1
		C9.2,5.7,9.2,5.9,9.4,6z"/>
	<path d="M6.3,4.7C6.2,4.7,6.1,4.7,6,4.7L1.8,6.8C1.7,6.9,1.6,7,1.6,7.2V10c0,0.1,0.1,0.2,0.2,0.3c0.1,0,0.1,0.1,0.2,0.1
		c0.1,0,0.1,0,0.2,0l4.2-2.1C6.4,8.2,6.5,8,6.5,7.9V5C6.5,4.9,6.4,4.8,6.3,4.7z M5.8,7.7L2.3,9.5V7.4l3.5-1.8V7.7z"/>
	<path d="M13.6,13.7l-3.9-2c-0.1-0.1-0.2-0.1-0.3,0c-0.1,0.1-0.2,0.2-0.2,0.3v3.4c0,0.1,0.1,0.2,0.2,0.3l3.9,2c0,0,0.1,0,0.2,0
		c0.1,0,0.1,0,0.2,0c0.1-0.1,0.2-0.2,0.2-0.3V14C13.8,13.8,13.7,13.7,13.6,13.7z M13.1,16.8l-3.2-1.7v-2.6l3.2,1.7V16.8z"/>
</g>
</svg>
