<?xml version="1.0" encoding="utf-8"?>
<!-- Generator: Adobe Illustrator 24.1.1, SVG Export Plug-In . SVG Version: 6.00 Build 0)  -->
<svg version="1.1" id="Layer_1" xmlns="http://www.w3.org/2000/svg" xmlns:xlink="http://www.w3.org/1999/xlink" x="0px" y="0px"
	 viewBox="0 0 48 41" style="enable-background:new 0 0 48 41;" xml:space="preserve">
<style type="text/css">
	.st0{fill:#FC6A55;}
	.st1{fill:#EDEDED;}
	.st2{fill:none;stroke:#FC6A55;stroke-miterlimit:10;}
	.st3{fill:#222F3F;}
	.st4{fill:#383838;}
	.st5{fill:#FFFFFF;}
	.st6{fill:#656D7A;}
	.st7{fill:#C4C4C4;}
	.st8{filter:url(#Adobe_OpacityMaskFilter);}
	.st9{fill-rule:evenodd;clip-rule:evenodd;fill:#FFFFFF;}
	.st10{mask:url(#mask-2_8_);fill-rule:evenodd;clip-rule:evenodd;fill:#FFFFFF;}
	.st11{filter:url(#Adobe_OpacityMaskFilter_1_);}
	.st12{mask:url(#mask-2_7_);fill-rule:evenodd;clip-rule:evenodd;fill:#FFFFFF;}
	.st13{filter:url(#Adobe_OpacityMaskFilter_2_);}
	.st14{mask:url(#mask-2_6_);fill-rule:evenodd;clip-rule:evenodd;fill:#FFFFFF;}
	.st15{filter:url(#Adobe_OpacityMaskFilter_3_);}
	.st16{mask:url(#mask-2_5_);fill-rule:evenodd;clip-rule:evenodd;fill:#FFFFFF;}
	.st17{filter:url(#Adobe_OpacityMaskFilter_4_);}
	.st18{mask:url(#mask-2_2_);fill:none;stroke:#FFFFFF;stroke-width:1.5;stroke-miterlimit:10;}
	.st19{fill:#B4A3EE;}
	.st20{fill:#434343;}
	.st21{fill:#434343;stroke:#F9F9F9;stroke-width:0.25;stroke-miterlimit:10;}
	.st22{fill:none;stroke:#FC6A55;stroke-width:0.5;stroke-miterlimit:10;}
	.st23{fill:none;stroke:#FC6A55;stroke-width:0.75;stroke-miterlimit:10;}
	.st24{fill:#FC6A55;stroke:#FC6A55;stroke-width:0.5;stroke-miterlimit:10;}
	.st25{opacity:0.153;fill:url(#Path_44_);enable-background:new    ;}
	.st26{opacity:0.1;fill:#590BB2;enable-background:new    ;}
	.st27{fill:#8E8CA8;}
	.st28{fill:#F5F4F9;}
	.st29{fill:#FFD5B8;}
	.st30{fill:#FC8473;}
	.st31{fill:#1C3475;}
	.st32{fill:#DDD9E4;}
	.st33{fill:#828FB3;}
	.st34{opacity:7.584635e-02;fill:url(#Path_45_);enable-background:new    ;}
	.st35{fill:#FFBE92;}
	.st36{fill:#FB8E7F;}
	.st37{fill:#FDB1A6;}
	.st38{fill:#FC806F;}
	.st39{fill:#FFE783;}
	.st40{fill:#104478;}
	.st41{fill:none;stroke:#FFFFFF;stroke-miterlimit:10;}
	.st42{fill:none;stroke:#000000;stroke-width:0.15;stroke-miterlimit:10;}
	.st43{opacity:0.1;fill:url(#Path_46_);enable-background:new    ;}
	.st44{opacity:0.1;fill:url(#Path_47_);enable-background:new    ;}
	.st45{fill-rule:evenodd;clip-rule:evenodd;fill:#FC6A55;}
	.st46{fill-rule:evenodd;clip-rule:evenodd;}
	.st47{fill:#FF6757;}
	.st48{fill:#666666;}
	.st49{fill:none;stroke:#FFFFFF;stroke-width:0.5;stroke-miterlimit:10;}
	.st50{fill:#606060;}
	.st51{fill:#F16A56;}
	.st52{fill:#515252;}
	.st53{fill:#F26A56;}
	.st54{fill:none;stroke:#F16A56;stroke-miterlimit:10;}
	.st55{fill:none;stroke:#929292;stroke-miterlimit:10;}
	.st56{fill:#929292;}
	.st57{fill:none;stroke:#000000;stroke-width:0.5;stroke-miterlimit:10;}
	.st58{fill:#A8A7A7;}
	.st59{fill:#F79F91;}
	.st60{fill:#9BDBD5;}
	.st61{fill:#222121;}
	.st62{stroke:#000000;stroke-width:0.25;stroke-miterlimit:10;}
</style>
<g>
	<path class="st5" d="M39.6,21.7h-1.2h-1.1h-1.2c-1.4,0-2.8,0.6-3.7,1.7c-0.2,0.3-0.2,0.6,0.1,0.8c0.3,0.2,0.6,0.2,0.8-0.1
		c0.7-0.8,1.7-1.3,2.8-1.3h0.4l-0.9,3.9c0,0.2,0,0.4,0.1,0.6l1.6,1.7c0.1,0.1,0.3,0.2,0.4,0.2c0.2,0,0.3-0.1,0.4-0.2l1.6-1.7
		c0.1-0.1,0.2-0.4,0.1-0.6l-0.9-3.9h0.4c2,0,3.7,1.6,3.7,3.7v3.9h-8.5c-0.3,0-0.6,0.3-0.6,0.6c0,0.3,0.3,0.6,0.6,0.6h8.8
		c0.5,0,0.9-0.4,0.9-0.9v-4.1C44.5,23.9,42.3,21.7,39.6,21.7z M38.9,26.7l-1,1l-1-1l0.9-3.8H38L38.9,26.7z"/>
	<path class="st5" d="M37.9,20.8c2.7,0,4.9-2.2,4.9-4.9V14v-1c0-0.2,0-0.5-0.1-0.7c-0.3-2.2-2.2-3.9-4.5-3.9h-0.6
		c-2.3,0-4.2,1.7-4.5,3.9c0,0.2-0.1,0.5-0.1,0.7v0.8v2C33,18.6,35.2,20.8,37.9,20.8z M37.6,9.7h0.6c1.9,0,3.4,1.5,3.4,3.4v0.1
		c-0.8-0.3-1.4-0.8-1.5-1.2c-0.1-0.2-0.3-0.4-0.5-0.4c-0.2,0-0.5,0.1-0.6,0.3c-0.7,1-3.1,1.8-4.9,1.5v-0.3
		C34.2,11.2,35.7,9.7,37.6,9.7z M34.2,14.6c1.8,0.2,4-0.4,5.2-1.4c0.6,0.7,1.5,1.1,2.2,1.3v1.4c0,2-1.7,3.7-3.7,3.7
		c-2,0-3.7-1.7-3.7-3.7L34.2,14.6L34.2,14.6z"/>
	<path class="st5" d="M15.4,24.3c0.3-0.2,0.3-0.6,0.1-0.8c-0.9-1.1-2.3-1.7-3.7-1.7h-1.2H9.5H8.4c-2.7,0-4.9,2.2-4.9,4.9v4.1
		c0,0.5,0.4,0.9,0.9,0.9h8.8c0.3,0,0.6-0.3,0.6-0.6c0-0.3-0.3-0.6-0.6-0.6H4.7v-3.9c0-2,1.6-3.7,3.7-3.7h0.4l-0.9,3.9
		c0,0.2,0,0.4,0.1,0.6l1.6,1.7c0.1,0.1,0.3,0.2,0.4,0.2c0.2,0,0.3-0.1,0.4-0.2l1.6-1.7c0.1-0.1,0.2-0.4,0.1-0.6l-0.9-3.9h0.4
		c1.1,0,2.1,0.5,2.8,1.3C14.8,24.5,15.2,24.5,15.4,24.3z M11.1,26.7l-1,1l-1-1l0.9-3.8h0.1L11.1,26.7z"/>
	<path class="st5" d="M5.2,15.9c0,2.7,2.2,4.9,4.9,4.9c2.7,0,4.9-2.2,4.9-4.9v-2.8c0-0.1,0-0.2,0-0.2c1-0.7,1.6-1.9,1.6-3.2V8.2
		c0-0.3-0.3-0.6-0.6-0.6H9.2c-0.3,0-0.5,0-0.8,0.1C8.1,7.7,7.9,8,8,8.4C8,8.7,8.3,8.9,8.7,8.8c0.2,0,0.4-0.1,0.6-0.1h6.2v0.8
		c0,1.6-1.3,2.9-2.9,2.9H6.4v-0.8c0-0.7,0.2-1.3,0.7-1.8C7.2,9.6,7.2,9.2,6.9,9C6.7,8.8,6.3,8.8,6.1,9.1c-0.6,0.7-0.9,1.7-0.9,2.6
		v1.4c0,0,0,0,0,0V15.9z M13.8,13.5v2.4c0,2-1.7,3.7-3.7,3.7c-2,0-3.7-1.7-3.7-3.7v-2.2h6.2C13,13.7,13.4,13.6,13.8,13.5z"/>
	<path class="st5" d="M29.2,22.8C29.2,22.8,29.2,22.8,29.2,22.8c-0.1,0-0.2-0.1-0.2-0.1c0,0,0,0,0,0c-0.4-0.2-0.8-0.3-1.2-0.4
		c0,0,0,0,0,0c-0.1,0-0.2,0-0.3-0.1c0,0,0,0,0,0c-0.1,0-0.2,0-0.3,0c0,0,0,0,0,0c-0.1,0-0.2,0-0.3,0c0,0,0,0,0,0c-0.1,0-0.2,0-0.3,0
		h0h-4.7h0c-0.1,0-0.2,0-0.3,0c0,0,0,0,0,0c-0.1,0-0.2,0-0.3,0c0,0,0,0,0,0c-0.1,0-0.2,0-0.3,0c0,0,0,0,0,0c-0.5,0.1-1,0.2-1.5,0.4
		c0,0,0,0,0,0c-0.1,0-0.1,0.1-0.2,0.1c0,0,0,0,0,0c-2.2,1.1-3.8,3.3-3.8,5.9v5.4c0,0.8,0.6,1.4,1.4,1.4h15.1c0.8,0,1.4-0.6,1.4-1.4
		v-5.4C33,26.1,31.4,23.8,29.2,22.8z M25.9,27.5l-0.4-2.2c0.7-0.4,1.2-1.1,1.4-1.9c0,0,0,0,0,0c0,0,0,0,0.1,0c0.2,0,0.3,0,0.5,0.1
		c0,0,0,0,0,0c0.1,0,0.2,0,0.2,0.1c0,0,0,0,0,0c0.1,0,0.1,0,0.2,0.1c0,0,0,0,0,0c0,0,0,0,0,0L25.9,27.5z M19.9,23.6
		C20,23.6,20,23.6,19.9,23.6C20,23.6,20,23.6,19.9,23.6c0.2,0,0.2-0.1,0.3-0.1c0,0,0,0,0,0c0.1,0,0.2,0,0.2-0.1c0,0,0,0,0,0
		c0.2,0,0.3-0.1,0.5-0.1c0,0,0,0,0.1,0c0,0,0,0,0,0c0.2,0.8,0.7,1.5,1.4,1.9l-0.4,2.2L19.9,23.6z M24.3,25.1l0.7,4.1L24,31l-1-1.9
		l0.7-4.1c0.1-0.3-0.1-0.6-0.4-0.7c-0.5-0.2-0.8-0.6-1-1h3.3c-0.2,0.5-0.5,0.8-1,1C24.4,24.5,24.2,24.8,24.3,25.1z M31.8,34.2
		c0,0.1-0.1,0.2-0.2,0.2H16.4c-0.1,0-0.2-0.1-0.2-0.2v-5.4c0-2,1.1-3.7,2.6-4.6l4.6,8.4c0.1,0.2,0.3,0.3,0.5,0.3
		c0.2,0,0.4-0.1,0.5-0.3l4.6-8.4c1.6,0.9,2.6,2.7,2.6,4.6V34.2z"/>
	<path class="st5" d="M24,21c1.5,0,2.9-0.5,4-1.4c0.3-0.2,0.3-0.6,0.1-0.8s-0.6-0.3-0.8-0.1c-0.9,0.7-2,1.2-3.2,1.2
		c-2.8,0-5-2.2-5-5v-2.3c0.9,0.7,1.9,1.2,2.7,1.4c0.2,0.1,0.5,0,0.6-0.2c0.1-0.2,0.2-0.4,0.1-0.6c-0.2-0.4-0.4-1-0.5-1.6
		c0.8,0.6,1.9,1.1,2.5,1.5c1.5,0.7,3.2,1.4,4.6,1.8v0.1c0,0.7-0.2,1.4-0.5,2.1c-0.1,0.3,0,0.7,0.3,0.8c0.3,0.1,0.7,0,0.8-0.3
		c0.4-0.8,0.6-1.7,0.6-2.6v-0.5v-3.1c0-3.2-2.6-5.8-5.8-5.8h-0.9c-0.1,0-0.2,0-0.3,0c0,0,0,0-0.1,0c-0.1,0-0.2,0-0.2,0c0,0,0,0,0,0
		c-0.1,0-0.2,0-0.2,0c0,0,0,0,0,0c-1.2,0.2-2.3,0.7-3.2,1.6c-0.7,0.7-1.2,1.5-1.5,2.4c0,0,0,0,0,0c0,0.1,0,0.2-0.1,0.2
		c0,0,0,0.1,0,0.1c0,0,0,0.1,0,0.1c0,0.1,0,0.1,0,0.2c0,0,0,0,0,0.1c0,0.1,0,0.2,0,0.2c0,0,0,0,0,0c0,0.1,0,0.2,0,0.3c0,0,0,0,0,0
		c0,0.1,0,0.2,0,0.3c0,0,0,0,0,0c0,0,0,0,0,0c0,0,0,0.1,0,0.1v3.6C17.8,18.2,20.6,21,24,21z M24.4,6.6c2.5,0,4.6,2,4.6,4.6v2.3
		c-2.9-0.9-6.5-2.6-7.2-3.7c-0.1-0.2-0.3-0.2-0.5-0.2c0,0-0.1,0-0.1,0c-0.2,0-0.4,0.2-0.5,0.4c-0.1,0.4-0.2,1.2,0.1,2.2
		c-0.6-0.4-1.3-0.8-1.8-1.4c0.1-2.1,1.8-3.9,3.9-4.2c0,0,0,0,0,0c0.1,0,0.1,0,0.2,0c0,0,0.1,0,0.1,0c0,0,0.1,0,0.1,0
		c0.1,0,0.2,0,0.2,0H24.4z"/>
</g>
</svg>
