<?xml version="1.0" encoding="utf-8"?>
<!-- Generator: Adobe Illustrator 24.1.1, SVG Export Plug-In . SVG Version: 6.00 Build 0)  -->
<svg version="1.1" id="Layer_1" xmlns="http://www.w3.org/2000/svg" xmlns:xlink="http://www.w3.org/1999/xlink" x="0px" y="0px"
	 viewBox="0 0 48 41" style="enable-background:new 0 0 48 41;" xml:space="preserve">
<style type="text/css">
	.st0{fill:#FC6A55;}
	.st1{fill:#EDEDED;}
	.st2{fill:none;stroke:#FC6A55;stroke-miterlimit:10;}
	.st3{fill:#222F3F;}
	.st4{fill:#383838;}
	.st5{fill:#FFFFFF;}
	.st6{fill:#656D7A;}
	.st7{fill:#C4C4C4;}
	.st8{filter:url(#Adobe_OpacityMaskFilter);}
	.st9{fill-rule:evenodd;clip-rule:evenodd;fill:#FFFFFF;}
	.st10{mask:url(#mask-2_8_);fill-rule:evenodd;clip-rule:evenodd;fill:#FFFFFF;}
	.st11{filter:url(#Adobe_OpacityMaskFilter_1_);}
	.st12{mask:url(#mask-2_7_);fill-rule:evenodd;clip-rule:evenodd;fill:#FFFFFF;}
	.st13{filter:url(#Adobe_OpacityMaskFilter_2_);}
	.st14{mask:url(#mask-2_6_);fill-rule:evenodd;clip-rule:evenodd;fill:#FFFFFF;}
	.st15{filter:url(#Adobe_OpacityMaskFilter_3_);}
	.st16{mask:url(#mask-2_5_);fill-rule:evenodd;clip-rule:evenodd;fill:#FFFFFF;}
	.st17{filter:url(#Adobe_OpacityMaskFilter_4_);}
	.st18{mask:url(#mask-2_2_);fill:none;stroke:#FFFFFF;stroke-width:1.5;stroke-miterlimit:10;}
	.st19{fill:#B4A3EE;}
	.st20{fill:#434343;}
	.st21{fill:#434343;stroke:#F9F9F9;stroke-width:0.25;stroke-miterlimit:10;}
	.st22{fill:none;stroke:#FC6A55;stroke-width:0.5;stroke-miterlimit:10;}
	.st23{fill:none;stroke:#FC6A55;stroke-width:0.75;stroke-miterlimit:10;}
	.st24{fill:#FC6A55;stroke:#FC6A55;stroke-width:0.5;stroke-miterlimit:10;}
	.st25{opacity:0.153;fill:url(#Path_44_);enable-background:new    ;}
	.st26{opacity:0.1;fill:#590BB2;enable-background:new    ;}
	.st27{fill:#8E8CA8;}
	.st28{fill:#F5F4F9;}
	.st29{fill:#FFD5B8;}
	.st30{fill:#FC8473;}
	.st31{fill:#1C3475;}
	.st32{fill:#DDD9E4;}
	.st33{fill:#828FB3;}
	.st34{opacity:7.584635e-02;fill:url(#Path_45_);enable-background:new    ;}
	.st35{fill:#FFBE92;}
	.st36{fill:#FB8E7F;}
	.st37{fill:#FDB1A6;}
	.st38{fill:#FC806F;}
	.st39{fill:#FFE783;}
	.st40{fill:#104478;}
	.st41{fill:none;stroke:#FFFFFF;stroke-miterlimit:10;}
	.st42{fill:none;stroke:#000000;stroke-width:0.15;stroke-miterlimit:10;}
	.st43{opacity:0.1;fill:url(#Path_46_);enable-background:new    ;}
	.st44{opacity:0.1;fill:url(#Path_47_);enable-background:new    ;}
	.st45{fill-rule:evenodd;clip-rule:evenodd;fill:#FC6A55;}
	.st46{fill-rule:evenodd;clip-rule:evenodd;}
	.st47{fill:#FF6757;}
	.st48{fill:#666666;}
	.st49{fill:none;stroke:#FFFFFF;stroke-width:0.5;stroke-miterlimit:10;}
	.st50{fill:#606060;}
	.st51{fill:#F16A56;}
	.st52{fill:#515252;}
	.st53{fill:#F26A56;}
	.st54{fill:none;stroke:#F16A56;stroke-miterlimit:10;}
	.st55{fill:none;stroke:#929292;stroke-miterlimit:10;}
	.st56{fill:#929292;}
	.st57{fill:none;stroke:#000000;stroke-width:0.5;stroke-miterlimit:10;}
	.st58{fill:#A8A7A7;}
	.st59{fill:#F79F91;}
	.st60{fill:#9BDBD5;}
	.st61{fill:#222121;}
	.st62{stroke:#000000;stroke-width:0.25;stroke-miterlimit:10;}
</style>
<g id="final-design">
	<g id="invensis.net-2.0-index-page" transform="translate(-1202.000000, -2405.000000)">
		<g id="Group-2-Copy-3" transform="translate(1202.000000, 2405.000000)">
			<defs>
				<filter id="Adobe_OpacityMaskFilter" filterUnits="userSpaceOnUse" x="5.7" y="0.5" width="39.5" height="39.3">
					<feColorMatrix  type="matrix" values="1 0 0 0 0  0 1 0 0 0  0 0 1 0 0  0 0 0 1 0"/>
				</filter>
			</defs>
			<mask maskUnits="userSpaceOnUse" x="5.7" y="0.5" width="39.5" height="39.3" id="mask-2_8_">
				<g class="st8">
					<polygon id="path-1_8_" class="st9" points="5.7,0.5 45.2,0.5 45.2,39.8 5.7,39.8 					"/>
				</g>
			</mask>
			<path id="Fill-1" class="st10" d="M43.2,37.9c-0.6,0.6-1.5,0.6-2,0l-7.1-7.1l2-2l7.1,7.1C43.8,36.4,43.8,37.3,43.2,37.9
				L43.2,37.9z M31.6,28.3l2-2l1.4,1.4l-2,2L31.6,28.3z M44.3,34.8l-7.2-7.1c0.2-0.3,0.2-0.7-0.1-1c-0.3-0.3-0.7-0.3-1-0.1l-1.9-1.9
				c1.4-2.1,2.3-4.5,2.6-7.1c0.4-3.5-0.5-7-2.4-9.9c-0.2-0.4-0.7-0.5-1.1-0.2c-0.4,0.2-0.5,0.7-0.2,1.1c3.5,5.5,2.7,12.8-1.9,17.4
				c-5.5,5.4-14.4,5.4-19.9,0c-5.5-5.4-5.5-14.3,0-19.8c4.6-4.6,11.8-5.4,17.3-2c0.4,0.2,0.8,0.1,1.1-0.2c0.2-0.4,0.1-0.8-0.2-1.1
				c-2.9-1.8-6.5-2.6-9.9-2.2c-3.5,0.4-6.8,2-9.3,4.4c-6.1,6-6.1,15.9,0,21.9c3,3,7,4.5,11,4.5c3,0,6.1-0.9,8.7-2.6l1.9,1.9
				c-0.3,0.3-0.3,0.8,0,1.1c0.2,0.1,0.3,0.2,0.5,0.2c0.2,0,0.4-0.1,0.5-0.2l7.1,7.1c0.6,0.6,1.3,0.9,2.1,0.9c0.8,0,1.5-0.3,2.1-0.9
				C45.5,37.8,45.5,35.9,44.3,34.8L44.3,34.8z"/>
			<defs>
				<filter id="Adobe_OpacityMaskFilter_1_" filterUnits="userSpaceOnUse" x="31" y="4.8" width="1.6" height="1.6">
					<feColorMatrix  type="matrix" values="1 0 0 0 0  0 1 0 0 0  0 0 1 0 0  0 0 0 1 0"/>
				</filter>
			</defs>
			<mask maskUnits="userSpaceOnUse" x="31" y="4.8" width="1.6" height="1.6" id="mask-2_7_">
				<g class="st11">
					<polygon id="path-1_7_" class="st9" points="5.7,0.5 45.2,0.5 45.2,39.8 5.7,39.8 					"/>
				</g>
			</mask>
			<path id="Fill-4" class="st12" d="M32.3,5.1L32.3,5.1c-0.3-0.3-0.8-0.3-1.1,0c-0.3,0.3-0.3,0.8,0,1.1l0,0
				c0.2,0.1,0.3,0.2,0.5,0.2s0.4-0.1,0.5-0.2C32.6,5.9,32.6,5.4,32.3,5.1"/>
			<defs>
				<filter id="Adobe_OpacityMaskFilter_2_" filterUnits="userSpaceOnUse" x="9.4" y="4.2" width="23.8" height="23.6">
					<feColorMatrix  type="matrix" values="1 0 0 0 0  0 1 0 0 0  0 0 1 0 0  0 0 0 1 0"/>
				</filter>
			</defs>
			<mask maskUnits="userSpaceOnUse" x="9.4" y="4.2" width="23.8" height="23.6" id="mask-2_6_">
				<g class="st13">
					<polygon id="path-1_6_" class="st9" points="5.7,0.5 45.2,0.5 45.2,39.8 5.7,39.8 					"/>
				</g>
			</mask>
			<path id="Fill-6" class="st14" d="M21.3,26.3C15.6,26.3,11,21.7,11,16S15.6,5.7,21.3,5.7S31.6,10.4,31.6,16S27,26.3,21.3,26.3
				 M21.3,4.2C14.7,4.2,9.4,9.5,9.4,16s5.3,11.8,11.9,11.8S33.2,22.5,33.2,16S27.8,4.2,21.3,4.2"/>
			<defs>
				<filter id="Adobe_OpacityMaskFilter_3_" filterUnits="userSpaceOnUse" x="14" y="8.1" width="14.5" height="13.3">
					<feColorMatrix  type="matrix" values="1 0 0 0 0  0 1 0 0 0  0 0 1 0 0  0 0 0 1 0"/>
				</filter>
			</defs>
			<mask maskUnits="userSpaceOnUse" x="14" y="8.1" width="14.5" height="13.3" id="mask-2_5_">
				<g class="st15">
					<polygon id="path-1_5_" class="st9" points="5.7,0.5 45.2,0.5 45.2,39.8 5.7,39.8 					"/>
				</g>
			</mask>
			<path id="Fill-8" class="st16" d="M15.6,19.8c0.2-1.9,1.8-3.4,3.7-3.4h3.9c1.9,0,3.6,1.5,3.7,3.4H15.6z M19.1,11.8
				c0-1.2,1-2.1,2.2-2.1s2.2,1,2.2,2.1v1c0,1.2-1,2.1-2.2,2.1s-2.2-1-2.2-2.1V11.8z M25,12.8v-1c0-2-1.7-3.7-3.7-3.7
				s-3.7,1.7-3.7,3.7v1c0,0.8,0.3,1.6,0.8,2.2c-2.5,0.5-4.3,2.6-4.3,5.2v0.4c0,0.4,0.3,0.8,0.8,0.8h13c0.4,0,0.8-0.3,0.8-0.8v-0.4
				c0-2.6-1.9-4.7-4.3-5.2C24.7,14.4,25,13.6,25,12.8z"/>
		</g>
	</g>
</g>
</svg>
