<svg enable-background="new 0 0 18 24" viewBox="0 0 18 24" xmlns="http://www.w3.org/2000/svg"><path d="m6.9 13.8c-1.7 0-3 1.3-3 3s1.3 3 3 3 3-1.3 3-3-1.3-3-3-3zm0 5.4c-1.3 0-2.4-1.1-2.4-2.4s1.1-2.4 2.4-2.4 2.4 1.1 2.4 2.4-1.1 2.4-2.4 2.4z"/><path d="m6.9 15.9c.4 0 .6.2.6.3h.6c0-.4-.4-.8-.9-.9v-.3h-.6v.3c-.5.1-.9.4-.9.9s.5.9 1.2.9c.4 0 .6.2.6.3s-.2.3-.6.3-.6-.2-.6-.3h-.6c0 .4.4.8.9.9v.3h.6v-.3c.5-.1.9-.4.9-.9s-.5-.9-1.2-.9c-.4 0-.6-.2-.6-.3s.2-.3.6-.3z"/><path d="m15.3 20.4h-12.6v-7.2h4.8c.5 0 .9-.4.9-.9v-7.5h3.3v3.6h3.6v4.2h.6v-4.6l-3.8-3.8h-3.7v-.3c0-.5-.4-.9-.9-.9h-6.6c-.5 0-.9.4-.9.9v8.4c0 .5.4.9.9.9h1.2v7.8h13.8v-4.2h-.6zm-3-15.2 2.6 2.6h-2.6zm-11.7 7.1v-8.4c0-.2.1-.3.3-.3h6.6c.2 0 .3.1.3.3v8.4c0 .2-.1.3-.3.3h-6.6c-.2 0-.3-.1-.3-.3z"/><path d="m9.6 10.5h.6v.6h-.6z"/><path d="m10.8 10.5h3.6v.6h-3.6z"/><path d="m9.6 9.3h.6v.6h-.6z"/><path d="m10.8 9.3h3.6v.6h-3.6z"/><path d="m9.6 11.7h.6v.6h-.6z"/><path d="m10.8 11.7h3.6v.6h-3.6z"/><path d="m9.6 12.9h.6v.6h-.6z"/><path d="m10.8 12.9h3.6v.6h-3.6z"/><path d="m7.5 3.9h-6.6v2.1h6.6zm-.6 1.5h-5.4v-.9h5.4z"/><path d="m2.4 6.3h-.6c-.3 0-.6.3-.6.6v.6c0 .3.3.6.6.6h.6c.3 0 .6-.3.6-.6v-.6c0-.3-.3-.6-.6-.6zm-.6 1.2v-.6h.6v.6z"/><path d="m4.5 6.3h-.6c-.3 0-.6.3-.6.6v.6c0 .3.3.6.6.6h.6c.3 0 .6-.3.6-.6v-.6c0-.3-.3-.6-.6-.6zm-.6 1.2v-.6h.6v.6z"/><path d="m6.6 6.3h-.6c-.3 0-.6.3-.6.6v.6c0 .3.3.6.6.6h.6c.3 0 .6-.3.6-.6v-.6c0-.3-.3-.6-.6-.6zm-.6 1.2v-.6h.6v.6z"/><path d="m2.4 8.4h-.6c-.3 0-.6.3-.6.6v.6c0 .3.3.6.6.6h.6c.3 0 .6-.3.6-.6v-.6c0-.3-.3-.6-.6-.6zm-.6 1.2v-.6h.6v.6z"/><path d="m4.5 8.4h-.6c-.3 0-.6.3-.6.6v.6c0 .3.3.6.6.6h.6c.3 0 .6-.3.6-.6v-.6c0-.3-.3-.6-.6-.6zm-.6 1.2v-.6h.6v.6z"/><path d="m6.6 8.4h-.6c-.3 0-.6.3-.6.6v.6c0 .3.3.6.6.6h.6c.3 0 .6-.3.6-.6v-.6c0-.3-.3-.6-.6-.6zm-.6 1.2v-.6h.6v.6z"/><path d="m2.4 10.5h-.6c-.3 0-.6.3-.6.6v.6c0 .3.3.6.6.6h.6c.3 0 .6-.3.6-.6v-.6c0-.3-.3-.6-.6-.6zm-.6 1.2v-.6h.6v.6z"/><path d="m4.5 10.5h-.6c-.3 0-.6.3-.6.6v.6c0 .3.3.6.6.6h.6c.3 0 .6-.3.6-.6v-.6c0-.3-.3-.6-.6-.6zm-.6 1.2v-.6h.6v.6z"/><path d="m6.6 10.5h-.6c-.3 0-.6.3-.6.6v.6c0 .3.3.6.6.6h.6c.3 0 .6-.3.6-.6v-.6c0-.3-.3-.6-.6-.6zm-.6 1.2v-.6h.6v.6z"/><path d="m17.7 12.6c-.4-.3-.9-.3-1.3 0l-5.1 5.1s0 .1-.1.1l-.7 1.6c-.1.1 0 .2.1.3s.2.1.3.1l1.6-.7s.1 0 .1-.1l5.1-5.1c.4-.4.4-1 0-1.3zm-5.5 5.9-.8.4.4-.8 3.8-3.8.4.4zm4.3-4.2-.5-.5.2-.2.4.4zm.8-.9-.2.2-.4-.4.2-.2c.1-.1.3-.1.4 0s.1.3 0 .4z"/></svg>