<?xml version="1.0" encoding="utf-8"?>
<!-- Generator: Adobe Illustrator 24.0.2, SVG Export Plug-In . SVG Version: 6.00 Build 0)  -->
<svg version="1.1" id="Layer_1" xmlns="http://www.w3.org/2000/svg" xmlns:xlink="http://www.w3.org/1999/xlink" x="0px" y="0px"
	 viewBox="0 0 18 24" style="enable-background:new 0 0 18 24;" xml:space="preserve">
<style type="text/css">
	.st0{fill:#FC6A55;}
	.st1{stroke:#FFFFFF;stroke-width:0.25;stroke-miterlimit:10;}
	.st2{fill:#656D7A;}
	.st3{fill:#FFFFFF;}
	.st4{filter:url(#Adobe_OpacityMaskFilter);}
	.st5{fill-rule:evenodd;clip-rule:evenodd;fill:#FFFFFF;}
	.st6{mask:url(#mask-2_8_);fill-rule:evenodd;clip-rule:evenodd;}
	.st7{filter:url(#Adobe_OpacityMaskFilter_1_);}
	.st8{mask:url(#mask-2_7_);fill-rule:evenodd;clip-rule:evenodd;}
	.st9{filter:url(#Adobe_OpacityMaskFilter_2_);}
	.st10{mask:url(#mask-2_6_);fill-rule:evenodd;clip-rule:evenodd;}
	.st11{filter:url(#Adobe_OpacityMaskFilter_3_);}
	.st12{mask:url(#mask-2_5_);fill-rule:evenodd;clip-rule:evenodd;}
	.st13{filter:url(#Adobe_OpacityMaskFilter_4_);}
	.st14{mask:url(#mask-2_2_);fill:none;stroke:#000000;stroke-width:2;}
	.st15{fill:#434343;}
	.st16{fill:#434343;stroke:#F9F9F9;stroke-width:0.25;stroke-miterlimit:10;}
	.st17{fill:none;stroke:#FC6A55;stroke-width:0.5;stroke-miterlimit:10;}
	.st18{fill:none;stroke:#FC6A55;stroke-width:0.75;stroke-miterlimit:10;}
	.st19{fill:#FC6A55;stroke:#FC6A55;stroke-width:0.5;stroke-miterlimit:10;}
	.st20{opacity:0.153;fill:url(#Path_144_);enable-background:new    ;}
	.st21{opacity:0.1;fill:#590BB2;enable-background:new    ;}
	.st22{fill:#8E8CA8;}
	.st23{fill:#F5F4F9;}
	.st24{fill:#FFD5B8;}
	.st25{fill:#FC8473;}
	.st26{fill:#1C3475;}
	.st27{fill:#DDD9E4;}
	.st28{fill:#828FB3;}
	.st29{opacity:7.584635e-02;fill:url(#Path_145_);enable-background:new    ;}
	.st30{fill:#FFBE92;}
	.st31{fill:#FB8E7F;}
	.st32{fill:#FDB1A6;}
	.st33{fill:#FC806F;}
	.st34{fill:#FFE783;}
	.st35{fill:#104478;}
	.st36{fill:none;stroke:#FFFFFF;stroke-miterlimit:10;}
	.st37{fill:none;stroke:#FC6A55;stroke-miterlimit:10;}
</style>
<g>
	<path d="M17.9,11.3c-0.2-0.6-0.7-1-1.3-0.9l-0.1,0c-0.4,0-0.7,0.2-1,0.4l-2,2c0-0.1-0.1-0.1-0.2-0.2c-0.3-0.3-0.6-0.4-1-0.4H9.5
		c-0.5,0-1-0.1-1.5-0.2c-1.3-0.4-2.5-0.1-3.5,0.7c-0.4,0.4-0.7,0.7-0.9,1c-0.2-0.2-0.5-0.2-0.7-0.2c-0.3,0-0.7,0.1-0.9,0.4l-1.8,1.9
		c-0.1,0.1-0.1,0.4,0,0.5l1.5,1.4c0.1,0.1,0.4,0.1,0.5,0c0.1-0.1,0.1-0.4,0-0.5l-1.2-1.2l1.6-1.6c0.1-0.1,0.2-0.2,0.4-0.2
		c0.2,0,0.3,0.1,0.4,0.2L6,17c0.1,0.1,0.2,0.2,0.2,0.4c0,0.1-0.1,0.3-0.2,0.4l-1.5,1.6L4.1,19c-0.1-0.1-0.4-0.1-0.5,0
		c-0.1,0.1-0.1,0.4,0,0.5l0.6,0.6c0.1,0.1,0.2,0.1,0.2,0.1c0.1,0,0.2,0,0.3-0.1l1.8-1.8c0.2-0.2,0.4-0.6,0.4-0.9
		c0-0.2,0-0.3-0.1-0.4l0.6-0.1c0.3,0,0.6-0.1,0.9-0.1h4.3c0.1,0,0.1,0,0.2,0l0.4,0c0.4,0,0.8-0.2,1.2-0.4c0.2-0.1,0.3-0.3,0.5-0.4
		l2.9-3.4C18,12.2,18.1,11.7,17.9,11.3z M17.1,12.1l-2.9,3.4c-0.1,0.1-0.2,0.2-0.3,0.3c-0.2,0.2-0.5,0.3-0.8,0.3l-0.4,0
		c0,0-0.1,0-0.1,0H8.3c-0.3,0-0.6,0-1,0.1l-1,0.1l-2.3-2.2c0.2-0.2,0.4-0.6,0.8-0.9c0.9-0.7,1.8-0.9,2.9-0.6
		c0.6,0.2,1.1,0.2,1.7,0.2h2.8c0.2,0,0.4,0.1,0.5,0.2c0.1,0.1,0.2,0.2,0.2,0.3c0,0,0,0.1,0,0.1c0,0.2,0,0.3-0.2,0.5l0,0
		c-0.1,0.2-0.3,0.3-0.5,0.3H9.9c-0.2,0-0.4,0.2-0.4,0.4c0,0.2,0.2,0.4,0.4,0.4h2.4c0.4,0,0.8-0.2,1.1-0.5l0,0
		c0.2-0.3,0.3-0.6,0.3-0.9l2.3-2.2c0.1-0.1,0.3-0.2,0.5-0.2l0.1,0c0.3,0,0.5,0.2,0.6,0.4C17.3,11.7,17.3,12,17.1,12.1z"/>
	<path d="M2.8,14.9c-0.5,0-1,0.4-1,1c0,0.5,0.4,1,1,1s1-0.4,1-1C3.8,15.3,3.3,14.9,2.8,14.9z M2.8,16.1c-0.1,0-0.2-0.1-0.2-0.2
		c0-0.1,0.1-0.2,0.2-0.2c0.1,0,0.2,0.1,0.2,0.2C3.1,16,2.9,16.1,2.8,16.1z"/>
	<path d="M8.4,14.3L8.4,14.3c-0.2,0-0.3,0.2-0.3,0.4c0,0.2,0.2,0.3,0.3,0.3c0,0,0.1,0,0.1,0l0,0c0.2,0,0.3-0.2,0.3-0.4
		S8.6,14.2,8.4,14.3z"/>
	<path d="M2.8,18L2.8,18c-0.2,0-0.3,0.2-0.3,0.4c0,0.2,0.2,0.3,0.3,0.3c0,0,0.1,0,0.1,0l0,0c0.2,0,0.3-0.2,0.3-0.4
		C3.1,18.1,2.9,18,2.8,18z"/>
	<path d="M10.3,11.2c2.1,0,3.7-1.7,3.7-3.7s-1.7-3.7-3.7-3.7C9.5,3.8,8.7,4,8,4.5C7.9,4.7,7.7,4.8,7.6,4.9C7.4,5.1,7.2,5.4,7.1,5.6
		C6.8,6.2,6.6,6.8,6.6,7.5C6.6,9.5,8.3,11.2,10.3,11.2z M7.7,6c0.1-0.2,0.3-0.4,0.4-0.6c0.1-0.1,0.2-0.2,0.3-0.3
		C9,4.7,9.6,4.5,10.3,4.5c1.7,0,3,1.4,3,3c0,1.7-1.4,3-3,3c-1.7,0-3-1.4-3-3C7.3,7,7.4,6.4,7.7,6z"/>
	<path d="M10.6,8.7c-0.1,0.1-0.3,0.1-0.5,0.1c-0.2,0-0.4-0.3-0.4-0.6c0-0.2-0.2-0.4-0.4-0.4C9.2,7.9,9,8,9,8.2
		c0,0.6,0.4,1.1,0.9,1.3c0,0.2,0.2,0.3,0.4,0.3c0.2,0,0.3-0.2,0.4-0.3c0.5-0.1,0.9-0.5,0.9-1.2c0-0.8-0.8-1.2-1.2-1.2
		c0,0-0.5,0-0.5-0.4c0-0.5,0.5-0.5,0.5-0.5c0.1,0,0.2,0.1,0.3,0.2c0,0,0,0,0,0.2c0,0.2,0.2,0.4,0.4,0.4c0.2,0,0.4-0.2,0.4-0.4
		c0-0.2,0-0.5-0.3-0.7c-0.2-0.2-0.3-0.3-0.5-0.3c0-0.2-0.2-0.3-0.4-0.3c-0.2,0-0.4,0.2-0.4,0.4v0C9.5,5.7,9.1,6,9.1,6.7
		c0,0.8,0.8,1.1,1.2,1.1c0.1,0,0.5,0.2,0.5,0.5C10.8,8.5,10.8,8.6,10.6,8.7z"/>
</g>
</svg>
