<?xml version="1.0" encoding="utf-8"?>
<!-- Generator: Adobe Illustrator 24.0.2, SVG Export Plug-In . SVG Version: 6.00 Build 0)  -->
<svg version="1.1" id="Layer_1" xmlns="http://www.w3.org/2000/svg" xmlns:xlink="http://www.w3.org/1999/xlink" x="0px" y="0px"
	 viewBox="0 0 18 29.1" style="enable-background:new 0 0 18 29.1;" xml:space="preserve">
<style type="text/css">
	.st0{fill:#FC6A55;}
	.st1{stroke:#FFFFFF;stroke-width:0.25;stroke-miterlimit:10;}
	.st2{fill:#656D7A;}
	.st3{fill:#FFFFFF;}
	.st4{filter:url(#Adobe_OpacityMaskFilter);}
	.st5{fill-rule:evenodd;clip-rule:evenodd;fill:#FFFFFF;}
	.st6{mask:url(#mask-2_8_);fill-rule:evenodd;clip-rule:evenodd;}
	.st7{filter:url(#Adobe_OpacityMaskFilter_1_);}
	.st8{mask:url(#mask-2_7_);fill-rule:evenodd;clip-rule:evenodd;}
	.st9{filter:url(#Adobe_OpacityMaskFilter_2_);}
	.st10{mask:url(#mask-2_6_);fill-rule:evenodd;clip-rule:evenodd;}
	.st11{filter:url(#Adobe_OpacityMaskFilter_3_);}
	.st12{mask:url(#mask-2_5_);fill-rule:evenodd;clip-rule:evenodd;}
	.st13{filter:url(#Adobe_OpacityMaskFilter_4_);}
	.st14{mask:url(#mask-2_2_);fill:none;stroke:#000000;stroke-width:2;}
	.st15{fill:#434343;}
	.st16{fill:#434343;stroke:#F9F9F9;stroke-width:0.25;stroke-miterlimit:10;}
	.st17{fill:none;stroke:#FC6A55;stroke-width:0.5;stroke-miterlimit:10;}
	.st18{fill:none;stroke:#FC6A55;stroke-width:0.75;stroke-miterlimit:10;}
	.st19{fill:#FC6A55;stroke:#FC6A55;stroke-width:0.5;stroke-miterlimit:10;}
	.st20{opacity:0.153;fill:url(#Path_144_);enable-background:new    ;}
	.st21{opacity:0.1;fill:#590BB2;enable-background:new    ;}
	.st22{fill:#8E8CA8;}
	.st23{fill:#F5F4F9;}
	.st24{fill:#FFD5B8;}
	.st25{fill:#FC8473;}
	.st26{fill:#1C3475;}
	.st27{fill:#DDD9E4;}
	.st28{fill:#828FB3;}
	.st29{opacity:7.584635e-02;fill:url(#Path_145_);enable-background:new    ;}
	.st30{fill:#FFBE92;}
	.st31{fill:#FB8E7F;}
	.st32{fill:#FDB1A6;}
	.st33{fill:#FC806F;}
	.st34{fill:#FFE783;}
	.st35{fill:#104478;}
	.st36{fill:none;stroke:#FFFFFF;stroke-miterlimit:10;}
	.st37{fill:none;stroke:#FC6A55;stroke-miterlimit:10;}
</style>
<g id="Analysis_Report_1_">
	<path d="M12.2,11.8h5.2v0c0.2,0,0.3-0.1,0.3-0.3c0,0,0,0,0,0c-0.2-2.9-2.6-5.2-5.5-5.2c-0.2,0-0.3,0.1-0.3,0.3v4.9
		C11.9,11.6,12,11.8,12.2,11.8z M17.1,11.2h-4.6V6.9C14.8,7,16.8,8.8,17.1,11.2z"/>
	<path d="M16.8,14.9h-0.7c0.3-0.6,0.4-1.3,0.4-2c0-0.1,0-0.2,0-0.3c0-0.2-0.1-0.3-0.3-0.3h-4.9V7.7c0-0.2-0.1-0.3-0.3-0.3
		c-0.3,0-0.6,0-0.9,0.1V6.6c0-0.2-0.1-0.3-0.3-0.3H2.9c-0.1,0-0.2,0-0.2,0.1L0.4,8.7C0.4,8.7,0.3,8.8,0.3,8.9v14.4
		c0,0.2,0.1,0.3,0.3,0.3h9.2c0.2,0,0.3-0.1,0.3-0.3v-5c0.3,0,0.6,0.1,0.9,0.1c0.1,0,0.2,0,0.3,0v4.3c0,0.5,0.4,0.9,0.9,0.9h4.6
		c0.5,0,0.9-0.4,0.9-0.9v-6.9C17.7,15.3,17.3,14.9,16.8,14.9z M2.6,7.3v1.3H1.3L2.6,7.3z M9.6,23H0.9V9.2h2c0.2,0,0.3-0.1,0.3-0.3
		v-2h6.4v0.8c-2.9,0.8-4.6,3.8-3.9,6.7c0.5,1.9,2,3.3,3.9,3.9V23z M11,17.8c-2.7,0-4.9-2.2-4.9-4.9c0-2.6,2-4.8,4.6-4.9v4.6
		c0,0.2,0.1,0.3,0.3,0.3h4.9c0,0.7-0.2,1.4-0.4,2h-3.3c-0.5,0-0.9,0.4-0.9,0.9v2C11.2,17.8,11.1,17.8,11,17.8z M17.1,22.7
		c0,0.2-0.1,0.3-0.3,0.3h-4.6c-0.2,0-0.3-0.1-0.3-0.3v-6.9c0-0.2,0.1-0.3,0.3-0.3h4.6c0.2,0,0.3,0.1,0.3,0.3V22.7z"/>
	<path d="M16.2,16.1h-3.5c-0.2,0-0.3,0.1-0.3,0.3v1.2c0,0.2,0.1,0.3,0.3,0.3h3.5c0.2,0,0.3-0.1,0.3-0.3v-1.2
		C16.5,16.2,16.4,16.1,16.2,16.1z M15.9,17.2H13v-0.6h2.9V17.2z"/>
	<path d="M13.9,18.4h-1.2c-0.2,0-0.3,0.1-0.3,0.3v1.2c0,0.2,0.1,0.3,0.3,0.3h1.2c0.2,0,0.3-0.1,0.3-0.3v-1.2
		C14.2,18.5,14.1,18.4,13.9,18.4z M13.6,19.6H13V19h0.6V19.6z"/>
	<path d="M16.2,18.4h-1.2c-0.2,0-0.3,0.1-0.3,0.3v1.2c0,0.2,0.1,0.3,0.3,0.3h1.2c0.2,0,0.3-0.1,0.3-0.3v-1.2
		C16.5,18.5,16.4,18.4,16.2,18.4z M15.9,19.6h-0.6V19h0.6V19.6z"/>
	<path d="M16.2,20.7h-1.2c-0.2,0-0.3,0.1-0.3,0.3v1.2c0,0.2,0.1,0.3,0.3,0.3h1.2c0.2,0,0.3-0.1,0.3-0.3V21
		C16.5,20.8,16.4,20.7,16.2,20.7z M15.9,21.9h-0.6v-0.6h0.6V21.9z"/>
	<path d="M13.9,20.7h-1.2c-0.2,0-0.3,0.1-0.3,0.3v1.2c0,0.2,0.1,0.3,0.3,0.3h1.2c0.2,0,0.3-0.1,0.3-0.3V21
		C14.2,20.8,14.1,20.7,13.9,20.7z M13.6,21.9H13v-0.6h0.6V21.9z"/>
	<path d="M5.2,17.2c-1.4,0-2.6,1.2-2.6,2.6c0,1.4,1.2,2.6,2.6,2.6s2.6-1.2,2.6-2.6C7.8,18.4,6.7,17.2,5.2,17.2z M5.2,21.9
		c-1.1,0-2-0.9-2-2s0.9-2,2-2s2,0.9,2,2C7.3,21,6.4,21.9,5.2,21.9z"/>
	<path d="M5.2,19c0.2,0,0.3,0.1,0.3,0.3h0.6c0-0.4-0.2-0.7-0.6-0.8v-0.3H5v0.3c-0.5,0.2-0.7,0.7-0.5,1.1c0.1,0.3,0.4,0.6,0.8,0.6
		c0.2,0,0.3,0.1,0.3,0.3s-0.1,0.3-0.3,0.3c-0.2,0-0.3-0.1-0.3-0.3H4.4c0,0.4,0.2,0.7,0.6,0.8v0.3h0.6v-0.3c0.5-0.2,0.7-0.7,0.5-1.1
		c-0.1-0.3-0.4-0.6-0.8-0.6c-0.2,0-0.3-0.1-0.3-0.3C5,19.1,5.1,19,5.2,19z"/>
	<rect x="2.1" y="10.3" width="2.9" height="0.6"/>
	<rect x="2.1" y="12.1" width="2.9" height="0.6"/>
	<rect x="2.1" y="13.8" width="2.9" height="0.6"/>
	<rect x="2.1" y="15.5" width="2.9" height="0.6"/>
</g>
</svg>
