<svg enable-background="new 0 0 58.3 58.8" viewBox="0 0 58.3 58.8" xmlns="http://www.w3.org/2000/svg"><g fill="#fc6a55"><path d="m55.2 18.5c-2.1-.4-4.1.9-4.6 3l-2.3 8.6c-1.2-.8-2.8-.9-4.1-.1l-6.8 4c-2.7 1.6-4.4 4.5-4.4 7.6v7.4h-2c-.5 0-1 .4-1 1v7.8c0 .5.4 1 1 1h17.6c.5 0 1-.4 1-1v-7.8c0-.5-.4-1-1-1h-2v-1.1c0-.9.4-1.7 1-2.2l4.6-3.9c.8-.6 1.3-1.5 1.5-2.4l4.3-15.9c.1-.3.1-.7.1-1 .2-2-1.1-3.6-2.9-4zm-7.4 38.3h-15.7v-5.8h15.7zm8.5-33.9-4.3 15.9c-.2.6-.5 1.1-.9 1.5l-4.6 3.9c-1.1.9-1.7 2.3-1.7 3.7v1.1h-9.8v-7.4c0-2.4 1.3-4.7 3.4-5.9l6.7-3.9c.3-.2.6-.3 1-.3.7 0 1.4.4 1.8 1.1.4 1 .1 2.1-.9 2.7l-5.5 3.2c-.5.3-.6.9-.4 1.3s.9.6 1.3.4l5.5-3.2c1.7-.9 2.5-3 1.8-4.8l2.7-10c.3-1.1 1.3-1.7 2.3-1.6.9.2 1.5 1 1.6 1.9.1 0 .1.2 0 .4z"/><path d="m27.2 49h-2v-7.4c0-3.1-1.7-6-4.4-7.6l-6.6-4c-1.3-.7-2.9-.7-4.1.1l-2.3-8.6c-.5-2.1-2.5-3.4-4.6-3s-3.5 2.5-3 4.7v.2l4.3 15.9c.3 1 .8 1.8 1.5 2.4l4.6 3.9c.7.6 1 1.4 1 2.2v1.2h-2c-.5 0-1 .4-1 1v7.8c0 .5.4 1 1 1h17.6c.5 0 1-.4 1-1v-7.8c0-.6-.5-1-1-1zm-15.4-4.9-4.6-3.9c-.5-.4-.8-.9-.9-1.5l-4.3-15.8c0-.2 0-.4 0-.5 0-.9.7-1.7 1.6-1.9 1-.2 2 .5 2.3 1.5l2.7 10c-.6 1.8.1 3.9 1.8 4.8l5.5 3.2c.5.3 1.1.1 1.3-.4.3-.5.1-1.1-.4-1.3l-5.5-3.2c-.9-.5-1.3-1.7-.9-2.7.3-.7 1-1.1 1.7-1.1.3 0 .7.1 1 .3l6.7 3.9c2.1 1.2 3.4 3.5 3.4 5.9v7.6h-9.8v-1.1c.1-1.5-.5-2.8-1.6-3.8zm14.4 12.7h-15.7v-5.8h15.7z"/><path d="m44.8 13.3v-12.3c0-.5-.4-1-1-1-.2 0-.3 0-.5.1l-1.3.8c-3.1 1.8-7 1.9-10.2.3l-2.2-1.1c-.3-.1-.6-.1-.9 0l-2.2 1.1c-3.2 1.6-7 1.5-10.2-.3l-1.3-.8c-.5-.3-1.1-.1-1.3.4-.1.1-.1.3-.1.5v12.3c0 9.1 5 17.4 13 21.6l2.2 1.2c.3.2.6.2.9 0l2.2-1.2c8-4.2 13-12.5 12.9-21.6zm-15.6 20.9-1.8-1c-7.4-3.9-12-11.5-12-19.9v-10.6c3.7 2.1 8.2 2.2 11.9.3l1.8-.9 1.8.9c3.8 1.9 8.3 1.8 11.9-.3v10.7c0 8.3-4.6 16-11.9 19.9z"/><path d="m40.9 6.9c0-.5-.4-1-1-1-.1 0-.1 0-.2 0-3.3.7-6.7.3-9.7-1.2l-.5-.2c-.3-.1-.6-.1-.9 0l-.5.2c-3 1.5-6.4 1.9-9.7 1.2-.5-.1-1 .2-1.2.8v.2 6.4c0 7.6 4.2 14.6 10.9 18.2l.4.2c.3.2.6.2.9 0l.4-.2c6.7-3.6 10.9-10.6 10.9-18.2v-6.4zm-1.9 6.4c0 6.9-3.8 13.2-9.8 16.4-6-3.2-9.8-9.5-9.8-16.4v-5.2c3.3.5 6.8-.1 9.8-1.6 3 1.5 6.4 2.1 9.8 1.6z"/><path d="m34.7 11.7-7.5 7.5-3.1-3.1c-.4-.4-1-.4-1.4 0s-.4 1 0 1.4l3.8 3.8c.4.4 1 .4 1.4 0l8.2-8.2c.4-.4.4-1 0-1.4s-1-.4-1.4 0z"/></g></svg>