<?xml version="1.0" encoding="utf-8"?>
<!-- Generator: Adobe Illustrator 24.0.2, SVG Export Plug-In . SVG Version: 6.00 Build 0)  -->
<svg version="1.1" id="Layer_1" xmlns="http://www.w3.org/2000/svg" xmlns:xlink="http://www.w3.org/1999/xlink" x="0px" y="0px"
	 viewBox="0 0 54 48" style="enable-background:new 0 0 54 48;" xml:space="preserve">
<style type="text/css">
	.st0{fill:#FC6A55;}
	.st1{stroke:#FFFFFF;stroke-width:0.25;stroke-miterlimit:10;}
	.st2{fill:#656D7A;}
	.st3{fill:#FFFFFF;}
	.st4{filter:url(#Adobe_OpacityMaskFilter);}
	.st5{fill-rule:evenodd;clip-rule:evenodd;fill:#FFFFFF;}
	.st6{mask:url(#mask-2_8_);fill-rule:evenodd;clip-rule:evenodd;}
	.st7{filter:url(#Adobe_OpacityMaskFilter_1_);}
	.st8{mask:url(#mask-2_7_);fill-rule:evenodd;clip-rule:evenodd;}
	.st9{filter:url(#Adobe_OpacityMaskFilter_2_);}
	.st10{mask:url(#mask-2_6_);fill-rule:evenodd;clip-rule:evenodd;}
	.st11{filter:url(#Adobe_OpacityMaskFilter_3_);}
	.st12{mask:url(#mask-2_5_);fill-rule:evenodd;clip-rule:evenodd;}
	.st13{filter:url(#Adobe_OpacityMaskFilter_4_);}
	.st14{mask:url(#mask-2_2_);fill:none;stroke:#000000;stroke-width:2;}
	.st15{fill:#FFFFFF;stroke:#F9F9F9;stroke-width:0.25;stroke-miterlimit:10;}
	.st16{fill:none;stroke:#FC6A55;stroke-width:0.5;stroke-miterlimit:10;}
</style>
<g>
	<path class="st3" d="M45.4,32.5l-4-4l-1.6,1l-0.4-1.8h-2.1v-1.5H13.6v10.4H27v3.5l1.8,0.4l-0.9,1.6l4,4l1.6-1l0.4,1.8h5.6l0.4-1.8
		l1.6,1l4-4l-0.9-1.6l1.8-0.4v-5.6l-1.8-0.4L45.4,32.5z M37.4,37.4c0,0.4-0.3,0.7-0.7,0.7s-0.7-0.3-0.7-0.7s0.3-0.7,0.7-0.7
		S37.4,36.9,37.4,37.4z M35.9,35.1H21.1v-3h14.8V35.1z M33,36.6h1.5c-0.1,0.2-0.1,0.5-0.1,0.7c0,1.2,1,2.2,2.2,2.2s2.2-1,2.2-2.2
		c0-1-0.6-1.8-1.5-2.1v-1.5c1.7,0.3,3,1.8,3,3.6c0,2-1.7,3.7-3.7,3.7s-3.7-1.7-3.7-3.7C32.9,37.1,33,36.9,33,36.6z M35.9,30.7H21.1
		v-3h14.8V30.7z M19.6,27.7v3h-4.5v-3H19.6z M15.1,32.2h4.5v3h-4.5V32.2z M44.8,35.7V39l-1.4,0.4L43,39.5l-0.3,0.8l1,1.6l-2.3,2.3
		l-1.6-1l-0.9,0.4l-0.5,1.8H35l-0.5-1.8l-0.9-0.4l-1.6,1L29.7,42l1-1.6l-0.4-0.9L28.5,39v-2.4h3c0,0.2-0.1,0.5-0.1,0.7
		c0,2.9,2.3,5.2,5.2,5.2c2.9,0,5.2-2.3,5.2-5.2c0-2.6-1.9-4.8-4.5-5.1v-3h0.9l0.5,1.8l0.9,0.4l1.6-1l2.3,2.3l-1,1.6l0.4,0.9
		L44.8,35.7z"/>
	<path class="st3" d="M26.3,15.8v7.4H50v-7.4H26.3z M27.7,17.3h4.5v4.5h-4.5V17.3z M48.5,21.8H33.7v-4.5h14.8V21.8z"/>
	<path class="st3" d="M24,38.1h1.5v1.5H24V38.1z"/>
	<path class="st3" d="M21.1,38.1h1.5v1.5h-1.5V38.1z"/>
	<path class="st3" d="M5.5,35.9V22.5c0-1.2,1-2.2,2.2-2.2h9.6v3.4l8.3-4.2l-8.3-4.2v3.4H7.7c-2,0-3.7,1.7-3.7,3.7v13.4
		c0,2,1.7,3.7,3.7,3.7h11.9v-1.5H7.7C6.5,38.1,5.5,37.1,5.5,35.9z M18.8,17.8l3.5,1.8l-3.5,1.8V17.8z"/>
	<path class="st3" d="M32.2,1H8.5v10.4h23.7V1z M30.7,5.5H15.9v-3h14.8V5.5z M14.4,2.5v3H9.9v-3H14.4z M9.9,6.9h4.5v3H9.9V6.9z
		 M15.9,9.9v-3h14.8v3H15.9z"/>
	<path class="st3" d="M39.6,18.8h1.5v1.5h-1.5V18.8z"/>
	<path class="st3" d="M42.6,18.8h1.5v1.5h-1.5V18.8z"/>
	<path class="st3" d="M45.5,18.8H47v1.5h-1.5V18.8z"/>
	<path class="st3" d="M33.7,5.5h1.5v1.5h-1.5V5.5z"/>
	<path class="st3" d="M44.1,7.7v2.2h-3l3.7,4.9l3.7-4.9h-3V7.7c0-1.2-1-2.2-2.2-2.2h-6.7v1.5h6.7C43.7,6.9,44.1,7.3,44.1,7.7z
		 M44.8,12.4l-0.7-1h1.5L44.8,12.4z"/>
</g>
</svg>
