<?xml version="1.0" encoding="utf-8"?>
<!-- Generator: Adobe Illustrator 24.2.0, SVG Export Plug-In . SVG Version: 6.00 Build 0)  -->
<svg version="1.1" id="Layer_1" xmlns="http://www.w3.org/2000/svg" xmlns:xlink="http://www.w3.org/1999/xlink" x="0px" y="0px"
	 viewBox="0 0 50.1 47.2" style="enable-background:new 0 0 50.1 47.2;" xml:space="preserve">
<style type="text/css">
	.st0{fill:#FC6A55;}
	.st1{fill:#EDEDED;}
	.st2{fill:none;stroke:#FC6A55;stroke-miterlimit:10;}
	.st3{fill:#222F3F;}
	.st4{fill:#383838;}
	.st5{fill:#FFFFFF;}
	.st6{fill:#B0B0B0;}
	.st7{fill:#656D7A;}
	.st8{fill:#C4C4C4;}
	.st9{filter:url(#Adobe_OpacityMaskFilter);}
	.st10{fill-rule:evenodd;clip-rule:evenodd;fill:#FFFFFF;}
	.st11{mask:url(#mask-2_8_);fill-rule:evenodd;clip-rule:evenodd;fill:#B0B0B0;}
	.st12{filter:url(#Adobe_OpacityMaskFilter_1_);}
	.st13{mask:url(#mask-2_7_);fill-rule:evenodd;clip-rule:evenodd;fill:#B0B0B0;}
	.st14{filter:url(#Adobe_OpacityMaskFilter_2_);}
	.st15{mask:url(#mask-2_6_);fill-rule:evenodd;clip-rule:evenodd;fill:#B0B0B0;}
	.st16{filter:url(#Adobe_OpacityMaskFilter_3_);}
	.st17{mask:url(#mask-2_5_);fill-rule:evenodd;clip-rule:evenodd;fill:#B0B0B0;}
	.st18{filter:url(#Adobe_OpacityMaskFilter_4_);}
	.st19{mask:url(#mask-2_2_);fill:none;stroke:#B0B0B0;stroke-width:1.5;stroke-miterlimit:10;}
	.st20{filter:url(#Adobe_OpacityMaskFilter_5_);}
	.st21{mask:url(#mask-2_10_);fill-rule:evenodd;clip-rule:evenodd;fill:#FC6A55;}
	.st22{filter:url(#Adobe_OpacityMaskFilter_6_);}
	.st23{mask:url(#mask-2_9_);fill-rule:evenodd;clip-rule:evenodd;fill:#FC6A55;}
	.st24{filter:url(#Adobe_OpacityMaskFilter_7_);}
	.st25{mask:url(#mask-2_4_);fill-rule:evenodd;clip-rule:evenodd;fill:#FC6A55;}
	.st26{filter:url(#Adobe_OpacityMaskFilter_8_);}
	.st27{mask:url(#mask-2_3_);fill-rule:evenodd;clip-rule:evenodd;fill:#FC6A55;}
	.st28{filter:url(#Adobe_OpacityMaskFilter_9_);}
	.st29{mask:url(#mask-2_1_);fill:none;stroke:#FC6A55;stroke-width:1.5;stroke-miterlimit:10;}
	.st30{fill:#B4A3EE;}
	.st31{fill:#222121;}
	.st32{fill:#434343;}
	.st33{fill:#434343;stroke:#F9F9F9;stroke-width:0.25;stroke-miterlimit:10;}
	.st34{fill:none;stroke:#FC6A55;stroke-width:0.75;stroke-miterlimit:10;}
	.st35{fill:#FC6A55;stroke:#FC6A55;stroke-width:0.25;stroke-miterlimit:10;}
	.st36{fill:#FC6A55;stroke:#FC6A55;stroke-width:0.5;stroke-miterlimit:10;}
	.st37{opacity:0.5;fill:#FC6A55;}
	.st38{fill:#F5F4F9;}
	.st39{opacity:0.153;fill:url(#Path_144_);enable-background:new    ;}
	.st40{opacity:0.1;fill:#590BB2;enable-background:new    ;}
	.st41{fill:#8E8CA8;}
	.st42{fill:#FFD5B8;}
	.st43{fill:#FC8473;}
	.st44{fill:#1C3475;}
	.st45{fill:#DDD9E4;}
	.st46{fill:#828FB3;}
	.st47{opacity:7.584635e-02;fill:url(#Path_145_);enable-background:new    ;}
	.st48{fill:#FFBE92;}
	.st49{fill:#FB8E7F;}
	.st50{fill:#FDB1A6;}
	.st51{fill:#FC806F;}
	.st52{fill:#FFE783;}
	.st53{fill:#104478;}
	.st54{fill:none;stroke:#FFFFFF;stroke-miterlimit:10;}
	.st55{fill:none;stroke:#000000;stroke-width:0.15;stroke-miterlimit:10;}
	.st56{opacity:0.3;fill:#FC6A55;}
	.st57{opacity:0.4;fill:#FC6A55;}
	.st58{opacity:0.1;fill:url(#Path_147_);enable-background:new    ;}
	.st59{opacity:0.1;fill:url(#Path_150_);enable-background:new    ;}
	.st60{fill-rule:evenodd;clip-rule:evenodd;fill:#FC6A55;}
	.st61{fill-rule:evenodd;clip-rule:evenodd;}
	.st62{fill:#FF6757;}
	.st63{fill:#6C973D;}
	.st64{fill:none;stroke:#FFFFFF;stroke-width:0.5;stroke-miterlimit:10;}
	.st65{fill:#606060;}
	.st66{fill:#F16A56;}
	.st67{fill:#515252;}
	.st68{fill:#656565;}
	.st69{fill:#F26A56;}
	.st70{fill:none;stroke:#F16A56;stroke-miterlimit:10;}
	.st71{fill:none;stroke:#929292;stroke-miterlimit:10;}
	.st72{fill:#929292;}
	.st73{fill:none;stroke:#000000;stroke-width:0.5;stroke-miterlimit:10;}
	.st74{fill:#A8A7A7;}
	.st75{fill:#F79F91;}
	.st76{fill:#9BDBD5;}
	.st77{stroke:#000000;stroke-width:0.25;stroke-miterlimit:10;}
</style>
<g>
	<g transform="translate(8.566414 7.729082)">
		<path class="st5" d="M-3.3-1.3c0.4,0,0.6-0.3,0.6-0.6c0-0.4-0.3-0.6-0.6-0.6S-3.9-2.3-3.9-2C-3.9-1.6-3.6-1.3-3.3-1.3z"/>
		<path class="st5" d="M-1-1.3c0.4,0,0.6-0.3,0.6-0.6c0-0.4-0.3-0.6-0.6-0.6c-0.4,0-0.6,0.3-0.6,0.6S-1.3-1.3-1-1.3z"/>
		<path class="st5" d="M1.4-1.3C1.8-1.3,2-1.6,2-1.9c0-0.4-0.3-0.6-0.6-0.6C1-2.4,0.8-2.1,0.8-1.9C0.8-1.6,1.1-1.3,1.4-1.3z"/>
		<path class="st5" d="M38.9-5.4H24.7c-0.6-0.7-1.2-1.4-2-2c-0.6-0.4-1.3-0.5-2-0.2s-1,0.9-1,1.7v0.5h-4.1c-0.4,0-0.6,0.3-0.6,0.6
			s0.3,0.6,0.6,0.6h4.1v2.5c0,0.4-0.3,0.6-0.6,0.6h-5.6c-0.4,0-0.6-0.3-0.6-0.6v-4.2c0-0.7-0.4-1.3-1-1.7c-0.7-0.3-1.4-0.2-2,0.2
			c-0.7,0.6-1.4,1.2-2,2h-14c-1.4,0.1-2.5,1.2-2.5,2.5v31c0,1.4,1.1,2.5,2.5,2.5H11l-2,7.6H7.2c-0.4,0-0.6,0.3-0.6,0.6
			c0,0.4,0.3,0.6,0.6,0.6h18.5c0.4,0,0.6-0.3,0.6-0.6c0-0.4-0.3-0.6-0.6-0.6h-1.9l-1.9-7.6H39c1.4,0,2.5-1.1,2.5-2.5v-31
			C41.4-4.3,40.3-5.4,38.9-5.4z M-7.3,23V1.6H5.9c0.1,2.5,1.2,4.8,3,6.6c1,1,2.1,1.7,3.3,2.3V23H-7.3z M13.5,11
			c0.9,0.3,1.9,0.4,2.8,0.4c1,0,2-0.1,2.8-0.4v9.3c0,0.4,0.3,0.6,0.6,0.6s0.6-0.3,0.6-0.6v-9.7c3.6-1.5,6.1-4.9,6.4-8.9H40v21.4
			H13.5V11z M38.9-4.2c0.7,0,1.2,0.6,1.2,1.2v3.4H26.9c-0.1-1.7-0.5-3.3-1.3-4.6H38.9z M10.8-6.4c0.1-0.1,0.2-0.1,0.4-0.1
			c0.1,0,0.2,0,0.3,0.1s0.4,0.2,0.4,0.5v4.2c0,1,0.8,1.8,1.8,1.8h5.6c1,0,1.8-0.8,1.8-1.8v-4.2c0-0.4,0.2-0.5,0.4-0.5
			c0.2-0.1,0.4-0.1,0.7,0.1c2.3,1.7,3.6,4.4,3.6,7.3c0,5.1-4.1,9.3-9.3,9.3c-2.5,0-4.8-1-6.6-2.8C8,5.6,7,3.3,7.1,0.8
			C7.2-2.1,8.5-4.7,10.8-6.4z M-6.1-4.2H7.3C6.5-2.9,6.1-1.3,6,0.4H-7.3V-3C-7.3-3.7-6.8-4.2-6.1-4.2z M22.5,38H10.3l2-7.6h8.4
			L22.5,38z M38.9,29.2h-45c-0.7,0-1.2-0.6-1.2-1.2v-3.7h47.5v3.6C40.1,28.6,39.5,29.2,38.9,29.2z"/>
	</g>
	<path class="st5" d="M13.4,18.9h-1.8c-0.4,0-0.7-0.3-0.7-0.7s0.3-0.7,0.7-0.7h1.8c0.4,0,0.7,0.3,0.7,0.7
		C14,18.6,13.7,18.9,13.4,18.9z"/>
	<path class="st5" d="M16.5,18.9h-0.8c-0.4,0-0.7-0.3-0.7-0.7s0.3-0.7,0.7-0.7h0.8c0.4,0,0.7,0.3,0.7,0.7
		C17.1,18.6,16.8,18.9,16.5,18.9z"/>
	<path class="st5" d="M16.5,21.4h-5c-0.4,0-0.7-0.3-0.7-0.7s0.3-0.7,0.7-0.7h5c0.4,0,0.7,0.3,0.7,0.7C17.1,21.1,16.8,21.4,16.5,21.4
		z"/>
	<path class="st5" d="M5.9,20.8c-0.1,0-0.3-0.1-0.4-0.1l-0.9-0.9c-0.2-0.2-0.2-0.7,0-0.9s0.7-0.2,0.9,0l0.4,0.4l1.5-1.5
		c0.2-0.2,0.7-0.2,0.9,0s0.2,0.7,0,0.9l-2,2C6.2,20.7,6,20.8,5.9,20.8z"/>
	<path class="st5" d="M13.4,25.6h-1.8c-0.4,0-0.7-0.3-0.7-0.7s0.3-0.7,0.7-0.7h1.8c0.4,0,0.7,0.3,0.7,0.7
		C14,25.3,13.7,25.6,13.4,25.6z"/>
	<path class="st5" d="M16.5,25.6h-0.8c-0.4,0-0.7-0.3-0.7-0.7s0.3-0.7,0.7-0.7h0.8c0.4,0,0.7,0.3,0.7,0.7
		C17.1,25.3,16.8,25.6,16.5,25.6z"/>
	<path class="st5" d="M16.5,28h-5c-0.4,0-0.7-0.3-0.7-0.7s0.3-0.7,0.7-0.7h5c0.4,0,0.7,0.3,0.7,0.7C17.1,27.7,16.8,28,16.5,28z"/>
	<path class="st5" d="M5.9,27.5c-0.1,0-0.3-0.1-0.4-0.1l-0.9-0.9c-0.2-0.2-0.2-0.7,0-0.9s0.7-0.2,0.9,0L5.9,26l1.5-1.5
		c0.2-0.2,0.7-0.2,0.9,0s0.2,0.7,0,0.9l-2,2C6.2,27.4,6,27.5,5.9,27.5z"/>
	<path class="st5" d="M41.7,18.9h-1.8c-0.4,0-0.7-0.3-0.7-0.7s0.3-0.7,0.7-0.7h1.8c0.4,0,0.7,0.3,0.7,0.7
		C42.3,18.6,42.1,18.9,41.7,18.9z"/>
	<path class="st5" d="M44.8,18.9H44c-0.4,0-0.7-0.3-0.7-0.7s0.3-0.7,0.7-0.7h0.8c0.4,0,0.7,0.3,0.7,0.7S45.2,18.9,44.8,18.9z"/>
	<path class="st5" d="M44.8,21.4h-5c-0.4,0-0.7-0.3-0.7-0.7s0.3-0.7,0.7-0.7h5c0.4,0,0.7,0.3,0.7,0.7S45.2,21.4,44.8,21.4z"/>
	<path class="st5" d="M34.2,20.8c-0.1,0-0.3-0.1-0.4-0.1l-0.9-0.9c-0.2-0.2-0.2-0.7,0-0.9c0.2-0.2,0.7-0.2,0.9,0l0.4,0.4l1.5-1.5
		c0.2-0.2,0.7-0.2,0.9,0c0.2,0.2,0.2,0.7,0,0.9l-2,2C34.5,20.7,34.4,20.8,34.2,20.8z"/>
	<path class="st5" d="M41.7,25.6h-1.8c-0.4,0-0.7-0.3-0.7-0.7s0.3-0.7,0.7-0.7h1.8c0.4,0,0.7,0.3,0.7,0.7
		C42.3,25.3,42.1,25.6,41.7,25.6z"/>
	<path class="st5" d="M44.8,25.6H44c-0.4,0-0.7-0.3-0.7-0.7s0.3-0.7,0.7-0.7h0.8c0.4,0,0.7,0.3,0.7,0.7S45.2,25.6,44.8,25.6z"/>
	<path class="st5" d="M44.8,28h-5c-0.4,0-0.7-0.3-0.7-0.7s0.3-0.7,0.7-0.7h5c0.4,0,0.7,0.3,0.7,0.7S45.2,28,44.8,28z"/>
	<path class="st5" d="M34.2,27.5c-0.1,0-0.3-0.1-0.4-0.1l-0.9-0.9c-0.2-0.2-0.2-0.7,0-0.9c0.2-0.2,0.7-0.2,0.9,0l0.4,0.4l1.5-1.5
		c0.2-0.2,0.7-0.2,0.9,0c0.2,0.2,0.2,0.7,0,0.9l-2,2C34.5,27.4,34.4,27.5,34.2,27.5z"/>
</g>
</svg>
