<?xml version="1.0" encoding="utf-8"?>
<!-- Generator: Adobe Illustrator 24.0.2, SVG Export Plug-In . SVG Version: 6.00 Build 0)  -->
<svg version="1.1" id="Layer_1" xmlns="http://www.w3.org/2000/svg" xmlns:xlink="http://www.w3.org/1999/xlink" x="0px" y="0px"
	 viewBox="0 0 54 48" style="enable-background:new 0 0 54 48;" xml:space="preserve">
<style type="text/css">
	.st0{fill:#FC6A55;}
	.st1{stroke:#FFFFFF;stroke-width:0.25;stroke-miterlimit:10;}
	.st2{fill:#656D7A;}
	.st3{fill:#FFFFFF;}
	.st4{filter:url(#Adobe_OpacityMaskFilter);}
	.st5{fill-rule:evenodd;clip-rule:evenodd;fill:#FFFFFF;}
	.st6{mask:url(#mask-2_8_);fill-rule:evenodd;clip-rule:evenodd;}
	.st7{filter:url(#Adobe_OpacityMaskFilter_1_);}
	.st8{mask:url(#mask-2_7_);fill-rule:evenodd;clip-rule:evenodd;}
	.st9{filter:url(#Adobe_OpacityMaskFilter_2_);}
	.st10{mask:url(#mask-2_6_);fill-rule:evenodd;clip-rule:evenodd;}
	.st11{filter:url(#Adobe_OpacityMaskFilter_3_);}
	.st12{mask:url(#mask-2_5_);fill-rule:evenodd;clip-rule:evenodd;}
	.st13{filter:url(#Adobe_OpacityMaskFilter_4_);}
	.st14{mask:url(#mask-2_2_);fill:none;stroke:#000000;stroke-width:2;}
	.st15{fill:#FFFFFF;stroke:#F9F9F9;stroke-width:0.25;stroke-miterlimit:10;}
	.st16{fill:none;stroke:#FC6A55;stroke-width:0.5;stroke-miterlimit:10;}
</style>
<g>
	<g>
		<path class="st15" d="M39.4,33.9L35,32.4l-1.6-3.1c1.4-1.4,2.4-3.3,2.7-5.3l0.2-1.2H38c1.5,0,2.8-1.2,2.8-2.8v-5.8
			c0-7.6-6.2-13.8-13.8-13.8c-7.6,0-13.8,6.2-13.8,13.8v5.8c0,1.2,0.8,2.2,1.8,2.6v1.1c0,1.5,1.2,2.8,2.8,2.8h0.8
			c0.4,0.9,0.9,1.7,1.5,2.4c0.1,0.1,0.3,0.3,0.4,0.4L19,32.4l-4.4,1.5c-5.1,1.7-8.8,7-8.8,12.7c0,0.5,0.4,0.9,0.9,0.9h40.4
			c0.5,0,0.9-0.4,0.9-0.9C48.1,40.9,44.4,35.6,39.4,33.9z M38.9,20.1c0,0.5-0.4,0.9-0.9,0.9h-1.4c0.2-1.8,0.4-3.7,0.5-5.6
			c0-0.1,0-0.1,0-0.2h1.9V20.1z M16,21c-0.5,0-0.9-0.4-0.9-0.9v-4.9h1.9c0,0.1,0,0.2,0,0.3c0,0,0,0,0,0c0,0,0,0,0,0
			c0.1,1.8,0.2,3.7,0.4,5.5L16,21L16,21z M17.8,24.6c-0.5,0-0.9-0.4-0.9-0.9v-0.9h0.8l0.2,1.2c0,0.2,0.1,0.4,0.1,0.7H17.8z
			 M16.9,13.4h-1.8c0.5-6.2,5.6-11,11.9-11c6.3,0,11.4,4.9,11.9,11h-1.8c-0.1-5.1-4.2-9.2-9.3-9.2h-1.6C21.1,4.2,17,8.3,16.9,13.4z
			 M26.2,6h1.6c4.1,0,7.4,3.4,7.4,7.5c0,0.3,0,0.5,0,0.8c0,0,0,0,0,0l-1.1-0.2c-3.1-0.4-6.1-1.9-8.3-4.1c-0.2-0.2-0.4-0.3-0.6-0.3
			c-2.5,0-4.8,1.1-6.4,3C19.2,9,22.3,6,26.2,6z M19.9,24.6c-0.5-1.5-1-6-1.1-8.9l1.2-1.6c1.1-1.5,2.9-2.5,4.8-2.6
			c2.5,2.4,5.7,3.9,9,4.4l1.4,0.2c-0.1,1.9-0.3,3.8-0.5,5.6c0,0,0,0,0,0c-0.1,0.6-0.2,0.9-0.3,2c-0.5,2.9-2.7,5.6-5.5,6.3
			c-1.2,0.3-2.4,0.3-3.6,0c-1.8-0.4-3.4-1.7-4.5-3.5h1.9c0.4,1.1,1.4,1.8,2.6,1.8H27c1.5,0,2.8-1.2,2.8-2.8c0-1.5-1.2-2.8-2.8-2.8
			h-1.8c-1.2,0-2.2,0.8-2.6,1.8H19.9z M25.1,31.8c0.6,0.1,1.3,0.2,1.9,0.2c0.5,0,1,0,1.5-0.1l-1.6,1.7L25.1,31.8z M25.6,34.9
			L22.7,38c-0.8-1.5-1.5-3.1-2.1-4.8l1.1-2.2L25.6,34.9z M32.1,30.7l1.2,2.5c-0.6,1.6-1.3,3.2-2.1,4.8l-3.1-3.1L32.1,30.7z
			 M24.2,25.6c0-0.5,0.4-0.9,0.9-0.9H27c0.5,0,0.9,0.4,0.9,0.9c0,0.5-0.4,0.9-0.9,0.9h-1.8C24.7,26.5,24.2,26.1,24.2,25.6z
			 M7.8,45.7c0.4-4.5,3.4-8.7,7.5-10l3.9-1.3c0.7,2,1.6,3.9,2.6,5.7c0,0,0,0,0,0c0,0,0,0,0,0c0.8,1.3,1.6,2.6,2.5,3.8l1.1,1.8H7.8z
			 M27,44.8l-1.2-2c0,0,0,0,0-0.1c-0.7-1-1.4-2-2.1-3.1l3.3-3.5l3.4,3.4c-0.6,1.1-1.3,2.1-2.1,3.1C28.2,42.8,28.3,42.7,27,44.8z
			 M28.7,45.7l1.1-1.8c0.9-1.2,1.8-2.5,2.5-3.9c0,0,0,0,0,0c0,0,0,0,0,0c1-1.8,1.9-3.7,2.6-5.6l3.9,1.3c4.1,1.4,7.1,5.5,7.5,10
			L28.7,45.7L28.7,45.7z"/>
	</g>
</g>
</svg>
