<?xml version="1.0" encoding="utf-8"?>
<!-- Generator: Adobe Illustrator 24.0.2, SVG Export Plug-In . SVG Version: 6.00 Build 0)  -->
<svg version="1.1" id="Layer_1" xmlns="http://www.w3.org/2000/svg" xmlns:xlink="http://www.w3.org/1999/xlink" x="0px" y="0px"
	 viewBox="0 0 42 42" style="enable-background:new 0 0 42 42;" xml:space="preserve">
<style type="text/css">
	.st0{fill:#FC6A55;}
	.st1{stroke:#FFFFFF;stroke-width:0.25;stroke-miterlimit:10;}
	.st2{fill:#656D7A;}
	.st3{fill:#FFFFFF;}
	.st4{filter:url(#Adobe_OpacityMaskFilter);}
	.st5{fill-rule:evenodd;clip-rule:evenodd;fill:#FFFFFF;}
	.st6{mask:url(#mask-2_8_);fill-rule:evenodd;clip-rule:evenodd;}
	.st7{filter:url(#Adobe_OpacityMaskFilter_1_);}
	.st8{mask:url(#mask-2_7_);fill-rule:evenodd;clip-rule:evenodd;}
	.st9{filter:url(#Adobe_OpacityMaskFilter_2_);}
	.st10{mask:url(#mask-2_6_);fill-rule:evenodd;clip-rule:evenodd;}
	.st11{filter:url(#Adobe_OpacityMaskFilter_3_);}
	.st12{mask:url(#mask-2_5_);fill-rule:evenodd;clip-rule:evenodd;}
	.st13{filter:url(#Adobe_OpacityMaskFilter_4_);}
	.st14{mask:url(#mask-2_2_);fill:none;stroke:#000000;stroke-width:2;}
	.st15{fill:#434343;}
	.st16{fill:#434343;stroke:#F9F9F9;stroke-width:0.25;stroke-miterlimit:10;}
	.st17{fill:none;stroke:#FC6A55;stroke-width:0.5;stroke-miterlimit:10;}
	.st18{fill:none;stroke:#FC6A55;stroke-width:0.75;stroke-miterlimit:10;}
	.st19{fill:#FC6A55;stroke:#FC6A55;stroke-width:0.5;stroke-miterlimit:10;}
	.st20{opacity:0.153;fill:url(#Path_144_);enable-background:new    ;}
	.st21{opacity:0.1;fill:#590BB2;enable-background:new    ;}
	.st22{fill:#8E8CA8;}
	.st23{fill:#F5F4F9;}
	.st24{fill:#FFD5B8;}
	.st25{fill:#FC8473;}
	.st26{fill:#1C3475;}
	.st27{fill:#DDD9E4;}
	.st28{fill:#828FB3;}
	.st29{opacity:7.584635e-02;fill:url(#Path_145_);enable-background:new    ;}
	.st30{fill:#FFBE92;}
	.st31{fill:#FB8E7F;}
	.st32{fill:#FDB1A6;}
	.st33{fill:#FC806F;}
	.st34{fill:#FFE783;}
	.st35{fill:#104478;}
</style>
<g>
	<g>
		<path class="st3" d="M37.3,35.3L36.6,35c3.5-3.9,5.4-8.8,5.4-14c0-4.3-1.3-8.4-3.6-11.8c0-0.1-0.1-0.1-0.1-0.2
			c-1-1.5-2.3-2.8-3.7-4c-0.3-0.2-0.7-0.2-0.9,0.1c-0.2,0.3-0.2,0.7,0.1,0.9c1.1,1,2.1,2,3,3.2c-1.4,0.5-3.1,1-5,1.4
			c-0.5-1.5-1.2-3-1.9-4.3c-1-1.8-2.2-3.2-3.4-4.2c2,0.6,3.9,1.4,5.6,2.6c0.3,0.2,0.7,0.1,0.9-0.2c0.2-0.3,0.1-0.7-0.2-0.9
			C29.3,1.2,25.2,0,21,0C15.4,0,10.1,2.2,6.2,6.2C2.2,10.1,0,15.4,0,21c0,5.2,1.9,10.2,5.4,14l-0.7,0.3c-0.3,0.1-2.4,0.9-2.4,3.7
			v2.4C2.3,41.7,2.6,42,3,42h3.8h0.6h0.7h3.4h1.3c0,0,0.1,0,0.1,0c0,0,0.1,0,0.1,0h2.7c0.4,0,0.7-0.3,0.7-0.7c0-0.4-0.3-0.7-0.7-0.7
			h-2v-2.3c0-2.4,1.9-3.1,2-3.2c0,0,0,0,0,0l3.2-1.3c0,0,0,0,0,0l1.7,1.7c0.1,0.1,0.3,0.2,0.5,0.2c0,0,0,0,0,0
			c0.2,0,0.3-0.1,0.5-0.2l1.6-1.7l3.2,1.3c0,0,0,0,0,0c0.1,0,2,0.7,2,3.2v2.3h-4.9h-5.1h-0.7c-0.4,0-0.7,0.3-0.7,0.7
			c0,0.4,0.3,0.7,0.7,0.7h0.7h5.1h5.5h0h0h0.8h0.6h0.7h3.4H39c0.4,0,0.7-0.3,0.7-0.7V39C39.7,36.3,37.6,35.4,37.3,35.3z M35.3,34.5
			l-0.7-0.3v-0.4c0.7-0.4,1.3-1.1,1.5-1.9c1-0.1,1.7-0.9,1.7-1.9c0-0.6-0.3-1.1-0.7-1.5v-1.2c0-2.3-1.7-4.2-3.9-4.4
			c0-0.4,0-0.9,0.1-1.4h7.3C40.5,26.5,38.6,31,35.3,34.5z M32.9,33h-0.6c-1.2,0-2.1-1-2.1-2.1v-1.8l0,0c0.9-0.1,2.4-0.4,3.6-1.4
			c0.3,0.5,0.7,0.9,1.3,1.2v1.9C35,32.1,34.1,33,32.9,33z M33.3,34.3v0.4l-0.7,0.8l-0.7-0.7v-0.5c0.1,0,0.3,0,0.4,0h0.6
			C33.1,34.3,33.2,34.3,33.3,34.3z M29.5,27.8C29.5,27.8,29.5,27.8,29.5,27.8C29.5,27.8,29.5,27.8,29.5,27.8
			C29.4,27.9,29.4,27.9,29.5,27.8c-0.1,0-0.1,0-0.1,0c0,0,0,0,0,0c0,0,0,0,0,0c0,0,0,0,0,0v-0.4c0-1.7,1.4-3.1,3.1-3.1h0.3
			c1.7,0,3.1,1.4,3.1,3.1v0.4c0,0,0,0,0,0c0,0,0,0,0,0c-0.9-0.2-1.2-1.4-1.2-1.5c-0.1-0.3-0.3-0.5-0.5-0.5c-0.3-0.1-0.5,0-0.7,0.3
			C32.2,27.8,29.6,27.8,29.5,27.8z M36.4,30.5v-0.9c0.1,0.1,0.2,0.3,0.2,0.4S36.5,30.4,36.4,30.5z M37.5,10.3c1.9,3,3,6.4,3.1,10
			h-7.3c-0.1-3-0.5-5.9-1.2-8.5C34.2,11.4,36,10.9,37.5,10.3z M32.1,20.3h-6.8c0,0,0,0,0,0c-0.9-1-2.2-1.7-3.6-1.8v-5.7
			c3.3,0,6.4-0.3,9.2-0.8C31.6,14.6,32,17.4,32.1,20.3z M26.2,27.3c0,0.4-0.3,0.7-0.6,0.8v-1.6C25.9,26.5,26.2,26.9,26.2,27.3z
			 M21.7,1.4c2.6,0.3,5.1,2.2,7.1,5.6c0.7,1.2,1.3,2.5,1.7,3.9c-2.7,0.4-5.7,0.7-8.8,0.7L21.7,1.4L21.7,1.4z M21.2,19.9
			c2.3,0,4.1,1.8,4.1,4.1v0.8c0,0,0,0,0,0c0,0,0,0,0,0c0,0,0,0,0,0c0,0,0,0,0,0c0,0,0,0,0,0c0,0,0,0,0,0c0,0,0,0,0,0c0,0,0,0,0,0
			c0,0,0,0,0,0c0,0,0,0,0,0c-1.3-0.3-1.7-1.9-1.7-1.9c-0.1-0.3-0.3-0.5-0.5-0.5c-0.3-0.1-0.5,0-0.7,0.3c-1.6,2.1-5,2.2-5,2.2
			c0,0,0,0,0,0c0,0,0,0,0,0c0,0,0,0-0.1,0c0,0,0,0,0,0c0,0,0,0,0,0c0,0,0,0,0,0c0,0,0,0,0,0c0,0,0,0,0,0c0,0,0,0,0,0c0,0,0,0,0,0
			c0,0,0,0,0,0c0,0,0,0,0,0c0,0,0,0,0,0c0,0,0,0,0,0c0,0,0,0,0,0c0,0,0,0,0,0V24c0-2.3,1.8-4.1,4.1-4.1L21.2,19.9L21.2,19.9z
			 M9.9,20.3c0.1-2.9,0.5-5.7,1.2-8.2c2.8,0.5,5.9,0.7,9.2,0.8v5.7c-1.4,0.1-2.6,0.8-3.5,1.8c0,0,0,0-0.1,0L9.9,20.3L9.9,20.3z
			 M16.5,26.4v1.7c-0.4-0.1-0.6-0.4-0.6-0.8C15.9,26.9,16.2,26.5,16.5,26.4z M20.3,1.4v10.2c-3.1,0-6.1-0.3-8.8-0.7
			C12,9.4,12.6,8.1,13.3,7C15.2,3.6,17.7,1.6,20.3,1.4z M15.6,2.1c-1.3,1-2.4,2.4-3.4,4.2c-0.8,1.3-1.4,2.7-1.9,4.3
			c-1.9-0.4-3.6-0.8-5-1.4C7.8,5.8,11.4,3.3,15.6,2.1z M4.5,10.3c1.5,0.6,3.3,1.1,5.3,1.5c-0.7,2.6-1.2,5.5-1.2,8.5H1.3
			C1.5,16.7,2.6,13.2,4.5,10.3z M8.8,34.3c0.1,0,0.3,0,0.4,0h0.6c0.1,0,0.3,0,0.4,0v0.4l-0.7,0.8l-0.7-0.7
			C8.8,34.8,8.8,34.3,8.8,34.3z M9.8,33H9.2C8,33,7,32.1,7,30.9v-1.8c0.9-0.1,2.4-0.4,3.6-1.4c0.3,0.5,0.7,0.9,1.3,1.2v1.9
			C11.9,32.1,11,33,9.8,33z M11.5,26.4c-0.1-0.3-0.3-0.5-0.5-0.5c-0.3-0.1-0.5,0-0.7,0.3c-1.2,1.7-3.9,1.7-3.9,1.7c0,0,0,0,0,0
			c0,0,0,0-0.1,0c0,0,0,0,0,0c0,0,0,0,0,0c0,0,0,0,0,0c0,0,0,0,0,0c0,0,0,0,0,0v-0.4c0-1.7,1.4-3.1,3.1-3.1h0.3
			c1.7,0,3.1,1.4,3.1,3.1v0.4h0c0,0,0,0,0,0c0,0,0,0,0,0C11.8,27.7,11.5,26.4,11.5,26.4z M1.3,21.7h7.3c0,0.5,0,0.9,0.1,1.4
			c-2.2,0.3-3.8,2.2-3.8,4.4v1.2c-0.4,0.3-0.7,0.9-0.7,1.5c0,1,0.8,1.8,1.7,1.9c0.3,0.8,0.8,1.5,1.5,1.9v0.4l-0.7,0.3
			C3.4,31,1.5,26.5,1.3,21.7z M5.7,29.6v0.9c-0.2-0.1-0.3-0.3-0.3-0.5C5.5,29.9,5.6,29.7,5.7,29.6z M12.3,38.4v2.3h-0.8H8.1H7.4H6.8
			H3.6V39c0-1.8,1.4-2.4,1.5-2.4c0,0,0,0,0,0l2.5-1L9,36.9C9.1,37,9.3,37,9.5,37c0,0,0,0,0,0c0.2,0,0.3-0.1,0.5-0.2l1.3-1.3l1.6,0.6
			C12.5,36.8,12.3,37.5,12.3,38.4z M18.7,32.6l-3.5,1.4c-0.4,0.2-1.1,0.5-1.6,1.1l-2-0.8v-0.4c0.7-0.4,1.3-1.1,1.5-1.9
			c1-0.1,1.7-0.9,1.7-1.9c0-0.6-0.3-1.1-0.7-1.5v-1.2c0-2.3-1.8-4.3-4.1-4.5c0-0.4,0-0.9-0.1-1.3h6c-0.3,0.7-0.5,1.5-0.5,2.3v1.5
			c-0.5,0.4-0.9,1-0.9,1.7c0,1.2,1,2.2,2.1,2.2c0.3,1.1,1,1.9,2,2.5L18.7,32.6L18.7,32.6z M13.2,30.5v-0.9c0.1,0.1,0.2,0.3,0.2,0.4
			C13.5,30.3,13.4,30.4,13.2,30.5z M22.1,33C22.1,33,22.1,33,22.1,33L22.1,33L21,34.2l-1-1v-0.8c0.2,0,0.5,0.1,0.7,0.1h0.8
			c0.2,0,0.5,0,0.7-0.1V33z M21.4,31.1h-0.8c-1.6,0-2.8-1.3-2.8-2.8v-2.3c1.1-0.1,3.2-0.5,4.7-1.8c0.3,0.6,0.9,1.3,1.7,1.7v2.5
			C24.3,29.8,23,31.1,21.4,31.1z M28.5,35c-0.6-0.6-1.2-0.9-1.6-1.1l-3.4-1.4v-0.7c0.9-0.5,1.7-1.4,2-2.5c1.2,0,2.1-1,2.1-2.2
			c0-0.7-0.3-1.3-0.9-1.7V24c0-0.8-0.2-1.6-0.5-2.3h5.9c0,0.4,0,0.9-0.1,1.3c-2.3,0.2-4,2.1-4,4.4v1.2c-0.4,0.3-0.7,0.9-0.7,1.5
			c0,1,0.8,1.8,1.7,1.9c0.3,0.8,0.8,1.5,1.5,1.9v0.4L28.5,35z M28.9,29.6v0.9c-0.2-0.1-0.3-0.3-0.3-0.5
			C28.6,29.9,28.7,29.7,28.9,29.6z M38.4,40.7h-3.7h-3.4h-0.7h-0.6h-0.2v-2.3c0-0.9-0.2-1.6-0.5-2.2l1.5-0.6l1.3,1.3
			c0.1,0.1,0.3,0.2,0.5,0.2c0,0,0,0,0,0c0.2,0,0.3-0.1,0.5-0.2l1.3-1.3l2.5,1c0,0,0,0,0,0c0.1,0,1.5,0.6,1.5,2.4L38.4,40.7
			L38.4,40.7z"/>
	</g>
</g>
</svg>
