<?xml version="1.0" encoding="utf-8"?>
<!-- Generator: Adobe Illustrator 24.2.0, SVG Export Plug-In . SVG Version: 6.00 Build 0)  -->
<svg version="1.1" id="Layer_1" xmlns="http://www.w3.org/2000/svg" xmlns:xlink="http://www.w3.org/1999/xlink" x="0px" y="0px"
	 viewBox="0 0 50 47" style="enable-background:new 0 0 50 47;" xml:space="preserve">
<style type="text/css">
	.st0{fill:#FC6A55;}
	.st1{fill:#EDEDED;}
	.st2{fill:none;stroke:#FC6A55;stroke-miterlimit:10;}
	.st3{fill:#222F3F;}
	.st4{fill:#383838;}
	.st5{fill:#FFFFFF;}
	.st6{fill:#B0B0B0;}
	.st7{fill:#656D7A;}
	.st8{fill:#C4C4C4;}
	.st9{filter:url(#Adobe_OpacityMaskFilter);}
	.st10{fill-rule:evenodd;clip-rule:evenodd;fill:#FFFFFF;}
	.st11{mask:url(#mask-2_8_);fill-rule:evenodd;clip-rule:evenodd;fill:#B0B0B0;}
	.st12{filter:url(#Adobe_OpacityMaskFilter_1_);}
	.st13{mask:url(#mask-2_7_);fill-rule:evenodd;clip-rule:evenodd;fill:#B0B0B0;}
	.st14{filter:url(#Adobe_OpacityMaskFilter_2_);}
	.st15{mask:url(#mask-2_6_);fill-rule:evenodd;clip-rule:evenodd;fill:#B0B0B0;}
	.st16{filter:url(#Adobe_OpacityMaskFilter_3_);}
	.st17{mask:url(#mask-2_5_);fill-rule:evenodd;clip-rule:evenodd;fill:#B0B0B0;}
	.st18{filter:url(#Adobe_OpacityMaskFilter_4_);}
	.st19{mask:url(#mask-2_2_);fill:none;stroke:#B0B0B0;stroke-width:1.5;stroke-miterlimit:10;}
	.st20{filter:url(#Adobe_OpacityMaskFilter_5_);}
	.st21{mask:url(#mask-2_10_);fill-rule:evenodd;clip-rule:evenodd;fill:#FC6A55;}
	.st22{filter:url(#Adobe_OpacityMaskFilter_6_);}
	.st23{mask:url(#mask-2_9_);fill-rule:evenodd;clip-rule:evenodd;fill:#FC6A55;}
	.st24{filter:url(#Adobe_OpacityMaskFilter_7_);}
	.st25{mask:url(#mask-2_4_);fill-rule:evenodd;clip-rule:evenodd;fill:#FC6A55;}
	.st26{filter:url(#Adobe_OpacityMaskFilter_8_);}
	.st27{mask:url(#mask-2_3_);fill-rule:evenodd;clip-rule:evenodd;fill:#FC6A55;}
	.st28{filter:url(#Adobe_OpacityMaskFilter_9_);}
	.st29{mask:url(#mask-2_1_);fill:none;stroke:#FC6A55;stroke-width:1.5;stroke-miterlimit:10;}
	.st30{fill:#B4A3EE;}
	.st31{fill:#222121;}
	.st32{fill:#434343;}
	.st33{fill:#434343;stroke:#F9F9F9;stroke-width:0.25;stroke-miterlimit:10;}
	.st34{fill:none;stroke:#FC6A55;stroke-width:0.75;stroke-miterlimit:10;}
	.st35{fill:#FC6A55;stroke:#FC6A55;stroke-width:0.25;stroke-miterlimit:10;}
	.st36{fill:#FC6A55;stroke:#FC6A55;stroke-width:0.5;stroke-miterlimit:10;}
	.st37{opacity:0.5;fill:#FC6A55;}
	.st38{fill:#F5F4F9;}
	.st39{opacity:0.153;fill:url(#Path_144_);enable-background:new    ;}
	.st40{opacity:0.1;fill:#590BB2;enable-background:new    ;}
	.st41{fill:#8E8CA8;}
	.st42{fill:#FFD5B8;}
	.st43{fill:#FC8473;}
	.st44{fill:#1C3475;}
	.st45{fill:#DDD9E4;}
	.st46{fill:#828FB3;}
	.st47{opacity:7.584635e-02;fill:url(#Path_145_);enable-background:new    ;}
	.st48{fill:#FFBE92;}
	.st49{fill:#FB8E7F;}
	.st50{fill:#FDB1A6;}
	.st51{fill:#FC806F;}
	.st52{fill:#FFE783;}
	.st53{fill:#104478;}
	.st54{fill:none;stroke:#FFFFFF;stroke-miterlimit:10;}
	.st55{fill:none;stroke:#000000;stroke-width:0.15;stroke-miterlimit:10;}
	.st56{opacity:0.3;fill:#FC6A55;}
	.st57{opacity:0.4;fill:#FC6A55;}
	.st58{opacity:0.1;fill:url(#Path_147_);enable-background:new    ;}
	.st59{opacity:0.1;fill:url(#Path_150_);enable-background:new    ;}
	.st60{fill-rule:evenodd;clip-rule:evenodd;fill:#FC6A55;}
	.st61{fill-rule:evenodd;clip-rule:evenodd;}
	.st62{fill:#FF6757;}
	.st63{fill:#6C973D;}
	.st64{fill:none;stroke:#FFFFFF;stroke-width:0.5;stroke-miterlimit:10;}
	.st65{fill:#606060;}
	.st66{fill:#F16A56;}
	.st67{fill:#515252;}
	.st68{fill:#656565;}
	.st69{fill:#F26A56;}
	.st70{fill:none;stroke:#F16A56;stroke-miterlimit:10;}
	.st71{fill:none;stroke:#929292;stroke-miterlimit:10;}
	.st72{fill:#929292;}
	.st73{fill:none;stroke:#000000;stroke-width:0.5;stroke-miterlimit:10;}
	.st74{fill:#A8A7A7;}
	.st75{fill:#F79F91;}
	.st76{fill:#9BDBD5;}
	.st77{stroke:#000000;stroke-width:0.25;stroke-miterlimit:10;}
</style>
<g>
	<path class="st5" d="M26.4,11.1H20c-0.3,0-0.5-0.3-0.5-0.5c0-0.3,0.3-0.5,0.5-0.5h6.4c0.3,0,0.5,0.3,0.5,0.5
		C26.9,10.9,26.7,11.1,26.4,11.1z"/>
	<path class="st5" d="M23.4,8.8H20c-0.3,0-0.5-0.3-0.5-0.5c0-0.3,0.3-0.5,0.5-0.5h3.4C23.7,7.7,24,8,24,8.3S23.8,8.8,23.4,8.8z"/>
	<path class="st5" d="M10.7,29H4c-0.3,0-0.5-0.3-0.5-0.5S3.7,28,4,28h6.7c0.3,0,0.5,0.3,0.5,0.5C11.2,28.8,11,29,10.7,29z"/>
	<path class="st5" d="M28.4,29h-6.7c-0.3,0-0.5-0.3-0.5-0.5c0-0.3,0.3-0.5,0.5-0.5h6.7c0.3,0,0.5,0.3,0.5,0.5
		C28.9,28.8,28.6,29,28.4,29z"/>
	<path class="st5" d="M46,29h-6.7c-0.3,0-0.5-0.3-0.5-0.5c0-0.3,0.3-0.5,0.5-0.5H46c0.3,0,0.5,0.3,0.5,0.5C46.5,28.8,46.3,29,46,29z
		"/>
	<path class="st5" d="M18.8,44h-6.7c-0.3,0-0.5-0.3-0.5-0.5c0-0.3,0.3-0.5,0.5-0.5h6.7c0.3,0,0.5,0.3,0.5,0.5
		C19.4,43.7,19.2,44,18.8,44z"/>
	<path class="st5" d="M37.8,44h-6.7c-0.3,0-0.5-0.3-0.5-0.5c0-0.3,0.3-0.5,0.5-0.5h6.7c0.3,0,0.5,0.3,0.5,0.5
		C38.4,43.7,38.2,44,37.8,44z"/>
	<path class="st5" d="M48.3,21.8h-5.1c0-1.5-1.2-2.7-2.7-2.7h-15v-3.9h6.8c0.9,0,1.6-0.8,1.6-1.6V7.1c0-0.3-0.3-0.5-0.5-0.5
		s-0.5,0.3-0.5,0.5v6.4c0,0.3-0.3,0.5-0.5,0.5H17.7c-0.3,0-0.5-0.3-0.5-0.5V4.7h16.2c0.3,0,0.5-0.3,0.5-0.5V1.6
		c0-0.9-0.8-1.6-1.6-1.6H17.7C16.8,0,16,0.8,16,1.6v11.9c0,0.9,0.8,1.6,1.6,1.6h6.8V19H9.5c-1.5,0-2.7,1.2-2.7,2.7H1.6
		c-0.9,0-1.6,0.8-1.6,1.6v7C0,31.2,0.8,32,1.6,32H13c0.9,0,1.6-0.8,1.6-1.6v-6.9c0-0.9-0.8-1.6-1.6-1.6H7.9c0-0.9,0.8-1.6,1.6-1.6
		h14.9v1.6h-5.1c-0.9,0-1.6,0.8-1.6,1.6v7c0,0.9,0.8,1.6,1.6,1.6h5.1V34h-6.8c-1.5,0-2.7,1.2-2.7,2.7H9.8c-0.9,0.1-1.6,0.8-1.6,1.7
		v7C8.2,46.2,9,47,9.9,47h11.4c0.9,0,1.6-0.8,1.6-1.6v-7c0-0.9-0.8-1.6-1.6-1.6h-5.1c0-0.9,0.8-1.6,1.6-1.6h14.6
		c0.9,0,1.6,0.8,1.6,1.6h-5.2c-0.9,0-1.6,0.8-1.6,1.6v7c0,0.9,0.8,1.6,1.6,1.6h11.4c0.9,0,1.6-0.8,1.6-1.6v-7c0-0.9-0.8-1.6-1.6-1.6
		H35c0-1.5-1.2-2.7-2.7-2.7h-6.8v-2h5.1c0.9,0,1.6-0.8,1.6-1.6v-7c0-0.9-0.8-1.6-1.6-1.6h-5.1v-1.6h14.9c0.9,0,1.6,0.8,1.6,1.6h-5
		c-0.9,0-1.6,0.8-1.6,1.6v7c0,0.9,0.8,1.6,1.6,1.6h11.4c0.9,0,1.6-0.8,1.6-1.6v-7C49.9,22.5,49.2,21.8,48.3,21.8z M17.1,1.6
		c0-0.3,0.3-0.5,0.5-0.5h14.6c0.3,0,0.5,0.3,0.5,0.5v1.9H17.1L17.1,1.6z M13,31H1.6c-0.3,0-0.5-0.3-0.5-0.5v-4h12.4v4
		C13.6,30.7,13.3,31,13,31z M13.6,23.4v1.9H1.1v-1.9c0-0.3,0.3-0.5,0.5-0.5H13C13.3,22.9,13.6,23.2,13.6,23.4z M21.7,38.4v7
		c0,0.3-0.3,0.5-0.5,0.5H9.9c-0.3,0-0.5-0.3-0.5-0.5v-4h10c0.3,0,0.5-0.3,0.5-0.5s-0.3-0.5-0.5-0.5h-10v-1.9c0-0.3,0.3-0.5,0.5-0.5
		h11.4C21.4,37.8,21.7,38,21.7,38.4z M40.1,45.9H28.8c-0.3,0-0.5-0.3-0.5-0.5v-4h12.4v4C40.7,45.6,40.4,45.9,40.1,45.9z M40.7,38.4
		v1.9H28.2v-1.9c0-0.3,0.3-0.5,0.5-0.5h11.4C40.4,37.8,40.7,38,40.7,38.4z M30.7,31H19.3c-0.3,0-0.5-0.3-0.5-0.5v-4h12.4v4
		C31.2,30.7,31,31,30.7,31z M31.2,23.4v1.9H18.8v-1.9c0-0.3,0.3-0.5,0.5-0.5h11.4C31,22.9,31.2,23.2,31.2,23.4z M37,22.9h11.4
		c0.3,0,0.5,0.3,0.5,0.5v1.9H36.4v-1.9C36.4,23.2,36.6,22.9,37,22.9z M48.3,31H37c-0.3,0-0.5-0.3-0.5-0.5v-4h12.4v4
		C48.8,30.7,48.6,31,48.3,31z"/>
	<ellipse class="st5" cx="28.6" cy="7.7" rx="1.5" ry="1.5"/>
</g>
</svg>
