<?xml version="1.0" encoding="utf-8"?>
<!-- Generator: Adobe Illustrator 24.0.2, SVG Export Plug-In . SVG Version: 6.00 Build 0)  -->
<svg version="1.1" id="Layer_1" xmlns="http://www.w3.org/2000/svg" xmlns:xlink="http://www.w3.org/1999/xlink" x="0px" y="0px"
	 viewBox="0 0 16 16" style="enable-background:new 0 0 16 16;" xml:space="preserve">
<style type="text/css">
	.st0{fill:#FC6A55;}
	.st1{stroke:#FFFFFF;stroke-width:0.25;stroke-miterlimit:10;}
	.st2{fill:#656D7A;}
	.st3{fill:#FFFFFF;}
	.st4{filter:url(#Adobe_OpacityMaskFilter);}
	.st5{fill-rule:evenodd;clip-rule:evenodd;fill:#FFFFFF;}
	.st6{mask:url(#mask-2_8_);fill-rule:evenodd;clip-rule:evenodd;}
	.st7{filter:url(#Adobe_OpacityMaskFilter_1_);}
	.st8{mask:url(#mask-2_7_);fill-rule:evenodd;clip-rule:evenodd;}
	.st9{filter:url(#Adobe_OpacityMaskFilter_2_);}
	.st10{mask:url(#mask-2_6_);fill-rule:evenodd;clip-rule:evenodd;}
	.st11{filter:url(#Adobe_OpacityMaskFilter_3_);}
	.st12{mask:url(#mask-2_5_);fill-rule:evenodd;clip-rule:evenodd;}
	.st13{filter:url(#Adobe_OpacityMaskFilter_4_);}
	.st14{mask:url(#mask-2_2_);fill:none;stroke:#000000;stroke-width:2;}
</style>
<g id="final-design_7_">
	<g id="invensis.net-2.0-index-page_7_" transform="translate(-1407.000000, -7210.000000)">
		<g id="facebook_1_" transform="translate(1407.000000, 7210.000000)">
			<path id="Shape_14_" class="st2" d="M15.3,0H0.7C0.3,0,0,0.3,0,0.7v14.7C0,15.7,0.3,16,0.7,16H8v-5H6V8h2V6c0-2.1,1.2-3,3-3
				c0.9,0,1.8,0,2,0v3h-1c-0.6,0-1,0.4-1,1v1h2.6L13,11h-2v5h4.3c0.4,0,0.7-0.3,0.7-0.7V0.7C16,0.3,15.7,0,15.3,0z"/>
		</g>
	</g>
</g>
</svg>
