<?xml version="1.0" encoding="utf-8"?>
<!-- Generator: Adobe Illustrator 24.0.2, SVG Export Plug-In . SVG Version: 6.00 Build 0)  -->
<svg version="1.1" id="Layer_1" xmlns="http://www.w3.org/2000/svg" xmlns:xlink="http://www.w3.org/1999/xlink" x="0px" y="0px"
	 viewBox="0 0 16 16" style="enable-background:new 0 0 16 16;" xml:space="preserve">
<style type="text/css">
	.st0{fill:#FC6A55;}
	.st1{stroke:#FFFFFF;stroke-width:0.25;stroke-miterlimit:10;}
	.st2{fill:#656D7A;}
	.st3{fill:#FFFFFF;}
	.st4{filter:url(#Adobe_OpacityMaskFilter);}
	.st5{fill-rule:evenodd;clip-rule:evenodd;fill:#FFFFFF;}
	.st6{mask:url(#mask-2_8_);fill-rule:evenodd;clip-rule:evenodd;}
	.st7{filter:url(#Adobe_OpacityMaskFilter_1_);}
	.st8{mask:url(#mask-2_7_);fill-rule:evenodd;clip-rule:evenodd;}
	.st9{filter:url(#Adobe_OpacityMaskFilter_2_);}
	.st10{mask:url(#mask-2_6_);fill-rule:evenodd;clip-rule:evenodd;}
	.st11{filter:url(#Adobe_OpacityMaskFilter_3_);}
	.st12{mask:url(#mask-2_5_);fill-rule:evenodd;clip-rule:evenodd;}
	.st13{filter:url(#Adobe_OpacityMaskFilter_4_);}
	.st14{mask:url(#mask-2_2_);fill:none;stroke:#000000;stroke-width:2;}
</style>
<g id="final-design_5_">
	<g id="invensis.net-2.0-index-page_5_" transform="translate(-1487.000000, -7210.000000)">
		<g id="instagram" transform="translate(1487.000000, 7210.000000)">
			<ellipse id="Oval" class="st2" cx="12.1" cy="3.9" rx="1" ry="1"/>
			<path id="Shape_13_" class="st2" d="M8,12c-2.2,0-4-1.8-4-4s1.8-4,4-4s4,1.8,4,4S10.2,12,8,12z M8,6C6.9,6,6,6.9,6,8s0.9,2,2,2
				s2-0.9,2-2S9.1,6,8,6z"/>
			<path id="Shape_12_" class="st2" d="M12,16H4c-2.1,0-4-1.9-4-4V4c0-2.1,1.9-4,4-4h8c2.1,0,4,1.9,4,4v8C16,14.1,14,16,12,16z M4,2
				C3.1,2,2,3.1,2,4v8c0,1,1,2,2,2h8c0.9,0,2-1.1,2-2V4c0-0.9-1.1-2-2-2H4z"/>
		</g>
	</g>
</g>
</svg>
