<?xml version="1.0" encoding="utf-8"?>
<!-- Generator: Adobe Illustrator 24.1.1, SVG Export Plug-In . SVG Version: 6.00 Build 0)  -->
<svg version="1.1" id="Layer_1" xmlns="http://www.w3.org/2000/svg" xmlns:xlink="http://www.w3.org/1999/xlink" x="0px" y="0px"
	 viewBox="0 0 77 55" style="enable-background:new 0 0 77 55;" xml:space="preserve">
<style type="text/css">
	.st0{fill:#FC6A55;}
	.st1{fill:#EDEDED;}
	.st2{fill:none;stroke:#FC6A55;stroke-miterlimit:10;}
	.st3{fill:#222F3F;}
	.st4{fill:#383838;}
	.st5{fill:#FFFFFF;}
	.st6{fill:#656D7A;}
	.st7{filter:url(#Adobe_OpacityMaskFilter);}
	.st8{fill-rule:evenodd;clip-rule:evenodd;fill:#FFFFFF;}
	.st9{mask:url(#mask-2_8_);fill-rule:evenodd;clip-rule:evenodd;}
	.st10{filter:url(#Adobe_OpacityMaskFilter_1_);}
	.st11{mask:url(#mask-2_7_);fill-rule:evenodd;clip-rule:evenodd;}
	.st12{filter:url(#Adobe_OpacityMaskFilter_2_);}
	.st13{mask:url(#mask-2_6_);fill-rule:evenodd;clip-rule:evenodd;}
	.st14{filter:url(#Adobe_OpacityMaskFilter_3_);}
	.st15{mask:url(#mask-2_5_);fill-rule:evenodd;clip-rule:evenodd;}
	.st16{filter:url(#Adobe_OpacityMaskFilter_4_);}
	.st17{mask:url(#mask-2_2_);fill:none;stroke:#000000;stroke-width:1.5;stroke-miterlimit:10;}
	.st18{fill:#B4A3EE;}
	.st19{fill:#434343;}
	.st20{fill:#434343;stroke:#F9F9F9;stroke-width:0.25;stroke-miterlimit:10;}
	.st21{fill:none;stroke:#FC6A55;stroke-width:0.5;stroke-miterlimit:10;}
	.st22{fill:none;stroke:#FC6A55;stroke-width:0.75;stroke-miterlimit:10;}
	.st23{fill:#FC6A55;stroke:#FC6A55;stroke-width:0.5;stroke-miterlimit:10;}
	.st24{opacity:0.153;fill:url(#Path_36_);enable-background:new    ;}
	.st25{opacity:0.1;fill:#590BB2;enable-background:new    ;}
	.st26{fill:#8E8CA8;}
	.st27{fill:#F5F4F9;}
	.st28{fill:#FFD5B8;}
	.st29{fill:#FC8473;}
	.st30{fill:#1C3475;}
	.st31{fill:#DDD9E4;}
	.st32{fill:#828FB3;}
	.st33{opacity:7.584635e-02;fill:url(#Path_37_);enable-background:new    ;}
	.st34{fill:#FFBE92;}
	.st35{fill:#FB8E7F;}
	.st36{fill:#FDB1A6;}
	.st37{fill:#FC806F;}
	.st38{fill:#FFE783;}
	.st39{fill:#104478;}
	.st40{fill:none;stroke:#FFFFFF;stroke-miterlimit:10;}
	.st41{fill:none;stroke:#000000;stroke-width:0.15;stroke-miterlimit:10;}
	.st42{opacity:0.1;fill:url(#Path_38_);enable-background:new    ;}
	.st43{opacity:0.1;fill:url(#Path_39_);enable-background:new    ;}
	.st44{fill-rule:evenodd;clip-rule:evenodd;fill:#FC6A55;}
	.st45{fill-rule:evenodd;clip-rule:evenodd;}
	.st46{fill:#FF6757;}
	.st47{fill:#666666;}
	.st48{fill:none;stroke:#FFFFFF;stroke-width:0.5;stroke-miterlimit:10;}
	.st49{fill:#F16A56;}
	.st50{fill:#515252;}
	.st51{fill:#F26A56;}
	.st52{fill:none;stroke:#F16A56;stroke-miterlimit:10;}
	.st53{fill:none;stroke:#929292;stroke-miterlimit:10;}
	.st54{fill:#929292;}
	.st55{fill:none;stroke:#000000;stroke-width:0.5;stroke-miterlimit:10;}
	.st56{fill:#A8A7A7;}
	.st57{fill:#F79F91;}
	.st58{fill:#9BDBD5;}
	.st59{fill:#222121;}
</style>
<g>
	<g>
		<path class="st0" d="M44.3,33.9c-1,0-1.7,0.9-1.5,1.8c0.1,0.4,0.3,0.7,0.7,0.9c0.2,0.1,0.5,0.2,0.8,0.2c0.5,0,1-0.3,1.3-0.7
			C46.2,35.3,45.4,33.9,44.3,33.9z"/>
	</g>
</g>
<g>
	<g>
		<path class="st0" d="M32.5,33.8c-0.7,0-1.3,0.5-1.5,1.2c-0.2,0.9,0.5,1.8,1.5,1.8c0.7,0,1.3-0.5,1.5-1.2
			C34.2,34.7,33.5,33.8,32.5,33.8z"/>
	</g>
</g>
<g>
	<g>
		<path class="st0" d="M60.9,27.3c0,0-9.7-6-9.7-6c-0.7-0.4-1.6-0.2-2.1,0.5c-0.4,0.7-0.2,1.6,0.5,2.1c0,0,9.7,6,9.7,6
			c0.7,0.4,1.6,0.2,2.1-0.5C61.9,28.7,61.6,27.8,60.9,27.3z"/>
	</g>
</g>
<g>
	<g>
		<path class="st0" d="M45.3,17.9c-1,0-1.7,0.9-1.5,1.8c0.1,0.4,0.3,0.7,0.7,0.9c0.2,0.1,0.5,0.2,0.8,0.2c0.5,0,1-0.3,1.3-0.7
			C47.2,19.3,46.4,17.9,45.3,17.9z"/>
	</g>
</g>
<g>
	<g>
		<path class="st0" d="M29.7,21.7c-0.4-0.7-1.4-0.9-2.1-0.5c0,0-9.7,6.1-9.7,6.1c-0.7,0.4-0.9,1.4-0.5,2.1c0.3,0.4,0.8,0.7,1.3,0.7
			c0.3,0,0.6-0.1,0.8-0.2c0,0,9.7-6.1,9.7-6.1C30,23.4,30.2,22.4,29.7,21.7z"/>
	</g>
</g>
<g>
	<g>
		<path class="st0" d="M33.5,17.8c-0.7,0-1.3,0.5-1.5,1.2c-0.2,0.9,0.5,1.8,1.5,1.8c0.7,0,1.3-0.5,1.5-1.2
			C35.2,18.7,34.5,17.8,33.5,17.8z"/>
	</g>
</g>
<g>
	<g>
		<path class="st0" d="M65.7,48.9c-0.4-0.4-1.1-0.5-1.5-0.1c-1.1,1-2.2,2-3.7,2.4c-1.7,0.5-3.3,0.1-4.8-0.7l5.6-18.8
			c0.1-0.5-0.1-1-0.5-1.2l-5.2-3.1v-9.2c0-0.6-0.5-1.1-1.1-1.1h-2.1V14c0-0.6-0.5-1.1-1.1-1.1H48V9.7c0-0.6-0.5-1.1-1.1-1.1h-5.2
			V1.1c0-0.6-0.5-1.1-1.1-1.1h-4.3c-0.6,0-1.1,0.5-1.1,1.1v7.5h-5.2c-0.6,0-1.1,0.5-1.1,1.1v3.2h-3.4c-0.6,0-1.1,0.5-1.1,1.1v3.2
			h-2.1c-0.6,0-1.1,0.5-1.1,1.1v9.2l-5.2,3.1c-0.4,0.3-0.6,0.8-0.5,1.2c0,0,5.6,18.8,5.6,18.8c-0.1-0.3-1.8-0.5-2.1-0.6
			c-3.1-0.4-5.5,1.2-7.8,3.1c-0.4,0.4-0.5,1.1-0.1,1.5c0.4,0.4,1.1,0.5,1.5,0.1c2.3-2,4.9-3.6,8-2c2.8,1.4,5.7,2,8.5,0.5
			c2.3-1.2,4.6-2.3,7.2-1l2.7,1.3c2.3,1.1,4.9,1.1,7.2-0.1c1.4-0.7,2.8-1.6,4.4-1.7c1.6-0.1,3.1,0.5,4.5,1.2
			c1.8,0.9,3.9,1.1,5.9,0.5c1.8-0.5,3.1-1.7,4.5-2.9C66.1,50.1,66.1,49.4,65.7,48.9z M53.5,19.3v6.8l-11.2-6.8H53.5z M37.4,2.1h2.1
			v6.4h-2.1V2.1z M31.1,10.7h14.7v2.1H31.1V10.7z M23.5,19.3h11.2l-11.2,6.8V19.3z M37.4,50.2c0-0.2-1.5-0.5-1.7-0.6
			c-1.9-0.4-3.9-0.1-5.6,0.7c-1.2,0.6-2.4,1.4-3.8,1.6c0,0,0,0,0,0c-0.8,0.1-1.7,0-2.5-0.2L18,32l19.5-11.8
			C37.4,20.2,37.4,50.2,37.4,50.2z M26.7,17.2V15h23.6v2.1H26.7z M53.8,49.7c0-0.3-3-0.3-3.2-0.3c-1.9,0.2-3.5,1.2-5.1,2
			c-1.9,1-3.9,0.7-5.8-0.2v-31L59,32L53.8,49.7z"/>
	</g>
</g>
</svg>
