<?xml version="1.0" encoding="utf-8"?>
<!-- Generator: Adobe Illustrator 24.1.1, SVG Export Plug-In . SVG Version: 6.00 Build 0)  -->
<svg version="1.1" id="Layer_1" xmlns="http://www.w3.org/2000/svg" xmlns:xlink="http://www.w3.org/1999/xlink" x="0px" y="0px"
	 viewBox="0 0 77 55" style="enable-background:new 0 0 77 55;" xml:space="preserve">
<style type="text/css">
	.st0{fill:#FC6A55;}
	.st1{fill:#EDEDED;}
	.st2{fill:none;stroke:#FC6A55;stroke-miterlimit:10;}
	.st3{fill:#222F3F;}
	.st4{fill:#383838;}
	.st5{fill:#FFFFFF;}
	.st6{fill:#656D7A;}
	.st7{filter:url(#Adobe_OpacityMaskFilter);}
	.st8{fill-rule:evenodd;clip-rule:evenodd;fill:#FFFFFF;}
	.st9{mask:url(#mask-2_8_);fill-rule:evenodd;clip-rule:evenodd;}
	.st10{filter:url(#Adobe_OpacityMaskFilter_1_);}
	.st11{mask:url(#mask-2_7_);fill-rule:evenodd;clip-rule:evenodd;}
	.st12{filter:url(#Adobe_OpacityMaskFilter_2_);}
	.st13{mask:url(#mask-2_6_);fill-rule:evenodd;clip-rule:evenodd;}
	.st14{filter:url(#Adobe_OpacityMaskFilter_3_);}
	.st15{mask:url(#mask-2_5_);fill-rule:evenodd;clip-rule:evenodd;}
	.st16{filter:url(#Adobe_OpacityMaskFilter_4_);}
	.st17{mask:url(#mask-2_2_);fill:none;stroke:#000000;stroke-width:1.5;stroke-miterlimit:10;}
	.st18{fill:#B4A3EE;}
	.st19{fill:#434343;}
	.st20{fill:#434343;stroke:#F9F9F9;stroke-width:0.25;stroke-miterlimit:10;}
	.st21{fill:none;stroke:#FC6A55;stroke-width:0.5;stroke-miterlimit:10;}
	.st22{fill:none;stroke:#FC6A55;stroke-width:0.75;stroke-miterlimit:10;}
	.st23{fill:#FC6A55;stroke:#FC6A55;stroke-width:0.5;stroke-miterlimit:10;}
	.st24{opacity:0.153;fill:url(#Path_36_);enable-background:new    ;}
	.st25{opacity:0.1;fill:#590BB2;enable-background:new    ;}
	.st26{fill:#8E8CA8;}
	.st27{fill:#F5F4F9;}
	.st28{fill:#FFD5B8;}
	.st29{fill:#FC8473;}
	.st30{fill:#1C3475;}
	.st31{fill:#DDD9E4;}
	.st32{fill:#828FB3;}
	.st33{opacity:7.584635e-02;fill:url(#Path_37_);enable-background:new    ;}
	.st34{fill:#FFBE92;}
	.st35{fill:#FB8E7F;}
	.st36{fill:#FDB1A6;}
	.st37{fill:#FC806F;}
	.st38{fill:#FFE783;}
	.st39{fill:#104478;}
	.st40{fill:none;stroke:#FFFFFF;stroke-miterlimit:10;}
	.st41{fill:none;stroke:#000000;stroke-width:0.15;stroke-miterlimit:10;}
	.st42{opacity:0.1;fill:url(#Path_38_);enable-background:new    ;}
	.st43{opacity:0.1;fill:url(#Path_39_);enable-background:new    ;}
	.st44{fill-rule:evenodd;clip-rule:evenodd;fill:#FC6A55;}
	.st45{fill-rule:evenodd;clip-rule:evenodd;}
	.st46{fill:#FF6757;}
	.st47{fill:#666666;}
	.st48{fill:none;stroke:#FFFFFF;stroke-width:0.5;stroke-miterlimit:10;}
	.st49{fill:#F16A56;}
	.st50{fill:#515252;}
	.st51{fill:#F26A56;}
	.st52{fill:none;stroke:#F16A56;stroke-miterlimit:10;}
	.st53{fill:none;stroke:#929292;stroke-miterlimit:10;}
	.st54{fill:#929292;}
	.st55{fill:none;stroke:#000000;stroke-width:0.5;stroke-miterlimit:10;}
	.st56{fill:#A8A7A7;}
	.st57{fill:#F79F91;}
	.st58{fill:#9BDBD5;}
	.st59{fill:#222121;}
</style>
<g>
	<path class="st0" d="M9.2,32.7c-0.7,0.3-1,1.1-0.7,1.8l3,6.5c0.1,0.3,0.4,0.6,0.8,0.7c0.1,0.1,0.3,0.1,0.5,0.1c0.2,0,0.4,0,0.6-0.1
		l22.9-10.7l-2.1,21.7c0,0.4,0.1,0.8,0.4,1.1c1,0.8,2.3,1.3,3.6,1.3c0.4,0,0.7,0,1.1-0.1c1.9-0.5,3.3-2.1,4.3-5l9-26.7L70.3,15
		c5.2-2.4,8-7.4,6.1-11.3c-1-2-3-3.4-5.3-3.7c-2.5-0.4-5.1,0-7.3,1.1l-20.6,9.6L21.1,2.2c-2.8-1-5-1-6.5,0.1c-1.3,1.1-2,2.7-2,4.3
		c0,0.4,0.2,0.8,0.6,1.1l14.9,10.2l-8.5,4L5.2,18.3C4.6,18.2,4,18.4,3.7,19l-3.6,6.4c-0.2,0.3-0.2,0.7-0.1,1.1
		c0.1,0.4,0.4,0.7,0.8,0.8l10.6,4.4L9.2,32.7z M15.3,5.9c0.1-0.6,0.4-1.1,0.8-1.5c0.8-0.6,2.2-0.5,4,0.2l19.7,7.7l-9,4.2L15.3,5.9z
		 M3.2,25.4l2.3-4.2l13.8,3.4c0.3,0.1,0.6,0,0.9-0.1L65,3.7c1.8-0.9,3.8-1.2,5.7-0.9c1.4,0.1,2.6,0.9,3.3,2.1c1.1,2.4-1.1,6-4.8,7.7
		l-15.5,7.3l0.9-2.8c0.2-0.7-0.2-1.5-0.9-1.7c-0.7-0.2-1.5,0.2-1.7,0.9l-11.1,33c-0.7,1.9-1.5,3-2.4,3.2c-0.6,0.1-1.2,0-1.6-0.3
		l2.7-28.3c0.1-0.7-0.5-1.4-1.2-1.5c-0.7-0.1-1.4,0.5-1.5,1.2l-0.4,4.3L13.4,38.6l-1.9-4l3.8-1.8c0.5-0.2,0.8-0.7,0.8-1.2
		c0-0.5-0.3-1-0.8-1.2L3.2,25.4z"/>
</g>
</svg>
