<?xml version="1.0" encoding="utf-8"?>
<!-- Generator: Adobe Illustrator 24.0.2, SVG Export Plug-In . SVG Version: 6.00 Build 0)  -->
<svg version="1.1" id="Layer_1" xmlns="http://www.w3.org/2000/svg" xmlns:xlink="http://www.w3.org/1999/xlink" x="0px" y="0px"
	 viewBox="0 0 82 59" style="enable-background:new 0 0 82 59;" xml:space="preserve">
<style type="text/css">
	.st0{fill:#FC6A55;}
	.st1{stroke:#FFFFFF;stroke-width:0.25;stroke-miterlimit:10;}
	.st2{fill:#656D7A;}
	.st3{fill:#FFFFFF;}
	.st4{filter:url(#Adobe_OpacityMaskFilter);}
	.st5{fill-rule:evenodd;clip-rule:evenodd;fill:#FFFFFF;}
	.st6{mask:url(#mask-2_8_);fill-rule:evenodd;clip-rule:evenodd;}
	.st7{filter:url(#Adobe_OpacityMaskFilter_1_);}
	.st8{mask:url(#mask-2_7_);fill-rule:evenodd;clip-rule:evenodd;}
	.st9{filter:url(#Adobe_OpacityMaskFilter_2_);}
	.st10{mask:url(#mask-2_6_);fill-rule:evenodd;clip-rule:evenodd;}
	.st11{filter:url(#Adobe_OpacityMaskFilter_3_);}
	.st12{mask:url(#mask-2_5_);fill-rule:evenodd;clip-rule:evenodd;}
	.st13{filter:url(#Adobe_OpacityMaskFilter_4_);}
	.st14{mask:url(#mask-2_2_);fill:none;stroke:#000000;stroke-width:2;}
	.st15{fill:#434343;}
	.st16{fill:#434343;stroke:#F9F9F9;stroke-width:0.25;stroke-miterlimit:10;}
	.st17{fill:none;stroke:#FC6A55;stroke-width:0.5;stroke-miterlimit:10;}
</style>
<g>
	<g>
		<g>
			<path class="st0" d="M23.9,3.8v12.4h28.5V3.8H23.9z M50.5,14.3H25.8V5.7h24.7V14.3z"/>
		</g>
	</g>
	<g>
		<g>
			<rect x="28.6" y="29.5" class="st0" width="19" height="1.9"/>
		</g>
	</g>
	<g>
		<g>
			<rect x="30.5" y="21.9" class="st0" width="5.7" height="1.9"/>
		</g>
	</g>
	<g>
		<g>
			<rect x="40" y="21.9" class="st0" width="5.7" height="1.9"/>
		</g>
	</g>
	<g>
		<g>
			<rect x="30.5" y="25.7" class="st0" width="5.7" height="1.9"/>
		</g>
	</g>
	<g>
		<g>
			<rect x="40" y="25.7" class="st0" width="5.7" height="1.9"/>
		</g>
	</g>
	<g>
		<g>
			<rect x="37.2" y="37.1" class="st0" width="15.2" height="1.9"/>
		</g>
	</g>
	<g>
		<g>
			<rect x="46.7" y="40.9" class="st0" width="5.7" height="1.9"/>
		</g>
	</g>
	<g>
		<g>
			<rect x="37.2" y="40.9" class="st0" width="5.7" height="1.9"/>
		</g>
	</g>
	<g>
		<g>
			<path class="st0" d="M60,23.8c-0.5,0-1-0.4-1-1c0-0.5,0.4-1,1-1c0.5,0,1,0.4,1,1h1.9c0-1.2-0.8-2.3-1.9-2.7v-2.1h-1.9v2.1
				c-1.1,0.4-1.9,1.4-1.9,2.7c0,1.6,1.3,2.9,2.9,2.9c0.5,0,1,0.4,1,1c0,0.5-0.4,1-1,1c-0.5,0-1-0.4-1-1h-1.9c0,1.2,0.8,2.3,1.9,2.7
				v2.1H61v-2.1c1.1-0.4,1.9-1.4,1.9-2.7C62.9,25.1,61.6,23.8,60,23.8z"/>
		</g>
	</g>
	<g>
		<g>
			<rect x="64.8" y="23.8" class="st0" width="1.9" height="1.9"/>
		</g>
	</g>
	<g>
		<g>
			<rect x="53.4" y="23.8" class="st0" width="1.9" height="1.9"/>
		</g>
	</g>
	<g>
		<g>
			<path class="st0" d="M68.8,30.5c1.1-1.7,1.7-3.7,1.7-5.7c0-5.8-4.7-10.5-10.5-10.5c-1,0-1.9,0.1-2.9,0.4V4.8
				C57.2,2.1,55,0,52.4,0H16.3c-2.6,0-4.8,2.1-4.8,4.8v8.6h7.6v7.1l-3.9,5c-0.5,0.5-0.9,1.3-1,2.2l-0.8,6.3c0,0.2,0,0.4,0,0.6v8.1
				c0,0.2,0,0.4,0,0.6l0.8,6.3h-2.7V59h13.3v-4.8H60c2.6,0,4.8-2.1,4.8-4.8v-4.8h-7.6v-9.9c0.9,0.3,1.9,0.4,2.9,0.4
				c2.8,0,5.4-1.1,7.4-3.1l-1.3-1.3c-1.6,1.6-3.8,2.5-6.1,2.5c-4.7,0-8.6-3.8-8.6-8.6s3.8-8.6,8.6-8.6s8.6,3.8,8.6,8.6
				c0,1.7-0.5,3.3-1.4,4.7L68.8,30.5z M13.4,11.4V4.8c0-1.6,1.3-2.9,2.9-2.9s2.9,1.3,2.9,2.9v6.7H13.4z M15.3,34.5
				c0-0.1,0-0.2,0-0.4l0.8-6.3c0.1-0.5,0.3-0.9,0.4-1l5.6-7.2l0.1-0.1c0.2-0.4,0.5-0.4,0.7-0.4c0.5,0,1,0.4,1,1v0.3
				c0,0.2-0.1,0.4-0.2,0.6L20,26.1c-0.6,0.8-0.9,1.8-0.9,2.8v5.5c0,0.7,0.2,1.5,0.5,2.1l0.8,1.6h-0.4V40h2.3l4.4-4.4
				c0.2-0.2,0.5-0.3,0.8-0.3c0.6,0,1.1,0.5,1.1,1.1c0,0.3-0.1,0.6-0.3,0.8L21,44.3v5.2h-4.9l-0.8-6.5c0-0.1,0-0.2,0-0.4V34.5z
				 M22.9,57.1h-9.5v-5.7h9.5V57.1z M62.9,46.6v2.9c0,1.6-1.3,2.9-2.9,2.9H27.7c0.6-0.8,1-1.8,1-2.9v-2.9H62.9z M55.3,15.4
				c-3.4,1.7-5.7,5.3-5.7,9.3s2.3,7.6,5.7,9.3v10.7H26.7v4.8c0,1.2-0.8,2.3-1.9,2.7v-2.7h-1.9v-4.4l6.7-6.7c0.6-0.6,0.9-1.3,0.9-2.1
				c0-1.6-1.3-3-3-3c-0.8,0-1.5,0.3-2.1,0.9l-3.2,3.2l-0.9-1.8c-0.2-0.4-0.3-0.8-0.3-1.3v-5.5c0-0.6,0.2-1.2,0.5-1.7l3.7-5.2
				c0.3-0.5,0.5-1.1,0.5-1.7V20c0-1.6-1.3-2.9-2.9-2.9c-0.7,0-1.4,0.3-1.9,0.8V4.8c0-1.1-0.4-2.1-1-2.9h32.4c1.6,0,2.9,1.3,2.9,2.9
				V15.4z"/>
		</g>
	</g>
</g>
</svg>
