<?xml version="1.0" encoding="utf-8"?>
<!-- Generator: Adobe Illustrator 24.0.2, SVG Export Plug-In . SVG Version: 6.00 Build 0)  -->
<svg version="1.1" id="Layer_1" xmlns="http://www.w3.org/2000/svg" xmlns:xlink="http://www.w3.org/1999/xlink" x="0px" y="0px"
	 viewBox="0 0 42 42" style="enable-background:new 0 0 42 42;" xml:space="preserve">
<style type="text/css">
	.st0{fill:#FC6A55;}
	.st1{stroke:#FFFFFF;stroke-width:0.25;stroke-miterlimit:10;}
	.st2{fill:#656D7A;}
	.st3{fill:#FFFFFF;}
	.st4{filter:url(#Adobe_OpacityMaskFilter);}
	.st5{fill-rule:evenodd;clip-rule:evenodd;fill:#FFFFFF;}
	.st6{mask:url(#mask-2_8_);fill-rule:evenodd;clip-rule:evenodd;}
	.st7{filter:url(#Adobe_OpacityMaskFilter_1_);}
	.st8{mask:url(#mask-2_7_);fill-rule:evenodd;clip-rule:evenodd;}
	.st9{filter:url(#Adobe_OpacityMaskFilter_2_);}
	.st10{mask:url(#mask-2_6_);fill-rule:evenodd;clip-rule:evenodd;}
	.st11{filter:url(#Adobe_OpacityMaskFilter_3_);}
	.st12{mask:url(#mask-2_5_);fill-rule:evenodd;clip-rule:evenodd;}
	.st13{filter:url(#Adobe_OpacityMaskFilter_4_);}
	.st14{mask:url(#mask-2_2_);fill:none;stroke:#000000;stroke-width:2;}
</style>
<g id="final-design_4_">
	<g id="invensis.net-2.0-index-page_4_" transform="translate(-1302.000000, -6711.000000)">
		<g id="Group-32_2_" transform="translate(412.000000, 6689.000000)">
			<g id="Group-31_2_">
				<g id="request-a-call-back" transform="translate(890.000000, 22.000000)">
					<path id="Shape_11_" d="M26,27.5c-1.3-0.7-3.8-2.4-6.6-5.1c-2.7-2.7-4.4-5.3-5.1-6.6l4.4-4.5L7.5,0L2,5.5
						c-2.1,2.1-2.6,5.3-1.3,7.9c2,4,5.6,10.1,11.7,16.2c6.1,6.1,12.2,9.7,16.2,11.7c1,0.5,2,0.7,3,0.7c1.8,0,3.6-0.7,4.9-2l5.5-5.5
						L30.6,23L26,27.5z M34.2,37.6c-1.1,1.1-2.8,1.4-4.2,0.7c-3.8-1.9-9.6-5.3-15.3-11S5.5,15.8,3.6,12C3,10.6,3.2,8.9,4.3,7.8
						l3.2-3.2l6.6,6.6l-3.8,3.8l0.5,1c0.1,0.2,1.9,4.1,6.3,8.6c4.4,4.5,8.4,6.2,8.5,6.3l1,0.4l3.9-3.8l6.8,6.8L34.2,37.6z
						 M30.3,15.4l-7.7-7.7L30.3,0l2.3,2.3L28.9,6h8.1c2.7,0,4.9,2.2,4.9,4.9l0,8.6l-3.3,0l0-8.6c0-0.9-0.7-1.6-1.6-1.6h-8.3l3.8,3.8
						L30.3,15.4z"/>
				</g>
			</g>
		</g>
	</g>
</g>
</svg>
