<?xml version="1.0" encoding="utf-8"?>
<!-- Generator: Adobe Illustrator 24.1.1, SVG Export Plug-In . SVG Version: 6.00 Build 0)  -->
<svg version="1.1" id="Layer_1" xmlns="http://www.w3.org/2000/svg" xmlns:xlink="http://www.w3.org/1999/xlink" x="0px" y="0px"
	 viewBox="0 0 82 59" style="enable-background:new 0 0 82 59;" xml:space="preserve">
<style type="text/css">
	.st0{fill:#FC6A55;}
	.st1{fill:#EDEDED;}
	.st2{fill:none;stroke:#FC6A55;stroke-miterlimit:10;}
	.st3{fill:#222F3F;}
	.st4{fill:#383838;}
	.st5{fill:#FFFFFF;}
	.st6{fill:#656D7A;}
	.st7{filter:url(#Adobe_OpacityMaskFilter);}
	.st8{fill-rule:evenodd;clip-rule:evenodd;fill:#FFFFFF;}
	.st9{mask:url(#mask-2_8_);fill-rule:evenodd;clip-rule:evenodd;}
	.st10{filter:url(#Adobe_OpacityMaskFilter_1_);}
	.st11{mask:url(#mask-2_7_);fill-rule:evenodd;clip-rule:evenodd;}
	.st12{filter:url(#Adobe_OpacityMaskFilter_2_);}
	.st13{mask:url(#mask-2_6_);fill-rule:evenodd;clip-rule:evenodd;}
	.st14{filter:url(#Adobe_OpacityMaskFilter_3_);}
	.st15{mask:url(#mask-2_5_);fill-rule:evenodd;clip-rule:evenodd;}
	.st16{filter:url(#Adobe_OpacityMaskFilter_4_);}
	.st17{mask:url(#mask-2_2_);fill:none;stroke:#000000;stroke-width:1.5;stroke-miterlimit:10;}
	.st18{fill:#B4A3EE;}
	.st19{fill:#434343;}
	.st20{fill:#434343;stroke:#F9F9F9;stroke-width:0.25;stroke-miterlimit:10;}
	.st21{fill:none;stroke:#FC6A55;stroke-width:0.5;stroke-miterlimit:10;}
	.st22{fill:none;stroke:#FC6A55;stroke-width:0.75;stroke-miterlimit:10;}
	.st23{fill:#FC6A55;stroke:#FC6A55;stroke-width:0.5;stroke-miterlimit:10;}
	.st24{opacity:0.153;fill:url(#Path_36_);enable-background:new    ;}
	.st25{opacity:0.1;fill:#590BB2;enable-background:new    ;}
	.st26{fill:#8E8CA8;}
	.st27{fill:#F5F4F9;}
	.st28{fill:#FFD5B8;}
	.st29{fill:#FC8473;}
	.st30{fill:#1C3475;}
	.st31{fill:#DDD9E4;}
	.st32{fill:#828FB3;}
	.st33{opacity:7.584635e-02;fill:url(#Path_37_);enable-background:new    ;}
	.st34{fill:#FFBE92;}
	.st35{fill:#FB8E7F;}
	.st36{fill:#FDB1A6;}
	.st37{fill:#FC806F;}
	.st38{fill:#FFE783;}
	.st39{fill:#104478;}
	.st40{fill:none;stroke:#FFFFFF;stroke-miterlimit:10;}
	.st41{fill:none;stroke:#000000;stroke-width:0.15;stroke-miterlimit:10;}
	.st42{opacity:0.1;fill:url(#Path_38_);enable-background:new    ;}
	.st43{opacity:0.1;fill:url(#Path_39_);enable-background:new    ;}
	.st44{fill-rule:evenodd;clip-rule:evenodd;fill:#FC6A55;}
	.st45{fill-rule:evenodd;clip-rule:evenodd;}
	.st46{fill:#FF6757;}
	.st47{fill:#666666;}
	.st48{fill:none;stroke:#FFFFFF;stroke-width:0.5;stroke-miterlimit:10;}
	.st49{fill:#F16A56;}
	.st50{fill:#515252;}
	.st51{fill:#F26A56;}
	.st52{fill:none;stroke:#F16A56;stroke-miterlimit:10;}
	.st53{fill:none;stroke:#929292;stroke-miterlimit:10;}
	.st54{fill:#929292;}
	.st55{fill:none;stroke:#000000;stroke-width:0.5;stroke-miterlimit:10;}
	.st56{fill:#A8A7A7;}
	.st57{fill:#F79F91;}
	.st58{fill:#9BDBD5;}
	.st59{fill:#222121;}
</style>
<g>
	<g>
		<path class="st0" d="M49.2,0.1H24.8v3.5h-3.5v2.3h-0.6c-1.6,0-2.9,1.3-2.9,2.9v11.1h-1.7c-1.6,0-2.9,1.3-2.9,2.9v4.7
			c0,1.6,1.3,2.9,2.9,2.9h1.7v2.9c0,1.6,1.3,2.9,2.9,2.9h18.6c1.6,0,2.9-1.3,2.9-2.9v-0.6h7V0.1z M20.7,7.1h0.6v3.5h-0.6
			c-1,0-1.7-0.8-1.7-1.7S19.8,7.1,20.7,7.1z M16.1,21h1.7v3.5h-1.7c-1,0-1.7-0.8-1.7-1.7S15.1,21,16.1,21z M14.3,27.4v-2.3
			c0.5,0.4,1.1,0.6,1.7,0.6h13.4v-1.3l5.2,3.1l-5.2,3.1v-1.3H16.1C15.1,29.2,14.3,28.4,14.3,27.4z M41.1,33.3c0,1-0.8,1.7-1.7,1.7
			H20.7c-1,0-1.7-0.8-1.7-1.7v-2.9h9.3v2.2l8.7-5.1l-8.7-5.1v2.2H19V11.1c0.5,0.4,1.1,0.6,1.7,0.6H37c0.1,0,0.3,0,0.4,0.1
			c0.2,0.2,0.2,0.8,0.2,1.3l0,8.7l2.9,2.4c0.4,0.3,0.6,0.8,0.6,1.3V33.3z M38.3,11c-0.3-0.3-0.7-0.4-1.2-0.4H24.8V7.1h17.5v8.1h-3.5
			v-1.7l0-0.3C38.8,12.3,38.8,11.5,38.3,11z M41.2,23.4l-2.4-2v-5h4.7V5.9H23.6v4.7h-1.2V4.8h22.1V28h-2.3v-2.4
			C42.3,24.8,41.9,23.9,41.2,23.4L41.2,23.4z M48.1,31.5h-5.8v-2.3h3.5V3.6H26V1.3h22.1V31.5z"/>
		<path class="st0" d="M35.3,12.9h-14c-0.6,0-1.2,0.5-1.2,1.2v4.7c0,0.6,0.5,1.2,1.2,1.2h14c0.6,0,1.2-0.5,1.2-1.2v-4.7
			C36.4,13.4,35.9,12.9,35.3,12.9z M21.3,18.7v-4.7h14l0,4.7H21.3z"/>
		<path class="st0" d="M38.8,32.7h1.2v1.2h-1.2V32.7z"/>
		<path class="st0" d="M34.1,32.7h1.2v1.2h-1.2V32.7z"/>
		<path class="st0" d="M36.4,32.7h1.2v1.2h-1.2V32.7z"/>
		<path class="st0" d="M34.1,30.4h5.8v1.2h-5.8V30.4z"/>
		<path class="st0" d="M39.9,17.6h3.5v1.2h-3.5V17.6z"/>
		<path class="st0" d="M39.9,19.9h3.5V21h-3.5V19.9z"/>
	</g>
	<path class="st0" d="M46,55.4c12.6,0,22.8-10.2,22.8-22.8c0-10.9-7.6-20.2-18.3-22.4l-0.3,1.7c1.5,0.3,2.9,0.7,4.2,1.3l0.3,3.6
		c0,0.1,0.1,0.3,0.1,0.4l3.4,5.1l0.7,3.6l-5.6,3.2c-0.1,0.1-0.2,0.2-0.3,0.3l-1.8,2.6c-0.2,0.3-0.2,0.8,0.1,1.1l4,4l-1.6,4.8
		c-0.1,0.3,0,0.6,0.1,0.8l4.6,6.7c-3.4,2.6-7.6,4.1-11.9,4.2l3.4-3.8c0.1-0.2,0.2-0.4,0.2-0.6v-4.4c0-0.3-0.1-0.5-0.3-0.7l-5.3-4.4
		c-0.3-0.2-0.6-0.3-0.9-0.1l-5.8,2.5l-6.7-3.3c-0.3-0.2-0.7-0.1-1,0.2l-3.2,3.2c-0.9-1.7-1.5-3.5-1.9-5.4l-1.7,0.3
		C25.8,47.7,35.1,55.4,46,55.4L46,55.4z M55.7,42.1l1.6-4.9c0.1-0.3,0-0.7-0.2-0.9l-3.9-3.9l1.2-1.9l6-3.4c0.3-0.2,0.5-0.6,0.4-0.9
		L60,21.8c0-0.1-0.1-0.2-0.1-0.3l-3.4-5.1l-0.2-2.3c10.2,5.7,13.8,18.5,8.1,28.7c-1.1,2-2.6,3.9-4.4,5.4L55.7,42.1z M28.1,43.7
		l3.1-3.1l6.5,3.2c0.2,0.1,0.5,0.1,0.7,0l5.7-2.4l4.5,3.8v3.6l-4.2,4.7C37.8,53.1,31.7,49.4,28.1,43.7L28.1,43.7z"/>
	<path class="st0" d="M30.5,53.9c0.7,0.5,1.4,0.9,2.1,1.4l0.9-1.5c-0.7-0.4-1.3-0.8-1.9-1.3L30.5,53.9z"/>
	<path class="st0" d="M46,57.1c-3.8,0-7.6-0.9-11-2.6l-0.8,1.6c11.2,5.6,24.7,2.6,32.5-7.2l-1.4-1.1C60.6,53.7,53.5,57.2,46,57.1
		L46,57.1z"/>
</g>
</svg>
