<?xml version="1.0" encoding="utf-8"?>
<!-- Generator: Adobe Illustrator 24.1.1, SVG Export Plug-In . SVG Version: 6.00 Build 0)  -->
<svg version="1.1" id="Layer_1" xmlns="http://www.w3.org/2000/svg" xmlns:xlink="http://www.w3.org/1999/xlink" x="0px" y="0px"
	 viewBox="0 0 82 59" style="enable-background:new 0 0 82 59;" xml:space="preserve">
<style type="text/css">
	.st0{fill:#FC6A55;}
	.st1{fill:#EDEDED;}
	.st2{fill:none;stroke:#FC6A55;stroke-miterlimit:10;}
	.st3{fill:#222F3F;}
	.st4{fill:#383838;}
	.st5{fill:#FFFFFF;}
	.st6{fill:#656D7A;}
	.st7{filter:url(#Adobe_OpacityMaskFilter);}
	.st8{fill-rule:evenodd;clip-rule:evenodd;fill:#FFFFFF;}
	.st9{mask:url(#mask-2_8_);fill-rule:evenodd;clip-rule:evenodd;}
	.st10{filter:url(#Adobe_OpacityMaskFilter_1_);}
	.st11{mask:url(#mask-2_7_);fill-rule:evenodd;clip-rule:evenodd;}
	.st12{filter:url(#Adobe_OpacityMaskFilter_2_);}
	.st13{mask:url(#mask-2_6_);fill-rule:evenodd;clip-rule:evenodd;}
	.st14{filter:url(#Adobe_OpacityMaskFilter_3_);}
	.st15{mask:url(#mask-2_5_);fill-rule:evenodd;clip-rule:evenodd;}
	.st16{filter:url(#Adobe_OpacityMaskFilter_4_);}
	.st17{mask:url(#mask-2_2_);fill:none;stroke:#000000;stroke-width:1.5;stroke-miterlimit:10;}
	.st18{fill:#B4A3EE;}
	.st19{fill:#434343;}
	.st20{fill:#434343;stroke:#F9F9F9;stroke-width:0.25;stroke-miterlimit:10;}
	.st21{fill:none;stroke:#FC6A55;stroke-width:0.5;stroke-miterlimit:10;}
	.st22{fill:none;stroke:#FC6A55;stroke-width:0.75;stroke-miterlimit:10;}
	.st23{fill:#FC6A55;stroke:#FC6A55;stroke-width:0.5;stroke-miterlimit:10;}
	.st24{opacity:0.153;fill:url(#Path_36_);enable-background:new    ;}
	.st25{opacity:0.1;fill:#590BB2;enable-background:new    ;}
	.st26{fill:#8E8CA8;}
	.st27{fill:#F5F4F9;}
	.st28{fill:#FFD5B8;}
	.st29{fill:#FC8473;}
	.st30{fill:#1C3475;}
	.st31{fill:#DDD9E4;}
	.st32{fill:#828FB3;}
	.st33{opacity:7.584635e-02;fill:url(#Path_37_);enable-background:new    ;}
	.st34{fill:#FFBE92;}
	.st35{fill:#FB8E7F;}
	.st36{fill:#FDB1A6;}
	.st37{fill:#FC806F;}
	.st38{fill:#FFE783;}
	.st39{fill:#104478;}
	.st40{fill:none;stroke:#FFFFFF;stroke-miterlimit:10;}
	.st41{fill:none;stroke:#000000;stroke-width:0.15;stroke-miterlimit:10;}
	.st42{opacity:0.1;fill:url(#Path_38_);enable-background:new    ;}
	.st43{opacity:0.1;fill:url(#Path_39_);enable-background:new    ;}
	.st44{fill-rule:evenodd;clip-rule:evenodd;fill:#FC6A55;}
	.st45{fill-rule:evenodd;clip-rule:evenodd;}
	.st46{fill:#FF6757;}
	.st47{fill:#666666;}
	.st48{fill:none;stroke:#FFFFFF;stroke-width:0.5;stroke-miterlimit:10;}
	.st49{fill:#F16A56;}
	.st50{fill:#515252;}
	.st51{fill:#F26A56;}
	.st52{fill:none;stroke:#F16A56;stroke-miterlimit:10;}
	.st53{fill:none;stroke:#929292;stroke-miterlimit:10;}
	.st54{fill:#929292;}
	.st55{fill:none;stroke:#000000;stroke-width:0.5;stroke-miterlimit:10;}
	.st56{fill:#A8A7A7;}
	.st57{fill:#F79F91;}
	.st58{fill:#9BDBD5;}
	.st59{fill:#222121;}
</style>
<g>
	<path class="st0" d="M73.7,13.6l-3-0.8c1.8-0.9,2.9-2.7,2.9-4.7V6.8c0-2.9-2.3-5.3-5.1-5.4c-1.4-0.1-2.8,0.5-3.8,1.5
		c-1,1-1.6,2.3-1.6,3.8v1.5c0,2,1.1,3.8,2.9,4.7l-3,0.8c-1.7,0.4-2.8,1.9-2.8,3.6v7.4c0,1.2,1,2.2,2.2,2.2h0.7v16.4h10.5V26.8h0.7
		c1.2,0,2.2-1,2.2-2.2v-7.4C76.5,15.5,75.4,14,73.7,13.6z M64.6,8.1V6.6c0-1,0.4-2,1.1-2.7c0.7-0.7,1.7-1.1,2.7-1.1
		c2,0.1,3.6,1.8,3.6,3.9v1.3c0,1.6-1,3-2.5,3.5l-0.5,0.2v1.5c0,0.4-0.3,0.7-0.7,0.7s-0.7-0.3-0.7-0.7v-1.5l-0.5-0.2
		C65.6,11.1,64.6,9.7,64.6,8.1z M72.1,41.8h-3V26.1h-1.5v15.7h-3V24.6h7.5V41.8z M75.1,24.6c0,0.4-0.3,0.7-0.7,0.7h-0.7v-7.5h-1.5
		v5.2h-7.5v-5.2h-1.5v7.5h-0.7c-0.4,0-0.7-0.3-0.7-0.7v-7.4c0-1,0.7-1.9,1.7-2.2l3-0.7c0.3,0.8,1.1,1.3,2,1.3c0.9,0,1.7-0.5,2-1.3
		l3,0.7c1,0.3,1.7,1.1,1.7,2.2V24.6z"/>
	<polyline class="st5" points="81.5,58.3 53.5,58.3 53.5,32.8 81.5,32.8 	"/>
	<path class="st0" d="M4.7,34.3c1.5,0.6,3,0.9,4.6,0.9h3.8l4.5,3.4h3.3l-1.4-3.4h0.9c3.3,0,6.3-1.6,8.1-4.3l0.1-0.2v-2.2h-1.3v-4.7
		h-3.1l-2,4.7h-3.2l2-4h-3.3l-6,4H9.3c-1.6,0-3.2,0.3-4.6,0.9c-1,0.4-1.7,1.4-1.7,2.5S3.7,33.9,4.7,34.3z M18,37.3l-4.5-3.4h3.8
		l1.4,3.4H18z M25,25.2h0.9v3.4h-2.3L25,25.2z M18,25.8h0.7l-1.3,2.7H14L18,25.8z M5.2,30.7c1.3-0.5,2.7-0.8,4.1-0.8h17.9v0.5
		c-1.6,2.2-4.1,3.6-6.9,3.6h-1.5l-0.6-1.3h-6.5v1.3H9.3c-1.4,0-2.8-0.3-4.1-0.8c-0.5-0.2-0.8-0.7-0.8-1.2S4.7,30.9,5.2,30.7z"/>
	<path class="st0" d="M79.7,45.4h-4.5c0.1-0.2,0.1-0.4,0.1-0.6V36c0-1-0.8-1.9-1.9-1.9H63.2c-1,0-1.9,0.8-1.9,1.9v8.8
		c0,0.2,0,0.4,0.1,0.6h-4.5c-1,0-1.9,0.8-1.9,1.9v8.8c0,1,0.8,1.9,1.9,1.9H67c0.5,0,0.9-0.2,1.3-0.5c0.3,0.3,0.8,0.5,1.3,0.5h10.1
		c1,0,1.9-0.8,1.9-1.9v-8.8C81.5,46.3,80.7,45.4,79.7,45.4z M67,45.4h-0.6v-1.3h3.8v1.3H67z M60.1,46.7h3.8V48h-3.8V46.7z
		 M72.7,46.7h3.8V48h-3.8V46.7z M66.4,35.4h3.8v1.3h-3.8V35.4z M62.6,44.8V36c0-0.3,0.3-0.6,0.6-0.6h1.9v2.5h6.3v-2.5h1.9
		c0.3,0,0.6,0.3,0.6,0.6v8.8c0,0.3-0.3,0.6-0.6,0.6h-1.9v-2.5h-6.3v2.5h-1.9C62.9,45.4,62.6,45.2,62.6,44.8z M63.9,56.8h-3.8v-1.3
		h3.8V56.8z M67,56.8h-1.9v-2.5h-6.3v2.5h-1.9c-0.3,0-0.6-0.3-0.6-0.6v-8.8c0-0.3,0.3-0.6,0.6-0.6h1.9v2.5h6.3v-2.5H67
		c0.3,0,0.6,0.3,0.6,0.6v8.8C67.7,56.5,67.4,56.8,67,56.8z M76.5,56.8h-3.8v-1.3h3.8V56.8z M80.3,56.2c0,0.3-0.3,0.6-0.6,0.6h-1.9
		v-2.5h-6.3v2.5h-1.9c-0.3,0-0.6-0.3-0.6-0.6v-8.8c0-0.3,0.3-0.6,0.6-0.6h1.9v2.5h6.3v-2.5h1.9c0.3,0,0.6,0.3,0.6,0.6V56.2z"/>
	<path class="st0" d="M20.5,56.1h-3.8V58h17.2v-1.9H30v-4.8h17.2c1.6,0,2.9-1.3,2.9-2.9V34.2h-1.9v5.7H2.4V14.1c0-0.5,0.4-1,1-1h20
		v-1.9h-20c-1.6,0-2.9,1.3-2.9,2.9v34.4c0,1.6,1.3,2.9,2.9,2.9h17.2V56.1z M28.1,56.1h-5.7v-4.8h5.7V56.1z M3.3,49.4
		c-0.5,0-1-0.4-1-1v-6.7h45.8v6.7c0,0.5-0.4,1-1,1H3.3z"/>
	<path class="st0" d="M27.2,45.6c0,1.1-0.9,1.9-1.9,1.9s-1.9-0.9-1.9-1.9c0-1.1,0.9-1.9,1.9-1.9S27.2,44.6,27.2,45.6z"/>
	<path class="st0" d="M41.5,0.8c-9,0-16.2,7.3-16.2,16.2s7.3,16.2,16.2,16.2S57.7,25.9,57.7,17C57.7,8,50.5,0.8,41.5,0.8z M37.4,3.3
		c-1.2,1.7-2,3.6-2.5,5.6c-1.5-0.2-3-0.5-4.4-1C32.2,5.7,34.7,4.1,37.4,3.3z M29.3,9.5c1.7,0.6,3.4,1,5.1,1.2
		c-0.3,1.7-0.5,3.5-0.5,5.3h-6.7C27.4,13.7,28.1,11.5,29.3,9.5z M29.3,24.4c-1.2-2-1.9-4.2-2.1-6.5h6.7c0,1.8,0.2,3.5,0.5,5.3
		C32.7,23.4,31,23.9,29.3,24.4z M30.4,26c1.4-0.4,2.9-0.8,4.4-1c0.5,2,1.3,3.9,2.5,5.6C34.7,29.9,32.2,28.2,30.4,26z M40.6,31.1
		c-1.4-0.7-2.9-2.9-3.8-6.2c1.2-0.1,2.5-0.2,3.8-0.2V31.1z M40.6,22.7c-1.5,0-2.9,0.1-4.2,0.2c-0.3-1.7-0.5-3.4-0.5-5h4.8V22.7z
		 M40.6,16h-4.8c0-1.7,0.2-3.4,0.5-5c1.4,0.1,2.8,0.2,4.2,0.2V16z M40.6,9.3c-1.3,0-2.6-0.1-3.8-0.2c0.9-3.3,2.3-5.5,3.8-6.2V9.3z
		 M52.6,7.9c-1.4,0.4-2.9,0.8-4.4,1c-0.5-2-1.3-3.9-2.5-5.6C48.4,4.1,50.8,5.7,52.6,7.9z M42.5,2.9c1.4,0.7,2.9,2.9,3.8,6.2
		c-1.2,0.1-2.5,0.2-3.8,0.2V2.9z M42.5,11.2c1.5,0,2.9-0.1,4.2-0.2c0.3,1.7,0.5,3.3,0.5,5h-4.8V11.2z M42.5,17.9h4.8
		c0,1.7-0.2,3.4-0.5,5c-1.4-0.1-2.8-0.2-4.2-0.2V17.9z M42.5,31.1v-6.4c1.3,0,2.6,0.1,3.8,0.2C45.3,28.1,43.9,30.4,42.5,31.1z
		 M45.6,30.7c1.2-1.7,2-3.6,2.5-5.6c1.5,0.2,3,0.5,4.4,1C50.8,28.2,48.4,29.9,45.6,30.7z M53.7,24.4c-1.7-0.6-3.4-1-5.1-1.2
		c0.3-1.7,0.5-3.5,0.5-5.3h6.7C55.6,20.2,54.9,22.5,53.7,24.4z M55.8,16h-6.7c0-1.8-0.2-3.5-0.5-5.3c1.7-0.2,3.5-0.6,5.1-1.2
		C54.9,11.5,55.6,13.7,55.8,16z"/>
</g>
</svg>
