<?xml version="1.0" encoding="utf-8"?>
<!-- Generator: Adobe Illustrator 24.1.1, SVG Export Plug-In . SVG Version: 6.00 Build 0)  -->
<svg version="1.1" id="Layer_1" xmlns="http://www.w3.org/2000/svg" xmlns:xlink="http://www.w3.org/1999/xlink" x="0px" y="0px"
	 viewBox="0 0 18 24" style="enable-background:new 0 0 18 24;" xml:space="preserve">
<style type="text/css">
	.st0{fill:#FC6A55;}
	.st1{fill:#EDEDED;}
	.st2{fill:none;stroke:#FC6A55;stroke-miterlimit:10;}
	.st3{fill:#222F3F;}
	.st4{fill:#383838;}
	.st5{fill:#FFFFFF;}
	.st6{fill:#656D7A;}
	.st7{fill:#C4C4C4;}
	.st8{filter:url(#Adobe_OpacityMaskFilter);}
	.st9{fill-rule:evenodd;clip-rule:evenodd;fill:#FFFFFF;}
	.st10{mask:url(#mask-2_8_);fill-rule:evenodd;clip-rule:evenodd;fill:#FFFFFF;}
	.st11{filter:url(#Adobe_OpacityMaskFilter_1_);}
	.st12{mask:url(#mask-2_7_);fill-rule:evenodd;clip-rule:evenodd;fill:#FFFFFF;}
	.st13{filter:url(#Adobe_OpacityMaskFilter_2_);}
	.st14{mask:url(#mask-2_6_);fill-rule:evenodd;clip-rule:evenodd;fill:#FFFFFF;}
	.st15{filter:url(#Adobe_OpacityMaskFilter_3_);}
	.st16{mask:url(#mask-2_5_);fill-rule:evenodd;clip-rule:evenodd;fill:#FFFFFF;}
	.st17{filter:url(#Adobe_OpacityMaskFilter_4_);}
	.st18{mask:url(#mask-2_2_);fill:none;stroke:#FFFFFF;stroke-width:1.5;stroke-miterlimit:10;}
	.st19{fill:#B4A3EE;}
	.st20{fill:#434343;}
	.st21{fill:#434343;stroke:#F9F9F9;stroke-width:0.25;stroke-miterlimit:10;}
	.st22{fill:none;stroke:#FC6A55;stroke-width:0.75;stroke-miterlimit:10;}
	.st23{fill:#FC6A55;stroke:#FC6A55;stroke-width:0.25;stroke-miterlimit:10;}
	.st24{fill:#FC6A55;stroke:#FC6A55;stroke-width:0.5;stroke-miterlimit:10;}
	.st25{opacity:0.153;fill:url(#Path_44_);enable-background:new    ;}
	.st26{opacity:0.1;fill:#590BB2;enable-background:new    ;}
	.st27{fill:#8E8CA8;}
	.st28{fill:#F5F4F9;}
	.st29{fill:#FFD5B8;}
	.st30{fill:#FC8473;}
	.st31{fill:#1C3475;}
	.st32{fill:#DDD9E4;}
	.st33{fill:#828FB3;}
	.st34{opacity:7.584635e-02;fill:url(#Path_45_);enable-background:new    ;}
	.st35{fill:#FFBE92;}
	.st36{fill:#FB8E7F;}
	.st37{fill:#FDB1A6;}
	.st38{fill:#FC806F;}
	.st39{fill:#FFE783;}
	.st40{fill:#104478;}
	.st41{fill:none;stroke:#FFFFFF;stroke-miterlimit:10;}
	.st42{fill:none;stroke:#000000;stroke-width:0.15;stroke-miterlimit:10;}
	.st43{opacity:0.1;fill:url(#Path_46_);enable-background:new    ;}
	.st44{opacity:0.1;fill:url(#Path_47_);enable-background:new    ;}
	.st45{fill-rule:evenodd;clip-rule:evenodd;fill:#FC6A55;}
	.st46{fill-rule:evenodd;clip-rule:evenodd;}
	.st47{fill:#FF6757;}
	.st48{fill:#6C973D;}
	.st49{fill:none;stroke:#FFFFFF;stroke-width:0.5;stroke-miterlimit:10;}
	.st50{fill:#606060;}
	.st51{fill:#F16A56;}
	.st52{fill:#515252;}
	.st53{fill:#656565;}
	.st54{fill:#F26A56;}
	.st55{fill:none;stroke:#F16A56;stroke-miterlimit:10;}
	.st56{fill:none;stroke:#929292;stroke-miterlimit:10;}
	.st57{fill:#929292;}
	.st58{fill:none;stroke:#000000;stroke-width:0.5;stroke-miterlimit:10;}
	.st59{fill:#A8A7A7;}
	.st60{fill:#F79F91;}
	.st61{fill:#9BDBD5;}
	.st62{fill:#222121;}
	.st63{stroke:#000000;stroke-width:0.25;stroke-miterlimit:10;}
</style>
<g>
	<g>
		<g>
			<path class="st0" d="M14.6,18.7l-0.7-2c-0.2-0.7-0.8-1.2-1.6-1.4L10.4,15v-0.2c0.3-0.2,0.6-0.5,0.9-0.8h0.6
				c0.5,0,0.9-0.4,0.9-0.9V9.7c0-2.1-1.7-3.8-3.8-3.8S5.2,7.6,5.2,9.7v2c0,0.6,0.4,1,0.9,1.1c0.2,0.8,0.7,1.5,1.4,2V15l-1.9,0.4
				C4.8,15.4,4.2,16,4,16.7L3.9,17l-1-1c-0.1-0.1-0.1-0.3,0-0.4l1.1-1.1l-2.2-2.2l-1.3,1.3C0.2,14,0,14.5,0,15.1s0.2,1.1,0.6,1.4
				l3.9,3.9C4.9,20.8,5.4,21,6,21s1.1-0.2,1.4-0.6l1.4-1.3l-0.4-0.4H14.6z M12.2,13.2c0,0.2-0.1,0.3-0.3,0.3h-0.2
				c0.1-0.2,0.1-0.4,0.2-0.6c0.1,0,0.2-0.1,0.3-0.1V13.2z M11.9,12.2v-1c0.2,0.1,0.3,0.3,0.3,0.5S12.1,12.1,11.9,12.2z M6.1,12.2
				c-0.2-0.1-0.3-0.3-0.3-0.5s0.1-0.4,0.3-0.5V12.2z M6.1,10.3v0.3c-0.1,0-0.2,0.1-0.3,0.1v-1c0-1.8,1.4-3.2,3.2-3.2
				s3.2,1.4,3.2,3.2v1c-0.1-0.1-0.2-0.1-0.3-0.1v-0.3h-0.3c-0.9,0-1.7-0.3-2.3-0.9L9,9L8.6,9.3C8,9.9,7.2,10.3,6.4,10.3H6.1z
				 M6.7,12.3v-1.5c0.9-0.1,1.7-0.4,2.3-1c0.6,0.6,1.5,1,2.3,1v1.5c0,0.4-0.1,0.8-0.3,1.2H9V14h1.5c-0.4,0.4-0.9,0.6-1.5,0.6
				C7.7,14.6,6.7,13.6,6.7,12.3z M9.9,15.1L9.9,15.1L9,16l-0.9-0.9v0c0.3,0.1,0.6,0.1,0.9,0.1C9.3,15.2,9.6,15.2,9.9,15.1z
				 M4.6,16.9c0.2-0.5,0.6-0.9,1.1-1l2-0.4L9,16.8l1.3-1.3l2,0.4c0.5,0.1,1,0.5,1.1,1l0.4,1.3h-6L6.7,17l-1.3,1.1
				c-0.1,0.1-0.3,0.1-0.4,0l-0.6-0.6L4.6,16.9z M1.9,13.1l1.3,1.3l-0.3,0.3l-1.3-1.3L1.9,13.1z M7,20c-0.3,0.3-0.6,0.4-1,0.4
				c-0.4,0-0.8-0.2-1-0.4L1,16.1c-0.3-0.3-0.4-0.6-0.4-1c0-0.4,0.2-0.8,0.4-1l0.2-0.2l1.3,1.3l0,0c-0.3,0.3-0.3,0.9,0,1.2l2.1,2.1
				c0.2,0.2,0.4,0.3,0.6,0.3c0.2,0,0.5-0.1,0.6-0.2l0,0l1.3,1.3L7,20z M7.6,19.5l-1.3-1.3l0.4-0.3L8,19.1L7.6,19.5z"/>
		</g>
	</g>
	<g>
		<g>
			<path class="st0" d="M17.1,3h-4.1c-0.5,0-0.9,0.4-0.9,0.9v2.3c0,0.5,0.4,0.9,0.9,0.9h0.8l-0.3,1.8l2.8-1.8h0.8
				c0.5,0,0.9-0.4,0.9-0.9V3.9C18,3.4,17.6,3,17.1,3z M17.4,6.2c0,0.2-0.1,0.3-0.3,0.3h-1l-1.8,1.2l0.2-1.2h-1.5
				c-0.2,0-0.3-0.1-0.3-0.3V3.9c0-0.2,0.1-0.3,0.3-0.3h4.1c0.2,0,0.3,0.1,0.3,0.3V6.2z"/>
		</g>
	</g>
	<g>
		<g>
			<rect x="13.3" y="4.1" class="st0" width="3.5" height="0.6"/>
		</g>
	</g>
	<g>
		<g>
			<rect x="13.3" y="5.3" class="st0" width="2.3" height="0.6"/>
		</g>
	</g>
	<g>
		<g>
			<rect x="16.3" y="5.3" class="st0" width="0.6" height="0.6"/>
		</g>
	</g>
	<g>
		<g>
			<path class="st0" d="M9,3.9c-3.8,0-7.1,2.6-7.9,6.3L0.5,9.2L0,9.5l1,1.7l1.7-1L2.4,9.7l-0.8,0.5C2.5,6.8,5.5,4.4,9,4.4
				c0.8,0,1.5,0.1,2.2,0.3l0.2-0.6C10.6,4,9.8,3.9,9,3.9z"/>
		</g>
	</g>
	<g>
		<g>
			<path class="st0" d="M17.9,9.4l-1.7-1l-1,1.7l0.5,0.3l0.5-0.8c0.3,0.8,0.4,1.6,0.4,2.4c0,1.7-0.6,3.4-1.7,4.8l0.5,0.4
				c1.2-1.4,1.8-3.3,1.8-5.1c0-0.9-0.1-1.8-0.4-2.6l0.9,0.5L17.9,9.4z"/>
		</g>
	</g>
</g>
</svg>
